<svg xmlns="http://www.w3.org/2000/svg" viewBox="0 0 83.339 17.636"><defs><linearGradient id="A" gradientUnits="userSpaceOnUse"><stop offset="0" stop-color="red"/><stop offset=".484" stop-color="#c8ab37"/><stop offset="1" stop-color="#0a0"/></linearGradient><linearGradient href="#A" id="B" x1="84.85193" x2="36.19623" y1="120.77988" y2="132.64352"/><linearGradient href="#A" id="C" x1="101.62493" x2="52.96923" y1="130.01288" y2="141.87652"/><linearGradient href="#A" id="D" x1="117.21393" x2="68.55823" y1="130.01288" y2="141.87652"/><linearGradient href="#A" id="E" x1="139.03393" x2="90.37823" y1="130.01288" y2="141.87652"/><linearGradient href="#A" id="F" x1="81.73493" x2="33.07923" y1="120.77988" y2="132.64352"/><linearGradient href="#A" id="G" x1="84.85193" x2="36.19623" y1="123.94688" y2="135.81052"/><linearGradient href="#A" id="H" x1="126.56393" x2="77.90823" y1="130.01288" y2="141.87652"/><linearGradient href="#A" id="I" x1="81.73493" x2="33.07923" y1="123.94588" y2="135.80952"/><linearGradient href="#A" id="J" x1="84.85193" x2="36.19623" y1="127.11188" y2="138.97552"/><linearGradient href="#A" id="K" x1="81.73493" x2="33.07923" y1="127.11188" y2="138.97552"/><linearGradient href="#A" id="L" x1="84.85193" x2="36.19623" y1="130.27888" y2="142.14252"/><linearGradient href="#A" id="M" x1="107.85893" x2="59.20323" y1="130.01288" y2="141.87652"/><linearGradient href="#A" id="N" x1="123.44793" x2="74.79223" y1="130.01288" y2="141.87652"/><linearGradient href="#A" id="O" x1="81.73493" x2="33.07923" y1="130.27688" y2="142.14052"/><linearGradient id="P" x1="157.489" x2="157.489" y1="880.705" y2="920.377" gradientUnits="userSpaceOnUse"><stop offset="0" stop-color="#fff"/><stop offset="1" stop-color="#b3ff80"/></linearGradient><linearGradient id="Q" x1="202.431" x2="202.431" y1="885.18" y2="918.563" gradientUnits="userSpaceOnUse"><stop offset="0" stop-color="#030"/><stop offset="1" stop-color="#7fff2a"/></linearGradient><path id="R" d="M100.499 141.861a1.068 1.068 0 0 1-.756-1.825 1.069 1.069 0 1 1 .756 1.825"/><path id="S" d="M94.265 141.861a1.07 1.07 0 1 1 0-2.137 1.07 1.07 0 0 1 0 2.137"/><path id="T" d="M99.743 138.383a1.066 1.066 0 0 0 1.513 0 1.069 1.069 0 1 0-1.513 0"/><path id="U" d="M100.499 132.365a1.07 1.07 0 1 1 0-2.141 1.07 1.07 0 0 1 0 2.141"/></defs><g transform="translate(-18.323 -131.539)"><rect width="83.339" height="17.636" x="18.323" y="131.539" fill="#095800" fill-opacity=".667" ry="2"/><path stroke="#000" stroke-linecap="round" stroke-linejoin="round" d="M30.20143 134.55135c-.544 0-1.03831.05487-1.48369.16735l-.0005.0005a4.8946 4.8946 0 0 0-1.22163.49039c-.38154.21304-.83537.55843-1.37291 1.03864-.07149.06375-.07899.17289-.01689.24582l1.53213 1.79297a.1764.1764 0 0 0 .24964.01912c.41284-.35706.77898-.62274 1.09296-.79779l.00124-.0005c.31298-.17629.61106-.25997.90169-.25997s.4819.06779.61678.18821.20245.27387.20245.5038c.00041.18922-.04.3763-.11849.54849l-.00149.00348c-.07452.17381-.21934.40175-.4347.67215-.21238.26196-.68335.77569-1.40222 1.52705l-2.51828 2.54607c-.03291.0329-.05126.07762-.05092.12415v1.83543c-.00007.0468.01849.0917.05157.12482a.1764.1764 0 0 0 .1248.05172h7.4915a.1764.1764 0 0 0 .12471-.05164c.03307-.03306.05166-.0779.05166-.12466v-2.30174c.00007-.0468-.01849-.0917-.05157-.12482a.1764.1764 0 0 0-.1248-.05172h-3.532l1.99291-1.86126v-.0005c.35919-.37319.64882-.72901.86865-1.07092l.0005-.00099q.32963-.51969.48612-1.06148l.0005-.0005q.1627-.54254.16245-1.17173c0-.57208-.15649-1.09674-.46674-1.55759-.30628-.4668-.74346-.82709-1.29665-1.07415h-.00075c-.54797-.24681-1.16922-.36823-1.85803-.36823m-8.70468.00298a.1764.1764 0 0 0-.12496.05163c-.03314.03312-.05172.07806-.05166.12491v10.46262c0 .0468.01862.09168.05174.12475a.1764.1764 0 0 0 .12487.05155h2.8417a.1764.1764 0 0 0 .12471-.05164c.03307-.03306.05166-.0779.05166-.12466v-10.46262c0-.04676-.01858-.0916-.05166-.12466a.1764.1764 0 0 0-.12471-.05164zm14.24947 0a.1764.1764 0 0 0-.1248.05172c-.03308.03312-.05163.07802-.05157.12482v10.46262c0 .04676.01858.0916.05166.12466a.1764.1764 0 0 0 .12471.05164h2.82754a.1764.1764 0 0 0 .12471-.05164c.03307-.03306.05166-.0779.05166-.12466v-3.29444h.61852c1.29864 0 2.32751-.32726 3.05433-.99841s1.09495-1.63828 1.09495-2.84204c0-1.10047-.35173-1.98243-1.0557-2.59474s-1.74625-.90952-3.09382-.90952zm11.82036 1.45529a.1764.1764 0 0 0-.1248.05172c-.03308.03312-.05163.07802-.05157.12482v2.60616h-2.64422a.1764.1764 0 0 0-.12496.05163c-.03314.03312-.05172.07806-.05166.12491v2.03209c0 .04676.01858.0916.05166.12466a.1764.1764 0 0 0 .12471.05164h2.64422v2.56121c-.00007.04684.01852.09178.05166.12491a.1764.1764 0 0 0 .12496.05163h2.03961a.1764.1764 0 0 0 .12487-.05155c.03313-.03307.05174-.07795.05174-.12475v-2.56121h2.64372a.1764.1764 0 0 0 .1248-.05172c.03308-.03312.05163-.07802.05157-.12482v-2.03209c0-.04676-.01858-.0916-.05166-.12466a.1764.1764 0 0 0-.12471-.05164H49.7828v-2.60641c0-.04676-.01858-.0916-.05166-.12466a.1764.1764 0 0 0-.12471-.05164zm-8.81621 1.18042h.55344c.3649 0 .61007.08194.76234.21925s.23523.3429.23523.66346c0 .38437-.1088.65675-.32416.85986l-.00099.00099c-.21189.20361-.49506.30839-.88679.30839h-.33907z" stroke-width="1.00011"/><g transform="translate(0 4.049)"><path fill="url(#B)" d="M36.965 132.627a1.066 1.066 0 0 1-.756-1.824 1.07 1.07 0 0 1 1.512 0 1.066 1.066 0 0 1-.756 1.824"/><path fill="url(#F)" d="M36.966 132.628a1.07 1.07 0 0 1-.758-.312 1.072 1.072 0 0 1 1.516-1.513 1.074 1.074 0 0 1 0 1.513c-.21.208-.484.312-.758.312"/><path fill="url(#G)" d="M36.21 132.316a1.067 1.067 0 0 0 1.51 0c.42-.417.42-1.094 0-1.513a1.07 1.07 0 0 0-1.51 0 1.067 1.067 0 0 0 0 1.513"/><path fill="url(#I)" d="M36.208 132.316a1.071 1.071 0 1 0 1.515-1.514 1.071 1.071 0 0 0-1.515 1.514"/><path fill="url(#J)" d="M36.21 132.316a1.065 1.065 0 0 0 1.51 0c.42-.417.42-1.097 0-1.513a1.07 1.07 0 0 0-1.51 0 1.067 1.067 0 0 0 0 1.513"/><path fill="url(#K)" d="M36.208 132.318c.41954.41642 1.09646.41642 1.516 0s.41631-1.0958 0-1.515-1.09713-.41807-1.516 0-.4174 1.09625 0 1.515"/><path fill="url(#L)" d="M36.965 132.631a1.07 1.07 0 0 1-.756-1.827 1.066 1.066 0 0 1 1.512 0 1.07 1.07 0 0 1 0 1.513 1.07 1.07 0 0 1-.756.314"/></g><g transform="translate(-2.906 4.313)"><use href="#R" fill="url(#C)"/><path fill="url(#C)" d="M97.38 141.861a1.07 1.07 0 1 1 .76-1.825 1.067 1.067 0 0 1-.76 1.825"/><use href="#S" fill="url(#C)"/><path fill="url(#C)" d="M91.147 141.861a1.067 1.067 0 0 1-.756-1.825 1.07 1.07 0 1 1 .756 1.825"/><path fill="url(#C)" d="M88.03 141.861a1.067 1.067 0 0 1-.757-1.825 1.069 1.069 0 1 1 .757 1.825"/><path fill="url(#C)" d="M84.912 141.861c-.273 0-.548-.104-.758-.312a1.07 1.07 0 1 1 .758.312"/><path fill="url(#C)" d="M81.793 141.861a1.067 1.067 0 0 1-.754-1.825 1.069 1.069 0 1 1 .754 1.825"/><use href="#S" x="-15.589" fill="url(#D)"/><path fill="url(#C)" d="M75.56 141.861c-.275 0-.548-.104-.756-.312a1.069 1.069 0 1 1 .757.312"/><path fill="url(#C)" d="M72.443 141.861a1.07 1.07 0 0 1-.758-.312 1.072 1.072 0 1 1 1.515 0 1.07 1.07 0 0 1-.757.312"/><path fill="url(#C)" d="M69.325 141.861c-.274 0-.547-.104-.757-.312a1.072 1.072 0 1 1 1.515 0 1.08 1.08 0 0 1-.758.312"/><path fill="url(#C)" d="M66.207 141.861c-.272 0-.547-.104-.757-.312a1.072 1.072 0 1 1 1.515 0c-.21.208-.485.312-.758.312"/><use href="#R" x="-37.409" fill="url(#E)"/><path fill="url(#C)" d="M59.972 141.861a1.067 1.067 0 0 1-.755-1.825 1.07 1.07 0 1 1 .755 1.825"/><use href="#T" fill="url(#C)"/><path fill="url(#C)" d="M96.626 138.383a1.072 1.072 0 0 0 1.514-1.513 1.07 1.07 0 0 0-1.514 1.513"/><path fill="url(#C)" d="M93.51 138.383a1.064 1.064 0 0 0 1.512 0 1.069 1.069 0 1 0-1.513 0"/><path fill="url(#C)" d="M90.391 138.383a1.06 1.06 0 0 0 1.512 0 1.07 1.07 0 1 0-1.512 0"/><path fill="url(#C)" d="M87.273 138.383a1.065 1.065 0 0 0 1.513 0 1.069 1.069 0 1 0-1.513 0"/><path fill="url(#C)" d="M84.154 138.383a1.073 1.073 0 0 0 1.514 0 1.07 1.07 0 1 0-1.514 0"/><path fill="url(#C)" d="M81.04 138.383c.208.21.481.314.753.314a1.072 1.072 0 0 0 .76-1.827 1.069 1.069 0 1 0-1.513 1.513"/><path fill="url(#C)" d="M77.92 138.383a1.07 1.07 0 0 0 1.513 0 1.07 1.07 0 1 0-1.512 0"/><use href="#T" x="-24.939" fill="url(#H)"/><path fill="url(#C)" d="M71.685 138.383a1.067 1.067 0 0 0 1.515 0 1.072 1.072 0 0 0-1.515-1.513 1.074 1.074 0 0 0 0 1.513"/><path fill="url(#C)" d="M68.568 138.383a1.07 1.07 0 1 0 1.515-1.512 1.07 1.07 0 0 0-1.515 1.512"/><path fill="url(#C)" d="M65.45 138.383a1.07 1.07 0 0 0 1.515 0 1.07 1.07 0 1 0-1.515 0"/><use href="#T" x="-37.409" fill="url(#E)"/><path fill="url(#C)" d="M59.217 138.383c.206.21.482.314.755.314a1.07 1.07 0 1 0-.755-.314"/><path fill="url(#C)" d="M99.743 135.218a1.07 1.07 0 0 0 1.513 0 1.069 1.069 0 1 0-1.513 0"/><path fill="url(#C)" d="M96.626 135.218a1.066 1.066 0 0 0 1.514 0 1.07 1.07 0 1 0-1.514 0"/><path fill="url(#C)" d="M93.51 135.218a1.07 1.07 0 0 0 1.512 0 1.069 1.069 0 1 0-1.513 0"/><path fill="url(#C)" d="M90.391 135.218a1.067 1.067 0 0 0 1.512 0 1.07 1.07 0 1 0-1.512 0"/><path fill="url(#C)" d="M87.273 135.218a1.07 1.07 0 1 0 1.513-1.514 1.069 1.069 0 1 0-1.513 1.514"/><path fill="url(#C)" d="M84.154 135.218a1.071 1.071 0 1 0 0-1.514 1.073 1.073 0 0 0 0 1.514"/><path fill="url(#C)" d="M81.04 135.218a1.066 1.066 0 0 0 1.512 0 1.069 1.069 0 1 0-1.513-1.514 1.07 1.07 0 0 0 0 1.514"/><path fill="url(#C)" d="M77.92 135.218a1.066 1.066 0 0 0 1.513 0 1.07 1.07 0 1 0-1.512 0"/><path fill="url(#C)" d="M74.804 135.218a1.067 1.067 0 0 0 1.512 0 1.069 1.069 0 1 0-1.513 0"/><path fill="url(#C)" d="M71.685 135.218a1.07 1.07 0 0 0 1.515 0 1.072 1.072 0 1 0-1.515 0"/><path fill="url(#C)" d="M68.568 135.218c.21.208.483.315.757.315a1.073 1.073 0 0 0 .758-1.828 1.072 1.072 0 0 0-1.515 1.513"/><path fill="url(#C)" d="M65.45 135.218c.21.208.485.315.757.315a1.07 1.07 0 1 0-.757-.314"/><path fill="url(#C)" d="M62.334 135.218a1.07 1.07 0 1 0 1.515-1.513 1.07 1.07 0 0 0-1.515 1.513"/><path fill="url(#C)" d="M59.217 135.218a1.06 1.06 0 0 0 1.51 0 1.07 1.07 0 0 0 0-1.514 1.069 1.069 0 1 0-1.51 1.514"/><use href="#U" fill="url(#C)"/><path fill="url(#C)" d="M97.38 132.365a1.07 1.07 0 1 1 .76-1.827 1.072 1.072 0 0 1-.76 1.827"/><use href="#U" x="-6.234" fill="url(#M)"/><path fill="url(#C)" d="M91.147 132.365c-.273 0-.549-.105-.756-.314a1.07 1.07 0 1 1 .756.314"/><path fill="url(#C)" d="M88.03 132.365a1.07 1.07 0 1 1-.002-2.141 1.07 1.07 0 0 1 .002 2.141"/><path fill="url(#C)" d="M84.912 132.365a1.072 1.072 0 0 1-.758-1.827 1.07 1.07 0 1 1 .758 1.827"/><path fill="url(#C)" d="M81.793 132.365a1.06 1.06 0 0 1-.753-.314 1.067 1.067 0 0 1 0-1.513 1.07 1.07 0 0 1 1.512 0 1.071 1.071 0 0 1-.759 1.827"/><use href="#U" x="-21.823" fill="url(#N)"/><path fill="url(#C)" d="M75.56 132.365a1.072 1.072 0 0 1-.757-1.827 1.07 1.07 0 0 1 1.513 0 1.072 1.072 0 0 1-.755 1.827"/><path fill="url(#C)" d="M72.443 132.365c-.275 0-.55-.105-.758-.314a1.074 1.074 0 0 1 0-1.513 1.072 1.072 0 1 1 .758 1.827"/><path fill="url(#C)" d="M69.325 132.365a1.07 1.07 0 1 1 .001-2.14 1.07 1.07 0 0 1-.001 2.14"/><path fill="url(#C)" d="M66.207 132.365c-.272 0-.547-.105-.757-.314a1.074 1.074 0 0 1 0-1.513 1.07 1.07 0 1 1 .757 1.827"/><use href="#U" x="-37.409" fill="url(#E)"/><path fill="url(#C)" d="M59.972 132.368a1.06 1.06 0 0 1-.755-.317 1.068 1.068 0 1 1 1.51 0c-.207.21-.48.317-.755.317"/></g><path fill="url(#O)" d="M36.966 132.63a1.071 1.071 0 0 1-.758-1.827 1.075 1.075 0 0 1 1.516 0 1.071 1.071 0 0 1-.758 1.827" transform="translate(0 4.049)"/><path fill="url(#Q)" stroke="url(#P)" stroke-linecap="round" stroke-linejoin="round" stroke-width="2.131" d="M195.67 867.15c-2.19 0-4.18.221-5.973.674l-.002.002a19.7 19.7 0 0 0-4.918 1.975c-1.536.858-3.363 2.249-5.527 4.183a.71.71 0 0 0-.068.99l6.168 7.221a.71.71 0 0 0 1.005.077c1.662-1.438 3.136-2.508 4.4-3.213l.005-.002c1.26-.71 2.46-1.047 3.63-1.047 1.153 0 1.94.273 2.483.758.55.49.815 1.103.815 2.029a5.3 5.3 0 0 1-.477 2.209l-.006.014c-.3.7-.883 1.618-1.75 2.707-.855 1.055-2.751 3.124-5.645 6.15l-10.138 10.254a.7.7 0 0 0-.205.5v7.392a.71.71 0 0 0 .71.711h30.159a.71.71 0 0 0 .71-.71v-9.27a.71.71 0 0 0-.71-.711h-14.219c3.763-3.398 6.744-6.148 8.023-7.496v-.002c1.446-1.503 2.612-2.936 3.497-4.313l.002-.004q1.327-2.093 1.957-4.275l.002-.002q.655-2.185.654-4.719c0-2.304-.63-4.417-1.879-6.273-1.233-1.88-2.993-3.331-5.22-4.326h-.003c-2.206-.994-4.707-1.483-7.48-1.483m-35.043.012a.71.71 0 0 0-.711.711v42.137a.71.71 0 0 0 .711.71h11.44a.71.71 0 0 0 .71-.71v-42.137a.71.71 0 0 0-.71-.71zm57.365 0a.71.71 0 0 0-.71.711v42.137a.71.71 0 0 0 .71.71h11.383a.71.71 0 0 0 .71-.71v-13.268h2.49c5.228 0 9.37-1.318 12.296-4.021 2.944-2.721 4.408-6.598 4.408-11.446 0-4.432-1.416-7.984-4.25-10.45-2.846-2.48-7.03-3.663-12.455-3.663zm47.586 5.861a.71.71 0 0 0-.71.711v10.496h-10.645a.71.71 0 0 0-.711.711v8.184a.71.71 0 0 0 .71.71h10.645v10.315a.71.71 0 0 0 .711.711h8.211a.71.71 0 0 0 .711-.71v-10.315h10.643a.71.71 0 0 0 .71-.711v-8.184a.71.71 0 0 0-.71-.71H274.5v-10.497a.71.71 0 0 0-.71-.71zm-35.492 4.754h2.228c1.469 0 2.456.33 3.069.883s.947 1.381.947 2.672c0 1.548-.438 2.645-1.305 3.463l-.004.004c-.853.82-1.993 1.242-3.57 1.242h-1.365z" transform="matrix(.2484 0 0 .2483 -18.403 -80.762)"/></g></svg>