<svg height="64" width="64" xmlns="http://www.w3.org/2000/svg"><circle cx="32" cy="32" fill="#71c837" r="32"/><circle cx="32" cy="32" fill="#fff" r="27.07"/><circle cx="32" cy="32" fill="#71c837" r="22.17"/><path d="m34.63 17.36a1.58 1.58 0 0 0 -1.12-.46.81.81 0 0 0 0 0h-3c-.85 0-1.58.73-1.58 1.58a.81.81 0 0 0 0 0l.04 10.44-10.46-.02c-.85 0-1.57.73-1.57 1.58v3.03c0 .85.73 1.58 1.58 1.58l10.45.04-.02 10.38c0 .85.73 1.58 1.58 1.58h3.03a1.6 1.6 0 0 0 1.58-1.58l.02-10.4h10.38c.87 0 1.6-.72 1.58-1.6v-3c0-.85-.73-1.58-1.58-1.58a.81.81 0 0 0 0 0l-10.37.04-.05-10.46a1.58 1.58 0 0 0 -.46-1.12z" fill="#fff"/></svg>