<svg height="64" width="64" xmlns="http://www.w3.org/2000/svg"><path d="m25.5 0c-.77 0-1.53.63-1.53 1.38l-.77 8.42c-2.14.92-4.13 2-5.82 3.37l-7.65-3.53c-.77-.3-1.7 0-2 .63l-6.58 11.33c-.46.77-.15 1.7.46 2.14l6.9 4.9c-.15 1.07-.3 2.14-.3 3.37s.15 2.3.3 3.37l-7.2 4.9c-.63.42-.91 1.35-.46 2.12l6.58 11.34c.46.77 1.22 1.07 2 .62l7.65-3.52a27.41 27.41 0 0 0 5.82 3.37l.77 8.42c.15.77.76 1.38 1.53 1.38h13.17c.77 0 1.53-.63 1.53-1.38l.77-8.42c2.14-.92 4.13-2 5.82-3.37l7.66 3.52c.77.3 1.68 0 2-.62l6.55-11.34c.46-.77.15-1.7-.46-2.14l-6.44-4.88c.15-1.07.3-2.14.3-3.37s-.15-2.3-.3-3.37l6.9-4.9c.62-.46.92-1.38.46-2.14l-6.74-11.33c-.46-.77-1.23-1.07-2-.63l-7.66 3.53a27.41 27.41 0 0 0 -5.81-3.37l-.77-8.42c-.14-.78-.76-1.38-1.52-1.38zm6.44 19.02a13.28 13.28 0 0 1 2.61.26 12.48 12.48 0 0 1 2.43.76 13.1 13.1 0 0 1 6.92 6.92c.33.78.6 1.6.76 2.43a13.2 13.2 0 0 1 0 5.22 12.48 12.48 0 0 1 -.76 2.43 13.1 13.1 0 0 1 -6.92 6.92c-.78.33-1.6.6-2.43.76a13.2 13.2 0 0 1 -5.22 0 11.9 11.9 0 0 1 -2.44-.75 13.1 13.1 0 0 1 -4.13-2.79c-1.17-1.18-2.13-2.58-2.8-4.13-.33-.78-.6-1.6-.76-2.43s-.27-1.72-.27-2.6.1-1.77.27-2.6a12.48 12.48 0 0 1 .76-2.43 13.1 13.1 0 0 1 6.92-6.92c.78-.33 1.6-.6 2.43-.76a13.2 13.2 0 0 1 2.61-.26z" fill="#ffd5e5"/></svg>