<svg xmlns="http://www.w3.org/2000/svg" height="64" width="64"><linearGradient id="A" gradientTransform="matrix(.63 -.49 .63 .49 -647.49 -398.37)" gradientUnits="userSpaceOnUse" x1="82.54" x2="89.91" y1="962.43" y2="969.8"><stop offset="0" stop-color="#b3b3b3"/><stop offset=".359" stop-color="#fff"/><stop offset=".75" stop-color="#ccc"/><stop offset="1" stop-color="#999"/></linearGradient><linearGradient id="B" gradientUnits="userSpaceOnUse" x1="10.18" x2="19.454" y1="34.772" y2="34.772"><stop offset="0" stop-color="#333"/><stop offset=".36" stop-color="#666"/><stop offset=".751" stop-color="#333"/><stop offset="1" stop-color="#1a1a1a"/></linearGradient><radialGradient id="C" cx="-84.1" cy="857.71" gradientTransform="matrix(.4 0 0 .46 75.57 -376.46)" gradientUnits="userSpaceOnUse" r="96.98"><stop offset="0" stop-color="#ffd42a"/><stop offset="1" stop-color="#f3361a"/></radialGradient><g transform="matrix(.87 0 0 .87 0 8.22)"><path d="M53.85 15.13l19.57-1.58-17.74 8.4 17.74 8.4-19.57-1.6L65 44.93 48.86 33.77l1.58 19.57-8.4-17.74-8.4 17.74 1.6-19.57-16.15 11.16L30.2 28.78l-19.56 1.6 17.74-8.4-17.74-8.4 19.56 1.58L19.06-1.02 35.2 10.14l-1.6-19.57 8.4 17.74 8.4-17.74-1.58 19.57L65-1.02z" fill="url(#C)"/><g fill-rule="evenodd" transform="matrix(.66 .66 -.66 .66 40.33 .95)"><path d="M12.6 15.5h9.32v54.33H12.6z" fill="#241c1c" stroke="#000" stroke-width="4"/><path d="M12.6 15.5V35.6h9.3V15.5z" fill="url(#A)"/><path d="M12.6 33.1h9.3v36.6h-9.3z" fill="url(#B)"/></g></g></svg>