<svg xmlns="http://www.w3.org/2000/svg" viewBox="0 0 64 64"><radialGradient id="A" cx="8.15" cy="56.16" gradientTransform="matrix(-.82 -.82 -.82 .82 84.62 24.7)" gradientUnits="userSpaceOnUse" r="39.39"><stop offset="0" stop-color="#fb8bbf"/><stop offset="1" stop-color="#d3285c"/></radialGradient><path d="M64.12 25L31.9 56.52 7.08 32.18 39.2.06z" fill="#d4aa00"/><path d="M64.1 25l-32 32.02L19.7 44.3l31.96-31.8z" fill="#ffce47"/><path d="M32 69.98c-9.7-.01-17.56-7.87-17.57-17.57V34.6h35.12l.01 17.8A17.57 17.57 0 0 1 32 69.97z" fill="url(#A)" transform="matrix(.71 .71 -.71 .71 32 -13.25)"/><path d="M32.75 56.38L42.8 46.36 17.85 21.42 7.82 31.46z" fill="#174461"/><path d="m42.73 46.33-10 10.07-12.56-12.55 10.09-10" fill="#6f7c91"/></svg>