<svg viewBox="0 0 64 64" xmlns="http://www.w3.org/2000/svg" xmlns:xlink="http://www.w3.org/1999/xlink"><radialGradient id="a" cx="8.15" cy="56.16" gradientTransform="matrix(-.82 -.82 -.82 .82 84.62 24.7)" gradientUnits="userSpaceOnUse" r="39.39"><stop offset="0" stop-color="#fb8bbf"/><stop offset="1" stop-color="#d3285c"/></radialGradient><path d="m64.12 24.99-32.22 31.53-24.82-24.34 32.12-32.12z" fill="#d4aa00"/><path d="m64.11 25.01-32.01 32.02-12.4-12.72 31.96-31.79z" fill="#ffce47"/><path d="m32 69.98a17.59 17.59 0 0 1 -17.57-17.57v-17.8l35.12-.01.01 17.8c0 9.7-7.86 17.57-17.56 17.57z" fill="url(#a)" transform="matrix(.71 .71 -.71 .71 32 -13.25)"/><path d="m32.75 56.38 10.05-10.02-24.95-24.94-10.03 10.04z" fill="#174461"/><path d="m42.73 46.33-10 10.07-12.56-12.55 10.09-10" fill="#6f7c91"/></svg>