<svg xmlns="http://www.w3.org/2000/svg" height="64" width="64"><linearGradient id="A" gradientUnits="userSpaceOnUse" x1="7.78" x2="23.12" y1="10.41" y2="33.31"><stop offset="0" stop-color="#ffd5f6"/><stop offset="1" stop-color="#fae"/></linearGradient><path d="m35.17 44.85 1.06 7.68h-8.45l1.06-7.68z" fill="#9d93ac"/><path d="M60 46.03c0 1.3-1.1 2.4-2.4 2.4H6.4c-1.3 0-2.4-1.1-2.4-2.4V9.95c0-1.3 1.1-2.4 2.4-2.4h51.2c1.3 0 2.4 1.1 2.4 2.4zm-37.05 6.2h18.1a2 2 0 0 1 2 2v.2a2 2 0 0 1-2 2h-18.1a2 2 0 0 1-2-2v-.2a2 2 0 0 1 2-2z" fill="#beb7c8"/><circle cx="32" cy="44.83" fill="#dedbe3" r="1.3"/><path d="M8.1 12l.04 29.26H56.2l-.02-29.2z" fill="#de87cd"/><path d="m7.5 12.46.04 28.97 49-28.98z" fill="url(#A)" transform="matrix(.98 0 0 1.01 .73 -.56)"/><path d="M7.96 12L8 41.27h48.05l-.02-29.2z" fill="none" stroke="#442178" stroke-width="2"/></svg>