<svg viewBox="0 0 64 64" xmlns="http://www.w3.org/2000/svg"><g transform="matrix(-1 0 0 1 64 0)"><circle cx="32" cy="32" fill="#4069df" r="32"/><g fill="#fff" stroke="#fff" stroke-linejoin="round"><path d="m49.58 38.66c-1.77 7.33-8.82 12.49-16.14 13.23-5.01.61-10.24-1.02-13.93-4.48-3.15-2.8-5.46-6.67-5.95-10.89l7.23 2.02c2.4 5.52 9.29 8.49 14.95 6.45 4.6-1.51 7.72-4.95 8.26-10.77.14-2.68-.56-4.87-1.85-6.94-3.34-5.12-10.02-7.41-15.41-4.84-1.07.61-2.03 1.3-3.23.63l-5.93-1.65c4.27-5.58 12.07-7.51 18.71-5.76 5.86 1.39 11.08 5.74 12.85 11.58 1.34 3.63 1.34 7.69.44 11.42z" stroke-width="2.01"/><path d="m-15.45-1.97v15.8l-13.68-7.9z" stroke-width="2" transform="matrix(.72 -.33 .48 1.06 31.95 9.11)"/></g></g></svg>