<svg height="64" width="64" xmlns="http://www.w3.org/2000/svg"><circle cx="32" cy="32" fill="#4069df" r="32"/><g fill="#fff" stroke="#fff" stroke-linejoin="round"><path d="m49.58 38.66a18.58 18.58 0 0 1 -22.81 12.68 18.56 18.56 0 0 1 -13.32-14.85l7.34 2.05.14.3.14.28.15.28.16.28.34.54.18.26.2.26.2.25.2.25.2.24.42.46.22.22.23.2.48.42.25.2.25.2.26.2.26.18.26.17.27.17.28.16.28.15.28.14.28.13.3.13.3.12.6.22.3.1.3.1.05.01.3.08.62.14.3.06.32.05.32.04.64.06.32.02.32.01h.32l.64-.02.64-.06.32-.04.32-.05.3-.06.62-.14.3-.08.3-.1.3-.1.6-.22.3-.12.58-.26.28-.14.28-.15.28-.16.54-.34.26-.18.26-.2.25-.2.25-.2.24-.2.46-.42.22-.22.2-.23.42-.48.2-.25.2-.25.2-.26.18-.26.17-.26.17-.27.16-.28.15-.28.14-.28.13-.28.13-.3.12-.3.22-.6.1-.3.1-.3.01-.05.08-.3.14-.62.06-.3.05-.32.04-.32.06-.64.02-.32v-.32-.32-.64l-.06-.64-.04-.32-.05-.32-.06-.3-.1-.32-.07-.3-.1-.3-.1-.3-.2-.6-.22-.2-.13-.3-.13-.3-.13-.28-.14-.28-.3-.55-.34-.54-.18-.26-.2-.26-.2-.25-.2-.25-.2-.24-.42-.46-.22-.22-.23-.2-.48-.42-.25-.2-.25-.2-.26-.2-.26-.18-.26-.17-.27-.17-.28-.16-.28-.15-.28-.14-.28-.13-.3-.13-.3-.12-.6-.22-.3-.1-.3-.1-.04-.02-.3-.08-.62-.14-.3-.06-.32-.05-.32-.04-.64-.06-.64-.02h-.32l-.32.01-.63.04-.32.03-.32.04-.32.05-.3.06-.62.14-.3.08-.3.1-.3.1-.6.22-.3.12-.3.13-.3.14-.28.14-.28.15-.28.16-.54.34-.04.03-7.32-2.04a18.56 18.56 0 0 1 31.96 17.07l-.05.2z" stroke-width="2.01"/><path d="m-15.45-1.97v15.8l-13.68-7.9z" stroke-width="2" transform="matrix(.72 -.33 .48 1.06 31.95 9.11)"/></g></svg>