<svg viewBox="0 0 64 64" xmlns="http://www.w3.org/2000/svg"><g stroke="#04a"><path d="m31.93 14.34c-9.7 0-17.66 7.95-17.66 17.66s7.95 17.66 17.66 17.66 17.67-7.96 17.67-17.66-7.95-17.66-17.66-17.66zm0 25.02c-4.12 0-7.36-3.24-7.36-7.36s3.24-7.36 7.36-7.36 7.37 3.24 7.37 7.36-3.24 7.36-7.36 7.36z" fill="#025"/><path d="m54.9 35.24c.15-1.03.3-2.06.3-3.24s-.15-2.2-.3-3.24l6.62-4.7c.6-.44.88-1.33.44-2.06l-6.46-10.9c-.44-.74-1.18-1.03-1.9-.6l-7.36 3.4a26.35 26.35 0 0 0 -5.59-3.24l-.74-8.1c-.15-.74-.74-1.33-1.47-1.33h-12.69c-.74 0-1.47.6-1.47 1.33l-.74 8.1c-2.06.88-3.97 1.9-5.6 3.24l-7.36-3.4c-.74-.3-1.62 0-1.9.6l-6.34 10.9c-.44.74-.15 1.62.44 2.06l6.62 4.7c-.15 1.03-.3 2.06-.3 3.24s.15 2.2.3 3.24l-6.92 4.7c-.6.44-.88 1.33-.44 2.06l6.33 10.9c.44.74 1.18 1.03 1.9.6l7.36-3.4a26.35 26.35 0 0 0 5.59 3.24l.74 8.1c.15.74.74 1.33 1.47 1.33h12.67c.74 0 1.47-.6 1.47-1.33l.74-8.1c2.06-.88 3.97-1.9 5.6-3.24l7.36 3.4c.74.3 1.62 0 1.9-.6l6.33-10.9c.44-.74.15-1.62-.44-2.06zm-22.97 11.48c-8.1 0-14.72-6.62-14.72-14.72s6.62-14.72 14.72-14.72 14.71 6.62 14.71 14.72-6.62 14.72-14.7 14.72z" fill="#d5e5ff" stroke-width="2.48"/></g></svg>