<svg viewBox="0 0 70 62" xmlns="http://www.w3.org/2000/svg"><g stroke="#4d4d4d" transform="matrix(3.78 0 0 3.78 -459.225 -108.792)"><path d="m127.933 34.662c0-1.154.701-2.23 1.394-3.194l.418-.573.979-1.469 1.432 2.047c.689.959 1.392 2.035 1.392 3.19 0 2.309-1.263 3.742-2.808 3.742s-2.807-1.433-2.807-3.742zm-3.151 9.574-.706-.076-1.786-.114.748-1.509.33-.749c.49-1.081 1.07-2.228 2.07-2.804 1.999-1.154 3.872-.779 4.644.56s.163 3.147-1.837 4.303c-.999.576-2.282.506-3.463.389zm8.453-.389c-1.872-1.081-2.529-2.739-1.967-4.046.038-.087.082-.173.129-.257a2.27 2.27 0 0 1 .158-.241c.456-.61 1.171-.967 2.024-1.004.745-.031 1.593.182 2.463.684 1.3.75 1.958 2.658 2.503 3.77l.698 1.299-1.27.06-.203.015-2.31.189c-.746.012-1.531-.07-2.224-.469z" fill="#98f2ff" stroke-linejoin="round" stroke-width="1"/><circle cx="119.621" cy="65.145" fill="#06c7fc" r="5.226" transform="matrix(.707 .707 .707 -.707 0 0)"/><path d="m127.711 38.783.516-.516 1.46 1.461 3.386-3.386.517.517-3.903 3.848z" fill="#fff"/></g></svg>