<svg xmlns="http://www.w3.org/2000/svg" viewBox="0 0 48 48"><g fill="#868686"><path d="M12.28 44h23.44a2.3 2.3 0 0 0 2.3-2.3V6.3a2.3 2.3 0 0 0-2.3-2.3H12.28a2.3 2.3 0 0 0-2.3 2.3v35.4a2.3 2.3 0 0 0 2.3 2.3zm21.78-2.82a1.38 1.38 0 1 1 0-2.76 1.38 1.38 0 0 1 0 2.76zm0-34.05a1.38 1.38 0 1 1 0 2.75 1.38 1.38 0 0 1 0-2.75zM24 8.16a10.8 10.8 0 1 1-2.72 21.23l2.03-3.44c.6-1.02-.55-2.18-1.57-1.57l-4.7 2.77-.02.02A10.79 10.79 0 0 1 24 8.16Zm-9.79-1.03a1.38 1.38 0 1 1 0 2.75 1.38 1.38 0 0 1 0-2.75zm0 31.29a1.38 1.38 0 1 1 0 2.75 1.38 1.38 0 0 1 0-2.75z"/><circle cx="24" cy="18.95" r="2.88"/></g></svg>