<svg viewBox="0 0 70 62" xmlns="http://www.w3.org/2000/svg"><g stroke="#4d4d4d" stroke-linejoin="round"><path d="m24.319 21.966c0-4.362 2.654-8.429 5.269-12.073l1.58-2.166 3.701-5.553 5.413 7.738c2.604 3.625 5.266 7.696 5.266 12.058 0 8.728-4.778 14.141-10.618 14.141s-10.61-5.417-10.61-14.141zm-11.911 36.19-2.669-.291-6.747-.431 2.824-5.704 1.247-2.831c1.852-4.086 4.048-8.418 7.825-10.599 7.556-4.362 14.636-2.945 17.558 2.117s.616 11.896-6.944 16.265c-3.776 2.177-8.626 1.916-13.09 1.47zm31.952-1.47c-7.076-4.082-9.56-10.35-7.435-15.294a9.715 9.715 0 0 1 .488-.971 8.921 8.921 0 0 1 .597-.911c1.724-2.306 4.426-3.655 7.647-3.795 2.816-.117 6.022.688 9.31 2.586 4.914 2.835 7.405 10.047 9.461 14.251l2.638 4.91-4.801.227-.767.057-8.732.714c-2.82.045-5.783-.265-8.407-1.773z" fill="#a0f76e" stroke-width="4"/><path d="m34.819 59.003-21.126-24.547h11.741l-.011-15.861h18.79v15.861h11.733z" fill="#0f0" stroke-width="4"/></g></svg>