<svg viewBox="0 0 70 62" xmlns="http://www.w3.org/2000/svg"><g stroke="#4d4d4d"><path d="m24.007 22.526c0-4.371 2.655-8.443 5.278-12.094l1.583-2.171 3.704-5.562 5.424 7.749c2.61 3.631 5.273 7.707 5.273 12.078 0 8.742-4.783 14.165-10.634 14.165s-10.627-5.424-10.627-14.165zm-11.931 36.246-2.673-.289-6.761-.432 2.829-5.712 1.252-2.836c1.855-4.092 4.053-8.433 7.837-10.616 7.569-4.37 14.659-2.947 17.585 2.121s.616 11.915-6.956 16.291c-3.784 2.182-8.642 1.919-13.114 1.473zm32.005-1.473c-7.088-4.089-9.576-10.367-7.446-15.318a10.16 10.16 0 0 1 .488-.973 9.23 9.23 0 0 1 .599-.911c1.726-2.31 4.434-3.66 7.662-3.801 2.822-.12 6.031.689 9.323 2.59 4.923 2.839 7.416 10.065 9.477 14.275l2.641 4.917-4.809.226-.769.057c-2.82.247-5.991.668-8.746.714-2.826.045-5.795-.264-8.421-1.778z" fill="#d40000" stroke-linejoin="round" stroke-width="4"/><circle cx="13.34" cy="-.607" fill="#f00" r="5.059" transform="matrix(2.672 2.672 2.672 -2.672 .971 .85)"/></g><path d="m39.206 39.928v-13.45h-8.966v13.45zm0 10.457v-6.485h-8.966v6.485z" fill="#fff"/></svg>