<svg viewBox="0 0 70 62" xmlns="http://www.w3.org/2000/svg"><g stroke="#4d4d4d" stroke-linejoin="round" transform="matrix(3.78 0 0 3.78 -.001 0)"><path d="m6.432 5.878c0-1.154.701-2.23 1.394-3.194l.418-.573.978-1.469 1.432 2.047c.689.959 1.393 2.036 1.393 3.19 0 2.309-1.263 3.742-2.809 3.742s-2.806-1.434-2.806-3.743zm-3.152 9.573-.706-.076-1.785-.114.747-1.509.331-.749c.49-1.081 1.07-2.227 2.07-2.804 1.999-1.154 3.872-.778 4.644.56s.163 3.147-1.837 4.303c-1 .576-2.282.507-3.464.389zm8.453-.389c-1.872-1.08-2.529-2.738-1.966-4.046a2.57 2.57 0 0 1 .129-.257c.048-.083.101-.164.158-.24.456-.61 1.171-.967 2.023-1.004.746-.032 1.593.182 2.463.684 1.3.75 1.959 2.658 2.503 3.771l.698 1.299-1.27.059-.203.015-2.31.189c-.746.012-1.531-.07-2.224-.469z" fill="#ccc" stroke-width="1.059"/><circle cx="12.437" cy="6.222" fill="#4d4d4d" r=".663" stroke-width="1" transform="matrix(.259 .966 .966 -.259 0 0)"/></g></svg>