<svg height="62" viewBox="0 0 18.521 16.404" width="70" xmlns="http://www.w3.org/2000/svg"><g stroke="#4d4d4d" stroke-linejoin="round"><g fill="#ff93ff" stroke-linecap="round" stroke-width="3" transform="matrix(.353 0 0 -.353 -130.867 271.864)"><path d="m388.948 753.502c0 3.27 1.986 6.317 3.948 9.049.533.74.575.768 1.185 1.624l2.77 4.162 4.059-5.798c1.953-2.717 3.945-5.767 3.945-9.037 0-6.539-3.579-10.598-7.957-10.598-4.38 0-7.95 4.059-7.95 10.598z"/><path d="m380.02 726.382c-.66.065-1.074.125-2 .218l-5.058.321 2.116 4.275c.439.97.572 1.304.937 2.121 1.389 3.062 3.033 6.31 5.864 7.943 5.663 3.27 10.968 2.206 13.157-1.587 2.188-3.789.461-8.914-5.204-12.189-2.832-1.633-6.466-1.435-9.812-1.102z"/><path d="m403.967 727.484c-5.304 3.06-7.165 7.757-5.571 11.461.107.248.229.491.365.728.137.237.286.466.449.682 1.291 1.728 3.317 2.74 5.732 2.844 2.111.089 4.512-.515 6.975-1.939 3.683-2.124 5.549-7.53 7.09-10.681l1.977-3.679-3.598-.169c-.197-.015-.401-.031-.575-.042-2.111-.184-4.483-.5-6.544-.534-2.114-.035-4.335.196-6.3 1.329z"/></g><circle cx="12.459" cy="6.247" fill="#4d4d4d" r=".623" stroke-width="1" transform="matrix(.259 .966 .966 -.259 0 0)"/></g></svg>