<svg stroke="#4d4d4d" stroke-linejoin="round" stroke-width="4" viewBox="0 0 70 62" xmlns="http://www.w3.org/2000/svg"><path d="m24.181 22.375c0-4.361 2.651-8.426 5.268-12.07l1.579-2.166 3.697-5.552 5.413 7.735c2.605 3.624 5.264 7.693 5.264 12.054 0 8.726-4.776 14.14-10.615 14.14s-10.607-5.415-10.607-14.14zm-11.909 36.178-2.668-.288-6.747-.431 2.823-5.702 1.25-2.829c1.852-4.085 4.046-8.418 7.821-10.597 7.556-4.361 14.631-2.941 17.553 2.117s.615 11.893-6.943 16.261c-3.777 2.178-8.626 1.914-13.088 1.469zm31.946-1.468c-7.075-4.082-9.558-10.348-7.433-15.291a10.325 10.325 0 0 1 .488-.971c.181-.315.382-.62.598-.908 1.724-2.306 4.426-3.654 7.648-3.794 2.815-.12 6.018.687 9.305 2.585 4.913 2.833 7.402 10.046 9.458 14.25l2.637 4.908-4.801.224-.767.057c-2.815.247-5.979.667-8.728.714-2.82.045-5.783-.264-8.404-1.774z" fill="#ffb82a"/><path d="m34.779 57.634c-.667-.322-.871-1.232-1.363-1.774-4.708-7.259-11.342-13.143-15.499-20.774-1.682-3.11-2.582-7.003-.942-10.325 1.732-3.36 4.85-6.815 8.951-6.618 3.799.272 6.867 3.074 8.96 6.054 2.28-3.257 5.883-6.386 10.12-5.992 3.723.48 6.378 3.701 7.939 6.879 1.571 3.56.355 7.571-1.5 10.76-4.458 7.635-11.161 13.647-15.832 21.14-.309.565-.585.743-.834.649z" fill="#f0f"/></svg>