<svg xmlns="http://www.w3.org/2000/svg" xmlns:xlink="http://www.w3.org/1999/xlink" height="64" viewBox="0 0 33.867 16.933" width="128"><path d="M0 .8h15.35v15.35H0z" fill="#b23"/><g fill="red"><use xlink:href="#B"/><use xlink:href="#B"/></g><defs ><path id="B" d="M25.402 1.63a.339.339 0 0 0-.338.338v4.595l-4.116-2.487a.339.339 0 0 0-.467.12l-.8 1.364a.339.339 0 0 0 .131.469L24.2 8.406l-4.397 2.387a.339.339 0 0 0-.131.47l.8 1.35a.339.339 0 0 0 .467.119l4.116-2.487v4.594a.339.339 0 0 0 .338.338h1.572a.339.339 0 0 0 .338-.338v-4.595l4.116 2.487a.339.339 0 0 0 .467-.119l.8-1.35a.339.339 0 0 0-.131-.47l-4.397-2.387 4.397-2.377a.339.339 0 0 0 .131-.469l-.8-1.364a.339.339 0 0 0-.467-.12l-4.116 2.488V1.97a.339.339 0 0 0-.338-.338z"/></defs></svg>