<svg viewBox="0 0 70 62" xmlns="http://www.w3.org/2000/svg"><g stroke="#4d4d4d" stroke-linejoin="round" transform="matrix(3.78 0 0 3.78 -.001 .001)"><path d="m6.432 5.878c0-1.154.701-2.23 1.394-3.194l.418-.573.978-1.469 1.433 2.047c.689.959 1.393 2.036 1.393 3.19 0 2.308-1.263 3.741-2.809 3.741s-2.807-1.434-2.807-3.742zm-3.152 9.573-.706-.077-1.785-.113.747-1.509.331-.749c.49-1.081 1.071-2.227 2.07-2.804 1.999-1.154 3.872-.779 4.644.56s.163 3.147-1.837 4.303c-1 .576-2.282.507-3.464.389zm8.453-.389c-1.872-1.08-2.529-2.738-1.967-4.046a2.53 2.53 0 0 1 .129-.257 2.36 2.36 0 0 1 .158-.241c.456-.61 1.171-.967 2.023-1.004.745-.031 1.593.182 2.462.684 1.3.75 1.959 2.658 2.503 3.77l.698 1.299-1.27.06-.203.015-2.31.189c-.746.012-1.53-.069-2.224-.469z" fill="#f91313" stroke-width="1.059"/><circle cx="11.746" cy="6.089" fill="#4d4d4d" r=".644" stroke-width=".893" transform="matrix(.259 .966 .966 -.259 .232 .509)"/></g></svg>