<svg xmlns="http://www.w3.org/2000/svg" xmlns:xlink="http://www.w3.org/1999/xlink" viewBox="0 0 64 64"><linearGradient id="a" x1="32" x2="32" y1="59.7" y2="4.3" gradientUnits="userSpaceOnUse"><stop offset="0" stop-color="#e6e6e6"/><stop offset="1" stop-color="#f5f5f5"/></linearGradient><g fill="url(#a)" transform="matrix(.976 0 0 .976 .8 .8)"><use stroke="#000000aa" stroke-width="4" xlink:href="#b"/><use xlink:href="#b"/></g><defs><path id="b" d="M8.3 4.3h47.4a4 4 0 014 4v47.4a4 4 0 01-4 4H8.3a4 4 0 01-4-4V8.3a4 4 0 014-4zm0 0"/></defs><path fill="#999" d="M23.8 51.2a9 9 0 01-2-1.9A24.7 24.7 0 0120 47a23.4 23.4 0 01-3-6c-.8-2.6-1.2-5-1.2-7.3 0-2.6.5-5 1.6-6.8A9.6 9.6 0 0121 23a9.3 9.3 0 014.8-1.4 7.6 7.6 0 011.8.3l1.8.6 1.6.6 1.3.3c.3 0 .7 0 1.1-.2a13.5 13.5 0 001.4-.5l1.5-.6 1.8-.4a8.6 8.6 0 011.9-.1c1.2 0 2.2.3 3.2.7a8.8 8.8 0 014.1 3.2 8.2 8.2 0 00-1.2 1c-.8.7-1.5 1.5-2 2.5a8.5 8.5 0 00-1.1 4.2 8.8 8.8 0 005.3 8l-.6 1.9a24.1 24.1 0 01-2.1 3.8l-1.7 2.4c-.7.8-1.3 1.4-2 1.8a4.4 4.4 0 01-2.4.7 5.4 5.4 0 01-1.7-.2 16.3 16.3 0 01-1.5-.5 11.5 11.5 0 00-1.5-.6 7.4 7.4 0 00-3.8 0 11 11 0 00-1.6.6l-1.4.5a8 8 0 01-1.6.3c-1 0-1.7-.2-2.5-.7zm11.4-30.7c-1.1.6-2.2.8-3.3.7-.1-1 0-2.2.5-3.4.4-1 1-2 1.7-2.8a9 9 0 012.7-2 7.7 7.7 0 013.1-1c.1 1.1 0 2.3-.4 3.5a9.7 9.7 0 01-1.7 2.9 8.3 8.3 0 01-2.6 2z"/></svg>