<svg xmlns="http://www.w3.org/2000/svg" xmlns:xlink="http://www.w3.org/1999/xlink" viewBox="0 0 64 64"><linearGradient id="a" x1="32" x2="32" y1="59.7" y2="4.3" gradientUnits="userSpaceOnUse"><stop offset="0" stop-color="#e6e6e6"/><stop offset="1" stop-color="#f5f5f5"/></linearGradient><g fill="url(#a)" transform="matrix(.976 0 0 .976 .8 .8)"><use stroke="#000000aa" stroke-width="4" xlink:href="#B"/><use xlink:href="#B"/></g><path fill="#050" stroke="#050" stroke-linejoin="round" d="M23.2 12.9q-2 .6-3.2 2.2-1.2 1.6-1.2 3.7 0 1 .4 3l.3 3q0 2-1 3.2-.5.8-2.6 2.2l-1.6 1q-1 .7-1.7.8 2.6.4 4.6 2.6 2 2.2 2 4.8l-.2 3q-.4 2-.4 3 0 2 1.3 3.5 1.2 1.6 3 2.2v1h0q-3.2 0-5.6-2-2.6-2.2-2.6-5.2 0-1.2.5-3.7.4-2.3.4-3.5 0-1.7-1.3-3.2-1.3-1.3-3-1.9v-1.2q1.3-.4 2.7-1.7 1.5-1.2 1.8-2.3v-1.3q0-1.2-.4-3.6-.5-2.4-.5-3.6 0-3 2.7-5 2.5-2 5.6-2zm29.5 19.7q-1 0-2.6 1.5t-1.9 2.5l-.1 1.2q0 1.2.5 3.5.5 2.4.5 3.6 0 3-2.7 5.2Q44 52 40.8 52v-.9q2-.7 3.1-2.2 1.3-1.6 1.3-3.6 0-1-.4-3l-.3-3q0-2 1-3.3.6-.9 2.6-2.2l1.6-1.1q1-.6 1.8-.7-2.7-.4-4.7-2.6t-2-4.8l.2-3 .2-3q0-2-1.1-3.5-1.2-1.5-3.1-2.2v-1h0q3.1 0 5.6 2 2.7 2 2.7 5 0 1.3-.5 3.7-.5 2.4-.5 3.6 0 1.7 1.4 3.2 1.3 1.4 3 2z"/><defs><path id="B" d="M8.3 4.3h47.4a4 4 0 014 4v47.4a4 4 0 01-4 4H8.3a4 4 0 01-4-4V8.3a4 4 0 014-4zm0 0"/></defs></svg>