<svg xmlns="http://www.w3.org/2000/svg" xmlns:xlink="http://www.w3.org/1999/xlink" viewBox="0 0 74 66"><defs><filter id="a" width="1.2" height="1.2" x="-.1" y="-.1"><feGaussianBlur stdDeviation="1.4"/></filter><filter id="b" width="1.2" height="1.3" x="-.1" y="-.1"><feGaussianBlur stdDeviation="1.4"/></filter><linearGradient id="d" x1="37.6" x2="37.6" y1="52.2" y2="22.2" gradientUnits="userSpaceOnUse"><stop offset="0" stop-color="#9f5"/><stop offset="1" stop-color="#6f0"/></linearGradient><path id="c" d="M37 60.5L15.9 35.9h11.7V20.1h18.8v15.8H58z"/></defs><g stroke-linecap="round" stroke-linejoin="round"><path stroke="#00000077" stroke-width="6" d="M37 60.5L15.9 35.9h11.7V20.1h18.8v15.8h11.7z"/><path stroke="#00000077" stroke-width="4" d="M36.8 3a2 2 0 00-1.7 1l-3.6 5.4-1.6 2c-2.6 3.8-5.6 8-5.6 13.3 0 4.7 1.3 8.6 3.5 11.5l.3.2a13.5 13.5 0 00-2.4-.2A19.6 19.6 0 0016 39c-4.4 2.6-6.7 7.3-8.6 11.4a2 2 0 000 0l-1.2 2.8-2.8 5.6a2 2 0 001.8 3l6.6.5 2.6.2c4.5.5 9.8.9 14.2-1.7 4-2.3 6.9-5.4 8.2-8.8l.2-.5a18 18 0 008.2 9.3c3 1.8 6.4 2.1 9.4 2 2.9 0 6-.4 8.7-.6h0l.8-.1h0l4.7-.2a2 2 0 001.7-3L68 54c-1.9-4-4.2-11.6-10.1-15a19.5 19.5 0 00-9.8-2.8h-.6l-1.7.2.3-.2c2.2-2.9 3.5-6.8 3.5-11.5 0-5.2-3-9.5-5.6-13.1l-5.4-7.7a2 2 0 00-1.7-.9z"/><path fill="#55d400" d="M26.4 24.5c0-4.3 2.6-8.3 5.2-12l1.6-2L36.8 5l5.4 7.6c2.6 3.6 5.2 7.6 5.2 12 0 8.6-4.7 14-10.5 14s-10.5-5.4-10.5-14zM14.6 60.3L12 60l-6.7-.4L8.1 54l1.3-2.8c1.8-4 4-8.4 7.7-10.5 7.5-4.3 14.5-3 17.4 2 2.9 5 .6 11.8-7 16.2-3.7 2.1-8.4 1.9-12.9 1.4zM46.2 59c-7-4-9.4-10.3-7.3-15.2a9.7 9.7 0 01.5-1 7.8 7.8 0 01.6-.8 9.6 9.6 0 017.5-3.8c2.8-.1 6 .7 9.2 2.6 4.9 2.8 7.3 10 9.4 14l2.6 5-4.8.1-.7.1c-2.8.3-6 .7-8.7.7-2.8 0-5.7-.2-8.3-1.7z"/><path d="M19-85.7l-3.6.4-9 .6 8 3.1 3.4 1.2c5.7 2 11.8 4.3 15.2 9 3.9 5.5 5.2 11 4.5 15.5a12.6 12.6 0 008.4-6c4-6.8.9-16-9.3-21.8-5-3-11.6-2.6-17.6-2z" filter="url(#a)" opacity=".3" transform="matrix(.77397 0 0 -.77397 -.2 -5.7)"/><path d="M77-85.2l3.7.4 9 .5v.1l-8 3-3.5 1.2c-5.7 2-11.8 4.4-15.1 9.1-4 5.5-5.3 11-4.5 15.5a12.6 12.6 0 01-8.5-6c-3.9-6.8-.8-16 9.4-21.8 5-3 11.6-2.6 17.6-2z" filter="url(#a)" opacity=".3" transform="matrix(.77397 0 0 -.77397 -.2 -5.3)"/><path d="M33.6-38c0 1.8.3 3.5.9 5.2 2-7.5 7.2-11.9 13.4-11.9s11.3 4.4 13.4 12c.5-1.8.8-3.5.8-5.3 0-11.7-6.4-19-14.2-19-7.9 0-14.3 7.3-14.3 19z" filter="url(#b)" opacity=".3" transform="matrix(.77397 0 0 -.77397 -.2 -5.7)"/><use fill="none" stroke="#000" stroke-width="6" xlink:href="#c"/><use fill="url(#d)" stroke="#d7f4d7" stroke-width="2" xlink:href="#c"/></g></svg>