<svg xmlns="http://www.w3.org/2000/svg" xmlns:xlink="http://www.w3.org/1999/xlink" viewBox="0 0 64 64"><linearGradient id="b" x1="30.1" x2="30.1" y1="45.9" y2="14.2" gradientUnits="userSpaceOnUse"><stop offset="0" stop-color="#2b4777"/><stop offset="1" stop-color="#5672a0"/></linearGradient><linearGradient id="a" x1="32" x2="32" y1="59.7" y2="4.3" gradientUnits="userSpaceOnUse"><stop offset="0" stop-color="#e6e6e6"/><stop offset="1" stop-color="#f5f5f5"/></linearGradient><g fill="url(#a)" transform="matrix(.976 0 0 .976 .8 .8)"><use stroke="#000000aa" stroke-width="4" xlink:href="#D"/><use xlink:href="#D"/></g><path fill="url(#b)" d="M26 37h13.7l-3.4-17.5zM13 50.6l.5-2.6h3.3l19.8-34.4h4.2L47.3 48H51l-.5 2.6H37l.5-2.6h4.1l-1.5-8.2H24.5L20 48h4l-.5 2.6zm0 0"/><defs><path id="D" d="M8.3 4.3h47.4a4 4 0 014 4v47.4a4 4 0 01-4 4H8.3a4 4 0 01-4-4V8.3a4 4 0 014-4zm0 0"/></defs></svg>