<svg xmlns="http://www.w3.org/2000/svg" xmlns:xlink="http://www.w3.org/1999/xlink" viewBox="0 0 64 64"><linearGradient id="a" x1="32" x2="32" y1="59.7" y2="4.3" gradientUnits="userSpaceOnUse"><stop offset="0" stop-color="#e6e6e6"/><stop offset="1" stop-color="#f5f5f5"/></linearGradient><g fill="url(#a)" transform="matrix(.976 0 0 .976 .8 .8)"><use stroke="#000000aa" stroke-width="4" xlink:href="#D"/><use xlink:href="#D"/></g><path fill="#4b7cae" d="M52 32a20 20 0 11-40 0 20 20 0 0140 0zm0 0"/><path fill="#0cf" d="M32 12.7l-4.6 1-.2 1 1 1.4-.2 1.7 1.2.2 4.1-3 .3-1.6zm-5.3.3l-3.4 1.3 1.8-.2zm-4.4 2l-.7 1.6.5.9 1.2-1.5 2.3 1.3-.1-1-1.5-1-1.3.3zm19 .6l-2.2 1-1.3 1.3.5 1.2 1.5.5.3-1.5 1.3-1.2v1.5l-.3 1-1.7.8-1-.5-1 1.1L36 22l.2 1.2-1.3 1 .6 1.3 1.4-.8 1.2-1.2 1.6.6.7.8-.4-1.6 1.2 1.3.8.2 2 .8.7 1-2.4.1-1.6.5-2.1-1.6-3 .6-2.4 3.5-.3 1.7.2 1.7 2 2.8 1.5-.4 1.6-.2 1.2 1 .4 1.6.4 2.1-.3 1.9.8 3.4.2 2.3 2-.5 1.4-1.2.8-1.5v-1.4l1.7-1.4-.1-3.4 1.4-2.3.9-2.8-2.1.2-2-4 .4-.8 2 3.3.5 1.4 2.7-2.4-.5-1.7-1.3-.1v-1l1.5.6 1.4.3c-.4-3-2-5.8-3.6-8.6l-3.3-3.5-1.3.7.5-.8-1.3-.6-1.1-.4zm-20.3 0L18.3 18a19.2 19.2 0 00-5.8 12.8l2.2 1.8 1.8 1 1.6.9.4 1.2-.6 1.7v1.8l1.8 2.6 1 2.1.5 2-.4 2.1c.6.4.6 1.1 2.7 1l1-1.5 1.2-1.4.4-1.7 1.5-1 .2-2.5 1-2.1-1.4-1.2-2.2-1.2-1.3-1.3-1-1.6-1.8-.1-1.6-.1h-2.1l-.7-1.3-.1-1.6-1.5.7-1-1.3 1-1.6 1.4-.8 1.6.9.5-1 1.3-1.4 1.2-1.6 1.6-1 1.5-1.2h-2l2.1-.7 1.4-.9-.9-1.3-1-.6-1.3-.5-.7 1.7-1.1 1.3-1.1-1.4-.3-1.2 2.2-1.7-.5-1.1zm13 1.1l-.6 1zm-9.8.2l.4.9zm11.7 2l.3 1.6.9.6-.7-2.3zm-.3 1v.8zm-10.2 1.5l.6.5z"/><defs><path id="D" d="M8.3 4.3h47.4a4 4 0 014 4v47.4a4 4 0 01-4 4H8.3a4 4 0 01-4-4V8.3a4 4 0 014-4zm0 0"/></defs></svg>