<svg xmlns="http://www.w3.org/2000/svg" xmlns:xlink="http://www.w3.org/1999/xlink" viewBox="0 0 64 64"><defs><linearGradient id="b" x1="32" x2="32" y1="59.7" y2="4.3" gradientUnits="userSpaceOnUse"><stop offset="0" stop-color="#e6e6e6"/><stop offset="1" stop-color="#f5f5f5"/></linearGradient><path id="a" d="M8.3 4.3h47.4a4 4 0 014 4v47.4a4 4 0 01-4 4H8.3a4 4 0 01-4-4V8.3a4 4 0 014-4zm0 0"/></defs><g transform="translate(.8 .8) scale(.9755)"><use fill="none" stroke="#000000aa" stroke-width="4" xlink:href="#a"/><use fill="url(#b)" xlink:href="#a"/></g><g transform="translate(4.6 4.6) scale(.85714)"><path fill="#74bbf0" d="M55.5 4h-47C6 4 4 6.4 4 9.3v45.4c0 3 2 5.3 4.5 5.3h47c2.5 0 4.5-2.4 4.5-5.3V9.3c0-3-2-5.3-4.5-5.3z"/><path fill="#fff" d="M4 28.7a15.9 15.9 0 017.2-1.7c5.2 0 9.5 2.2 11 5.2a17.8 17.8 0 016.4-1c6.4 0 11.7 3 12.4 7.1 5.5.4 9.8 3.4 10 7L37.5 54 4 54z"/><path fill="#6c994e" d="M19.4 47.8S10.4 45.3 4 51v6.5C4 59 5.5 60 7.4 60l13.5-7.7z"/><path d="M4 54.3c6.5-5.6 15.4-3.1 15.4-3.1l.5 1.6 1-.5-1.5-4.5S10.4 45.3 4 51z" opacity=".1"/><path fill="#7eb35b" d="M7.4 60c4.5-9 18.6-19.7 30.4-13.7l-4 9.5L24 60z"/><path d="M37.4 47.3l.4-1C26 40.3 11.9 51 7.4 60h4.3c5-7.5 15.7-15.2 25.7-12.7z" opacity=".1"/><path fill="#a5eb78" d="M60 57.4V40.3C37.4 38.6 24 60 24 60h32.6c1.9 0 3.4-1.1 3.4-2.6z"/><path d="M60 42.5v-2.2C37.4 38.6 24 60 24 60h4.5c4-5.1 15.1-17.3 31.5-17.5z" opacity=".1"/><circle cx="46.8" cy="17.2" r="10" fill="#ffe97a"/><path d="M40 20.3a10 10 0 0115.3-8.5 10 10 0 10-13.8 13.8 10 10 0 01-1.6-5.3z" opacity=".1"/></g></svg>