<svg xmlns="http://www.w3.org/2000/svg" xmlns:xlink="http://www.w3.org/1999/xlink" viewBox="0 0 64 64"><defs><path id="a" fill-opacity=".1" d="M0 0h64v64H0z"/></defs><defs><linearGradient id="d" x1="32" x2="32" y1="59" y2="5" gradientUnits="userSpaceOnUse"><stop offset="0" stop-color="#e6e6e6"/><stop offset="1" stop-color="#f5f5f5"/></linearGradient><linearGradient id="g" x1="37.2" x2="37.2" y1="57.1" y2="6.6" gradientUnits="userSpaceOnUse"><stop offset="0" stop-color="#c30000"/><stop offset="1" stop-color="#f12300"/></linearGradient><clipPath id="e"><use xlink:href="#a"/></clipPath><filter id="b" width="1" height="1" x="0" y="0"><feColorMatrix in="SourceGraphic" values="0 0 0 0 1 0 0 0 0 1 0 0 0 0 1 0 0 0 1 0"/></filter><path id="c" d="M8.9 5H55A3.9 3.9 0 0159 8.9V55a3.9 3.9 0 01-3.9 3.9H9A3.9 3.9 0 015 55.1V9A3.9 3.9 0 018.9 5zm0 0"/><mask id="f"><g filter="url(#b)"><use fill-opacity=".1" xlink:href="#a"/></g></mask></defs><use fill="none" stroke="#000000aa" stroke-width="4" xlink:href="#c"/><use fill="url(#d)" xlink:href="#c"/><g clip-path="url(#e)" mask="url(#f)" transform="translate(-.5 -.5) scale(1.015)"><path fill-rule="evenodd" d="M58.6 19.8a54.6 54.6 0 01-53.2 19V42a86.1 86.1 0 0045.2-3.2 25 25 0 00-4.3 12.6c-.1 2.7 0 5.2.4 7.3h2.5c-.3-2-.5-4.5-.3-7 .4-6 2.6-12.6 9.7-17.2zm0 0"/></g><path fill="url(#g)" fill-rule="evenodd" d="M38.6 6.3A81.6 81.6 0 0033 22.6l-2 1.4c-7.4 5.5-16.4 9-24.8 8.8v4c7.5.7 12.4 2 15.8 6.4 3.3 4.5 5.2 8.8 5.2 14.4h2.5c0-5.6-2.4-12.2-5.6-15.9A22.3 22.3 0 0011.4 35c7.3-1 14.6-4.2 20.9-8.7a81.5 81.5 0 00.7 31.3h17.7c-8.8-8-12.7-22.4-12.6-36 5-4.6 8.8-10 10.9-15.3h-2.8c-1.7 4-4.5 8-8 11.7.2-4.1.8-8 1.7-11.7zm0 0" transform="translate(-1.7 -1.7) scale(1.053)"/></svg>