<svg xmlns="http://www.w3.org/2000/svg" xmlns:xlink="http://www.w3.org/1999/xlink" viewBox="0 0 64 64"><g fill="url(#B)" transform="matrix(.976 0 0 .976 .8 .8)"><use stroke="#000000aa" stroke-width="4" xlink:href="#A"/><use xlink:href="#A"/></g><path fill="#5195fb" d="M8.9 5A3.9 3.9 0 005 8.8v46.3a3.9 3.9 0 003.9 4h8.6V5zm42.9 9L32 17.5v24.3a6.9 6.9 0 00-3.9.2c-2.9.9-4.6 3.4-3.8 5.5s3.7 3 6.6 2.1c2.4-.8 4-2.7 4-4.5V25.3L48.8 23v16.5a6.9 6.9 0 00-3.8.1c-3 1-4.7 3.4-3.9 5.5s3.7 3.1 6.6 2.2c2.5-.8 4.1-2.7 4-4.6zm0 0"/><defs><linearGradient id="B" x1="32" x2="32" y1="59.7" y2="4.3" gradientUnits="userSpaceOnUse"><stop offset="0" stop-color="#e6e6e6"/><stop offset="1" stop-color="#f5f5f5"/></linearGradient><path id="A" d="M8.3 4.3h47.4a4 4 0 014 4v47.4a4 4 0 01-4 4H8.3a4 4 0 01-4-4V8.3a4 4 0 014-4zm0 0"/></defs></svg>