<svg xmlns="http://www.w3.org/2000/svg" xmlns:xlink="http://www.w3.org/1999/xlink" viewBox="0 0 64 64"><g transform="matrix(.976 0 0 .976 .8 .8)"><use xlink:href="#a" fill="url(#b)" stroke="#000000aa" stroke-width="4"/><use xlink:href="#a" fill="#165016" stroke="#000"/></g><defs><linearGradient id="b" x1="32" x2="32" y1="59.7" y2="4.3" gradientUnits="userSpaceOnUse"><stop offset="0" stop-color="#e6e6e6"/><stop offset="1" stop-color="#f5f5f5"/></linearGradient><path id="a" d="M8.3 4.3h47.4a4 4 0 0 1 4 4v47.4a4 4 0 0 1-4 4H8.3a4 4 0 0 1-4-4V8.3a4 4 0 0 1 4-4zm0 0"/></defs><path fill="#d5ffe6" d="M12 22.1v4.5L23.2 32 12 37.5v4.4l17.6-8.5v-2.7zm21.2 15.5v3.9h19v-4z"/></svg>