<svg xmlns="http://www.w3.org/2000/svg" xmlns:xlink="http://www.w3.org/1999/xlink" viewBox="0 0 64 64"><g transform="matrix(.976 0 0 .976 .8 .8)"><use xlink:href="#a" fill="url(#b)" stroke="#000" stroke-width="4"/><use xlink:href="#a" fill="url(#c)"/></g><defs><linearGradient id="b" x1="32" x2="32" y1="59.7" y2="4.3" gradientUnits="userSpaceOnUse"><stop offset="0" stop-color="#e6e6e6"/><stop offset="1" stop-color="#f5f5f5"/></linearGradient><linearGradient id="c" x1="32" x2="32" y1="59.7" y2="4.3" gradientUnits="userSpaceOnUse"><stop offset="0" stop-color="#0055d4"/><stop offset="1" stop-color="#2a7fff"/></linearGradient><radialGradient id="d" cx="16.9" cy="22.8" r="22.2" fx="16.9" fy="22.8" gradientTransform="matrix(1.56482 0 0 1.29958 -9 -4.9)" gradientUnits="userSpaceOnUse"><stop offset="0" stop-color="#d5e5ff"/><stop offset="1" stop-color="#acf"/></radialGradient><path id="a" d="M8.3 4.3h47.4a4 4 0 0 1 4 4v47.4a4 4 0 0 1-4 4H8.3a4 4 0 0 1-4-4V8.3a4 4 0 0 1 4-4zm0 0"/></defs><path fill="url(#d)" stroke="#025" d="M38.8 13H25.2a14 14 0 0 0-14 13.9c0 7.6 5 13.3 11.6 14.5L26.1 52a1.3 1.3 0 0 0 2.5 0l3.2-10.5h7a14 14 0 0 0 14-14.3 14 14 0 0 0-14-14.2z"/></svg>