<svg xmlns="http://www.w3.org/2000/svg" viewBox="0 0 64 64"><defs><linearGradient id="a" x1="33.5" x2="33.5" y1="60.2" y2="3.9" gradientUnits="userSpaceOnUse"><stop offset="0" stop-color="#e6e6e6"/><stop offset="1" stop-color="#fff"/></linearGradient><linearGradient id="b" x1="33.5" x2="33.5" y1="3.8" y2="60.1" gradientUnits="userSpaceOnUse"><stop offset="0" stop-color="gray"/><stop offset="1" stop-color="#b3b3b3"/></linearGradient></defs><path fill="none" stroke="#000000aa" stroke-width="4" d="M8.9 5H55A3.9 3.9 0 0159 8.9V55a3.9 3.9 0 01-3.9 3.9H9A3.9 3.9 0 015 55.1V9A3.9 3.9 0 018.9 5zm0 0"/><path fill="url(#a)" d="M8.9 59A3.9 3.9 0 015 55.1V9A3.9 3.9 0 018.9 5H55A3.9 3.9 0 0159 8.9V55a3.9 3.9 0 01-3.9 3.9z" opacity=".2"/><path fill="url(#b)" d="M8.9 5A3.9 3.9 0 005 8.9V55A3.9 3.9 0 008.9 59H55a3.9 3.9 0 003.9-3.9V9A3.9 3.9 0 0055.1 5zm1.2 5.7h5.7v5.7h-5.7zm38 0H54v5.7h-5.7zM10.2 23h5.7v5.7h-5.7zm38 0H54v5.7h-5.7zm-22.5 0l14.9 9-15 9zM10 35.4h5.7V41h-5.7zm38 0H54V41h-5.7zm-38 12.4h5.7v5.6h-5.7zm38 0H54v5.6h-5.7z"/></svg>