<svg xmlns="http://www.w3.org/2000/svg" viewBox="0 0 640 480"><style>.B{stroke-width:1.9}.C{fill-rule:evenodd}.D{stroke-linejoin:round}</style><path fill="#006" d="M-374-16H650v512H-374z"/><g class="C"><path fill="#bd1021" d="M-374 240L650 496V-16z"/><path fill="#fff" d="M650 11v458l-914-229z"/></g><g stroke="#000"><path fill="#9c3900" stroke-width="1.8" d="M478 297s-6-5 1-13c-4-4 0-10 0-10s-7-3 0-14c-5-3-3-11-3-11s-17-7-1-13c-13 6-26-8-26-8l-19 1c-3-16-29-2-10-48-5-1-10-3-16 1-5 4-21 13-30 4s6-21 6-21 21-11 24-18c-1-5-7-9-1-21 6-10 47-20 66-24a30 30 0 0013-12l2 8s41-12 43-18 1 5 1 5c17-2 37-15 40-9 14-3 40-14 40-14s9-1 2 9c5 7-1 12-1 12s2 7-3 10c1 6-4 10-4 10s3 7-7 10c1 6-5 7-5 7s1 6-3 9c0 4-5 7-5 7s3 2-1 4a1568 1568 0 01-46 29s31 5 33 7l25 16-24 29s-26-3-27-1 6 2 7 4c2 2 4 8 9 7 4 0-9 9-18 10 0 3 11 3 14 1l-8 9c-1 2 13-2 13-2s-2 9-15 12c5 8 3 13 3 13s-8-8-16-6c2 8 8 15 10 16s-14 1-16-4-3 11 2 16c-6 0-12-4-12-4s-4 9-1 13c3 5-9-9-9-9l-22 10z" class="C D"/><path fill="#ffc221" d="M307 280c1 0 32 0 47-9a86 86 0 0017 19l5-16s11 0 12 3l-2 7 8 2c1 1-2 10-2 10l33 7s3-13 6-11 14 18 30 19 17-14 17-14l3 2 8-14c1 0 3 2 11 2 3 3 4 10 4 10s-10 10-7 18 4 6 4 6l71 17s4 5-2 8l-72-16s-7 8-12 6-2 3-2 3l78 6s6 8 1 10l-83-6s-5 10-10 2c-4 6-8-2-8-2s-7 6-8 0c-5 4-9-3-9-3l-33-2-2 3s6 2-3 6c-9 3 52 2 54 2 2 1-4 5-4 5s31 2 37-4c6-7-2 9-2 9s25-1 25-3-1 8-18 7a112 112 0 0024 11s-13 3-28 0c2 6 14 12 14 12s-9 8-27-10c5 9 1 13 0 12a48 48 0 00-30-19c13 9 7 12 7 12s-6-12-17 0c-4-11-20-17-40-18-6-7-10-5-24-9l-21-20s1-14 15-12l2 3s15-6 20 2c6-12 16-2 17 2l27 2-1-5c2 1 14-4 14-6-1-1-1-7 1-6s-18-3-29 6c-3-4-1-14-1-14l-32-6-1 8s-10 1-9-1l-2 8-13-4 4-18s-11 1-25 12c-4-13-37-30-37-31zm41-42s-22 18 0 29l2-8s18 7 29-9c-4-7-13-5-13-5s-17 0-18-7z" class="B C"/><g fill="none" class="B"><path d="M366 246l-15 13m61 77s4 4 0 8m73-4h-6m-41-4l11 2m17-28s0 10-8 10h-6m21-12s3 1 2 4 1 10-9 17c-11 3-9-9-9-9"/><path d="M477 311s6-3 7 3-5 17-10 19c-4 2-9 0-9-3m19-16s6-5 8 1-5 20-7 20m7-20s4-1 6 1m-15 20c-1 1-6 1-8-3m-18-7l-6 1m28 22v-9l-3-4-4 4s0 10-2 11m2-11l-3-6-5 6s0 9-2 10m2-10l-2-6s-6 3-6 6l-2 9m2-11s0-5-1-5c-2 0-10 7-10 14"/></g><path fill="#fff" d="M348 238s3-3 4-7c1-3-1-7 2-10s50-23 54-26a115 115 0 0011-14c1-2 4 9-4 13 8-2 14-5 17-3-3 4-12 13-17 13 10-4 20-7 22-5 3 2-12 12-18 12 10-2 24-6 25-2-5 2-3 3-15 10a29 29 0 01-8 1c8-1 20-4 21 2-7 3-9 6-15 8l-27 7c-8 3-20 13-20 13h-26l-6-12z" class="B C D"/><path fill="none" d="M361 236s0-6 3-8c2-2 15-7 18-11 3-5-4 7-3 10m-13 0s6 2 5 7" class="B"/><path fill="none" stroke-width="1.6" d="M373 230a5 5 0 11-9 0 5 5 0 019 0z"/><path fill="#fff" d="M570 220l50 10s6-7 3-10c8-2 6-12 6-12s8-4 1-12c5-5-1-9-1-9s2-9-5-10c2-7-10-9-10-9s-27 7-46 8c6 6-2 10-2 10s5 3 4 6c-2 3 1 6-6 8 8 4-1 11-1 11s9 6 7 9z" class="B C"/><g fill="none" class="B"><path d="M565 209l47 6c2 0 10 2 11 5m-55-13l61 1m-61-3s58-3 63-9m-61-4l59-5m-62-2s58-9 58-7m-221-30s18 20 16 33m-1-10s6 8 8 9 23 2 24 11c1 6-4 4-3 8 1 5 15 12 30 4m-14 4s12 18 30-1m-9 7s15 8 27-12m-16 14s7 6 23-2m21-8s22 5 23 6m-15-11l16 1m-26-10s27-1 31 4m-42-12s37 2 39 4m-31 34l8-1m-22 17s8 7 19 4m-15 8s10 4 21 2m-17 5s9 7 16 6m-21-2s7 5 7 8m-16-2s2 11 9 14m-14-9s-3 13 5 22m-13-12l-1 7m-52-60h16s6-3 2-6m2 3s15 1 18 6l11 14c3 2 4-1 4-1m-7-2s-8 14-2 18m-2-3s-7 9-2 14m-1-1s-6 9 1 15m-4-39s-6 5-9 4m3 10s2 3 5 2m-5 12l4 3m-3 7l3 2m-69-144s8 4 14 0 35-19 43-22c7-2 12-16 13-22m-6 16l43-12s7-6 8-17m-3 12s42-5 42-20m-6 11s45-13 49-17m-175 80l32-15c4-2 14-14-1-14m-18 35c1 0 23-14 30-16 4-6 2-11-5-10"/><path d="M481 137s12-1 8 8c-6 5-31 17-31 17m17-34l48-16s4-8-2-10m40-14s6 4 2 9c-7 4-38 12-38 12m84-26l-45 13m41-3l-38 12m35-2l-34 10m28 0l-26 7m20 0l-16 7m12 2a321 321 0 00-13 6m9 1l-12 6m-9 7s2 1 1 3m-32 14s6 2 1 7c-3 3-10 2-14 8m47-84s6 2 1 10l-39 13-4 4a759 759 0 01-40 12m84-29s7 3 0 8c-8 5-36 13-36 13l-1 4-38 13M568 115s7 2 1 8a289 289 0 01-32 13s-3 3-7 4a919 919 0 00-29 12m68-29c3 1 9 2 1 8l-28 11-2 4-32 13m63-27s3 3-3 8l-24 10m24-10s3 2-1 5l-24 13-13 8"/><path d="M524 112s5 5 3 10c5 3 4 7 4 7s6 3 5 9c7 1 6 5 6 5l-2 3s7 0 1 8c3 2 2 4 2 4m-2-4c-1 0-22 8-28 13m-24-22s7 0 6 7c7-3 6 4 6 4s8-3 7 7c5-1 4 5 4 5s5-1 5 2c4-3 7-1 7-1s3-4 6-3m-35-15l-28 17m34-12l-22 14m29-7l-19 11m23-7s-13 11-16 11m21-7l-14 8m22-11s2 3-13 11"/></g></g></svg>