<svg xmlns="http://www.w3.org/2000/svg" viewBox="0 0 640 480"><path fill="red" d="M0 0h640v480H0z"/><path fill="#00cf00" d="m0 0 321 241L0 479Zm640 0L321 241l319 238Z"/><path fill="#fff" d="M640 0 415 139c-53-49-136-49-189 0L0 0v94l186 111a139 139 0 0 0 0 71L0 387v92l226-137c53 50 136 50 189 0l225 137v-92L455 276c3-12 5-23 5-35s-2-24-5-36L640 94Z"/><path fill="red" stroke="#00de00" stroke-width="3.7" d="M348 188h-18l-9 16-10-16h-18l9-16-9-16h18l10-15 9 15 18 1-9 15zm-61 105h-18l-9 16-9-16h-18l8-16-8-16h18l9-15 9 15h18l-8 16zm123 0h-18l-9 16-10-16h-18l9-16-9-16h18l10-15 9 15h18l-9 16z"/></svg>