<svg xmlns="http://www.w3.org/2000/svg" viewBox="0 0 640 480"><path fill="#ce1126" d="M0 0h640v480H0z"/><path fill="#003f87" d="M0 34h640v412H0z"/><circle cx="320" cy="240" r="188.6" fill="#fff"/><circle cx="320" cy="239" r="156.3" fill="none" stroke="#552300" stroke-width="4"/><path fill="#007f00" d="M302 73c17-20 40 19 16 27-8 4-23-4-7-6 23-7 5-23-9-21zM155 192c-11-22 31-28 30-4 2 9-13 22-7 5 4-24-19-15-23-1zm317-19c24 8-2 42-19 25-6-6-4-24 3-9 9 11 21 5 19-9l-1-4zM219 377c-23 1-13-38 7-30 10 1 17 24 4 11-19-14-22 10-11 19zm209-15c3 25-38 16-30-6 3-10 19-14 9-1-11 20 14 18 21 7zM170 153c-4-24 36-20 32 2 1 10-21 21-10 5 9-20-14-20-22-7zm22 193c-24-2-9-39 11-29 9 2 14 25 1 10-11-7-20-3-17 11 1 3 2 6 5 8zM354 74c23-13 31 31 6 30-9 2-19-11-4-8 24 2 11-19-2-22zm40 314c-8 23-40-1-25-18 4-8 28-6 11 1-20 13 1 24 14 17zm91-178c19 15-15 38-26 18-5-8 3-26 5-9 7 23 22 5 21-9zM222 101c4-26 44-4 26 15-4 8-21 8-8-2 16-17-7-22-18-13zm-62 172c-23-10 6-41 21-23 6 6 3 26-2 10-7-11-18-12-20 3-1 3-1 7 1 10zm264-159c25-5 19 39-5 30-6 0-15-17-3-8 15 5 22-6 13-19l-2-2zM306 408c-23 13-29-32-4-30 8-1 20 12 6 7-14 0-21 9-10 19 2 3 5 4 8 4zm171-115c12 23-32 29-31 4-1-8 12-19 8-5-2 23 18 17 23 1zm-325-61c-16-19 24-34 28-11 4 8-8 24-6 7 0-18-17-14-22-1v3zm112 164c-22 10-29-29-6-31 9-3 25 14 7 8-23-4-15 18-1 23zm-6-314c12-22 41 8 22 22-7 7-26 1-9-3 22-11 0-23-13-19zm201 252c3 24-38 17-31-5 1-9 20-16 9-3-10 22 13 18 22 8zm-6-195c24 2 9 39-11 29-9-1-14-25-2-10 13 13 23-2 16-15l-1-2zm-258-14c-2-24 37-16 31 5 0 10-23 18-11 4 7-11 2-21-11-15-4 0-7 2-9 6zm-26 186c-24-9 4-41 20-24 7 6 4 26-2 10-12-20-25 1-18 14zM392 91c23-11 28 31 4 30-9 2-22-13-5-7 24 4 15-19 1-23zm-41 315c-17 19-38-17-16-27 8-5 25 5 8 6-13 2-16 14-3 19 3 2 7 3 11 2zm132-158c19 17-18 37-27 15-5-8 5-25 6-8 5 24 22 7 21-7z"/></svg>