<svg xmlns="http://www.w3.org/2000/svg" viewBox="0 0 640 480"><style>.M{fill-rule:evenodd}.N{stroke-width:.58}.O{fill:#dd8b59}.P{stroke:#512007}.Q{fill:#fecf3e}.R{fill:#012169}</style><path d="M0 0h640v480H0z" class="R"/><g class="M"><path d="M0 0h400v200H0z" class="R"/><path fill="#fff" stroke="#fff" stroke-width="10" d="M413 309a11 13 0 00-2 0c-3 0-7 11-10 17l-8 13-1 4c-6 2-6 8-6 10v4l4 7v0c4 9 9 21 13 22 4 2 16-3 24-12a141 158 0 0054 13c20 0 38-6 53-13 9 9 20 14 25 12 3-1 8-13 12-22l4-7 1-4c0-2-1-8-7-10 1-1 0-3-1-4l-8-13c-2-6-7-17-10-17-4-1-13 1-13 2v1l-17 18c0 1 0 14 4 26a126 142 0 01-43 9c-17 0-32-4-44-9a117 131 0 005-26l-18-18v-1l-11-2z"/><path fill="#e9c6af" stroke="#000" stroke-width="1.2" d="M411 306h-2c-4 1-11 22-12 22a45 52 0 002 2l-6 9a7 7 0 000 1 8 8 0 00-2 0c-7 2-7 8-7 10l1 4 3 8c4 9 10 20 13 21 4 1 15-3 23-10a128 128 0 0057 14c21 0 40-6 55-13 8 7 18 10 22 9 3-1 9-13 13-21l4-8a9 9 0 000-4c0-2 0-8-7-9a7 7 0 000-2l-6-11a45 52 0 000 0c-1 0-8-21-12-22s-13 2-13 3v0l-18 19h0l5 28a114 114 0 01-89-1c4-12 5-27 5-27h0l-18-19v0c0-1-7-3-11-3zm5 23c2 0 4 2 6 5v1a81 81 0 01-3 11 68 68 0 01-13-10c2-3 6-6 9-7a4 4 0 011 0zm128 0h0c4 1 8 6 10 8a72 72 0 01-13 10 82 82 0 01-4-13c2-3 5-5 7-5zm-144 28a77 77 0 007 6 8 8 0 01-1 1 10 10 0 01-5 0l-1-6v-1zm159 2l-1 5h-4a5 5 0 01-1 0 88 88 0 006-5z"/><path fill="#0072c4" stroke="#fff" stroke-width="3.9" d="M481 356s-82-27-82-129l1-136h161l1 135c0 102-82 130-82 130z"/><path fill="#e6e6e6" d="M410 124l2-2 4-3 4-1a9 10 0 003-3v-5l4-2 4-2h4l4 1a12 12 0 014 3l3 3 3 2 4 3 2 3a27 30 0 004 3c2 1 3 2 5 1h4l5 1h9l5 1h14a37 42 0 005 0l5-1h6l4 2 4 2 3 2a18 20 0 013 5l2 5 1 5v6l-1 6-1 5-1 4v11a52 58 0 00-3 6 11 12 0 00-2 3l-1 2 1 3v6l1 4c1 1 1 0 0 0-1 1-2 1-3-1a9 10 0 01-1-4 16 16 0 00-1-5c0-2-1-2-3-2l-4-1c-2 0-2-1-2 2v5l-1 4-3 4c0 1-1 2-3 2l-2-3 2-4 2-4-2-3a19 22 0 01-2-5l-3-1-4 2h-5l-4 1h-13l-5-2-4 2-4 3-1 5-1 4a14 15 0 00-1 5c-1 2-1 2-2 1l-3-3 1-6h-2l-1 5a4 5 0 01-2 3l-2 3v-7-5l-1-6c-1-1-1-2-3-2l-3-3a7 8 0 00-3-3l-4-2c-1-1-2-1-2-3l-2-5a16 18 0 00-1-5 18 20 0 00-1-5l-1-5v-11l-1-5v-5l-2-3c-1 2-3 2-4 2l-5-1-3-1a32 36 0 00-2-3l-1-6 2-2z"/><path fill="#005120" stroke="#002b0d" stroke-width="1.6" d="M429 196c1 0-2 1 1 2 1 1 4 4 5 1 2 3 4 4 5 1 1 3 2 8 5 4 4-1 7 4 12 2 3-1 5-8 8-3 3-1 7-5 10-1 2 1 3-7 5-3 1 6 5-3 8 1 3 1 8-1 11 2 5-1 10 3 14-2 2 0 1 5 5 2 3-1 8 2 10-3 2 4 7 0 10 0l5 3c0 4-4 7-7 10-1 5-5 8-9 11a17 17 0 01-15 6h-44a34 34 0 01-23 2 30 30 0 01-11-11l-5-15v-9z"/><path fill="#fff" d="M426 214c-11 0-16 15-28 14 1 8 0 20 3 27 10-2 15-15 26-13 11 0 16 15 28 13 10-2 15-15 27-13 10 1 15 15 26 13s16-15 27-13c10 1 14 12 24 13 1-9 3-20 1-27-12 0-17-15-29-13-10 1-15 15-26 13s-16-16-27-14-16 16-27 14c-10-2-15-14-25-14zm0 53c-8 1-21 8-18 17 3 5 4 20 11 12 9-5 18 3 24 8s15 4 20-1c6-5 12-11 20-8 9 3 15 14 25 12 10-1 16-14 27-13 5 0 10 9 12 0 2-6 11-16 1-19-6-6-15-11-23-5-6 4-12 12-21 10-10-1-15-15-27-13-10 2-15 15-26 13-10-1-15-13-25-13zm54 53c-12 0-17 15-29 13-10-1-14-12-23-13a132 132 0 0039 33c7-1 14 7 21 0a48 48 0 0019-10 135 135 0 0024-23c-10 2-15 15-27 13-9-1-14-14-24-13z"/></g><g class="P N"><path fill="none" d="M409 268a119 139 0 0111-3l18 19-15 4z"/><g class="M O"><path d="M476 307l1-92h3l-1 92h-3zm31-88v78l-3 3 1-81z"/><path d="M442 292s3 38 39 37 46-38 46-38l-16-1s-12 18-28 17-21-4-24-8l-7-9-18-9 1 8zm97-4l-1-5v-4l2-5-28 5v9h27z"/><path d="M453 290v-69h-2v68l1 1zm-45-22l23 14v1l-23-13v-2z"/><path d="M419 264l3 23h2l-4-23zm22 1l22-4v4l-21 2z"/></g></g><path d="M444 234l4 2 5 1c1 0 3 0 3-2v-2c1 1 2 2 3 1l2-2a9 9 0 001-4l-2 1a128 128 0 01-14 5h-2z" class="Q"/><path d="M441 243c1 1 26-7 26-7l-1 2-25 8z" class="M N O P"/><path d="M498 232l3 4c1 0 2-3 3-2 1 2 3 4 5 2l2-4c2 0 4 1 4-2l1-4-18 6zm-29 7c-1 4-3 7-2 11a59 59 0 002 12c1 1 2-2 3-2 3-2 5-5 8-5s6 2 9 4a32 32 0 01-2-6l1-8 4-12-23 6zm1-10c1 1 2 3 4 3l3-3c0 3 2 5 4 3 1 0 1-4 3-2 2 0 3-2 4-4 0-1 2-4-1-3l-17 6h-1z" class="Q"/><path d="M442 233a5 6 0 000 3l21-8v-2l-21 7zm27-5l21-8v3l-19 7-2-2z" class="M N O P"/><path d="M496 244a13 13 0 00-2 10l2 9c1 1 1-1 2-2l5-5 7 2 4 2v-13c0-3 2-6 4-9l1-2-23 8z" class="Q"/><g class="M N P"><path d="M467 237v4l27-9v-2l-27 7z" class="O"/><path fill="#b6b6b4" d="M434 281s-6-1-6 1 3 4 3 5-1 5 1 5l4-3v-7z"/><path d="M468 263v3l23-4-1-2z" class="O"/></g><path d="M442 246c-2 1-3 4-2 6a30 30 0 003 11c1 2 1-1 2-2 1-2 3-5 6-5s6 2 9 4v-4a28 28 0 013-15l1-2-22 7z" class="Q"/><path d="M494 265l1 2 22-4v-2l-23 4zm0-23v2l27-8v-3c-1 0-26 10-27 8z" class="M N O P"/><path d="M0 0h320v240H0z" class="R"/><path fill="#fff" d="M38 0l122 91L281 0h39v31l-120 90 120 89v30h-40l-120-89-119 89H0v-30l120-89L0 32V0z"/><path fill="#c8102e" d="M212 141l108 79v20l-135-99zm-92 10l3 17-96 72H0zM320 0v2L196 96l1-22 98-74zM0 0l120 88H90L0 21z"/><path fill="#fff" d="M121 0v240h80V0zM0 80v80h320V80z"/><path fill="#c8102e" d="M0 97v48h320V97zM137 0v240h48V0z"/></svg>