<svg xmlns="http://www.w3.org/2000/svg" viewBox="0 0 640 480"><path fill="#e32118" d="M0 0h640v480H0z"/><path fill="#fff" d="M0 0h640v320H0z"/><path fill="#3e9a00" d="M0 0h640v160H0z"/><path fill="#0073ce" d="M0 0v480l180-240z"/><path fill="#fff" stroke="#000" d="M282 192h76v80c0 27-35 6-38 21-5-15-38 6-38-23z"/><path fill="#73452b" stroke="#000" stroke-width=".2" d="M325 280h-2c-2-1-2-51-2-51 4-5 7-6 7-6l2 2c-9 4-8 11-7 22l1 15c1 7 4 12 4 17 1 2-3 1-3 1z"/><path fill="#73452b" stroke="#000" stroke-width=".2" d="M319 222h4c-3 29-1 46-1 54 0 3 2 4 2 4-4 4-6 0-6 0z"/><path fill="#a36629" stroke="#000" stroke-width=".2" d="M314 280c-4 1-4-2-4-2 7-15 11-48 4-52v-3c3 1 5 4 5 4v53c-4 4-5-1-6-1"/><path fill="#009a3b" stroke="#000" stroke-width=".2" d="M331 208l3-1c1-3 6-3 6 0 4 0 5 2 3 4 4-1 8 0 7 5 6 2 4 6 1 7-1 3-3 4-7 3-5 4-8 2-10-1-5 1-6 0-8-3-4 1-5 1-9-1 0 3-1 2-3 2 0 4-1 5-4 4 2 5-4 7-7 3-3 0-3-1-4-2-2 4-6 4-7 2-5-1-5-4 0-4 0-4 3-3 5-3 0-2 1-1 2-1 0-1 0-2 2-2-3-4-1-5 1-6-1-3 1-3 3-3 0-4 1-4 5-5-1-1 0-2 2-2-1-3 0-4 4-4 0-5 11-2 10 5 3 0 4 1 5 3z"/><path fill="gold" stroke="#000" stroke-width=".7" d="M317 181h-4l-2 4-3-4h-4l2-4-2-4h4l2-4 3 4h4l-2 4zm-18 1l-5 1-1 4-3-3-4 1 1-4-3-3 4-1 1-5 3 4 5-1-2 4zm-19 4l-4 2v4l-4-2-4 2 1-5-4-2 4-2v-5l4 3 4-2v4zm43-6l5 1 2 4 2-4h4l-2-4 3-4h-5l-2-4-2 4h-5l2 4zm19 2l4 1 1 4 4-3 4 1-1-4 3-3-5-1-1-5-3 4-4-1 1 4zm18 4l4 2v4l4-2 4 2v-5l3-2-4-2v-5l-4 3-4-2 1 4z"/><g fill="#fff" stroke="#000" stroke-width=".7"><path d="M365 270l5 8 5-7-3-6zm-31 21v8l4-1 3-2v-4zm-27 0l-1 7h-3l-3-1-2-5zm-32-21l-6 8-5-10 4-4z"/><path d="M300 306c0 7 41 7 41 0v-10c0 5-41 4-41 0z"/><path d="M263 284c3 18 37 18 37 18v-6c-1-2 0-3 6-4 2 0 1-3 1-3s-15 2-25-2c-14-5-16-16-16-16l-3 13zm114 0c-3 18-36 18-36 18v-6c0-2-1-3-6-4-3 0-1-3-1-3s14 2 24-2c14-5 15-16 15-16l4 13z"/><path d="M265 277c-9-5-2-11-1-25 2 9 12 12 11 18-5 0-7-6-9 1zm110 0c9-6 1-11 1-25-2 9-12 12-11 18 4 0 6-6 8 1l2 5z"/></g></svg>