<svg xmlns="http://www.w3.org/2000/svg" viewBox="0 0 640 480"><path fill="#ba0000" d="M640 480H0V0h640z"/><g stroke="#000"><path fill="#ffef00" d="M281 376v-7l-9-11 12 3 5-12 5 13 12 5-8 7 2 13-8-8-9 1-2-4z" transform="matrix(.875 0 0 .938 89 0)"/><path fill="#fff" stroke-width="2.6" d="M219 207c-8 4-37 37-41 43a77 77 0 0 1-17 23c-7 6-11 13-10 20 0 9 4 15 8 21 3 3 6 5 9 5 7 1 8 3 11 4 14 19 34 32 48 43a68 68 0 0 1 18 12c4 9 4 16 3 20l-11 41c-2 11 8 9 9 6 4-5 10-1 20-34l12-17 5-2c8-9 2-14-2-16l-9-4-12-10a195 195 0 0 0-46-60l-11-5c-3-1-1-4 1-6 20-11 36-23 55-35l3-2-7-39-32-11-4 3z" transform="matrix(.875 0 0 .938 89 0)"/></g><path fill="#ffec00" d="m304 387 17-3-2 6-17 6 2-9z"/><g fill="none" stroke="#000"><path stroke-width="2.1" d="M256 317a36 36 0 0 1 20-20"/><path stroke-width="2.3" d="m304 386 8-2 5-1 5-1a37 37 0 0 1 5-1m-26 17a14 14 0 0 1 2-1l6-3a51 51 0 0 0 5-1l3-1 5-2"/><g stroke-width="2.1"><path d="m308 319-1 1-6 3a50 50 0 0 1-5 1l-1-1m13 51h5l4 1h9l4 1-4-1 4 1m-31 31a13 13 0 0 1 2-2l5-3a44 44 0 0 0 5-1l4-1 3-2m6-38v4a11 11 0 0 0 6 3l2 1h2m-116-88 2-1 2-3m13 23 18-10 3-2 2-2 2-2 2-3 1-4m20 12v3c0 1-2 6-5 8"/><path d="m255 288 6 1 16 9 3 3 3 2 3 3c4 8 9 15 12 24l2 3 1 2 3 2 4 3 16 10c1 0 5 5 2 8l-3 3-4 2c-6 2-9 1-10 1h-2m-78-107c2 1 5 1 7 3l3 3 4 2 5 1h6"/></g></g><g stroke="#000" stroke-width="2.1"><path fill="#ffe606" d="m222 275 12 1h8c5 0 6-2 7-3l4-6c2-1 5 3 5 3 8 6 1 16 1 16-4 4-5 4-6 1l-5-5c-4-2-11 0-11 0l-5 1c-1 1-3 3-6 3-3 1-4 0-5-2-3-4-2-8 1-9z"/><path fill="#ffef00" d="m432 114-6 3-4 12-4-11-12 1 8-10-1-12 10 4 9-8-2 10 5 7-3 4z"/></g><path fill="#fff" stroke="#000" stroke-width="2.6" d="M322 242c7 5 48 13 54 14a72 72 0 0 1 27 3c7 4 15 4 21-1 7-4 10-10 13-17a11 11 0 0 0 0-9l-2-11c9-19 11-42 13-59l2-20a30 30 0 0 1 15-12l38-10c10-3 4-10 2-10-7 0-7-8-37 0l-20-3-5-3c-10-2-12 5-11 10l1 9-4 14c-9 11-24 47-25 53 0 7-3 6-2 12 0 5-1 2 1 12 0 3-3 3-6 2-18-12-35-19-54-29l-2-2-29 24 5 31 5 2z"/><path fill="#ffe606" d="M479 126a353 353 0 0 1-13-15l7-1 14 13z"/><g stroke="#000"><g fill="none"><path stroke-width="2.1" d="M441 202a36 36 0 0 1-26-8"/><path stroke-width="2.3" d="m479 126-6-6a63 63 0 0 0-3-3l-3-4a35 35 0 0 1-4-4m28 14-3-1-5-4a51 51 0 0 0-3-3l-3-3a28 28 0 0 1-4-3"/><g stroke-width="2.1"><path d="M418 156h2l6 4 2 4h1m38-35h-1v-1l-2-4-2-4-2-3-2-5-1-3 1 3-1-3m42 11a11 11 0 0 1-2-1l-5-3a44 44 0 0 0-4-3l-2-3a24 24 0 0 1-3-3m-37 14c3 0 3-1 3-2l1-6-1-3v-2m-21 146v-1h-2l-2-1m12-23c0-1-14-10-16-10l-5-2-2-2h-6l-4 1m0-23 4-1h8"/><path d="m417 217-2-6a94 94 0 0 1 0-18l1-4 1-4 2-4c0-3 11-18 11-19a40 40 0 0 1 3-3l1-3 2-3 1-4v-3l1-19c0-2 2-8 5-7l4 2 4 2c5 5 6 8 6 9v1m-52 125h-1l-1-5v-15l-1-4-2-4-2-3 2 3-2-3"/></g></g><g stroke-width="2.1"><path fill="#ffe606" d="m421 252-5-10-5-8c-2-4-4-4-6-4l-7-1c-3-1-1-5-1-5 3-11 13-10 14-10 5 2 5 3 4 6l-2 7 6 10 3 2 5 4c1 2 2 4 1 7-2 3-5 4-8 2z"/><path fill="#ffef00" d="m172 159 5 3 13-3s-7 8-6 9l7 9-14-1-9 7-2-10-11-4 10-4 3-7 4 1z"/></g><path fill="#fff" stroke-width="2.4" d="M340 180c0-8-15-47-18-53a72 72 0 0 1-12-24c-1-8-6-15-12-17-8-4-14-2-22-2-3 1-7 2-7 5-4 6-6 5-9 8-22 3-41 14-56 21a64 64 0 0 1-18 10 30 30 0 0 1-18-7l-29-26c-9-7-11 3-10 4 3 6-2 10 20 32l10 18v4c3 11 10 9 14 6l6-7 13-4c15 1 53-5 60-9 5-3 5 0 10-4l9-7c3-2 5 1 5 4l6 60 1 4 35 11 23-22-1-5z"/></g><path fill="#ffe606" d="m156 113-5 18-5-5 3-19z"/><g fill="none" stroke="#000"><path stroke-width="2.1" d="M241 102c7 7 9 20 8 27"/><path stroke-width="2.3" d="m157 112-2 8a63 63 0 0 0-1 5l-2 5-1 4m-3-31v3l-1 7a51 51 0 0 0-1 4l-1 5a29 29 0 0 1 0 4"/></g><g fill="none" stroke="#000" stroke-width="2.1"><path d="M215 147c-1 1 0 0-1-1v-8a52 52 0 0 1 2-5h1m-51-12-1 1-2 4-2 3-2 4-2 3-2 4 2-4-2 4m-14-42 1 3-1 6v4l-1 4a24 24 0 0 1-1 4m32 23c-2-2-3-1-4-1a11 11 0 0 0-5 3 20 20 0 0 1-3 3v1m132-63v1l1 4m-25 1v20l1 5v2l1 3c0 2 1 2 2 3l2 3m-19 12-2-2c-2-1-5-4-5-7"/><path d="m268 115-5 4a88 88 0 0 1-15 10l-4 2-4 1a106 106 0 0 1-27 1 40 40 0 0 1-3 0h-6l-4 2-4 2-16 10c-2 1-6 2-8-2l-1-4v-4c1-6 3-9 4-10v-2m134-23h-1l-3 3-3 2c0 2-1 2-2 3a19 19 0 0 0-3 1l-5 3-2 3-3 3-2 4 2-4-2 4m12 69v-1h1v-6l1-6-1-5v-5l-1-5a28 28 0 0 0 0-4l-1-4-1-5-1-3-1-5a13 13 0 0 1-1-3l-2-4-1-3-2-3-1-4-1-1"/></g><g stroke="#000" stroke-width=".9"><path fill="#ffe606" d="M294 93a55 55 0 0 1-6 9l-4 8c-1 4 0 6 1 7l2 6c0 3-4 4-4 4-10 4-14-6-14-7-2-4-2-5 1-6l6-2c4-3 6-10 6-10l1-4v-7c1-3 1-4 5-4 4-1 7 2 6 6z"/><path fill="#ffef00" d="M281 188c-1-2 28 10 32 10 5-2 28-20 28-20 0 2 1 6 3 7l-26 21c1 11-1 23 5 36h-7c-6-6-8-35-8-35l-29-13c2-1 3-4 2-6z"/></g><path fill="none" stroke="#000" stroke-width="2.2" d="m309 217-7 4c-27 14-40 35-41 35l-2 4-2 2a57 57 0 0 1-4 5s1-1 0 0m74-66a74 74 0 0 0 6 4c24 17 49 20 50 20l4 1h3l6 1s-1 0 0 0"/></svg>