<svg xmlns="http://www.w3.org/2000/svg" viewBox="0 0 640 480"><path fill="#be0027" d="M0 0h640v480H0Z"/><g fill="#ff0"><path d="M169.5 245c13-16 41 0 65-12-28 1-43-13-64-11 22-14 41 4 66-3-33-3-32-18-62-20 27-11 40 12 66 7-30-8-34-26-57-30 33-5 31 15 64 18-34-15-25-27-53-38 32-1 29 21 61 26-27-17-24-32-46-45 27 1 29 28 56 36-24-19-18-35-39-52 27 6 23 29 51 44-21-22-13-38-31-57 26 8 16 31 42 52-15-25-6-41-20-62 23 12 12 35 34 58-11-26 0-42-11-64 20 15 8 39 25 62-6-32 7-37 3-65 15 19-2 38 10 65-1-31 15-39 13-64 15 23-9 43 1 67 2-30 22-38 22-61 12 21-14 37-10 65 9-31 30-35 32-56 8 25-21 36-19 63 8-27 34-31 40-51 3 26-23 31-30 59 14-23 37-25 48-44-1 26-30 30-39 54 17-21 38-17 55-35-2 23-32 22-47 46 18-17 45-12 59-26-1 20-37 19-54 37 21-11 48-5 63-15-3 18-41 13-59 28 25-7 44 3 65-4-10 17-45 6-63 17 22-3 45 10 65 6-7 15-45-1-65 8 24 0 40 16 63 15-12 13-46-5-65-2 23 5 42 24 60 25-15 12-43-14-65-11 23 6 42 33 55 33-14 10-42-22-61-21 23 10 34 37 49 41-19 6-38-29-58-30 24 15 25 38 43 48-19 5-33-35-53-39 20 15 23 45 35 55-19 1-26-41-46-47 17 15 13 46 26 59-20-4-18-40-39-53 15 20 8 47 18 63-20-8-12-41-31-59 11 20 0 44 8 64-18-9-6-47-20-63 6 24-6 44-1 65-18-21 3-43-13-65 4 25-13 43-11 64-14-17 8-45-3-66 2 24-20 46-19 62-12-20 13-44 7-67-2 24-25 37-29 58-8-24 20-41 17-64-8 22-30 31-38 53-6-24 26-37 27-61-10 23-36 28-45 46-3-24 34-34 35-57-12 22-41 23-51 40-1-24 38-27 44-51-12 18-44 16-57 31 2-22 44-23 51-43-16 15-45 9-62 21 10-21 49-17 58-32-17 9-48 0-64 9 14-20 45-8 63-22-29 4-46-7-66-2z"/><path d="M413 240a93 93 0 1 1-186 0 93 93 0 0 1 186 0z"/></g><path fill="#be0027" d="M401 240a80.8 80.8 0 1 1-161.7 0 80.8 80.8 0 0 1 161.7 0z"/><path fill="#ff0" d="M389.6 240a69.6 69.6 0 1 1-139.2 0 69.6 69.6 0 0 1 139.2 0z"/><path fill="#be0027" d="M261.4 196.3c19.7 0 43.2 1 59.2 14a91.2 91.2 0 0 1 56.3-13l10.4 18.7a95 95 0 0 0-47 7.5 79.9 79.9 0 0 1 33 67.7l-9.6 9.4c4-26.3-10.2-56.4-31-72.4 17 24.5 27.4 46 24.6 76.2l-9.5 5.6c3.8-26.3-2-57.3-21.6-75.2a103 103 0 0 1 16 76.2l-11.3 4.7a90.2 90.2 0 0 0-10.3-74.4 90.2 90.2 0 0 0-9.5 73.3l-10.2-2.8c-4.7-28.2 1.8-60.2 15-77-13.2 7.4-25.4 40.3-21.6 73.2l-9.5-3.7a103 103 0 0 1 23.6-75.2c-18 11.3-33 39.5-31 69.5l-7.6-5.6c-3.8-27.3 12.2-53.6 30-69.6a95.5 95.5 0 0 0-47-7.5z"/></svg>