<svg xmlns="http://www.w3.org/2000/svg" viewBox="0 0 640 480"><path fill="red" d="M0 361h640v119H0ZM0 0h640v120H0Z"/><path fill="#fff" d="M0 120h640v241H0Z"/><path fill="#007900" d="M313 124c-7 14-12 14-24 23-4 5-12 8-2 12-10 5-14 8-19 17l2 2s9-4 10-2-12 9-14 10l-10 6c-12 10-19 8-26 22l24-3c4 17-12 20-24 27l-19 12c4 16 19 7 31 2l2 2v5l-23 12-30 16v6c10 2 24 5 34 0 12-6 14-10 29-10a92 92 0 0 1-48 19v9c15 0 24 0 36-2l31-10c7 0 14 8 12 15-8 27-36 21-46 43l38-15c10-4 20-9 32-7 13 6 13 15 33 19l-5-12c5 3 9 3 15 5 11 5 13 10 28 7-12-13-15-12-24-21-10-14-14-35 0-38l17 4c16 3 16-1 40 8 15 4 19 12 36 7-7-16-33-28-50-33 19-12 14 5 41-3v-4c-20-15-27-27-53-27l41-4v-5l-42-11c1-2 2-4 5-5 7 6 30 5 32 5-1-5-12-11-21-16 0 0-41-24-41-27 1-6 16 1 34 6-6-10-15-14-24-17l14-2c-10-22-33-19-48-28-9-8-9-12-24-19zm-22 45c1 1-4 6-6 5l6-5zm39 4 4 2c1 3-8 3-7 1 0-2 1-3 3-3zm-13 2h2c1 3-9 8-13 5 2-4 8-5 11-5zm27 1 3 2c3 3-7 0-7 0l4-2zm-46 4v1c4-1 3 4 3 4s-15 14-15 9c1-5 12-14 12-14zm22 17 2 1c2 4-20 8-13 3 4-2 8-4 11-4zm14 0 2 1c6 4-7 6-8 5 0 0 2-5 6-6zm16 4c6 0 9 5 7 8-3 2-22-1-12-7l5-1zm-65 1 4 1c1 1-4 10-9 5-3-5 1-7 5-6zm-14 5c3 0 4 4 5 5l-10 7c-2 0-6-8-6-9zm104 10c4 0 8 3 8 5 0 0-13-1-11-5h3zm-64 10c4 0 3 5 1 6-2 0-9-4-3-6h2zm-18 4c2-1 6 4 6 4s-12-1-7-4h1zm31 0c3 1 4 8 3 11-2 1-14-5-7-9l4-2zm-53 14c2 0 3 0 2 1-5 5-18 8-19 8l-4-6s15-4 21-3zm99 14c3 0 6 1 7 3 7 8-21 4-21 2v-1c1-1 8-4 14-4zm19 6c6 0 12 4 9 8-2 4-13 2-16-6 2-2 5-2 7-2zm-110 1h2c10 5 8 10 6 16 0 3-13-16-8-16zm34 4c6 0 12 8 5 9-8 2-8-9-6-9h1zm-13 1c2 0 6 11 1 10-4-3-3-10-1-10z"/></svg>