<svg xmlns="http://www.w3.org/2000/svg" viewBox="0 0 640 480"><path fill="#002b7f" d="M0 0h640v240H0Z"/><path fill="#ce1126" d="M0 240h640v240H0z"/><g stroke="#000"><g fill="#ffd83d"><path d="m173 98-1 50h-51c-7-13-14-28-10-43 3-12 17-17 28-14 12 1 23 4 34 7zm9 0 2 50h50c7-13 14-28 11-43-4-12-18-17-29-14-12 1-23 4-34 7zm-4-55-5 7 5 8 4-8-4-8zm0 19-5 8 5 7 4-7zm-15-2 6 4 7-4-7-4zm16 0 7 4 6-4-6-4z"/><path d="M181 60a3 3 0 0 1-6 0 3 3 0 0 1 6 0zm5 20a8 8 0 1 1-17 0 8 8 0 1 1 17 0z"/></g><path fill="none" d="M175 72v5a50 50 0 0 0-5 1m16 0a50 50 0 0 0-6-1v-5m-11 10a49 49 0 0 1 9-1l8 1"/><g fill="#ffd83d"><path d="M134 88c-32 0-31 30-20 51 0 6 7 10 11 6-12-18-17-39-4-48 13-8 51 15 51-1-14-3-26-7-38-8zm88 0c-13 1-24 5-38 8 0 16 38-7 51 1 13 9 8 30-4 48 4 4 11 0 11-6 11-21 12-51-20-51z"/><path d="M169 94c0 14-2 28-7 38l8-4c3-11 4-26 5-33zm17 0-6 1c1 7 2 22 5 33l8 4c-5-10-6-24-7-38z"/><path d="M178 118c-9 0-17 10-17 17-3-7-14-20-25-16-7 3-10 12-9 20-6-21-24-19-26-3 13 12 7 28 17 38h121c10-10 4-26 17-38-2-16-20-18-26 3 1-8-2-17-9-20-11-3-22 9-25 16 0-8-8-18-17-17z"/></g><path d="M238 175c0 5-27 10-60 10s-61-5-61-10c0-4 27-7 61-7 33 0 60 3 60 7z"/></g><path d="M178 131zm0 0v25c0-9 11-18 9-19-7 7-8-1-9-5v-1zm0 25v-25l-1 1c0 4-2 12-9 5-2 2 9 10 9 19h1zm-38-24c-1 1 1 6 1 8h-4v1c5 4 8 8 9 14h1v-17c0-5-1 3-3 1s-2-6-4-7zm75 0c-2 1-2 4-4 7-2 2-3-6-3-1v17h1c1-6 4-10 9-14v-1h-4c0-2 2-7 1-8zm-102 8v1l2 6-4-1c-1-1-2 0-1 1a43 43 0 0 1 12 11c1 1 2 2 1 0a32 32 0 0 1-1-15h-1v3c-1 2-5-4-7-6h-1zm128 0c-2 2-6 8-7 6v-3h-1l-1 15c-1 2 0 1 1 0a43 43 0 0 1 12-11c1-1 0-2-1-1l-4 1c0-2 0-4 2-6v-1h-1z"/><path fill="#ffd83d" stroke="#000" d="M180 92a3 3 0 1 1-6 0 3 3 0 1 1 6 0zm0 6a3 3 0 1 1-6 0 3 3 0 1 1 6 0zm0 7a3 3 0 1 1-6 0 3 3 0 1 1 7 0zm1 7a4 4 0 1 1-8 0 4 4 0 1 1 8 0z"/></svg>