<svg xmlns="http://www.w3.org/2000/svg" viewBox="0 0 640 480"><path fill="#f41408" d="M0 0h640v480H0Z"/><path fill="#21873b" d="M0 320h640v160H0Z"/><path d="M0 0h640v160H0Z"/><path fill="#f31509" d="M195 147c-18-1-36-3-53-7-4-2-4-4-4-6s3-3 6-3c6 2 29 7 50 16zm26-6c22-49 84-73 138-52 26 9 47 27 58 52zm-26 6c-18-1-36-3-53-7-4-2-4-4-4-6s3-3 6-3c6 2 29 7 50 16zm124-85c-4-21-5-44-5-48 1-4 3-5 5-5s5 2 5 5c0 5 0 27-5 48zm12 0c-2-16-2-32-1-48 1-4 4-5 6-4 2 0 4 2 4 5-1 5-3 26-9 47zm10 1c0-21 3-44 4-48s4-4 6-4c2 1 4 3 4 6-1 5-6 26-14 46zm11 2c2-21 7-43 9-47s4-4 6-3c2 0 4 2 3 5-2 5-8 25-18 45zm11 4c4-21 12-43 13-47 2-3 5-3 7-3 1 1 3 3 2 6-6 15-13 30-22 44zm10 4c6-21 16-42 18-46 2-3 4-3 6-2 2 0 4 3 2 6-2 4-12 24-26 42zm10 4c6-15 13-30 22-44 3-3 5-2 7-1s3 4 1 6c-3 4-15 23-30 39zm9 6c9-20 24-39 27-42s5-3 6-2c3 1 4 5 1 7-3 4-17 22-34 37zm9 6c12-19 27-37 30-40s6-2 7-1c3 1 4 5 1 7-4 4-19 20-38 34zm9 7c10-13 21-26 33-37 4-3 6-2 7-1 3 2 3 5 0 7-4 3-21 19-40 31zm7 7c11-12 24-24 37-34 4-2 6-1 7 0 2 2 2 5-1 6-14 11-28 20-43 28zm7 8c12-11 26-22 40-31 4-2 6-1 7 0 1 2 1 5-2 7-4 3-24 15-45 24zm6 8c14-11 28-20 43-28 4-1 6 0 7 2 1 1 0 4-2 6-15 8-31 15-48 20zm5 10c15-9 30-17 46-24 4-2 6 0 6 1 1 2 1 5-2 6-5 2-27 12-50 17zm4 9c15-8 31-15 48-21 4-1 6 1 7 3 0 1-1 4-4 5-5 2-28 10-51 13zm4 10c16-7 32-13 49-17 5-1 6 1 6 3 1 2 0 5-3 5-6 2-29 7-52 9zM308 62c-5-15-8-31-10-47 0-4 2-5 4-5s5 1 6 4c0 5 2 27 0 48zm-11 1c-6-15-11-30-14-46-1-4 1-5 3-5 2-1 5 1 6 3 3 16 5 32 5 48zm-11 2c-8-14-14-29-19-45-1-4 1-5 3-5 2-1 5 0 6 3 2 5 8 26 10 47zm-11 4c-9-14-16-29-22-44-2-4 0-5 2-6 2 0 5 0 6 3 2 5 11 25 14 46zm-10 3c-10-13-19-27-27-41-1-4 1-6 2-6 2-1 5-1 7 2 2 5 12 24 18 45zm-10 5c-11-12-22-25-31-39-2-4 0-5 1-6s5-1 7 2c3 4 15 23 23 43zm-10 5c-12-11-24-23-34-36-2-4-1-5 1-7 2-1 5-1 7 2 3 4 17 22 26 41zm-8 6c-14-10-26-21-38-33-3-4-1-5 0-7 2-1 5-1 7 1 4 4 19 21 31 39zm-9 7c-14-9-28-19-41-30-3-3-1-5 0-7 2-1 5-1 7 1 4 3 21 19 34 36zm-7 7c-15-8-30-17-44-27-3-3-2-5-1-6 2-2 5-2 7-1 14 11 26 21 38 34zm-7 9c-16-7-31-15-46-24-4-3-3-5-2-6 1-2 4-3 7-1 5 3 24 15 41 31zm-6 8c-23-7-45-17-49-19-3-3-3-5-2-6s4-3 7-2c5 3 26 14 44 27zm-6 9c-23-5-46-14-50-16s-3-4-2-5c0-2 3-3 6-2 5 2 27 11 46 23zm-4 9-51-12c-4-1-4-4-4-5 1-2 4-4 7-3 5 2 28 10 48 20z"/><path d="M129 142h382v12H129Z"/></svg>