<svg xmlns="http://www.w3.org/2000/svg" viewBox="0 0 640 480"><path fill="#009a00" d="M0 0h640v150H0Z"/><path fill="#fff" d="M0 150h640v15H0Z"/><path d="M0 165h640v151H0Z"/><path fill="#fff" d="M0 316h640v15H0Z"/><path fill="#ffca00" d="M0 331h640v149H0Z"/><path fill="red" d="M0 0v480l316-239Z"/><path fill="#ffca00" d="m187 313-49-35-48 35 19-56-48-35h59l18-57 19 57h59l-48 35z"/><path fill="#fff" stroke-width="1" d="M97 274h35c2 2 8 4 15 0 10-7 32 0 32 0l3-5-10-33-4-4s-7-5-22-3-20-1-20-1l-16 4-5 4z"/><g fill="none" stroke="#000"><path d="M103 265s34-5 44 9c-6 3-11 3-16 0 1-1 12-14 40-9"/><path stroke-width="1.2" d="M139 232v36m29-36 7 29"/></g><path stroke-width="1" d="m74 277 9 10h2l12-14 5-7 1-3 10-8h2l-1-2 3-1v2l-1 3h-3l-6 4 3 2 3 10 4-3-2-10 5-6-2-4 1-2s21 13 29 10v-9s-21-3-21-6c0-4 5-5 5-5l-3-3 1-2 3 5 8-8 49 56c3-1 3-2 3-5l-47-54 3-4 1-2 6-5 4 3 15-13h3l24-24-27 19-1-1v-2c-1-1-3 1-3 1s-4-1-5-3v5l-7 7-5-1-8 7c-4 11 4 7-2 1l-5 4-13-14 1-3-9-8c-2-2-7-2-8 4-1 2-8 0-8 0l-2 1-20 28 11 13 22-28v-8l4 5h5l13 14-3 2-8 5v1l-22 18h-1v6l13-12v-1l2 1 11-9v1l-10 9v1l-1 1-1-1-13 13h-2l-8 6-5 2z"/></svg>