<svg xmlns="http://www.w3.org/2000/svg" viewBox="0 0 640 480"><path fill="#0000d6" d="M640 0H0v480l640-332Z"/><path fill="#006000" d="M640 166 26 480h614Z"/><path fill="#fc0" d="M640 136 0 456v24h52l588-293Z"/><path fill="#fff" d="m67 9 11 32h36L85 61l11 32-29-20-29 20 11-32-29-20h36Zm180 0 11 32h36l-29 20 11 32-29-20-29 20 11-32-30-20h37zm0 135 11 33h36l-29 20 11 32-29-20-29 20 11-32-30-20h37zm-90-67 12 33h36l-29 20 11 32-29-20-30 20 11-32-29-20h36zm-90 67 11 33h36l-29 20 11 32-29-20-29 20 11-32-29-20h36z"/></svg>