<svg xmlns="http://www.w3.org/2000/svg" viewBox="0 0 640 480"><path fill="#fff" d="M0 0h640v480H0Z"/><path fill="#df0000" d="M0 0h640v240H0Z"/><g fill="#fff"><path d="M146 40a84 84 0 0 0 1 165 86 86 0 0 1-107-59A86 86 0 0 1 99 40c16-4 31-4 47 0z"/><path d="m133 110 5 15-13-9-13 9 5-15-13-9h16l5-15 5 15h16zm18 52 5 15-13-9-13 9 4-15-12-9h16l4-15 5 15h16zm58 0 5 15-13-10-13 10 5-15-13-10h16l5-15 5 15h16zm17-52 5 15-13-9-12 9 4-15-13-9h16l5-16 5 16h16zm-46-34 5 15-13-9-13 9 5-15-13-10h16l5-15 5 15h16z"/></g></svg>