<svg xmlns="http://www.w3.org/2000/svg" viewBox="0 0 640 480"><path fill="#28ae66" d="M0 0h640v480H0Z"/><path fill="#fff" stroke="#fff" stroke-linecap="round" stroke-linejoin="round" stroke-width="5" d="M207 129a57 57 0 0 0 69-17c11-17 13-44-7-69 31 26 38 55 22 79-21 27-66 26-84 7zm46-64h6l-5 3 2 6-4-3-4 3 1-5-4-4h5l2-5zm-26 33h6l-4 3 1 5-4-3-5 3 2-5-4-3h5l2-5zm2-26h5l-4 3 2 5-5-3-4 4 2-6-5-3h6l1-5zm0-26h5l-4 4 2 5-5-3-4 3 2-5-5-4h6l1-5zm-29 33h6l-5 3 2 6-4-3-5 3 2-6-4-3h5l1-5z"/><path fill="#ca3745" d="M0 0h154v480H0Z"/></svg>