<svg xmlns="http://www.w3.org/2000/svg" viewBox="0 0 640 480"><path fill="#ffe700" d="M0 320h640v81H0z"/><path d="M0 240h640v80H0z"/><path fill="#de3908" d="M0 160h640v80H0z"/><path fill="#ffe700" d="M0 80h640v80H0z"/><path d="M0 0h640v80H0z"/><path fill="#fffdff" d="M395 240a75 75 0 1 1-150 0 75 75 0 0 1 150 0z"/><path fill="#de3108" d="m307 183-5-9c2-2 5-3 11-3l-1 9z"/><path fill="#ffe700" d="m312 180 1-9s9-1 15 5l-6 8z"/><path fill="#de3108" d="m323 184 5-8c2 4 4 6 4 10 1 1-7 3-7 2z"/><path d="M310 310s8-10 27-8c-3-4-12-4-12-4s-2-20 0-21h11c1 0 3-3 1-6-1-2-6-9-4-11 2-1 12 1 12 1l-30-39s-2-14 3-21c8-6 7-12 7-12-1-7-11-13-18-6-5 5-2 8-2 8s-10 3-11 5c0 2 12 0 12 0l-1 8s-24 23-6 42l1-1s7 8 14 10l5 6s2 10 0 12h-20c-2 1-11 0-9 14l3-7s0 5 2 7c0-6 3-9 3-9l1 6c1 1 1-9 8-8l12 1s3 19 2 21c-5-1-17 1-18 4l11 1s-6 5-4 7z"/><path fill="#9ca69c" stroke="#9ca69c" d="M313 202s-18 19-11 34v-3l3 1-1-3 2 1-1-3h3l-1-3h3c-5-9 0-17 3-24zm5-17s1 6-3 8c0 1-2 1-1 3 0 2 1 2 2 1 4-1 8-8 2-12z"/><path fill="#fff" d="M312 190a2 2 0 1 1-3 0 2 2 0 0 1 3 0z"/><path fill="#de3108" d="M306 196c-1 1-6 6-1 8 5-1 4-2 5-3 0-3-3-3-4-5z"/><path fill="#9ca69c" stroke="#9ca69c" d="M317 245c-1 1-2 5 0 8 4-2 6-2 8-1z"/><path fill="#fff" stroke="#fff" d="m324 264 1 9h5c1-1 0-7-6-9z"/><path fill="#9ca69c" d="M348 265s-5-15-21-18-14-21-13-22c0-2 1-4 6-2l28 13c3 1 0 29 0 29z"/><path fill="#de3108" d="M333 247s21 12 15 22c6-4 4-11 4-11s5 13-7 20l2 1-2 1s0 2 7-1l-2 2s0 2 6-2l-6 6c12-1 37-38-7-50l2 3z"/><path fill="#fff" d="m334 243 5 4-6-1-6-6-5-3c-3-1-5-8 4-6a87 87 0 0 0 9 4l10 3 6 7-11-6 4 6z"/><path fill="#de3908" d="M0 401h640v79H0z"/></svg>