<svg xmlns="http://www.w3.org/2000/svg" viewBox="0 0 640 480"><path fill="#244aa5" d="M0 0h640v480H0z"/><path fill="#d0a650" d="M253 224.8c9.5 1 28.5-4.9 18.1-16.5 3.3-14 27.2-10.3 25.2-28 9-8.8-22.7-20.6-.7-23.4 8.6-2.6 19.8-14.4 26.9-4.5 6.7 7.4-9.6 7.9.8 14.4 10.7 4.7 23 9.5 34.3 6.7 8 5.8 4.1 24.9 16 20.9 2 10 6.2 23.7 17.9 21.4 9.8 2.9 15.2 8.4 7.5 17.6-2.2 16.1 21 5.6 28.7 15.9 5.5 5.7 8.2 5.3 14.4 1.8 11.4.1 10.5 12.9 5.3 17.8-1.6 11.6-14.2 18-17.6 29.3 8.6 12.5-21 9.4-12.1 20.4 13.7 5.5-2.4 20.1-7 6.5-7 0-6 10.9-14.5 8.2-13.3 3.6-5.3 33.3-22.2 23.2-3.5-9.7-11-24.5-23-13.3-11 9.7-26.2 11.3-37.8 19.5-11.1 10 5.5 34.2-14.5 37.3-13.5 5.8-17.4-12.2-9-18.7-3.6-11.9-9.6-22.8-10.5-35.4a39.6 39.6 0 00-26.8-26.8c-17.6 1-16.9-15.9-22.5-27.8-5.4-10.3-21.3-14.4-14.7-28.8 3.7-12-23.4-8.9-11.8-22.5 10.1-11 26.5 7.1 34.6-9 3.7-4.3 9.1-7.4 15-6.2z"/><path fill="#fff" d="M351.9 73.4L368 123l-42.2-30.7H378L335.8 123l16-49.6zm62.8 11.1l16 49.6-42.1-30.7h52.1l-42.2 30.7zm59.9 21.8l16 49.6-42.1-30.7h52.1L458.4 156l16.2-49.6zM288.1 73.4L272 123l42.2-30.7H262l42.2 30.7-16-49.6zm-62.8 11.1l-16 49.6 42.1-30.7h-52.1l42.2 30.7zm-59.6 21.8l16.2 49.6-42.2-30.7h52.1l-42.2 30.7z"/></svg>