<svg xmlns="http://www.w3.org/2000/svg" viewBox="0 0 64 64"><g fill="#fff"><use stroke="#000000aa" stroke-width="4" href="#a"/><use href="#a"/></g><path fill="#888" d="M11 11.7V14h5.3v-2.3zm6.5 0V14h5v-2.3zm6.2 0V14h4.5v-2.3zm5.7 0V14h2.2v-2.3zm3.4 0V14h10.7v-2.3zm12 0V14H53v-2.3zm-33.8 5V19h8v-2.3zm9.2 0V19h4v-2.3zm5.3 0V19h2v-2.3zm3.2 0V19h3.8v-2.3zm5 0V19h5.8v-2.3zm7 0V19H48v-2.3zM11 22v2.3h6.8V22zm8.4 0v2.3h11V22zM32 22v2.3h5.5V22zm7.2 0v2.3h4.4V22zm6 0v2.3h7V22zM11 27v2.3h3.8V27zm6.2 0v2.3H30V27zM11 34.7V37h6.8v-2.3zm8.5 0V37h11v-2.3zm12.8 0V37h5v-2.3zm7 0V37h4.4v-2.3zm6.2 0V37h7v-2.3zm-34.4 5V42h8.6v-2.4zm10.2 0V42h9.2v-2.4zm10.8 0V42h8.7v-2.4zm10.4 0V42h6v-2.4zM11 45v2.3h9.3V45zm11.2 0v2.3h10V45zM34 45v2.3h9.4V45zm11.2 0v2.3h6.6V45zM11 50v2.3h8V50zm9.2 0v2.3h4V50zm5.2 0v2.3h2V50zm3.2 0v2.3h3.8V50zm5 0v2.3h5.7V50zm6.8 0v2.3h7.5V50z"/><defs><linearGradient id="b" x1="-1291.3" x2="-3079" y1="978.5" y2="3909.9" gradientTransform="scale(.9 1.1)" gradientUnits="userSpaceOnUse" href="#a"/><path id="a" d="M8.9 5H55a3.9 3.9 0 0 1 4 3.9V55a3.9 3.9 0 0 1-3.9 3.9H9a3.9 3.9 0 0 1-4-3.8V9a3.9 3.9 0 0 1 3.9-4m0 0"/></defs><path fill="#ffe680" stroke="#4d4d4d" stroke-linejoin="round" stroke-width="2.8" d="M42.3 8.8a12.7 12.7 0 0 0-14.9 20.1l-.9 2a1.7 1.7 0 1 0-1.5 2.9l-9.4 18.9 1.8 3.8h.5l5.1-.2 2.1-1.6V52l2-1.4V48l2.2-1.7v-2.6l2-1.6v-2.6l1-1.9a1.7 1.7 0 0 0 2.3-1 1.7 1.7 0 0 0 0-1.2 1.7 1.7 0 0 0-.8-1l1-2A12.7 12.7 0 0 0 42.3 9ZM39.5 29a9.5 9.5 0 1 1-6-18 9.5 9.5 0 0 1 6 18Z" class="B"/><path fill="url(#b)" d="M-20 21.2a13 13 0 0 0-17 19.1l-1 2h-.1a1.7 1.7 0 0 0-2.5 1.7c0 .4.3.8.7 1l-11.3 18.4 1.5 4h.3l5.3.4 2.3-1.4.2-2.7 2.3-1.5.3-2.6 2.3-1.5.2-2.7 2.3-1.4.3-2.7 1.1-1.8a1.7 1.7 0 0 0 2.4-.5 1.7 1.7 0 0 0 .2-1.3 1.7 1.7 0 0 0-.8-1l1.2-2a13 13 0 0 0 9.9-23.5zm-4.7 20.3A9.7 9.7 0 1 1-29 22.7a9.7 9.7 0 0 1 4.4 18.8z" transform="rotate(-13 39.5 -647)"/><path fill="#ffe680" stroke="#ecb32e" stroke-linejoin="round" stroke-width="1.8" d="M32.9 10a10.4 10.4 0 1 1 6.5 19.8A10.4 10.4 0 0 1 33 10Z" class="B C"/><path fill="#ecb32e" stroke="#ecb32e" stroke-linejoin="round" stroke-width="1.8" d="M40.5 18a2.9 2.9 0 1 0-5-2.4 2.9 2.9 0 0 0 5 2.6Z" class="B C"/><path fill="#ecb32e" d="M31.6 29.5 18.8 55.3h-.2l-.8-1.5 12.5-25z"/></svg>