<svg xmlns="http://www.w3.org/2000/svg" fill="none" viewBox="0 0 64 64"><path fill="#216778" d="M27.96 10.64a2.31 2.31 0 0 1 4.62 0v2.85a18.3 18.3 0 0 1 4.44.5c3.55-2.25 8.3-1.96 11.4 1.14s3.37 7.83 1.13 11.39c.29 1.23.45 2.48.49 3.75h3.32a2.31 2.31 0 0 1 0 4.61H49.6a20.95 20.95 0 0 1-3.56 7.9l2.02 2.01a2.31 2.31 0 0 1-3.27 3.27l-1.85-1.85a21.5 21.5 0 0 1-8.08 4.59l.02.26v2.3a2.31 2.31 0 0 1-4.62 0v-1.72c-4.9.3-9.78-1.28-13.43-4.93a17.3 17.3 0 0 1-4.87-14.13h-1.33a2.31 2.31 0 0 1 0-4.61h2.33a21.4 21.4 0 0 1 4.36-7.37l-1.97-1.96a2.31 2.31 0 0 1 3.27-3.27l2.14 2.13a21.2 21.2 0 0 1 7.2-3.4z"/><path fill="#2c89a0" d="M44.83 26.74a12.13 12.13 0 0 0-8.03-8.03c-4.92-1.52-10.98-.13-15.4 4.3-6.17 6.17-6.42 15.3-1.3 20.42s14.25 4.88 20.42-1.29c4.43-4.43 5.83-10.49 4.3-15.4z"/><path fill="#5fbcd3" d="M20.33 37.14a3.48 3.48 0 0 1 0-4.9 3.48 3.48 0 0 1 4.9 0 3.48 3.48 0 0 1 0 4.9 3.48 3.48 0 0 1-4.9 0m6.53 1.63a3.48 3.48 0 0 0 0 4.9 3.48 3.48 0 0 0 4.9 0 3.48 3.48 0 0 0 0-4.9 3.48 3.48 0 0 0-4.9 0m-1.63-9.8a4.62 4.62 0 1 1 6.53-6.53 4.62 4.62 0 0 1-6.53 6.53m9.8 3.27a4.62 4.62 0 1 0 6.52 6.53 4.62 4.62 0 0 0-6.52-6.53"/><path fill="red" d="M32 0A32 32 0 0 0 0 32a32 32 0 0 0 64 0A32 32 0 0 0 32 0m0 8a24 24 0 0 1 24 24 24 24 0 0 1-4 13L19 12a24 24 0 0 1 13-4M12 19l33 33a24 24 0 0 1-13 4A24 24 0 0 1 8 32a24 24 0 0 1 4-13" opacity=".7"/></svg>