<svg xmlns="http://www.w3.org/2000/svg" xmlns:xlink="http://www.w3.org/1999/xlink" viewBox="0 0 64 64"><linearGradient id="A" gradientUnits="userSpaceOnUse" x1="32.004" x2="32.004" y1="59.682" y2="4.318"><stop offset="0" stop-color="#e6e6e6"/><stop offset="1" stop-color="#f5f5f5"/></linearGradient><g fill="url(#A)" transform="matrix(.976 0 0 .976 .779 .779)"><use xlink:href="#C" stroke="#000000aa" stroke-width="4"/><use xlink:href="#C"/></g><path d="m30.309 12.133-3.465 5.668c-.258.422-.758.629-1.239.515l-6.464-1.562-2.383 2.387 1.547 6.464c.113.481-.094.977-.516 1.239l-5.656 3.461v3.386l5.668 3.465a1.13 1.13 0 0 1 .515 1.239l-1.558 6.464 2.383 2.383 6.464-1.558a1.13 1.13 0 0 1 1.239.515l3.461 5.668 3.386-.012 3.465-5.671a1.14 1.14 0 0 1 1.242-.512l6.461 1.558 2.383-2.386-1.558-6.449c-.114-.481.093-.981.515-1.239l5.668-3.465v-3.382l-5.668-3.465c-.422-.258-.629-.758-.515-1.242l1.562-6.461-2.387-2.383-6.461 1.558c-.48.114-.984-.093-1.242-.515l-3.461-5.668zm1.132 10.601a9.16 9.16 0 0 1 1.825.071c3.582.5 6.699 3.086 7.687 6.785 1.336 4.941-1.613 10.043-6.555 11.379-4.933 1.32-10.031-1.629-11.367-6.555-1.332-4.945 1.614-10.066 6.559-11.383a9.29 9.29 0 0 1 1.851-.297zm0 0" fill="#4d4d4d"/><defs ><path id="C" d="M8.279 4.326h47.442a3.95 3.95 0 0 1 3.953 3.953v47.442a3.95 3.95 0 0 1-3.953 3.953H8.279a3.95 3.95 0 0 1-3.953-3.953V8.279a3.95 3.95 0 0 1 3.953-3.953zm0 0"/></defs></svg>