<svg xmlns="http://www.w3.org/2000/svg" xmlns:xlink="http://www.w3.org/1999/xlink" viewBox="0 0 64 64"><defs/><linearGradient id="a" x1="32" x2="32" y1="59.68" y2="4.32" gradientUnits="userSpaceOnUse"><stop offset="0" stop-color="#e6e6e6"/><stop offset="1" stop-color="#f5f5f5"/></linearGradient><g fill="url(#a)" transform="matrix(.976 0 0 .976 .78 .78)"><use stroke="#000000aa" stroke-width="4" xlink:href="#C"/><use xlink:href="#C"/></g><path fill="#4d4d4d" d="M30.3 12.13l-3.46 5.67c-.25.42-.75.63-1.23.52l-6.47-1.57-2.38 2.4 1.54 6.46c.12.48-.09.97-.51 1.23l-5.66 3.46v3.4l5.67 3.46a1.13 1.13 0 01.52 1.23l-1.56 6.47 2.38 2.38 6.47-1.56a1.13 1.13 0 011.23.52l3.47 5.67 3.38-.02 3.47-5.67a1.14 1.14 0 011.24-.5l6.46 1.55 2.38-2.39-1.56-6.45c-.11-.48.1-.98.52-1.23l5.67-3.47v-3.38l-5.67-3.47a1.15 1.15 0 01-.52-1.24l1.57-6.46-2.4-2.38-6.45 1.56c-.48.11-.99-.1-1.24-.52l-3.46-5.67zm1.14 10.6a9.16 9.16 0 011.83.08 9.29 9.29 0 11-3.68.22 9.29 9.29 0 011.85-.3zm0 0"/><defs><path id="C" d="M8.28 4.33h47.44a3.95 3.95 0 013.95 3.95v47.44a3.95 3.95 0 01-3.95 3.95H8.28a3.95 3.95 0 01-3.95-3.95V8.28a3.95 3.95 0 013.95-3.95zm0 0"/></defs></svg>