<svg xmlns="http://www.w3.org/2000/svg" xmlns:xlink="http://www.w3.org/1999/xlink" viewBox="0 0 64 64"><linearGradient id="a" x1="32" x2="32" y1="59.7" y2="4.3" gradientUnits="userSpaceOnUse"><stop offset="0" stop-color="#e6e6e6"/><stop offset="1" stop-color="#f5f5f5"/></linearGradient><g fill="url(#a)" transform="matrix(.976 0 0 .976 .8 .8)"><use stroke="#000000aa" stroke-width="4" xlink:href="#C"/><use xlink:href="#C"/></g><path fill="#4d4d4d" d="M30.3 12.1l-3.5 5.7c-.2.4-.7.6-1.2.5l-6.5-1.6-2.3 2.5 1.5 6.4c.1.5 0 1-.5 1.2L12 30.3v3.4l5.7 3.5a1.1 1.1 0 01.5 1.2l-1.5 6.5 2.3 2.3 6.5-1.5a1.1 1.1 0 011.2.5l3.5 5.7h3.4l3.5-5.7a1.1 1.1 0 011.2-.5l6.5 1.5 2.3-2.4-1.5-6.4c-.1-.5 0-1 .5-1.2l5.7-3.5v-3.4l-5.7-3.5a1.1 1.1 0 01-.5-1.2l1.5-6.5-2.4-2.3-6.4 1.5c-.5.1-1 0-1.2-.5l-3.5-5.7zm1.1 10.6a9.2 9.2 0 011.9.1 9.3 9.3 0 11-3.7.2 9.3 9.3 0 011.8-.3zm0 0"/><defs><path id="C" d="M8.3 4.3h47.4a4 4 0 014 4v47.4a4 4 0 01-4 4H8.3a4 4 0 01-4-4V8.3a4 4 0 014-4zm0 0"/></defs></svg>