<svg xmlns="http://www.w3.org/2000/svg" viewBox="0 0 64 64"><linearGradient id="A" gradientUnits="userSpaceOnUse" x1="48" x2="48" y1="90" y2="5.988"><stop offset="0" stop-color="#e1e1e1"/><stop offset="1" stop-color="#f5f5f5"/></linearGradient><path d="M8.286 4.334h47.428a3.95 3.95 0 0 1 3.952 3.952v47.428a3.95 3.95 0 0 1-3.952 3.952H8.286a3.95 3.95 0 0 1-3.952-3.952V8.286a3.95 3.95 0 0 1 3.952-3.952zm0 0" fill="url(#A)" stroke="#00000077" stroke-width="2.668"/><path d="M32.755 33.958l-4.054 13.893c3.545 2.402 7.493 4.334 15.684.948l3.885-13.558c-8.344 2.856-11.966 1.102-15.515-1.283zm0 0" fill="#f59608"/><path d="M22.552 29.931c-2.078.048-4.545.584-7.607 1.847h-.053L10.894 45.7c8.194-3.389 12.075-1.442 15.627.948l4.079-14.031c-2.211-1.503-4.59-2.771-8.048-2.686zm0 0" fill="#2c609f"/><path d="M37.45 17.629l-4.027 13.979c3.542 2.398 7.814 4.375 15.657.867l4.027-13.95c-8.183 3.382-12.116 1.491-15.657-.895zm0 0" fill="#38701a"/><path d="M27.275 13.38c-2.078.033-4.561.575-7.632 1.847l-4.026 13.98c3.256-1.345 5.812-1.972 7.967-1.957 3.265.021 5.55 1.381 7.688 2.819l4.052-13.918c-2.217-1.503-4.585-2.823-8.049-2.771zm0 0" fill="#c91e05"/></svg>