<svg xmlns="http://www.w3.org/2000/svg" xmlns:xlink="http://www.w3.org/1999/xlink" viewBox="0 0 64 64"><linearGradient id="A" gradientUnits="userSpaceOnUse" x1="32.004" x2="32.004" y1="59.682" y2="4.318"><stop offset="0" stop-color="#e6e6e6"/><stop offset="1" stop-color="#f5f5f5"/></linearGradient><g fill="url(#A)" transform="matrix(.976 0 0 .976 .779 .779)"><use xlink:href="#B" stroke="#000000aa" stroke-width="4"/><use xlink:href="#B"/></g><defs><path id="B" d="M8.279 4.326h47.442a3.95 3.95 0 0 1 3.953 3.953v47.442a3.95 3.95 0 0 1-3.953 3.953H8.279a3.95 3.95 0 0 1-3.953-3.953V8.279a3.95 3.95 0 0 1 3.953-3.953zm0 0"/></defs><path d="M23.805 51.237a9.02 9.02 0 0 1-2.069-1.919c-.644-.769-1.231-1.581-1.775-2.419-1.275-1.875-2.275-3.907-2.963-6.063-.838-2.5-1.238-4.901-1.238-7.251 0-2.613.563-4.901 1.669-6.814.813-1.5 2.032-2.75 3.501-3.638a9.326 9.326 0 0 1 4.732-1.4 7.6 7.6 0 0 1 1.875.25c.481.125 1.063.35 1.782.625l1.581.625c.531.2.981.281 1.331.281.269 0 .65-.081 1.075-.219a13.46 13.46 0 0 0 1.35-.519l1.563-.581 1.75-.438a8.61 8.61 0 0 1 1.913-.081c1.188.081 2.263.331 3.232.7 1.7.688 3.063 1.75 4.094 3.263a8.195 8.195 0 0 0-1.206.919c-.813.719-1.5 1.563-2.05 2.5-.719 1.281-1.081 2.732-1.075 4.201.025 1.813.481 3.388 1.4 4.763.644 1 1.5 1.857 2.563 2.563.519.35.969.594 1.4.75l-.675 1.832a24.11 24.11 0 0 1-2.082 3.851l-1.719 2.35c-.669.8-1.313 1.4-1.963 1.825a4.376 4.376 0 0 1-2.419.725 5.36 5.36 0 0 1-1.725-.213 16.271 16.271 0 0 1-1.425-.538 11.48 11.48 0 0 0-1.5-.563c-.625-.169-1.281-.25-1.938-.25-.669 0-1.313.081-1.938.25a10.91 10.91 0 0 0-1.513.544l-1.425.563c-.544.156-1.094.25-1.65.288-.875 0-1.675-.25-2.475-.75zm11.421-30.755c-1.125.563-2.207.813-3.288.725-.169-1.075 0-2.188.45-3.394.4-1.031.938-1.963 1.663-2.8.769-.863 1.688-1.581 2.719-2.094 1.1-.569 2.15-.869 3.15-.919.125 1.125 0 2.25-.419 3.451-.375 1.063-.938 2.05-1.669 2.938-.725.875-1.625 1.581-2.644 2.1z" fill="#999"/></svg>