<svg xmlns="http://www.w3.org/2000/svg" xmlns:xlink="http://www.w3.org/1999/xlink" viewBox="0 0 64 64"><defs/><linearGradient id="a" x1="32" x2="32" y1="59.68" y2="4.32" gradientUnits="userSpaceOnUse"><stop offset="0" stop-color="#e6e6e6"/><stop offset="1" stop-color="#f5f5f5"/></linearGradient><g fill="url(#a)" transform="matrix(.976 0 0 .976 .78 .78)"><use stroke="#000000aa" stroke-width="4" xlink:href="#b"/><use xlink:href="#b"/></g><defs><path id="b" d="M8.28 4.33h47.44a3.95 3.95 0 013.95 3.95v47.44a3.95 3.95 0 01-3.95 3.95H8.28a3.95 3.95 0 01-3.95-3.95V8.28a3.95 3.95 0 013.95-3.95zm0 0"/></defs><path fill="#999" d="M23.8 51.24a9.02 9.02 0 01-2.06-1.92 24.73 24.73 0 01-1.78-2.42A23.45 23.45 0 0117 40.84c-.84-2.5-1.24-4.9-1.24-7.25 0-2.62.56-4.9 1.67-6.82a9.64 9.64 0 013.5-3.64 9.33 9.33 0 014.73-1.4 7.6 7.6 0 011.88.25c.48.13 1.06.35 1.78.63l1.58.62c.53.2.98.28 1.33.28.27 0 .65-.08 1.08-.21a13.46 13.46 0 001.35-.52l1.56-.58 1.75-.44a8.61 8.61 0 011.91-.08c1.19.08 2.27.33 3.23.7a8.8 8.8 0 014.1 3.26 8.2 8.2 0 00-1.2.92c-.82.72-1.5 1.56-2.06 2.5a8.5 8.5 0 00-1.07 4.2 8.78 8.78 0 005.36 8.08l-.68 1.83a24.11 24.11 0 01-2.08 3.85l-1.72 2.35c-.66.8-1.3 1.4-1.96 1.82a4.38 4.38 0 01-2.42.73 5.36 5.36 0 01-1.72-.21 16.27 16.27 0 01-1.43-.54 11.48 11.48 0 00-1.5-.57 7.44 7.44 0 00-3.87 0 10.91 10.91 0 00-1.52.55l-1.42.56c-.55.16-1.1.25-1.65.29-.88 0-1.68-.25-2.48-.75zm11.43-30.76c-1.13.57-2.21.82-3.3.73-.16-1.08 0-2.2.46-3.4.4-1.03.94-1.96 1.66-2.8a9.06 9.06 0 012.72-2.1 7.7 7.7 0 013.15-.91c.12 1.13 0 2.25-.42 3.45a9.69 9.69 0 01-1.67 2.94 8.32 8.32 0 01-2.64 2.1z"/></svg>