<svg xmlns="http://www.w3.org/2000/svg" xmlns:xlink="http://www.w3.org/1999/xlink" viewBox="0 0 64 64"><linearGradient id="A" gradientUnits="userSpaceOnUse" x1="32.004" x2="32.004" y1="59.682" y2="4.318"><stop offset="0" stop-color="#e6e6e6"/><stop offset="1" stop-color="#f5f5f5"/></linearGradient><g fill="url(#A)" transform="matrix(.976 0 0 .976 .779 .779)"><use xlink:href="#C" stroke="#000000aa" stroke-width="4"/><use xlink:href="#C"/></g><path d="M47.186 12.2l-21.701 3.797v26.818c-1.259-.34-2.745-.318-4.223.154-3.187 1.019-5.086 3.738-4.252 6.07s4.085 3.394 7.272 2.371c2.724-.872 4.493-2.981 4.442-5.034h.018V24.675l15.189-2.711v18.141c-1.258-.34-2.745-.318-4.223.15-3.187 1.022-5.086 3.737-4.252 6.069s4.08 3.394 7.274 2.375c2.723-.872 4.492-2.985 4.442-5.034h.017zm0 0" fill="#405"/><defs ><path id="C" d="M8.279 4.326h47.442a3.95 3.95 0 0 1 3.953 3.953v47.442a3.95 3.95 0 0 1-3.953 3.953H8.279a3.95 3.95 0 0 1-3.953-3.953V8.279a3.95 3.95 0 0 1 3.953-3.953zm0 0"/></defs></svg>