<svg viewBox="0 0 64 64" xmlns="http://www.w3.org/2000/svg" xmlns:xlink="http://www.w3.org/1999/xlink"><linearGradient id="a" gradientUnits="userSpaceOnUse" x1="48" x2="48" y1="90" y2="5.988"><stop offset="0" stop-color="#e6e6e6"/><stop offset="1" stop-color="#f5f5f5"/></linearGradient><g stroke-width="1.013" transform="matrix(.988 0 0 .988 .398 .398)"><path d="m7.988 3.986h48.024c2.212 0 4.002 1.79 4.002 4.002v48.024c0 2.212-1.79 4.002-4.002 4.002h-48.024c-2.212 0-4.002-1.79-4.002-4.002v-48.024c0-2.212 1.79-4.002 4.002-4.002zm0 0" fill="url(#a)" stroke="#00000077" stroke-width="2.702"/><path d="m47.371 11.96-21.965 3.843v27.143c-1.274-.344-2.778-.322-4.274.156-3.226 1.031-5.148 3.783-4.304 6.144.839 2.361 4.135 3.435 7.36 2.4 2.757-.883 4.548-3.017 4.496-5.095h.018v-21.965l15.373-2.744v18.361c-1.273-.344-2.778-.322-4.274.152-3.226 1.034-5.148 3.782-4.304 6.143.839 2.361 4.13 3.435 7.362 2.404 2.756-.883 4.547-3.021 4.496-5.095h.017zm0 0" fill="#405" stroke-width="1.013"/></g></svg>