<svg xmlns="http://www.w3.org/2000/svg" xmlns:xlink="http://www.w3.org/1999/xlink" viewBox="0 0 64 64"><linearGradient id="a" x1="32" x2="32" y1="59.7" y2="4.3" gradientUnits="userSpaceOnUse"><stop offset="0" stop-color="#e6e6e6"/><stop offset="1" stop-color="#f5f5f5"/></linearGradient><g fill="url(#a)" transform="matrix(.976 0 0 .976 .8 .8)"><use stroke="#000000aa" stroke-width="4" xlink:href="#C"/><use xlink:href="#C"/></g><path fill="#5195fb" d="M47.2 12.2L25.5 16v26.8a7.5 7.5 0 00-4.2.2c-3.2 1-5.1 3.7-4.3 6s4.1 3.4 7.3 2.4c2.7-.9 4.5-3 4.4-5V24.7L44 22V40a7.6 7.6 0 00-4.2.2c-3.2 1-5 3.7-4.2 6s4 3.4 7.2 2.4c2.8-.9 4.5-3 4.5-5zm0 0"/><defs><path id="C" d="M8.3 4.3h47.4a4 4 0 014 4v47.4a4 4 0 01-4 4H8.3a4 4 0 01-4-4V8.3a4 4 0 014-4zm0 0"/></defs></svg>