<svg xmlns="http://www.w3.org/2000/svg" xmlns:xlink="http://www.w3.org/1999/xlink" viewBox="0 0 64 64"><defs/><defs><linearGradient id="a" gradientUnits="userSpaceOnUse"><stop offset="0" stop-color="#1d28a3"/><stop offset=".27" stop-color="#4fdfed"/><stop offset=".42" stop-color="#37b623"/><stop offset=".62" stop-color="#e7df52"/><stop offset=".8" stop-color="#d83441"/><stop offset="1" stop-color="#c81515"/></linearGradient><linearGradient id="f" x1="-65.1" x2="-14.27" y1="86.55" y2="86.55" xlink:href="#a"/><linearGradient id="g" x1="-12.03" x2="-62.86" y1="87.44" y2="87.44" xlink:href="#a"/><clipPath id="d"><path fill="#bbb1bf" d="M-17.81 66.24a29.35 29.35 0 10-41.5 41.5 29.35 29.35 0 1041.5-41.5zm-13.83 13.84a9.8 9.8 0 010 13.83 9.8 9.8 0 01-13.84 0 9.8 9.8 0 010-13.83 9.8 9.8 0 0113.83 0zm0 0"/></clipPath><clipPath id="b"><path fill="#bbb1bf" d="M31.98 6a25.95 25.98 0 100 51.96 25.95 25.98 0 100-51.95zm0 17.32a8.65 8.67 0 018.66 8.66 8.65 8.67 0 01-8.66 8.66 8.65 8.67 0 01-8.64-8.66 8.65 8.67 0 018.64-8.66zm0 0"/></clipPath><filter id="c" width="1.4" height="1.37" x="-.2" y="-.18" color-interpolation-filters="sRGB"><feGaussianBlur stdDeviation="4.5"/></filter><filter id="e" width="1.5" height="1.31" x="-.25" y="-.15" color-interpolation-filters="sRGB"><feGaussianBlur stdDeviation="3.7"/></filter></defs><path fill="#bbb1bf" d="M32 3.02a28.99 28.99 0 100 57.96 28.99 28.99 0 100-57.96zm0 19.32A9.67 9.67 0 0141.67 32 9.67 9.67 0 0132 41.66 9.67 9.67 0 0122.34 32 9.67 9.67 0 0132 22.34zm0 0"/><path fill="#fff" d="M46.47 6.88A28.99 28.99 0 0028.18 3v20.2a9.67 9.67 0 018.63.42 9.67 9.67 0 014.7 7.27l17.48-10.1a28.99 28.99 0 00-12.52-13.9zm-24 26.2L4.97 43.2a28.99 28.99 0 0012.52 13.9 28.99 28.99 0 0018.3 3.89v-20.2a9.67 9.67 0 01-8.64-.43 9.67 9.67 0 01-4.68-7.26z" clip-path="url(#b)" filter="url(#c)" opacity=".7" transform="matrix(1.11732 0 0 1.11571 -3.73 -3.69)"/><g clip-path="url(#d)" filter="url(#e)" opacity=".6" transform="rotate(-45 -68.13 -25.64) scale(.98762)"><path fill="url(#f)" d="M-46.25 92.71l-10.1 17.5A28.99 28.99 0 00-38.58 116a28.99 28.99 0 0017.79-5.78l-10.1-17.5a9.67 9.67 0 01-7.69 3.95 9.67 9.67 0 01-7.68-3.95z"/><path fill="url(#g)" d="M-30.88 81.28l10.1-17.5A28.99 28.99 0 00-38.55 58a28.99 28.99 0 00-17.79 5.78l10.1 17.5a9.67 9.67 0 017.7-3.95 9.67 9.67 0 017.67 3.95z"/></g><circle cx="32" cy="32" r="9.59" fill="none" stroke="#999" stroke-width="2.4"/></svg>