<svg xmlns="http://www.w3.org/2000/svg" xmlns:xlink="http://www.w3.org/1999/xlink" viewBox="0 0 64 64"><defs/><defs><linearGradient id="a" gradientUnits="userSpaceOnUse"><stop offset="0" stop-color="#1d28a3"/><stop offset=".268" stop-color="#4fdfed"/><stop offset=".421" stop-color="#37b623"/><stop offset=".621" stop-color="#e7df52"/><stop offset=".803" stop-color="#d83441"/><stop offset="1" stop-color="#c81515"/></linearGradient><linearGradient id="f" x1="-65.101" x2="-14.272" y1="86.552" y2="86.552" xlink:href="#a"/><linearGradient id="g" x1="-12.028" x2="-62.857" y1="87.439" y2="87.439" xlink:href="#a"/><clipPath id="d"><path fill="#bbb1bf" d="M-17.812 66.243a29.353 29.353 0 10-41.505 41.505 29.353 29.353 0 1041.505-41.505zm-13.832 13.832a9.791 9.791 0 01.007 13.84 9.791 9.791 0 01-13.84-.007 9.791 9.791 0 010-13.832 9.791 9.791 0 0113.832 0zm0 0"/></clipPath><clipPath id="b"><path fill="#bbb1bf" d="M31.981 6.006a25.946 25.983 0 100 51.958 25.946 25.983 0 100-51.958zm0 17.316a8.655 8.667 0 018.655 8.658 8.655 8.667 0 01-8.655 8.658 8.655 8.667 0 01-8.646-8.658 8.655 8.667 0 018.646-8.658zm0 0"/></clipPath><filter id="c" width="1.4" height="1.37" x="-.2" y="-.185" color-interpolation-filters="sRGB"><feGaussianBlur stdDeviation="4.496"/></filter><filter id="e" width="1.499" height="1.306" x="-.249" y="-.153" color-interpolation-filters="sRGB"><feGaussianBlur stdDeviation="3.697"/></filter></defs><path fill="#bbb1bf" d="M32 3.015a28.99 28.99 0 100 57.97 28.99 28.99 0 100-57.97zm0 19.32a9.67 9.67 0 019.67 9.66 9.67 9.67 0 01-9.67 9.66 9.67 9.67 0 01-9.66-9.66 9.67 9.67 0 019.66-9.66zm0 0"/><path fill="#fff" d="M46.473 6.883a28.99 28.99 0 00-18.293-3.89l-.002 20.202a9.67 9.67 0 018.634.42 9.67 9.67 0 014.691 7.262L58.99 20.781A28.99 28.99 0 0046.473 6.883zM22.472 33.086L4.972 43.19a28.99 28.99 0 0012.515 13.897 28.99 28.99 0 0018.294 3.891v-20.2a9.67 9.67 0 01-8.63-.431 9.67 9.67 0 01-4.681-7.26z" clip-path="url(#b)" filter="url(#c)" opacity=".7" transform="matrix(1.11732 0 0 1.11571 -3.733 -3.686)"/><g clip-path="url(#d)" filter="url(#e)" opacity=".6" transform="scale(.98762) rotate(-45 -68.983 -25.964)"><path fill="url(#f)" d="M-46.253 92.711l-10.104 17.5a28.99 28.99 0 0017.787 5.777 28.99 28.99 0 0017.789-5.777l-10.1-17.494a9.67 9.67 0 01-7.689 3.941 9.67 9.67 0 01-7.684-3.947z"/><path fill="url(#g)" d="M-30.876 81.281l10.104-17.5a28.99 28.99 0 00-17.787-5.777 28.99 28.99 0 00-17.789 5.777l10.1 17.494a9.67 9.67 0 017.689-3.941 9.67 9.67 0 017.684 3.947z"/></g><circle cx="32" cy="32" r="9.59" fill="none" stroke="#999" stroke-width="2.4"/></svg>