<svg xmlns="http://www.w3.org/2000/svg" xmlns:xlink="http://www.w3.org/1999/xlink" viewBox="0 0 64 64"><defs><linearGradient id="a" gradientUnits="userSpaceOnUse"><stop offset="0" stop-color="#1d28a3"/><stop offset=".3" stop-color="#4fdfed"/><stop offset=".4" stop-color="#37b623"/><stop offset=".6" stop-color="#e7df52"/><stop offset=".8" stop-color="#d83441"/><stop offset="1" stop-color="#c81515"/></linearGradient><linearGradient id="f" x1="-65.1" x2="-14.3" y1="86.5" y2="86.5" xlink:href="#a"/><linearGradient id="g" x1="-12" x2="-62.9" y1="87.4" y2="87.4" xlink:href="#a"/><clipPath id="d"><path fill="#bbb1bf" d="M-17.8 66.2a29.4 29.4 0 10-41.5 41.5 29.4 29.4 0 1041.5-41.5zm-13.8 13.9a9.8 9.8 0 010 13.8 9.8 9.8 0 01-13.9 0 9.8 9.8 0 010-13.8 9.8 9.8 0 0113.8 0zm0 0"/></clipPath><clipPath id="b"><path fill="#bbb1bf" d="M32 6a26 26 0 100 52 26 26 0 100-52zm0 17.3a8.7 8.7 0 018.6 8.7 8.7 8.7 0 01-8.6 8.6 8.7 8.7 0 01-8.7-8.6 8.7 8.7 0 018.7-8.7zm0 0"/></clipPath><filter id="c" width="1.4" height="1.4" x="-.2" y="-.2" color-interpolation-filters="sRGB"><feGaussianBlur stdDeviation="4.5"/></filter><filter id="e" width="1.5" height="1.3" x="-.3" y="-.1" color-interpolation-filters="sRGB"><feGaussianBlur stdDeviation="3.7"/></filter></defs><path fill="#bbb1bf" d="M32 3a29 29 0 100 58 29 29 0 100-58zm0 19.3a9.7 9.7 0 019.7 9.7 9.7 9.7 0 01-9.7 9.7 9.7 9.7 0 01-9.7-9.7 9.7 9.7 0 019.7-9.7zm0 0"/><path fill="#fff" d="M46.5 6.9A29 29 0 0028.2 3v20.2a9.7 9.7 0 018.6.4 9.7 9.7 0 014.7 7.3L59 20.8a29 29 0 00-12.5-14zM22.5 33L5 43.2a29 29 0 0012.5 13.9A29 29 0 0035.8 61V40.8a9.7 9.7 0 01-8.6-.4 9.7 9.7 0 01-4.7-7.3z" clip-path="url(#b)" filter="url(#c)" opacity=".7" transform="matrix(1.11732 0 0 1.11571 -3.7 -3.7)"/><g clip-path="url(#d)" filter="url(#e)" opacity=".6" transform="rotate(-45 -68.1 -25.6) scale(.98762)"><path fill="url(#f)" d="M-46.3 92.7l-10 17.5a29 29 0 0017.7 5.8 29 29 0 0017.8-5.8l-10-17.5a9.7 9.7 0 01-7.8 4 9.7 9.7 0 01-7.7-4z"/><path fill="url(#g)" d="M-30.9 81.3l10.1-17.5A29 29 0 00-38.5 58a29 29 0 00-17.8 5.8l10 17.5a9.7 9.7 0 017.8-4 9.7 9.7 0 017.6 4z"/></g><circle cx="32" cy="32" r="9.6" fill="none" stroke="#999" stroke-width="2.4"/></svg>