<svg xmlns="http://www.w3.org/2000/svg" xmlns:xlink="http://www.w3.org/1999/xlink" viewBox="0 0 64 64"><linearGradient id="A" gradientUnits="userSpaceOnUse" x1="32.004" x2="32.004" y1="59.682" y2="4.318"><stop offset="0" stop-color="#e6e6e6"/><stop offset="1" stop-color="#f5f5f5"/></linearGradient><g fill="url(#A)" transform="matrix(.976 0 0 .976 .779 .779)"><use xlink:href="#B" stroke="#000000aa" stroke-width="4"/><use xlink:href="#B"/></g><path d="M23.194 12.861q-1.974.651-3.171 2.247-1.197 1.596-1.197 3.654 0 1.029.336 3.003.294 2.037.294 3.066 0 2.016-.903 3.213-.588.777-2.625 2.163-1.071.735-1.638 1.071-1.071.609-1.743.735 2.604.378 4.682 2.583 2.016 2.226 2.016 4.85 0 .987-.294 2.961-.315 2.037-.315 3.024 0 1.932 1.26 3.486 1.197 1.533 3.087 2.184v.987h-.126q-3.129 0-5.543-2.016-2.583-2.142-2.583-5.207 0-1.197.483-3.612.42-2.373.42-3.57 0-1.638-1.386-3.129-1.239-1.344-2.919-1.953v-1.239q1.26-.378 2.709-1.638 1.428-1.197 1.722-2.31.084-.357.084-1.302 0-1.197-.462-3.612-.483-2.352-.483-3.57 0-2.961 2.709-5.06 2.499-1.911 5.585-1.911zm29.475 19.737q-.987.063-2.583 1.512-1.575 1.47-1.848 2.499-.126.525-.126 1.197 0 1.218.525 3.528.462 2.373.462 3.57 0 3.066-2.667 5.165-2.499 1.932-5.627 1.932v-.903q1.932-.651 3.129-2.226 1.218-1.554 1.218-3.57 0-1.05-.294-3.024-.357-1.974-.357-3.003 0-1.974.945-3.276.693-.861 2.625-2.226 1.071-.735 1.638-1.071 1.071-.609 1.764-.735-2.625-.399-4.682-2.583-2.079-2.205-2.079-4.808 0-1.008.252-3.024.273-2.016.273-3.003 0-1.932-1.155-3.486-1.218-1.512-3.108-2.142v-1.005h.084q3.066 0 5.543 1.995 2.667 2.058 2.667 5.06 0 1.218-.483 3.633-.462 2.394-.462 3.591 0 1.68 1.386 3.192 1.239 1.365 2.961 1.974z" fill="#050" stroke="#050" stroke-linejoin="round"/><defs><path id="B" d="M8.279 4.326h47.442a3.95 3.95 0 0 1 3.953 3.953v47.442a3.95 3.95 0 0 1-3.953 3.953H8.279a3.95 3.95 0 0 1-3.953-3.953V8.279a3.95 3.95 0 0 1 3.953-3.953zm0 0"/></defs></svg>