<svg xmlns="http://www.w3.org/2000/svg" xmlns:xlink="http://www.w3.org/1999/xlink" viewBox="0 0 64 64"><defs/><linearGradient id="a" x1="32" x2="32" y1="59.68" y2="4.32" gradientUnits="userSpaceOnUse"><stop offset="0" stop-color="#e6e6e6"/><stop offset="1" stop-color="#f5f5f5"/></linearGradient><g fill="url(#a)" transform="matrix(.976 0 0 .976 .78 .78)"><use stroke="#000000aa" stroke-width="4" xlink:href="#B"/><use xlink:href="#B"/></g><path fill="#050" stroke="#050" stroke-linejoin="round" d="M23.2 12.86q-1.98.65-3.18 2.25-1.2 1.6-1.2 3.65 0 1.03.34 3 .3 2.04.3 3.07 0 2.02-.9 3.21-.6.78-2.63 2.17-1.07.73-1.64 1.07-1.07.6-1.74.73 2.6.38 4.68 2.59 2.01 2.22 2.01 4.85 0 .98-.29 2.96-.31 2.03-.31 3.02 0 1.93 1.26 3.49 1.2 1.53 3.08 2.18v.99h-.12q-3.13 0-5.55-2.02-2.58-2.14-2.58-5.2 0-1.2.48-3.62.42-2.37.42-3.57 0-1.63-1.38-3.13-1.24-1.34-2.92-1.95v-1.24q1.26-.38 2.7-1.64 1.44-1.2 1.73-2.3.08-.36.08-1.3 0-1.2-.46-3.62-.48-2.35-.48-3.57 0-2.96 2.7-5.06 2.5-1.91 5.6-1.91zM52.66 32.6q-.99.06-2.58 1.51-1.58 1.47-1.85 2.5-.13.52-.13 1.2 0 1.21.53 3.52.46 2.38.46 3.57 0 3.07-2.67 5.17Q43.93 52 40.81 52v-.9q1.93-.65 3.12-2.23 1.22-1.55 1.22-3.57 0-1.05-.3-3.02-.35-1.98-.35-3 0-1.98.95-3.28.69-.86 2.62-2.23 1.07-.73 1.64-1.07 1.07-.6 1.76-.73-2.62-.4-4.68-2.59-2.08-2.2-2.08-4.8 0-1.01.25-3.03.28-2.01.28-3 0-1.93-1.16-3.49-1.22-1.5-3.1-2.14v-1h.08q3.06 0 5.54 2 2.67 2.05 2.67 5.05 0 1.22-.48 3.63-.47 2.4-.47 3.6 0 1.68 1.39 3.19 1.24 1.36 2.96 1.97z"/><defs><path id="B" d="M8.28 4.33h47.44a3.95 3.95 0 013.95 3.95v47.44a3.95 3.95 0 01-3.95 3.95H8.28a3.95 3.95 0 01-3.95-3.95V8.28a3.95 3.95 0 013.95-3.95zm0 0"/></defs></svg>