<svg xmlns="http://www.w3.org/2000/svg" xmlns:xlink="http://www.w3.org/1999/xlink" viewBox="0 0 64 64"><linearGradient  gradientUnits="userSpaceOnUse" x1="29.362" x2="34.634" y1="37.052" y2="37.052"><stop offset="0" stop-color="#b4b4b4"/><stop offset=".205" stop-color="#646464"/><stop offset=".496" stop-color="#fff"/><stop offset="1" stop-color="#3c3c3c"/></linearGradient><linearGradient id="B" gradientUnits="userSpaceOnUse"><stop offset="0" stop-color="#ededed"/><stop offset="1" stop-color="#b0b0b0"/></linearGradient><linearGradient id="C" gradientUnits="userSpaceOnUse" x1="23.464" x2="39.101" y1="51.481" y2="52.144"><stop offset="0" stop-color="#a2a2a2"/><stop offset="1" stop-color="#fff"/></linearGradient><linearGradient id="D" x1="28.044" x2="36.049" xlink:href="#B" y1="10.696" y2="10.696"/><linearGradient id="E" x1="35.029" x2="28.886" xlink:href="#B" y1="10.488" y2="10.488"/><linearGradient  gradientUnits="userSpaceOnUse" x1="32.014" x2="32.014" y1="59.692" y2="4.328"><stop offset="0" stop-color="#e6e6e6"/><stop offset="1" stop-color="#f5f5f5"/></linearGradient><g transform="matrix(.999556 0 0 .999555 .000401 .000429)"><path d="M8.29 4.336h47.448c2.185 0 3.954 1.769 3.954 3.954v47.448c0 2.185-1.769 3.954-3.954 3.954H8.29c-2.185 0-3.954-1.769-3.954-3.954V8.29c0-2.185 1.769-3.954 3.954-3.954zm0 0" fill="#fea" stroke="#00000077" stroke-width="4"/><g transform="matrix(1.053531 0 0 1.053531 -1.711409 -.226064)"><path d="M26.028 5.67v42.08c0 1.298 1.33 2.349 2.986 2.349h5.97c1.655 0 2.986-1.051 2.986-2.349V5.67z" fill="#252525"/><path d="M30.01 5.663h3.976v39.952h-3.977zm0 0" fill="#4d4d4d"/><g fill="#ccc"><path d="M29.879 45.069h4.311c.601 0 1.081.383 1.081.851v1.697c0 .473-.48.851-1.081.851h-4.311c-.601 0-1.081-.378-1.081-.851v-1.697c0-.468.48-.851 1.081-.851zm0 0"/><use xlink:href="#H"/><use xlink:href="#H" y="-5.092"/><path d="M29.335 30.642c-.29 0-.537.184-.537.423v2.547c0 .239.247.428.537.428h1.081c.291 0 .537-.189.537-.428v-.423h1.618c.303 0 .544-.189.544-.423v-.851c0-.233-.241-.423-.544-.423h-1.618v-.427c0-.239-.246-.423-.537-.423zm0-5.092c-.29 0-.537.184-.537.423v2.547c0 .239.247.428.537.428h1.081c.291 0 .537-.189.537-.428v-.423h1.618c.303 0 .544-.189.544-.423v-.85c0-.233-.241-.423-.544-.423h-1.618v-.428c0-.239-.246-.423-.537-.423zm0 0"/><use xlink:href="#H" y="-20.365"/><path d="M34.733 38.278c.29 0 .537.184.537.423v2.547c0 .239-.247.428-.537.428h-1.081c-.291 0-.537-.189-.537-.428v-.423h-1.618c-.303 0-.544-.189-.544-.423v-.851c0-.233.241-.423.544-.423h1.618V38.7c0-.239.246-.423.537-.423zm0-5.091c.29 0 .537.184.537.423v2.547c0 .239-.247.428-.537.428h-1.081c-.291 0-.537-.189-.537-.428v-.423h-1.618c-.303 0-.544-.189-.544-.423v-.851c0-.233.241-.423.544-.423h1.618v-.427c0-.239.246-.423.537-.423zm0-5.092c.29 0 .537.184.537.423v2.547c0 .239-.247.428-.537.428h-1.081c-.291 0-.537-.189-.537-.428v-.423h-1.618c-.303 0-.544-.189-.544-.423v-.85c0-.233.241-.423.544-.423h1.618v-.428c0-.239.246-.423.537-.423zm0-5.091c.29 0 .537.184.537.423v2.547c0 .239-.247.428-.537.428h-1.081c-.291 0-.537-.189-.537-.428v-.423h-1.618c-.303 0-.544-.189-.544-.423v-.851c0-.233.241-.423.544-.423h1.618v-.428c0-.239.246-.423.537-.423zm0 0"/></g><g transform="matrix(.988 0 0 .988 .382 .382)"><path d="M24.948 5.352v42.591c0 1.742 1.811 3.168 4.031 3.168h6.043c2.219 0 4.031-1.426 4.031-3.168V5.352h-1.009v42.591c0 1.314-1.346 2.378-3.022 2.378h-6.043c-1.675 0-3.022-1.064-3.022-2.378V5.352z" fill="url(#C)"/><path d="M29.208 5.349c-.69 0-1.239.381-1.239.854l-.006 12.575c0 .474.548.86 1.239.86h5.625c.69 0 1.239-.385 1.239-.86l.006-12.575c0-.473-.548-.854-1.239-.854z" fill="url(#D)"/><path d="M34.579 6.097c.284 0 .508.176.508.398v11.977c0 .218-.224.395-.508.395h-5.128c-.278 0-.503-.177-.503-.395V6.495c0-.222.225-.398.503-.398z" fill="url(#E)"/></g></g></g><defs ><path id="H" d="M29.335 40.825c-.29 0-.537.184-.537.423v2.547c0 .239.247.428.537.428h1.081c.291 0 .537-.189.537-.428v-.423h1.618c.303 0 .544-.189.544-.423v-.851c0-.233-.241-.423-.544-.423h-1.618v-.428c0-.239-.246-.423-.537-.423zm0 0"/></defs></svg>