<svg xmlns="http://www.w3.org/2000/svg" xmlns:xlink="http://www.w3.org/1999/xlink" viewBox="0 0 64 64"><defs><path id="A" d="m29.335 40.825c-.29 0-.537.184-.537.423v2.547c0 .239.247.428.537.428h1.081c.291 0 .537-.189.537-.428v-.423h1.618c.303 0 .544-.189.544-.423v-.851c0-.233-.241-.423-.544-.423h-1.618v-.428c0-.239-.246-.423-.537-.423zm0 0"/><linearGradient id="B" gradientUnits="userSpaceOnUse"><stop offset="0" stop-color="#ededed"/><stop offset="1" stop-color="#b0b0b0"/></linearGradient><linearGradient id="C" gradientUnits="userSpaceOnUse" x1="23.464" x2="39.101" y1="51.481" y2="52.144"><stop offset="0" stop-color="#a2a2a2"/><stop offset="1" stop-color="#fff"/></linearGradient><linearGradient id="D" x1="28.044" x2="36.049" xlink:href="#B" y1="10.696" y2="10.696"/><linearGradient id="E" x1="35.029" x2="28.886" xlink:href="#B" y1="10.488" y2="10.488"/></defs><path d="M8.287 4.334h47.427a3.95 3.95 0 0 1 3.952 3.952v47.427a3.95 3.95 0 0 1-3.952 3.952H8.287a3.95 3.95 0 0 1-3.952-3.952V8.287a3.95 3.95 0 0 1 3.952-3.952zm0 0" fill="none" stroke="#000000aa" stroke-width="4"/><path d="M8.287 4.334h47.426a3.95 3.95 0 0 1 3.952 3.952v47.427a3.95 3.95 0 0 1-3.952 3.952H8.287a3.95 3.95 0 0 1-3.952-3.952V8.287a3.95 3.95 0 0 1 3.952-3.952zm0 0" fill="#fea"/><path d="M25.699 4.342v44.313c0 1.367 1.401 2.474 3.144 2.474h6.287c1.743 0 3.144-1.107 3.144-2.474V4.342z" fill="#1a1a1a" opacity=".8"/><g fill="#ccc" transform="matrix(1.053 0 0 1.053 -1.71 -1.629)"><path d="M29.879 45.069h4.311c.601 0 1.081.383 1.081.851v1.697c0 .473-.48.851-1.081.851h-4.311c-.601 0-1.081-.378-1.081-.851V45.92c0-.468.48-.851 1.081-.851zm0 0"/><use xlink:href="#A"/><use xlink:href="#A" y="-5.092"/><path d="m29.335 30.642c-.29 0-.537.184-.537.423v2.547c0 .239.247.428.537.428h1.081c.291 0 .537-.189.537-.428v-.423h1.618c.303 0 .544-.189.544-.423v-.851c0-.233-.241-.423-.544-.423h-1.618v-.427c0-.239-.246-.423-.537-.423zm0-5.092c-.29 0-.537.184-.537.423v2.547c0 .239.247.428.537.428h1.081c.291 0 .537-.189.537-.428v-.423h1.618c.303 0 .544-.189.544-.423v-.85c0-.233-.241-.423-.544-.423h-1.618v-.428c0-.239-.246-.423-.537-.423zm0 0"/><use xlink:href="#A" y="-20.365"/><path d="M34.733 38.278c.29 0 .537.184.537.423v2.547c0 .239-.247.428-.537.428h-1.081c-.291 0-.537-.189-.537-.428v-.423h-1.618c-.303 0-.544-.189-.544-.423v-.851c0-.233.241-.423.544-.423h1.618V38.7c0-.239.246-.423.537-.423zm0-5.091c.29 0 .537.184.537.423v2.547c0 .239-.247.428-.537.428h-1.081c-.291 0-.537-.189-.537-.428v-.423h-1.618c-.303 0-.544-.189-.544-.423v-.851c0-.233.241-.423.544-.423h1.618v-.427c0-.239.246-.423.537-.423zm0-5.092c.29 0 .537.184.537.423v2.547c0 .239-.247.428-.537.428h-1.081c-.291 0-.537-.189-.537-.428v-.423h-1.618c-.303 0-.544-.189-.544-.423v-.85c0-.233.241-.423.544-.423h1.618v-.428c0-.239.246-.423.537-.423zm0-5.091c.29 0 .537.184.537.423v2.547c0 .239-.247.428-.537.428h-1.081c-.291 0-.537-.189-.537-.428v-.423h-1.618c-.303 0-.544-.189-.544-.423v-.851c0-.233.241-.423.544-.423h1.618v-.428c0-.239.246-.423.537-.423zm0 0"/></g><g transform="matrix(1.04 0 0 1.04 -1.308 -1.227)"><path d="M24.948 5.352v42.591c0 1.742 1.811 3.168 4.031 3.168h6.043c2.219 0 4.031-1.426 4.031-3.168V5.352h-1.009v42.591c0 1.314-1.346 2.378-3.022 2.378h-6.043c-1.675 0-3.022-1.064-3.022-2.378V5.352z" fill="url(#C)"/><path d="m29.208 5.349c-.69 0-1.239.381-1.239.854l-.006 12.575c0 .474.548.86 1.239.86h5.625c.69 0 1.239-.385 1.239-.86l.006-12.575c0-.473-.548-.854-1.239-.854z" fill="url(#D)"/><path d="M34.579 6.097c.284 0 .508.176.508.398v11.977c0 .218-.224.395-.508.395h-5.128c-.278 0-.503-.177-.503-.395V6.495c0-.222.225-.398.503-.398z" fill="url(#E)"/></g></svg>