<svg xmlns="http://www.w3.org/2000/svg" xmlns:xlink="http://www.w3.org/1999/xlink" viewBox="0 0 64 64"><defs/><defs><linearGradient id="a"><stop offset="0" stop-color="#ccc"/><stop offset="1" stop-color="#eee"/></linearGradient><linearGradient id="c" x1="24.47" x2="39.99" y1="33.66" y2="33.66" gradientTransform="translate(-.03 -1.06)" gradientUnits="userSpaceOnUse" xlink:href="#a"/></defs><defs><linearGradient id="b" gradientUnits="userSpaceOnUse"><stop offset="0" stop-color="#eee"/><stop offset="1" stop-color="#aaa"/></linearGradient><linearGradient id="e" x1="28.04" x2="36.05" y1="10.7" y2="10.7" gradientTransform="translate(-5.67 -1.26) scale(1.17713)" xlink:href="#b"/><linearGradient id="f" x1="35.03" x2="28.89" y1="10.49" y2="10.49" gradientTransform="translate(-5.67 -1.26) scale(1.17713)" xlink:href="#b"/><path id="d" d="M29.34 40.83c-.3 0-.54.18-.54.42v2.55c0 .23.25.42.54.42h1.08c.29 0 .53-.19.53-.42v-.43h1.62c.3 0 .54-.19.54-.42v-.85c0-.24-.24-.43-.54-.43h-1.62v-.42c0-.24-.24-.43-.53-.43zm0 0"/></defs><path fill="none" stroke="#000000aa" stroke-linecap="round" stroke-linejoin="round" stroke-width="4" d="M8.86 5h46.28A3.85 3.85 0 0159 8.86v46.28A3.85 3.85 0 0155.14 59H8.86A3.85 3.85 0 015 55.14V8.86A3.85 3.85 0 018.86 5zm0 0"/><path fill="#fea" d="M8.86 5h46.28A3.85 3.85 0 0159 8.86v46.28A3.85 3.85 0 0155.14 59H8.86A3.85 3.85 0 015 55.14V8.86A3.85 3.85 0 018.86 5zm0 0"/><path fill="#111" d="M39.1 5v44.75a2.52 2.52 0 01-2.5 2.55h-9.2a2.52 2.52 0 01-2.5-2.55V5z" opacity=".7"/><path fill="url(#c)" d="M23.9 5v45.75a2.5 2.5 0 002.5 2.56h11.2c1.38 0 2.5-1.15 2.5-2.56V5h-1v44.75a2.52 2.52 0 01-2.5 2.56h-9.2a2.52 2.52 0 01-2.5-2.56V5z"/><g transform="translate(-.02)"><path fill="#ddd" d="M29.49 46.32h5.13c.72 0 1.3.45 1.3 1.01v2.03c0 .56-.58 1.01-1.3 1.01H29.5c-.72 0-1.3-.45-1.3-1.01v-2.03c0-.56.58-1.01 1.3-1.01zm0 0"/><use width="100%" height="100%" y="-5.09" fill="#ddd" transform="translate(-6.12 -4.9) scale(1.19185)" xlink:href="#d"/><path fill="#ddd" d="M35.27 41.42c.35 0 .64.22.64.5v3.04c0 .29-.3.51-.64.51h-1.29c-.34 0-.64-.22-.64-.5v-.51h-1.93c-.36 0-.64-.23-.64-.5v-1.02c0-.28.28-.5.65-.5h1.92v-.51c0-.29.3-.5.64-.5zm0-7.47c.35 0 .64.22.64.5v3.04c0 .29-.3.51-.64.51h-1.29c-.34 0-.64-.22-.64-.51v-.5h-1.93c-.36 0-.64-.23-.64-.5v-1.02c0-.28.28-.5.65-.5h1.92v-.52c0-.28.3-.5.64-.5zm0-7.47c.35 0 .64.22.64.5v3.04c0 .28-.3.5-.64.5h-1.29c-.34 0-.64-.22-.64-.5v-.5h-1.93c-.36 0-.64-.23-.64-.51V28c0-.28.28-.51.65-.51h1.92v-.51c0-.28.3-.5.64-.5zm-6.43-3.74c-.35 0-.64.22-.64.5v3.04c0 .29.3.51.64.51h1.29c.34 0 .64-.22.64-.51v-.5h1.93c.36 0 .64-.23.64-.5v-1.02c0-.28-.28-.5-.64-.5h-1.93v-.52c0-.28-.3-.5-.64-.5zm0 7.48c-.35 0-.64.21-.64.5v3.03c0 .29.3.51.64.51h1.29c.34 0 .64-.22.64-.5v-.51h1.93c.36 0 .64-.22.64-.5v-1.02c0-.28-.28-.5-.64-.5h-1.93v-.51c0-.29-.3-.5-.64-.5z"/><path fill="url(#e)" d="M28.71 5.04c-.81 0-1.46.44-1.46 1v14.8c0 .56.64 1.02 1.46 1.02h6.62c.8 0 1.46-.46 1.46-1.02V6.04c0-.55-.64-1-1.46-1z"/><path fill="url(#f)" d="M35.03 5.92c.34 0 .6.2.6.47v14.1c0 .25-.26.46-.6.46H29c-.33 0-.6-.2-.6-.47V6.38c0-.26.27-.46.6-.46z"/></g></svg>