<svg xmlns="http://www.w3.org/2000/svg" xmlns:xlink="http://www.w3.org/1999/xlink" viewBox="0 0 64 64"><defs><linearGradient id="c" x1="24.5" x2="40" y1="32.7" y2="32.7" gradientUnits="userSpaceOnUse"><stop offset="0" stop-color="#ccc"/><stop offset="1" stop-color="#eee"/></linearGradient><linearGradient id="a" gradientUnits="userSpaceOnUse"><stop offset="0" stop-color="#eee"/><stop offset="1" stop-color="#aaa"/></linearGradient><linearGradient id="e" x1="27.3" x2="36.7" y1="11.3" y2="11.3" xlink:href="#a"/><linearGradient id="f" x1="35.5" x2="28.3" y1="11.1" y2="11.1" xlink:href="#a"/><path id="b" d="M8.9 5H55a3.9 3.9 0 014 3.9V55a3.9 3.9 0 01-3.9 3.9H9a3.9 3.9 0 01-4-3.8V9a3.9 3.9 0 013.9-4zm0 0"/><path id="d" d="M29.3 40.8c-.3 0-.5.2-.5.5v2.5c0 .2.3.4.5.4h1.1c.3 0 .6-.2.6-.4v-.4h1.6c.3 0 .5-.2.5-.5v-.8c0-.2-.2-.4-.5-.4h-1.7v-.5c0-.2-.2-.4-.5-.4zm0 0"/></defs><use fill="none" stroke="#000000aa" stroke-linecap="round" stroke-linejoin="round" stroke-width="4" xlink:href="#b"/><use fill="#fea" xlink:href="#b"/><path fill="#111" d="M39.1 5v44.8a2.5 2.5 0 01-2.5 2.5h-9.2a2.5 2.5 0 01-2.5-2.5V5z" opacity=".7"/><path fill="url(#c)" d="M23.9 5v45.8a2.5 2.5 0 002.5 2.5h11.2c1.4 0 2.5-1.1 2.5-2.5V5h-1v44.8a2.5 2.5 0 01-2.5 2.5h-9.2a2.5 2.5 0 01-2.5-2.5V5z"/><g fill="#ddd"><path d="M29.5 46.3h5.1c.7 0 1.3.5 1.3 1v2c0 .6-.6 1-1.3 1h-5.1c-.7 0-1.3-.4-1.3-1v-2c0-.5.6-1 1.3-1zm0 0"/><use y="-5.1" transform="translate(-6.1 -4.9) scale(1.19185)" xlink:href="#d"/><path d="M35.3 41.4c.3 0 .6.2.6.5v3c0 .4-.3.6-.6.6H34c-.4 0-.7-.3-.7-.5v-.5h-1.9c-.3 0-.6-.3-.6-.5v-1c0-.3.3-.6.6-.6h2V42c0-.3.2-.5.6-.5zm0-7.4c.3 0 .6.2.6.5v3c0 .3-.3.5-.6.5H34c-.4 0-.7-.2-.7-.5V37h-1.9c-.3 0-.6-.2-.6-.5v-1c0-.3.3-.5.6-.5h2v-.6c0-.2.2-.5.6-.5zm0-7.5c.3 0 .6.2.6.5v3c0 .3-.3.5-.6.5H34c-.4 0-.7-.2-.7-.5v-.5h-1.9c-.3 0-.6-.2-.6-.5v-1c0-.3.3-.5.6-.5h2V27c0-.3.2-.5.6-.5zm-6.5-3.8c-.3 0-.6.3-.6.5v3c0 .4.3.6.6.6h1.3c.4 0 .7-.2.7-.5v-.5h1.9c.4 0 .6-.2.6-.5v-1c0-.3-.2-.5-.6-.5h-2v-.6c0-.2-.2-.5-.6-.5zm0 7.5c-.3 0-.6.2-.6.5v3c0 .3.3.6.6.6h1.3c.4 0 .7-.3.7-.5v-.5h1.9c.4 0 .6-.3.6-.5v-1c0-.4-.2-.6-.6-.6h-2v-.5c0-.3-.2-.5-.6-.5z"/></g><path fill="url(#e)" d="M28.7 5c-.8 0-1.4.5-1.4 1v14.8c0 .6.6 1 1.4 1h6.6c.8 0 1.5-.4 1.5-1V6c0-.5-.6-1-1.5-1z"/><path fill="url(#f)" d="M35 6c.4 0 .6.1.6.4v14c0 .3-.2.5-.6.5h-6c-.3 0-.6-.1-.6-.4V6.4c0-.3.3-.5.6-.5z"/></svg>