<svg xmlns="http://www.w3.org/2000/svg" xmlns:xlink="http://www.w3.org/1999/xlink" viewBox="0 0 74 66"><defs/><defs><filter id="a" width="1.16" height="1.22" x="-.08" y="-.11"><feGaussianBlur stdDeviation="1.4"/></filter><filter id="b" width="1.24" height="1.28" x="-.12" y="-.14"><feGaussianBlur stdDeviation="1.4"/></filter><linearGradient id="d" x1="37.62" x2="37.62" y1="52.21" y2="22.17" gradientUnits="userSpaceOnUse"><stop offset="0" stop-color="#9f5"/><stop offset="1" stop-color="#6f0"/></linearGradient><path id="c" d="M37 60.47L15.87 35.92h11.74V20.06h18.78v15.86h11.74z"/></defs><g stroke-linecap="round" stroke-linejoin="round"><path stroke="#00000077" stroke-width="6" d="M37 60.47L15.87 35.92h11.75l-.02-15.86h18.8v15.86h11.73z"/><path stroke="#00000077" stroke-width="4" d="M36.81 2.98a2.09 2.09 0 00-1.7.93l-3.64 5.45-1.55 2.13c-2.63 3.67-5.6 8-5.6 13.17 0 4.7 1.28 8.66 3.53 11.52.07.1.16.16.24.26a13.5 13.5 0 00-2.38-.28 19.6 19.6 0 00-9.68 2.85c-4.47 2.59-6.74 7.34-8.59 11.44a2.09 2.09 0 000 0l-1.24 2.8-2.76 5.57a2.09 2.09 0 001.74 3.01l6.63.43 2.61.29c4.49.44 9.73.85 14.2-1.73 4.07-2.35 6.86-5.44 8.22-8.82.07-.17.09-.35.14-.53 1.27 3.53 3.97 6.9 8.21 9.36 3.08 1.77 6.43 2.07 9.4 2.03 2.89-.05 6.04-.47 8.74-.7h.04c.22-.03.47-.04.72-.06h.02l4.68-.22a2.09 2.09 0 001.74-3.07l-2.59-4.8c-1.9-3.93-4.26-11.56-10.17-14.98a19.53 19.53 0 00-9.73-2.85c-.2 0-.4 0-.61.02-.58.03-1.14.15-1.7.25.07-.09.16-.15.23-.24 2.24-2.86 3.53-6.83 3.53-11.52 0-5.16-2.97-9.49-5.6-13.13l-5.35-7.65a2.09 2.09 0 00-1.73-.9z"/><path fill="#55d400" d="M26.41 24.53c0-4.32 2.63-8.34 5.2-11.94.71-.98.77-1 1.57-2.15l3.66-5.49 5.35 7.65c2.58 3.59 5.2 7.62 5.2 11.93 0 8.64-4.71 14-10.5 14s-10.49-5.36-10.49-14zM14.63 60.32L12 60.03l-6.68-.42 2.8-5.65 1.23-2.8c1.84-4.04 4-8.32 7.75-10.48 7.47-4.32 14.47-2.91 17.36 2.1 2.9 5 .62 11.76-6.87 16.08-3.74 2.16-8.53 1.9-12.95 1.46zm31.6-1.46c-7-4.03-9.45-10.23-7.35-15.12a9.7 9.7 0 01.48-.96 7.79 7.79 0 01.6-.9c1.7-2.3 4.37-3.62 7.56-3.76 2.8-.12 5.96.69 9.2 2.56 4.87 2.8 7.33 9.94 9.36 14.1l2.6 4.85-4.75.21-.76.06c-2.78.25-5.92.67-8.63.7-2.8.06-5.72-.25-8.32-1.75z"/><path d="M18.99-85.69l-3.58.39-9.08.58.04.07 8.04 3.07 3.42 1.14c5.7 1.95 11.8 4.33 15.19 9.11 3.88 5.45 5.22 10.92 4.48 15.47a12.56 12.56 0 008.44-5.99c3.93-6.8.83-15.99-9.34-21.86-5.08-2.93-11.6-2.58-17.61-1.98z" filter="url(#a)" opacity=".35" transform="matrix(.77397 0 0 -.77397 -.18 -5.7)"/><path d="M77.09-85.22l3.58.39 9.08.58-.04.07-8.04 3.07-3.42 1.14c-5.7 1.95-11.8 4.33-15.19 9.11-3.88 5.45-5.22 10.92-4.48 15.47a12.56 12.56 0 01-8.44-5.99c-3.93-6.8-.83-15.99 9.34-21.86 5.08-2.93 11.6-2.58 17.61-1.98z" filter="url(#a)" opacity=".35" transform="matrix(.77397 0 0 -.77397 -.18 -5.33)"/><path d="M33.6-37.99c0 1.78.33 3.52.88 5.22 2.02-7.51 7.26-11.93 13.38-11.93s11.37 4.43 13.39 11.94c.56-1.7.88-3.44.88-5.22 0-11.73-6.42-19-14.28-19-7.85 0-14.26 7.28-14.26 19z" filter="url(#b)" opacity=".35" transform="matrix(.77397 0 0 -.77397 -.18 -5.7)"/><use fill="none" stroke="#000" stroke-width="6" xlink:href="#c"/><use fill="url(#d)" stroke="#d7f4d7" stroke-width="2" xlink:href="#c"/></g></svg>