<svg xmlns="http://www.w3.org/2000/svg" viewBox="0 0 64 64"><g transform="matrix(.995 0 0 .995 .157 .165)"><path d="M27.991 4.86c-.803 0-1.555.265-2.124.746L6.368 20.012l.023.113-.023-.02c-.673.566-1.193 1.457-1.398 2.316l-.023-.019v.094l-.079 8.584c0 1.042.631 2.332 1.502 3.065l28.471 24.053c.268.477.686.701.943.797l.108.092c.012.013.023-.007.033-.044a2.14 2.14 0 0 0 .639.097c.458 0 1.049-.137 1.664-.652L58.792 41.09c.583-.493.583-1.296 0-1.795a1.66 1.66 0 0 0-1.064-.371v-8.369l1.027-.868c.583-.493.583-1.295 0-1.793-.02-.016-.042-.027-.062-.042l.062-.053L30.118 5.606c-.567-.481-1.324-.746-2.127-.746z" fill="none" stroke="#000000aa" stroke-linejoin="round" stroke-width="4.02"/><path d="M4.898 22.406l-.079 8.679c0 1.042.632 2.333 1.501 3.066l29.516 24.945c.265.295 0-12.129 0-12.129zm0 0" fill="#917c6f"/><path d="M30.063 5.606c-.567-.481-1.324-.745-2.126-.745s-1.554.264-2.122.745L6.32 20.016l.528 2.488 29.274 24.463 22.57-19.164zm0 0" fill="#c8beb7"/><path d="M57.664 28.667l-21.62 17.789v11.139l21.62-17.789zm0 0" fill="#e3dedb"/><path d="M6.32 20.109c-.692.583-1.23 1.509-1.422 2.391l29.733 25.157c-.052.229-.088.459-.088.674v8.894a1.8 1.8 0 0 0 1.242 1.805 2.17 2.17 0 0 0 .724.12c.458 0 1.048-.137 1.663-.652l20.556-17.4c.583-.493.583-1.296 0-1.796a1.71 1.71 0 0 0-2.122 0l-19.06 16.126v-7.095c0-.361.323-1.015.626-1.27l6.387-5.409 14.134-11.96c.583-.493.583-1.296 0-1.794s-1.539-.495-2.122 0L36.044 45.262zm0 0" fill="#ac9d93"/></g></svg>