<svg viewBox="0 0 64 64" xmlns="http://www.w3.org/2000/svg"><g stroke-width="1.073" transform="matrix(.933 0 0 .931 2.159 2.205)"><path d="m27.72 3c-.857 0-1.659.283-2.266.797l-20.805 15.394.025.121-.025-.021c-.718.605-1.273 1.557-1.492 2.475l-.025-.02v.1l-.084 9.172c0 1.113.673 2.492 1.602 3.275l30.378 25.701c.286.51.732.749 1.006.852l.115.098c.013.014.025-.008.035-.047.164.05.39.104.682.104.489 0 1.119-.146 1.775-.697l21.94-18.591c.622-.527.622-1.385 0-1.918-.314-.264-.725-.396-1.135-.396v-8.943l1.096-.928c.622-.527.622-1.384 0-1.916-.021-.017-.045-.029-.066-.045l.066-.057-30.553-23.713c-.605-.514-1.413-.797-2.27-.797z" fill="none" stroke="#00000077" stroke-linecap="round" stroke-linejoin="round" stroke-width="4"/><g stroke-width=".889"><path d="m3.084 21.745-.084 9.272c0 1.113.674 2.493 1.602 3.276l31.5 26.651c.283.315 0-12.958 0-12.958zm0 0" fill="#917c6f"/><path d="m29.941 3.796c-.605-.514-1.413-.796-2.269-.796-.857 0-1.658.282-2.265.796l-20.805 15.395.563 2.658 31.242 26.136 24.088-20.474zm0 0" fill="#c8beb7"/><path d="m59.398 28.434-23.074 19.005v11.901l23.074-19.005zm0 0" fill="#e3dedb"/><path d="m4.602 19.291c-.739.623-1.313 1.612-1.518 2.554l31.732 26.877c-.056.245-.094.49-.094.72v9.502c0 1.325.929 1.792 1.325 1.928.16.058.432.128.773.128.489 0 1.118-.146 1.775-.697l21.938-18.59c.622-.527.622-1.385 0-1.919-.628-.527-1.641-.527-2.265 0l-20.342 17.229v-7.58c0-.386.345-1.084.668-1.357l6.816-5.779 15.084-12.778c.622-.527.622-1.385 0-1.917-.624-.529-1.642-.529-2.265 0l-21.905 18.551zm0 0" fill="#ac9d93"/></g></g></svg>