<svg xmlns="http://www.w3.org/2000/svg" viewBox="0 0 64 64"><defs/><path fill="none" stroke="#000000aa" stroke-linejoin="round" stroke-width="3.9998999999999993" d="M28 5c-.8 0-1.54.26-2.1.74L6.5 20.08l.02.1-.03-.01a4.5 4.5 0 00-1.39 2.3l-.02-.02v.1L5 31.09c0 1.04.63 2.32 1.5 3.05l28.32 23.93c.27.48.69.7.94.8l.11.09c.01.01.02-.01.03-.05a2.13 2.13 0 00.64.1c.45 0 1.04-.14 1.65-.65l20.47-17.31c.58-.5.58-1.29 0-1.79a1.65 1.65 0 00-1.06-.37v-8.32l1.02-.87c.58-.49.58-1.28 0-1.78l-.06-.04.06-.05-28.5-22.09A3.27 3.27 0 0028.01 5z"/><path fill="#917c6f" d="M5.03 22.46l-.08 8.63c0 1.04.63 2.33 1.5 3.06L35.8 58.97c.27.29 0-12.07 0-12.07zm0 0"/><path fill="#c8beb7" d="M30.07 5.74c-.56-.48-1.32-.74-2.12-.74s-1.54.26-2.1.74L6.44 20.08l.52 2.48L36.1 46.9l22.46-19.07zm0 0"/><path fill="#e3dedb" d="M57.53 28.69l-21.5 17.7v11.08l21.5-17.7zm0 0"/><path fill="#ac9d93" d="M6.45 20.17a4.51 4.51 0 00-1.42 2.38l29.58 25.03c-.05.23-.08.46-.08.67v8.85a1.8 1.8 0 001.23 1.8 2.16 2.16 0 00.72.12c.46 0 1.05-.14 1.66-.65l20.45-17.31c.58-.5.58-1.3 0-1.79a1.7 1.7 0 00-2.11 0L37.52 55.32v-7.06c0-.36.32-1.01.62-1.27l6.35-5.38 14.07-11.9c.58-.49.58-1.29 0-1.78s-1.53-.5-2.11 0L36.02 45.2zm0 0"/></svg>