<svg xmlns="http://www.w3.org/2000/svg" viewBox="0 0 64 64"><defs/><filter id="a" width="1.16" height="1.22" x="-.08" y="-.11"><feGaussianBlur stdDeviation="1.4"/></filter><filter id="b" width="1.24" height="1.28" x="-.12" y="-.14"><feGaussianBlur stdDeviation="1.4"/></filter><path stroke="#00000077" stroke-linejoin="round" stroke-width="4.5" d="M36.75 2.98a2.09 2.09 0 00-1.72.93L31.4 9.36l-1.54 2.13c-2.64 3.67-5.6 8-5.6 13.17 0 4.7 1.27 8.66 3.52 11.52l.24.26a13.5 13.5 0 00-2.38-.28 19.6 19.6 0 00-9.67 2.85c-4.48 2.59-6.75 7.34-8.6 11.44a2.09 2.09 0 000 0l-1.23 2.8-2.77 5.57a2.09 2.09 0 001.74 3.01l6.63.43 2.61.29c4.49.44 9.74.85 14.2-1.73 4.07-2.35 6.86-5.44 8.22-8.82.07-.17.09-.35.15-.53 1.26 3.53 3.96 6.9 8.2 9.36 3.08 1.77 6.43 2.07 9.4 2.03 2.89-.05 6.04-.47 8.74-.7h.04c.22-.03.48-.04.72-.06h.02l4.68-.22a2.09 2.09 0 001.74-3.07l-2.59-4.8c-1.9-3.93-4.26-11.56-10.17-14.98a19.53 19.53 0 00-9.72-2.85c-.21 0-.41 0-.62.02-.58.03-1.14.15-1.7.25.07-.09.16-.15.23-.24 2.24-2.86 3.53-6.83 3.53-11.52 0-5.16-2.97-9.49-5.6-13.13l-5.35-7.65a2.09 2.09 0 00-1.73-.9z" transform="matrix(.888 0 0 .89 -.78 2.4)"/><path fill="#0f0" d="M40.2 54.78c-6.2-3.6-8.39-9.1-6.53-13.46a8.61 8.63 0 01.43-.85 6.92 6.93 0 01.53-.8 8.58 8.58 0 016.72-3.35c2.48-.1 5.3.61 8.18 2.28 4.31 2.5 6.5 8.85 8.3 12.55l2.32 4.31-4.22.2-.68.05c-2.47.22-5.26.59-7.67.63-2.48.04-5.08-.23-7.38-1.56z"/><path fill="#fc0" d="M12.15 56.08l-2.35-.26-5.93-.38 2.48-5.02 1.1-2.5c1.63-3.59 3.55-7.4 6.88-9.32 6.63-3.84 12.85-2.6 15.42 1.87 2.56 4.45.54 10.46-6.1 14.31-3.33 1.92-7.58 1.69-11.5 1.3z"/><path fill="red" d="M22.6 24.23c0-3.84 2.34-7.42 4.63-10.63.62-.87.68-.9 1.39-1.91l3.24-4.89 4.76 6.81c2.29 3.2 4.62 6.78 4.62 10.62 0 7.68-4.19 12.45-9.32 12.45S22.6 31.9 22.6 24.23z"/><path d="M18.99-85.69l-3.58.39-9.08.58.04.07 8.04 3.07 3.42 1.14c5.7 1.95 11.8 4.33 15.19 9.11 3.88 5.45 5.22 10.92 4.48 15.47a12.56 12.56 0 008.44-5.99c3.93-6.8.83-15.99-9.34-21.86-5.08-2.93-11.6-2.58-17.61-1.98z" filter="url(#a)" opacity=".35" transform="matrix(.687 0 0 -.689 -1 -2.67)"/><path d="M77.09-85.22l3.58.39 9.08.58-.04.07-8.04 3.07-3.42 1.14c-5.7 1.95-11.8 4.33-15.19 9.11-3.88 5.45-5.22 10.92-4.48 15.47a12.56 12.56 0 01-8.44-5.99c-3.93-6.8-.83-15.99 9.34-21.86 5.08-2.93 11.6-2.58 17.61-1.98z" filter="url(#a)" opacity=".35" transform="matrix(.687 0 0 -.689 -1 -2.35)"/><path d="M33.6-37.99c0 1.78.33 3.52.88 5.22 2.02-7.51 7.26-11.93 13.38-11.93s11.37 4.43 13.39 11.94c.56-1.7.88-3.44.88-5.22 0-11.73-6.42-19-14.28-19-7.85 0-14.26 7.28-14.26 19z" filter="url(#b)" opacity=".35" transform="matrix(.687 0 0 -.689 -1 -2.67)"/></svg>