<svg xmlns="http://www.w3.org/2000/svg" viewBox="0 0 64 64"><defs/><filter id="a" width="1.163" height="1.222" x="-.081" y="-.111"><feGaussianBlur stdDeviation="1.4"/></filter><filter id="b" width="1.235" height="1.277" x="-.118" y="-.139"><feGaussianBlur stdDeviation="1.4"/></filter><path stroke="#00000077" stroke-linejoin="round" stroke-width="4.5" d="M36.746 2.979a2.089 2.089 0 00-1.713.931L31.4 9.364l-1.544 2.128c-2.633 3.663-5.603 7.999-5.603 13.167 0 4.693 1.277 8.663 3.524 11.524.079.099.168.158.247.257-.782-.139-1.564-.277-2.386-.277-3.059.01-6.366.941-9.672 2.851-4.475 2.584-6.742 7.336-8.593 11.435a2.089 2.089 0 000 .01l-1.237 2.792-2.762 5.574a2.089 2.089 0 001.733 3.01l6.633.426 2.614.287c4.485.446 9.732.851 14.197-1.723 4.069-2.356 6.861-5.445 8.217-8.821.069-.178.089-.356.148-.535 1.267 3.534 3.96 6.91 8.207 9.356 3.079 1.772 6.425 2.079 9.395 2.039 2.891-.05 6.039-.475 8.742-.713h.04c.218-.02.475-.03.723-.05h.02l4.673-.218a2.089 2.089 0 001.742-3.069l-2.584-4.811c-1.911-3.92-4.267-11.553-10.177-14.969-3.316-1.921-6.643-2.851-9.722-2.851-.208 0-.406 0-.614.02-.584.03-1.139.148-1.703.248.069-.089.158-.148.228-.238 2.247-2.861 3.534-6.831 3.534-11.524 0-5.158-2.97-9.484-5.593-13.127l-5.356-7.653a2.089 2.089 0 00-1.733-.891z" transform="matrix(.888 0 0 .89 -.782 2.395)"/><path fill="#0f0" d="M40.207 54.784c-6.215-3.595-8.395-9.111-6.532-13.463a8.614 8.633 0 01.43-.854 6.918 6.933 0 01.528-.802c1.512-2.036 3.886-3.217 6.717-3.34 2.48-.106 5.293.608 8.176 2.273 4.316 2.494 6.505 8.847 8.308 12.548l2.312 4.317-4.22.194-.676.053c-2.47.22-5.257.59-7.666.625-2.48.045-5.081-.228-7.385-1.559z"/><path fill="#fc0" d="M12.146 56.079l-2.347-.256-5.926-.379 2.48-5.022 1.099-2.494c1.626-3.594 3.552-7.41 6.874-9.33 6.637-3.842 12.853-2.591 15.42 1.868 2.568 4.449.546 10.467-6.1 14.317-3.324 1.92-7.58 1.683-11.5 1.295z"/><path fill="red" d="M22.607 24.228c0-3.842 2.33-7.42 4.624-10.626.624-.872.677-.899 1.389-1.912l3.244-4.89 4.756 6.812c2.285 3.19 4.623 6.775 4.623 10.617 0 7.684-4.193 12.45-9.327 12.45s-9.319-4.766-9.319-12.45z"/><path d="M18.99-85.69l-3.58.39-9.08.58.04.07 8.04 3.07 3.42 1.14c5.7 1.95 11.8 4.33 15.19 9.11 3.88 5.45 5.22 10.92 4.48 15.47 3.67-.79 6.64-2.88 8.44-5.99 3.93-6.8.83-15.99-9.34-21.86-5.08-2.93-11.6-2.58-17.61-1.98z" filter="url(#a)" opacity=".35" transform="matrix(.687 0 0 -.689 -1.008 -2.672)"/><path d="M77.09-85.22l3.58.39 9.08.58-.04.07-8.04 3.07-3.42 1.14c-5.7 1.95-11.8 4.33-15.19 9.11-3.88 5.45-5.22 10.92-4.48 15.47-3.67-.79-6.64-2.88-8.44-5.99-3.93-6.8-.83-15.99 9.34-21.86 5.08-2.93 11.6-2.58 17.61-1.98z" filter="url(#a)" opacity=".35" transform="matrix(.687 0 0 -.689 -1.008 -2.348)"/><path d="M33.6-37.99c0 1.78.33 3.52.88 5.22 2.02-7.51 7.26-11.93 13.38-11.93s11.37 4.43 13.39 11.94c.56-1.7.88-3.44.88-5.22 0-11.73-6.42-19-14.28-19-7.85 0-14.26 7.28-14.26 19z" filter="url(#b)" opacity=".35" transform="matrix(.687 0 0 -.689 -1.008 -2.672)"/></svg>