<svg xmlns="http://www.w3.org/2000/svg" xmlns:xlink="http://www.w3.org/1999/xlink" viewBox="0 0 64 64"><linearGradient id="A" gradientUnits="userSpaceOnUse" x1="30.087" x2="30.087" y1="45.87" y2="14.238"><stop offset="0" stop-color="#2b4777"/><stop offset="1" stop-color="#5672a0"/></linearGradient><linearGradient id="B" gradientUnits="userSpaceOnUse" x1="32.004" x2="32.004" y1="59.682" y2="4.318"><stop offset="0" stop-color="#e6e6e6"/><stop offset="1" stop-color="#f5f5f5"/></linearGradient><g fill="url(#B)" transform="matrix(.976 0 0 .976 .779 .779)"><use xlink:href="#D" stroke="#000000aa" stroke-width="4"/><use xlink:href="#D"/></g><path d="M26.079 37.09h13.575l-3.358-17.582zM13.045 50.486l.487-2.618h3.25L36.64 13.514h4.153l6.535 34.354h3.629l-.506 2.618h-13.45l.505-2.618h4.098l-1.498-8.124H24.543l-4.674 8.124h4.061l-.488 2.618zm0 0" fill="url(#A)"/><defs ><path id="D" d="M8.279 4.326h47.442a3.95 3.95 0 0 1 3.953 3.953v47.442a3.95 3.95 0 0 1-3.953 3.953H8.279a3.95 3.95 0 0 1-3.953-3.953V8.279a3.95 3.95 0 0 1 3.953-3.953zm0 0"/></defs></svg>