<svg xmlns="http://www.w3.org/2000/svg" viewBox="0 0 64 64"><defs/><linearGradient id="a" x1="32.004" x2="32.004" y1="59.682" y2="4.318" gradientUnits="userSpaceOnUse"><stop offset="0" stop-color="#e6e6e6"/><stop offset="1" stop-color="#f5f5f5"/></linearGradient><path fill="none" stroke="#000" stroke-width="4" d="M8.857 5h46.287A3.855 3.855 0 0159 8.857v46.287A3.855 3.855 0 0155.143 59H8.857A3.855 3.855 0 015 55.143V8.857A3.855 3.855 0 018.857 5zm0 0"/><path fill="url(#a)" d="M8.279 4.326h47.442a3.95 3.95 0 013.953 3.953v47.442a3.95 3.95 0 01-3.953 3.953H8.279a3.95 3.95 0 01-3.953-3.953V8.279a3.95 3.95 0 013.953-3.953zm0 0" transform="matrix(.97564 0 0 .97564 .78 .78)"/><path fill="#7f2aff" d="M41.709 28.721l-1.352 6.674h7.422v5.926h-8.544L37.02 53h-6.329l2.244-11.679h-5.581L25.168 53h-6.185l2.129-11.679h-6.847v-5.926h7.968l1.352-6.674h-7.249v-6.012h8.314L26.865 11h6.3L30.95 22.708h5.696L38.89 11h6.185l-2.244 11.708h6.904v6.012zm-13.233 6.674h5.638l1.352-6.674h-5.638z"/></svg>