<?xml version="1.0" encoding="UTF-8" standalone="no"?>
<svg
   viewBox="0 0 64 64"
   version="1.1"
   id="svg9"
   sodipodi:docname="hash.svg"
   inkscape:version="1.1-rc (1:1.1+rc+202105232055+f4db50c7c1)"
   xmlns:inkscape="http://www.inkscape.org/namespaces/inkscape"
   xmlns:sodipodi="http://sodipodi.sourceforge.net/DTD/sodipodi-0.dtd"
   xmlns="http://www.w3.org/2000/svg"
   xmlns:svg="http://www.w3.org/2000/svg">
  <defs
     id="defs13">
    <linearGradient
       id="linearGradient860"
       gradientUnits="userSpaceOnUse"
       x1="32.004002"
       x2="32.004002"
       y1="59.681999"
       y2="4.3179998">
      <stop
         offset="0"
         stop-color="#e6e6e6"
         id="stop2-3" />
      <stop
         offset="1"
         stop-color="#f5f5f5"
         id="stop4-6" />
    </linearGradient>
    <radialGradient
       id="E"
       cx="25.103001"
       cy="22.635"
       gradientTransform="matrix(0.85059724,0,0,0.82186777,10.792015,12.258498)"
       gradientUnits="userSpaceOnUse"
       r="19.190001">
      <stop
         offset="0"
         stop-color="#bcd0e3"
         id="stop18" />
      <stop
         offset=".703"
         stop-color="#97b5d4"
         id="stop20" />
      <stop
         offset=".851"
         stop-color="#729bc5"
         id="stop22" />
      <stop
         offset="1"
         stop-color="#4575a9"
         id="stop24" />
    </radialGradient>
    <linearGradient
       id="J"
       gradientUnits="userSpaceOnUse"
       x1="32.014"
       x2="32.014"
       y1="47.830002"
       y2="16.198"
       gradientTransform="translate(-1.9271622,-1.9595205)">
      <stop
         offset="0"
         stop-color="#2b4777"
         id="stop49" />
      <stop
         offset="1"
         stop-color="#5672a0"
         id="stop51" />
    </linearGradient>
    <linearGradient
       id="A"
       gradientUnits="userSpaceOnUse"
       x1="33.918999"
       x2="33.918999"
       y1="-3.5669999"
       y2="31.705999">
      <stop
         offset="0"
         stop-color="#999"
         id="stop2-36" />
      <stop
         offset="1"
         stop-color="#666"
         id="stop4-7" />
    </linearGradient>
  </defs>
  <sodipodi:namedview
     id="namedview11"
     pagecolor="#ffffff"
     bordercolor="#666666"
     borderopacity="1.0"
     inkscape:pageshadow="2"
     inkscape:pageopacity="0.0"
     inkscape:pagecheckerboard="0"
     showgrid="false"
     inkscape:zoom="11.734375"
     inkscape:cx="32"
     inkscape:cy="31.95739"
     inkscape:window-width="1932"
     inkscape:window-height="1126"
     inkscape:window-x="1920"
     inkscape:window-y="0"
     inkscape:window-maximized="1"
     inkscape:current-layer="svg9" />
  <linearGradient
     id="a"
     gradientUnits="userSpaceOnUse"
     x1="32.004"
     x2="32.004"
     y1="59.682"
     y2="4.318">
    <stop
       offset="0"
       stop-color="#e6e6e6"
       id="stop2" />
    <stop
       offset="1"
       stop-color="#f5f5f5"
       id="stop4" />
  </linearGradient>
  <g
     id="g923"
     transform="matrix(0.97564501,0,0,0.97564501,0.77935968,0.77935968)"
     style="stroke-width:1.02496">
    <path
       d="m 8.279,4.326 h 47.442 c 2.185,0 3.953,1.769 3.953,3.953 v 47.442 c 0,2.185 -1.769,3.953 -3.953,3.953 H 8.279 c -2.185,0 -3.953,-1.769 -3.953,-3.953 V 8.279 c 0,-2.185 1.769,-3.953 3.953,-3.953 z m 0,0"
       fill="url(#a)"
       stroke="#00000077"
       stroke-width="2.651"
       id="path7-7"
       style="fill:none;stroke:#000000;stroke-width:4.09985;stroke-miterlimit:4;stroke-dasharray:none" />
    <path
       d="m 8.279,4.326 h 47.442 c 2.185,0 3.953,1.769 3.953,3.953 v 47.442 c 0,2.185 -1.769,3.953 -3.953,3.953 H 8.279 c -2.185,0 -3.953,-1.769 -3.953,-3.953 V 8.279 c 0,-2.185 1.769,-3.953 3.953,-3.953 z m 0,0"
       fill="url(#a)"
       stroke="#00000077"
       stroke-width="2.71718"
       id="path7"
       style="fill:url(#a);stroke:none" />
  </g>
  <g
     id="g1317"
     transform="translate(-10.428136,-8.56616)" />
  <g
     aria-label="#"
     id="text10647"
     style="font-weight:800;font-size:58.9151px;line-height:1.25;font-family:'Open Sans';-inkscape-font-specification:'Open Sans Ultra-Bold';stroke-width:0.999999;fill:#7f2aff">
    <path
       d="m 41.70891,28.720546 -1.352056,6.673977 h 7.421922 v 5.92603 h -8.54384 l -2.21507,11.679458 h -6.32877 L 32.934932,41.320553 H 27.354107 L 25.167805,53.000011 H 18.98287 l 2.128768,-11.679458 h -6.846579 v -5.92603 h 7.968498 l 1.352055,-6.673977 h -7.249319 v -6.012332 h 8.313703 l 2.21507,-11.708225 H 33.16507 L 30.95,22.708214 h 5.695893 L 38.88973,10.999989 h 6.184935 l -2.243837,11.708225 h 6.904113 v 6.012332 z m -13.232884,6.673977 h 5.638359 l 1.352056,-6.673977 h -5.63836 z"
       style="font-weight:bold;-inkscape-font-specification:'Open Sans Bold';fill:#7f2aff"
       id="path12867" />
  </g>
</svg>
