<svg xmlns="http://www.w3.org/2000/svg" viewBox="0 0 64 64"><linearGradient id="A" gradientUnits="userSpaceOnUse" x1="32.004" x2="32.004" y1="59.682" y2="4.318"><stop offset="0" stop-color="#e6e6e6"/><stop offset="1" stop-color="#f5f5f5"/></linearGradient><path d="M8.857 5h46.287C57.275 5 59 6.726 59 8.857v46.287C59 57.275 57.274 59 55.143 59H8.857C6.725 59 5 57.274 5 55.143V8.857C5 6.725 6.726 5 8.857 5zm0 0" fill="none" stroke="#000" stroke-width="4"/><path d="M8.279 4.326h47.442a3.95 3.95 0 0 1 3.953 3.953v47.442a3.95 3.95 0 0 1-3.953 3.953H8.279a3.95 3.95 0 0 1-3.953-3.953V8.279a3.95 3.95 0 0 1 3.953-3.953zm0 0" fill="url(#A)" transform="matrix(.975645 0 0 .975645 .77936 .77936)"/><path d="M41.709 28.721l-1.352 6.674h7.422v5.926h-8.544L37.02 53h-6.329l2.244-11.679h-5.581L25.168 53h-6.185l2.129-11.679h-6.847v-5.926h7.968l1.352-6.674h-7.249v-6.012h8.314L26.865 11h6.3L30.95 22.708h5.696L38.89 11h6.185l-2.244 11.708h6.904v6.012zm-13.233 6.674h5.638l1.352-6.674h-5.638z" fill="#7f2aff"/></svg>