<svg xmlns="http://www.w3.org/2000/svg" xmlns:xlink="http://www.w3.org/1999/xlink" viewBox="0 0 64 64"><linearGradient id="B" gradientUnits="userSpaceOnUse" x1="32.004" x2="32.004" y1="59.682" y2="4.318"><stop offset="0" stop-color="#e6e6e6"/><stop offset="1" stop-color="#f5f5f5"/></linearGradient><g fill="url(#B)" transform="matrix(.976 0 0 .976 .779 .779)"><use xlink:href="#D" stroke="#000000aa" stroke-width="4"/><use xlink:href="#D"/></g><path d="m52 32c0 11.047-8.953 20-20 20s-20-8.953-20-20 8.953-20 20-20 20 8.953 20 20zm0 0" fill="#4b7cae"/><path d="m31.983 12.734-4.613.916-.184 1.094 1.008 1.373-.196 1.639 1.176.207 4.134-2.887.317-1.701zm-5.229.274-3.418 1.326 1.765-.25zm-4.451 1.927-.653 1.669.402.857 1.283-1.426 2.236 1.265-.068-1.006-1.541-.905-1.234.19zm19.085.682-2.317.922-1.248 1.334.484 1.201 1.46.514.279-1.531 1.356-1.183-.063 1.548-.259.997-1.637.802-1.116-.474-.863 1.061-1.578 1.106.258 1.218-1.393.948.661 1.319 1.374-.841 1.256-1.158 1.594.59.698.844-.438-1.621 1.163 1.337.797.122 2.138.799.58 1.01-2.388.155-1.586.434-2.132-1.535-2.898.563-2.506 3.543-.241 1.63.131 1.755 2.138 2.731 1.431-.38 1.576-.201 1.156.956.445 1.663.365 2.157-.275 1.851.779 3.423.284 2.235 1.989-.501 1.391-1.206.763-1.486-.06-1.368 1.809-1.428-.181-3.398 1.444-2.267.89-2.783-2.153.159-1.887-3.961.298-.866 2.106 3.384.418 1.338 2.721-2.419-.522-1.621-1.319-.167-.041-1.016 1.581.663 1.388.302c-.371-3.019-1.904-5.825-3.584-8.605l-3.325-3.483-1.263.678.512-.775-1.311-.651-1.129-.366zm-20.362.062-2.743 2.272c-4.001 4.017-5.528 8.367-5.821 12.882l2.23 1.725 1.819.963 1.559.966.399 1.2-.568 1.72-.066 1.824 1.841 2.605 1.103 2.064.405 2.036-.437 2.072c.7.395.698 1.087 2.713.926l1.088-1.403 1.126-1.428.422-1.703 1.489-.977.237-2.556.989-2.111-1.386-1.141-2.272-1.225-1.266-1.256-.946-1.596-1.873-.189-1.562-.102-2.109.033-.694-1.311-.152-1.563-1.415.684-.961-1.29.933-1.585 1.382-.777 1.591.842.472-.954 1.342-1.415 1.223-1.581 1.564-1.122 1.463-1.147-1.989-.03 2.154-.587 1.424-.938-.917-1.279-1.079-.664-1.193-.467-.731 1.651-1.148 1.36-1.116-1.391-.281-1.248 2.216-1.694-.455-1.095zm12.966 1.038-.593.988zm-9.828.159.465.922zm11.769 1.941.291 1.712.836.585-.675-2.297zm-.292 1.024.015.894zm-10.279 1.52.631.559z" fill="#0cf"/><defs ><path id="D" d="M8.279 4.326h47.442a3.95 3.95 0 0 1 3.953 3.953v47.442a3.95 3.95 0 0 1-3.953 3.953H8.279a3.95 3.95 0 0 1-3.953-3.953V8.279a3.95 3.95 0 0 1 3.953-3.953zm0 0"/></defs></svg>