<svg xmlns="http://www.w3.org/2000/svg" xmlns:xlink="http://www.w3.org/1999/xlink" viewBox="0 0 64 64"><defs/><linearGradient id="a" x1="32" x2="32" y1="59.68" y2="4.32" gradientUnits="userSpaceOnUse"><stop offset="0" stop-color="#e6e6e6"/><stop offset="1" stop-color="#f5f5f5"/></linearGradient><g fill="url(#a)" transform="matrix(.976 0 0 .976 .78 .78)"><use stroke="#000000aa" stroke-width="4" xlink:href="#D"/><use xlink:href="#D"/></g><path fill="#4b7cae" d="M52 32a20 20 0 11-40 0 20 20 0 0140 0zm0 0"/><path fill="#0cf" d="M31.98 12.73l-4.61.92-.18 1.1 1 1.37-.2 1.64 1.18.2 4.14-2.88.31-1.7zm-5.23.28l-3.41 1.32 1.76-.25zm-4.45 1.92l-.65 1.67.4.86 1.29-1.43 2.23 1.27-.07-1-1.54-.91-1.23.19zm19.09.69l-2.32.92-1.25 1.33.49 1.2 1.46.52.28-1.53 1.35-1.19-.06 1.55-.26 1-1.64.8-1.11-.47-.87 1.06-1.57 1.1.25 1.22-1.39.95.66 1.32 1.38-.84 1.25-1.16 1.6.59.7.84-.44-1.62 1.16 1.34.8.12 2.13.8.58 1.01-2.38.16-1.59.43-2.13-1.53-2.9.56-2.5 3.54-.25 1.63.13 1.76 2.14 2.73 1.43-.38 1.58-.2 1.16.95.44 1.66.36 2.16-.27 1.85.78 3.43.28 2.23 2-.5 1.38-1.2.77-1.5-.06-1.36 1.8-1.43-.18-3.4 1.45-2.26.89-2.79-2.15.16-1.9-3.96.3-.86 2.11 3.38.42 1.34 2.72-2.42-.52-1.62-1.32-.17-.04-1.02 1.58.67 1.39.3c-.37-3.02-1.9-5.83-3.59-8.6l-3.32-3.49-1.26.68.5-.78-1.3-.65-1.13-.36zm-20.36.06l-2.75 2.27a19.2 19.2 0 00-5.82 12.88l2.23 1.73 1.82.96 1.56.97.4 1.2-.57 1.72-.06 1.82 1.84 2.6 1.1 2.07.4 2.04-.43 2.07c.7.4.7 1.09 2.71.92l1.09-1.4 1.12-1.43.43-1.7 1.49-.98.23-2.55 1-2.11-1.4-1.14-2.27-1.23-1.26-1.26-.95-1.6-1.87-.18-1.56-.1-2.11.03-.7-1.31-.15-1.56-1.41.68-.96-1.29.93-1.58 1.38-.78 1.6.84.46-.95 1.35-1.42 1.22-1.58 1.56-1.12 1.47-1.15-2-.03 2.16-.59 1.42-.93-.91-1.28-1.08-.67-1.2-.46-.73 1.65-1.14 1.36-1.12-1.4-.28-1.24 2.22-1.7-.46-1.1zm12.96 1.04l-.6.98zm-9.83.16l.47.92zm11.77 1.94l.3 1.7.83.6-.68-2.3zm-.29 1.02l.02.9zm-10.28 1.52l.63.56z"/><defs><path id="D" d="M8.28 4.33h47.44a3.95 3.95 0 013.95 3.95v47.44a3.95 3.95 0 01-3.95 3.95H8.28a3.95 3.95 0 01-3.95-3.95V8.28a3.95 3.95 0 013.95-3.95zm0 0"/></defs></svg>