<svg xmlns="http://www.w3.org/2000/svg" viewBox="0 0 64 64"><linearGradient id="A" gradientUnits="userSpaceOnUse" x1="48" x2="48" y1="90" y2="5.988"><stop offset="0" stop-color="#e6e6e6"/><stop offset="1" stop-color="#f5f5f5"/></linearGradient><filter id="B" height="1" width="1" x="0" y="0"><feColorMatrix in="SourceGraphic" values="0 0 0 0 1 0 0 0 0 1 0 0 0 0 1 0 0 0 1 0"/></filter><mask id="C"><g filter="url(#B)"><path d="M0 0h64v64H0z" fill-opacity=".3"/></g></mask><clipPath id="D"><path d="M0 0h64v64H0z"/></clipPath><radialGradient id="E" cx="25.103" cy="22.635" gradientTransform="matrix(.829 0 0 .801 11.205 12.894)" gradientUnits="userSpaceOnUse" r="19.19"><stop offset="0" stop-color="#bcd0e3"/><stop offset=".703" stop-color="#97b5d4"/><stop offset=".851" stop-color="#729bc5"/><stop offset="1" stop-color="#4575a9"/></radialGradient><path d="M8.286 4.334h47.428a3.95 3.95 0 0 1 3.952 3.952v47.428a3.95 3.95 0 0 1-3.952 3.952H8.286a3.95 3.95 0 0 1-3.952-3.952V8.286a3.95 3.95 0 0 1 3.952-3.952zm0 0" fill="url(#A)" stroke="#00000077" stroke-width="2.668"/><g clip-path="url(#D)" fill="#2a7fff" mask="url(#C)" transform="matrix(1.199 0 0 1.199 -6.385 -6.385)"><path d="M48.082 32c0 8.883-7.199 16.082-16.082 16.082S15.918 40.883 15.918 32 23.117 15.918 32 15.918 48.082 23.117 48.082 32zm0 0"/></g><path d="M31.858 13.357l-2.179.253-2.679.74-.506.492 1.671 1.152v.661l-.664.665.871 1.718.582-.318.725-1.167a24.7 24.7 0 0 0 3.204-1.231l.867-2.225zm-5.096.267l-1.42.458-.014.014c-.013.005-.023 0-.032 0-.641.239-1.255.52-1.865.82l.946.173.366-.327.725-.159c.496-.243 1.002-.412 1.528-.58zm-4.338 1.878l-.145.332.066.82-.572.487-.36.918h.725l.361-.82.932-.665.727.253 1.452.98.74-.661-.806-.319-.361-.74-1.386-.173-.066-.412-.661.159-.285.58-.366-.74zm18.6.665l-1.386.327-.872.572v.487l-1.372.917.285 1.307.806-.566.506.566.58.333.366-.98-.221-.585.221-.408.787-.745h.366l-.366.822v.745c.332-.094.683-.118 1.026-.159l-.947.646-.079.426-1.086.899-1.091-.252v-.647l-.506.319.219.58h-.801l-.426.746-.553.613-.978.206.58.582.145.571h-.725l-.946.506v1.466h.44l.393.458.917-.458.361-.899.646-.412.145-.329 1.088-.253.585.661.646.333-.366.74.586-.155.3-.745-.727-.835h.282l.725.582.145.824.661.741.145-1.073.361-.159c.361.375.646.811.946 1.233l1.091.079.646.408-.285.412-.661.585h-.93l-1.246-.412-.647.079-.472.535-1.344-1.354-.946-.253-1.373.173-1.246.333-2.018 2.379-.806 1.892.365.412-.646.993.727 1.719 1.845 2.098.899-.773.408.459.978-.632.332.379h.979l.553.632-.347 1.134.693.791-.032 1.354.505.978-.365.838-.061 1.799.867 2.474.205 1.312v.661h.52l.791-.488h.946l1.42-1.61-.192-.535.946-.819-.693-.793.838-.693.806-.487.361-.412-.221-.912v-2.305l.661-1.405.791-.899.867-2.145v-.567l-1.26.127-.034.028-.032-.028-.772.028c-.464-.974-.815-1.948-1.167-2.965l-.619-.693-.313-1.199.205-.239.835.946.978 2.098.585.646-.285.745.553.633c.024-.005.042 0 .066 0l.866-.872 1.199-.82.661-.74v-.838l-.44-.82-.585.665-.44-.492-.647-.506v-1.054l.759.853.835-.113 1.091 1.059.534-.6c-.77-4.704-3.257-8.83-6.783-11.724l-.145.219-.727.821-.926-.979h.927l.393-.441c-.032-.023-.06-.055-.094-.079l-1.592-.3-.946-.332zm-19.845.06c-.258.179-.496.366-.745.553l-.108.287-.347.06c-4.107 3.302-6.833 8.272-7.147 13.869.197.337.441.725.441.725l1.531.899 1.513.427.664.819 1.007.741.585-.095.441.206v.127l-.582 1.564-.445.661.145.333-.365 1.227 1.311 2.398 1.307 1.152.585.82-.079 1.737.44.978-.44 1.892s-.01.014.014.127c.609.43 1.251.838 1.91 1.199.01.005.019.01.034.013.028.014.066.038.094.048.234.107.403.168.44.145l.267-.206-.14-.412.585-.58.219-.567.928-.332.725-1.818-.201-.487.501-.74 1.092-.253.58-1.326-.14-1.644.866-1.227.145-1.233-3.566-1.809-.567-1.152-1.086-.253-.585-1.565-1.452.159-1.233-.899-1.306 1.152v.173c-.398-.116-.881-.131-1.233-.347l-.3-.819v-.899l-.866.079.219-1.723h-.519l-.506.65-.506.249-.727-.408-.079-.914.159-.978 1.086-.82h.872l.14-.506 1.091.253.801.993.145-1.658 1.373-1.152.519-1.227 1.012-.412.58-.819 1.312-.253.646-.993h-1.958l1.233-.572h.866l1.233-.408.155-.506-.441-.411-.506-.155.146-.493-.366-.74-.867.314.14-.646-1.006-.58-.806 1.404.079.488-.806.332-.506 1.073-.219-.994-1.373-.571-.219-.74 1.812-1.073.788-.74.079-.899-.44-.253-.08-.019zm12.637 1.012l-.571.314-.3-.08-.061.506.506.319.867-.572zm-9.578.155l-.585.412.725.487h.586v-.567zm11.47 1.892v.492l.3.333v.74l-.158.993.806-.174.585-.566-.506-.492a16.6 16.6 0 0 0-.587-1.326zm-.285.998l-.519.155.158.899.646-.314-.285-.745zm-10.018 1.481l.206 1.152.445-.661-.646-.492zm0 0" fill="url(#E)"/></svg>