<svg xmlns="http://www.w3.org/2000/svg" xmlns:xlink="http://www.w3.org/1999/xlink" viewBox="0 0 64 64"><linearGradient id="A" gradientUnits="userSpaceOnUse" x1="33.919" x2="33.919" y1="-3.567" y2="31.706"><stop offset="0" stop-color="#999"/><stop offset="1" stop-color="#666"/></linearGradient><path d="M8.279 4.326h47.442a3.95 3.95 0 0 1 3.953 3.953v47.442a3.95 3.95 0 0 1-3.953 3.953H8.279a3.95 3.95 0 0 1-3.953-3.953V8.279a3.95 3.95 0 0 1 3.953-3.953zm0 0" fill="#fff" stroke="#00000077" stroke-width="2.651"/><g transform="translate(-.321 -.245)"><g fill="url(#A)" transform="matrix(.914 0 0 .912 2.684 2.719)"><path d="M8.824 6.711h5.461v25.777H8.824zm0 0"/><path d="M35.871 32.488H17.637V28.75l6.531-6.437 3.805-4.028c.586-.75 1.039-1.433 1.3-2.082.258-.629.391-1.305.391-1.984 0-1.008-.293-1.785-.879-2.274s-1.332-.75-2.308-.75c-1.008 0-1.985.231-2.957.684-1.071.519-2.075 1.164-2.993 1.918l-2.988-3.445c1.297-1.075 2.34-1.821 3.184-2.278s1.754-.777 2.761-1.008 2.114-.324 3.352-.324c1.625 0 3.055.293 4.32.879 1.239.586 2.211 1.399 2.926 2.438.684 1.039 1.043 2.242 1.043 3.574 0 1.172-.227 2.277-.652 3.285-.422 1.039-1.071 2.082-1.95 3.152s-2.437 2.602-4.679 4.618l-3.352 3.089v.258h11.379zm0 0"/><path d="M44.293 18.805h1.785c1.692 0 2.926-.328 3.774-1.008.843-.684 1.265-1.625 1.265-2.895s-.355-2.242-1.039-2.828c-.715-.617-1.789-.91-3.285-.91h-2.5zm12.352-4.098c0 2.762-.879 4.91-2.602 6.371s-4.191 2.211-7.41 2.211h-2.34v9.168h-5.465V6.68h8.227c3.121 0 5.492.679 7.117 2.015s2.441 3.348 2.441 6.012"/></g><use xlink:href="#C" fill="#ffc434"/><use xlink:href="#C" y="-11.313" fill="#60ab60"/><use xlink:href="#D" fill="#e15647"/><g fill="#ffc434"><use xlink:href="#D" y="-11.313"/><use xlink:href="#E"/></g><g fill="#60ab60"><use xlink:href="#E" y="-11.313"/><use xlink:href="#F"/></g><use xlink:href="#F" y="-11.313" fill="#e15647"/></g><defs ><path id="C" d="M19.717 50.919c0-2.631-2.135-4.762-4.766-4.762s-4.766 2.132-4.766 4.762 2.131 4.759 4.766 4.759 4.766-2.132 4.766-4.759"/><path id="D" d="M31.084 50.919c0-2.631-2.135-4.762-4.766-4.762s-4.769 2.132-4.769 4.762 2.135 4.759 4.769 4.759 4.766-2.132 4.766-4.759"/><path id="E" d="M42.416 50.919c0-2.631-2.135-4.762-4.766-4.762s-4.77 2.132-4.77 4.762 2.135 4.759 4.77 4.759 4.766-2.132 4.766-4.759"/><path id="F" d="M53.748 50.919c0-2.631-2.135-4.762-4.766-4.762s-4.769 2.132-4.769 4.762 2.134 4.759 4.769 4.759 4.766-2.132 4.766-4.759"/></defs></svg>