<svg xmlns="http://www.w3.org/2000/svg" xmlns:xlink="http://www.w3.org/1999/xlink" viewBox="0 0 64 64"><linearGradient id="A" gradientUnits="userSpaceOnUse"><stop offset="0" stop-color="#999"/><stop offset="1" stop-color="#666"/></linearGradient><linearGradient id="B" x1="33.3" x2="33.3" y1=".4" y2="31.4" xlink:href="#A"/><linearGradient id="C" x1="33.2" x2="33.2" y1=".4" y2="31.4" xlink:href="#A"/><linearGradient id="D" x1="32" x2="32" y1="59.7" y2="4.3" gradientUnits="userSpaceOnUse"><stop offset="0" stop-color="#e6e6e6"/><stop offset="1" stop-color="#f5f5f5"/></linearGradient><g fill="url(#D)" transform="matrix(.976 0 0 .976 .8 .8)"><use stroke="#000000aa" stroke-width="4" xlink:href="#E"/><use xlink:href="#E"/></g><g transform="matrix(.997 0 0 .997 -.2 -.3)"><path fill="url(#B)" d="M11.2 9.4H16v22.7h-4.8zm0 0"/><path fill="url(#C)" d="M34.9 32.1h-16v-3.3l5.7-5.6 3.3-3.6c.6-.6 1-1.2 1.2-1.8a4.6 4.6 0 00.3-1.8c0-.8-.2-1.5-.7-2s-1.2-.6-2-.6a6 6 0 00-2.7.6 13.3 13.3 0 00-2.6 1.7l-2.6-3c1.1-1 2-1.7 2.8-2s1.5-.7 2.4-1 1.8-.2 3-.2a9 9 0 013.7.7 5.6 5.6 0 013.6 5.3c0 1-.2 2-.6 3-.4.8-1 1.7-1.8 2.7s-2 2.3-4 4l-3 2.8v.2h10zm0 0"/><path fill="url(#B)" d="M42.5 20H44c1.5 0 2.6-.2 3.4-.8s1-1.4 1-2.6-.2-2-.8-2.4c-.7-.6-1.6-.8-3-.8h-2.1zm10.8-3.5c0 2.4-.7 4.3-2.3 5.6s-3.7 2-6.5 2h-2v8h-4.9V9.4H45c2.7 0 4.8.6 6.3 1.8s2.1 3 2.1 5.3"/></g><use fill="#ffc434" xlink:href="#F"/><use y="-10.9" fill="#60ab60" xlink:href="#F"/><use fill="#e15647" xlink:href="#G"/><g fill="#ffc434"><use y="-10.9" xlink:href="#G"/><use xlink:href="#H"/></g><g fill="#60ab60"><use y="-10.9" xlink:href="#H"/><use xlink:href="#I"/></g><use y="-10.9" fill="#e15647" xlink:href="#I"/><defs><path id="E" d="M8.3 4.3h47.4a4 4 0 014 4v47.4a4 4 0 01-4 4H8.3a4 4 0 01-4-4V8.3a4 4 0 014-4zm0 0"/><path id="F" d="M20.2 50.3a4.6 4.6 0 00-9.2 0 4.6 4.6 0 009.2 0"/><path id="G" d="M31.1 50.3a4.6 4.6 0 1 0-4.5 4.6 4.6 4.6 0 0 0 4.5-4.6"/><path id="H" d="M42 50.3a4.6 4.6 0 0 0-9.1 0 4.6 4.6 0 1 0 9.2 0"/><path id="I" d="M53 50.3a4.6 4.6 0 1 0-4.6 4.6 4.6 4.6 0 0 0 4.6-4.6"/></defs></svg>