<svg xmlns="http://www.w3.org/2000/svg" xmlns:xlink="http://www.w3.org/1999/xlink" viewBox="0 0 64 64"><defs/><linearGradient id="a" gradientUnits="userSpaceOnUse"><stop offset="0" stop-color="#999"/><stop offset="1" stop-color="#666"/></linearGradient><linearGradient id="c" x1="33.321" x2="33.321" y1=".41" y2="31.415" xlink:href="#a"/><linearGradient id="d" x1="33.19" x2="33.19" y1=".41" y2="31.415" xlink:href="#a"/><linearGradient id="b" x1="32.004" x2="32.004" y1="59.682" y2="4.318" gradientUnits="userSpaceOnUse"><stop offset="0" stop-color="#e6e6e6"/><stop offset="1" stop-color="#f5f5f5"/></linearGradient><g fill="url(#b)" transform="matrix(.976 0 0 .976 .779 .779)"><use stroke="#000000aa" stroke-width="4" xlink:href="#F"/><use xlink:href="#F"/></g><path fill="url(#c)" d="M11.21 9.444h4.81V32.1h-4.81zm0 0" transform="matrix(.997 0 0 .997 -.177 -.276)"/><path fill="url(#d)" d="M34.904 32.1H18.842v-3.285l5.753-5.658 3.352-3.54c.516-.659.915-1.26 1.145-1.83a4.6 4.6 0 00.344-1.744c0-.886-.258-1.569-.774-1.999s-1.173-.659-2.033-.659c-.888 0-1.748.203-2.605.601a13.253 13.253 0 00-2.636 1.686l-2.632-3.028c1.142-.945 2.061-1.601 2.805-2.002s1.545-.683 2.432-.886 1.862-.285 2.953-.285c1.431 0 2.691.258 3.805.773 1.091.515 1.948 1.23 2.577 2.143.603.913.919 1.971.919 3.141 0 1.03-.2 2.001-.574 2.887-.372.913-.943 1.83-1.718 2.77s-2.147 2.287-4.122 4.059l-2.953 2.715v.227h10.023zm0 0" transform="matrix(.997 0 0 .997 -.177 -.276)"/><path fill="url(#c)" d="M42.453 20.073h1.572c1.49 0 2.577-.288 3.324-.886s1.114-1.428 1.114-2.544-.313-1.971-.915-2.486c-.63-.542-1.576-.8-2.894-.8h-2.201zm10.88-3.602c0 2.428-.774 4.316-2.292 5.6s-3.692 1.943-6.527 1.943h-2.061v8.058h-4.814V9.416h7.247c2.749 0 4.838.597 6.269 1.771s2.15 2.943 2.15 5.284" transform="matrix(.997 0 0 .997 -.177 -.276)"/><use fill="#ffc434" xlink:href="#G"/><use y="-10.906" fill="#60ab60" xlink:href="#G"/><use fill="#e15647" xlink:href="#H"/><g fill="#ffc434"><use y="-10.906" xlink:href="#H"/><use xlink:href="#I"/></g><g fill="#60ab60"><use y="-10.906" xlink:href="#I"/><use xlink:href="#J"/></g><use y="-10.906" fill="#e15647" xlink:href="#J"/><defs><path id="F" d="M8.279 4.326h47.442a3.95 3.95 0 013.953 3.953v47.442a3.95 3.95 0 01-3.953 3.953H8.279a3.95 3.95 0 01-3.953-3.953V8.279a3.95 3.95 0 013.953-3.953zm0 0"/><path id="G" d="M20.188 50.294c0-2.536-2.058-4.591-4.594-4.591S11 47.758 11 50.294a4.59 4.59 0 009.189 0"/><path id="H" d="M31.146 50.294a4.596 4.596 0 00-9.191 0 4.591 4.591 0 004.597 4.588 4.59 4.59 0 004.594-4.588"/><path id="I" d="M42.07 50.294a4.596 4.596 0 00-9.192 0 4.591 4.591 0 004.598 4.588 4.59 4.59 0 004.594-4.588"/><path id="J" d="M52.994 50.294a4.596 4.596 0 00-9.191 0 4.59 4.59 0 004.597 4.588 4.59 4.59 0 004.594-4.588"/></defs></svg>