<svg xmlns="http://www.w3.org/2000/svg" xmlns:xlink="http://www.w3.org/1999/xlink" viewBox="0 0 64 64"><linearGradient id="A" gradientUnits="userSpaceOnUse"><stop offset="0" stop-color="#999"/><stop offset="1" stop-color="#666"/></linearGradient><linearGradient id="B" x1="33.321" x2="33.321" xlink:href="#A" y1=".41" y2="31.415"/><linearGradient id="C" x1="33.19" x2="33.19" xlink:href="#A" y1=".41" y2="31.415"/><linearGradient id="D" gradientUnits="userSpaceOnUse" x1="32.004" x2="32.004" y1="59.682" y2="4.318"><stop offset="0" stop-color="#e6e6e6"/><stop offset="1" stop-color="#f5f5f5"/></linearGradient><g fill="url(#D)" transform="matrix(.976 0 0 .976 .779 .779)"><use xlink:href="#F" stroke="#000000aa" stroke-width="4"/><use xlink:href="#F"/></g><g transform="matrix(.997 0 0 .997 -.177 -.276)"><path d="M11.21 9.444h4.81V32.1h-4.81zm0 0" fill="url(#B)"/><path d="M34.904 32.1H18.842v-3.285l5.753-5.658 3.352-3.54c.516-.659.915-1.26 1.145-1.83a4.6 4.6 0 0 0 .344-1.744c0-.886-.258-1.569-.774-1.999s-1.173-.659-2.033-.659c-.888 0-1.748.203-2.605.601-.943.456-1.828 1.023-2.636 1.686l-2.632-3.028c1.142-.945 2.061-1.601 2.805-2.002s1.545-.683 2.432-.886 1.862-.285 2.953-.285c1.431 0 2.691.258 3.805.773 1.091.515 1.948 1.23 2.577 2.143.603.913.919 1.971.919 3.141 0 1.03-.2 2.001-.574 2.887-.372.913-.943 1.83-1.718 2.77s-2.147 2.287-4.122 4.059l-2.953 2.715v.227h10.023zm0 0" fill="url(#C)"/><path d="M42.453 20.073h1.572c1.49 0 2.577-.288 3.324-.886s1.114-1.428 1.114-2.544-.313-1.971-.915-2.486c-.63-.542-1.576-.8-2.894-.8h-2.201zm10.88-3.602c0 2.428-.774 4.316-2.292 5.6s-3.692 1.943-6.527 1.943h-2.061v8.058h-4.814V9.416h7.247c2.749 0 4.838.597 6.269 1.771s2.15 2.943 2.15 5.284" fill="url(#B)"/></g><use xlink:href="#G" fill="#ffc434"/><use xlink:href="#G" y="-10.906" fill="#60ab60"/><use xlink:href="#H" fill="#e15647"/><g fill="#ffc434"><use xlink:href="#H" y="-10.906"/><use xlink:href="#I"/></g><g fill="#60ab60"><use xlink:href="#I" y="-10.906"/><use xlink:href="#J"/></g><use xlink:href="#J" y="-10.906" fill="#e15647"/><defs ><path id="F" d="M8.279 4.326h47.442a3.95 3.95 0 0 1 3.953 3.953v47.442a3.95 3.95 0 0 1-3.953 3.953H8.279a3.95 3.95 0 0 1-3.953-3.953V8.279a3.95 3.95 0 0 1 3.953-3.953zm0 0"/><path id="G" d="M20.188 50.294c0-2.536-2.058-4.591-4.594-4.591s-4.594 2.055-4.594 4.591a4.59 4.59 0 0 0 9.189 0"/><path id="H" d="M31.146 50.294c0-2.536-2.058-4.591-4.594-4.591s-4.597 2.055-4.597 4.591 2.058 4.588 4.597 4.588a4.59 4.59 0 0 0 4.594-4.588"/><path id="I" d="M42.07 50.294c0-2.536-2.058-4.591-4.594-4.591s-4.598 2.055-4.598 4.591 2.058 4.588 4.598 4.588a4.59 4.59 0 0 0 4.594-4.588"/><path id="J" d="M52.994 50.294c0-2.536-2.058-4.591-4.594-4.591s-4.597 2.055-4.597 4.591 2.057 4.588 4.597 4.588a4.59 4.59 0 0 0 4.594-4.588"/></defs></svg>