<svg xmlns="http://www.w3.org/2000/svg" xmlns:xlink="http://www.w3.org/1999/xlink" viewBox="0 0 64 64"><defs/><linearGradient id="a" gradientUnits="userSpaceOnUse"><stop offset="0" stop-color="#999"/><stop offset="1" stop-color="#666"/></linearGradient><linearGradient id="c" x1="33.32" x2="33.32" y1=".41" y2="31.41" xlink:href="#a"/><linearGradient id="d" x1="33.19" x2="33.19" y1=".41" y2="31.41" xlink:href="#a"/><linearGradient id="b" x1="32" x2="32" y1="59.68" y2="4.32" gradientUnits="userSpaceOnUse"><stop offset="0" stop-color="#e6e6e6"/><stop offset="1" stop-color="#f5f5f5"/></linearGradient><g fill="url(#b)" transform="matrix(.976 0 0 .976 .78 .78)"><use stroke="#000000aa" stroke-width="4" xlink:href="#F"/><use xlink:href="#F"/></g><path fill="url(#c)" d="M11.21 9.44h4.81V32.1h-4.81zm0 0" transform="matrix(.997 0 0 .997 -.18 -.28)"/><path fill="url(#d)" d="M34.9 32.1H18.84v-3.29l5.75-5.65 3.36-3.54c.51-.66.91-1.26 1.14-1.83a4.6 4.6 0 00.35-1.75c0-.88-.26-1.57-.78-2s-1.17-.66-2.03-.66c-.89 0-1.75.2-2.6.6a13.25 13.25 0 00-2.64 1.7l-2.63-3.04c1.14-.94 2.06-1.6 2.8-2s1.55-.68 2.43-.88 1.86-.29 2.96-.29c1.43 0 2.69.26 3.8.77a5.6 5.6 0 013.5 5.28c0 1.04-.2 2-.58 2.9-.37.9-.94 1.82-1.72 2.76s-2.14 2.3-4.12 4.06l-2.95 2.72v.23H34.9zm0 0" transform="matrix(.997 0 0 .997 -.18 -.28)"/><path fill="url(#c)" d="M42.45 20.07h1.58c1.49 0 2.57-.28 3.32-.88s1.11-1.43 1.11-2.55-.31-1.97-.91-2.48c-.63-.55-1.58-.8-2.9-.8h-2.2zm10.88-3.6c0 2.43-.77 4.32-2.29 5.6s-3.7 1.94-6.53 1.94h-2.06v8.06h-4.81V9.42h7.25c2.75 0 4.83.6 6.27 1.77s2.15 2.94 2.15 5.28" transform="matrix(.997 0 0 .997 -.18 -.28)"/><use fill="#ffc434" xlink:href="#G"/><use y="-10.91" fill="#60ab60" xlink:href="#G"/><use fill="#e15647" xlink:href="#H"/><g fill="#ffc434"><use y="-10.91" xlink:href="#H"/><use xlink:href="#I"/></g><g fill="#60ab60"><use y="-10.91" xlink:href="#I"/><use xlink:href="#J"/></g><use y="-10.91" fill="#e15647" xlink:href="#J"/><defs><path id="F" d="M8.28 4.33h47.44a3.95 3.95 0 013.95 3.95v47.44a3.95 3.95 0 01-3.95 3.95H8.28a3.95 3.95 0 01-3.95-3.95V8.28a3.95 3.95 0 013.95-3.95zm0 0"/><path id="G" d="M20.19 50.3a4.6 4.6 0 00-9.19 0 4.59 4.59 0 009.19 0"/><path id="H" d="M31.15 50.3a4.6 4.6 0 00-9.2 0 4.6 4.6 0 004.6 4.58 4.59 4.59 0 004.6-4.59"/><path id="I" d="M42.07 50.3a4.6 4.6 0 00-9.2 0 4.6 4.6 0 004.6 4.58 4.59 4.59 0 004.6-4.59"/><path id="J" d="M53 50.3a4.6 4.6 0 00-9.2 0 4.59 4.59 0 004.6 4.58A4.59 4.59 0 0053 50.3"/></defs></svg>