<svg xmlns="http://www.w3.org/2000/svg" xmlns:xlink="http://www.w3.org/1999/xlink" viewBox="0 0 64 64"><defs/><defs><linearGradient id="b" x1="32" x2="32" y1="59.68" y2="4.31" gradientUnits="userSpaceOnUse"><stop offset="0" stop-color="#e6e6e6"/><stop offset="1" stop-color="#f5f5f5"/></linearGradient><path id="a" d="M8.28 4.32h47.44a3.95 3.95 0 013.96 3.96v47.44a3.95 3.95 0 01-3.96 3.96H8.28a3.95 3.95 0 01-3.96-3.96V8.28a3.95 3.95 0 013.96-3.96zm0 0"/></defs><g transform="matrix(.9755 0 0 .9755 .78 .78)"><use fill="none" stroke="#000000aa" stroke-width="4" xlink:href="#a"/><use fill="url(#b)" xlink:href="#a"/></g><g transform="matrix(.85714 0 0 .85714 4.57 4.57)"><path fill="#74bbf0" d="M55.48 4H8.52C6.02 4 4 6.37 4 9.3v45.4C4 57.63 6.03 60 8.53 60h46.95c2.5 0 4.52-2.37 4.52-5.3V9.3C60 6.37 57.97 4 55.48 4z"/><path fill="#fff" d="M4 28.66a15.87 15.87 0 017.2-1.62c5.15 0 9.51 2.18 11.05 5.2a17.82 17.82 0 016.34-1.12c6.42 0 11.71 3.15 12.46 7.21 5.47.38 9.76 3.33 10 6.97l-13.57 8.67L4 54.15z"/><path fill="#6c994e" d="M19.36 47.82S10.49 45.3 4 50.94v6.5C4 58.85 5.52 60 7.4 60l13.5-7.7z"/><path d="M4 54.32c6.5-5.64 15.36-3.12 15.36-3.12l.56 1.65.97-.56-1.53-4.47S10.49 45.3 4 50.94z" opacity=".1"/><path fill="#7eb35b" d="M7.4 60c4.5-9.02 18.63-19.67 30.38-13.66l-3.9 9.48L23.92 60z"/><path d="M37.38 47.32l.4-.98C26.02 40.34 11.9 50.98 7.4 60h4.29c4.94-7.54 15.73-15.17 25.69-12.68z" opacity=".1"/><path fill="#a5eb78" d="M60 57.44V40.3C37.4 38.6 23.93 60 23.93 60H56.6c1.88 0 3.4-1.15 3.4-2.56z"/><path d="M60 42.46V40.3C37.4 38.6 23.93 60 23.93 60h4.6C32.49 54.86 43.6 42.67 60 42.46z" opacity=".1"/><circle cx="46.82" cy="17.17" r="9.99" fill="#ffe97a"/><path d="M39.94 20.29a10 10 0 0115.33-8.45A9.98 9.98 0 1041.5 25.62a9.94 9.94 0 01-1.55-5.33z" opacity=".1"/></g></svg>