<svg xmlns="http://www.w3.org/2000/svg" xmlns:xlink="http://www.w3.org/1999/xlink" viewBox="0 0 64 64"><defs><filter  height="1" width="1" x="0" y="0"><feColorMatrix in="SourceGraphic" values="0 0 0 0 1 0 0 0 0 1 0 0 0 0 1 0 0 0 1 0"/></filter><linearGradient id="B" x1="32" y1="59.678" x2="32" y2="4.314" gradientUnits="userSpaceOnUse"><stop offset="0" stop-color="#e6e6e6"/><stop offset="1" stop-color="#f5f5f5"/></linearGradient><path id="C" d="M8.276 4.322h47.448c2.185 0 3.954 1.769 3.954 3.954v47.448c0 2.185-1.769 3.954-3.954 3.954H8.276c-2.185 0-3.954-1.769-3.954-3.954V8.276c0-2.185 1.769-3.954 3.954-3.954zm0 0"/></defs><g transform="matrix(.975504 0 0 .975504 .783872 .783872)"><use xlink:href="#C" fill="none" stroke="#000000aa" stroke-width="4"/><use xlink:href="#C" fill="url(#B)"/></g><g transform="matrix(.857143 0 0 .857143 4.571429 4.571429)"><path d="M55.475 4H8.525C6.026 4 4 6.372 4 9.298v45.404C4 57.628 6.026 60 8.525 60h46.95C57.974 60 60 57.628 60 54.702V9.298C60 6.372 57.974 4 55.475 4z" fill="#74bbf0"/><path d="M4 28.663c1.981-1.02 4.482-1.628 7.2-1.628 5.147 0 9.511 2.183 11.049 5.208 1.861-.713 4.027-1.123 6.34-1.123 6.42 0 11.711 3.148 12.465 7.21 5.468.384 9.76 3.333 9.999 6.97L37.48 53.97l-33.478.178z" fill="#fff"/><path d="M19.358 47.818s-8.865-2.522-15.357 3.122v6.498c0 1.415 1.52 2.562 3.395 2.562l13.499-7.707z" fill="#6c994e"/><path d="M4.001 54.32c6.491-5.643 15.357-3.122 15.357-3.122l.566 1.649.971-.554-1.537-4.475s-8.865-2.522-15.357 3.122z" opacity=".1"/><path d="M7.396 60c4.505-9.024 18.629-19.669 30.383-13.659l-3.907 9.478L23.931 60z" fill="#7eb35b"/><path d="M37.375 47.32l.404-.98C26.025 40.331 11.901 50.976 7.396 60h4.29c4.945-7.545 15.735-15.167 25.689-12.68z" opacity=".1"/><path d="M60 57.438V40.297C37.391 38.6 23.931 60 23.931 60h32.674C58.48 60 60 58.853 60 57.438z" fill="#a5eb78"/><path d="M60 42.458v-2.162C37.391 38.6 23.931 60 23.931 60h4.598C32.493 54.856 43.597 42.673 60 42.458z" opacity=".1"/><circle cx="46.822" cy="17.174" fill="#ffe97a" r="9.995"/><path d="M39.943 20.288c0-5.519 4.474-9.993 9.993-9.993 1.962 0 3.791.568 5.335 1.545-1.771-2.799-4.891-4.659-8.448-4.659-5.519 0-9.993 4.474-9.993 9.993 0 3.557 1.86 6.677 4.659 8.448a9.94 9.94 0 0 1-1.545-5.335z" opacity=".1"/></g></svg>