<svg xmlns="http://www.w3.org/2000/svg" xmlns:xlink="http://www.w3.org/1999/xlink" viewBox="0 0 64 64"><linearGradient id="A" gradientUnits="userSpaceOnUse"><stop offset="0" stop-color="#fff"/><stop offset=".1" stop-color="#fdfdfd"/><stop offset=".2" stop-color="#fbfbfb"/><stop offset=".3" stop-color="#f8f8f8"/><stop offset=".4" stop-color="#f4f4f4"/><stop offset=".5" stop-color="#efefef"/><stop offset=".6" stop-color="#e8e8e8"/><stop offset=".7" stop-color="#dedede"/><stop offset=".8" stop-color="#cecece"/><stop offset=".9" stop-color="silver"/><stop offset="1" stop-color="#b3b3b3"/></linearGradient><linearGradient id="B" spreadMethod="reflect" x1="45.606" x2="45.606" xlink:href="#A" y1="37.282" y2="43.853"/><linearGradient id="C" gradientUnits="userSpaceOnUse" x1="6.024" x2="32.131" y1="31.364" y2="31.364"><stop offset="0" stop-color="#e92222"/><stop offset="1" stop-color="#c61010"/></linearGradient><linearGradient id="D" spreadMethod="reflect" x1="45.606" x2="45.606" xlink:href="#A" y1="16.029" y2="22.601"/><g transform="matrix(1.492 0 0 1.504 -15.722 -17.466)"><path d="M19.104 43.567c-3.214-2.673-5.213-6.466-5.213-10.683 0-.274.007-.551.062-.813a4.97 4.97 0 0 1 .063-.797c.03-.441.082-.722.167-.989a3.74 3.74 0 0 1 .152-.656c.106-.484.176-.751.285-1 .047-.148.106-.281.161-.406.285-.817.566-1.399.913-1.942a3.53 3.53 0 0 1 .23-.399 4.48 4.48 0 0 1 .234-.418l-.015.062c2.819-4.29 8.029-7.17 13.984-7.17h19.958v7.831H30.128c-.953 0-1.863.156-2.691.464 0-.039-.137.008-.262.078-.352.134-.692.294-1.004.493-.012-.039-.168.046-.296.16a4.57 4.57 0 0 0-.844.625c-.027-.036-.168.09-.285.238-1.308 1.199-2.105 2.845-2.105 4.654 0 3.704 3.362 6.709 7.482 6.709h19.963v7.82H30.128c-4.265 0-8.146-1.473-11.02-3.873zm0 0" fill="none" stroke="#000000aa" stroke-linejoin="round" stroke-miterlimit="79.84" stroke-width="2.67"/><path d="m42.008 47.441v-7.828h8.09v7.828zm0 0" fill="url(#B)"/><path d="M13.91 32.902c0-8.027 7.262-14.535 16.223-14.535h11.875v7.824H30.133c-4.133 0-7.488 3.004-7.488 6.711s3.363 6.711 7.488 6.711h11.875v7.828H30.133c-8.961 0-16.223-6.507-16.223-14.539zm0 0" fill="url(#C)"/><path d="m24.438 28.52c1.371-1.434 3.406-2.336 5.679-2.336h11.875v-3.895h-10.086c-3.957 0-7.195 2.746-7.468 6.231zm-10.543 4.371c0 8.027 7.265 14.535 16.222 14.535h11.875v-3.895h-10.086c-8.961 0-16.222-6.508-16.222-14.527 0-1.188.16-2.375.48-3.524-1.445 2.165-2.269 4.7-2.269 7.411zm0 0" fill="#af1616"/><path d="m42.008 26.195v-7.828h8.09v7.828zm0 0" fill="url(#D)"/></g></svg>