<svg xmlns="http://www.w3.org/2000/svg" xmlns:xlink="http://www.w3.org/1999/xlink" viewBox="0 0 64 64"><defs/><linearGradient id="a" gradientUnits="userSpaceOnUse"><stop offset="0" stop-color="#fff"/><stop offset=".1" stop-color="#fdfdfd"/><stop offset=".2" stop-color="#fbfbfb"/><stop offset=".3" stop-color="#f8f8f8"/><stop offset=".4" stop-color="#f4f4f4"/><stop offset=".5" stop-color="#efefef"/><stop offset=".6" stop-color="#e8e8e8"/><stop offset=".7" stop-color="#dedede"/><stop offset=".8" stop-color="#cecece"/><stop offset=".9" stop-color="silver"/><stop offset="1" stop-color="#b3b3b3"/></linearGradient><linearGradient id="b" x1="45.61" x2="45.61" y1="37.28" y2="43.85" spreadMethod="reflect" xlink:href="#a"/><linearGradient id="c" x1="6.02" x2="32.13" y1="31.36" y2="31.36" gradientUnits="userSpaceOnUse"><stop offset="0" stop-color="#e92222"/><stop offset="1" stop-color="#c61010"/></linearGradient><linearGradient id="d" x1="45.61" x2="45.61" y1="16.03" y2="22.6" spreadMethod="reflect" xlink:href="#a"/><path fill="none" stroke="#000000aa" stroke-linejoin="round" stroke-miterlimit="79.84" stroke-width="2.67" d="M19.1 43.57a13.88 13.88 0 01-5.2-10.69c0-.27 0-.55.05-.8a4.97 4.97 0 01.07-.8c.03-.45.08-.73.16-1a3.74 3.74 0 01.15-.65c.11-.49.18-.75.29-1 .05-.15.1-.28.16-.4.29-.82.57-1.4.91-1.95a3.53 3.53 0 01.23-.4 4.48 4.48 0 01.24-.42l-.02.07c2.82-4.3 8.03-7.17 13.99-7.17h19.95v7.83H30.13c-.95 0-1.86.15-2.7.46a5.5 5.5 0 00-1.27.57c0-.04-.16.05-.29.16a4.57 4.57 0 00-.84.63c-.03-.04-.17.09-.28.23a6.3 6.3 0 00-2.1 4.66c0 3.7 3.35 6.7 7.47 6.7H50.1v7.83H30.13c-4.27 0-8.15-1.47-11.02-3.87zm0 0" transform="matrix(1.492 0 0 1.504 -15.72 -17.47)"/><path fill="url(#b)" d="M42 47.44v-7.83h8.1v7.83zm0 0" transform="matrix(1.492 0 0 1.504 -15.72 -17.47)"/><path fill="url(#c)" d="M13.91 32.9c0-8.02 7.26-14.53 16.22-14.53h11.88v7.82H30.13c-4.13 0-7.49 3-7.49 6.71s3.37 6.71 7.5 6.71H42v7.83H30.13c-8.96 0-16.22-6.5-16.22-14.54zm0 0" transform="matrix(1.492 0 0 1.504 -15.72 -17.47)"/><path fill="#af1616" d="M20.74 25.43a11.64 11.64 0 018.47-3.52h17.72v-5.85H31.88c-5.9 0-10.73 4.13-11.14 9.37zM5 32c0 12.07 10.84 21.86 24.2 21.86h17.72V48H31.88c-13.37 0-24.2-9.78-24.2-21.84 0-1.8.24-3.58.71-5.3A20.08 20.08 0 005.01 32zm0 0"/><path fill="url(#d)" d="M42 26.2v-7.83h8.1v7.83zm0 0" transform="matrix(1.492 0 0 1.504 -15.72 -17.47)"/></svg>