<svg xmlns="http://www.w3.org/2000/svg" xmlns:xlink="http://www.w3.org/1999/xlink" viewBox="0 0 64 64"><linearGradient id="a" gradientUnits="userSpaceOnUse"><stop offset="0" stop-color="#fff"/><stop offset=".1" stop-color="#fdfdfd"/><stop offset=".2" stop-color="#fbfbfb"/><stop offset=".3" stop-color="#f8f8f8"/><stop offset=".4" stop-color="#f4f4f4"/><stop offset=".5" stop-color="#efefef"/><stop offset=".6" stop-color="#e8e8e8"/><stop offset=".7" stop-color="#dedede"/><stop offset=".8" stop-color="#cecece"/><stop offset=".9" stop-color="silver"/><stop offset="1" stop-color="#b3b3b3"/></linearGradient><linearGradient id="b" x1="45.6" x2="45.6" y1="37.3" y2="43.9" spreadMethod="reflect" xlink:href="#a"/><linearGradient id="c" x1="6" x2="32.1" y1="31.4" y2="31.4" gradientUnits="userSpaceOnUse"><stop offset="0" stop-color="#e92222"/><stop offset="1" stop-color="#c61010"/></linearGradient><linearGradient id="d" x1="45.6" x2="45.6" y1="16" y2="22.6" spreadMethod="reflect" xlink:href="#a"/><path fill="none" stroke="#000000aa" stroke-linejoin="round" stroke-miterlimit="79.8" stroke-width="2.7" d="M19.1 43.6a13.9 13.9 0 01-5.2-10.7V32a5 5 0 01.1-.8l.2-1a3.7 3.7 0 01.1-.7 5.3 5.3 0 01.5-1.4l.9-2a3.5 3.5 0 01.2-.3 4.5 4.5 0 01.3-.4h0c2.8-4.3 8-7.1 14-7.1H50v7.8H30c-1 0-1.8.1-2.7.5a5.5 5.5 0 00-1.2.5s-.2 0-.3.2a4.6 4.6 0 00-.9.6l-.2.2a6.3 6.3 0 00-2.2 4.7c0 3.7 3.4 6.7 7.5 6.7h20v7.8h-20c-4.2 0-8.1-1.4-11-3.8zm0 0" transform="matrix(1.492 0 0 1.504 -15.7 -17.5)"/><path fill="url(#b)" d="M42 47.4v-7.8h8.1v7.8zm0 0" transform="matrix(1.492 0 0 1.504 -15.7 -17.5)"/><path fill="url(#c)" d="M14 32.9c0-8 7.2-14.5 16.1-14.5h12v7.8H30c-4.1 0-7.5 3-7.5 6.7s3.4 6.7 7.5 6.7H42v7.8H30.1C21.1 47.4 14 41 14 33zm0 0" transform="matrix(1.492 0 0 1.504 -15.7 -17.5)"/><path fill="#af1616" d="M20.7 25.4a11.6 11.6 0 018.5-3.5H47v-5.8H32c-6 0-10.8 4-11.2 9.3zM5 32c0 12 10.8 21.9 24.2 21.9h17.7V48H32C18.5 48 7.7 38.2 7.7 26.2c0-1.8.2-3.6.7-5.3A20 20 0 005 32zm0 0"/><path fill="url(#d)" d="M42 26.2v-7.8h8.1v7.8zm0 0" transform="matrix(1.492 0 0 1.504 -15.7 -17.5)"/></svg>