<svg xmlns="http://www.w3.org/2000/svg" xmlns:xlink="http://www.w3.org/1999/xlink" viewBox="0 0 64 64"><defs><path id="reuse-0" fill-opacity=".1" d="M0 0h64v64H0z"/></defs><defs><linearGradient id="c" x1="32" x2="32" y1="59" y2="4.99" gradientUnits="userSpaceOnUse"><stop offset="0" stop-color="#e6e6e6"/><stop offset="1" stop-color="#f5f5f5"/></linearGradient><linearGradient id="f" x1="37.24" x2="37.24" y1="57.09" y2="6.59" gradientUnits="userSpaceOnUse"><stop offset="0" stop-color="#c30000"/><stop offset="1" stop-color="#f12300"/></linearGradient><clipPath id="d"><use xlink:href="#reuse-0"/></clipPath><filter id="a" width="1" height="1" x="0" y="0"><feColorMatrix in="SourceGraphic" values="0 0 0 0 1 0 0 0 0 1 0 0 0 0 1 0 0 0 1 0"/></filter><path id="b" d="M8.86 5h46.28A3.86 3.86 0 0159 8.86v46.28A3.86 3.86 0 0155.14 59H8.86A3.86 3.86 0 015 55.14V8.86A3.86 3.86 0 018.86 5zm0 0"/><mask id="e"><g filter="url(#a)"><use fill-opacity=".1" xlink:href="#reuse-0"/></g></mask></defs><use fill="none" stroke="#000000aa" stroke-width="4" xlink:href="#b"/><use fill="url(#c)" xlink:href="#b"/><g clip-path="url(#d)" mask="url(#e)" transform="translate(-.48 -.48) scale(1.015)"><path fill-rule="evenodd" d="M58.6 19.77C43.7 38.98 20.76 41.6 5.4 38.83v3.1c14.42 2.6 32.27 2.17 45.17-3.22a25.03 25.03 0 00-4.22 12.63c-.17 2.64 0 5.12.3 7.26h2.55c-.3-2.06-.49-4.5-.31-7.08.4-5.98 2.57-12.56 9.71-17.08zm0 0"/></g><path fill="url(#f)" fill-rule="evenodd" d="M38.56 6.35A81.63 81.63 0 0033.1 22.6c-.63.5-1.27.97-1.92 1.45-7.47 5.4-16.44 8.94-24.84 8.73v4c7.44.7 12.39 1.96 15.75 6.44 3.33 4.44 5.2 8.81 5.2 14.4h2.56c0-5.57-2.41-12.18-5.67-15.92-3.23-3.7-7.3-5.4-12.79-6.68 7.34-.98 14.63-4.25 20.91-8.73a81.47 81.47 0 00.72 31.32h17.7c-8.84-8.02-12.67-22.4-12.65-35.97 4.99-4.64 8.86-9.96 10.9-15.3h-2.73c-1.7 3.9-4.52 7.92-8.1 11.62.22-4.09.88-8 1.77-11.62zm0 0" transform="translate(-1.69 -1.69) scale(1.053)"/></svg>