<svg viewBox="0 0 64 64" xmlns="http://www.w3.org/2000/svg" xmlns:xlink="http://www.w3.org/1999/xlink"><defs><path id="a" d="m8.857 5h46.286a3.857 3.857 0 0 1 3.857 3.857v46.286a3.857 3.857 0 0 1 -3.857 3.857h-46.286a3.857 3.857 0 0 1 -3.857-3.857v-46.286a3.857 3.857 0 0 1 3.857-3.857zm0 0"/><linearGradient id="b" gradientUnits="userSpaceOnUse" x1="32" x2="32" y1="59" y2="4.992"><stop offset="0" stop-color="#e6e6e6"/><stop offset="1" stop-color="#f5f5f5"/></linearGradient><filter id="c" height="1" width="1" x="0" y="0"><feColorMatrix in="SourceGraphic" values="0 0 0 0 1 0 0 0 0 1 0 0 0 0 1 0 0 0 1 0"/></filter><mask id="d"><g filter="url(#c)"><path d="m0 0h64v64h-64z" fill-opacity=".1"/></g></mask><clipPath id="e"><path d="m0 0h64v64h-64z"/></clipPath><linearGradient id="f" gradientUnits="userSpaceOnUse" x1="37.239" x2="37.239" y1="57.086" y2="6.591"><stop offset="0" stop-color="#c30000"/><stop offset="1" stop-color="#f12300"/></linearGradient></defs><use fill="none" stroke="#000000aa" stroke-width="4" xlink:href="#a"/><use fill="url(#b)" xlink:href="#a"/><g transform="matrix(1.053 0 0 1.053 -1.687 -1.687)"><g clip-path="url(#e)" mask="url(#d)" transform="matrix(.964 0 0 .964 1.143 1.143)"><path d="m58.602 19.773c-14.895 19.207-37.84 21.829-53.2 19.059v3.106c14.422 2.601 32.266 2.164 45.164-3.227-2.777 4.023-3.941 8.527-4.214 12.629-.176 2.637.003 5.121.296 7.262h2.555c-.305-2.067-.488-4.504-.316-7.086.398-5.977 2.574-12.555 9.715-17.078zm0 0" fill-rule="evenodd"/></g><path d="m38.558 6.349c-2.413 5.305-4.239 10.764-5.447 16.264-.628.501-1.268.968-1.924 1.442-7.47 5.407-16.434 8.942-24.837 8.735v4.002c7.436.705 12.387 1.961 15.753 6.442 3.332 4.432 5.196 8.81 5.196 14.39h2.564c0-5.561-2.413-12.172-5.678-15.911-3.222-3.697-7.296-5.411-12.785-6.683 7.341-.982 14.634-4.247 20.91-8.73-1.811 10.511-1.517 21.185.719 31.324h17.706c-8.848-8.02-12.672-22.402-12.658-35.97 4.989-4.646 8.867-9.969 10.896-15.304h-2.723c-1.691 3.908-4.518 7.918-8.095 11.619.219-4.088.87-8.004 1.762-11.619zm0 0" fill="url(#f)" fill-rule="evenodd"/></g></svg>