<svg xmlns="http://www.w3.org/2000/svg" xmlns:xlink="http://www.w3.org/1999/xlink" viewBox="0 0 32 32"><defs><radialGradient id="d" cx="27.9" cy="29.1" r="10.2" fy="24.9" gradientTransform="matrix(1.17 0 0 1.33 -79.1 -12.2)" gradientUnits="userSpaceOnUse"><stop offset="0" stop-color="#fff"/><stop offset="1" stop-color="#fff" stop-opacity="0"/></radialGradient><radialGradient id="f" cx="27.9" cy="29.1" r="10.2" fy="24.9" gradientTransform="matrix(1.17 0 0 1.33 -79.1 -12.2)" gradientUnits="userSpaceOnUse"><stop offset="0" stop-color="#fff"/><stop offset="1" stop-color="#fff" stop-opacity="0"/></radialGradient><radialGradient id="a" cx="91.8" cy="125.5" r="18.7" gradientTransform="matrix(3.3062 0 0 5.1179 -287.6 -622.9)" gradientUnits="userSpaceOnUse"><stop offset="0" stop-color="#f0f"/><stop offset="1" stop-color="#fa0080"/></radialGradient><radialGradient id="b" xlink:href="#a"/><clipPath id="c"><path fill="url(#b)" stroke-linecap="round" stroke-linejoin="round" stroke-width=".6" d="M10.5 3a7.1 7.1 0 00-6.8 4.3 10 10 0 00.6 8.2c1.8 3 4.3 6 6.4 8.4 1.7 2 3.3 3.5 5.2 6 1.9-2.4 3.7-4.2 5.2-6a55 55 0 006.4-8.4 9.6 9.6 0 00.6-8.1A7.1 7.1 0 0021.4 3a1.4 1.4 0 00-.1 0 8 8 0 00-5.4 2.8A8.1 8.1 0 0010.6 3a1.4 1.4 0 00-.2 0z"/></clipPath><filter id="e" width="1.3" height="1.3" x="-.2" y="-.2" color-interpolation-filters="sRGB"><feGaussianBlur stdDeviation="1.3"/></filter></defs><path fill="url(#a)" d="M10.5 3a7.1 7.1 0 00-6.8 4.3 10 10 0 00.6 8.2c1.8 3 4.3 6 6.4 8.4 1.7 2 3.3 3.5 5.2 6 1.9-2.4 3.7-4.2 5.2-6a55 55 0 006.4-8.4 9.6 9.6 0 00.6-8.1A7.1 7.1 0 0021.4 3a1.4 1.4 0 00-.1 0 8 8 0 00-5.4 2.8A8.1 8.1 0 0010.6 3a1.4 1.4 0 00-.2 0z"/><g clip-path="url(#c)"><ellipse cx="-46.6" cy="29.2" fill="url(#d)" filter="url(#e)" opacity=".8" rx="9.7" ry="10.2" transform="translate(44.5 -10.6) scale(.7503)"/><ellipse cx="-46.6" cy="29.2" fill="url(#f)" filter="url(#e)" opacity=".8" rx="9.7" ry="10.2" transform="translate(57.1 -10.6) scale(.7503)"/></g><path fill="none" stroke="#00000077" stroke-linejoin="round" stroke-width="1.8" d="M3.7 7.3a10 10 0 00.6 8.2 1.4 1.4 0 000 0c1.8 3 4.3 6 6.4 8.4 1.7 2 3.3 3.5 5.2 6 1.9-2.4 3.7-4.2 5.2-6a55 55 0 006.4-8.4 1.4 1.4 0 000 0 9.7 9.7 0 00.6-8.1A6.7 6.7 0 0022 3a8 8 0 00-6 2.8 8 8 0 00-6-2.7 6.7 6.7 0 00-6.3 4.3z"/></svg>