<svg viewBox="0 0 32 32" xmlns="http://www.w3.org/2000/svg" xmlns:xlink="http://www.w3.org/1999/xlink"><radialGradient id="a" cx="91.82" cy="125.45" gradientTransform="matrix(5.42 0 0 8.39 -460.67 -1008.89)" gradientUnits="userSpaceOnUse" r="18.71"><stop offset="0" stop-color="#f0f"/><stop offset="1" stop-color="#fa0080"/></radialGradient><filter id="b" color-interpolation-filters="sRGB" height="1.31" width="1.33" x="-.16" y="-.16"><feGaussianBlur stdDeviation="1.327"/></filter><radialGradient id="c" cx="27.93" cy="29.05" fy="24.87" gradientTransform="matrix(1.17 0 0 1.33 -79.14 -12.23)" gradientUnits="userSpaceOnUse" r="10.16"><stop offset="0" stop-color="#fff"/><stop offset="1" stop-color="#fff" stop-opacity="0"/></radialGradient><g stroke-linecap="round" stroke-linejoin="round" transform="matrix(.61 0 0 .61 -6.64 -7.44)"><path d="m28.04 17.2c-5.36 0-9.4 3.01-11.07 7.06-1.67 4.04-1.28 8.94.99 13.3a2.35 2.35 0 0 0 .04.08c2.85 4.99 6.97 9.73 10.44 13.72 2.69 3.19 5.35 5.71 8.56 9.82 3-3.95 5.95-6.82 8.56-9.82 3.47-3.99 7.59-8.73 10.44-13.72a2.35 2.35 0 0 0 .04-.08c2.27-4.36 2.66-9.26.99-13.3s-5.71-7.06-11.07-7.06a2.36 2.36 0 0 0 -.17.01c-3.67.25-6.58 2.27-8.79 4.66-2.21-2.39-5.12-4.41-8.79-4.67a2.34 2.34 0 0 0 -.26.09z" fill="url(#a)"/><g fill="url(#c)" opacity=".75"><ellipse cx="-46.62" cy="29.21" filter="url(#b)" opacity="1" rx="9.71" ry="10.16" transform="matrix(-1.23 0 0 1.23 -9.5 -5.1)"/><ellipse cx="-46.62" cy="29.21" filter="url(#b)" opacity="1" rx="9.71" ry="10.16" transform="matrix(1.23 0 0 1.23 83.87 -5.1)"/></g><path d="m16.97 24.25c-1.67 4.04-1.28 8.94.99 13.3a2.35 2.35 0 0 0 .04.09c2.85 4.99 6.97 9.73 10.44 13.72 2.69 3.19 5.35 5.71 8.56 9.82 3-3.95 5.95-6.82 8.56-9.82 3.47-3.99 7.59-8.73 10.44-13.72a2.35 2.35 0 0 0 .04-.08c2.27-4.37 2.67-9.26.99-13.31-1.67-4.04-5.71-7.05-10.31-6.92-4.6.14-7.51 2.15-9.72 4.54-2.21-2.39-5.12-4.41-9.72-4.54s-8.64 2.88-10.31 6.92z" fill="none" stroke="#000000aa" stroke-width="3"/></g></svg>