<svg xmlns="http://www.w3.org/2000/svg" xmlns:xlink="http://www.w3.org/1999/xlink" viewBox="0 0 32 32"><defs/><defs><radialGradient id="g" cx="27.93" cy="29.05" r="10.16" fy="24.87" gradientTransform="matrix(1.17 0 0 1.33 -79.14 -12.23)" gradientUnits="userSpaceOnUse" xlink:href="#a"/><radialGradient id="i" cx="27.93" cy="29.05" r="10.16" fy="24.87" gradientTransform="matrix(1.17 0 0 1.33 -79.14 -12.23)" gradientUnits="userSpaceOnUse" xlink:href="#b"/><radialGradient id="b" cx="27.93" cy="29.05" r="10.16" fy="24.87" gradientTransform="matrix(1.17 0 0 1.33 -79.14 -12.23)" gradientUnits="userSpaceOnUse"><stop offset="0" stop-color="#fff"/><stop offset="1" stop-color="#fff" stop-opacity="0"/></radialGradient><radialGradient id="c" cx="91.82" cy="125.45" r="18.71" gradientTransform="matrix(3.3062 0 0 5.1179 -287.65 -622.86)" gradientUnits="userSpaceOnUse"><stop offset="0" stop-color="#f0f"/><stop offset="1" stop-color="#fa0080"/></radialGradient><radialGradient id="d" cx="91.82" cy="125.45" r="18.71" gradientTransform="matrix(3.3062 0 0 5.1179 -287.65 -622.86)" gradientUnits="userSpaceOnUse" xlink:href="#c"/><clipPath id="f" clipPathUnits="userSpaceOnUse"><path fill="url(#d)" stroke-linecap="round" stroke-linejoin="round" stroke-width=".61" d="M10.46 3.05a7.1 7.1 0 00-6.75 4.3c-1.02 2.47-.78 5.46.6 8.12a1.43 1.43 0 00.03.05c1.74 3.04 4.25 5.94 6.37 8.37 1.64 1.95 3.26 3.48 5.22 5.99 1.83-2.41 3.63-4.16 5.22-5.99 2.12-2.43 4.63-5.33 6.37-8.37a1.43 1.43 0 00.02-.05c1.39-2.66 1.63-5.65.6-8.11a7.1 7.1 0 00-6.74-4.3 1.44 1.44 0 00-.1 0c-2.25.15-4.02 1.38-5.37 2.84-1.35-1.46-3.12-2.69-5.36-2.85a1.43 1.43 0 00-.16.06z"/></clipPath><filter id="j" width="1.33" height="1.31" x="-.16" y="-.16" color-interpolation-filters="sRGB"><feGaussianBlur stdDeviation="1.33"/></filter></defs><radialGradient id="e" cx="91.82" cy="125.45" r="18.71" gradientTransform="matrix(3.3062 0 0 5.1179 -287.65 -622.86)" gradientUnits="userSpaceOnUse"><stop offset="0" stop-color="#f0f"/><stop offset="1" stop-color="#fa0080"/></radialGradient><filter id="h" width="1.33" height="1.31" x="-.16" y="-.16" color-interpolation-filters="sRGB"><feGaussianBlur stdDeviation="1.33"/></filter><radialGradient id="a" cx="27.93" cy="29.05" r="10.16" fy="24.87" gradientTransform="matrix(1.17 0 0 1.33 -79.14 -12.23)" gradientUnits="userSpaceOnUse"><stop offset="0" stop-color="#fff"/><stop offset="1" stop-color="#fff" stop-opacity="0"/></radialGradient><path fill="url(#e)" d="M10.46 3.05a7.1 7.1 0 00-6.75 4.3c-1.02 2.47-.78 5.46.6 8.12a1.43 1.43 0 00.03.05c1.74 3.04 4.25 5.94 6.37 8.37 1.64 1.95 3.26 3.48 5.22 5.99 1.83-2.41 3.63-4.16 5.22-5.99 2.12-2.43 4.63-5.33 6.37-8.37a1.43 1.43 0 00.02-.05c1.39-2.66 1.63-5.65.6-8.11a7.1 7.1 0 00-6.74-4.3 1.44 1.44 0 00-.1 0c-2.25.15-4.02 1.38-5.37 2.84-1.35-1.46-3.12-2.69-5.36-2.85a1.43 1.43 0 00-.16.06z"/><g clip-path="url(#f)"><ellipse cx="-46.62" cy="29.21" fill="url(#g)" filter="url(#h)" opacity=".75" rx="9.71" ry="10.16" transform="translate(44.52 -10.55) scale(.7503)"/><ellipse cx="-46.62" cy="29.21" fill="url(#i)" filter="url(#j)" opacity=".75" rx="9.71" ry="10.16" transform="translate(57.1 -10.55) scale(.7503)"/></g><path fill="none" stroke="#00000077" stroke-linecap="round" stroke-linejoin="round" stroke-width="1.83" d="M3.71 7.35c-1.02 2.47-.78 5.46.6 8.12a1.43 1.43 0 00.03.05c1.74 3.04 4.25 5.94 6.37 8.37 1.64 1.95 3.26 3.48 5.22 5.99 1.83-2.41 3.63-4.16 5.22-5.99 2.12-2.43 4.63-5.33 6.37-8.37a1.43 1.43 0 00.02-.05c1.39-2.66 1.63-5.65.6-8.12a6.73 6.73 0 00-6.28-4.22 7.97 7.97 0 00-5.93 2.77A7.95 7.95 0 0010 3.13a6.74 6.74 0 00-6.29 4.22z"/></svg>