<svg xmlns="http://www.w3.org/2000/svg" xmlns:xlink="http://www.w3.org/1999/xlink" viewBox="0 0 32 32"><defs/><defs><radialGradient id="h" cx="27.93" cy="29.05" r="10.16" fy="24.87" gradientTransform="matrix(1.17 0 0 1.33 -79.14 -12.23)" gradientUnits="userSpaceOnUse" xlink:href="#a"/><radialGradient id="j" cx="27.93" cy="29.05" r="10.16" fy="24.87" gradientTransform="matrix(1.17 0 0 1.33 -79.14 -12.23)" gradientUnits="userSpaceOnUse" xlink:href="#b"/><radialGradient id="b" cx="27.93" cy="29.05" r="10.16" fy="24.87" gradientTransform="matrix(1.17 0 0 1.33 -79.14 -12.23)" gradientUnits="userSpaceOnUse"><stop offset="0" stop-color="#fff"/><stop offset="1" stop-color="#fff" stop-opacity="0"/></radialGradient><radialGradient id="d" cx="91.82" cy="125.45" r="18.71" gradientTransform="matrix(3.3062 0 0 5.1179 -287.649 -622.863)" gradientUnits="userSpaceOnUse"><stop offset="0" stop-color="#f0f"/><stop offset="1" stop-color="#fa0080"/></radialGradient><radialGradient id="c" cx="91.82" cy="125.45" r="18.71" gradientTransform="matrix(3.3062 0 0 5.1179 -287.649 -622.863)" gradientUnits="userSpaceOnUse" xlink:href="#d"/><clipPath id="f" clipPathUnits="userSpaceOnUse"><path fill="url(#c)" stroke-linecap="round" stroke-linejoin="round" stroke-width=".61" d="M10.464 3.052c-3.27 0-5.734 1.836-6.752 4.307-1.019 2.464-.781 5.453.604 8.113a1.433 1.433 0 00.024.048c1.738 3.044 4.252 5.936 6.368 8.37 1.641 1.946 3.264 3.483 5.222 5.99 1.83-2.41 3.63-4.16 5.222-5.99 2.116-2.434 4.63-5.326 6.368-8.37a1.433 1.433 0 00.024-.048c1.385-2.66 1.623-5.649.604-8.113-1.018-2.465-3.483-4.307-6.752-4.307a1.44 1.44 0 00-.104.006c-2.239.153-4.014 1.385-5.362 2.843-1.348-1.458-3.123-2.69-5.362-2.849a1.427 1.427 0 00-.159.055z"/></clipPath><filter id="i" width="1.328" height="1.313" x="-.164" y="-.157" color-interpolation-filters="sRGB"><feGaussianBlur stdDeviation="1.327"/></filter></defs><radialGradient id="e" cx="91.82" cy="125.45" r="18.71" gradientTransform="matrix(3.3062 0 0 5.1179 -287.649 -622.863)" gradientUnits="userSpaceOnUse"><stop offset="0" stop-color="#f0f"/><stop offset="1" stop-color="#fa0080"/></radialGradient><filter id="g" width="1.328" height="1.313" x="-.164" y="-.157" color-interpolation-filters="sRGB"><feGaussianBlur stdDeviation="1.327"/></filter><radialGradient id="a" cx="27.93" cy="29.05" r="10.16" fy="24.87" gradientTransform="matrix(1.17 0 0 1.33 -79.14 -12.23)" gradientUnits="userSpaceOnUse"><stop offset="0" stop-color="#fff"/><stop offset="1" stop-color="#fff" stop-opacity="0"/></radialGradient><path fill="url(#e)" d="M10.464 3.052c-3.27 0-5.734 1.836-6.752 4.307-1.019 2.464-.781 5.453.604 8.113a1.433 1.433 0 00.024.048c1.738 3.044 4.252 5.936 6.368 8.37 1.641 1.946 3.264 3.483 5.222 5.99 1.83-2.41 3.63-4.16 5.222-5.99 2.116-2.434 4.63-5.326 6.368-8.37a1.433 1.433 0 00.024-.048c1.385-2.66 1.623-5.649.604-8.113-1.018-2.465-3.483-4.307-6.752-4.307a1.44 1.44 0 00-.104.006c-2.239.153-4.014 1.385-5.362 2.843-1.348-1.458-3.123-2.69-5.362-2.849a1.427 1.427 0 00-.159.055z"/><g clip-path="url(#f)"><ellipse cx="-46.62" cy="29.21" fill="url(#h)" filter="url(#g)" opacity=".75" rx="9.71" ry="10.16" transform="translate(44.52 -10.551) scale(.7503)"/><ellipse cx="-46.62" cy="29.21" fill="url(#j)" filter="url(#i)" opacity=".75" rx="9.71" ry="10.16" transform="translate(57.094 -10.551) scale(.7503)"/></g><path fill="none" stroke="#00000077" stroke-linecap="round" stroke-linejoin="round" stroke-width="1.83" d="M3.712 7.353c-1.019 2.464-.781 5.453.604 8.113a1.433 1.433 0 00.024.054c1.738 3.044 4.252 5.936 6.368 8.37 1.641 1.946 3.264 3.483 5.222 5.99 1.83-2.41 3.63-4.16 5.222-5.99 2.116-2.434 4.63-5.326 6.368-8.37a1.433 1.433 0 00.024-.048c1.385-2.666 1.63-5.649.604-8.12-1.018-2.464-3.483-4.3-6.289-4.22-2.806.085-4.58 1.31-5.929 2.769-1.348-1.458-3.123-2.69-5.93-2.77-2.805-.079-5.27 1.757-6.288 4.221z"/></svg>