<svg xmlns="http://www.w3.org/2000/svg" xmlns:xlink="http://www.w3.org/1999/xlink" viewBox="0 0 64 64"><style><![CDATA[.B{filter:url(#G)}.C{fill-opacity:.504}.D{fill-opacity:.3}]]></style><defs><path id="A" d="M0 0h64v64H0z"/><path id="B" d="m12.668 27.332c0 .922-.746 1.668-1.668 1.668s-1.668-.746-1.668-1.668.746-1.664 1.668-1.664 1.668.746 1.668 1.664zm0 0"/><path id="C" d="M42 30a.67.67 0 0 1-.668.668c-.367 0-.664-.301-.664-.668s.297-.668.664-.668A.67.67 0 0 1 42 30zm0 0"/><path id="D" d="M37.332 32.668a1 1 0 1 1-1-1c.555 0 1 .445 1 1zm0 0"/><linearGradient id="E" gradientUnits="userSpaceOnUse" x1="32.014" x2="32.014" y1="59.692" y2="4.328"><stop offset="0" stop-color="#e6e6e6"/><stop offset="1" stop-color="#f5f5f5"/></linearGradient><linearGradient id="F" gradientUnits="userSpaceOnUse" spreadMethod="reflect" x1="32.023" x2="32.023" y1="32.014" y2="47.83"><stop offset="0" stop-color="#5184cf"/><stop offset="1" stop-color="#123a76"/></linearGradient><filter id="G" height="1" width="1" x="0" y="0"><feColorMatrix in="SourceGraphic" values="0 0 0 0 1 0 0 0 0 1 0 0 0 0 1 0 0 0 1 0"/></filter><mask id="H"><g class="B"><path d="M0 0h64v64H0z" fill-opacity=".4"/></g></mask><clipPath id="I"><use xlink:href="#A"/></clipPath><mask id="J"><g class="B"><path d="M0 0h64v64H0z" class="C"/></g></mask><clipPath id="K"><use xlink:href="#A"/></clipPath><mask id="L"><g class="B"><path d="M0 0h64v64H0z" class="D"/></g></mask><clipPath id="M"><use xlink:href="#A"/></clipPath><mask id="N"><g class="B"><path d="M0 0h64v64H0z" class="C"/></g></mask><clipPath id="O"><use xlink:href="#A"/></clipPath><mask id="P"><g class="B"><path d="M0 0h64v64H0z" class="C"/></g></mask><clipPath id="Q"><use xlink:href="#A"/></clipPath><mask id="R"><g class="B"><path d="M0 0h64v64H0z" class="C"/></g></mask><clipPath id="S"><use xlink:href="#A"/></clipPath><mask id="T"><g class="B"><path d="M0 0h64v64H0z" class="D"/></g></mask><clipPath id="U"><use xlink:href="#A"/></clipPath><mask id="V"><g class="B"><path d="M0 0h64v64H0z" class="C"/></g></mask><clipPath id="W"><use xlink:href="#A"/></clipPath><mask id="X"><g class="B"><path d="M0 0h64v64H0z" class="C"/></g></mask><clipPath id="Y"><use xlink:href="#A"/></clipPath><mask id="Z"><g class="B"><path d="M0 0h64v64H0z" class="C"/></g></mask><clipPath id="a"><use xlink:href="#A"/></clipPath><mask id="b"><g class="B"><path d="M0 0h64v64H0z" class="D"/></g></mask><clipPath id="c"><use xlink:href="#A"/></clipPath><mask id="d"><g class="B"><path d="M0 0h64v64H0z" class="C"/></g></mask><clipPath id="e"><use xlink:href="#A"/></clipPath><mask id="f"><g class="B"><path d="M0 0h64v64H0z" class="C"/></g></mask><clipPath id="g"><use xlink:href="#A"/></clipPath><mask id="h"><g class="B"><path d="M0 0h64v64H0z" class="C"/></g></mask><clipPath id="i"><use xlink:href="#A"/></clipPath><mask id="j"><g class="B"><path d="M0 0h64v64H0z" class="C"/></g></mask><clipPath id="k"><use xlink:href="#A"/></clipPath><mask id="l"><g class="B"><path d="M0 0h64v64H0z" class="C"/></g></mask><clipPath id="m"><use xlink:href="#A"/></clipPath><mask id="n"><g class="B"><path d="M0 0h64v64H0z" class="C"/></g></mask><clipPath id="o"><use xlink:href="#A"/></clipPath><mask id="p"><g class="B"><path d="M0 0h64v64H0z" class="C"/></g></mask><clipPath id="q"><use xlink:href="#A"/></clipPath><mask id="r"><g class="B"><path d="M0 0h64v64H0z" class="C"/></g></mask><clipPath id="s"><use xlink:href="#A"/></clipPath><mask id="t"><g class="B"><path d="M0 0h64v64H0z" class="C"/></g></mask><clipPath id="u"><use xlink:href="#A"/></clipPath><mask id="v"><g class="B"><path d="M0 0h64v64H0z" class="C"/></g></mask><clipPath id="w"><use xlink:href="#A"/></clipPath><mask id="x"><g class="B"><path d="M0 0h64v64H0z" class="C"/></g></mask><clipPath id="y"><use xlink:href="#A"/></clipPath><mask id="z"><g class="B"><path d="M0 0h64v64H0z" class="C"/></g></mask><clipPath id="AA"><use xlink:href="#A"/></clipPath><mask id="AB"><g class="B"><path d="M0 0h64v64H0z" class="D"/></g></mask><linearGradient id="AC" gradientUnits="userSpaceOnUse"><stop offset="0" stop-color="#fff"/><stop offset="1" stop-color="#fff" stop-opacity="0"/></linearGradient><radialGradient id="AD" cx="33.353" cy="29.346" r="2.668" xlink:href="#AC"/><clipPath id="AE"><use xlink:href="#A"/></clipPath><mask id="AF"><g class="B"><path d="M0 0h64v64H0z" class="D"/></g></mask><radialGradient id="AG" cx="22.687" cy="34.013" r="2.668" xlink:href="#AC"/><clipPath id="AH"><use xlink:href="#A"/></clipPath><mask id="AI"><g class="B"><path d="M0 0h64v64H0z" class="C"/></g></mask><clipPath id="AJ"><use xlink:href="#A"/></clipPath><path id="AK" d="m43.332 34c0 .922-.746 1.668-1.664 1.668s-1.668-.746-1.668-1.668.746-1.668 1.668-1.668 1.664.746 1.664 1.668zm0 0"/><path id="AL" d="M12 33.332c0 .371-.297.668-.668.668a.66.66 0 0 1 0-1.332c.367 0 .668.297.668.664zm0 0"/><path id="AM" d="M21.332 35.332c0 .371-.297.668-.664.668a.67.67 0 0 1-.668-.668.66.66 0 0 1 1.332 0zm0 0"/><path id="AN" d="m46.668 32c0 .367-.301.668-.668.668s-.668-.301-.668-.668.301-.668.668-.668.668.301.668.668zm0 0"/></defs><path d="M8.29 4.336h47.448c2.185 0 3.954 1.769 3.954 3.954v47.448c0 2.185-1.769 3.954-3.954 3.954H8.29c-2.185 0-3.954-1.769-3.954-3.954V8.29c0-2.185 1.769-3.954 3.954-3.954zm0 0" fill="url(#E)" stroke="#00000077" stroke-width="2.669"/><path d="M10.596 13.554H53.42v36.888H10.596zm0 0" fill="url(#F)"/><g transform="matrix(.892 0 0 .988 3.459 .382)" fill="#fff"><g clip-path="url(#I)" mask="url(#H)"><path d="m40.668 25c0 .922-.746 1.668-1.668 1.668s-1.668-.746-1.668-1.668.746-1.668 1.668-1.668 1.668.746 1.668 1.668zm0 0"/></g><g clip-path="url(#K)" mask="url(#J)"><path d="m18.332 31.668c0 .918-.746 1.664-1.664 1.664s-1.668-.746-1.668-1.664.746-1.668 1.668-1.668 1.664.746 1.664 1.668zm0 0"/></g><g clip-path="url(#M)" mask="url(#L)"><use xlink:href="#AK"/></g><g clip-path="url(#O)" mask="url(#N)"><path d="m52 30.668c0 .918-.746 1.664-1.668 1.664s-1.664-.746-1.664-1.664.746-1.668 1.664-1.668 1.668.746 1.668 1.668zm0 0"/></g><g clip-path="url(#Q)" mask="url(#P)"><path d="m29.332 30c0 .922-.746 1.668-1.664 1.668s-1.668-.746-1.668-1.668.746-1.668 1.668-1.668 1.664.746 1.664 1.668zm0 0"/></g><g clip-path="url(#S)" mask="url(#R)"><use xlink:href="#B"/></g><g clip-path="url(#U)" mask="url(#T)"><use xlink:href="#B"/></g><g clip-path="url(#W)" mask="url(#V)"><use xlink:href="#AL"/></g><g clip-path="url(#Y)" mask="url(#X)"><use xlink:href="#AM"/></g><g clip-path="url(#a)" mask="url(#Z)"><path d="M22.668 32.668c0 .367-.301.664-.668.664s-.668-.297-.668-.664A.67.67 0 0 1 22 32a.67.67 0 0 1 .668.668zm0 0"/></g><g clip-path="url(#c)" mask="url(#b)"><path d="M27.332 34c0 .367-.297.668-.664.668A.67.67 0 0 1 26 34a.67.67 0 0 1 .668-.668c.367 0 .664.301.664.668zm0 0"/></g><g clip-path="url(#e)" mask="url(#d)"><path d="m35.332 28.668c0 .367-.297.664-.664.664s-.668-.297-.668-.664.297-.668.668-.668.664.297.664.668zm0 0"/></g><g clip-path="url(#g)" mask="url(#f)"><use xlink:href="#AN"/></g><g clip-path="url(#i)" mask="url(#h)"><path d="M48 29.332c0 .371-.297.668-.668.668a.66.66 0 0 1 0-1.332c.367 0 .668.297.668.664zm0 0"/></g><g clip-path="url(#k)" mask="url(#j)"><path d="M53.332 25.332c0 .371-.297.668-.664.668a.67.67 0 0 1-.668-.668.66.66 0 0 1 1.332 0zm0 0"/></g><g clip-path="url(#m)" mask="url(#l)"><use xlink:href="#C"/></g><g clip-path="url(#o)" mask="url(#n)"><use xlink:href="#C"/></g><g clip-path="url(#q)" mask="url(#p)"><path d="M23.668 29a1 1 0 1 1-2 0 1 1 0 1 1 2 0zm0 0"/></g><g clip-path="url(#s)" mask="url(#r)"><path d="M20 27.332a1 1 0 1 1-2 0 1 1 0 1 1 2 0zm0 0"/></g><g clip-path="url(#u)" mask="url(#t)"><path d="M35 35.668a1 1 0 1 1-2 0 1 1 0 1 1 2 0zm0 0"/></g><g clip-path="url(#w)" mask="url(#v)"><use xlink:href="#D"/></g><g clip-path="url(#y)" mask="url(#x)"><use xlink:href="#D"/></g><g clip-path="url(#AA)" mask="url(#z)"><path d="M49.668 34.332a1 1 0 0 1-1 1c-.555 0-1-.445-1-1a1 1 0 1 1 2 0zm0 0"/></g></g><g transform="matrix(.892 0 0 .988 3.459 .382)"><g clip-path="url(#AE)" mask="url(#AB)"><path d="m36 29.332c0 1.473-1.195 2.668-2.668 2.668s-2.664-1.195-2.664-2.668 1.191-2.664 2.664-2.664 2.668 1.191 2.668 2.664zm0 0" fill="url(#AD)"/></g><g clip-path="url(#AH)" mask="url(#AF)"><path d="m25.332 34c0 1.473-1.191 2.668-2.664 2.668s-2.668-1.195-2.668-2.668 1.195-2.668 2.668-2.668 2.664 1.195 2.664 2.668zm0 0" fill="url(#AG)"/></g><g clip-path="url(#AJ)" fill="#fff" mask="url(#AI)"><path d="m42.668 26c0 .367-.301.668-.668.668s-.668-.301-.668-.668.301-.668.668-.668.668.301.668.668zm0 0"/></g></g></svg>