<svg xmlns="http://www.w3.org/2000/svg" xmlns:xlink="http://www.w3.org/1999/xlink" viewBox="0 0 64 64"><style><![CDATA[.D{filter:url(#F)}.E{fill-opacity:.504}.F{fill-opacity:.3}]]></style><defs><path id="A" d="M0 0h64v64H0z"/><path id="B" d="m12.668 27.332c0 .922-.746 1.668-1.668 1.668s-1.668-.746-1.668-1.668.746-1.664 1.668-1.664 1.668.746 1.668 1.664zm0 0"/><path id="C" d="M42 30a.67.67 0 0 1-.668.668c-.367 0-.664-.301-.664-.668s.297-.668.664-.668A.67.67 0 0 1 42 30zm0 0"/><path id="D" d="M37.332 32.668a1 1 0 1 1-1-1c.555 0 1 .445 1 1zm0 0"/><linearGradient id="E" gradientUnits="userSpaceOnUse" spreadMethod="reflect" x1="32.015" x2="32.015" y1="32.016" y2="47.444"><stop offset="0" stop-color="#5184cf"/><stop offset="1" stop-color="#123a76"/></linearGradient><filter id="F" height="1" width="1" x="0" y="0"><feColorMatrix in="SourceGraphic" values="0 0 0 0 1 0 0 0 0 1 0 0 0 0 1 0 0 0 1 0"/></filter><mask id="G"><g class="D"><path d="M0 0h64v64H0z" fill-opacity=".4"/></g></mask><clipPath id="H"><use xlink:href="#A"/></clipPath><mask id="I"><g class="D"><path d="M0 0h64v64H0z" class="E"/></g></mask><clipPath id="J"><use xlink:href="#A"/></clipPath><mask id="K"><g class="D"><path d="M0 0h64v64H0z" class="F"/></g></mask><clipPath id="L"><use xlink:href="#A"/></clipPath><mask id="M"><g class="D"><path d="M0 0h64v64H0z" class="E"/></g></mask><clipPath id="N"><use xlink:href="#A"/></clipPath><mask id="O"><g class="D"><path d="M0 0h64v64H0z" class="E"/></g></mask><clipPath id="P"><use xlink:href="#A"/></clipPath><mask id="Q"><g class="D"><path d="M0 0h64v64H0z" class="E"/></g></mask><clipPath id="R"><use xlink:href="#A"/></clipPath><mask id="S"><g class="D"><path d="M0 0h64v64H0z" class="F"/></g></mask><clipPath id="T"><use xlink:href="#A"/></clipPath><mask id="U"><g class="D"><path d="M0 0h64v64H0z" class="E"/></g></mask><clipPath id="V"><use xlink:href="#A"/></clipPath><mask id="W"><g class="D"><path d="M0 0h64v64H0z" class="E"/></g></mask><clipPath id="X"><use xlink:href="#A"/></clipPath><mask id="Y"><g class="D"><path d="M0 0h64v64H0z" class="E"/></g></mask><clipPath id="Z"><use xlink:href="#A"/></clipPath><mask id="a"><g class="D"><path d="M0 0h64v64H0z" class="F"/></g></mask><clipPath id="b"><use xlink:href="#A"/></clipPath><mask id="c"><g class="D"><path d="M0 0h64v64H0z" class="E"/></g></mask><clipPath id="d"><use xlink:href="#A"/></clipPath><mask id="e"><g class="D"><path d="M0 0h64v64H0z" class="E"/></g></mask><clipPath id="f"><use xlink:href="#A"/></clipPath><mask id="g"><g class="D"><path d="M0 0h64v64H0z" class="E"/></g></mask><clipPath id="h"><use xlink:href="#A"/></clipPath><mask id="i"><g class="D"><path d="M0 0h64v64H0z" class="E"/></g></mask><clipPath id="j"><use xlink:href="#A"/></clipPath><mask id="k"><g class="D"><path d="M0 0h64v64H0z" class="E"/></g></mask><clipPath id="l"><use xlink:href="#A"/></clipPath><mask id="m"><g class="D"><path d="M0 0h64v64H0z" class="E"/></g></mask><clipPath id="n"><use xlink:href="#A"/></clipPath><mask id="o"><g class="D"><path d="M0 0h64v64H0z" class="E"/></g></mask><clipPath id="p"><use xlink:href="#A"/></clipPath><mask id="q"><g class="D"><path d="M0 0h64v64H0z" class="E"/></g></mask><clipPath id="r"><use xlink:href="#A"/></clipPath><mask id="s"><g class="D"><path d="M0 0h64v64H0z" class="E"/></g></mask><clipPath id="t"><use xlink:href="#A"/></clipPath><mask id="u"><g class="D"><path d="M0 0h64v64H0z" class="E"/></g></mask><clipPath id="v"><use xlink:href="#A"/></clipPath><mask id="w"><g class="D"><path d="M0 0h64v64H0z" class="E"/></g></mask><clipPath id="x"><use xlink:href="#A"/></clipPath><mask id="y"><g class="D"><path d="M0 0h64v64H0z" class="E"/></g></mask><clipPath id="z"><use xlink:href="#A"/></clipPath><mask id="AA"><g class="D"><path d="M0 0h64v64H0z" class="F"/></g></mask><linearGradient id="AB" gradientUnits="userSpaceOnUse"><stop offset="0" stop-color="#fff"/><stop offset="1" stop-color="#fff" stop-opacity="0"/></linearGradient><radialGradient id="AC" cx="33.353" cy="29.346" r="2.668" xlink:href="#AB"/><clipPath id="AD"><use xlink:href="#A"/></clipPath><mask id="AE"><g class="D"><path d="M0 0h64v64H0z" class="F"/></g></mask><radialGradient id="AF" cx="22.687" cy="34.013" r="2.668" xlink:href="#AB"/><clipPath id="AG"><use xlink:href="#A"/></clipPath><mask id="AH"><g class="D"><path d="M0 0h64v64H0z" class="E"/></g></mask><clipPath id="AI"><use xlink:href="#A"/></clipPath><path id="AJ" d="m43.332 34c0 .922-.746 1.668-1.664 1.668s-1.668-.746-1.668-1.668.746-1.668 1.668-1.668 1.664.746 1.664 1.668zm0 0"/><path id="AK" d="M12 33.332c0 .371-.297.668-.668.668a.66.66 0 0 1 0-1.332c.367 0 .668.297.668.664zm0 0"/><path id="AL" d="M21.332 35.332c0 .371-.297.668-.664.668a.67.67 0 0 1-.668-.668.66.66 0 0 1 1.332 0zm0 0"/><path id="AM" d="m46.668 32c0 .367-.301.668-.668.668s-.668-.301-.668-.668.301-.668.668-.668.668.301.668.668zm0 0"/><linearGradient id="AN" x1="32" y1="59.678" x2="32" y2="4.314" gradientUnits="userSpaceOnUse"><stop offset="0" stop-color="#e6e6e6"/><stop offset="1" stop-color="#f5f5f5"/></linearGradient><path id="AO" d="M8.276 4.322h47.448c2.185 0 3.954 1.769 3.954 3.954v47.448c0 2.185-1.769 3.954-3.954 3.954H8.276c-2.185 0-3.954-1.769-3.954-3.954V8.276c0-2.185 1.769-3.954 3.954-3.954zm0 0"/></defs><g transform="matrix(.975504 0 0 .975504 .783872 .783872)"><use xlink:href="#AO" fill="none" stroke="#000000aa" stroke-width="4"/><use xlink:href="#AO" fill="url(#AN)"/></g><path d="M11.113 14.008h41.775v35.984H11.113zm0 0" fill="url(#E)"/><g transform="matrix(.87015 0 0 .963798 4.736474 3.086061)"><g fill="#fff"><g clip-path="url(#H)" mask="url(#G)"><path d="M40.668 25c0 .922-.746 1.668-1.668 1.668s-1.668-.746-1.668-1.668.746-1.668 1.668-1.668 1.668.746 1.668 1.668zm0 0"/></g><g clip-path="url(#J)" mask="url(#I)"><path d="M18.332 31.668c0 .918-.746 1.664-1.664 1.664A1.67 1.67 0 0 1 15 31.668 1.67 1.67 0 0 1 16.668 30c.922 0 1.664.746 1.664 1.668zm0 0"/></g><g clip-path="url(#L)" mask="url(#K)"><use xlink:href="#AJ"/></g><g clip-path="url(#N)" mask="url(#M)"><path d="M52 30.668c0 .918-.746 1.664-1.668 1.664s-1.664-.746-1.664-1.664A1.67 1.67 0 0 1 50.332 29 1.67 1.67 0 0 1 52 30.668zm0 0"/></g><g clip-path="url(#P)" mask="url(#O)"><path d="M29.332 30c0 .922-.746 1.668-1.664 1.668A1.67 1.67 0 0 1 26 30c0-.922.746-1.668 1.668-1.668s1.664.746 1.664 1.668zm0 0"/></g><g clip-path="url(#R)" mask="url(#Q)"><use xlink:href="#B"/></g><g clip-path="url(#T)" mask="url(#S)"><use xlink:href="#B"/></g><g clip-path="url(#V)" mask="url(#U)"><use xlink:href="#AK"/></g><g clip-path="url(#X)" mask="url(#W)"><use xlink:href="#AL"/></g><g clip-path="url(#Z)" mask="url(#Y)"><path d="M22.668 32.668c0 .367-.301.664-.668.664s-.668-.297-.668-.664A.67.67 0 0 1 22 32a.67.67 0 0 1 .668.668zm0 0"/></g><g clip-path="url(#b)" mask="url(#a)"><path d="M27.332 34c0 .367-.297.668-.664.668A.67.67 0 0 1 26 34a.67.67 0 0 1 .668-.668c.367 0 .664.301.664.668zm0 0"/></g><g clip-path="url(#d)" mask="url(#c)"><path d="M35.332 28.668c0 .367-.297.664-.664.664S34 29.035 34 28.668a.67.67 0 0 1 .668-.668.66.66 0 0 1 .664.668zm0 0"/></g><g clip-path="url(#f)" mask="url(#e)"><use xlink:href="#AM"/></g><g clip-path="url(#h)" mask="url(#g)"><path d="M48 29.332c0 .371-.297.668-.668.668a.666.666 0 0 1 0-1.332c.367 0 .668.297.668.664zm0 0"/></g><g clip-path="url(#j)" mask="url(#i)"><path d="M53.332 25.332c0 .371-.297.668-.664.668a.67.67 0 0 1-.668-.668.666.666 0 0 1 1.332 0zm0 0"/></g><g clip-path="url(#l)" mask="url(#k)"><use xlink:href="#C"/></g><g clip-path="url(#n)" mask="url(#m)"><use xlink:href="#C"/></g><g clip-path="url(#p)" mask="url(#o)"><path d="M23.668 29a1 1 0 1 1-2 0 1 1 0 1 1 2 0zm0 0"/></g><g clip-path="url(#r)" mask="url(#q)"><path d="M20 27.332a1 1 0 1 1-2 0 1 1 0 1 1 2 0zm0 0"/></g><g clip-path="url(#t)" mask="url(#s)"><path d="M35 35.668a1 1 0 1 1-2 0 1 1 0 1 1 2 0zm0 0"/></g><g clip-path="url(#v)" mask="url(#u)"><use xlink:href="#D"/></g><g clip-path="url(#x)" mask="url(#w)"><use xlink:href="#D"/></g><g clip-path="url(#z)" mask="url(#y)"><path d="M49.668 34.332a1 1 0 0 1-1 1c-.555 0-1-.445-1-1a1 1 0 1 1 2 0zm0 0"/></g></g><g clip-path="url(#AD)" mask="url(#AA)"><path d="M36 29.332A2.67 2.67 0 0 1 33.332 32c-1.473 0-2.664-1.195-2.664-2.668a2.66 2.66 0 0 1 2.664-2.664c1.473 0 2.668 1.191 2.668 2.664zm0 0" fill="url(#AC)"/></g><g clip-path="url(#AG)" mask="url(#AE)"><path d="M25.332 34c0 1.473-1.191 2.668-2.664 2.668A2.67 2.67 0 0 1 20 34a2.67 2.67 0 0 1 2.668-2.668c1.473 0 2.664 1.195 2.664 2.668zm0 0" fill="url(#AF)"/></g><g clip-path="url(#AI)" fill="#fff" mask="url(#AH)"><path d="M42.668 26a.67.67 0 0 1-.668.668.67.67 0 0 1-.668-.668.67.67 0 0 1 .668-.668.67.67 0 0 1 .668.668zm0 0"/></g></g></svg>