<svg xmlns="http://www.w3.org/2000/svg" xmlns:xlink="http://www.w3.org/1999/xlink" viewBox="0 0 64 64"><defs/><g fill="url(#B)" transform="matrix(.976 0 0 .976 .78 .77)"><use stroke="#000000aa" stroke-width="4" xlink:href="#A"/><use xlink:href="#A"/></g><path fill="#5195fb" d="M8.86 4.99A3.85 3.85 0 005 8.85v46.3a3.85 3.85 0 003.86 3.86h8.61V4.99zM51.78 14l-19.72 3.45v24.38a6.86 6.86 0 00-3.84.14c-2.9.93-4.63 3.4-3.87 5.52s3.72 3.08 6.61 2.15c2.48-.8 4.09-2.7 4.04-4.57H35V25.34l13.81-2.46v16.49a6.9 6.9 0 00-3.84.13c-2.9.93-4.62 3.4-3.86 5.52s3.7 3.08 6.6 2.16c2.48-.8 4.1-2.71 4.04-4.58h.02zm0 0"/><defs><linearGradient id="B" x1="32" x2="32" y1="59.68" y2="4.32" gradientUnits="userSpaceOnUse"><stop offset="0" stop-color="#e6e6e6"/><stop offset="1" stop-color="#f5f5f5"/></linearGradient><path id="A" d="M8.28 4.33h47.44a3.95 3.95 0 013.95 3.95v47.44a3.95 3.95 0 01-3.95 3.95H8.28a3.95 3.95 0 01-3.95-3.95V8.28a3.95 3.95 0 013.95-3.95zm0 0"/></defs></svg>