<svg xmlns="http://www.w3.org/2000/svg" xmlns:xlink="http://www.w3.org/1999/xlink" viewBox="0 0 64 64"><g transform="matrix(.976 0 0 .976 .779 .768)"><use xlink:href="#A" stroke="#000000aa" stroke-width="4" fill="url(#B)"/><use xlink:href="#A" fill="url(#B)"/></g><path d="M8.859 4.99a3.855 3.855 0 0 0-3.857 3.857V55.15a3.855 3.855 0 0 0 3.857 3.859h8.613V4.99zm42.921 9.014l-19.724 3.451V41.83c-1.144-.309-2.495-.289-3.838.14-2.897.926-4.623 3.397-3.865 5.517s3.713 3.085 6.609 2.155c2.476-.793 4.084-2.709 4.037-4.575h.016V25.343l13.805-2.464v16.488c-1.143-.309-2.495-.289-3.838.136-2.897.929-4.623 3.397-3.865 5.516s3.708 3.085 6.611 2.159c2.475-.793 4.083-2.713 4.037-4.575h.015zm0 0" fill="#5195fb"/><defs><path id="A" d="M8.279 4.326h47.442a3.95 3.95 0 0 1 3.953 3.953v47.442a3.95 3.95 0 0 1-3.953 3.953H8.279a3.95 3.95 0 0 1-3.953-3.953V8.279a3.95 3.95 0 0 1 3.953-3.953zm0 0"/><linearGradient id="B" gradientUnits="userSpaceOnUse" x1="32.004" x2="32.004" y1="59.682" y2="4.318"><stop offset="0" stop-color="#e6e6e6"/><stop offset="1" stop-color="#f5f5f5"/></linearGradient></defs></svg>