<svg viewBox="0 0 64 64" xmlns="http://www.w3.org/2000/svg" xmlns:xlink="http://www.w3.org/1999/xlink"><linearGradient id="a" gradientUnits="userSpaceOnUse" x1="26.184" x2="26.184" y1="54.777" y2="12.417"><stop offset="0" stop-color="#6ab300"/><stop offset="1" stop-color="#9dcf00"/></linearGradient><path d="m26.708 5c-3.803 0-6.887 2.135-6.887 4.765.112.98.732 2.221 1.061 2.649 1.588 2.116 1.588 3.437 1.191 4.231h-12.836c-2.351 0-4.237 1.892-4.237 4.237v10.721c.794.397 2.116.397 4.237-1.191.421-.329 1.662-.949 2.643-1.061 2.63 0 4.765 3.083 4.765 6.887 0 3.797-2.135 6.88-4.765 6.88-.807-.013-2.035-.738-2.643-1.061-2.121-1.589-3.443-1.589-4.237-1.191v13.897c0 2.351 1.886 4.237 4.237 4.237h17.074c.397-.794.397-2.116-1.191-4.237-.33-.422-.95-1.663-1.061-2.643 0-2.63 3.083-4.765 6.88-4.765 3.803 0 6.887 2.135 6.887 4.765-.019.807-.738 2.035-1.061 2.643-1.589 2.121-1.589 3.443-1.191 4.237h7.544c2.345 0 4.237-1.886 4.237-4.237v-11.776c.794-.397 2.116-.397 4.231 1.191.614.323 1.842 1.042 2.649 1.055 2.63 0 4.765-3.077 4.765-6.88s-2.135-6.88-4.765-6.88c-.98.106-2.221.732-2.649 1.055-2.116 1.588-3.437 1.588-4.231 1.191v-12.837c0-2.345-1.892-4.237-4.237-4.237h-11.782c-.397-.794-.397-2.116 1.191-4.231.323-.614 1.049-1.842 1.061-2.649 0-2.63-3.083-4.765-6.88-4.765zm0 0" fill="url(#a)" stroke="#00000077" stroke-linecap="round" stroke-linejoin="round" stroke-width="4"/></svg>