<svg xmlns="http://www.w3.org/2000/svg" xmlns:xlink="http://www.w3.org/1999/xlink" viewBox="0 0 64 64"><defs/><linearGradient id="a" x1="26.18" x2="26.18" y1="54.78" y2="12.42" gradientUnits="userSpaceOnUse"><stop offset="0" stop-color="#6ab300"/><stop offset="1" stop-color="#9dcf00"/></linearGradient><use fill="none" stroke="#000000aa" stroke-linecap="round" stroke-linejoin="round" stroke-width="4" xlink:href="#C"/><use fill="url(#a)" xlink:href="#C"/><defs><path id="C" d="M26.7 5c-3.8 0-6.88 2.13-6.88 4.76.11.99.73 2.23 1.06 2.65 1.59 2.12 1.59 3.44 1.2 4.24H9.23A4.23 4.23 0 005 20.88V31.6c.8.4 2.12.4 4.24-1.19a6.59 6.59 0 012.64-1.06c2.63 0 4.76 3.08 4.76 6.89 0 3.8-2.13 6.88-4.76 6.88-.8-.01-2.04-.74-2.64-1.06-2.12-1.6-3.45-1.6-4.24-1.2v13.9A4.22 4.22 0 009.24 59H26.3c.4-.8.4-2.12-1.19-4.24a6.57 6.57 0 01-1.06-2.64c0-2.63 3.08-4.76 6.88-4.76s6.89 2.13 6.89 4.76c-.02.8-.74 2.04-1.06 2.64-1.6 2.12-1.6 3.45-1.2 4.24h7.55a4.23 4.23 0 004.23-4.24V43c.8-.4 2.12-.4 4.24 1.19.61.32 1.84 1.04 2.64 1.05 2.64 0 4.77-3.07 4.77-6.88s-2.13-6.88-4.76-6.88c-.99.1-2.23.74-2.65 1.06-2.12 1.59-3.44 1.59-4.24 1.19V20.88a4.23 4.23 0 00-4.23-4.23H31.34c-.4-.8-.4-2.12 1.19-4.24.32-.61 1.05-1.84 1.06-2.64C33.59 7.14 30.5 5 26.7 5zm0 0"/></defs></svg>