<svg xmlns="http://www.w3.org/2000/svg" xmlns:xlink="http://www.w3.org/1999/xlink" viewBox="0 0 64 64"><linearGradient id="a" x1="26.2" x2="26.2" y1="54.8" y2="12.4" gradientUnits="userSpaceOnUse"><stop offset="0" stop-color="#6ab300"/><stop offset="1" stop-color="#9dcf00"/></linearGradient><use fill="none" stroke="#000000aa" stroke-linecap="round" stroke-linejoin="round" stroke-width="4" xlink:href="#C"/><use fill="url(#a)" xlink:href="#C"/><defs><path id="C" d="M26.7 5c-3.8 0-6.9 2.1-6.9 4.8.1 1 .7 2.2 1 2.6 1.7 2.1 1.7 3.4 1.3 4.3H9.2A4.2 4.2 0 005 20.8v10.7c.8.4 2.1.4 4.2-1.2a6.6 6.6 0 012.7-1c2.6 0 4.7 3 4.7 6.8s-2 7-4.7 7c-.8 0-2-.8-2.7-1.1-2-1.6-3.4-1.6-4.2-1.2v13.9A4.2 4.2 0 009.2 59h17.1c.4-.8.4-2.1-1.2-4.2a6.6 6.6 0 01-1-2.7c0-2.6 3-4.7 6.8-4.7s7 2 7 4.7c-.1.8-.8 2-1.1 2.7-1.6 2-1.6 3.4-1.2 4.2H43a4.2 4.2 0 004.2-4.2V43c.8-.4 2.2-.4 4.3 1.2.6.3 1.8 1 2.6 1 2.7 0 4.8-3 4.8-6.8s-2.1-7-4.8-7c-1 .2-2.2.8-2.6 1.1-2.1 1.6-3.5 1.6-4.3 1.2V21a4.2 4.2 0 00-4.2-4.3H31.3c-.4-.8-.4-2 1.2-4.2.4-.6 1-1.8 1-2.6 0-2.7-3-4.8-6.8-4.8zm0 0"/></defs></svg>