<svg xmlns="http://www.w3.org/2000/svg" xmlns:xlink="http://www.w3.org/1999/xlink" viewBox="0 0 64 64"><style>.B{fill:#f82d2d}.C{fill:#26fd26}.D{fill:#fafc4d}</style><defs><path id="A" d="M11.4 56.1a3.6 3.6 0 01-2.6-6.2 3.6 3.6 0 014.4-.6 3.6 3.6 0 011.7 4.1 3.6 3.6 0 01-3.5 2.7zm0 0"/><path id="B" d="M42.3 15.2a3.6 3.6 0 01-2.6-1 3.6 3.6 0 01-.4-4.7c1-1.4 2.8-2 4.4-1.3a3.6 3.6 0 01-1.4 7zm0 0"/></defs><path fill="#5a2ca0" stroke="#000000aa" stroke-width="2.6" d="M8.3 4.3h47.4a4 4 0 014 4v47.4a4 4 0 01-4 4H8.3a4 4 0 01-4-4V8.3a4 4 0 014-4zm0 0"/><path d="M11.4 45.9a3.6 3.6 0 111.8-6.8 3.6 3.6 0 01-1.8 6.8zm10.3 0a3.6 3.6 0 111.8-6.8 3.6 3.6 0 011.7 4 3.6 3.6 0 01-3.5 2.8zm0 0" class="B"/><path d="M32 45.9a3.6 3.6 0 01-3.4-2.3 3.6 3.6 0 015.2-4.5 3.6 3.6 0 01-1.8 6.8zm0 0" class="C"/><path d="M42.3 45.9a3.6 3.6 0 01-2.6-6.2 3.6 3.6 0 014.4-.6 3.6 3.6 0 01-1.8 6.8zm10.3 0a3.6 3.6 0 01-3.3-2.3 3.6 3.6 0 01.8-4 3.6 3.6 0 016 3.6 3.6 3.6 0 01-3.5 2.7zm0 0" class="B"/><path d="M8.8 34.6a3.6 3.6 0 002.6 1 3.6 3.6 0 002.5-6.2 3.6 3.6 0 00-5.1 0 3.6 3.6 0 000 5.2zm10.3 0a3.6 3.6 0 002.6 1 3.6 3.6 0 002.6-6.2 3.6 3.6 0 00-5.2 0 3.6 3.6 0 000 5.2zm10.3 0a3.6 3.6 0 002.6 1c1 0 1.9-.3 2.6-1a3.6 3.6 0 000-5.2 3.6 3.6 0 00-5.2 0 3.6 3.6 0 000 5.2zm10.3 0a3.6 3.6 0 002.6 1 3.6 3.6 0 002.6-6.2 3.6 3.6 0 00-5.2 5.2zm10.3 0a3.6 3.6 0 005.2 0 3.6 3.6 0 000-5.2 3.6 3.6 0 00-5.2 0 3.6 3.6 0 000 5.2zm0 0" class="C"/><path d="M8.8 24.4a3.6 3.6 0 002.6 1c1 0 1.9-.3 2.5-1a3.6 3.6 0 00.8-4 3.6 3.6 0 00-3.3-2.3A3.6 3.6 0 008 20.4a3.6 3.6 0 00.8 4zm10.3 0a3.6 3.6 0 002.6 1 3.6 3.6 0 003.4-5 3.6 3.6 0 00-3.4-2.3 3.6 3.6 0 00-3.4 2.3 3.6 3.6 0 00.8 4zm0 0" class="B"/><path d="M29.4 24.4a3.6 3.6 0 002.6 1c1 0 1.9-.3 2.6-1a3.6 3.6 0 00.8-4 3.6 3.6 0 00-6.8 0 3.6 3.6 0 00.8 4zm0 0" class="C"/><path d="M39.7 24.4a3.6 3.6 0 002.6 1c1 0 2-.3 2.6-1a3.6 3.6 0 00.8-4 3.6 3.6 0 00-6.8 0 3.6 3.6 0 00.8 4zm10.3 0a3.6 3.6 0 002.6 1 3.6 3.6 0 003.4-5 3.6 3.6 0 00-6.7 0 3.6 3.6 0 00.8 4zm0 0" class="B"/><path d="M11.4 15.2a3.6 3.6 0 01-2.6-1 3.6 3.6 0 01-.5-4.7 3.6 3.6 0 014.5-1.3 3.7 3.7 0 012.2 4 3.6 3.6 0 01-3.6 3zm0 0" class="D"/><path d="M21.7 15.2a3.6 3.6 0 01-2.6-1 3.6 3.6 0 01-.4-4.7 3.6 3.6 0 016.6 2.8 3.6 3.6 0 01-3.6 2.9zm0 0" class="B"/><path d="M32 15.2a3.6 3.6 0 01-2.6-1 3.6 3.6 0 01-.4-4.7 3.6 3.6 0 113 5.7zm0 0" class="C"/><use class="B" xlink:href="#B"/><g class="D"><use x="10.3" xlink:href="#B"/><use xlink:href="#A"/></g><use x="10.3" class="B" xlink:href="#A"/><path d="M32 56.1a3.6 3.6 0 01-2.6-6.2 3.6 3.6 0 014.4-.6 3.6 3.6 0 011.7 4.1 3.6 3.6 0 01-3.5 2.7zm0 0" class="C"/><path d="M42.3 56.1a3.6 3.6 0 111.8-6.8 3.6 3.6 0 011.7 4.1 3.6 3.6 0 01-3.5 2.7zm0 0" class="B"/><path d="M52.6 56.1a3.6 3.6 0 01-3.3-2.2 3.6 3.6 0 015.2-4.6 3.6 3.6 0 01-1.9 6.8zm0 0" class="D"/></svg>