<svg xmlns="http://www.w3.org/2000/svg" xmlns:xlink="http://www.w3.org/1999/xlink" viewBox="0 0 64 64"><defs/><defs><path id="a" d="M11.365 56.101c-1.469 0-2.8-.885-3.363-2.244s-.251-2.926.789-3.967a3.64 3.64 0 014.39-.574 3.634 3.634 0 011.696 4.088 3.64 3.64 0 01-3.512 2.697zm0 0"/></defs><path fill="#5a2ca0" stroke="#000000aa" stroke-width="2.651" d="M8.279 4.326h47.442a3.95 3.95 0 013.953 3.953v47.442a3.95 3.95 0 01-3.953 3.953H8.279a3.95 3.95 0 01-3.953-3.953V8.279a3.95 3.95 0 013.953-3.953zm0 0"/><path fill="#f82d2d" d="M11.365 45.88a3.64 3.64 0 111.816-6.785 3.636 3.636 0 01-1.816 6.785zm10.319 0a3.64 3.64 0 111.816-6.785 3.636 3.636 0 011.696 4.088 3.64 3.64 0 01-3.512 2.697zm0 0"/><path fill="#26fd26" d="M31.993 45.88a3.633 3.633 0 01-3.363-2.244 3.64 3.64 0 015.179-4.541 3.636 3.636 0 01-1.816 6.785zm0 0"/><path fill="#f82d2d" d="M42.312 45.88a3.636 3.636 0 01-2.574-6.208 3.64 3.64 0 014.39-.577c1.423.824 2.12 2.499 1.692 4.088s-1.862 2.697-3.508 2.697zm10.319 0a3.63 3.63 0 01-3.362-2.244 3.634 3.634 0 01.789-3.964 3.64 3.64 0 016.082 3.511 3.633 3.633 0 01-3.509 2.697zm0 0"/><path fill="#26fd26" d="M8.791 34.586a3.63 3.63 0 002.574 1.075 3.62 3.62 0 002.574-1.075 3.637 3.637 0 000-5.143 3.64 3.64 0 00-5.144 0 3.642 3.642 0 00-.004 5.143zm10.32 0a3.63 3.63 0 002.574 1.075 3.62 3.62 0 002.574-1.075 3.64 3.64 0 000-5.143 3.64 3.64 0 00-5.144 0 3.642 3.642 0 00-.004 5.143zm10.308 0a3.63 3.63 0 002.574 1.075c.966 0 1.894-.39 2.574-1.075a3.64 3.64 0 00-.004-5.143 3.633 3.633 0 00-5.14 0 3.64 3.64 0 00-.004 5.143zm10.32 0a3.627 3.627 0 002.574 1.075 3.63 3.63 0 002.574-1.075 3.64 3.64 0 00-.004-5.143 3.638 3.638 0 00-5.144 5.143zm10.308 0c.676.686 1.603 1.075 2.574 1.075s1.894-.39 2.574-1.075a3.64 3.64 0 00-.004-5.143 3.64 3.64 0 00-5.144 0 3.637 3.637 0 000 5.143zm0 0"/><path fill="#f82d2d" d="M8.791 24.365a3.65 3.65 0 002.574 1.069c.967 0 1.894-.386 2.574-1.069a3.64 3.64 0 00.8-3.977 3.65 3.65 0 00-3.374-2.258 3.644 3.644 0 00-3.369 2.258 3.64 3.64 0 00.796 3.977zm10.32 0a3.646 3.646 0 002.574 1.069 3.64 3.64 0 003.374-5.046 3.65 3.65 0 00-3.374-2.258 3.645 3.645 0 00-3.37 2.258 3.64 3.64 0 00.797 3.977zm0 0"/><path fill="#26fd26" d="M29.419 24.365a3.64 3.64 0 002.574 1.069c.966 0 1.89-.386 2.574-1.069a3.646 3.646 0 00.8-3.977 3.65 3.65 0 00-6.748-.001 3.647 3.647 0 00.8 3.977zm0 0"/><path fill="#f82d2d" d="M39.739 24.365a3.64 3.64 0 002.574 1.069c.966 0 1.89-.386 2.574-1.069a3.645 3.645 0 00.799-3.977 3.65 3.65 0 00-6.747 0 3.647 3.647 0 00.8 3.977zm10.308 0a3.634 3.634 0 002.574 1.069 3.65 3.65 0 002.574-1.069 3.64 3.64 0 00.796-3.977 3.645 3.645 0 00-3.369-2.258 3.65 3.65 0 00-3.374 2.258 3.64 3.64 0 00.8 3.977zm0 0"/><path fill="#fafc4d" d="M11.365 15.195a3.62 3.62 0 01-2.574-1.072 3.65 3.65 0 01-.438-4.612 3.654 3.654 0 014.436-1.331 3.66 3.66 0 012.17 4.092 3.65 3.65 0 01-3.593 2.923zm0 0"/><path fill="#f82d2d" d="M21.674 15.195a3.62 3.62 0 01-2.574-1.072 3.654 3.654 0 01-.442-4.612 3.65 3.65 0 016.606 2.761 3.645 3.645 0 01-3.59 2.923zm0 0"/><path fill="#26fd26" d="M31.993 15.195a3.62 3.62 0 01-2.574-1.072 3.654 3.654 0 01-.442-4.612 3.65 3.65 0 113.016 5.684zm0 0"/><path fill="#f82d2d" d="M42.302 15.195a3.61 3.61 0 01-2.574-1.072 3.65 3.65 0 01-.442-4.612c.97-1.444 2.828-2 4.435-1.331a3.65 3.65 0 01-1.42 7.015zm0 0"/><g fill="#fafc4d"><path d="M52.621 15.195a3.607 3.607 0 01-2.574-1.072 3.65 3.65 0 01-.442-4.612c.97-1.444 2.828-2 4.435-1.331a3.65 3.65 0 01-1.42 7.015zm0 0"/><use xlink:href="#a"/></g><use x="10.319" fill="#f82d2d" xlink:href="#a"/><path fill="#26fd26" d="M31.993 56.101a3.64 3.64 0 01-3.363-2.244 3.643 3.643 0 01.789-3.967 3.64 3.64 0 014.39-.574 3.63 3.63 0 011.692 4.088 3.637 3.637 0 01-3.508 2.697zm0 0"/><path fill="#f82d2d" d="M42.312 56.101a3.64 3.64 0 111.816-6.785 3.632 3.632 0 011.692 4.088 3.64 3.64 0 01-3.508 2.697zm0 0"/><path fill="#fafc4d" d="M52.631 56.101a3.637 3.637 0 01-3.362-2.244 3.64 3.64 0 015.178-4.541 3.637 3.637 0 01-1.816 6.785zm0 0"/></svg>