<svg viewBox="0 0 64 64" xmlns="http://www.w3.org/2000/svg" xmlns:xlink="http://www.w3.org/1999/xlink"><defs><path id="a" d="m11.365 56.101c-1.469 0-2.8-.885-3.363-2.244s-.251-2.926.789-3.967a3.64 3.64 0 0 1 4.39-.574c1.426.822 2.121 2.499 1.696 4.088a3.64 3.64 0 0 1 -3.512 2.697zm0 0"/></defs><path d="m8.279 4.326h47.442a3.95 3.95 0 0 1 3.953 3.953v47.442a3.95 3.95 0 0 1 -3.953 3.953h-47.442a3.95 3.95 0 0 1 -3.953-3.953v-47.442a3.95 3.95 0 0 1 3.953-3.953zm0 0" fill="#5a2ca0" stroke="#000000aa" stroke-width="2.651"/><path d="m11.365 45.88a3.64 3.64 0 1 1 1.816-6.785c1.426.824 2.121 2.499 1.696 4.088s-1.865 2.697-3.512 2.697zm10.319 0a3.64 3.64 0 1 1 1.816-6.785c1.426.824 2.121 2.499 1.696 4.088a3.64 3.64 0 0 1 -3.512 2.697zm0 0" fill="#f82d2d"/><path d="m31.993 45.88c-1.473.003-2.8-.885-3.363-2.244a3.64 3.64 0 0 1 5.179-4.541c1.423.824 2.121 2.499 1.692 4.088s-1.862 2.697-3.508 2.697zm0 0" fill="#26fd26"/><path d="m42.312 45.88c-1.473.003-2.8-.885-3.363-2.244s-.252-2.924.789-3.964a3.64 3.64 0 0 1 4.39-.577c1.423.824 2.12 2.499 1.692 4.088s-1.862 2.697-3.508 2.697zm10.319 0a3.63 3.63 0 0 1 -3.362-2.244c-.564-1.359-.252-2.924.789-3.964a3.64 3.64 0 0 1 6.082 3.511c-.425 1.589-1.862 2.697-3.509 2.697zm0 0" fill="#f82d2d"/><path d="m8.791 34.586a3.63 3.63 0 0 0 2.574 1.075 3.62 3.62 0 0 0 2.574-1.075c1.42-1.423 1.42-3.724 0-5.143a3.64 3.64 0 0 0 -5.144 0c-1.419 1.419-1.419 3.719-.004 5.143zm10.32 0a3.63 3.63 0 0 0 2.574 1.075 3.62 3.62 0 0 0 2.574-1.075 3.64 3.64 0 0 0 0-5.143 3.64 3.64 0 0 0 -5.144 0c-1.419 1.419-1.419 3.719-.004 5.143zm10.308 0a3.63 3.63 0 0 0 2.574 1.075c.966 0 1.894-.39 2.574-1.075a3.64 3.64 0 0 0 -.004-5.143c-1.419-1.42-3.721-1.42-5.14 0a3.64 3.64 0 0 0 -.004 5.143zm10.32 0c.68.686 1.607 1.075 2.574 1.075a3.63 3.63 0 0 0 2.574-1.075 3.64 3.64 0 0 0 -.004-5.143c-1.42-1.42-3.721-1.42-5.14 0s-1.424 3.719-.004 5.143zm10.308 0c.676.686 1.603 1.075 2.574 1.075s1.894-.39 2.574-1.075a3.64 3.64 0 0 0 -.004-5.143 3.64 3.64 0 0 0 -5.144 0c-1.42 1.419-1.42 3.719 0 5.143zm0 0" fill="#26fd26"/><path d="m8.791 24.365a3.65 3.65 0 0 0 2.574 1.069c.967 0 1.894-.386 2.574-1.069a3.64 3.64 0 0 0 .8-3.977 3.65 3.65 0 0 0 -3.374-2.258c-1.476 0-2.807.892-3.369 2.258a3.64 3.64 0 0 0 .796 3.977zm10.32 0c.683.683 1.611 1.069 2.574 1.069a3.64 3.64 0 0 0 3.374-5.046 3.65 3.65 0 0 0 -3.374-2.258c-1.476 0-2.808.892-3.37 2.258a3.64 3.64 0 0 0 .797 3.977zm0 0" fill="#f82d2d"/><path d="m29.419 24.365a3.64 3.64 0 0 0 2.574 1.069c.966 0 1.89-.386 2.574-1.069 1.048-1.04 1.363-2.611.8-3.977a3.65 3.65 0 0 0 -6.748-.001c-.563 1.366-.247 2.937.8 3.977zm0 0" fill="#26fd26"/><path d="m39.739 24.365a3.64 3.64 0 0 0 2.574 1.069c.966 0 1.89-.386 2.574-1.069 1.048-1.04 1.362-2.611.799-3.977a3.65 3.65 0 0 0 -6.747 0c-.563 1.366-.247 2.937.8 3.977zm10.308 0c.68.683 1.607 1.069 2.574 1.069a3.65 3.65 0 0 0 2.574-1.069 3.64 3.64 0 0 0 .796-3.977c-.563-1.366-1.893-2.258-3.369-2.258a3.65 3.65 0 0 0 -3.374 2.258 3.64 3.64 0 0 0 .8 3.977zm0 0" fill="#f82d2d"/><path d="m11.365 15.195a3.62 3.62 0 0 1 -2.574-1.072 3.65 3.65 0 0 1 -.438-4.612c.969-1.444 2.828-1.999 4.436-1.331a3.66 3.66 0 0 1 2.17 4.092 3.65 3.65 0 0 1 -3.593 2.923zm0 0" fill="#fafc4d"/><path d="m21.674 15.195a3.62 3.62 0 0 1 -2.574-1.072c-1.228-1.236-1.412-3.164-.442-4.612a3.65 3.65 0 0 1 6.606 2.761c-.343 1.706-1.848 2.93-3.59 2.923zm0 0" fill="#f82d2d"/><path d="m31.993 15.195a3.62 3.62 0 0 1 -2.574-1.072c-1.228-1.236-1.412-3.164-.442-4.612a3.65 3.65 0 1 1 3.016 5.684zm0 0" fill="#26fd26"/><path d="m42.302 15.195a3.61 3.61 0 0 1 -2.574-1.072 3.65 3.65 0 0 1 -.442-4.612c.97-1.444 2.828-2 4.435-1.331a3.65 3.65 0 0 1 -1.42 7.015zm0 0" fill="#f82d2d"/><g fill="#fafc4d"><path d="m52.621 15.195c-.971 0-1.898-.385-2.574-1.072a3.65 3.65 0 0 1 -.442-4.612c.97-1.444 2.828-2 4.435-1.331a3.65 3.65 0 0 1 -1.42 7.015zm0 0"/><use xlink:href="#a"/></g><use fill="#f82d2d" x="10.319" xlink:href="#a"/><path d="m31.993 56.101a3.64 3.64 0 0 1 -3.363-2.244c-.563-1.359-.251-2.926.789-3.967a3.64 3.64 0 0 1 4.39-.574 3.63 3.63 0 0 1 1.692 4.088c-.425 1.589-1.862 2.693-3.508 2.697zm0 0" fill="#26fd26"/><path d="m42.312 56.101a3.64 3.64 0 1 1 1.816-6.785c1.423.822 2.12 2.499 1.692 4.088a3.64 3.64 0 0 1 -3.508 2.697zm0 0" fill="#f82d2d"/><path d="m52.631 56.101c-1.473 0-2.799-.885-3.362-2.244a3.64 3.64 0 0 1 5.178-4.541c1.424.822 2.117 2.499 1.693 4.088s-1.862 2.694-3.509 2.697zm0 0" fill="#fafc4d"/></svg>