<svg xmlns="http://www.w3.org/2000/svg" xmlns:xlink="http://www.w3.org/1999/xlink" viewBox="0 0 64 64"><defs/><defs><linearGradient id="a"><stop offset="0" stop-color="#ccc"/><stop offset="1" stop-color="#eee"/></linearGradient><linearGradient id="c" x1="24.474" x2="39.992" y1="33.664" y2="33.664" gradientTransform="translate(-.033 -1.065)" gradientUnits="userSpaceOnUse" xlink:href="#a"/></defs><defs><linearGradient id="b" gradientUnits="userSpaceOnUse"><stop offset="0" stop-color="#eee"/><stop offset="1" stop-color="#aaa"/></linearGradient><linearGradient id="e" x1="28.044" x2="36.049" y1="10.696" y2="10.696" gradientTransform="translate(-5.669 -1.26) scale(1.17713)" xlink:href="#b"/><linearGradient id="f" x1="35.029" x2="28.886" y1="10.488" y2="10.488" gradientTransform="translate(-5.669 -1.26) scale(1.17713)" xlink:href="#b"/><path id="d" d="M29.335 40.825c-.29 0-.537.184-.537.423v2.547c0 .239.247.428.537.428h1.081c.291 0 .537-.189.537-.428v-.423h1.618c.303 0 .544-.189.544-.423v-.851c0-.233-.241-.423-.544-.423h-1.618v-.428c0-.239-.246-.423-.537-.423zm0 0"/></defs><path fill="none" stroke="#000000aa" stroke-linecap="round" stroke-linejoin="round" stroke-width="4" d="M8.857 5h46.286A3.855 3.855 0 0159 8.857v46.286A3.855 3.855 0 0155.143 59H8.857A3.855 3.855 0 015 55.143V8.858a3.855 3.855 0 013.857-3.857zm0 0"/><path fill="#e7aaff" d="M8.857 5h46.285a3.855 3.855 0 013.857 3.857v46.286A3.855 3.855 0 0155.142 59H8.857A3.855 3.855 0 015 55.143V8.858a3.855 3.855 0 013.857-3.857zm0 0"/><path fill="#111" d="M39.099 5v44.75c0 1.415-1.115 2.554-2.5 2.554H27.4c-1.385 0-2.5-1.14-2.5-2.555V5z" opacity=".7"/><path fill="url(#c)" d="M23.902 5v45.75a2.503 2.503 0 002.5 2.555h11.197c1.385 0 2.5-1.14 2.5-2.555V5h-1v44.75c0 1.415-1.115 2.555-2.5 2.555h-9.197c-1.385 0-2.5-1.14-2.5-2.555V5z"/><g transform="translate(-.02)"><path fill="#ddd" d="M29.487 46.317h5.138c.717 0 1.288.457 1.288 1.015v2.023c0 .563-.571 1.015-1.288 1.015h-5.138c-.717 0-1.288-.45-1.288-1.015v-2.023c0-.558.571-1.015 1.288-1.015zm0 0"/><use width="100%" height="100%" y="-5.092" fill="#ddd" transform="translate(-6.124 -4.901) scale(1.19185)" xlink:href="#d"/><path fill="#ddd" d="M35.272 41.425c.346 0 .64.22.64.504v3.035c0 .286-.294.51-.64.51h-1.288c-.347 0-.64-.224-.64-.51v-.504h-1.93c-.36 0-.648-.225-.648-.505V42.94c0-.277.288-.504.649-.504h1.928v-.51c0-.286.294-.505.64-.505zM35.272 33.951c.346 0 .64.22.64.504v3.035c0 .286-.294.51-.64.51h-1.288c-.347 0-.64-.224-.64-.51v-.504h-1.93c-.36 0-.648-.225-.648-.505v-1.014c0-.278.288-.505.649-.505h1.928v-.509c0-.285.294-.505.64-.505zM35.272 26.478c.346 0 .64.219.64.504v3.035c0 .286-.294.51-.64.51h-1.288c-.347 0-.64-.224-.64-.51v-.504h-1.93c-.36 0-.648-.225-.648-.505v-1.013c0-.277.288-.505.649-.505h1.928v-.51c0-.285.294-.505.64-.505zM28.839 22.74c-.346 0-.64.22-.64.505v3.035c0 .286.294.51.64.51h1.288c.347 0 .64-.224.64-.51v-.504h1.93c.36 0 .648-.225.648-.505v-1.013c0-.277-.288-.505-.649-.505h-1.928v-.51c0-.285-.294-.504-.64-.504zM28.839 30.215c-.346 0-.64.219-.64.504v3.035c0 .286.294.51.64.51h1.288c.347 0 .64-.224.64-.51v-.504h1.93c.36 0 .648-.225.648-.505V31.73c0-.278-.288-.505-.649-.505h-1.928v-.51c0-.284-.294-.503-.64-.503z"/><path fill="url(#e)" d="M28.713 5.037c-.813 0-1.459.448-1.459 1.005l-.007 14.802c0 .558.645 1.013 1.459 1.013h6.62c.813 0 1.46-.454 1.46-1.013l.006-14.802c0-.557-.645-1.005-1.458-1.005z"/><path fill="url(#f)" d="M35.035 5.917c.334 0 .598.207.598.469v14.098c0 .257-.264.465-.598.465h-6.036c-.328 0-.592-.208-.592-.465V6.386c0-.262.264-.469.592-.469z"/></g></svg>