<svg xmlns="http://www.w3.org/2000/svg" xmlns:xlink="http://www.w3.org/1999/xlink" viewBox="0 0 64 64"><defs><path id="A" d="m29.335 40.825c-.29 0-.537.184-.537.423v2.547c0 .239.247.428.537.428h1.081c.291 0 .537-.189.537-.428v-.423h1.618c.303 0 .544-.189.544-.423v-.851c0-.233-.241-.423-.544-.423h-1.618v-.428c0-.239-.246-.423-.537-.423zm0 0"/><linearGradient id="B" gradientUnits="userSpaceOnUse"><stop offset="0" stop-color="#ededed"/><stop offset="1" stop-color="#b0b0b0"/></linearGradient><linearGradient id="C" gradientUnits="userSpaceOnUse" x1="23.464" x2="39.101" y1="51.481" y2="52.144"><stop offset="0" stop-color="#a2a2a2"/><stop offset="1" stop-color="#fff"/></linearGradient><linearGradient id="D" x1="28.044" x2="36.049" xlink:href="#B" y1="10.696" y2="10.696"/><linearGradient id="E" x1="35.029" x2="28.886" xlink:href="#B" y1="10.488" y2="10.488"/></defs><path d="M8.857 5h46.286A3.855 3.855 0 0 1 59 8.857v46.286A3.855 3.855 0 0 1 55.143 59H8.857A3.855 3.855 0 0 1 5 55.143V8.858a3.855 3.855 0 0 1 3.857-3.857zm0 0" fill="none" stroke="#000000aa" stroke-width="4" stroke-linecap="round" stroke-linejoin="round"/><path d="M8.857 5h46.285a3.855 3.855 0 0 1 3.857 3.857v46.286A3.855 3.855 0 0 1 55.142 59H8.857A3.855 3.855 0 0 1 5 55.143V8.858a3.855 3.855 0 0 1 3.857-3.857zm0 0" fill="#e7aaff"/><path d="M25.85 5.008v43.247c0 1.334 1.367 2.414 3.068 2.414h6.136c1.701 0 3.068-1.08 3.068-2.414V5.008z" fill="#1a1a1a" opacity=".8"/><g fill="#ccc"><path d="M29.806 45.496h4.43c.618 0 1.111.394 1.111.875v1.744c0 .486-.493.875-1.111.875h-4.43c-.618 0-1.111-.388-1.111-.875v-1.744c0-.481.493-.875 1.111-.875zm0 0"/><g transform="matrix(1.02767 0 0 1.02767 -.899585 -.819558)"><use xlink:href="#A"/><use xlink:href="#A" y="-5.092"/></g><path d="M29.247 30.67c-.298 0-.552.189-.552.435v2.617c0 .246.254.44.552.44h1.111c.299 0 .552-.194.552-.44v-.435h1.663c.311 0 .559-.194.559-.435v-.875c0-.239-.248-.435-.559-.435H30.91v-.439c0-.246-.253-.435-.552-.435zm0-5.233c-.298 0-.552.189-.552.435v2.617c0 .246.254.44.552.44h1.111c.299 0 .552-.194.552-.44v-.435h1.663c.311 0 .559-.194.559-.435v-.874c0-.239-.248-.435-.559-.435H30.91v-.44c0-.246-.253-.435-.552-.435zm0 0"/><use xlink:href="#A" y="-20.365" transform="matrix(1.02767 0 0 1.02767 -.899585 -.819558)"/><path d="M34.794 38.518c.298 0 .552.189.552.435v2.617c0 .246-.254.44-.552.44h-1.111c-.299 0-.552-.194-.552-.44v-.435h-1.663c-.311 0-.559-.194-.559-.435v-.875c0-.239.248-.435.559-.435h1.663v-.44c0-.246.253-.435.552-.435zm0-5.232c.298 0 .552.189.552.435v2.617c0 .246-.254.44-.552.44h-1.111c-.299 0-.552-.194-.552-.44v-.435h-1.663c-.311 0-.559-.194-.559-.435v-.875c0-.239.248-.435.559-.435h1.663v-.439c0-.246.253-.435.552-.435zm0-5.233c.298 0 .552.189.552.435v2.617c0 .246-.254.44-.552.44h-1.111c-.299 0-.552-.194-.552-.44v-.435h-1.663c-.311 0-.559-.194-.559-.435v-.874c0-.239.248-.435.559-.435h1.663v-.44c0-.246.253-.435.552-.435zm0-5.232c.298 0 .552.189.552.435v2.617c0 .246-.254.44-.552.44h-1.111c-.299 0-.552-.194-.552-.44v-.435h-1.663c-.311 0-.559-.194-.559-.435v-.875c0-.239.248-.435.559-.435h1.663v-.44c0-.246.253-.435.552-.435zm0 0"/></g><g transform="matrix(1.014982 0 0 1.014982 -.507256 -.427228)"><path d="M24.948 5.352v42.591c0 1.742 1.811 3.168 4.031 3.168h6.043c2.219 0 4.031-1.426 4.031-3.168V5.352h-1.009v42.591c0 1.314-1.346 2.378-3.022 2.378h-6.043c-1.675 0-3.022-1.064-3.022-2.378V5.352z" fill="url(#C)"/><path d="M29.208 5.349c-.69 0-1.239.381-1.239.854l-.006 12.575c0 .474.548.86 1.239.86h5.625c.69 0 1.239-.385 1.239-.86l.006-12.575c0-.473-.548-.854-1.239-.854z" fill="url(#D)"/><path d="M34.579 6.097c.284 0 .508.176.508.398v11.977c0 .218-.224.395-.508.395h-5.128c-.278 0-.503-.177-.503-.395V6.495c0-.222.225-.398.503-.398z" fill="url(#E)"/></g></svg>