<svg xmlns="http://www.w3.org/2000/svg" xmlns:xlink="http://www.w3.org/1999/xlink" viewBox="0 0 74 66" xmlns:v="https://vecta.io/nano"><style><![CDATA[.G{opacity:.35}.H{color-interpolation-filters:sRGB}.I{stroke-linejoin:round}]]></style><defs><linearGradient id="A" gradientUnits="userSpaceOnUse"><stop offset="0" stop-color="#fff"/><stop offset="1" stop-color="#fff" stop-opacity="0"/></linearGradient><filter id="B" height="1.222" width="1.163" x="-.081" y="-.111" class="H"><feGaussianBlur stdDeviation="1.4"/></filter><filter id="C" height="1.277" width="1.235" x="-.118" y="-.139" class="H"><feGaussianBlur stdDeviation="1.4"/></filter><radialGradient id="D" gradientTransform="matrix(5.4208347,0,0,2.3784384,-460.66033,-251.96211)" cx="91.821" cy="118.468" fx="91.821" fy="118.468" r="18.712" gradientUnits="userSpaceOnUse"><stop offset="0" stop-color="#f0f"/><stop offset="1" stop-color="#fa0080"/></radialGradient><radialGradient xlink:href="#A" id="E" cx="27.803" cy="29.051" fx="27.803" fy="24.865" r="10.165" gradientTransform="matrix(1.1669519,-1.1511351e-7,2.9081511e-7,1.3311868,-5.1364637,-9.2268665)"/><radialGradient xlink:href="#A" id="F" cx="27.93" cy="29.051" fx="27.93" fy="24.865" r="10.165" gradientTransform="matrix(1.1669519,-1.1511351e-7,2.9081511e-7,1.3311868,-79.136465,-9.2268686)"/><filter id="G" x="-.033" y="-.032" width="1.066" height="1.064" class="H"><feGaussianBlur stdDeviation=".184"/></filter><radialGradient id="H" cx="36.999" cy="90.79" fx="36.999" fy="90.79" r="19.291" gradientTransform="matrix(-2.3257688,0,0,-1.6445889,123.05159,175.12897)" gradientUnits="userSpaceOnUse"><stop offset="0" stop-color="#a08"/><stop offset="1" stop-color="#501644"/></radialGradient></defs><filter height="1.226" width="1.165" x="-.083" y="-.113" class="H"><feGaussianBlur stdDeviation=".75"/></filter><path d="M36.746 2.979a2.089 2.089 0 0 0-1.713.931L31.4 9.364l-1.544 2.128c-2.633 3.663-5.603 7.999-5.603 13.167 0 4.693 1.277 8.663 3.524 11.524.079.099.168.158.247.257-.782-.139-1.564-.277-2.386-.277-3.059.01-6.366.941-9.672 2.851-4.475 2.584-6.742 7.336-8.593 11.435a2.089 2.089 0 0 0 0 .01l-1.237 2.792-2.762 5.574a2.089 2.089 0 0 0 1.733 3.01l6.633.426 2.614.287c4.485.446 9.732.851 14.197-1.723 4.069-2.356 6.861-5.445 8.217-8.821.069-.178.089-.356.148-.535 1.267 3.534 3.96 6.91 8.207 9.356 3.079 1.772 6.425 2.079 9.395 2.039 2.891-.05 6.039-.475 8.742-.713h.04c.218-.02.475-.03.723-.05h.02l4.673-.218a2.089 2.089 0 0 0 1.742-3.069l-2.584-4.811c-1.911-3.92-4.267-11.553-10.177-14.969-3.316-1.921-6.643-2.851-9.722-2.851-.208 0-.406 0-.614.02-.584.03-1.139.148-1.703.248.069-.089.158-.148.228-.238 2.247-2.861 3.534-6.831 3.534-11.524 0-5.158-2.97-9.484-5.593-13.127l-5.356-7.653a2.089 2.089 0 0 0-1.733-.891z" stroke="#000" stroke-width="4" class="I"/><path d="M26.339 24.531c0-4.316 2.624-8.336 5.207-11.939.703-.98.762-1.01 1.564-2.148l3.653-5.494 5.356 7.653c2.574 3.584 5.207 7.613 5.207 11.93 0 8.633-4.722 13.989-10.504 13.989s-10.494-5.356-10.494-13.989zM14.558 60.319l-2.643-.287-6.673-.426 2.792-5.643 1.238-2.802c1.832-4.039 4-8.326 7.742-10.484 7.474-4.316 14.474-2.911 17.365 2.099 2.891 4.999.614 11.761-6.871 16.087-3.742 2.158-8.534 1.891-12.949 1.455zm31.601-1.455c-6.999-4.039-9.454-10.237-7.356-15.127a9.7 9.7 0 0 1 .485-.96 7.79 7.79 0 0 1 .594-.901c1.703-2.287 4.376-3.614 7.564-3.752 2.792-.119 5.96.683 9.207 2.554 4.861 2.802 7.326 9.94 9.356 14.098l2.604 4.851-4.752.218-.762.059c-2.782.248-5.92.663-8.633.703-2.792.05-5.722-.257-8.316-1.752z" fill="#f60"/><g><path d="M18.99-85.69l-3.58.39-9.08.58.04.07 8.04 3.07 3.42 1.14c5.7 1.95 11.8 4.33 15.19 9.11 3.88 5.45 5.22 10.92 4.48 15.47 3.67-.79 6.64-2.88 8.44-5.99 3.93-6.8.83-15.99-9.34-21.86-5.08-2.93-11.6-2.58-17.61-1.98z" filter="url(#B)" transform="matrix(.773966 0 0 -.773966 -.25426 -5.693163)" class="G"/><path d="M77.09-85.22l3.58.39 9.08.58-.04.07-8.04 3.07-3.42 1.14c-5.7 1.95-11.8 4.33-15.19 9.11-3.88 5.45-5.22 10.92-4.48 15.47-3.67-.79-6.64-2.88-8.44-5.99-3.93-6.8-.83-15.99 9.34-21.86 5.08-2.93 11.6-2.58 17.61-1.98z" filter="url(#B)" transform="matrix(.773966 0 0 -.773966 -.25426 -5.329399)" class="G"/><path d="M33.6-37.99c0 1.78.33 3.52.88 5.22 2.02-7.51 7.26-11.93 13.38-11.93s11.37 4.43 13.39 11.94c.56-1.7.88-3.44.88-5.22 0-11.73-6.42-19-14.28-19-7.85 0-14.26 7.28-14.26 19z" filter="url(#C)" transform="matrix(.773966 0 0 -.773966 -.25426 -5.693163)" class="G"/></g><path d="M28.041 21.812c-9.124 0-11.973 9.317-8.01 16.941 5.356 9.379 16.118 18.685 16.963 22.549L37 27.865c-2.093-2.98-5.16-5.781-8.959-6.053zM37 27.865l.008 33.438c.845-3.864 11.605-13.17 16.961-22.549 3.963-7.624 1.116-16.941-8.008-16.941-3.799.272-6.868 3.073-8.961 6.053z" stroke="#000" stroke-width="6" class="I"/><path d="M28.055 21.812c-9.124 0-11.973 9.317-8.01 16.941 5.356 9.379 16.118 18.685 16.963 22.549l.006-33.438c-2.093-2.98-5.16-5.781-8.959-6.053zm8.959 6.053l.008 33.438c.845-3.864 11.605-13.17 16.961-22.549 3.963-7.624 1.116-16.941-8.008-16.941-3.799.272-6.868 3.073-8.961 6.053z" fill="url(#D)"/><ellipse cx="27.382" cy="32.21" rx="9.712" ry="10.165" fill="url(#E)" class="G"/><ellipse cx="-46.618" cy="32.21" transform="scale(-1 1)" ry="10.165" rx="9.712" fill="url(#F)" class="G"/><path d="M28.02 22.443c-4.331.008-7.057 2.163-8.326 5.23-1.275 3.082-1.028 7.133.873 10.799 2.634 4.611 6.636 9.257 10.1 13.236 1.732 1.991 3.327 3.815 4.557 5.4.791 1.021 1.35 1.884 1.777 2.709.428-.824.987-1.687 1.777-2.707 1.229-1.586 2.825-3.41 4.557-5.4 3.463-3.979 7.463-8.626 10.098-13.236 1.901-3.666 2.149-7.717.875-10.799-1.268-3.067-3.993-5.223-8.324-5.23-3.322.247-6.083 2.607-8.104 5.32a1.1 1.1 0 0 1-1.758 0c-2.021-2.714-4.78-5.075-8.102-5.322z" transform="matrix(1.003257 0 0 1.003257 -.119746 -.008521)" opacity=".75" fill="none" stroke="url(#H)" stroke-width="1.495" filter="url(#G)" class="I"/></svg>