<svg xmlns="http://www.w3.org/2000/svg" viewBox="0 0 74 66"><defs/><defs><filter id="a" width="1.16" height="1.22" x="-.08" y="-.11" class="B"><feGaussianBlur stdDeviation="1.4"/></filter><filter id="b" width="1.23" height="1.27" x="-.12" y="-.14" class="B"><feGaussianBlur stdDeviation="1.4"/></filter></defs><g stroke-linecap="round" stroke-linejoin="round"><path stroke="#00000077" stroke-width="4" d="M36.75 2.98a2.09 2.09 0 00-1.72.93L31.4 9.36l-1.54 2.13c-2.64 3.67-5.6 8-5.6 13.17 0 4.7 1.27 8.66 3.52 11.52l.24.26a13.5 13.5 0 00-2.38-.28 19.6 19.6 0 00-9.67 2.85c-4.48 2.59-6.75 7.34-8.6 11.44a2.09 2.09 0 000 0l-1.23 2.8-2.77 5.57a2.09 2.09 0 001.74 3.01l6.63.43 2.61.29c4.49.44 9.74.85 14.2-1.73 4.07-2.35 6.86-5.44 8.22-8.82.07-.17.09-.35.15-.53 1.26 3.53 3.96 6.9 8.2 9.36 3.08 1.77 6.43 2.07 9.4 2.03 2.89-.05 6.04-.47 8.74-.7h.04c.22-.03.48-.04.72-.06h.02l4.68-.22a2.09 2.09 0 001.74-3.07l-2.59-4.8c-1.9-3.93-4.26-11.56-10.17-14.98a19.53 19.53 0 00-9.72-2.85c-.21 0-.41 0-.62.02-.58.03-1.14.15-1.7.25.07-.09.16-.15.23-.24 2.24-2.86 3.53-6.83 3.53-11.52 0-5.16-2.97-9.49-5.6-13.13l-5.35-7.65a2.09 2.09 0 00-1.73-.9z"/><path fill="#ff66ce" d="M26.34 24.53c0-4.32 2.62-8.34 5.2-11.94.7-.98.77-1 1.57-2.15l3.65-5.49 5.36 7.65c2.57 3.59 5.2 7.62 5.2 11.93 0 8.64-4.72 14-10.5 14s-10.5-5.36-10.5-14zM14.56 60.32l-2.65-.29-6.67-.42 2.8-5.65 1.23-2.8c1.83-4.04 4-8.32 7.74-10.48 7.48-4.32 14.48-2.91 17.37 2.1 2.89 5 .61 11.76-6.87 16.08-3.74 2.16-8.54 1.9-12.95 1.46zm31.6-1.46c-7-4.03-9.45-10.23-7.36-15.12a9.7 9.7 0 01.49-.96c.18-.32.37-.62.6-.9 1.7-2.3 4.37-3.62 7.56-3.76 2.79-.12 5.96.69 9.2 2.56 4.86 2.8 7.33 9.94 9.36 14.1l2.6 4.85-4.75.21-.76.06c-2.78.25-5.92.67-8.63.7-2.8.06-5.73-.25-8.32-1.75z"/><path d="M18.99-85.69l-3.58.39-9.08.58.04.07 8.04 3.07 3.42 1.14c5.7 1.95 11.8 4.33 15.19 9.11 3.88 5.45 5.22 10.92 4.48 15.47a12.56 12.56 0 008.44-5.99c3.93-6.8.83-15.99-9.34-21.86-5.08-2.93-11.6-2.58-17.61-1.98z" filter="url(#a)" opacity=".35" transform="matrix(.77397 0 0 -.77397 -.25 -5.7)"/><path d="M77.09-85.22l3.58.39 9.08.58-.04.07-8.04 3.07-3.42 1.14c-5.7 1.95-11.8 4.33-15.19 9.11-3.88 5.45-5.22 10.92-4.48 15.47a12.56 12.56 0 01-8.44-5.99c-3.93-6.8-.83-15.99 9.34-21.86 5.08-2.93 11.6-2.58 17.61-1.98z" filter="url(#a)" opacity=".35" transform="matrix(.77397 0 0 -.77397 -.25 -5.33)"/><path d="M33.6-37.99c0 1.78.33 3.52.88 5.22 2.02-7.51 7.26-11.93 13.38-11.93s11.37 4.43 13.39 11.94c.56-1.7.88-3.44.88-5.22 0-11.73-6.42-19-14.28-19-7.85 0-14.26 7.28-14.26 19z" filter="url(#b)" opacity=".35" transform="matrix(.77397 0 0 -.77397 -.25 -5.7)"/></g></svg>