<svg xmlns="http://www.w3.org/2000/svg" xmlns:xlink="http://www.w3.org/1999/xlink" viewBox="0 0 64 64"><linearGradient id="A" gradientUnits="userSpaceOnUse" x1="35.241" x2="35.241" y1="81.497" y2="-2.518"><stop offset="0" stop-color="#8e8e8e"/><stop offset="1" stop-color="#b5b5b5"/></linearGradient><g fill="#fff"><use xlink:href="#C" stroke="#000000aa" stroke-width="4"/><use xlink:href="#C"/></g><path d="M11.168 11.885v1.916h4.904v-1.916zm6.506 0v1.916h4.629v-1.916zm6.23 0v1.916h4.076v-1.916zm5.678 0v1.916h1.789v-1.916zm3.391 0v1.916H43.35v-1.916zm11.978 0v1.916h7.881v-1.916zm-33.779 5.107v1.918h7.715v-1.918zm9.232 0v1.918h3.715v-1.918zm5.233 0v1.918h1.746v-1.918zm3.265 0v1.918h3.36v-1.918zm4.877 0v1.918h5.403v-1.918zm6.922 0v1.918h7.088v-1.918zm-29.529 5.112v1.912h6.4v-1.912zm8.445 0v1.912h10.631v-1.912zm12.676 0v1.912h5.135v-1.912zm7.182 0v1.912h4.072v-1.912zm6.117 0v1.912h6.539v-1.912zm-34.42 5.105v1.918h3.412v-1.918zm6.199 0v1.918h12.428v-1.918zm-6.203 7.666v1.914h6.404v-1.914zm8.535 0v1.914h10.631v-1.914zm12.762 0v1.914h4.783v-1.914zm6.914 0v1.914h4.078v-1.914zm6.209 0v1.914h6.543v-1.914zm-34.42 5.105v1.918h8.213V39.98zm10.242 0v1.918h8.797V39.98zm10.832 0l-.004 1.918h8.28V39.98zm10.307 0v1.918h5.666V39.98zm-31.381 5.11v1.914h8.959V45.09zm11.172 0v1.914h9.601V45.09zm11.814 0v1.914h9.032V45.09zm11.246 0v1.914h6.184V45.09zm-34.232 5.105v1.92h7.719v-1.92zm9.203 0v1.92h3.715v-1.92zm5.199 0v1.92h1.748v-1.92zm3.233 0v1.92h3.363v-1.92zm4.847 0v1.92h5.405v-1.92zm6.889 0v1.92h7.088v-1.92z" fill="url(#A)"/><defs ><path id="C" d="M8.857 5.001h46.286A3.855 3.855 0 0 1 59 8.858v46.285A3.855 3.855 0 0 1 55.143 59H8.857A3.855 3.855 0 0 1 5 55.143V8.857A3.855 3.855 0 0 1 8.857 5zm0 0"/></defs></svg>