<svg xmlns="http://www.w3.org/2000/svg" xmlns:xlink="http://www.w3.org/1999/xlink" viewBox="0 0 64 64"><g fill="#fff"><use stroke="#000000aa" stroke-width="4" xlink:href="#B"/><use xlink:href="#B"/></g><path fill="#888" d="M11 11.7V14h5.3v-2.3zm6.5 0V14h5v-2.3zm6.2 0V14h4.5v-2.3zm5.7 0V14h2.2v-2.3zm3.4 0V14h10.7v-2.3zm12 0V14H53v-2.3zM11 16.8v2.3h8v-2.3zm9.2 0v2.3h4.1v-2.3zm5.3 0v2.3h2v-2.3zm3.2 0v2.3h3.8v-2.3zm4.9 0v2.3h5.8v-2.3zm7 0v2.3H48v-2.3zM11 21.9v2.3h6.8V22zm8.4 0v2.3h11V22zm12.7 0v2.3h5.5V22zm7.2 0v2.3h4.4V22zm6.1 0v2.3h7V22zM11 27v2.3h3.8V27zm6.2 0v2.3H30V27zM11 34.7V37h6.8v-2.3zm8.5 0V37h11v-2.3zm12.8 0V37h5.1v-2.3zm6.9 0V37h4.4v-2.3zm6.2 0V37h7v-2.3zm-34.4 5v2.4h8.6v-2.3zm10.2 0v2.4h9.2v-2.3zm10.8 0v2.4h8.7v-2.3zm10.4 0v2.4h6v-2.3zM11 45v2.3h9.3v-2.3zm11.2 0v2.3h10v-2.3zm11.8 0v2.3h9.4v-2.3zm11.2 0v2.3h6.6v-2.3zM11 50v2.3h8V50zm9.2 0v2.3h4V50zm5.2 0v2.3h2.1V50zm3.2 0v2.3h3.8V50zm4.9 0v2.3h5.7V50zm6.8 0v2.3h7.5V50z"/><defs><path id="B" d="M8.9 5H55A3.9 3.9 0 0159 8.9V55a3.9 3.9 0 01-3.9 3.9H9A3.9 3.9 0 015 55.1V9A3.9 3.9 0 018.9 5zm0 0"/></defs></svg>