<svg xmlns="http://www.w3.org/2000/svg" viewBox="0 0 64 64"><defs><linearGradient id="A" gradientUnits="userSpaceOnUse" x1="28.885" x2="28.885" y1="59.649" y2="1.467"><stop offset="0" stop-color="#8e8e8e"/><stop offset="1" stop-color="#b5b5b5"/></linearGradient></defs><linearGradient  gradientUnits="userSpaceOnUse" x1="32" x2="32" y1="59.005" y2="4.987"><stop offset="0" stop-color="#e6e6e6"/><stop offset="1" stop-color="#f5f5f5"/></linearGradient><filter  height="1" width="1" x="0" y="0"><feColorMatrix in="SourceGraphic" values="0 0 0 0 1 0 0 0 0 1 0 0 0 0 1 0 0 0 1 0"/></filter><path d="M8.852 4.995h46.295a3.856 3.856 0 0 1 3.858 3.858v46.295a3.856 3.856 0 0 1-3.858 3.858H8.852a3.856 3.856 0 0 1-3.858-3.858V8.852a3.856 3.856 0 0 1 3.858-3.858zm0 0" fill="#fff" stroke="#00000077" stroke-width="3.856"/><g transform="matrix(1.271208 0 0 1.444265 -3.380106 -4.644926)"><path d="M14.826 22.054h9.779v1.329h-9.779z" fill="url(#A)"/><path d="M11.444 22.054h2.685v1.329h-2.685z" fill="url(#A)"/><path d="M30.487 16.748h3.762v1.325h-3.762z" fill="url(#A)"/><path d="M38.526 16.748h5.144v1.325h-5.144z" fill="url(#A)"/><path d="M34.783 16.748h3.204v1.325h-3.204z" fill="url(#A)"/><path d="M25.912 16.748h4.04v1.325h-4.04z" fill="url(#A)"/><path d="M17.013 16.748h8.364v1.325h-8.364z" fill="url(#A)"/><path d="M11.444 16.748h5.035v1.325h-5.035z" fill="url(#A)"/><path d="M38.379 19.403h4.861v1.325h-4.861z" fill="url(#A)"/><path d="M30.72 19.403h7.106v1.325H30.72z" fill="url(#A)"/><path d="M27.15 19.403h3.016v1.325H27.15z" fill="url(#A)"/><path d="M19.047 19.403h7.55v1.325h-7.554z" fill="url(#A)"/><path d="M11.444 19.403h7.049v1.325h-7.049z" fill="url(#A)"/><path d="M34.677 14.093h5.578v1.329h-5.578z" fill="url(#A)"/><path d="M29.873 14.093h4.251v1.329h-4.251z" fill="url(#A)"/><path d="M26.672 14.093h2.647v1.329h-2.647z" fill="url(#A)"/><path d="M23.475 14.093h2.644v1.329h-2.644z" fill="url(#A)"/><path d="M21.547 14.093h1.375v1.329h-1.375z" fill="url(#A)"/><path d="M18.071 14.093h2.922v1.329h-2.922z" fill="url(#A)"/><path d="M11.444 14.093h6.07v1.329h-6.07z" fill="url(#A)"/><path d="M38.021 11.442h6.202v1.326h-6.202z" fill="url(#A)"/><path d="M29.334 11.442h8.164v1.326h-8.164z" fill="url(#A)"/><path d="M25.659 11.442h3.148v1.326h-3.148z" fill="url(#A)"/><path d="M23.723 11.442h1.408v1.326h-1.408z" fill="url(#A)"/><path d="M19.992 11.442H23.2v1.326h-3.208z" fill="url(#A)"/><path d="M15.827 11.442h3.641v1.326h-3.641z" fill="url(#A)"/><path d="M11.44 11.442h3.86v1.326h-3.86z" fill="url(#A)"/><path d="M30.483 27.363h3.762v1.326h-3.762z" fill="url(#A)"/><path d="M38.523 27.363h5.148v1.326h-5.148z" fill="url(#A)"/><path d="M34.779 27.363h3.208v1.326h-3.208z" fill="url(#A)"/><path d="M25.912 27.363h4.036v1.326h-4.036z" fill="url(#A)"/><path d="M17.013 27.363h8.364v1.326h-8.364z" fill="url(#A)"/><path d="M11.44 27.363h5.039v1.326H11.44z" fill="url(#A)"/><path d="M38.375 35.323h4.865v1.325h-4.865z" fill="url(#A)"/><path d="M30.716 35.323h7.106v1.325h-7.106z" fill="url(#A)"/><path d="M27.146 35.323h3.02v1.325h-3.02z" fill="url(#A)"/><path d="M19.043 35.323h7.554v1.325h-7.554z" fill="url(#A)"/><path d="M11.44 35.323h7.049v1.325H11.44z" fill="url(#A)"/><path d="M36.131 32.669h4.459v1.328h-4.459z" fill="url(#A)"/><path d="M29.112 32.669h6.511v1.328h-6.515z" fill="url(#A)"/><path d="M25.839 32.669h2.765v1.328h-2.765z" fill="url(#A)"/><path d="M18.41 32.669h6.922v1.328H18.41z" fill="url(#A)"/><path d="M11.44 32.669h6.462v1.328H11.44z" fill="url(#A)"/><path d="M34.55 37.974h5.577v1.329H34.55z" fill="url(#A)"/><path d="M29.794 37.974h4.251v1.329h-4.251z" fill="url(#A)"/><path d="M26.311 37.974h2.647v1.329h-2.647z" fill="url(#A)"/><path d="M23.215 37.974h2.647v1.329h-2.647z" fill="url(#A)"/><path d="M21.501 37.974h1.375v1.329h-1.375z" fill="url(#A)"/><path d="M17.962 37.974h2.922v1.329h-2.922z" fill="url(#A)"/><path d="M11.44 37.974h6.074v1.329H11.44z" fill="url(#A)"/><path d="M38.021 30.014h6.199v1.329h-6.199z" fill="url(#A)"/><path d="M29.334 30.014h8.16v1.329h-8.163z" fill="url(#A)"/><path d="M25.655 30.014h3.152v1.329h-3.152z" fill="url(#A)"/><path d="M23.723 30.014h1.408v1.329h-1.408z" fill="url(#A)"/><path d="M19.992 30.014h3.204v1.329h-3.204z" fill="url(#A)"/><path d="M15.823 30.014h3.641v1.329h-3.641z" fill="url(#A)"/><path d="M11.44 30.014h3.86v1.329h-3.86z" fill="url(#A)"/></g></svg>