<svg xmlns="http://www.w3.org/2000/svg" xmlns:xlink="http://www.w3.org/1999/xlink" viewBox="0 0 64 64"><defs/><g fill="#fff"><use stroke="#000000aa" stroke-width="4" xlink:href="#B"/><use xlink:href="#B"/></g><path fill="#888" d="M10.98 11.7v2.29h5.28v-2.3zm6.5 0v2.29h5.01v-2.3zm6.23 0v2.29h4.46v-2.3zm5.68 0v2.29h2.17v-2.3zm3.4 0v2.29h10.75v-2.3zm11.97 0v2.29h8.26v-2.3zm-33.78 5.1v2.3h8.1v-2.3zm9.24 0v2.3h4.09v-2.3zm5.23 0v2.3h2.12v-2.3zm3.26 0v2.3h3.74v-2.3zm4.88 0v2.3h5.78v-2.3zm6.92 0v2.3h7.47v-2.3zm-29.53 5.11v2.3h6.78v-2.3zm8.45 0v2.3h11v-2.3zm12.67 0v2.3h5.52v-2.3zm7.19 0v2.3h4.45v-2.3zm6.11 0v2.3h6.92v-2.3zm-34.42 5.1v2.3h3.8v-2.29zm6.2 0v2.3H30v-2.29zm-6.2 7.67v2.3h6.78v-2.3zm8.53 0v2.3h11.01v-2.3zm12.77 0v2.3h5.16v-2.3zm6.91 0v2.3h4.46v-2.3zm6.21 0v2.3h6.92v-2.3zm-34.42 5.1v2.3h8.6v-2.3zm10.24 0v2.3h9.18v-2.3zm10.83 0v2.3h8.66v-2.3zm10.31 0v2.3h6.05v-2.3zM10.98 44.9v2.3h9.34v-2.3zm11.17 0v2.3h9.98v-2.3zm11.82 0v2.3h9.4v-2.3zm11.24 0v2.3h6.56v-2.3zM10.98 50v2.3h8.1V50zm9.2 0v2.3h4.1V50zm5.2 0v2.3h2.13V50zm3.23 0v2.3h3.75V50zm4.85 0v2.3h5.78V50zm6.89 0v2.3h7.47V50z"/><defs><path id="B" d="M8.86 5h46.28A3.85 3.85 0 0159 8.86v46.28A3.85 3.85 0 0155.14 59H8.86A3.85 3.85 0 015 55.14V8.86A3.85 3.85 0 018.86 5zm0 0"/></defs></svg>