<svg xmlns="http://www.w3.org/2000/svg" xmlns:xlink="http://www.w3.org/1999/xlink" viewBox="0 0 64 64"><linearGradient  gradientUnits="userSpaceOnUse" x1="35.241" x2="35.241" y1="81.497" y2="-2.518"><stop offset="0" stop-color="#8e8e8e"/><stop offset="1" stop-color="#b5b5b5"/></linearGradient><g fill="#fff"><use xlink:href="#B" stroke="#000000aa" stroke-width="4"/><use xlink:href="#B"/></g><path d="M10.979 11.695v2.295h5.283v-2.295zm6.506 0v2.295h5.008v-2.295zm6.23 0v2.295h4.455v-2.295zm5.678 0v2.295h2.168v-2.295zm3.391 0v2.295h10.756v-2.295zm11.979 0v2.295h8.26v-2.295zm-33.779 5.107V19.1h8.094v-2.297zm9.232 0V19.1h4.094v-2.297zm5.232 0V19.1h2.125v-2.297zm3.266 0V19.1h3.738v-2.297zm4.877 0V19.1h5.781v-2.297zm6.922 0V19.1h7.467v-2.297zm-29.529 5.111v2.291h6.779v-2.291zm8.445 0v2.291h11.01v-2.291zm12.676 0v2.291h5.514v-2.291zm7.182 0v2.291h4.451v-2.291zm6.117 0v2.291h6.918v-2.291zm-34.42 5.105v2.297h3.791V27.02zm6.199 0v2.297h12.807V27.02zm-6.203 7.666v2.293h6.783v-2.293zm8.535 0v2.293h11.01v-2.293zm12.762 0v2.293h5.162v-2.293zm6.914 0v2.293h4.457v-2.293zm6.209 0v2.293h6.922v-2.293zm-34.42 5.105v2.297h8.592v-2.297zm10.242 0v2.297h9.176v-2.297zm10.832 0l-.004 2.297h8.658v-2.297zm10.307 0v2.297h6.045v-2.297zM10.979 44.9v2.293h9.338V44.9zm11.172 0v2.293h9.98V44.9zm11.814 0v2.293h9.41V44.9zm11.246 0v2.293h6.563V44.9zm-34.232 5.105v2.299h8.098v-2.299zm9.203 0v2.299h4.094v-2.299zm5.199 0v2.299h2.127v-2.299zm3.232 0v2.299h3.742v-2.299zm4.848 0v2.299h5.783v-2.299zm6.889 0v2.299h7.467v-2.299z" fill="#888"/><defs><path id="B" d="M8.857 5.001h46.286A3.855 3.855 0 0 1 59 8.858v46.285A3.855 3.855 0 0 1 55.143 59H8.857A3.855 3.855 0 0 1 5 55.143V8.857A3.855 3.855 0 0 1 8.857 5zm0 0"/></defs></svg>