<svg xmlns="http://www.w3.org/2000/svg" viewBox="0 0 64 64"><path d="M29.095 5.152C14.791 5.152 3 17.646 3 31.945S14.598 59.26 28.896 58.838H61v-4.855H28.896c-11.618-.001-21.039-10.42-21.043-22.038.004-11.618 9.624-21.937 21.242-21.938zm.921 7.954a18.841 18.841 0 0 0-18.837 18.839 18.841 18.841 0 0 0 18.837 18.84H61v-4.711H30.016a14.13 14.13 0 0 1-14.129-14.129 14.13 14.13 0 0 1 14.129-14.129c1.895 0 3.694.377 5.346 1.054l1.794-4.366a18.794 18.794 0 0 0-7.14-1.399zm1.498 7.889v.002c-6.599.002-11.948 4.35-11.948 10.949s5.349 10.947 11.948 10.949H61v-4.481H31.515c-4.125-.001-7.469-2.344-7.471-6.469s3.346-6.468 7.471-6.469a7.44 7.44 0 0 1 5.274 2.197l3.173-3.177c-2.241-2.241-5.278-3.502-8.447-3.502z" fill="#4a0"/></svg>