<svg xmlns="http://www.w3.org/2000/svg" viewBox="0 0 64 64"><defs><linearGradient id="A" y1="60.215" y2="3.939" gradientUnits="userSpaceOnUse" x1="33.52" x2="33.52"><stop offset="0" stop-color="#e6e6e6"/><stop offset="1" stop-color="#fff"/></linearGradient><linearGradient id="B" gradientUnits="userSpaceOnUse" x1="33.52" x2="33.52" y1="3.785" y2="60.061"><stop offset="0" stop-color="gray"/><stop offset="1" stop-color="#b3b3b3"/></linearGradient></defs><path d="M8.857 5h46.286A3.855 3.855 0 0 1 59 8.857v46.286A3.855 3.855 0 0 1 55.143 59H8.857A3.855 3.855 0 0 1 5 55.143V8.857A3.855 3.855 0 0 1 8.857 5zm0 0" fill="none" stroke="#000000aa" stroke-width="4"/><path d="M8.856 59A3.855 3.855 0 0 1 5 55.144V8.856A3.855 3.855 0 0 1 8.856 5h46.287A3.855 3.855 0 0 1 59 8.856v46.287A3.855 3.855 0 0 1 55.144 59z" opacity=".2" fill="url(#A)"/><path d="M8.856 5A3.855 3.855 0 0 0 5 8.856v46.287A3.855 3.855 0 0 0 8.856 59h46.287A3.855 3.855 0 0 0 59 55.144V8.856A3.855 3.855 0 0 0 55.144 5zm1.271 5.666h5.689v5.685h-5.689zm38.056 0h5.689v5.685h-5.689zM10.127 22.996h5.689v5.687h-5.689zm38.056 0h5.689v5.687h-5.689zm-22.62.057L40.475 32l-14.911 8.949zM10.127 35.321h5.689v5.685h-5.689zm38.056 0h5.689v5.685h-5.689zM10.127 47.65h5.689v5.683h-5.689zm38.056 0h5.689v5.683h-5.689z" fill="url(#B)"/></svg>