<svg xmlns="http://www.w3.org/2000/svg" viewBox="0 0 64 64"><defs/><defs><linearGradient id="a" x1="33.52" x2="33.52" y1="60.22" y2="3.94" gradientUnits="userSpaceOnUse"><stop offset="0" stop-color="#e6e6e6"/><stop offset="1" stop-color="#fff"/></linearGradient><linearGradient id="b" x1="33.52" x2="33.52" y1="3.79" y2="60.06" gradientUnits="userSpaceOnUse"><stop offset="0" stop-color="gray"/><stop offset="1" stop-color="#b3b3b3"/></linearGradient></defs><path fill="none" stroke="#000000aa" stroke-width="4" d="M8.86 5h46.28A3.85 3.85 0 0159 8.86v46.28A3.85 3.85 0 0155.14 59H8.86A3.85 3.85 0 015 55.14V8.86A3.85 3.85 0 018.86 5zm0 0"/><path fill="url(#a)" d="M8.86 59A3.85 3.85 0 015 55.14V8.86A3.85 3.85 0 018.86 5h46.28A3.85 3.85 0 0159 8.86v46.28A3.85 3.85 0 0155.14 59z" opacity=".2"/><path fill="url(#b)" d="M8.86 5A3.85 3.85 0 005 8.86v46.28A3.85 3.85 0 008.86 59h46.28A3.85 3.85 0 0059 55.14V8.86A3.85 3.85 0 0055.14 5zm1.27 5.67h5.69v5.68h-5.7zm38.05 0h5.7v5.68h-5.7zM10.13 23h5.69v5.68h-5.7zm38.05 0h5.7v5.68h-5.7zm-22.62.05L40.48 32l-14.92 8.95zM10.13 35.32h5.69v5.69h-5.7zm38.05 0h5.7v5.69h-5.7zM10.13 47.65h5.69v5.68h-5.7zm38.05 0h5.7v5.68h-5.7z"/></svg>