<svg xmlns="http://www.w3.org/2000/svg" viewBox="0 0 64 64"><linearGradient id="A" gradientUnits="userSpaceOnUse" x1="33.577" x2="33.577" y1="2.725" y2="61.115"><stop offset="0" stop-color="#333"/><stop offset="1" stop-color="#4d4d4d"/></linearGradient><path d="M7.988 3.986h48.024a4 4 0 0 1 4.002 4.002v48.024a4 4 0 0 1-4.002 4.002H7.988a4 4 0 0 1-4.002-4.002V7.988a4 4 0 0 1 4.002-4.002zm0 0" fill="url(#A)" stroke="#00000077" stroke-width="2.702" transform="matrix(.988 0 0 .988 .398 .398)"/><path d="M25.416 22.841v18.345l15.286-9.173zm23.187 25.215v5.826h5.832v-5.826zm0-12.638v5.828h5.832v-5.828zm0-12.636v5.83h5.832v-5.83zm0-12.638v5.828h5.832v-5.828zM9.593 48.056v5.826h5.832v-5.826zm0-12.638v5.828h5.832v-5.828zm0-12.636v5.83h5.832v-5.83zm0-12.638v5.828h5.832v-5.828z" fill="#fff"/></svg>