<svg xmlns="http://www.w3.org/2000/svg" viewBox="0 0 64 64"><defs/><linearGradient id="a" x1="35.55" x2="35.55" y1="32.85" y2="19.69" gradientUnits="userSpaceOnUse"><stop offset="0" stop-color="#d40000"/><stop offset="1" stop-color="#f55"/></linearGradient><path stroke="#00000077" stroke-linejoin="round" stroke-width="4" d="M13.65 34.6l1.86 1.38 1.74.96L32 11.46 46.7 36.93l1.73-.94 1.87-1.4-15.96-27.6a2.73 2.73 0 00-4.73 0zm0 0L2.3 54.2a2.72 2.72 0 000 2.73 2.73 2.73 0 002.37 1.36h54.61a2.73 2.73 0 002.37-1.36c.49-.85.49-1.89 0-2.73L50.3 34.59l-1.87 1.4-1.73.94 9.87 17.09H7.38l9.87-17.08-1.74-.95-1.86-1.4z"/><path fill="url(#a)" d="M32.01 5.65c-.97 0-1.87.52-2.36 1.37L2.35 54.25a2.73 2.73 0 002.35 4.1h54.6c2.1 0 3.41-2.28 2.36-4.1L34.38 7.02A2.73 2.73 0 0032 5.65z"/><path fill="#fff" stroke="red" stroke-linejoin="round" d="M32.01 11.76L56.6 54.32H7.4l24.61-42.56z"/><path d="M29.23 23.6h5.54v16.16h-5.54zm0 20.46h5.54v6.16h-5.54z"/></svg>