<svg xmlns="http://www.w3.org/2000/svg" viewBox="0 0 64 64"><linearGradient id="a" x1="35.5" x2="35.5" y1="32.9" y2="19.7" gradientUnits="userSpaceOnUse"><stop offset="0" stop-color="#d40000"/><stop offset="1" stop-color="#f55"/></linearGradient><path stroke="#00000077" stroke-linejoin="round" stroke-width="4" d="M13.7 34.6l1.8 1.4 1.7 1L32 11.4l14.7 25.4 1.7-1 1.9-1.3L34.3 7a2.7 2.7 0 00-4.7 0zm0 0L2.3 54.2a2.7 2.7 0 000 2.7 2.7 2.7 0 002.4 1.4h54.6a2.7 2.7 0 002.4-1.4c.4-.8.4-1.9 0-2.7L50.3 34.6 48.4 36l-1.7 1 9.9 17H7.4l9.9-17-1.8-1-1.9-1.4z"/><path fill="url(#a)" d="M32 5.7c-1 0-1.9.5-2.4 1.3L2.3 54.3a2.7 2.7 0 002.4 4h54.6c2.1 0 3.4-2.2 2.4-4L34.4 7A2.7 2.7 0 0032 5.7z"/><path fill="#fff" stroke="red" stroke-linejoin="round" d="M32 11.8l24.6 42.5H7.4L32 11.8z"/><path d="M29.2 23.6h5.6v16.2h-5.6zm0 20.5h5.6v6.1h-5.6z"/></svg>