<svg xmlns="http://www.w3.org/2000/svg" xmlns:xlink="http://www.w3.org/1999/xlink" viewBox="0 0 64 64"><linearGradient id="a" x1="32" x2="32" y1="59.7" y2="4.3" gradientUnits="userSpaceOnUse"><stop offset="0" stop-color="#e6e6e6"/><stop offset="1" stop-color="#f5f5f5"/></linearGradient><g fill="url(#a)" transform="matrix(.976 0 0 .976 .8 .8)"><use stroke="#000000aa" stroke-width="4" xlink:href="#C"/><use xlink:href="#C"/></g><path fill="#f59608" d="M32.8 34l-4.1 13.9c3.5 2.4 7.5 4.3 15.7.9l3.9-13.6c-8.4 2.9-12 1.1-15.6-1.2zm0 0"/><path fill="#2c609f" d="M22.6 30c-2.1 0-4.6.5-7.7 1.8l-4 13.9c8.2-3.4 12-1.4 15.6 1l4.1-14a13 13 0 00-8-2.8zm0 0"/><path fill="#38701a" d="M37.5 17.6l-4 14C37 34 41.1 36 49 32.5l4-14C45 22 41 20 37.4 17.6zm0 0"/><path fill="#c91e05" d="M27.3 13.4c-2.1 0-4.6.6-7.7 1.8l-4 14c3.3-1.4 5.8-2 8-2 3.2 0 5.5 1.4 7.7 2.9l4-14a13.2 13.2 0 00-8-2.7zm0 0"/><defs><path id="C" d="M8.3 4.3h47.4a4 4 0 014 4v47.4a4 4 0 01-4 4H8.3a4 4 0 01-4-4V8.3a4 4 0 014-4zm0 0"/></defs></svg>