<svg xmlns="http://www.w3.org/2000/svg" xmlns:xlink="http://www.w3.org/1999/xlink" viewBox="0 0 64 64"><linearGradient id="A" gradientUnits="userSpaceOnUse" x1="32.004" x2="32.004" y1="59.682" y2="4.318"><stop offset="0" stop-color="#e6e6e6"/><stop offset="1" stop-color="#f5f5f5"/></linearGradient><g fill="url(#A)" transform="matrix(.976 0 0 .976 .779 .779)"><use xlink:href="#C" stroke="#000000aa" stroke-width="4"/><use xlink:href="#C"/></g><path d="M32.754 33.958L28.7 47.851c3.545 2.402 7.493 4.334 15.684.948l3.885-13.558c-8.344 2.856-11.966 1.102-15.515-1.283zm0 0" fill="#f59608"/><path d="M22.551 29.931c-2.078.048-4.545.584-7.607 1.847h-.053L10.893 45.7c8.194-3.389 12.075-1.442 15.627.948l4.079-14.031c-2.211-1.503-4.59-2.771-8.048-2.686zm0 0" fill="#2c609f"/><path d="M37.449 17.629l-4.027 13.979c3.542 2.398 7.814 4.375 15.657.867l4.027-13.95c-8.183 3.382-12.116 1.491-15.657-.895zm0 0" fill="#38701a"/><path d="M27.274 13.38c-2.078.033-4.561.575-7.632 1.847l-4.026 13.98c3.256-1.345 5.812-1.972 7.967-1.957 3.265.021 5.55 1.381 7.688 2.819l4.052-13.918c-2.217-1.503-4.585-2.823-8.049-2.771zm0 0" fill="#c91e05"/><defs ><path id="C" d="M8.279 4.326h47.442a3.95 3.95 0 0 1 3.953 3.953v47.442a3.95 3.95 0 0 1-3.953 3.953H8.279a3.95 3.95 0 0 1-3.953-3.953V8.279a3.95 3.95 0 0 1 3.953-3.953zm0 0"/></defs></svg>