<svg xmlns="http://www.w3.org/2000/svg" xmlns:xlink="http://www.w3.org/1999/xlink" viewBox="0 0 64 64"><defs/><linearGradient id="a" x1="32" x2="32" y1="59.68" y2="4.32" gradientUnits="userSpaceOnUse"><stop offset="0" stop-color="#e6e6e6"/><stop offset="1" stop-color="#f5f5f5"/></linearGradient><g fill="url(#a)" transform="matrix(.976 0 0 .976 .78 .78)"><use stroke="#000000aa" stroke-width="4" xlink:href="#C"/><use xlink:href="#C"/></g><path fill="#f59608" d="M32.75 33.96l-4.05 13.9c3.54 2.4 7.5 4.32 15.68.94l3.89-13.56c-8.35 2.86-11.97 1.1-15.52-1.28zm0 0"/><path fill="#2c609f" d="M22.55 29.93c-2.08.05-4.54.59-7.6 1.85h-.06l-4 13.92c8.2-3.39 12.08-1.44 15.63.95l4.08-14.03c-2.21-1.5-4.6-2.77-8.05-2.69zm0 0"/><path fill="#38701a" d="M37.45 17.63L33.42 31.6c3.54 2.4 7.82 4.37 15.66.87l4.03-13.95c-8.19 3.38-12.12 1.49-15.66-.9zm0 0"/><path fill="#c91e05" d="M27.27 13.38c-2.07.03-4.56.57-7.63 1.85L15.62 29.2c3.25-1.35 5.8-1.98 7.96-1.96 3.27.02 5.55 1.38 7.7 2.82l4.04-13.92c-2.21-1.5-4.58-2.82-8.05-2.77zm0 0"/><defs><path id="C" d="M8.28 4.33h47.44a3.95 3.95 0 013.95 3.95v47.44a3.95 3.95 0 01-3.95 3.95H8.28a3.95 3.95 0 01-3.95-3.95V8.28a3.95 3.95 0 013.95-3.95zm0 0"/></defs></svg>