<svg xmlns="http://www.w3.org/2000/svg" viewBox="0 0 640 480"><defs/><path fill="gray" d="M0 0h640v480H0z"/><path fill="#fff" d="M264.19 386.2q0-20.94 11.24-31.72 11.24-10.77 32.8-10.77 20.78 0 32.02 11.08 11.54 11.09 11.54 31.56 0 19.71-11.54 31.26-11.55 11.24-32.03 11.24-20.94 0-32.48-11.09-11.55-11.24-11.55-31.56zm8-85.45v-18.48q0-24.01 10.32-41.72 10.32-17.7 37.57-37.72 26.32-18.78 34.48-30.48 8.47-11.7 8.47-26.33 0-16.32-12-24.8-12-8.46-33.56-8.46-37.57 0-85.45 24.48l-27.25-54.8Q260.49 51.17 323 51.17q51.58 0 81.75 24.78 30.49 24.8 30.49 66.05 0 27.56-12.47 47.58-12.47 20.01-47.58 44.96-24.01 17.7-30.48 26.94-6.31 9.24-6.31 24.33v14.93z"/></svg>