<svg height="480" width="640" xmlns="http://www.w3.org/2000/svg"><path d="m0 0h640v480h-640z" fill="#808080"/><path d="m264.188 386.2q0-20.94 11.24-31.717 11.24-10.777 32.794-10.777 20.785 0 32.025 11.085 11.547 11.085 11.547 31.563 0 19.707-11.547 31.255-11.547 11.24-32.025 11.24-20.94 0-32.486-11.085-11.547-11.24-11.547-31.563zm8.006-85.45v-18.476q0-24.018 10.316-41.724 10.316-17.706 37.567-37.72 26.328-18.784 34.488-30.485 8.468-11.7 8.468-26.328 0-16.32-12-24.788-12-8.468-33.564-8.468-37.567 0-85.45 24.48l-27.252-54.8q55.725-31.275 118.233-31.275 51.578 0 81.755 24.788 30.485 24.788 30.485 66.05 0 27.56-12.47 47.575-12.47 20.015-47.575 44.958-24.018 17.706-30.485 26.944-6.313 9.238-6.313 24.326v14.935z" fill="#fff"/></svg>