<svg xmlns="http://www.w3.org/2000/svg" viewBox="0 0 640 480"><path fill="gray" d="M0 0h640v480H0z"/><path fill="#fff" d="M264.2 386.2q0-21 11.2-31.7 11.3-10.8 32.8-10.8 20.8 0 32 11 11.6 11.2 11.6 31.7 0 19.7-11.5 31.2-11.6 11.2-32 11.2-21 0-32.6-11-11.5-11.3-11.5-31.6zm8-85.5v-18.4q0-24 10.3-41.8 10.3-17.7 37.6-37.7 26.3-18.8 34.5-30.5 8.4-11.7 8.4-26.3 0-16.3-12-24.8-12-8.4-33.5-8.4-37.6 0-85.5 24.4l-27.2-54.8Q260.5 51.2 323 51.2q51.6 0 81.8 24.8 30.4 24.8 30.4 66 0 27.6-12.4 47.6-12.5 20-47.6 45-24 17.6-30.5 26.9-6.3 9.2-6.3 24.3v15z"/></svg>