<svg xmlns="http://www.w3.org/2000/svg" xmlns:xlink="http://www.w3.org/1999/xlink" viewBox="0 0 640 480"><defs/><path fill="#d0103a" d="M0 0h640v480H0z"/><path fill="#fedf00" d="M0 0h435v480H0z"/><path fill="#0018a8" d="M0 0h205v480H0z"/><path fill="#c7b37f" d="M300 137c9 0 15 9 24 6 7-5 23-11 23 3-4 7-7 21 6 20 5 0 16-4 7-7 0-8 10-11 15-9 9 0 16 3 22 10 10 11-11 18-11 29 0 6 5-7 7 3-1 4 9-3 12 2 12 6 14 27 2 35-4 2-7 2-2 6 2 6-6 6-8 6-6 5-2 24 6 17 8 2 12 19 0 17 12 8 8 27-3 34-15 11-33 6-50 10-5 2-10 5-4 10 1 10-14 11-20 10-3 6-10 5-14-1-7 7-27-7-14-14-8-8-21-6-31-7-13-1-27-4-34-15-7-8-2-23 1-27-10-1-4-19 4-16 7 3 10-14 4-19-7 6-9-7-6-9-16-6-16-32 0-38 5-4 12 4 11-4 4-4 8 5 6-3-3-9-15-13-14-23 5-5 10-11 17-12 8-1 20-4 24 6 1 6-13 4 1 8 6 3 20-2 13-10-4-6-3-19 6-18z"/><g fill="#fedf00" transform="matrix(.64 0 0 .64 0 16)"><path fill="#d52b1e" d="M413 249h82v82h-82z"/><path id="a" fill="#fff" d="M451 314l-1 5-2 4a13 13 0 01-3 4l-6 2c-6-1-8-7-10-11-1-6-4-8-7-6v4a9 9 0 004 3l-3 4s-6-1-8-8c0-2 1-7 5-8 6-2 9 2 11 5 2 4 3 12 9 11 3-1 5-5 5-8l2-2 4 1z"/><use transform="matrix(-1 0 0 1 908 0)" xlink:href="#a"/><path d="M461 279l11-12 2-3h-3v-2l3-1v-2h-3v-2h1l2-1h1c2-3 10-6 15-1 4 4 3 11-2 13a6 6 0 01-7-1l2-4c3 2 5 0 5-2 0-3-2-4-4-5s-4 1-5 3l-1 4v4a9 9 0 01-3 3l-11 12-43 47-3-3z"/><path fill="#fff" d="M430 283s2 13 11 34c5-2 8-3 13-3l12 2a171 171 0 0012-33l-24-31-25 31z"/><path d="M456 262l17 22s-2 11-9 26l-8-1zm-5 0l-16 22s2 11 9 26l7-1z"/></g><g fill="#d52b1e"><path fill="#fedf00" d="M322 176h53v52h-53z"/><path d="M330 176h7v52h-7zm15 0h7v52h-7zm15 0h8v52h-8z"/><g stroke="#d52b1e"><path fill="#fedf00" stroke="none" d="M264 274l2 4 2 4a15 15 0 004 3 33 33 0 0015 2l7-1a71 71 0 0111 0h5l7 2v-54h-53v39z"/><path stroke-width=".3" d="M270 283l3 2 3 1v-52h-6zm30 3v-52h-6v52h6zm11-52h-6v52l6 1v-53zm-23 0v53h-6v-53z"/></g></g><g transform="matrix(.64 0 0 .64 0 16)"><path fill="#fedf00" d="M586 402a21 21 0 01-3 7l-4 6a26 26 0 01-13 7 52 52 0 01-17 2l-10-1a75 75 0 00-11-1 63 63 0 00-6 0 83 83 0 00-18 4v-86h82v59l-1 3z"/><g id="b"><path fill="#d52b1e" d="M525 347h-1l-1 1-1 1h-1v2l-1 1-2 1h-1v2l1 1v1h1l2 1h2l1 1h2l2 1a2 2 0 000 1l1 4 1 1-2 2v3l2 2v2l1 2 1 1v-1l1-1v-1-1h1l-1-1-2-2 1-1 2-2h1l1 1h2v10h-1v1l1 1h2v-1h1v-1-2a12 12 0 010-3v-1l1-2v-3a24 24 0 0010 0l3 1v2h1v-1h2v1h1v-2h1a5 5 0 010 1v1l-1 1-1 2-1 1-1 1-2 1v1l1 1h2v-1h1l1-1 1-1a13 13 0 013-4l1-1 1-1v-2l1 1v8a4 4 0 01-1 2h-1v1l1 1h2v-2h1v-1l1-4v-2l1-2-1-4-1-1v-3a43 43 0 010-3l3-2a3 3 0 000-2v-2a3 3 0 00-1-1l-3-1-4-1h-4l-5 1h-11l-6 1a67 67 0 01-4 0l-2-1h1l1-2 1-1a2 2 0 00-1 0h-1a3 3 0 00-1 0l-1 1-2-1a9 9 0 00-3-1z"/><g fill="none" stroke="#fedf00"><path stroke-linecap="round" d="M569 360h-4c-2 1-4-1-7-1l-3 2a9 9 0 01-2 0l1-1-2 1a8 8 0 01-2-1l1-1h-1a4 4 0 01-1-1 21 21 0 001 0l4-1 8 1 6-1 1-2-1-1-1-1"/><path fill="#fcd900" stroke-width=".5" d="M525 351h-2v1h2v-1z"/><path stroke-linecap="round" d="M536 364a14 14 0 001 2v4m7-7v1l-1 4v0m-11-4c1 0 0 4 2 4"/><path d="M560 370h1a8 8 0 002-2"/><path stroke-linecap="round" d="M552 368l8-3m-4-1h1c1-1 1 0 2 1l5 3h0l1 1"/><path fill="#fcd900" stroke-width=".5" d="M518 355h0l1-1 1 1s0 0 0 0 0 0 0 0v1l-1-1a1 1 0 010 0 1 1 0 01-1 0 1 1 0 010 0z"/></g><path fill="#0065bd" d="M525 364l-2-1h1l1-1v-2h1l1 1v4l-2-1zm-1 1zm-2-16v-2a4 4 0 01-1-1v-2-1h1l1 1v3h1l-1 1zm4 10l2 1a9 9 0 004-4l1-4h-2l-2 4-2 3zm5 18l1-1 1-1h1a9 9 0 01-1 3v1h-1l-1-2zm33 2l1 1 2 1h-2a8 8 0 01-1 0h-1l1-2zm-10-2l2 1 1 1a9 9 0 01-3 0h-1l1-2zm-17 2l1 1 2 1a9 9 0 01-3 1h-1l-1-1 2-2zm-9-29l-1-2 1-1v-2-2l1-1v2l1 2v2a2 2 0 01-2 2z"/></g><use y="37" xlink:href="#b"/></g><path fill="none" stroke="#703d29" stroke-width=".5" d="M264 176h53v52h-53zm58 0h53v52h-53zm-58 98l2 4 2 4a15 15 0 004 3 33 33 0 0015 2l7-1a71 71 0 0111 0h5l7 2v-54h-53v39zm111 0a13 13 0 01-2 4l-2 4a15 15 0 01-4 3l-5 1a33 33 0 01-10 1l-7-1a71 71 0 00-7 0 41 41 0 00-4 0h-5l-7 2v-54h53v40z"/></svg>