<svg xmlns="http://www.w3.org/2000/svg" xmlns:xlink="http://www.w3.org/1999/xlink" viewBox="0 0 640 480"><path fill="#d0103a" d="M0 0h640v480H0z"/><path fill="#fedf00" d="M0 0h435.2v480H0z"/><path fill="#0018a8" d="M0 0h204.8v480H0z"/><path fill="#c7b37f" d="M300.4 136.6c7.7 0 10.9 6.6 18.6 6.6 4.7 0 7.5-1.5 11.7-3.9 2.9-1.6 4.7-2.5 8-2.5 3.4 0 5.5 1 7.3 4 1 1.6 1.8 4.9 1.3 6.7a40 40 0 01-2.7 8.3c-.7 1.6-1.3 2.5-1.3 4.2 0 4.1 5.6 5.5 9.4 5.6.8 0 7.7 0 12-4.2-2.3-.1-4.9-2-4.9-4.3 0-2.6 1.8-4.3 4.3-5.1.5-.1 1.3.3 1.7 0 .7-.3.4-1 1-1.4 1.2-1 2-1.6 3.6-1.6 1 0 1.6.1 2.5.7.4.4.6.8 1 .8 1.2 0 1.8-.8 3-.8a5 5 0 012.3.6c.6.3.6 1.5 1.4 1.5.4 0 2.4-.9 3.5-.9 2.2 0 3.4.8 4.8 2.5.4.5.6 1.4 1 1.4a6.2 6.2 0 014.8 3c.3.4.7 1.4 1.1 1.5.6.3 1 .2 1.7.7a6 6 0 012.8 4.8c0 .7-.3 1.6-.5 2.2-1.8 6.5-6.3 8.6-10.8 14.3-2 2.4-3.5 4.3-3.5 7.4 0 .7 1 2.1 1.3 2.7-.2-1.4.5-3.2 2-3.3a4 4 0 014 3.6 4.5 4.5 0 01-.3 1.8 9.6 9.6 0 014-1.4h1.9c3.3 0 7 1.9 9.3 3.8a21 21 0 017.3 16.8c-.8 5.2-.3 14.8-13.8 18.6 2.5 1 4.2 3 4.2 5.2a4.5 4.5 0 01-4.4 4.7 4.4 4.4 0 01-3.5-1.4c-2.8 2.8-3.3 5.7-3.3 9.7 0 2.4.4 3.8 1.4 6s1.8 3.5 3.7 5.1c1-1.5 2.1-2.6 4-2.6 1.7 0 3.2.6 3.9 2.2.2.5 0 .9.3 1.4.3.6.8.7 1.1 1.3.5 1 0 1.8.5 2.7.3.7.9.8 1.2 1.4.4 1 .5 1.6.5 2.7 0 3-2.7 5.2-5.7 5.2-1 0-1.4-.4-2.3-.3 1.7 1.7 3 2.5 4.3 4.5a17.7 17.7 0 013 10.3 22 22 0 01-2.8 11.2 20 20 0 01-7 8.5 35 35 0 01-16 6.4 74.4 74.4 0 01-11 1.4l-14.1.8c-7.2.4-12.2 1.5-17.3 6.6 2.4 1.7 4 3.5 4 6.4 0 3-1.8 5.3-4.7 6.2-.7.2-1.2 0-1.9.4s-.7 1.3-1.4 1.7a6.2 6.2 0 01-3.8 1 8 8 0 01-6.4-2.5c-2.2 1.8-3 3.4-5.5 4.9-.8.4-1.2 1-2.1 1-1.5 0-2.2-1-3.4-1.8a23 23 0 01-4.4-4c-2.3 1.3-3.6 2.4-6.3 2.4a7 7 0 01-4-1c-.6-.5-.8-1.2-1.5-1.6-.7-.5-1.3-.3-2.1-.7-3-1.3-5-3.5-5-6.8 0-2.9 1.8-4.7 4.4-6-5-5-10-5.8-17-6.2l-14-.8c-4.4-.3-6.8-.7-11-1.4-3.3-.5-5.2-.7-8.2-2.1-10.2-4.8-16.8-11.3-18-22.5-.2-1-.2-1.5-.2-2.5 0-5.8 2.3-9.4 6.4-13.5-1-.3-1.7 0-2.8-.3-2.5-1-4.4-2.7-4.4-5.5 0-1 0-1.7.5-2.6.4-.6 1-.7 1.2-1.4.2-1 0-1.6.4-2.5.3-.5.8-.6 1-1.2 1-1.9 2-3.4 4.1-3.4 1.8 0 3 1 3.8 2.5 1.8-.8 2.2-2.1 3.2-3.7a15.5 15.5 0 001.4-13.3c-.4-1.5-.6-2.5-1.8-3.7-1 1-2 1.4-3.4 1.4-2.9 0-5-2.5-5-5.3a4.8 4.8 0 013-4.6c-1.6-1.4-3-1.5-4.7-2.6-2.6-1.6-3.5-3.4-5.2-6-1.2-1.6-1.5-2.8-2-4.7a19 19 0 01-1-7.8c.6-5 1.5-8 4.6-11.9 1.8-2.3 3-3.7 5.8-4.9 2.3-1 3.7-1.7 6.2-1.7l2 .1a6.9 6.9 0 012.8.8c.4.2 1.1.9 1.1.4s-.3-.8-.3-1.3c0-2 1.5-4 3.6-4 1.5 0 2.1 1.4 2.9 2.7.4-.8.7-1.4.7-2.3 0-3.4-1.9-5.2-4-7.9-4.7-5.8-10.5-8.5-10.5-16 0-2.2 1-3.7 3-4.9.5-.3 1.3 0 1.8-.3s.4-1 .7-1.4c.5-.7 1-1 1.6-1.6 1-1 2-.6 3.1-1.5.6-.4.8-1 1.2-1.4 1.3-1.6 2.5-2.4 4.6-2.4 1 0 1.6 0 2.5.4l1 .5c.3-.2.8-.8 1.5-1.1a4 4 0 012.2-.6c1.1 0 1.8.6 3 .6.3 0 .4-.4.8-.6 1-.7 1.5-1 2.7-1s1.8.3 2.8 1c1 .5 1 1.3 2 1.8.5.3 1 .2 1.5.4 2.6.9 4.5 2.6 4.5 5.3 0 1.5-.3 2.5-1.4 3.5-.9.7-1.7.6-2.8 1a16 16 0 0011.3 3.5c4.2 0 9.3-1.7 9.3-5.9 0-2-1-3-1.8-4.8a18.8 18.8 0 01-2.1-8.5c0-2.8.3-4.5 1.9-6.7 1.6-2.3 3.6-2.9 6.5-2.9z"/><g fill="#fedf00" transform="matrix(.64 0 0 .64 0 16)"><path fill="#d52b1e" d="M412.7 249.3h82.1v82h-82.1z"/><path id="a" fill="#fff" d="M451.2 313.8s0 3-.8 5.3c-1 2.7-1 2.7-1.9 4a13.2 13.2 0 01-3.8 4c-2 1.2-4 1.8-6 1.6-5.4-.4-8-6.4-9.2-11.2-1.3-5.1-5-8-7.5-6-1.4 1-1.4 2.8-.3 4.6a9 9 0 004.1 2.8l-2.9 3.7s-6.3-.8-7.5-7.4c-.5-2.5.7-7.1 4.9-8.5 5.3-1.8 8.6 2 10.3 5.2 2.2 4.4 3.2 12.4 9.4 11.2 3.4-.7 5-5.6 5-7.9l2.4-2.6 3.7 1.2z"/><use transform="matrix(-1 0 0 1 907.5 0)" xlink:href="#a"/><path d="M461.1 279l10.8-11.7s1.6-1.3 1.6-3.4l-2.2.4-.5-1.2-.1-1.1 3-.7V260l.3-1.3-3.2.2.3-1.4.5-1 1.9-.4h1.9c1.8-3.4 9.2-6.4 14.4-1 3.8 4 3 11.2-2 13.2a6.3 6.3 0 01-6.8-1.1l2-4c2.7 1.7 5-.3 4.8-2.4-.2-2.7-2-4.3-4.3-4.5s-4 1-5 3c-.6 1.3-.3 2.2-.5 3.6-.2 1.5 0 2.3-.5 3.8a8.8 8.8 0 01-2.4 3.6l-11 12-43 46.4-3.2-3z"/><path fill="#fff" d="M429.5 283s2.7 13.4 11.9 33.5c4.7-1.7 7.4-2.8 12.4-2.8 4.9 0 7.6 1 12.3 2.8A171 171 0 00478 283l-24.2-31-24.4 31z"/><path d="M456.1 262.4l16.8 21.7s-2.2 10.5-9 26.3c-2.7-.6-5-1.1-7.8-1.3zm-4.7 0l-16.8 21.7s2.2 10.5 9 26.3c2.7-.6 5-1.1 7.8-1.3z"/></g><g fill="#d52b1e"><path fill="#fedf00" d="M322.3 175.5h52.6V228h-52.6z"/><path d="M329.7 175.5h7.8V228h-7.8zm15 0h7.8V228h-7.8zm15 0h7.9V228h-7.9z"/><g stroke="#d52b1e"><path fill="#fedf00" stroke="none" d="M264.3 273.5c.1 1 .5 2.6 1.4 4.3 1 1.5.6 1.4 2.7 3.8a15.3 15.3 0 004 2.9 32.7 32.7 0 0015 2.6c2.7-.1 4.8-.4 6.6-.7a71 71 0 0111-.6c1.5 0 3 .3 4.7.6 3.5.7 7 2 7 2v-54.7h-52.6V271l.2 2.4z"/><path stroke-width=".3" d="M270.4 283.1l2.5 1.5 3.4 1.2v-52.2h-5.9zm29.2 2.4v-51.9h-5.8v52.8l5.8-.7zm11.7-51.9h-5.8v52.1c1.9.2 3.8.6 5.8 1v-53zm-23.4 0V287s-3.8.2-5.8 0v-53.4z"/></g></g><g transform="matrix(.64 0 0 .64 0 16)"><path fill="#fedf00" d="M585.5 402.4a20.8 20.8 0 01-2.2 6.6c-1.5 2.3-1 2.3-4.3 6a26.3 26.3 0 01-13 7 51.8 51.8 0 01-16.6 1.6c-4.3-.2-7.5-.7-10.3-1a74.89 74.89 0 00-11-1 62.9 62.9 0 00-6.2 0 83.3 83.3 0 00-18.3 4.2V340h82.2v58.5l-.3 3.8z"/><g id="b"><path fill="#d52b1e" d="M524.6 347l-.6.2-.8.8c-.4.4-.7.5-1.2.8l-.6.5c-.3.3 0 .6-.3 1-.1.4-.3.6-.6 1-.4.4-.7.5-1 1l-1.2 1-.3.1h-.6c-.4.2-.5.6-.8.8l.3.6.8 1.4c.2.3.2.7.5.8.5.2.9.2 1.3.1.8.2 1.3.2 2 .5l1.5.8c.5.3.8.4 1.3.5h1.8v.3l2 1a1.7 1.7 0 00-.1.4c-.1.3-.2.7-.1.8.6 1.9 1.2 3 1.5 3.2.6.2.8.9 1.1 1.5l-.3.3c-.6.6-1.2 1-1.7 1.8-.7 1.2-1.2 1.2-.3 2.8l1.5 2.4c.4.7.6 1.2.8 2 .2.7.3 1.2.3 2l1 .3.7-.6.6-1.2v-1c-.2-.1-.3-.4-.2-.7 0-.4.5-.3.7-.6.3-.5-.4-.8-.7-1.1-.6-.7-1.4-.9-1.6-1.9 0-.2 0-.4.4-.7l2-1.8c.2.1.6.2 1 .1l1.3.4c.6.2.9 0 1.2 0h.4l.1.6c.1 1-.1 3 .2 3.5l.3.6.2.6v2l-.2 1.7c0 .4-.2.7-.5 1-.2.4-.6.4-1 .7v1l1.1.5 1.3.3.7-.3.1-.6.5-.5c.4-.2.8 0 .9-.1.2-.3 0-.4 0-.8 0-.6-.2-1-.3-1.6a11.8 11.8 0 01-.1-2.8c0-.6 0-1 .2-1.5.1-1 .4-1.4.6-2.2.3-1 .3-1.6.4-2.5a24.4 24.4 0 0010.1-.6c.8.7 1.7 1.2 2.7 1.6v1c0 .3 0 .4.2.7l.3.3c.3 0 .5 0 .7-.2s.2-.4.2-.7v-.7h1.8v1.1c.1.3.3.4.5.4a.7.7 0 00.6 0c.3-.2.2-.6.3-1v-.7l1-.4a5.1 5.1 0 010 .9l-.3.9c-.2.6-.5.8-.8 1.4-.4.6-.5 1-1 1.5l-.6.7-.6.9-.9 1c-.7.6-1.2.2-2 .9l-.3 1 1.4.6 1.3.2.4-.2c0-.3 0-.6.3-.8.2-.3.4-.3.7-.4.4 0 .8 0 1-.2.4-.3.4-1 .7-1.5a12.7 12.7 0 013-3.9l1.7-1.4c.2-.4.5-.5.5-1l-.2-.6-.2-1c1.5.7 1 .7 1.2 1.4.3.6 0 1 .1 1.7.1.8.5 1.1.5 1.9.1.9-.1 1.4-.3 2.3-.1.8-.1 1.3-.5 2a3.8 3.8 0 01-1.1 1.5l-.6.5-.1 1 1.1.4 1.6.4.4-.3c.2-.7 0-1.7.4-1.7.4-.1.7 0 .8-.3v-.7l.7-4.5.4-1.9.4-1.7c.7-2-.2-2.3-1-3.6-.5-.7-.7-1-.7-1.5V362a42.7 42.7 0 010-2.8l.4-.2c1.2-.7 1.7-.9 2.4-2.5a3.4 3.4 0 00.3-1.5v-1l-.4-1a3.2 3.2 0 00-.6-.8c-.7-1-1.7-1.1-2.7-1.5-1.5-.5-2.5-.4-4-.5-1.8-.2-2.7-.2-4.4 0-2 0-3.1.4-5.1.7l-4.9.4c-2.3 0-4.4-.5-5.8-.4-2.4.2-2.5.8-6.2 1.1a67 67 0 01-3.8.2l-2.2-.7c.9-.3 1.1-.5 1.5-1 .3-.4.2-.7.6-1.1l.7-1a2.2 2.2 0 00-.9-.4h-1a3 3 0 00-1.2.3l-.8.6-2.2-1.2a8.8 8.8 0 00-3-.9z"/><g fill="none" stroke="#fedf00"><path stroke-linecap="round" d="M568.8 359.5l-.8.3c-.9.4-1.6.4-2.6.5-2.6.2-4.3-1.1-7-.9-1.4.1-2 1.2-3.5 1.6a9.3 9.3 0 01-1.7.2l.5-1s-1.2.3-2 .3a7.5 7.5 0 01-1.6-.2l1-1-1.3-.2a4 4 0 01-1-.7 20.5 20.5 0 001.7-.3c1.5-.4 2-1.2 3.9-1.4 1.1 0 3 0 7.6.8 3 .5 4.4.2 5.5-.3.8-.3 1-1 1.1-1.8s-.4-1.4-.8-1.8c-.1 0-.5-.3-1.1-.4"/><path fill="#fcd900" stroke-width=".5" d="M524.8 350.6c-.5 0-.9 0-1.3.3-.5.3-.6.7-1 1.1.5.1.8.4 1.2.3.4 0 .5-.2.8-.5.3-.4.4-.7.4-1.2z"/><path stroke-linecap="round" d="M536 363.8a13.6 13.6 0 001 2.3c.2.8 0 1.2.2 2v1.6m6.8-7l-.3 1.3-1 3.5v.7m-11-4c.9.2.6 3.3 1.9 4"/><path d="M560.1 369.8l.4-.3a8.2 8.2 0 002.7-1.8"/><path stroke-linecap="round" d="M552.4 368c3.5-.9 5.9-2.6 7.6-2.9m-4-1.5h.8c1.5-.3 1.7.6 2.7 1.2 1.9 1 2.1 2.3 4.3 3.4l.4.1.8.4"/><path fill="#fcd900" stroke-width=".5" d="M517.7 354.5h.7l.8-.2c.3 0 .5 0 .7.2.2 0 .2.1.3.3 0 .2.2.3.1.5 0 .2-.3.4-.6.4-.2 0-.4 0-.5-.3a.5.5 0 010-.4 1 1 0 01-.9 0 1 1 0 01-.6-.5z"/></g><path fill="#0065bd" d="M525.1 364.2l-2-.9c.4-.2.7-.2 1-.5.3-.4.3-.8.5-1.3s.2-1 .7-1.4c.3-.2.8-.2 1.1-.1.4 0 .8.4.9.7 0 .6-.2 1-.3 1.5 0 .6-.3.9-.2 1.4 0 .4.2.6.4 1l-2-.4zm-1 1a.6.6 0 110-.1zm-1.7-16.6h-.2c-.4-.4-.4-.8-.6-1.2a4 4 0 01-.3-1.2v-2c0-.3 0-.6-.2-.9 0-.2-.4-.3-.3-.4 0-.1.3 0 .4 0 .4 0 .6.1 1 .4.3.3.5.6.6 1l.4 1.5.3.8.5.6-.7.8zm3.6 10.6l2.2 1a9.2 9.2 0 003.5-3.8c.9-1.8 1-2.7 1.4-4.4l-1.8-.5h-.4c-.5 1.8-.7 2.7-1.6 4.2-.8 1.3-1.7 2.3-2.6 3zm5 18.2l.8-1.3 1.4-1.1h.4a8.7 8.7 0 01-.5 2.8l-.4 1-.5.5c-.5-.8-1.3-1.3-1.3-2zm33 1.8l1.4.6 1.5.9v.5l-1.5.2a8.4 8.4 0 01-1.3 0h-1l-.6-.4c.5-.7.8-1.6 1.4-1.8zm-9.8-2l1.4.5 1.5 1c0 .1.1.3 0 .4a9 9 0 01-2.7.3l-1-.1-.7-.3c.6-.7.9-1.7 1.5-1.8zm-17.4 2.1l1.5.5 1.5 1v.5a9 9 0 01-2.8.2h-1l-.6-.4c.5-.7.8-1.6 1.4-1.8zm-9-29.8c-.6-.3-1-1-.6-1.6.1-.2.4-.2.6-.4.2-.3.1-.5 0-.8l-.1-1-.2-1c0-.6 0-1 .4-1.6.2-.3.7-.6.8-.6.2.1 0 .5 0 .8 0 .5.1.7.3 1.2l.7 1.3c.2.6.4.8.4 1.4 0 .5 0 .7-.2 1.2a2 2 0 01-1.4 1.2 1.1 1.1 0 01-.6 0z"/></g><use y="36.6" xlink:href="#b"/></g><path fill="none" stroke="#703d29" stroke-width=".5" d="M264.1 175.5h52.6V228h-52.6zm58.2 0h52.6V228h-52.6zm-58 98c.1 1 .5 2.6 1.4 4.3 1 1.5.6 1.4 2.7 3.8a15.3 15.3 0 004 2.9 32.7 32.7 0 0015 2.6c2.7-.1 4.8-.4 6.6-.7a71 71 0 0111-.6c1.5 0 3 .3 4.7.6 3.5.7 7 2 7 2v-54.7h-52.6V271l.2 2.4zm110.4 0a13 13 0 01-1.4 4.3c-1 1.5-.6 1.4-2.7 3.8a15.4 15.4 0 01-4 2.9c-1.3.7-2.3 1-4.4 1.6a32.6 32.6 0 01-10.6 1c-2.7-.1-4.8-.5-6.5-.7a71 71 0 00-7.2-.6 40.5 40.5 0 00-3.9 0c-1.5 0-3 .3-4.7.6-3.5.7-7 2-7 2v-54.8H375v37.5l-.2 2.4z"/></svg>