<svg xmlns="http://www.w3.org/2000/svg" xmlns:xlink="http://www.w3.org/1999/xlink" viewBox="0 0 640 480"><defs><clipPath id="a"><path fill="#fff" stroke-linecap="round" stroke-linejoin="round" stroke-width="3" d="M7 7h316.5v158.3H7.1z"/></clipPath><path id="c" d="M271 87c1.5 3.6 6.5 7.6 7.8 9.6-1.7 2-2 1.8-1.8 5.4 3-3.1 3-3.5 5-3 4.2 4.2.8 13.3-2.7 15.3-3.5 2.1-3 0-8.2 2.6 2.4 2 5.2-.3 7.5.3 1.3 1.5-.6 4.1.4 6.7 2-.2 1.8-4.3 2.2-5.8 1.5-5.4 10.4-9.1 10.8-14.1 1.9-.9 3.7-.3 6 1-1.1-4.6-4.9-4.6-5.9-6-2.4-3.7-4.5-7.8-9.6-9-3.8-.7-3.5.3-6-1.4-1.6-1.2-6.3-3.4-5.5-1.6z"/></defs><clipPath id="b"><path d="M0 0v150h700v150H600zm600 0H300v350H0v-50z"/></clipPath><path fill="#012169" d="M0 0h640v480H0z"/><g clip-path="url(#a)" transform="matrix(1.18 0 0 1.18 -8.3 -8.3)"><path stroke="#fff" stroke-width="31.6" d="m7 7 316.5 158.3m0-158.2L7.1 165.3"/><path stroke="#c8102e" stroke-width="40" d="m0 0 600 300m0-300L0 300" clip-path="url(#b)" transform="matrix(.53 0 0 .53 7 7)"/><path stroke="#fff" stroke-width="52.7" d="M165.3 7v158.5M7.1 86.2h316.3"/><path stroke="#c8102e" stroke-width="31.6" d="M165.3 7v184.7M7.1 86.2h316.3" clip-path="none"/></g><path fill="#fff" d="M421.6 226.9c0 112.5 13 151.2 39.1 177.3a235.2 235.2 0 0 0 46.7 37.2c24.1-15.9 31-21.7 46.6-37.2 26.1-26 39.2-64.8 39.2-177.3-19 8.1-29.8 12-45.5 11.8-14-.2-28.9-6.7-40.3-11.8-11.5 5.1-26.4 11.6-40.4 11.8-15.6.3-26.4-3.7-45.4-11.8z"/><g transform="matrix(2.61 0 0 2.5 -198 66.5)"><use xlink:href="#c" fill="#f90"/><circle cx="281.3" cy="91.1" r=".8" fill="#fff" fill-rule="evenodd"/><g transform="rotate(-118 269.5 98.4)"><use xlink:href="#c" fill="#f90"/><circle cx="281.3" cy="91.1" r=".8" fill="#fff" fill-rule="evenodd"/></g><g transform="rotate(121 270 98)"><use xlink:href="#c" fill="#f90"/><circle cx="281.3" cy="91.1" r=".8" fill="#fff" fill-rule="evenodd"/></g></g><path fill="#9cf" d="M443 380.4a97 97 0 0 0 17.7 23.8 235.2 235.2 0 0 0 46.7 37.2c24.1-15.9 31-21.7 46.6-37.2a97 97 0 0 0 17.6-23.8z"/><path fill="#fdc301" d="M418 222.4c0 117.2 13.6 157.6 40.8 184.8a245 245 0 0 0 48.6 38.7 245 245 0 0 0 48.6-38.7c27.2-27.2 40.7-67.6 40.7-184.8-19.7 8.5-31 12.6-47.3 12.4-14.6-.3-30-7-42-12.4-12 5.4-27.5 12.1-42 12.4-16.4.2-27.6-3.9-47.4-12.4zm5.4 6.3c18.5 8 29.1 11.9 44.5 11.6 13.7-.2 28.2-6.6 39.5-11.6 11.2 5 25.7 11.4 39.5 11.6 15.3.3 25.9-3.6 44.5-11.6 0 110.6-12.8 148.7-38.4 174.4a229.5 229.5 0 0 1-45.6 36.5 230.5 230.5 0 0 1-45.7-36.5c-25.6-25.7-38.3-63.8-38.3-174.4z"/></svg>