<svg xmlns="http://www.w3.org/2000/svg" viewBox="0 0 640 480"><path fill="#072b5f" d="M0 0h640v480H0z"/><path fill="#fff" d="M340 1a237 237 0 0198 30l17-30h6l-19 33a241 241 0 0185 84l113-66v6l-111 64a239 239 0 0131 115h80v6h-80v1a239 239 0 01-31 114l111 64v6l-113-66a241 241 0 01-85 85l19 32h-6l-17-30a238 238 0 01-97 30h-42c-35-3-68-13-97-30l-17 30h-6l19-32a241 241 0 01-84-85L0 428v-6l111-64a239 239 0 01-31-115H0v-6h80v-1c1-41 12-80 31-114L0 58v-6l114 66a241 241 0 0184-84L179 1h6l17 30c30-17 63-27 98-30h40zM239 387l-34 58a234 234 0 00112 30v-67c-28-1-55-8-78-21zm167 6l-6 4-7-2-11 2-1-1c-18 7-38 11-58 12v67h1c40-1 78-12 111-31zm83-53l-10 1 3 6-6 5-8 2-3 5 7 3-13 11 4 6-9-2-11 6-14 7-4 5-2-2 2-4-9 3-2-3-4 2 30 51c34-20 62-49 82-82l-33-20zm-313-14l-58 34a236 236 0 0083 82l33-58a169 169 0 01-58-58zm120 6l-2 3-7 1h-2l-3 5-9-6-5 1v5l-2-2-25 43c23 12 49 20 76 20v-65zm52 5l-4 2 2 5h-14l-9-4v62a162 162 0 0051-9l-3-2-13 4-11-8v3l-3-3 3-3v-10h3l3-6 2-1-2-4 3-1v-4l-3-2h4l-3-12-6-6zm-142-28l-25 15c14 22 33 42 56 55l24-42-4-3-1 4-11-5-1 1-6 2-1-4-14-7-15-5zm305-66l1 3-2 8 4 4 8 1-9 12 2 2 2 2-3 6 3 2-18 16 4 10-1 7-7 2-1 5-7 3-2 6 40 23a234 234 0 0030-112zm-425 0v1c0 40 11 78 30 111l58-33a167 167 0 01-21-79zm72 0a161 161 0 0020 76l27-16-5-8 3-13-5-2-2-5 8-1h-3v-8l-12 4v-3l-2 5-6 3-4-4-2-5-2-8 4-3 2 2 1-2-2-12zm41 38l-1 4-6 1 4-5zm-26-85l-4 5-1-3-4 1-1 1c-3 12-5 24-5 37h19v-1l4 1 3-20v-1l4-2h-5l-2-5 10-10-9-2-6 6zm352-71l-44 25 10 27-6 5v6l-4 5 1 2 4 3-3 2 5 4 7 1 3 3 2 5 5 2 6-4h5l-6 8 6 13-6 5h45v-1a233 233 0 00-30-111zm-409 0a234 234 0 00-30 112h66a168 168 0 019-49h-2v-5h3l2-4-5-9-3 1-2-3-1 3-3-3 3-2-5-1 1-3-4-2-1-8-3-2 2-1-4-11zm91 53l5 6 2-2zm-39 5h1v-1l-1 1zm69-82a164 164 0 00-56 56l40 23 30-7 2-6 2 1v-2l1-1 8-3v-7l2-3zm-85 74zm-6-7l6 4v3zm54-130a236 236 0 00-82 83l21 12 2-10h3l-1 4v3l6 8 21 12 1 1 5 3a168 168 0 0158-58l-34-58zm-61 108v1l-2 4-2-5zM440 38l-33 57 2-1 1 4 3 3 3-5h3l2 10 7 6 2-1 6-3 16 6 3-1 2 6 4 1-1-3h3l2 6 4-5 10 6 3 12-5 1 1 8 44-24a236 236 0 00-82-83zM137 141l2 4-3-2zm179-63h1c-28 0-53 8-76 20l27 47 1-5-1-5 7-18v-11h4l4-7 6-1v-6l7-9 4 2 14-6 2-1zm-169 48v4h-4v-3zm-1-10l-3 5-1-2v-1zm234-27l7 6 7 1-14-7zM323 6v66c14 1 28 3 41 6h2v1c12 3 24 8 36 14l33-57A234 234 0 00323 6zm-3 0a234 234 0 00-115 30l34 58c23-13 50-21 78-22V5h3zm26 74l12 2-12-2zm-22-2l16 3 2-2-18-1z"/><path fill="#072b5f" d="M322 69l1 8 1 1h-1v71c14 1 28 4 40 11l36-62a162 162 0 00-5-2h2l6 1 5-2-1 1 4 2v1l3 2 8 5v2l3 1-1 4v1h1l4-2a168 168 0 0136 42l14-9v1l2 3 1 1-14 8c6 11 11 23 14 35l-1 1 2 1a168 168 0 016 42h22l-1 1 2 5h-23c-1 28-8 55-21 79l18 10-1 1-1 4 7 3h-1l-25-14a169 169 0 01-58 58l4 7-4 3-4-7a167 167 0 01-21 10l-3-2h-1l-2-1 2 1-2-1-1-1a155 155 0 0025-11l-36-62a91 91 0 01-40 11v9h-2l-4-2v-7a91 91 0 01-40-11l-11 19-5-2 11-20a92 92 0 01-29-29l-37 21v-4l-1-1 35-21a91 91 0 01-11-40h-51l-1-6h52a91 91 0 0111-40l-25-15 2-1 5-1 21 12a92 92 0 0129-29l-6-11 2-7 9 15a91 91 0 0140-11V78h-1l3-4-1-5zm55 326l1 1zm21-107a92 92 0 01-30 30l36 61c23-13 42-33 55-55l-61-36zm-75-38v76a86 86 0 0038-10zm-6 0l-37 66a85 85 0 0037 10zm165-7h-71a91 91 0 01-11 40l62 36a162 162 0 0020-76zm-155 4l38 66a86 86 0 0028-28zm-14 0l-66 38a86 86 0 0028 28zm-3-4h-75c0 13 4 26 10 37zm96 0h-76l66 37c6-11 9-24 10-37zm-10-43l-66 37h76c-1-13-4-26-10-37zm-151 0a85 85 0 00-10 37h75l-65-37zm217-39l-62 36a91 91 0 0111 40h71c0-27-7-53-20-76zm-187 6a86 86 0 00-28 28l66 38zm90 0l-38 66 66-38a86 86 0 00-28-28zm-48-13c-13 1-26 4-37 11l37 65zm6 0v76l38-65a85 85 0 00-38-11zm-160 46l-3 1 3-10-2-1 1-2h-1l1-5h6l-5 17zm241-99l-36 62a92 92 0 0129 29l62-36c-13-22-33-41-55-55zm-265 31l10 6 2 3 5 8 12 3 2-2 2 1 4 6 5 5 18 9 3 1 1 1 4 5-29-17a159 159 0 00-9 21l-1-2h-3l-1-1a167 167 0 019-20l-34-20-1-1 1-4v-1zm227-53v3l6 1 6 4h-1v1h2l1 1-22-7 6-4zm-24 0h1l3 1-3-1h-1 1-1zm-24-1h-1zm2 0h-2z"/></svg>