<svg xmlns="http://www.w3.org/2000/svg" viewBox="0 0 640 480"><path fill="#009" d="M0 0h640v480H0Z"/><path fill="#fc0" d="m133 0 480 482V0Z"/><path fill="#fff" d="m527 431-10 31h-33l24 18h38l24-18h-33l-10-31zM407 311l-10 31h-33l26 19-10 32 27-20 27 20-10-31 26-20h-33l-10-31zm60 60-10 31h-33l27 19-11 32 27-19 27 19-10-31 26-20h-33l-10-31zM287 190l-10 32h-33l26 19-10 31 27-19 26 19-10-31 27-19h-33l-10-32zm60 60-11 31h-32l26 20-10 31 27-19 26 19-10-31 27-19h-33l-10-32zM166 70l-10 31h-33l27 19-10 32 27-19 26 19-10-31 26-20h-33l-10-31zm60 60-10 31h-33l27 19-10 32 26-19 27 19-10-31 26-20h-33l-10-31zM30 0 19 31l27-19 26 19-9-31H30zm76 10L96 41H63l27 19-11 31 27-19 27 20-10-31 26-20h-33l-10-31z"/></svg>