<svg xmlns="http://www.w3.org/2000/svg" viewBox="0 0 640 480"><defs/><style>.B{stroke-miterlimit:2.6}.C{fill:#d40000}.D{stroke-linejoin:round}.E{stroke-width:.5}.F{stroke:#000}.G{fill:#f5ce00}.H{fill:#64b4d1}.I{stroke-width:.4}</style><path fill="#cf142b" d="M0 0h640v480H0z"/><path fill="#00247d" d="M0 0h320v160H0z"/><g fill="#fff"><path d="M0 0v18l284 142h36v-18L36 0zm320 0v18L36 160H0v-18L284 0z"/><path d="M133 0v160h53V0zM0 53v53h320V53z"/></g><path fill="#cf142b" d="M0 64v32h320V64zM144 0v160h32V0zM0 160l107-53h24L24 160zM0 0l107 53H83L0 12zm190 53L296 0h24L213 53zm130 107l-107-53h24l83 41z"/><path fill="#fff" d="M554 148v136c0 36-72 48-72 48s-72-12-72-48V149h145z"/><path fill="#2f8f22" d="M554 284c0 13-10 23-20 29-16 10-34 15-53 19-19-4-39-10-56-21-9-6-18-17-17-29 1-5 1-1 2 1 0 3 5 9 2 3-1-3 0-8 1-9 0 4 0 9 4 12-2-3-1-13 0-13 0 5 0 11 4 13v-11c3 2 2 10 3 10 1-3 1-12 1-4 0 3 4 10 3 3-2-2 0-9 1-4 0 2 4 7 2 2-1-3 1-7 1-2 0 4 6 5 3 0-1-3 0-4 1-1s3 4 2 1c0-4 0-3 2 0 1 2 4 4 2 1-2-4 0-6 4-5l33 2 37-3 6-6c3 3-1 8-1 9 4-1 5-11 5-3 0 3-2 6 0 2 2-2 4-11 4-4 1 3-5 10 0 5 2-2 4-8 3-2 0 2-4 6 0 3 3-1 4-9 5-9 2 3 0 8 0 9 3-2 4-11 4-4 0 2-2 6 0 2 2-2 4-10 3-3 0 3-4 8 0 4 2-2 3-5 2-1-3 6 3-2 3-2 1 2-1 7 1 3 1-3 1-6 2-1v2z"/><g stroke="#000"><g class="C D E"><path d="M517 205c-4 1-7-2-10-1-1 1-1-5-3-4 1 2-1 5-3 2-3-1 3-3 1-6 0-1-4-4-2 0-4-4 6-4 4-8l-1-1-3-3c2 2-2 5-1 2 1-2 0-4 3-3 4 0 4-7-1-8 2 2-1 5-3 2-3-3 4-2 2-5h-4c-5-1 2-5 0-8-1-2-6 1-3-2s-3-3-3-3c0-3-3-5-5-2-2-4-6-3-7 0-2-2-5-2-4 1 3 4-7-3-4 3 3 4-4 0-4 4-1 3 5 5 1 7-2 2-5-2-4 1 2 1 3 7-1 5-2-4-4 4 0 5 2 2 6-3 4 1 0 2-4 5-3 2 3-2-5 0-3 3 0 4 7 4 2 7-1 2 2 6-3 6-2-1-4 0-3 3-4-2-7 1-11 1-2 2 0 3 1 5v3l4-1 15-7 11 1 7 1 5-2h6l13 7 6 2 3-1v-6l-1-2z"/><path d="M444 213c4 3 8-3 3-5-1-1 2-4-1-6-2-1-4 0-5-2-3-1-4 3-7 2-3 1-2 6 1 6 2 1 3-2 5-1 3 0 1 5 4 6z"/></g><path d="M522 207a6 6 0 016 3c2 5-2 8-2 8v3c7 1 5 8 5 8l-2-2c-4-2-8 2-11 7-3 6-2 8-1 14s11 10 11 10l-8 21c-3 8-10 5-12 3s-2-1-3 0 4 5-6 9-12 7-13 8h-9l-3-2c-2-2-7-3-12-5s-5-5-4-6c0-1 2-6-4-2s-10-2-10-2l-6-14a78 78 0 00-4-10l4-2c4-2 6-6 7-10s0-10 0-12-4-7-7-9c-4-1-6 2-6 2s-1-8 6-8v-3s-5-3-2-8c0 0 2-4 6-3l-1 2s-1 11 14 4c16-7 15-8 24-4l6-1s9-4 12-2l14 8s10 4 12-3z" class="H I"/><path d="M458 287c-6 0-9 6-15 4-4 0-4 5-8 5-4 5 4 9 6 7-2 8 12 5 7-2 3-1 3-4 2 0-1 7 9 4 7-2 3-3 12-7 4-11-1 0-2-2-1-3zm-12-48c-5-1-11-2-16 2-7 2 0 11-6 14-1 4-8-1-4 4 3 1 4 0 2 4 2 3 1 8 1 9 4-2 2-9 4-10-1 4 4 9 3 11 6-3 0-8 2-12l4 9c4-4-2-10 4-11l5-4c1-2 3-4 2-7v-8z" class="C D E"/></g><path stroke="#00247d" d="M436 307s-4-3-2-7l2-1s3 1 1 5l-1 4zm9 4s-6-3-4-8l2-2s2 0 2 3v6zm4-1s5-1 4-6c0 0 0-2-2-2 0 0-2 1-1 4v4z" class="B H I"/><g class="E F"><path d="M472 204c5 2 11 4 16 1 2-1 4-2 2 1-2 2-2 4-1 6 2 4-6-3-8-2-2 0-11 5-7 1 2-1 1-4 0-5l-2-2z" class="B G"/><path d="M519 213c-4 3-8-4-3-5-3-4 2-6 4-7 3-3 5 3 8 1 4 3-1 7-4 5-4-2-4 3-6 5z" class="C D"/><path d="M491 210c-5 2 1-7 5-3l17 8c5 2 13-1 11-7-1-4-7 2-3 2 2-1-2 5-5 4-6-1-11-5-16-8-4-3-9-4-12 0-6 6 8 10 5 2-4-3-5 5-2 2z" class="B G"/><path d="M505 287c6 0 10 6 17 4l7 5c4 5-4 9-6 7 2 8-12 5-7-2-3-1-3-4-2 0 1 7-9 4-7-2-3-3-12-7-4-11 1 0 2-2 1-3z" class="C D"/><path d="M520 256c-11-7-8-26 4-30-5 4-9 10-8 16 0 5 2 10 4 14z" class="B G"/><path d="M517 238c5-1 12-2 16 2 7 3 0 11 6 14 1 4 8-1 4 4-3 1-3 1-3 4-2 3-1 8 0 9-4-2-2-9-4-10 0 4-4 9-3 11-6-3-1-8-2-12-1 4-5 5-3 9-4-3 2-9-3-11-2-1-5-2-6-5-1-2-3-4-2-7l-1-8z" class="C D"/></g><g class="B E F G"><path d="M526 260c-9-3-11-12-11-12a21 21 0 011-13c4-9 11-9 11-9a3 3 0 014 3l-1 3h-4v-2l2-1 1 1-1-2s-3 0-6 3c0 0-4 5-4 12 0 0-1 12 12 16l-4 9-5 14s-4 7-12 4c0 0-5-2-5-6 0 0-1-3 2-3 0 0 3 0 3 2 0 0 0 2-3 2l-1-1h2c2 1 0 0 0 0h-1-1l1 1 1 1s1 2 3 2l6-1a9 9 0 002-4 95 95 0 004-11l3-7z"/><path d="M502 283s2 0 2 1c0 0 0 2-3 2 0 0-2 0-2-3 0 0 1-2 3-2 0 0 2 0 3 3 0 0 1 3-1 5l-7 5-10 4s-3 2-2 5l1 1 1-1v1l-1-1v-2h3s2 1 1 3c0 0-1 2-3 2l-3-1c-2-2-2-5-1-7l4-3 8-3 5-3 2-3v-2h-1zm-30-73l1 1 1-1-1-3s-2-2-6 0l-12 6-7 2s-6 1-8-4c0 0-2-3 0-5h2l2 1v2l-2-1v2s3 5 12-1l12-7s6-3 10 2c0 0 3 4-1 7 0 0-3 2-5-1 0 0-1-3 1-4 0 0 2-1 3 1s-2 3-2 1zm-30 46c5-3 6-10 6-10 1-7-1-12-1-12-3-7-9-9-9-9s6 4 7 9l1 9-2 7z"/><path d="M436 260c9-3 11-12 11-12a21 21 0 00-1-13c-4-9-11-9-11-9a3 3 0 00-4 3l1 3h4v-2l-2-1-1 1 1-2s3 0 6 3c0 0 4 5 4 12 0 0 1 12-12 16a211 211 0 0010 23s4 7 12 4c0 0 5-2 5-6 0 0 1-3-2-3 0 0-3 0-3 2 0 0 0 2 3 2l1-1h-2c-2 1 0 0 0 0h2l-1 1-1 1s-1 2-3 2a6 6 0 01-6-1 9 9 0 01-2-4 95 95 0 01-4-11l-3-7v-1z"/><path d="M460 283s-2 0-2 1c0 0 0 2 3 2 0 0 2 0 2-3 0 0-1-2-3-2 0 0-2 0-3 3 0 0-1 3 1 5l7 5 10 4s3 2 2 5l-1 1-1-1v1l1-1v-2h-3s-2 1-1 3c0 0 1 2 3 2l3-1c2-2 2-5 1-7l-4-3-8-3-5-3-2-3v-2h2z"/></g><path stroke="#00247d" d="M517 311s6-3 4-8l-2-2s-2 0-2 3v6zm9-4s4-3 2-7l-2-1s-3 1-1 5l1 4zm-13 3s-5-1-4-6c0 0 1-2 3-2 0 0 2 1 1 4v4zm12-99v-4c-1-3 2-3 3-2v3a7 7 0 01-4 3zm-1-1l-2-3c-2-2 0-4 1-4l2 2a7 7 0 010 5zm-3-1l-3-2c-2-1-2-3-1-3l3 1a6 6 0 012 4zm2 1l-4-1c-3-1-4 1-3 2l2 1a7 7 0 004-2zm-87 1v-4c0-3-2-3-3-2v3a7 7 0 004 3zm1-1l2-3c2-2 0-4-1-4l-2 2a7 7 0 001 5zm3-1l3-2c2-1 2-3 1-3l-2 1a6 6 0 00-2 4zm-2 1l4-1c3-1 4 1 3 2l-2 1a7 7 0 01-4-2z" class="B H I"/><g fill="none" class="F"><g class="E"><path d="M442 202l-1 2" class="B"/><path d="M437 202v2"/></g><path d="M554 148v136c0 36-72 48-72 48s-72-12-72-48V148h145z"/></g></svg>