<svg xmlns="http://www.w3.org/2000/svg" xmlns:xlink="http://www.w3.org/1999/xlink" viewBox="0 0 640 480"><path fill="#f7e017" d="M0 0h640v480H0z"/><path fill="#fff" d="M0 33v214l640 100V233z"/><path d="M0 147v100l640 200V347z"/><g fill="#cf1126" transform="translate(-160) scale(.667)"><path d="M696 570a117 117 0 01-50-17l-5-3v4c0 6-3 9-9 11-6 1-16-2-23-8a68 68 0 00-25-14 40 40 0 00-28 4 9 9 0 01-3 1v-9c2-3 5-6 10-7l4-2-2-4c-3-5-2-10 3-14s14-4 22-1a32 32 0 004 1l-2-6c-4-4-4-7-4-12a15 15 0 0114-14c5 0 9 2 18 10a144 144 0 0086 41c8 1 24 1 34-1a156 156 0 0082-40c6-6 9-8 15-8 4 0 7 1 11 5 3 3 4 6 3 11 0 4 0 5-2 8-3 5-3 5 3 3 7-3 17-1 22 3 4 5 5 9 1 14l-2 5 5 1c6 1 10 6 10 13l-1 3-5-2c-7-2-11-3-19-3-6 0-8 0-13 2a58 58 0 00-19 11c-7 6-11 8-17 8s-9-2-12-5v-7-5l-5 3a81 81 0 01-19 10 182 182 0 01-82 10zm10-45a136 136 0 01-98-55c-24-34-32-78-24-118 4-18 12-36 25-49a115 115 0 00-8 74c9 50 51 92 101 99 20 6 40 0 59-6 42-15 74-55 78-99 3-24 0-49-11-71 6 3 14 16 19 24 16 31 16 69 7 102-13 42-45 79-88 92a166 166 0 01-60 7z"/><path id="a" d="M512 470c-2-1-5 2-4 5 1 2 5 4 7 5a54 54 0 0024 3 50 50 0 0017-3c3-1 7-2 8-5 1-2-1-4-3-4l-9 3a58 58 0 01-21 2 54 54 0 01-14-4l-5-2zm3-11c-3 0-5 3-4 6l8 5a42 42 0 0018 3h1a38 38 0 0014-3c3-1 6-2 8-5 1-2 0-4-2-4l-6 1a44 44 0 01-20 4l-13-4-4-2zm3-9c-2-1-3 2-3 4s2 3 3 4a30 30 0 0019 5h1a28 28 0 0012-3c3-1 6-2 7-5l-1-4c-2-1-3 1-5 1a34 34 0 01-15 4 27 27 0 01-13-4l-5-2zm-37-147c-3 3 0 9-1 13 2 13 4 27 9 39 6 12 19 19 27 29 3 6 2 12 2 17v46c7 4 15 7 23 6 4-1 13-2 14-6l-1-80c-3-8-11-12-17-17a156 156 0 01-14-16c-3-5-13-6-9 1 2 7 7 12 9 19 0 4 5 11 1 13a25 25 0 00-11-10c-4-3-12-5-13-11a43 43 0 00-11-22c1-7 0-16-7-21zm10 1c-3 1-2 4-1 6a27 27 0 011 14 44 44 0 0111 22c0 3 3 4 5 5l15 9c1 1 1 2 1 0-1-2-1-5-3-7-3-3-7-6-11-6 0-5-2-8-4-12-2-3-4-7-7-9 0-6 0-13-3-19-1-1-2-3-4-3zm9 3c-2 0-2 3-1 4a54 54 0 011 14c4 3 6 7 8 11l3 9 8 5-4-8-4-8c-3-3-4-8-4-12 0-5-1-10-4-14l-3-1zm9 1l-2 2c-1 1 1 2 1 3a22 22 0 011 10l2 7a4 4 0 014-2l1-1c-1-5-1-10-3-14a10 10 0 00-3-5h-1z"/><use transform="matrix(-1 0 0 1 1440 0)" xlink:href="#a"/><path d="M716 476a36 36 0 01-30-24c0-2 3 1 4 2a19 19 0 008 2l9 7c2 1 7 4 6 0-1-2-2-5-1-7l8-12c2 0 4 4 5 6 2 3 5 7 4 11-2 1-2 6 1 4 4-1 7-4 10-7l10-4 5-2a45 45 0 01-7 12 32 32 0 01-19 11l-13 1zm16-16l-2-8-8-12c-3-1-5 4-6 6-3 4-7 8-7 14-2 2-5-2-6-4a19 19 0 01-4-12 51 51 0 014-21c2-5 5-11 4-17 1-4 0-9-4-12s2-4 4-2c3 0 5 5 8 4 1-3 1-6 4-8 2-4 4 1 5 3 2 2 0 7 3 7 3-3 5-6 9-7 2-1 5 0 3 2-3 3-6 6-6 10-1 6 0 11 2 16 5 9 8 20 6 30-1 5-4 9-8 12l-2-1zm-5-70a21 21 0 00-6-7c-2 0-4 3-5 4-1 2-3 6-6 3-4-2-5-8-5-13 0-7 3-15 6-21v-14c-1-5-6-9-9-13h6l8 6c2-1 1-4 2-6 0-2 3-5 4-2 2 2 0 6 3 8 2-1 3-4 6-5a8 8 0 017 0c1 2-2 4-3 6a20 20 0 00-4 18l5 14a40 40 0 01-1 17c-1 4-4 6-7 7l-1-2z"/><path d="M712 327c-4-3-5-5-5-10l2-5c3-4 2-5-1-4-5 2-8 0-8-4 0-2 0-3 3-7 3-3 3-4 3-5l-9 8a124 124 0 01-12 11c-9 6-19 7-23 2-2-2-2-4 0-5a27 27 0 005-4 86 86 0 0116-12c3-1 4-3 2-3-3 0-12 7-20 13l-7 5a25 25 0 01-13 1c-3 0-7-4-7-6l2-1a30 30 0 005-4c6-5 17-10 25-12 3 0 2-2-1-2a56 56 0 00-25 12c-8 7-21 6-25-1l-1-3a93 93 0 0021-8 52 52 0 0118-6c2-1 3-2 0-2-4-1-9 1-19 6-12 6-15 7-22 6-6 0-9-2-14-6l-7-11a64 64 0 0016 1c9 0 11 0 15-2a84 84 0 0024-12 58 58 0 0137-13c12 0 20 3 27 10l5 3 1-9 4 1 1 8 2-2c1-2 5-6 10-8 9-5 24-5 37 0a62 62 0 0117 9 90 90 0 0024 12c6 2 19 3 25 1a62 62 0 015-1c2 0-2 8-6 12-9 8-19 8-35 0-9-5-21-8-21-5l2 1 18 6a54 54 0 0019 7c2 0 2 1 0 5-2 3-6 5-12 5-5 0-8-2-13-5-8-7-27-14-27-10l4 1a56 56 0 0123 11l6 4v3c-2 3-5 5-9 5-6 1-10-1-15-5-10-8-19-14-22-14s-2 1 3 4a80 80 0 0116 11l5 4c1 1 1 2-1 5s-5 3-9 3c-9-1-16-5-26-16a71 71 0 00-9-8c-1 0 0 2 3 5 3 4 4 6 2 9-1 3-3 3-6 2-4-1-5 0-2 3 3 5 3 11-2 15a12 12 0 01-3 3l-3-3c-3-4-5-4-8 0a54 54 0 01-2 3 113 113 0 01-3-2z"/><path d="M727 233l-5 4-5-3v27h10zm-32-29a88 88 0 01-9 33l11-11 8 10 8-10 9 8 8-8 8 10 8-8 12 9c-4-10-10-19-10-33-12 9-41 10-53 0zm22-6l-13 1a20 20 0 00-8 3c0 8 41 12 52 0a20 20 0 00-8-3l-13-1v7h-10zm8-44h-6v49h6z"/><path d="M725 155l-3 24 25 12-13-17 17-5zm-3-6c-4 0-6 1-6 3s2 3 6 3 7-1 7-3-3-3-7-3z"/></g></svg>