<svg viewBox="0 0 640 480" xmlns="http://www.w3.org/2000/svg"><g fill-rule="evenodd"><path d="m0 0h640v480h-640z" fill="#229e45"/><path d="m321.4 436 301.5-195.7-303.3-196.3-302.5 196.7z" fill="#f8e509"/><path d="m452.8 240c0 70.3-57.1 127.3-127.6 127.3a127.4 127.4 0 1 1 127.6-127.3z" fill="#2b49a3"/><path d="m444.4 285.8a124.6 124.6 0 0 0 5.8-19.8c-67.8-59.5-143.3-90-238.7-83.7a124.5 124.5 0 0 0 -8.5 20.9c113-10.8 196 39.2 241.4 82.6z" fill="#fff"/></g><path d="m219.4 191.3c0 1.5.3 2.7 1 3.6.7.8 1.6 1.3 2.8 1.3a3.5 3.5 0 0 0 2.8-1.1c.7-.8 1-2 1.1-3.7 0-1.6-.2-2.8-1-3.6a3.5 3.5 0 0 0 -2.7-1.3 3.6 3.6 0 0 0 -2.8 1.2c-.8.8-1.1 2-1.2 3.6z" fill="#f7ffff"/><path d="m323 199.6-.8 3.8 1.5.4c1 .2 1.8.4 2.2.3a1.9 1.9 0 0 0 1.6-1.5c0-.5 0-.9-.2-1.3a2 2 0 0 0 -1-.9l-1.9-.5-1.3-.3z" fill="#fff"/></svg>