<svg xmlns="http://www.w3.org/2000/svg" viewBox="0 0 640 480"><g fill-rule="evenodd"><path fill="#229e45" d="M0 0h640v480H0z"/><path fill="#f8e509" d="M321.4 436l301.5-195.7L319.6 44 17.1 240.7z"/><path fill="#2b49a3" d="M452.8 240c0 70.3-57.1 127.3-127.6 127.3A127.4 127.4 0 11452.8 240z"/><path fill="#fff" d="M444.4 285.8a124.6 124.6 0 005.8-19.8c-67.8-59.5-143.3-90-238.7-83.7a124.5 124.5 0 00-8.5 20.9c113-10.8 196 39.2 241.4 82.6z"/></g><path fill="#f7ffff" d="M219.4 191.3c0 1.5.3 2.7 1 3.6.7.8 1.6 1.3 2.8 1.3a3.5 3.5 0 002.8-1.1c.7-.8 1-2 1.1-3.7 0-1.6-.2-2.8-1-3.6a3.5 3.5 0 00-2.7-1.3 3.6 3.6 0 00-2.8 1.2c-.8.8-1.1 2-1.2 3.6z"/><path fill="#fff" d="M323 199.6l-.8 3.8 1.5.4c1 .2 1.8.4 2.2.3a1.9 1.9 0 001.6-1.5c0-.5 0-.9-.2-1.3a2 2 0 00-1-.9l-1.9-.5-1.3-.3z"/></svg>