<svg xmlns="http://www.w3.org/2000/svg" viewBox="0 0 640 480"><path fill="#ffd520" d="M0 0h640v480H0z"/><path fill="#ff4e12" d="M0 480h640V0z"/><path fill="#fff" stroke="#000" stroke-width=".4" d="M542 60c-20 11-17 60-49 49-18-12-40-11-59-19-10-7-41-24-43-16 9 1 17 8 2 4 20 19-13-2-22 4-12 3-21 5-3 6 16 8-19 5 2 10 5 14-21-7-30 4-20 1 3 28-4 9 9-9 36 0 38 7-22-10-34 11-58 11-19 11 43-8 27 19-2 9-32 31-9 21 5 6-14 31 3 14 17-5 29 27 13 31 11 1 29 16 6 12-6 4 12 12-4 5-18-2-32-21-44-27-2 22-43-10-45-1 8 7-16 17-14 17-9 9-27 3-33 14 22 5-5 43-22 45 32-7 10 27-1 35 5 13-18 19-31 21 11 11-23 0-30-1-9-5-35 0-14 4 12-1 44 9 16 11-11 1-39 12-14 8 30-2-12 11-20 14-12 3-28 21-7 10 8-2 33-11 13-1-10 6-39 23-34 26 26-6 50-18 72-33 10-6 15-10 4 2-10 15 28-17 17 0-21 14 18-2 23-8 10-12 32-44 48-24-13 3-7 12-15 18 4 6 11-2 12 6 17-18 15 19 1 24-8 16 8 47 30 41s11-40 19-48c10 4 15 29 15 4-3-24-41-8-40-37-10-16 7-26 19-12 25 15 52-18 26-36-7-10-35 7-18-12 19-5-15-13-16 4-18 30-22-27-1-32 30-12 59 12 89 11 11-1 23 16 4 12-8 1 14 9-3 13-10 14 15-8 12 8 19-4 36 15 57 14 15 6 7 31 28 34 18 5-13-14-1-24 8-19-8 19 8 22 18 19 48-10 31-30-6-10-28-10-6-7 19-2-11-16-17-18 11-5 17-16 0-13-15 4-19 25-39 17-20 0-37-13-20-31 19-11 5-47 26-48 8 4 0 14 10 10-5 11 10 22 8 6 16 11 3-13 19-15 22-18 48 18 66-9 14-17-11-56-32-40-16 7-5 27 2 30-15-3-8-29-20-11-23 14-48 0-69-11-14-1-14-20 0-8 6 6 21 13 9 0-24-13 21-18 30-10 14 7 0 24 15 21 5 9 9-7 15 1 1-8-6-41 6-19 1 20 3-6 15-1a77 77 0 0147 0c-7-7-27-25-27-9-6-7-17-12-10 0-18 10-7-11-9-20 10-22 44-14 60-26-11-4-39 7-39 0 9-2 30-17 8-13-10 0-22 13-13-4l14-35zM409 83c10 4 27 22 7 7-2-2-6-4-7-7zm-34 1c12-1 24 16 6 5-3 0-15-5-6-5zm31 3c20 9-2 19 0 0zm-22 7c32 13-20 3 0 0zm-6 4c12-2 11 19 2 4zm144 20c-1 5-3-3 0 0zm-48 18c-5 14 19-6 13 9 25 6-34 15-22-6l9-3zm-73 10c21 2 2 12 0 0zm106 2c2 16-10 19 0 0zm-43 3c10-2 25 14 7 6l-7-6zm-66 2h0zm97 2c5 7-9 0 0 0zm-70 1c-9 17-27-1 0 0zm-24 1c24 19-17 3 0 0zm133 39c4 10-13 6 0 0zm-68 118c11 1-9 7 0 0zm-174 26c3 1 2 1 0 0zm-35 53c-11 2-12 3 0 0zm-10 3l-3 2z"/></svg>