<svg xmlns="http://www.w3.org/2000/svg" viewBox="0 0 640 480"><path fill="#ffd520" d="M.1 0h640.1v480H.1z"/><path fill="#ff4e12" d="M.1 480h640.1V0z"/><path fill="#fff" stroke="#000" stroke-width=".4" d="M542.2 59.5c-20.7 11.8-17.6 60-49.1 49.7-18-12.6-39.8-11.4-59-19.7-10.1-6.2-40.9-23.3-43.4-15.7 9.1 1.7 16.8 8.1 2.5 4.4 19.9 18.7-13.2-2.1-22.7 4.1-11.7 2.3-20.4 5-2.5 5.7 15.5 7.6-19.3 4.7 1.9 10 5.2 13.5-21.2-6.8-30.4 3.7-19.8 1.5 3 28.7-3.7 9 9.4-8.3 36.6.2 38.3 7.5-22.6-10.5-34.5 10.8-57.7 10.9-19.3 11.3 42.3-8.5 26.7 19-2.3 9.3-32.5 31.4-9.2 20.7 4.8 6.2-14 31.2 2.8 14 17.4-5.2 29 27.4 13.2 31.2 11 1.3 28.8 16 6.3 12.2-6.5 4 12 12.3-4.1 4.9-18.6-1.7-31.9-21.5-44-26.7-2 21.5-43.2-10.2-45-1 8.3 6.4-16 16.6-14 16.5-9.4 9.6-27.4 3.3-33.1 14.5 21.8 4.5-5 42.7-22.4 44.7 32.8-6.8 10.3 27-.5 35.1 4.4 13-18.6 18.7-31.5 21 11.7 11-22.2.3-29.8-1.4-8.6-5-34.9.3-13.4 4.1 11.3-.6 43.3 8.9 15.6 11-11.3.8-38.8 12.4-13.8 8.3 29.3-2.6-12 11-20.2 14-11.8 2.3-28 20.6-7 9.6 8.4-2.2 32.6-10.6 13-.9-10.2 6.3-38.7 22.6-34.1 26.2 26-6.3 49.8-18 71.8-32.8 9.8-6.7 14.8-10 4.2 1.2-9.8 15.1 28-17 17.2 0-21.6 14.2 18-1.1 22.4-7.7 10.8-11.8 32.5-44 48-23.9-13 2.6-6.8 11.7-14.8 18.4 4.5 5.3 11.5-2.4 12.4 6 17-18.8 14.7 19 1.3 23.6-8.9 16.4 7.5 47 29.3 41.1 22.6-6.2 11.2-40.4 19.2-48.4 9.7 4.2 14.9 29.2 15 4.8-3.2-24.5-40.6-8-39.5-37-10-16.2 6.9-26.5 18.6-12 25.3 14.4 52-18.5 26.1-36.5-7.3-10.4-35.5 6.7-18.4-12 19.5-4.6-14.5-12.6-16.2 3.7-17.9 30.4-21.5-26.3-.7-31.6 29.9-12.1 58.9 12.3 89 10.7 11.6-1 23.5 16.2 4 12.1-7.5 1.5 14.2 9-2.4 12.8-10 14.6 14.8-7.6 12 8.6 18.7-3.8 35.4 14.9 56.5 13.3 15.3 6.7 7 31.2 28.5 34.5 17.6 5.3-13.5-13.7-1.4-23.7 7.6-19.1-8 19.1 7.8 22 18.5 18.4 48.6-10.8 31.3-30.2-6.1-10-28.2-9.8-6-7 19.2-2-11.6-15.9-17-18.2 11.3-4.6 16.7-16.4-.4-12.8-14.7 4.3-18.7 24.4-38.9 17.2-19.5 0-37.3-13.4-19.4-31 18.5-11.1 4.3-47.8 25.8-48.3 7.4 3.6-.5 14.2 10.1 10.3-5.2 10.5 9.4 21.5 7.8 5.5 15.6 11.5 2.7-13 18.7-14.5 21.9-18 48.2 17.8 66.6-9.7 13.8-17-11.4-55.4-32.3-39.7-15.7 7.4-4.7 27.4 2.3 30.5-15-3.2-8.2-29.2-20.4-11.5-23.1 14.3-48-.1-69-10.5-13.6-1.2-14.5-20-.5-8.1 6.2 5.4 21.7 12.5 9.6-.4-24.6-12.7 21.3-18.2 30.2-10.3 13.7 7.6-.7 24.4 14.3 21.2 5.7 9.1 8.9-6.7 15.4 1 .5-8.3-6.3-40.6 5.7-18.4 1.4 19.8 3-6.2 15.1-1a77 77 0 0147.2-.1c-7.3-7.8-26.8-25.1-27.2-9.1-6-7.6-16.6-11.9-10-.6-18.1 10.5-6.5-10.2-8.4-19.4 10-22.6 43.1-14.4 59.3-26.2-10.7-4-38.6 7.4-39.1.2 9.1-2.7 30-17.4 8-13.3-9.2-.2-21.5 12.8-12.7-3.6 4.4-12 9.2-24 14.3-35.8zm-133 23.1c9.5 4.3 26.3 22.4 7.2 7.7-2.8-2-6.3-4-7.1-7.7zm-34 1.3c11.4-.7 23.7 15.8 6.1 5.3-3-.6-15.8-5.1-6-5.3zm31 3.5c20 8.6-1.9 18.8 0 0zM384 93.5c31.8 13.7-19.9 3.6 0 0zm-6.5 4.7c12.8-2.5 11.2 18.5 2.2 3.5zM522.1 118c-1.3 4.7-3-2.7 0 0zm-47.7 17.8c-5.8 14.3 18.9-5.9 12.7 9.5 24.8 5.2-33.8 15.1-21.9-6 2.4-2.4 5.9-3.6 9.2-3.5zm-73.9 10.5c21.6 1.5 2.9 11.4 0 0zm106.2 1.8c2.2 15.7-10.1 18.9 0 0zm-43 3.2c10.5-2.2 25 14 7.5 5.6-2.4-2-4.7-4.2-7.6-5.6zm-66 1.7l.2.2zm97.4 1.5c4.4 7.7-8.8.1 0 0zm-70 1.3c-9.2 17.3-27.4-1.3 0 0zm-24.1.9c23.8 19.5-16.6 3.7 0 0zm133 39c3.8 10.6-12.8 6.6 0 0zm-68 118c10.9 1.3-8.9 7.3 0 0zm-173.8 26.6c2.6.6 2.3.5 0 0zm-35 52.5c-10.8 2-12 2.8 0 0zm-10.1 2.7l-3.2 2.4z"/></svg>