<svg xmlns="http://www.w3.org/2000/svg" viewBox="0 0 640 480"><defs/><path fill="#ce1126" d="M0 0h640v480H0z"/><path fill="#003f87" d="M0 34.3h640v411.4H0z"/><circle cx="320" cy="240" r="188.6" fill="#fff"/><circle cx="320" cy="239" r="156.3" fill="none" stroke="#552300" stroke-width="3.9"/><path fill="#007f00" d="M302 73.2c14-15.2 26.9 2.3 26.5 10.6C328.2 92 314 110 301 95.5c13.4 3.4 17.4-11.5 24.1-11.7-6.7.2-9.5-14.6-23.2-10.6zm-147.2 119c-7.4-19.4 14-23 21.3-19 7.3 3.9 17.3 24.6-1.6 29.6 9-10.4-2.7-20.5.2-26.6-2.9 6-17.5 2-19.9 16zM471.9 173c19.4 7.6 7.6 25.8-.2 28.4-7.9 2.7-30-4-21-21.2 1.6 13.6 17 12 19.7 18.1-2.6-6.2 10.3-14 1.5-25.3zM218.8 377.4c-20.7-2-14.3-22.7-7.5-27.4s30-4.3 26 14.7c-5.3-12.6-19.7-6.8-24-12 4.3 5.2-6 16.3 5.5 24.7zm209.3-15c.3 20.7-21.1 16.8-26.6 10.6-5.4-6.2-7.7-29 11.8-27.3-12 6.6-4.6 20.2-9.4 25 4.8-4.8 17.1 4 24.2-8.2zM170 153c-1.9-20.6 19.8-18.3 25.7-12.6 6 5.8 10 28.4-9.6 28.2 11.5-7.6 3-20.5 7.4-25.6-4.4 5-17.3-2.8-23.5 10zm22.2 193c-20.5-3.5-12.7-23.7-5.6-27.9 7-4.2 30.1-2.3 25 16.4-4.5-13-19.3-8-23.1-13.6 3.8 5.5-7.2 16 3.7 25zM354.3 74c18.6-9.2 24.3 11.7 21 19.3-3.2 7.5-23 19.4-29.8 1.3 11.2 7.9 20.3-4.7 26.7-2.4-6.4-2.3-3.7-17-17.9-18.2zM394 388.3c-9.3 18.5-26.5 5.3-28.5-2.7s6.5-29.3 23-19c-13.8.5-13.4 16-19.8 18 6.4-2 13.3 11.4 25.3 3.7zm90.5-178.7c15.6 13.7-1.7 26.8-10 26.7-8.2-.1-26.8-13.8-12.5-27-3 13.4 12 17 12.4 23.6-.3-6.7 14.5-9.8 10-23.3zm-263-108.8c4.7-20 24.5-11.2 28.4-3.9 3.8 7.3.5 30-18 23.8 13.3-3.7 9.3-18.6 15-22-5.7 3.4-15.5-8-25.4 2.1zm-61.6 172.5c-18.2-10-4.2-26.5 4-28.1 8-1.7 29.2 7.7 18 23.7.2-13.7-15.4-14-17.2-20.5 1.8 6.5-12 12.7-4.8 25zm263.6-159.6c20.6-3 19.4 18.7 14 24.8-5.5 6.2-28 11.4-28.9-8 8.2 11 20.8 1.9 26.2 6-5.4-4.1 1.9-17.3-11.3-22.8zM306.3 408.1c-19 8.4-23.8-12.7-20.3-20 3.6-7.5 23.9-18.6 30-.1-11-8.4-20.5 3.8-26.8 1.3 6.3 2.5 3 17.2 17.1 18.8zM476.8 293c8.6 18.8-12.6 23.7-20.1 20.2s-18.8-23.6-.2-29.7c-8.4 10.9 4 20.3 1.4 26.6 2.5-6.3 17.3-3 19-17.1zm-325.1-60.6c-12-17 8-25.7 16-23.6 8 2 22.8 19.8 5.7 29.2 6.2-12.3-7.6-19.3-6.3-25.9-1.3 6.6-16.5 6.1-15.4 20.2zM264 395.6c-19.6 7.1-23-14.2-18.9-21.4 4-7.2 25-16.9 29.9 2-10.3-9.1-20.7 2.4-26.8-.5 6 2.9 1.8 17.3 15.8 19.9zm-5.7-314c11.6-17.2 27-2 28 6.3.9 8.1-10.3 28.2-25.4 15.8 13.8 1.3 15.4-14 22-15.2-6.6 1.2-11.7-13-24.6-7zm200.2 252.1c1.3 20.6-20.3 17.7-26 11.7-5.8-5.9-9.1-28.6 10.4-27.8-11.7 7.2-3.6 20.4-8.2 25.4 4.6-5 17.3 3.3 23.8-9.3zm-5.3-194.4c20.4 4 12 24 4.7 28-7.2 4-30.2 1.3-24.4-17.2 4 13.1 19 8.7 22.6 14.4-3.6-5.7 7.7-15.7-3-25.2zm-258.4-14.6c.2-20.6 21.5-16.2 26.8-9.9s7 29.3-12.4 27c12.2-6.3 5-20 10-24.7-5 4.7-17-4.5-24.4 7.6zM169 311c-18.6-9.4-5.1-26.4 2.9-28.3 8-2 29.5 6.7 19 23-.4-13.7-16-13.4-18-19.8 2 6.4-11.6 13.1-4 25zM392 91c19.5-7.3 23 14 19 21.2s-24.9 17.1-29.9-1.7c10.4 9 20.7-2.6 26.9.3-6.2-2.9-2-17.3-16-19.8zm-41.3 314.8c-15.2 14.2-26.7-4.1-25.8-12.3s16.3-25.3 28.2-9.9c-13-4.3-18 10.4-24.9 10 6.8.4 8.5 15.3 22.5 12.2zm132.7-158c14.2 15.1-4.4 26.5-12.6 25.5-8.2-.9-25.4-16.3-9.8-28-4.4 13 10.3 18 10 24.7.3-6.7 15.4-8.4 12.4-22.2z"/></svg>