<svg xmlns="http://www.w3.org/2000/svg" viewBox="0 0 640 480"><path fill="#fff" d="M0 219h640v194H0Z"/><path fill="#081873" d="M0 0h640v241H0Zm0 363h640v117H0Z"/><path fill="#de3929" d="M0 284h640v38H0Z"/><path fill="#ffce08" d="m239 375 6 19h20l-16 12 6 20-16-12-17 12 7-20-17-12h21m181-159 6 20h20l-16 11 6 20-17-12-16 12 6-20-16-11h20m-208 60 6 19h20l-16 12 6 20-16-12-17 12 7-20-17-11h20m222-25 6 19h20l-16 12 6 19-17-12-16 12 6-19-16-12h20m-38-152 7 19h20l-17 12 7 19-17-12-16 12 6-19-16-12h20m-61-42 7 19h20l-16 12 6 19-17-12-16 12 6-19-16-12h20m-60 3 6 19h20l-16 12 6 19-16-12-17 12 6-19-16-12h20m-32 40 6 20h20l-16 12 6 19-16-12-17 12 7-19-17-12h20m112 140 7 19h20l-16 12 6 20-17-12-16 12 6-20-16-12h20m77-39 7 19h20l-16 12 6 20-16-12-17 12 6-20-16-12h20"/></svg>