<svg xmlns="http://www.w3.org/2000/svg" fill-rule="evenodd" viewBox="0 0 640 480"><path fill="#108c00" d="M0 0h640v480H0z"/><path fill="#ffd600" d="M0 170h641v47H0z"/><path d="M0 216h641v47H0z"/><path fill="#fff" d="M0 263h641v47H0z"/><path fill="#ffd600" d="M253 0h45v481h-45z"/><path d="M296 0h46v481h-46z"/><path fill="#fff" d="M342 0h46v481h-46z"/><rect width="257.4" height="258.5" x="-451" y="-370" fill="#e72910" ry="129.3" transform="scale(-1)"/><path fill="#ffe700" d="M316 129l4-12 5 12 14 1-11 8 4 14-12-8-12 8 5-14-11-8h14zm100 71l4-13 5 13h14l-11 8 5 15-12-9-12 8 4-14-11-8zm-29 112l4-13 4 12 14 1-11 8 5 14-12-9-11 9 4-14-11-8zm-140 0l5-13 4 12 14 1-11 8 5 14-12-9-12 9 4-14-11-8h14zm-26-115l5-13 4 13h14l-11 9 5 14-12-9-12 8 5-13-11-9zm163-34l-4 13-4-13h-14l11-8-5-15 12 9 12-8-5 14 11 8h-14zm40 109l-4 13-4-13h-14l11-8-5-15 12 9 11-8-4 14 11 8h-14zm-99 80l-5 13-4-13h-14l11-8-5-15 12 9 12-8-5 14 11 8h-13zm-94-80l-4 13-4-13h-14l11-8-5-14 12 8 12-8-5 14 11 8zm35-107l-5 13-4-13h-14l11-9-5-14 12 9 12-9a374 374 0 00-4 14l10 8-13 1z"/><g transform="translate(-469 -91)"><g stroke="#000" stroke-width=".5"><path fill="#a95600" d="M764 368c6-1 4-4 6-5 4-2 8-1 9 1s0 4 2 4 46-2 47-1c2 2 2 5 1 6-2 2-58 3-60 2s-5-7-5-7z"/><path fill="#009200" d="M804 324a6 37 0 000 0 6 37 0 00-3 4 7 33 0 00-2-2 7 33 0 00-7 32 8 3 84 000 1 8 3 84 00-4-4 8 3 84 00-2 8 8 3 84 002 7 8 4 84 000 3 8 4 84 002 6v0c0 3 2 4 4 6a8 4 84 001 1 7 33 0 004 7 7 33 0 002-2 6 37 0 003 6 6 37 0 003-4 7 33 0 000 0 7 33 0 004-6 4 8 5 001 0l2-2-1-2a4 8 5 000-2 4 8 5 000 0 3 8 5 004-7 3 8 5 00-3-8 7 33 0 001-8 7 33 0 00-8-32 7 33 0 00-1 0 6 37 0 00-2-2z"/><path fill="#804bff" d="M785 291s-11 10-10 36c2 30 37 50 37 50s-5-18-6-40c-2-31-13-45-13-45l-8-1z"/><path fill="#009200" d="M797 283a3 3 0 000 0c-3 0-7 3-7 7h0-1a7 7 0 00-3-1 3 3 0 000 0c-3 0-5 2-7 5a7 7 0 00-3 6 3 3 0 000 0c0 4 3 7 7 7a7 7 0 004-1h0a7 7 0 006 6h1a37 12 69 003 37 37 12 69 0019 30c6 9 7 13 10 20 1-5 1-10-1-16v-6a37 12 69 00-5-35 37 12 69 00-13-24 7 7 0 003-5 3 3 0 000 0v-2a7 7 0 001-3 3 3 0 000 0c0-3-2-5-4-6l1-2a6 6 0 00-1-3v-2c0-2-1-4-3-5h1a3 3 0 000 0c0-4-4-7-8-7h0z"/><path fill="#804bff" d="M788 271c-3 0-6 1-8 3-3 2-4 8-2 12s8 5 15 4c4 0 6 0 9-2v1l2 5c-2 2 0 5 2 6 2 2 14 13 21 3l-6-2 5-4-6-2 4-3-7-3a11 11 0 003-3c-5 0-14-10-20-10a24 24 0 00-4-3 16 16 0 00-8-2z"/></g><ellipse cx="794.9" cy="265.3" fill="red" rx="3.5" ry="1.9"/><ellipse cx="623" cy="543.6" fill="#ff0" stroke="#000" stroke-width="2.5" rx="4.9" ry="2.9" transform="rotate(-20) skewX(1)"/><circle cx="789.5" cy="272.2" r="1.1"/><path fill="#ff0" stroke="#000" stroke-width=".6" d="M787 281c0 1-1 3-4 4-2 1-4 3-5 6-5-8-2-11 2-12s6-1 7 2z"/><circle cx="780.1" cy="276.5" r=".9"/></g></svg>