<svg xmlns="http://www.w3.org/2000/svg" fill-rule="evenodd" viewBox="0 0 640 480"><path fill="#108c00" d="M0 0h640v480H0z"/><path fill="#ffd600" d="M-.1 170.1h640.6v47.1H0z"/><path d="M-.1 215.6h640.6v47.2H0z"/><path fill="#fff" d="M-.1 262.8h640.6v47.1H0z"/><path fill="#ffd600" d="M252.5 0H298v481.3h-45.5z"/><path d="M296.4 0H342v481.3h-45.6z"/><path fill="#fff" d="M342 0h45.5v481.3H342z"/><rect width="257.4" height="258.5" x="-450.6" y="-370.3" fill="#e72910" ry="129.3" transform="scale(-1)"/><path fill="#ffe700" d="M316 129.4l4.3-12.8 4.2 12.7 14 .2c0-.2-11 8.5-11 8.5l4.9 14.3c-.2-.5-12-8.8-12-8.8l-11.9 8.4c.2 0 4.7-13.9 4.7-13.9l-10.9-8.2 13.6-.3zm99.8 70.4l4.6-13 4.2 12.8 13.9.3c0-.3-11 8.4-11 8.4l5 14.2c-.2-.4-12-8.8-12-8.8l-12 8.4c.3 0 4.7-13.9 4.7-13.9l-10.8-8.1zm-29.1 111.7l4.6-13 4.1 12.8s14 .5 14 .2-11 8.5-11 8.5l5 14.3c-.3-.5-12.1-8.9-12.1-8.9l-11.8 8.5c.2 0 4.6-13.9 4.6-13.9l-10.8-8.2zm-139.7 0l4.5-13 4.2 12.8s13.9.5 13.9.2-11 8.5-11 8.5l5 14.3c-.3-.5-12-8.9-12-8.9l-12 8.5c.3 0 4.7-13.9 4.7-13.9l-10.8-8.2 13.4-.3zM221.4 197l4.5-13 4.3 12.8s13.8.5 13.8.2-11 8.5-11 8.5l5 14.3c-.2-.5-12-8.8-12-8.8l-11.8 8.4c.3 0 4.5-13.9 4.5-13.9l-10.8-8.2zm162.8-34c0 .3-4.7 13-4.7 13l-4-12.7-14-.3c0 .2 11-8.4 11-8.4l-5-14.3c.2.5 12 8.9 12 8.9l12-8.5c-.3 0-4.7 14-4.7 14l10.8 8-13.5.3zM424.3 272l-4.6 13-4.1-12.8-14-.2c0 .2 11-8.4 11-8.4l-5-14.3c.3.4 12.1 8.8 12.1 8.8l11.8-8.5c-.2 0-4.6 14-4.6 14l10.8 8.2-13.5.2zM324.8 352l-4.6 13.2-4.2-12.9s-13.9-.5-13.9-.2 11-8.5 11-8.5l-5-14.3c.2.5 12 8.9 12 8.9l12-8.5c-.3 0-4.7 14-4.7 14l10.8 8.1-13.4.3zm-93.6-79.8l-4.6 13-4.1-12.8-14-.2c0 .2 11-8.4 11-8.4l-4.9-14.3c.2.4 12 8.8 12 8.8l11.9-8.5c-.2 0-4.6 14-4.6 14l10.8 8.2zm34.5-107.6l-4.6 13.2-4.1-13s-14-.4-14-.1 11-8.5 11-8.5l-4.9-14.3c.2.5 12 8.8 12 8.8l11.9-8.4a374 374 0 00-4.5 13.9l10.7 8.2-13.4.2z"/><g transform="translate(-469 -91.3)"><g stroke="#000" stroke-width=".5"><path fill="#a95600" d="M764.3 367.7c5.8-.3 3.3-3.2 6.2-4.9 3-1.5 7.2-.6 8.4 1.4s.3 3.9 2 3.9 46-2.4 47.5-.9c1.6 1.7 2 5 .3 6.2-1.6 1.4-57.6 3-59.6 1.5s-4.9-6.8-4.9-7.2z"/><path fill="#009200" d="M804 323.9a5.8 36.8.2 000 0 5.8 36.8.2 00-2.7 4.5 6.7 33.4.3 00-2.5-2 6.7 33.4.3 00-6.8 32 7.8 3.3 84.2 00-.4 1 7.8 3.3 84.2 00-3.4-4 7.8 3.3 84.2 00-2.4 8 7.8 3.3 84.2 002.5 6.8 7.5 3.5 84.2 000 2.6 7.5 3.5 84.2 002 5.8v.7c0 2.2 1.5 4 3.3 5.3a7.5 3.5 84.2 00.9 1.4 6.7 33.4.3 004.3 7.1 6.7 33.4.3 002-1.7 5.8 36.8.2 003.2 6 5.8 36.8.2 002.7-4.8 7.2 33.4.3 00.7 0 7.2 33.4.3 003.8-5.4 3.5 7.5 4.5 00.3-.6c1.3 0 2.3-.4 2.3-1.4 0-.8-.5-1.4-1.1-1.8a3.5 7.5 4.5 00.2-2 3.5 7.5 4.5 000-.4 3.3 7.8 4.5 003.7-7.5 3.3 7.8 4.5 00-2.2-8 7.2 33.4.3 00.2-7.2 7.2 33.4.3 00-7.2-32.5 7.2 33.4.3 00-1.2.6 5.8 36.8.2 00-2.2-2.5z"/><path fill="#804bff" d="M785 291.3s-11.4 9.8-9.9 36c1.4 29.6 37.1 49.2 37.1 49.2s-5.1-18-6-39.4c-2-31-13.6-44.7-13.6-44.7l-7.6-1.2z"/><path fill="#009200" d="M797.1 282.8a3.4 3.4 0 000 0c-3.5 0-7.1 3-7.2 6.7h0c-.4.1-.9.1-1.3.3a7.1 7.1 0 00-2.5-.6 3.4 3.4 0 000 0c-3 0-5.6 2.1-6.7 4.8a7.4 7.4 0 00-3.4 6 3.4 3.4 0 000 0c-.1 3.7 3.2 7.2 7 7.3a7 7 0 003.6-1.1H787a7.3 7.3 0 006 5.4l.5.5a37.3 12.3 69.4 003.4 37.4 37.3 12.3 69.4 0019.4 30c5.5 8.1 7.1 12.7 9.6 19.1.7-4.3 1.4-9.2-.5-15.4 0-1.9-.1-4-.6-6.2a37.3 12.3 69.4 00-4.6-35.4 37.3 12.3 69.4 00-12.7-23.6 7 7 0 002.4-5 3.4 3.4 0 000 0c0-.7-.1-1.3-.3-1.8a7.3 7.3 0 001.2-3.6 3.4 3.4 0 000 0c0-2.4-1.4-4.7-3.5-6l.6-2a6.4 6.4 0 00-.7-3l.3-1.5c0-2.2-1.2-4-3-5.3l.1-.1a3.4 3.4 0 000 0c0-3.8-3.6-6.9-7.2-7h-.2z"/><path fill="#804bff" d="M788.4 270.9c-3.3 0-6.4 1-8.5 2.7-3.3 2.7-4 8.5-1.8 12.1 2.1 3.9 8 5.8 15.2 4.8 3.7-.6 5.6-1 8.2-2.6l.8.9c-.8 1.7.3 4 1.7 5.4-1.6 2 .3 5.2 2 6.3 2 1.7 13.6 12.5 21.4 2.6-1.7 0-3.8-1-6-2.2 1.6-.6 3.2-1.7 4.6-3.6-1.6 0-3.7-.8-5.9-2.1 1.5-.7 2.9-1.7 4.1-3.4-2 0-4.7-1.3-7.5-3a11 11 0 003.7-3.2c-5.3.1-14.7-9.5-20.3-10a24.2 24.2 0 00-4-3 16.2 16.2 0 00-7.7-1.7z"/></g><ellipse cx="794.9" cy="265.3" fill="red" rx="3.5" ry="1.9"/><ellipse cx="623" cy="543.6" fill="#ff0" stroke="#000" stroke-width="2.5" rx="4.9" ry="2.9" transform="rotate(-20) skewX(.7)"/><circle cx="789.5" cy="272.2" r="1.1"/><path fill="#ff0" stroke="#000" stroke-width=".6" d="M786.8 280.6c.4 1.4-.7 3.4-3.3 4-2.7 1-4.6 3.2-5.6 6.8-4.5-8.1-2-11.6 2.2-12.5 3.7-1 6-1 6.7 1.7z"/><circle cx="780.1" cy="276.5" r=".9"/></g></svg>