<svg xmlns="http://www.w3.org/2000/svg" xmlns:xlink="http://www.w3.org/1999/xlink" viewBox="0 0 640 480"><defs><path id="a" d="M478 60v89l18 88 18-88V60z"/><path id="b" d="M461 184l17 36v17c0-1 0 18-17 18s-18-35-18-35-18 35-18 71 18 53 18 53-3-37 18-36c20 2 17 18 17 18v35h18V220l18-36-27-53-26 53z"/><path id="c" d="M558 96l-27 71 18 53-35-18 35 53v36h18v-36l36-53-36 18 18-54-27-70z"/></defs><g fill-rule="evenodd"><path fill="#ffe800" d="M0 0h640v480H0z"/><path fill="#00148e" d="M0 240h640v240H0z"/><path fill="#da0010" d="M0 360h640v120H0z"/><path d="M270 291l-73 76-1-1 72-77 1 2zm50 12l-95 100-1-1 94-100z"/><g stroke="#000"><g fill="gray" stroke-width="4.1"><use transform="matrix(-.07 -.07 -.1 .1 265 430)" xlink:href="#a"/><use transform="matrix(-.07 -.07 -.1 .1 241 391)" xlink:href="#a"/></g><g stroke-width=".7"><path fill="#ffdf00" d="M208 115s-8 215 24 215 48-23 48-23l-1-118z"/><path fill="#0000c4" d="M227 135c0 11-3 173 13 173s40-12 40-12l-1-107z"/><path fill="#e10000" d="M238 146c0 11 2 139 18 139h24l-1-96z"/></g></g><path d="M206 116l73 77 1-2-72-77z"/><g stroke="#000" stroke-width=".8"><path fill="#ffdf00" d="M184 159s-20 209 41 209c52 0 52-33 62-33l-10-77-93-99z"/><path fill="#0000c4" d="M205 181c0 11-21 132 31 165 20 11 51-11 51 0l-10-88z"/><path fill="#e10000" d="M225 203c0 11-10 99 21 121 21 22 72 16 72 16l-41-82z"/></g><path d="M184 158l95 100 1-2-94-100-2 2z"/><g fill="#cececc" stroke="#000" stroke-width="1pt"><use transform="matrix(.14 -.14 .1 .1 86 192)" xlink:href="#b"/><use transform="matrix(.1 -.16 .14 .1 114 184)" xlink:href="#c"/></g><path d="M370 291l73 76 1-1-72-77zm-50 12l95 100 1-1-94-100z"/><g stroke="#000"><g fill="gray" stroke-width="4.1"><use transform="matrix(.07 -.07 .1 .1 375 430)" xlink:href="#a"/><use transform="matrix(.07 -.07 .1 .1 399 391)" xlink:href="#a"/></g><g stroke-width="1pt"><path fill="#ffdf00" d="M301 273s-18 336 53 336 107-35 107-35l-1-185z" transform="matrix(-.45 0 0 .64 568 -60)"/><path fill="#0000c4" d="M345 304c0 18-8 270 27 270s89-18 89-18l-1-167z" transform="matrix(-.45 0 0 .64 568 -60)"/><path fill="#e10000" d="M368 321c0 18 4 218 40 218h53l-1-150z" transform="matrix(-.45 0 0 .64 568 -60)"/></g></g><path d="M434 116l-73 77-1-2 72-77z"/><g stroke="#000" stroke-width="1pt"><path fill="#ffdf00" d="M301 273s-35 336 71 336c89 0 89-53 106-53l-18-124-159-159z" transform="matrix(-.58 0 0 .62 630 -10)"/><path fill="#0000c4" d="M337 308c0 18-36 213 53 266 35 18 88-18 88 0l-17-142z" transform="matrix(-.58 0 0 .62 630 -10)"/><path fill="#e10000" d="M372 344c0 17-18 159 36 195 35 35 124 25 124 25l-71-132z" transform="matrix(-.58 0 0 .62 630 -10)"/></g><path d="M456 158l-95 100-1-2 94-100 2 2z"/><g stroke="#000"><g fill="#cececc" stroke-width="1pt"><use transform="matrix(-.14 -.14 -.1 .1 554 192)" xlink:href="#b"/><use transform="matrix(-.1 -.16 -.14 .1 526 184)" xlink:href="#c"/></g><path fill="#e10000" stroke-width=".8" d="M287 423a29 29 0 0031 0v-88h-21c11 33 11 66-10 88z"/><g fill="#0000c4" stroke-width=".7"><path d="M303 337c0 62-15 75-15 88 7 0 11-6 15-14 7-12 7-75 7-74z"/><path d="M291 337c0 36-16 69-13 77 3 6 13-15 25-3 7-12 7-75 7-74h-19z"/></g><g fill="#ffdf00" stroke-width=".6"><path d="M292 331c0 41-14 44-14 55 6 0 14-6 14-6 7-8 7-49 7-49z"/><path d="M280 331c0 24-15 44-12 49s12-8 24 0c7-8 7-49 7-49z"/></g><path fill="#e10000" stroke-width=".8" d="M353 423a29 29 0 01-31 0v-88h21c-11 33-11 66 10 88z"/><g fill="#0000c4" stroke-width=".7"><path d="M337 337c0 62 15 75 15 88-7 0-11-6-15-14-7-12-7-75-7-74z"/><path d="M349 337c0 36 16 69 13 77-3 6-13-15-25-3-7-12-7-75-7-74h19z"/></g><g fill="#ffdf00" stroke-width="1pt"><path d="M514 610c0 88-41 94-41 118 18 0 41-13 41-12 17-18 19-108 17-107z" transform="matrix(-.35 0 0 .46 528 51)"/><path d="M478 610c-1 51-43 95-35 106 9 9 35-18 71 0 17-18 19-108 17-107z" transform="matrix(-.35 0 0 .46 528 51)"/></g><path fill="#908f8a" stroke-width=".8" d="M242 342l-11 7 11 8 5-4 3 4 2 8 3-8 3-4h144v-7H258l-3-4c0-4 1-8 3-8h11c0-4-6-12-17-12-10 0-16 8-16 12h11c2 0 3 4 3 8l-3 3-5-3z"/><path fill="#a40" d="M272 332v35h96v-37h-96z"/><g fill="#ffdf00" stroke-width=".8"><path d="M390 236c0 54-32 99-72 99s-72-45-72-99 32-99 72-99 72 44 72 99zm-10 0c0 48-28 88-62 88s-62-40-62-88c0-49 28-88 62-88s61 39 61 88z"/><path d="M346 145c-9-5-18-8-28-8s-20 3-28 8l4 10a45 45 0 0148 0l4-10zm0 179c-9 5-18 8-28 8s-19-3-28-8l4-10a45 45 0 0048 0l4 10z"/></g></g><path fill="#a7cfff" d="M380 236c0 48-28 88-62 88s-62-40-62-88 28-88 62-88 62 39 62 88z"/><g stroke="#000" stroke-width=".8"><path fill="#afff7b" d="M380 236c1 14-4 27-7 41-6 2-8-10-15-7-4-2-8-4-12-3a35 35 0 00-15-4l-15-1c4-2 12 0 14-6-2-7-11-4-16-6-5-3-6-11-13-12l-24-4c6 4 15 3 20 9 5 7-5 8-9 8-4 1-12 1-12 5 4 3 10-2 14 1 5 5-6 2-9 4-4 3 8 7 2 11-5 2-10 1-14 4 2 5 10 6 14 9 4 1 12 4 4 6a223 223 0 00-13 7 109 109 0 01-18-62c10-4 20-9 31-8 27-1 54-1 81 5l12 3z"/><path fill="#fff" d="M380 236c-7 0-14 3-21 1a30 30 0 00-17 0 26 26 0 01-17 0c-6-2-12-1-19 1-8 2-17-4-26-1-6 1-12 2-18 0-4-1-7-1-6-6 1-10 2-20 5-29 5 0 11-1 11-7 2-6 11-3 15 0 3 3 6 3 10 0 4-2 9-5 13-2 5 4 4 13 10 16 5 1 8 6 13 8 7 3 14 1 21 1h24l2 17v1z"/></g><path fill="#fede00" stroke="#fede00" stroke-width=".8" d="M265 186s22-7 54-6 53 7 53 7l-6-11s-23-6-48-7c-25 0-47 5-46 5z"/><path fill="#00dcff" d="M303 171h14c-1 2 1 6-1 8h-13zm-31 4c-1 3-5 6-4 8l15-2c-1-2 1-8-3-7l-8 1zm14-3l13-1 1 8-14 1zm48 0l-13-1c0 2-2 7 1 8h12zm30 5l4 9-14-3c1-3 0-8 3-8l7 2zm-12-3l-14-2v8l13 1z"/><path fill="#b7e1ff" d="M281 195s1 8-5 18-5 6-5 6l2 6-4-5-5 5 4-8-2-3 4-2 6-10-17 12 22-19zm4 3s2 8 5 12c2 4 2 9 2 9l8 4-10-16 6 3zm0 21l6 8 1 6-3-5-3 5 2-8-4 3 2-5-1-4zm-28 14l6-3-3 4-3-1zm64-22l12 8-8-4zm-22-16l18 15-8-4v4l-4-8v3l-5-10zm5 23l4 9 5-1-9-8zm14-6l1 9 2 2-3-11z"/><path fill="#803300" d="M282 55a322 322 0 00-99 35c3 0 13-2 5 3 7 4 22 9 30 3 7-1-5 11 4 6 8-7 19-2 28-1l42 8c10 2 12 16 14 23-3 5-18 12-5 6 10-3-10 14 2 4 5-7 7-1 10 4-3-10-1-18 4-27 6-11 16 12 6 16-3 3-13 9-4 4s3 5 0 8c5-7 12-12 14-1 0-5-3-19 1-7l17-8-14-21 34-10c9 0 21 3 28 4-3-14 15-5 23-8l49-5c-37-15-73-29-112-34-6 4 7 19-2 19l-17-1a27 27 0 00-29-5c-12 9-16-11-26-14l-2-1z"/></g></svg>