<svg xmlns="http://www.w3.org/2000/svg" xmlns:xlink="http://www.w3.org/1999/xlink" viewBox="0 0 640 480"><defs><path id="a" d="M478.4 60.2v88.6l17.7 88.6 17.7-88.6V60.2z"/><path id="b" d="M460.6 184.3l17.7 35.4v17.7c-.8-1.3 0 17.7-17.7 17.7S443 219.7 443 219.7s-17.7 35.4-17.7 70.9 17.7 53.1 17.7 53.1-2.6-36.7 17.7-35.4c20.4 1.2 17.7 17.7 17.7 17.7v35.4h17.8V219.7l17.7-35.4-27.2-53.2-26 53.1z"/><path id="c" d="M557.8 95.7l-26.3 70.8 17.7 53.2-35.4-17.7 35.4 53.1v35.5H567V255l35.5-53.1-35.5 17.7 17.8-53.2-26.9-70.8z"/></defs><g fill-rule="evenodd"><path fill="#ffe800" d="M0 0h640v480H0z"/><path fill="#00148e" d="M0 240h640v240H0z"/><path fill="#da0010" d="M0 360h640v120H0z"/><path d="M269.6 290.8L197 367.3l-1.2-1.6 72.4-76.5 1.2 1.6zm50.4 12.5l-94.8 100-1.6-1.6 94.7-100z"/><g stroke="#000"><g fill="gray" stroke-width="4.1"><use transform="matrix(-.07 -.07 -.1 .1 265 429.6)" xlink:href="#a"/><use transform="matrix(-.07 -.07 -.1 .1 240.6 390.5)" xlink:href="#a"/></g><g stroke-width=".7"><path fill="#ffdf00" d="M208 114.8s-8 215.4 23.8 215.4 47.9-22.7 47.9-22.7l-.4-118.4z"/><path fill="#0000c4" d="M227.4 134.9c0 11.3-3.5 172.7 12.4 172.7s39.9-11.4 39.9-11.4l-.4-107z"/><path fill="#e10000" d="M237.8 145.8c0 11.3 2 139.1 18 139.1h23.9l-.4-95.7z"/></g></g><path d="M206.2 116l72.4 76.5 1.3-1.6-72.4-76.5z"/><g stroke="#000" stroke-width=".8"><path fill="#ffdf00" d="M184.3 159s-20.5 208.6 41 208.6c51.4 0 51.4-32.9 61.7-32.9l-10.3-76.9-92.5-98.9z"/><path fill="#0000c4" d="M204.8 181c0 11-20.5 131.8 30.9 164.7 20.5 11 51.3-11 51.3 0l-10.3-87.9z"/><path fill="#e10000" d="M225.4 202.9c0 11-10.3 98.8 20.6 120.8 20.5 22 71.9 16 71.9 16l-41.1-81.9z"/></g><path d="M183.8 158l94.8 100 1.7-1.6-94.8-99.9-1.6 1.6z"/><g fill="#cececc" stroke="#000" stroke-width="1pt"><use transform="matrix(.14 -.14 .1 .1 86.3 192.2)" xlink:href="#b"/><use transform="matrix(.1 -.16 .14 .1 114 183.8)" xlink:href="#c"/></g><path d="M370.4 290.8l72.5 76.5 1.3-1.6-72.5-76.5zM320 303.3l94.8 100 1.6-1.6-94.7-100z"/><g stroke="#000"><g fill="gray" stroke-width="4.1"><use transform="matrix(.07 -.07 .1 .1 375 429.6)" xlink:href="#a"/><use transform="matrix(.07 -.07 .1 .1 399.4 390.5)" xlink:href="#a"/></g><g stroke-width="1pt"><path fill="#ffdf00" d="M301.2 272.8s-17.7 336.6 53.1 336.6S460.6 574 460.6 574l-.8-185z" transform="matrix(-.45 0 0 .64 567.6 -59.8)"/><path fill="#0000c4" d="M344.5 304.2c0 17.7-7.9 269.8 27.5 269.8s88.6-17.7 88.6-17.7l-.8-167.3z" transform="matrix(-.45 0 0 .64 567.6 -59.8)"/><path fill="#e10000" d="M367.5 321.2c0 17.7 4.5 217.4 40 217.4h53.1l-.8-149.6z" transform="matrix(-.45 0 0 .64 567.6 -59.8)"/></g></g><path d="M433.8 116l-72.4 76.5-1.3-1.6 72.4-76.5z"/><g stroke="#000" stroke-width="1pt"><path fill="#ffdf00" d="M301.2 272.8S265.8 609.4 372 609.4c88.5 0 88.5-53.1 106.2-53.1l-17.7-124-159.4-159.5z" transform="matrix(-.58 0 0 .62 630.4 -10.2)"/><path fill="#0000c4" d="M336.6 308.3c0 17.7-35.4 212.6 53.2 265.7 35.4 17.7 88.5-17.7 88.5 0l-17.7-141.7z" transform="matrix(-.58 0 0 .62 630.4 -10.2)"/><path fill="#e10000" d="M372 343.7c0 17.7-17.7 159.4 35.5 194.9 35.4 35.4 124 25.8 124 25.8l-70.9-132.1z" transform="matrix(-.58 0 0 .62 630.4 -10.2)"/></g><path d="M456.2 158l-94.8 100-1.7-1.6 94.8-99.9 1.7 1.6z"/><g stroke="#000"><g fill="#cececc" stroke-width="1pt"><use transform="matrix(-.14 -.14 -.1 .1 553.7 192.2)" xlink:href="#b"/><use transform="matrix(-.1 -.16 -.14 .1 526 183.8)" xlink:href="#c"/></g><path fill="#e10000" stroke-width=".8" d="M287 422.6a29.2 29.2 0 0030.9 0v-87.9h-20.6c10.3 33 10.3 66-10.3 87.9z"/><g fill="#0000c4" stroke-width=".7"><path d="M303.3 336.6c0 62-14.9 75.8-14.9 88.2 6.3 0 10.4-5.8 15-13.8 6.1-12.4 6.7-75.4 6.1-74.4z"/><path d="M291 336.6c-.4 36.2-15.7 69.8-12.8 77.2 3.3 6.6 12.7-15.2 25.1-2.8 6.2-12.4 6.8-75.3 6.2-74.4H291z"/></g><g fill="#ffdf00" stroke-width=".6"><path d="M292.3 331.4c0 40.7-14.2 43.4-14.2 54.3 6.2 0 14.2-6 14.2-5.4 6.2-8.2 6.8-49.6 6.2-49z"/><path d="M280 331.4c-.4 23.8-15.4 44-12.5 48.9 3.3 4.3 12.4-8.2 24.8 0 6.2-8.2 6.8-49.6 6.2-49z"/></g><path fill="#e10000" stroke-width=".8" d="M353 422.6a29.2 29.2 0 01-30.9 0v-87.9h20.6c-10.3 33-10.3 66 10.3 87.9z"/><g fill="#0000c4" stroke-width=".7"><path d="M336.7 336.6c0 62 14.9 75.8 14.9 88.2-6.3 0-10.4-5.8-15-13.8-6.1-12.4-6.7-75.4-6.1-74.4z"/><path d="M349 336.6c.4 36.2 15.7 69.8 12.8 77.2-3.3 6.6-12.7-15.2-25.1-2.8-6.2-12.4-6.8-75.3-6.2-74.4H349z"/></g><g fill="#ffdf00" stroke-width="1pt"><path d="M513.8 609.5c0 88.5-40.7 94.4-40.7 118 17.7 0 40.6-12.9 40.7-11.7 17.7-17.8 19.4-107.7 17.7-106.3z" transform="matrix(-.35 0 0 .46 527.5 51)"/><path d="M478.4 609.5c-.9 51.7-43.8 95.7-35.5 106.3 9.5 9.4 35.5-17.8 70.9 0 17.7-17.8 19.4-107.7 17.7-106.3z" transform="matrix(-.35 0 0 .46 527.5 51)"/></g><path fill="#908f8a" stroke-width=".8" d="M241.6 341.6l-10.7 7.7 10.7 7.8 5.4-3.8 2.7 3.8 2.7 7.8 2.7-7.8 2.7-3.8H402v-7.8H257.8l-2.7-4c0-3.8.5-7.7 2.7-7.7h10.7c0-4-5.4-11.7-16.1-11.7-10.8 0-16.2 7.8-16.2 11.6H247c2.1 0 2.7 4 2.7 7.9l-2.7 3.8-5.4-3.9z"/><path fill="#a40" d="M272.3 332.1v34.7h96.1v-36.7h-96.1z"/><g fill="#ffdf00" stroke-width=".8"><path d="M389.8 235.9c0 54.5-32.3 98.8-72 98.8S246 290.4 246 236s32.2-99 71.9-99 71.9 44.3 71.9 99zm-10.3 0c0 48.5-27.6 87.8-61.6 87.8s-61.7-39.3-61.7-87.8c0-48.6 27.6-88 61.7-88s61.6 39.4 61.6 88z"/><path d="M345.9 144.8c-8.7-5-18.1-7.8-28-7.8s-19.4 2.8-28 7.7l4 10.2a45.3 45.3 0 0148 0l4-10.2zm.2 179.5c-8.7 5-18.1 7.8-28 7.8s-19.4-2.8-28-7.7l4-10.2a45.3 45.3 0 0048 0l4 10.2z"/></g></g><path fill="#a7cfff" d="M379.6 235.9c0 48.5-27.7 87.8-61.7 87.8s-61.6-39.3-61.6-87.8 27.6-88 61.6-88 61.7 39.4 61.7 88z"/><g stroke="#000" stroke-width=".8"><path fill="#afff7b" d="M379.5 235.9c1 14-3.2 27.5-6.7 40.8-6.3 2.3-8.2-9.8-15.1-6.2-3.8-2.2-7.2-4.1-11.7-4a34.8 34.8 0 00-15.2-3.9c-5-.4-10.1-.6-15.2-1.1 4.6-1.8 12.8.6 14.2-5.9-1.6-6.9-10.6-4-15.5-5.9-5.6-2.3-6-11-13-11.3-7.7-2.4-16-3.2-24-4.7 6 4.6 15 3.4 20.1 9.3 4.4 6.6-5.3 7.6-9.7 8.2-3.4 1.3-11.5.7-11.5 4.6 4.1 2.8 9.6-1.3 14 1 5 5-6.7 2.3-8.9 4.6-4.3 3 7.4 6.5 1.3 10.4-4.4 1.9-10 1-14 4 2 5.3 9.9 6.5 14.7 9.2 3.7.8 11.2 4 4 5.9a223 223 0 00-13 7 109.2 109.2 0 01-18.1-62c9.9-4.1 20-8.9 31-8.3 26.8-.7 54-.8 80.3 5.5l12 2.8z"/><path fill="#fff" d="M379.5 235.9c-6.7.3-13.4 3.5-20.2 1.4a29.9 29.9 0 00-17.3-.2 25.5 25.5 0 01-16.6.2c-6.1-2.4-12.7-1.2-18.9.2-8.9 2.1-17.6-3.6-26.5-1-5.8 1.6-11.9 2-17.7.2-4.4-.3-7.4-1-6-6 .4-9.8 2-19.6 4.8-29 4.5.7 10.5-.7 10.7-6.4 2.5-6 11.3-3 15.6-.6 3 3.7 5.9 3.3 9.2.2 3.9-2.3 9.2-4.5 13.5-2 4.8 4.5 3.7 13.2 10.2 16.2 5 1 8 6 12.9 7.5 6.4 3 13.7 1.6 20.6 1.7 8 0 16-1 24-.4 1.6 5.3 1.5 11.4 1.7 17v1z"/></g><path fill="#fede00" stroke="#fede00" stroke-width=".8" d="M265.1 186s21.9-7 53.4-6.5 53.4 7.9 53 7.9-6-11.4-6-11.4-22.3-6.5-47.4-7c-25.1-.5-47 5-46.4 5.4z"/><path fill="#00dcff" d="M303 170.9l13.6-.2c-.4 2.4 1 6.5-.4 8l-13 .2zm-31.2 4.3c-1.2 2.5-4.4 6.2-4.3 7.8l15.7-1.9c-1.1-2.3.4-8.5-3.2-7.3-2.7.4-5.9 1.4-8.2 1.4zm13.7-3l13.6-1.1.6 7.8-13.5 1.2zm48.9-.7l-13.5-1c.5 2.4-2 7.6.8 8l12.2.8zm29.2 5c1.1 2.9 4.7 7.7 4.3 9.5l-14-3.5c1.2-2.2 0-8 3.1-7.4 2.2.5 4.4.8 6.6 1.4zm-11.8-3l-13.4-1.7c.1 2.4-1.7 6.3-.4 7.9l12.9 1.7z"/><path fill="#b7e1ff" d="M281.4 194.8s1 8-5.1 18c-6 9.9-5.1 6.4-5.1 6.4s2.8 5.5 2.3 5.5-4.7-5-4.7-5l-5 5.5s4.6-8.5 4.1-8.5-1.4-3-1.4-3l3.7-1.5s5.6-10.4 5.6-9.9-16.7 11.4-16.7 11.4l22.3-18.8zm3.7 3c-.5 0 2.3 8 4.7 12 2.3 4 2.3 8.9 2.3 8.9l7.9 4-10.2-15.4 6.5 2.4zm0 20.9s5.6 6 6 8 .5 6.4.5 6.4l-2.3-5-3.3 4.5s2.4-7 1.9-7.5-3.7 2.5-3.7 2.5 1.4-4 1.4-4.4 0-3-.5-4.5zm-27.9 13.9c1.9-1.5 5.6-2.5 5.6-2.5s-2.3 4-2.8 4-1.8 0-2.8-1.5zm64.1-21.8s12.1 7.4 12.1 7.9-7.9-3.5-7.9-3.5zm-21.8-15.5c1 .5 17.7 14.4 17.2 14.4s-7.4-4-7.4-3.4v3.4l-3.8-7.9-.9 3-5-9.5zm4.2 22.4l4.6 9.4 4.7-1s-8.8-8.4-9.3-8.4zm14.4-6l.5 9s2.7 2.5 2.7 2-2.7-10.5-3.2-11z"/><path fill="#803300" d="M281.7 54.9a322 322 0 00-99.1 34.6c3.6.3 13-1.5 5 3.7 7.2 3.3 22 9 30.3 3.2 7.4-1.6-4.6 10.6 4 6 8.4-7 18.7-2.9 28-1.3 14 3 28.2 4.7 42.2 7.6 9.6 2 12.3 15.8 13.5 23-2.5 5.2-18 12-5 6.5 10.1-3.5-9.5 14.3 2.2 3.8 5-7 7.3-1.2 10 3.5-3.2-9.5-.8-18 4-26.4 6-10.8 16.6 11.8 6.4 16-2.8 2.9-13 8.6-4 4 9.1-5 3 4.5-.4 7.5 5.5-6.6 11.8-11.2 14.4-.4-.3-5-3.5-19 1.1-7.2l16.2-8-13.2-20.7c11.3-3.3 22.8-5.9 33.8-10.3 9-.3 21 3.4 27.7 3.7-2.4-13.6 14.7-5.1 22.7-8 16.4-1.1 32.7-3 49-5-36.2-14.5-73-28.9-111.9-33.8-5.8 4.5 7 19-2 18.8-5.4-.3-10.9.5-16.2-.4a27.2 27.2 0 00-29-5.6c-12.3 9-16.8-10.3-26.9-14l-1.4-.6z"/></g></svg>