<svg viewBox="0 0 640 480" xmlns="http://www.w3.org/2000/svg" xmlns:xlink="http://www.w3.org/1999/xlink"><defs><path id="a" d="m478.4 60.2v88.6l17.7 88.6 17.7-88.6v-88.6z"/><path id="b" d="m460.6 184.3 17.7 35.4v17.7c-.8-1.3 0 17.7-17.7 17.7s-17.6-35.4-17.6-35.4-17.7 35.4-17.7 70.9 17.7 53.1 17.7 53.1-2.6-36.7 17.7-35.4c20.4 1.2 17.7 17.7 17.7 17.7v35.4h17.8v-141.7l17.7-35.4-27.2-53.2-26 53.1z"/><path id="c" d="m557.8 95.7-26.3 70.8 17.7 53.2-35.4-17.7 35.4 53.1v35.5h17.8v-35.6l35.5-53.1-35.5 17.7 17.8-53.2-26.9-70.8z"/></defs><g fill-rule="evenodd"><path d="m0 0h640v480h-640z" fill="#ffe800"/><path d="m0 240h640v240h-640z" fill="#00148e"/><path d="m0 360h640v120h-640z" fill="#da0010"/><path d="m269.6 290.8-72.6 76.5-1.2-1.6 72.4-76.5 1.2 1.6zm50.4 12.5-94.8 100-1.6-1.6 94.7-100z"/><g stroke="#000"><g fill="#808080" stroke-width="4.1"><use transform="matrix(-.07 -.07 -.1 .1 265 429.6)" xlink:href="#a"/><use transform="matrix(-.07 -.07 -.1 .1 240.6 390.5)" xlink:href="#a"/></g><g stroke-width=".74"><path d="m207.94 114.79s-7.97 215.42 23.9 215.42 47.84-22.66 47.84-22.66l-.36-118.4z" fill="#ffdf00"/><path d="m227.43 134.89c0 11.33-3.56 172.67 12.38 172.67s39.87-11.33 39.87-11.33l-.36-107.07z" fill="#0000c4"/><path d="m237.78 145.77c0 11.33 2.03 139.14 18 139.14h23.9l-.36-95.74z" fill="#e10000"/></g></g><path d="m206.2 116 72.4 76.5 1.3-1.6-72.4-76.5z"/><g stroke="#000" stroke-width=".8"><path d="m184.3 158.94s-20.53 208.69 41.06 208.69c51.33 0 51.33-32.92 61.6-32.92l-10.27-76.88-92.45-98.9z" fill="#ffdf00"/><path d="m204.83 180.95c0 10.97-20.53 131.81 30.86 164.73 20.53 10.97 51.33-10.97 51.33 0l-10.27-87.85z" fill="#0000c4"/><path d="m225.36 202.89c0 10.97-10.27 98.83 20.6 120.84 20.53 21.95 71.92 16 71.92 16l-41.12-81.9z" fill="#e10000"/></g><path d="m183.8 158 94.8 100 1.7-1.6-94.8-99.9-1.6 1.6z"/><g fill="#cececc" stroke="#000" stroke-width="1pt"><use transform="matrix(.14 -.14 .1 .1 86.3 192.2)" xlink:href="#b"/><use transform="matrix(.1 -.16 .14 .1 114 183.8)" xlink:href="#c"/></g><path d="m370.4 290.8 72.5 76.5 1.3-1.6-72.5-76.5zm-50.4 12.5 94.8 100 1.6-1.6-94.7-100z"/><g stroke="#000"><g fill="#808080" stroke-width="4.1"><use transform="matrix(.07 -.07 .1 .1 375 429.6)" xlink:href="#a"/><use transform="matrix(.07 -.07 .1 .1 399.4 390.5)" xlink:href="#a"/></g><g stroke-width="1pt" transform="matrix(-.45 0 0 .64 567.6 -59.8)"><path d="m301.2 272.8s-17.7 336.6 53.1 336.6 106.3-35.4 106.3-35.4l-.8-185z" fill="#ffdf00"/><path d="m344.5 304.2c0 17.7-7.9 269.8 27.5 269.8s88.6-17.7 88.6-17.7l-.8-167.3z" fill="#0000c4"/><path d="m367.5 321.2c0 17.7 4.5 217.4 40 217.4h53.1l-.8-149.6z" fill="#e10000"/></g></g><path d="m433.8 116-72.4 76.5-1.3-1.6 72.4-76.5z"/><g stroke="#000" stroke-width="1pt" transform="matrix(-.58 0 0 .62 630.4 -10.2)"><path d="m301.2 272.8s-35.4 336.6 70.8 336.6c88.5 0 88.5-53.1 106.2-53.1l-17.7-124-159.4-159.5z" fill="#ffdf00"/><path d="m336.6 308.3c0 17.7-35.4 212.6 53.2 265.7 35.4 17.7 88.5-17.7 88.5 0l-17.7-141.7z" fill="#0000c4"/><path d="m372 343.7c0 17.7-17.7 159.4 35.5 194.9 35.4 35.4 124 25.8 124 25.8l-70.9-132.1z" fill="#e10000"/></g><path d="m456.2 158-94.8 100-1.7-1.6 94.8-99.9 1.7 1.6z"/><g stroke="#000"><g fill="#cececc" stroke-width="1pt"><use transform="matrix(-.14 -.14 -.1 .1 553.7 192.2)" xlink:href="#b"/><use transform="matrix(-.1 -.16 -.14 .1 526 183.8)" xlink:href="#c"/></g><path d="m287.07 422.56c9.54 5.86 21.26 5.86 30.8 0v-87.85h-20.53c10.27 32.92 10.27 65.91-10.32 87.85z" fill="#e10000" stroke-width=".8"/><g fill="#0000c4" stroke-width=".74"><path d="m303.33 336.65c0 61.95-14.88 75.74-14.88 88.2 6.2 0 10.33-5.8 14.88-13.8 6.2-12.46 6.8-75.4 6.2-74.4z"/><path d="m290.94 336.65c-.32 36.2-15.68 69.72-12.78 77.14 3.3 6.65 12.78-15.2 25.17-2.8 6.2-12.4 6.8-75.32 6.2-74.4h-18.59z"/></g><g fill="#ffdf00" stroke-width=".55"><path d="m292.33 331.37c0 40.7-14.25 43.42-14.25 54.28 6.2 0 14.2-5.93 14.25-5.38 6.2-8.19 6.8-49.54 6.2-48.9z"/><path d="m279.94 331.37c-.32 23.78-15.33 44.02-12.43 48.9 3.33 4.32 12.43-8.19 24.82 0 6.2-8.19 6.8-49.54 6.2-48.9z"/></g><path d="m352.93 422.56c-9.54 5.86-21.26 5.86-30.8 0v-87.85h20.53c-10.27 32.92-10.27 65.91 10.32 87.85z" fill="#e10000" stroke-width=".8"/><g fill="#0000c4" stroke-width=".74"><path d="m336.67 336.65c0 61.95 14.88 75.74 14.88 88.2-6.2 0-10.33-5.8-14.88-13.8-6.2-12.46-6.8-75.4-6.2-74.4z"/><path d="m349.06 336.65c.32 36.2 15.68 69.72 12.78 77.14-3.3 6.65-12.78-15.2-25.17-2.8-6.2-12.4-6.8-75.32-6.2-74.4h18.59z"/></g><g fill="#ffdf00" stroke-width="1pt" transform="matrix(-.35 0 0 .46 527.5 51)"><path d="m513.8 609.5c0 88.5-40.7 94.4-40.7 118 17.7 0 40.6-12.9 40.7-11.7 17.7-17.8 19.4-107.7 17.7-106.3z"/><path d="m478.4 609.5c-.9 51.7-43.8 95.7-35.5 106.3 9.5 9.4 35.5-17.8 70.9 0 17.7-17.8 19.4-107.7 17.7-106.3z"/></g><path d="m241.63 341.56-10.76 7.79 10.76 7.79 5.38-3.89 2.69 3.89 2.69 7.79 2.7-7.79 2.69-3.89h144.22v-7.79h-144.24l-2.69-3.92c0-3.89.56-7.79 2.7-7.79h10.75c0-3.89-5.38-11.68-16.14-11.68-10.75 0-16.14 7.79-16.14 11.68h10.76c2.12 0 2.69 3.89 2.69 7.8l-2.69 3.89-5.39-3.92z" fill="#908f8a" stroke-width=".8"/><path d="m272.27 332.11.04 34.7h96.11v-36.67h-96.16z" fill="#a40" stroke-width=".98"/><g fill="#ffdf00" stroke-width=".8"><path d="m389.8 235.88c0 54.56-32.25 98.83-71.92 98.83s-71.92-44.27-71.92-98.83 32.2-98.9 71.92-98.9 71.92 44.27 71.92 98.83zm-10.27 0c0 48.48-27.61 87.85-61.65 87.85s-61.65-39.37-61.65-87.85c0-48.55 27.61-87.92 61.65-87.92s61.65 39.37 61.65 87.92z"/><path d="m345.88 144.8c-8.64-5.02-18.1-7.81-28.01-7.81s-19.37 2.8-28.01 7.75l4.06 10.17c14.84-9.15 33.12-9.15 47.97 0l4-10.17zm.2 179.5c-8.64 5.02-18.1 7.81-28.01 7.81s-19.37-2.8-28.01-7.75l4.06-10.17c14.84 9.15 33.12 9.15 47.97 0l4 10.17z"/></g></g><path d="m379.6 235.9c0 48.5-27.7 87.8-61.7 87.8s-61.6-39.3-61.6-87.8 27.6-88 61.6-88 61.7 39.4 61.7 88z" fill="#a7cfff"/><g stroke="#000" stroke-width=".8"><path d="m379.52 235.88c.98 13.94-3.21 27.48-6.67 40.8-6.33 2.32-8.21-9.8-15.18-6.22-3.75-2.14-7.21-4.09-11.63-3.88-4.79-2.38-9.83-3.88-15.19-3.94-5.08-.48-10.18-.62-15.25-1.16 4.64-1.73 12.85.62 14.22-5.85-1.59-6.92-10.57-3.95-15.56-5.89-5.56-2.31-5.95-11.13-12.88-11.3-7.82-2.41-16.13-3.19-24.08-4.71 5.98 4.55 14.99 3.37 20.1 9.28 4.39 6.56-5.33 7.6-9.66 8.24-3.48 1.25-11.55.69-11.57 4.55 4.15 2.79 9.65-1.29 14.1 1.08 4.85 4.85-6.76 2.22-8.97 4.56-4.32 2.9 7.38 6.47 1.33 10.34-4.4 1.91-10.03 1.08-13.98 4.06 1.99 5.3 9.83 6.45 14.67 9.12 3.72.83 11.16 4.11 4 5.93-4.43 2.23-8.81 4.58-13.08 7.1-12.17-18.23-18.41-40.24-18.04-62.12 9.86-4.09 19.97-8.84 30.92-8.22 26.87-.79 54.11-.89 80.41 5.43l11.98 2.79z" fill="#afff7b"/><path d="m379.52 235.88c-6.75.33-13.41 3.48-20.2 1.42-5.68-1.52-11.7-2.11-17.36-.19-5.39 1.66-11.2 2.2-16.58.16-6.13-2.36-12.66-1.12-18.85.22-8.93 2.16-17.66-3.58-26.57-.99-5.76 1.59-11.84 2.04-17.61.2-4.43-.25-7.48-.94-6.04-5.95.4-9.84 1.96-19.65 4.77-29.09 4.57.77 10.57-.68 10.76-6.33 2.45-6.12 11.25-3.1 15.57-.66 2.97 3.7 5.85 3.31 9.15.23 3.92-2.25 9.23-4.52 13.5-1.96 4.8 4.43 3.75 13.16 10.26 16.12 4.97.95 7.94 6.03 12.85 7.52 6.46 3.02 13.76 1.67 20.64 1.77 8.02-.1 16.07-1.01 24.08-.42 1.55 5.25 1.39 11.42 1.64 17.06v.9z" fill="#fff"/></g><path d="m265.1 185.91s21.87-6.94 53.42-6.45 53.42 7.94 52.95 7.94-6.03-11.41-6.03-11.41-22.27-6.5-47.39-7.01c-25.06-.5-46.92 4.96-46.4 5.46z" fill="#fede00" stroke="#fede00" stroke-width=".8"/><path d="m303 170.9 13.6-.2c-.37 2.42 1.01 6.5-.42 7.91l-12.98.29zm-31.2 4.3c-1.18 2.45-4.4 6.22-4.29 7.84l15.69-1.94c-1.15-2.32.39-8.53-3.19-7.33-2.66.41-5.88 1.41-8.21 1.43zm13.7-3 13.6-1.1.6 7.8-13.5 1.2zm48.9-.7-13.5-1c.53 2.44-1.94 7.56.77 8.07l12.23.73zm29.2 5c1.1 2.88 4.68 7.74 4.3 9.45l-14-3.45c1.2-2.21.01-8.08 3.12-7.39 2.2.44 4.41.8 6.58 1.39zm-11.8-3-13.4-1.7c.12 2.44-1.66 6.33-.39 7.88l12.89 1.72z" fill="#00dcff"/><path d="m281.4 194.8s1 8-5.1 18c-6 9.9-5.1 6.4-5.1 6.4s2.8 5.5 2.3 5.5-4.7-5-4.7-5l-5 5.5s4.6-8.5 4.1-8.5-1.4-3-1.4-3l3.7-1.5s5.6-10.4 5.6-9.9-16.7 11.4-16.7 11.4l22.3-18.8zm3.7 3c-.5 0 2.3 8 4.7 12 2.3 4 2.3 8.9 2.3 8.9l7.9 4-10.2-15.4 6.5 2.4zm0 20.9s5.6 6 6 8 .5 6.4.5 6.4l-2.3-5-3.3 4.5s2.4-7 1.9-7.5-3.7 2.5-3.7 2.5 1.4-4 1.4-4.4 0-3-.5-4.5zm-27.9 13.9c1.9-1.5 5.6-2.5 5.6-2.5s-2.3 4-2.8 4-1.8 0-2.8-1.5zm64.1-21.8s12.1 7.4 12.1 7.9-7.9-3.5-7.9-3.5zm-21.8-15.5c1 .5 17.7 14.4 17.2 14.4s-7.4-4-7.4-3.4v3.4l-3.8-7.9-.9 3-5-9.5zm4.2 22.4 4.6 9.4 4.7-1s-8.8-8.4-9.3-8.4zm14.4-6 .5 9s2.7 2.5 2.7 2-2.7-10.5-3.2-11z" fill="#b7e1ff"/><path d="m281.7 54.9c-34.7 5.78-68.16 17.97-99.1 34.6 3.6.26 12.93-1.48 5.01 3.71 7.17 3.33 22 8.97 30.32 3.23 7.38-1.62-4.66 10.59 4.05 5.89 8.36-7 18.62-2.79 27.99-1.19 13.98 2.95 28.18 4.63 42.16 7.53 9.58 2 12.3 15.79 13.51 22.95-2.56 5.25-17.96 12.14-5.12 6.62 10.22-3.54-9.4 14.3 2.28 3.8 4.98-7.11 7.33-1.2 9.91 3.45-3.07-9.49-.67-17.95 4.02-26.4 6.06-10.84 16.66 11.82 6.44 15.93-2.77 2.95-12.92 8.64-3.9 4.14 9.03-5.05 2.91 4.48-.46 7.42 5.46-6.62 11.8-11.13 14.4-.4-.28-4.91-3.54-18.92 1.1-7.2l16.2-8-13.2-20.7c11.29-3.32 22.81-5.85 33.75-10.25 8.97-.37 21.1 3.42 27.7 3.71-2.33-13.6 14.78-5.14 22.75-8.03 16.35-1.13 32.65-2.96 48.9-5.02-36.14-14.48-72.93-28.86-111.78-33.75-5.86 4.47 6.91 18.88-2.04 18.75-5.36-.24-10.88.47-16.15-.34-7.75-7.38-19.12-9.73-29.08-5.62-12.31 9.03-16.72-10.32-26.82-14.07l-1.47-.56z" fill="#803300"/></g></svg>