<svg xmlns="http://www.w3.org/2000/svg" xmlns:xlink="http://www.w3.org/1999/xlink" viewBox="0 0 640 480"><style>.B{stroke-width:.8}.C{stroke:#000}.D{fill:#ffdf00}.E{fill:#0000c4}.F{fill:#e10000}.G{stroke-width:.7}</style><defs><path id="A" d="M478 60v89l18 88 18-88V60z"/><path id="B" d="M461 184l17 36v17c0-1 0 18-17 18s-18-35-18-35-18 35-18 71 18 53 18 53-3-37 18-36c20 2 17 18 17 18v35h18V220l18-36-27-53-26 53z"/><path id="C" d="M558 96l-27 71 18 53-35-18 35 53v36h18v-36l36-53-36 18 18-54-27-70z"/></defs><g fill-rule="evenodd"><path fill="#ffe800" d="M0 0h640v480H0z"/><path fill="#00148e" d="M0 240h640v240H0z"/><path fill="#da0010" d="M0 360h640v120H0z"/><path d="M270 291l-73 76-1-1 72-77 1 2zm50 12l-95 100-1-1 94-100z"/><g class="C"><g fill="gray" stroke-width="4.1"><use transform="matrix(-.07 -.07 -.1 .1 265 430)" xlink:href="#A"/><use transform="matrix(-.07 -.07 -.1 .1 241 391)" xlink:href="#A"/></g><g class="G"><path d="M208 115s-8 215 24 215 48-23 48-23l-1-118z" class="D"/><path d="M227 135c0 11-3 173 13 173s40-12 40-12l-1-107z" class="E"/><path d="M238 146c0 11 2 139 18 139h24l-1-96z" class="F"/></g></g><path d="M206 116l73 77 1-2-72-77z"/><g class="B C"><path d="M184 159s-20 209 41 209c52 0 52-33 62-33l-10-77z" class="D"/><path d="M205 181c0 11-21 132 31 165 20 11 51-11 51 0l-10-88z" class="E"/><path d="M225 203c0 11-10 99 21 121 21 22 72 16 72 16l-41-82z" class="F"/></g><path d="M184 158l95 100 1-2-94-100z"/><g fill="#cececc" stroke-width="1pt" class="C"><use transform="matrix(.14 -.14 .1 .1 84 193)" xlink:href="#B"/><use transform="matrix(.1 -.16 .14 .1 116 180)" xlink:href="#C"/></g><path d="M370 291l73 76 1-1-72-77zm-50 12l95 100 1-1-94-100z"/><g class="C"><g fill="gray" stroke-width="4.1"><use transform="matrix(.07 -.07 .1 .1 375 430)" xlink:href="#A"/><use transform="matrix(.07 -.07 .1 .1 399 391)" xlink:href="#A"/></g><g stroke-width=".7"><path d="M433 115s8 215-24 215-48-23-48-23V189z" class="D"/><path d="M413 135c0 11 3 172-12 172s-40-11-40-11V189z" class="E"/><path d="M402 145c0 12-1 140-18 140h-23v-96z" class="F"/></g></g><path d="M434 116l-73 77-1-2 72-77z"/><g class="B C"><path d="M455 159s21 209-41 209c-51 0-51-33-61-33l10-77z" class="D"/><path d="M435 181c0 11 20 132-31 165-20 11-51-11-51 0l10-88z" class="E"/><path d="M414 203c0 11 11 99-21 121-20 22-72 16-72 16l42-82z" class="F"/></g><path d="M456 158l-95 100-1-2 94-100z"/><g class="C"><g fill="#cececc" stroke-width="1pt"><use transform="matrix(-.14 -.14 -.1 .1 555 194)" xlink:href="#B"/><use transform="matrix(-.1 -.16 -.14 .1 526 178)" xlink:href="#C"/></g><path d="M287 423a29 29 0 0031 0v-88h-21c11 33 11 66-10 88z" class="B F"/><g class="E G"><path d="M303 337c0 62-15 75-15 88 7 0 11-6 15-14 7-12 7-75 7-74z"/><path d="M291 337c0 36-16 69-13 77 3 6 13-15 25-3 7-12 7-75 7-74z"/></g><g stroke-width=".6" class="D"><path d="M292 331c0 41-14 44-14 55 6 0 14-6 14-6 7-8 7-49 7-49z"/><path d="M280 331c0 24-15 44-12 49s12-8 24 0c7-8 7-49 7-49z"/></g><path d="M353 423a29 29 0 01-31 0v-88h21c-11 33-11 66 10 88z" class="B F"/><g class="E G"><path d="M337 337c0 62 15 75 15 88-7 0-11-6-15-14-7-12-7-75-7-74z"/><path d="M349 337c0 36 16 69 13 77-3 6-13-15-25-3-7-12-7-75-7-74z"/></g><g stroke-width=".5" class="D"><path d="M348 332c0 40 14 43 14 54-6 0-14-6-14-6-6-8-7-49-6-49z"/><path d="M361 332c0 23 15 43 12 48s-12-8-25 0c-6-8-7-49-6-49z"/></g><path fill="#908f8a" d="M242 342l-11 7 11 8 5-4 3 4 2 8 3-8 3-4h144v-7H258l-3-4c0-4 1-8 3-8h11c0-4-6-12-17-12-10 0-16 8-16 12h11c2 0 3 4 3 8l-3 3z" class="B"/><path fill="#a40" d="M272 332v35h96v-37h-96z"/><g class="B D"><path d="M390 236c0 54-32 99-72 99s-72-45-72-99 32-99 72-99 72 44 72 99zm-10 0c0 48-28 88-62 88s-62-40-62-88c0-49 28-88 62-88s61 39 61 88z"/><path d="M346 145c-9-5-18-8-28-8s-20 3-28 8l4 10a45 45 0 0148 0zm0 179c-9 5-18 8-28 8s-19-3-28-8l4-10a45 45 0 0048 0z"/></g></g><path fill="#a7cfff" d="M380 236c0 48-28 88-62 88s-62-40-62-88 28-88 62-88 62 39 62 88z"/><g class="B C"><path fill="#afff7b" d="M380 236c1 14-4 27-7 41-6 2-8-10-15-7-4-2-8-4-12-3a35 35 0 00-15-4l-15-1c4-2 12 0 14-6-2-7-11-4-16-6-5-3-6-11-13-12l-24-4c6 4 15 3 20 9 5 7-5 8-9 8-4 1-12 1-12 5 4 3 10-2 14 1 5 5-6 2-9 4-4 3 8 7 2 11-5 2-10 1-14 4 2 5 10 6 14 9 4 1 12 4 4 6a223 223 0 00-13 7 109 109 0 01-18-62c10-4 20-9 31-8 27-1 54-1 81 5z"/><path fill="#fff" d="M380 236c-7 0-14 3-21 1a30 30 0 00-17 0 26 26 0 01-17 0c-6-2-12-1-19 1-8 2-17-4-26-1-6 1-12 2-18 0-4-1-7-1-6-6 1-10 2-20 5-29 5 0 11-1 11-7 2-6 11-3 15 0 3 3 6 3 10 0 4-2 9-5 13-2 5 4 4 13 10 16 5 1 8 6 13 8 7 3 14 1 21 1h24l2 17z"/></g><path fill="#fede00" stroke="#fede00" d="M265 186s22-7 54-6 53 7 53 7l-6-11s-23-6-48-7c-25 0-47 5-46 5z" class="B"/><path fill="#00dcff" d="M303 171h14c-1 2 1 6-1 8h-13zm-31 4c-1 3-5 6-4 8l15-2c-1-2 1-8-3-7zm14-3l13-1 1 8-14 1zm48 0l-13-1c0 2-2 7 1 8h12zm30 5l4 9-14-3c1-3 0-8 3-8zm-12-3l-14-2v8l13 1z"/><path fill="#b7e1ff" d="M281 195c0 9-4 17-9 24-2 0 1 3 1 5s-3-3-4-4l-5 5c1-3 5-6 3-9-3-3 3-3 4-5l5-9-17 12 22-19zm4 3c1 5 3 9 6 13 1 3-1 8 3 9l6 3-10-16 6 3-11-12zm0 21l6 9 1 5c-1-1-2-5-3-4s-4 6-2 2l1-6c-2 2-5 4-3 1l1-5-1-2zm-28 14l6-3c-2 2-3 5-6 3zm64-22l12 8-8-4-4-4zm-22-16l18 15c-2-1-6-4-8-3v3l-4-8c0 2 0 4-1 1l-4-8h-1zm5 23c2 3 2 7 5 9 2-1 6-1 2-2l-7-7zm14-6c1 3 0 7 2 10 2 2 0-3 0-4l-2-6z"/><path fill="#803300" d="M282 55a322 322 0 00-99 35c3 0 13-2 5 3 7 4 22 9 30 3 7-1-5 11 4 6 8-7 19-2 28-1l42 8c10 2 12 16 14 23-3 5-18 12-5 6 10-3-10 14 2 4 5-7 7-1 10 4-3-10-1-18 4-27 6-11 16 12 6 16-3 3-13 9-4 4s3 5 0 8c5-7 12-12 14-1 1-20-4-9 4-36l34-10c9 0 21 3 28 4-3-14 15-5 23-8l49-5c-37-15-73-29-112-34-6 4 7 19-2 19l-17-1a27 27 0 00-29-5c-12 9-16-11-26-14l-3-1z"/></g></svg>