<svg xmlns="http://www.w3.org/2000/svg" xmlns:xlink="http://www.w3.org/1999/xlink" viewBox="0 0 640 480"><path d="M0 320h640v160H0z"/><path fill="#fff" d="M0 160h640v160H0z"/><path fill="#ce1126" d="M0 0h640v160H0z"/><path fill="#fff" stroke="#c09300" stroke-linejoin="round" stroke-width="1.3" d="M320.6 242l54.8 50.8-3.9-92.4c-.5-14-12.7-10.8-21.6-5.8-8.9 5.8-19.2 5.8-29.9 2-10.8 3.8-21 3.8-30-2-8.7-5-21-8.2-21.5 5.8l-4 92.4z"/><path id="a" fill="#c09300" d="M274.8 197.2L271 287l-6.4 5.8 3.9-92.4a19.2 19.2 0 016.3-3.2zm7.7 6.4l-3.2 75.2-6.4 6.6 3.8-86.8 5.8 5zm7 5.8L287 272l-5.2 5 3.2-71.5c1.2 1.2 3.8 3 4.4 3.8zm7.5 3.2l-2.4 53.4-5 4 2.4-59.4c1.3.6 3.8 2 5 2zm7 0l-1.8 44.5-5.2 5 2-49c1.2 0 4.5 0 5-.5z"/><use width="100%" height="100%" fill="#fff" stroke="#c09300" transform="matrix(-1 0 0 1 640 0)" xlink:href="#a"/><path fill="#c09300" stroke="#c09300" stroke-width=".9" d="M322.6 252l7.6 35-2.5 2.6-2.7-2-4.3-31.2 1.9 31.2-2.6 3.2-2.5-3.2 1.9-31.2-4.4 31.2-2.7 2-2.5-2.6 7.6-35h5.2z"/><g id="b" fill="none" stroke="#c09300" stroke-linejoin="round"><path fill="#fff" d="M302.8 236.6l-15.3 54.2 21 3.2 9-40.7z"/><path d="M297.8 255.2l1.8 4.4 10-9.4"/><path d="M304.6 244l2.1 19.4 6.3-8.3m-2.5 3.2l3.4 12m1.4-4.4l-7 10.6m2.2 10.5l-2.3-10.5-1.9-10.7-4.7 6.3-2-7.3-6.6 6.7 3.3 12.2 4.7-7.5 2.4 7.6 4.8-7.3M292 289.6l4.2-6 2.8 9.2 3.8-6.4 2.5 7.7"/></g><g fill="#fff" stroke="#c09300"><use width="100%" height="100%" transform="matrix(-1 0 0 1 640 0)" xlink:href="#b"/><g stroke-linejoin="round"><path stroke-width="1.9" d="M320 315c16 0 31.2-1.2 40.2-3.7 3.7-.7 3.7-2.7 3.7-5.2 3.9-1.3 2-5.8 4.6-5.8-2.7.8-3.2-4.4-6.4-3.7 0-4.5-4.6-5-8.3-3.8-7.6 2.5-21 3.1-33.8 3.1-12.8-.6-26-.6-33.8-3.2-3.7-1.2-8.2-.6-8.2 3.9-3.2-.7-3.8 4.4-6.4 3.7 2.6 0 .6 4.6 4.5 5.8 0 2.5 0 4.5 3.8 5.2 8.8 2.5 24.2 3.7 40.1 3.7z"/><path d="M298.3 290.8c5.1.7 10.9 1.3 15.4.7 2.5 0 4.4 4.4-.7 5-4.4.6-11.5 0-15.2-.6a184.8 184.8 0 01-14.8-3.2c-4.4-1.9-1.2-5.6 1.3-5.1a84.2 84.2 0 0014 3.2zm43.4 0c-5.1.7-10.9 1.3-15.2.7-2.7 0-4.6 4.4.5 5a63 63 0 0015.2-.6c3.2-.6 10.3-1.8 14.8-3.2 4.4-1.9 1.2-5.6-1.3-5.1a84.2 84.2 0 01-14 3.2z"/><path d="M282.4 288.3c-3.8-.7-5.6 3.8-4.4 6.3.6-1.2 3.2-1.2 3.8-2.5.7-2-.6-2 .7-3.8zm15.4 11.8c0-2.6 2.4-2.3 2.4-4.8 0-1.2-.6-3.2-1.9-3.2a2.7 2.7 0 00-2.5 2.5c-.6 2.5 2 3 2 5.5zm18.1-7.3c3.8 0 3.4 5 1.6 7.6 0-1.8-3.2-2.6-3.2-3.8 0-2 2.9-2 1.6-3.8zm41.6-4.5c4-.7 5.8 3.8 4.5 6.3-.6-1.2-3.2-1.2-3.8-2.5-.7-2 .6-2-.7-3.8zM342.4 300c0-2.6-2.6-2.2-2.6-4.8 0-1.2.7-3.2 2-3.2a2.7 2.7 0 012.5 2.6c.6 2.4-2 2.8-2 5.4zm-18.4-7.2c-3.8 0-3.4 5-1.6 7.6 0-1.8 3.2-2.6 3.2-3.8 0-2-2.9-2-1.6-3.8z"/><path stroke-width=".7" d="M283.8 289.6c1.2 0 3.2.6 3.7 1.3zm6.3 2a13 13 0 014.4 1.2zM313 294c-1.2 0-3.8 0-4.4.5l4.4-.6zm-7 0c-.7-.7-3.2-.7-4.5 0zm50.2-4.5a6.4 6.4 0 00-3.7 1.3zm-6.2 2c-.8 0-3.2.5-4.5 1.2zm-23 2.5c1.2 0 3.8 0 4.5.5l-4.5-.6zm7 0c.7-.7 3.2-.7 4.5 0z"/></g><path stroke-width=".9" d="M320 261.8c26-20 23.8-49.5 23.8-49.5l-2 .2c-5.5 0-18.5-3.2-21.6-7.1-3.2 3.6-16.6 7.2-22 7.2l-2-.3s-2.4 29.4 23.8 49.5z"/><path stroke-width=".7" d="M341.8 214.4h-.7c-5 0-16.5-2.5-21-6.3a48.5 48.5 0 01-21.2 6.4 3.8 3.8 0 01-.7-.1 58.5 58.5 0 002.1 15A56.8 56.8 0 00320 259a57 57 0 0019.7-29.7 58.5 58.5 0 002-14.9z"/></g><path fill="#c09300" d="M311.5 212a49.8 49.8 0 01-13.3 2.4l.1 3.3a58.2 58.2 0 002 11.6 56.8 56.8 0 0011.2 21.4zm16.5 0v39.4a56.9 56.9 0 0011.7-22.1 58.4 58.4 0 002-11.6v-3.2h-.6c-3 0-8.3-1-13.1-2.6z"/><g stroke="#c09300"><path fill="#fff" d="M329.8 202.4c.6 0-.7-2.8-.7-2.8 1.5 1.4 6.7 1.8 6.7 1.8-3.2-1.4-6.4-12-6-20.6.4-8.5-1.2-11.8-2.4-13.1-1.6-1.6-6.8-3-10.1-3.2-2-.1-1.6 1.4-1.6 1.4-3.6-.9-7.2-1.3-8.8-.1-1.5 1-1.8 6-.7 5 2.7-2 5 0 6.6 2.2 1.4 2 1.4 7.8-.7 14.6a48 48 0 01-8 14.2c3.2 0 7.7-2.8 7.7-2.8l-1 4.4c3.3-1.6 6-4.1 6-4.1l3.1 3.3c1-1.4 3.2-3.3 3.2-3.3s2.7 2.8 6.7 3.2z"/><path fill="none" stroke-width="1.3" d="M316.9 182s-1.8 13.2-5.1 16.9m8-17.2s-.8 13.3-3 17.6m5.4-17s0 14.5.8 17m2.4-16.3s.7 12.2 3.7 16.6"/><path fill="#c09300" stroke-width=".2" d="M313.6 175.7a6.4 6.4 0 00-.8-2.7c-1.6-2.4-4-4.3-6.6-2.1 0 0 1-2.8 3-2.9 1.4 0 4.8 1.1 7.8 6.2 0 0-2.2-.4-2.8 0-1 .8-.5 1.5-.5 1.5zm-7.7-8.3c.3-.8.6-1.4 1-1.6 1.7-1.2 5.2-.8 8.8.1 0 0-.3-1.5 1.6-1.4 3.3.1 8.5 1.6 10 3.2a6.3 6.3 0 011.3 1.9c-.8-1.1-3-1-3.6-1-.8.1-1.4 0-2.5.4-.6.1-1.4.3-1.9.6-.3.3-.6 1.3-1 1.3-.9 0-.9-.2-1.1-.4-.3-.4-.4-.9-.7-.8-.8 0-2.3-.6-4-2-1.9-1.5-2.6-1.8-4.8-1.6-2.4.1-3 1.5-3 1.5z"/></g><circle cx="319" cy="168.6" r="1" fill="#fff"/></svg>