<svg xmlns="http://www.w3.org/2000/svg" xmlns:xlink="http://www.w3.org/1999/xlink" viewBox="0 0 640 480"><path d="M0 320h640v160H0z"/><path fill="#fff" d="M0 160h640v160H0z"/><path fill="#ce1126" d="M0 0h640v160H0z"/><path fill="#fff" stroke="#c09300" stroke-linejoin="round" stroke-width="1.3" d="M321 242l54 51-3-93c-1-14-13-10-22-5s-19 5-30 2c-11 3-21 3-30-2s-21-9-21 5l-4 93z"/><path id="a" fill="#c09300" d="M275 197l-4 90-6 6 4-93a19 19 0 016-3zm8 7l-4 75-6 6 4-86 6 5zm7 5l-3 63-5 5 3-71 4 3zm7 4l-2 53-5 4 2-59 5 2zm7 0l-2 44-5 5 2-49h5z"/><use width="100%" height="100%" fill="#fff" stroke="#c09300" transform="matrix(-1 0 0 1 640 0)" xlink:href="#a"/><path fill="#c09300" stroke="#c09300" stroke-width=".9" d="M323 252l7 35-2 3-3-2-4-32 2 32-3 3-2-3 1-32-4 32-3 2-2-3 7-35h6z"/><g id="b" fill="none" stroke="#c09300" stroke-linejoin="round"><path fill="#fff" d="M303 237l-15 54 21 3 9-41z"/><path d="M298 255l2 5 10-10"/><path d="M305 244l2 19 6-8m-2 3l3 12m1-4l-7 10m3 11l-3-10-2-11-4 6-2-7-7 7 3 12 5-8 2 8 5-7m-16 13l4-6 3 9 4-7 2 8"/></g><g fill="#fff" stroke="#c09300"><use width="100%" height="100%" transform="matrix(-1 0 0 1 640 0)" xlink:href="#b"/><g stroke-linejoin="round"><path stroke-width="1.9" d="M320 315c16 0 31-1 40-4 4 0 4-2 4-5 4-1 2-6 4-6-2 1-3-4-6-3 0-5-4-5-8-4-8 2-21 3-34 3-13-1-26-1-34-3-4-1-8-1-8 4-3-1-4 4-6 3 2 0 0 5 4 6 0 3 0 5 4 5 9 3 24 4 40 4z"/><path d="M298 291l16 1c2 0 4 4-1 5l-15-1a185 185 0 01-15-3c-4-2-1-6 1-5a84 84 0 0014 3zm44 0l-16 1c-2 0-4 4 1 5a63 63 0 0015-1l15-3c4-2 1-6-1-5a84 84 0 01-14 3z"/><path d="M282 288c-3 0-5 4-4 7l4-3c1-2-1-2 1-4zm16 12c0-2 2-2 2-5 0-1 0-3-2-3a3 3 0 00-2 3c-1 2 2 3 2 5zm18-7c4 0 3 5 1 7 1-1-3-2-3-3 0-2 3-2 2-4zm41-5c5 0 6 4 5 7l-4-3c-1-2 1-2-1-4zm-15 12c0-3-2-2-2-5 0-1 0-3 2-3a3 3 0 012 3c1 2-2 2-2 5zm-18-7c-4 0-3 5-2 7l4-3c0-2-3-2-2-4z"/><path stroke-width=".7" d="M284 290l4 1zm6 2a13 13 0 015 1zm23 2l-4 1 4-1zm-7 0h-4zm50-4a6 6 0 00-4 1zm-6 2l-4 1zm-23 2l5 1-5-1zm7 0h5z"/></g><path stroke-width=".9" d="M320 262c26-20 24-50 24-50l-2 1c-6 0-19-4-22-8-3 4-16 8-22 8l-2-1s-2 30 24 50z"/><path stroke-width=".7" d="M342 214h-1c-5 0-16-2-21-6a49 49 0 01-21 6 4 4 0 01-1 0 59 59 0 002 15 57 57 0 0020 30 57 57 0 0020-30 59 59 0 002-15z"/></g><path fill="#c09300" d="M312 212a50 50 0 01-14 2v4a58 58 0 002 11 57 57 0 0012 22zm16 0v39a57 57 0 0012-22 58 58 0 002-11v-3h-1l-13-3z"/><g stroke="#c09300"><path fill="#fff" d="M330 202l-1-2 7 1c-3-1-7-12-6-20 0-9-1-12-3-13-1-2-6-3-10-3-2-1-1 1-1 1h-9c-2 1-2 6-1 5 3-2 5 0 7 2 1 2 1 8-1 15a48 48 0 01-8 14c3 0 8-3 8-3l-1 4 6-4 3 4 3-4s3 3 7 4z"/><path fill="none" stroke-width="1.3" d="M317 182s-2 13-5 17m8-17s-1 13-3 17m5-17l1 17m2-16s1 12 4 17"/><path fill="#c09300" stroke-width=".2" d="M314 176a6 6 0 00-1-3c-2-2-4-4-7-2 0 0 1-3 3-3s5 1 8 6h-3v2zm-8-9l1-1h9s-1-2 1-2c4 1 9 2 10 4a6 6 0 012 2c-1-2-3-1-4-1h-2l-2 1-1 1-1-1h-1l-4-2c-2-2-3-2-5-2s-3 2-3 2z"/></g><circle cx="319" cy="168.6" r="1" fill="#fff"/></svg>