<svg viewBox="0 0 640 480" xmlns="http://www.w3.org/2000/svg"><path d="m0 0v480h640v-480z" fill="#68bfe5"/><path d="m420.9 193.2v136.4c0 44.6 80.6 71 80.6 71s80.5-26.4 80.5-71v-136.4z" fill="#fff"/><g fill="#d21034"><path d="m490.3 241.2v61.4h-69.4v22.3h69.4v71.5l11.2 4.3 11.1-4.3v-71.4h69.4v-22.4h-69.4v-61.4z"/><path d="m420.9 193.2h161.1v52.8h-161.2z"/></g><path d="m420.9 193.2v136.4c0 44.6 80.6 71 80.6 71s80.5-26.4 80.5-71v-136.4z" fill="none" stroke="#000" stroke-miterlimit="4.8" stroke-width="2.8"/><path d="m0 0h320v240h-320z" fill="#012169"/><path d="m37.5 0 122 90.5 121.5-90.5h39v31l-120 89.5 120 89v30.5h-40l-120-89.5-119.5 89.5h-40.5v-30l119.5-89-119.5-89v-32z" fill="#fff"/><path d="m212 140.5 108 79.5v20l-135.5-99.5zm-92 10 3 17.5-96 72h-27zm200-150.5v1.5l-124.5 94 1-22 98.5-73.5zm-320 0 119.5 88h-30l-89.5-67z" fill="#c8102e"/><path d="m120.5 0v240h80v-240zm-120.5 80v80h320v-80z" fill="#fff"/><path d="m0 96.5v48h320v-48zm136.5-96.5v240h48v-240z" fill="#c8102e"/></svg>