<svg xmlns="http://www.w3.org/2000/svg" viewBox="0 0 640 480"><style>.M{fill-rule:evenodd}.N{stroke-width:.58}.O{fill:#dd8b59}.P{stroke:#512007}.Q{fill:#fecf3e}.R{fill:#012169}</style><path d="M0 0h640v480H0z" class="R"/><g class="M"><path d="M0 0h400v200H0z" class="R"/><path fill="#fff" stroke="#fff" stroke-width="10" d="M412.9 308.9a11.3 12.7 0 00-1.7 0c-3 .6-7.6 11.3-10 17.6-4.1 5.4-6.2 9.6-7.8 12.7-.7 1.2-1.7 2.6-1.4 4.2-6 1.6-6.3 7.4-6.3 9.6 0 2.5.7 3.7.7 3.7l3.6 7.5v.1c3.8 9 9.4 20.9 12.7 21.8 4.4 1.5 16-3.3 24.8-11.7a140.6 157.8 0 0053.2 12.1c20.4 0 38.7-5.5 53-12.1 8.8 8.4 20.4 13.2 25 11.7 3-1 8.7-13 12.6-21.8l3.5-7.6s.7-1.2.7-3.6c0-2.2-.3-8-6.3-9.6.3-1.6-.6-3-1.3-4.3-1.7-3.2-3.8-7.4-7.7-13-2.6-6.2-7.2-16.7-10-17.2-4.2-.8-13 1.5-13 2.4v.4l-17.7 18.6c0 .5.9 14 4.3 26a126 141.5 0 01-43.3 8.2c-17 0-31.5-3.4-43.2-8.3a116.6 130.9 0 004.3-26L424 311.8v-.4c0-.7-6.8-2.5-11.1-2.5z"/><path fill="#e9c6af" stroke="#000" stroke-width="1.2" d="M411.1 306.1c-.6 0-1.2 0-1.7.2-4.2.9-11.7 21.4-12 21.8a44.5 52 0 001.2 1.9c-2.4 3.7-4 6.8-5.3 9.2a7 7 0 00-.4 1.1 7.6 7.6 0 00-1.6.1c-7 1.3-7.5 7.6-7.5 9.9 0 2.2.7 3.5.7 3.5l3.8 8c3.8 8.8 9.3 20.4 12.4 21.4 4.3 1.3 15-3 23.5-10.3a128 128 0 0056.4 13.7c21.5 0 40.6-6 55.1-13 8.4 7 18.5 10.8 22.7 9.6 3.1-1 8.7-12.7 12.6-21.6l3.7-7.8a9 9 0 00.6-3.5c0-2.2-.3-8.2-6.9-9.7a6.5 6.5 0 00-.5-1.4c-1.5-2.7-3.3-6.3-6.3-10.7a44.5 52 0 00.2-.4c-.4-.4-7.9-20.9-12-21.8s-12.8 1.5-12.8 2.3v.6l-17.8 18.5h.1c0 .6 1.2 16.1 5.1 28.6-11.9 5-26.6 8.4-43.8 8.4-18.1 0-33.5-3.9-45.7-9.2 3.8-12.3 5-27.2 5-27.8h0l-17.7-18.5v-.6c0-.7-6.8-2.6-11-2.5zm4.5 23.2c2.2 0 4.5 2 6.4 4.2l-.2 1.3a80.8 80.8 0 01-3.2 11.5 67.6 67.6 0 01-12.2-10.7c1.9-2.3 5.2-5.7 8.7-6.2a3.6 3.6 0 01.5 0zm128 0h.5c4.3.7 8.3 5.8 9.6 7.5a71.6 71.6 0 01-12.7 10.6 81.8 81.8 0 01-3.8-13.9c2-2.2 4.3-4.2 6.4-4.2zm-143.9 27.5a76.6 76.6 0 007.7 6.1 8.4 8.4 0 01-1.9.8 9.6 9.6 0 01-4.6 0c-.5-1.4-1-3.2-1.1-5.5v-1.4zm159.7 1.8c-.2 2.1-.6 3.8-1.1 5-1.6.4-3.2.5-4.7 0a4.7 4.7 0 01-.6-.1 88.4 88.4 0 006.4-4.9z"/><path fill="#0072c4" stroke="#fff" stroke-width="3.9" d="M480.5 356.1s-82-27-81.4-129.4l.6-135.6H561l.6 134.8c.5 102.4-81.4 130.1-81.4 130.1z"/><path fill="#e6e6e6" d="M410.4 123.7l2-2 3.7-2.5c1-.6 3-1 3.7-1.5a9.2 10.3 0 003.1-2.8l.4-5.1c1.3-.9 2.5-1.5 3.6-2 1.7-.6 2-1.3 3.8-1.7 1-.4 2.8-.4 4.4-.4 1.7 0 2.7 1.4 4.2 1.7a12 12 0 014.1 2.8c.8 1.1 1.3 2.1 2.7 3 1 .6 2.1 1.6 3.3 2 1.5.8 2.7 1.4 3.8 2.7 1 .8 1.5 2 2.3 2.8a26.5 29.7 0 003.5 2.8c1.5 1 3 2 5.2 1.7 1.2 0 2.6-.3 4 0 1.7 0 3.3 0 4.8.5 1.7 0 3.1.2 4.7.4 1.5.2 3 .3 4.7.3 1.5.5 3.1.4 4.8.4h9.5c1.7 0 3.5 0 4.7.4a37.4 42 0 004.8-.4c1.8 0 3.2-.3 5-.4h5.8c1.4.5 3.3.8 4.4 1.6 1.4.4 2 1.2 3.3 1.6 1.1.6 2.7 1.6 3.5 2.8a18.1 20.3 0 012.7 4.4c.9 1.4 1.2 3.3 2 5.1.4 1.8.7 3.6.7 5.5.4 1.8.3 3.7.3 5.6-.4 1.8-.4 3.8-1 5.5 0 2-.4 3.7-.7 5.2-.3 1.7-.7 2.7-.7 4.8v5.6c0 1.8-.5 3.1-.6 5a52 58.4 0 00-2.4 6.1 10.8 12.1 0 00-2.7 3.1c-.8.5-1.1 1.4-1 1.7 1.3.5 1 1.5 1 3.5l.7 5.2c0 1.9.4 3 1 4.4.5.8.7.4-.7.4-1 .8-2 .4-2.4-1.3a8.8 9.9 0 01-1.4-4.3 16.4 16.4 0 00-1-4.8c-.1-2.2-.6-2.2-2.6-2.4-1-.9-2.2-1.1-4.1-1.1-1.8 0-2-.3-2 2v5.5c-.4 1.7-1 3-1.4 4.4-1 .8-1.5 2.2-2.7 3.1-.6 1.8-1.4 2.2-3 2.5l-2-2.8c.9-1.8 1.7-2 2.3-4l1.7-4c-.7-1.2-1.3-1.8-2-3.5a19.3 21.6 0 01-1.7-4.4c-1.1-.5-2.9-.6-3.7-1.2-1.7-.4-2.1 1.6-4.1 1.6H492c-2.1 0-2.7 1.3-4.4 1.2h-3.8c-1.4.6-3.1.4-4.7.4-1.7 0-3-.5-4.4-.8-1.5-.5-3-1-4.7-1.2-2 0-2.8.2-4.1 1.2-1 .7-2.6 2.3-3.7 3.2-.5 1.3-.7 3.5-1.5 5-.3 1.7-.8 2.6-1.2 4a13.5 15.1 0 00-1 4.9c-.2 2.6-.7 2.3-2 1.5-.7-1.1-1.6-2.3-2.1-3.6.3-2 .7-3 .7-5.1-.4-1.6-1.1-1.5-2-.4 0 2 0 3.7-.8 4.8a4.4 5 0 01-2 3.1c-.5 1.5-1.6 2.2-2.7 2.8-.1 0 0-.5 0-1.6-.8-1.8 0-3.3 0-5.5 0-2-.1-3.3.4-5.1 0-2-.7-3.8-1-5.2-.7-1.5-1-2.2-2.7-2.8-1.3-.6-3-1.3-3.8-2.5a7 7.9 0 00-3-2.7c-1.5-.6-2.3-1.2-3.4-2-1-1.3-2-1.8-2.4-3.5-.7-1.3-.8-3.6-1.3-5.2a16 17.9 0 00-1-4.8 17.8 20 0 00-1-4.8l-1-5.1c0-2 0-3.8-.4-5.5v-5.6c-.3-1.7-.3-4-.7-5.2 0-2.2-.2-3.3-.7-4.8-.8-1.4-.8-2-2-2.4-.9 1.2-2.3 1.8-4 2-1.3-.3-3-.5-4.4-1.2-1.4-.3-2.3-1-3.4-1.6a31.7 35.5 0 00-2-3.1l-.8-5.2c0-1.5 0-.7 1.5-2.7z"/><path fill="#005120" stroke="#002b0d" stroke-width="1.6" d="M428.7 196.3c1.1-.4-1.8.7 1 1.2 1.6 1.3 4 4.3 5.8 1.8 1 2.8 3.5 4 4.5 1 .8 2.5 1.7 7.4 4.6 3.7 4.6-1.3 7.8 4 12 1.9 3-.9 5.2-7.6 8.5-3.2 3.3-.4 7.1-5 9.6-.3 2.7 1 2.8-7.5 5.2-3 1.5 5.5 5.2-3.5 7.8.6 3.7 1 8.6-.9 11 1.5 4.8-1 10.3 3.4 14-1.6 1.8-.3 1.7 4.6 4.8 2.4 3.6-1.7 8 1.3 10.2-3.3 2.1 4 7.4.2 10.3-.2 1.7 1.1 3.5 2.9 5.3 3.2-.4 4.1-4.3 6.7-6.9 9.7-1.2 5-5.5 8-9.2 11.1a16.5 16.5 0 01-15.2 6h-44a34.3 34.3 0 01-22.7 2.5 29.7 29.7 0 01-10.8-11.2c-2-4.8-3.8-9.7-5.2-14.7-1.2-2.9-.4-6.1-.6-9z"/><path fill="#fff" d="M425.9 214.3c-11.2-.1-16.1 14.2-27.5 13.5.5 8.6-.6 20.2 2.8 26.9 10-1.6 14.9-14.3 25.7-13.2 11 .8 16.1 15.2 27.8 13.2 10.3-1.6 15.6-15.1 27-13.1 10.2 1.6 15.5 15 26.8 13 10.3-1.5 15.4-15 26.7-13 9.5 1.3 14 12.4 23.7 13.2.7-8.5 3.5-20.2.8-27-11.3-.3-16.5-15.3-28.4-13.3-10.3 1.6-15.5 15.2-26.8 13.2-10.4-1.6-15.6-15.2-27-13.2-10.3 1.7-15.5 15.2-26.8 13.2-9.8-1.5-14.5-13.4-24.8-13.4zm0 52.7c-7.7 1.4-21.3 8-18.3 17.2 3.1 5 4.3 19.8 11.5 11.6 9.4-5.3 17.8 2.7 24.4 8.5 5.9 5 14.7 3.9 20-1.3 5.5-4.7 12-11 20-8.4 9 2.9 14.3 14.6 25 12.8 10-1.6 15.1-14.6 26.2-13.2 5.6-.4 10.8 9 12.4 0 1.9-6.7 10.5-15.8.8-19.5-5.6-6-15.1-10.8-22.6-5.2-6.6 4.2-12.1 12.4-21 10.9-10.3-1.6-15.4-15.2-26.8-13.2-10.2 1.6-15.5 15.1-26.8 13.2-9.8-1.5-14.4-13.6-24.8-13.4zm53.7 52.7c-11.6-.1-16.8 15.3-28.8 13.4-9.4-1.3-13.8-12-23.1-13.3a132 132 0 0039.3 33c7.2-.4 14.4 7.3 20.8.3a48.3 48.3 0 0019.7-10.5 135.4 135.4 0 0023.5-22.7c-10.1 1.8-15.3 15-26.6 13.2-9.8-1.4-14.4-13.6-24.8-13.4z"/></g><g class="P N"><path fill="none" d="M408.5 268.4a119 138.8 0 0111.3-3.8l17.7 19.8-14.5 3.4z"/><g class="M O"><path d="M476.4 307.3l1-92.2s2.8-.4 2.8 0l-.7 92.2c-.3.3-3.4.6-3.1 0zm30.8-88.1l-.6 77.3-2.2 3 .7-80.3z"/><path d="M441.5 292.1s3.2 37.9 39.3 36.7c36.1-1.1 46.2-38 46.2-38l-15.7-.8c-.3 0-12.5 17.6-28.3 17.3s-20.8-4.8-24.2-8.5c-3.5-3.8-6.5-9.2-6.5-9.2l-18.4-8.5 1 8.1zm97.6-3.8l-1-5v-4.4l1.7-4.5-27.4 5-.1 8.6 26.8.2z"/><path d="M452.5 289.6c.3-2.1.3-68.7.3-68.7l-1.8-.2-.3 67.8 1.8 1.2zM407.6 268l23.8 13.5-.5 1.9-23-13c0-.4.3-1.9-.3-2.5z"/><path d="M418.6 264c0 1 3.4 23.4 3.4 23.4s2.2.4 2.2 0l-3.7-23zm22 .6c1.2 0 22.7-4 22.7-4l-.4 4-21.1 2.5z"/></g></g><path d="M443.6 234.2c1.4.4 2.7 1.2 4.1 1.7 1.8.7 3.6 1.5 5.6 1.5 1.1 0 2.3-.8 2.5-2 .2-.6-.5-1.5 0-2 1 .3 2 1.2 3.2.9 1-.4 1.4-1.5 1.8-2.5a9.2 9.2 0 00.7-3.3c-.5-.3-1 .5-1.6.5a128 128 0 01-13.5 5c-.8.2-1.6.4-2.4.4l-.4-.2z" class="Q"/><path d="M441 243.4c1.1.4 25.7-7.7 25.7-7.7s0 2.5-.4 2.5L441 246z" class="M N O P"/><path d="M497.7 232c.7 1.4 1.2 3.4 3 3.8 1.3-.1 2.7-2.4 3.5-2 .5 1.9 2.8 3.8 4.5 2 1-1.2 1.8-2.7 2.3-4.1 1.5.6 3.8 1 4-1.3.5-1.4 1.3-3.6 1.1-4.6l-18.3 6.3zm-28.8 7.4c-1.2 3.4-2.6 7-2.3 10.8a58.8 58.8 0 002.9 11.4c.8 1 2-1.6 2.9-2 2.2-2 4.6-4.3 7.8-4.7 3.1.1 6 1.8 8.4 3.7a32 32 0 01-1.2-5.4c-.4-2.8-.4-5.6.5-8.3 1-4.1 2.5-8.1 4-12.1l-23 6.5zm.7-10.6c1.7.8 2.5 3 4.4 3.3 1.3-.2 3-3.2 3.4-2.7-.5 2.1 1.4 4.7 3.4 2.8 1.6-.6 1-4.1 2.8-2.7 2.1.6 3.5-1.6 4-3.3.3-1 2-4.7-.3-3.4-5.9 2-11.6 4.2-17.5 6h-.3z" class="Q"/><path d="M441.9 232.7a5.4 6.3 0 00.2 3.4l20.6-8.1s.8-2 0-2-21.1 7.4-21 6.8zm27-5c.6 0 21-7.8 21-7.8s.3 3.3 0 3.3l-19.1 6.6-2-2.2z" class="M N O P"/><path d="M495.9 243.8a13 13 0 00-2 10.5c.6 3 1.1 6.1 2.1 9 .7.2 1.3-1.7 2-2.4 1.3-2 2.8-4.1 5.2-5 2.3-.4 4.6.7 6.7 1.6 1.6.7 3 1.5 4.6 2.4-.5-4.3-1-8.7-.7-13 .6-3.3 2.4-6 4.2-8.8.2-.6 1.6-1.9 1.2-2l-23.4 7.5v.1z" class="Q"/><g class="M N P"><path d="M467.3 237s-.6 3.5-.3 3.5l26.7-8.1V230l-26.4 7z" class="O"/><path fill="#b6b6b4" d="M433.9 281.1s-6.3-1-6 .8c.4 1.9 3.2 3.7 3.5 4.8s-1 5 1 4.8c1.8-.4 3.7-2 3.7-3l-.4-6.3z"/><path d="M468.3 263.2v2.5l22.6-3.6-.6-2z" class="O"/></g><path d="M441.5 245.9c-2 1.2-2.1 3.7-2 5.7a30 30 0 003.2 11.8c.9 1.2 1.4-1.6 2-2.2 1.5-2.3 3.5-4.7 6.3-4.8 3.3 0 6.3 1.8 9 3.5 0-1-.2-2.7-.1-4a28 28 0 013.1-14.6c.2-.6 1.7-2.2 1.3-2.2l-22.3 6.8h-.5z" class="Q"/><path d="M494.4 265l.3 2.2s22.7-3.2 22.7-3.8c0-.2 0-2.5-.5-2.5-.3 0-22.2 4.4-22.7 4zm-.4-23.5l.4 2.5 26.7-8.3s.6-2.3.3-2.3-26.7 9.2-27.4 8z" class="M N O P"/><path d="M0 0h320v240H0z" class="R"/><path fill="#fff" d="M37.5 0l122 90.5L281 0h39v31l-120 89.5 120 89V240h-40l-120-89.5L40.5 240H0v-30l119.5-89L0 32V0z"/><path fill="#c8102e" d="M212 140.5L320 220v20l-135.5-99.5zm-92 10l3 17.5-96 72H0zM320 0v1.5l-124.5 94 1-22L295 0zM0 0l119.5 88h-30L0 21z"/><path fill="#fff" d="M120.5 0v240h80V0zM0 80v80h320V80z"/><path fill="#c8102e" d="M0 96.5v48h320v-48zM136.5 0v240h48V0z"/></svg>