<svg viewBox="0 0 640 480" xmlns="http://www.w3.org/2000/svg"><g fill-rule="evenodd" stroke-width="6.7"><path d="m0 0h640v53.3h-640z" fill="#005bae"/><path d="m0 53.3h640v53.4h-640z" fill="#fff"/><path d="m0 106.7h640v53.3h-640z" fill="#005bae"/><path d="m0 160h640v53.3h-640z" fill="#fff"/></g><path d="m0 0h266.7v266.7h-266.7z" fill="#005bae" stroke-width=".9"/><g fill-rule="evenodd"><g stroke-width="6.7"><path d="m0 213.3h640v53.4h-640z" fill="#005bae"/><path d="m0 266.7h640v53.3h-640z" fill="#fff"/><path d="m0 320h640v53.3h-640z" fill="#005bae"/><path d="m0 373.3h640v53.4h-640z" fill="#fff"/></g><g fill="#fff" stroke-width="6.93"><path d="m106.67 0h53.33v266.67h-53.33z"/><path d="m0 106.67h266.67v53.33h-266.67z"/></g></g><path d="m0 426.7h640v53.3h-640z" fill="#005bae" stroke-width=".6"/></svg>