<svg xmlns="http://www.w3.org/2000/svg" viewBox="0 0 640 480"><g fill-rule="evenodd" stroke-width="6.7"><path fill="#005bae" d="M0 0h640v53.3H0z"/><path fill="#fff" d="M0 53.3h640v53.4H0z"/><path fill="#005bae" d="M0 106.7h640V160H0z"/><path fill="#fff" d="M0 160h640v53.3H0z"/></g><path fill="#005bae" stroke-width=".9" d="M0 0h266.7v266.7H0z"/><g fill-rule="evenodd"><g stroke-width="6.7"><path fill="#005bae" d="M0 213.3h640v53.4H0z"/><path fill="#fff" d="M0 266.7h640V320H0z"/><path fill="#005bae" d="M0 320h640v53.3H0z"/><path fill="#fff" d="M0 373.3h640v53.4H0z"/></g><g fill="#fff" stroke-width="6.9"><path d="M106.7 0H160v266.7h-53.3z"/><path d="M0 106.7h266.7V160H0z"/></g></g><path fill="#005bae" stroke-width=".6" d="M0 426.7h640V480H0z"/></svg>