<svg xmlns="http://www.w3.org/2000/svg" fill-rule="evenodd" viewBox="0 0 640 480"><path fill="#be0027" d="M0 0h640v480H0z"/><path fill="#3b5aa3" d="M26 27h589v429H26z"/><path fill="#cbe0e5" d="M314 413a10 10 0 009 0 197 197 0 000-346 10 10 0 00-9 0 199 199 0 000 346z"/><path fill="#add2d9" d="M314 417c2 2 7 1 9 0 101-76 102-123 97-123H219c-3 0 2 48 95 123z"/><path fill="#fdf9a1" d="M235 331a39 39 0 0128 2c8 4 12 4 20 4 9 0 16 6 25 7 17 0 24 9 11 9-6 0-20-5-26-4-14 2-22 5-35 19l15 10c12-5 15-11 22-11 8 0 10-5 20-5a93 93 0 0033-4c14-3 7-13-2-17-7-3-20 0-29-3-6-3-1-7 3-8l11 2c8 0 17 0 24-2 14-2 13-6 20-6 5 0 9-2 12-4 4-3 8-8 13-8l13 1-18 40-51 52-26 10-58-38-29-45 4-1z"/><path fill="#179a3b" d="M302 292l116-1 2-10-8-1c-4 0-11 5-16 5-3 0-7-6-10-6-6 0-7 5-12 5s-7-4-13-3c-6 0-5 4-13 3-10 0-14-9-22-9-14 0-14 13-24 17z"/><path fill="#fdf9a1" d="M302 294h119v-3H299l3 3z"/><path fill="#a79270" d="M351 330c2 7 4 10 11 12 7 1 19-6 12-13-7-6-14-8-20-13-12-13-31-43-31-64l-2-92c0-2-7 7-7 9l2 87c2 23 13 38 22 52 5 7 11 15 13 22z"/><path fill="#239e46" d="M260 161c-2 3 3-1 4-1 7-3 10-11 21-6 9 4 21 2 15 6-8 4-23 9-24 33 2 2 2 2 3-1 2-5 13-20 19-19 2 1 9-7 9-4 1 5-9 17-9 33 0 4 5 5 7 2l7-7c7-6 5-29 6-28 4 6 5 23 12 30 6 6 11 3 9-5-2-16-10-11-14-28 0-3-1-6 4-5 5 2 8 4 12 10s12 11 16 15c7 5 10 0 7-7a40 40 0 00-21-18l-14-4c-2 0-3-3-1-5a43 43 0 0120-7c7-1 12 5 17 6 9 3 9-3 5-8-4-4-11-10-17-9-14 2-13 1-21 7-3 2-7 4-6 1l5-10c4-4 7-7 10-8 4-1 8-4 10-6 3-5 0-7-5-6s-7 4-10 5c-7 3-13 19-14 22-1 2-3 1-2-1 1-12 2-32-2-40-7-12-6-6-9-1-3 9-2 18 0 27l6 13c0 2-2-1-3-3-4-6-7-10-13-13a35 35 0 00-21-2l4 4c4 4 12 5 18 8 5 3 8 5 10 9 0 3 1 7-1 7-5 0-13-5-29-3-8 1-16 8-20 17z"/><path d="M295 311h5v8h-5z"/><path fill="#fdf9ff" d="M272 258c18 26 49 41 49 53h-58c13-16 21-27 9-53z"/><path fill="#a68861" d="M255 312c25 5 56 8 75-1 0 5-6 14-12 14h-48c5-1 9-3 18-3h-26c-3 0-8-8-7-11z"/><path fill="#be0027" d="M313 425c2 2 6 1 9 0a212 212 0 000-372 11 11 0 00-10 0 214 214 0 001 372zm0-18a9 9 0 008 0c124-72 125-265 0-334h-8c-118 71-125 255 0 334z"/></svg>