<svg xmlns="http://www.w3.org/2000/svg" viewBox="0 0 640 480"><path fill="#bc0909" d="M640 480H0V0h640Z"/><path fill="#fff" d="M339 110c-38 1-63 29-70 59-8 55 41 75 41 75-6-8-9-10-9-25 1-8 3-12 8-17 7-6 14-8 20-12 10-7 15-20 14-32-1-9-4-15-7-22-3-6-5-11-2-18zm-32 38 4 5 6-1-4 5 3 5-6-2-5 4 1-6-5-2 6-2zm-113 29c-12 36 0 68 32 87 49 23 85-15 85-15-9 2-12 5-27 0-7-4-11-8-13-13-3-8-2-15-5-23-4-11-13-20-25-23-8-2-16-2-24 0-7 1-12 1-17-4-3-2-5-5-6-9zm180 1c-33 4-55 31-60 62 6-7 7-11 22-16 6-1 13 0 18 3 8 5 12 12 17 16 10 8 23 9 35 4 7-3 14-7 19-13 5-5 9-9 16-8 4 0 6 1 10 3-16-35-39-54-77-51zm23 28 2 5 6-1-4 4 3 6-6-3-3 5 1-6-6-3 6-1zm-171 6 2 6 7-1-5 5 3 5-5-3-4 5 1-6-6-3 6-1zm105 31-13 1c8 4 13 3 22 15 3 6 4 13 3 19-2 9-7 14-9 22-4 12-1 25 7 34 5 6 12 11 19 14 6 2 10 5 11 12v10c32-20 35-61 25-89a72 72 0 0 0-65-38zm-14 7c-1 9 1 13-9 25-5 6-11 7-17 8-8 1-15-3-23-3-12 0-24 6-30 17-5 6-8 13-9 21-1 7-3 13-8 16l-11 2c30 22 68 17 93-2 39-38 14-84 14-84zm51 57 3 6 6-2-4 5 3 5-6-3-4 5 1-5-6-3 6-1zm-107 4 3 6 7-1-5 3 4 6-7-3-4 5 1-7-5-2 5-1z"/><path d="M301 166v-1m-26 152v1m-41-86h-1"/><path fill="none" d="M304 239c-19-17-17-60-3-73m17 67c10-23 50-34 68-24m-60 36c25 3 48 38 44 58m-52-46c4 26-23 58-43 60m29-64c-22 12-62-3-70-21"/><path fill="none" stroke="#ba0000" stroke-width="2" d="M304 239c-19-17-17-59-3-73m17 67c10-22 51-34 69-24m-60 36c25 3 47 38 44 58m-53-45c5 25-23 57-42 59m28-64c-22 12-61-3-70-21"/></svg>