<svg xmlns="http://www.w3.org/2000/svg" viewBox="0 0 640 480"><path fill="#171796" d="M0 0h640v480H0z"/><path fill="#fff" d="M0 0h640v320H0z"/><path fill="red" d="M0 0h640v160H0zm320 364c51 0 93-42 93-93V160H227v111c0 51 42 93 93 93z"/><path fill="#fff" d="M320 363a92 92 0 0092-92V162H229v109a92 92 0 0091 92z"/><g fill="red"><path d="M267 165h-35v39h35zm0 78h35v-39h-35zm-35 28l1 10h34v-38h-35zm106-28h-36v38h36zm0 77h35v-39h-35zm35 21a89 89 0 0020-21h-20v21zm-106-21h35v-39h-35zm-20 0a89 89 0 0020 21v-21zm79 39l12-2v-37h-36v37a87 87 0 0012 2h12zM407 281l1-10v-28h-35v38zm-69-38h35v-39h-35zm0-78h-36v39h36zm70 39v-39h-35v39z"/></g><path fill="#fff" d="M410 159l22-50-17-26-27 10-20-22-25 14-23-18-23 18-25-15-20 23-27-11-17 27 22 50a218 218 0 0190-19c32 0 63 6 90 19z"/><path fill="#0093dd" d="M253 95l-27-10-16 24 6 14 15 34a220 220 0 0135-12z"/><path fill="#171796" d="M298 87l-26-14-19 22 13 50a220 220 0 0136-6z"/><path fill="red" d="M263 132a232 232 0 0138-6l-1-13a246 246 0 00-41 7zm-7-25a258 258 0 0143-7l-2-13a271 271 0 00-44 8z"/><path fill="#0093dd" d="M343 87l-23-18-22 18 4 52a221 221 0 0136 0l5-51z"/><path fill="#171796" d="M387 95l-19-22-25 14-5 52a220 220 0 0137 6l12-50z"/><path d="M352 101h-1 1zm1 2a2 2 0 001-1v1c-1 0 0 0 0 0zm4-2a1 1 0 011 0 1 1 0 00-1 0zm-2 0h1a1 1 0 00-1 0zm0 0a1 1 0 011 0 1 1 0 00-1 0v1zm-3 2h-1 1zm1 0zm-1-1h1a1 1 0 01-1 0zm1-2h-1 1zm-1 0a1 1 0 00-1 0h1-1a1 1 0 011 0zm-1 0zm-1 1zm0 1zm-1 0zm2 1v1h-1v-1zm-1 0zm-1-4a1 1 0 011 0 1 1 0 00-1 0zm5 6a2 2 0 010 2 2 2 0 000-2zm-1 2v-1l1-1a2 2 0 010 1 6 6 0 00-1 1zm-2 0a1 1 0 010-1 1 1 0 000 1zm-1-1h1a2 2 0 00-1 1zm2-2h1a1 1 0 01-1 0zm-1 0c1 0 1 0 0 0zm25 7a1 1 0 00-1 0zm-27 13a1 1 0 001 0 1 1 0 01-1 0z"/><path fill="#0093dd" d="M409 157l21-47-15-25-28 10-13 50a219 219 0 0135 11z"/><path fill="#fff" d="M383 113a252 252 0 0139 14l-8 18a232 232 0 00-36-13z"/><path fill="red" d="M415 142l6-12a249 249 0 00-39-14l-3 13a236 236 0 0137 13h-1z"/></svg>