<svg viewBox="0 0 640 480" xmlns="http://www.w3.org/2000/svg" xmlns:xlink="http://www.w3.org/1999/xlink"><path d="m0 0h640v160h-640z" fill="#f93"/><path d="m0 160h640v160h-640z" fill="#fff"/><path d="m0 320h640v160h-640z" fill="#128807"/><g transform="matrix(3.2 0 0 3.2 320 240)"><circle fill="#008" r="20"/><circle fill="#fff" r="17.5"/><circle fill="#008" r="3.5"/><g id="a"><g id="b"><g id="c"><g id="d" fill="#008"><circle r=".9" transform="matrix(.99 .13 -.13 .99 17.35 2.29)"/><path d="m0 17.5.6-10.5-.6-5-.6 5z"/></g><use height="100%" transform="matrix(.97 .26 -.26 .97 0 0)" width="100%" xlink:href="#d"/></g><use height="100%" transform="matrix(.87 .5 -.5 .87 0 0)" width="100%" xlink:href="#c"/></g><use height="100%" transform="matrix(.5 .87 -.87 .5 0 0)" width="100%" xlink:href="#b"/></g><use height="100%" transform="matrix(-.5 .87 -.87 -.5 0 0)" width="100%" xlink:href="#a"/><use height="100%" transform="matrix(-.5 -.87 .87 -.5 0 0)" width="100%" xlink:href="#a"/></g></svg>