<svg viewBox="0 0 640 480" xmlns="http://www.w3.org/2000/svg"><g fill-rule="evenodd"><path d="m0 0h640v480h-640z" fill="#fff" stroke-width=".82"/><g stroke-width=".94"><g transform="matrix(.76 0 0 1 76.22 0)"><path d="m-100.1 322.48h840.45v157.77h-840.45z" fill="#da0000"/><path d="m-100.1 0h840.45v157.77h-840.45z" fill="#239f40"/></g><g fill="#da0000"><path d="m342.45 185.26c7.88 9.76 32.36 63.41-14.73 98.68-22.23 16.7-8.44 17.45-7.79 20.26 35.64-18.85 47.18-44.56 46.9-67.54-.19-22.89-12.38-43.15-24.39-51.4zm4.69-2.53a68.76 68.76 0 0 1 14.73 105.43c25.51-5.63 58.16-81.04-14.73-105.43zm-54.03 0a68.76 68.76 0 0 0 -14.63 105.43c-25.61-5.63-58.16-81.04 14.63-105.43z"/><path d="m297.8 185.26c-7.88 9.76-32.36 63.41 14.73 98.68 22.14 16.7 8.44 17.45 7.79 20.26-35.64-18.85-47.18-44.56-46.9-67.54.19-22.89 12.38-43.15 24.39-51.4z"/><path d="m365.34 299.32c-13.98.19-31.52-1.88-44.56-8.72 2.16 4.22 3.94 6.85 6.1 10.98 12.38 1.22 29.55 2.63 38.46-2.25zm-89.11 0c13.98.19 31.52-1.88 44.56-8.72-2.16 4.22-3.94 6.85-6.1 10.98-12.38 1.22-29.55 2.63-38.46-2.25zm25.61-130.1c2.81 7.5 10.22 8.63 18.1 4.22 5.82 3.38 14.73 3.66 17.82-3.85 2.35 18.57-17.17 14.07-17.82 10.51-7.32 7.04-20.82 3-18.1-10.88z"/><path d="m320.5 311.04 7.32-8.44 1.03-112.65-8.72-7.69-8.72 7.32 1.78 113.5z"/></g></g></g></svg>