<svg xmlns="http://www.w3.org/2000/svg" viewBox="0 0 640 480"><g fill-rule="evenodd"><path fill="#fff" stroke-width=".8" d="M0 0h640v480H0z"/><g stroke-width=".9"><path fill="#da0000" d="M.1 322.5H639v157.8H0z"/><path fill="#239f40" d="M.1 0H639v157.8H0z"/><g fill="#da0000"><path d="M342.4 185.3c8 9.7 32.4 63.4-14.7 98.6-22.2 16.7-8.4 17.5-7.8 20.3 35.7-18.9 47.2-44.6 47-67.5-.3-23-12.5-43.2-24.5-51.4zm4.7-2.6A68.8 68.8 0 01362 288.2c25.5-5.7 58.1-81-14.8-105.5zm-54 0a68.8 68.8 0 00-14.6 105.5c-25.6-5.7-58.2-81 14.6-105.5z"/><path d="M297.8 185.3c-7.9 9.7-32.4 63.4 14.7 98.6 22.2 16.7 8.5 17.5 7.8 20.3-35.6-18.9-47.2-44.6-46.9-67.5.2-23 12.4-43.2 24.4-51.4z"/><path d="M365.3 299.3c-14 .2-31.5-1.9-44.5-8.7 2.1 4.2 4 6.8 6 11 12.5 1.2 29.6 2.6 38.5-2.3zm-89 0c14 .2 31.4-1.9 44.5-8.7-2.2 4.2-4 6.8-6.1 11-12.4 1.2-29.6 2.6-38.5-2.3zm25.5-130c2.8 7.4 10.3 8.5 18.1 4.1 5.9 3.4 14.8 3.7 17.9-3.8 2.3 18.6-17.2 14-17.9 10.5-7.3 7-20.8 3-18-10.9z"/><path d="M320.5 311l7.3-8.4 1-112.7-8.7-7.6-8.7 7.3 1.8 113.5z"/></g></g></g></svg>