<svg xmlns="http://www.w3.org/2000/svg" viewBox="0 0 640 480"><clipPath id="a"><path d="M-86 0h682v512H-86z"/></clipPath><g clip-path="url(#a)" transform="translate(81) scale(.938)"><g fill-rule="evenodd"><path fill="#e73e2d" d="M-164 0h836v307h-836z"/><g fill="#fec74a" stroke="#d8aa3f" stroke-width="1.7"><path d="M204 282c-19-15-55-10-61-51 27 21 22-1 64 19z"/><path d="M210 263c-14-20-50-26-43-67 19 29 22 5 55 38z"/><path d="M216 250c-5-24-36-44-14-79 7 34 18 14 36 56z"/><path d="M230 238c3-25-20-53 11-80-3 35 13 19 18 65z"/><path d="M243 228c13-22 3-57 43-68-18 30 4 22-11 66z"/><path d="M262 230c19-16 20-52 62-51-26 24-3 23-31 60z"/><path d="M279 240c22-10 35-45 74-31-32 15-10 21-47 48z"/><path d="M293 255c24-3 46-33 79-8-35 4-15 17-58 32l-22-24z"/><path d="M380 260l-113 2 5 30z"/><path d="M363 218l-104 40 17 34z"/><path d="M281 281l53-98-82 77z"/><path d="M280 273l17-110-54 97z"/><path d="M273 264l-18-111-20 111z"/><path d="M264 254l-53-92 20 112z"/><path d="M256 254l-81-69 57 98z"/><path d="M146 219l87 72 13-38z"/><path d="M232 261l-102-2 102 34z"/><path d="M315 279a61 61 0 11-123 0 61 61 0 01123 0z"/></g><path fill="#005989" d="M-165 303h840v209h-840z"/><path fill="#fff" d="M-166 454c16 7 38 25 62 25 40 0 41-27 82-26s33 30 88 30c46-1 60-35 99-31 29-1 41 33 86 33 46 1 63-37 92-34 31 0 41 31 84 31 55 0 65-32 99-30 25 0 44 24 80 24 29 1 53-21 69-29l1-36c-17 6-42 27-68 27-36 1-59-24-84-24-31 1-43 32-94 32-47 0-58-32-89-32-29 0-38 34-90 34-42-1-58-33-88-32-31 0-64 31-99 29-48-2-58-29-90-29-23 0-49 25-77 26-28 0-60-26-63-26zm0-73c16 7 38 25 62 25 40 0 41-27 82-26s33 30 88 30c46 0 60-35 99-31 29-1 41 33 86 33 46 1 63-37 92-34 31 0 41 31 84 31 55 1 65-32 99-30 25 0 44 24 80 25 29 0 53-22 69-29l1-37c-17 6-42 27-68 27-36 1-59-24-84-24-31 1-43 32-94 32-47 0-58-32-89-32-29 1-38 34-90 34-42-1-58-32-88-32-31 0-64 31-99 29-48-2-58-29-90-29-23 0-49 25-77 26-28 0-60-26-63-26v38zm0-72c16 7 38 25 62 25 40 0 41-27 82-26s33 30 88 30c45-1 60-35 99-31 29-1 41 33 85 33 46 1 63-37 92-34 31 0 41 31 85 31 55 0 64-32 99-30 24 0 44 24 80 24 28 1 52-21 69-29v-36c-17 6-42 27-67 27-37 1-59-24-85-24-30 0-42 31-94 31-47 1-58-31-88-31s-39 34-90 34c-42-1-58-33-88-32-32 0-64 30-99 29-48-2-58-29-90-29-23 0-49 25-77 26-28 0-60-26-63-26v38z"/><g fill="#ffc84b" stroke="#d8aa3f"><path stroke-width="1.8" d="M137 76c61-4 50-9 74-13 31 4 35 23 52 34 0 0-6 22-28 19-2-9 11-12-27-35-22-1-61 4-71-5zm189 34l-44 2v11c30 1 35-3 44-13z"/><g stroke-width="1.7"><path stroke-linejoin="round" d="M175 108c8-4 11-2 18-2 5 8 9 9 19 10a50 50 0 0040 21c30 0 39-21 59-24h21c-3-6-6-9-14-10-15 0-36 0-54 4l-25 6c-7-3-25-22-36-22-7 2-7 4-10 7-7 3-13 1-18 10z"/><path d="M205 99a3 3 0 11-6 0 3 3 0 016 0z"/></g><path stroke-width="1.8" d="M226 108c44-54 84-48 135-51 2 6 1 15-23 24-34 5-94 40-94 40-11-1-19-12-18-13z"/></g></g><path fill="none" stroke="#d9a43e" stroke-linecap="round" stroke-width="1.8" d="M318 73l33 1m-37 4l24 2"/></g></svg>