<svg xmlns="http://www.w3.org/2000/svg" viewBox="0 0 640 480"><path fill="#e73e2d" d="M0 0h640v288H0z"/><g fill="#fec74a" stroke="#d8aa3f" stroke-width="1.6"><path d="M307 148c-17 15-17 30-14 45-10-13-18-9-23-33-11 18-8 31-1 44-14-7-19-1-31-20-4 23 6 34 18 43-20-4-21 5-41-10 6 38 39 33 57 47l2-21 4 4 5-13v1l14-14v3l19-10 14-1a36 36 0 0 1-3 3l21 6-5 3 20 13-7 1h-1l20 23c41-14 22-27 55-30-19-15-34-10-48-3 15-16 6-22 30-33-21-8-34 0-45 9 8-16-1-20 18-37a42 42 0 0 0-41 24c2-20-8-20 5-42-21 6-27 20-31 34-6-13-13-12-11-36z"/><path d="m320 144-11 61-30-53 11 59-45-37 30 51-57-19 47 38-62-1 96 32v-3l1 1 5-15 8-10h7l5 2 4 3 5 10 2 11 3-1 1 1 2-2 96-28-64 1 47-40-56 21 29-54-44 41 10-60-30 53-10-62z"/><path d="M377 262a58 58 0 1 1-116 0 58 58 0 0 1 116 0z"/></g><path fill="#005989" d="M640 284H0v196h640z"/><path fill="#fff" d="M0 311c22-6 29-23 60-22 39 1 31 28 83 28 42-1 56-33 93-29 27-1 38 31 80 31 43 1 59-35 86-32 29 0 38 29 80 29 51 0 60-30 93-28 20 0 37 18 65 22v-36c-28-3-47-22-68-22-28 0-40 29-88 29-44 1-55-29-83-29s-36 32-84 32c-40-1-55-31-83-30-30 0-60 28-93 27-45-2-54-27-84-27-17 0-36 15-57 22v35zm0 68c22-6 29-23 60-23 39 1 31 28 83 28 43 0 56-32 93-29 27-1 38 31 81 31 43 1 59-34 86-32 29 0 38 29 79 29 51 1 61-30 93-28 21 0 38 19 65 23v-36c-27-4-46-22-67-22-29 1-40 30-88 30-44 0-55-30-84-30-27 1-35 32-84 32-40-1-55-30-83-30-29 0-60 29-93 27-45-2-54-27-84-27-17 0-36 14-57 21v36zm0 68c22-6 29-23 60-22 39 1 31 28 83 28 43-1 56-33 93-29 27-1 38 31 81 31 43 1 59-35 86-32 29 0 38 29 79 29 51 0 61-30 93-28 21 0 38 18 65 22v-36c-27-3-46-22-67-22-29 1-40 30-88 30-44 0-55-30-84-30-27 0-35 32-84 32-40-1-55-31-83-30-29 0-60 29-93 28-45-2-54-28-84-28-17 0-36 15-57 22v35z"/><g fill="#ffc84b" stroke="#d8aa3f"><path d="M420 54c-40 2-72-1-105 25-8-8-17-17-36-20-23 4-12 8-70 12 10 9 46 4 67 5 14 8 20 14 23 18l-4 5c-8-6-17-13-24-13-6 2-6 3-9 6-7 3-12 1-17 9 7-3 10-1 17-1 5 7 8 8 18 9a47 47 0 0 0 37 20c17 0 26-7 35-13 20 0 25-3 32-10h8c-3-6-5-8-13-9l-42 2c19-10 44-20 61-23 22-8 23-17 21-22z"/><path stroke-width="1.6" d="M273 93a3 3 0 1 1-5 0 3 3 0 0 1 5 0z"/></g></svg>