<svg xmlns="http://www.w3.org/2000/svg" viewBox="0 0 640 480"><path fill="#ff0" d="M0 0h640v120H0Z"/><path fill="#fff" d="M0 120h640v121H0Z"/><path fill="#be0027" d="M0 241h640v120H0Z"/><path fill="#3b5aa3" d="M0 361h640v119H0Z"/><path fill="#239e46" d="M0 0v480l359-239Z"/><g fill="#fff"><path d="M148 133c-80-4-117 60-117 109 0 58 55 106 106 103-27-13-61-49-61-103 0-49 28-92 72-109Z"/><path d="m147 185-12-9-13 5 5-14-9-11h15l8-11 4 13 14 5-12 8zm-1 49-11-9-14 5 5-14-8-11h14l9-11 4 13 13 5-12 8zm1 50-12-9-13 4 5-13-9-12h15l8-11 4 14 14 4-12 8zm-1 49-11-8-14 4 5-14-8-11h14l9-11 4 14 13 4-12 8z"/></g></svg>