<svg xmlns="http://www.w3.org/2000/svg" viewBox="0 0 640 480"><g fill-rule="evenodd"><g stroke-width=".9"><path fill="#fff" d="M640 480H0V0h640z"/><path fill="#fff" d="M327 241a106 106 0 11-212 0 106 106 0 01212 0z"/><path fill="#c70000" d="M459 247c0 76-61 138-137 138s-136-62-136-138 61-138 137-138 136 62 136 138z"/></g><path d="M122 28l-79 91 19 16 79-91-19-16zm26 22l-79 91 19 16 79-91-19-16zm26 23l-79 91 19 16 79-91-19-16z"/><g stroke-width=".9"><path d="M482 126l-.3-.8h.2l18-16-31-37-19 16 32 38zM515 127l-18 16 32 37 19-16-32-38zM566 81l-18 16 33 38 19-16-33-39zM522 28l-19 16 31 37 19-16-31-37z"/></g><path d="M528 313l-31 37 2-1 18 15 30-36-19-15zm26 22l-30 36 18 16 30-36-19-15zm26 21l-30 36 18 16 31-36-19-15zm-96 10l-31 37 19 15 31-37-19-15zm26 22l-31 37 19 15 31-37-19-15zm26 21l-31 37 19 15 31-37-19-15zM496 50l-19 16 78 92 19-16-78-92z"/><path fill="#3d5897" stroke-width=".9" d="M188 223c4 35 11 74 64 77 20 1 59-5 72-59 18-52 70-67 107-39 21 13 26 34 28 50-2 51-31 95-68 115-43 26-103 26-155-13-24-22-57-63-47-131z"/><path d="M114 314l-19 16 78 91 19-16-78-91zm-26 22l-19 16 31 37 19-16-31-37zm-26 23l-19 16 78 91 19-16-78-91zm72 31l-18 16 32 38 19-16-33-38z"/></g></svg>