<svg xmlns="http://www.w3.org/2000/svg" viewBox="0 0 640 480"><path fill="#006" d="M0 0h640v480H0z"/><path fill="#006" fill-rule="evenodd" d="M0 0h400v200H0z"/><g stroke-width="1pt"><path fill="#fff" d="M0 0v27l334.4 215.3h42.1v-27L42.1 0zm376.5 0v27L42.1 242.4H0v-27L334.4 0z"/><path fill="#fff" d="M156.9 0v242.3h62.7V0H157zM0 80.8v80.7h376.5V80.8z"/><path fill="#c00" d="M0 97v48.4h376.5V96.9H0zM169.4 0v242.3h37.7V0zM0 242.3l125.5-80.8h28L28.2 242.3zM0 0l125.5 80.8h-28L0 18zm223 80.8L348.3 0h28.1L251 80.8zm153.5 161.5L251 161.5h28l97.5 62.7z"/></g><g fill-rule="evenodd"><path fill="#fff" d="M448.3 179.1c-1 .6-3 2.5-5 1.9s-6.6-8.6-11.6-7.4c-5 1.3-8.1 3.1-10.1 3.1s-7.6 1.8-7.6 6.7.5 8.6 1.5 8.6 2.5-3.1 2.5-3.1.5 6.1 4 6.1 11.2.6 11.7 2.5c.5 1.8-3.5 6-2.5 9.7s5.5 9.8 5.5 9.8-6.5 4.8-6.5 8 1 6 1 6l-29.3 1.2s-2 86.7-1 93.4l3.5 23.2s-6.6-2.2-12.1 3.3c-5.6 5.5-25 15-25.5 19.2-.5 4.3-2.3 8-.3 11s9.2 11.4 7.1 11c-6.8-1.1-9.3-10.8-13.9-14.3-4.5-3.5-13.3-2.8-14.4.9-1 3.7-.5 9.8 0 11s6.1 20.7 7.6 25 17.4 10.7 24.5 10c13.4.4 19.4-5.7 20-5.1.4.6 28.7 29.8 86.8 29.9 45.2 0 79.2-29.3 79.2-28.7s18.7 6.1 25.3 4.3c6.5-1.9 16.1-6.1 18.1-10.4s7.6-26.2 8.1-29.9 0-8-4.5-9.2-7-.9-9.6.3-3.3 4.6-7 10.7c-2.1 1.9-7.4 6.7-5.9 5.5s4.8-10.3 5.3-13.4c.5-3 2-8.5-1.5-11.6-3.5-3-9-4.3-15.1-8.8-6-4-10.6-10.7-14.2-10.7-3.5 0-7.5-1.8-7-1.8s4.5-9 3.5-18c-1-9.2.5-96.8 0-96.8s-25.2 1.9-25.2.6 2-9.7 0-15.2-10.7-9.2-8.1-10.4c2.5-1.2 13.6-4.3 13-9.1-.4-5-7.5-4.3-10.5-6.1-3-1.9-12.1-10.4-13.1-10.4s26.2-16.5 24.2-16.5-12.6-3-16.2-1.2c0-3 14.7-12.2 12.2-13.4-2.6-1.3-14.2-2.5-11.1-3 3-.7 4-8 3.5-8l-13.1 1.8s-3-4.3-4-4.3-5.6 2.5-5.6 2.5l-2.6-6.7-5.5 3.6-2.5-3s-4.6 1.2-4.6 0c.2 0-.5-3-1.2-3s-5.7 3.8-5.9 3.6-5.7-8-5.7-7.8l-4.1 14.7c-.2 0-4 .4-4.1.6-.2.3-20-11.4-19.8-11.2l5.1 11.2s-4.2 2.4-4.2 2.6l.7 5-13.2-4.5s5 10 4.6 10l-9.6.5 4.4 8.4-1.6 5s14.2 10 13.2 10.6zm84.3 212.4c1.3 1.8 8.1 10.4 7.1 10.4s-18 11.3-24.7 13.4a351 351 0 01-27.8 5.8c1.3-.3 20-10.5 27.5-15.4a119 119 0 0018-14.2zm-105.5-.3c-1 1.2-5.8 10.7-5.8 10.7s13.9 9.7 24.2 13.4c10.4 3.6 28 4.9 27 4.6s-22.1-9.8-28.2-14.7c-6-4.9-17-14-17.2-14z"/><path fill="#fec500" d="M488.7 134.7c-2.3 1.8-4 9-7.7 5.3-1.2 3.4-3.7 6-7.3 6.3-1.7 1.4 2.7 4-.7 4.5-4-1.8-6-6.4-9.6-9-1.4-2-6.5-2.1-3.2.9a43 43 0 019.9 19.6 50.9 50.9 0 00-16.6-17.4c0 3.1 6.4 7.9 2.6 9.7a71 71 0 00-15-6.5c3.1 4.3 8 6.8 11.4 10.9 2.6.6 4 6.2 0 3.4a165.8 165.8 0 00-15.6-4.1c7.3 4 14.5 8.4 20.3 14.3-4.1-2-8-4.9-12.8-5.2-2.6-2.6-3.6 2.4-.3 2.2 4.4 3.3 8.8 6.5 12.3 10.7 5.7-1.1 12 1.5 17.4-1.5 4.7-1 9.5 1.4 14.1 0 6-.1 10.5 6.6 16.7 4.8 4.8-1.7 7.1-7.1 12.1-8.6 4.1-2.2 8.6-3.8 12.5-6.3-2.3-3.1-6.3-1-9.2 0-2.8 1.9-7.4-1-3-3.3 2.7-2 4.6-4.7 7.1-6.9l7.2-7a96 96 0 00-29.5 19c5.8-10 14.8-17.5 22.5-26 1.3-1 3.2-4 .2-1.9a83.7 83.7 0 00-24.2 16.4c-.6-5.1 4.7-8 6.5-12.3 4.1-1 3.8-8.7-.9-4.9-1.3 1.4-5.9 5.6-6 2.2 1.3-1.6 1-6.5-1.3-3-2 1.2-4 7.2-5.3 3.9-1.7.4-5.2 1-2.4-1.6 2.5-1.5 4.3-5.8-.3-4-2-.4-3-2.9-1.9-4.6z"/><path fill="#00389b" d="M445.5 216.5c.2.9 5.9 16.4 14.7 16s12.3-3 11.9-3.2a18 18 0 01-6.2-8.5 44 44 0 01-2.5-8zm31.2-6s6.5 15.3 9.3 17.5c2.9 2.1 9.5 3.8 12.3 3.6 2.9-.2 6.3 0 6.3 0s-2.9-1.5-5.2-9.9l-3-11.2zm39.3 5.6s-1.2 11.2 0 14c1.3 2.8 7.5 8 7.5 8s7.5-1 7.7-8a36 36 0 00-2.5-13.3L516 216z"/><path fill="#005120" stroke="#000" stroke-width=".5" d="M432.4 177.5c-4.5 2.2-12.8 1.9-14.2 7.5 2.2 2.2 5.2 2.5 6 6 3.9 5 12.6-.4 14.8 6.2 1 5.4-6.2 10.1-1 15.3 4.4 6.4 13.2 7.3 20.2 5.4 4.5-1 8.6-2.9 13-4.3 3.7-.3 7.5 1.6 11.4 1.5 9.7.7 19.5-.6 28.9-3.2 1.4 5 3.4 12 9.9 11.7 3.2.8 11.2 5 10-1.5-.4-6.3-5.6-10.6-8.8-15.5-.5-4.6 7.6-.9 8.9-5.4 1.4-1 5.5-5.5 1-3.6-4.3 1.4-7.4-3.6-11.3-4.6-8.3-4.4-17-7.9-25.6-11.8a69 69 0 00-29.5-3c-5.8.9-11 3.9-16.2 6.2-6.2 1.2-10.7-4-15.7-6.6l-.9-.2z"/><path fill="#d40f0f" d="M388 359.2c2.6-2.5 6.6-8.7 12-9 5.5-.2 11.3 4.8 11.3 4.8s5.7 23.5 5.4 23.5c-.2 0-9.5 6.7-9.7 6.7-.3 0-4-9.2-7.5-8.3-3.5.8-3.2 13.4-3.8 12.6-.5-.9-15.2-18.2-14.6-18.8.5-.6 7.2-10.7 6.9-11.5zm151.9-3c1.7-.4 9.5-6.2 15-6 5.4.3 8.6 2.8 11.4 5.4 3 2.5 6.4 9 6.4 9s-7 19-7.5 19-3.5 1.6-4 .2-2.3-5.8-5.8-6.4c-3.4-.6-4.3 6.2-4.3 6.2L539.9 356z"/><path fill="#fddc59" d="M543.6 362c0 1.7 10.7 28 27.9 33 17.3 5.1 22.7-4.7 24.7-8 2-3.4 9.2-3.1 9.2-3.1s-1.7 24.6-4.6 27.7c-2.8 3-5.1 9.8-21.2 10-16.1.3-30.8-15-35.7-19.5a91.6 91.6 0 01-13.8-21.6c-2.6-5.3 13.8-18 13.5-18.5zM356 414.4c.3 0 7.8 8.1 18.8 7.3 10.9-.9 29.6-7.3 38.2-18.5a96 96 0 0013-23.3s-12.7-22.4-13-22.4-1.4 7.3-3.7 12c-2.3 4.8-8.7 18.3-19.3 22.5s-10.6 5.9-15 5.3a59.3 59.3 0 01-15.5-7.6L354 403s-1.1 8.7 2 11.5z"/><path fill="#fddc59" d="M387.8 358.4c-.8 0-21.2 11.1-20.4 15.9.9 4.7 35 72 108.2 72.9 73.3.8 118-61 114.8-71.3-3.3-10.3-26-22.2-26-22.2s5.6 4.7 4.8 11c-.8 6.4-26 61-89.5 59.5-63.4-1.6-93.5-50-93.5-55.5s3.2-8.7 1.6-10.3z"/><path fill="#d40f0f" d="M586.2 407.4c1.7-1.4 12.3-30.5 18.4-29.7 6 .8 4 9.5 3.4 11.8-.5 2.2-6.6 22.4-6.6 22.4s.3-4.8-3.7-6-10.7 2-11.5 1.5zM356 414.7c0-1.6-4.8-7.2.9-8.7 5.7-1.6 13 1.5 13 1.5s-4-11.8-9-21.4c-4.9-9.5-6.5-7.9-10.6-6.3-4 1.6-4 5.8-1.5 12.1 2.5 6.4 7.2 24.4 7.2 22.8z"/><path fill="#fdc400" d="M423.2 360.4l7-24-19.6-15 24.6-.6 8-23.6 8.1 23.6 24.6.4-19.6 15.2 7.2 23.9-20.2-14.3z"/><path fill="#fff" d="M555.6 235.8v92c.2 45-45.7 84.4-76.1 92.1-30.5-7.6-76.3-47-76.2-92v-92h152.3z"/><path fill="#d40f0f" stroke="#000" stroke-width=".5" d="M403.4 235.7l.1 57.5s.8-1.1 10.8-.4 10.8 12.7 21.7 12.7c11 0 11-12.7 21.8-12.7s10.9 12.7 21.7 12.7 11-12.7 21.8-12.7 10.9 12.7 22.4 13.4c10.3-.7 10.3-13.4 21.1-14.1l10.9.7v-57z"/><path fill="#0062bb" d="M403.3 312v19h11c10 .8 10.8 12.8 21.7 12.8s10.8-12.8 21.7-12.8 11 12.8 21.8 12.8 10.9-12.8 21.7-12.8 10.3 12 21.8 12.8c10.3-.8 10.8-12 21.8-12.8h10.8v-19h-10.8c-11 0-11 12.7-21.8 12.7S512.1 312 501.2 312s-10.8 12.7-21.7 12.7-10.9-12.7-21.8-12.7-10.8 12.7-21.7 12.7-11-12.7-21.8-12.7zm3.3 38l7.6 19.1c10 .8 10.9 12.7 21.8 12.7 10.8 0 10.8-12.7 21.7-12.7s11 12.7 21.8 12.7 10.9-12.7 21.7-12.7 10.3 12 21.8 12.7c10.3-.7 10.6-12 21.5-12.7l7.8-19.3-7.5.3c-11 0-11 12.7-21.8 12.7S512.1 350 501.2 350s-10.8 12.7-21.7 12.7-10.9-12.7-21.8-12.7-10.8 12.7-21.7 12.7-11-12.7-21.8-12.7zm72.9 70c10.9 0 35.8-19.1 35.5-19.1.3 0-2.9-12.7-13.8-12.7s-10.8 12.7-21.7 12.7-10.9-12.7-21.8-12.7-13.6 12.7-13.7 12.7c-.5 0 24.6 19 35.5 19z"/><path fill="#fdc400" d="M520.3 242.2c-8-1.4-13.3 8-21.3 6-6.3-.6-13.6-3.2-19.3 1-3.4 3.7-.5 9.2 3.5 11 4.5 2.3 10 1.9 14.8 1.2 9.5-1.9 18.4-7.5 28.3-7 6.1 1.5 3.5 9.3-2.2 8.6-6 .7-12.2-.3-18.3.1h-39.7c-4-4.5 4.6-8.7 2.2-13.3-4.3-3.4-11.2-7.3-16.2-3-4.3-.2-9.6 4.9-4.2 7.8 2 6-7.4 7.7-7.9 13-5.2.2-9.5-6.3-9.8-11 .8-2.9 5.3-10.3.3-10.4-.2 2.5-3.2 4.7-3.2.8-1.8-5.8-5.4 3-4.6 3.3-2.3-1.6-5.8-2.6-2.9 1.2.8 3.3-1.3 8.1.8 10.3-.3 2.5 6.9 4.7 2.3 7.2 5.8.7 7.9 8.1 14.2 8 4.8 3 10 2.3 14.8.4-1.4 4.8-10.9 3.2-15.6 3.3-6.3.6-13-1-17.4-5.6-2.9-.2 2.5 4.5-2 4.6-2.2-.3-7.7 3-2.9 2.8 3.2-1.2 7.5 2.5 2.7 4.2 5.5 4.4 12-6.6 17.6 0 6.3.5 12.8-.4 19-1.1 4.8-2.4 12.1 2.5 13-5 .7-6 6.9-3.6 10.8-4.7 5.2-.8 10-3 15-3.9 5.8.2 5.8 8.6-.5 6.8-3.5-.3-11.6-3.5-12.2-.7 6 2.7-4.4 2-2 5.2 2.4-1.5 7.8.1 5 3.4 4.1 1.1 8.4-6.3 11.3-2 4.1-1.3 9.2-.9 12.9-1.4 5.5 2 8.4-3.8 6.8-8.3 3.9-4 11.4-3 16.3-1.6 5.6 1.7 4 7.6 0 9.9 1 1.7 6.7-1.5 4.8 3.3 2 2 7.7-4.9 9.4 1 2.7-2.4-2.8-6.6 1-8.8-1-3.2-6-5.7-3.6-9-4.5-4.4-11-1.3-16.4-1.4-5.8-2.6 3.8-4 6.1-3.9 7.2-.8 7.1-12-.2-12.3a31.1 31.1 0 00-19-.2 51 51 0 00-16.4 5.1c-4 2.4-12.7 1.8-11.8-4.6 4.5-4.4 11.6-.9 17.2-1.6 7.7 0 16.1-1 22.2-6 3.2-4.3-6.8 0-2.7-2.7zm-104.5 37.3zm18.2-30.1c1 .5-.2-1.2 0 0zm.4-.3h.1zm9.6 17c0 1.5-1 2.6 0 0zm5.1 4.4v.1zm5.6 1c1 .6-.8 1.3 0 0zm7.7 132.3l6.4-21.1-17.9-13.2 22.4-.5 7.2-20.8 7.4 20.7 22.3.4-17.7 13.3 6.4 21-18.3-12.4z"/><path fill="#003017" d="M465.4 398.1l5.3-16.7-14.8-10.5 18.6-.4 6-16.5 6.2 16.4 18.5.4-14.7 10.5 5.4 16.7-15.3-9.9z"/><path fill="#fdc400" d="M425.7 361.1l6.3-19.9-17.6-12.5 22-.5 7.2-19.7 7.3 19.7 22 .3-17.5 12.6 6.5 20-18.2-11.9z"/><path fill="#003017" d="M428.7 355.8l5.3-15.9-14.7-9.9 18.4-.4 6-15.6 6 15.6 18.4.3-14.6 10 5.4 15.8-15.2-9.4z"/><path fill="#fdc400" d="M499.6 361.1l6.4-20-17.8-12.4 22.3-.5 7.3-19.7 7.4 19.7 22.3.3-17.8 12.6 6.5 20-18.3-12z"/><path fill="#003017" d="M502.6 355.8l5.4-15.9-15-9.9 18.6-.4 6-15.6 6.3 15.6 18.6.3-14.8 10 5.4 15.8-15.3-9.4z"/></g><path fill="none" d="M373.3 372.6c8 34.5 41.9 60.1 87.5 66.2 58.6 7.8 114.5-21.9 124.8-66.3"/></svg>