<svg viewBox="0 0 640 480" xmlns="http://www.w3.org/2000/svg"><path d="m0 0h640v480h-640z" fill="#006"/><path d="m0 0h400v200h-400z" fill="#006" fill-rule="evenodd"/><g stroke-width="1pt"><path d="m0 0v27l334.4 215.3h42.1v-27l-334.4-215.3zm376.5 0v27l-334.4 215.4h-42.1v-27l334.4-215.4z" fill="#fff"/><path d="m156.9 0v242.3h62.7v-242.3h-62.6zm-156.9 80.8v80.7h376.5v-80.7z" fill="#fff"/><path d="m0 97v48.4h376.5v-48.5h-376.5zm169.4-97v242.3h37.7v-242.3zm-169.4 242.3 125.5-80.8h28l-125.3 80.8zm0-242.3 125.5 80.8h-28l-97.5-62.8zm223 80.8 125.3-80.8h28.1l-125.4 80.8zm153.5 161.5-125.5-80.8h28l97.5 62.7z" fill="#c00"/></g><g fill-rule="evenodd"><path d="m448.3 179.1c-1 .6-3 2.5-5 1.9s-6.6-8.6-11.6-7.4c-5 1.3-8.1 3.1-10.1 3.1s-7.6 1.8-7.6 6.7.5 8.6 1.5 8.6 2.5-3.1 2.5-3.1.5 6.1 4 6.1 11.2.6 11.7 2.5c.5 1.8-3.5 6-2.5 9.7s5.5 9.8 5.5 9.8-6.5 4.8-6.5 8 1 6 1 6l-29.3 1.2s-2 86.7-1 93.4l3.5 23.2s-6.6-2.2-12.1 3.3c-5.6 5.5-25 15-25.5 19.2-.5 4.3-2.3 8-.3 11s9.2 11.4 7.1 11c-6.8-1.1-9.3-10.8-13.9-14.3-4.5-3.5-13.3-2.8-14.4.9-1 3.7-.5 9.8 0 11s6.1 20.7 7.6 25 17.4 10.7 24.5 10c13.4.4 19.4-5.7 20-5.1.4.6 28.7 29.8 86.8 29.9 45.2 0 79.2-29.3 79.2-28.7s18.7 6.1 25.3 4.3c6.5-1.9 16.1-6.1 18.1-10.4s7.6-26.2 8.1-29.9 0-8-4.5-9.2-7-.9-9.6.3-3.3 4.6-7 10.7c-2.1 1.9-7.4 6.7-5.9 5.5s4.8-10.3 5.3-13.4c.5-3 2-8.5-1.5-11.6-3.5-3-9-4.3-15.1-8.8-6-4-10.6-10.7-14.2-10.7-3.5 0-7.5-1.8-7-1.8s4.5-9 3.5-18c-1-9.2.5-96.8 0-96.8s-25.2 1.9-25.2.6 2-9.7 0-15.2-10.7-9.2-8.1-10.4c2.5-1.2 13.6-4.3 13-9.1-.4-5-7.5-4.3-10.5-6.1-3-1.9-12.1-10.4-13.1-10.4s26.2-16.5 24.2-16.5-12.6-3-16.2-1.2c0-3 14.7-12.2 12.2-13.4-2.6-1.3-14.2-2.5-11.1-3 3-.7 4-8 3.5-8l-13.1 1.8s-3-4.3-4-4.3-5.6 2.5-5.6 2.5l-2.6-6.7-5.5 3.6-2.5-3s-4.6 1.2-4.6 0c.2 0-.5-3-1.2-3s-5.7 3.8-5.9 3.6-5.7-8-5.7-7.8l-4.1 14.7c-.2 0-4 .4-4.1.6-.2.3-20-11.4-19.8-11.2l5.1 11.2s-4.2 2.4-4.2 2.6l.7 5-13.2-4.5s5 10 4.6 10l-9.6.5 4.4 8.4-1.6 5s14.2 10 13.2 10.6zm84.3 212.4c1.3 1.8 8.1 10.4 7.1 10.4s-18 11.3-24.7 13.4a351 351 0 0 1 -27.8 5.8c1.3-.3 20-10.5 27.5-15.4a119 119 0 0 0 18-14.2zm-105.5-.3c-1 1.2-5.8 10.7-5.8 10.7s13.9 9.7 24.2 13.4c10.4 3.6 28 4.9 27 4.6s-22.1-9.8-28.2-14.7c-6-4.9-17-14-17.2-14z" fill="#fff"/><path d="m488.74 134.74c-2.33 1.77-4.08 8.88-7.72 5.26-1.2 3.36-3.69 5.97-7.28 6.29-1.76 1.45 2.62 3.94-.73 4.52-4.1-1.81-5.98-6.41-9.58-8.96-1.46-2.13-6.53-2.17-3.28.81 4.6 5.73 8.74 12.29 9.9 19.68-3.77-7.23-9.96-12.85-16.56-17.47-.08 3.17 6.44 7.93 2.63 9.73-4.76-2.69-9.76-4.98-15.02-6.51 3.14 4.31 8.07 6.81 11.41 10.91 2.54.63 3.98 6.16.03 3.43-5.14-1.68-10.39-2.99-15.67-4.16 7.29 4 14.49 8.4 20.37 14.35-4.18-1.93-8.06-4.92-12.8-5.27-2.61-2.53-3.6 2.41-.32 2.3 4.37 3.2 8.8 6.46 12.24 10.69 5.77-1.17 12.06 1.48 17.48-1.52 4.68-1.09 9.44 1.41 14.09.03 6.03-.18 10.42 6.53 16.64 4.78 4.81-1.74 7.15-7.15 12.13-8.61 4.14-2.17 8.56-3.83 12.52-6.35-2.32-3.07-6.31-1.05-9.17-.06-2.82 1.96-7.41-.9-3.12-3.18 2.73-1.94 4.65-4.71 7.18-6.91 2.37-2.34 4.76-4.67 7.18-6.96-10.84 4.49-20.98 10.79-29.49 18.89 5.82-9.98 14.82-17.47 22.47-25.96 1.32-.96 3.21-4.02.22-1.86-8.7 4.39-17.42 9.23-24.15 16.42-.64-5.19 4.65-8.08 6.5-12.34 4.07-.99 3.73-8.75-.9-4.89-1.32 1.37-5.93 5.55-6.01 2.18 1.25-1.6 1.03-6.45-1.36-2.96-1.95 1.17-3.89 7.12-5.25 3.84-1.69.41-5.18 1.11-2.46-1.53 2.53-1.52 4.29-5.87-.3-3.99-1.96-.44-3.03-2.96-1.83-4.61z" fill="#fec500"/><path d="m445.5 216.5c.2.9 5.9 16.4 14.7 16s12.3-3 11.9-3.2a18 18 0 0 1 -6.2-8.5 44 44 0 0 1 -2.5-8zm31.2-6s6.5 15.3 9.3 17.5c2.9 2.1 9.5 3.8 12.3 3.6 2.9-.2 6.3 0 6.3 0s-2.9-1.5-5.2-9.9l-3-11.2zm39.3 5.6s-1.2 11.2 0 14c1.3 2.8 7.5 8 7.5 8s7.5-1 7.7-8a36 36 0 0 0 -2.5-13.3l-12.7-.8z" fill="#00389b"/><path d="m432.45 177.5c-4.55 2.21-12.9 1.85-14.26 7.47 2.22 2.21 5.16 2.55 6.06 6.04 3.81 5 12.57-.4 14.77 6.2.92 5.36-6.19 10.13-1.03 15.26 4.44 6.48 13.23 7.29 20.24 5.39 4.47-.87 8.6-2.83 12.88-4.27 3.83-.24 7.54 1.57 11.46 1.47 9.73.74 19.54-.58 28.93-3.14 1.4 5.04 3.39 12 9.89 11.71 3.25.79 11.17 5.03 10.06-1.55-.48-6.27-5.66-10.53-8.8-15.5-.5-4.54 7.54-.84 8.81-5.4 1.44-.99 5.56-5.5 1.05-3.58-4.35 1.45-7.39-3.59-11.34-4.61-8.27-4.41-17.01-7.86-25.53-11.77-9.39-3.42-19.65-3.89-29.52-3.03-5.8.89-10.93 3.91-16.23 6.18-6.18 1.21-10.71-3.98-15.68-6.55l-.87-.25z" fill="#005120" stroke="#000" stroke-width=".51"/><path d="m388 359.2c2.6-2.5 6.6-8.7 12-9 5.5-.2 11.3 4.8 11.3 4.8s5.7 23.5 5.4 23.5c-.2 0-9.5 6.7-9.7 6.7-.3 0-4-9.2-7.5-8.3-3.5.8-3.2 13.4-3.8 12.6-.5-.9-15.2-18.2-14.6-18.8.5-.6 7.2-10.7 6.9-11.5zm151.9-3c1.7-.4 9.5-6.2 15-6 5.4.3 8.6 2.8 11.4 5.4 3 2.5 6.4 9 6.4 9s-7 19-7.5 19-3.5 1.6-4 .2-2.3-5.8-5.8-6.4c-3.4-.6-4.3 6.2-4.3 6.2l-11.2-27.6z" fill="#d40f0f"/><path d="m543.6 362c0 1.7 10.7 28 27.9 33 17.3 5.1 22.7-4.7 24.7-8 2-3.4 9.2-3.1 9.2-3.1s-1.7 24.6-4.6 27.7c-2.8 3-5.1 9.8-21.2 10-16.1.3-30.8-15-35.7-19.5a91.6 91.6 0 0 1 -13.8-21.6c-2.6-5.3 13.8-18 13.5-18.5zm-187.6 52.4c.3 0 7.8 8.1 18.8 7.3 10.9-.9 29.6-7.3 38.2-18.5a96 96 0 0 0 13-23.3s-12.7-22.4-13-22.4-1.4 7.3-3.7 12c-2.3 4.8-8.7 18.3-19.3 22.5s-10.6 5.9-15 5.3a59.3 59.3 0 0 1 -15.5-7.6l-5.5 13.3s-1.1 8.7 2 11.5z" fill="#fddc59"/><path d="m387.8 358.4c-.8 0-21.2 11.1-20.4 15.9.9 4.7 35 72 108.2 72.9 73.3.8 118-61 114.8-71.3-3.3-10.3-26-22.2-26-22.2s5.6 4.7 4.8 11c-.8 6.4-26 61-89.5 59.5-63.4-1.6-93.5-50-93.5-55.5s3.2-8.7 1.6-10.3z" fill="#fddc59"/><path d="m586.2 407.4c1.7-1.4 12.3-30.5 18.4-29.7 6 .8 4 9.5 3.4 11.8-.5 2.2-6.6 22.4-6.6 22.4s.3-4.8-3.7-6-10.7 2-11.5 1.5zm-230.2 7.3c0-1.6-4.8-7.2.9-8.7 5.7-1.6 13 1.5 13 1.5s-4-11.8-9-21.4c-4.9-9.5-6.5-7.9-10.6-6.3-4 1.6-4 5.8-1.5 12.1 2.5 6.4 7.2 24.4 7.2 22.8z" fill="#d40f0f"/><path d="m423.2 360.4 7-24-19.6-15 24.6-.6 8-23.6 8.1 23.6 24.6.4-19.6 15.2 7.2 23.9-20.2-14.3z" fill="#fdc400"/><path d="m555.6 235.8v92c.2 45-45.7 84.4-76.1 92.1-30.5-7.6-76.3-47-76.2-92v-92h152.3z" fill="#fff"/><path d="m403.4 235.71.12 57.53s.74-1.18 10.75-.47 10.87 12.71 21.77 12.71c10.87 0 10.87-12.71 21.74-12.71s10.9 12.71 21.77 12.71 10.87-12.71 21.77-12.71 10.87 12.71 22.35 13.43c10.29-.72 10.29-13.43 21.18-14.14l10.84.72v-57.07z" fill="#d40f0f" stroke="#000" stroke-width=".5"/><path d="m403.3 312v19h11c10 .8 10.8 12.8 21.7 12.8s10.8-12.8 21.7-12.8 11 12.8 21.8 12.8 10.9-12.8 21.7-12.8 10.3 12 21.8 12.8c10.3-.8 10.8-12 21.8-12.8h10.8v-19h-10.8c-11 0-11 12.7-21.8 12.7s-10.9-12.7-21.8-12.7-10.8 12.7-21.7 12.7-10.9-12.7-21.8-12.7-10.8 12.7-21.7 12.7-11-12.7-21.8-12.7zm3.3 38 7.6 19.1c10 .8 10.9 12.7 21.8 12.7 10.8 0 10.8-12.7 21.7-12.7s11 12.7 21.8 12.7 10.9-12.7 21.7-12.7 10.3 12 21.8 12.7c10.3-.7 10.6-12 21.5-12.7l7.8-19.3-7.5.3c-11 0-11 12.7-21.8 12.7s-10.9-12.8-21.8-12.8-10.8 12.7-21.7 12.7-10.9-12.7-21.8-12.7-10.8 12.7-21.7 12.7-11-12.7-21.8-12.7zm72.9 70c10.9 0 35.8-19.1 35.5-19.1.3 0-2.9-12.7-13.8-12.7s-10.8 12.7-21.7 12.7-10.9-12.7-21.8-12.7-13.6 12.7-13.7 12.7c-.5 0 24.6 19 35.5 19z" fill="#0062bb"/><path d="m520.31 242.22c-7.92-1.42-13.32 8.07-21.3 6.02-6.33-.67-13.62-3.24-19.28 1-3.44 3.66-.48 9.17 3.49 10.97 4.51 2.3 9.91 1.87 14.76 1.18 9.54-1.86 18.41-7.47 28.34-6.94 6.12 1.44 3.47 9.22-2.23 8.55-6.07.65-12.19-.26-18.28.11-13.23.03-26.45-.05-39.68-.01-4.04-4.53 4.57-8.67 2.17-13.3-4.33-3.45-11.19-7.35-16.22-2.92-4.3-.33-9.55 4.8-4.19 7.76 2.09 5.94-7.38 7.69-7.87 12.96-5.17.16-9.51-6.34-9.83-11.07.8-2.83 5.35-10.2.3-10.38-.22 2.55-3.16 4.72-3.19.81-1.78-5.79-5.37 3.12-4.63 3.36-2.25-1.62-5.81-2.62-2.87 1.17.8 3.34-1.31 8.11.83 10.26-.37 2.58 6.85 4.72 2.28 7.23 5.78.76 7.86 8.15 14.15 8.02 4.8 3.01 10.05 2.34 14.84.43-1.43 4.76-10.87 3.21-15.55 3.31-6.38.57-12.97-.98-17.49-5.65-2.86-.22 2.57 4.47-2 4.56-2.15-.23-7.67 3.12-2.85 2.84 3.24-1.19 7.46 2.53 2.65 4.24 5.55 4.36 12.09-6.62 17.68-.1 6.29.55 12.77-.37 19.05-1.06 4.76-2.41 12.01 2.57 12.89-5.01.69-5.93 6.91-3.57 10.87-4.66 5.12-.82 9.96-2.92 15.01-3.89 5.74.22 5.72 8.63-.56 6.75-3.52-.24-11.62-3.48-12.2-.69 6.03 2.7-4.35 2.12-1.95 5.26 2.31-1.56 7.77.11 4.89 3.33 4.21 1.15 8.46-6.23 11.36-1.96 4.1-1.3 9.19-.9 12.9-1.37 5.47 1.96 8.39-3.83 6.8-8.33 3.87-4.05 11.38-3.04 16.34-1.6 5.53 1.69 3.96 7.62-.06 9.87.95 1.68 6.7-1.5 4.79 3.3 1.99 1.96 7.77-4.87 9.46 1.05 2.68-2.38-2.83-6.62 1.03-8.8-1.04-3.18-6.07-5.7-3.69-8.98-4.47-4.43-10.94-1.38-16.36-1.45-5.77-2.58 3.76-4.07 6.14-3.86 7.17-.8 7.1-12-.27-12.37-6.23-1.85-12.82-2.33-19.02-.21-5.73.72-11.16 2.6-16.31 5.16-4.14 2.38-12.79 1.75-11.84-4.58 4.51-4.43 11.57-.93 17.17-1.59 7.68-.07 16.12-1.1 22.22-6.13 3.2-4.22-6.82.16-2.69-2.61zm-104.48 37.3.05-.03zm18.21-30.15c.91.57-.24-1.19 0 0zm.38-.23.11-.05zm9.59 16.93c-.07 1.56-1.1 2.61 0 0zm5.1 4.44-.02.13zm5.56 1.05c1.09.51-.79 1.26 0 0z" fill="#fdc400"/><path d="m462.4 403.8 6.4-21.1-17.9-13.2 22.4-.5 7.2-20.8 7.4 20.7 22.3.4-17.7 13.3 6.4 21-18.3-12.4z" fill="#fdc400"/><path d="m465.4 398.1 5.3-16.7-14.8-10.5 18.6-.4 6-16.5 6.2 16.4 18.5.4-14.7 10.5 5.4 16.7-15.3-9.9z" fill="#003017"/><path d="m425.7 361.1 6.3-19.9-17.6-12.5 22-.5 7.2-19.7 7.3 19.7 22 .3-17.5 12.6 6.5 20-18.2-11.9z" fill="#fdc400"/><path d="m428.7 355.8 5.3-15.9-14.7-9.9 18.4-.4 6-15.6 6 15.6 18.4.3-14.6 10 5.4 15.8-15.2-9.4z" fill="#003017"/><path d="m499.6 361.1 6.4-20-17.8-12.4 22.3-.5 7.3-19.7 7.4 19.7 22.3.3-17.8 12.6 6.5 20-18.3-12z" fill="#fdc400"/><path d="m502.6 355.8 5.4-15.9-15-9.9 18.6-.4 6-15.6 6.3 15.6 18.6.3-14.8 10 5.4 15.8-15.3-9.4z" fill="#003017"/></g><path d="m373.3 372.6c8 34.5 41.9 60.1 87.5 66.2 58.6 7.8 114.5-21.9 124.8-66.3" fill="none"/></svg>