<svg xmlns="http://www.w3.org/2000/svg" viewBox="0 0 640 480"><path fill="#006" d="M0 0h640v480H0z"/><path fill="#006" fill-rule="evenodd" d="M0 0h400v200H0z"/><g stroke-width="1pt"><path fill="#fff" d="M0 0v27l334 215h42v-27L43 0zm377 0v27L42 242H0v-27L334 0z"/><path fill="#fff" d="M157 0v242h63V0h-63zM0 81v81h377V81z"/><path fill="#c00" d="M0 97v48h377V97H0zM169 0v242h38V0zM0 242l126-80h28L28 242zM0 0l126 81H98L0 18zm223 81L348 0h28L251 81zm154 161l-126-80h28l98 62z"/></g><g fill-rule="evenodd"><path fill="#fff" d="M448 179c-1 1-3 3-5 2s-6-9-11-7l-10 3c-2 0-8 1-8 6l1 9 3-3s0 6 4 6 11 1 12 2c0 2-4 6-3 10s6 10 6 10-7 5-7 8l1 6-29 1s-2 87-1 94l3 23s-6-2-12 3c-5 6-25 15-25 19-1 5-3 8-1 11s10 12 8 11c-7-1-10-11-14-14-5-4-14-3-15 1v11l8 25c2 4 17 11 24 10 14 0 20-6 20-5 1 0 29 30 87 30 45 0 79-30 79-29s19 6 26 4c6-2 16-6 18-10l8-30c1-4 0-8-5-9s-7-1-9 0-4 5-7 11l-6 5c2-1 5-10 5-13 1-3 2-9-1-12-4-3-9-4-15-9-6-4-11-10-15-10l-7-2s5-9 4-18v-97l-25 1c0-1 2-10 0-15s-11-10-8-11c2-1 13-4 13-9-1-5-8-4-11-6l-13-10c-1 0 26-17 24-17s-12-3-16-1c0-3 15-12 12-14-2-1-14-2-11-3 3 0 4-8 4-8l-14 2-4-4-5 2-3-6-5 3-3-3s-4 2-4 0l-2-3-5 4-6-8-4 15h-4c-1 1-20-11-20-11l5 11-4 3v5l-13-4 5 10h-10l5 8-2 5s14 10 13 11zm85 213l7 10c-1 0-18 11-25 13a351 351 0 01-28 6l28-15a119 119 0 0018-15zm-106-1l-6 11s14 10 25 13c10 4 28 5 27 5s-23-10-29-15l-17-14z"/><path fill="#fec500" d="M489 135c-3 1-4 9-8 5-1 3-4 6-7 6-2 2 2 4-1 5-4-2-6-7-10-9-1-2-6-2-3 1a43 43 0 0110 19 51 51 0 00-17-17c0 3 7 8 3 10a71 71 0 00-15-7l11 11c3 1 4 6 0 3a166 166 0 00-15-4c7 4 14 9 20 15-4-2-8-5-13-6-2-2-3 3 0 3 4 3 9 6 12 10 6-1 12 2 18-1h14c6 0 10 6 17 5 4-2 7-7 12-9l12-6c-2-3-6-1-9 0-3 2-7-1-3-4l7-6 7-7a96 96 0 00-29 19c6-10 15-18 22-26 2-1 3-4 0-2a84 84 0 00-24 16c0-5 5-8 7-12 4-1 4-9-1-5-1 1-6 5-6 2 1-2 1-7-1-3-2 1-4 7-6 4-1 0-5 1-2-2 2-1 4-6 0-4-2 0-3-3-2-4z"/><path fill="#00389b" d="M446 217s5 16 14 16 12-3 12-4a18 18 0 01-6-8 44 44 0 01-3-8zm31-6s6 15 9 17l12 4h7s-3-2-6-10l-3-12zm39 5s-1 11 0 14 8 8 8 8 7-1 7-8a36 36 0 00-2-13l-13-1z"/><path fill="#005120" stroke="#000" stroke-width=".5" d="M432 178c-4 2-12 1-14 7 2 2 5 3 6 6 4 5 13 0 15 6 1 6-6 10-1 15 4 7 13 8 20 6l13-4c4-1 8 1 12 1 9 1 19-1 28-3 2 5 4 12 10 12 4 0 12 5 10-2 0-6-5-11-8-15-1-5 7-1 9-6 1-1 5-5 1-3-5 1-8-4-12-5l-25-12a69 69 0 00-30-3c-6 1-11 4-16 6-6 2-11-4-16-6h-1z"/><path fill="#d40f0f" d="M388 359c3-2 7-9 12-9 6 0 11 5 11 5l6 24-10 6s-4-9-7-8c-4 1-4 13-4 12l-15-18 7-12zm152-3c2 0 9-6 15-6 5 0 8 3 11 6 3 2 7 9 7 9l-8 19h-4c-1-1-2-6-6-7-3 0-4 7-4 7l-11-28z"/><path fill="#fddc59" d="M544 362c0 2 10 28 28 33 17 5 22-5 24-8s9-3 9-3-1 24-4 28c-3 3-5 9-21 10-16 0-31-15-36-20a92 92 0 01-14-22c-2-5 14-18 14-18zm-188 52s8 8 19 8c11-1 29-8 38-19a96 96 0 0013-23l-13-23c0 1-1 8-4 13-2 4-8 18-19 22s-11 6-15 5a59 59 0 01-15-7l-6 13s-1 9 2 12z"/><path fill="#fddc59" d="M388 358c-1 0-21 11-21 16 1 5 35 72 109 73 73 1 118-61 114-71-3-10-26-22-26-22s6 4 5 11c-1 6-26 61-89 59-64-1-94-50-94-55s3-9 2-11z"/><path fill="#d40f0f" d="M586 407c2-1 13-30 19-29 6 0 4 9 3 11l-7 23s1-5-3-6-11 2-12 1zm-230 8c0-2-5-8 1-9 6-2 13 2 13 2l-9-22c-5-9-7-8-11-6-4 1-4 6-1 12l7 23z"/><path fill="#fdc400" d="M423 360l7-24-19-15h24l8-24 8 24h25l-20 15 8 24-21-14z"/><path fill="#fff" d="M556 236v92c0 45-46 84-76 92-31-8-77-47-77-92v-92h153z"/><path fill="#d40f0f" stroke="#000" stroke-width=".5" d="M403 236v57s1-1 11 0 11 13 22 13 11-13 22-13 11 13 22 13 11-13 21-13 11 13 23 13c10-1 10-13 21-14l11 1v-57z"/><path fill="#0062bb" d="M403 312v19h11c10 1 11 13 22 13s11-13 22-13 11 13 21 13 11-13 22-13 10 12 22 13c10-1 11-12 22-13h11v-19h-11c-11 0-11 13-22 13s-11-13-22-13-11 13-22 13-10-13-21-13-11 13-22 13-11-13-22-13zm4 38l7 19c10 1 11 13 22 13s11-13 22-13 11 13 22 13 10-13 21-13 11 12 22 13c10-1 11-12 22-13l7-19h-7c-11 0-11 13-22 13s-11-13-22-13-11 13-22 13-10-13-21-13-11 13-22 13-11-13-22-13zm73 70c10 0 35-19 35-19s-3-13-14-13-11 13-22 13-10-13-21-13-14 13-14 13 25 19 36 19z"/><path fill="#fdc400" d="M520 242c-8-1-13 8-21 6-6 0-14-3-19 1-4 4-1 9 3 11 5 2 10 2 15 1 9-2 18-7 28-7 6 2 4 10-2 9h-58c-4-4 5-9 2-13-4-4-11-7-16-3-4 0-10 5-4 8 2 6-8 7-8 13-5 0-10-7-10-11 1-3 5-11 0-11 0 3-3 5-3 1-2-6-5 3-4 3-3-1-6-2-3 2 1 3-2 8 1 10-1 2 6 5 2 7 6 1 8 8 14 8 5 3 10 2 15 0-2 5-11 4-16 4-6 0-13-1-17-6-3 0 2 5-2 5-2-1-8 3-3 2 3-1 8 3 3 5 5 4 12-7 17 0l19-1c5-3 12 2 13-5 1-6 7-4 11-5l15-4c6 0 6 9 0 7-4 0-12-4-13-1 6 3-4 2-2 5 3-1 8 0 5 4 5 1 9-7 12-2 4-2 9-1 13-2 5 2 8-3 6-8 4-4 12-3 17-2 5 2 4 8 0 10 1 2 6-1 4 4 2 2 8-5 10 1 3-3-3-7 1-9-1-3-6-6-4-9-4-5-11-2-16-2-6-2 4-4 6-4 7 0 7-11 0-12a31 31 0 00-19 0 51 51 0 00-17 5c-4 3-12 2-11-4 4-5 11-1 17-2 7 0 16-1 22-6 3-4-7 0-3-3zm-104 37zm18-30c1 1 0-1 0 0zm0 0zm10 17c0 2-1 3 0 0zm5 5zm6 1c1 0-1 1 0 0zm7 132l7-21-18-14h22l7-21 8 21h22l-18 14 7 21-18-13z"/><path fill="#003017" d="M465 398l6-17-15-10h18l7-17 6 16 18 1-15 10 6 17-15-10z"/><path fill="#fdc400" d="M426 361l6-20-18-12 22-1 8-19 7 19 22 1-18 12 7 20-18-12z"/><path fill="#003017" d="M429 356l5-16-15-10h19l6-16 6 16h18l-15 10 6 16-15-10z"/><path fill="#fdc400" d="M500 361l6-20-18-12 22-1 8-19 7 19 22 1-17 12 6 20-18-12z"/><path fill="#003017" d="M503 356l5-16-15-10h19l6-16 6 16h18l-14 10 5 16-15-10z"/></g><path fill="none" d="M373 373c8 34 42 60 88 66 58 8 114-22 125-66"/></svg>