<svg xmlns="http://www.w3.org/2000/svg" fill-rule="evenodd" viewBox="0 0 640 480"><path fill="#6fdcff" d="M0 0h640v480H0z"/><g fill="#ffe400"><path d="M60 467c12 26 42-16 11-18-17-8 7-33 8-15-24 0 17 5-2 15 23 0 0-46-16-20-13 14 39 37 8 40-9-5-9-22-14-2-22 11-16-14-3-21 20-13-10-35-20-16-6 13 12 28 5 8 12 0 11-6 1-6 13-16 23 15 3 19-24 14 6 36 19 16zm-1-124c10-27 50-1 26 20-5 15-33 45-13 55 21-4-14-9 8-11 5-4-8-17 6-7 14 26-37 30-25 3l26-58c-3-22-33 4-16 6-19 2 4 10-12 16-4 0-9-10-4-13-24-3 15-11-10-17-22-5-12 17-6 27l20 45c-2 29-44 4-23-12 6 1-5 16 11 12-5 3-15 6-2 9 22-18-15-46-18-68-9-20 27-25 32-7zm0-24c10 28 51 1 26-20-5-14-33-45-13-54 15 5 3 4-1 9 14-1 8 7 8 13 24-11-11-43-20-16 4 18 15 35 22 53 12 12 1 33-15 17-3-10 16-7-5-13 12-7-7-19-9-4 14 7-21 9 0 12 3 17-36 9-18-9 5-20 36-47 18-66-22-13-27 32-13 23-12-12 21-11-1-14 17-17 19 20 6 28-9 16-35 56 3 52 5-1 10-5 12-11zm0-158c10-28 51-1 26 20-5 15-33 45-14 54 21-3-13-8 9-10 5-4-8-18 6-8 14 25-36 30-25 4l26-58c3-22-39 2-14 3-11 5-9 27-21 13 15-9-21-13 2-14-5-25-35-3-17 13l22 48c0 28-43 7-24-11 11-3-7 16 11 11 4 4-18 5-1 9 24-21-25-52-18-79 7-12 28-8 32 5zm0-24c10 28 51 1 26-20-4-15-33-46-13-54 21 3-14 8 8 10 5 4-8 17 6 7 14-26-37-30-25-3l26 58c-4 21-33-4-16-6-17-3 3-10-12-17-13 8 2 16-15 19 29 8-29 20-10-5l25-55c-2-29-44-4-23 12 6-1-5-16 11-12-5-3-15-5-2-9 22 17-15 46-18 69-9 20 28 25 32 6zm1-124c12-25 42 17 11 18-17 8 7 34 8 16-22-1 17-5-2-16 23 0 0 46-16 20-12-13 39-37 8-40-9 5-9 22-14 2-22-11-16 14-3 21 20 12-10 35-20 16-6-13 11-28 5-8 13 0 11 6 1 6 13 16 23-15 3-19-24-15 6-36 19-16z"/><rect width="181.6" height="172.1" x="260" y="120" rx="90.8" ry="86.1"/><path d="M346 69c-2 12-15 48 7 42 7-14-5-27-7-41v-1zm8 277c2-12 19-48-4-43-8 13 2 27 3 41l1 1zM209 205c12 2 48 19 44-3-14-6-28 3-42 3h-1zm290 4c-13-2-49-18-44 5 14 6 27-4 42-5h1zm-260-94c9 9 27 43 38 23-7-14-24-14-36-22l-1-1zm226 182c-10-7-31-42-40-20 8 13 25 12 38 19l1 1zM284 84c5 11 8 50 26 35-1-16-18-23-26-35zm132 248c-4-12-4-50-23-37 0 15 15 22 22 35l1 1zm32-229c-10 8-45 24-25 35 14-6 17-23 25-35zM253 310c10-8 47-21 28-34-15 5-18 22-28 33zm-38-154c12 5 38 32 44 11-9-11-25-6-38-10l-6-1zm271 105c-11-7-35-35-43-14 9 12 25 7 38 13l5 1zM400 76c-6 10-30 38-7 36 9-9 3-24 7-36zM300 337c6-11 36-36 13-42-12 10-9 28-13 42zm-83-74c12-4 51-2 40-22-15-1-24 13-36 19l-4 3zm269-110c-12 4-52 0-40 20 16 1 26-13 39-20zM376 70c-4 12-26 43-2 43 9-12 1-27 2-41v-2zm-52 273c5-11 29-42 5-43-9 12-2 28-5 42zM314 73c2 12-4 50 17 40 2-15-12-25-16-39zm72 269c-1-12 8-50-14-41-4 14 9 26 13 39l1 2zM262 97c8 10 16 47 32 31-2-15-19-19-29-29l-3-2zm176 222c-6-11-12-48-29-33 3 15 19 21 28 32l1 1zM225 133c11 7 33 40 40 18-8-13-25-11-38-17l-1-1zm250 149c-10-8-30-41-40-20 8 13 25 11 38 19l1 1zM208 177c12 5 45 28 45 4-13-8-29-1-43-3 0-1-3 1-2-1zm285 62c-12-4-41-30-44-7 10 11 26 4 39 7h5zm-286-7c13 0 54 8 41-13-14-1-27 10-41 13zm288-48c-13 1-50-12-43 10 14 5 27-7 41-9l1-1zM233 289c11-6 50-13 33-29-15 3-22 20-33 29zm238-162c-11 5-52 10-35 27 15-2 23-18 35-27zM278 327c7-10 40-31 18-39-13 8-11 25-18 38zM427 88c-8 9-43 30-21 38 14-7 14-25 21-38zM212 263c4 45 42 81 84 93 11 3 54 13 22 13-25-9-55-10-73-33-7-3-129-147-34-43-23 9-29-36-27-41-3 11 21 42 10 15-11-14 1-73 0-17l10 24c0 1 1-52 8-11zm-23 28c-6-5-22-29-12-8 10 6 15 33 0 15-21-17 19 23-4 8 8 12 3 6 4 11 5 21 29 27 41 45 14 1 34 30 49 18-22-12-46-21-63-40-16-10-19-25-17-24 0-9 9 4 6-12 4-9 9-3-4-13zm107 109c-1-15 40-14 14-4l-14 4zm29-12c12-27 47-27 69-41 36-18 69-42 94-72 6-9 18-46 15-17 1 29 30-18 31-31 15-29 7 15-3 24-11 12-8 20 7 7 8-13 33-51 11-2 0 11-19 13-21 24 23 21 64-55 25 7l-22 11c7 2 42-11 18 2-11 1-46 20-17 14 10-5 38-10 14 2-13 1-39 14-12 10 8 1-40 11-13 6 38-4-47 17-12 11 18-5 12 0 0 2l-41 13c13-2 48-12 46-8-9 1-21 6-5 5-12 5-47 10-45 14 21-6 20 6 2 8-10 6-56 16-29 4 14-2 26-8 6-7-7-4 13-5-2-9 17-12 33-17 55-26-20 4-14-1 1-6 9-6-15 2 3-7 21-7-11-1 6-13 16-11 1-6 5-10 29-24-31-10-39 2-21 17-39 39-66 45-27 12-52 29-81 38zm-37 16c-15 15 20 0 29 4 9 0 46-2 37-7l-66 3z"/><path d="M312 398c18 10-15 7 0 0zm97-3l60 10c-6 11-21 1-25 9-8 3-36 12-54 11-19 1-38-1-56-1-17-18 30-13 42-19l33-10z"/></g></svg>