<svg xmlns="http://www.w3.org/2000/svg" fill-rule="evenodd" viewBox="0 0 640 480"><path fill="#6fdcff" d="M0 0h640v480H0z"/><g fill="#ffe400"><path d="M60 467c10 24 42-11 14-16-18-7-4-36 7-18-3 3-16-2-8 5 11-2 12 6 4 11 15 2 7-11 7-22-9-14-34 3-22 17 10 4 30 29 7 25-9-2-9-23-11-7-5 15-30 6-16-6l16-16c9-23-36-23-25 1-6 9 13 11 4 2-8-11 20-1 7-11-10 7-7-9 4-4 20 12-18 24-16 38 4 12 23 12 28 1zm-1-124c4-20 44-11 31 9-8 20-22 38-26 59-1 16 29-2 10 2-12-10 17 0 6-13-9-8 12-3 5 5 11 24-35 22-25-1l27-59c1-22-40 4-14 3 2 5-19 3-9 11 9 0-8 6-5 9-4-8-12-6-3-13-2-4-20-5-6-7 16-7-24-21-19-1l28 62c2 20-36 17-26-4-6-9 13-12 4-3-7 11 19 2 7 11-11-6-5 10 5 4 13-8-4-25-7-36-6-12-13-24-17-36 2-18 29-17 34-2zm0-24c4 21 44 12 31-9-8-19-22-37-26-58-1-17 29 2 10-2-12 10 17 0 6 12-9 9 12 3 5-4 11-24-35-22-25 0l27 59c1 23-40-3-14-3 2-5-19-2-9-11 9 1-8-5-5-8-4 8-12 6-3 12-2 5-20 6-6 8 16 6-24 21-19 0 9-20 20-40 28-61 2-22-37-16-26 6-5 8 14 9 4 1-7-12 19-2 7-11-11 6-5-10 5-4 13 8-4 25-7 36-6 12-13 23-17 36 2 18 29 17 34 1zm0-158c4-21 44-12 31 9-8 20-22 37-26 58-1 17 28-2 10 3-12-10 17-1 6-13-9-9 12-3 5 4 11 24-35 22-25 0l27-59c1-23-40 3-14 3-7 4-13 9-7 12-4 1-9 14-10 1-15 1 10-6-5-10-12-2-4-3 3-4 1-18-32-14-21 5l26 56c2 22-37 16-26-6-5-7 14-9 4 0-7 11 20 1 7 11-11-7-5 9 5 3 13-8-4-25-7-36-6-12-13-23-17-36 2-18 29-17 34-1zm0-24c4 21 44 11 31-9-8-20-22-38-26-59-1-16 29 3 10-2-12 10 17 0 6 13-9 8 12 3 5-5 11-24-35-22-25 1l27 59c1 22-40-4-14-3 2-5-19-4-8-11 7 0-8-6-6-9-4 8-12 6-3 13-2 4-21 5-6 7 16 6-24 21-19 1l28-62c2-20-36-17-26 4-6 9 13 12 4 3-7-11 19-2 7-11-11 7-5-10 5-4 13 8-4 25-7 36-6 12-13 24-17 36 2 18 29 18 34 2zm1-124c10-24 42 12 14 16-18 7-4 37 7 19-3-4-16 1-8-5 11 2 12-7 4-12 15-2 7 11 7 22-9 14-34-3-22-16 10-5 30-30 7-26-9 2-9 23-11 7-5-15-30-6-16 6l16 16c9 22-36 23-25-1-6-9 13-11 4-2-7 11 20 1 7 11-10-7-7 9 4 4 20-12-18-24-16-39 4-11 23-11 28 0z"/><rect width="181.6" height="172.1" x="260" y="120" rx="90.8" ry="86.1"/><path d="M346 69c0 13-11 28-3 41 13 12 16-13 9-21l-6-21zm8 277c1-14 13-28 6-42-12-12-17 12-11 20l5 22zM209 205c15 1 29 13 43 6 13-11-13-15-21-9l-22 3zm290 4c-15-1-30-12-44-5-12 13 14 15 22 9l22-4zm-260-94c11 9 15 27 31 30 17-1 0-21-11-20zm226 182c-12-8-18-25-33-28-18 3 2 21 12 20l21 8zM284 84c7 12 3 30 16 39 17 5 8-19-1-23l-15-16zm132 248c-6-13-1-31-13-40-17-7-10 18 0 22l13 18zm32-229c-10 10-28 13-32 28 1 18 20 0 22-10zM253 310c11-10 29-11 34-26 0-18-20-3-22 7l-12 18zm-38-154c14 5 23 21 39 19 16-5-4-19-13-15zm271 105c-13-7-21-23-37-22-16 4 2 19 12 16l25 6zM400 76c-4 12-28 28-12 38 16-3 7-25 12-36v-1zM300 337c6-13 22-21 22-36-7-17-20 4-18 14l-4 22zm-83-74c14-5 31-1 42-12 7-16-16-10-21-2l-21 14zm269-110c-14 5-31-1-42 10-8 16 18 10 23 2zM376 70c-3 14-17 26-12 40 10 15 18-9 13-18l-1-22zm-52 273c4-13 19-24 15-39-9-15-19 8-14 18l-1 21zM314 73c3 14-4 30 6 41 16 9 13-16 4-22l-10-19zm72 269c-2-14 6-30-3-42-15-10-14 15-6 22l9 20zM262 97c9 11 9 29 23 36 17 3 7-18-3-21zm176 222c-8-12-6-30-20-37-18-4-6 18 4 22zM225 133c12 7 19 24 34 26 18-4-3-21-13-19l-21-7zm250 149c-12-9-18-26-33-28-18 3 1 20 12 19l21 9zM208 177c14 4 26 18 42 14 15-10-11-18-20-13h-22zm285 62c-14-4-24-19-40-16-15 7 6 19 15 15l25 1zm-286-7c15-2 32 7 45-4 5-15-18-9-26-3zm288-48c-14 2-30-8-43 0-12 14 15 14 22 7zM233 289c12-8 31-7 38-20 3-18-20-5-23 4l-15 16zm238-162c-13 7-31 5-40 18-4 18 20 6 24-3l16-15zM278 327c7-12 25-18 26-33-5-17-20 2-19 13l-7 20zM427 88c-9 12-26 16-29 32 4 17 21-2 21-12l8-20zM212 263c4 43 38 79 79 91 13 7 29 6 42 13-20 8-38-10-57-9-15-4-24-17-35-26a133 133 0 01-30-39c-22 8-24-25-29-39 2-15 3 14 9 18 2 6 11 12 5 1-5-15-11-33-3-48a73 73 0 0011 49c6 1-7-24 6-24l2 13zm-23 28c-6-2-15-25-16-16 4 10 18 20 13 31-4-5-24-22-13-8 7 5 13 19 1 8-6-1 15 18 1 7l8 18c-2 0 15 10 19 16a90 90 0 0034 25c8 5 29 18 31 8-15-12-37-13-50-30-11-10-25-17-27-24-10-6 5-3 0-4-4-2-7-8 0-3-5-3-4-13 2-4 1-7-1-18 6-16-2-4-7-5-9-8zm107 109c-5-10 29-13 24-12-4 9-16 8-24 12zm29-12c8-21 33-25 51-33 40-16 75-41 105-71 11-10 17-32 22-40 5 8-9 35 8 22s19-36 31-52c5 11-9 32-16 45-14 15 15 1 17-8 3-4 13-28 15-17a65 65 0 01-25 39c-17 17 19 11 25 1 6-5 14-24 10-6a53 53 0 01-37 30c-1 6 22-8 29-4-10 9-41 12-41 22 12 3 34-13 38-8-7 12-35 9-37 19 6 0 29-3 10 2-7 0-30 8-12 4 7-2 25-2 8 2-7 3-31 8-27 10 6-1 25-7 24-4l-55 17c17-2 33-9 50-9-8 1-31 8-10 5 6 2-16 5-21 7-8 3-20 3-26 9 7-4 34-3 14 4-15 5-38 14-50 13 7-8 29-7 31-13-6 3-26-1-9-5 3-2-15-2-1-6 8-2 14-8 10-9 13-7 29-6 40-15-8 2-25 3-8-2 7-2 20-11 5-5-4-3 30-14 8-10-6-6 26-19 8-17 4-6 23-17 5-15-23 0-42 13-58 29-14 13-30 26-50 31-27 12-52 29-81 38zm-37 16c-10 2-3 14 3 5 23-1 46 0 68-6-4-4-22 0-32-1-12 1-26 0-38 2z"/><path d="M312 398c17 10-15 6 0 0zm97-3a675 675 0 0060 10c-1 7-10 6-15 5-4-2-9-1-5 3-2 2-9-1-9 1 2 2 5 2 1 1-8 0-15 6-22 8-6-2-11 1-17 1-8-1-16 2-25 1l-29-1c-6 0-13 1-19-2-4-5 3-12 9-11 15-2 32-2 47-9l24-7z"/></g></svg>