<svg xmlns="http://www.w3.org/2000/svg" fill-rule="evenodd" viewBox="0 0 640 480"><path fill="#6fdcff" d="M0 0h640v480H0z"/><g fill="#ffe400"><path d="M60.2 467c10.1 24.2 41.8-11.5 13.6-16.4-17.8-6.7-4-36.1 7.4-18.1-3.1 3.4-16.4-1.5-7.8 5 10.8-2 11.7 6.6 3.8 11.8 14.7 1.4 6.4-11.2 6.3-21.9-9-14.1-33.5 2.8-21.2 16.2 9.5 4.8 29.3 29.3 6.7 25-9-1.4-8.9-22.2-11-6.7-4.8 14.8-30 6-16.1-5.5l16-16.3c8.8-22.7-36.3-22.7-25 1.2-5.5 8.5 13.4 10.8 4 1.7-7.4-11.1 19.6-1.4 7-11-10 7.3-6.5-8.8 3.8-4.5 20.6 12-17.5 24.4-15.6 38.9 4.3 11.3 23.2 11.3 28.1.6zm-1.1-123.7c4.3-20.8 43.5-11.4 31.3 9-8.3 19.8-22 37.6-26.7 58.7-.5 16.3 28.9-2.4 9.8 2.2-11.7-10 17.8-.4 6.6-12.8-9-8.7 12.3-3 4.5 4.3 11 24.2-35 22-24.4-.4l27.1-58.9c.9-22.6-40.4 3.6-14.2 3 2.3 5-18.8 2.4-8.8 10.8 8.7-.4-7.9 5.8-5.4 8.7-3.5-8-12.1-6.1-2.8-12.5-1.7-4.4-20.6-5.7-5.7-7.4 15.5-6.6-24.5-21.2-19.2-.6l28 61.1c2.2 20.3-36.3 17.3-25.8-3.9-6.7-8.5 13-12 3.6-2.4-7.4 11.1 19.4 1.4 7 11-11-6.5-5.2 9.4 4.9 3.8 13.5-7.9-4-25.3-7.1-36.1-6.1-11.8-12.6-23.5-17-36 2-17.8 29.6-17.4 34.3-1.6zm0-23.9c4.3 20.8 43.5 11.4 31.3-9-8.3-19.8-22-37.6-26.7-58.7-.5-16.3 28.8 2.5 9.8-2.2-11.7 10 17.8.4 6.6 12.8-9 8.7 12.2 3 4.5-4.3 11-24.2-35-22-24.4.4l27.1 58.8c.9 22.6-40.4-3.6-14.2-3 2.3-5-18.8-2.4-8.8-10.8 8.6.4-7.9-5.8-5.4-8.7-3.5 8-12.2 6.1-2.8 12.5-1.7 4.4-20.6 5.7-5.7 7.4 15.5 6.6-24.5 21.2-19.2.6 9-20.5 19.5-40.3 27.7-61 2.2-22-37.1-15.8-25.7 5.5-5.4 7.9 13.4 9.3 3.7.8-7.3-11.1 19.5-1.4 7.1-11-11 6.5-5.2-9.4 4.9-3.8 13.5 7.9-4 25.3-7.1 36.1-6.2 11.8-12.7 23.5-17 36 1.9 17.8 29.6 17.4 34.3 1.6zm0-158.8c4.3-20.8 43.5-11.4 31.3 9-8.3 19.9-22 37.7-26.6 58.8-.4 16.3 28.6-2.7 9.7 2.1-11.8-9.9 17.8-.5 6.6-12.8-9-8.7 12.2-3 4.5 4.4 11 24.1-35 22-24.4-.5L87.3 163c1-22.7-40.2 3.4-14.4 2.8-6.8 3.8-13 8.9-6.9 12.5-4 .9-9.2 13.8-10 .8-14.8.7 10.3-6.5-4.8-10.1-12.6-2.3-4-2.7 2.8-3.6 1.2-18.3-32.3-14.1-20.8 4.2C42 188.2 51.4 206.6 59 226c2.2 21.9-37.1 15.7-25.8-5.6-5.3-7.9 13.5-9.3 3.8-.8-7.3 11 19.5 1.4 7.1 11-11-6.6-5.2 9.4 4.8 3.8 13.6-8-4-25.4-7-36.2-6.2-11.7-12.7-23.4-17.1-36 2-17.7 29.7-17.3 34.4-1.5zm0-23.9c4.3 20.8 43.5 11.4 31.3-9C82 107.9 68.4 90 63.7 69c-.4-16.4 28.8 2.6 9.8-2.1-11.8 9.8 17.8.4 6.6 12.7-9 8.7 12.2 3 4.5-4.3 11-24.2-35-22-24.4.4l27.1 58.8c.9 22.8-40.5-3.5-14.2-2.9 2-4.5-19.5-3.4-8-11 7.3.4-8.5-5.4-6.2-8.5-3.6 8-12.1 6.1-2.8 12.5-1.7 4.4-20.6 5.7-5.8 7.5 15.7 6.4-24.4 21.2-19.1.5l28-61.1c2.2-20.3-36.3-17.3-25.8 3.9-6.7 8.5 13 12 3.5 2.4-7.3-11 19.5-1.5 7-11-10.8 6.8-5.2-9.5 5-3.8 13.5 7.9-4 25.3-7.1 36.2-6.2 11.7-12.7 23.4-17 36 1.9 17.9 29.6 17.4 34.3 1.5zM60.2 13C70.3-11.2 102 24.5 73.8 29.4c-17.8 6.7-4 36.1 7.4 18.1-3.2-3.4-16.4 1.5-7.8-5 10.8 2 11.7-6.6 3.8-11.8 14.8-1.5 6.4 11.3 6.3 22-9 14.1-33.7-2.8-21.3-16.2 9.5-4.8 29.5-29.4 6.8-25.2-9.1 1.5-9 22.3-11 6.8-4.7-14.9-30-6.2-16.1 5.4l16 16.3c8.8 22.7-36.3 22.8-25-1.2-5.5-8.5 13.3-10.8 4-1.6-7.3 11 19.6 1.3 7 11-10.1-7.4-6.5 8.7 3.8 4.4 20.6-12-17.5-24.4-15.6-38.9C36.3 2.2 55.4 2.2 60.2 13z"/><rect width="181.6" height="172.1" x="259.7" y="119.8" rx="90.8" ry="86.1"/><path d="M346.3 68.5c-.2 13.9-11 28.2-3.4 41.6 13.1 11.7 15.7-13 9-21-2-6.8-3.6-13.7-5.6-20.6zm7.2 277.2c1-13.9 13-27.4 6.5-41.3-12.3-12.6-17 11.7-10.7 20.1 1.5 7 2.7 14.1 4.2 21.2zM208.8 205.3c14.7.8 28.8 12.7 43.5 6.1 12.8-11.9-13.6-15.6-21.6-9.7l-21.9 3.6zm290 3.4c-14.7-.3-29.4-11.7-43.8-4.6-12.4 12.4 14.1 15.2 22 9l21.7-4.4zm-259.4-94.1c10.8 9.3 14.9 27 30.2 30.5 17.7-1.3.2-20.7-10.3-20.4zM464.6 297c-11.6-8.4-17.3-25.5-32.9-27.8-17.5 2.9 1.8 20.6 12.1 19.5 7 2.8 13.8 5.8 20.8 8.3zM284.3 83.6c6.2 12.6 3 30.3 15.7 39.2 17.2 5 8.3-18.6-1.3-22.7-4.8-5.4-9.4-11.1-14.4-16.5zm131.3 248c-5.2-13-.7-30.4-12.7-40.1-16.7-6.3-9.7 18-.4 22.7 4.5 5.7 8.8 11.5 13.1 17.4zM448 102.8c-10 10.2-28 13-32.4 28 1.6 18.3 20.3 0 21.9-9.8zM252.8 309.5c10.7-9.5 29-11 34.5-25.8-.1-17.5-20.5-2.2-22.1 7.7-4 6.1-8.3 12-12.4 18.1zm-37.4-153.7c13.5 5.5 23 21 38.9 19.6 15.9-5.2-4-19-13.7-15.9zm270.7 105c-13-6.5-21.5-22.5-37.4-22.2-16.2 4 2.7 19 12.5 16.6l25 5.6zM400 76.3c-4.1 11.4-27.6 28-12.5 37.9 16-3 7.4-25.1 12.3-36.5l.1-.8zM299.8 336.9c6.3-12.5 22.5-20.6 21.9-36.2-6.5-16.4-19.5 4.6-17.5 14.5l-4.4 21.7zM217.1 263c13.6-5.4 31.3-.6 42-12.5 7-15.3-16.4-10-21.5-1.8L217.1 263zm269-109.6c-13.9 4.5-31.2-1.5-42.6 9.7-7.8 16.4 18 9.5 23.9 1.6zM375.8 70.3c-2.9 13.7-16.7 25.4-12.2 40.1 10.6 14.2 18.2-9.5 13.4-18.7-.5-7.1-.5-14.3-1.2-21.4zm-51.7 273c3.9-13.4 18.5-24 15-39.2-9.4-14.8-18.7 8.2-14.6 17.7 0 7.2-.6 14.4-.4 21.5zM313.6 73c3.2 13.5-3.9 30 6.5 41.4 15.6 8.5 12.4-16.2 4-22.3-3.6-6.3-7-12.8-10.5-19.1zm72.6 268.8c-2.3-13.8 6-29.7-3.6-41.8-15-9.6-13.4 15.3-5.5 22 3 6.6 5.8 13.3 9 19.7zm-124-245c8.4 11.4 8.6 29.4 22.8 35.9 16.7 3 6.5-18.2-3.5-20.5zm175.8 222c-7.6-12-6.5-29.8-20-37.3-18-3.3-6 18.7 3.6 22.2zm-213.4-186c12.2 7.6 19 24.5 34.8 25.7 17.3-4-3.1-20.4-13.4-18.7l-21.4-7zm250 149c-11.7-8.5-17.3-25.7-32.9-28-17.5 2.8 1.6 20.6 12 19.6l20.8 8.4zM208.1 177.4c14.2 3.4 26.2 17.4 41.7 13.4 14.7-9.7-10.6-17.9-19.5-13.3-7.4 0-14.8-.2-22.2 0zm285.3 61.7c-14-4.2-24.9-18.8-40.5-16-15.4 6.6 5.7 18.4 15 14.5l25.5 1.5zm-286.3-6.7c15-2.4 32.3 6.6 45.3-4.1 5-15.7-18.7-9.7-26.1-3.6zm288.3-48c-14.6 1.2-30.2-8.4-43.8 0-11.3 13.5 15.3 14 22.4 6.8zm-262.1 105c12-8 30.3-7 37.9-20.8 2.5-17.4-19.9-5-23 4.5l-15 16.2zm237.2-162.5C458 134 439.8 131.8 431 145c-3.6 18 19.5 5.5 23.8-3.4l15.7-14.8zM277.8 327c7.6-11.9 24.8-18 26-33.5-4.6-16.8-20.3 2.8-19.2 13l-6.8 20.5zm149-238.8c-8.5 11.4-26 16.2-28.4 31.7 3.5 17 20.6-1.4 20.1-11.7 2.6-6.7 5.5-13.3 8.3-20zM211.5 263.1c4 43.1 38.8 78.9 79.3 91.2 13.1 6.9 29 5.4 42 12.5-19.8 8.2-37.6-10.3-57-8.6-14.4-4.2-23.9-17-35.3-26a133 133 0 01-29.6-39.1c-22 7.7-23.6-24.8-29-38.7 2.3-15.1 3.3 13.9 8.6 17.2 2 6.7 11.1 12.2 5.1 1-4.9-15-11-32.7-2.2-47.5a72.6 72.6 0 0010.6 49.2c6.2 1.2-7-24 5.5-23.9 1.8 4 1.4 8.5 2 12.7zm-22.8 28.1c-5.5-2.5-14.2-25.3-15.8-16.5 3.7 9.9 18 20.3 12.7 30.9-4-4.4-24-21.8-12.4-7.4 6.9 5 12.4 19 .9 8-6.2-1.5 14.6 17.8 1.1 6.7 3.6 9.3 6.2 12 7.7 18.4-2-.8 15 9.6 19 15.6a90.3 90.3 0 0034.3 25.5c7.5 4.6 28.7 18 30.5 7.6-15.1-12.2-36.8-13.4-49.4-29.7-11.5-10.4-25.5-17.7-26.8-24.4-10.3-6.1 4.2-2.7-.5-3.8-4.3-2-7.1-8.6-.2-3-5.2-3.6-3.7-12.7 2-4.2 1.3-6.8-1.2-18 5.8-16.3-1.7-3.7-6.4-4.4-9-7.4zM296 399.5c-5-10 29-12.3 24.4-12-3.9 9.7-16.3 8.7-24.4 12zm29-11.2c8-21.3 33.2-25 51.4-33.5 39.7-15.5 75-40.9 104.5-71.3 11.5-9.5 17.5-31.3 22-39.1 5.1 7.5-9.2 35 8.3 21.8 17-13 19-36.1 30.6-52.3 4.9 11.6-8.8 32.5-16 44.9-13.6 15.4 15 1 17-8 3.7-3.5 13-27.3 15.5-16.5a65.4 65.4 0 01-25.5 38.6c-16.4 17.6 18.9 11.3 24.8 1.1 6.4-4.7 14.4-24.2 10.1-6.1a52.6 52.6 0 01-37 29.8c-.3 6.4 22.4-8 29-3.5-10 9-41 12-40.6 21.8 12.3 3.3 34-13.4 38.4-8-7.8 12-35.8 8.7-37.7 19.1 6.6 0 28.8-3 9.8 1.6-6.4.6-29.8 8-11.3 4.5 6.9-2.4 24.4-2.6 8 1.8-7.3 2.7-31.3 8-27 9.7 6.1-.6 24.5-7.1 24.1-3.3-18.3 5.7-37.1 10.2-55.4 16.3 17-2 33.2-8.3 50.2-9.1-8 1.7-30.8 8.3-9.8 5.2 5.4 1.9-16.1 5.3-21.4 7.2-8.2 3-20 3-25.8 9 7.1-3.7 33.8-3.3 13.7 3.7-15 5.7-38.3 14.7-49.7 13.5 7-8.3 29.2-7.1 31.1-12.8-6.7 2.6-25.9-1-9.2-5.3 3-2.2-14.6-1.7-1.4-5.9 8-2.3 14.3-7.8 10.7-9.1 12.4-6.8 28.5-6.5 39.5-15-7.9 2-24.4 3.4-7.4-2 6.8-1.7 19.3-10.7 4.2-4.9-3.3-3 30-14.5 8.4-10.3-6-5.5 25.5-19 8.1-16.7 3.6-6 23-16.7 4.8-15.5-23-.1-42.1 13.8-57.6 29.3-14.4 13.4-30.7 25.7-50 30.8-27.3 12.4-52.6 29.1-81.3 38.5zm-36.7 15.4c-10 2.6-3.5 14.5 2.7 5.2 22.7-1 46 .1 68.1-5.8-4.6-3.8-22.3-.4-31.7-1-12.9 1.3-26-.3-38.8 1.5z"/><path d="M312.3 397.8c16.7 10.2-15.7 6 0 0zm96.8-3.1a675.3 675.3 0 0059.8 10c-.8 7-9.6 6-14.6 4.9-3.9-1.5-9-.6-5.4 3.6-2.3 1.4-9.4-1.4-9.3 1 2.6 1.5 5.3 1.6 1 1.2-8-.3-14.4 5.3-21.6 7.4-6-1.5-11 1.5-16.7 1.5-8.4-1.4-16.6 2-25 1.2-9.8 0-19.6-.8-29.5-1-6.1 0-13 1-18.6-2.1-4.4-5.4 2.7-12.2 8.5-11.3 15.8-2.2 32.3-2 47-9 8-2.6 16.2-5.3 24.4-7.4z"/></g></svg>