<svg xmlns="http://www.w3.org/2000/svg" fill-rule="evenodd" viewBox="0 0 640 480"><path fill="#6fdcff" d="M0 0h640v480H0z"/><g fill="#ffe400"><path d="M60.2 467c10.12 24.16 41.79-11.53 13.55-16.4-17.74-6.73-3.87-36.12 7.4-18.12-3.09 3.41-16.4-1.53-7.74 4.98 10.8-1.92 11.65 6.65 3.8 11.83 14.73 1.44 6.39-11.24 6.31-21.89-8.99-14.13-33.56 2.83-21.21 16.17 9.48 4.82 29.3 29.37 6.67 25.09-9.06-1.5-8.88-22.23-11-6.75-4.77 14.76-29.97 6-16.11-5.55L57.9 440.1c8.78-22.73-36.26-22.72-24.92 1.24-5.53 8.49 13.36 10.72 3.88 1.64-7.33-11.13 19.66-1.4 7.05-10.98-10.1 7.31-6.53-8.83 3.84-4.47 20.53 11.93-17.55 24.35-15.62 38.86 4.23 11.28 23.18 11.33 28.08.62zm-1.1-123.7c4.29-20.76 43.45-11.42 31.26 9.03-8.22 19.81-21.96 37.57-26.62 58.66-.55 16.32 28.82-2.42 9.73 2.16-11.64-9.95 17.85-.38 6.62-12.75-8.91-8.73 12.26-3.03 4.5 4.34 11.08 24.19-34.98 22.03-24.38-.41l27.12-58.88c.84-22.67-40.45 3.54-14.27 2.9 2.35 5.02-18.8 2.44-8.74 10.86 8.63-.45-7.9 5.78-5.42 8.68-3.52-8-12.15-6.11-2.8-12.46-1.67-4.43-20.56-5.69-5.74-7.43 15.58-6.59-24.44-21.24-19.14-.55l28 61.08c2.2 20.32-36.29 17.3-25.82-3.92-6.7-8.54 12.96-11.99 3.55-2.41-7.32 11.12 19.44 1.41 7.09 11-10.98-6.52-5.2 9.38 4.84 3.85 13.53-7.93-3.99-25.37-7.09-36.18-6.14-11.76-12.62-23.43-17.05-35.98 1.98-17.82 29.69-17.38 34.4-1.6zm0-23.9c4.29 20.76 43.45 11.42 31.26-9.03-8.22-19.8-21.95-37.57-26.63-58.66-.5-16.35 28.8 2.46 9.74-2.17-11.7 9.92 17.84.4 6.61 12.76-8.91 8.73 12.26 3.03 4.5-4.34 11.07-24.16-34.99-22.02-24.38.41l27.12 58.78c.84 22.67-40.45-3.54-14.27-2.9 2.35-5.02-18.8-2.44-8.74-10.86 8.63.45-7.9-5.78-5.42-8.68-3.52 8-12.15 6.11-2.8 12.46-1.67 4.43-20.56 5.69-5.74 7.43 15.58 6.59-24.44 21.24-19.14.55 9.08-20.41 19.53-40.22 27.72-61.03 2.15-21.92-37.14-15.74-25.78 5.59-5.35 7.87 13.49 9.24 3.77.79-7.32-11.12 19.44-1.41 7.09-11-10.98 6.52-5.2-9.38 4.84-3.85 13.53 7.93-3.99 25.37-7.09 36.18-6.14 11.76-12.62 23.43-17.05 35.98 1.98 17.82 29.69 17.38 34.4 1.6zm0-158.8c4.3-20.76 43.46-11.42 31.26 9.04-8.22 19.82-22 37.61-26.6 58.74-.33 16.35 28.65-2.71 9.76 2.15-11.84-9.89 17.79-.5 6.55-12.83-8.9-8.68 12.26-3.01 4.49 4.35 11.08 24.18-34.98 22.04-24.37-.41l27.12-58.78c.97-22.7-40.24 3.48-14.43 2.8-6.79 3.86-13.04 8.9-6.85 12.54-4.07.87-9.2 13.76-10.03.79-14.82.71 10.3-6.52-4.8-10.12-12.59-2.24-4.08-2.7 2.78-3.56 1.2-18.28-32.32-14.11-20.76 4.2 8.7 18.7 18.14 37.14 25.71 56.35 2.15 21.92-37.14 15.74-25.78-5.59-5.35-7.87 13.49-9.24 3.77-.8-7.34 11.12 19.44 1.46 7.08 11.01-10.96-6.53-5.2 9.38 4.85 3.84 13.53-7.93-3.99-25.37-7.11-36.17-6.14-11.74-12.64-23.41-17.04-35.97 2.01-17.81 29.68-17.36 34.4-1.6zm0-23.9c4.25 20.8 43.46 11.42 31.26-9.03-8.22-19.8-21.96-37.57-26.62-58.66-.46-16.4 28.75 2.58 9.76-2.16-11.75 9.87 17.82.41 6.58 12.75-8.9 8.72 12.25 3.04 4.49-4.34 11.08-24.14-34.92-21.97-24.37.4l27.12 58.88c.88 22.78-40.5-3.5-14.26-2.9 2.06-4.58-19.45-3.4-8.02-11.01 7.34.39-8.48-5.4-6.15-8.52-3.58 8.02-12.11 6.09-2.8 12.51-1.68 4.42-20.6 5.7-5.77 7.44 15.65 6.46-24.43 21.23-19.12.49l28-61.08c2.2-20.32-36.29-17.3-25.82 3.92-6.7 8.55 12.95 11.98 3.54 2.4-7.28-11.08 19.5-1.47 7.05-10.97-10.86 6.73-5.26-9.48 4.89-3.87 13.53 7.93-4.01 25.37-7.1 36.2-6.14 11.76-12.62 23.43-17.05 35.98 1.95 17.92 29.72 17.5 34.4 1.6zM60.2 13c10.12-24.16 41.79 11.53 13.55 16.4-17.74 6.73-3.87 36.12 7.4 18.12-3.11-3.4-16.4 1.52-7.74-5 10.79 1.91 11.65-6.64 3.79-11.82 14.75-1.45 6.41 11.32 6.27 21.97-9 14.13-33.64-2.75-21.27-16.14 9.47-4.84 29.45-29.45 6.77-25.19-9.07 1.51-8.9 22.24-10.99 6.73-4.71-14.82-29.99-6.13-16.12 5.47L57.9 39.8c8.77 22.74-36.27 22.76-24.92-1.22-5.53-8.48 13.21-10.73 3.83-1.62-7.18 11.1 19.68 1.37 7.09 10.95-10.1-7.31-6.53 8.83 3.84 4.47 20.52-11.93-17.55-24.35-15.62-38.86C36.34 2.23 55.44 2.16 60.2 13z"/><rect width="181.6" height="172.11" x="259.74" y="119.8" rx="90.8" ry="86.11"/><path d="M346.27 68.48c-.18 13.87-10.89 28.23-3.41 41.64 13.17 11.72 15.75-13.03 9.03-20.93-1.98-6.87-3.62-13.83-5.62-20.7zm7.26 277.21c.99-13.86 12.96-27.37 6.43-41.3-12.3-12.6-16.89 11.72-10.68 20.14 1.55 7.02 2.74 14.12 4.25 21.15zM208.84 205.27c14.63.86 28.8 12.7 43.46 6.17 12.85-11.92-13.58-15.67-21.58-9.72l-21.88 3.56zm289.9 3.41c-14.68-.31-29.3-11.72-43.73-4.6-12.37 12.4 14.11 15.22 21.9 9.03l21.82-4.43zm-259.39-94.1c10.81 9.36 14.92 26.99 30.24 30.5 17.68-1.31.17-20.65-10.3-20.4zm225.24 182.45c-11.57-8.44-17.3-25.56-32.87-27.78-17.51 2.8 1.77 20.55 12.12 19.48 6.92 2.75 13.74 5.78 20.76 8.31zM284.27 83.63c6.25 12.57 3.04 30.3 15.73 39.15 17.17 5.05 8.3-18.54-1.25-22.64-4.87-5.46-9.5-11.16-14.5-16.52zM415.62 331.6c-5.17-12.98-.72-30.37-12.72-40.1-16.74-6.26-9.74 17.94-.4 22.67 4.51 5.7 8.84 11.56 13.14 17.43zm32.33-228.77c-10 10.2-28.12 12.91-32.5 28.01 1.68 18.28 20.31.03 21.93-9.79zM252.69 309.51c10.71-9.53 29-10.98 34.46-25.78-.06-17.52-20.43-2.28-22.08 7.7-4.01 6.1-8.24 12.05-12.38 18.07zm-37.35-153.75c13.42 5.54 22.98 20.99 38.82 19.61 15.89-5.2-3.96-18.96-13.62-15.85zm270.7 104.99c-13.02-6.43-21.53-22.46-37.41-22.18-16.21 4.07 2.67 19.11 12.49 16.68l24.92 5.51zm-86-184.48c-4.16 11.41-27.59 27.98-12.53 37.93 15.97-3.01 7.39-25.12 12.34-36.51l.1-.8zm-100.2 260.67c6.3-12.57 22.5-20.68 21.85-36.2-6.5-16.43-19.52 4.56-17.5 14.5l-4.35 21.69zM217.15 263c13.56-5.4 31.29-.55 41.87-12.49 7.09-15.35-16.3-10.03-21.37-1.76l-20.5 14.24zm269-109.58c-13.9 4.48-31.26-1.5-42.63 9.7-7.86 16.4 17.95 9.47 23.86 1.57zM375.71 70.3c-2.88 13.65-16.7 25.37-12.17 40.12 10.53 14.14 18.17-9.56 13.33-18.72-.46-7.12-.51-14.28-1.16-21.4zm-51.75 273.05c3.93-13.43 18.53-24.14 15.1-39.24-9.45-14.8-18.77 8.24-14.67 17.71-.07 7.17-.55 14.35-.44 21.53zM313.61 72.97c3.21 13.56-3.91 30.06 6.51 41.4 15.56 8.54 12.4-16.18 3.94-22.29-3.59-6.31-6.88-12.8-10.46-19.11zm72.56 268.78c-2.3-13.74 6.05-29.69-3.54-41.74-14.94-9.57-13.47 15.3-5.52 22.02 3.08 6.54 5.82 13.25 9.06 19.72zM262.19 96.87c8.4 11.34 8.65 29.28 22.78 35.79 16.68 3.1 6.48-18.16-3.44-20.47zm175.83 221.84c-7.61-11.86-6.5-29.76-20.1-37.25-17.92-3.26-5.89 18.73 3.69 22.26zm-213.4-185.98c12.22 7.64 19 24.52 34.77 25.74 17.32-3.93-3.1-20.41-13.37-18.66l-21.4-7.09zm249.9 149.06c-11.6-8.46-17.21-25.7-32.82-27.93-17.52 2.77 1.61 20.58 12 19.51l20.82 8.43zM208.19 177.43c14.24 3.32 26.21 17.37 41.73 13.32 14.73-9.61-10.57-17.8-19.5-13.26-7.4.02-14.82-.18-22.24-.06zm285.32 61.67c-13.95-4.21-24.87-18.8-40.54-16.05-15.35 6.6 5.73 18.47 15.03 14.53l25.5 1.52zm-286.28-6.72c14.93-2.35 32.25 6.58 45.27-4.1 5-15.73-18.73-9.71-26.13-3.6zm288.3-48.02c-14.6 1.24-30.25-8.34-43.86.08-11.25 13.49 15.35 14.03 22.46 6.77zM233.37 289.35c12-7.97 30.33-6.91 37.92-20.79 2.5-17.34-19.89-5-22.97 4.58l-14.95 16.2zm237.2-162.5c-12.59 7.23-30.79 4.95-39.43 18.29-3.67 18.02 19.45 5.44 23.76-3.43l15.68-14.86zM277.76 327.13c7.66-11.91 24.84-17.98 26.12-33.53-4.71-16.8-20.37 2.79-19.25 12.94l-6.87 20.58zm149.06-238.8c-8.48 11.34-26.06 16.2-28.41 31.63 3.54 17.12 20.56-1.37 20.1-11.61 2.62-6.73 5.5-13.36 8.31-20.02zM211.47 263.07c4.1 43.16 38.87 78.93 79.36 91.27 13.11 6.83 29.04 5.32 41.9 12.51-19.77 8.16-37.48-10.35-56.98-8.68-14.35-4.14-23.85-16.99-35.28-25.92-11.92-11.28-22.48-24.26-29.52-39.17-22.01 7.74-23.6-24.78-29.09-38.64 2.36-15.14 3.39 13.84 8.64 17.19 1.92 6.67 11.13 12.14 5.15.94-4.92-15-11.07-32.68-2.22-47.43-1.88 16.79.79 35.23 10.58 49.21 6.2 1.17-7.06-24.08 5.48-23.92 1.82 3.91 1.4 8.45 2 12.63zm-22.81 28.17c-5.45-2.53-14.18-25.34-15.74-16.56 3.66 9.92 18 20.29 12.7 30.92-4.03-4.39-23.97-21.82-12.4-7.37 6.87 5 12.4 19.05.84 8.02-6.18-1.6 14.6 17.74 1.18 6.64 3.6 9.31 6.12 12.06 7.65 18.36-2-.72 15.05 9.67 18.94 15.65 9.7 10.67 20.69 20.43 34.38 25.51 7.47 4.59 28.71 17.95 30.53 7.58-15.14-12.17-36.89-13.41-49.47-29.72-11.49-10.41-25.47-17.62-26.75-24.32-10.32-6.2 4.15-2.71-.56-3.81-4.31-2.03-7.1-8.65-.13-2.95-5.21-3.65-3.74-12.76 1.88-4.27 1.41-6.87-1.11-18.07 5.87-16.32-1.72-3.72-6.35-4.43-8.9-7.36zm107.32 108.3c-5-10.05 28.95-12.31 24.38-12.1-3.83 9.76-16.27 8.75-24.38 12.1zm29.1-11.23c7.96-21.33 33.08-24.97 51.33-33.55 39.67-15.44 74.97-40.85 104.52-71.24 11.49-9.55 17.49-31.29 22-39.14 5.07 7.48-9.2 35.06 8.23 21.84 16.96-13.06 18.95-36.12 30.68-52.3 4.86 11.57-8.84 32.45-16.12 44.85-13.55 15.47 15.02 1.05 16.99-8 3.74-3.5 13.08-27.26 15.63-16.5-4.21 15.33-11.99 29.62-25.53 38.6-16.4 17.61 18.88 11.3 24.81 1.13 6.4-4.7 14.36-24.17 10.13-6.13-6.17 15.35-21.3 26.15-37.12 29.79-.2 6.41 22.46-7.9 28.99-3.5-9.95 9.06-40.91 12.12-40.49 21.85 12.26 3.33 34.01-13.4 38.36-8.05-7.78 11.96-35.82 8.77-37.7 19.17 6.65.04 28.78-3.09 9.8 1.57-6.36.63-29.79 8-11.3 4.54 6.86-2.42 24.41-2.63 8.06 1.75-7.39 2.74-31.3 8.1-27.14 9.68 6.2-.57 24.6-7.09 24.24-3.3-18.38 5.76-37.16 10.18-55.41 16.36 16.88-2.02 33.13-8.32 50.12-9.15-7.92 1.72-30.77 8.31-9.76 5.23 5.36 1.84-16.1 5.26-21.36 7.17-8.21 2.93-20.08 3.09-25.79 8.98 7.1-3.65 33.76-3.25 13.61 3.78-15 5.61-38.28 14.68-49.64 13.49 6.93-8.33 29.18-7.16 31.08-12.86-6.72 2.59-25.85-.97-9.24-5.27 3.03-2.25-14.54-1.68-1.32-5.88 7.9-2.34 14.27-7.85 10.67-9.15 12.35-6.73 28.47-6.44 39.46-15.06-7.86 2-24.32 3.44-7.34-1.86 6.81-1.76 19.24-10.71 4.2-4.92-3.36-3.11 30.03-14.51 8.42-10.3-5.96-5.53 25.44-18.98 8.1-16.77 3.5-5.92 23.01-16.7 4.75-15.48-22.91-.13-42.11 13.83-57.57 29.35-14.46 13.39-30.7 25.64-50.01 30.8-27.33 12.36-52.67 29.11-81.3 38.51zm-36.78 15.41c-10.04 2.54-3.52 14.46 2.65 5.2 22.72-1 46.1.12 68.16-5.87-4.59-3.74-22.32-.34-31.75-.87-12.86 1.27-26.04-.41-38.72 1.46z"/><path d="M312.28 397.77c16.71 10.25-15.64 6.09 0 0zm96.85-3.08a675.25 675.25 0 0059.75 10.07c-.76 6.97-9.61 6.01-14.59 4.83-3.86-1.5-9.06-.61-5.37 3.65-2.33 1.4-9.45-1.46-9.3.96 2.55 1.5 5.31 1.64 1 1.17-7.96-.24-14.38 5.38-21.66 7.46-5.93-1.56-10.87 1.52-16.68 1.46-8.38-1.42-16.55 2.07-24.95 1.25-9.83-.12-19.66-.86-29.48-1.11-6.19.03-12.97.98-18.62-2.07-4.45-5.39 2.66-12.17 8.5-11.27 15.75-2.15 32.27-2.03 46.88-9.08 8.15-2.54 16.27-5.16 24.52-7.33z"/></g></svg>