<svg xmlns="http://www.w3.org/2000/svg" xmlns:xlink="http://www.w3.org/1999/xlink" viewBox="0 0 640 480"><style>.G{stroke-linejoin:round}.H{fill:#fff}.I{fill:#fc0}.J{stroke-linecap:round}.K{stroke:#000}.L{stroke-width:1.047}.M{stroke-width:1.122}.N{stroke-width:.933}.O{fill-opacity:.941}</style><defs><path id="A" d="M365.5-61.8c-3.4-.7-11.4-.3-6.8 4.6 2.6 5.3-.8 11-2.3 15.8 0 2.7-1.5 3.8-1.5.8-.4-5 4.5-8.7 2.6-13.6-.7-6.8-7.5-7.6-12.8-6.8-3.4.4-7.6-5.7-2.3-5 6.4-1.4 11.4 4.6 17 1.6 8.3-.4 17.8.7 23.8 6.8a15.1 15.1 0 0 1 3 17c-1.5 2.6-3 8.3-6 7.6 0-3.8 4.5-6.5 4.5-10.6 2.3-6.5-2.6-13.3-8.3-15.9a30.2 30.2 0 0 0-11-2.3" class="G I J K"/></defs><path fill-rule="evenodd" d="M0 0h640v480H0z" class="H"/><path fill="#09c" d="M640 410.2 91.7 0H0v68.4L550.3 480H640v-69.8"/><defs><path id="B" d="M311 173.7h-8.2v-8.1h-7.2v8.1h-8.1v7.2h8.1v8.1h7.2v-8h8.1v-7.3"/><path id="C" d="M266.2 135.3a1.7 1.7 0 0 0 1.7-1.7 1.7 1.7 0 0 0-1.7-1.6 1.7 1.7 0 0 0-1.6 1.6 1.7 1.7 0 0 0 1.6 1.7"/><path id="D" d="M329.2 147.5c1.8-.2-.5-2.5-.7-.8 0 .4.3.8.7.8z"/></defs><path fill="#005bbf" d="M321 384.2c-72.2 0-70-68-70-68V211.6h140V316s2.5 68.1-70 68.1"/><path fill="none" d="M321 384.2c-72.2 0-70-68-70-68V211.6h140V316s2.5 68.1-70 68.1z" class="K L"/><path fill="#d4aa00" d="M318 285.7h-24.7s-2.4 22 16.5 28.6v2h4v2.7s-7 6.3-1 13.3v2.3h1.2v3.5h1v5.8s-1 20.4-21 30.3v1.2h53.8v-1.2c-20.2-9.9-21-30.3-21-30.3v-5.8h1v-3.6h1v-2.2c6-7.2-.9-13.3-.9-13.3v-2.7h4v-2c19-6.6 16.6-28.6 16.6-28.6h-30.7z"/><g fill="#ccc" transform="matrix(1.20297 0 0 1.20298 -39.3 17)"><path d="M299.6 222.2a13 13 0 1 0 0-26 13 13 0 0 0 0 26M269.3 184H261v-8.1h-7v8.1h-8.1v7.2h8.1v8.2h7.2V191h8.2v-7m84.5 0h-8.2v-8.1h-7.2v8.1h-8.1v7.2h8.1v8.2h7.2V191h8.2v-7"/><use xlink:href="#B"/><use xlink:href="#B" x="-41.7" y="45.4"/><path d="M353.8 219.1h-8.2V211h-7.2v8.1h-8.1v7.2h8.1v8.2h7.2v-8.2h8.2v-7.2m-84.5 35.6H261v-8.2h-7v8.2h-8.1v7.2h8.1v8.1h7.2v-8h8.2v-7.2m84.5 0h-8.2v-8.2h-7.2v8.2h-8.1v7.2h8.1v8.1h7.2V262h8.2v-7.2"/></g><g class="G J K L"><path fill="#d81126" d="M320.5 145.9s-15-7.2-29 3.5c0 0-25.5-3.6-27.3 20.7 0 1-.3 2.7.2 3.2s.8 1.6.8 2.3.5 1 .6 1.2.6.8.6 2.2 0 1.9 1.2 3.1 1.3 5 1.3 6 .7 4.1 1.2 4.7 1.4 2.2 1.4 3.4.6 4.8.4 5.7 1.3 2 2.7 2.5 19.3 6.3 45.4 6 35.3-2 46-6c1.7-.5 2.1-1.9 1.9-2.6s0-3.2.4-3.8 3.5-5.4 3-6.4-.7-2.8 0-3.6 2.3-4.3 2.8-6 .4-3.2 1.2-3.6.9-2.3 1-2.7.6-1.4 1.3-2c0 0 1.3-6 .5-9.2s-5.3-16-23.7-13.2c0 0-13.7-10.5-34-5.4"/><path fill="#bcac0b" d="M370.4 191.2c-56.7-18-100.3-.8-100.3-.8s.3 2 .8 2.5a6 6 0 0 1 1.2 3.1l.1 3.4c0 .9-.6 4.3 2.7 4.3 0 0 39.3-15.3 90.7.9 0 0 1.4-1.2 1.4-3.1s.4-3.6 1.1-4.8 2.3-4.1 2.3-5.5"/></g><path fill="#005bbf" d="M321 125a9.4 9.4 0 1 0 0-18.8 9.4 9.4 0 0 0 0 18.8"/><g class="K G"><g class="J"><g class="M"><path d="M329.7 113.9H322v-12.4h3v-2.7h-3v-3h-2.5v3h-3v2.5h3v12.5h-7.3v1.9h17.5V114" class="I"/><path d="m320.3 185.5-8.4 4.2 7.6 4.8 9-4.5-8.2-4.5m-18.5 1-12.7 1.9s-.2 6.7.4 8.4l13-1.8s.6-6.4-.7-8.6" class="H"/></g><path fill="#058e6e" d="M300.4 188.8s-7.7.6-9.7 1.4l.2 4.6 9.6-1.3v-4.8" class="L O"/><path d="m338 186.7 12.8 2s0 6.7-.5 8.4l-13-1.8s-.6-6.3.7-8.5" class="H M"/><g class="L"><path fill="#058e6e" d="m339.5 189 9.6 1.5-.1 4.7-9.7-1.2v-4.8" class="O"/><path fill="red" d="m272.2 199.5 5-4-5.7-1.3s.8 1 .6 1.8 0 2.8.1 3.7m95.4 0-3.6-3.5 5-.5s-1.1 1-1.1 1.7 0 1.8-.3 2.4"/></g></g><g class="I J N" transform="matrix(1.20297 0 0 1.20298 -39.3 17)"><path d="M256.5 135c-.2 3 2 7.6 5.7 6 3.7-.9 2.4-5.9 4.5-7.4.1 3.2 3.4 6.5 6.5 4.5 2.5-1.8 2.8-5.5 2.3-8.3 2.2-.9 1.4 4 3.3 5 2.1 3 7 1.8 8.3-1.4.7-1 .5-5.3 1.4-2 .8 3.6 5.1 5 8 3 2.5-1.4-.2-5.8 2-6.5 2.6-1.2 1.5 1.6 1.8 3.3 0 3.2 3.2 5.4 6 3.8 2.5.1 2.5-4.8 4-4-.3 3.7 4 7.5 7.1 4.3 2.5-1.1.5-6.1 3.4-5.5 1.6 0 3.4-.1 1.7 2-.9 2.1-1 5.5 1.7 6.4 3.2 1.4 7.2-.7 7.2-4.3 2.1-1.3 1 3.2 1.8 4.6.5 4.3 7.1 3.5 7.7-.3.6-1.8.1-4.3 2.4-2.7-.6 3.3-2.7 7.7-6.7 7.5-3.2.2-5.3-3.6-5.4-5.7-1.8 3-6 3.8-8.8 1.8-1.8-.7-2-3.7-2.1-4.4-1.7 3.3-5.9 5-9 2.6-2.3-.4-1.7-5.3-3.1-2-2.2 3.7-8.8 2.4-9.3-1.8-1 4.7-9.2 5.3-10.5.5-1.2 4.7-8.7 5.8-11 1.4-.6-2-1 3.2-2.7 3.4-2.4 2.8-7.3.2-8.1-.5-1 4-7 6-9.7 2.6-1.4-1.9-2.2-6.4-1.5-7.5l1.1 1.6"/><use xlink:href="#C"/><use xlink:href="#C" x="21.8" y="-3.5"/><use xlink:href="#C" x="44" y="-2.8"/><path d="M332.2 136a1.7 1.7 0 0 0 0-3.4 1.7 1.7 0 0 0 0 3.4m-34-6c-2-.9-5 4.6-5.1 1 2-2.3-6.4-2.8-1.8-4.8 2-.2 2.8-.3 1.8-2.3-.5-3.6 6.2 3.3 3 .3-1.1-1.5-1.6-5.8 1.1-3.4-.9-3.5 3.4-6.9 3.7-1.8-.2 2.3.5 1.4 2.2 1 1.3 1.9-3.5 7-.8 4 3.2-3 2.8.6 2.8 1.8 2.4-.3 4.9 2.2 1.4 3.1-3.4-.5.7 5-3 2.8-1.4-1.6-2.8-2-5-1.8h-.3"/></g><g class="J M"><path d="M320.3 174.4a3.6 3.6 0 0 0 3.6-3.6 3.6 3.6 0 0 0-3.6-3.6 3.6 3.6 0 0 0-3.6 3.6 3.6 3.6 0 0 0 3.6 3.6" class="H"/><path d="M348 175.8c2.7-.6 4.8 6.7 5.9 2.4-2-3.2 8-1.6 3.3-5.1-2.5-.9-3.3-1.1-1.6-3.2 1.5-4-8.2 2.5-3.6-.4 1.7-1.5 3.3-6.4-.5-4.2 2-3.9-2.2-9-3.9-3-.3 2.6-1 1.4-2.7.5-2.2 1.9 2.3 9-.1 5-3-4.5-3.5 0-3.8 1.3-2.7-1-6.3 1.3-2.4 3.4 4.1.2-2.1 5.7 2.7 4a6 6 0 0 1 6.2-.9l.6.1" class="I"/><path d="M346.8 176.6a3.6 3.6 0 0 1-2.8-4.4 3.7 3.7 0 1 1 7.3 1.5 3.6 3.6 0 0 1-4.5 2.9" class="H"/><path d="M291.7 175.4c-2.5-.8-5.2 6.3-6 2 2.3-3.1-8-2.4-2.8-5.4 2.4-.6 3.3-.7 1.8-3-1.2-4.2 8 3 3.6-.3-1.5-1.4-2.7-6.6.9-4-1.7-4 2.9-8.8 4-2.8.2 2.8 1 1.5 2.8 1 2 1.9-3 8.7-.3 4.8 3.3-4.1 3.6.2 3.6 1.6 2.9-.7 6.2 2 2.2 3.7-4.1-.3 1.6 5.7-3 3.6a6 6 0 0 0-6-1.2h-.8" class="I"/><path d="M293 176.2a3.6 3.6 0 0 0 3-4 3.6 3.6 0 0 0-4-3.1 3.6 3.6 0 0 0-1.8 6.4 3.6 3.6 0 0 0 2.7.7" class="H"/></g><g class="N"><path d="M373.4 183c-1.2-4.4-8.2 3-6.6-3-.5-1-5.7-4.4-1.2-5.1 2.3-.3 3.7.3 3.6-2.7 2.4-.3 4.8 5.6 3.6 1.4-1-4.4 2.6-6 3.1-3.3.7-3.2 9-3.5 4.1-.2-2 3.6-5 6.8-5.5 11-.1.8-.4 1.6-1.1 2z" class="I"/><path d="M370.5 178.2a3.6 3.6 0 0 1 4.2-2.7 3.6 3.6 0 0 1 1.6.6c-.1.7-.5 1.7-1.1 2.3-.7.7-.7 1.9-.7 2.3a3.6 3.6 0 0 1-.6 2h-.5a3.6 3.6 0 0 1-2.9-4.3" class="H J"/><path d="M267.5 182.1c1.5-4.5 8 3.5 6.9-2.8.5-.8 5.9-4 1.5-4.9-2.4-.4-3.8 0-3.4-2.9-2.4-.6-5.2 5.3-3.8 1.2 1.2-4.4-2.3-6.4-3-3.6-.5-3.1-8.6-4-4-.4 1.7 3.7 4.7 7.1 4.9 11.4 0 .7.2 1.6 1 2z" class="I"/></g><g class="J"><path d="M270.8 177.5a3.6 3.6 0 0 0-5.7-2.5c0 .6.4 1.6 1 2.2.6.8.6 2 .6 2.4 0 .2 0 1.3.3 2h.6a3.6 3.6 0 0 0 3.2-4" class="H N"/><path fill="red" stroke-width=".9" d="m320.3 187.6-4.5 2.2 4 2.6 4.9-2.4-4.5-2.4"/></g><path d="m314.7 123 .1 28.2c.2 2.1.8 4.8 2.9 6 2.2.8 4.8 1 6.8 0 2-1.2 2.5-3.7 2.8-6l.1-28.2c-1.8 0-2.5 2-2.4 3.5-1.2 8.4 3 26-3.6 28.9-7.2.6-4-26.2-4.3-28.9.1-1.5-.6-3.6-2.4-3.6z" class="I M"/><g stroke-width=".2" class="H" transform="matrix(4.54665 0 0 4.5467 -1175.7 -543.5)"><use xlink:href="#D"/><use xlink:href="#D" y="5.2"/><use xlink:href="#D" y="1.7"/><use xlink:href="#D" y="3.5"/></g></g><g id="E" transform="matrix(1.20297 0 0 1.20298 -78 206.4)"><use xlink:href="#A" class="I"/><path d="M344.7-72.5c-3.5.5-1.5 6.6 1.7 5 2.4-1.1 1-5.3-1.7-5zm5.8 0c-3.7.5-1.4 6.8 1.7 5 2.4-1.3.9-5.4-1.7-5zm5.1.4c-3 .7-1.9 5.5.8 5.6 3.8-.2 2.5-6-.8-5.6zm-16.6.4c-3.5.7-1.2 6.7 1.9 5 2.5-1.2.7-5.4-2-5zm23 .8c-3.4.7-1.2 6.6 2 5 2.4-1.3.6-5.4-2-5zm6.4.7c-3 .6-1.7 6 1.3 5.5 3.5-.6 1.7-5.8-1.3-5.5zm6.5 1.5c-3.1.7-1.8 6 1.2 5.5 3.5-.6 1.7-5.8-1.2-5.5zm-16.6 2.2c-3.5.5-1.5 6.7 1.7 5.1 2.4-1.2 1-5.4-1.7-5zm22.7.8c-2.7.4-2.2 4.6 0 5.3 3.4 1 4-4.4 1-5.2h-.5zm-20.5 4.2c-3 .6-1.7 6 1.2 5.5 3.6-.6 1.8-5.8-1.2-5.5zm25 .4c-3.5.7-1.2 6.7 1.9 5 2.5-1.2.6-5.4-2-5zm3 6.4c-3.5.7-1.2 6.7 1.9 5 2.5-1.2.7-5.4-2-5zm-27.2 0c-3.1.6-1.8 6 1.2 5.5 3.5-.6 1.7-5.8-1.2-5.5zm-1.2 6.4c-3.4.6-1.1 6.6 2 5 3-1 .5-5.3-2-5zm29.5.4c-3 .6-1.7 6 1.2 5.5 3.6-.6 1.8-5.8-1.2-5.5zm-1 6.8c-3.5.4-1.6 6.6 1.6 5 2.5-1.1 1-5.3-1.6-5z" class="G H K N"/></g><use xlink:href="#E" transform="matrix(-1 0 0 1 642.1 0)"/></svg>