<svg xmlns="http://www.w3.org/2000/svg" viewBox="0 0 640 480"><path fill="#cc0504" d="M0 80v27h640V53H0v27m0 107v26h640v-53H0v27m0 106v27h640v-53H0v26m0 107v27h640v-54H0v27"/><path fill="#fbd50c" d="M0 2v51h640V0H0v2m0 105v53h640v-53H0m0 160h640v-54H0m0 160h640v-53H0m0 160h640v-53H0"/><path fill="#0f47af" d="m0 480 240-240L0 0"/><path fill="#fff" d="m98 190-8 24-1 5H38l20 15 21 15a4767 4767 0 0 1-16 49 1926 1926 0 0 0 41-30l21 15 21 15a1177 1177 0 0 0-15-49l20-15 20-15h-51a2503 2503 0 0 1-15-48l-7 19"/></svg>