<svg xmlns="http://www.w3.org/2000/svg" fill-rule="evenodd" viewBox="0 0 640 480"><path fill="#cc0504" d="m71 80 24 27h545V53H47l24 27m95 107 24 26h450v-53H142l24 27m0 106-24 27h498v-53H190l-24 26M71 400l-24 27h593v-54H95l-24 27"/><path fill="#fbd50c" d="m2 2 24 27 21 24h593V0H0l2 2m93 105 24 26 23 27h498v-53H95m106 120 12 13-12 13-11 14h450v-54H190l11 14m-82 120-24 26h545v-53H142l-23 27M24 453 0 480h640v-53H47l-23 26"/><path fill="#fff" d="m98 190-8 24-1 5H38l20 15 21 15a4767 4767 0 0 1-16 49 1926 1926 0 0 0 41-30l21 15 21 15a1177 1177 0 0 0-15-49l20-15 20-15h-51a2503 2503 0 0 1-15-48l-7 19"/><path fill="#0f47af" d="M0 240v240l27-27 213-213-120-120L0 0v240m98-50-8 24-1 5H38l20 15 21 15a4767 4767 0 0 1-16 49 1926 1926 0 0 0 41-30l21 15 21 15a1177 1177 0 0 0-15-49l20-15 20-15h-51a2503 2503 0 0 1-15-48l-7 19"/></svg>