<svg xmlns="http://www.w3.org/2000/svg" xmlns:xlink="http://www.w3.org/1999/xlink" viewBox="0 0 600 400"><style><![CDATA[.K{stroke-linejoin:round}.L{fill:#fff}.M{fill:#fc0}.N{stroke-linecap:round}.O{stroke:#000}.P{fill-opacity:.941}]]></style><defs><path id="A" d="M365.5-61.8c-3.4-.7-11.4-.3-6.8 4.6 2.6 5.3-.8 11-2.3 15.8 0 2.7-1.5 3.8-1.5.8-.4-5 4.5-8.7 2.6-13.6-.7-6.8-7.5-7.6-12.8-6.8-3.4.4-7.6-5.7-2.3-5 6.4-1.4 11.4 4.6 17 1.6 8.3-.4 17.8.7 23.8 6.8a15.1 15.1 0 0 1 3 17c-1.5 2.6-3 8.3-6 7.6 0-3.8 4.5-6.5 4.5-10.6 2.3-6.5-2.6-13.3-8.3-15.9a30.2 30.2 0 0 0-11-2.3" class="K M N O"/></defs><path fill-rule="evenodd" d="M0 0h600v400H0z" class="L"/><path fill="#09c" d="M600 341.8 86 0H0v57l515.9 343H600v-58.2"/><path fill="#005bbf" d="M299.6 305.2c-60.1 0-58.2-56.6-58.2-56.6v-86.8h116.4v86.8s2 56.6-58.2 56.6"/><g class="O"><path fill="none" d="M299.6 305.2c-60.1 0-58.2-56.6-58.2-56.6v-86.8h116.4v86.8s2 56.6-58.2 56.6z"/><path fill="#d4aa00" d="M297 223.3h-20.5s-2 18.3 13.7 23.8v1.7h3.4v2.2s-5.8 5.2-.8 11.1v1.9h.9v2.9h.9v4.8s-.8 17-17.5 25.2v1h44.7v-1c-16.8-8.2-17.5-25.2-17.5-25.2v-4.8h.9v-3h.8v-1.8c5-6-.7-11.1-.7-11.1v-2.2h3.3v-1.7c15.8-5.5 13.8-23.8 13.8-23.8h-25.5z"/><g fill="#ccc"><path d="M299.6 222.2a13 13 0 1 0 0-26 13 13 0 0 0 0 26M269.3 184H261v-8.1h-7v8.1h-8.1v7.2h8.1v8.2h7.2V191h8.2v-7m84.5 0h-8.2v-8.1h-7.2v8.1h-8.1v7.2h8.1v8.2h7.2V191h8.2v-7"/><use xlink:href="#B"/><use xlink:href="#B" x="-41.7" y="45.4"/><path d="M353.8 219.1h-8.2V211h-7.2v8.1h-8.1v7.2h8.1v8.2h7.2v-8.2h8.2v-7.2m-84.5 35.6H261v-8.2h-7v8.2h-8.1v7.2h8.1v8.1h7.2v-8h8.2v-7.2m84.5 0h-8.2v-8.2h-7.2v8.2h-8.1v7.2h8.1v8.1h7.2V262h8.2v-7.2"/></g><g class="K N"><path fill="#d81126" d="M299.1 107.1s-12.4-6-24.1 2.9c0 0-21.2-3-22.7 17.2 0 .8-.2 2.3.2 2.7s.7 1.3.7 1.9.4.8.5 1 .5.7.5 1.8 0 1.6 1 2.6 1 4.2 1 5 .6 3.4 1 3.9 1.2 1.8 1.2 2.8.5 4 .3 4.8 1.1 1.7 2.3 2 16 5.3 37.7 5 29.4-1.6 38.3-4.9c1.4-.5 1.7-1.6 1.5-2.2s0-2.7.4-3.2 2.9-4.5 2.4-5.3-.5-2.3 0-3 2-3.6 2.4-4.9.3-2.7 1-3.1.7-1.9.8-2.2.5-1.2 1.1-1.6c0 0 1.1-5.1.4-7.7s-4.4-13.3-19.7-11c0 0-11.4-8.7-28.2-4.5"/><path fill="#bcac0b" d="M340.6 144.8c-47.1-15-83.4-.7-83.4-.7s.3 1.6.7 2.1a5 5 0 0 1 1 2.6l.1 2.8c0 .7-.5 3.6 2.2 3.6 0 0 32.7-12.8 75.4.7 0 0 1.2-1 1.2-2.6s.3-3 .9-4 1.9-3.4 1.9-4.5"/><path fill="#005bbf" d="M299.5 89.7a7.8 7.8 0 1 0 0-15.6 7.8 7.8 0 0 0 0 15.6"/><path d="M306.8 80.5h-6.4V70.2h2.4V68h-2.4v-2.5h-2.1V68h-2.5v2h2.5v10.4h-6.1V82h6.1v0h2v0h6.5v-1.4" class="M"/><path d="m299 140-7 3.5 6.3 4 7.5-3.7-6.8-3.8m-15.4.8-10.6 1.6s-.1 5.6.4 7l10.8-1.5s.5-5.3-.6-7.1" class="L"/><path fill="#058e6e" d="M282.4 142.8s-6.4.5-8 1.1l.1 3.9 8-1.1v-4" class="P"/><path d="m313.7 141 10.6 1.7s0 5.6-.4 7l-10.8-1.5s-.5-5.3.6-7.1" class="L"/><path fill="#058e6e" d="M314.9 143l8 1.2-.1 3.9-8-1v-4" class="P"/><path fill="red" d="M259 151.7l4.1-3.4-4.7-1s.7.8.5 1.5 0 2.3.1 3m79.3.1l-3-3 4.2-.4s-1 .8-1 1.4 0 1.5-.2 2"/></g><g class="K M N"><path d="M256.5 135c-.2 3 2 7.6 5.7 6 3.7-.9 2.4-5.9 4.5-7.4.1 3.2 3.4 6.5 6.5 4.5 2.5-1.8 2.8-5.5 2.3-8.3 2.2-.9 1.4 4 3.3 5 2.1 3 7 1.8 8.3-1.4.7-1 .5-5.3 1.4-2 .8 3.6 5.1 5 8 3 2.5-1.4-.2-5.8 2-6.5 2.6-1.2 1.5 1.6 1.8 3.3 0 3.2 3.2 5.4 6 3.8 2.5.1 2.5-4.8 4-4-.3 3.7 4 7.5 7.1 4.3 2.5-1.1.5-6.1 3.4-5.5 1.6 0 3.4-.1 1.7 2-.9 2.1-1 5.5 1.7 6.4 3.2 1.4 7.2-.7 7.2-4.3 2.1-1.3 1 3.2 1.8 4.6.5 4.3 7.1 3.5 7.7-.3.6-1.8.1-4.3 2.4-2.7-.6 3.3-2.7 7.7-6.7 7.5-3.2.2-5.3-3.6-5.4-5.7-1.8 3-6 3.8-8.8 1.8-1.8-.7-2-3.7-2.1-4.4-1.7 3.3-5.9 5-9 2.6-2.3-.4-1.7-5.3-3.1-2-2.2 3.7-8.8 2.4-9.3-1.8-1 4.7-9.2 5.3-10.5.5-1.2 4.7-8.7 5.8-11 1.4-.6-2-1 3.2-2.7 3.4-2.4 2.8-7.3.2-8.1-.5-1 4-7 6-9.7 2.6-1.4-1.9-2.2-6.4-1.5-7.5l1.1 1.6"/><use xlink:href="#C"/><use xlink:href="#C" x="21.8" y="-3.5"/><use xlink:href="#C" x="44" y="-2.8"/><path d="M332.2 136a1.7 1.7 0 0 0 0-3.4 1.7 1.7 0 0 0 0 3.4m-34-6c-2-.9-5 4.6-5.1 1 2-2.3-6.4-2.8-1.8-4.8 2-.2 2.8-.3 1.8-2.3-.5-3.6 6.2 3.3 3 .3-1.1-1.5-1.6-5.8 1.1-3.4-.9-3.5 3.4-6.9 3.7-1.8-.2 2.3.5 1.4 2.2 1 1.3 1.9-3.5 7-.8 4 3.2-3 2.8.6 2.8 1.8 2.4-.3 4.9 2.2 1.4 3.1-3.4-.5.7 5-3 2.8-1.4-1.6-2.8-2-5-1.8h-.3"/></g><g class="K N"><path d="M299 130.8a3 3 0 0 0 3-3 3 3 0 1 0-3 3" class="L"/><path d="M322 132c2.2-.5 4 5.5 4.9 2-1.6-2.7 6.7-1.4 2.7-4.3-2-.7-2.7-.9-1.3-2.6 1.3-3.4-6.8 2-3-.4 1.4-1.2 2.8-5.3-.4-3.5 1.6-3.2-1.8-7.5-3.2-2.5-.3 2.2-.8 1.2-2.3.5-1.8 1.5 1.9 7.5-.1 4.1-2.5-3.7-2.9 0-3.1 1.1-2.3-.8-5.3 1.1-2 2.8 3.4.2-1.8 4.8 2.2 3.3a5 5 0 0 1 5.2-.7l.5.1" class="M"/><path d="M321 132.6a3 3 0 0 1-2.3-3.6 3 3 0 1 1 6 1.2 3 3 0 0 1-3.7 2.4" class="L"/><path d="M275.2 131.6c-2.1-.6-4.3 5.3-5 1.7 1.9-2.6-6.6-2-2.3-4.5 2-.5 2.7-.6 1.5-2.5-1-3.5 6.6 2.5 3-.2-1.3-1.2-2.3-5.5.7-3.4-1.4-3.3 2.4-7.3 3.4-2.3.1 2.3.7 1.3 2.3.8 1.6 1.6-2.5 7.3-.3 4 2.8-3.4 3 .2 3 1.4 2.4-.6 5.2 1.6 1.8 3-3.4-.2 1.4 4.8-2.5 3a5 5 0 0 0-5-1h-.6" class="M"/><path d="M276.2 132.3a3 3 0 1 0-3.4-2.6 3 3 0 0 0 3.4 2.6" class="L"/></g><g class="K"><path d="M343.1 138c-1-3.7-6.8 2.5-5.5-2.6-.4-.8-4.7-3.6-1-4.2 1.9-.2 3.1.3 3-2.2 2-.3 4 4.6 3 1.1-.8-3.6 2.2-5 2.6-2.7.6-2.7 7.5-2.9 3.4-.2-1.6 3-4.2 5.7-4.6 9.2-.1.6-.3 1.3-.9 1.7z" class="M"/><path d="M340.7 134a3 3 0 0 1 3.5-2.3 3 3 0 0 1 1.3.5c-.1.6-.4 1.4-.9 1.9-.6.6-.6 1.6-.6 1.9a3 3 0 0 1-.5 1.7h-.4a3 3 0 0 1-2.4-3.6" class="L N"/><path d="M255.1 137.2c1.2-3.7 6.7 2.9 5.7-2.3.4-.7 4.9-3.3 1.3-4.1-2-.3-3.2 0-2.9-2.4-2-.5-4.3 4.4-3.1 1 1-3.7-1.9-5.3-2.5-3-.4-2.6-7.2-3.3-3.3-.3 1.4 3 3.9 5.9 4 9.4 0 .6.2 1.4.8 1.7z" class="M"/><g class="N"><path d="M257.8 133.4a3 3 0 0 0-4.7-2.1c0 .5.3 1.3.8 1.8.5.7.5 1.7.5 2 0 .2 0 1.1.3 1.7h.5a3 3 0 0 0 2.6-3.4" class="L"/><path fill="red" d="m299 141.8-3.8 1.8 3.4 2.2 4-2-3.7-2"/></g></g><g transform="matrix(-3.77953 0 0 3.77953 1576 -623.4)" class="K"><use xlink:href="#A" class="M N"/><g transform="matrix(3.77953 0 0 3.77953 -912 -623.4)" class="L"><path d="M332.8 148.2c-.6.2-1-.4-.2-.2.7-.2 1.3.4.3.2z"/><g class="N"><use xlink:href="#E"/><use xlink:href="#F"/><use xlink:href="#G"/><use xlink:href="#G" x="-.8" y="-1.7"/></g><path d="M342.3 149c1.7-.3-.5-2.5-.7-.8-.1.4.3.7.7.7z"/><g class="N"><use xlink:href="#H"/><use xlink:href="#F" x="-5.6" y="-5.9"/><use xlink:href="#G" x="-7" y="-4.3"/><use xlink:href="#F" x="-9" y="-6.4"/><use xlink:href="#I"/><use xlink:href="#H" x="-3.6" y="3.7"/><use xlink:href="#G" x="-13.1" y="-4.5"/><use xlink:href="#E" x="-11.6" y="-8.3"/><use xlink:href="#I" x="-2.6" y="-6.4"/><use xlink:href="#D" x="7.7" y="2.6"/><use xlink:href="#E" x="-8" y="-6.7"/></g></g></g></g><defs><path id="B" d="M311 173.7h-8.2v-8.1h-7.2v8.1h-8.1v7.2h8.1v8.1h7.2v-8h8.1v-7.3"/><path id="C" d="M266.2 135.3a1.7 1.7 0 0 0 1.7-1.7 1.7 1.7 0 0 0-1.7-1.6 1.7 1.7 0 0 0-1.6 1.6 1.7 1.7 0 0 0 1.6 1.7"/><path id="D" d="M329.2 147.5c1.8-.2-.5-2.5-.7-.8 0 .4.3.8.7.8z"/><path id="E" d="M344.3 155.4c1.7-.2-.5-2.4-.7-.7-.1.4.3.7.6.7z"/><path id="F" d="M344.6 153.7c1.8-.2-.5-2.5-.7-.8 0 .4.3.8.7.8z"/><path id="G" d="M344.3 151.8c1.8-.1-.5-2.4-.7-.7 0 .4.3.8.7.7z"/><path id="H" d="M340.7 148.2c1.8-.2-.5-2.5-.7-.8 0 .4.3.8.7.8z"/><path id="I" d="M336.8 153.5c1.8-.2-.5-2.4-.7-.7 0 .4.3.7.7.7z"/></defs><g transform="translate(-32.2 157.4)"><g class="O K"><path d="m326.5-69.4.1 23.5c.2 1.8.7 4 2.4 5 1.8.7 4 .9 5.7 0 1.7-1 2-3.1 2.3-5l.1-23.4c-1.5 0-2.1 1.6-2 2.9-1 7 2.5 21.6-3 24-6 .5-3.3-21.8-3.6-24 .1-1.3-.5-3-2-3z" class="M"/><g transform="matrix(3.77953 0 0 3.77953 -912.4 -623.4)" class="L"><use xlink:href="#D"/><use xlink:href="#D" y="5.2"/><use xlink:href="#D" y="1.7"/><use xlink:href="#D" y="3.5"/></g></g><g id="J"><use xlink:href="#A" class="M"/><path d="M344.7-72.5c-3.5.5-1.5 6.6 1.7 5 2.4-1.1 1-5.3-1.7-5zm5.8 0c-3.7.5-1.4 6.8 1.7 5 2.4-1.3.9-5.4-1.7-5zm5.1.4c-3 .7-1.9 5.5.8 5.6 3.8-.2 2.5-6-.8-5.6zm-16.6.4c-3.5.7-1.2 6.7 1.9 5 2.5-1.2.7-5.4-2-5zm23 .8c-3.4.7-1.2 6.6 2 5 2.4-1.3.6-5.4-2-5zm6.4.7c-3 .6-1.7 6 1.3 5.5 3.5-.6 1.7-5.8-1.3-5.5zm6.5 1.5c-3.1.7-1.8 6 1.2 5.5 3.5-.6 1.7-5.8-1.2-5.5zm-16.6 2.2c-3.5.5-1.5 6.7 1.7 5.1 2.4-1.2 1-5.4-1.7-5zm22.7.8c-2.7.4-2.2 4.6 0 5.3 3.4 1 4-4.4 1-5.2h-.5zm-20.5 4.2c-3 .6-1.7 6 1.2 5.5 3.6-.6 1.8-5.8-1.2-5.5zm25 .4c-3.5.7-1.2 6.7 1.9 5 2.5-1.2.6-5.4-2-5zm3 6.4c-3.5.7-1.2 6.7 1.9 5 2.5-1.2.7-5.4-2-5zm-27.2 0c-3.1.6-1.8 6 1.2 5.5 3.5-.6 1.7-5.8-1.2-5.5zm-1.2 6.4c-3.4.6-1.1 6.6 2 5 3-1 .5-5.3-2-5zm29.5.4c-3 .6-1.7 6 1.2 5.5 3.6-.6 1.8-5.8-1.2-5.5zm-1 6.8c-3.5.4-1.6 6.6 1.6 5 2.5-1.1 1-5.3-1.6-5z" class="K L O"/></g><use xlink:href="#J" transform="matrix(-1 0 0 1 663.6 0)"/></g></svg>