<svg xmlns="http://www.w3.org/2000/svg" xmlns:xlink="http://www.w3.org/1999/xlink" viewBox="0 0 640 480"><defs><path id="a" d="M174 90c-1 10-14-2-4-4 2 0 4 2 4 4z"/><path id="b" d="M218 113c-1 12-18-3-6-5 3 0 6 2 6 5z"/></defs><path fill="#002b7f" d="M0 0h640v240H0z"/><path fill="#ce1126" d="M0 240h640v240H0z"/><g stroke="#000" stroke-linejoin="round"><g fill="#ffd83d"><path stroke-width="1.6" d="M173 98l-1 50h-51c-7-13-14-28-10-43 3-12 17-17 28-14 12 1 23 4 34 7z"/><g stroke-width="1.2"><path stroke-linecap="round" d="M116 100v29m4-32v39m4-41v46m4-47v36m4-36v36m4-37v37m4-37v37m4-37v38m4-37v37m4-35v37m4-37v43m4-43v38m4-38v38"/><path d="M141 94c10 3 21 7 25 17 2 7-2 18-11 17-8-2-16-5-23-1-5 7-15 3-20 4v19c0 3 1 4 3 3h62V98l-36-4z"/></g><g stroke-width="1.6"><use xlink:href="#a"/><use x="-9" y="-2" xlink:href="#a"/><use x="-18" y="-4" xlink:href="#a"/><use x="-27" y="-6" xlink:href="#a"/><use x="-36" y="-7" xlink:href="#a"/><use x="-45" y="-6" xlink:href="#a"/><use x="-53" y="-3" xlink:href="#a"/><use x="-60" y="2" xlink:href="#a"/><use x="-65" y="9" xlink:href="#a"/><use x="-68" y="18" xlink:href="#a"/><use x="-68" y="27" xlink:href="#a"/><use x="-66" y="35" xlink:href="#a"/><path d="M172 96c0 8-9 3-13 2-13-3-27-7-38-1-8 5-8 15-6 23 2 9 6 17 10 25-4 4-11 0-11-6-6-11-10-26-4-39 6-10 19-14 30-11 11 1 21 4 32 7z"/></g><path stroke-width="1.6" d="M182 98l2 50h50c7-13 14-28 11-43-4-12-18-17-29-14-12 1-23 4-34 7z"/><g stroke-width="1.2"><path stroke-linecap="round" d="M240 100v29m-4-32v39m-5-41v46m-4-47v36m-4-36v36m-4-37v37m-4-37v37m-4-37v38m-4-37v37m-4-35v37m-4-37v43m-4-43v38m-4-38v38"/><path d="M214 94c-10 3-20 7-25 17-2 7 3 18 11 17 8-2 16-5 23-1 5 7 15 3 20 4v19c1 3 0 4-3 3h-62V98l36-4z"/></g><g stroke-width="2" transform="matrix(-.8 0 0 .8 355 0)"><use xlink:href="#b"/><use x="-11" y="-3" xlink:href="#b"/><use x="-22" y="-6" xlink:href="#b"/><use x="-34" y="-7" xlink:href="#b"/><use x="-45" y="-9" xlink:href="#b"/><use x="-56" y="-8" xlink:href="#b"/><use x="-67" y="-4" xlink:href="#b"/><use x="-76" y="2" xlink:href="#b"/><use x="-82" y="11" xlink:href="#b"/><use x="-85" y="22" xlink:href="#b"/><use x="-85" y="33" xlink:href="#b"/><use x="-83" y="44" xlink:href="#b"/><path d="M215 120c0 10-11 4-17 2-15-3-32-9-47-1-10 6-10 20-8 29 3 11 8 21 14 31-6 6-14 1-14-7-7-15-13-33-6-49 8-13 24-17 38-14 14 2 27 6 40 9z"/></g><g stroke-width="1.6"><path d="M178 43l-5 7 5 8 4-8-4-8zm0 19l-5 8 5 7 4-7-4-8zm-15-2l6 4 7-4-7-4zm16 0l7 4 6-4-6-4-7 4z"/><circle cx="177.6" cy="60.1" r="3.1"/><circle cx="177.6" cy="80" r="8.4"/></g></g><path fill="none" stroke-linecap="round" stroke-width="1.2" d="M175 72v5a50 50 0 00-5 1m16 0a50 50 0 00-6-1v-5m-11 10a49 49 0 019-1l8 1"/><g fill="#ffd83d" stroke-width="1.6"><path d="M169 94c0 14-2 28-7 38l8-4c3-11 4-26 5-33zm17 0l-6 1c1 7 2 22 5 33l8 4c-5-10-6-24-7-38z"/><path d="M178 124c-9-1-18 4-18 13-1 8-5-3-7-4-5-5-11-10-18-8-7 3-10 11-9 18-3-10-15-16-24-11-5 0-7 5-2 8 7 11 9 24 17 35h121c9-12 10-28 20-39-2-5-9-6-14-6-7 0-12 9-15 12 1-8-3-16-11-18-10 0-16 9-21 16-3-5-3-13-10-14-3-2-6-2-9-2z"/></g><g stroke-width="1.2"><path d="M238 175c0 5-27 10-60 10s-61-5-61-10c0-4 27-7 61-7 33 0 60 3 60 7z"/><g fill="#ffd83d"><circle cx="177.6" cy="91.5" r="2.8"/><circle cx="177.6" cy="97.6" r="3"/><circle cx="177.6" cy="104.2" r="3.3"/><circle cx="177.6" cy="111.4" r="3.8"/></g></g></g><path d="M242 144h-1a39 39 0 00-4 5l-2 1a10 10 0 01-1-3h-1l1 5c1 2 0 6-2 10-1 2 0 1 1 0a42 42 0 0112-11c1-1 0-2-1-1l-3 1-1-1 2-5v-1zm-129 0v1a14 14 0 012 5v1l-4-1c-1-1-2 0-1 1a43 43 0 0112 11c1 1 2 2 1 0a19 19 0 01-1-10v-5h-1v3l-3-1a38 38 0 00-4-5h-1zm102-8l-1 1-3 6c-1 1-2 0-2-1-1-2-2-1-1 0v17h1a26 26 0 019-14v-1a14 14 0 01-2 1l-2-1a21 21 0 012-7l-1-1zm-75 0v1a21 21 0 011 7l-2 1a15 15 0 01-2-1v1c5 4 8 8 9 14h1v-17c1-1 0-2-1 0 0 1-1 2-2 1a38 38 0 01-3-6l-1-1zm38-2l-1 1a10 10 0 01-2 5l-3 1a18 18 0 01-2-2c-1-1-2-1-1 1 4 6 8 10 8 19l1 1v-1c0-9 4-13 8-19 1-2 0-2-1-1a17 17 0 01-2 2l-3-1a10 10 0 01-2-5l-1-1z"/></svg>