<svg xmlns="http://www.w3.org/2000/svg" xmlns:xlink="http://www.w3.org/1999/xlink" viewBox="0 0 640 480"><defs><path id="a" d="M174.2 90.4c-.9 9.5-14.1-2.5-4.2-4 2.1 0 4.3 1.8 4.2 4z"/><path id="b" d="M217.7 113c-1 11.8-17.6-3.1-5.2-5 2.7 0 5.3 2.3 5.2 5z"/></defs><path fill="#002b7f" d="M0 0h640v240H0z"/><path fill="#ce1126" d="M0 240h640v240H0z"/><g stroke="#000" stroke-linejoin="round"><g fill="#ffd83d"><path stroke-width="1.6" d="M173.1 97.8l-1.5 50h-50.7c-6.9-13-13.9-27.8-10.3-42.9 3.5-11.7 17.6-16.5 28.7-14 11.5 1.1 22.6 4.4 33.8 7z"/><g stroke-width="1.2"><path stroke-linecap="round" d="M115.6 100.2V129m4-31.8v38.4m4.2-40.4V141m4-46.8v36m4-36.1v36.2m4.1-37.6v37.6m4.1-37.6v37.6m4-37.2v37.6m4.2-37.2V131m4-35.2v37.6m4-37.2v42.4m4.2-42.4v37.6m4-37.6v37.6"/><path d="M141.1 94.4c10 2.2 20.6 7 25 16.9 2.4 7-2.5 17.9-11 16.2-7.6-1.3-16.2-5-23.4-.3-4.3 7.2-14.5 2.4-19.2 4.2-.7 6.2 0 12.4-.3 18.6-.6 2.8.4 3.9 3.2 3.2h62V97.6L141 94.4z"/></g><g stroke-width="1.6"><use xlink:href="#a"/><use x="-8.9" y="-2.2" xlink:href="#a"/><use x="-17.9" y="-4.4" xlink:href="#a"/><use x="-27" y="-5.9" xlink:href="#a"/><use x="-36" y="-6.8" xlink:href="#a"/><use x="-44.8" y="-6.3" xlink:href="#a"/><use x="-53.3" y="-3.4" xlink:href="#a"/><use x="-60.4" y="1.8" xlink:href="#a"/><use x="-65.4" y="9.1" xlink:href="#a"/><use x="-67.9" y="17.8" xlink:href="#a"/><use x="-67.8" y="26.6" xlink:href="#a"/><use x="-66.1" y="35.4" xlink:href="#a"/><path d="M172 95.6c0 8-9.2 3.4-13.5 2-12.3-2.7-26.1-6.9-38-.4-7.9 4.6-8 15.3-6 23.2 2 8.6 6.2 16.6 10.8 24.2-4.7 4.8-11 .8-11.2-5.1-5.7-12-10.5-26.7-4.2-39.4 6-10.3 19.2-13.7 30.3-11.3 10.8 1.2 21.2 4.4 31.8 6.8z"/></g><path stroke-width="1.6" d="M182 97.8l1.6 50h50.7c6.9-13 13.9-27.8 10.3-42.9-3.5-11.7-17.6-16.5-28.7-14-11.5 1.1-22.6 4.4-33.8 7z"/><g stroke-width="1.5"><path stroke-linecap="round" stroke-width="1.2000000000000002" d="M239.6 100.2V129m-4-31.8v38.4m-4.2-40.4V141m-4-46.8v36m-4-36.1v36.2m-4.1-37.6v37.6m-4.1-37.6v37.6m-4-37.2v37.6M207 93.5V131m-4-35.2v37.6m-4-37.2v42.4m-4.2-42.4v37.6m-4-37.6v37.6"/><path stroke-width="1.2000000000000002" d="M214 94.4c-9.8 2.2-20.5 7-24.8 16.9-2.5 7 2.4 17.9 11 16.2 7.6-1.3 16.1-5 23.3-.3 4.3 7.2 14.5 2.3 19.2 4.2.7 6.1 0 12.4.3 18.6.6 2.7-.4 3.8-3.2 3.2h-62V97.6l36.3-3.2z"/></g><g stroke-width="2" transform="matrix(-.8 0 0 .8 355.2 0)"><use xlink:href="#b"/><use x="-11.1" y="-2.7" xlink:href="#b"/><use x="-22.4" y="-5.5" xlink:href="#b"/><use x="-33.7" y="-7.4" xlink:href="#b"/><use x="-45" y="-8.5" xlink:href="#b"/><use x="-56" y="-7.9" xlink:href="#b"/><use x="-66.6" y="-4.3" xlink:href="#b"/><use x="-75.5" y="2.3" xlink:href="#b"/><use x="-81.8" y="11.4" xlink:href="#b"/><use x="-84.9" y="22.2" xlink:href="#b"/><use x="-84.8" y="33.3" xlink:href="#b"/><use x="-82.6" y="44.2" xlink:href="#b"/><path d="M215 119.5c.1 10-11.5 4.2-17 2.4-15.3-3.3-32.5-8.5-47.4-.5-9.8 6-10 19.2-7.4 29 2.5 10.9 7.6 20.9 13.4 30.3-5.9 6-13.7 1-14-6.4-7-15-13-33.3-5.2-49.2 7.4-13 24-17 37.8-14.2 13.6 1.6 26.6 5.7 39.8 8.6z"/></g><g stroke-width="1.6"><path d="M177.6 42.5l-4.2 7.7 4.2 7.7 4-7.7-4-7.8zm0 19.5l-4.2 7.7 4.2 7.7 4-7.8-4-7.7zm-14.7-2l6.5 4 6.4-4-6.4-4.2zm16.4 0l6.5 4 6.5-4-6.5-4.2-6.4 4.2z"/><circle cx="177.6" cy="60.1" r="3.1"/><circle cx="177.6" cy="80" r="8.4"/></g></g><path fill="none" stroke-linecap="round" stroke-width="1.2" d="M175.4 72v5.2a50 50 0 00-5.9.6m16.2 0a49.7 49.7 0 00-6-.6v-5.3m-10.3 10.2a49.1 49.1 0 018.2-.7c2.7 0 5.4.2 8 .7"/><g fill="#ffd83d" stroke-width="1.6"><path d="M169.4 94.2c-.8 13.6-2.4 27.6-7.7 37.6l8.6-3.5c3-11.4 3.7-26.2 4.6-33.3zm16.4 0l-5.6.8c1 7 1.6 21.9 4.6 33.3l8.6 3.5c-5.2-10-6.8-24-7.6-37.6z"/><path d="M177.6 123.8c-8.2-.7-17.2 4.7-18 13.4-.1 7.7-4.2-3.1-6.8-4.4-4.5-4.9-11.2-10-18.1-7.8-7 2.8-9.6 11.2-9 18.2-2.6-9.9-14.6-16-24-11.4-4.8.7-6.7 5.6-1.8 8 7.4 11 9.5 24.6 17.4 35.4h120.5c8.9-12 10.3-28 20.5-39.2-2.5-5.2-9.3-5.9-14.4-5.6-7-.5-12.3 8.5-14.4 11.2.2-7.2-3.5-16-11.4-17.2-9.6 0-16.2 8.3-21.4 15.3-2.7-4.2-2.6-12.3-9.4-14-3-1.4-6.4-2-9.7-2z"/></g><g stroke-width="1.2"><path d="M237.7 175.2c0 4.5-26.9 9.4-60.1 9.4s-60.2-4.8-60.2-9.4c0-4.4 27-6.8 60.2-6.8 33.1 0 60 2.4 60 6.8z"/><g fill="#ffd83d"><circle cx="177.6" cy="91.5" r="2.8"/><circle cx="177.6" cy="97.6" r="3"/><circle cx="177.6" cy="104.2" r="3.3"/><circle cx="177.6" cy="111.4" r="3.8"/></g></g></g><path d="M242.2 143.8c-.2 0-.5.2-.8.5a38.6 38.6 0 00-4.4 4.7c-1 1.3-2.2 1-2.4.8a9.6 9.6 0 01-.8-2.4c-.4-1-1-1.2-1.2 0 0 1.3.5 2.8 1 5s0 5.8-2 10c-.6 1.4.6.9 1.4-.6a42.4 42.4 0 0111.6-11c1-.7.8-1.4-.5-1.1-1.4.3-2.1 1.4-3.5 1.4-.5 0-1 0-1-1.1 0-1 1.4-3.5 2.6-5.1.5-.8.4-1 0-1zm-129.3 0c-.3 0-.5.4 0 1a13.6 13.6 0 012.6 5.2c.1 1.1-.4 1.1-.9 1.1-1.5 0-2.2-1.1-3.5-1.4-1.3-.3-1.6.4-.6 1.1a42.7 42.7 0 0111.7 11c.8 1.6 1.9 2 1.3.7a19 19 0 01-1.9-10.1c.4-2.2 1-3.7.9-5 0-1.2-.8-1-1 0l-.9 2.3c-.3.4-1.4.6-2.4-.7a38.4 38.4 0 00-4.4-4.7l-.8-.5zm102.2-8.1c-.2 0-.5.3-.6.8-.6 1.6-2.3 5-3.2 6.2s-2 .7-2.6-.8c-1-2.1-1.6-.9-1 .5 1.7 3.5 1.4 9.3.4 16.2-.3 1.3.5 1.2.8 0a26 26 0 019.4-14c1-.8.3-1.3-.4-.8a14.4 14.4 0 01-2.2 1.2c-.8.3-1.3.2-1.5-.8a21 21 0 011.3-7.2c.2-.7 0-1.2-.2-1.3a.2.2 0 00-.2 0zm-75.3 0c-.2 0-.4.5-.1 1.3a20.8 20.8 0 011.3 7.2c-.3 1-.8 1-1.6.8a15 15 0 01-2.2-1.3c-.6-.4-1.4 0-.4.9 4.8 4 8.2 8.5 9.6 14 .2 1.2.9 1.3.7 0-1.1-7-1.3-12.7.3-16.2.7-1.4 0-2.6-1-.5-.6 1.5-1.7 2-2.6.8a38.3 38.3 0 01-3.2-6.1c-.1-.6-.4-.8-.6-1zm37.8-1.8c-.6 0-.7.8-.7 1.4a9.8 9.8 0 01-1.6 5.1c-.8 1-1.9.7-2.8.2a17.8 17.8 0 01-2.7-1.8c-1-.8-1.9-.3-.6 1.5 3.7 5.3 7.7 9.8 7.7 18.4 0 1 .2 1.4.7 1.4s.6-.3.6-1.5c0-8.5 4-13 7.7-18.4 1.3-1.7.5-2.2-.5-1.4a16.8 16.8 0 01-2.7 1.8c-1 .5-2 .8-2.8-.2a9.8 9.8 0 01-1.6-5.1c0-.6-.1-1.4-.8-1.4z"/></svg>