<svg xmlns="http://www.w3.org/2000/svg" viewBox="0 0 640 480"><style>.B{stroke:#000}.C{stroke-linejoin:round}.D{fill:#ffd83d}.E{stroke-width:1.6}.F{stroke-width:1.2}</style><defs><path id="A" d="M174 90c-1 10-14-2-4-4 2 0 4 2 4 4z"/><path id="B" d="M218 113c-1 12-18-3-6-5 3 0 6 2 6 5z"/></defs><path fill="#002b7f" d="M0 0h640v240H0Z"/><path fill="#ce1126" d="M0 240h640v240H0z"/><g class="B C D E"><path d="m173 98-1 50h-51c-7-13-14-28-10-43 3-12 17-17 28-14 12 1 23 4 34 7z"/><use href="#A"/><use x="-9" y="-2" href="#A"/><use x="-18" y="-4" href="#A"/><use x="-27" y="-6" href="#A"/><use x="-36" y="-7" href="#A"/><use x="-45" y="-6" href="#A"/><use x="-53" y="-3" href="#A"/><use x="-60" y="2" href="#A"/><use x="-65" y="9" href="#A"/><use x="-68" y="18" href="#A"/><use x="-68" y="27" href="#A"/><use x="-66" y="35" href="#A"/><path d="m182 98 2 50h50c7-13 14-28 11-43-4-12-18-17-29-14-12 1-23 4-34 7z"/></g><path stroke-width="1.3" d="M164.6 101.5v26.2m-9.5-29.4V134m-9.4-39.7v37.4M136.2 93v40.4m-9.4-39.2v44.5m-9.4-38.4V136m73-34.5v26.2m9.5-29.4V134m9.4-39.7v37.4m9.5-38.7v40.4m9.4-39.2v44.5m9.5-38.4V136" class="B C"/><g class="D B C"><g stroke-width="2" transform="matrix(-.8 0 0 .8 355 0)"><use href="#B"/><use x="-11" y="-3" href="#B"/><use x="-22" y="-6" href="#B"/><use x="-34" y="-7" href="#B"/><use x="-45" y="-9" href="#B"/><use x="-56" y="-8" href="#B"/><use x="-67" y="-4" href="#B"/><use x="-76" y="2" href="#B"/><use x="-82" y="11" href="#B"/><use x="-85" y="22" href="#B"/><use x="-85" y="33" href="#B"/><use x="-83" y="44" href="#B"/></g><g class="E"><path d="m178 43-5 7 5 8 4-8-4-8zm0 19-5 8 5 7 4-7zm-15-2 6 4 7-4-7-4zm16 0 7 4 6-4-6-4z"/><path d="M180.7 60.1a3.1 3.1 0 0 1-6.2 0 3.1 3.1 0 0 1 6.2 0zM186 80a8.4 8.4 0 1 1-16.8 0 8.4 8.4 0 1 1 16.8 0z"/></g></g><path fill="none" stroke-linecap="round" d="M175 72v5a50 50 0 0 0-5 1m16 0a50 50 0 0 0-6-1v-5m-11 10a49 49 0 0 1 9-1l8 1" class="B C F"/><g class="D B C"><g class="E"><path d="M133.7 88c-32 .4-30.8 30-19.7 51 0 6 7 10 11 6-11.8-18.1-17.2-39.1-4-48 13.2-8.1 51 14.7 51-1-14-3-25.6-7.4-38.3-8zm87.6 0c-12.7.6-24.3 5-38.3 8 0 15.7 37.8-7.1 51 1 13.2 8.9 7.8 29.9-4 48 4 4 11 0 11-6 11.1-21 12.3-50.6-19.7-51z"/><path d="M169 94c0 14-2 28-7 38l8-4c3-11 4-26 5-33zm17 0-6 1c1 7 2 22 5 33l8 4c-5-10-6-24-7-38z"/></g><path stroke-width="1.7" d="M177.5 118.4c-9-.5-17 9.5-17.3 17.1-3-7.2-14.5-19.6-25.4-16.5-7 3.3-9.8 12.5-8.8 20-6.5-20.8-24.1-19.4-26-3.2 13 11.5 7 28 17 37.8h121c10-9.8 4-26.3 17-37.8-2-16.2-19.5-17.6-26 3.2 1-7.5-1.8-16.7-8.8-20-10.9-3.1-22.5 9.3-25.4 16.5-.2-7.6-8.3-17.6-17.3-17z"/></g><path d="M238 175c0 5-27 10-60 10s-61-5-61-10c0-4 27-7 61-7 33 0 60 3 60 7z" class="B C F"/><path d="m177.7 131.2-.2.4.2-.4zm-.2.4v25l.5-.5c0-9 11.1-17.6 9-19.4-7.4 7.3-8.4-.9-9-4.6l-.5-.5zm0 25v-25l-.5.5c-.6 3.7-1.6 11.9-9 4.6-2.1 1.8 9 10.4 9 19.4l.5.5zM140 133c-1.1.9 1 5.6 1 8-1.7 1.2-2.5.8-4 0v1c5 4 8 8 9 14h1v-17c0-5.3-1.4 3.2-3 1-1.8-2.5-2-5.7-4-7zm75 0c-2.1 1.3-2.3 4.5-4 7-1.6 2.2-3-6.3-3-1v17h1c1-6 4-10 9-14v-1c-1.5.8-2.3 1.2-4 0 0-2.4 2.1-7.1 1-8zm-102 8v1c1.1 2 2 3.8 2 6l-4-1c-1-1-2 0-1 1a43 43 0 0 1 12 11c1 1 2 2 1 0a31.9 31.9 0 0 1-1-15h-1l-.3 3c-.3 2.3-4.8-4-6.7-6h-1zm128 0c-2 2-6.4 8.3-6.7 6l-.3-3h-1c.6 6.4.7 9.6-1 15-1 2 0 1 1 0a43 43 0 0 1 12-11c1-1 0-2-1-1l-4 1c0-2.2.9-4 2-6v-1h-1z"/><path d="M180.4 91.5a2.8 2.8 0 1 1-5.6 0 2.8 2.8 0 1 1 5.6 0zm.2 6.1a3 3 0 1 1-6 0 3 3 0 1 1 6 0zm.3 6.6a3.3 3.3 0 1 1-6.6 0 3.3 3.3 0 1 1 6.6 0zm.5 7.2a3.8 3.8 0 1 1-7.6 0 3.8 3.8 0 1 1 7.6 0z" class="B C D F"/></svg>