<svg xmlns="http://www.w3.org/2000/svg" xmlns:xlink="http://www.w3.org/1999/xlink" viewBox="0 0 640 480"><path fill="#ffb700" d="M0 0h640v480H0z"/><path fill="#ff5b00" d="M27 240l88-213h88v426h-88z"/><path fill="#005641" d="M27 27h88v426H27z"/><path fill="#8d2029" d="M229 27h387v426H229z"/><path id="a" fill="#ffb700" stroke="#000" stroke-width="1.1" d="M579 409s4 7 8 10c6 4 18 4 23 9 6 6 0 15 0 15v5h-6c-3 0-4 2-9 2-12-1-11-12-12-21l-3-12-1-8z"/><use transform="matrix(-1 0 0 1 845 0)" xlink:href="#a"/><use transform="matrix(1 0 0 -1 0 480)" xlink:href="#a"/><use transform="rotate(180 423 240)" xlink:href="#a"/><path fill="#ffb700" d="M364 340c3-3 8 4 12-2 6 6 13-2 19 3 10-4-2-20 13-19 5-4 8-9 0-8-11-6 2-17 5-24 4-8 7-17 7-27 2 10-3 20-7 28-3 6 10-3 14-3 14-7 31-14 47-8 10 3 15 13 24 17 6 5 16 9 16 19 3 9-3 15-12 16-9 3-9 12-1 6 4 8 9-3 13 2 6 3 8-5 13 1 12 1-7-14 1-20 6-3 13-12 2-14-8-11-2-26 3-37 3-10 4-22 1-32l-7-12c6-5 12-13 9-21-3-11-15-15-26-13-13 0-34 9-40-6-5 1-8 11-9 0-2-7 14-8 2-10-7-1-12 11-15 0-3-9 10-14 14-7 2-5 1-13 8-7 9 3 6 14 3 18 7 0 14-7 11-15-4-9 13 4 8 9-2 4-5 9 1 6 6-2 5-13 10-4 2 3 15 9 7 1-3-6-1-18 11 3 5 9 25 11 22-3-2-7-11-3-10 3-19-8-33-30-57-28-13-2-30 3-35 16-4 8 4 15 6 21-7 4 2 21 3 9 8-6 18 6 28 4 15 1 30-6 45-2 8 4 6 16-2 19-15 8-33 2-49 6h-35c4 2 8 6 1 6-10-4-2 12-11 6-7-10-16 16-17-3-2-9-4-6-6 2-2 6-5-10-7-1-3 5-6 5-6-1-1 3-10 12-9 3 2-8-10 0-8-4 2-3 7-14 3-3-5 9 9-5 6 5 0 9 8 1 8-4 2-2 2 12 5 4 2-4 3-8 5-2 4 7 7-16 9-3 1 5 3 13 8 6 3-8 16 7 14-5-1-4 10 0 9-2-5-7-16-6-20-13 2 4 16 9 13 4 0-6-9-17-13-16-1 8-7-4-8 5-2 3-10-11-3-3 6 6 1-13 7-1 4 5 4-9 7 0 3 2 16 13 11 3-1-9-9-13-11-21 0 4 0 15-4 6-7-6 0 1 3 1 1-5-3-15 3-6-1 6 12 21 10 8 1-8 1-18-3-24 4-2 10-17 4-11-7 10-19-14-22 1-2 3-7-8-13-6 1 9-5 7-10 3-5 0-12-2-10 5-5 8-16 5-23 8-6 2-2-12-11-8-11 9 5 23 13 30 1 0-1-8 3-2 5 6 4-9 7 0 3 5 16 16 7 17-3-2-13 2-8-4-8 1-19-8-24-1 0 2-3 7-1 8 5-1 13-3 8 4 4-1 9-5 11 1 2-9 4 2 8 3 3-9 13 0 4 4-17 9-31 29-24 48 4 12 15 22 28 26-2-5-3-23 0-22-5 15 7 30 6 45-1 11-13 9-21 10-3 1-10 14-1 9z"/><path fill="#ffb700" d="M461 340c3-5 5 3 9 1 3-7 9 5 13-2 2-1 11 7 11-3-4-8 0-16 6-22 4-7-12-2-8-11 0-3 6-6 0-8-7-8-20-18-30-16-2 10 8 18 13 26 3 7 2 15 2 23-4 5-11 3-17 5-4 2-7 12 1 6zm-143-24c-2-7 12-4 5-8-5-4 12-4 5-10-3 1-5 5-7-1-3-6 5-10-1-14-3-5 11 1 6-5-5 1-12-8-13 0-4-4-9 2-3 3 9-1-2 5 2 8 3 3 0 14-3 10-7-4-5 7 1 6 6 2-6 6 1 6 5-2 3 9 7 4zm39-17c6-3 11-9 3-13-6-4-7-12-12-17l-19-18c-3 1-12 0-6 4 2 1 9-6 6 1-1 3-9 11-2 7 2-1 3-9 3-3 0 4-9 8-5 10 4-1 5-12 5-4 1 5-4 8 1 11 1 5-1 19 6 11 6 3 10 11 16 12l3-1zm-34-26c-1-6-17-5-8 0 2 1 7 3 8 0zm4 0c7-8-7 1-1 1l1-1zm-4-6c0-5-18-6-10 0 3 0 8 4 10 0zm0-5c-1-3-15-9-14-2 3 2 12 5 14 2zm4-5c6-6-5-1-3 2l3-2zm-4 0c-3-8-21-3-6 0 1 1 6 3 6 0zm5-7c8-2 7-15-2-13-5 2 3 9-5 9-6 1-14-1-10-7-6-8-15 8-5 10 7 3 15 3 22 1z"/><path fill="#ffb700" d="M324 244v-6l2-25c1-37 3-65 7-72 1-3 1-3-3 0a36 36 0 00-11 13c-6 12-9 27-9 61 0 18 1 21 2 23v6c1 2 11 1 12 0zm56-36l-1-3c-1-3-1-3-3-3a65 65 0 01-23-7l-7-2c-2 2 1 5 5 7a64 64 0 0018 4c3 0 3 0 1 2l-1 2h11z"/></svg>