<svg xmlns="http://www.w3.org/2000/svg" xmlns:xlink="http://www.w3.org/1999/xlink" viewBox="0 0 640 480"><defs><path id="a" d="M177 696c0 25-9 45-21 45s-21-20-21-45 9-44 21-44 21 20 21 44z"/><path id="b" d="M248 140l-12-11-12 11-12-11-13 11"/><path id="c" d="M395 140l12-11 12 11 12-11 12 11"/><path id="d" d="M312 272c0 3-4 6-9 6s-8-3-8-6 4-7 8-7 9 3 9 7z"/><path id="e" d="M280 273c0 3-2 5-5 5s-5-2-5-5 2-4 5-4 5 2 5 4z"/><path id="f" d="M209 776c0 8-10 14-23 14s-23-6-23-14 10-14 23-14 23 6 23 14z"/></defs><g fill-rule="evenodd"><path fill="#00319c" d="M0 0h213v480H0z"/><path fill="#ffde00" d="M213 0h214v480H213z"/><path fill="#de2110" d="M427 0h213v480H427z"/></g><g stroke="#000"><g fill-rule="evenodd"><path fill="#ff1900" stroke-width=".7" d="M360 320l25 35c1 2 2 4 0 6s-1 6 0 8c3 4 6 4 8 3l19-11c2-2 2-5 0-9-2-2-6-4-8-3s-4-1-5-3l-24-35"/><use fill="#a77b3b" stroke-width="2.5" transform="matrix(.53 -.42 .44 .5 -32 20)" xlink:href="#a"/><path fill="#ff1900" stroke-width=".7" d="M262 306l-21 37c-2 2-3 4-5 3s-7 2-8 4c-2 4-1 7 1 8l19 10c2 1 5 0 8-4 1-2 1-7-1-8s-1-3 0-5l22-37"/><path fill="#a77b3b" stroke-width="1.7" d="M331 281h-19c-1 0-7 35-13 49-7 16-29 30-29 30s13 4 17 7c1 0 22-5 25-30 2 25-15 37-15 37s24 7 24 23c0-16 25-23 25-23s-12-12-15-37c5 25 24 30 25 30 3-3 17-7 17-7s-22-14-30-30c-6-14-11-49-12-49zm-83-117l37 12c12 0 24-12 24-24 1-26-10-35-12-35l5-4-7-7s2-12 26-12c25 0 25 12 25 23s-12 12-12 35c0 12 12 24 24 24l37-12v117H248V164z"/></g><g fill="none"><path stroke-width=".2" d="M304 169l3 7 2-7 3 7 5-7 2 7 2-7 4 7 4-7 2 7 3-7"/><path stroke-width=".1" d="M314 143l-5 25m7-25v25m5-25v25m5-25l3 25m2-25l3 25"/></g><path fill="#a77b3b" fill-rule="evenodd" stroke-width="1.7" d="M224 94c-25 11-25 35-25 46v234s2-14 12-24l13-11 12-12c9-8 12-23 12-35V129s0-12-24-35z"/><g fill="none"><g stroke-width="1.7"><use xlink:href="#b"/><path d="M248 153l-12 11-12-12-12 12-13-12"/><use y="47" xlink:href="#b"/></g><path stroke-width="2.5" d="M236 129v198"/><path stroke-width="2.3" d="M224 141v197"/><path stroke-width="2.5" d="M212 129v222"/></g><path fill="#a77b3b" fill-rule="evenodd" stroke-width="1.7" d="M419 94c24 11 24 35 24 46v234s-1-14-12-24l-12-11-12-12c-9-8-12-23-12-35V129s0-12 24-35z"/><g fill="none"><g stroke-width="1.7"><use xlink:href="#c"/><path d="M395 153l12 11 12-12 12 12 12-12"/><use y="47" xlink:href="#c"/></g><path stroke-width="2.5" d="M407 129v198"/><path stroke-width="2.3" d="M419 141v197"/><path stroke-width="2.5" d="M431 129v222"/></g><use fill="#a77b3b" fill-rule="evenodd" stroke-width="2.5" transform="matrix(.64 .25 -.27 .61 361 -165)" xlink:href="#a"/></g><g fill-rule="evenodd"><path fill="red" d="M248 176h147v70H248z"/><path fill="#564dff" d="M248 246h147v35c0 23-37 23-74 46-36-23-73-23-73-46v-35z"/></g><path fill="none" stroke="#ff0" stroke-width="1.4" d="M248 175h147v105c0 24-37 24-74 47-36-23-73-23-73-47V176z"/><g fill-rule="evenodd"><g fill="#ff0" stroke="#000"><path d="M294 180s-24 17-24 34 26 22 26 22-9 0-9 22c0 11 26 5 26 11v27c0 5-17 0-17 5 0 3 12 17 25 17s26-14 26-17c0-5-17 0-17-5v-27c0-6 25 0 25-11 0-22-8-22-8-22s25-6 25-22-24-34-24-34 14 23 14 34c0 5-7 16-24 16 0 0-4-5-8 0 0 0-5-5-9 0-1 2-3-5-8 0-2 2-4-5-9 0-8 0-25-5-25-16s15-34 15-34z"/><path d="M295 278c-2 1 2 19 3 20h14c1-1 0-18-2-19s-14-2-15-1zm53 0c2 1-2 19-3 20h-14c-1-1 0-18 2-19 1-1 14-2 15-1z"/><g stroke-width="1.2"><use xlink:href="#d"/><use x="35" xlink:href="#d"/></g></g><path d="M337 308l-4 2c-3 0-5-1-5-3s2-2 4-2 5 1 5 3zm-22 0c0 1-2 2-5 2-2 0-4-1-4-3s2-2 4-2c3 0 5 1 5 3z"/><g fill="#ff0" stroke="#000"><path stroke-width=".7" d="M321 220l-5-7-9 1 2-8-7-5 7-5-2-8 9 1 5-7 6 7 8-1-1 8 7 5-7 5 1 8-9-1zm37 25l15 7 14-7-14-7-15 7zm-105 0l15 7 14-7-14-7-15 7z"/><path stroke-width="1.1" d="M535 659c-3-7-14-11-21-11s-14 0-22 11c0-14 11-21 22-21a23 23 0 0121 21z" transform="matrix(.6 -.33 .34 .57 -165 87)"/><g stroke-width=".7"><use xlink:href="#e"/><use x="-5" y="16" xlink:href="#e"/><use x="-7" y="7" xlink:href="#e"/><use x="5" y="16" xlink:href="#e"/><use x="7" y="7" xlink:href="#e"/><use y="9" xlink:href="#e"/></g></g><path fill="#da4500" d="M298 120c-13 0-14 2-20 4 0-5 14-11 26-11 0 4-3 7-6 7z"/><path fill="#cac9c7" d="M317 108c0 3-3 5-5 5s-5-3-5-5 2-5 5-5 5 2 5 5z"/><path fill="#ff0" stroke="#000" stroke-width=".7" d="M265 92v7h12v35h8V99h12v-7h-12V82h-8v10h-12z"/><path fill="#da4500" d="M304 113a79 79 0 00-29 3c0-7 8-15 23-15 3 0 6 8 6 12z"/><path fill="#008500" stroke="#000" stroke-width=".7" d="M67 613c-14-14-16-21 4-10l284 247-4 7L67 613z" transform="matrix(.39 .3 -.14 .24 237 71)"/><g fill="#008f00"><path d="M228 330c1-10-18-22-19-21s1 7 5 10c-7-3-14-6-15-4 0 2 11 7 12 9 0 1-8 1-8 3s24 13 25 3zm-19-30c1-11-19-22-19-22-1 1 1 7 4 10-6-3-14-5-14-4-1 2 11 7 12 9 0 2-9 2-8 3 0 1 24 13 25 4zm-15-28c1-11-18-22-19-22-1 1 1 7 5 10-7-3-15-5-15-4 0 2 11 7 12 9 0 2-8 2-8 3s24 14 25 4zm-14-31c0-10-19-22-20-21s1 7 5 10c-7-4-14-6-14-4-1 2 11 7 11 9 1 1-8 1-8 3 0 1 24 13 26 3z"/><path d="M185 240c9-6 7-27 6-28-1 0-5 5-6 10-1-7-3-14-5-14-2 1 1 13 0 15-1 1-6-6-7-5s3 27 12 22zm13 27c11-3 17-24 16-24s-7 3-9 7c2-7 2-15 0-15-2 1-4 13-6 14-1 1-3-7-4-7-2 1-7 26 3 24zm16 27c10-5 10-27 9-27s-5 4-6 9c-1-8-2-15-4-14s-1 13-2 14-5-6-7-5c-1 1 1 27 11 23zm18 35c10-4 13-25 12-26-1 0-6 4-8 9 1-8 0-15-2-14-2 0-2 12-3 14-2 1-5-7-6-6-2 0-3 27 7 23z"/></g><g stroke="#000"><use fill="#ff1900" stroke-width="1.1" transform="matrix(.6 .32 -.34 .57 390 -147)" xlink:href="#f"/><g fill="#ff0" stroke-width=".5"><path d="M156 415v-7h7v-8h7v7h7v8h-7v17h-7v-17zm7 60h7v205h-7z" transform="matrix(.5 .16 -.18 .47 451 -4)"/><path d="M159 677h15v56h-15zm-3-238h21c14 0-3 39-3 39h-14s-18-39-4-39zm18-5c0 3-4 5-7 5s-8-2-8-5 4-5 8-5 7 2 7 5z" transform="matrix(.5 .16 -.18 .47 451 -4)"/></g><use fill="#ff1900" stroke-width="1.1" transform="matrix(.57 -.36 .38 .55 -2 4)" xlink:href="#f"/></g></g></svg>