<svg xmlns="http://www.w3.org/2000/svg" xmlns:xlink="http://www.w3.org/1999/xlink" viewBox="0 0 640 480"><defs><path id="a" d="M177.2 696.3c0 24.4-9.6 44.3-21.3 44.3s-21.3-19.9-21.3-44.3S144.3 652 156 652s21.3 19.8 21.3 44.3z"/><path id="b" d="M248 140.4c-.2 0-12.1-11.7-12.1-11.7l-12.2 11.7-12.2-11.7-12.2 11.7"/><path id="c" d="M394.6 140.4c.3 0 12.2-11.7 12.2-11.7l12.2 11.7 12.2-11.7 12.2 11.7"/><path id="d" d="M312.4 271.7c0 3.4-4 6.1-8.9 6.1s-8.8-2.7-8.8-6.1 4-6.2 8.8-6.2 8.9 2.8 8.9 6.2z"/><path id="e" d="M279.8 273.3c0 2.6-2.2 4.7-4.9 4.7s-4.8-2.1-4.8-4.7 2.1-4.6 4.8-4.6 4.9 2 4.9 4.6z"/><path id="f" d="M209 776c0 7.8-10.2 14.2-23 14.2s-23-6.4-23-14.2 10.3-14.2 23-14.2 23 6.4 23 14.2z"/></defs><g fill-rule="evenodd"><path fill="#00319c" d="M0 0h213.3v480H0z"/><path fill="#ffde00" d="M213.3 0h213.4v480H213.3z"/><path fill="#de2110" d="M426.7 0H640v480H426.7z"/></g><g stroke="#000"><g fill-rule="evenodd"><path fill="#ff1900" stroke-width=".7" d="M360.4 320.4l24.2 35c1.4 2 2.7 3.9.7 5.2s-1.4 6.4 0 8.4c2.7 3.9 6 4.5 8 3.2l18.4-11.6c2-1.2 2.7-4.5 0-8.4-1.5-2-6-4.5-8-3.2-2.1 1.3-3.5-.7-4.8-2.6l-24.3-35"/><use fill="#a77b3b" stroke-width="2.5" transform="matrix(.53 -.42 .44 .5 -32.4 20)" xlink:href="#a"/><path fill="#ff1900" stroke-width=".7" d="M262 306.1l-21.5 36.7c-1.2 2-2.4 4-4.5 3-2.1-1.2-6.6 1.7-7.8 3.8-2.4 4-1.5 7.2.7 8.4l19.2 10.2c2 1.1 5.4.2 7.8-3.8 1.1-2.2 1.4-7.3-.7-8.4s-1-3.2.3-5.2l21.4-36.7"/><path fill="#a77b3b" stroke-width="1.7" d="M331.2 280.6h-19.6c-.6.6-6.2 35.6-12.2 49-7.3 16.3-29.2 30.7-29.2 30.7s13.1 4 17 6.6c1-.3 22-4.7 24.4-30.3 2.4 25.6-14.6 37.3-14.6 37.3s24.4 7 24.4 23.3c0-16.3 24.4-23.3 24.4-23.3s-12.2-11.7-14.7-37.3c5 25.6 23.5 30 24.5 30.3 3.9-2.6 17-6.6 17-6.6s-21.9-14.4-29.2-30.7c-6-13.4-11.6-48.4-12.2-49zm-83-116.7l36.6 11.7c12.1 0 24.4-11.7 24.4-23.4.4-26-9.8-35-12.2-35l4.8-4.6-7.3-7s2.5-12.1 26.9-11.7c24.4.5 24.4 11.7 24.4 23.3s-12.2 11.7-12.2 35c0 11.7 12.2 23.4 24.4 23.4l36.6-11.7v116.7H248.1V163.9z"/></g><g fill="none"><path stroke-width=".2" d="M304.4 168.7l2.4 7 2.5-7 2.4 7 4.9-7 2.4 7.3 2.5-7.4 3.6 7.4 3.7-7.4 2.5 7 2.4-7"/><path stroke-width=".1" d="M314 142.8l-4.8 25.6m7.3-25.6v25.6m4.9-25.6v25.6m4.9-25.6l2.4 25.6m2.4-25.6l2.5 25.6"/></g><path fill="#a77b3b" fill-rule="evenodd" stroke-width="1.7" d="M223.7 93.8c-24.4 11.7-24.4 35-24.4 46.6.8 10.6 0 233.2 0 233.2s1.6-13.2 12.2-23.3l12.1-11.7 12.2-11.6c9-7.8 12.2-23.4 12.2-35V128.8s0-11.7-24.4-35z"/><g fill="none"><g stroke-width="1.7"><use xlink:href="#b"/><path d="M248 152.5c-.2 0-12.1 11.7-12.1 11.7l-12.2-11.7-12.2 11.7-12.2-11.7"/><use y="46.6" xlink:href="#b"/></g><path stroke-width="2.5" d="M235.7 128.9l.2 198.3"/><path stroke-width="2.3" d="M223.7 140.6l.2 197.8"/><path stroke-width="2.5" d="M211.5 129l.2 221.7"/></g><path fill="#a77b3b" fill-rule="evenodd" stroke-width="1.7" d="M419 93.8c24.4 11.7 24.4 35 24.4 46.6-.8 10.6 0 233.2 0 233.2s-1.6-13.2-12.2-23.3l-12.1-11.7-12.2-11.6c-9-7.8-12.2-23.4-12.2-35V128.8s0-11.7 24.4-35z"/><g fill="none"><g stroke-width="1.7"><use xlink:href="#c"/><path d="M394.6 152.5c.3 0 12.2 11.7 12.2 11.7l12.2-11.7 12.2 11.7 12.2-11.7"/><use y="46.6" xlink:href="#c"/></g><path stroke-width="2.5" d="M407 128.9l-.2 198.3"/><path stroke-width="2.3" d="M419 140.6v197.8"/><path stroke-width="2.5" d="M431.3 129l-.2 221.7"/></g><use fill="#a77b3b" fill-rule="evenodd" stroke-width="2.5" transform="matrix(.64 .25 -.27 .61 361.1 -165.2)" xlink:href="#a"/></g><g fill-rule="evenodd"><path fill="red" d="M248.1 175.6h146.5v70H248.1z"/><path fill="#564dff" d="M248.1 245.6h146.5v35c0 23.3-36.6 23.3-73.2 46.6C284.7 304 248 304 248 280.6v-35z"/></g><path fill="none" stroke="#ff0" stroke-width="1.4" d="M248.1 175.4h146.5v105c0 23.3-36.6 23.3-73.2 46.6-36.6-23.3-73.3-23.3-73.3-46.7V175.5z"/><g fill-rule="evenodd"><g fill="#ff0" stroke="#000"><path d="M294.4 180.2S270 197.4 270 213.8s25.6 22 25.6 22-8.6 0-8.6 21.8c0 11 25.6 5.5 25.6 11s-.3 18.7 0 27.3c0 5.5-17 0-17 5.5 0 2.7 12.8 16.4 25.6 16.4s25.6-13.7 25.6-16.4c0-5.5-17 0-17-5.5v-27.3c0-5.5 25.5 0 25.5-11 0-21.9-8.5-21.9-8.5-21.9s25.6-5.5 25.6-22-24.4-33.5-24.4-33.5 13.7 22.7 13.7 33.6c0 5.5-6.4 16.4-23.4 16.4 0 0-4.4-5.5-8.6 0 0 0-4.9-5.5-8.5 0-1.2 1.9-3.5-5.5-8.6 0-2.1 1.5-3.8-5.5-8.5 0-8.5 0-25.6-5.5-25.6-16.4s15.9-33.6 15.9-33.6z"/><path d="M294.9 278.2c-1.8 1.1 2.2 19 3.3 19.7 1.8 1.1 12 1.1 13.7 0 1.2-.7 0-17.5-1.7-18.6-1.7-1-14.1-1.8-15.4-1zm53 0c1.8 1.1-2.2 19-3.3 19.7-1.8 1.1-12 1.1-13.7 0-1.2-.7 0-17.5 1.7-18.6 1.7-1 14.1-1.8 15.4-1z"/><g stroke-width="1.2"><use xlink:href="#d"/><use x="35.3" xlink:href="#d"/></g></g><path d="M336.8 307.5c0 1.5-2 2.7-4.3 2.7-2.4 0-4.3-1.2-4.3-2.7s2-2.7 4.3-2.7 4.3 1.2 4.3 2.7zm-22.3 0c0 1.5-1.9 2.7-4.2 2.7-2.4 0-4.3-1.2-4.3-2.7s1.9-2.7 4.3-2.7c2.3 0 4.2 1.2 4.2 2.7z"/><g fill="#ff0" stroke="#000"><path stroke-width=".7" d="M321.3 219.8l-5.3-6.6-8.6 1 1.2-8.1-6.9-5 7-5-1.3-8.2 8.6 1.2 5.3-6.7 5.2 6.6 8.5-1.1-1 8.2 6.8 5-6.9 5 1.1 8.2-8.6-1.1zM358 245.3l14.6 7 14.7-7-14.7-7-14.6 7zm-105 0l14.6 7 14.7-7-14.7-7-14.6 7z"/><path stroke-width="1.1" d="M535 659c-3.5-7-14.1-10.6-21.2-10.6s-14.2 0-21.3 10.7c0-14.2 10.5-21.3 21.3-21.3a22.7 22.7 0 0121.2 21.3z" transform="matrix(.6 -.33 .34 .57 -165.2 86.5)"/><g stroke-width=".7"><use xlink:href="#e"/><use x="-4.9" y="16.3" xlink:href="#e"/><use x="-7.3" y="7" xlink:href="#e"/><use x="4.9" y="16.3" xlink:href="#e"/><use x="7.3" y="7" xlink:href="#e"/><use y="9.3" xlink:href="#e"/></g></g><path fill="#da4500" d="M297.8 120.4c-12.4 0-14 2-19.6 3.9 0-5.4 13.8-11.7 26-11.7 0 3.9-3.2 7.8-6.4 7.8z"/><path fill="#cac9c7" d="M316.5 108c0 2.5-2.2 4.6-4.9 4.6s-4.9-2.1-4.9-4.7 2.2-4.6 4.9-4.6 4.9 2 4.9 4.6z"/><path fill="#ff0" stroke="#000" stroke-width=".7" d="M265.2 91.5v7h12.2v35h7.4v-35H297v-7h-12.2v-9.3h-7.5v9.3h-12.2z"/><path fill="#da4500" d="M304.3 112.6a78.5 78.5 0 00-29.3 3.9c0-7.2 8.4-15.6 22.8-15.6 3.2 0 6.5 7.8 6.5 11.7z"/><path fill="#008500" stroke="#000" stroke-width=".7" d="M67.3 613c-14.2-14.2-16.6-21.4 3.6-10.1l283.7 247.5-3.4 7L67.4 613z" transform="matrix(.39 .3 -.14 .24 237.4 71.3)"/><g fill="#008f00"><path d="M228.4 330.4c.8-10.6-18.6-22-19.4-21.3-.7.8 1.2 7 4.9 10.1-7-3.6-14.4-5.8-14.6-4.3-.6 2.2 11 7.2 12 9.2 0 1.4-8.6 1.2-8.4 2.6s24.3 13.6 25.5 3.7zM209 299.6c.8-10.6-18.6-22-19.3-21.3-.8.7 1.1 6.9 4.8 10.1-7-3.6-14.4-5.9-14.6-4.3-.5 2.1 11 7.2 12 9.2.1 1.4-8.5 1.2-8.4 2.6.2 1.4 24.3 13.5 25.5 3.7zm-14.8-28c.8-10.6-18.6-22-19.4-21.3-.7.7 1.2 6.9 4.9 10.1-7-3.6-14.4-5.9-14.6-4.3-.5 2.1 11 7.2 12 9.2 0 1.4-8.5 1.2-8.4 2.6.2 1.4 24.3 13.6 25.5 3.7zm-14.6-30.4c.7-10.5-18.6-22-19.4-21.3-.8.8 1.2 7 4.8 10.2-7-3.7-14.4-5.9-14.5-4.3-.6 2.1 11 7.2 11.9 9.1.1 1.4-8.5 1.3-8.3 2.7.1 1.4 24.2 13.5 25.5 3.6z"/><path d="M184.6 239.9c9.4-5.7 7.5-27.4 6.5-27.6-1.1-.1-5.2 5-5.7 9.8-1.1-7.6-3.6-14.6-5-13.8-2.1.8.4 12.7-.7 14.6-1 1-6-5.8-7-4.8-1.2 1 2.8 26.7 12 21.8zm13.6 26.6c10.8-2.4 16.7-23.4 15.7-23.9s-6.6 3-8.7 7.4c1.6-7.5 1.7-14.9 0-14.6-2.3.1-4 12.1-5.7 13.5-1.3.6-3.7-7.3-5-6.8-1.4.6-6.6 26.1 3.7 24.4zm16.2 27.2c9.9-4.8 10-26.6 9-26.8-1-.3-5.5 4.5-6.5 9.2-.4-7.7-2.2-14.8-3.7-14.1-2.2.6-.8 12.6-2 14.4-1.2.9-5.5-6.3-6.7-5.4-1.2.8.4 26.8 10 22.7zm17.6 35.6c10.3-3.9 12.8-25.5 11.8-25.9-1-.3-6 4-7.5 8.6.4-7.7-.6-15-2.2-14.4-2.3.4-2.1 12.5-3.5 14.2-1.3.7-4.8-6.8-6-6-1.3.6-2.5 26.7 7.4 23.5z"/></g><g stroke="#000"><use fill="#ff1900" stroke-width="1.1" transform="matrix(.6 .32 -.34 .57 389.6 -146.8)" xlink:href="#f"/><g fill="#ff0" stroke-width=".5"><path d="M156 414.6v-7.1h7v-7.1h7v7h7.2v7.2H170v17.7h-7v-17.7zm7 60.2h7v205.5h-7z" transform="matrix(.5 .16 -.18 .47 451.4 -3.7)"/><path d="M159.4 676.8h14.2v56.7h-14.2zM156 439.4h21.3c14.1 0-3.6 39-3.6 39h-14.1s-17.8-39-3.6-39zm17.6-5.4c0 3-3.1 5.4-7 5.4s-7.1-2.4-7.1-5.3 3.1-5.4 7-5.4 7.1 2.4 7.1 5.4z" transform="matrix(.5 .16 -.18 .47 451.4 -3.7)"/></g><use fill="#ff1900" stroke-width="1.1" transform="matrix(.57 -.36 .38 .55 -2.3 4.2)" xlink:href="#f"/></g></g></svg>