<svg xmlns="http://www.w3.org/2000/svg" viewBox="0 0 640 480"><path fill="#d3ae3b" d="M0 0h640v480H0z"/><path fill="#c40308" d="M24 24h592v432H24z"/><path fill="#d4af3a" d="M424 236c11-1 32-17 26-23-4 4-28 14-14 7 13-2 23-40 3-14l-12 8c13-8 24-23 21-39-4 6-15 24-15 20 8-9 16-33 6-39-3 11-6 22-13 31 7-16 11-34 5-50-8-4-1 17-7 22 0 5-7 13-3 3 4-11 1-36-7-38 1 23-7 45-20 63-7-8-9 15-18 17-13 13 20 29-4 31-9 5-13 6-8-5 6-9-1-15-7-22-4-5-14-8-5-14-6-10 6-7 7-15 12-2 18-7 30-5 12 0 6-22 2-8-6 4-13-3-20 1 5-10 19 5 14-9-10-6-23-11-35-5-11-1-5-10-3-15 16-4 9-26-4-29-9-2-17-4-17-13-3-2 5-8-4-9-9 2 0 9-7 12 1 14-26 7-29 23-7 14 22 20 10 31-10 1-20-5-30 2-12-1-13 17-1 10 15 4-14 7-16 1-3-10-7 12 4 9 11-1 21 7 31 6 3 9 11 6 6 17 11 4-6 10-8 16-8 6-7 11-3 19 3 7-3 12-6 3-12 3-18-10-6-15 6-13-14-28-18-34-13-5-13-25-20-36-3-6 1-28-5-25-8 13-6 30-2 44l-6-18-2-19c-10 15-5 35 1 51 3 9-7-10-8-15-2-7-6-22-8-7-3 13 6 27 11 35-8-4-10-19-17-21-3 15 14 33 20 37-8-2-17-18-22-16-2 13 16 24 20 26-8 0-27-20-19-3 3 10 23 15 24 17-9 0-29-18-20-1 4 9 21 10 22 11-11 4-22-11-28-6 0 6-6 10 4 12-7 8 12 13 6 24 2 13 9 26 15 37-3 9 11 17 0 24 0 12 15 17 18 23 1 11 13 7 14-1 2 1-11-8-2-13 6-10 16-17 25-15 10-8 19-2 24-15 3-6 16-14 8-3-10 15-5 37-26 44 3 6 15 4 8 13 4 4 13-4 9 6 5 2 15-7 11 5 3 11 10-7 12 6 4 15 11-2 15-6 8 12 7-10 9-7 10 7 9-4 10-4 14 6 1-11 13-10 8-9-18-14-15-27 0-11-8-20-10-29 12 5 14 25 28 21 11 8 26 6 37 15 12 1 25-6 36-10 8-9 1-27-9-34 10-5 1-18-7-10-6 3 7 10-5 10-14 2-25 21-16 33-5-3-13-8-10-12-7-2 2-12-10-10 0-11-19-6-20-20 3 13 18 1 10 1 6 8 21 3 21-1 11 5 22-11 11-8 11 4 23-8 13-10 12 4 26-15 6-11-10 0 14-1 16-6 13-14-12-3-14-6 10 1 28-11 23-19-7 4-20 10-23 8zm-225 14c-6 4-2-8 0 0zm77 45c-6 8-16 7-18 14-9 0-5 5-5 7-8 3 5 9-6 10-11 2-24 3-24-11-10-12-7-30-18-42-4-7-9-29 3-17 8 2 21 3 6 2-20 0 8 16 10 12-18 6 15 13 11 10-15 7 11 8 13 10 0 14 27-9 17 4 4 3 16-9 11 0zm66-178c9-2 7 25 0 13 1-4 4-10 0-13zm-17 10c1-6-2-23 7-11 10 8-11 23-7 11zm-16-13c10-10 2 11 6 16-11 6-13-11-6-16zm-12 18c-17 4 4-30-2-10l2 10zm44 32c-7 2-2 12-12 12 3 7-3 10-8 15 7 8-5 19-5 5 5-10-13-12-6-21-9-2-9-11-15-15 6-17 26 0 39-8 6-4 4 7 11 8l-2 2z"/><path fill="#b96b29" d="M350 210c-8 4-19 4-29 0-10 5-21 5-29 1l-11 13c11 17-6 32-1 49 6 24 29 23 42 36 13-14 36-13 42-37 4-17-13-32-3-49z"/><path fill="#6d8c3e" d="M283 278c8 16 27 18 39 28 12-10 31-13 38-28"/><path fill="#1d5e91" d="m360 278 3-8c4-16-13-29-4-46l-9-11c-8 3-19 4-29 0-9 4-20 4-28 0l-10 12c10 17-6 30-2 46l2 7"/><path fill="#d4af3a" stroke="#b96b29" d="M320 218h-1v1h-1l-2 2v2l-2-1c-3-1-6 2-8 2h-1c-2 1-2 3-1 5h-3c0 2 2 4 4 5 0 2 2 2 3 2v1c-3 1-5 2-6 4l-4-8a5 5 0 0 0 0-1v-4h1v-1l-1-3h-2l-2-1-2 1-2 2v5c-2 0-3 2-3 3 1 2 2 2 3 2l1-1v3c3 0 3 3 3 7l1 1 3 2v1l2 3v1l1 4 1 1c-1 4-1 7-3 8v1l-4 2-1 1v1h-1v1h-12l2 6h77l2-5-3-1h-7c2-6 2-11 1-15-4-5-7-2-7-6v-2c4 1 9-1 10-6 2-7-6-8-9-8h-1l-9-2c0-2 3-3 5-2l1 1c3 0 7 1 10-2h1c2-4-2-5-3-5h-4l-3-1-7 3c-3 1-8 4-7 8l1 1c4 6 13 4 18 5v2l-5 2-4-2-15 1-2-3h1c2-1 2-3 1-5l-1-1 2-2c4-1 4-4 2-6v-4a3 3 0 0 0-4-1h-1 1l-1-2a3 3 0 0 0-3-2zm6 40v2l1 2 2 3v1h-1l-2 1c-2 0-4 1-4 3l-3 2h-12l1-4 1-2v-3h1l3-2v-1h3l3 1v-1l1-1 6-1zm10 3c3 2 6 4 8 3h1v3l-4 2-3 1-1 1v1h-3l2-5v-6z"/><path fill="#1d5e91" d="M436 324h-3l-2 2-2 2c0 2 1 2 2 2l5-2 2-3c1-1 0-1-1-1zm4-12c-1-4-3-8-7-10l-2 8 1 2 7 2c1 1 2 1 2-1zm-21-3 1-2 2-8-8 2c-4 2-6 5-6 5l4 1zm-10 9h-2l3 6c2 2 4 3 7 3 4 0 6-2 6-3l1-3-9-1z"/><path fill="#d4af3a" d="m406 316 16 3h2l2-1 1-2v-2h2l2 5 4 3 2-1 1-5-1-2-9-2v-2l3-9a19 19 0 0 0-8-2l-2 10-2 1-11-2-1 2a16 16 0 0 0-1 5l2 2zm34 8c-1-1-2-1-3 1l-2 6c-2 2-4 3-7 3s-4-1-3-4 4-4 5-5c1-2 1-3-1-4l-4-1a8 8 0 0 0-3 4c0 2-1 4-3 5a12 12 0 0 1-9 2c-3-1-4-2-6-5l-3-9h-3l-2 4 1 4c1 2 3 3 3 5 1 2 2 4 0 4l-5-1-10-7a29 29 0 0 0-2-2l-9-3 2 6 1 3 9 5a168 168 0 0 1 10 6c2 2 5 4 9 3l16-4 14-5 4-4-1-4zm-17-31h2c2 0 1 1 1 2l-1 3v1h2c1 1 1 0 1-1l1-4h1l2 1 1-1v-2h-3v-1l1-2v-1l-3-1h-1v3l-1 1-2-1h-1l-1 3 1 1zm5 22v4h2v-2a6 6 0 0 0-1-2zm10 7 1 1 1-1v-2h-1l-1 2zm-37-7h1v-3l1-2-1 1-1 2v1z"/></svg>