<svg xmlns="http://www.w3.org/2000/svg" viewBox="0 0 640 480"><path fill="#d3ae3b" d="M0 0h640v480H0z"/><path fill="#c40308" d="M24 24h592v432H24z"/><path fill="#d4af3a" d="M424.5 236.1c12.22-3.6 26.9-10.42 28.6-24.6-6.24 2.6-16.7 11.96-22.8 11.2 11.1-2.23 25.35-18.98 19.9-27.1-6.33 7.17-13.35 14.3-22.27 18.1 12.66-8.08 23.83-23.17 20.97-38.86-4 5.5-13.9 23.8-17.2 22.56 9.33-11.3 15.36-27.45 10-41.8-3.75-2.18-4.22 12.62-7.26 16.84-2.2 5.2-4.8 11.36-8.5 14.93 7.2-15.42 11.34-33.97 5.35-50.46-6.1-9.84-2.28 16.92-6.86 22.18-2.14 8.65-6.2 12.82-2.73 2.86 2.72-13.4 2.8-29.02-6.4-40.05-1.7 11.62.22 29.6-6.9 36.3a64.34 64.34 0 01-13.8 29.4c-4.13-11.84-8.6 11.92-14.8 13.4-11.53 8.24-5.93 21.03 3.33 27.44-2.62 9.1-16.23 3.9-20.84 12.26-2.92-9.43 9.93-18.64.2-25.1l-9.8-11.5c-3.3 2.8-4.75-3.2-5.17-5.67.56-3.4 7.07-.65 2.87-7.77-2.54-10.37 7.08 1.06 6.18-10.07 4.2-3.63 15.7-.6 19.82-7.9 8.9 7.13 27.16-3.93 16.12-12.4.84 8.44-7.7 8.48-13.26 6.36a20.53 20.53 0 00-9.05.65c3.3-3.84 10.04-7.06 13.33-1 4.8-4.3-.4-13.76-6.93-12.3-5.52 2.1-8.18-6.78-14.68-4.34-5.88.58-11.2 5.83-17.16 1.97-4.5-.77-3.32-5.87.5-6.63-6.9-9.57 13.54-6.54 9.25-15.8 3.7-5.9-1.36-13.5-6.3-16.2-4.8-3-7.42-5.56-13.47-5.9-7.06-1.46-10.2-2.13-8.06-8.62-.2-2.82-4.16-3.2-4.17-5.5 6.77.05.18-5.3-.12-6.7-5.24-.34-6.62 1.84-7.16 5.77 3.17 1.46 3.36 1.85-.65 4.57-2.6 2.1.16 6.62-.77 7.74-5.6 3.6-14.47 2.02-18.3 6.63-4.94 2.34-8.14 3.82-9.56 9.1-4.36 3.38.13 7.72-1.07 12.48 5.15 4.62 12.4 6.65 11.42 13.37 3.72 1.7 1.5 5.62-1.9 6.12-7.06 3.5-13.04-3.8-20.28-2.4-5.76 6.57-22.04 1.5-18.9 15.44 2.6.82 10.83-5.6 14.6 2.3-7.92-3.1-22.05 6.2-22.9-7.1-10.8 14.26 11.78 14.58 18.8 13.86 3.57 4.5 10.48 6.95 15.62 3.55 3.1 4.06 3.06 12.32 8.04 7.8.77 3.75.02 7.68-1 11.24 8.6-.75 1.6 9.97-2.65 9.32l-13 15.23c5.38 4.8 8.2 29.82-1.6 13.5-9.3 2.34-21.24-6.77-7.9-12.63 12.52-14.24-11.16-24.9-14.5-38.07-3.87 6.14-8.5-2.77-11.66-9.45-3.2-5.5-4.03-12.36-6.36-17.85-6.4-5.76-3.58-26.82-6.62-34.1-10.27 13.14-8 31.8-4.03 46.6-6.42-10.76-7.94-24.1-8.32-36.5-8.44 10.76-6.1 25.85-3.6 38.35 1.26 5.7 3.67 11.28 5.83 16.5-8.02-9.5-10.46-22.84-14.63-33.6-7.03 14.15-.8 31.14 8.47 42.8 2 4.5-7.64-6.8-9.58-10.7-2.84-2.23-4.9-13.47-7.6-9.67-1.36 15.5 9.55 29.55 21.25 37.3-9.2-4.06-16.04-11.66-22.9-18.67-3 12.2 10.03 24.34 21.37 28.1-8.86-1.4-15.96-7.2-23-12.2-.28 12.53 12.93 19.7 23.43 23.7 7.23 1.98 5.67 2.66-1.13.87-6.68-1.87-12.92-5-18.88-8.5-.66 8.78 7.56 16.25 15.83 17.9 3.8 1.24 7.8 1.74 11.74 2.23-6.8.82-13.8-.66-20.2-2.95-1.15-4.62-5.95-.48-6.5-5.8-9.18.58.8 7.8-6.96 8.45 0 8.37 6.67 2 6.96 7.85-9.45 3.88 9.96 8.87 6.04 17.5-1.38 12.94 6.9 24.83 10.83 34.37-.95 4.04 5.1 4.64 3.85 8.23-4.2 7.7 11.2 15.04 2.6 18.9-5.65 5.45 2 11.68 2.98 16.9 4.82 2.58 7.28 7.6 13.5 7.1-1.67 9.9.92 8.58 7.8 10.23 4.24 1 1.3-8.9 8.2-7.93-13.03-3.17-5.53-11.67-.6-18.3 4.38-4.35 8.9-8.95 14.9-11 2.8 9.68 16-10.6 22-2.5 5.62-6.16 14.7-22.54 20.4-21.2-5.2 8.1-11.8 17.75-10.13 26.08-2.87 10.87-10.17 19.1-20 24.6.85 7.9 16.46 1.74 8.42 11.1-2.05 7.76 8.7 1.18 9.7 2.75-5.68 16.17 15.05-4.18 10.2 7.98-.46 3 3.52 9.9 6.2 5.73 5.53-11.66 6.15 17.95 14.2 7.94 5-5.56 4.13-16.87 10.87-6.2 4.1-2.4 5.13-8.2 3.35-12.33 5.48 4.2 14.95 6.35 10.7-3.9 4.2 2.7 12.15 2.85 9.63-3.42-5.15-6.8 5.22-2.76 8.37-8.08-4.06-7.8-18.66-12.2-18.35-24.44-2.77-6.66-1.36-17.52-9.65-24.05-5.87-13.38 12.43 7 14.17 10.88 3.36 9.02 7.4 5.44 12.3 4.74 8.12 6.4 12.04 7.22 19.34 7 10 1.8 17 13.7 27.8 9.05 10.37-3.6 21.46-6.16 30.6-12.4-.1-10.13-1.17-23.93-11.1-30.2-5.5-5 10.04-5.97 1.3-10 3.58-3.3-6.2-8.02-5.9-2.56-1.2 1.74-5.54-.88-5.2 5.06 10.37 5.9-9.82 4.75-13.24 10.33-8.9 8.16-12.52 19.46-6.16 28.67-3.72-2.75-10.76-6.6-12-9.8 6.34-1.38-.54-2.88-2.38-4.7 1.4-3.82 4.8-6.4-3.35-6.72-7.73-.3 2.15-8.2-8.4-6.8-6.4-1.82-11.98-6.9-13.6-13.48 1.7 9.32 20.33 7.7 9.5-1.4 4.14 9.42 26.4 6.84 19.9.1 8.76 4.45 28.93-6.28 10.9-8.4 7.02 4.98 30.2-5.62 13.3-9-4.35-1.42 18.7.96 18.05-9.8 1.07-5.16-26.7 1.1-9.3-2.38 8.02 1.02 20.73-8.66 17.28-14.6-5.37 3.4-27.66 3.75-12.78 1.83 9.82-1.5 21.32-7.85 20.67-19.1-7.77 4.46-17.9 9.7-26.35 9.44l1.34-.48zm-225.2 14.4c-5.96 4.48-2.52-7.92 0 0zm76.8 45c-3.8 5.72-10.72 8.26-17.12 9.4 7.4 7.9-16.6 3.85-4.93 10.9-10.12 4.18-2.25 5.12-1.34 7.52-7.67 6.1-18.2 3.57-27.2 3.5-.03-6.45-2.97-12.37-7.2-17.1-4.78-9.94-4.43-23.18-11.94-33.14-4.5-7.06-7.42-16.04-5.76-24.36 5.12 6.55 14.73 6.6 22.3 7.4-8 .45-24.15-3.17-11.8 8.08 4.22 5.6 23.97.5 9.32 4.58-8.06 6.63 12.1 10.98 17.5 7.8-6.75 1.92-12.4 4.05-2.53 7.9 7.54 3.65 16.65-3.14 12.6 5.25 7 4.1 17.23-.56 20.58-4.13-11.87 14.05 13 .8 9.22 2.68-.5 1.27-1.2 2.48-1.72 3.72zm66.4-178.2c1.63-5.93 13.18 18.4.56 16.2-2.85-2.84 5.7-10.25-.56-16.2zm-17 10.3c1.75-7.38-4-23.44 6.92-10.56 7.64 7.82-4.6 20.8-8.38 12.67l1.56-2.2zm-16-12.8a14.02 14.02 0 015.6-3.5c-2.36 6.4-.26 16.75.3 19.8-8.8 4.9-12.03-5.4-9.15-11.9l1.23-2.13zm-11.8 18.3c-12.95 3.95-3.6-20.44.1-16.48-4.94 5.8-1.03 12.34-.1 16.48zm43.8 31.7c-9.8 1.6 2.3 6.52-7.2 9.6-3.14.97-7.5 3.1-4.1 6.16 4.5 2.27-3.16 6.03-5.67 8.27-8.2 3.04 5.75 11.23-4.42 15.67-7.46-4.53-.7-10.03-2.9-14.75-3.82-1.7-6.5-5.06-9.4-7.95 2.4-.63 5.36-5.06 1.26-5.68-7.28-2.3-7.64-6.23-6.9-9.86-11.24-2.64-5.3-6.42-1.75-12.46 2.57-4.3 15.06 3.8 20.92 1.1 6.07.2 12.74-1.54 18.15-2.58-.2 3.8 2.98 7.04 6.3 8.38-.9 1.83-2.7 3.08-4.3 4.1z"/><path fill="#b96b29" d="M357.2 242c-1.6-9.8 4-18.3 4-18.3l-10.9-12.8c-8.4 4.7-20.1 4.1-30.3-.6-10.1 4.7-21.8 5.3-30.2.6l-11 12.8s5.7 8.5 4 18.3c-1.5 9.7-5 25-4.1 31.3s5.3 13.6 9.8 17.4a58 58 0 0016.2 8.7 46.7 46.7 0 0115.3 10s1.5-1.5 3.7-3.2c2.3-1.7 7-5 11.7-6.8a59 59 0 0016.1-8.7c4.6-3.8 9-11.1 9.9-17.4.8-6.3-2.6-21.7-4.2-31.4z"/><path fill="#1d5e91" d="M356.1 243.1a32.6 32.6 0 013.2-19l-9.8-11c-9.06 4.6-19.8 2.94-29-.42-8 1.9-16.5 4.93-24.72 2.43-3.4-2.14-7.38-1.22-9 2.5-2.57 2.67-7.52 6-4.53 10.07 3.46 9.46 1.3 19.64-.55 29.18-.88 5.47-1.6 11-1.36 16.55 4.05.85 9.17 1.45 12.2-2.05 3.72-2.06 8.04-5.15 7.94-9.9-1.82-3.46-.53-9.4-4.42-10.98-3.82-1.32-4.23-5.3-4.43-8.52-1.5-2.62-6.96-5.03-5.1-8.17 4.44-.63-.84-7.1 3.94-8 3.88-2.77 7.56 2.98 5.23 6.55-1.8 3.86 1 11.03 5.96 8.6 1.04-2.15 7.8-3.34 3.48-5.83-1.75-1.97-7.6-4.22-4.63-7.34 4.1 1.96 3.02-4.56 7.06-4.2 4.6-.02 8.9-3.98 13.33-1.1 4.64 1.72 4.23 6.95 3.9 11-1.8 2.78 2.8 7.3-1.92 8.4-.96 5.05 6.14 4.42 9.1 3.2 4.1-.15 8.16.7 12.14 1.62 5.78-1.06.68-8.54-3.4-5.85-4-.28-9-.88-11-4.88-1.5-5.28 4.86-7.95 9-8.76 3.83-.38 9.68-2.06 12.34 1.32-.87 4.17-6.3 4.02-9.68 3.86-2.54-.28-7.82-2.98-7.4 1.73 1.1 4.35 5.43 3.24 8.67 3.25 3.7.15 8.15.14 10.66 3.3 2.17 3.83-1.76 9.54-6.16 8.3-4.32.77-2.15 6.12.83 7.22 5.6.36 5.05 7.53 4.13 11.64-3.62 4.12 2.7 9.12 6.43 5.7 2.98-3.77.12-8.85.34-13.2-.77-5.75-2.04-11.45-2.76-17.23z"/><path fill="#6d8c3e" d="M281.6 278.6a27.4 27.4 0 0011.6 14.3c8.2 5 11.8 4.3 19.5 9.3s7.2 5.8 7.3 5.8-.4-.8 7.3-5.8 11.3-4.4 19.5-9.3a27.4 27.4 0 0011.6-14.3h-76.7z"/><g fill="#d4af3a"><path d="M288.3 237.2c4.63.27 5.75 5.17 5.7 8.8 1.8 3.75 7.8.8 4.36-2.53-2.2-3.2-5.02-7-3.53-11.05 1.4-2.26-.55-5.06-2.58-4.1-.05 2.52-3.5-.04-2.18 2.92 1.94 2.64.8 5.08-2.2 4.7-.23.45.05 1 .43 1.26zm-.5-2.5c-.45-2.5-2.1 1.06 0 0zm2-6.4c1.2-3-3.07-.53 0 0zm2.4-2c1.9.63-1.08-2.3 0 0zm3.4.6c.43-2.1-1.02 1.4 0 0zm5.4 23.5c2.17 1.1 5.47-5.85 5.07-.7-.8 2.67 3.9 4.76 3.25.96 1.87-2.1 3.36 5.08 4.73.96-.12-2.78 2.05-3.35 3.95-2.17.88-1.48.38-4.5 3.24-3.26 3.68-1.07-4.53-5.66-.2-6.87 5.24.5 1.33-5.7-2.14-4.38-1.47-.23-4.35 1.38-2.22-.67.9-2.6-4.58-2.6-1.1-3.88 2.85-.44 6.07-5.3 2.07-6.15-1.25 1.24-2.7 3.24-2.9.05-2.36-2.9-6.17 1.22-9.14 1.03-2.85 2.36.37 5.43 2.76 5.9.23 1.6-4.55 3.42-.48 3.1 3.58-.6 4.05 4.8.1 4.2-2.36.12-7.48 2.16-5.8 4.52 1.44-.88 4.96-3.1 5.02.1 1.4-1.72 4.4-.8 2.96 1.6 1.7-.3 4.46-1.14 2.3 1.42-2.12 2.3-3.37-1.3-3.86-1.85-3.27-.9-8.45-.92-8.6 3.62.03.9.44 1.77 1.03 2.45z"/><path d="M316.7 224.2c2.86.52 2.62-3.5-.12-1.8-1.2.35-1.73 2.08.12 1.8zm3.8 3.7c3.46 1.33 2.68-5.2.14-2.2-.52.6-.95 1.64-.14 2.2zm-.3 1c-4.82-.14-1.63 8.1 1.68 4.26 4.12-.92 1.32-4.87-1.68-4.26zm-14 3.6c1.2-3.03-5.86-2.37-5.82-3.4.32 2.6 3.5 3.86 5.82 3.4zm-8.9 41c3.35 2.23 6.13-1.82 6.4-4.87.35-3.18 3.76-9.9-1.52-10.42-2.06 3.52-.43 9.66-5.2 11.23-1.9-.18-5.26 3.82-1.73 2.85 1.12-.75 2.34-.25 2.03 1.2zm-6-.2c-.43 2.18 3.7-1.26 0 0zm3.5-.1c-.92 2.13 3.76-1.07.36-.28-.12.1-.24.2-.36.28zM319 272c-3.62 1.02 1.4 2.93 0 0zm2.3 1.3c-2.07-1.92-1.43 2.96 0 0zm11-12.9c1.25-4.2-5.3-4.34-7.2-1.85-3.22 3.7 5.1 5.45 2.2 9.15-.18 3.65-8.68.87-5.58 5.2 3.67 3.22 8.83-.9 9.58-4.82.17-2.5-2.46-6.4 1-7.68zm-8.6-13c-1.07 2.37-5.88 1-5.16 4.43-2.06.56-4.14 1.98-5.02 3.42-2.06-.84-4.84-2.46-6.12-.2-1.7-1.57-3.3-4.34-5.46-2.36-3.8-.1-1.8 6.15 1.15 2.6 3.13-1.03 2.23 7.58 5.53 3.76.93-3.65 3.72-.74 5.5-.46.7-1 1.96-3 2.2-.55 4.58-1.7 9.27-3.42 14.23-3.2 2.23.57 3.28-1.93.42-1.57-1.13.44-6.45.87-2.9-.53 3.05-1.35 7.86 0 6.4 4.04.52 4.32 4.75 6.83 8.53 4.77 4.43.58 4.53 7.86.01 8.38-1.98-.33-4.88 3.66-2.5 3.23 2.7-1.72 6.94 3.1 8.48-1.4 1.87-4.17 1.57-9.18 1.1-13.55-2.4-2.5-7.04-2.32-6.94-6.83-.68-3.82-4.3-5.67-7.9-5.4-3.95-.27-7.92.08-11.85.47-.1.4.65.54.32.95z"/><path d="M337.3 273.4c1.22 1.75 2.14-1.65 0 0zm4.4-.2c-.9 2.23 3.68-.96 0 0zm-61 1.6c.16 3.6 4.7 2.02 7.03 2.3h71.07c1.3-3.43-3.82-2.15-5.74-2.3H280.6zm52.3-37.1c4.94 2.46 10.8.9 15.78 3.26 3.8 4-4.5 6.1-5.32 6.74 3.1 1.46 8-.28 9.1-3.62.55-4.8-4.86-6.1-8.6-5.96-3.76-.32-7.7-.46-11.1-2.33-3-4.48 4.37-7.48 7.8-5.34 2.9.42 6.56 1.15 8.8-1.23 1.3-2.4-3.77-1.15-5.43-1.82-2.78-.4-5.4.62-7.94 1.46-2.7.8-6.8 2.6-5.85 6.07.42 1.32 1.68 2 2.73 2.77z"/></g><g fill="#b96b29"><ellipse cx="312.6" cy="226" rx="1.5" ry="1.4"/><path d="M344 228.4c-2-.2-4.5.4-4.5.4s.5.4 1.2.3c.6 0 1.8 0 3.7.3s3.2-.6 3.2-.6z"/></g><path fill="#1d5e91" d="M325.6 264.6c-.5-.8-.6-.7-1.2-.2-.5.4-1-1.2-1.1-2.2l.4-4.1s-2.6.5-4 1l-4 .9c-1.1.2-1.8.5-2.4.4-.6-.2-1.9-.2-2.9-.2s-1 .2-2 1.2-1.3 1.5-2 3.4a20 20 0 00-1.4 6 15.6 15.6 0 01-.7 3.1h12.2l.5-1.2a3 3 0 011.4-1.4c.5-.2 1-.2 1.2-.8.2-.5.8-1 1.4-1.2.7-.3 1.8-.2 2.8.1s1.4-.4 1.7-.8.4-1 1-1.6c.5-.7 0-1.3 0-1.3l-1-1.1zm19.5.3c-.1-.7 0-.8-.5-.9-.4 0-1.1-.2-1.7-.5-.6-.2-.5 1.4-.5 1.4s-1.5.2-3.1 0-3.5-1.7-4.2-2.2a5.5 5.5 0 01-1.4-1.5l-1 .7c-.5.3-.8 1.3-1 2.4 0 1 1.3 2.2 1.4 3.2 0 1-1.2 3.1-1.8 4a9 9 0 00-1.2 2.4h5.9a3 3 0 01.6-1c.6-.6 1.6-.7 1.6-.7l.2-.8c.2-.5.9-1.2 2.3-1.8 1.5-.5 3.3-.6 3.3-.6s.7-.6 1.2-1.4 0-2 0-2.7zm89.9 59.3c-1.3-.3-1.9-.8-1.9-.8s-.5 0-1 .7c-.3.8-2 1.8-2 1.8s-2.2.6-2.5 2.2c-.3 1.5.8 2 1.8 1.9 1.1-.2 3.7-.7 4.9-2.1 1.1-1.4 1.3-2.2 1.5-2.7s.4-.7-.9-1zm3.5-12.4a15 15 0 00-7.4-9.9l-2.1 7.5c-.5 1.8-.5 1.7.9 2l6.7 1.6c.9.3 2.4 1 1.9-1.2zm-20.6-3.2c1 .1 1-.3 1.3-1.7l2.1-8.2s-4.5-.1-8.5 1.8c-3.9 1.9-5.6 5.4-5.6 5.4s1 .4 3.7 1l7 1.6zm-10.5 9.3l-2.2-.4s1 3.8 2.7 6 3.5 3.2 7 3.3c3.5 0 6-1.9 6.5-3.4.4-1.5 1.1-2.6 1.1-2.6l-8.8-1.4z"/><path fill="#d4af3a" d="M406.3 315.5l15.5 3c1 .3 2 .5 2.2.2.3-.3.5-.5 1.6-.9 1.2-.4 1.1-1.5 1.1-1.5l.4-2.2c.2-1 .8-1.4 2-.1 1.3 1.3 1.5 3.2 1.7 5 .3 2 3.2 2.4 4.4 2.6 1.1.2 1.6-.2 2.3-1.3.7-1 1-3.2 1.2-4.6s0-1.2-1.4-1.6l-9.3-2.2c-1.2-.2-1-1-.7-1.9.1-.8 2.8-9.2 2.8-9.2a18.9 18.9 0 00-7.7-2.3l-2.3 10c-.3 1.3-1.2 1.3-2.5 1-1.4-.2-11.3-2.5-11.3-2.5l-.8 1.8a15.5 15.5 0 00-1.1 5.2c0 1.2.4 1.2 1.9 1.5zm34 7.8c-1.3-.9-2.3-1.1-3 .5s-.7 4-2.4 5.6c-1.8 1.7-4.2 3.4-6.6 3.2s-3.7-.7-3.2-3.5c.6-2.7 4.3-3.6 5.1-5 .9-1.5.7-3.1-.6-4.2s-3.1-1.3-3.6-1a8 8 0 00-2.8 3.7c-.7 2-1.2 3.7-2.8 5a12.2 12.2 0 01-9 2c-3.1-.8-4.3-1.8-5.5-5l-3.2-9c-.7-.5-1.5-1-2.8 0-1.4 1-1.5 2.4-1.7 3.6-.2 1.1 0 2.5 1.4 4.1 1.4 1.7 2.8 3.3 3.3 5 .5 1.8 2 4.4-.1 4.5-2.2.2-3.2.2-4.8-1.4-1.7-1.6-8.2-6-10-7.4a29 29 0 00-2.5-2c-3 0-6-1.2-9-3.3 0 0 1.8 4.4 2.1 6.1.4 1.7.3 2.6.3 2.6l9.1 4.6a168 168 0 0110.3 5.8c2.5 1.5 4.7 4 9.1 3 4.5-.9 13.5-3.6 16.5-4.5 2.9-.9 11-2.9 14-5 3-2 3.2-1.9 3.7-4 .5-2 0-3.1-1.3-4zm-17.2-31l2.2-.3c1.5-.1 1 1.3.7 1.9l-1.4 2.7c-.6 1 .2 1.2.6 1.4l2.3.6c1.3.3 1-.6 1-1l.3-3.8c.1-.9 1-.6 1.2-.5l1.7 1c.6.3 1 0 1-.4l.8-2c.2-1-.4-.8-1-.8h-2.4c-1 0-.4-1-.4-1l1.3-2.1c.6-.9.4-1-.2-1.2l-2.8-.7c-.5-.1-.7 0-.7.3l-.1 2.7c0 .7 0 1-1 1-.8.1-1.3-.4-2-1.1-.7-.8-1-.5-1-.2l-.8 3c-.2.7.1.6.6.6zm4.8 21.8s-.1 1.7-.3 2.3c-.2.7-.6 1.6.1 1.8.8.2 1.4.5 1.8.4.5-.1.3-1 0-1.7a6.4 6.4 0 00-1.1-2.2zm10.5 7c.2.5.7.6 1 .7.4.1 1 .1 1-.5s0-1.5-.5-2.2c-.5-.8-.8-1.3-1.1-.2-.4 1-.6 1.6-.4 2.2zm-36.7-7l1.4.4s0-1.7.3-2.8c.2-1.2.7-2 .3-2s-.7.4-1 .9-1.1.6-1.4 2c-.3 1.3.1 1.4.4 1.4z"/></svg>