<svg xmlns="http://www.w3.org/2000/svg" viewBox="0 0 640 480"><path fill="#d3ae3b" d="M0 0h640v480H0z"/><path fill="#c40308" d="M24 24h592v432H24z"/><path fill="#d4af3a" d="M424 236c11-1 32-17 26-23-4 4-28 14-14 7 13-2 23-40 3-14l-12 8c13-8 24-23 21-39-4 6-15 24-15 20 8-9 16-33 6-39-3 11-6 22-13 31 7-16 11-34 5-50-8-4-1 17-7 22-.2 5-7 13-3 3 4-11 1-36-7-38 .5 23-7 45-20 63-7-8-9 15-18 17-13 13 20 29-4 31-9 5-13 6-8-5 6-9-1-15-7-22-4-5-14-8-5-14-6-10 6-7 7-15 12-2 18-7 30-5 12-.4 6-22 2-8-6 4-13-3-20 .7 5-10 19 5 14-9-10-6-23-11-35-5-11-.7-5-10-3-15 16-4 9-26-4-29-9-2-17-4-17-13-3-2 5-8-4-9-9 2 .3 9-7 12 .7 14-26 7-29 23-7 14 22 20 10 31-10 1-20-5-30 2-12-.7-13 17-.6 10 15 4-14 7-16 .9-3-10-7 12 4 9 11-.8 21 7 31 6 3 9 11 6 6 17 11 4-6 10-8 16-8 6-7 11-3 19 3 7-3 12-6 3-12 3-18-10-6-15 6-13-14-28-18-34-13-5-13-25-20-36-3-6 .7-28-5-25-8 13-6 30-2 44l-6-18-2-19c-10 15-5 35 .6 51 3 9-7-10-8-15-2-7-6-22-8-7-3 13 6 27 11 35-8-4-10-19-17-21-3 15 14 33 20 37-8-2-17-18-22-16-2 13 16 24 20 26-8 .8-27-20-19-3 3 10 23 15 24 17-9 .9-29-18-20-.3 4 9 21 10 22 11-11 4-22-11-28-6 .3 6-6 10 4 12-7 8 12 13 6 24 2 13 9 26 15 37-3 9 11 17 .4 24-.4 12 15 17 18 23 .2 11 13 7 14-.8 2 1-11-8-2-13 6-10 16-17 25-15 10-8 19-2 24-15 3-6 16-14 8-3-10 15-5 37-26 44 3 6 15 4 8 13 4 4 13-4 9 6 5 2 15-7 11 5 3 11 10-7 12 6 4 15 11-2 15-6 8 12 7-10 9-7 10 7 9-4 10-4 14 6 1-11 13-10 8-9-18-14-15-27-.1-11-8-20-10-29 12 5 14 25 28 21 11 8 26 6 37 15 12 1 25-6 36-10 8-9 .4-27-9-34 10-5 .7-18-7-10-6 3 7 10-5 10-14 2-25 21-16 33-5-3-13-8-10-12-7-2 2-12-10-10-.5-11-19-6-20-20 3 13 18 1 10 .2 6 8 21 3 21-1 11 5 22-11 11-8 11 4 23-8 13-10 12 4 26-15 6-11-10 .8 14-.2 16-6 13-14-12-3-14-6 10 1 28-11 23-19-7 4-20 10-23 8zm-225 14c-6 4-2-8 0 0zm77 45c-6 8-16 7-18 14-9-.4-5 5-5 7-8 3 5 9-6 10-11 2-24 3-24-11-10-12-7-30-18-42-4-7-9-29 3-17 8 2 21 3 6 2-20 .2 8 16 10 12-18 6 15 13 11 10-15 7 11 8 13 10-.3 14 27-9 17 4 4 3 16-9 11 .3zm66-178c9-2 7 25 .2 13 1-4 4-10-.2-13zm-17 10c.6-6-2-23 7-11 10 8-11 23-7 11zm-16-13c10-10 2 11 6 16-11 6-13-11-6-16zm-12 18c-17 4 4-30-2-10 0 3 2 7 2 10zm44 32c-7 2-2 12-12 12 3 7-3 10-8 15 7 8-5 19-5 5 5-10-13-12-6-21-9-2-9-11-15-15 6-17 26-.2 39-8 6-4 4 7 11 8l-2 2z"/><path fill="#b96b29" d="M357 242c-2-10 4-18 4-18l-11-13c-8 5-20 4-30-.6-10 5-22 5-30 .6l-11 13s6 8 4 18-5 25-4 31 5 14 10 17a58 58 0 0016 9 47 47 0 0115 10s2-2 4-3c2-2 7-5 12-7a59 59 0 0016-9c5-4 9-11 10-17 .8-6-3-22-4-31z"/><path fill="#1d5e91" d="M356 243a33 33 0 013-19l-10-11c-9 5-20 3-29-.4-8 2-16 5-25 2-3-2-7-1-9 2-3 3-8 6-5 10 4 10 1 20-.5 29a82 82 0 00-1 16c4 .9 9 2 12-2 4-2 8-5 8-10-2-3-.6-9-4-11-4-1-4-5-4-8-2-3-7-5-5-8 4-.6-1-7 4-8 4-3 8 3 5 6-2 4 1 11 6 9 1-2 8-3 3-6-2-2-8-4-5-7 4 2 3-5 7-4 5 0 9-4 13-1 5 2 4 7 4 11-2 3 3 7-2 8-.9 5 6 4 9 3 4-.2 8 .7 12 2 6-1 .7-8-3-6-4-.2-9-.8-11-5-2-5 5-8 9-9 4-.4 10-2 12 1-1 4-6 4-10 4-3-.3-8-3-7 2 1 4 5 3 9 3 4 .1 8 .1 11 3 2 4-2 10-6 8-4 .7-2 6 .9 7 6 .3 5 8 4 12-4 4 3 9 6 6 3-4 .2-9 .4-13-.8-6-2-11-3-17z"/><path fill="#6d8c3e" d="M282 279a27 27 0 0012 14c8 5 12 4 20 9s7 6 7 6-.4-.8 7-6 11-4 20-9a27 27 0 0012-14h-77z"/><g fill="#d4af3a"><path d="M288 237c5 .3 6 5 6 9 2 4 8 .8 4-2-2-3-5-7-4-11 1-2-.5-5-2-4-.1 2-4 0-2 3s.8 5-2 5c-.3.5 0 1 .4 1zm-.5-2c-.5-2-2 1 0 0zm2-6c1-3-3-.5 0 0zm2-2c2 .6-1-2 0 0zm3 .6c.4-2-1 1 0 0zm5 24c2 1 6-6 5-.7-.7 3 4 5 3 1 2-2 3 5 5 1 0-3 2-3 4-2 .9-2 .4-4 3-3 4-1-4-6-.2-7 5 .5 1-6-2-4-2-.2-4 1-2-.6.9-3-5-3-1-4 3-.3 6-5 2-6-1 1-3 3-3 0-2-3-6 1-9 1-3 2 .3 6 3 6 .2 2-5 3-.5 3 4-.6 4 5 0 4-2 .1-7 2-6 4 1-.8 5-3 5 .1 1-2 4-.8 3 2 2-.3 4-1 2 2-2 2-3-1-4-2-3-.9-8-1-9 4a4 4 0 001 2z"/><path d="M317 224c3 .5 3-4-.1-2-1 .3-2 2 .1 2zm4 4c4 1 3-5 .1-2-.5.6-1 2-.1 2zm-.3 1c-5-.1-2 8 2 4 4-1 1-5-2-4zm-14 4c1-3-6-2-6-3 .3 3 4 4 6 3zm-9 41c3 2 6-2 6-5 .3-3 4-10-2-10-2 4-.4 10-5 11-2-.1-5 4-2 3 1-.8 2-.3 2 1zm-6-.2c-.4 2 4-1 0 0zm4-.1c-1 2 4-1 .4-.3l-.4.3zm24-1c-4 1 1 3 0 0zm2 1c-2-2-1 3 0 0zm11-13c1-4-5-4-7-2-3 4 5 5 2 9-.2 4-9 .9-6 5 4 3 9-.9 10-5 .2-2-2-6 1-8zm-9-13c-1 2-6 1-5 4a9 9 0 00-5 4c-2-.9-5-2-6-.2-2-2-3-4-6-2-4-.1-2 6 1 3 3-1 2 8 6 4 1-4 4-.8 6-.5.7-1 2-3 2-.6 5-2 9-3 14-3 2 .6 3-2 .5-2-1 .4-6 .8-3-.6 3-1 8 0 6 4 .5 4 5 7 8 5 4 .5 4 8 0 8-2-.3-5 4-2 3 3-2 7 3 8-1 2-4 2-9 1-14-2-2-7-2-7-7-.6-4-4-6-8-5-4-.3-8 0-12 .5-.1.4.7.5.3.9z"/><path d="M337 273c1 2 2-2 0 0zm4-.2c-.9 2 4-1 0 0zm-61 2c.2 4 5 2 7 2h71c1-3-4-2-6-2h-72zm52-37c5 2 11 .9 16 3 4 4-4 6-5 7 3 2 8-.3 9-4 .6-5-5-6-8-6-4-.3-8-.4-11-2-3-4 4-8 8-5 3 .5 6 1 9-1 1-2-4-1-6-2-3-.4-5 .6-8 2-3 .8-7 3-6 6 .5 1 2 2 3 3z"/></g><g fill="#b96b29"><ellipse cx="313" cy="226" rx="2" ry="1"/><path d="M344 228c-2-.2-4 .4-4 .4s.5.4 1 .3c.6 0 2 0 4 .3s3-.6 3-.6z"/></g><path fill="#1d5e91" d="M326 265c-.5-.8-.6-.7-1-.2-.5.4-1-1-1-2l.4-4s-3 .5-4 1l-4 .9-2 .4c-.6-.2-2-.2-3-.2s-1 .2-2 1-1 2-2 3a20 20 0 00-1 6 16 16 0 01-.7 3h12l.5-1a3 3 0 011-1c.5-.2 1-.2 1-.8.2-.5.8-1 1-1 .7-.3 2-.2 3 .1s1-.4 2-.8.4-1 1-2c.5-.7 0-1 0-1l-1-1zm20 .3c-.1-.7 0-.8-.5-.9l-2-.5c-.6-.2-.5 1-.5 1s-2 .2-3 0-4-2-4-2a6 6 0 01-1-2l-1 .7c-.5.3-.8 1-1 2 0 1 1 2 1 3s-1 3-2 4a9 9 0 00-1 2h6a3 3 0 01.6-1c.6-.6 2-.7 2-.7l.2-.8c.2-.5.9-1 2-2l3-.6 1-1c.3-.4 0-2 0-3zm90 59l-2-.8s-.5 0-1 .7c-.3.8-2 2-2 2s-2 .6-2 2c-.3 2 .8 2 2 2 1-.2 4-.7 5-2 1-1 1-2 2-3s.4-.7-.9-1zm4-12a15 15 0 00-7-10l-2 8c-.5 2-.5 2 .9 2l7 2c.9.3 2 1 2-1zm-21-3c1 .1 1-.3 1-2l2-8s-4-.1-8 2c-4 2-6 5-6 5s1 .4 4 1l7 2zm-10 9l-2-.4s1 4 3 6 4 3 7 3c4 0 6-2 6-3 .4-2 1-3 1-3l-9-1z"/><path fill="#d4af3a" d="M406 316l16 3c1 .3 2 .5 2 .2.3-.3.5-.5 2-.9 1-.4 1-2 1-2l.4-2c.2-1 .8-1 2-.1 1 1 2 3 2 5 .3 2 3 2 4 3 1 .2 2-.2 2-1 .7-1 1-3 1-5s0-1-1-2l-9-2c-1-.2-1-1-.7-2 .1-.8 3-9 3-9a19 19 0 00-8-2l-2 10c-.3 1-1 1-2 1l-11-2-.8 2a16 16 0 00-1 5c0 1 .4 1 2 2zm34 8c-1-.9-2-1-3 .5s-.7 4-2 6c-2 2-4 3-7 3s-4-.7-3-4c.6-3 4-4 5-5 .9-2 .7-3-.6-4s-3-1-4-1a8 8 0 00-3 4c-.7 2-1 4-3 5a12 12 0 01-9 2c-3-.8-4-2-6-5l-3-9c-.7-.5-2-1-3 0s-2 2-2 4c-.2 1 0 2 1 4s3 3 3 5c.5 2 2 4-.1 4-2 .2-3 .2-5-1-2-2-8-6-10-7a29 29 0 00-2-2c-3 0-6-1-9-3 0 0 2 4 2 6 .4 2 .3 3 .3 3l9 5a168 168 0 0110 6c2 2 5 4 9 3 4-.9 14-4 16-4 3-.9 11-3 14-5s3-2 4-4c.5-2 0-3-1-4zm-17-31l2-.3c2-.1 1 1 .7 2l-1 3c-.6 1 .2 1 .6 1l2 .6c1 .3 1-.6 1-1l.3-4c.1-.9 1-.6 1-.5l2 1c.6.3 1 0 1-.4l.8-2c.2-1-.4-.8-1-.8h-2c-1 0-.4-1-.4-1l1-2c.6-.9.4-1-.2-1l-3-.7c-.5-.1-.7 0-.7.3l-.1 3c0 .7 0 1-1 1-.8.1-1-.4-2-1-.7-.8-1-.5-1-.2l-.8 3c-.2.7.1.6.6.6zm5 22s-.1 2-.3 2c-.2.7-.6 2 .1 2 .8.2 1 .5 2 .4.5-.1.3-1 0-2a6 6 0 00-1-2zm10 7c.2.5.7.6 1 .7.4.1 1 .1 1-.5s0-2-.5-2c-.5-.8-.8-1-1-.2-.4 1-.6 2-.4 2zm-37-7l1 .4s0-2 .3-3c.2-1 .7-2 .3-2s-.7.4-1 .9-1 .6-1 2c-.3 1 .1 1 .4 1z"/></svg>