<svg xmlns="http://www.w3.org/2000/svg" viewBox="0 0 640 480"><path fill="#d3ae3b" d="M0 0h640v480H0z"/><path fill="#c40308" d="M24 24h592v432H24z"/><path fill="#d4af3a" d="M424.5 236.1c12.2-3.6 26.9-10.4 28.6-24.6-6.2 2.6-16.7 12-22.8 11.2 11.1-2.2 25.4-19 19.9-27.1a65.4 65.4 0 01-22.3 18.1c12.7-8 23.9-23.2 21-38.9-4 5.5-13.9 23.8-17.2 22.6 9.3-11.3 15.4-27.5 10-41.8-3.8-2.2-4.2 12.6-7.3 16.8-2.2 5.2-4.8 11.4-8.5 15 7.2-15.5 11.4-34 5.4-50.5-6.1-9.8-2.3 17-6.9 22.2-2.1 8.6-6.2 12.8-2.7 2.8 2.7-13.4 2.8-29-6.4-40-1.7 11.6.2 29.6-6.9 36.3a64.3 64.3 0 01-13.8 29.4c-4.1-11.8-8.6 12-14.8 13.4-11.5 8.2-6 21 3.3 27.4-2.6 9.1-16.2 4-20.8 12.3-3-9.4 10-18.6.2-25.1l-9.8-11.5c-3.3 2.8-4.8-3.2-5.2-5.7.6-3.4 7-.6 2.9-7.7-2.5-10.4 7 1 6.2-10.1 4.2-3.6 15.7-.6 19.8-8 8.9 7.2 27.2-3.8 16.1-12.3.8 8.4-7.7 8.5-13.3 6.3a20.5 20.5 0 00-9 .7c3.3-3.8 10-7 13.3-1 4.8-4.3-.4-13.8-6.9-12.3-5.5 2.1-8.2-6.8-14.7-4.3-5.9.5-11.2 5.8-17.1 2-4.5-.8-3.4-6 .5-6.7-7-9.6 13.5-6.5 9.2-15.8 3.7-5.9-1.4-13.5-6.3-16.2-4.8-3-7.4-5.6-13.5-5.9-7-1.5-10.2-2.1-8-8.6-.2-2.8-4.2-3.2-4.2-5.5 6.8 0 .2-5.3-.1-6.7-5.3-.4-6.6 1.8-7.2 5.7 3.2 1.5 3.4 1.9-.6 4.6-2.6 2.1.1 6.6-.8 7.8-5.6 3.6-14.5 2-18.3 6.6-5 2.3-8.1 3.8-9.6 9-4.3 3.5.2 7.8-1 12.6 5.1 4.6 12.4 6.6 11.4 13.3 3.7 1.7 1.5 5.7-1.9 6.2-7 3.5-13-3.8-20.3-2.4-5.7 6.5-22 1.5-18.9 15.4 2.6.8 10.8-5.6 14.6 2.3-7.9-3.1-22 6.2-22.9-7.1-10.8 14.3 11.8 14.6 18.8 13.9 3.6 4.5 10.5 7 15.6 3.5 3.1 4 3.1 12.3 8 7.8a24 24 0 01-1 11.2c8.7-.7 1.7 10-2.6 9.4l-13 15.2c5.4 4.8 8.2 29.8-1.6 13.5-9.3 2.3-21.2-6.8-7.9-12.6 12.5-14.3-11.1-25-14.5-38.1-3.8 6.1-8.5-2.8-11.6-9.4-3.2-5.5-4-12.4-6.4-17.9-6.4-5.8-3.6-26.8-6.6-34.1-10.3 13.1-8 31.8-4 46.6a75.9 75.9 0 01-8.4-36.5c-8.4 10.8-6 25.9-3.6 38.4 1.3 5.7 3.7 11.2 5.9 16.5-8-9.5-10.5-22.9-14.7-33.6-7 14.1-.8 31 8.5 42.8 2 4.5-7.6-6.8-9.6-10.7-2.8-2.3-4.9-13.5-7.6-9.7-1.3 15.5 9.6 29.5 21.3 37.3-9.2-4-16-11.7-23-18.7-3 12.2 10.1 24.4 21.4 28.1-8.8-1.4-16-7.2-23-12.2-.2 12.5 13 19.7 23.5 23.7 7.2 2 5.6 2.7-1.2.9-6.6-1.9-12.9-5-18.8-8.5-.7 8.8 7.5 16.2 15.8 17.9 3.8 1.2 7.8 1.7 11.7 2.2-6.8.8-13.8-.6-20.2-3-1.1-4.6-6-.4-6.5-5.7-9.1.5.8 7.8-7 8.4 0 8.4 6.7 2 7 7.9-9.4 3.8 10 8.8 6 17.5-1.3 12.9 7 24.8 11 34.3-1 4 5 4.7 3.8 8.3-4.2 7.7 11.2 15 2.6 18.9-5.7 5.4 2 11.6 3 16.9 4.8 2.5 7.2 7.6 13.4 7-1.6 10 1 8.6 7.8 10.3 4.3 1 1.3-9 8.2-8-13-3.1-5.5-11.6-.6-18.2 4.4-4.4 9-9 15-11 2.7 9.6 16-10.6 22-2.5 5.6-6.2 14.6-22.6 20.3-21.2-5.2 8-11.8 17.7-10 26a39.8 39.8 0 01-20 24.6c.8 8 16.4 1.8 8.3 11.1-2 7.8 8.7 1.2 9.7 2.8-5.7 16.2 15-4.2 10.2 8-.4 3 3.5 9.9 6.2 5.7 5.6-11.7 6.2 18 14.2 8 5-5.6 4.2-17 10.9-6.3 4.1-2.4 5.1-8.2 3.3-12.3 5.5 4.2 15 6.4 10.7-3.9 4.2 2.7 12.2 2.9 9.7-3.4-5.2-6.8 5.2-2.8 8.3-8-4-7.9-18.6-12.3-18.3-24.5-2.8-6.7-1.4-17.5-9.7-24-5.8-13.5 12.5 7 14.2 10.8 3.4 9 7.4 5.4 12.3 4.7 8.1 6.4 12 7.3 19.4 7 10 1.8 17 13.7 27.8 9 10.3-3.5 21.4-6 30.6-12.3-.1-10.1-1.2-24-11.1-30.2-5.5-5 10-6 1.3-10 3.5-3.3-6.2-8-6-2.6-1.1 1.8-5.5-.8-5.1 5 10.3 6-9.9 4.8-13.3 10.4-8.9 8.2-12.5 19.5-6.1 28.7-3.8-2.8-10.8-6.6-12-9.8 6.3-1.4-.6-2.9-2.4-4.7 1.4-3.8 4.8-6.4-3.4-6.7-7.7-.3 2.2-8.2-8.4-6.8-6.4-1.8-12-7-13.6-13.5 1.7 9.3 20.4 7.7 9.5-1.4 4.2 9.4 26.4 6.8 20 0 8.7 4.5 28.9-6.2 10.8-8.3 7 5 30.2-5.6 13.3-9-4.3-1.4 18.7 1 18-9.8 1.1-5.2-26.6 1-9.2-2.4 8 1 20.7-8.6 17.3-14.6-5.4 3.4-27.7 3.8-12.8 1.8 9.8-1.5 21.3-7.8 20.6-19-7.7 4.4-17.9 9.6-26.3 9.4l1.3-.5zm-225.2 14.4c-6 4.5-2.5-8 0 0zm76.8 45c-3.8 5.7-10.7 8.3-17.1 9.4 7.4 7.9-16.6 3.9-5 10.9-10 4.2-2.2 5.1-1.3 7.5-7.7 6.1-18.2 3.6-27.2 3.5 0-6.4-3-12.4-7.2-17-4.8-10-4.4-23.3-12-33.2-4.4-7-7.3-16-5.7-24.4 5.1 6.6 14.7 6.6 22.3 7.4-8 .5-24.1-3.2-11.8 8.1 4.2 5.6 24 .5 9.3 4.6-8 6.6 12.1 11 17.5 7.8-6.7 1.9-12.4 4-2.5 7.9 7.5 3.6 16.7-3.2 12.6 5.2 7 4.1 17.2-.5 20.6-4.1-11.9 14 13 .8 9.2 2.7l-1.7 3.7zm66.4-178.2c1.6-6 13.2 18.4.6 16.2-2.9-2.8 5.7-10.3-.6-16.2zm-17 10.3c1.8-7.4-4-23.4 7-10.6 7.6 7.9-4.7 20.8-8.5 12.7l1.6-2.2zm-16-12.8a14 14 0 015.6-3.5c-2.4 6.4-.3 16.8.3 19.8-8.8 4.9-12-5.4-9.1-11.9l1.2-2.1zm-11.8 18.3c-13 4-3.6-20.4.1-16.5-5 5.8-1 12.4-.1 16.5zm43.8 31.7c-9.8 1.6 2.3 6.5-7.2 9.6-3.1 1-7.5 3.1-4.1 6.2 4.5 2.2-3.2 6-5.7 8.2-8.2 3 5.8 11.3-4.4 15.7-7.5-4.5-.7-10-2.9-14.8-3.8-1.6-6.5-5-9.4-7.9 2.4-.6 5.4-5 1.3-5.7-7.3-2.3-7.7-6.2-7-9.8-11.2-2.7-5.2-6.5-1.7-12.5 2.6-4.3 15 3.8 21 1.1 6 .2 12.7-1.5 18-2.6-.1 3.8 3 7 6.4 8.4-1 1.8-2.7 3-4.3 4.1z"/><path fill="#b96b29" d="M357.2 242c-1.6-9.8 4-18.3 4-18.3l-10.9-12.8c-8.4 4.7-20.1 4.1-30.3-.6-10.1 4.7-21.8 5.3-30.2.6l-11 12.8s5.7 8.5 4 18.3c-1.5 9.7-5 25-4.1 31.3s5.3 13.6 9.8 17.4a58 58 0 0016.2 8.7 46.7 46.7 0 0115.3 10s1.5-1.5 3.7-3.2c2.3-1.7 7-5 11.7-6.8a59 59 0 0016.1-8.7c4.6-3.8 9-11.1 9.9-17.4.8-6.3-2.6-21.7-4.2-31.4z"/><path fill="#1d5e91" d="M356.1 243.1a32.6 32.6 0 013.2-19l-9.8-11c-9 4.6-19.8 3-29-.4-8 1.9-16.5 5-24.7 2.4-3.4-2.1-7.4-1.2-9 2.5-2.6 2.7-7.5 6-4.6 10 3.5 9.5 1.4 19.7-.5 29.3a82 82 0 00-1.4 16.5c4 .9 9.2 1.5 12.2-2 3.8-2.1 8-5.2 8-10-1.8-3.4-.6-9.3-4.4-11-3.9-1.2-4.3-5.2-4.5-8.4-1.5-2.7-7-5-5-8.2 4.4-.6-1-7.1 3.9-8 3.8-2.8 7.5 3 5.2 6.5-1.8 3.9 1 11 6 8.6 1-2.1 7.8-3.3 3.4-5.8-1.7-2-7.6-4.2-4.6-7.3 4.1 2 3-4.6 7-4.2 4.7 0 9-4 13.4-1.1 4.6 1.7 4.2 7 3.9 11-1.8 2.8 2.8 7.3-2 8.4-.9 5 6.2 4.4 9.2 3.2 4-.2 8.1.7 12.1 1.6 5.8-1 .7-8.5-3.4-5.9-4-.2-9-.8-11-4.8-1.5-5.3 4.9-8 9-8.8 3.8-.4 9.7-2 12.4 1.3-1 4.2-6.3 4-9.7 3.9-2.6-.3-7.8-3-7.4 1.7 1 4.4 5.4 3.3 8.6 3.3 3.7.1 8.2.1 10.7 3.3 2.2 3.8-1.8 9.5-6.2 8.3-4.3.7-2.1 6 .9 7.2 5.6.3 5 7.5 4.1 11.6-3.6 4.1 2.7 9.1 6.4 5.7 3-3.7.2-8.8.4-13.2-.8-5.7-2-11.4-2.8-17.2z"/><path fill="#6d8c3e" d="M281.6 278.6a27.4 27.4 0 0011.6 14.3c8.2 5 11.8 4.3 19.5 9.3s7.2 5.8 7.3 5.8-.4-.8 7.3-5.8 11.3-4.4 19.5-9.3a27.4 27.4 0 0011.6-14.3h-76.7z"/><g fill="#d4af3a"><path d="M288.3 237.2c4.6.3 5.8 5.2 5.7 8.8 1.8 3.8 7.8.8 4.4-2.5-2.2-3.2-5-7-3.6-11 1.4-2.3-.5-5.1-2.5-4.2-.1 2.5-3.5 0-2.2 3 2 2.6.8 5-2.2 4.6-.3.5 0 1 .4 1.3zm-.5-2.5c-.5-2.5-2.1 1 0 0zm2-6.4c1.2-3-3-.5 0 0zm2.4-2c1.9.6-1-2.3 0 0zm3.4.6c.4-2.1-1 1.4 0 0zm5.4 23.5c2.2 1.1 5.5-5.9 5-.7-.7 2.7 4 4.8 3.3 1 1.9-2.1 3.4 5 4.7 1 0-2.9 2.1-3.4 4-2.2.9-1.5.4-4.5 3.2-3.3 3.7-1-4.5-5.7-.2-6.9 5.3.5 1.4-5.7-2.1-4.4-1.5-.2-4.3 1.4-2.2-.6.9-2.6-4.6-2.6-1.1-4 2.8-.3 6-5.2 2-6-1.2 1.2-2.7 3.2-2.9 0-2.3-3-6.1 1.2-9 1-3 2.4.3 5.5 2.7 6 .2 1.5-4.6 3.3-.5 3 3.6-.6 4 4.8 0 4.2-2.3.1-7.4 2.2-5.7 4.5 1.4-.8 5-3 5 .1 1.4-1.7 4.4-.8 3 1.6 1.7-.3 4.4-1.1 2.3 1.5-2.2 2.3-3.4-1.3-3.9-1.9-3.3-.9-8.4-1-8.6 3.6a4 4 0 001 2.5z"/><path d="M316.7 224.2c2.9.5 2.6-3.5-.1-1.8-1.2.3-1.8 2 .1 1.8zm3.8 3.7c3.5 1.3 2.7-5.2.1-2.2-.5.6-1 1.6-.1 2.2zm-.3 1c-4.8-.1-1.6 8.1 1.7 4.3 4.1-1 1.3-5-1.7-4.3zm-14 3.6c1.2-3-5.9-2.4-5.8-3.4.3 2.6 3.5 3.9 5.8 3.4zm-8.9 41c3.4 2.2 6.1-1.8 6.4-4.9.3-3.2 3.8-9.9-1.5-10.4-2 3.5-.4 9.7-5.2 11.2-2-.1-5.3 3.9-1.7 2.9 1-.8 2.3-.3 2 1.2zm-6-.2c-.4 2.2 3.7-1.3 0 0zm3.5-.1c-1 2.1 3.8-1 .4-.3l-.4.3zM319 272c-3.6 1 1.4 3 0 0zm2.3 1.3c-2-2-1.4 3 0 0zm11-12.9c1.3-4.2-5.3-4.3-7.2-1.8-3.2 3.6 5.1 5.4 2.2 9.1-.2 3.6-8.7.9-5.6 5.2 3.7 3.2 8.9-.9 9.6-4.8.2-2.5-2.5-6.4 1-7.7zm-8.6-13c-1 2.4-5.9 1-5.2 4.4a9 9 0 00-5 3.5c-2-.9-4.8-2.5-6.1-.2-1.7-1.6-3.3-4.4-5.5-2.4-3.8-.1-1.8 6.1 1.2 2.6 3.1-1 2.2 7.6 5.5 3.8 1-3.7 3.7-.8 5.5-.5.7-1 2-3 2.2-.6 4.6-1.7 9.3-3.4 14.2-3.2 2.3.6 3.3-1.9.5-1.5-1.2.4-6.5.8-3-.6 3.1-1.3 8 0 6.5 4 .5 4.4 4.7 7 8.5 4.9 4.4.5 4.5 7.8 0 8.3-2-.3-4.9 3.7-2.5 3.3 2.7-1.8 7 3 8.5-1.4 1.9-4.2 1.6-9.2 1-13.6-2.3-2.5-7-2.3-6.9-6.8-.6-3.8-4.3-5.7-7.9-5.4-3.9-.3-7.9 0-11.8.5-.1.4.7.5.3.9z"/><path d="M337.3 273.4c1.2 1.8 2.1-1.6 0 0zm4.4-.2c-.9 2.2 3.7-1 0 0zm-61 1.6c.2 3.6 4.7 2 7 2.3h71.1c1.3-3.4-3.8-2.1-5.7-2.3h-72.5zm52.3-37.1c5 2.5 10.8.9 15.8 3.3 3.8 4-4.5 6-5.3 6.7 3 1.5 8-.3 9-3.6.6-4.8-4.8-6.1-8.5-6-3.8-.3-7.7-.4-11.1-2.3-3-4.5 4.3-7.5 7.8-5.4 2.9.5 6.5 1.2 8.8-1.2 1.3-2.4-3.8-1.1-5.5-1.8-2.8-.4-5.4.6-8 1.5-2.6.8-6.7 2.6-5.8 6 .5 1.4 1.7 2 2.8 2.8z"/></g><g fill="#b96b29"><ellipse cx="312.6" cy="226" rx="1.5" ry="1.4"/><path d="M344 228.4c-2-.2-4.5.4-4.5.4s.5.4 1.2.3c.6 0 1.8 0 3.7.3s3.2-.6 3.2-.6z"/></g><path fill="#1d5e91" d="M325.6 264.6c-.5-.8-.6-.7-1.2-.2-.5.4-1-1.2-1.1-2.2l.4-4.1s-2.6.5-4 1l-4 .9c-1.1.2-1.8.5-2.4.4-.6-.2-1.9-.2-2.9-.2s-1 .2-2 1.2-1.3 1.5-2 3.4a20 20 0 00-1.4 6 15.6 15.6 0 01-.7 3.1h12.2l.5-1.2a3 3 0 011.4-1.4c.5-.2 1-.2 1.2-.8.2-.5.8-1 1.4-1.2.7-.3 1.8-.2 2.8.1s1.4-.4 1.7-.8.4-1 1-1.6c.5-.7 0-1.3 0-1.3l-1-1.1zm19.5.3c-.1-.7 0-.8-.5-.9-.4 0-1.1-.2-1.7-.5-.6-.2-.5 1.4-.5 1.4s-1.5.2-3.1 0-3.5-1.7-4.2-2.2a5.5 5.5 0 01-1.4-1.5l-1 .7c-.5.3-.8 1.3-1 2.4 0 1 1.3 2.2 1.4 3.2 0 1-1.2 3.1-1.8 4a9 9 0 00-1.2 2.4h5.9a3 3 0 01.6-1c.6-.6 1.6-.7 1.6-.7l.2-.8c.2-.5.9-1.2 2.3-1.8 1.5-.5 3.3-.6 3.3-.6s.7-.6 1.2-1.4 0-2 0-2.7zm89.9 59.3c-1.3-.3-1.9-.8-1.9-.8s-.5 0-1 .7c-.3.8-2 1.8-2 1.8s-2.2.6-2.5 2.2c-.3 1.5.8 2 1.8 1.9 1.1-.2 3.7-.7 4.9-2.1 1.1-1.4 1.3-2.2 1.5-2.7s.4-.7-.9-1zm3.5-12.4a15 15 0 00-7.4-9.9l-2.1 7.5c-.5 1.8-.5 1.7.9 2l6.7 1.6c.9.3 2.4 1 1.9-1.2zm-20.6-3.2c1 .1 1-.3 1.3-1.7l2.1-8.2s-4.5-.1-8.5 1.8c-3.9 1.9-5.6 5.4-5.6 5.4s1 .4 3.7 1l7 1.6zm-10.5 9.3l-2.2-.4s1 3.8 2.7 6 3.5 3.2 7 3.3c3.5 0 6-1.9 6.5-3.4.4-1.5 1.1-2.6 1.1-2.6l-8.8-1.4z"/><path fill="#d4af3a" d="M406.3 315.5l15.5 3c1 .3 2 .5 2.2.2.3-.3.5-.5 1.6-.9 1.2-.4 1.1-1.5 1.1-1.5l.4-2.2c.2-1 .8-1.4 2-.1 1.3 1.3 1.5 3.2 1.7 5 .3 2 3.2 2.4 4.4 2.6 1.1.2 1.6-.2 2.3-1.3.7-1 1-3.2 1.2-4.6s0-1.2-1.4-1.6l-9.3-2.2c-1.2-.2-1-1-.7-1.9.1-.8 2.8-9.2 2.8-9.2a18.9 18.9 0 00-7.7-2.3l-2.3 10c-.3 1.3-1.2 1.3-2.5 1-1.4-.2-11.3-2.5-11.3-2.5l-.8 1.8a15.5 15.5 0 00-1.1 5.2c0 1.2.4 1.2 1.9 1.5zm34 7.8c-1.3-.9-2.3-1.1-3 .5s-.7 4-2.4 5.6c-1.8 1.7-4.2 3.4-6.6 3.2s-3.7-.7-3.2-3.5c.6-2.7 4.3-3.6 5.1-5 .9-1.5.7-3.1-.6-4.2s-3.1-1.3-3.6-1a8 8 0 00-2.8 3.7c-.7 2-1.2 3.7-2.8 5a12.2 12.2 0 01-9 2c-3.1-.8-4.3-1.8-5.5-5l-3.2-9c-.7-.5-1.5-1-2.8 0-1.4 1-1.5 2.4-1.7 3.6-.2 1.1 0 2.5 1.4 4.1 1.4 1.7 2.8 3.3 3.3 5 .5 1.8 2 4.4-.1 4.5-2.2.2-3.2.2-4.8-1.4-1.7-1.6-8.2-6-10-7.4a29 29 0 00-2.5-2c-3 0-6-1.2-9-3.3 0 0 1.8 4.4 2.1 6.1.4 1.7.3 2.6.3 2.6l9.1 4.6a168 168 0 0110.3 5.8c2.5 1.5 4.7 4 9.1 3 4.5-.9 13.5-3.6 16.5-4.5 2.9-.9 11-2.9 14-5 3-2 3.2-1.9 3.7-4 .5-2 0-3.1-1.3-4zm-17.2-31l2.2-.3c1.5-.1 1 1.3.7 1.9l-1.4 2.7c-.6 1 .2 1.2.6 1.4l2.3.6c1.3.3 1-.6 1-1l.3-3.8c.1-.9 1-.6 1.2-.5l1.7 1c.6.3 1 0 1-.4l.8-2c.2-1-.4-.8-1-.8h-2.4c-1 0-.4-1-.4-1l1.3-2.1c.6-.9.4-1-.2-1.2l-2.8-.7c-.5-.1-.7 0-.7.3l-.1 2.7c0 .7 0 1-1 1-.8.1-1.3-.4-2-1.1-.7-.8-1-.5-1-.2l-.8 3c-.2.7.1.6.6.6zm4.8 21.8s-.1 1.7-.3 2.3c-.2.7-.6 1.6.1 1.8.8.2 1.4.5 1.8.4.5-.1.3-1 0-1.7a6.4 6.4 0 00-1.1-2.2zm10.5 7c.2.5.7.6 1 .7.4.1 1 .1 1-.5s0-1.5-.5-2.2c-.5-.8-.8-1.3-1.1-.2-.4 1-.6 1.6-.4 2.2zm-36.7-7l1.4.4s0-1.7.3-2.8c.2-1.2.7-2 .3-2s-.7.4-1 .9-1.1.6-1.4 2c-.3 1.3.1 1.4.4 1.4z"/></svg>