<svg viewBox="0 0 640 480" xmlns="http://www.w3.org/2000/svg" xmlns:xlink="http://www.w3.org/1999/xlink"><defs><path id="a" d="m0-4.42 1.77 4.42h-3.54z" fill="#fff" stroke-width="8.84"/></defs><path d="m0-.1h640v160.1h-640z" fill="#fecb00"/><path d="m0 320h640v160h-640z" fill="#ea2839"/><path d="m0 160h640v160h-640z" fill="#34b233"/><g height="12" transform="matrix(40 0 0 40 320 256)" width="18"><use height="12" transform="matrix(-.81 -.59 .59 -.81 0 0)" width="18" xlink:href="#a"/><use height="12" transform="matrix(.31 -.95 .95 .31 0 0)" width="18" xlink:href="#a"/><use height="12" width="18" xlink:href="#a"/><use height="12" transform="matrix(.31 .95 -.95 .31 0 0)" width="18" xlink:href="#a"/><use height="12" transform="matrix(-.81 .59 -.59 -.81 0 0)" width="18" xlink:href="#a"/></g></svg>