<svg xmlns="http://www.w3.org/2000/svg" viewBox="0 0 640 480"><path fill="#ce0000" d="M320 0h320v480H320Z"/><path fill="#fff" d="M0 0h320v480H0Z"/><path fill="#c00" stroke="#c00" stroke-width="12" d="M138 58v60c-10 0-20 10-20 20H59v45h59c0 10 10 20 20 20v60h48v-60c10 0 20-10 20-20h59v-45h-59c0-10-10-20-20-20V58z"/><path fill="#ffe600" stroke="#ffe600" stroke-width="6" d="M138 58v60c-10 0-20 10-20 20H59v45h59c0 10 10 20 20 20v60h48v-60c10 0 20-10 20-20h59v-45h-59c0-10-10-20-20-20V58z"/><path fill="#a0a0a0" d="M138 58v60c-10 0-20 10-20 20H59v45h59c0 10 10 20 20 20v60h48v-60c10 0 20-10 20-20h59v-45h-59c0-10-10-20-20-20V58z"/></svg>