<svg xmlns="http://www.w3.org/2000/svg" viewBox="0 0 640 480"><g fill-rule="evenodd"><path fill="#ce0000" d="M320 0h320v480H320z"/><path fill="#fff" d="M0 0h320v480H0z"/><path fill="#f1eeee" d="M155.2 141.9c0 1.4-1.5 2.4-3.2 2.4-2 0-3.2-1-3.2-2.3s1.3-2.4 3.2-2.4c1.7 0 3.2 1.2 3.2 2.4z"/><path fill="#c00" d="M52.7 130.7v59.5h59.6c0 9.9 10 19.8 19.8 19.8v59.5h59.7V210c9.9 0 19.8-10 19.8-19.8h59.5v-59.5h-59.7c0-10-9.9-19.8-19.8-19.8V51.4h-59.5v59.5c-10 0-20 9.9-20 19.8z"/><path fill="#ffe600" d="M54.8 132.6v55.7h59.4c0 9.9 10 19.8 19.9 19.8v59.5h55.5v-59.3c9.9 0 19.8-10 19.8-19.9H269v-55.6h-59.5c0-10-9.9-19.8-19.8-19.8V53.3h-55.6v59.5c-10 0-19.9 10-19.9 19.8z"/><path fill="#707070" d="M56.7 134.7v51.5h59.5c0 9.9 9.9 19.8 19.8 19.8v59.5h51.6V206c10 0 19.9-9.9 19.9-19.8H267v-51.5h-59.5c0-10-10-19.8-19.9-19.8V55.4H136v59.3c-10 0-19.8 10-19.8 19.8H56.7z"/><path fill="#a0a0a0" d="M58.8 136.6v47.7h59.4c0 9.9 10 19.8 19.9 19.8v59.3h47.5V204c9.9 0 19.8-9.9 19.8-19.8h59.5v-47.6h-59.5c0-10-10-19.9-19.8-19.9V57.3H138v59.5c-10 0-19.9 9.9-19.9 19.8H58.6z"/><path fill="#d0d0d0" d="M113.3 183.8c3.5-3.5 12-.7 18.9 6.2s9.7 15.5 6.4 18.9c-3.6 3.5-12 .8-19-6.2s-9.7-15.5-6.5-19zm25.3-72c3.3 3.6.6 12-6.4 19s-15.4 9.7-19 6.5c-3.4-3.7-.6-12.2 6.5-19.2s15.3-9.6 18.9-6.3z"/><path fill="gray" d="M134.2 116c3.6 3.5 2.6 10-2 14.9s-11.2 5.6-14.8 2-2.5-10 2.1-14.7 11.2-5.6 14.7-2.2z"/><path fill="#d0d0d0" d="M210.3 137.1c-3.5 3.5-12 .6-18.8-6.4s-10-15.3-6.4-18.9 12-.6 19 6.4 9.6 15.4 6.4 18.9z"/><path fill="gray" d="M206.2 133c-3.5 3.5-10 2.5-14.7-2.1s-5.6-11.2-2.3-14.8c3.6-3.5 10.3-2.5 14.9 2.1s5.6 11.2 2 14.7z"/><path fill="#d0d0d0" d="M185 209c-3.4-3.5-.6-12 6.5-19s15.3-9.7 18.9-6.4c3.5 3.5.6 12-6.4 19s-15.4 9.8-19 6.5z"/><path fill="gray" d="M189.4 204.7c-3.5-3.5-2.6-10 2-14.7s11.3-5.6 14.8-2 2.5 10-2.1 14.6-11.2 5.6-14.9 2.1zm-72-16.8c3.6-3.5 10.1-2.5 14.7 2.1s5.6 11.2 2.1 14.7c-3.3 3.5-10 2.6-14.7-2s-5.6-11.3-2-14.8z"/></g><g fill="none" stroke="#707070"><path stroke-width=".7" d="M203.6 160.4c0 23-18.6 41.7-41.6 41.7a41.6 41.6 0 01-41.7-41.7 41.6 41.6 0 0183.4 0z"/><path stroke-width=".6" d="M193.7 160.6a31.8 31.8 0 11-63.7 0 31.8 31.8 0 0163.7 0z"/></g></svg>