<svg xmlns="http://www.w3.org/2000/svg" viewBox="0 0 640 480"><g fill-rule="evenodd"><path fill="#ce0000" d="M320 0h320v480H320z"/><path fill="#fff" d="M0 0h320v480H0z"/><path fill="#f1eeee" d="M155 142c0 1-1 2-3 2s-3-1-3-2 1-2 3-2 3 1 3 2z"/><path fill="#c00" d="M53 131v59h59c0 10 10 20 20 20v60h60v-60c10 0 20-10 20-20h59v-59h-60c0-10-9-20-19-20V51h-60v60c-10 0-20 10-20 20z"/><path fill="#ffe600" d="M55 133v55h59c0 10 10 20 20 20v60h56v-60c9 0 19-10 19-20h60v-55h-59c0-10-10-20-20-20V53h-56v60c-10 0-20 10-20 20z"/><path fill="#707070" d="M57 135v51h59c0 10 10 20 20 20v60h52v-60c10 0 19-10 19-20h60v-51h-59c0-10-10-20-20-20V55h-52v60c-10 0-20 10-20 19H57z"/><path fill="#a0a0a0" d="M59 137v47h59c0 10 10 20 20 20v59h48v-59c9 0 19-10 19-20h60v-47h-60c0-10-10-20-19-20V57h-48v60c-10 0-20 10-20 20H59z"/><path fill="#d0d0d0" d="M113 184c4-4 12-1 19 6s10 16 7 19c-4 3-12 1-19-6s-10-16-7-19zm26-72c3 3 0 12-7 19s-15 10-19 6c-3-3 0-12 7-19s15-9 19-6z"/><path fill="gray" d="M134 116c4 4 3 10-2 15s-11 6-15 2-2-10 2-15 12-5 15-2z"/><path fill="#d0d0d0" d="M210 137c-3 4-12 1-18-6s-10-16-7-19 12-1 19 6 10 16 6 19z"/><path fill="gray" d="M206 133c-3 4-10 3-15-2s-5-11-2-15c4-3 10-2 15 2s6 11 2 15z"/><path fill="#d0d0d0" d="M185 209c-3-3-1-12 7-19s15-10 18-6c4 3 1 12-6 19s-15 9-19 6z"/><path fill="gray" d="M189 205c-3-4-2-10 2-15s12-6 15-2 3 10-2 15-11 5-15 2zm-72-17c4-4 11-3 15 2s6 11 2 15c-3 3-10 2-15-2s-5-12-2-15z"/></g><g fill="none" stroke="#707070"><path stroke-width=".7" d="M204 160c0 23-19 42-42 42a42 42 0 01-42-42 42 42 0 0184 0z"/><path stroke-width=".6" d="M194 161a32 32 0 11-64 0 32 32 0 0164 0z"/></g></svg>