<svg xmlns="http://www.w3.org/2000/svg" viewBox="0 0 640 480"><path fill="#fff" d="M0 0h640v480H0Z"/><path fill="#3662a2" d="M0 329 513 0H0Z"/><path fill="#38a100" d="M640 137 122 480h518Z"/><path fill="#c70000" d="M0 480h92l548-368V0h-91L0 355Z"/><path fill="#ffe700" d="m220 172-22-13-13 22-12-22-22 13 1-26h-26l13-21-22-13 22-12-12-22h25V53l22 13 12-22 12 22 22-13v26h25l-13 21 22 13-22 12 13 22-26-1z"/><path fill="#3662a2" d="M232 112c0 26-20 47-46 47s-47-21-47-47c0-25 21-46 47-46s46 21 46 46z"/><path fill="#ffe700" d="M222 112a36 36 0 1 1-73 0 36 36 0 0 1 73 0z"/></svg>