<svg viewBox="0 0 640 480" xmlns="http://www.w3.org/2000/svg"><g stroke-width=".9"><path d="m0 0h640v480h-640z" fill="#009543"/><path d="m0 0h640v320h-640z" fill="#ed4135"/><path d="m0 0h640v160h-640z" fill="#0035ad"/></g><circle cx="240" cy="240" fill="#fae600" r="157.3" stroke="#000" stroke-width="5.3"/><path d="m213.3 263.5h53.3m-53.3-39.5h53.3m-26.6-140.8v268.8" stroke="#000" stroke-width="6.4"/><g stroke-width="1.1"><path d="m176.6 384.4c64.2 26.3 124.4 1.7 124.4 1.7s-22.7-24.6-34.3-34.2c-11.4-9.4-44.8-9-56.2 0a488.7 488.7 0 0 0 -33.9 32.5z"/><ellipse cx="240" cy="312.5" rx="17.6" ry="25.6"/><ellipse cx="240" cy="243.7" rx="21.3" ry="13.5"/><circle cx="240" cy="181.3" r="21.3"/><path d="m265.6 101.9s1.8 3-2 10c-18.6 33.5-37.3 34.2-40.8 37.1-4 3.2-5.6 3-5.6 3 .3-2.9.5-14.6.7-15.7 2.9-15.7 26.5-15.5 45-31.5 2.9-2.5 2.7-3 2.7-3z"/></g><path d="m203.2 173.87s4.27 11.95 4.8 24c1.07 19.2 19.41 19.73 32 19.73v-10.67c-9.49 0-17.71-1.39-24.53-15.47a122.67 122.67 0 0 0 -12.27-17.6zm-.53 154.67s6.72-8.32 14.61-27.73c4.05-10.13 13.87-16 22.72-16v-14.93c-20.27 0-30.08 7.47-31.04 18.56-2.13 22.51-6.29 40.11-6.29 40.11z" stroke-width="1.07"/></svg>