<svg xmlns="http://www.w3.org/2000/svg" viewBox="0 0 640 480"><path fill="#ce0000" stroke="#000063" stroke-width="12.8" d="M6 474h351L128 241h238L6 12Z"/><path fill="#fff" d="m168 350-25 8 19 19-26-2 11 24-24-11 1 26-18-19-10 24-8-24-19 19 2-25-25 10 11-23-27 1 20-17-25-10 25-8-20-19 26 2-10-24 23 11v-27l17 20 10-25 9 25 19-20-2 26 25-10-12 23 27-1-20 17zm-30-171-11 8 5 4a87 87 0 0 0 29-33c1 19-17 63-64 64a65 65 0 0 1-66-65c9 17 15 25 30 34l4-4-10-9 13-3-7-12 13 1-1-13 11 7 4-13 8 10 8-9 4 13 11-8-1 14 13-2-6 12z"/></svg>