<svg xmlns="http://www.w3.org/2000/svg" viewBox="0 0 640 480"><path fill="#fff" d="M0 0h640v320H0Z"/><path fill="#c00" d="M0 0v24l154 77h58z"/><path fill="#006" d="m66 0 186 97V0Z"/><path fill="#c00" d="M277 0v124H0v71h277v125h85V195h278v-71H362V0h-85z"/><path fill="#006" d="M387 0v92L570 0Z"/><path fill="#c00" d="M393 101h51L640 0h-49L393 101Z"/><path fill="#006" d="M0 216v68l128-67-128-1Z"/><path fill="#c00" d="m455 217 185 102v-23l-142-79ZM50 320l188-99-49 1L0 320"/><path fill="#006" d="m640 28-150 73h150v116H512l128 68v35h-67l-185-92v92H253v-92L79 320H0v160h640V0M0 36v65h135z"/><path fill="#ffd900" d="M0 320h640v160H0Z"/><path fill="#000067" d="M375 162a55 55 0 1 1-110 5 55 55 0 0 1 110-5z"/><path fill="#fff40d" d="m310 147 10-31 11 31h34l-27 20 10 32-28-20-27 20 10-32-28-20zm191 6 6-15 5 15h17l-14 9 6 15-14-9-14 9 5-15-14-9zM315 263l5-15 5 15h17l-13 9 5 15-14-9-14 9 6-15-14-9zm0-215 5-15 5 15h17l-13 9 5 15-14-9-14 9 6-15-14-9zM128 152l5-14 5 14h17l-14 10 6 14-14-9-14 9 5-14-13-9z"/></svg>