<svg xmlns="http://www.w3.org/2000/svg" xmlns:xlink="http://www.w3.org/1999/xlink" viewBox="0 0 640 480"><defs><clipPath id="c"><path d="M0 0h600v300H0z"/></clipPath><clipPath id="d"><path d="M0 0l300 150H0zm300 0h300L300 150zm0 150h300v150zm0 0v150H0z"/></clipPath><g id="b"><g id="a"><path d="M0-.3v.5l1-.5z"/><path d="M0 0v-.5L1 0z" transform="rotate(-35.9 .5 -.2)"/></g><use transform="scale(-1 1)" xlink:href="#a"/><use transform="rotate(71.9)" xlink:href="#a"/><use transform="rotate(-71.9)" xlink:href="#a"/><use transform="scale(-1 1) rotate(71.9)" xlink:href="#a"/></g></defs><path fill="#00247d" fill-rule="evenodd" d="M0 0h640v480H0z"/><g transform="matrix(.67 0 0 .67 -93 36.1)"><use width="100%" height="100%" fill="#fff" transform="matrix(45.4 0 0 45.4 900 120)" xlink:href="#b"/><use width="100%" height="100%" fill="#cc142b" transform="matrix(30 0 0 30 900 120)" xlink:href="#b"/></g><g transform="matrix(.09 .66 -.66 .09 583.6 -421.4)"><use width="100%" height="100%" fill="#fff" transform="matrix(5.62 -40.01 40.01 5.62 900 120)" xlink:href="#b"/><use width="100%" height="100%" fill="#cc142b" transform="scale(25) rotate(-82 20.8 -18.3)" xlink:href="#b"/></g><g transform="matrix(.09 .66 -.66 .09 583.6 -421.4)"><use width="100%" height="100%" fill="#fff" transform="rotate(-82 668.6 -327.7) scale(45.4)" xlink:href="#b"/><use width="100%" height="100%" fill="#cc142b" transform="scale(30) rotate(-82 22.3 -11)" xlink:href="#b"/></g><g transform="matrix(.67 0 0 .67 -93 36.1)"><use width="100%" height="100%" fill="#fff" transform="matrix(50.4 0 0 50.4 900 480)" xlink:href="#b"/><use width="100%" height="100%" fill="#cc142b" transform="matrix(35 0 0 35 900 480)" xlink:href="#b"/></g><path stroke="#fff" stroke-width="60" d="M0 0l600 300M0 300L600 0" clip-path="url(#c)" transform="scale(.61 .73)"/><path stroke="#cc142b" stroke-width="40" d="M0 0l600 300M0 300L600 0" clip-path="url(#d)" transform="scale(.61 .73)"/><path fill="#fff" d="M151.7 0v79.4H0V140h151.7v79.4h60.7v-79.3H364V79.4H212.4V0z" clip-path="url(#c)"/><path fill="#cc142b" d="M163.8 0v91.5H0v36.4h163.8v91.5h36.4V128h163.9V91.5H200.2V0z"/></svg>