<svg xmlns="http://www.w3.org/2000/svg" viewBox="0 0 640 480"><g fill="#fff"><path d="M0 0h640v480H0z"/><path d="M80 0h480v480H80z"/></g><g fill-rule="evenodd" stroke-linejoin="round"><g stroke-width="2.5"><path fill="#083d9c" stroke="#083d9c" d="M277.3 340.8c8.1-6.1 19.3-11.7 29.4-7 6.4 4.4 14.7 9 22 3.4 6-3.8 13.3-6.4 20.3-4 3.6 1.1 13 3.8 12.5 5.8l-38.8 11.7-45.4-9.9zm-22.9-13l135.4.7c-8.6-8.8-21.8-16.1-34.3-11.7-4.8 3.8-10.6 6.9-17 5.2-6.7-1.7-12.7-7.4-20.2-5.7-8.6 1-16 8.7-25 5.5-6.9-1.7-13.2-8-20.7-5.5-7.6 2-14.8 5-22 8 1.2 1.1 2.7 2.7 3.8 3.5zm-17.3-16l167 .5c1-6.2-6.8-9.8-11.6-12.1a15 15 0 00-15.5 1.6c-5.5 4-12.7 8-19 3.4-6-3.3-12.8-8.2-19.8-4.9-7.2 2.6-14.1 9.2-22.2 6.3-7.1-3-13.8-9.5-22.2-7.3-7.4 1.4-12.5 10.7-20.7 7.8-7.2-2.3-12.7-10.5-21-8.3-6.6 1.8-11.7 7.2-18.1 9.5-2 .2 2.4 3.6 3.1 3.5z"/><path fill="red" stroke="#000" d="M301.3 218.9l38.4 10.2v-54.8c-17.6 1-32.2-33.4-1.2-35.7-30.5-4.4-34 3.5-37.5 12z"/></g><path fill="#083d9c" stroke="#083d9c" stroke-linecap="round" stroke-width="5" d="M277 258.7l86.7.3"/></g><path fill="none" stroke="#000" stroke-linecap="round" stroke-width="4" d="M281.1 238l10.3 13.7m-10.3 0l11.1-13.5M287 237l-.3 8.5m10.8-7.6l10.3 13.8m-10.3 0l11.1-13.5m-5.2-1.2l-.3 8.5m11.1-7.6l10.3 13.8m-10.3 0l11.1-13.5m-5.2-1.2l-.3 8.5m11.7-7.6l10.2 13.8m-10.2 0l11.1-13.5m-5.3-1.2l-.2 8.5m11-7.6l10.3 13.8m-10.2 0l11.1-13.5M354 237l-.3 8.5"/><g fill-rule="evenodd"><path fill="#ef7d08" d="M218.7 259.6l36.9.3v-23.1l-42.2-2.1zm-1.8-32l39.3 3.9-.3-16.4-38.4-15.3-.6 27.9zm8-32.7l30.1 14.6 4.3-4.5s-2.8-1.9-2.6-3.7c0-1.7 2.8-2 2.8-4 0-1.7-3-2-3.1-3.7-.2-2 2.4-4 2.4-4l-27.2-23.7-6.8 29zm198 65h-39l-.3-22.6 42.8-3.2zM384.2 232l46.3-5.6-10-26.7-36.6 15.6zm33.7-39.6L384.5 210c-.5-2-.9-3.8-3.2-5.3 0 0 2-1.2 2-3.2s-2.6-2.4-2.6-3.5 2.4-2.2 2.6-4.9c-.3-1.8-2.6-4.4-2.2-4.9l26-19.8zm-72.4 39.1l16.7-.7.3-6.7zm-51-.5l-17.5-.5v-7l17.6 7.5zm0-2l-17.5-9v-11.8s-2 .3-1.8-2c.1-4.9 12.9 8.9 19.4 13.4zm51-1.1v-7.7l19.1-16.9c0 3-1.8 5.2-1.8 5.2v11.2zM243 163.8l17.8 19.7c.4-1.8 4.5-2.1 8.6-1.8 4 .3 7.3-.3 7.3 2.6s-2 2.5-2 4.6 3 1.9 3 4.5-2.2 2.1-2.2 4.1c0 1.7 2.4 1.8 2.4 1.8l16.6 16.1v-17.2l-34.2-53.7zm27.4-20.4l23.3 47.5s.2-43.8 4.1-46.1l-6.5-12zm101 1.9l-26 46.2V172s2.2-3.2-1.2-3c-3.4.3-7.5-.2-7.5-.2l10.4-36.6 24.3 13zM398 165c-.3.5-17.5 18-17.5 18-.8-2-6-1-11-1-4.9 0-5.6 1.6-5.3 2.9.5 3.3 2.2.8 2.2 4 0 3.1-2.4 2-2.7 4.2.3 2.7 3.8 2 1.7 4l-19.9 19.2v-18.2l37.1-57.6z"/><g stroke-linejoin="round" stroke-width="2.5"><path fill="red" stroke="#000" d="M309.8 268.4c-8.3 13.8-30.6 9.7-35.9 0-1.5-.4-.6-59.5-.6-59.5s-2.5-1.1-2.6-3c-.1-1.8 3.4-2 3.4-4.3s-3.6-1.4-3.7-3.8c0-2.2 3.9-2 3.7-4-.2-2.4-4.3-2-4.5-4.2 0-1.7 3-3.2 3.8-4a61.3 61.3 0 01-2.8 0l-6.4.1c-4.6 0 0 1 0 3.6 0 1.7-2.3 2.9-2.5 4.3-.1 1.6 3.2 2.6 3.3 4.5 0 1.6-3.3 1.7-3.2 3.3.2 2.5 3 3.1 2.9 4.7 0 1.5-3.6 2.1-3.7 3.3.2 2.4.6 60.8.6 60.8 5.7 29.8 38.8 37.3 48.2-1.8zm21.9 0c8.3 13.8 30.6 9.7 35.8 0 1.6-.4.7-59.5.7-59.5s2.5-1.1 2.6-3c.1-1.8-3.2-2-3.2-4.3s3.4-1.4 3.4-3.8c0-2.2-3.5-2-3.3-4.2.2-2.3 3-2 3.1-4.2.1-1.9-1.7-3-2.6-3.8h2.7l6.4.1c4.5 0 0 1 0 3.6 0 1.7 2.3 2.9 2.5 4.3 0 1.6-3.2 2.6-3.3 4.5 0 1.6 3.3 1.7 3.2 3.3-.2 2.5-3 3.1-3 4.7.1 1.5 3.7 2.1 3.7 3.3l-.5 60.8c-5.7 29.8-38.9 37.3-48.2-1.8z"/><path fill="#083d9c" stroke="#083d9c" d="M301.7 295.6H339c-4.6-8-14.3-14.7-23.7-11.1-5.6 2-10.7 6-13.6 11.1zm118.9-1h-51c5.2-1.6 7.8-10.6 12.5-4.4 8.6 3.9 15.1-4.9 23-6.3 6.6-.2 11.5 6.7 15.5 10.7zm-201 0h51c-5.2-1.6-7.8-10.6-12.5-4.4-8.6 3.8-15.1-4.8-23-6.3-6.6-.2-11.5 6.7-15.5 10.7zm3.8-16l36.3.3c-2.6-5-.8-14.7-9.3-11.4-7.6 1.6-13.8 10.5-22 6.6-3.5-.2-11-10.3-7.6-2.8l2.6 7.3zm194 0l-36.4.3c2.6-5 .8-14.7 9.3-11.4 7.6 1.6 13.8 10.5 22 6.6 3.5-.2 11-10.3 7.6-2.8-.8 2.4-2 5-2.5 7.3zM311 279l18.4-.5c-1.5-7.2-13.2-7.3-17.3-2.4-.7.8-.8 1.9-1.1 2.9zm-11.2-7.9l4.7-3.1 3.5-4.5-12.6.3c-2.2 1.5-12.8 8.3-5.4 7.3h9.8zm40.8 0l-4.7-3.1-3.5-4.5 12.6.3c2.2 1.5 12.8 8.3 5.4 7.3h-9.8z"/></g><path fill="#de2010" d="M0 360h640v120H0zM0 0h640v120H0z"/></g></svg>