<svg xmlns="http://www.w3.org/2000/svg" viewBox="0 0 640 480"><g fill="#fff"><path d="M0 0h640v480H0z"/><path d="M80 0h480v480H80z"/></g><g fill-rule="evenodd" stroke-linejoin="round"><g stroke-width="2.5"><path fill="#083d9c" stroke="#083d9c" d="M277 341c8-6 20-12 30-7 6 4 14 9 22 3 6-4 13-6 20-4 4 1 13 4 13 6l-39 12-46-10zm-23-13l136 1c-9-9-22-17-34-12-5 4-11 7-17 5-7-2-13-7-21-6s-16 9-25 6c-7-2-13-8-20-6l-22 8 3 4zm-17-16h167c1-6-7-9-11-12a15 15 0 00-16 2c-5 4-13 8-19 3-6-3-13-8-20-5s-14 10-22 7c-7-3-14-10-22-8s-13 11-21 8c-7-2-13-10-21-8l-18 9c-2 1 2 4 3 4z"/><path fill="red" stroke="#000" d="M301 219l39 10v-55c-18 1-33-33-2-35-30-5-33 3-37 12z"/></g><path fill="#083d9c" stroke="#083d9c" stroke-linecap="round" stroke-width="5" d="M277 259h87"/></g><path fill="none" stroke="#000" stroke-linecap="round" stroke-width="4" d="M281 238l10 14m-10 0l11-14m-5-1v9m10-8l11 14m-10 0l11-14m-6-1v9m11-8l11 14m-11 0l11-14m-5-1v9m12-8l10 14m-10 0l11-14m-6-1v9m11-8l10 14m-10 0l11-14m-5-1v9"/><g fill-rule="evenodd"><path fill="#ef7d08" d="M219 260h37v-23l-43-2zm-2-32l39 4v-17l-39-15v28zm8-33l30 15 4-5s-3-2-2-4l2-4-3-3c0-2 3-4 3-4l-27-24-7 29zm198 65h-39v-23l42-3zm-39-28l46-6-9-26-37 15zm34-40l-33 18c-1-2-1-4-4-5l2-4-2-3c0-1 2-2 2-5l-2-5 26-20zm-73 40l17-1v-7zm-50-1h-18v-7l18 7zm0-2l-18-9v-12s-2 0-2-2c0-5 13 9 20 14zm51-1v-8l19-17-2 6v11zm-103-64l18 20c0-2 4-3 8-2 4 0 8-1 8 2s-2 3-2 5 3 2 3 4l-2 4c0 2 2 2 2 2l17 16v-17l-35-54zm27-21l24 48s0-44 4-46l-7-12zm101 2l-26 47v-20s3-3-1-3h-7l10-37 24 13zm27 20l-17 18c-1-2-6-1-11-1s-6 2-6 3c1 3 2 1 2 4s-2 2-2 4c0 3 3 2 1 4l-20 19v-18l38-58z"/><g stroke-linejoin="round" stroke-width="2.5"><path fill="red" stroke="#000" d="M310 268c-8 14-31 10-36 0-2 0-1-59-1-59s-2-1-2-3 3-2 3-4-4-2-4-4 4-2 4-4c0-3-4-2-4-4s3-4 3-4a61 61 0 01-2 0h-7c-4 0 0 1 0 3l-2 5c0 1 3 2 3 4s-3 2-3 3c0 3 3 3 3 5s-4 2-4 3l1 61c5 30 38 37 48-2zm22 0c8 14 30 10 35 0 2 0 1-59 1-59s3-1 3-3-3-2-3-4 3-2 3-4-3-2-3-4c0-3 3-2 3-5 0-2-2-3-3-3h9c5 0 0 1 0 3s3 3 3 5l-4 4c0 2 4 2 4 3-1 3-3 3-3 5s3 2 3 3v61c-6 30-39 37-48-2z"/><path fill="#083d9c" stroke="#083d9c" d="M302 296h37c-5-8-14-15-24-11-5 2-10 6-13 11zm119-1h-51c5-2 7-11 12-5 9 4 15-5 23-6 7 0 12 7 16 11zm-201 0h51c-6-2-8-11-13-5-8 4-15-5-23-6-6 0-11 7-15 11zm3-16h37c-3-5-1-15-10-11-7 1-13 10-22 6-3 0-11-10-7-3l2 8zm194 0h-36c3-5 1-15 9-11 8 1 14 10 22 6 4 0 11-10 8-3l-3 8zm-106 0h18c-1-8-13-8-17-3l-1 3zm-11-8l5-3 3-4h-13c-2 1-12 8-5 7h10zm41 0l-5-3-4-4h13c2 1 13 8 5 7h-9z"/></g><path fill="#de2010" d="M0 360h640v120H0zM0 0h640v120H0z"/></g></svg>