<svg xmlns="http://www.w3.org/2000/svg" viewBox="0 0 640 480"><style>.D{stroke-linejoin:round}.E{fill:#337321}.F{fill:#f7e017}</style><clipPath id="A"><path d="M-15-7.5h30v15h-30z"/></clipPath><path fill="#00247d" d="M0 0h640v480H0z"/><g clip-path="url(#A)" transform="translate(320 160) scale(21.333)"><circle r="20" fill="#00247d"/><g class="D"><path stroke="#fff" stroke-width="3" d="M-20-10l40 20m-40 0l40-20"/><path stroke="#cf142b" stroke-width="2" d="M-20-10l40 20m-40 0l40-20"/></g><path fill="#fff" d="M0 0l20 10h-3L-3 0m3 0l20-10h3L3 0M0 0l-20 10h-3L-3 0m3 0l-20-10h3L3 0"/><g class="D"><path stroke="#fff" stroke-width="5" d="M-20 0h40M0-10v20"/><path stroke="#cf142b" stroke-width="3" d="M-20 0h40M0-10v20"/></g></g><g stroke="#000" class="D"><path d="M420.3 313.5a57 57 0 00-18.8 28.5c-5.7 27.7-13.4 34-24.7 28 0 15 12.6 16.3 18.2 7.5 0 13.8 4.9 26.3 16.1 36.5 4.6 4.5 5.4 1.4 3.2-3.3-2-5-2-20.5-6.6-29.6 7.2 5.5 17.7 2.5 16.9-12.2-9.2 5.5-18.3 5.5-19.4-7.8-1-15.5 4.9-37.9 15-47.6zm-11-110.7c.8-5.6-.6-11.1-4.3-15-7.8-6.6-15-4.4-20.7 1.1-8-4.7-12.6 11.6-22 8.9 1.6 5.5 4 7.7 8.8 5.8-5 4.7 0 10.2-5.9 15.8 10.8 3.3 16.1-2.8 15.6-13 4 3.6 10.5 3.3 13.7-.9-5.4-1.6-5.4-6.6-3.2-11.3 3.2-7 18.8-6.7 18 8.3z" class="F"/><path d="M433.7 282.8c-12.1 6.4-33.6 3.6-35.7-12.2-1.9-15.8 13.1-23 17.2-25 6.1-3.2 11 2.6 9 9.2a11 11 0 005.2-15.8c9.1.9 17.4-6.3 21.2-16.6-3.2 3.4-12 1.1-19.3.6 2.4-2.5 2.4-7.5 1.6-10-7.5 8.3-18.5 4.5-33 27.7a1070.9 1070.9 0 009.4-38c1-15.2-14.8-15.4-18-8.5 3.5 4.1 1.6 9.1.2 16.6l-7.7 36.8c-.9-11-7.8-11.6-9.2-16.6-2.1 1.1-3.2 4.7-2.7 7.5-2.6-2.8-10.7.5-14-3.6-3.4 7 2 13.8 7.6 16.6-3.2.5-4 4.4-7.5 4.4 4.6 5.8 9.7 8.3 15.3 8.6 5.6.6 10 2.8 13.4 9.7 5.4 11.6 26.9 19.1 47 8.6z" class="E"/><path d="M463 268.7a60.6 60.6 0 01-33.4 34.9c-14 3.5-42.6 18-50.2 25.1a8.7 8.7 0 01-3.1-1c-3.8-2.8-7-12-.3-19.4 21-20.5 43.5-11.7 57.7-25.5-11.8 6.3-33.6 3.6-35.7-12.2 12.9 3.6 36 3.6 54.2-16.6 2.4 2.7 9.4 11.6 10.7 14.7z" class="F"/><path d="M420.3 313.5c-10.8 9.4-16.1 32.1-15 47.6a14 14 0 003.2 8.9c.8-8.6 6.7-31.3 21.7-41.5 12.6-8.3 32.5-27.7 40-49.3a17.3 17.3 0 00-8-9.4c-7 20.5-27 30.4-42 43.7z" class="E"/><path fill="#316d3a" d="M456.2 259.8a48.4 48.4 0 01-20.6 17.2 11.3 11.3 0 002.6-6.7 73.7 73.7 0 01-40.2.3 52.5 52.5 0 0054-16.6c1.8 2.2 3.4 3.9 4.2 5.8z"/><path d="M419.2 426.5c-2.4 1-4.6 2.8-3.5 11 .3 3.7 0 12-2.7 12 1.6 1 5.4 1.9 7 0 1.6 2.4 4.8 1.6 6.2-1.7 1.8 1.7 4.3-.8 4.3-3 1.6 1 4.8-.6 4-5.6 1.9.8 4.3-.5 5.4-2-3-.5-10-4.4-11.6-7.4-1.9-3.3-6.2-4.7-9.1-3.3z" class="F"/><path d="M376 308.3c-17.2 16.6-6 30.7.8 34-1.6 11.3 8.8 10 8.6 19.7 4.3-2.5 5.3-9.2 4.5-14.4 5.4 5.8 19-.9 22 10.2 2-12.2-7.2-24.3-18.7-23.2 4.8-4.5 2-11.4-2.5-13.3-.8 8.8-10.7 8.8-14.5 6.3-3.7-2.7-7-11.9-.2-19.3z" class="E"/><path d="M413 412.9c-1.9 1.1-1.9 3.6-.8 5.3 2.7 3-1.6 10.5 6 11.9 2.3.5 4-.9 4.7-3.6 2.7-7.2-5-8-5.6-11.4-.8-3.6-2.7-3-4.3-2.2z" class="F"/><g class="E"><path d="M537.3 308.3c27.6 23.7 29.5 42.6 25 53.6-2.2-10.2-13.5-26.2-25.3-30.4l.3-23z"/><path d="M488.2 295h51v62.3A111 111 0 01481.5 458 111.3 111.3 0 01424 357.2V295h35.7c0 3.3.3 8.3 4 13 8.4-.9 18-7.5 24.5-13z"/></g><path fill="#006ec7" d="M539.2 295v62.3c0 15.7-2.7 29.9-7 42l-50.7-95.5-50.5 95.5a123.3 123.3 0 01-7-42v-62.4z"/><g class="F"><path d="M533.5 395l-3.7 10.2-48.3-92.8-48.4 92.8-3.7-10.3 52-99.6zm-29 34l4.9 2.5a37 37 0 002.1-20.5c-2.7 7.7-12.6 7.5-15.3 12.2l4.6 2.7a51 51 0 01-15.9 10.8V387c0-3.3-1-6.4-1-9.1v-10.3c0-2.2-.3-5.5-2.4-5.5-2 0-2.5 3.3-2.5 5.5v10.2c0 2.8-1 6.1-1 9.2v49.5c-2.7-7.5-12.1-5-16.7-12.2a12.3 12.3 0 015.4-.2c-3.2-12-12.3-12.8-14.2-16 0 4.6-2 16 1 20.7a11.8 11.8 0 013.3-2.5c3.7 8.3 20.6 8.3 24.7 22.7 3.2-5.6 15-11 23-20.2z"/><path d="M481.5 387.7l20.4-1c1 0 1.8-1.8 1.8-4s-.8-3.9-1.8-3.9c-4.6 0-16.4-1.3-20.4-1.3-3.8 0-15.9 1.4-20.2 1.4-1 0-2.1 1.6-2.1 3.8s1 3.9 2.1 3.9zm-2.5-20.2a4.7 4.7 0 00-3-1.1 4.4 4.4 0 100 8.9c2.8 0 4.6-2 4.6-4.5a1.4 1.4 0 012.7 0c0 3.9-3.2 6.7-7.2 6.7s-7.3-2.8-7.3-6.7c0-3.6 3.3-6.6 7.3-6.6a7.8 7.8 0 013.2.5v2.8z"/></g><path fill="#fff" d="M471.3 339c0-1.1.8-1.7 1.8-2.5 1.4-.8 2-1.4 3-1.4h14.7c1.1 0 1.4.3 1.4 1.4V357c0 1-.3 1.4-1.4 1.4h-19.6V339"/><path fill="#e5e5e5" d="M487.1 360c2.1 0 1.6 0 3-1.4 1.5-1.4 1.3-1.4 1.3-2.7v-18.6c0-1 0-1.4-1.3-1.4h-13.5c-1 0-1.6.6-2.7 1.4s-1.8 1.1-1.8 2.2V360z"/><path fill="#fff" d="M488.7 359.8c0 .8-.3 1.3-1.3 1.3h-14.8c-1 0-1.3-.2-1.3-1.4v-20.4c0-1.1.2-1.4 1.3-1.4h14.8c1 0 1.3 0 1.3 1z"/><path fill="#999" d="M517.2 283a12 12 0 012.1 12H515c1.9-5.6.5-10.8-7-11.4-11.2-1-24.4 21.6-44.3 24.4-5.9-7.2-5.3-20.8 2-27.1a89 89 0 00-17.5-29.4c-3.8-.5-8-.8-10.8-.5 3-6.7 11.3-13.3 18-16.1l3.2-4.7c.8-8.9 41.6-4.7 50.2.8 0 10 4 43 8 52z"/><path d="M467.5 289.1a56.8 56.8 0 00-15.3-36.8c4 1.4 12 1.4 17.7-2.8 7.3-5.2 26.9-13.8 33.6-10.2.5 1.4 1 4.2.5 6.1-1.6-4.7-20.1 2.5-25.5 4.7-5 2.2-7.2 5.5-5.4 12.7-3-2.5-1.8-5-5-6.6 1.3 2.8 2.3 8.3 2.6 12.7-1-3-3.2-9.7-7.5-13.8a79 79 0 015.4 35.7c3.2 0 10-3 12.6-5.5-2.7 3.6-9.1 6-13.4 6.9a23.5 23.5 0 00-3.3 12.2c-.5-4.5.8-14.7 3-15.2zm49.7-6c-3.8-4.5-10.8-6.7-19.6-4.2 1.3-.8 4.3-2 7-2.2l-2.7-15.5 2.1-.8 4 16c.6.3 2.7.6 4 1.4a248.4 248.4 0 01-4.2-21.6l3.2-2a132 132 0 006.2 28.9z"/><path d="M515 295c1.9-5.6.8-10.8-7-11.4-5.9-.6-12 5.5-19.6 11.4h26.9zm-49.4-49.6c-3.2.5-10.7 0-14.5-1.4a8 8 0 011.1-3.3 53 53 0 00-8.6 7c5.4 1 16.4 1.6 22-2.3z" class="E"/><path fill="none" d="M465.4 280.9a40.3 40.3 0 012.4 10.2m-12.4-56.5a36.3 36.3 0 00-4.3 9.4c3.8 1.1 11.3 2 14.5 1.4m-17.4 6.1l4 .8c4 1.4 12 1.4 17.7-2.7 5.4-4.2 20.7-17.2 37.9-18.6m-64 16.6c5.4 1.1 16.2 1.7 21.8-2.2a73.8 73.8 0 0138.1-15.2"/><path d="M537.3 308.3c18.8 13.5 32.7 26.2 36.8 47s11.5 26.3 20.9 20.8c-2.1 11.9-14 13.3-23.6 4.1.8 13.9-4.6 30.5-18.3 36.3-1-8.3 4.3-14.7 2.7-21.6-.5-2.8-.8-10 3-13-7.3 2.5-18.8-2.5-20.2-13.9 8.6 4.5 19.6 5 23.6-6 4.3-11.1 2.7-30-25-53.5zm23.6-107.8c6-15.4 21.2-13.8 26.3-7.1 14.8-8.9 17 11 29.5 7.2 0 3.6-4.3 6.9-9 6.6 4.7 4.7-2 11.6 8.5 15.8-9.1 4.7-21.5 0-25-13-2.6 6-13.4 6-17.4 1.3 9.1-2.7 8.3-11.3 3.2-15-5-3.2-14.2-1.8-16 4.2zm-45 34.7a81.8 81.8 0 0022 35.4c10.7 10.3 26.8 7.5 35.9-2 0 19.4-19 20.8-30 14.7-4.6-2.7-8.7-1.3-4.1 2.8 7 6.6 22.3 11.4 40.3 15.2 31.1 7 19.8 32.7 10.7 32.4 2.7 0 4.8-2.7 1-6.3-27-25.2-82.3-15.3-81.2-71.5-6 14.7-29.8 8.9-18.8-8.5 3.7 2.7 9.9 3.3 11.8-1.4 1.3-3.6.5-9.7-6-15.3 1.1 0 3.6 0 3.3-2.7 0 1.6 1.6 4.1 5 3.3.9 1.6 2 2.8 3.6 2 0 0 1-.6.8-2 0 2.8 3.7 4.1 5.4 3.9z" class="E"/><g class="F"><path d="M543.7 283.3c13.2 8.6 27.7 8.6 41.1-7.4 4.3-5 11-9.5 15.8-10 4.6-.3 4.3-5 8-5.8-2.3-.9-3.1-3.6-6.6-3 8.6-3.1 5.9-10 10.2-13.4-3.5 1.1-8.6-3.8-13.4 2.8 1-3-.6-6.6-1.6-8.3.2 3.6-6.8 4.4-8.1 13-.8 5-3.2 4.7-3.8-2.8-.2-5.5-2.6-21-5.9-28.8-3.2-8-4-18.5.3-20.2a8.2 8.2 0 00-2.7-2.7c-5-3.6-14.2-2.2-16 4.1-5.7 15.5 10.6 24.7 9.3 41.5-2.7-12.7-22.5-15.7-22.3-28.2-6.4 2.8-5.3 8.3-3 12.7-4-6.3-13.4 4.2-21.1-4.4-.8 11.4 9 15.8 17.1 16.4-4 7.2 1.4 13.5 6.7 15.5 0-12.8 25.8-7.5 26 14.6 0 18.9-19.5 20.2-30 14.4zm36 18c31.4 7 20.1 32.7 11 32.4-5.9 0-11.3-5.2-11.8-9.7-6.7 4-4.8 11.1.3 13.9-14-1.7-19.9 8-20.4 18.3 2.6-4.8 10.7-5 13.4-4.2 2.7 1 10.5 1.6 13.4-1.7-2.7 2.2 1.6 7.2-1.9 11.1 11.6-.6 16.7-11.6 14.8-16.6 15.3-14.4 12.3-37.7-18.8-43.5zM556.1 411c1.9 1 1.6 3.8.3 5.5-2.7 3.6 1.3 11.9-7 13.3-2.7.6-4.6-1.1-5.4-4.2-2.1-8.3 6.2-8.5 7-12.4 1-3.9 3.2-3.3 5-2.2z"/><path d="M548.3 425.6c2.7 1.7 5.1 3.6 3.8 12.8-.9 3.9-.9 13 2.4 13.3-2.2.8-6.5 1.9-8-.6-2 2.8-5.5 2-7-2-2 1.7-4.6-1.3-4.6-3.5-1.6 1-5.4-.9-4-6.4-2.2.8-4.9-.8-6-2.2 3.3-.6 11.3-4.7 13.5-8.3 1.8-3 6.7-4.7 9.9-2.8z"/></g><path d="M510.4 256c-.5 23.5 9.2 35.4 22.3 43.1-5-2.8-2.7-13.3-9.4-16.6 1.6 0 4 2.2 8 1.1-2-4.1-5.3-11-12.3-11.9 2 0 6 .6 8.6-.5-3.7-5.9-14-3-17.2-15.3zm-2.4-22.5c-.8-.3-1.6-1.1-2.1-2.2-3.5.8-4.8-1.7-5.4-3 .3 2.7-1.9 2.4-2.7 2.7 6.2 5.3 7 11.4 5.4 15-1.6 4.7-7.8 4.4-11.3 1.3-.5 9.7 11.8 13 16.1.9 0 2 2.7 1.6 3.3 4.4 3.2-5.2.8-12.7-3.3-19.4zm-19.6-46.8a28.1 28.1 0 01-8-19.4c.2-5 2.1-10.5 9.4-8.3-2.2 0-.6 4.7-3 5.3 1.9.8 4.3-.9 4.9-2 .2 1.7 3.2 1.1 3.5 2.8 1-.8 0-5.3-2-6 1.4-1 2.2-4.5 1.4-6.2-1 .3-2.7 2-3 4.2.6-2 0-6.4-3.2-7.2-.8 1.4-1 4.4 0 6-2.7-.5-7 1.5-8 4a22.7 22.7 0 012.4-10.3c.5-.8-.8-2.5-2.2 0-2.1-4.7-8-7-10.4-4.7s-6-1-8 2.5c-2.2 3.3-9.5 3.9-9.2 7.5.3 2.2 0 5.5-1.3 6.6-2.7 3 1.3 5.3 1.8 8-.2-8.8 13.5-26 26.9-19.3a25.7 25.7 0 00-2.7 11.9c-.8 8 .5 19 7.8 25.4l2.7-.8z" class="E"/><path fill="#cf142b" d="M492.2 159.3c0-2 3.5-4.7 8-4.7 6 0 10.3 5.5 14.8 4.7 4.3-.3 2.2 2.2 1.3 2.8-1 .8-1.5 1.9-1.3 3 .3 1.4 0 2.2-1.9 1.1-4-2.7-8 .9-13.4-1-4.6-1.7-7.2-2.9-7.2-5.9z"/><path fill="gray" d="M469.4 213.6a33.8 33.8 0 00-14.8-17l-.3-3.8c2.2-1.1 7.6-5.5 10-7.8 16.9 8.4 39.7-3.5 50.2-15.7l4 2.7-2.1 2.8-2.2-1.4c-2.7 3.4-12 12.5-15 14.7a52.1 52.1 0 0010.7 1.4c9.4-7 16.7-13 20.4-13.6l2.7 4.2-2.7 2-1.9-1.2a111 111 0 00-26 39.6c-6.2-1.4-28.5-.6-33-7z"/><g fill="none"><path d="M499.2 188.1a15.8 15.8 0 01-3.5-1.4 20.7 20.7 0 01-11.8 3.6m-13.7 20.8c-1.4-8.3 1-18 5.4-21a32.2 32.2 0 0034.3-.6"/><path d="M470.2 206.7c7.2 0 22.8 1 26.6 1.6s10.2 2.2 9 4.2m-32.4-7.2l2.1-2-1.8-2.2-2.2 2.2 2.2 2z"/></g><path d="M478.5 162.6c-2.7-3.8-9.7-5-11.3 0-.5 2.2-1.6 4.5-3.2 5.6-1.9 1-1.3 4.1-.5 5.5 1.6 3.3 0 6.7 3.5 8.9 0-2.8 3.7-5.6 7-6.1 3.4-.9 8-4 8.8-7.2s1.9-6.1-4.3-6.7zM462.4 196h.8v6l.5.3 5.4-3 .5.8-5.3 3v.6l5.4 3.3-.6.6-5.4-2.8h-.5v6.4h-.8v-6.4h-.5l-5.4 2.8-.5-.6 5.3-3.3v-.5l-5.3-3 .5-1 5.4 3.1h.5v-6.6h0z" class="E"/><path fill="gray" d="M470.2 211c-3.1 3.4-8 4.4-12 2.5s-6.7-6.1-6.5-10.7 3.3-8.7 7.6-10 9 .2 11.7 3.9a25.3 25.3 0 00-1 5.8c-.5-4-4-7-7.8-6.6s-6.9 3.7-6.7 7.7 3.3 7.2 7.2 7.2c3.5 0 6.1-2.5 7.2-5.5z"/><path d="M458.4 221.6a8.3 8.3 0 01-2-4.7c1.2 0 3 .6 3.9 1.4 0-1.1-.6-3.6 0-4.7 1 .5 3.4 2 4.5 3.6a17.1 17.1 0 01-.3-5.9 9.2 9.2 0 014 4.5c0-2.5.9-6.1 1.7-7.2.8 1 2.7 2 3.5 3.3 0-1.6 1-3.9 2.4-4.4a10.7 10.7 0 012.7 6.6c1 0 2.7-2 3.2-2.7a5.6 5.6 0 01.5 4.4 11.6 11.6 0 003.2-4.2c.9.6 2.8 2.3 2.8 4.2l-.3-5.5a6.2 6.2 0 013.2 4.1c.5-1.7 1.6-4.4 2.4-5.3.8 2 1.9 4.2 1.6 6.1.6-1.4 1.6-3.3 2.4-3.8.8 1.3.6 4.1.6 5.5a10.9 10.9 0 013-2.8v2.8c1-.3 2.6-3.6 3.1-5 1.7.8 3.3 3.6 3.3 5a11 11 0 004-3.9c0 .9.5 3 0 4.7l1.6-2.7c.5 1.3 0 4.1-.3 5.5a7.3 7.3 0 013.3-1.4c0 2-1.1 5.6-2.4 7.8-10.8-2.8-33-4.2-55.6-5.6zm37.3-61.2c0-.8 1.9-2.8 5-2.8 4.1 0 7.6 3 10.8 2.8 3.2 0 1.6 1.1.8 1.4-.5 0-1 .5-.8 1.1s0 .8-1.3.3c-2.7-.9-5.7.5-9.4-.3-3.2-.8-5.1-1.1-5.1-2.5z" class="F"/><path d="M461.9 228.5c-3.5 4.2-6.7 3.3-7.5.6-.6-2.8 1.8-3.9 1-6.1-1-2.2 1.4-3.3 2.7-2.2.8.8 4.6-2.5 6.2 1 1.3 3.4 2.7 5.9 1.9 7.3-1.1 1.4-3.8.5-4.3-.9zm14.2-6.3c-.5-1.7 2.7-4.5 4.8-2.5 1.6 2.2 4.6-2.2 6 1l2.9 7c.8 2-4.3 2.8-5.7 1 0 1.2-4.5 2-5.6-1zm23.3 1.9c-.8-1.7 3.3-3.9 5.4-1.1.6-1.1 4.6-1.4 4.8 2.2 0 3.6.3 5.5.6 7 0 1.3-2.7 2.7-4.3-1-3.5 1-4.8-1-5.4-3.2a15.3 15.3 0 00-1-4z" class="E"/><path d="M464 221.9c-.5-1.4 2.7-3.6 5.1-2 2.2 2 5.4-1.4 6.7 1.7 2.7 6.4 3 6.6 2.2 8-.8 1.1-4.3.9-5.4-.8 0 1.1-3.2.8-4.8 0-2-1.1-3-5-3.8-7zm23.4.2c-.8-1.9 4.5-3.5 7-.2 1-1.1 3.4-1.1 5 2.2 1.4 3.3 1.7 5.2.6 6-.8.6-3.5 1.2-4.3-.5-1.4.8-5.1 0-6-2zm22.2 3.4c0-1.7 2.7-2.5 3.8 0 1 2.2 4.6 0 4.8 4.1a10.8 10.8 0 01-1.6 5c-1 1.4-6.2 0-6.4-2.8z" class="F"/></g></svg>