<svg xmlns="http://www.w3.org/2000/svg" viewBox="0 0 640 480"><style>.D{stroke-linejoin:round}.E{fill:#337321}.F{fill:#f7e017}</style><clipPath id="A"><path d="M-15-7.5h30v15h-30z"/></clipPath><path fill="#00247d" d="M0 0h640v480H0z"/><g clip-path="url(#A)" transform="translate(320 160) scale(21.333)"><circle r="20" fill="#00247d"/><g class="D"><path stroke="#fff" stroke-width="3" d="M-20-10l40 20m-40 0l40-20"/><path stroke="#cf142b" stroke-width="2" d="M-20-10l40 20m-40 0l40-20"/></g><path fill="#fff" d="M0 0l20 10h-3L-3 0m3 0l20-10h3L3 0M0 0l-20 10h-3L-3 0m3 0l-20-10h3L3 0"/><g class="D"><path stroke="#fff" stroke-width="5" d="M-20 0h40M0-10v20"/><path stroke="#cf142b" stroke-width="3" d="M-20 0h40M0-10v20"/></g></g><g stroke="#000" class="D"><path d="M420.26 313.51c-8.6 7.47-16.9 18.55-18.8 28.51-5.63 27.7-13.4 34.06-24.69 27.97 0 14.95 12.62 16.33 18.26 7.47 0 13.86 4.83 26.3 16.1 36.56 4.57 4.43 5.37 1.38 3.22-3.32-2.14-5-2.14-20.5-6.7-29.63 7.24 5.54 17.7 2.5 16.9-12.18-9.12 5.54-18.25 5.54-19.32-7.75-1.08-15.5 4.83-37.93 15.03-47.62zm-11-110.75c.8-5.53-.54-11.07-4.3-14.95-7.79-6.64-15.03-4.43-20.67 1.1-8.05-4.7-12.62 11.64-22 8.87 1.6 5.54 4.01 7.75 8.85 5.81-5.1 4.71 0 10.25-5.9 15.78 10.73 3.33 16.1-2.77 15.56-13 4.03 3.6 10.47 3.31 13.7-.84-5.38-1.66-5.38-6.64-3.23-11.35 3.22-6.92 18.8-6.65 17.98 8.3z" class="F"/><path d="M433.68 282.79c-12.08 6.36-33.55 3.6-35.7-12.2-1.88-15.77 13.15-22.97 17.18-24.9 6.17-3.33 11 2.49 9.12 9.13 6.71-2.77 8.32-11.07 5.1-15.78 9.13.83 17.45-6.37 21.2-16.61-3.2 3.32-12.07 1.1-19.32.55 2.42-2.5 2.42-7.47 1.61-9.96-7.5 8.3-18.52 4.43-33 27.68a1070.89 1070.89 0 009.4-37.93c1.06-15.23-14.78-15.5-18-8.58 3.5 4.15 1.61 9.13.27 16.6l-7.79 36.83c-.8-11.07-7.78-11.62-9.12-16.6-2.15 1.1-3.22 4.7-2.69 7.47-2.68-2.77-10.73.55-13.96-3.6-3.48 6.92 1.88 13.84 7.52 16.6-3.22.55-4.03 4.43-7.52 4.43 4.57 5.82 9.67 8.3 15.3 8.59 5.64.56 9.94 2.77 13.43 9.7 5.36 11.62 26.84 19.1 46.97 8.58z" class="E"/><path d="M462.94 268.67a60.6 60.6 0 01-33.29 34.88c-13.96 3.6-42.68 18-50.2 25.2a8.68 8.68 0 01-3.2-1.11c-3.77-2.77-6.99-11.9-.28-19.38 20.94-20.5 43.48-11.63 57.7-25.47-11.8 6.36-33.54 3.6-35.7-12.19 12.9 3.6 35.98 3.6 54.23-16.62 2.42 2.77 9.4 11.63 10.74 14.68z" class="F"/><path d="M420.26 313.51c-10.74 9.41-16.1 32.11-15.03 47.62.26 4.15 1.6 7.2 3.22 8.86.8-8.59 6.7-31.29 21.74-41.53 12.62-8.3 32.48-27.68 40-49.27a17.28 17.28 0 00-8.06-9.42c-6.98 20.5-26.84 30.46-41.87 43.75z" class="E"/><path fill="#316d3a" d="M456.22 259.8c-3.75 6.1-12.34 13.84-20.66 17.16a11.26 11.26 0 002.68-6.63c-10.73 4.15-31.67 3.6-40.26.27 12.88 3.6 35.7 3.88 53.95-16.6 1.88 2.2 3.5 3.87 4.3 5.8z"/><path d="M419.18 426.48c-2.4 1.1-4.56 2.77-3.48 11.07.26 3.6 0 11.9-2.69 11.9 1.61 1.1 5.37 1.95 6.98 0 1.61 2.5 4.83 1.67 6.17-1.65 1.88 1.66 4.3-.84 4.3-3.05 1.61 1.1 4.83-.55 4.02-5.54 1.88.84 4.3-.55 5.37-1.93-2.95-.56-9.93-4.43-11.54-7.48-1.88-3.33-6.17-4.7-9.12-3.33z" class="F"/><path d="M375.97 308.25c-17.18 16.61-5.9 30.73.8 34.05-1.6 11.35 8.86 9.97 8.6 19.66 4.3-2.5 5.36-9.13 4.56-14.4 5.36 5.83 19.05-.82 22 10.26 1.9-12.2-7.24-24.37-18.78-23.26 4.83-4.43 2.14-11.35-2.42-13.3-.8 8.87-10.74 8.87-14.5 6.38-3.75-2.77-6.97-11.9-.26-19.38z" class="E"/><path d="M413.01 412.9c-1.88 1.1-1.88 3.6-.8 5.26 2.68 3.05-1.62 10.52 5.9 11.9 2.42.56 4.03-.82 4.83-3.6 2.7-7.19-5.1-8.02-5.64-11.34-.8-3.6-2.68-3.05-4.29-2.22z" class="F"/><g class="E"><path d="M537.3 308.25c27.64 23.8 29.52 42.63 24.95 53.7-2.15-10.23-13.42-26.3-25.23-30.45l.27-22.98z"/><path d="M488.17 294.96h51v62.3c1.01 42.2-21.38 81.31-57.7 100.77-36.19-19.58-58.46-58.65-57.45-100.78v-62.3h35.7c0 3.33.26 8.31 4.02 13.02 8.32-.83 18-7.47 24.43-13z"/></g><path fill="#006ec7" d="M539.17 294.96v62.3c0 15.77-2.69 29.9-6.98 42.07l-50.73-95.5-50.47 95.5a123.28 123.28 0 01-6.97-42.08v-62.3z"/><g class="F"><path d="M533.53 394.92l-3.76 10.24-48.3-92.75-48.33 92.75-3.76-10.24 52.08-99.67zm-28.99 34.05l4.83 2.5c2.7-5.54 3.23-13.57 2.15-20.5-2.68 7.76-12.62 7.48-15.3 12.19l4.56 2.77c-3.49 3.6-11.27 9.4-15.83 10.8v-49.84c0-3.32-1.08-6.37-1.08-9.14V367.5c0-2.22-.27-5.54-2.4-5.54-1.89 0-2.43 3.31-2.43 5.53v10.24c0 2.77-1.07 6.1-1.07 9.14v49.56c-2.69-7.48-12.08-4.99-16.65-12.19a12.25 12.25 0 015.37-.27c-3.22-11.9-12.34-12.74-14.22-16.06 0 4.7-1.88 16.06 1.07 20.76a11.85 11.85 0 013.22-2.49c3.76 8.3 20.67 8.3 24.7 22.7 3.22-5.53 15.03-11.07 23.08-20.2z"/><path d="M481.46 387.71l20.4-1.1c1.07 0 1.88-1.67 1.88-3.89s-.8-3.87-1.88-3.87c-4.57 0-16.38-1.39-20.4-1.39-3.76 0-15.84 1.4-20.13 1.4-1.08 0-2.15 1.65-2.15 3.86s1.07 3.88 2.15 3.88zm-2.42-20.2a4.74 4.74 0 00-2.95-1.11c-2.68 0-4.56 1.94-4.56 4.43s1.88 4.43 4.56 4.43 4.56-1.94 4.56-4.43a1.35 1.35 0 012.7 0c0 3.87-3.23 6.64-7.26 6.64s-7.25-2.78-7.25-6.65c0-3.6 3.22-6.65 7.25-6.65a7.83 7.83 0 013.22.56v2.77z"/></g><path fill="#fff" d="M471.26 338.99c0-1.1.8-1.66 1.88-2.5 1.34-.82 1.88-1.38 2.95-1.38h14.76c1.08 0 1.34.28 1.34 1.39v20.49c0 1.1-.26 1.38-1.34 1.38h-19.6v-19.38"/><path fill="#e5e5e5" d="M487.1 360.02c2.14 0 1.6 0 2.95-1.38 1.6-1.39 1.34-1.39 1.34-2.77v-18.55c0-1.1 0-1.39-1.34-1.39h-13.43c-1.08 0-1.62.56-2.69 1.4s-1.88 1.1-1.88 2.2v20.5z"/><path fill="#fff" d="M488.71 359.75c0 .83-.27 1.39-1.35 1.39H472.6c-1.07 0-1.34-.28-1.34-1.4v-20.48c0-1.1.27-1.39 1.34-1.39h14.76c1.08 0 1.34 0 1.34 1.1z"/><path fill="#999" d="M517.16 283.06c2.68 3.32 3.76 7.75 2.15 11.9h-4.3c1.88-5.53.54-10.8-6.98-11.34-11.27-1.11-24.42 21.6-44.29 24.36-5.9-7.2-5.37-20.76 1.88-27.13-4.02-11.35-11.8-23.81-17.45-29.35-3.75-.55-8.05-.83-10.73-.55 2.95-6.65 11.27-13.3 17.98-16.06l3.22-4.7c.8-8.87 41.6-4.72 50.2.82 0 9.97 4.02 42.92 8.05 52.05z"/><path d="M467.5 289.14a56.8 56.8 0 00-15.3-36.82c4.03 1.4 12.08 1.4 17.72-2.77 7.24-5.26 26.84-13.84 33.55-10.24.54 1.38 1.07 4.15.54 6.1-1.62-4.7-20.14 2.5-25.5 4.7-5.1 2.21-7.25 5.53-5.37 12.73-2.96-2.49-1.88-4.98-5.1-6.64 1.34 2.77 2.41 8.3 2.68 12.73-1.07-3.04-3.22-9.69-7.5-13.84 3.74 7.75 6.96 26.02 5.35 35.72 3.22 0 9.94-3.05 12.62-5.54-2.68 3.6-9.13 6.1-13.42 6.92a23.53 23.53 0 00-3.22 12.18c-.54-4.43.8-14.67 2.95-15.22zm49.66-6.09c-3.76-4.43-10.74-6.64-19.6-4.15 1.34-.82 4.3-1.93 6.98-2.2l-2.68-15.5 2.14-.84 4.03 16.06c.54.27 2.68.55 4.03 1.38a248.39 248.39 0 01-4.3-21.6l3.22-1.93c1.34 9.69 3.5 23.25 6.18 28.8z"/><path d="M515.01 294.96c1.88-5.54.8-10.8-6.98-11.35-5.9-.56-12.08 5.53-19.6 11.35h26.85zm-49.39-49.56c-3.22.55-10.74 0-14.5-1.38 0-1.1.54-2.22 1.08-3.33-2.42 1.66-6.7 4.71-8.59 6.93 5.37 1.1 16.37 1.66 22.01-2.22z" class="E"/><path fill="none" d="M465.35 280.85a40.3 40.3 0 012.42 10.24m-12.35-56.48c-1.88 3.32-3.76 6.65-4.3 9.4 3.76 1.12 11.28 1.95 14.5 1.4m-17.45 6.09l4.03.83c4.03 1.38 12.08 1.38 17.72-2.77 5.36-4.15 20.66-17.16 37.84-18.55m-63.88 16.6c5.37 1.11 16.1 1.67 21.74-2.2a73.84 73.84 0 0138.12-15.23"/><path d="M537.3 308.25c18.78 13.56 32.74 26.3 36.76 47.06s11.55 26.3 20.94 20.77c-2.15 11.9-13.96 13.3-23.62 4.15.8 13.85-4.56 30.46-18.25 36.27-1.08-8.3 4.3-14.67 2.68-21.6-.54-2.76-.8-9.96 2.95-13-7.24 2.5-18.79-2.5-20.13-13.85 8.6 4.43 19.6 4.98 23.62-6.09 4.3-11.07 2.7-29.9-24.96-53.43zm23.61-107.7c5.9-15.5 21.2-13.84 26.3-7.2 14.77-8.85 16.92 11.08 29.53 7.2 0 3.6-4.3 6.92-9.13 6.64 4.84 4.71-1.87 11.63 8.6 15.78-9.13 4.71-21.48 0-24.97-13-2.68 6.08-13.42 6.08-17.45 1.38 9.13-2.77 8.33-11.36 3.23-14.96-5.1-3.32-14.23-1.93-16.1 4.16zm-45.1 34.6c4.03 13.85 12.62 26.6 22.02 35.44 10.73 10.26 26.84 7.49 35.96-1.92 0 19.38-19.05 20.76-30.06 14.67-4.56-2.77-8.59-1.38-4.03 2.77 6.98 6.64 22.28 11.35 40.27 15.23 31.14 6.92 19.86 32.67 10.74 32.39 2.68 0 4.83-2.77 1.07-6.37-27.1-25.2-82.4-15.22-81.33-71.44-5.9 14.69-29.8 8.87-18.8-8.57 3.77 2.77 9.94 3.32 11.82-1.4 1.34-3.6.54-9.68-5.9-15.21 1.07 0 3.48 0 3.22-2.77 0 1.66 1.6 4.15 5.1 3.32.8 1.66 1.87 2.77 3.48 1.94 0 0 1.08-.56.81-1.94 0 2.77 3.76 4.15 5.37 3.88z" class="E"/><g class="F"><path d="M543.73 283.33c13.15 8.58 27.65 8.58 41.07-7.47 4.3-4.99 11-9.42 15.84-9.97 4.56-.28 4.3-4.99 8.05-5.82-2.42-.83-3.22-3.6-6.7-3.04 8.58-3.05 5.9-9.97 10.2-13.29-3.5 1.1-8.6-3.88-13.43 2.77 1.07-3.05-.54-6.65-1.6-8.3.25 3.6-6.73 4.42-8.07 13-.8 5-3.22 4.71-3.75-2.76-.27-5.54-2.69-21.05-5.9-28.8-3.23-8.03-4.04-18.55.26-20.2a8.19 8.19 0 00-2.69-2.78c-5.1-3.6-14.22-2.2-16.1 4.16-5.64 15.5 10.74 24.64 9.4 41.52-2.69-12.73-22.55-15.78-22.28-28.24-6.45 2.77-5.37 8.31-2.96 12.74-4.02-6.37-13.42 4.15-21.2-4.43-.8 11.35 9.12 15.78 17.18 16.34-4.03 7.2 1.34 13.56 6.7 15.5 0-12.74 25.77-7.48 26.04 14.67 0 18.83-19.6 20.21-30.06 14.4zm35.97 18c31.4 6.92 20.13 32.67 11 32.4-5.9 0-11.27-5.27-11.8-9.7-6.72 3.89-4.84 11.08.26 13.85-13.96-1.66-19.86 8.03-20.4 18.28 2.68-4.72 10.74-5 13.42-4.17 2.7 1.1 10.47 1.66 13.42-1.66-2.68 2.22 1.61 7.2-1.88 11.08 11.55-.56 16.65-11.63 14.77-16.62 15.3-14.4 12.34-37.65-18.8-43.46zm-23.62 109.63c1.88 1.11 1.6 3.88.27 5.54-2.69 3.6 1.34 11.9-6.98 13.3-2.69.55-4.57-1.1-5.37-4.15-2.15-8.31 6.17-8.6 6.98-12.46 1.07-3.88 3.22-3.33 5.1-2.22z"/><path d="M548.3 425.64c2.68 1.66 5.1 3.6 3.75 12.73-.8 3.88-.8 13.02 2.42 13.3-2.15.82-6.44 1.93-8.05-.56-1.88 2.77-5.37 1.94-6.98-1.94-1.88 1.66-4.57-1.38-4.57-3.6-1.6 1.1-5.36-.83-4.02-6.37-2.15.83-4.83-.83-5.9-2.2 3.21-.56 11.27-4.7 13.41-8.3 1.88-3.05 6.71-4.71 9.94-2.78z"/></g><path d="M510.45 255.93c-.54 23.53 9.12 35.44 22.28 43.2-5.1-2.78-2.69-13.3-9.4-16.62 1.61 0 4.03 2.2 8.05 1.1-2.14-4.15-5.36-11.07-12.34-11.9 1.88 0 5.9.56 8.6-.55-3.77-5.82-13.97-3.05-17.19-15.23zm-2.42-22.42c-.8-.28-1.6-1.11-2.15-2.22-3.48.83-4.83-1.66-5.36-3.04.26 2.76-1.88 2.49-2.69 2.76 6.18 5.26 6.98 11.36 5.37 14.96-1.6 4.7-7.78 4.43-11.27 1.38-.54 9.69 11.8 13 16.1.83 0 1.94 2.68 1.66 3.22 4.43 3.22-5.26.8-12.74-3.22-19.38zm-19.6-46.8a28.12 28.12 0 01-8.05-19.38c.27-4.99 2.15-10.53 9.4-8.3-2.15 0-.54 4.7-2.95 5.25 1.87.83 4.3-.83 4.83-1.94.27 1.66 3.22 1.1 3.5 2.77 1.06-.83 0-5.26-1.89-6.1 1.34-.82 2.14-4.42 1.34-6.08-1.07.27-2.68 1.94-2.95 4.15.53-1.94 0-6.37-3.22-7.2-.8 1.4-1.08 4.43 0 6.1-2.69-.56-6.98 1.38-8.06 3.87a22.71 22.71 0 012.42-10.24c.54-.83-.8-2.5-2.15 0-2.15-4.7-8.05-6.93-10.47-4.7s-5.9-1.1-8.05 2.5c-2.15 3.3-9.4 3.86-9.13 7.46.27 2.21 0 5.53-1.34 6.64-2.68 3.05 1.34 5.26 1.88 8.03-.27-8.86 13.42-26.02 26.84-19.38-1.34 2.5-2.68 6.64-2.68 11.9-.8 8.03.54 19.1 7.78 25.48l2.7-.83z" class="E"/><path fill="#cf142b" d="M492.2 159.3c0-1.94 3.5-4.7 8.05-4.7 5.9 0 10.2 5.54 14.76 4.7 4.3-.28 2.15 2.21 1.34 2.77-1.07.83-1.6 1.93-1.34 3.04.27 1.38 0 2.21-1.88 1.1-4.03-2.76-8.05.84-13.42-1.1-4.56-1.66-7.25-2.77-7.25-5.8z"/><path fill="gray" d="M469.38 213.56c-2.15-7.2-10.74-15.23-14.76-16.89l-.27-3.86c2.15-1.11 7.51-5.54 9.93-7.76 16.91 8.3 39.73-3.6 50.2-15.78l4.02 2.77-2.15 2.77-2.14-1.38c-2.69 3.32-12.08 12.46-15.03 14.67a52.13 52.13 0 0010.73 1.39c9.4-6.93 16.64-13.02 20.4-13.57l2.7 4.15-2.7 1.94-1.88-1.1a110.97 110.97 0 00-26.03 39.58c-6.18-1.38-28.46-.55-33.02-6.92z"/><g fill="none"><path d="M499.17 188.1a15.81 15.81 0 01-3.49-1.38c-1.87 1.66-6.17 3.32-11.8 3.6m-13.7 20.76c-1.34-8.3 1.08-18 5.37-21.05a32.16 32.16 0 0034.36-.56"/><path d="M470.18 206.65c7.25 0 22.82 1.1 26.58 1.66s10.2 2.2 9.12 4.15m-32.47-7.2l2.14-1.93-1.88-2.22-2.14 2.22 2.14 1.93z"/></g><path d="M478.5 162.63c-2.68-3.88-9.66-5-11.27 0-.54 2.2-1.6 4.43-3.22 5.53-1.88 1.1-1.34 4.16-.54 5.54 1.61 3.32 0 6.65 3.5 8.86 0-2.77 3.75-5.53 6.97-6.1 3.5-.83 8.05-3.87 8.86-7.2s1.88-6.08-4.3-6.63zm-16.1 33.22h.8v6.1l.54.27 5.37-3.04.54.83-5.37 3.04v.55l5.37 3.33-.54.55-5.37-2.77h-.54v6.37h-.8v-6.37h-.54l-5.37 2.77-.53-.55 5.37-3.33v-.55l-5.37-3.04.53-.84 5.37 3.05h.54v-6.64h0z" class="E"/><path fill="gray" d="M470.18 211.07c-3.1 3.34-7.9 4.32-12.03 2.46s-6.68-6.16-6.42-10.78 3.28-8.6 7.58-9.95 8.96.2 11.68 3.87a25.33 25.33 0 00-1.08 5.83c-.43-4-3.84-6.92-7.72-6.63s-6.85 3.7-6.72 7.7 3.3 7.2 7.2 7.23c3.5 0 6.17-2.5 7.24-5.54z"/><path d="M458.37 221.6a8.27 8.27 0 01-1.88-4.7c1.08 0 2.96.55 3.76 1.38 0-1.11-.54-3.6 0-4.71 1.08.55 3.5 1.94 4.56 3.6a17.11 17.11 0 01-.26-5.82 9.15 9.15 0 014.02 4.43c0-2.5.8-6.1 1.61-7.2.8 1.1 2.7 1.95 3.5 3.33 0-1.66 1.07-3.88 2.4-4.43a10.74 10.74 0 012.7 6.64c1.07 0 2.68-1.93 3.21-2.76a5.6 5.6 0 01.54 4.43 11.56 11.56 0 003.22-4.16c.8.56 2.7 2.22 2.7 4.16l-.28-5.54a6.16 6.16 0 013.22 4.15c.54-1.66 1.61-4.43 2.41-5.26.81 1.94 1.88 4.15 1.62 6.1.53-1.4 1.6-3.33 2.41-3.88.8 1.38.54 4.15.54 5.53a10.87 10.87 0 012.95-2.77v2.77c1.08-.27 2.7-3.6 3.22-4.98 1.61.83 3.22 3.6 3.22 4.98 1.35-.55 3.5-2.77 4.03-3.87 0 .83.54 3.04 0 4.7l1.61-2.76c.54 1.38 0 4.15-.27 5.53a7.3 7.3 0 013.22-1.38c0 1.94-1.07 5.54-2.4 7.75-10.75-2.77-33.03-4.15-55.58-5.54zm37.31-61.2c0-.83 1.88-2.77 5.1-2.77 4.03 0 7.52 3.05 10.74 2.77 3.22 0 1.61 1.11.8 1.4-.53 0-1.07.54-.8 1.1s0 .83-1.34.27c-2.68-.83-5.64.56-9.4-.28-3.22-.83-5.1-1.1-5.1-2.49z" class="F"/><path d="M461.86 228.53c-3.49 4.14-6.7 3.3-7.5.55-.55-2.77 1.87-3.88 1.06-6.1-1.07-2.21 1.34-3.32 2.68-2.21.81.83 4.57-2.5 6.18 1.1 1.34 3.33 2.68 5.82 1.88 7.2-1.08 1.39-3.76.56-4.3-.83zm14.23-6.38c-.54-1.66 2.68-4.43 4.83-2.5 1.61 2.22 4.56-2.2 5.9 1.1l2.96 6.93c.8 1.94-4.3 2.77-5.64 1.1 0 1.11-4.56 1.95-5.64-1.1zm23.35 1.94c-.8-1.66 3.22-3.87 5.37-1.1.54-1.11 4.56-1.4 4.83 2.2 0 3.6.27 5.55.54 6.93 0 1.39-2.69 2.77-4.3-.83-3.49.83-4.83-1.1-5.36-3.32a15.32 15.32 0 00-1.08-3.88z" class="E"/><path d="M464.01 221.88c-.54-1.4 2.68-3.6 5.1-1.94 2.15 1.94 5.37-1.4 6.71 1.66 2.7 6.37 2.95 6.64 2.15 8.03-.8 1.1-4.3.83-5.37-.83 0 1.1-3.22.82-4.83 0-1.88-1.1-2.96-5-3.76-6.93zm23.35.27c-.8-1.93 4.57-3.6 6.98-.27 1.08-1.11 3.5-1.11 5.1 2.2 1.34 3.32 1.61 5.26.54 6.1-.8.55-3.49 1.1-4.3-.56-1.34.83-5.1 0-5.9-1.94zm22.28 3.33c0-1.67 2.7-2.5 3.76 0 1.07 2.2 4.56 0 4.83 4.15a10.75 10.75 0 01-1.6 4.98c-1.08 1.39-6.18 0-6.45-2.77z" class="F"/></g></svg>