<svg xmlns="http://www.w3.org/2000/svg" viewBox="0 0 640 480"><style>.C{fill:#337321}.D{fill:#f7e017}</style><path fill="#00247d" d="M0 0h640v480H0z"/><path fill="#012169" d="M0 0h640v320H0z"/><path fill="#fff" d="M75 0l244 121L562 0h78v41L400 160l240 119v41h-80L320 201 81 320H0v-40l239-119L0 42V-1z"/><path fill="#c8102e" d="M424 187l216 106v27L369 187zm-184 13l6 23-192 96H0zM640-1v2L391 126l2-29L590-1zM0-1l239 117h-60L0 27z"/><path fill="#fff" d="M241 0v320h160V0zM0 107v107h640V107z"/><path fill="#c8102e" d="M0 128v64h640v-64zM273-1v320h96V-1z"/><g stroke="#000" stroke-linejoin="round"><path d="M420 314a57 57 0 00-18 28c-6 28-14 34-25 28 0 15 12 16 18 8 0 13 5 26 16 36 5 5 6 1 3-3-2-5-2-21-6-30 7 6 17 3 17-12-10 5-19 5-20-8-1-15 5-38 15-48zm-11-111c1-6 0-11-4-15-8-7-15-5-21 1-8-5-12 12-22 9 2 5 4 8 9 6-5 4 0 10-6 15 11 4 16-2 16-13 4 4 10 4 14 0-6-2-6-7-4-12 4-7 19-6 18 9z" class="D"/><path d="M434 283c-12 6-34 3-36-12-2-16 13-23 17-25 6-4 11 2 9 9a11 11 0 005-16c9 1 18-6 22-17-4 4-12 2-20 1 3-2 3-7 2-10-8 8-19 5-33 28a1071 1071 0 009-38c1-16-15-16-18-9 4 4 2 9 0 17l-7 37c-1-11-8-12-9-17-3 1-4 5-3 7-3-2-11 1-14-3-4 7 2 14 7 16-3 1-3 5-7 5 5 6 10 8 15 8 6 1 10 3 14 10 5 12 27 19 47 9z" class="C"/><path d="M463 269a61 61 0 01-33 35c-14 3-43 18-51 25a9 9 0 01-3-1c-3-3-7-12 0-20 21-20 44-11 58-25-12 6-34 3-36-12 13 3 36 3 54-17z" class="D"/><path d="M420 314c-10 9-16 32-15 47a14 14 0 004 9c0-9 6-31 21-41 13-9 33-28 40-50a17 17 0 00-8-9c-7 20-27 30-42 44z" class="C"/><path fill="#316d3a" d="M456 260a48 48 0 01-20 17 11 11 0 002-7 74 74 0 01-40 1 53 53 0 0054-17z"/><path d="M419 427c-2 1-4 2-3 11 0 3 0 12-3 12h7c2 2 5 1 6-2 2 2 4-1 4-3 2 1 5-1 5-6 1 1 4 0 5-2-3 0-10-4-12-7s-6-5-9-3z" class="D"/><path d="M376 308c-17 17-6 31 1 34-2 12 9 10 8 20 5-2 6-9 5-14 5 5 19-1 22 10 2-12-7-24-19-23 5-5 2-12-2-14-1 9-11 9-15 7-3-3-7-12 0-20z" class="C"/><path d="M413 413c-2 1-2 3-1 5 3 3-1 11 6 12 2 1 4-1 5-4 3-7-5-8-6-11-1-4-2-3-4-2z" class="D"/><g class="C"><path d="M537 308c28 24 30 43 25 54-2-10-13-26-25-30v-23z"/><path d="M488 295h51v62a111 111 0 01-57 101 111 111 0 01-58-101v-62h36c0 3 0 8 4 13 8-1 18-7 24-13z"/></g><path fill="#006ec7" d="M539 295v62c0 16-2 30-7 42l-50-95-51 95a123 123 0 01-7-42v-62z"/><path d="M481 295l-52 100 4 10 48-93 49 93 4-10-53-100zm1 67c-2 0-3 3-3 6v6l-3 1a5 5 0 010-9 5 5 0 013 1v-2a8 8 0 00-3-1c-4 0-7 3-7 7s3 6 7 6h3v1h0l-18 1c-1 0-2 1-2 4s1 4 2 4l17 1v48c-3-7-12-5-17-12a12 12 0 016 0c-3-12-13-13-14-16 0 5-2 16 1 21a12 12 0 013-3c4 9 20 9 25 23 3-6 15-11 23-20l4 3a37 37 0 002-21c-2 8-12 8-15 12l5 3a51 51 0 01-16 11v-49l17-1 2-4-2-4-18-1h0v-10c0-3 0-6-2-6z" class="D"/><path fill="#f6f6f6" d="M476 335l-5 4v21l2 1h14l5-4v-20l-1-2z"/><path fill="#999" d="M517 283a12 12 0 012 12h-4c2-6 1-11-7-11-11-1-24 21-44 24-6-7-6-21 2-27a89 89 0 00-18-30h-11c3-7 12-13 18-16l4-5c0-9 41-5 50 1 0 10 4 43 8 52z"/><path d="M468 289a57 57 0 00-16-37c4 2 12 2 18-2 7-6 27-14 33-11 1 2 2 5 1 6-2-4-20 3-25 5s-8 6-6 13c-3-3-2-5-5-7l3 13c-1-3-3-10-8-14a79 79 0 016 36c3 0 10-3 12-6-2 4-9 6-13 7a24 24 0 00-3 12c-1-4 0-14 3-15zm49-6c-4-4-11-7-19-4l7-2-3-16 2-1 4 16 4 2a248 248 0 01-4-22l3-2a132 132 0 006 29z"/><path d="M515 295c2-6 1-11-7-11-6-1-12 5-20 11zm-49-50c-4 1-11 0-15-1a8 8 0 011-3 53 53 0 00-8 7c5 1 16 1 22-3z" class="C"/><path fill="none" d="M465 281a40 40 0 013 10m-13-56a36 36 0 00-4 9c4 1 11 2 15 1m-18 6l4 1c4 2 12 2 18-2 5-5 21-18 38-19m-64 17c5 1 16 1 22-3a74 74 0 0138-15"/><path d="M537 308c19 14 33 27 37 47s12 27 21 21c-2 12-14 13-24 4 1 14-4 31-18 37-1-9 4-15 3-22-1-3-1-10 3-13-8 2-19-3-20-14 8 5 19 5 23-6s3-30-25-53zm24-107c6-16 21-14 26-8 15-8 17 11 30 8 0 3-5 6-9 6 4 5-2 12 8 16-9 5-21 0-25-13-2 6-13 6-17 1 9-2 8-11 3-15-5-3-14-1-16 5zm-45 34a82 82 0 0022 36c11 10 27 7 36-2 0 19-19 20-30 14-5-2-9-1-4 3 7 7 22 11 40 15 31 7 20 33 11 33 2 0 4-3 1-7-27-25-83-15-82-71-6 15-29 9-18-9 3 3 10 4 11-1 2-4 1-10-6-15 2 0 4 0 4-3 0 2 1 4 5 3 1 2 2 3 3 2l1-2c0 3 4 4 6 4z" class="C"/><g class="D"><path d="M544 283c13 9 27 9 41-7 4-5 11-10 16-10 4 0 4-5 8-6-3-1-3-3-7-3 9-3 6-10 10-13-3 1-8-4-13 3 1-3-1-7-2-9 0 4-7 5-8 13-1 5-3 5-4-3 0-5-2-21-6-28-3-8-4-19 1-21a8 8 0 00-3-2c-5-4-14-2-16 4-6 15 11 25 9 41-2-12-22-15-22-28-6 3-5 8-3 13-4-6-13 4-21-5-1 12 9 16 17 17-4 7 1 13 7 15 0-12 26-7 26 15 0 19-20 20-30 14zm36 18c31 7 20 33 11 33-6 0-12-6-12-10-7 4-5 11 0 14-14-2-20 8-20 18 2-5 11-5 13-4 3 1 11 2 14-2-3 3 1 8-2 11 11 0 16-11 15-16 15-15 12-38-19-44zm-24 110c2 1 2 4 0 6-2 3 2 11-7 13-2 0-4-1-5-4-2-9 6-9 7-13s3-3 5-2z"/><path d="M548 426c3 1 5 3 4 12-1 4-1 13 2 14-2 1-6 2-8-1-2 3-5 2-7-2-2 2-4-1-4-3-2 1-6-1-4-7-2 1-5-1-6-2 3-1 11-5 13-8s7-5 10-3z"/></g><path d="M510 256c0 24 10 35 23 43-5-3-3-13-10-16 2 0 4 2 8 1-2-4-5-11-12-12l9-1c-4-6-14-3-18-15zm-2-22l-2-3c-4 1-5-1-6-3 1 3-1 3-2 3 6 5 7 11 5 15-1 5-8 4-11 1-1 10 12 13 16 1 0 2 3 2 3 5 4-6 1-13-3-20zm-20-47a28 28 0 01-8-20c1-5 2-10 10-8-2 0-1 5-3 5 2 1 4-1 5-2 0 2 3 1 3 3 1-1 0-5-2-6 2-1 2-4 2-6-1 0-3 2-3 4 0-2 0-6-4-7v6c-2-1-7 1-8 4a23 23 0 013-10c0-1-1-3-2 0-3-5-8-7-11-5s-6-1-8 2c-2 4-9 4-9 8l-1 7c-3 3 1 5 1 8 0-9 14-26 27-20a26 26 0 00-2 12c-1 8 0 19 7 25z" class="C"/><path fill="#cf142b" d="M492 159c0-2 4-4 8-4 6 0 10 5 15 4 4 0 2 3 1 3l-1 3c0 2 0 2-2 1-4-2-8 1-13-1-5-1-7-3-7-6z"/><path fill="gray" d="M469 214a34 34 0 00-14-17l-1-4 10-8c17 8 40-4 50-16l5 3-3 3-2-2-15 15a52 52 0 0011 1c9-7 17-13 20-13l3 4-3 2-2-1a111 111 0 00-26 39c-6-1-28 0-33-7z"/><g fill="none"><path d="M499 188a16 16 0 01-3-1 21 21 0 01-12 3m-14 21c-1-8 1-18 6-21a32 32 0 0034-1"/><path d="M470 207l27 1c4 0 10 2 9 4"/></g><path fill="gray" d="M462 196h1v6l6-3 1 1-6 3v1l6 3-1 1-5-3h-1v6h-1v-6l-6 3v-1l5-3v-1l-5-3v-1l6 3z"/><path d="M479 163c-3-4-10-5-12 0 0 2-1 4-3 5s-1 4 0 6c1 3 0 6 3 9 0-3 4-6 7-7 3 0 8-3 9-7s2-6-4-6z" class="C"/><path fill="gray" d="M470 211c-3 3-8 4-12 3s-7-7-6-11 3-9 7-10 9 0 12 4a25 25 0 00-1 6c0-4-4-7-8-7s-7 4-7 8 4 7 8 7c3 0 6-3 7-6z"/><path d="M458 222a8 8 0 01-2-5l4 1v-4l5 3a17 17 0 01-1-6 9 9 0 014 5l2-7 4 3 2-4a11 11 0 013 6l3-3a6 6 0 010 5 12 12 0 004-4l2 4v-6a6 6 0 013 4l3-5c1 2 2 4 1 6l3-4v6a11 11 0 013-3v3l3-5 4 5a11 11 0 004-4v5l1-3v6a7 7 0 013-2l-2 8c-11-3-33-4-56-6zm38-62s2-2 5-2c4 0 7 3 10 2 4 0 2 1 1 2l-1 1h-10c-3-1-5-1-5-3z" class="D"/><path d="M462 229c-4 4-7 3-8 0 0-3 2-4 1-6s2-3 3-2 5-3 6 1c2 3 3 6 2 7-1 2-4 1-4-1zm14-7c0-2 3-4 5-2 1 2 4-3 6 1l3 7c1 2-5 2-6 1 0 1-4 2-6-1zm23 2c0-2 4-4 6-1 0-1 4-1 5 2v7c0 1-3 3-4-1-4 1-5-1-6-3a15 15 0 000-4z" class="C"/><path d="M464 222c0-1 3-4 5-2s6-1 7 2c3 6 3 6 2 8-1 1-4 0-5-1h-5c-2-1-3-5-4-7zm23 0c0-2 5-3 7 0 1-1 4-1 5 2 2 3 2 5 1 6h-4c-2 0-5 0-6-2zm23 3c0-1 2-2 3 1 1 2 5 0 5 4a11 11 0 01-1 5c-1 1-7 0-7-3z" class="D"/></g></svg>