<svg xmlns="http://www.w3.org/2000/svg" viewBox="0 0 640 480"><path fill="#0038a8" d="M0 319.7h640V480H0z"/><path fill="#fff" d="M0 160h640v160H0z"/><path fill="#d52b1e" d="M0 0h640v160H0z"/><g stroke="#000"><g fill="none"><circle cx="320" cy="240" r="61.4" stroke-width="1.6"/><circle cx="320" cy="240" r="50.5" stroke-width=".7"/><circle cx="320" cy="240" r="38.7" stroke-width=".6"/></g><path fill="#009b3a" stroke-width=".1" d="M298 215.3c-4.4 1-5.9 5.7-8.6 8.8a34.6 34.6 0 00-.4 24.1c1 4.7 4 8.5 6.4 12.5 3.7 2.8 7.8 4.7 11.5 7.4 3 1.5 9.7-5 9.5 1-1.5.8-6.4-.3-4.6 2.9 3.5 2.3 7-2.1 10.5-1.1 1.9 2.3 9.3 2.7 7.6-1.3-1-.2-5.5-.9-3-1.6 3.5 2.2 7.3-1.7 9.5-2.8 2 2 4-.5 4.7-1.7 3.3-.4 5.2-3.9 5.5-6.2 2.5-2 2.8-5.6 5.3-7.6-.5-4.2-1.1-5.5.7-10.9-1.2-3.4.2-6.9-1.3-10.4-2.5-2.4-2.8-5.7-4-8.8-2-3.4-6.3-4.2-9.4-6.1-3.4-.3-7.1-5.1-10.2-1.9-1.2 4.2 4.6 3.6 6.7 5.6 3 3.1 6 6.7 6.6 11.2 1.2 3.6 4.1 7.2 2.5 11.2-.8 2.8-2.5 5.3-3 8.3-2 2.8-4.4 6.1-6.8 8.1-4-.3-6.8 2.3-7.6 6-1.4 3.5-5.9 5-8.7 2.5-3.4-2.3-6.1-5.5-9.9-7.2-6.8-4-10.2-12-10.4-19.8a19 19 0 016.9-15.3c3.2-2.9 7.1-4.7 11-6.4 3.7-3.5-2.2-7.1-5.5-5.6-1.7-2.8-10.4 3.7-11.5 5.1zm15.8-3.5h-.2z"/><path fill="#fedf00" stroke-width=".4" d="M327.6 249.5l-7.6-5.3-7.6 5.3 2.9-8.4-6.7-5.2h8.6l2.8-8.4 2.8 8.4h8.6l-6.7 5.2z"/></g></svg>