<svg xmlns="http://www.w3.org/2000/svg" viewBox="0 0 640 480"><path fill="#fff" d="M.2-.1h639.6v480.2H.2z"/><path fill="#0c4076" d="M.2-.1h639.6V320H.2z"/><path fill="#c6363c" d="M.2-.1h639.6v160H.2z"/><path fill="#fc0" d="M224.6 39.9c-5 .8.8 11.5-6 7.5-7.3 1 .8 9.8 4.4 5-.3 6-10.6 8.1-7.5 15-6.8-1.2-14-.3-21.3 1-7 1.5-13.8 4.4-20.5 7.4-5 2.1-10.7 2.2-13.6 6.4-4-2.3-6.6 4.3-10.3 4.3-.3 5.3-7.5 5.6-3.7 11.8 1.1 6.3 5.8 11.3 6.6 17.6 7.5 3.6 8.8 11.7 13.7 17.8a23.2 23.2 0 013 18.5c3.1 5.3 8.1 10.6 15.5 8.8 7.5-.5 14.8 1.3 22.3 1 22.8.7 45.6 0 68.3-2 2.7-5 7-11.3 4.3-16 1.7-4 1-8.9 5.4-12 2.8-6.8 6.8-13 12.6-17 0-7.3 7-12.4 6.5-19 2.5-4.1-5-7.4-5.7-10.4-4.3-1.2-5.6-4.6-9.8-4.2-4.4-5.4-11.9-3-16.6-7.8-6.6-1.7-13.4-5-19.6-6.2-6.7.3-11.7-1-18.4-.1 4.7-6.7-10-9-5.4-15 7.3 5.6 5.2-10.7-1-3.9-1.2-3.1 2.1-7.7-3.2-8.5zm-1.3 1.7v.3zm3.5.2l.1.1zm-3.7 3.5c.4-.5.2.4 0 0zm9.9 3.3v.2zm0 3.5v.3zm1 16.7c.5 1.3-1.4 1.6 0 0zm-18 .2c1.5 1-.6 1.6 0 0zm-8 6.6h7.5c1 8.6.5 17.4-1.8 25.7 3 2.5 8.7 11.9 6.7 12-5.8-7.3-11.3 2.8-8 8.2 2 8 10-5.2 9 3-.8 10.3-15.5 4.5-13-3.8 1.8-3.7-2-17.5-5.9-9.4-2.5 6.6 5 15.1-3 19.2-4.8 1.6-10.7-11.5-3.6-5.3 8.1-1 3-16.8-2.7-12.3-2.5 3.3-3.6 4.3-2-.4 4-9.2-3.7-16-6.1-24-2-9 8-11.6 14.6-12.2l8.2-.7zm11.8 38zm14.8-38c9.5 0 19.7-.3 28.2 4.8 5.3 5.1.7 12.3-2.4 17.3-5 5.5-1 12.4-1.2 18.4-1.3-5.4-6.9-5.1-7.8-.6-5.7 5.5 3.6 12.6 6.5 8.3-.8 8.7-15 7.2-11-1.8 1.8-3.7 2.8-14.5-4-12.4-3.6 6.3 2.5 18.6-7.5 20.1-6.8 2.9-9.9-13.6-2.7-6.5 4.9 4 8.3-7.4 4.2-10.5-1-7-11.1 5.4-6.7-1.9 4.7-6 7-13.4 4-20.8a83.6 83.6 0 01.4-14.4zm-4.4 38zm-60.3-27a94.8 94.8 0 009.2 24.5c1.3 3.4 6.8 8 .5 4-6.7-2.4-2.8 13 3.5 11.3 5.5-5.7 0 10-4.8 2.7-3.3-4.6-.5-16.3-8.7-15.6-4.7 6 8.7 15.3 0 18.7-3.5-.9-2.7-6.8.5-2.8 2.5-4.7-3.4-15.4-7.9-11.1 1.6-8.2-3.4-14.6-5.6-22-.3-6.5 9-7 13.3-9.7zm11.5 41zm98.7-41c7.1 1.5 18.9 8.5 10.4 16-3.2 3.5-2.2 15.6-3.7 14.9-5.3-2-11.3 12.2-3.8 11.1-2 9-10-2-3.6-5.6 3.4-3.5 1.7-14.5-3.7-7.7-2.3 4.6-2 20.2-10.1 14.2-2.1-2.3-.6-9 1.4-3 7.4 1.6 9.9-16.8 1.8-10.5-4.3 1.4 3.5-4.2 3-6.7a90 90 0 008.3-22.7zm-11.5 41zm-107-20.2h.3zm126.7 0h-.2zm-59.8 4.5c.7 0 0 .4 0 0zm-58.2.5l.1.1zm109.4 0l-.1.1zm-57 1.2zm-46.6.2c0 1 .9-.7 0 0zm.2.3v.1zm97.2-.3c0 1.1.8-.6 0 0zm.2.3v.1zm-70 4.9c0 .4-.6-.3 0 0zm42.7 0c.5-.3 0 .4 0 0zm-17.7.8zm-7.4 0zm-17.1 2.9c.6-.2 0 .6 0 0zm3.1 0l.1.2zm38.4.2v.1zm-60.4.4v1.4zm56.9 1.3c-2.8 4-3 4.3 0 0zm-70.9.5v.1zm1.6.9c.5 0-.3.3 0 0zm94 0l-.1.1zm-83.8 0l.1.1zm-7 0l.1.2zm-3 .2v.1zm.4.5c1.3.7-1 .6 0 0zm-.3.2zm103.5 0v.2zM164 128.8l.2.8zm.3 1.1l.2.4zm.2.6l.2.5zm1 2l-.2.2z"/><path fill="#c6363c" d="M135.7 160.5v144.6a96.2 96.2 0 0026.2 66.4 86.8 86.8 0 0063 27.7 86.9 86.9 0 0063.2-27.6 96.1 96.1 0 0026.2-66.3V160.5H135.7z"/><path fill="#e3dedb" d="M268.4 340.2c-9 3.8-4.3 22.1-1.4 21.4-.8-11.7-19.6-4.5-9.1 1.8 9-6 5.2 8.2 3.4 10.7 4.1 7.2 20.3.6 11.6-5.1-2.3-4.7 4.4-10.5 6.9-4.4 10.2-11.3-15-9.4-9-4 4.3-6.6 4.2-15.4-2.4-20.4zm-86.8 0c-8.7 2.3-4.1 22-2.5 18.5-2.1-9.8-18 1.5-7.4 5 6.3-6.3 6.5 8.5 2.6 9.3 2.7 8.8 21.4 2.1 11.9-4-2.5-7.7 5.6-7.5 7.6-5.4 6.7-14.1-18.5-3.6-10.5-.2 2.7-7.7 7.5-17.7-1.7-23.2zm.3-12.6l.2.3zm97.4-6.4c.6.2-.5.5 0 0zm-108.6 0c.4.5-.7.2 0 0zm9.6-14.6l-1.3 1.9zm1-1.6l-.2.4zm.7-1.4c-.6 1-.5 1 0 0zm1-2.3c-.8 1.9-1.4 3.2 0 0zm.7-1.7c-.5 1.3-.8 2.3 0 0zm41.5-66.8c9.6 3.5 31-7.1 31.9 8-.2 14.7 1 29.6 2.4 44.1-8.2-2.1-.3 14.1-9 13.9-6.4 3.9-12.7 11.8-17.3 1.4-5.8-8.6-2.2-21.9-7.8-28.8-6.7 6.2-2.8 21-9 29.6-3.6 4.4-8.7 7-12 .5-9.3-1.9-10-10.2-11.8-17.3-4.3-1.9.7-15.7-.2-22.4.6-8.8.4-17.7.5-26.4 8-6 20-.2 29.6-2.5h1.4z"/><path fill="#fff" d="M256 166.2c-8.4 3.4-25.4 1.6-25 14.3-.8 5.8-6.8 21.8-6.3 21.6-3.5-9.3-2.8-23.4-9.6-29.3-7-2.8-21.8-12-24 0 2.6 7.2 10 12.3 13.1 19.6 5.4 8.8 0 18.5-6 25.3-7.4 10.7-15.5-.5-19.7-7.5-5.6-7-13.5-14.6-12.8-24.3 4-6.1 6-22.7-5.7-15-16 9.6-19 30-20.8 47-.3 21.9.3 44 3 65.7 2.4 16.2 5.9 33.1 1.4 49.3 5 1.5 12.8-11.5 13-.7 6.6-2.8 6-12.6 13.3-14.2 5.2-8.5 7-18.1 12.9-25 .2-7.3 3.5-5.9 2.2.5-1.6 10.5-9.3 19.6-13 28.4 8.4 6.8-8.8 15.7-16 13.2-6.4-.5-9.6 3.8-1.7 3.9 4.8 0 7.8 1.5 1 2-9 3.2 2.5 14.5 4.7 4.4 10.3-5.8-9 11.5 2.7 13.6 6.5-6.6 3.8-22.6 16.9-22.5 6.8 1.3 10.4-8.3 1.6-5.4-11.6 6 1-9.4 6-2.9 5 3 8.4-5.5 11.5-2.2-2.4-6.6 7.7-16.9 9.2-5.5 2.4 12.5-5.5 24-8.7 35.6.1 10.1-8.3 20-6.2 29.1 11.2 4.5 9.7-11.3 13.3-17.6-5.9 7.5-8.2 25.6 6.6 22.5 4.3 2 8.5-2 11.5.9 7.5-4 23.6 4.2 24.7-7.8.2-3.1-5.2-15-4.8-12.6-1.2 7.8 12.5 23.7 13.5 9.4-6.3-9.4-5.7-20.7-10-30.5-2.3-10.2-12.8-26.1-1.6-33.8 8.2-.7.3 14.4 10.2 10.6 2.7 7.2 7.1-.1 9-.2 4.8 1.6 13 8.9 2.9 4.4-7.7.3-4.8 6.2 1.3 5.1 12.6 1.5 12 16 17.7 22.9 10 0-6.3-22.2 2.1-12.6 4.7 6.2 14.6 1 5.6-3.7-3.9-1.3-9.4-4.3-1.6-2.7 5.8 2.6 11.6-7 2.7-4.6-10.2 5.5-24-6.9-18.8-15.5-5.7-9.4-14-20.2-12.1-31.6 1.6-1.8 2.2 8.1 5.6 10 4.3 8 5.2 18.1 13.7 23.3 4.5 2.5 7 17.5 10.8 6.3 3.3-2.3 9.4 12.1 10.5 1.3-5.5-23.4 5-46.9 4-70.5 1.7-13.7.5-27.6 1.2-41.5-2-17-5.8-37.2-21.8-46.9-11.4-4.7-9 10.1-4.4 15.3.6 13.4-12 21.5-17.7 32.3-7.2 10.1-17.8.2-21.4-7.5-6.5-13.1 4.3-24.8 12.1-34.1 2.2-3 3.9-9-1.7-9.6z"/><path fill="#d4aa00" d="M186.9 167.8c-1.8-.3-2.5 2.2-4.3 1.9-2 .3-4.4 1.5-4.7 3.8-.3 3 1.7 5.5 3.4 7.7a26.8 26.8 0 004 4.1c1.6.1 1.5-1.7 2-2.7.7-1.2 2.4-2 3.8-1.5 1.3.7 1.8 2.8 3.6 2.7 1.3-.5 2.6 0 3.5 1 .4.6 2.6 1.8.8 1.8-1.6 0-3 .6-4.6 1-2.3.4-4.7 1.4-7 1.2-3-.2-5.4-2-7.3-4.1-.6-.5.2 1.3.4 1.7a9.5 9.5 0 007.2 4.7c1.5.3 3 .4 4.5.4-1.8-.5-1.2 1.8 0 2.3 1.6.8 3.5.1 5.2-.2 2-.4 4.2-.8 6.3-.4 2-.5.7-3 0-4-3.4-6.2-8.3-11.4-12.4-17.1 0-2.3-2.2-4.1-4.4-4.3zm76.2 0c-2 .1-4.1 1.7-4.3 3.8-.7 1.8-2.3 3-3.2 4.6-3.8 4.8-7.8 9.5-10.4 15-.4 1.9 1.6 2.3 2.9 1.8 3.2-.1 6.3 1.7 9.5.9 1.2-.1 1.5-2.6.9-2.4 3.5-.1 7.3-.7 9.8-3.3.8-.9 2-2.9 1.7-3.6-1.2 1.1-2.3 2.3-3.7 3a8.7 8.7 0 01-6.8.9c-3.1-.7-6.2-1.9-9.4-2 1-1 2-2 3-2.7 1.5-.4 3.2.6 4.2-1 .8-1.5 2.5-2.6 4-1.5 1.4.8 2 2.3 2.3 3.7 1 1 2.2-.8 2.9-1.4 2.5-2.7 5.2-5.6 5.7-9.3 0-2-1.5-3.6-3.3-4.2-1.6-.4-3.4-.5-4.5-2a2.6 2.6 0 00-1.3-.3z"/><path fill="#c6363c" d="M260.7 225v57.8a38.4 38.4 0 01-10.5 26.5 34.6 34.6 0 01-50.5 0 38.9 38.9 0 01-10.5-26.4v-58h71.6z"/><path fill="#fff" stroke="#21231e" stroke-width=".5" d="M260.7 260.4v15h-28.2v44.2a34 34 0 01-7.5.8 31.4 31.4 0 01-7.4-.8v-44.3h-28.3v-14.9h28.3V225h14.9v35.5z"/></svg>