<svg xmlns="http://www.w3.org/2000/svg" viewBox="0 0 640 480"><path fill="#fff" d="M0 0h640v480H0z"/><path fill="#0c4076" d="M0 0h640v320H0z"/><path fill="#c6363c" d="M0 0h640v160H0z"/><path fill="#fc0" d="M225 40c-5 1 0 11-6 7-8 1 0 10 4 5 0 6-11 8-7 15-7-1-14 0-22 1l-20 8c-5 2-11 2-14 6-4-2-7 5-10 5-1 5-8 5-4 11 1 7 6 12 7 18 7 4 8 12 13 18a23 23 0 013 18c3 6 8 11 16 9l22 1c23 1 46 0 68-2 3-5 8-11 5-16 2-4 1-9 5-12 3-7 7-13 13-17 0-7 7-12 6-19 3-4-5-7-5-10-5-2-6-5-10-5-5-5-12-3-17-7l-19-7h-19c5-6-10-9-5-15 7 6 5-10-1-4-1-3 2-7-3-8zm-2 2zm4 0zm-4 3s0 1 0 0zm10 4zm0 3zm1 17c1 1-1 1 0 0zm-18 0c2 1-1 2 0 0zm-8 7h8c1 8 0 17-2 25 3 3 8 12 6 12-5-7-11 3-8 8 2 9 10-5 9 4 0 10-15 4-13-4 2-4-2-18-6-10-2 7 5 15-3 19-4 2-10-11-3-5 8-1 3-17-3-12-2 3-3 4-2 0 4-10-4-16-6-24-2-9 8-12 15-13h8zm12 38zm15-38c9 0 19-1 28 4 5 5 1 13-3 18-5 5-1 12-1 18-1-5-7-5-8-1-5 6 4 13 7 9-1 8-15 7-11-2 2-4 3-14-4-12-4 6 2 18-8 20-6 3-9-14-2-7 5 4 8-7 4-10-1-7-11 5-7-2 5-6 7-14 4-21a84 84 0 011-14zm-5 38zm-60-27a95 95 0 009 24c1 3 7 8 1 4-7-2-3 13 3 11 6-5 0 10-5 3-3-5 0-16-8-16-5 7 8 16 0 19-4-1-3-7 0-3 3-4-3-15-8-11 2-8-3-14-5-22-1-6 9-7 13-9zm11 41zm99-41c7 1 19 8 11 16-4 3-3 15-4 14-5-1-11 13-4 12-2 9-10-2-4-6 4-3 2-14-3-8-3 5-2 20-10 14-3-2-1-8 1-2 7 1 10-17 2-11-5 1 3-4 3-7a90 90 0 008-22zm-11 41zm-107-21zm126 0zm-59 5zm-59 0zm110 0zm-57 2zm-47 0c0 1 1-1 0 0zm0 0zm98 0c0 1 0-1 0 0zm0 0zm-70 5s-1 0 0 0zm42 0c1 0 0 0 0 0zm-17 1zm-8 0zm-17 3c1 0 0 0 0 0zm3 0zm39 0zm-61 0v2zm57 2c-3 4-3 4 0 0zm-71 0zm2 1zm94 0zm-84 0zm-7 0zm-3 0zm1 1c1 0-1 0 0 0zm-1 0zm104 0zm-113 2v1zm0 1h1zm1 1zm1 2h-1z"/><path fill="#c6363c" d="M136 161v144a96 96 0 0026 67 87 87 0 0063 27 87 87 0 0063-27 96 96 0 0026-67V161H136z"/><path fill="#e3dedb" d="M268 340c-9 4-4 22-1 22-1-12-20-5-9 1 9-6 5 9 3 11 4 7 21 1 12-5-2-5 4-11 7-4 10-12-15-10-9-4 4-7 4-16-3-21zm-86 0c-9 2-5 22-3 19-2-10-18 1-7 5 6-7 6 8 2 9 3 9 22 2 12-4-2-8 6-7 8-5 6-14-19-4-11-1 3-7 8-17-1-23zm0-12zm97-7c1 0 0 1 0 0zm-108 0c0 1-1 0 0 0zm9-14l-1 1zm1-2zm1-1c-1 1-1 1 0 0zm1-3c-1 2-1 3 0 0zm1-1c-1 1-1 2 0 0zm41-67c10 3 31-7 32 8l2 44c-8-2 0 14-9 14-6 4-12 12-17 1-6-8-2-22-8-29-6 7-2 21-9 30-3 4-8 7-12 0-9-1-10-10-11-17-5-2 0-16-1-22l1-27c8-6 20 0 29-2h2z"/><path fill="#fff" d="M256 166c-8 4-25 2-25 14l-6 22c-4-9-3-23-10-29-7-3-22-12-24 0 3 7 10 12 13 19 6 9 0 19-6 26-7 10-15-1-20-8s-13-14-12-24c4-6 6-23-6-15-16 9-19 30-21 47 0 22 0 44 3 66 3 16 6 33 2 49 5 1 12-12 13-1 6-3 6-12 13-14 5-8 7-18 13-25 0-7 3-6 2 1-2 10-9 19-13 28 8 7-9 16-16 13-6 0-10 4-2 4 5 0 8 1 1 2-9 3 3 14 5 4 10-5-9 12 3 14 6-7 3-23 17-23 6 2 10-8 1-5-11 6 1-9 6-3 5 3 9-5 12-2-3-7 7-17 9-5s-6 24-9 35c0 10-8 20-6 29 11 5 10-11 13-17-6 7-8 25 7 22 4 2 8-2 11 1 8-4 24 4 25-8 0-3-5-15-5-12-1 7 13 23 14 9-7-9-6-21-10-31-3-10-13-26-2-33 8-1 0 14 10 10 3 7 7 0 9 0 5 2 13 9 3 4-7 1-5 7 2 6 12 1 12 16 17 22 10 0-6-22 2-12 5 6 15 1 6-4-4-1-9-4-2-3 6 3 12-7 3-4-10 5-24-7-19-16-5-9-14-20-12-31 2-2 2 8 6 10 4 8 5 18 13 23 5 3 7 18 11 6 4-2 10 12 11 2-6-24 5-47 4-71l1-41c-2-17-6-38-22-47-11-5-9 10-4 15 0 13-12 22-18 32-7 10-18 1-21-7-7-13 4-25 12-34 2-3 4-9-2-10z"/><path fill="#d4aa00" d="M187 168l-4 2c-2 0-5 1-5 4s2 5 3 7a27 27 0 004 4c2 0 2-1 2-2 1-2 3-2 4-2 1 1 2 3 4 3 1-1 2 0 3 1 1 0 3 2 1 2l-5 1-7 1c-3 0-5-2-7-4l1 1a10 10 0 007 5h4c-2 0-1 2 0 3h5l7-1c2 0 0-3 0-4l-13-17c0-2-2-4-4-4zm76 0c-2 0-4 2-4 4l-3 4-11 15c0 2 2 3 3 2 3 0 6 2 10 1l1-2c3-1 7-1 9-4l2-3-4 3a9 9 0 01-6 1l-10-2 3-3 4-1c1-2 3-3 4-2l3 4c1 1 2-1 3-1 2-3 5-6 5-10 0-2-1-3-3-4-2 0-4 0-5-2a3 3 0 00-1 0z"/><path fill="#c6363c" d="M261 225v58a38 38 0 01-11 26 35 35 0 01-50 0 39 39 0 01-11-26v-58h72z"/><path fill="#fff" stroke="#21231e" stroke-width=".5" d="M261 260v15h-29v45a34 34 0 01-7 0 31 31 0 01-7 0v-45h-29v-15h29v-35h14v36z"/></svg>