<svg xmlns="http://www.w3.org/2000/svg" viewBox="0 0 640 480"><path fill="#fff" d="M0 0h640v480H0z"/><path fill="#0c4076" d="M0 0h640v320H0z"/><path fill="#c6363c" d="M0 0h640v160H0z"/><path fill="#fc0" d="M225 162V40c-5 1 0 11-6 7-8 1 0 10 4 5 0 6-11 8-7 15-17-4-78 18-70 31 1 7 6 12 7 18 9 7 18 26 16 36 3 6 8 11 16 9zm-9-86c-4 13 1 24 4 37-5-7-11 3-8 8 2 9 10-5 9 4-16 17-9-17-16-15-5 2 2 16-6 20-4 2-10-11-3-5 8-1 3-17-3-12-2 3-3 4-2 0 4-10-4-16-6-24 0-15 20-13 31-13zm-46 11a95 95 0 0 0 9 24c1 3 7 8 1 4-7-2-3 13 3 11 6-5 0 10-5 3-3-5 0-16-8-16-5 7 8 16 0 19-4-1-3-7 0-3 3-4-3-15-8-11 2-8-3-14-5-22-1-6 9-7 13-9zm55 75V40c5 1 0 11 6 7 8 1 0 10-4 5 0 6 11 8 7 15 17-4 79 18 70 31-1 7-6 12-7 18-9 7-18 26-16 36-3 6-8 11-16 9zm9-86c4 13 0 24-4 37 5-7 11 3 8 8-2 9-10-5-9 4 17 17 9-17 17-15 5 2-3 16 5 20 4 2 10-11 3-5-8-1-3-17 3-12 2 3 3 4 2 0-4-10 4-16 6-24 0-15-20-13-31-13zm46 11a95 95 0 0 1-9 24c-1 3-7 8-1 4 7-2 3 13-3 11-6-5 0 10 5 3 3-5 0-16 8-16 5 7-8 16 0 19 4-1 3-7 0-3-3-4 3-15 8-11-2-8 3-14 5-22 1-6-9-7-13-9z"/><path fill="#c6363c" d="M136 160v144a96 96 0 0 0 26 67 87 87 0 0 0 126 0 96 96 0 0 0 26-67V160z"/><path fill="#e3dedb" d="M268 339c-9 4-4 22-1 22-1-12-20-5-9 1 9-6 5 9 3 11 4 7 21 1 12-5-2-5 4-11 7-4 10-12-15-10-9-4 4-7 4-16-3-21zm-86 0c-9 2-5 22-3 19-2-10-18 1-7 5 6-7 6 8 2 9 3 9 22 2 12-4-2-8 6-7 8-5 6-14-19-4-11-1 3-7 8-17-1-23zm0-12zm97-7c1 0 0 1 0 0zm-108 0c0 1-1 0 0 0zm9-14-1 1zm1-2zm1-1c-1 1-1 1 0 0zm1-3c-1 2-1 3 0 0zm1-1c-1 1-1 2 0 0zm41-67c10 3 31-7 32 8l2 44c-8-2 0 14-9 14-6 4-12 12-17 1-6-8-2-22-8-29-6 7-2 21-9 30-3 4-8 7-12 0-9-1-10-10-11-17-5-2 0-16-1-22l1-27c8-6 20 0 29-2h2z"/><path fill="#fff" d="M256 165c-8 4-25 2-25 14l-6 22c-4-9-3-23-10-29-7-3-22-12-24 0 3 7 10 12 13 19 6 9 0 19-6 26-7 10-15-1-20-8s-13-14-12-24c4-6 6-23-6-15-16 9-19 30-21 47 0 22 0 44 3 66 3 16 6 33 2 49 5 1 12-12 13-1 6-3 6-12 13-14 5-8 7-18 13-25 0-7 3-6 2 1-2 10-9 19-13 28 8 7-9 16-16 13-6 0-10 4-2 4 5 0 8 1 1 2-9 3 3 14 5 4 10-5-9 12 3 14 6-7 3-23 17-23 6 2 10-8 1-5-11 6 1-9 6-3 5 3 9-5 12-2-3-7 7-17 9-5 2 22-9 42-15 64 11 5 10-11 13-17-22 36 47 29 43 15 0-3-5-15-5-12-1 7 13 23 14 9-7-17-21-58-12-64 8-1 0 14 10 10 3 7 7 0 9 0 5 2 13 9 3 4-7 1-5 7 2 6 12 1 12 16 17 22 10 0-6-22 2-12 5 6 15 1 6-4-4-1-9-4-2-3 6 3 12-7 3-4-10 5-24-7-19-16-5-9-14-20-12-31 2-2 2 8 6 10 4 8 5 18 13 23 5 3 7 18 11 6 4-2 10 12 11 2-6-24 5-47 4-71l1-41c-2-17-6-38-22-47-11-5-9 10-4 15 0 13-12 22-18 32-7 10-18 1-21-7-7-13 4-25 12-34 2-3 4-9-2-10z"/><path fill="#d4aa00" d="m187 167-4 2c-2 0-5 1-5 4s2 5 3 7a27 27 0 0 0 4 4c2 0 2-1 2-2 1-2 3-2 4-2 1 1 2 3 4 3 1-1 2 0 3 1 1 0 3 2 1 2l-5 1-7 1c-3 0-5-2-7-4l1 1a10 10 0 0 0 7 5h4c-2 0-1 2 0 3h5l7-1c2 0 0-3 0-4l-13-17c0-2-2-4-4-4zm76 0c-2 0-4 2-4 4l-3 4-11 15c0 2 2 3 3 2 3 0 6 2 10 1l1-2c3-1 7-1 9-4l2-3-4 3a9 9 0 0 1-6 1l-10-2 3-3 4-1c1-2 3-3 4-2l3 4c1 1 2-1 3-1 2-3 5-6 5-10 0-2-1-3-3-4-2 0-4 0-5-2a3 3 0 0 0-1 0z"/><path fill="#c6363c" d="M261 224v58a38 38 0 0 1-11 26 35 35 0 0 1-50 0 39 39 0 0 1-11-26v-58z"/><path fill="#fff" stroke="#21231e" d="M261 259v15h-29v45h-14v-45h-29v-15h29v-35h14v35z"/></svg>