<svg xmlns="http://www.w3.org/2000/svg" fill-rule="evenodd" viewBox="0 0 640 480"><path fill="#199d00" d="M0 0h640v480H0z"/><g fill="#fff"><path d="M141 136c-1 10-3 36 14 30 1-4 4-27 6-13-6 14 12 18 13 29 0 5-1 29 7 17 7-9-9-37 10-32 15 6 18-13 14-23 1-8-4-24-12-12-5 8 15 19 2 23-10-2-3-34-17-21-1 4 7 25 0 14-2-7 1-31-10-25-4 11 9 28 0 34 0-9-1-34-12-17-1 5-5 24-10 10-1-5 0-11-5-14zm32 46c-8 1-24 17-28 9 5-7 20-20 28-9zm-5 9c-9 14 1 38 19 33 16-1 22-25 26-30 3 19-16 39-36 36-14 1-11-20-17-22-9 13 1 35 18 33 21 0 44-17 43-39-6-17 16-11 25-15 11-4 6-25-4-11-4-10-15 10-18-3-10-9-8-27-4-37 3-12-17-23-14-6 1 15 6 29 6 44-4 11-18-12-23 3-8 13 4 23 15 19-3 13-25 25-33 9-1-4 3-12-4-13zm67-41c8-7 23-19 16-31-11-4-10 9-8 15-1 4-32 18-8 16zm-91 61c-7 7-8 33 6 26 5-10-12-10-5-20-1-1 2-6-1-6zm241-14a410 410 0 00-40-64c10-11-24-26-14-6 7 14 19 25 27 39a529 529 0 0127 48c2-5 1-12 0-17z"/><path d="M361 236c11 15 29-4 32-16 5-18 1-36 1-53-7-14 2-30-5-43-15-8-5 21-6 28l5 61c-5 11-17 17-27 23zm109 0c-10 11 16 7 19 1 12-13 8-31 9-47-1-15-3-31-6-46 12-9-15-29-10-8 2 27 9 53 7 80-1 10-10 16-19 20zm5-26c1-19-5-36-6-55 0-11 5-25-8-33-11 8 0 25 0 37 3 21 6 42 5 63a19 19 0 009-12zm-43-38c-13-1-17-21-5-18 3-11 17 5 5 7v11zm-68 45c1-23-1-47-3-71 6-8-7-32-14-21 1 17 8 34 8 51a364 364 0 011 52c5-1 7-6 8-11z"/><path d="M487 203a887 887 0 00-49-67c7-8-18-22-12-4 4 16 19 25 28 39 12 15 24 31 33 48 3-5 2-11 0-16z"/></g><path fill="#1ba400" d="M195 183l-1 3 2 1 3-1a3 3 0 001-3c-1-2-4-1-5 0z"/><path fill="#fff" d="M412 340c13 4 36-7 42 10 2 15-13 16-22 11-12 1-28 5-28-11-49-1-97-2-146-1-18 0-36 4-54 0-7-1-23-15-7-11 47 3 94-3 141-1l69 3c-11-11 12-11 5 0zM257 127c-6 11 1 40 15 30 2-6 7-21 7-5 0 13 20 16 25 4 8 5 20 11 25-2 4 2 7 5 11-3 1-9-17 1-15-14 3-8 5-23-9-18-11 9 14 23 0 32-17-4 0-29-14-34-9 7 9 39-13 33-5-7 1-35-14-20-3 5-8 28-13 13-1-6 0-13-5-16zm18 36c16 0 8 31 17 30 11-8 30-8 29-25 13-17 32 15 12 21-6 2-20 7-5 6 11-1 34-3 20 13-8 10-38 0-33 17 11 3 9 16-3 11-12 0-21-16-29-15-7 11-28 30-39 13-10-10-25 10-33 3 8-11 24-12 31-24 4-5 6-16 6-4 11 1 21-18 12-28-13-11 9-20 11-5-4 9 5 24-6 34-5 5-25 19-6 19a33 33 0 0022-33c0-11-12-21-6-33zm-90-36c11 7 12-16 1-7-5-6-6 6-1 7zm115 49c10 9 16-15 7-6-4-4-16-2-7 6zm68-20c9 7 15-13 5-8-3-2-2 4-6-1-3 1-2 7 1 9zm35 51c-10 10-1 39 15 32 4-7 6-28 18-14 17 11 24-15 21-28 1-17-3-33-5-50-1-6 7-9-1-15-1-8-10-16-10-4 2 21 7 41 6 62 5 11-2 36-13 18-16-12-11 22-26 20-6-4-6-15-5-21zm-33-88c11 2 0 31 1 12-2-4-10-12-1-12zm45 92c0-23-5-46-8-69 10-4-6-21-8-21-7 16 2 33 3 50 4 17 6 35 5 52 5-2 6-8 7-12zm60-80c10 4 1 32 0 13-1-4-8-12 0-13zm-240 64c10 1 0 25 0 8-1-3-8-9 0-8z"/><path fill="#1b9d00" d="M310 205c4 0 6 3 2 4-4 2-7 3-7 8 1 7-2 5-4 4-2-2-9-6-10-14 0-2 2-4 4-4l15 2z"/><path fill="#fff" d="M153 117c4 1 4 8 4 10l-3 7c-2-1 0-6-1-7l-4-7c-1-3 2-4 4-3zm90 31c-4 2-5 8-3 11s5 2 5 2c4 0 6-7 6-7s0-1-4 2c-2 1-2 0-2-1a8 8 0 010-5c1-2-1-3-3-2zm26-34c-2 1-5 5-6 9l1 4h5a5 5 0 002-3c1-3-3 1-3-2-1-3 1-4 3-6 0-2 0-3-2-2zm21 4a56 56 0 00-2 10c0 3 3 4 5 1l2-12c-1-4-3-4-5 1zm133 68l19-14c2-1 1 7 0 7a73 73 0 01-19 13c-1 1-2-5 0-6zm17-1c3 2 4 12 4 14 0 5-3 9-5 9v-9l-3-9c-1-3 2-5 4-5zm-109 41a24 24 0 015-4h4c0 2-2 4-1 6 0 1 0 2 2 2 3-3 6-3 9-3 2 0 2 4 1 4l-12 4h-3l-1-4c1-2 0-3-2-3-1 1-2 2-3 0l1-2zm128 5v4l-4 3c0 1-1 2 1 3 4 1 12-4 12-4v-3l-3-1c-1 0-3 0-2-2a11 11 0 002-2c0-1 0-2-2-3h-5l-2 2c0 2 1 2 3 3z"/><path fill="#259f00" d="M332 178h-4c-1-1-3-2-2-3h3l3 3zm-84-50l-3-2c-1-1 0-3 1-3l3 2c1 1 0 2-1 3z"/><path fill="#209000" d="M413 352h26c2 2 1 5-1 5l-7-1c0-2-7-2-7 0h-11v-4z"/></svg>