<svg xmlns="http://www.w3.org/2000/svg" fill-rule="evenodd" viewBox="0 0 640 480"><path fill="#199d00" d="M0 0h640v480H0z"/><g fill="#fff"><path d="M141.4 136.1c-1.3 10.1-3.2 35.7 13.5 30 1-4.3 3.8-27.2 5.8-13.1-5.5 14.4 12 18.2 13.7 29-.5 5.4-1.6 28.5 6.5 17.4 6.7-9.9-8.8-37 10.2-32.7 14.5 6.7 18.3-12.5 13.9-22.6 1.1-7.6-4.3-24.4-12-12.4-5 8.8 15 19 1.6 23.8-9.5-3-2.9-34.6-16.8-22-.9 4.4 7.4 25.6 0 14.3-1.3-7.3 1.7-30.8-9.5-24.5-3.8 10.2 9 28.1.1 33.2-.7-8.3-1-33.9-12.7-17-.6 5.7-4.4 24.1-9.7 10.3-.7-4.7.3-11-4.6-13.7zm31.5 46c-8.3 1.4-23.6 16.8-27.8 9.3 5-7.9 20-20.5 27.8-9.2zm-5.4 9.4c-8.7 13.8 1.3 37.8 19.6 32.6 15.5-1 21.5-25 25.6-30.2 2.9 19-16 38.9-35.3 36-14.1 1.2-11-19.9-17.6-22-8.5 13.2 1.6 35.2 18.6 33 21 .2 43.2-16.8 42.5-39-6-16.7 16.3-11.4 25.6-15.2 10.2-3.6 5.1-25-4.2-11-4.3-10-15.7 10.5-18.5-3-9.5-8.9-8-27.1-4.2-37.2 3.7-11.6-16.7-23-13.8-5.7 1.3 14.8 6.3 29.2 6.2 44-4 11.2-17.9-12-23 3.6-8.3 12.2 3.8 22.6 15 18.3-2.6 13.2-25.1 24.9-32.5 9.5-1.5-4.4 3-12.4-4-13.7zm67.3-41.4c8.6-7 23.2-19.5 15.8-31.3-11.1-4.1-9.5 9.4-7.6 14.8-.9 4-31.7 18.4-8.2 16.5zm-91 61c-7.1 7.3-8 33 6.4 25.6 4.8-9.5-12-9.6-5.4-19.8-.4-1.2 1.8-6.3-1-5.9zm241.1-14.4a410.2 410.2 0 00-39.9-63.5c9.9-11.5-24-25.8-14.4-6.3 7.7 14 19.3 25.5 27 39.6a528.6 528.6 0 0126.9 47.3c2.7-5.3 1.8-11.6.4-17z"/><path d="M361 236c10.5 15.4 28.6-4.3 31.9-16.4 5.5-17.1 1.2-35.4.7-53-6.2-14 2.1-29.6-4.4-42.3-15-8.2-5.5 20.5-6 28.2 2.2 20.2 4 40.4 5 60.7-5 11.3-16.8 17.3-27.2 22.7zm109.3-.2c-10 11 15.7 7.6 18.7.8 12.1-12.2 8.2-31 8.5-46.6-.7-15.5-2.8-30.9-5.4-46.2 11.5-8.8-15.4-29-10.3-7.8 2.6 26.6 8.9 53.1 7.6 80-1.2 10.2-10.5 16-19 19.8zm4.3-26c1.6-18.5-4.4-36.2-6-54.4-.1-11.7 5-25.5-7.6-33.2-10.6 7.8.4 25 .3 36.4 3 21 5.7 42.2 5 63.5a19.4 19.4 0 008.3-12.3zm-42.8-37.5c-13.1-1-17-21.7-4.4-18.8 2.5-10.6 16.2 5 5 7.1-1.4 3.8.5 7.8-.6 11.7zm-67.4 45c.8-23.8-1.2-47.6-3.7-71.3 6-8.1-7-31.6-13.3-21 .2 17.3 7.2 33.6 7.4 50.9a363.8 363.8 0 01.9 52.5c5.2-1 7.4-6.6 8.7-11z"/><path d="M487 202.6a887 887 0 00-49-66.2c6.6-7.9-17.6-22.4-12.1-4.6 4.5 15.8 19.5 25.7 28.1 39.3 12.1 15.4 23.5 31.3 33 48.4 2.8-5.2 1.5-11.5 0-16.9z"/></g><path fill="#1ba400" d="M195 182.6c-.5.9-1.5 2-1.1 3 .6.9 1.3 1.2 2.4 1.2 1 0 2.5.2 2.8-.3a3.4 3.4 0 00.6-3.1c-1.1-2.8-4.1-1.7-4.7-.8z"/><path fill="#fff" d="M412.2 340c13.1 4.1 36-6.8 41.4 10.4 2.3 14.5-12.7 15.8-22 10.9-12 1.2-27.5 4.8-27.8-11-48.3-.9-97-2.5-145.4-.8-18-.6-36.6 4-54.4-.5-7.4-1-23.4-14.7-7.4-10.7 47.1 2.5 94.3-3.4 141.4-1 23 .4 46.2 1.2 69.2 2.7-11.3-10.9 12-11.3 5 0zM257 127c-6 10.6.9 40.4 15 30 2-6 7.3-20.6 6.6-5.4.4 13.2 20 16.3 25.2 4.6 8.6 5.3 19.7 10.7 24.7-2.2 4.2 2.1 7.8 5.4 11-2.6 1.8-9.3-16.3.1-14.5-14 3.4-8.2 4.9-23.8-9-18.3-11.1 9.2 14.3 23-.1 31.7-16.4-4 .3-29-13.6-34.2-9 7.1 8.8 39.3-13.4 33.8-4.8-7.3.7-35.3-14.1-20.4-3 5.1-7.5 27.6-13 12.6-1.2-5.1.4-12.2-4.8-15.6zm17.6 36.4c16-.5 8.3 30.2 17.6 29.5 10.5-8 29.7-8.1 28.6-25.1 13.5-16.4 32.6 15 12.4 20.7-6.7 2.3-20 7.7-4.8 6.8 10.3-1.4 33.8-3 19.1 12.8-7.2 9.7-38-.2-32.2 16.4 10.2 3.6 8.5 16.7-3.5 11.8-11.5 0-21-16-28.4-15.3-7.9 11.3-28.4 29.5-39.8 13.1-10-9.8-24.3 9.7-32.6 2.5 8.4-10.5 24.3-11.6 31-24 4-4.6 6.4-15.3 5.8-3.7 11.2.6 21.5-18.2 11.8-27.5-12.4-11 9.4-20.7 11.6-5.3-4.1 8.7 5.2 24-5.9 33.9-5 5.4-25.3 19.2-6.4 18.5a33.2 33.2 0 0022.5-32.3c-.3-11.2-12-21.6-6.7-32.8zM184.7 127c11.3 7 12.6-15.7 1.3-6.9-4.6-6.4-5.6 6-1.3 6.9zm115.8 49c9.4 8.7 15-14.7 6.4-6.4-3.5-3.4-16-1.8-6.4 6.4zm67.6-20.3c8.9 7 15-12.8 5-7.6-3.3-2.2-2.6 3.6-6-1.5-3.4 1.4-1.7 7.7 1 9.1zm35 51c-10.5 10.7-1.4 39 14.7 32.7 4.5-7.5 5.7-28.8 17.8-14.4 17.4 11.2 24.7-14.9 21.1-27.8 1.4-16.9-2.8-33.3-5-50-.8-6.6 7-9.2-.6-15.6-1.3-7.3-10.6-16-10.6-3.4 2.6 20.7 7 41.3 6.7 62.3 5.1 10.3-2.6 35.8-13 18-16.2-12.4-11.1 21.6-26.2 20-6.3-4.6-5.6-15-5-21.9zm-33.3-88c11.4 2.8.6 31 .7 12.3-1.7-3.6-9.6-11.9-.7-12.3zm44.7 92.2c.3-23-4.5-45.8-7.8-68.5 10.5-4-6-21.1-7.8-21.1-7 16 2 33.1 3.6 49.4 3 17.4 5.3 35 4.7 52.7 5-1.9 5.8-8 7.3-12.5zm60.4-80c9.9 4.2 1 32.2.6 13.4-1.4-3.9-8.9-12.3-.6-13.4zm-239.8 63.7c9.7 1.9 0 25 .2 8.4-1.5-2.6-8-9-.3-8.4z"/><path fill="#1b9d00" d="M309.7 204.7c4 .2 6 3.3 2.3 4.7-3.8 1.2-7.2 2.2-7.3 7.5 1.4 7.5-2 4.8-3.8 4-2.2-1.8-8.6-5.7-9.6-14.2 0-2 1.5-3.7 4-3.7 3.8 1 9.4 1.1 14.4 1.7z"/><path fill="#fff" d="M152.6 116.7c4.5 1.3 4.8 8 4.5 10-.7 3.6-2.3 7.4-3.4 7-1.3-.5 0-5.4-.6-6.9-.7-2-4.5-6-4.2-7.1-.8-2.4 2-3.5 3.7-3zm90 31.5c-3.6 1.9-5 7.5-2.8 10.9 2 2.8 5.3 1.8 5.7 1.8 3.4.3 5.5-6.5 5.5-6.5s0-1.9-4 1.8c-1.7.3-1.8-.4-2.3-1.3a8.4 8.4 0 01.5-5.4c.6-1.7-.7-2.4-2.7-1.3zm26.2-34.1c-1.9 1.2-5.3 4.9-5.4 9-.1 2.3-.6 2.3 1 3.7 1.1 1.7 2.2 1.6 4.4.4a4.8 4.8 0 002.2-3.2c.5-2.6-2.8 1.3-3.2-1.7-.8-2.8 1.4-4 3.4-6.5 0-2 0-3.1-2.5-1.7zm21 3.7a55.8 55.8 0 00-1.5 10.4c-.6 2.7 2.8 3.8 4.2.4 2.3-6 2.3-8.7 2.5-11.2-.7-4-3.4-4-5.2.4zM423 185.6l18.8-13.5c1.8-.6 1.4 6.8.5 6.7a73 73 0 01-19.4 13.4c-1 .7-1.8-5 0-6.6zm16.6-.2c3.3 1.6 4.6 11.1 4.2 13.6 0 5.1-3 9-4.4 8.5-1.3-.7.2-6.3-.4-8.3-.8-2.8-3.5-8-3-9.4-1-3.2 1.7-5 3.7-4.4zm-108.8 40.8a24.4 24.4 0 015.3-4.6c1.8-1 3.5.7 3.4.6.3 1.9-1.1 3.5-.6 6 .4.9.6 2 2.4 1.6 3-2.3 5.6-2.5 8.4-2.6 2.4 0 2.5 4 1 4-5.4 1-7.7 2.6-11.5 4-2 1-3.4-.3-3.4-.4s-1-1-.4-3.5c.2-1.9-.6-3-2.3-2.8-1 .7-2.2 1.1-2.8-.3-.3-1-.4-1.5.5-2zm128.1 5c.8 1 1.4 2 0 3.6l-3.5 3c-.6 1-1 2.6 1 3 3.3 1 11.2-4.1 11.2-4.2 1.3-1 1-2.8.7-2.8-.7-.9-2.4-.3-3.5-.5-.6 0-2.4-.2-1.5-1.9a10.7 10.7 0 001.5-2.7c.4-1.1 0-1.9-2-2.5-1.9-.4-2.7-.2-4.9 0-1.1.2-1.5.7-1.8 2.1.1 2.2 1.4 2 2.8 2.8z"/><path fill="#259f00" d="M331.5 178c-.5.9-2.2.9-3.8 0s-2.5-2.5-2-3.3 2.2-.9 3.8 0 2.4 2.4 2 3.2zM248 127.6c-1 .2-2.3-.6-2.8-2s-.3-2.4.7-2.6 2.1.6 2.8 1.8.2 2.6-.8 2.8z"/><path fill="#209000" d="M413.2 351.8c8.8.3 17 0 25.8.4 1.6 1.4.5 4.7-.6 4.5l-7.3-.3c0-2.8-7.2-2.3-7 .1-3.9.5-7.4 0-11.3-.2-1.1-1.5-1-4 .4-4.5z"/></svg>