<svg xmlns="http://www.w3.org/2000/svg" viewBox="0 0 640 480"><path fill="#199d00" d="M0 0h640v480H0z"/><path fill="#fff" d="M270 114h-1c-2 1-5 5-6 9l1 4h5a5 5 0 0 0 2-3c1-3-3 1-3-2-1-3 1-4 3-6l-1-2zm23 0-3 4a56 56 0 0 0-2 10c0 3 3 4 5 1l2-12c0-2-1-3-2-3zm-142 3c-1 0-3 1-2 3l4 7c1 1-1 6 1 7l3-7c0-2 0-9-4-10a4 4 0 0 0-2 0zm151 0c-9 7 9 39-13 33-5-7 1-35-14-20-3 5-8 28-13 13-1-6 0-13-5-16-6 11 1 40 15 30 2-6 7-21 7-5 0 13 20 16 25 4 8 5 20 11 25-2 4 2 7 5 11-3 1-9-17 1-15-14 3-8 5-23-9-18-11 9 14 23 0 32-17-4 0-29-14-34zm32 0c-4 0-7 3-3 10 6 11 15 21 22 31l2 18a364 364 0 0 1 1 52c5-1 7-6 8-11 1-14 0-28-1-42a529 529 0 0 1 22 39c2-5 1-12 0-17a410 410 0 0 0-23-40l-1-11c6-8-7-32-14-21l2 13a410 410 0 0 0-4-5c6-7-5-15-11-16zm-143 1c-1 0-3 0-5 2-5-6-6 6-1 7 9 6 11-8 6-9zm56 0c-7 0-6 11-4 16-1 4-32 18-8 16 8-7 23-19 16-31l-4-1zm123 1c-9 0-1 8 1 12-1 19 10-10-1-12zm29 2c-7 16 2 33 3 50 4 17 6 35 5 52 5-2 6-8 7-12h1c0-23-5-46-8-69 10-4-6-21-8-21zm-189 0c-3 0-5 3-4 9 1 15 6 29 6 44-4 11-18-12-23 3-8 13 4 23 15 19-3 13-25 25-33 9-1-4 3-12-4-13-7 14 2 37 20 32 16-1 22-25 26-30 3 19-16 39-36 36-14 1-11-20-17-22-9 13 1 35 18 33 21 0 44-17 43-39-6-17 16-11 25-15 11-4 6-25-4-11-4-10-15 10-18-3-10-9-8-27-4-37 2-7-5-15-10-15zm-43 71 1-1-1 1zm277-70c-2 0-3 1-3 6l2 14a887 887 0 0 0-5-6c7-8-18-22-12-4 3 11 11 19 19 28 2 10 2 20 2 30 5 11-2 36-13 18-16-12-11 22-26 20-6-4-6-15-5-21-10 10-1 39 15 32 4-7 6-28 18-14 17 11 24-15 21-28l-1-24 8 11c2 13 3 25 2 38a19 19 0 0 0 9-12v-11l12 20c3-5 2-11 0-16a887 887 0 0 0-14-21c-2-9-4-18-4-27 0-11 5-25-8-33-11 8 0 25 0 37l1 9a887 887 0 0 0-9-13l-1-8c-1-6 7-9-1-15-1-5-4-10-7-10zm-273 0-3 1c-4 11 9 28 0 34 0-9-1-34-12-17-1 5-5 24-10 10-1-5 0-11-5-14-1 10-3 36 14 30 1-4 4-27 6-13-6 14 12 18 13 29 0 5-1 29 7 17 7-9-9-37 10-32 15 6 18-13 14-23 1-8-4-24-12-12-5 8 15 19 2 23-10-2-3-34-17-21-1 4 7 25 0 14-2-6 0-27-7-26zm213 1c-8 0 0 23-1 29l5 61c-5 11-17 17-27 23 11 15 29-4 32-16 5-18 1-36 1-53-7-14 2-30-5-43l-5-1zm101 4c-3 0-5 2-3 9 2 27 9 53 7 80-1 10-10 16-19 20-10 11 16 7 19 1 12-13 8-31 9-47-1-15-3-31-6-46 8-6-2-18-7-17zm-10 4c-8 1-1 9 0 13 1 19 10-9 0-13zm-108 16c-3 1-2 7 1 9 9 7 15-13 5-8-3-2-2 4-6-1zm-124 1h-1 1c-4 2-5 8-3 11s5 2 5 2c4 0 6-7 6-7l-4 2c-2 1-2 0-2-1a8 8 0 0 1 0-5c1-1 0-2-2-2zm188 2c-2 0-3 1-4 4-12-3-8 17 5 18v-11c9-1 3-11-1-11zm-156 13c-6 12 6 22 6 33a33 33 0 0 1-22 33c-19 0 1-14 6-19 11-10 2-25 6-34-2-15-24-6-11 5 9 10-1 29-12 28 0-12-2-1-6 4-7 12-23 13-31 24 8 7 23-13 33-3 11 17 32-2 39-13 8-1 17 15 29 15 12 5 14-8 3-11-5-17 25-7 33-17 14-16-9-14-20-13-15 1-1-4 5-6 20-6 1-38-12-21 1 17-18 17-29 25-9 1-1-30-17-30zm35 5-3 2c-4-4-16-2-7 6 8 7 14-7 11-8a1 1 0 0 0-1 0zm132 4-19 14c-2 1-1 7 0 6a73 73 0 0 0 19-13c1 0 2-7 0-7zm-116 3h3l3 3h-4c-1-1-3-2-2-3zm-160 3c-8-1-17 8-21 13 4 8 20-8 28-9-2-3-4-4-7-4zm274 7c-2 0-5 2-4 5l3 9v9c2 0 5-4 5-9 0-2-1-12-4-14zm-207 10c-4 0 1 5 2 8 0 17 10-7 0-8h-2zm62 8 15 2c4 0 6 3 2 4-4 2-7 3-7 8 1 7-2 5-4 4-2-2-9-6-10-14 0-2 2-4 4-4zm-151 8c-7 7-8 33 6 26 5-10-12-10-5-20-1-1 2-6-1-6zm192 11a24 24 0 0 0-5 4l-1 2c1 2 2 1 3 0 2 0 3 1 2 3l1 4h3l12-4c1 0 1-4-1-4-3 0-6 0-9 3-2 0-2-1-2-2-1-2 1-4 1-6h-4zm122 4-2 2c0 2 1 2 3 3v4l-4 3c0 1-1 2 1 3 4 1 12-4 12-4v-3l-3-1c-1 0-3 0-2-2a11 11 0 0 0 2-2c0-1 0-2-2-3h-5zm-50 106c-3 0-6 3-1 8l-69-3c-47-2-94 4-141 1-16-4 0 10 7 11 18 4 36 0 54 0 49-1 97 0 146 1 0 16 16 12 28 11 9 5 24 4 22-11-6-17-29-6-42-10 4-5 0-8-4-8zm5 20h26c2 2 1 5-1 5l-7-1c0-2-7-2-7 0h-11v-4z"/></svg>