<svg xmlns="http://www.w3.org/2000/svg" fill-rule="evenodd" viewBox="0 0 640 480"><path fill="#199d00" d="M0 0h640v480H0z"/><g fill="#fff"><path d="M141.44 136.1c-1.36 10.13-3.21 35.72 13.42 29.95 1.1-4.26 3.86-27.18 5.85-13.08-5.46 14.42 11.9 18.25 13.67 28.94-.5 5.45-1.62 28.64 6.53 17.54 6.71-9.92-8.81-37.06 10.15-32.74 14.56 6.67 18.34-12.51 13.91-22.6 1.14-7.57-4.27-24.41-12.06-12.41-4.93 8.79 15.06 18.97 1.65 23.78-9.46-3.01-2.81-34.58-16.8-21.89-.82 4.34 7.4 25.55-.03 14.23-1.2-7.31 1.81-30.78-9.47-24.48-3.75 10.17 8.96 28.11.14 33.13-.69-8.31-1.02-33.85-12.68-17-.6 5.74-4.4 24.16-9.69 10.34-.71-4.67.32-10.95-4.59-13.7zm31.42 46.06c-8.28 1.33-23.52 16.7-27.73 9.19 4.92-7.85 20.01-20.48 27.73-9.19zm-5.35 9.38c-8.75 13.74 1.24 37.8 19.59 32.55 15.52-1.02 21.45-25.05 25.6-30.2 2.88 18.96-15.99 38.9-35.3 35.99-14.13 1.18-11.06-19.85-17.58-21.93-8.5 13.15 1.59 35.19 18.59 32.91 20.98.2 43.14-16.8 42.44-38.98-6.03-16.63 16.31-11.38 25.67-15.22 10.15-3.56 5.09-25.01-4.2-11.05-4.31-9.88-15.68 10.58-18.56-2.89-9.43-8.89-8.01-27.17-4.13-37.22 3.62-11.64-16.7-23.07-13.83-5.66 1.25 14.77 6.28 29.14 6.23 43.97-3.94 11.15-17.93-12.1-23.11 3.57-8.24 12.19 3.9 22.64 15.14 18.36-2.63 13.13-25.18 24.81-32.56 9.44-1.54-4.4 2.94-12.39-3.99-13.67zm67.26-41.46c8.6-6.99 23.19-19.48 15.85-31.23-11.17-4.18-9.54 9.4-7.6 14.73-.92 4.05-31.71 18.41-8.25 16.5zm-90.99 60.97c-7.12 7.32-7.96 33.05 6.41 25.68 4.85-9.52-12.03-9.67-5.43-19.88-.35-1.16 1.84-6.21-.98-5.81zm241.16-14.35c-10.89-22.59-25.14-43.34-39.93-63.52 9.86-11.49-23.93-25.78-14.44-6.26 7.7 14.05 19.37 25.47 27.02 39.63a528.57 528.57 0 0126.88 47.22c2.76-5.28 1.86-11.53.47-17.06z"/><path d="M361.03 235.91c10.5 15.5 28.53-4.2 31.86-16.26 5.48-17.2 1.24-35.43.67-53.01-6.16-14.08 2.16-29.68-4.32-42.33-15.04-8.18-5.56 20.48-6.01 28.2 2.18 20.18 4.03 40.41 4.91 60.7-5.02 11.26-16.71 17.31-27.11 22.69zm109.28-.09c-9.92 10.97 15.67 7.55 18.68.82 12.12-12.22 8.19-31.03 8.49-46.63-.71-15.5-2.74-30.91-5.33-46.2 11.48-8.76-15.42-29.1-10.32-7.79 2.59 26.62 8.83 53.1 7.55 79.93-1.16 10.21-10.48 16.08-19.05 19.86zm4.32-25.98c1.6-18.49-4.41-36.26-6.06-54.47-.08-11.65 5.11-25.49-7.61-33.13-10.58 7.73.48 24.98.38 36.33 3.04 21.02 5.67 42.21 4.88 63.5a19.4 19.4 0 008.4-12.23zm-42.87-37.53c-13.07-.95-17.05-21.69-4.36-18.84 2.5-10.52 16.21 5.1 4.93 7.14-1.3 3.84.59 7.84-.57 11.7zm-67.35 45.02c.79-23.85-1.24-47.67-3.67-71.37 6-8.09-6.95-31.59-13.34-20.95.18 17.24 7.18 33.58 7.37 50.88a363.8 363.8 0 01.92 52.51c5.19-1.05 7.41-6.56 8.72-11.07z"/><path d="M487.09 202.61c-15.08-22.98-31.87-44.79-49.01-66.26 6.57-7.83-17.69-22.37-12.22-4.56 4.51 15.8 19.54 25.7 28.18 39.32 12.06 15.36 23.5 31.28 32.95 48.39 2.8-5.2 1.56-11.49.09-16.89z"/></g><path fill="#1ba400" d="M195 182.63c-.47.84-1.5 1.88-1.13 2.91.66.94 1.31 1.22 2.44 1.22 1.03 0 2.53.28 2.81-.28a3.4 3.4 0 00.56-3.1c-1.13-2.81-4.13-1.69-4.7-.75z"/><path fill="#fff" d="M412.24 340.03c13.09 4.07 35.94-6.8 41.35 10.41 2.32 14.5-12.67 15.76-22.08 10.82-11.86 1.25-27.42 4.88-27.71-11.02-48.33-.79-96.94-2.44-145.38-.74-18.11-.6-36.64 4.04-54.44-.51-7.36-.95-23.4-14.71-7.37-10.69 47.13 2.5 94.24-3.35 141.39-1 23.07.42 46.15 1.21 69.17 2.73-11.24-10.9 12.01-11.37 5.07 0zM256.91 126.9c-6.02 10.61.85 40.44 15.03 29.93 1.99-5.84 7.28-20.56 6.54-5.3.38 13.2 19.97 16.28 25.25 4.57 8.61 5.26 19.62 10.74 24.62-2.17 4.24 2.07 7.89 5.33 10.97-2.68 1.87-9.22-16.24.16-14.41-13.92 3.34-8.2 4.89-23.84-8.95-18.28-11.2 9.16 14.2 22.9-.2 31.68-16.33-4.03.37-29.04-13.6-34.23-9 7.1 8.83 39.31-13.4 33.78-4.8-7.31.72-35.32-14.09-20.4-2.94 5.14-7.45 27.6-12.99 12.66-1.15-5.19.46-12.28-4.76-15.66zm17.63 36.39c15.91-.47 8.25 30.21 17.55 29.46 10.49-8 29.67-8.1 28.58-25.1 13.52-16.32 32.63 15.05 12.45 20.71-6.69 2.37-20.07 7.72-4.8 6.8 10.27-1.36 33.75-3 19.12 12.86-7.27 9.68-38.02-.27-32.28 16.42 10.28 3.54 8.51 16.69-3.5 11.77-11.49-.07-20.88-15.96-28.33-15.36-7.9 11.39-28.47 29.56-39.78 13.18-10.04-9.81-24.39 9.71-32.65 2.44 8.41-10.48 24.31-11.59 31.01-24.01 3.96-4.56 6.38-15.29 5.77-3.7 11.23.68 21.51-18.2 11.8-27.49-12.34-11.06 9.42-20.63 11.63-5.3-4.12 8.73 5.16 23.96-5.88 33.88-5.09 5.42-25.33 19.24-6.41 18.59 13.02-3.8 23.49-18.49 22.47-32.38-.3-11.21-12.08-21.6-6.72-32.75zm-89.86-36.19c11.28 7 12.62-15.72 1.28-6.86-4.55-6.47-5.58 5.88-1.28 6.86zm115.84 48.96c9.35 8.78 14.9-14.66 6.36-6.37-3.46-3.37-15.96-1.77-6.36 6.37zm67.54-20.26c8.93 7.09 15.13-12.82 5-7.6-3.21-2.22-2.6 3.6-5.97-1.5-3.4 1.38-1.65 7.66.97 9.1zm34.99 50.93c-10.41 10.75-1.36 39.13 14.8 32.76 4.4-7.53 5.64-28.8 17.71-14.4 17.47 11.21 24.73-14.86 21.19-27.78 1.32-16.91-2.83-33.32-4.96-49.96-.89-6.61 6.92-9.21-.66-15.66-1.35-7.3-10.62-16.06-10.66-3.4 2.6 20.73 7.08 41.33 6.72 62.35 5.13 10.29-2.63 35.75-12.91 18.01-16.3-12.48-11.19 21.5-26.27 19.88-6.33-4.49-5.58-14.97-4.96-21.79zm-33.21-87.9c11.37 2.77.58 30.99.61 12.28-1.63-3.62-9.51-11.9-.61-12.28zm44.65 92.21c.34-23.1-4.46-45.81-7.77-68.56 10.51-4-6.07-21.1-7.83-21.08-7.08 16.03 2.02 33.12 3.57 49.39 3.1 17.38 5.38 35.03 4.72 52.72 5.05-1.91 5.79-8.03 7.32-12.47zm60.41-80c9.88 4.17.92 32.17.57 13.33-1.37-3.87-8.82-12.25-.57-13.33zm-239.85 63.7c9.79 1.85-.03 24.93.29 8.38-1.51-2.59-8.01-9.06-.29-8.38z"/><path fill="#1b9d00" d="M309.72 204.67c3.94.19 5.9 3.38 2.25 4.7-3.75 1.22-7.22 2.25-7.32 7.5 1.41 7.5-1.88 4.88-3.75 3.94-2.25-1.69-8.63-5.63-9.57-14.07-.09-1.97 1.5-3.75 4.03-3.75 3.75 1.03 9.38 1.13 14.35 1.69z"/><path fill="#fff" d="M152.6 116.69c4.5 1.31 4.78 8.07 4.5 10.04-.66 3.56-2.25 7.4-3.38 6.94-1.31-.47 0-5.35-.66-6.85-.66-2.06-4.5-6-4.13-7.13-.84-2.35 1.88-3.47 3.66-3zm89.95 31.52c-3.56 1.88-4.88 7.5-2.72 10.88 2.06 2.81 5.25 1.78 5.63 1.78 3.47.38 5.53-6.47 5.53-6.47s.09-1.88-3.94 1.78c-1.78.28-1.88-.38-2.35-1.31a8.44 8.44 0 01.47-5.35c.66-1.69-.66-2.44-2.63-1.31zm26.26-34.14c-1.88 1.22-5.35 4.88-5.44 9.01-.09 2.35-.56 2.35.94 3.75 1.22 1.69 2.25 1.6 4.5.38a4.78 4.78 0 002.16-3.19c.56-2.63-2.81 1.31-3.2-1.69-.75-2.81 1.41-3.94 3.47-6.57 0-1.88 0-3.1-2.53-1.69zm21 3.75a55.81 55.81 0 00-1.5 10.41c-.56 2.63 2.81 3.75 4.22.38 2.25-6.1 2.25-8.72 2.44-11.26-.66-4.03-3.38-3.94-5.16.47zm133.2 67.82c.38-.47 18.76-13.51 18.76-13.51 1.88-.66 1.41 6.75.56 6.66a72.98 72.98 0 01-19.42 13.41c-.94.66-1.78-4.97 0-6.57zm16.6-.19c3.28 1.6 4.6 11.07 4.22 13.6 0 5.07-3.1 9.01-4.4 8.44-1.31-.66.19-6.29-.47-8.25-.75-2.81-3.47-7.97-3-9.47-.94-3.2 1.69-4.88 3.75-4.32zm-108.8 40.71a24.39 24.39 0 015.25-4.6c1.88-.94 3.56.75 3.47.66.28 1.88-1.13 3.47-.66 5.9.38.94.66 2.06 2.44 1.69 2.91-2.35 5.63-2.53 8.44-2.63 2.35.09 2.44 3.94.94 3.94-5.35 1.13-7.69 2.63-11.54 4.03-1.88 1.13-3.38-.28-3.38-.38s-1.03-1.03-.38-3.47c.19-1.88-.56-3-2.25-2.81-1.13.75-2.25 1.13-2.81-.28-.28-.94-.38-1.5.47-2.06zm128.13 5.07c.75.94 1.31 1.88-.09 3.56l-3.47 3c-.56.94-.94 2.63.94 3.1 3.38.94 11.26-4.22 11.26-4.32 1.31-.94.94-2.81.75-2.81-.75-.84-2.44-.28-3.56-.47-.56 0-2.35-.19-1.5-1.88a10.69 10.69 0 001.5-2.72c.47-1.13 0-1.88-1.88-2.53-1.97-.38-2.81-.19-4.97 0-1.13.19-1.5.75-1.78 2.16.09 2.16 1.41 2.06 2.81 2.81z"/><path fill="#259f00" d="M331.48 177.94c-.47.94-2.16.94-3.75 0s-2.53-2.44-1.97-3.28 2.16-.84 3.75 0 2.44 2.44 1.97 3.28zM248 127.66c-.94.28-2.25-.56-2.81-1.88s-.28-2.44.66-2.72 2.16.66 2.81 1.88.28 2.53-.75 2.81z"/><path fill="#209000" d="M413.18 351.75c8.82.38 17.07 0 25.8.47 1.6 1.41.47 4.7-.56 4.5l-7.32-.28c-.09-2.81-7.22-2.35-7.04.09-3.85.47-7.32-.09-11.26-.28-1.13-1.41-.94-3.94.38-4.5z"/></svg>