<svg xmlns="http://www.w3.org/2000/svg" viewBox="0 0 640 480"><style>.B{fill:#fff}.C{stroke-width:.45}.D{stroke-width:4.94}</style><path fill="#006" d="M640 480V0H0v480z"/><path d="M0 73h76L0 27V0h44l106 65V0h60v65L316 0h44v27l-76 46h76v74h-76l76 46v27h-44l-106-65v65h-60v-65L43 220H0v-27l76-46H0z" class="B"/><path fill="#ce1126" d="M332 0L212 73h28L360 0zm28 220l-120-73h29l91 56v17zM120 73L0 0v18l91 55zm0 74L0 220h29l120-73h-29zM0 89h163V0h35v89h162v43H198v88h-35v-88H0V89z"/><path fill="#8fc5ff" stroke="#fff" d="M602 266c0 73-11 152-107 190-94-38-106-117-106-190z" class="D"/><path fill="#366cc9" d="M495 456a154 154 0 0085-72h-9c-3-1-91-9-102-14-9-3-44 4-60 9a153 153 0 0086 77z"/><path fill="#cf6200" d="M429 411h7c1-4 6-1 8-3 4 3 6-6 9-2 3-1 1 5 4 1 4 3 2-6 2-9-4-4-1-11-6-13-1-2-4-2-5-3-2-2-3-5 1-5 4-4 9 2 13-1 3-2 6-2 8-5 0-7-3-13-5-20-1-4-5-7-6-11 0-4-4-5-4-9l-4-19c-1-4 1-11-3-14-6-1-8-6-9-11-1-3-6 3-7 5-1 4-3 9-7 11s-6 7-8 1c-4-4-3-11-8-13-2-2-1-4-1-7 0-4-8-3-8 1a35 35 0 00-10 14c3 40 12 81 39 112z"/><path fill="#ff0" stroke="#fff" d="M602 266l-1-78a285 285 0 00-106-19c-23 0-70 4-105 19 1 24-1 51-1 78z" class="D"/><g stroke="#000"><path fill="#ff0" d="M484 371l-1-99c0-5-2-4-2 0v98zm32-105l4 105v1h-3l-2-106zm31 89l-2-85c0-3-2-2-2 0l2 85z" class="C"/><path d="M560 335h-25c1 5 9 2 13 4 4 0 9 1 11-2l1-2zm1-24h-31c1 5 9 4 13 6 5 1 9 2 14-1 2 0 5-2 4-5zm1-27h-33c2 4 8 6 12 6h13c4 1 8-1 8-6zm-31-10l-27 1c0 5 6 4 10 4l15-1c2 0 2-2 2-4zm2 15h-30c0 5 6 6 9 5 4-1 6 4 10 1 4 0 10 2 11-4a4 4 0 000-2zm-4 22l-28-1c0 5 6 7 10 5 3 0 6 2 10 1 3-1 9 1 8-5zm3 20h-29c0 6 8 4 12 5h14c2-1 3-3 3-5zm-30 8l-35-1c-2 6 6 8 10 8 4-2 8-2 12-1 4-1 8 2 12-1 1-1 2-3 1-5z" class="B C"/><path fill="none" stroke-width="8" d="M602 266c0 73-11 152-107 190-94-38-106-117-106-190zm0 0l-1-78a285 285 0 00-106-19c-23 0-70 4-105 19 1 24-1 51-1 78z"/><path d="M500 319h-31c1 6 8 3 12 5h9c3-1 8 1 10-3a3 3 0 000-2zm1-20h-32c-5 4 5 9 8 6a31 31 0 0016-1c3 0 9-1 8-5zm-3-15l-31-1c-1 6 7 5 11 6h17c2 0 4-3 4-5z" class="B C"/><g class="C"><path d="M520 372l-37-1c-10-1-12-2-19-7l-25-15c-2-1-5 1-1 3l25 16a66 66 0 0115 14c5 5 9 5 12 5 2-1 6-3 10-2 3 1 9 2 12 1 2 2 8 2 11 1h15c2 0 8-2 12-1h11a22 22 0 019-1c3-2 4-4 5-6l4-2 3-7h1v-3l-2-3 1-4 2-1-1-5-40 1a9 9 0 00-2 5l-12 2c-1 0-3 0-4 2z"/><path d="M567 355l6-22c1-3-2-3-3 0l-6 22z"/><path d="M590 330c-5 2-8 4-10 3s-5-2-7-1a2 2 0 010 1 2213 2213 0 01-5 17h11c2-2 6-2 8-2 2-1 2-4 2-5v-4l1-9z" class="B"/></g></g><path fill="#cf6200" d="M543 375a268 268 0 01-67-2c10 2 32 2 44 2l7-10 4-2 10-2v1l-1 1 1 10h1l1 2zm31 1h2c1 0 2 0 2-2l3-7-2-3 1-6 2-1v-2l-36 1c-2 0-2 0-2 2a27 27 0 009 26v-1a30 30 0 01-5-6h6l2 7 1-1-1-6h6v6h1v-6l5-1v6c0 1 0 2 0 0l1-6h4l-2 6h1a35 35 0 002-6z"/><path d="M547 375l-3-9h8l2 9zm7-9l1 9h7l-1-9zm-9-8a38 38 0 000 7l7-1v-6zm8 0l1 6h7v-7zm9-1l1 7h6v-7zm9 0l-1 7h7l2-7zm7 8l-8 1v9l7-1a62 62 0 002-6l-1-3zm-15 1v9h5l1-10zm-31-2h-3a225 225 0 01-8 10h11v-10zm1 0v10h7l-1-11z"/><g stroke="#000" class="C"><path d="M531 274l-27 1z" class="B"/><path fill="#ef072d" d="M582 339a14 14 0 000-6 5 5 0 01-2 0 14 14 0 00-2-1 29 29 0 01-1 8l-6-1-2 5a16 16 0 007 0c0 3 0 5-2 7 3 0 5 0 5-2 2-1 2-4 2-5l2-1 3-1h3v-3l1-2-8 2z"/><path d="M471 187l-13 1c-2 1-2 2 1 2l10 4c3 1 4 4 4 9a27 27 0 0014 28v3l-1 5s-1 1 1 1a90 90 0 01-5 7c-7-1-13 0-13 8 0 1 0 2 1 0s2-3 6-4l-3 7c0 2 1 2 2 0l4-5v1c-1 1 1 4 2 5s1 1 1-1 0-5 2-6 5-1 6 1 2 0 1-2c-1-1-3-4-5-4l5-7c0-1 1-2 2-1l1-1 3-6 3-1 4 7v2l-2 7c-5 0-8 0-10 3-1 2 1 2 2 2a9 9 0 015-1v1c-4 1-6 3-6 7h2c1-3 3-4 5-5 0 2 1 6 3 7 1 1 1 0 1-1-1-3 0-5 1-6 2-3 7 1 9 1 1 1 2 2 1-1s-5-4-9-5l5-19c2 1 5-2 8-1a97 97 0 0117 10h7c1 0 2 1 1-2a32 32 0 00-11-12l8-1-8-2a15 15 0 007-4c1-1 0-1-3-1-10 0-15 0-20-3-8-4-13-10-17-12l-4-6c-2-7-2-10-8-12s-14 0-17 3z"/><path d="M473 191h-8c8 0 12 8 11 15a26 26 0 003 11c3 4 9 5 11 10 1 3-6 0-3 3s9 3 13 2 5 7 8 2c1-4 5-5 9-5a26 26 0 0113 5c2 1 5 5 7 2 0-4-3-7-6-8-2-2-8 0-4 2 1 1 5 2 4 3-5-2-8-6-13-7-4-1-8 0-12 1-7 0-15-1-19-7-3-4-3-11 1-14 3-4-1-11-6-9-2-1-4 0-5-3 3 2 7 2 8-1 2-3-2-6-5-6a8 8 0 00-7 4zm20-1c-1-5-9 0-6 3 2 4 6 6 7 10-1 2-7 5-3 7 2 1-3 1-3 3-2 4 0 7 3 9 5 4 12 3 18 3h7c-3-2-7-4-11-4 0 3-4 0-1 0 3-4 7 2 10 0h7c-2-3-6-5-9-6-3 0-3-4-7-4-1-1-1-3-3-2-2-2-4-3-5-6l-2-9-2-4z" class="B"/></g></svg>