<svg xmlns="http://www.w3.org/2000/svg" viewBox="0 0 640 480"><style>.B{fill:#fff}.C{stroke-width:.45}.D{stroke-width:4.94}</style><path fill="#006" d="M640 480V0H0v480z"/><path d="M0 73.3h76L0 26.8V0h43.5l106.4 64.8V0h59.9v64.8L316 0h44v26.8l-76.4 46.5H360v73.4h-76.4l76.4 46.6V220h-44l-106.4-64.7V220H150v-64.7L43.4 220H0v-26.7l76-46.6H0z" class="B"/><path fill="#ce1126" d="M331.7 0L211.5 73.4h28.8L360 0zM360 220l-119.8-73.3H269l90.9 55.9V220zM120.4 73.4L0 0v17.5l91.4 55.9zm-.3 73.3L0 220h28.7L149 146.7h-29zM0 88.6h162.6V0h35.2v88.6H360v43H197.8V220h-35.2v-88.5H0v-43z"/><path fill="#8fc5ff" stroke="#fff" d="M602.1 266.3c0 73.1-11.6 152-106.7 189.8-94.7-37.7-106.3-116.7-106.8-189.8z" class="D"/><path fill="#366cc9" d="M495.4 455.6a153.9 153.9 0 0084.3-71.8h-9c-2.6-.4-91-9-101.8-13.4-9-3.2-44 3.1-60 9a152.5 152.6 0 0086.5 76.2z"/><path fill="#cf6200" d="M429 410.8c2.2-.1 4.5.1 6.6-.2 1.1-3.7 6-.4 8.1-3 3.8 3.7 5.8-6 9.3-1.8 2.6-.4.9 4.8 3.8 1.4 4 2.6 1.7-6.6 1.9-9-3.4-3.7-.3-10.8-5.3-13.2-1.3-2-4.6-2.4-5.8-3-2-2-2.3-5 1.5-5 3.5-4 9 2.3 13.2-1 2.5-1.6 5.9-2.3 7.4-5 .7-7-3-13.5-5-20-1-4.3-4.8-7.1-5.4-11.3-.8-3.2-4.3-4.8-4.8-8.2-1.8-6.3-3-12.8-3.9-19.4-.8-4.6 1.3-10.8-2.5-14.2-6-.7-8-5.5-9.1-10.8-1.4-3.4-6.3 2.5-7.3 4.5-.7 4.2-2.3 9.7-6.6 11.6-4 1.5-6 6.6-8.5.6-4-3.7-2.3-10.5-7.5-13.1-2.2-1.3-.8-4.2-1.2-6.3 0-4.8-7.4-3-8.2.9a34.5 34.5 0 00-9.7 13.3c2.6 40 12.4 81.1 39 112.2z"/><path fill="#ff0" stroke="#fff" d="M602.1 266.3l-.9-78.1a285.3 285.4 0 00-105.8-19.3c-23.8 0-70.4 3.6-105.9 19.3 1 23.3-.9 50.3-.9 78z" class="D"/><g stroke="#000"><path fill="#ff0" d="M484.2 371.3l-1-99.6c0-4.5-2.2-3.6-2.2 0v98.7zm32.3-105l3.6 105-.5.9h-2.2l-2.3-106zM547 355l-1.8-85.2c0-2.7-2.3-2.3-2.3.4l1.8 84.8z" class="C"/><path d="M559.5 334.5h-25c1.5 5.8 9.3 2.4 13.5 4 3.7 0 8.5 1.6 11-2 .3-.6.5-1.3.5-2zm1.8-23.8H530c.7 5.8 8.8 4.7 12.8 6.2 4.8.8 9.7 2.1 14.3-.4 2.3-1 4.8-3 4.3-5.8zm.5-26.5l-32.3-.4c1.6 4.2 7.3 6 11.4 5.8 4.3 1.6 8.4 1.2 12.7.2 4.3 1.5 8.4-.8 8.2-5.6zm-31-9.8l-26.9.4c.3 5.1 6.4 4.3 10 4 5.1-.7 10.4 0 15.4-1 1.7 0 1.9-2.2 1.5-3.4zm1.8 14.8H503c0 4.8 5.6 5.6 9.3 5 3.5-1.3 5.6 3.8 9.6 1.3 3.9-.7 10.3 1.6 11-4.4a4 4 0 00-.3-2zm-3.6 22l-27.8-1c-.5 5 6 6.9 9.7 5.3 2.8-.8 6.5 1.7 9.9 0 3.6-.4 9 1.7 8.3-4.3zm2.7 19.7h-28.2c-.3 6.4 7.5 4 11.3 5.3 4.7.1 10 .4 14.4-.5 1.5-1 2.7-2.9 2.5-4.8zm-30 8l-34.6-.4c-2.3 5.6 6.2 7 10 7 3.8-1.5 8.1-2 11.5-.2 4-1.8 8.7 1.3 12.1-1 1.4-1.3 2-3.6 1-5.3z" class="B C"/><path fill="none" stroke-width="8" d="M602.1 266.3c0 73.1-11.6 152-106.7 189.8-94.7-37.7-106.3-116.7-106.8-189.8zm0 0l-.9-78.1a285.3 285.4 0 00-105.8-19.3c-23.8 0-70.4 3.6-105.9 19.3 1 23.3-.9 50.3-.9 78z"/><path d="M499.9 319.2h-30.5c.6 5.6 7.6 3.2 11.2 4.8 3 .7 6.6-.4 9.8-.2 3.1-.6 7.7.7 9.4-2.6a3.1 3.1 0 000-2zm.9-20.2h-31.4c-5.4 4.3 4.2 8.7 7.5 5.5a31 31 0 0016.1-.3c3.2 0 8.6-.7 7.8-5.2zm-2.3-15.2l-31.4-.5c-1 6 6.9 5 10.7 5.7 5.6.2 11.2-.7 16.8-.2 2.6 0 4.9-2.4 4-5z" class="B C"/><g class="C"><path d="M519.6 372.2c-13.5 0-27.4 0-36.8-1-9.4-.8-12.1-2.6-18.8-6.7l-25.2-15.2c-2.2-1-4.5.4-1.3 2.2l25.1 16.6a65.5 65.5 0 0115.3 13.5c5.3 5.8 9 5.8 11.6 5 2.7-1 6.3-2.3 10.3-1.4 3.6.9 9 1.3 11.7.9 2.2 2.2 8 1.8 11.2.9 3.2-1 5.4-1 7.6-.5h7.7c2.2 0 8-1.3 12.1-.9 4.5 1 8.5 0 11.2 0a22.4 22.4 0 019-.4c2.7-1.8 3.6-4 4.5-6.3 2.7-.5 3.6-1 4-2.3l2.7-7.1h1v-2.7l-1.9-2.7 1-4.5 2.2-1-1-4.4-39.4.9a9 9 0 00-2.7 4.9l-11.7 1.8c-1.3.5-2.7.5-4 2.2z"/><path d="M566.7 354.7l5.8-22c1-2.3-1.3-2.7-2.2 0l-5.8 22z"/><path d="M589.6 330c-5 2.2-7.6 3.6-9.9 2.7s-4.9-1.4-6.7-.5a2.2 2.2 0 010 .5 2213 2213.4 0 01-5 17c3.7 1.4 10 1.4 11.3 0 1.8-1.7 5.8-1.3 8-1.3 1.4-1.8 1.9-4 1.4-5-.4-.8 0-3 0-4.4s1.8-6.3 1-9z" class="B"/></g></g><path fill="#cf6200" d="M543.3 375.3c-18.5 3.2-59 1-67.8-1.3-3-.7-2.2-1.8.4-1.2 10.2 2.3 32 2.3 44 1.7 2.3-3 6-8.3 7.1-9.8s1.6-1.6 4-2l10-1.7v1.4c-.2.3-.5.7-.8.8 0 2.4.5 8.2 1 10.3l1.3-.3c.8-.2 1.6 1.9.8 2.1zm30.4.9h2.5c.7 0 1.8-.6 2.2-1.7l2.5-7.3-1.9-2.8 1-6.1 2.4-1c.1-.4-.1-1.9-.6-2.3l-36.2 1.2c-1.1 0-1.6 0-2 1.4a27 27 0 009.2 26.6c.6.5 1.4 0 .4-.8a29.8 29.8 0 01-5-6.5l6-.1c.4 2 1.9 6 2.2 6.8s1 .8.6-.3c-.8-2.4-1.2-5.2-1.5-6.6h6l.5 6c0 .8.7.8.7-.1v-6l5.5-.2-.5 6c-.1 1 .4 1.4.6 0l.8-6 3.8-.2c-.1 1.3-1.3 5-1.6 6s.2 1 .6.1a35 35 0 001.8-6z"/><path d="M547.2 375.3c-.6-1.3-2.6-5.9-2.8-9.2l8-.1 1.5 9.1zm6.6-9.4c.2 2 1.2 8.5 1.4 9.2l6.4-.1-.4-9.3zm-9-8.1a38 38 0 00-.3 6.8l7.7-.2-.6-6.8zm8.3-.2c0 1.6.4 5.6.5 6.8l7.6-.2-.4-6.9zm9.2-.3l.3 6.9 6.5-.2.2-7zm8.3-.3l-.2 7 7.1-.3c.3-1.5 1-5.4 1-7zm7.2 8.3l-7.5.2-.7 9.2 7.2-.2a61.6 61.6 0 002.6-7c-.5-1-1-1.4-1.6-2.2zm-15.2.4l.2 9.2 5.5-.2.7-9.2zm-31-1.8l-3 .5a224.8 224.8 0 01-7.2 10.1l10.6-.3-.3-10.3zm1.4-.3l.4 10.5 6.4-.5-1-11z"/><g stroke="#000" class="C"><path d="M530.8 274.4l-26.9.4z" class="B"/><path fill="#ef072d" d="M582.4 339a13.5 13.5 0 000-6.3 5 5 0 01-2.7 0 13.5 13.5 0 00-1.3-1 29 29 0 01-1.8 8.6c-1.4 0-4.5 0-5.9-.9l-1.3 4.5a15.7 15.7 0 006.7 0c0 2.7-.4 5-1.8 6.7 2.3 0 4.5 0 5-1.3 1.3-1.8 1.3-4.5 1.8-5.8l2.2-.5 2.2-.9 3.2-.4V339l.9-1.8-7.2 2.2z"/><path d="M471.2 187.3c-3.6 0-11.7 0-13.5.9-1.3.9-1.8 1.4.9 1.8 2.7.5 7.6 2.2 10.3 3.6 2.7 1.8 4.5 4.5 4.5 9a27 27 0 0013.5 28.2c.4.5.9 1 .4 2.7l-1.3 5c0 .9-.5 1.8.9 1.3a89.7 89.7 0 01-4.5 7.2c-7.2-.9-13.5 0-13.5 8 0 1 0 1.9 1 0 1.3-1.7 2.6-3.5 5.8-4.4-1.8 3.1-2.7 5.8-2.3 7.6 0 1.4 1 2.3 1.8 0 .5-1.8 2.3-3.6 3.6-5 1-.4 1-.4.5 1s.4 4 1.3 5 1.4.4 1-1c0-1.8 0-5 2.2-5.8 2.7-1.8 5.3-1 6.2.9 1.4 2.2 2.3 0 1-1.8-1.4-1.8-2.8-4-4.6-4l4.5-7.7c0-.9 1-1.3 1.8-.9 0 .5 1 .5 1.4-.9l3.1-6.3 2.7-.9 4.5 6.8v2.7c0 1.8-1.8 5.8-2.2 7.2-5.4 0-8 0-9.9 3-.9 1.4.5 1.9 1.8 1.4a9 9 0 014.5-1.3c1 0 1.4.9 0 1.3-3.1 1.4-5.4 3.6-5.4 6.8 0 .9 1 1.3 1.4 0 1.3-2.3 3.6-4 5.8-4.5 0 2.2.5 5.8 2.2 6.7 1.4.9 1.4 0 1-1.3-1-2.3 0-4.6 1.3-5.9 2.2-2.7 7.6 1 9 1.8.9 1 1.8 1.4.9-1.3-.5-3.2-5-4.5-9-5.4l5.4-18.9c2.2 1.4 4.5-2.2 8-.9a96.8 96.8 0 0117.1 10c1.8 1.3 2.2.8 3.1 0 1-.5 2.3 0 3.6 0 1 .4 1.8.8.5-1.9a32.3 32.3 0 00-10.8-11.7c3.6 0 8 0 8-.9s-5.3-2.7-7.5-2.7a14.8 14.8 0 007.1-3.5c1-1 0-1.4-3.6-1.4-9.4 0-14.3 0-19.3-2.7-8-4.5-13-9.9-17-11.7-1.8-1.3-3.2-4-4.5-6.2-2.3-6.8-2.3-10.4-8-12.6s-13.5.4-16.7 3.6z"/><path d="M473.1 191h-8c7.4.1 12.3 8.4 10.8 15.3a26.3 26.3 0 002.8 11c3 3.9 9.2 4.2 11 9.2 1.3 3.6-5.4.6-3.2 3.8 3.8 3 9.2 3 13.7 1.5 3.3-.9 5.2 6.8 7.7 2.3.8-4.2 4.8-5.6 8.6-4.7a26 26 0 0113.4 4.7c2 1 5.2 5.1 6.8 1.4.7-3.7-2.4-7-5.7-8-2.2-1.6-7.8.8-3.6 2.7 1 .3 5 1.7 3.4 2.7-4.6-1.6-8-5.6-12.8-6.6-3.8-1-7.8-.2-11.6.3-7 .6-15-1-19.6-6.7-3-4.2-2.6-10.7 1.4-14 3.1-4-1.1-10.5-6-9.4-1.7-.5-4.4.2-5-2.1 2.6 1.1 6.5 1.3 8.2-1.4 1.3-3.2-2.4-6-5.4-5.8a8.3 8.3 0 00-7 3.8zm19.8-1.4c-1.4-4.4-8.6.4-5.5 3.6 1.3 3.8 5.8 5.8 6.4 10-.8 2-7.1 5-2.6 6.4 1.7 1-3.3 1.9-3.2 3.8-1.8 3.2.3 6.8 3 8.6 5.2 4 12.2 3.2 18.3 3 1.8 0 5.5.3 6.2-.2-3-2-6.7-4-10.5-3.4 0 2.7-4.4-.7-1.3-.7 3.3-3.3 7.2 2.5 10.7.3 1.9-1.5 5.6.1 6.3 0-1.6-3-5.3-5-8.4-6-3.6.4-3.5-4.5-6.9-3.6-1-1.5-1.5-3.3-3.8-2.9-1.5-1.8-4-3-4.5-5.7-1-3-1-6-2.5-8.7l-1.7-4.4z" class="B"/></g></svg>