<svg xmlns="http://www.w3.org/2000/svg" viewBox="0 0 640 480"><path fill="#fff" d="M0 0h640v480H0z"/><path fill="#0000bf" d="M0 160h640v320H0z"/><path fill="#d50000" d="M228 87c-3 58-5 89-14 104-9 16-19 27-56 42-38-15-46-26-57-42-8-15-10-46-14-104l6-2 25-8c9-1 16-3 40-3 23 0 31 2 39 3l26 8z"/><path fill="#0000bf" d="M224 85c-4 58-7 85-12 97-9 21-23 34-54 45-31-11-45-24-55-45-4-12-7-40-11-97l26-8c9-1 16-3 40-4 23 1 31 3 39 4a267 267 0 0 1 27 8z"/><path fill="#fff" d="m209 167-25-29-10 11-16-24-16 24-11-11-25 29c2 13 8 25 17 34 10 9 22 15 35 19 13-4 24-10 35-19 4-5 15-18 16-34z"/><path fill="#ffdf00" d="m142 78 2 4 6 1-4 2 4 3-5 1-2 4-2-4-6-1 4-3-5-2 7-1 2-4zm14 25 2 4 6 1-3 2 3 3-5 1-2 3-2-3-6-1 4-3-4-2 6-1 2-4zm17-25 2 4 6 1-4 2 4 3-5 1-2 4-2-4-6-1 4-3-5-2 7-1 2-4z"/><path fill="#0000bf" d="m128 200 7-4h9l14 5 14-5h8l8 4 7 1 5-6-6 1-6-1-8-3h-8l-14 4-13-4h-10l-7 3-7 1-6-1 4 5zm74-8h-14l-8-4h-8l-14 4-14-4h-9l-7 4h-15l-2-6 10 2 7-1 7-4h9l14 5 14-5h8l8 4 6 1 11-2z"/><path fill="#d50000" d="M0 320h640v160H0z"/></svg>