<svg xmlns="http://www.w3.org/2000/svg" xmlns:xlink="http://www.w3.org/1999/xlink" viewBox="0 0 640 480"><style>.S{stroke-linejoin:round}.T{stroke:#000}.U{fill:#658d5c}.V{fill:#a48253}.W{fill:none}.X{fill:#d99f31}.Y{stroke-width:.93}.Z{stroke-width:.74}.a{fill:#f1bf31}.b{stroke-width:1.09}.c{stroke-linecap:round}.d{stroke-width:.7}.e{stroke-width:.78}.f{stroke-width:.9}.g{fill:#466343}.h{stroke-width:.6}.i{stroke-width:.8}.j{stroke-width:1.24}</style><path fill="#5eb6e4" d="M0 0h640v480H0z"/><g fill="#fff"><path d="M0 0h640v240H0z"/><g class="T Y" transform="scale(.8)"><circle cx="459.4" cy="171.2" r="4"/><circle cx="461.7" cy="157" r="5.1"/><circle cx="376.4" cy="141.7" r="3.9"/><circle cx="338.5" cy="157" r="5.1"/><circle cx="361.7" cy="143.4" r="4.2"/><circle cx="340.7" cy="171.2" r="4"/><circle cx="346.9" cy="147.1" r="4.9"/><circle cx="423.8" cy="141.7" r="3.9"/><circle cx="438.5" cy="143.4" r="4.2"/><circle cx="453.3" cy="147.1" r="4.9"/></g></g><g class="T"><g class="W b" transform="scale(.8)"><circle cx="459.4" cy="171.2" r="4.5"/><circle cx="461.7" cy="157" r="5.6"/><circle cx="376.4" cy="141.7" r="4.3"/><circle cx="338.5" cy="157" r="5.6"/><circle cx="361.7" cy="143.4" r="4.7"/><circle cx="340.7" cy="171.2" r="4.5"/><circle cx="346.9" cy="147.1" r="5.4"/><circle cx="423.8" cy="141.7" r="4.3"/><circle cx="438.5" cy="143.4" r="4.7"/><circle cx="453.3" cy="147.1" r="5.4"/></g><g class="S Z"><path d="M314 106c-11 12-30 6-38 11-15 9 1 29 4 32l17-4c-7-5-19-13-15-20s24 1 32-15c2-2 0-5 0-4z"/><path d="M314 106c-11 12-29 7-38 12-14 8 2 27 6 31l13-4c-5-5-17-14-13-20 4-7 24 0 32-15 2-3 0-4 0-4z" class="a"/></g><g class="S h"><path d="M315 107c-12 15-29 7-37 14s4 21 10 26l1-1c-5-4-19-18-10-25 7-5 25 1 36-14z"/><path d="m315 108-1 2c-8 15-29 8-32 15-4 6 7 15 13 20a33 33 0 0 1-3 1h-3c-5-4-19-17-10-25 7-5 25 1 36-14z" class="W"/></g><g class="S Z"><path d="M326 106c11 12 30 6 39 11 14 9-2 29-5 32l-16-4c6-5 18-13 14-20s-24 1-32-15c-2-2 0-5 0-4z"/><path d="M326 106c11 12 29 7 38 12 15 8-2 27-5 31l-14-4c5-5 17-14 13-20s-24 0-32-15c-2-3 0-4 0-4z" class="a"/></g><path d="M351 146c5-4 19-18 10-25-7-5-25 1-36-14 12 15 29 7 37 14s-4 21-10 26z" class="S h"/><use xlink:href="#D" class="a" transform="scale(.8)"/><g fill="#fff" class="f"><ellipse cx="320" cy="112.5" rx="2.7" ry="2"/><circle cx="320" cy="118.6" r="3"/></g><g class="Y" transform="scale(.8)"><path d="m361 204-1-2-1-3-5-8c16-14 83-25 91 1l-4 7-1 3-1 2c-26-11-58-7-78 0z" class="a"/><path d="M359 207a41 13 0 1 1 82 0 41 11 0 1 1-82 0z"/><path d="M360 207a40 12 0 1 1 80 0 40 11 0 1 1-80 0z" class="a"/><ellipse cx="400" cy="208.4" class="X" rx="36.8" ry="9.4"/></g><ellipse cx="320" cy="166.7" class="W Z" rx="29.2" ry="7.3"/><g class="S Z"><path d="M284 154a22 22 0 0 0-12-8 11 11 0 0 1 10-1c-1-5 1-9 1-9s4-1 8 2c0-5 2-8 2-8s4 0 8 5c1-5 4-9 4-9a17 17 0 0 0 8 7c1-7 7-11 7-11s6 4 7 11c3-5 8-7 8-7s3 3 4 9c4-5 8-5 8-5s2 3 2 8c4-3 8-1 8-1s2 3 1 8c1-1 4-2 6-1l4 2a24 24 0 0 0-12 8c-2-5-17-12-36-12s-31 6-36 12z"/><path d="M285 154c-2-4-7-6-11-8 2-2 7-2 9 0v-10c3 0 6 1 8 3l2-9 9 4c-1-6 3-8 3-8s6 3 8 8c2-8 7-11 7-11s6 3 7 11c3-5 8-7 8-7s3 3 4 9c4-4 8-5 8-5s2 3 2 8c4-3 8-2 8-2l1 8 4-1 4 2c-4 2-8 4-10 8-2-6-16-13-35-13s-32 6-36 13z" class="a"/></g><g class="S"><path d="M326 77c2 0 3 1 3 2 0 2-1 3-3 3h-4l1 8h-6l1-8h-4c-2 0-3-1-3-3 0-1 1-2 3-2l4 1v-5c0-2 0-3 2-3s3 1 3 3l-1 5z" class="X f"/><circle cx="320" cy="93" r="6.3" fill="#f1f1f2" stroke-width="1.4"/></g></g><g class="S"><path stroke="#f1bf31" d="M313 100v2s1 2-1 4a7 7 0 0 1-3 0m18-6v2l1 4h3" class="W c f"/><use xlink:href="#E" class="T Y a" transform="scale(.8)"/></g><path fill="#a0cfeb" d="M319 182c11 0 58-8 58 57 0 62-57 87-57 87s-56-24-56-92c0-60 55-52 55-52z"/><path fill="#94bb79" d="m338 278 11-2a23 23 0 0 1 16 7c-16 30-45 42-45 42s-28-11-45-42a23 23 0 0 1 17-7c5 0 9 1 12 3a23 23 0 0 1 34-1z"/><path d="m347 275 11 7-8 12c-4-7-13-16-13-15l1-1 9-3zm-19 42a98 98 0 0 1-8 4 98 98 0 0 1-8-4 127 127 0 0 1-31-39c4-2 11-4 15-2 7 3 13 12 10 14-2 1-8 0-8 2-1 1 11 5 17 11 5 5 14 13 13 14zm14-6-38-32a26 26 0 0 1 15-8c7-1 15 10 13 12s-9-1-9 2l13 10 12 11a109 109 0 0 1-6 5z" class="U"/><use xlink:href="#A" x="-29" y="4"/><use xlink:href="#A" x="28" y="4"/><path d="M338 278a23 23 0 0 1 11-3c6 0 12 3 17 8m-91-1a22 22 0 0 1 17-7 23 23 0 0 1 12 4 23 23 0 0 1 17-8c6 1 12 3 17 7" class="S T W c j"/><path id="A" fill="#fff" d="M317 228v5l-3 1v-5l-4 2v7l3 4v20l-3 12a23 22 0 0 1 9-3h3a23 22 0 0 1 8 2l-4-11v-21l4-3v-7l-5-2v5l-3-1v-5z" class="S T d"/><g id="B" class="S T d"><path d="M295 215c0-2-1-5-3-5 0 4 5 17-1 18 0-6-6-13-5-18 1-4 4-6 7-6 6 0 8 8 3 11z"/><path fill="#fff" d="M296 214c-1-2-2-5-5-4 0 4 5 15 0 17 0-7-6-11-5-17a7 7 0 0 1 4-4 7 7 0 0 1 4-1c5 0 7 6 2 9z"/></g><use xlink:href="#B" x="28" y="-4"/><use xlink:href="#B" x="57"/><g class="T"><g stroke-width="2" class="X"><path d="m345 171-25 11-25-11-9 1c-21 0-32 30-32 57 0 65 62 91 62 91s-50-34-47-91c1-30 11-35 13-37l16 4 22-13 22 13 16-4c2 2 12 7 12 37 4 57-46 91-46 91s62-26 62-91c0-27-11-57-32-57z" class="S"/><circle cx="320.2" cy="183.4" r="5"/></g><path stroke-width="2" d="M320 326a130 130 0 0 1-37-24 96 96 0 0 1-30-79c1-23 8-38 17-45 15-14 35-8 35 7 0 8-7 14-15 14-4 0-10-4-9-9a6 6 0 0 1 5-6 6 6 0 0 1 7 6l-3 4c5 0 9-4 9-9 0-6-4-10-9-11-19-1-31 20-33 49-3 41 20 75 53 93a102 102 0 0 0 10 5l10-5c34-18 56-52 53-93-2-29-14-49-33-49-5 1-9 5-9 11 0 5 4 9 9 9l-2-4a6 6 0 0 1 6-6 6 6 0 0 1 5 6c1 5-4 9-9 9-8 0-14-6-14-14 0-15 19-20 34-7 9 8 16 22 18 45a96 96 0 0 1-31 79 130 130 0 0 1-37 24z" class="S a"/><g class="S Z"><path d="m253 299-4 1c-4 0-8 5-15 5-8 1-13-3-19-9 8-2 15-6 23-3 4 1 10 6 14 5z" class="U"/><path d="M231 204c-5 12-6 34-5 44 6 30 31 58 53 63a66 66 0 0 1 40 23c6 6 8 8 15 20 4 5-1 6-3 3a76 76 0 0 0-15-23 65 65 0 0 0-38-20c-22-5-48-33-53-64a111 111 0 0 1 5-45l1-1" class="c"/><path d="M279 311a18 18 0 0 0-2-2c-2-2-7-2-10-4-8-6-8-12-8-21 4 6 11 6 15 14 3 4 2 11 7 13z" class="U"/></g><path d="m240 278-1 1 2 2v-3z" class="S e"/><g class="S Z"><path d="m242 286-4-1c-2-1-6-7-12-10-7-4-13-3-20-5a22 22 0 0 0 12 16c8 3 18 0 19 0l5 2z" class="U"/><path d="m253 295-4-8c-3-3-3-6-3-10-1-7 0-11 5-17l1 3c2 7 5 12 4 19l-3 11 1 3-2-1z" class="g"/></g><g class="S Y" transform="scale(.8)"><path d="M282 336c-26-2-31-18-31-36a6 6 0 0 0 2 1c14 8 25 21 29 33z" class="U"/><path d="m282 334 7 3 2 4a18 18 0 0 0-9-5z" class="V"/><circle cx="272" cy="304.8" r="4.4" class="X"/></g><circle cx="217.6" cy="243.8" r="3.8" class="S W j"/><g class="S Z"><path d="M245 218c5 12-2 22-14 28l-3-4c2-8 4-12 10-18z" class="g"/><path d="M231 205c-5 12-6 33-5 43 5 30 31 58 53 63a68 68 0 0 1 40 23l10 12 5 10c1 1-2 2-2 1l-6-11c-2-4-7-8-11-12a61 61 0 0 0-37-21c-22-4-48-32-52-63-2-9-1-32 4-44z" class="V"/><path d="M264 306c-5-4-14-3-20-9a22 22 0 0 1-5-18c5 5 11 6 15 11 6 6 1 10 11 16z" class="U"/></g><path d="M227 224v-2a6 6 0 0 0 3-3l7-14c4-7 8-9 12-12 0 5 1 11-3 18-3 4-10 8-14 10-2 1-4 1-5 3z" class="S U f"/><g class="S d"><path d="M224 239v2c-3-4-4-3-9-5a21 21 0 0 1-9-8c-4-6-4-13-2-19 2 4 9 7 12 12l3 9 2 7a13 13 0 0 0 3 2zm12 35c4-12-7-19 7-32l2-3c3 11 5 20-3 28-1 2-4 4-4 6l-1 2z" class="U"/><path d="M265 309h-3l2 1h4" class="V c"/><path d="M262 309c-1 0-8-1-12 1-8 1-12 8-17 11 9 4 15 3 22-3 3-2 5-7 8-8z" class="g"/></g></g><g transform="scale(.8)"><use xlink:href="#F" class="U"/><path d="M288 254h1a8 8 0 0 1-1 2z" class="V"/><use xlink:href="#F" class="S T W Y"/><path d="m288 256 1-2c1-2 1 0 1 0l-1 2z"/><use xlink:href="#G" class="U"/><use xlink:href="#G" class="S T W Y"/></g><circle cx="225.1" cy="202.8" r="3.5" class="X"/><circle cx="225.1" cy="202.9" r="3.7" class="S T W"/><circle cx="243.2" cy="275.5" r="3.7" class="X"/><circle cx="243.2" cy="275.5" r="3.8" stroke-width="1.1" class="S T W"/><circle cx="251.8" cy="305.8" r="3.7" class="X"/><circle cx="251.8" cy="305.8" r="3.8" stroke-width="1.1" class="S T W"/><path d="m232 266 1 2v2h-1l-1-4z" class="V"/><path d="m231 267-5-6a18 18 0 0 1-5-10c-2-9 1-16 7-21 1 6 5 11 6 17 0 10-5 11-1 20z" class="U"/><path d="M230 265v1h1l1 1v-1z" class="V"/><use xlink:href="#C" transform="matrix(.28 .81 -.79 .3 459 -176)"/><use xlink:href="#C" transform="matrix(0 .86 -.84 .04 584 -114)"/><use xlink:href="#C" transform="matrix(-.26 .82 -.82 -.22 679 -31)"/><use xlink:href="#C" transform="matrix(-.45 .73 -.74 -.41 734 63)"/><use xlink:href="#C" class="g" transform="matrix(-.13 .8 .73 .17 319 -95)"/><use xlink:href="#C" transform="matrix(0 .86 .84 .04 247 -115)"/><use xlink:href="#C" transform="matrix(-.01 .86 .84 .05 251 -143)"/><g class="T S"><path d="m231 267-5-6a18 18 0 0 1-5-10c-2-9 1-16 7-21 1 6 5 11 6 17 0 10-5 11-1 20" class="W Y c"/><path d="M412 206v-1l1-3 1 1-1 5c0 1 0 1 0 0z" class="e"/><path d="m416 230 2-3a2 2 0 0 0 0-1h2v1l-2 2a7 7 0 0 0-1 2h-1z" class="h"/><path d="m410 198 4 11c4 13 4 32 2 41-5 31-32 59-54 64a65 65 0 0 0-38 20 86 86 0 0 0-14 22c-1 3-7 4-4-1a135 135 0 0 1 14-21c8-10 20-19 40-23 23-5 49-33 54-63 2-10 1-31-4-46v-4" class="Y c"/><path d="M426 225c-1 1-5 3-7 2s-1-5 1-8c2-1 7 3 6 6z" class="V d"/><path d="M426 218c2 2 0 5 0 6-3-1-4-2-6-5 2-1 4-2 6-1z" class="X b"/><path d="m400 272-2 2h2l2 2v-1s-2-1-2-3z" class="e"/><path d="m394 267 4-1c3 2 3 6 1 7-1 1-4 1-6-3z" class="V Z"/><path d="m398 266-5 4c-1 0-2-5-1-6 2-2 5 1 6 2z" class="X b"/><path stroke-width=".5" d="m377 306 4-4c-2-2 2-3 0-5-1-1 1-3-1-3-2-1 1-3-2-3 1-3-2-6-3-2 0 2-3-1-2 1 1 3-3 2-1 4s-3 2-1 4c4 2-1 2 2 4l3 6 1-2z" class="U"/><path d="M382 303h4v-1h-3zm-14 11-3-1v-1l1-1 2 1 2 1z" class="e"/><path d="M368 313c4-2 11 2 6 5l-4 2c-3-2-3-6-2-7z" class="V d"/><path d="M375 315c2 2 3 4 2 6-1 1-5 1-7-1 0-3 3-5 5-5z" class="X b"/><path d="m413 208 1-5v-1h-1l-1 4z" class="V e"/><g class="d"><path d="M393 301c2 1-1 8-3 8-4-1-6-5-5-7s5-3 8-1z"/><path d="M393 301c1 2-2 8-3 7-4-1-5-4-4-6 0-1 4-3 7-1z" class="V"/></g><g class="U"><path stroke-width=".6" d="m391 294 4-7c-3-1 2-4-2-5-1-1 2-5 0-4-3 0-1-4-3-4 0-3-5-6-5-1 1 2-4-1-2 2s-3 3 0 5c2 2-4 3 0 5 4 1-1 3 3 5 3 2 3 4 5 6v-2zm-13 14v7c3 1 0 5 3 5 2 0 1 4 3 3s2 3 4 1c1 3 7 4 5 0-2-2 4-1 1-3s1-4-2-5c-4 0 1-4-3-4-4 1-1-3-5-3-3 0-5-2-7-3l1 2z"/><path stroke-width=".7" d="m395 292 9-2c1 2 5-2 6 2 2 1 7-1 5 1 0 3 5 1 4 4 4 0 6 6 1 5-3-1-1 4-4 1-2-2-4 3-6 0s-4 3-6-1c-1-5-4 0-6-4-1-4-4-5-6-6h3z"/></g><path d="m410 201 4 8c4 15 4 32 2 41-5 31-33 59-54 63a65 65 0 0 0-38 21 74 74 0 0 0-9 12l-5 10h-1a11 11 0 0 1-2 0 6 6 0 0 1-1 0v-1l6-10a68 68 0 0 1 48-34c23-4 50-33 54-63 2-10 2-27-4-46z" class="V Y"/></g><path id="C" d="m408 198-10-4c1-4-6-3-4-7 0-2-6-4-3-5 3-2-3-4 0-6-3-3-1-10 3-5 2 3 4-4 5 1 0 4 6 0 5 5-1 4 6 0 4 5-3 5 4 3 2 8-2 4 0 7 0 10l-2-2z" class="S T U i"/><g class="S T"><path d="m390 308 3-6c5 4 2 8-3 6z" class="X b"/><path d="M414 203c-4-1-4-9 1-8s3 7-1 8z" class="V Z"/><path d="M416 191c3 1 3 6 1 6h-5c-1-2 1-5 4-6z" class="X b"/></g><path fill="#fff" d="m321 342 16-2c-1 4-3 12 7 12 7 0 14-4 22 0 16 8 28 2 38-9 0 0-7 2-15 1 0 0 6-5 7-11a23 23 0 0 1-15 4c-5 0-8-3-15-4l1-7c1-4 0-7-5-7-11-2-21 5-41 5-19 0-32-7-43-5-5 0-6 3-5 7l1 7c-7 1-10 4-15 4s-10 0-15-4c1 6 7 11 7 11l-15-1c10 11 22 17 38 9 8-4 15 0 22 0 10 0 8-8 7-12a97 97 0 0 0 18 2z"/><g class="S T"><path d="M320 342c-8 0-14-1-21-3-17-3-21-1-21 2 0 1 1 2 2 1l-1-1c1-2 5-3 20-1l21 2zm0 0c8 0 14-1 21-3 17-3 21-1 21 2l-1 1h-1l1-1c0-2-5-3-20-1l-21 2z" class="Y"/><path d="m274 333-8 3c-7 2-15 2-21-2a16 16 0 0 0 4 8l2 2h-14c11 12 22 15 37 7 8-3 15 1 23 1s7-6 5-12h1c2 4 4 14-7 13-7-1-14-5-22-1-12 6-21 6-31-2a36 36 0 0 1-8-7l1-1c4 2 10 2 13 2-2-3-5-8-5-11h1c5 3 8 4 14 4 4 0 12-5 15-4z" class="i"/><path d="m366 333 8 3c7 2 15 2 21-2 0 3-2 6-4 8l-2 2h14c-11 12-22 15-37 7-8-3-14 1-22 1-9 0-8-6-6-12h-1c-1 4-4 14 7 13 8-1 14-5 22-1 12 6 21 6 32-2l7-7-1-1c-4 2-10 2-13 2 2-3 5-8 5-11h-1c-5 3-7 4-14 4-4 0-12-5-15-4z" class="Y"/><path d="M320 324c-10 0-18-1-24-3-6-1-12-3-18-2-4 1-6 2-5 7l2 15c1 3 2 4 5 3 4-1 17-4 20 0s0 6-4 6c4 0 6-2 4-6-3-3-15-1-20 1-3 0-5 0-5-4l-3-16c-3-11 18-6 23-4 9 1 15 3 25 3a114 114 0 0 0 24-4c6-1 27-6 24 5l-3 16c0 4-2 4-6 4-5-2-17-4-19-1-2 4 0 6 4 6-4 0-7-2-4-6s16-1 20 0c2 0 4 0 5-3l2-15c1-5-1-6-5-7-6-1-12 1-18 2a102 102 0 0 1-24 3h-1z" class="i"/></g><defs><path id="D" d="M400 167h-7v-11c0-4-3-7-3-10 0-6 4-12 4-12h12s5 6 4 12c0 3-3 6-3 10v11h-7z"/><path id="E" d="M406 134a12 12 0 0 1-6 2l-6-2s-4 3-7 0l-1-2s5 0 5-4 2-7 5-7l4 2 4-2c3 0 6 2 6 7s5 4 5 4l-2 2c-3 3-7 0-7 0z"/><path id="F" d="m288 256 2-16c2-10 5-14 13-21l7-5 1 8c-2 15-8 19-19 28-2 1-2 4-4 6z"/><path id="G" d="m282 279-1 2c0-3-1-4-4-6-10-10-14-20-10-33a25 25 0 0 1 6-10 51 51 0 0 1 4 9 45 45 0 0 1 4 25c-1 4-2 9 0 12l1 1z"/></defs></svg>