<svg xmlns="http://www.w3.org/2000/svg" viewBox="0 0 640 480"><g fill-rule="evenodd"><path fill="#ed2939" d="M0 0h640v240H320z"/><path fill="#002395" d="M0 480h640V240H320z"/><path fill="#fff" d="M0 0l320 240L0 480z"/></g><path fill="#ff0" stroke="#000" stroke-width=".9" d="M162 181v-4s-2-3 0-6c0 0-5-3-4-7 0 0-4-1-4-6 0 0-5 0-5-4 0 0-5 0-7-4 0 0-5 1-6-2 0 0-5 2-7-2 0 0-5 2-7-2-2 4-7 2-7 2-3 4-7 2-7 2-1 3-6 2-6 2-2 4-7 4-7 4 0 4-5 4-5 4a6 6 0 01-4 6c1 4-4 7-4 7 2 3 0 6 0 6v4z"/><path fill="red" d="M160 177c-13-2-27-5-38 2-8-5-18-4-27-4l-15 2h-1c-9 1-17-2-25-6 2 15 5 29 6 44 3 22-10 41-5 63 4 10 15 16 26 17a201 201 0 0130 5 30 30 0 015 1 19 19 0 016 5c6-6 14-8 22-9 15-1 33 0 43-14v-1c5-7 4-18 2-27l-2-8c-9-24-1-51 3-75a57 57 0 01-15 5h-15"/><path fill="#80cfe1" d="M178 245l2 5c1 10 3 24-8 30-12 8-27 5-41 9-3 0-7 3-9 5l-4-3c-11-6-26-4-39-7-6-2-13-7-15-14-4-17 6-32 5-49a209 209 0 00-6-38 53 53 0 0033 3 48 48 0 0126 3 48 48 0 0114-4l27 3c6-1 12-2 17-5-3 21-9 42-2 62"/><path fill="#fff" d="M160 249v-19h3l-29-19v-9h2l-14-11-15 11h3v9l-29 19h2v19h77"/><g fill="#fff"><path stroke="#000" d="M122 191l-15 10h3v10l-29 19h2v19h23v0H80v5h0v0h2v20h0v0h24v0H76v6h93v-6h0v0h-30 0v0h24l-1-20h2v-4 0h-25v-1 0h21v-19h2l-28-19v0l-1-9h3z"/><path d="M161 190c3 0 3 11 3 16 3 1 8 4 10 7h-26c2-3 7-6 9-7 0-5 1-17 4-16"/><path stroke="#000" d="M161 189c2 0 3 12 3 17 2 1 8 4 10 7h-26a26 26 0 019-7c0-5 1-17 4-17"/></g><path fill="#ff0" stroke="#000" stroke-width=".9" d="M32 235a75 75 0 00-3 17l-5-1v0c-2 17 1 55 35 68h0a66 66 0 0013 3v5c13 7 44 9 50 9 7 0 37-2 51-9v-5c46-7 49-52 47-71h0v0l-5 1c0-5-1-10-4-16l-13 4 4 21v1h0v0h0v0h4c-2 17-11 44-51 46v3a98 98 0 01-33 5 92 92 0 01-33-6l1-2h0c-29-1-42-15-48-29a70 70 0 01-1-5h0a69 69 0 01-2-4v-3a61 61 0 01-1-2v-3h4l4-22z"/><path fill="#bc715f" d="M74 165c1-3 10-10 42-7 0 0 5 4 8 3 2 0-1 0-3-2-3-2-3-6 2-5 6 0 26 1 26 3 1 1-11 2-15 2s-3 2 1 2c13 0 27-5 41 6 2 1-4 1-9-1h-18s-5 3-10 3c0 2-2 8-20 3-3 1-14 3-13 0-2 0-7 1-8-1-1-1 9-4 10-6 0 1-20 1-23-1 0 0-12 3-11 1"/><path fill="#008737" d="M80 193l2-2c1 0 3 4 5 2l2 1c0 2 2-1 3 0a16 16 0 019-1c0 2-1 4-3 5 0 2 2 3 1 5l-1 2-4-1 1 2h-3l-1 2-2-2c-1 1 1 1 1 2-1 2-1 5-3 7l-2 1v-5a20 20 0 01-4 4c-2 0-2-2-3-4a5 5 0 011-6l-2-2c-3-2-4 3-6 1a8 8 0 012-8l-3-1c-2-1-4-3-4-6a13 13 0 0114 4"/></svg>