<svg xmlns="http://www.w3.org/2000/svg" viewBox="0 0 640 480"><g fill-rule="evenodd"><path fill="#ed2939" d="M0 0h640.4v240.1H320z"/><path fill="#002395" d="M0 480.3h640.4V240H320z"/><path fill="#fff" d="M0 0l320.1 240.1L0 480.3z"/></g><path fill="#ff0" stroke="#000" stroke-width=".9" d="M161.6 181.2l.1-3.7s-2-3.2.4-6.6c0 0-5-2.6-3.8-6.8 0 0-4.5-1-4.2-6 0 0-4.7-.2-5.2-4.3 0 0-4.8.7-7-3.3 0 0-4.7 1-6-2.3 0 0-4.6 1.5-7.2-2.3 0 0-4.9 2-6.8-1.7-2 3.6-6.9 1.7-6.9 1.7-2.6 3.8-7.2 2.2-7.2 2.2-1.3 3.3-5.9 2.4-5.9 2.4-2.2 4-7 3.2-7 3.2-.4 4-5.2 4.5-5.2 4.5a5.6 5.6 0 01-4.1 6c1.2 4-3.8 6.6-3.8 6.6 2.5 3.5.5 6.6.5 6.6l-.1 3.4z"/><path fill="red" d="M159.7 176.5c-12.4-1.2-26.8-4.2-37.9 2-7.5-4.3-17.8-4-26.6-3.2-4.8 1-10.4 1-15.5 1.7l-.7.1c-9.1.7-17.4-2-25.4-5.6 2.7 14.2 5.4 28.8 6.8 43.7 3 22.1-10.4 40.6-5 62.5 3.2 10.4 14.7 16.5 25.3 17.8a201.4 201.4 0 0130.2 4.2 30 30 0 015.1 1.8 18.5 18.5 0 016.2 4.4c5.6-6 14-7.6 22.2-8.5 14.9-1.7 33.1-.8 42.2-14.2v-.8c5-7.5 4.3-18.7 2.2-27.2-.2-2.9-1-5.5-1.4-8.3-9-24-1.2-50.9 2.6-75a57.2 57.2 0 01-15.4 5.1c-4.2.6-8.9.4-13 .1l-2-.5"/><path fill="#80cfe1" d="M178.4 245.3c0 1.5.8 2.8 1.1 4.2 1.8 10.5 3.4 24.4-7.3 30.9-12 7.5-27.6 4.3-41.4 8.3-2.8.8-6.5 3.3-8.4 5.1-1.3-.8-2.5-2-4.1-2.8-11.4-6-26.2-4-39-7.3-6.4-2-13-7-14.8-13.6-4.1-17.3 5.8-32 4.7-49.2a209 209 0 00-6-37.9 53 53 0 0032.9 3.2 48.4 48.4 0 0125.8 2.4 48 48 0 0114.1-3.2c8.7 1 18.2 2.4 27.3 2.4 6.1-.4 11.6-2 16.9-4.4-3.1 20.3-9.2 41.5-1.8 62"/><path fill="#fff" d="M160.4 249.3v-19.1h2.3l-29.1-18.8-.1-9.8h2.8l-14.7-10.3-14.4 10.3h2.8v9.8l-29 18.8h2.4v19h77"/><g fill="#fff"><path stroke="#000" d="M121.6 191.2l-14.3 10.3h2.6l.2 9.8v.1l-28.9 18.7h2.2v19H106v.4H80v4.1h0v.2h1.6v20h0l.2.1v0H106v.4H75.5v5.9h93.8v-5.8h0v-.1h-30.6 0v-.2-.1h23.9l-.2-20.2h1.4v-4.1-.1 0h-25.2l-.1-.1v-.4h21.7v-19h2l-28.7-18.7v-.1l-.1-9.7h2.6z"/><path d="M160.8 189.5c2.7 0 3.3 11.2 3.3 16.9 2.5.7 7.7 4 10 6.9h-26.5c2.3-2.9 7.4-6.2 9.8-6.9 0-5.6.6-17 3.4-16.8"/><path stroke="#000" d="M160.6 189.4c2.8 0 3.5 11.3 3.5 17 2.3.6 7.6 4 9.9 6.9h-26.5a26 26 0 019.8-7c0-5.6.6-16.9 3.3-16.9"/></g><path fill="#ff0" stroke="#000" stroke-width=".9" d="M32.3 235.4a75 75 0 00-3.5 16.2l-4.7-.3v0c-2 16.5.7 54.3 35 67.6H59a66.3 66.3 0 0013.1 3.5v4.9c13.2 7.2 43.8 8.7 50.4 8.7 6.7.1 36.9-1.5 50-8.7v-4.8c46.5-7.7 49.8-52.7 47.4-71H219.6v0l-4.4.2c-.5-4.4-1.6-9.9-3.7-16l-13.5 4.2 4.2 21.6v.1h0v.1h0v.2l3.7.6c-2 16.7-10.8 43.9-51.2 45.7l.3 2.4a97.6 97.6 0 01-32.6 5.3 92 92 0 01-33-5.6l.2-2.2h0c-28.5-1.4-41.4-15.3-47.3-29.3a69.8 69.8 0 01-1.7-4.6l-.1-.3a69 69 0 01-1.2-4.3l-.5-2.2a60.7 60.7 0 01-.4-2.1l-.3-2-.1-.9 3.8-.6 4-22z"/><path fill="#bc715f" d="M73.6 164.7c1-2.5 10.6-9.4 42-6.4 0 0 5.4 3.3 8.5 2.8 1.9-.2-1 .2-3.4-1.8-2.3-1.8-2.8-5.9 2.5-5.7 5.5.1 25.6 1.2 26 3.1.4 1.8-10.7 2.6-14.7 2.5-4.1-.1-3.8 2 .4 1.8 12.8-.5 26.8-5 41.5 5.5 1.8 1.2-4.4 1.4-9.2-.6 0 0-13.1.7-18.7-.3 0 0-4.3 3.6-10 3.2.8 2-2 8.7-19.7 3.5-3 1-13.6 2.7-12.5-.5-2.8 0-7.7 1-8.4-.6-.7-1.6 8.6-4 10.3-5.7 0 0-19.9.2-23.6-1.2 0 0-11.7 2.7-11 .4"/><path fill="#008737" d="M80 192.5c.4-.6.6-1.7 1.5-1.6 1.9.4 3.3 4.1 5.6 1.8 1-.2 1.3.9 2 1 .4 2 2-.4 3.2-.2a16.4 16.4 0 018.8-1c0 2.1-1.5 4.3-3.4 5.4 0 1.9 2 3.2 1.8 5.2-.3.7 0 1.9-1.1 2.1-1.5-.2-2.8-.3-4-1.2-.3 0-.3-.4-.6-.3-.2.7 1 1.3 1.3 2-.8 1.2-1.9.1-3 .1-.2.8 0 1.6-.7 2-1.2 0-1.5-1.3-2.2-2-.9.8.5 1.3.7 2-.5 2.6-.4 5.1-3 6.8l-1.7.9c-.5-1.3-.2-3.3-.5-4.7a19.5 19.5 0 01-3.3 4.6c-1.9-.6-2.8-2.7-3.2-4.4a5.4 5.4 0 011.2-5.9c-.4-.9-2.3-.7-2.6-2.2-2.8-1.9-4.2 3.1-6 .6a8 8 0 011.9-7.2c-.5-1-1.8-.7-2.6-1.3-1.7-1.5-4.2-3-4-5.6a13.1 13.1 0 0113.8 3.1"/></svg>