<svg viewBox="0 0 640 480" xmlns="http://www.w3.org/2000/svg"><g fill-rule="evenodd"><path d="m0 0h640.38v240.13h-320.24z" fill="#ed2939"/><path d="m0 480.26h640.38v-240.13h-320.24z" fill="#002395"/><path d="m0 0 320.14 240.13-320.14 240.13z" fill="#fff"/></g><path d="m161.62 181.22.1-3.75s-1.97-3.2.38-6.57c0 0-4.97-2.63-3.75-6.75 0 0-4.5-1.13-4.22-6 0 0-4.7-.28-5.25-4.4 0 0-4.78.75-6.94-3.2 0 0-4.7.94-6-2.35 0 0-4.6 1.5-7.22-2.35 0 0-4.88 1.97-6.85-1.7-1.97 3.66-6.85 1.7-6.85 1.7-2.63 3.85-7.22 2.25-7.22 2.25-1.3 3.28-5.9 2.35-5.9 2.35-2.16 4.03-6.94 3.2-6.94 3.2-.47 4.13-5.25 4.5-5.25 4.5a5.63 5.63 0 0 1 -4.13 6c1.22 4.03-3.75 6.66-3.75 6.66 2.44 3.47.47 6.57.47 6.57l-.1 3.47z" fill="#ff0" stroke="#000" stroke-width=".94"/><path d="m159.74 176.53c-12.48-1.22-26.83-4.22-37.9 2.06-7.5-4.4-17.82-4.13-26.64-3.28-4.78.94-10.4.94-15.48 1.7l-.75.1c-9.1.66-17.35-2.06-25.33-5.63 2.63 14.26 5.35 28.8 6.75 43.7 3 22.14-10.4 40.62-5.07 62.47 3.28 10.5 14.82 16.6 25.33 17.82a201.39 201.39 0 0 1 30.2 4.22 30.02 30.02 0 0 1 5.16 1.78 18.48 18.48 0 0 1 6.19 4.41c5.63-5.9 14.07-7.6 22.23-8.44 14.82-1.78 33.1-.84 42.2-14.26v-.75c4.97-7.5 4.3-18.76 2.16-27.2-.2-2.9-.94-5.53-1.4-8.35-9-23.92-1.22-50.84 2.63-75.04a57.22 57.22 0 0 1 -15.38 5.16c-4.22.56-8.9.38-13.13.1l-1.88-.47" fill="#f00"/><path d="m178.4 245.3c0 1.5.84 2.8 1.13 4.22 1.78 10.5 3.38 24.4-7.32 30.86-12 7.5-27.58 4.3-41.37 8.35-2.8.75-6.57 3.28-8.44 5.07-1.3-.84-2.53-2.06-4.13-2.8-11.35-6-26.17-4.03-38.93-7.32-6.47-1.97-13.13-7.04-14.82-13.6-4.13-17.26 5.82-32 4.7-49.15-.75-13.13-3-25.6-6-37.9 10.04 4.7 21.57 5.44 32.83 3.2a48.4 48.4 0 0 1 25.89 2.35c4.3-1.88 9.38-2.72 14.07-3.2 8.72.94 18.2 2.44 27.3 2.44 6.1-.38 11.63-2.06 16.88-4.4-3.1 20.26-9.2 41.46-1.78 61.9" fill="#80cfe1"/><path d="m160.4 249.32v-19.14h2.25l-29.08-18.76-.1-9.85h2.8l-14.63-10.32-14.45 10.32h2.8v9.85l-28.98 18.76h2.35v19.04h77" fill="#fff"/><g fill="#fff"><path d="m121.6 191.22-14.26 10.25h2.55a.08.08 0 0 1 .08.08l.1 9.78a.08.08 0 0 1 -.04.07l-28.8 18.66h2.1a.08.08 0 0 1 .08.08v18.95h22.5a.08.08 0 0 1 .08.08v.25a.08.08 0 0 1 -.08.08l-25.86-.03v4.14h-.04a.08.08 0 0 1 .07.08v.06l1.52.03a.08.08 0 0 1 .08.08v19.96h.01a.08.08 0 0 1 .08.08v.02h3.5l20.73.02a.08.08 0 0 1 .08.08v.2a.08.08 0 0 1 -.08.08h-30.54v5.86h.05a.08.08 0 0 1 .07.04h93.74v-5.8l-.05-.05a.08.08 0 0 1 -.02-.06h-30.52a.08.08 0 0 1 -.08-.08v-.15a.08.08 0 0 1 .08-.08l23.84.02-.2-20.18a.08.08 0 0 1 .08-.08h1.33v-4.07a.08.08 0 0 1 -.04-.07v-.04l-25.16-.03a.08.08 0 0 1 -.08-.08v-.3a.08.08 0 0 1 .08-.08h21.63v-18.95a.08.08 0 0 1 .08-.08h2l-28.8-18.67a.08.08 0 0 1 -.04-.07l-.1-9.67a.08.08 0 0 1 .08-.08h2.55z" stroke="#000"/><path d="m160.77 189.48c2.72 0 3.38 11.26 3.38 16.88 2.44.75 7.6 4.03 9.94 6.94h-26.45c2.25-2.9 7.4-6.2 9.76-6.85 0-5.63.56-17.07 3.38-16.88"/><path d="m160.62 189.4c2.8 0 3.44 11.3 3.44 16.98 2.36.65 7.63 3.98 9.9 6.88h-26.46c2.26-2.9 7.52-6.23 9.78-6.88 0-5.7.65-16.98 3.33-16.98" stroke="#000"/></g><path d="m32.27 235.44c-2.05 6.2-3.04 11.7-3.48 16.18l-4.68-.3v.01c-2 16.43.67 54.3 34.9 67.56h-.01c3.93 1.53 8.28 2.74 13.1 3.55l-.05 4.84c13.22 7.22 43.8 8.72 50.46 8.72 6.66.1 36.87-1.5 50-8.72l-.1-4.77c46.6-7.67 49.85-52.73 47.47-71.02h-.1l-.13.01v-.07l-4.5.3c-.5-4.45-1.57-9.9-3.7-16.1l-13.5 4.3 4.24 21.6-.04.1.05.01-.03.06h.06l.03.2 3.65.58c-2.02 16.7-10.8 43.9-51.17 45.7l.27 2.4c-7.55 3.16-21.26 5.34-32.57 5.34a91.92 91.92 0 0 1 -33.06-5.57l.23-2.22h-.03l.01-.06c-28.54-1.33-41.43-15.3-47.3-29.28-.33-.78-.64-1.55-.92-2.33-.28-.77-.55-1.53-.8-2.3-.03-.1-.05-.18-.08-.27-.46-1.44-.85-2.87-1.2-4.27l-.48-2.2a60.7 60.7 0 0 1 -.4-2.13c-.12-.7-.23-1.38-.32-2.05l-.1-.84 3.77-.6 4.13-22.04z" fill="#ff0" stroke="#000" stroke-width=".94"/><path d="m73.63 164.7c.94-2.53 10.6-9.38 42.02-6.38 0 0 5.35 3.28 8.44 2.8 1.88-.2-.94.2-3.38-1.78-2.35-1.88-2.8-5.9 2.53-5.72 5.44.1 25.6 1.22 25.98 3.1.38 1.78-10.7 2.53-14.73 2.44-4.13-.1-3.75 1.97.38 1.88 12.85-.56 26.83-5.07 41.55 5.44 1.78 1.22-4.4 1.4-9.2-.56 0 0-13.13.66-18.76-.28 0 0-4.22 3.56-9.94 3.2.75 1.88-2.06 8.63-19.7 3.47-3 .94-13.6 2.72-12.48-.47-2.8 0-7.7.94-8.44-.66-.75-1.6 8.63-3.94 10.32-5.63 0 0-19.9.2-23.64-1.22 0 0-11.73 2.63-10.97.38" fill="#bc715f"/><path d="m80 192.48c.38-.56.56-1.7 1.5-1.6 1.88.47 3.28 4.13 5.63 1.78.94-.2 1.22.94 1.88 1.13.47 1.97 2.16-.47 3.28-.28 2.63-1.13 5.72-1.4 8.82-.94 0 2.06-1.5 4.22-3.38 5.35 0 1.88 1.88 3.2 1.78 5.16-.28.75 0 1.88-1.13 2.16-1.5-.28-2.8-.38-4.03-1.22-.2-.1-.28-.38-.56-.28-.2.66.94 1.3 1.3 1.97-.75 1.22-1.88.1-2.9.1-.28.75 0 1.6-.75 2.06-1.22 0-1.5-1.4-2.25-2.06-.84.84.56 1.3.75 1.97-.56 2.63-.47 5.16-3 6.85l-1.78.84c-.47-1.3-.2-3.28-.47-4.7-.94 1.7-1.88 3.2-3.28 4.6-1.88-.56-2.8-2.63-3.2-4.4a5.44 5.44 0 0 1 1.22-5.82c-.47-.94-2.35-.75-2.63-2.25-2.8-1.88-4.22 3.1-6 .56a8.07 8.07 0 0 1 1.88-7.13c-.47-.94-1.78-.75-2.53-1.3-1.7-1.5-4.22-3-4.03-5.63a13.13 13.13 0 0 1 13.79 3.1" fill="#008737"/></svg>