<svg xmlns="http://www.w3.org/2000/svg" xmlns:xlink="http://www.w3.org/1999/xlink" viewBox="0 0 640 480"><defs><path id="d" d="M1191 230c1 0 3-1 3-3s-2-4-3-4m-4 7c2 0 4-1 4-3s-2-4-4-4"/><path id="b" fill="#fff" stroke-width="1.4" d="M1221 216l-30 11 30 10 30-10z"/></defs><defs><clipPath id="a"><path d="M-85 0h682v512H-85z"/></clipPath><path id="c" d="M1194 230c2 0 4-1 4-3s-2-4-4-4"/></defs><g clip-path="url(#a)" transform="translate(80) scale(.94)"><g fill-rule="evenodd"><path fill="#3e5eb9" d="M-128 0h768v512h-768z"/><path fill="#ffd900" d="M-128 91h768v330h-768z"/><path fill="#b10c0c" d="M-128 128h768v256h-768z"/><rect width="621.7" height="11" x="-51" y="251" fill="#ffd900" stroke="#000" stroke-width="1.5" rx="5.8"/></g><g stroke="#000"><g fill-rule="evenodd" transform="matrix(1.03 0 0 1.03 -757 -26)"><use stroke-width="1.4" xlink:href="#b"/><rect width="442.9" height="7.1" x="762" y="223" fill="#ffd900" stroke-width="1.3" rx="4.1" ry="3.8"/></g><g fill="none" stroke-width="1.4" transform="matrix(1.03 0 0 1.03 -757 -26)"><use xlink:href="#c"/><use xlink:href="#d"/></g><g fill-rule="evenodd" transform="matrix(1.03 0 0 1.03 -786 -4)"><use stroke-width="1.4" xlink:href="#b"/><rect width="442.9" height="7.1" x="762" y="223" fill="#ffd900" stroke-width="1.3" rx="4.1" ry="3.8"/></g><g fill="none" stroke-width="1.4" transform="matrix(1.03 0 0 1.03 -786 -4)"><use xlink:href="#c"/><use xlink:href="#d"/></g></g><g fill-rule="evenodd"><path fill="#3d5da7" stroke="#000" stroke-width="1.3" d="M526 252c-5 9 5-4 29 13a23 23 0 018 16l-3-4c-2 2 1 10 2 14-4-2-4-3-5-6l1 15c-3-1-3-3-4-4 1 4-1 8-1 12l-4-3-3 9a5 5 0 01-2-3 67 67 0 00-9 13c-5-4-18-15-19-21l-8 7c-2-9-8-19-5-27a82 82 0 00-6 5 53 53 0 0129-36z"/><path fill="#a70000" d="M506 299l6-9c2-5 3-9 5-9s2 3-1 8-4 6-10 10zm15 11l1-7c0-4-2-7 0-7s3 1 3 5 0 5-4 9zm12 7l-1-10c-1-6-3-9-1-10 2 0 3 1 4 7s0 7-2 13zm12-34l-6-4c-3-2-5-5-6-4s0 3 3 5c4 2 5 3 9 3zm-2 16l-4-6c-1-4-1-7-3-6s-2 3 0 6 3 4 7 6z"/><path fill="#3d5da7" stroke="#000" stroke-width="1.5" d="M-25 261c0-3 1-3-1-5 2 1 2 4 6 2v-4l15 4c4 0 12-5 18 1 5 5 3 11 3 18l-3-4c2 7 0 18 0 25l-2-2c-2 6-5 7-5 15l-1-4c-2 5-17 9-11 13-5-3-7-2-10-5l-2 4c-9-5-6-13-13-19l-2 6-4-14-3 5c-1-7-3-8-2-13l-4 4c2-18 13-31 21-27z"/><path fill="#a70000" d="M-36 290l6-11c3-7 3-12 5-11 3 1 3 3 0 10a25 25 0 01-11 12zm9 14l3-10c1-6 1-10 3-10s2 2 1 8-2 7-7 12zm11 10l1-10c0-6-1-10 1-10s3 2 2 8-1 7-4 12zm22-32c-4-5-7-5-10-8-4-5-7-10-9-8-1 2 0 4 5 9 5 4 7 5 14 7zm-2 16l-7-8c-3-5-4-9-6-8s-1 3 2 8 5 6 11 8z"/><path fill="#fff" stroke="#000" stroke-width="1.4" d="M439 256c-37 37-85 110-183 110-85 0-146-74-183-110 37-37 98-110 183-110 98 0 146 73 183 110z"/><path d="M243 184c10 11 2 16 12 17 11 0 5 11 14 12 6 0-1 25 6 34 6 8 11 2 11 9 0 6-17 5-17 26-1 11-15 12-15 20-1 7 27 11 27 17-1 6-31 5-32 12s41 12 45 31c-6 2-24 4-38 4-85 0-146-73-183-110 37-37 98-110 183-110 0 0-25 23-13 39z"/><path fill="#fff" d="M141 217h9v29h-9zm0 49h9v29h-9zm18-49h9v29h-9zm0 49h9v29h-9zm18-49h9v29h-9zm0 49h9v29h-9zm18-49h9v29h-9zm0 49h9v29h-9zm17-49h9v29h-9zm0 49h9v29h-9zm18-49h9v29h-9zm0 49h9v29h-9z"/><path d="M276 217h8v29h-9zm0 49h8v29h-9zm17-49h9v29h-9zm0 49h9v29h-9zm18-49h9v29h-9zm0 49h9v29h-9zm18-49h9v29h-9zm0 49h9v29h-9zm17-49h9v29h-9zm0 49h9v29h-9zm18-49h9v29h-9zm0 49h9v29h-9z"/><path fill="#3d5da7" stroke="#000" stroke-width="1.2" d="M197 166c-5 10 9-3 30 13 6 6 9 13 10 21l-13-6s10 10 10 21c-3-2-5-2-6-5 0 4 3 6 3 12l-7-5c3 6-6 17-1 20-8-1-16-6-19-11-2 1-2 3-2 5 0 0-12-10-11-13a11 11 0 00-3 6 34 34 0 01-10-15l-4 6c-1-10-1-9 2-17l-6 4a53 53 0 0127-36z"/><path fill="#a70000" d="M184 214l3-14c1-8 0-13 3-13s4 3 2 11c-1 7-2 9-8 16zm15 12v-12c-1-6-3-11-1-11 3 0 4 2 4 8 0 7 0 9-4 15zm22 10l-6-9c-3-6-4-11-6-10s-2 3 1 9c3 5 5 6 11 10zm7-44l-13-5c-7-4-11-8-12-6-2 2 0 5 7 8s10 3 18 3zm2 18l-9-6c-5-4-8-8-10-7-1 2 0 4 5 8s7 4 15 5z"/></g></g></svg>