<svg viewBox="0 0 640 480" xmlns="http://www.w3.org/2000/svg" xmlns:xlink="http://www.w3.org/1999/xlink"><defs><path id="a" d="m1194.1 230.3c1.75 0 3.5-1.8 3.5-3.6s-1.75-3.5-3.5-3.5"/><clipPath id="b"><path d="m-85.3 0h682.6v512h-682.6z"/></clipPath></defs><g clip-path="url(#b)" transform="matrix(.94 0 0 .94 80 0)"><g fill-rule="evenodd"><path d="m-128 0h768v512h-768z" fill="#3e5eb9"/><path d="m-128 91.4h768v329.2h-768z" fill="#ffd900"/><path d="m-128 128h768v256h-768z" fill="#b10c0c"/><rect fill="#ffd900" height="11" rx="5.8" stroke="#000" stroke-width="1.5" width="621.7" x="-51.4" y="250.5"/></g><g stroke="#000"><g transform="matrix(1.03 0 0 1.03 -757 -25.6)"><g fill-rule="evenodd"><path d="m1220.66 216.14-30.12 10.62 30.12 10.62 30.12-10.62z" fill="#fff" stroke-width="1.35"/><rect fill="#ffd900" height="7.1" rx="4.1" ry="3.8" stroke-width="1.3" width="442.9" x="761.8" y="223.2"/></g><g fill="none" stroke-width="1.35"><use xlink:href="#a"/><path d="m1190.6 230.3c1.75 0 3.5-1.8 3.5-3.6s-1.75-3.5-3.5-3.5m-3.6 7.2c1.75 0 3.5-1.8 3.5-3.6s-1.75-3.5-3.5-3.5"/></g></g><g transform="matrix(1.03 0 0 1.03 -786.3 -3.7)"><g fill-rule="evenodd"><path d="m1220.66 216.14-30.12 10.62 30.12 10.62 30.12-10.62z" fill="#fff" stroke-width="1.35"/><rect fill="#ffd900" height="7.1" rx="4.1" ry="3.8" stroke-width="1.3" width="442.9" x="761.8" y="223.2"/></g><g fill="none" stroke-width="1.35"><use xlink:href="#a"/><path d="m1190.6 230.3c1.75 0 3.5-1.8 3.5-3.6s-1.75-3.5-3.5-3.5m-3.6 7.2c1.75 0 3.5-1.8 3.5-3.6s-1.75-3.5-3.5-3.5"/></g></g></g><g fill-rule="evenodd"><path d="m526.37 251.69c-5.47 9.56 4.27-3.16 28.23 12.88 4.37 2.93 8.25 10.79 8.25 16.27-1.09-.77-1.99-2.31-3.18-3.47-1.79 1.77 1.7 9.72 2.19 13.49-3.78-2.08-3.38-3.08-4.67-5.71.3 3.08-.6 11.72.9 14.96-2.98-.77-2.78-3.16-4.27-3.7.99 3.78-.99 7.79-.4 12.03-1.79-1.7-3.58-3.08-4.37-3.78-.1 2.01-3.28 7.25-3.38 9.18-1.49-.93-1.89-2.31-2.09-3.24-1.79 2.31-8.25 10.79-8.65 13.26-4.97-4.39-17.69-15.04-19.38-20.74-1.49 3.24-3.58 4.32-7.75 6.71-1.7-9.02-7.95-19.12-4.57-26.83-2.29 1.43-4.48 2.95-6.56 4.55 2.9-14.68 13.71-27.71 29.72-35.85z" fill="#3d5da7" stroke="#000" stroke-width="1.25"/><path d="m505.9 299.2c2.3-4.6 4.4-6 5.9-9 2.6-5.2 3-9.4 5.3-8.8s2.3 2.8-.7 7.9c-3 5-4.4 6.2-10.5 9.9zm15.5 11c-.3-3.6.8-5 .6-7.3-.3-4-2-6.7.1-6.9s3.1 1.2 3.1 5.2-.6 5-3.8 9zm11.8 6.8c-.9-5-.2-7-.8-10.2-1-5.6-3-9.2-1-9.7 1.9-.5 3 1.3 3.8 6.9.7 5.6.3 7.2-2 13zm12.3-34.3c-2.9-2.1-4.6-2.3-6.4-3.7-3.3-2.5-5-5.1-6-3.8s-.3 2.7 3.1 5c3.5 2.3 4.6 2.5 9.3 2.5zm-2 16.3c-1.5-3.2-3.1-4-4.1-6-1.8-3.6-1.8-6.7-3.6-5.9-2 .8-2 2.4 0 5.9 2 3.4 3 4 7.7 6z" fill="#a70000"/><path d="m-24.65 260.94c-.34-2.84.34-3.15-1.48-5.25 2.5 1.05 2.62 3.89 5.69 1.9 1.14-.63 1.59-.63.23-3.68 3.18 0 13.64 3.68 15.24 3.78 4.43.2 12.39-4.62 17.85 1.26 5.34 5.36 3.53 10.92 3.53 18.38-2.05-1.05-1.14-1.47-3.41-4.2 1.82 6.5 0 18.27 0 25.2-.9-1.68-.8-1.05-1.59-2.73-2.27 6.3-5 7.67-5 15.02-.8-2.84 0-2.3-.9-3.78-2.27 4.72-17.06 8.82-11.37 13.65-5-2.94-7.28-2.63-9.66-5.36-1.02.63-1.82 1.9-2.73 3.57-9.1-4.2-5.69-13.13-12.85-19.1-1.14 2.52-.68 2.1-2.05 6.2-1.36-5.67-1.82-9.35-3.41-13.44-1.36 2.3-1.14 1.37-3.75 4.93-1.14-6.93-2.73-8.6-2.05-13.13-2.73 1.9-.9 1.05-3.64 3.47 2.5-17.85 13.53-30.87 21.38-26.67z" fill="#3d5da7" stroke="#000" stroke-width="1.53"/><path d="m-35.7 289.8c2.3-5.7 4.4-7.5 6-11.2 2.6-6.4 3-11.6 5.2-10.8 2.3.8 2.2 3.4-.8 9.8a25 25 0 0 1 -10.4 12.2zm8.8 14.3c1-5.1 2.4-7 3-10.3 1-5.8.5-10.1 2.6-9.9 2 .3 2.5 2.4 1.1 8.2s-2.3 7.1-6.7 12zm10.5 9.9c.3-5 1.5-6.9 1.6-10 .3-5.7-.7-9.7 1.2-9.7 2 0 2.7 2 2.1 7.6s-1.3 7-4.9 12zm22.7-32.4c-4.4-4.3-7-5.1-9.8-8-4.9-4.8-7.3-9.4-9-7.7-1.8 1.6-.7 4 4.5 8.7 5.2 4.6 7 5.2 14.3 7zm-2.7 16.6c-2.8-4.2-4.8-5.4-6.6-8.2-3.2-4.9-4.3-9.1-6-8-2 1-1.5 3.2 2 8 3.4 4.7 4.8 5.5 10.7 8.2z" fill="#a70000"/><path d="m438.81 255.96c-36.53 36.52-85.31 109.69-182.87 109.69-85.31 0-146.27-73.1-182.8-109.69 36.53-36.52 97.5-109.63 182.8-109.63 97.56 0 146.27 73.04 182.87 109.63z" fill="#fff" stroke="#000" stroke-width="1.37"/><path d="m243.2 184.4c9.8 11 1.6 15.4 12 16.1 10.8.8 4.6 11.6 13.8 12 6.4.2-.7 25.7 5.5 34.2 6.3 8.7 11.5 2.5 11.6 8.9.1 6.5-17 5.9-17.3 26-.5 11.7-14.5 12.5-15.2 20-.8 7 27.5 11 27.2 17.3-.4 6.3-30.7 5.3-32 12.4-.6 6.5 41.6 11.8 45 30.4-6.3 2-24.3 4-37.8 4-85.3 0-146.3-73.1-182.9-109.7 36.6-36.6 97.6-109.7 182.9-109.7 0 0-25.3 23.1-12.8 38.2z"/><path d="m141.4 217h8.9v29.2h-8.9zm0 48.8h8.9v29.2h-8.9zm17.7-48.8h8.9v29.2h-8.9zm0 48.8h8.9v29.2h-8.9zm17.9-48.8h8.8v29.2h-8.8zm0 48.8h8.8v29.2h-8.8zm17.7-48.8h8.9v29.2h-8.9zm0 48.8h8.9v29.2h-8.9zm17.7-48.8h8.9v29.2h-8.9zm0 48.8h8.9v29.2h-8.9zm17.8-48.8h8.8v29.2h-8.8zm0 48.8h8.8v29.2h-8.8z" fill="#fff"/><path d="m275.5 217h8.9v29.2h-8.9zm0 48.8h8.9v29.2h-8.9zm17.7-48.8h8.9v29.2h-8.9zm0 48.8h8.9v29.2h-8.9zm17.8-48.8h8.8v29.2h-8.8zm0 48.8h8.8v29.2h-8.8zm17.7-48.8h8.9v29.2h-9zm0 48.8h8.9v29.2h-9zm17.7-48.8h8.9v29.2h-8.9zm0 48.8h8.9v29.2h-8.9zm17.8-48.8h8.8v29.2h-8.8zm0 48.8h8.8v29.2h-8.8z"/><path d="m196.64 165.79c-5 9.76 8.91-3.23 30.72 13.14 5.48 5.93 8.91 13.08 9.91 20.62-4.64-.94-12.91-5.51-12.91-5.51s9.64 9.6 9.64 20.78c-3.36-2.13-5.1-1.8-6.18-4.41 0 3.54 3 5.9 3 11.5-2.05-1.67-4.27-3.17-6.64-4.49 3.18 5.59-5.91 16.45-1.36 20.07-7.91-1.18-16.09-6.3-19.27-11.81-1.73 1.1-1.82 2.91-2 4.88.27.16-12.1-9.21-10.91-12.83-1.73 2.36-1.91 3.62-2.27 6.3-4.81-4.1-8.35-9.19-10.27-14.8l-4.18 5.27c-1.45-9.21-1.45-8.89 1.55-16.76-2.09 1.46-4.1 3.01-6 4.64 2.64-14.99 12.53-28.29 27.18-36.6z" fill="#3d5da7" stroke="#000" stroke-width="1.19"/><path d="m184.4 213.6c.8-6.7 2.5-9.3 3-13.6 1-7.7-.1-13.2 2.6-13.1s3.5 3 2.2 10.6c-1.4 7.6-2.5 9.5-7.8 16.1zm14.1 12.4c-.5-5.7.5-8.1.2-11.8-.6-6.4-2.6-10.8-.3-11.2 2.4-.4 3.6 1.7 3.8 8.3.3 6.5-.3 8.2-3.7 14.7zm22.1 10c-2.4-4.8-4.5-6.3-6-9.5-2.8-5.6-3.3-10.1-5.4-9.3-2.2.8-2 3.2 1 8.7 3 5.4 4.5 6.5 10.4 10.2zm7.6-44c-6-3.3-9.2-3.3-13.2-5.4-6.9-3.6-11-7.7-12.4-5.5-1.4 2.3.5 4.5 7.7 7.8 7.1 3.3 9.3 3.5 18 3zm2.3 18.4c-4.5-3.7-7.1-4.3-10-6.7-5-4.1-7.6-8.2-9.3-6.6-1.6 1.7-.5 3.9 4.8 7.8 5.3 4 7.1 4.5 14.5 5.5z" fill="#a70000"/></g></g></svg>