<svg xmlns="http://www.w3.org/2000/svg" xmlns:xlink="http://www.w3.org/1999/xlink" viewBox="0 0 640 480"><defs><path id="reuse-1" d="M1190.6 230.3c1.8 0 3.5-1.8 3.5-3.6s-1.8-3.5-3.5-3.5m-3.6 7.2c1.8 0 3.5-1.8 3.5-3.6s-1.8-3.5-3.5-3.5"/><path id="reuse-0" fill="#fff" stroke-width="1.4" d="M1220.7 216.1l-30.2 10.7 30.2 10.6 30-10.6z"/></defs><defs><clipPath id="a"><path d="M-85.3 0h682.6v512H-85.3z"/></clipPath><path id="b" d="M1194.1 230.3c1.8 0 3.5-1.8 3.5-3.6s-1.8-3.5-3.5-3.5"/></defs><g clip-path="url(#a)" transform="translate(80) scale(.94)"><g fill-rule="evenodd"><path fill="#3e5eb9" d="M-128 0h768v512h-768z"/><path fill="#ffd900" d="M-128 91.4h768v329.2h-768z"/><path fill="#b10c0c" d="M-128 128h768v256h-768z"/><rect width="621.7" height="11" x="-51.4" y="250.5" fill="#ffd900" stroke="#000" stroke-width="1.5" rx="5.8"/></g><g stroke="#000"><g fill-rule="evenodd" transform="matrix(1.03 0 0 1.03 -757 -25.6)"><use stroke-width="1.4" xlink:href="#reuse-0"/><rect width="442.9" height="7.1" x="761.8" y="223.2" fill="#ffd900" stroke-width="1.3" rx="4.1" ry="3.8"/></g><g fill="none" stroke-width="1.4" transform="matrix(1.03 0 0 1.03 -757 -25.6)"><use xlink:href="#b"/><use xlink:href="#reuse-1"/></g><g><g fill-rule="evenodd" transform="matrix(1.03 0 0 1.03 -786.3 -3.7)"><use stroke-width="1.4" xlink:href="#reuse-0"/><rect width="442.9" height="7.1" x="761.8" y="223.2" fill="#ffd900" stroke-width="1.3" rx="4.1" ry="3.8"/></g><g fill="none" stroke-width="1.4" transform="matrix(1.03 0 0 1.03 -786.3 -3.7)"><use xlink:href="#b"/><use xlink:href="#reuse-1"/></g></g></g><g fill-rule="evenodd"><path fill="#3d5da7" stroke="#000" stroke-width="1.3" d="M526.4 251.7c-5.5 9.6 4.2-3.2 28.2 12.9a23 23 0 018.3 16.2c-1.1-.7-2-2.3-3.2-3.4-1.8 1.7 1.7 9.7 2.2 13.5-3.8-2.1-3.4-3.1-4.7-5.8.3 3.1-.6 11.8.9 15-3-.8-2.8-3.2-4.3-3.7 1 3.8-1 7.8-.4 12-1.8-1.7-3.6-3-4.3-3.7-.1 2-3.3 7.2-3.4 9.1a4.7 4.7 0 01-2.1-3.2 67 67 0 00-8.7 13.3c-5-4.4-17.7-15-19.3-20.8-1.5 3.3-3.6 4.3-7.8 6.7-1.7-9-8-19-4.6-26.8a82 82 0 00-6.5 4.5 53.2 53.2 0 0129.7-35.8z"/><path fill="#a70000" d="M505.9 299.2c2.3-4.6 4.4-6 5.9-9 2.6-5.2 3-9.4 5.3-8.8s2.3 2.8-.7 7.9c-3 5-4.4 6.2-10.5 9.9zm15.5 11c-.3-3.6.8-5 .6-7.3-.3-4-2-6.7.1-6.9s3.1 1.2 3.1 5.2-.6 5-3.8 9zm11.8 6.8c-.9-5-.2-7-.8-10.2-1-5.6-3-9.2-1-9.7 1.9-.5 3 1.3 3.8 6.9.7 5.6.3 7.2-2 13zm12.3-34.3c-2.9-2.1-4.6-2.3-6.4-3.7-3.3-2.5-5-5.1-6-3.8s-.3 2.7 3.1 5c3.5 2.3 4.6 2.5 9.3 2.5zm-2 16.3c-1.5-3.2-3.1-4-4.1-6-1.8-3.6-1.8-6.7-3.6-5.9-2 .8-2 2.4 0 5.9 2 3.4 3 4 7.7 6z"/><path fill="#3d5da7" stroke="#000" stroke-width="1.5" d="M-24.6 261c-.4-2.9.3-3.2-1.5-5.3 2.5 1 2.6 3.9 5.7 1.9 1.1-.6 1.6-.6.2-3.7 3.2 0 13.6 3.7 15.2 3.8 4.5.2 12.4-4.6 17.9 1.2 5.3 5.4 3.5 11 3.5 18.4-2-1-1.1-1.4-3.4-4.2 1.8 6.5 0 18.3 0 25.2-.9-1.7-.8-1-1.6-2.7-2.3 6.3-5 7.7-5 15-.8-2.8 0-2.3-.9-3.8-2.3 4.8-17 8.9-11.4 13.7-5-3-7.2-2.6-9.6-5.4-1 .7-1.8 2-2.7 3.6-9.1-4.2-5.7-13.1-12.9-19.1-1.1 2.5-.7 2.1-2 6.2-1.4-5.7-1.9-9.4-3.5-13.4-1.3 2.3-1.1 1.3-3.7 4.9-1.1-7-2.7-8.6-2-13.1-2.8 1.9-1 1-3.7 3.4 2.5-17.8 13.5-30.8 21.4-26.6z"/><path fill="#a70000" d="M-35.7 289.8c2.3-5.7 4.4-7.5 6-11.2 2.6-6.4 3-11.6 5.2-10.8 2.3.8 2.2 3.4-.8 9.8a25 25 0 01-10.4 12.2zm8.8 14.3c1-5.1 2.4-7 3-10.3 1-5.8.5-10.1 2.6-9.9 2 .3 2.5 2.4 1.1 8.2s-2.3 7.1-6.7 12zm10.5 9.9c.3-5 1.5-6.9 1.6-10 .3-5.7-.7-9.7 1.2-9.7 2 0 2.7 2 2.1 7.6s-1.3 7-4.9 12zm22.7-32.4c-4.4-4.3-7-5.1-9.8-8-4.9-4.8-7.3-9.4-9-7.7-1.8 1.6-.7 4 4.5 8.7 5.2 4.6 7 5.2 14.3 7zm-2.7 16.6C.8 294-1.2 292.8-3 290c-3.2-4.9-4.3-9.1-6-8-2 1-1.5 3.2 2 8 3.4 4.7 4.8 5.5 10.7 8.2z"/><path fill="#fff" stroke="#000" stroke-width="1.4" d="M438.8 256c-36.5 36.5-85.3 109.7-182.9 109.7-85.3 0-146.2-73.2-182.8-109.7 36.6-36.6 97.5-109.7 182.8-109.7 97.6 0 146.3 73 183 109.7z"/><path d="M243.2 184.4c9.8 11 1.6 15.4 12 16.1 10.8.8 4.6 11.6 13.8 12 6.4.2-.7 25.7 5.5 34.2 6.3 8.7 11.5 2.5 11.6 8.9.1 6.5-17 5.9-17.3 26-.5 11.7-14.5 12.5-15.2 20-.8 7 27.5 11 27.2 17.3-.4 6.3-30.7 5.3-32 12.4-.6 6.5 41.6 11.8 45 30.4-6.3 2-24.3 4-37.8 4-85.3 0-146.3-73.1-182.9-109.7 36.6-36.6 97.6-109.7 182.9-109.7 0 0-25.3 23.1-12.8 38.2z"/><path fill="#fff" d="M141.4 217h8.9v29.2h-8.9zm0 48.8h8.9V295h-8.9zm17.7-48.8h8.9v29.2h-8.9zm0 48.8h8.9V295h-8.9zM177 217h8.8v29.2H177zm0 48.8h8.8V295H177zm17.7-48.8h8.9v29.2h-8.9zm0 48.8h8.9V295h-8.9zm17.7-48.8h8.9v29.2h-8.9zm0 48.8h8.9V295h-8.9zm17.8-48.8h8.8v29.2h-8.8zm0 48.8h8.8V295h-8.8z"/><path d="M275.5 217h8.9v29.2h-8.9zm0 48.8h8.9V295h-8.9zm17.7-48.8h8.9v29.2h-8.9zm0 48.8h8.9V295h-8.9zM311 217h8.8v29.2H311zm0 48.8h8.8V295H311zm17.7-48.8h8.9v29.2h-9zm0 48.8h8.9V295h-9zm17.7-48.8h8.9v29.2h-8.9zm0 48.8h8.9V295h-8.9zm17.8-48.8h8.8v29.2h-8.8zm0 48.8h8.8V295h-8.8z"/><path fill="#3d5da7" stroke="#000" stroke-width="1.2" d="M196.6 165.8c-5 9.7 9-3.2 30.8 13.1 5.4 6 8.9 13.1 9.9 20.7-4.7-1-13-5.6-13-5.6s9.7 9.6 9.7 20.8c-3.4-2.1-5.1-1.8-6.2-4.4 0 3.6 3 6 3 11.5-2-1.7-4.3-3.2-6.6-4.5 3.2 5.6-6 16.5-1.4 20-7.9-1-16-6.2-19.3-11.7-1.7 1-1.8 2.9-2 4.9.3.1-12-9.2-10.9-12.9a11 11 0 00-2.2 6.3 34 34 0 01-10.3-14.8l-4.2 5.3c-1.4-9.2-1.4-8.9 1.6-16.8-2.1 1.5-4.1 3-6 4.7a53.4 53.4 0 0127.1-36.6z"/><path fill="#a70000" d="M184.4 213.6c.8-6.7 2.5-9.3 3-13.6 1-7.7-.1-13.2 2.6-13.1s3.5 3 2.2 10.6c-1.4 7.6-2.5 9.5-7.8 16.1zm14.1 12.4c-.5-5.7.5-8.1.2-11.8-.6-6.4-2.6-10.8-.3-11.2 2.4-.4 3.6 1.7 3.8 8.3.3 6.5-.3 8.2-3.7 14.7zm22.1 10c-2.4-4.8-4.5-6.3-6-9.5-2.8-5.6-3.3-10.1-5.4-9.3-2.2.8-2 3.2 1 8.7 3 5.4 4.5 6.5 10.4 10.2zm7.6-44c-6-3.3-9.2-3.3-13.2-5.4-6.9-3.6-11-7.7-12.4-5.5-1.4 2.3.5 4.5 7.7 7.8 7.1 3.3 9.3 3.5 18 3zm2.3 18.4c-4.5-3.7-7.1-4.3-10-6.7-5-4.1-7.6-8.2-9.3-6.6-1.6 1.7-.5 3.9 4.8 7.8 5.3 4 7.1 4.5 14.5 5.5z"/></g></g></svg>