<svg xmlns="http://www.w3.org/2000/svg" viewBox="0 0 640 480"><g fill="#006"><path d="M640 480V0H0v480z"/><path fill-rule="evenodd" d="M0 0h373.7v232.2H0z"/></g><g fill="#fff"><path d="M0 0v26l331.9 206.2h41.8v-26L41.7 0zm373.7 0v26l-332 206.2H0v-26L331.9 0z"/><path d="M155.7 0v232.2H218V0zM0 77.4v77.4h373.7V77.4z"/></g><path fill="#c00" d="M0 92.9v46.4h373.7V92.9zM168.2 0v232.2h37.3V0h-37.4zM0 232.2l124.6-77.4h27.8L27.8 232.2zM0 0l124.6 77.4H96.7L0 17.3zm221.3 77.4L345.8 0h27.9L249 77.4h-27.8zm152.4 154.8L249 154.8h28l96.7 60z"/><path fill="#fff" d="M612.5 212.4v80c0 65.6-25.7 125.6-102.2 162.1C434 418 408.1 358 408.1 292.3v-79.8h204.5z"/><path fill="#fdc300" d="M605.7 220.6V295c0 61.2-24 117.2-95.3 151.3-71.3-34-95.4-90-95.4-151.3v-74.5h190.7z"/><g stroke="#000" stroke-width=".39"><path fill="#ff9e3d" d="M466.15 253.4a7.82 7.82 0 00-5.08-1.95c.4-5.08-3.13-7.04-5.86-7.82-2.74-1.17-3.9-2.35-3.9-4.3a5 5 0 00-4.3-3.9c-2.35-.78-4.7-3.13-5.47-4.3s-1.17-1.17-1.95.78-3.52 5.86-.78 5.86c-1.95 1.56-3.13 3.13-1.95 5.47-1.17 1.17-1.95 2.74-.4 3.13l2.35 1.56c-1.56 0-1.95 3.13 1.56 3.9-.78 0-1.17 2.35.4 2.35-1.95 0-3.9 3.13-6.25 3.13-2.74 0-3.9.78-3.9 1.95l-2.35 3.13c1.95 0 3.13 0 3.9-.78s2.74-1.17 3.9 0c1.17.78 3.9 1.17 4.7.78-2.35 1.95-3.9 3.9-4.3 6.26 0 2.35-1.95 4.7-3.9 5.47-1.17.78-3.9 2.35-4.3 4.7 1.95 5.47 5.08 6.65 8.2 8.2 5.47 2.35 9 4.3 11.34 7.04 2.35 2.35 3.13.4 6.65 5.08 3.52 3.9 6.65 12.5 10.16 13.68 3.52 1.56 7.82.78 10.16-3.9 2.74-3.9 3.9-48.48-8.6-55.9z"/><path fill="#ff927f" d="M472.02 234.64c-3.52 3.9-7.82 7.04-6.65 13.3 1.17 6.26 1.17 16.42-4.7 19.55-5.47 3.9-8.2 12.5-1.56 17.6 7.04 5.08 7.43 11.34 8.2 16.8 1.17 5.86 4.3 10.56 9 6.65 4.7.78 7.04-1.17 7.04-5.08s0-5.47 3.9-6.65c3.13-1.17 3.9-2.35 5.86-5.47 1.56-3.13 2.35-4.7 1.56-6.26a14.46 14.46 0 01-.78-8.6c.78-2.74-.78-3.9-1.56-5.86a7.43 7.43 0 01-.78-5.47c0-2.35-.78-3.9-2.35-5.08-1.56-1.17-2.35-2.35-1.95-3.9 0-1.95-1.17-3.13-3.13-4.7-1.95-1.56-2.74-3.13-2.74-5.86 0-2.74-5.47-9-9.38-10.95z"/><path fill="#ff9ee1" d="M473.2 309.7c7.82-1.95 7.04-14.46 5.86-19.55-1.17-5.47-3.9-12.9-1.95-19.16 3.13-8.2-3.9-16.42-1.95-19.55 1.95-3.52 1.56-5.08 1.17-6.26 0-.78-1.95-1.56-1.95.4 0 2.35-.78 3.13-1.95 4.3s-1.17 4.7 0 7.82c.78 3.52 3.13 8.6 0 15.25-3.9 6.65-2.35 9.38-1.17 12.5 2.35 5.08 7.04 21.9 1.95 24.24z"/></g><path fill="#ef072d" d="M526.74 337.46c0-24.63-3.9-33.23-16.42-33.23-12.9 0-16.42 8.6-16.42 33.23z"/><path d="M493.9 337.46c0-24.63 3.9-33.23 16.42-33.23-5.86 0-9.38 4.7-10.55 7.82s-.4 2.74.78 1.56c1.17-1.17.78 1.56 0 2.74-1.17 1.56-2.35 5.47-.78 3.9 1.56-.78 2.74.4.78 2.74-1.95 2.35-2.74 7.82-1.17 5.86 1.56-1.95 1.95 1.17.78 2.74-.78 1.56-.78 2.74 0 2.35 1.17-.78.78 2.35 0 3.9h-6.25zm30-.2c0-19.55-2.23-26.37-6.93-28.33-2.74-1.17-2.74-.78-1.56 1.17 1.17 1.95 1.17 3.9 0 2.35s-1.56-1.95-2.35-1.17l3.13 7.82c1.17 2.35 0 3.9-1.56 1.17s-1.56-.4 0 1.95c1.95 2.74 1.78 12.3 1.78 15.82z"/><path fill="#b95a1e" fill-rule="evenodd" d="M550.06 226.58c-.16.64.42 2 1.15 3.6-2.2.84-6 6.26-6.58 10.47-2.6.43-5.14 1.65-7.3 3.63-8.63-5.26-14.88-9.18-16.07-8.26 0 1.1 7.27 6.3 13.83 10.78a18.94 18.94 0 00-2.53 4.98c-9.33-2.34-19.57-1.7-19.57-.7 1.2 1.03 10.93 1.15 18.83 3.56a26.53 26.53 0 00-.5 5.57l.06 2.15c-9.52-1.3-19.22.42-19.22 1.37 1.25 1.06 11.3.56 19.3 1.92l.24 6.2c-9.9.45-17.4 6.03-17.4 7.05 1.2 1.03 9.9-3.74 17.54-4.25l1.7 36.68c0 2.32-1 16.34-4.4 24.36a45.7 45.7 0 006.6-22.04c.16-6.2-.7-24.48-1.05-38.97a.45.45 0 00.11.01c3.68.38 6.93 1.4 9.5 2.45.26 1.77 1.34 4.07 1.34 4.07-.84.9.25 3.8.8 5.12.07 1.8 1.4 4.62 1.4 4.62s.02.2.2.5l-.2.14c-.9.94.33 4.03.85 5.24-.36 1.64 1.36 5.27 1.36 5.27.04 1.8.86 4.6.86 4.6s.27.78 1.75 1.44l-7.98 8.02c-1.42 1.64-2.94 5.07-1.16 6.32 1.4.98 2.9.6 4.66-1.6-.56 2.1-.56 4.94 1.22 5.4 1.12.3 2.1-.05 2.9-1.18.3 1.37.93 2.5 2.1 2.54 2.13.1 3.35-1.82 3.37-6.74.02 4.92 1.24 6.83 3.37 6.74 1.16-.05 1.8-1.17 2.1-2.54.8 1.13 1.78 1.48 2.9 1.18 1.78-.47 1.78-3.32 1.22-5.4 1.76 2.2 3.27 2.57 4.66 1.6 1.78-1.25.26-4.68-1.16-6.32a283.4 283.4 0 00-7.98-8.02c1.48-.66 1.75-1.44 1.75-1.44s.82-2.8.86-4.6c0 0 1.72-3.63 1.36-5.27.52-1.2 1.74-4.3.85-5.24-.05-.05-.13-.1-.2-.14.18-.3.2-.5.2-.5s1.33-2.82 1.4-4.62c.55-1.3 1.64-4.22.8-5.12 0 0 1.1-2.34 1.33-4.1a34 34 0 019.4-2.4l.2-.01-1.05 38.97a45.67 45.67 0 006.6 22.04c-3.4-8.02-4.4-22.04-4.4-24.36 0-4.7 1.04-22.33 1.7-36.67 7.63.54 16.23 5.27 17.43 4.24 0-1.02-7.46-6.57-17.3-7.05l.24-6.17c8-1.38 18.14-.87 19.4-1.94 0-.96-9.77-2.68-19.32-1.35l.06-2.17c.02-2-.17-3.85-.5-5.57 7.9-2.4 17.62-2.53 18.83-3.56 0-.98-10.24-1.63-19.57.7-.64-1.9-1.5-3.55-2.53-4.98 6.56-4.5 13.83-9.7 13.83-10.78-1.2-.92-7.44 3-16.07 8.26a14.24 14.24 0 00-7.3-3.63c-.57-4.2-4.38-9.63-6.58-10.47.73-1.6 1.3-2.97 1.15-3.6a27.38 23.27 0 00-6.61 15.1c0 1.74.07 3.26.17 4.56a13.15 13.15 0 00-1.23 5.22l-.01.34-.01.2-.01-.2.01-.34c-.1-1.95-.52-3.7-1.25-5.22.1-1.3.17-2.82.17-4.56a27.38 23.27 0 00-6.61-15.1zm36.3 109.1l.01.02-.01-.02zm-57.24 0l-.01.02.01-.02zm22.3-105c1.3 2.9 3.04 6.76 3.04 11.02 0 .53-.02 1.1-.06 1.67a10.89 10.89 0 00-7.55-2.9c.52-3.87 3.32-7.58 4.57-9.8zm12.66 0c1.25 2.22 4.05 5.93 4.57 9.8a10.75 10.75 0 00-7.55 2.9c-.04-.57-.06-1.14-.06-1.67 0-4.26 1.74-8.13 3.04-11.02zm-16.7 13.3a7.52 7.93 0 016.45 4.76l-.3 1.9c-2-1.55-4.9-4.1-6.15-6.67zm20.74 0c-1.26 2.57-4.16 5.12-6.15 6.67a55.85 55.85 0 01-.3-1.91 7.52 7.93 0 016.45-4.76zm-23.05.13c1.26 3.37 4.6 7.13 6.45 9.06-.3.2-.6.38-.88.58a85.17 85.17 0 00-10.34-7.6c1.4-1.1 3.02-1.77 4.77-2.03zm25.36 0c1.75.26 3.36.93 4.77 2.03-4.5 2.84-8 5.58-10.34 7.6-.28-.2-.57-.4-.88-.58 1.86-1.93 5.2-5.7 6.45-9.06zm-32.56 4.64c3.7 2.62 7.35 5.5 10 7.65-.62.8-.9 1.26-1 1.42l-.08.05a204.72 204.72 0 00-9.18-4.46 49.3 49.3 0 00-1.7-.63c.52-1.54 1.2-2.88 1.97-4.03zm39.76 0a16.8 16.8 0 011.97 4.03c-.57.2-1.14.4-1.7.63-3.7 1.7-6.76 3.2-9.18 4.46l-.08-.05c-.1-.16-.38-.62-1-1.42 2.64-2.14 6.3-5.03 10-7.65zm-19.9 3.35h.02l.05 4.64h-.06v47.7h.02v4.6l.46-.02-.48.12-.48-.12a6.78 6.78 0 00.46.02v-4.6h.02v-47.7h-.06zm-22.62 3.75c3.88 1.66 7.75 3.65 10.66 5.25-.15 1.36-.15 2.6-.15 2.6l.06.06-.06.03a5.1 5.1 0 00-.83 2.36 218.8 218.8 0 00-7.2-2.42c-1-.32-2-.57-3.04-.8l.06-2.72c.07-1.57.24-3.02.5-4.37zm45.26 0c.26 1.35.43 2.8.5 4.37l.06 2.75c-1 .22-1.98.46-2.94.77a224.09 224.09 0 00-7.29 2.45c-.16-1-.42-1.95-.84-2.4l-.06-.03.07-.06s-.01-1.25-.16-2.6c2.9-1.6 6.78-3.6 10.66-5.25zm-45.83 10.46c3.6.85 7.13 2 10 3.07l-.01.22c-.66.7-.52 2.58-.3 4.03a43.97 43.97 0 00-8.6-1.7c-.33-.04-.66-.04-1-.06l-.07-5.57zm46.4.03l-.07 5.53c-.36.02-.72.03-1.1.07-3.34.33-6.16.95-8.5 1.66.2-1.45.34-3.3-.3-4l-.01-.18a85.28 85.28 0 0110-3.08z"/><path fill="#00a728" d="M527.92 335.1c1.17 1.56 0 3.9 1.95 4.7 2.74.78.4 3.9 3.52 5.47 2.74 1.17 0 3.9 2.74 5.86 2.74 1.17 0 3.9 3.13 5.86 3.9 1.95-.78 5.86 1.95 7.43 2.74 1.56-.78 5.47 2.35 7.04 2.74 1.56-1.56 4.3 1.56 6.65 2.74 1.95-.78 5.47 1.95 7.43 2.74 1.95-1.56 4.7 1.17 7.43 2.35 1.95-.78 3.9.78 7.82 1.17 1.95-1.17 10.56-7.04 9.77-2.35 3.9-10.55 7.04-13.68 5.86-3.13 2.35-12.9 5.08-17.98.4-5.08 4.7-14.85 1.95-17.98 0-3.13.78-11.73-2.74-13.68-6.26-6.25.78-8.2-7.82-7.04-10.16 1.56-3.13-1.56-5.47.78-7.82 2.74-2.35-1.95-5.08 1.17-7.04 3.13-1.95-.78-5.47 1.95-7.82 3.13-1.95-1.56-5.08 1.56-6.26 3.13-1.56-.4-5.47 2.35-7.04 2.35-1.56-1.56-5.47 1.95-7.43 3.52-1.56 0-4.7 3.13-5.86 2.74-1.56 0-4.7 2.74-5.86 3.13-1.17.78-4.7 3.52-5.47 2.35-1.17.78-3.13 1.95-5.08 6.65 2.74 26.58 4.7 35.18 0z"/></svg>