<svg xmlns="http://www.w3.org/2000/svg" viewBox="0 0 640 480"><g fill="#006"><path d="M640 480V0H0v480z"/><path fill-rule="evenodd" d="M0 0h374v232H0z"/></g><g fill="#fff"><path d="M0 0v26l332 206h42v-26L42 0zm374 0v26L42 232H0v-26L332 0z"/><path d="M156 0v232h62V0zM0 77v78h374V77z"/></g><path fill="#c00" d="M0 93v46h374V93zM168 0v232h37V0h-37zM0 232l125-77h27L28 232zM0 0l125 77H97L0 17zm221 77L346 0h28L249 77h-28zm153 155l-125-77h28l97 60z"/><path fill="#fff" d="M613 212v80c0 66-26 126-103 162-76-36-102-96-102-162v-79h205z"/><path fill="#fdc300" d="M606 221v74c0 61-24 117-96 151-71-34-95-90-95-151v-74h191z"/><g stroke="#000" stroke-width=".4"><path fill="#ff9e3d" d="M466 253a8 8 0 00-5-2c1-5-3-7-6-7-2-2-4-3-4-5a5 5 0 00-4-4c-2 0-5-3-5-4s-2-1-2 1-4 6-1 6c-2 1-3 3-2 5-1 1-2 3 0 3l2 2c-2 0-2 3 1 4 0 0-1 2 1 2l-6 3c-3 0-4 1-4 2l-3 3h4c1 0 3-2 4 0h5c-3 2-4 4-4 7 0 2-2 4-4 5l-5 5c2 5 5 7 9 8 5 2 9 4 11 7l7 5c3 4 6 13 10 14 3 1 7 1 10-4 3-4 4-49-9-56z"/><path fill="#ff927f" d="M472 235c-3 4-8 7-7 13s1 16-4 20c-6 3-9 12-2 17s7 11 8 17 5 11 9 7c5 0 7-2 7-5s0-6 4-7c3-1 4-2 6-6l2-6a15 15 0 01-1-8c1-3-1-4-2-6a7 7 0 010-6c0-2-1-4-3-5l-2-4c0-2-1-3-3-4a7 7 0 01-3-6c0-3-5-9-9-11z"/><path fill="#ff9ee1" d="M473 310c8-2 7-15 6-20s-4-13-2-19c3-8-4-16-2-20 2-3 2-5 1-6 0-1-2-1-2 1s0 3-2 4-1 5 0 8 4 8 0 15-2 9-1 12c3 5 7 22 2 25z"/></g><path fill="#ef072d" d="M527 338c0-25-4-34-17-34s-16 9-16 33z"/><path d="M494 338c0-25 4-34 16-34-6 0-9 5-10 8s-1 3 0 2c2-2 1 1 0 2-1 2-2 6 0 4 1 0 2 1 0 3l-1 6c2-2 2 1 1 3v6h-6zm30-1c0-19-2-26-7-28-3-1-3-1-2 1 2 2 2 4 0 3s-1-2-2-2l3 8c1 3 0 4-1 1s-2 0 0 2c2 3 1 13 1 16z"/><path fill="#b95a1e" fill-rule="evenodd" d="M550 227l1 3c-2 1-6 6-6 11-3 0-5 1-8 3-8-5-15-9-16-8a68 68 0 0014 11 19 19 0 00-2 5c-10-3-20-2-20-1 1 1 11 1 19 4a27 27 0 00-1 5v2c-9-1-19 1-19 2 1 1 11 0 19 2l1 6c-10 0-18 6-18 7 1 1 10-4 18-4l1 36a85 85 0 01-4 25 46 46 0 007-22l-1-39 9 2 2 4v5l2 5v1c-1 1 0 4 1 5-1 2 1 5 1 5l1 5 2 1-8 8c-2 2-3 5-2 7 2 1 3 0 5-2l1 5c1 1 2 0 3-1l2 3c2 0 4-2 4-7 0 5 1 7 3 7l2-3c1 1 2 2 3 1 2 0 2-3 1-5 2 2 4 2 5 1 2-1 0-4-1-6a283 283 0 00-8-8l2-1 1-5 1-5 1-5-1-1h1l1-5c1-1 2-4 1-5l1-4a34 34 0 0110-2l-1 39a46 46 0 006 22 85 85 0 01-4-25l2-36c7 0 16 5 17 4 0-1-7-7-17-7v-6c8-2 18-1 19-2 0-1-9-3-19-2v-2-5c8-3 17-3 18-4 0-1-10-2-19 1l-3-5a70 70 0 0014-11c-1-1-7 3-16 8a14 14 0 00-7-3c-1-5-5-10-7-11l1-3a27 23 0 00-6 15v4a13 13 0 00-1 5v1-1l-2-5 1-4a27 23 0 00-7-15zm36 109zm-57 0zm22-105c2 3 3 6 3 11v1a11 11 0 00-7-3c0-3 3-7 4-9zm13 0l5 10a11 11 0 00-8 2v-1c0-4 2-8 3-11zm-17 13a8 8 0 017 5l-1 2-6-7zm21 0a23 23 0 01-6 7 56 56 0 010-2 8 8 0 016-5zm-23 0c1 3 5 7 7 9l-1 1a85 85 0 00-11-8 10 10 0 015-2zm25 0l5 2-10 8-1-1 6-9zm-32 5l10 7-1 2a205 205 0 00-9-5 49 49 0 00-2 0 17 17 0 012-4zm40 0a17 17 0 012 4h-2l-9 5-1-2 10-7zm-20 3v57h-1a7 7 0 001 0v-52zm-23 4l11 5v3a5 5 0 00-1 2 219 219 0 00-7-2l-3-1v-3-4zm45 0l1 4v3l-3 1a224 224 0 00-7 2l-1-2v-3a121 121 0 0110-5zm-46 10l11 3v1l-1 4a44 44 0 00-8-2h-1v-6zm47 0v6h-1l-9 2v-5a85 85 0 0110-3z"/><path fill="#00a728" d="M528 335c1 2 0 4 2 5 3 1 0 4 3 5s0 4 3 6c3 1 0 4 3 6 4 2 0 6 2 7 3 2-1 6 3 7 2 2-2 5 1 7s-1 6 2 7c3 2-1 5 1 8 3 2 0 4 1 8 1 2-1 10-7 10-2 3-11 7-14 5-3 3-13 5-18 1-5 4-15 2-18 0-3 1-11-3-13-6-7 0-9-8-7-11 1-3-2-5 0-7 3-3-2-6 2-7 3-2-1-6 2-8s-2-5 1-7c3-1 0-5 2-6 3-2-1-6 2-8 4-2 0-5 3-6s0-5 3-6 1-4 4-5c2-1 0-3 2-5 6 3 26 4 35 0z"/></svg>