<svg xmlns="http://www.w3.org/2000/svg" viewBox="0 0 640 480"><g fill="#006"><path d="M640 480V0H0v480z"/><path fill-rule="evenodd" d="M0 0h373.7v232.2H0z"/></g><g fill="#fff"><path d="M0 0v26l331.9 206.2h41.8v-26L41.7 0zm373.7 0v26l-332 206.2H0v-26L331.9 0z"/><path d="M155.7 0v232.2H218V0zM0 77.4v77.4h373.7V77.4z"/></g><path fill="#c00" d="M0 92.9v46.4h373.7V92.9zM168.2 0v232.2h37.3V0h-37.4zM0 232.2l124.6-77.4h27.8L27.8 232.2zM0 0l124.6 77.4H96.7L0 17.3zm221.3 77.4L345.8 0h27.9L249 77.4h-27.8zm152.4 154.8L249 154.8h28l96.7 60z"/><path fill="#fff" d="M612.5 212.4v80c0 65.6-25.7 125.6-102.2 162.1C434 418 408.1 358 408.1 292.3v-79.8h204.5z"/><path fill="#fdc300" d="M605.7 220.6V295c0 61.2-24 117.2-95.3 151.3-71.3-34-95.4-90-95.4-151.3v-74.5h190.7z"/><g stroke="#000" stroke-width=".4"><path fill="#ff9e3d" d="M466.1 253.4a7.8 7.8 0 00-5-2c.4-5-3.2-7-5.9-7.8-2.7-1.1-3.9-2.3-3.9-4.3a5 5 0 00-4.3-3.9c-2.3-.7-4.7-3.1-5.5-4.3s-1.1-1.1-2 .8-3.4 5.9-.7 5.9c-2 1.5-3.1 3.1-2 5.4-1.1 1.2-1.9 2.8-.3 3.2l2.3 1.5c-1.5 0-2 3.2 1.6 4-.8 0-1.2 2.3.4 2.3-2 0-4 3.1-6.3 3.1-2.7 0-3.9.8-3.9 2l-2.3 3c2 0 3.1 0 3.9-.7s2.7-1.2 3.9 0c1.1.8 3.9 1.2 4.7.8-2.4 2-4 3.9-4.3 6.3 0 2.3-2 4.6-4 5.4-1.1.8-3.8 2.4-4.2 4.7 2 5.5 5 6.7 8.2 8.2 5.4 2.4 9 4.3 11.3 7 2.4 2.4 3.1.5 6.7 5.1 3.5 4 6.6 12.5 10.1 13.7 3.5 1.6 7.8.8 10.2-3.9 2.7-3.9 3.9-48.5-8.6-55.9z"/><path fill="#ff927f" d="M472 234.6c-3.5 4-7.8 7-6.6 13.3 1.1 6.3 1.1 16.5-4.7 19.6-5.5 3.9-8.2 12.5-1.6 17.6 7 5 7.4 11.3 8.2 16.8 1.2 5.9 4.3 10.6 9 6.6 4.7.8 7-1.1 7-5s0-5.5 4-6.7c3-1.2 3.8-2.3 5.8-5.5 1.6-3 2.4-4.7 1.6-6.2a14.5 14.5 0 01-.8-8.6c.8-2.8-.8-4-1.6-5.9a7.4 7.4 0 01-.7-5.5c0-2.3-.8-3.9-2.4-5-1.6-1.2-2.3-2.4-2-4 0-1.9-1.1-3-3-4.6a6.6 6.6 0 01-2.8-5.9c0-2.7-5.5-9-9.4-11z"/><path fill="#ff9ee1" d="M473.2 309.7c7.8-2 7-14.5 5.9-19.6-1.2-5.4-4-12.9-2-19.1 3.1-8.2-3.9-16.4-2-19.6 2-3.5 1.6-5 1.2-6.2 0-.8-2-1.6-2 .4 0 2.3-.7 3.1-1.9 4.3s-1.1 4.7 0 7.8c.8 3.5 3.2 8.6 0 15.3-3.9 6.6-2.3 9.3-1.1 12.4 2.3 5.1 7 22 2 24.3z"/></g><path fill="#ef072d" d="M526.7 337.5c0-24.7-3.9-33.3-16.4-33.3-12.9 0-16.4 8.6-16.4 33.3z"/><path d="M493.9 337.5c0-24.7 3.9-33.3 16.4-33.3-5.8 0-9.4 4.7-10.5 7.8s-.4 2.8.7 1.6c1.2-1.2.8 1.6 0 2.7-1.1 1.6-2.3 5.5-.7 4 1.5-.8 2.7.3.7 2.7-1.9 2.3-2.7 7.8-1.1 5.8 1.5-1.9 2 1.2.8 2.8-.8 1.5-.8 2.7 0 2.3 1.1-.7.7 2.4 0 4h-6.3zm30-.2c0-19.6-2.2-26.4-7-28.4-2.7-1.1-2.7-.7-1.5 1.2 1.2 2 1.2 3.9 0 2.4s-1.5-2-2.3-1.2l3 7.8c1.3 2.4 0 3.9-1.5 1.2s-1.5-.4 0 2c2 2.7 1.8 12.2 1.8 15.7z"/><path fill="#b95a1e" fill-rule="evenodd" d="M550 226.6c-.1.6.5 2 1.2 3.6-2.2.8-6 6.2-6.6 10.5-2.6.4-5.1 1.6-7.3 3.6-8.6-5.3-14.9-9.2-16-8.3a68 68 0 0013.8 10.8 19 19 0 00-2.5 5c-9.4-2.4-19.6-1.7-19.6-.7 1.2 1 11 1.1 18.8 3.5a26.5 26.5 0 00-.5 5.6v2.2c-9.4-1.3-19.1.4-19.1 1.3 1.2 1 11.3.6 19.3 2l.2 6.2c-9.9.4-17.4 6-17.4 7 1.2 1 9.9-3.7 17.5-4.2l1.7 36.6a85 85 0 01-4.4 24.4 45.7 45.7 0 006.6-22c.2-6.2-.7-24.5-1-39a.5.5 0 00.1 0c3.7.4 7 1.4 9.5 2.4.3 1.8 1.3 4.1 1.3 4.1-.8 1 .3 3.8.8 5.1.1 1.8 1.4 4.7 1.4 4.7l.2.5h-.2c-.9 1 .4 4.1.9 5.3-.4 1.7 1.3 5.3 1.3 5.3 0 1.8 1 4.6 1 4.6s.2.8 1.7 1.4l-8 8c-1.4 1.7-3 5.1-1.2 6.4 1.4 1 3 .6 4.7-1.6-.6 2-.6 5 1.2 5.4 1.1.3 2.1 0 2.9-1.2.3 1.4 1 2.5 2.1 2.5 2.1.1 3.4-1.8 3.4-6.7 0 5 1.2 6.8 3.3 6.7 1.2 0 1.8-1.1 2.1-2.5.8 1.1 1.8 1.5 3 1.2 1.7-.5 1.7-3.3 1.2-5.4 1.7 2.2 3.2 2.6 4.6 1.6 1.8-1.3.3-4.7-1.1-6.3a283.4 283.4 0 00-8-8c1.5-.7 1.7-1.5 1.7-1.5s.8-2.8.9-4.6c0 0 1.7-3.6 1.4-5.3.5-1.2 1.7-4.3.8-5.2l-.2-.1.2-.5s1.3-2.9 1.4-4.7c.6-1.3 1.6-4.2.8-5 0 0 1.1-2.4 1.3-4.2a34 34 0 019.4-2.4h.2l-1 39a45.7 45.7 0 006.6 22 85 85 0 01-4.4-24.3c0-4.7 1-22.4 1.7-36.7 7.6.5 16.2 5.3 17.4 4.2 0-1-7.4-6.5-17.3-7l.3-6.2c8-1.4 18-.9 19.4-2 0-.9-9.8-2.6-19.4-1.3v-2.2c.1-2 0-3.8-.4-5.5 7.9-2.4 17.6-2.6 18.8-3.6 0-1-10.2-1.6-19.5.7-.7-1.9-1.5-3.5-2.6-5a69.6 69.6 0 0013.9-10.7c-1.2-1-7.5 3-16.1 8.2a14.2 14.2 0 00-7.3-3.6c-.6-4.2-4.4-9.6-6.6-10.5.7-1.6 1.3-3 1.2-3.6a27.4 23.3 0 00-6.7 15.1l.2 4.6a13.2 13.2 0 00-1.2 5.2v.5-.5c-.1-2-.6-3.7-1.3-5.2l.2-4.6a27.4 23.3 0 00-6.6-15zm36.4 109v.1zm-57.3 0v.1zm22.3-105c1.3 3 3 6.8 3 11.1v1.7a10.9 10.9 0 00-7.6-3c.6-3.8 3.4-7.5 4.6-9.7zm12.7 0c1.2 2.3 4 6 4.5 9.9a10.8 10.8 0 00-7.5 2.9v-1.7c0-4.2 1.7-8.1 3-11zM547.4 244a7.5 8 0 016.4 4.7l-.3 2c-2-1.6-4.9-4.2-6.1-6.7zm20.7 0a22.6 22.6 0 01-6.1 6.7 55.9 55.9 0 01-.3-2 7.5 8 0 016.4-4.7zm-23 .1c1.2 3.4 4.6 7.1 6.4 9l-.9.7a85.2 85.2 0 00-10.3-7.6 10 10 0 014.8-2zm25.3 0c1.8.3 3.4 1 4.8 2-4.5 2.9-8 5.6-10.3 7.6l-1-.5c2-2 5.3-5.7 6.5-9.1zm-32.5 4.7c3.7 2.6 7.3 5.4 10 7.6-.7.8-1 1.3-1 1.4h-.1a204.7 204.7 0 00-9.2-4.4 49.3 49.3 0 00-1.7-.6 17 17 0 012-4zm39.7 0a16.8 16.8 0 012 4l-1.7.6c-3.7 1.7-6.8 3.2-9.2 4.5l-1-1.5c2.6-2.1 6.2-5 10-7.7zm-19.9 3.3l.1 4.6V309h.4l-.5.1h-.4a6.8 6.8 0 00.4 0V256.6zm-22.6 3.8c3.9 1.6 7.8 3.6 10.7 5.2l-.2 2.6a5.1 5.1 0 00-.8 2.5 218.8 218.8 0 00-7.2-2.5l-3-.8v-2.7c0-1.6.2-3 .5-4.4zm45.3 0l.5 4.3v2.8l-3 .7a224 224 0 00-7.2 2.5c-.2-1-.4-2-.8-2.4h-.1v-.1-2.6a121 121 0 0110.6-5.3zm-45.9 10.4c3.6.9 7.2 2 10 3v.3c-.6.7-.5 2.6-.3 4a44 44 0 00-8.6-1.7h-1v-5.6zm46.4 0v5.6h-1.1c-3.4.4-6.2 1-8.5 1.7.2-1.5.3-3.3-.3-4v-.2a85.3 85.3 0 0110-3z"/><path fill="#00a728" d="M528 335.1c1 1.6 0 3.9 1.9 4.7 2.7.8.4 3.9 3.5 5.5 2.7 1.1 0 3.9 2.7 5.8 2.8 1.2 0 4 3.2 5.9 3.9 2-.8 5.9 2 7.4 2.7 1.6-.9 5.5 2.3 7 2.7 1.6-1.6 4.4 1.5 6.7 2.8 2-.8 5.5 2 7.4 2.7 2-1.6 4.7 1.1 7.5 2.4 2-.7 3.9.8 7.8 1.2 2-1.2 10.6-7 9.8-2.4 3.9-10.6 7-13.7 5.8-3.1 2.4-12.9 5.1-18 .4-5 4.7-14.8 2-18 0-3 .8-11.7-2.7-13.6-6.2-6.3.7-8.2-7.9-7-10.2 1.5-3.1-1.6-5.5.7-7.8 2.7-2.4-2-5.1 1.2-7 3.1-2-.8-5.5 2-7.9 3-2-1.6-5 1.5-6.2 3.1-1.6-.4-5.5 2.3-7 2.4-1.6-1.5-5.5 2-7.5 3.5-1.6 0-4.7 3.1-5.9 2.7-1.5 0-4.7 2.7-5.8 3.2-1.2.8-4.7 3.6-5.5 2.3-1.2.7-3.1 2-5 6.6 2.7 26.5 4.6 35.1 0z"/></svg>