<svg viewBox="0 0 640 480" xmlns="http://www.w3.org/2000/svg"><g fill-rule="evenodd"><path d="m0 0h640v480h-640z" fill="#28ae66" stroke-width=".88"/><path d="m206.98 128.98c26.17 12.57 57.31 0 68.57-17.45 11.63-16.32 13.04-43.62-6.94-68.66 30.95 25.7 37.9 54.87 22.42 78.89-20.64 27.48-66.22 26.64-84.05 7.22zm46.43-63.88 5.25.09-4.13 3.28 1.6 5.25-4.41-3.1-4.22 3.1 1.41-5.16-4.22-3.28 5.25-.09 1.78-5.16zm-25.98 32.64h5.25l-4.13 3.38 1.6 5.16-4.41-3.1-4.32 3.19 1.5-5.25-4.22-3.19 5.25-.19 1.69-5.16zm1.69-25.7h5.35l-4.22 3.38 1.6 5.16-4.32-3.1-4.32 3.19 1.5-5.25-4.22-3.28 5.25-.09 1.69-5.16zm0-25.8h5.35l-4.32 3.47 1.6 5.16-4.32-3-4.32 3.1 1.5-5.16-4.22-3.28 5.25-.09 1.69-5.16zm-28.8 32.64h5.25l-4.22 3.38 1.6 5.16-4.32-3.1-4.32 3.19 1.5-5.25-4.22-3.19 5.25-.19 1.69-5.16z" fill="#fff" stroke="#fff" stroke-linecap="round" stroke-linejoin="round" stroke-width="5"/><path d="m8.02 0h154.4v480h-154.4z" fill="#ca3745" stroke-width=".94"/></g></svg>