<svg xmlns="http://www.w3.org/2000/svg" viewBox="0 0 640 480"><g fill-rule="evenodd"><path fill="#28ae66" stroke-width=".9" d="M0 0h640v480H0z"/><path fill="#fff" stroke="#fff" stroke-linecap="round" stroke-linejoin="round" stroke-width="5" d="M207 129a56.8 56.8 0 0068.5-17.5c11.7-16.3 13-43.6-6.9-68.6 31 25.7 38 54.8 22.4 78.9-20.6 27.4-66.2 26.6-84 7.2zM253.4 65h5.3l-4.2 3.4 1.6 5.2-4.4-3-4.2 3 1.4-5.1-4.2-3.3 5.2-.1 1.8-5.2zm-26 32.6h5.3l-4.1 3.4 1.6 5.2-4.5-3.1-4.3 3.2 1.5-5.3-4.2-3.2 5.3-.2 1.6-5.1zm1.7-25.7h5.4l-4.3 3.4 1.7 5.2-4.4-3.1-4.3 3.2 1.5-5.3-4.2-3.3h5.2l1.7-5.2zm0-25.8h5.4l-4.4 3.5 1.7 5.2-4.4-3-4.3 3 1.5-5-4.2-3.4h5.2l1.7-5.2zM200.3 79h5.3l-4.3 3.4 1.6 5.1-4.3-3-4.3 3.1 1.5-5.2-4.2-3.2 5.2-.2 1.7-5.2z"/><path fill="#ca3745" stroke-width=".9" d="M8 0h154.4v480H8z"/></g></svg>