<svg viewBox="0 0 640 480" xmlns="http://www.w3.org/2000/svg"><path d="m0 0h640v480h-640z" fill="#009fca" stroke-width="11.8"/><path d="m593.3 122.7h27.7l-22.3 15.2 8.5 24.7-22.3-15.3-22.2 15.3 8.5-24.7-22.3-15.2h27.5l8.5-24.7zm-69.2 196.8h27.6l-22.3 15.2 8.5 24.7-22.3-15.3-22.3 15.3 8.6-24.7-22.3-15.2h27.4l8.5-24.7zm69.2-44.6h27.7l-22.3 15.2 8.5 24.7-22.3-15.3-22.2 15.3 8.5-24.7-22.3-15.2h27.5l8.5-24.7zm-297.5 142.8h27.6l-22.4 15.1 8.6 24.6-22.3-15.2-22.3 15.2 8.6-24.6-22.4-15.3h27.6l8.5-24.6zm62.6-76.5h-27.6l22.3-15.3-8.5-24.6 22.3 15.2 22.3-15.2-8.6 24.6 22.3 15.3h-27.5l-8.5 24.6zm81.3-112.5h-27.7l22.3-15.2-8.5-24.7 22.3 15.3 22.3-15.3-8.6 24.7 22.3 15.2h-27.5l-8.5 24.7zm68.3-23.3h-27.6l22.4-15.3-8.6-24.6 22.3 15.2 22.3-15.2-8.6 24.6 22.4 15.3h-27.6l-8.5 24.6zm-68.3 194.6h-27.7l22.3-15.2-8.3-24.8 22.3 15.2 22.3-15.2-8.6 24.7 22.3 15.2h-27.5l-8.5 24.7zm-81.3 19.9h-27.6l22.3-15.2-8.5-24.7 22.3 15.2 22.3-15.2-8.6 24.6 22.4 15.4h-27.5l-8.5 24.7z" fill="#fff40d" fill-rule="evenodd" stroke-width="1pt"/><g stroke-width=".5"><path d="m0 0h320v240h-320z" fill="#012169"/><path d="m37.5 0 122 90.5 121.5-90.5h39v31l-120 89.5 120 89v30.5h-40l-120-89.5-119.5 89.5h-40.5v-30l119.5-89-119.5-89v-32z" fill="#fff"/><path d="m212 140.5 108 79.5v20l-135.5-99.5zm-92 10 3 17.5-96 72h-27zm200-150.5v1.5l-124.5 94 1-22 98.5-73.5zm-320 0 119.5 88h-30l-89.5-67z" fill="#c8102e"/><path d="m120.5 0v240h80v-240zm-120.5 80v80h320v-80z" fill="#fff"/><path d="m0 96.5v48h320v-48zm136.5-96.5v240h48v-240z" fill="#c8102e"/></g></svg>