<svg xmlns="http://www.w3.org/2000/svg" viewBox="0 0 640 480"><g stroke-width="1pt"><path fill="#fe0000" d="M0 0h640v480H0Z"/><path fill="#000095" d="M0 0h363v241H0z"/><path fill="#fff" d="m265 168-44-9 9 44-34-30-14 43-14-43-34 31 9-45-44 9 30-33-43-15 43-14-30-34 44 10-9-45 33 30 15-43 14 43 34-30-10 44 45-9-30 34 43 14-43 14z"/><path fill="#000095" d="m224 165-14 7-14 8-16-1-15 1-14-9-14-7-7-15-8-13v-32l8-13 8-14 14-8 14-8 16 1h16l13 8 14 8 8 14 8 13-1 16v16l-8 14z"/><path fill="#fff" d="M230 121a49 49 0 1 1-98 0 49 49 0 0 1 98 0z"/></g></svg>