<svg xmlns="http://www.w3.org/2000/svg" viewBox="0 0 640 480"><path fill="#fff" d="M0 0h640v480H0z"/><path fill="#bd3d44" d="M0 442h640v38H0Zm0-74h640v38H0Zm0-73h640v38H0Zm0-74h640v38H0Zm0-74h640v38H0Zm0-73h640v38H0ZM0 0h640v38H0Z"/><path fill="#192f5d" d="M0 0h365v259H0Z"/><path fill="#fff" d="m30 12 4 10h10l-8 7 3 10-9-6-8 6 3-10-9-7h11zm61 0 3 10h11l-8 7 3 10-9-6-9 6 4-10-9-7h11zm61 0 3 10h11l-9 7 4 10-9-6-9 6 4-10-9-7h11zm61 0 3 10h11l-9 7 4 10-9-6-9 6 4-10-9-7h10zm61 0 3 10h11l-9 7 3 10-8-6-9 6 3-10-8-7h10zm60 0 4 10h11l-9 7 3 10-9-6-8 6 3-10-9-7h11zM61 38l3 10h11l-9 6 3 11-8-7-9 7 3-11-8-6h11zm61 0 3 10h11l-9 6 3 11-8-7-9 7 3-11-8-6h10zm60 0 4 10h11l-9 6 3 11-9-7-8 7 3-11-9-6h11zm61 0 4 10h10l-9 6 4 11-9-7-8 7 3-11-9-6h11zm61 0 3 10h11l-9 6 4 11-9-7-9 7 4-11-9-6h11zM30 64l4 10h10l-8 6 3 10-9-6-8 7 3-11-9-6h11zm61 0 4 10h10l-8 6 3 10-9-6-8 7 3-11-9-6h11zm61 0 3 10h11l-9 6 4 10-9-6-9 6 4-10-9-6h11zm61 0 3 10h11l-9 6 3 10-8-6-9 6 4-10-9-6h10zm61 0 3 10h11l-9 6 3 10-8-6-9 6 3-10-8-6h10zm60 0 4 10h10l-8 6 3 10-9-6-8 6 3-10-9-6h11zM61 90l3 10h11l-9 6 4 10-9-6-9 6 3-10-8-6h11zm61 0 3 10h11l-9 6 3 10-8-6-9 6 3-10-8-6h10zm60 0 4 10h11l-9 6 3 10-9-6-8 6 3-10-9-6h11zm61 0 4 10h10l-8 6 3 10-9-6-8 6 3-10-9-6h11zm61 0 3 10h11l-9 6 4 10-9-6-9 6 4-10-9-6h11zM30 116l4 10h10l-8 6 3 10-9-6-8 6 3-10-9-6h11zm61 0 3 10h11l-8 6 3 10-9-6-9 6 4-10-9-6h11zm61 0 3 10h11l-9 6 4 10-9-6-9 6 4-10-9-6h11zm61 0 3 10h11l-9 6 3 10-8-6-9 6 4-10-9-6h10zm61 0 3 10h11l-9 6 3 10-8-6-9 6 3-10-8-6h10zm60 0 4 10h10l-8 6 3 10-9-6-8 6 3-10-9-6h11zM61 141l3 11h11l-9 6 4 10-9-6-9 6 3-10-8-6h11zm61 0 3 11h11l-9 6 3 10-8-6-9 6 3-10-8-6h10zm60 0 4 11h11l-9 6 3 10-9-6-8 6 3-10-9-6h11zm61 0 4 11h10l-8 6 3 10-9-6-8 6 3-10-9-6h11zm61 0 3 11h11l-9 6 4 10-9-6-9 6 4-10-9-6h11zM30 167l4 10h10l-8 7 3 10-9-6-8 6 3-10-9-7h11zm61 0 3 10h11l-8 7 3 10-9-6-9 6 4-10-9-7h11zm61 0 3 10h11l-9 7 4 10-9-6-9 6 4-10-9-7h11zm61 0 3 10h11l-9 7 3 10-8-6-9 6 4-10-9-7h10zm61 0 3 10h11l-9 7 3 10-8-6-9 6 3-10-8-7h10zm60 0 4 10h10l-8 7 3 10-9-6-8 6 3-10-9-7h11zM61 193l3 10h11l-9 6 4 11-9-7-9 7 3-10-8-7h11zm61 0 3 10h11l-9 6 3 11-8-7-9 7 3-10-8-7h10zm60 0 4 10h11l-9 6 3 11-9-7-8 7 3-10-9-7h11zm61 0 4 10h10l-8 6 3 11-9-7-8 7 3-10-9-7h11zm61 0 3 10h11l-9 6 4 11-9-7-9 7 4-10-9-7h11zM30 219l4 10h10l-8 6 3 11-9-7-8 7 3-11-9-6h11zm61 0 3 10h11l-8 6 3 11-9-7-9 7 4-11-9-6h11zm61 0 3 10h11l-8 6 3 11-9-7-8 7 3-11-9-6h11zm61 0 3 10h11l-9 6 3 11-8-7-9 7 4-11-9-6h10zm61 0 3 10h11l-9 6 3 11-8-7-9 7 3-11-8-6h10zm60 0 4 10h10l-8 6 3 11-9-7-8 7 3-11-9-6h11z"/></svg>