<svg xmlns="http://www.w3.org/2000/svg" xmlns:xlink="http://www.w3.org/1999/xlink" viewBox="0 0 640 480"><defs><linearGradient id="a" gradientUnits="userSpaceOnUse"><stop offset="0" stop-color="red"/><stop offset="1" stop-color="#ff0"/></linearGradient><linearGradient id="b" x1="-28.4" x2="-35.2" y1="188.9" y2="187.9" xlink:href="#a"/><linearGradient id="d" x1="-28.4" x2="-35.2" y1="189.9" y2="188.9" xlink:href="#a"/><linearGradient id="e" x1="-31.7" x2="-38.5" y1="190.7" y2="189.7" xlink:href="#a"/><linearGradient id="f" x1="-28.4" x2="-35.2" y1="191.7" y2="190.7" xlink:href="#a"/><linearGradient id="g" x1="-28.5" x2="-35.3" y1="192.5" y2="191.5" xlink:href="#a"/><linearGradient id="h" x1="-28.5" x2="-35.3" y1="193.5" y2="192.5" xlink:href="#a"/><linearGradient id="i" x1="-31.7" x2="-38.5" y1="193.4" y2="192.4" xlink:href="#a"/><linearGradient id="j" x1="-31.7" x2="-38.5" y1="192.5" y2="191.5" xlink:href="#a"/><linearGradient id="k" x1="-31.7" x2="-38.5" y1="191.7" y2="190.7" xlink:href="#a"/><linearGradient id="l" x1="407.3" x2="398.3" y1="392.9" y2="391.6" xlink:href="#a"/><linearGradient id="m" x1="-31.7" x2="-38.5" y1="189.8" y2="188.8" xlink:href="#a"/><linearGradient id="n" x1="-29" x2="-35.8" y1="190.7" y2="189.7" xlink:href="#a"/><path id="c" d="M66 171l2-6c1-2-2-2-1-4s1-3-2-5c1 3-3 5-3 7s2 2 2 5l-1 3h3z"/></defs><g fill="#006"><path d="M0 0h643v480H0z"/><path fill-rule="evenodd" d="M0 0h235v175H0z"/></g><g fill="#fff"><path d="M0 0v20l311 155h39v-20L39 0zm350 0v20L39 175H0v-20L311 0z"/><path d="M146 0v175h58V0zM0 58v59h350V58z"/></g><path fill="#c00" d="M0 70v35h350V70zM158 0v175h35V0zM0 175l117-58h26L26 175zM0 0l117 58H91L0 13zm207 58L324 0h26L233 58zm143 117l-117-58h26l91 45z"/><g fill-rule="evenodd"><path fill="#fff" d="M379 155l219-1-1 195s8 30-92 75c36-4 75-42 75-42s16-20 24-9a87 87 0 0021 22c5 4 10 16 1 25-8 9-22 10-25-1-6 3-41 46-113 48a159 159 0 01-112-48s-10 15-24 3c-13-16-3-26-3-26s11-6 14-11c6-6 7-14 16-14 11 1 15 9 15 9s37 39 76 44c-89-43-92-69-92-76z"/><path fill="#006129" stroke="#000" stroke-width="1.7" d="M384 160l209-2v189c0 24-41 49-105 81-66-35-105-55-105-82z"/></g><path fill="#fc0" stroke="#000" d="M552 348c-3 2-3 7-7 11l-6 8h2-12c4 6 14 9 15 14h17c-3-7 8-8 10-14 9-3-11 8-1 7 3-2 11-11 2-11-3 4-14 5-15 4 15 2-6-13-4-19zm-131-1c-2 3-3 8-6 11l-6 9h2-12c3 6 14 8 14 13h17c-3-6 9-8 11-13 9-3-11 8-2 7 4-2 12-11 3-11-3 3-14 5-14 4 13 4-6-15-7-20zm130-35l-6 11-6 8c4 0 8 1 2 1h-12c4 5 14 8 15 13h16c-3-6 9-8 11-14 9-3-11 8-1 7 3-2 11-11 2-10-4 3-14 4-15 3 15 5-5-14-6-19zm-131-2c-2 3-2 7-6 11l-6 9h2-12c4 6 15 7 15 13h17c-3-6 8-8 10-14 9-3-11 9-1 7 3-1 11-11 2-10-3 3-14 5-14 4 13 1-7-13-5-20h-1zm27-31c-2 2-3 7-6 10l-6 9h2-12c3 6 14 7 14 13h17c-3-6 9-8 10-13 10-3-10 8-1 7 3-2 12-11 2-11-3 3-13 5-13 4 12 1-8-13-6-19h-1zm105-3c-3 3-3 8-7 11l-6 9h2-12c4 5 14 8 15 13h17c-3-6 8-8 10-14 10-3-10 9-1 8 3-2 11-12 2-11-3 3-14 5-14 4 14 1-7-13-5-19l-1-1zm-2-36c-3 3-3 8-6 11l-6 9c-4-1-15 0-7 4 7 0 9 6 11 9h17c-3-6 8-8 10-13 10-2-9 5-2 8 2-3 13-10 5-12-7 6-13 3-16-5-4-3-3-9-6-11zm-126 0c-3 2-3 7-7 11l-6 8h2-12c4 6 14 9 15 14h17c-3-6 8-8 10-14 10-3-11 8-1 7 3-2 11-11 2-11-3 4-14 5-14 4 14 4-6-14-6-19zm128-36l-7 11-6 9h1-11c4 5 14 8 15 13h17c-4-6 8-8 10-14 10-1-9 5-2 8 2-3 13-9 4-11-4 2-14 5-15 4 13 1-7-13-5-19l-2-1zm-128 0c-3 3-3 8-6 11l-6 9h1-11c3 5 13 8 15 13h16c-4-6 9-7 9-13 8-4 2 2-2 4-1 7 7-2 9-4-1-11-17 4-19 0 14 2-7-13-5-19l-1-1zm129-35c-3 2-3 7-7 10l-6 9h2-12c3 6 14 7 15 13l17 1c-4-7 8-7 9-13 8-4 2 2-2 3-2 8 7-2 9-4-1-10-17 5-19 0 14 2-7-13-5-19h-1zm-128-1c-3 3-3 8-7 11l-6 8c4 1 9 1 2 1h-12c2 6 16 5 14 13h18c-3-6 8-8 10-14 10-1-9 5-2 8 2-3 13-9 4-12-4 3-14 6-15 4 14 2-7-12-5-19z"/><g fill-rule="evenodd" stroke="#000"><g stroke-width=".6"><use width="100%" height="100%" fill="url(#b)" transform="matrix(1.32 0 0 1.32 317 141)" xlink:href="#c"/><use width="100%" height="100%" fill="url(#d)" transform="matrix(1.32 0 0 1.32 316 104)" xlink:href="#c"/><use width="100%" height="100%" fill="url(#e)" transform="matrix(1.32 0 0 1.32 447 70)" xlink:href="#c"/><use width="100%" height="100%" fill="url(#f)" transform="matrix(1.32 0 0 1.32 319 34)" xlink:href="#c"/><use width="100%" height="100%" fill="url(#g)" transform="matrix(1.32 0 0 1.32 319 -2)" xlink:href="#c"/><use width="100%" height="100%" fill="url(#h)" transform="matrix(1.32 0 0 1.32 320 -38)" xlink:href="#c"/><use width="100%" height="100%" fill="url(#i)" transform="matrix(1.32 0 0 1.32 448 -37)" xlink:href="#c"/><use width="100%" height="100%" fill="url(#j)" transform="matrix(1.32 0 0 1.32 447 -2)" xlink:href="#c"/><use width="100%" height="100%" fill="url(#k)" transform="matrix(1.32 0 0 1.32 445 34)" xlink:href="#c"/></g><path fill="url(#l)" stroke-width=".8" d="M535 368l3-7c0-4-3-3-2-6 1-2 1-5-2-7 0 4-4 7-4 9 0 3 2 2 2 7l-1 4z"/><g stroke-width=".6"><use width="100%" height="100%" fill="url(#m)" transform="matrix(1.32 0 0 1.32 447 106)" xlink:href="#c"/><use width="100%" height="100%" fill="url(#n)" transform="matrix(1.32 0 0 1.32 342 73)" xlink:href="#c"/></g><path fill="#ffc6b5" stroke-width=".8" d="M479 212s-7 3-7 11l-2 17s-9 9-11 13l-8 12c-1 1-6 7-6 10 0 2-2 12 4 13l6-12s0-5-2-6c-1-1 4-4 4-4l11-8 8-8 3-38zm4-32v4l-2 4-1 1 2 1v3s-2 4 0 5l6 2v5l-4 9 22-3-5-7s-2-1-1-5l-1-22-15-2z"/></g><path fill="#9c5100" stroke="#000" stroke-width=".8" d="M483 179c2 1 4-1 6-1 3 0 4 2 5 3 0 2-1 5 1 6 2 0 3 2 2 3 0 2 2 3 0 5 0 2 3 3 3 5 1 2 4 2 5 0 0-2 3-2 3-4l4-4c0-3-3-4-2-6l-1-5c-1-4-4-8-8-10-2 0-4 0-5-2-2-2-5-1-6 1s-3 0-4 0c-1 1-1 4-3 4a3 3 0 00-3 4l3 1z"/><g fill-rule="evenodd" stroke="#000" stroke-width=".8"><path fill="#fff" d="M487 205c4 9 12-1 18 0 6 2 14 13 5 17-5 3-3 11-2 16 1 7-1 13-1 19v30l10 39c1 5 0 10 3 14 4 8 6 16 4 24 3 6 3 15-6 14-6-1-13 2-17 3-2 8-10-5-11-4 2 10-10 0-14 1-5 5-15 3-12-6 1-6 4-13 3-20 0-6 1-13-3-19-1-9 3-17 3-26l4-26c-4-7 3-13 3-20 2-7 3-15 2-23-6-5-7-14 0-19 2-6 4-13 11-14z"/><path fill="#ffc6b5" d="M515 218c4 12 8 24 7 37-4 6-8 11-11 18-4 5-4 11-5 16 5 7-9 11-9 3-1-8 4-13 6-20 3-7 7-14 9-22-1-7-6-12-5-20-1-5 3-10 8-12z"/></g><path fill="#f7c600" stroke="#000" d="M487 430c36-1 71-18 96-44 3-13 23-12 26 1 7 8 26 17 14 30-6 8-18 4-22-2-11 4-18 15-29 20-32 22-72 33-111 24-32-6-61-24-85-45-7 7-17 12-24 2-9-13 8-22 16-29 4-11 17-15 23-4 23 23 52 43 85 47h11z"/></svg>