<svg xmlns="http://www.w3.org/2000/svg" xmlns:xlink="http://www.w3.org/1999/xlink" viewBox="0 0 640 480"><defs><linearGradient id="a" gradientUnits="userSpaceOnUse"><stop offset="0" stop-color="red"/><stop offset="1" stop-color="#ff0"/></linearGradient><linearGradient id="b" x1="-28.4" x2="-35.2" y1="188.9" y2="187.9" xlink:href="#a"/><linearGradient id="d" x1="-28.4" x2="-35.2" y1="189.9" y2="188.9" xlink:href="#a"/><linearGradient id="e" x1="-31.7" x2="-38.5" y1="190.7" y2="189.7" xlink:href="#a"/><linearGradient id="f" x1="-28.4" x2="-35.2" y1="191.7" y2="190.7" xlink:href="#a"/><linearGradient id="g" x1="-28.5" x2="-35.3" y1="192.5" y2="191.5" xlink:href="#a"/><linearGradient id="h" x1="-28.5" x2="-35.3" y1="193.5" y2="192.5" xlink:href="#a"/><linearGradient id="i" x1="-31.7" x2="-38.5" y1="193.4" y2="192.4" xlink:href="#a"/><linearGradient id="j" x1="-31.7" x2="-38.5" y1="192.5" y2="191.5" xlink:href="#a"/><linearGradient id="k" x1="-31.7" x2="-38.5" y1="191.7" y2="190.7" xlink:href="#a"/><linearGradient id="l" x1="407.3" x2="398.3" y1="392.9" y2="391.6" xlink:href="#a"/><linearGradient id="m" x1="-31.7" x2="-38.5" y1="189.8" y2="188.8" xlink:href="#a"/><linearGradient id="n" x1="-29" x2="-35.8" y1="190.7" y2="189.7" xlink:href="#a"/><path id="c" d="M66.3 170.5c.5-2.1 1.3-2.5 2.2-5.2.1-2.7-2.2-2.4-1.5-4.1 1.2-1.9.6-3.6-1.6-5 .4 2.4-3 4.7-3 6.7s1.8 1.6 1.6 4.6c0 1.8-.5 1.3-.6 3h3z"/></defs><g fill="#006"><path d="M0 0h643.2v480H0z"/><path fill-rule="evenodd" d="M0 0h234.5v175H0z"/></g><g fill="#fff"><path d="M0 0v19.6L310.9 175H350v-19.6L39.1 0zm350 0v19.6L39.1 175H0v-19.6L310.9 0z"/><path d="M145.8 0v175h58.4V0zM0 58.3v58.4h350V58.3z"/></g><path fill="#c00" d="M0 70v35h350V70zM157.5 0v175h35V0zM0 175l116.7-58.3h26L26.2 175zM0 0l116.7 58.3H90.6L0 13zm207.3 58.3L323.9 0H350L233.3 58.3zM350 175l-116.7-58.3h26.1L350 162z"/><g fill-rule="evenodd"><path fill="#fff" d="M378.5 154.5l219.3-.9-.4 195.4s7.7 29.7-92 74.9c35.9-3.7 75-42 75-42s15.8-20.3 23.5-9a87 87 0 0020.8 21.7c5.7 4.4 10.2 16.6 1.6 25.6-8.5 9-22 10.2-25.6-.8-5.7 2.8-40.7 45.2-112.3 47.2A159 159 0 01375.6 419s-9.7 15.4-23.6 3.2c-13.4-15.8-3.2-26-3.2-26s11.4-6.5 14.6-11c5.3-6.1 7-14.2 15.9-14.2 10.6.8 14.7 9.3 14.7 9.3s36.6 38.7 76 43.5c-89-42.7-92.3-69.1-92-75.6z"/><path fill="#006129" stroke="#000" stroke-width="1.7" d="M383.8 159.7l209.1-1.2v188c.4 24.4-40.7 49.3-105 81-66.3-34.2-104.5-55-105-81.4z"/></g><g stroke="#000"><path fill="#fc0" d="M551.5 347.8c-1.9 0-3 2.4-1.7 3.8l-10.6 15.7h6.1-16.1c2.7 6.7 15.8 6.7 13.4 13.4h18c-4.7-6 6.4-4.8 7.8-11.5 2.4-4.2 10.2-3.6 2.6 0-6.7 1.9-2.7 10.6-.4 2.7 9-1.9 7.4-13-1.7-7-3.6 3-8.3 2.6-12.6 2.4 2.4-.6 10 1.6 6-2.3-2.9-4.5-6.6-9.1-9-13.6 1.2-1.5 0-3.8-1.8-3.6zm-130.2-.4c-2-.2-3.2 2.6-1.7 3.9L409 366.9l6.1.1H399c1.8 7 16.4 5.7 12.8 13.3h18.6c-4.7-6 6.4-4.8 7.8-11.4 2.3-4.3 10.1-3.7 2.5 0-6.7 1.8-2.7 10.6-.3 2.6 9-2 7.3-12.8-1.7-7-2.5 3.2-10.5 2.6-12 2.4 2.9-.3 9.6 1.4 5.1-2.8-2.8-4.3-6.4-8.7-8.7-13 1.1-1.5 0-3.7-1.8-3.7zm130.1-35.5c-2-.2-3.1 2.4-1.8 3.8L539 331.4l6.1.1H529c2.7 6.5 15.8 6.6 13.4 13.3h18c-4.7-6 6.4-4.9 7.8-11.5 2.4-4.2 10.2-3.6 2.6 0-6.7 1.8-2.7 10.6-.3 2.7 9-2 7.3-12.9-1.8-7-3.5 3.1-8.3 2.6-12.6 2.4 2.4-.6 10 1.7 6-2.3-2.9-4.5-6.6-9-9-13.6 1.2-1.4.1-3.6-1.7-3.6zm-131-1.8c-1.8 0-2.9 2.5-1.5 3.8l-10.7 15.7 6.2.1h-16.1c1.8 6.9 16.4 5.7 12.8 13.3h18.6c-4.7-6 6.4-4.8 7.8-11.4 2.3-4.3 10.1-3.7 2.5 0-6.7 1.8-2.7 10.5-.3 2.6 9-2 7.3-12.9-1.7-7-2.5 3.2-10.5 2.6-12 2.4 2.9-.3 9.6 1.4 5.1-2.8-2.8-4.4-6.4-8.8-8.6-13.1 1-1.5-.2-3.7-2-3.6zm26.6-31.6c-2 0-3 2.5-1.6 3.8L434.7 298l6.2.1h-16.1c.6 6 8 3.5 10.4 7.6 4.5 1.2 1.5 4 3 5.7h17.9c-4.8-6 6.4-4.8 7.8-11.4 2.4-4.3 10.2-3.7 2.6 0-6.6 1.8-2.8 10.5-.4 2.6 9-1.9 7.4-12.9-1.7-7-2.4 3.2-10.4 2.6-12 2.4 3-.3 9.6 1.4 5-2.8-2.7-4.3-6.3-8.7-8.5-13 1.2-1.5 0-3.8-2-3.7zm104.7-2.3c-2 0-3 2.5-1.6 3.8l-10.7 15.6 6.1.2h-16.1c2.7 6.6 15.7 6.5 13.4 13.2l18 .1c-4.7-6 6.4-4.9 7.8-11.5 2.4-4.2 10.2-3.6 2.6 0-6.7 1.8-2.6 10.6-.4 2.7 9-1.9 7.3-12.9-1.7-7-3.5 3-8.5 2.8-12.6 2.3 2.4-.5 10 1.7 6-2.3-2.9-4.4-6.6-9-9-13.4 1.2-1.4 0-3.8-1.9-3.7zm-1.8-35.7c-2 0-3 2.5-1.6 3.8L537.6 260c-3 .5-8-1-9.8.7 1.6 5.3 8 3.1 10.7 7.2 5.2.7-.8 6 3.7 5.4H559c-4.7-6 6.4-4.7 7.8-11.4 2.7-4.4 10-3.5 2.6 0-6.6 1.8-2.7 10.6-.3 2.7 9-2 7.3-13-1.8-7-5 5.7-7-1-9.7-4.5-1.7-3-4.7-6-5.7-9.1 1-1.5-.3-3.6-2-3.5zm-126.2-.6c-2-.2-3.1 2.4-1.8 3.8l-10.6 15.7h6.1-16.1c2.7 6.7 15.8 6.7 13.4 13.4h18c-4.7-6 6.4-4.9 7.8-11.5 2.4-4.2 10.2-3.6 2.6 0-6.7 1.8-2.8 10.6-.4 2.7 8.9-2 7.4-13-1.7-7-3.5 3.1-8.3 2.6-12.6 2.4 2.4-.6 10 1.6 6-2.3-2.9-4.5-6.6-9.1-9-13.6 1.2-1.4.1-3.7-1.7-3.6zm127.8-35.7c-1.9 0-3 2.4-1.7 3.8l-10.6 15.6 5.6.1h-15.6c2.6 6.7 15.8 6.6 13.4 13.3h18c-4.8-6 6.4-4.8 7.8-11.4 2.4-4.1 10.2-3.6 2.6 0-6.7 1.7-2.7 10.6-.4 2.6 9-1.9 7.4-12.9-1.7-6.9-2.4 3.2-10.5 2.6-12 2.4 3-.3 9.5 1.4 5.1-2.8-2.8-4.3-6.4-8.7-8.6-13 1.2-1.5 0-3.8-2-3.7zm-127.6 0c-2 0-3 2.5-1.6 3.8l-10.7 15.7 5.6.1h-15.6c2.6 6.7 15.8 6.6 13.4 13.3h18c-4.9-6.2 6.5-4.5 7.8-11.4 2.6-4.4 10-3.5 2.5 0-6.6 1.7-2.7 10.5-.3 2.6 8.9-2 7.4-12.8-1.7-7-3.6 3.2-8.2 2.5-12.5 2.5 2.4-.6 10 1.7 6-2.3-3-4.5-6.7-9.1-9-13.6 1.2-1.5 0-3.8-2-3.7zm128.8-35.6c-2 0-3 2.5-1.6 3.8l-10.7 15.7 5.6.1h-15.6c.6 6 7.9 3.6 10.5 7.7 4.4 1.1 1.4 4 3 5.6h17.9c-4.9-6.2 6.5-4.5 7.8-11.4 2.7-4.4 10-3.5 2.5 0-6.6 1.7-2.7 10.5-.3 2.6 8.9-2 7.4-12.8-1.7-7-3.6 3.2-8.2 2.5-12.5 2.5 2.4-.6 10 1.7 6-2.3-3-4.5-6.7-9.1-9-13.6 1.2-1.5 0-3.8-2-3.7zm-128.1-.5c-1.9 0-3 2.4-1.7 3.8l-10.7 15.6 6.2.2h-16c.5 6 7.8 3.5 10.4 7.6 4 1.3 2.2 3.2 2.4 5.7h18.4c-4.7-6 6.4-4.8 7.9-11.5 2.4-4.1 10.2-3.6 2.5 0-6.6 1.7-2.6 10.6-.3 2.6 9-2 7.4-12.9-1.7-7-3.6 3.2-8.2 2.5-12.5 2.5 2.4-.6 10 1.6 6-2.3-3-4.5-6.6-9-9-13.6 1.2-1.5 0-3.8-1.9-3.6z"/><g fill-rule="evenodd"><g stroke-width=".6"><use fill="url(#b)" transform="matrix(1.32 0 0 1.32 316.6 141.4)" xlink:href="#c"/><use fill="url(#d)" transform="matrix(1.32 0 0 1.32 316 104)" xlink:href="#c"/><use fill="url(#e)" transform="matrix(1.32 0 0 1.32 447 70.1)" xlink:href="#c"/><use fill="url(#f)" transform="matrix(1.32 0 0 1.32 319 33.8)" xlink:href="#c"/><use fill="url(#g)" transform="matrix(1.32 0 0 1.32 319.3 -1.8)" xlink:href="#c"/><use fill="url(#h)" transform="matrix(1.32 0 0 1.32 320 -38)" xlink:href="#c"/><use fill="url(#i)" transform="matrix(1.32 0 0 1.32 448 -37.4)" xlink:href="#c"/><use fill="url(#j)" transform="matrix(1.32 0 0 1.32 446.9 -1.9)" xlink:href="#c"/><use fill="url(#k)" transform="matrix(1.32 0 0 1.32 445.3 34.4)" xlink:href="#c"/></g><path fill="url(#l)" stroke-width=".8" d="M535 367.5c.6-2.9 1.6-3.4 2.9-7 .2-3.6-2.9-3-2-5.4 1.6-2.5.8-4.8-2.1-6.7.5 3.3-4 6.3-4 9s2.3 2 2.1 6.1c.1 2.3-.6 1.8-.8 4z"/><g stroke-width=".6"><use fill="url(#m)" transform="matrix(1.32 0 0 1.32 446.7 105.8)" xlink:href="#c"/><use fill="url(#n)" transform="matrix(1.32 0 0 1.32 342.4 72.5)" xlink:href="#c"/></g><path fill="#ffc6b5" stroke-width=".8" d="M479 211.6s-6.9 3.2-6.6 11.8c-1.8 8.3-2.7 16.6-2.7 16.6s-8.2 9.3-10.7 12.6-6.3 10.2-7.7 12-6.8 7.7-6.6 10c.1 2.2-1.3 12 4.1 13.1 1.4.6 5.9-11.3 5.9-11.3s.2-5.2-1.3-6.1 3.3-4.3 3.3-4.3l11.4-8.5c2.1-1.7 7.8-8 7.8-8l3.2-38zm4-31.7l.4 4c.1 1.4-2.2 4.4-2.4 4.2s-1.2.2-1 1 1.7 1.1 1.7 1.1-.7 3 0 3c.7.2-1.8 3.8 0 4.8s4.9 2.2 6.3 2c1.4-.4 0 5.3 0 5.3l-4 8.3 21.5-2.2-4.5-7s-2-1.4-1.5-5.5c.6-4-.3-22.2-.3-22.2l-15.2-2z"/></g><path fill="#9c5100" stroke-width=".8" d="M482.6 179.1c2.4.5 4.7-.6 6.8-1.4 2.3 0 3.5 2.2 5 3.6-.2 1.7-1.8 5 1 5.3 1.7.2 2.8 2 1.4 3.2.1 2 2.2 3.7.6 5.5-.2 2.1 2.1 3.2 3 4.8.5 2.2 3.5 2 4.3 0 .5-2 3.2-2.2 3.7-4.2.3-2 2.4-2.6 3.3-4.2.4-2.3-2.6-3.4-2.2-5.7.2-1.8-.2-3.5-.6-5.2-1-4-3.6-8-7.7-9.4-2.2-.4-4.6 0-5.7-2.4-1.6-1.8-4.2-.9-5.3 1-1.2 1.7-2.8.4-4.1.2-1.3 1-1.4 3.7-3.6 3.3a2.5 2.5 0 00-2.3 4c.4.9 1.3 1.9 2.4 1.6z"/><g fill-rule="evenodd" stroke-width=".8"><path fill="#fff" d="M487 205c4.3 10.3 14.5-5 20.8 1.8 5.7 3.4 10.6 13 1.7 15.4-6.6 6.7.7 16-1.5 24-1.3 13.2-.4 26.5-1 39.8 2.7 7.7 4 16.2 6 24.3 1.7 8.7 4.7 17.2 5 26 3.6 7.3 7 14.8 6.8 23-3 5.5 4.6 13.5-.8 17-6.4 2.5-11.7.1-17.7 3.8-3.5 2-6-3-5.5 2.4-5.5 4.3-8.4-5.3-11.3-5.8 4.4 8.6-6.7 3.8-10.2 1.4-5-.6-13.2 7.3-15.6-1.2 0-6.3 1.6-12.5 3.2-18.8-1.3-8.2 2.6-18.4-2.7-25-1-7.8 2.4-15.7 2.2-23.8 1.1-9.6 2.4-19.2 4.8-28.6-4.8-4.7 2.4-11.5 2.4-17.2a65 65 0 002.4-25.2c-4.4-5.3-9-12.4-1.4-17.3 3.4-5.5 4.3-14 11.7-15.8z"/><path fill="#ffc6b5" d="M515.2 218.3c.1 0 4.5 13.7 5.1 17.2a112 112 0 011.7 19.3c-.7 2-7.8 11.2-8.6 13.6-.9 2.4-5.9 11.4-5.9 11.4s-1.2 8.9-1.8 9.3c-.5.4 1.5 2.6 1.3 3.3-.3.8-4 4.7-5.7 4.3s-4.3-2.4-4.4-4.2 0-7.7 1.3-9.3 7.8-16.9 8.2-17.9 6-13 6.1-15c.2-2.2-1.7-7-3.7-8.7-4.3-12.9-2.6-20.6 6.4-23.3z"/></g><path fill="#f7c600" d="M487.1 430c36-1.2 71-17.8 95.7-43.9 3.4-13.2 23.3-12.6 26 .9 7 8.2 25.7 16.6 14.4 29.5-6.2 8.8-18.2 4.4-22.1-2-11 4.7-17.8 15.5-28.7 20.6-32.1 21.6-72.6 33-111 24.2-32-6.7-61-24-85.8-45-6.4 6.8-16.8 11.9-23.2 1.8-9.3-13 7.6-21.8 15.4-29.2 4.2-10.6 16.9-15.4 23.4-4 22.6 23.2 51.4 43.3 84.4 46.8 3.8.3 7.7.4 11.5.3z"/></g></svg>