<svg xmlns="http://www.w3.org/2000/svg" viewBox="0 0 640 480"><path d="m0 0 326 206h314v69H326L0 480Z"/><path fill="#ff0" d="m0 464 334-213h306v-21H334L0 17v31l313 193L0 433Z"/><path fill="#40aa40" d="m0 480 334-212h306v212Z"/><path fill="#ce0000" d="m0 0 334 213h306V0Z"/><path fill="#ff0" d="m90 251 3-1 1-4c1-1 1-2 2-1h6l-1-2h-4l2-2h3l2-1-1-1h-2l-1-3 2 1 4-1c1-1 2-2 1-3l-2-1c-1-1-3 1-3-1h2l4-1c1 0 1 1 2-2-1-1-3 1-4 1l-2-2h2l4-1 2-1c1-2 0-1-1-2h-4l1-2 3 1 4-2-3-1-2-1c1-2 0-2 2-1 1 0 2 0 1-2h-2l-2-2h-2v3l1 1h-2l-2-3 1 4 1 2h-2l-2-2v6c1 1 2 1 1 2l-1 1-2-4h-2l1 3 1 2v2l-2-1-2-2-2 1 1 5 3 1-2 1h-2l-2-2h-1l1 3 2 3v3l-3-1-1-4h-2l1 2v4h3v2l-2 3z"/><path fill="#ff0" d="M114 252v-4c-1 0-2-1-2-3-1-1-2-2 0-2l1-3 1-2c-2-2-2-1-3 0l-2 4-1-2 1-5v-3h-1l-2 4c-1 1-1 1-2-1l1-2 1-5-2-1-2 1-1 3 1-3v-6c-2 0-1 3-1 4l-2 1c-2 0-2-1-1-2l1-5v-3c-2-1-1 0-2 1l-2 4-1-2 2-2-1-5-1 3-2 1c-2-1-2-1-1-2 0-1 1-3-1-2l-1 1-2 3-1 2 2 1 2-1-1 2-3 1 4 1 2-1c1 2 1 2-1 3h-3l2 2h4l2 1v2h-4l-1 2h7c1-1 1-1 1 1l-1 3h-4l1 2c2 1 4 2 5 1l2-2v2l-1 3-2 1h-1l4 1 2-1h3l-2 3h-3c-1 0-2 0-1 2h1c1 1 3 2 4 1l2-3 2 2 2 2z"/><path fill="#ff0" d="M92 296v-10c44 0 56-30 56-50s-16-40-45-40c-32 0-44 19-44 40 0 18 15 34 33 35 22 0 27-5 44-26-5 26-33 35-44 35-21 0-44-15-44-44 0-25 17-51 55-51 33 0 55 26 55 51 0 35-27 59-66 59z"/></svg>