<svg viewBox="0 0 640 480" xmlns="http://www.w3.org/2000/svg"><path d="m0 0h640v480h-640z" fill="#244aa5"/><path d="m253 224.8c9.5.94 28.49-4.86 18.11-16.5 3.27-14.05 27.17-10.34 25.15-28.06 9.09-8.69-22.64-20.49-.64-23.33 8.58-2.57 19.76-14.4 26.88-4.5 6.7 7.41-9.59 7.88.82 14.34 10.69 4.71 23.01 9.58 34.32 6.78 7.92 5.75 4.07 24.83 16.05 20.83 1.84 10.04 6.08 23.75 17.78 21.44 9.85 2.89 15.19 8.38 7.49 17.61-2.21 16.13 20.99 5.61 28.72 15.85 5.51 5.71 8.22 5.32 14.42 1.8 11.37.16 10.52 12.94 5.28 17.88-1.55 11.58-14.2 17.89-17.54 29.22 8.56 12.54-21.03 9.48-12.19 20.46 13.79 5.52-2.37 20.1-6.99 6.44-6.94.13-6.01 10.93-14.48 8.24-13.28 3.64-5.26 33.33-22.21 23.21-3.52-9.76-10.88-24.52-22.96-13.34-10.93 9.74-26.2 11.32-37.84 19.54-11.08 9.91 5.49 34.19-14.5 37.32-13.47 5.81-17.36-12.24-8.97-18.78-3.57-11.83-9.56-22.8-10.5-35.39-3.13-13.04-14.48-22.69-26.76-26.73-17.64 1.01-16.9-15.93-22.5-27.88-5.48-10.23-21.37-14.39-14.71-28.75 3.64-11.99-23.46-8.89-11.81-22.49 10.08-10.92 26.48 7.11 34.53-9.01 3.75-4.28 9.19-7.42 15.06-6.23z" fill="#d0a650"/><path d="m351.9 73.4 16.1 49.6-42.2-30.7h52.2l-42.2 30.7 16-49.6zm62.8 11.1 16 49.6-42.1-30.7h52.1l-42.2 30.7zm59.9 21.8 16 49.6-42.1-30.7h52.1l-42.2 30.8 16.2-49.6zm-186.5-32.9-16.1 49.6 42.2-30.7h-52.2l42.2 30.7-16-49.6zm-62.8 11.1-16 49.6 42.1-30.7h-52.1l42.2 30.7zm-59.6 21.8 16.2 49.6-42.2-30.7h52.1l-42.2 30.7z" fill="#fff"/></svg>