<svg xmlns="http://www.w3.org/2000/svg" viewBox="0 0 640 480"><path fill="#f4e109" d="M0 0v480h640V0Z"/><path fill="#da251c" d="m332 413 308 38V28H23v423"/><g fill="#29166f"><path d="M332 239V28H177zm0 0L640 28H486z"/><path d="M640 134v105H23v106z"/><path d="M640 451V345L23 134V28z"/></g><path fill="#f4e109" d="M271.2 80a4 4 0 0 0-4 5.3l27.8 79.5a91 91 0 0 0-28.5 19.8l-67-50.8a4 4 0 0 0-5.1 6.2l64.4 55.7-7.4 11.4-79-30.8a4 4 0 0 0-3 7.3l76 34.7-2.5 10.4-83.5-8.7a4 4 0 0 0-1 8l83.6 12.4v13.2l-83.7 14.5a4 4 0 0 0 1.1 7.9l84.7-8.7 3 10.5-77.8 35.6a4 4 0 0 0 3.2 7.3l78.6-30.6 1.3 2.7a4 4 0 0 0 3.6 2.2h151a4 4 0 0 0 3.3-1.8l2.2-3.3 78 30.8a4 4 0 0 0 3.2-7.3l-76-35.6 2.4-10.5 83.5 8.7a4 4 0 0 0 1-8L421 253.7v-13.2l83.6-12.4a4 4 0 0 0-1-8l-83.5 8.7-2.4-10.4 77-34.7a4 4 0 0 0-3.2-7.3L412.7 207l-6.6-11.2 64.5-55.8a4 4 0 0 0-5-6.2l-67.1 50.8a91 91 0 0 0-27.5-19.8l27.8-79.5a4 4 0 0 0-7.5-2.9l-32.6 76.7a91 91 0 0 0-51.4 0l-32.6-76.7a4 4 0 0 0-3.5-2.4"/><path fill="#fff" d="m332 239 308 212H23z"/></svg>