<svg xmlns="http://www.w3.org/2000/svg" viewBox="0 0 640 480"><style>.K{stroke-width:.3}.L{fill:#fff}.M{fill:#f4e109}.N{fill:#29166f}.O{fill:#e87817}.P{fill:#da251c}.Q{fill:#f1c700}.R{stroke-width:.8}.S{fill:#e12211}.T{stroke-width:.4}</style><defs><linearGradient id="A" x1="247.7" x2="262.6" y1="508.5" y2="508.5" gradientUnits="userSpaceOnUse"><stop offset="0" stop-color="#84be86"/><stop offset="1" stop-color="#328c4e"/></linearGradient></defs><path d="M0 0v480h640V0Z" class="M"/><path d="m332 413 308 38V28H23v423" class="P"/><g class="N"><path d="M332 239V28H177zm0 0L640 28H486z"/><path d="M640 134v105H23v106z"/><path d="M640 451V345L23 134V28z"/></g><path d="m218 233 57 9v13l-57 10 58-6 3 11-53 24 54-21 2 4h99l3-4 53 21-52-24 3-11 57 6-57-10v-13l57-9-57 6-3-11 53-24-54 21-7-11 44-38-46 35a57 57 0 0 0-21-15l19-55-22 53a57 57 0 0 0-37 0l-22-53 19 55a57 57 0 0 0-22 15l-46-35 44 38-7 11-54-21 52 24-3 11z" class="M"/><path d="m332 239 308 212H23z" class="L"/><g stroke="#000" class="K"><g fill="#e0609b"><path d="M334 297a2 2 0 1 1-4 0 2 2 0 0 1 4 0z" class="O"/><path d="M346 280q-2 6-14 6-13 0-14-6-4 2-4 5 2 7 17 8c15 1 18-4 18-8q0-3-4-5z" class="S"/><path d="M332 286h-4q-2 1 4 7a6 6 0 0 0 4-7zm-14-6q-3-1-3 7c5 1 5-3 5-4zm9 6s0 5-5 5q-4-6-1-7zm16-3c0 1 1 5 6 4 1-6-3-7-3-7zm-1 1c1 0 4 4-1 7-5 0-5-5-5-5z"/><path d="m349 283 1 2q-1 7-18 8c-17 1-18-4-18-8v-2q-3 2-3 5 2 7 21 8c19 1 20-4 20-8q0-3-3-5z" class="Q"/></g><path d="M328 217c0 3 4 2 2 7l-1 2q-2 0-1-2 2-2-1-4c1 3-1 2-2 5l3 6-3 3v4q-1 2-2-1l1-5q2-2-3-7 2 5-1 6-4 2-3 3 1 2-1 4-2 1-2-1v-3q-2-1-1-6l-1 6-2 5v5l1 4q0 2-2 1l-1-6-1 3-1 3q1 4 4 6l2 3q-2 3-5-4 0 9 5 9l5 1 3 3 4 3h14q4-1 4-3l1-2 6-1c2-1 7-3 5-8q-1 5-4 3-2-1 1-2l3-2 2-3q3-1 2-5l-2 3-2-6-1 6q-1 2-2-2 0-5 3-5 5-1-1-6 2 5-1 3c-3-2 0-1 0-2l-3-6q-2 4 0 5 2 2 0 4-2 1-3-1l1-3q1-2-2-6-1 3-2 1v-3c0-3-4-2-2-7-3 4 0 5 0 7l-2 3q-3 1-2 3l1 2q-1 2-2 1l-1-4 3-6c0-5-3-3-2-8-2 3 1 4-1 6q-2 1-1-1t-1-4z" class="S"/><path d="m342 275 1 2q-1 6-11 6c-10 0-11-2-11-6l1-2q-4 2-4 5 1 5 14 6c13 1 14-3 14-6q0-3-4-5z" class="Q"/><path d="m342 275-2-4-8 2-9-2-1 4h-1v2q1 6 11 6c10 0 11-2 11-6z" class="S"/><path d="m322 270-1 7 3 3q5 1 5-8-3 0-7-3z" class="O"/><path d="M341 270c-1 2 2 6 1 7l-3 3q-4 1-5-8 4 0 7-3z" class="N"/><path d="m335 272 1 7q-2 3-4 2-3 0-4-2l1-7z" class="L"/><path d="m322 250-4-2-1 4q-1 11 6 17l2 2 6-2-1-3q1-10-8-16z" class="O"/><path d="m341 250 4-2s6 10-5 21l-2 2-6-2 1-3 2-9z" class="N"/><path d="m332 246-3 3q-5 9-1 18l1 3h6l1-3 2-9c-1-10-6-12-6-12z" class="L"/><path d="M320 266v1q1 7 11 6c10-1 12 0 12-7-1 4-21 4-23 0z" class="M"/><path d="M351 380a18 18 0 1 1-37 0 18 18 0 1 1 37 0z" class="Q"/><path d="M348 380a16 16 0 0 1-23 14q-8-5-8-14a16 16 0 0 1 31 0z" class="P"/><path d="M346 380q0 8-6 12-8 5-14 0-8-6-6-12 1-11 13-12c12-1 12 5 13 12z" class="O"/><path d="M346 380q-2 11-13 12-15 0-13-12-1-4 3-6 5-3 7 0l3 6q0 4 3 6 4 3 7 0 4-4 3-6z" class="N"/><path d="m328 380-2 2-2-2 2-2z" class="O"/><path d="m341 380-1 2h-2v-2l2-2z" class="N"/><path d="m333 359-2-1 2-2 1 2zm0 1-2 2-1-2 1-1zm3 0-2 2-1-2 1-1zm-3 40 1-1 2 1-2 1zm-3 0 1-1 2 1-2 1zm3 1 1 1-1 2-1-2z" class="P"/></g><g id="B" stroke="#000"><path d="M322 333c4 4 0 6-2 5v-2q2 2 2-3" class="K M"/><path d="m249 388-5 5q0 1 0 0l3 3 4 1 4-2h3l2 3-2 1v1l-2 1v1l-1 1-1 2-3 1-3-1-2-1-2-2-8-3-7-2 5-7q0-5 5-4l10 2m38-39 3-2h5q-1-1 3-2l5-1 2-2 4-3v-4l3-2 2 1h4l2 1 1 2-2 3h-5l-2 4c0 1-4 8-8 11l-11 10-4 1-1-12-1-5" class="L R"/><path fill="#56a358" d="M282 308zm1 0q7 4 1 5l-3-3q-6 0-8 3c-2 3-4 0-7 0q-4 0-7 4c-4 2-9-4-13 1v1q7-2 10 1l-3 2c-5 5-5-2-12 3 6-1 6 6 14 2l-1 7q-2 2-6 2l-4 6q-2 4-10 0 9 7 17 1 2-5 7-3v3q-3 2-7 2-5 0-6 4-2 5-5 4c-5 0-7-4-11-1 6-1 5 3 12 3q6-1 8-4l6-1-3 5q-3 2-8 2c-5 0-5 5-13 2 3 4 10 3 13 2q3-2 7-1t7-2h2c4-1 6-8 14-9-8 2-5 6-10 9l-4 1 7-1 5-2 8-1q3-2 3-5l-1-3q-1 1-5-2c-4-3-2-3-2-3s-3-1-4 1l-3 4-1 1-1-5 4-5-3-3v-6l3-6 4-3 4-2 6-1h3c5-2 5-9-5-9zm-42 17v1zm-34 27-7 1c-7 3-4 8-8 11l-7-1-6 5c-4 2-6-3-9 0q5 1 9 4l5-1v2q-2 3-5 3-1-2-6 0c4-1 4 2 10 1l7-2 3-1-1 3q-2 2-7 2c-5 0-3 5-5 6-3 3-7-2-9 1 4-1 4 3 11 2l5-4c1-2 4 1 6 1s3-2 4-3h4q5 2 9-3l4-8c-1 0-2-5-3-3l8-3q5-3 0-11-5-3-7-1zm-34 24z" class="T"/><g class="L"><g class="R"><path d="M268 342h-2l-8 9-14 7-7 2-8-1-9 3-8 5h-3l-1-3q2-2 1 1c4-1 1-4 0-4l-2 2v2l-1-2h-4v3l-3 2q-1 3 2 4c3 1 5-3 2-3q1 1-1 1v-2h4c4 1 5 5 11 1h-1c-4 3-5 3-7 8v10l-5 3q-3 3-3 6c0 3 11 15 12 16l2 2 1 3q4 3 6 2l1-1h1l1-1 2-1v-1l1-1v-3l-3-1-4-1-3-5v-2l7-1 8-7 2-6h4l12 2 13-3 2-1 6 2 13 1 14 1 6 1q2 0 3-2l2-1 1-1v-2l2-1 1-2v-1l-1-2v-2l-2-2-2-2q-1-1-3 1l-1 6-4 2-5-2-4-1-2-3h-3l3-9-1-15-4-8-1-1-4 2-6-1z"/><path d="M204 364q-1 2-2 0l3-1 2 2-1-3h-4q-2 0-2 3l3 2q4-1 1-3"/></g><path stroke="none" d="m259 361 8 2q3 1 1 4l-1 7c0 2-4 3-4 3q-5-1-5-6z"/></g><path d="M223 416h-2v2q3-1 2 3c3-2 0-5 0-5m2-1h-1v2q1-1 1 2c3-2 0-4 0-4m3-4v2l1 3c3-4 0-5 0-5m24-8s-1-1-1 1l1 2q1-1 2 1c3-2-2-4-2-4m2-2-1 1 1 1q1-1 2 2c3-3-2-4-2-4m2-3-1 2 1 1q1-1 2 1c3-2-2-4-2-4m1-2 1 3h1q1-2-2-3m55-22q-3-3-4-1v1l1 1 3-1m-2 2v2l2 1h3q-2-5-5-3m1 3c1 0 5 1 4 5q-2-3-3-1-1 1-1-2v-2m-2 5-1 1 1 2q1-1 2 3 3-6-2-6m-83 29-1 1 1 2 1 2c2-3-1-5-1-5" class="K M"/><g fill="#93aa5e" class="K"><path d="M277 314h3l1 1-3 1h-2v-1l1-1m-6 5s-2-1-1-2l3-3 3 2-3 2-2 1"/><path d="m267 324-1-2q0-4 3-4l2 1-2 3-2 2m-1 4h-2l-2 3 3 2h1l-1-3v-2m0 11-2-2 1-4h2l1 2 1 1-1 1-2 2"/><path d="m265 345-2-1v-4l2-1v6m2-21s-1-2-2-1l-2 3 3 1v-2l1-1"/></g><g class="R"><path d="M286 331s-2 1-2 3q2 3 3 2l-5 2-1 3-1-3 1-2 1-4 4-1" class="Q"/><path d="M297 320v-4l-4-2-3 2-4-1-10 1-7 5-4 6v6l3 3-3 3v7l3-1 2-4 4-1c-2-6 4-9 8-12l1-2h4l4-1 2-1 2-3 1-1h1" class="L"/></g><g class="P"><path d="m295 314-3 1-1 2-2 1-1 4 4 2 2-2-3-1 1-2h1l1 1 2-1q-2 0-1-2h1l1 3h1v-2zm-15 26s2-4 6-5c3-1 9 2 9-2q-3-4 4-6-3 3-2 4l2-2c1-2 4 0 4-2 1 5-4 3-5 6q1 2-2 6l-8-1-5 3-3-1" class="K"/><g fill="#56a358" class="T"><path d="M301 347s2-1 3 1v1q-2-1-3 2l2 2 3-1q2-3 0-5-4-2-5 0zm-9 2 4 1v2q-2-1-3 2l2 2c4 0 5-6 1-7zm-27 31q-1 3 2 6 6 3 10 0h8l8 3q5 0 6-3l1-3 2-1 4 2v4l-5 4-3 4q-1 3-7 3c6-1 5-6 3-6l-4 2c-1 1-3 5-8 3q4-1 5-3 0-3-4-2c-3 1-3 5-7 4q4-1 3-3 0-2-3-1l-4 3q-1 3-6 1 4 0 4-2 0-3-4-1l-3 2q-2 1-5-2c4 2 3-2 2-2s-3-2-3-5 2-5 4-6l2-3v-2zm-36 21-4 1 3 1q1 2-3 2 3 2 7 1l3-1q1 2-3 2c4 3 6 0 7-1l3-1q1 2-2 3l5-1 2-2q3 0 4-3v-3l-2-1-1 1-1 2-4 1-5-1h-3l-3-2zm84-59 4 5q6 5 1 9c1-5-3-7-2-4q2 2-1 8v-4h-2c0 1 2 6-3 10 4-6 0-8-1-5-2 4-1 8-7 9q6-7 1-6c-2 2-1 6-5 9q1-5-2-3l-5 3 1-5v-2q2 0 5-3l4-6q5-1 8-5c4-4 2-3 0-5l-2-3 2-2q1-2 4-1z"/><path d="M249 392s0 2-2 3h-3a3 3 0 1 0-5-2v1l3 3q4 0 6-2l1-3m38-77-4 1 2 3 2 1 4-2q2-1-1-2l-2 1-1-2m-54 51-3 1v-3q1-3 4-2h4-5q-4 0-6 3 0 4 3 6h3a3 3 0 0 0 0-5m17 1-3-3-3 3-2-1 1-4 2-1q-2-1-5 3l1 5q3 3 6 2l3-2v-2m-27 36-3-1q1-3-2-4-3 1-2 4 3 3 5 3l8-3-6 1m6-5-2-2q1-3-2-4-3 0-2 5 0 2 5 3 4 1 6-3l2-4-2 3q-2 3-5 2z"/><path d="M202 385c6-4 10 2 11 4 1 1 2 6 1 7l-5 2-1 3c1 0 8 9 10 8l2-1q2-1 2 1 1 3-1 4l-4 2q-3 1-5-1-3-2-7-1 3-3 6-1 2 0-1-2-5-1-9-4 6 2 5-1l-4-2h-6c1-3 5-1 5-2q1-2-1-3h-5c1-3 5-1 7-3v-2l-3-1h-3q3 0 5-2l2-1-1-2-5 1 6-2h3l1-1h-5m90-6-4-1q1-1 4 3v2l-3 1a2 2 0 0 0 2 3s2 0 3-2c3-3-1-6-2-6m-12-5 2 2 1 1q-3 0-5 3-1 4 3 3h1q3 1 5-3 1-3-2-5zm-13-8s6 2 7 5q1 3-1 3c-1-4-6-1-4 2q0 2 5 3 4-1 4-4 1-3-2-7c-3-2-9-2-9-2zm-34 24-2-2q3-4-2-4-3 3 0 6c1 2 7 3 8 0v-3l-1 3z"/></g><path fill="url(#A)" d="m259 511-1 1q-2 0-1-2t2-1l3 2v4l-4 2-4 1-4 3q-3 0-2-1l3-1 2-5c2-3 6 0 6-1v-2" class="T" transform="translate(21 -186)"/><g class="L"><path d="m284 326-2-3-2 2 1 2 1 1 1-1 1-1m1-8 3-1-1-2q-2 0-2 2v1m11 3c1 1 4 2 1 5l-2-2 1-3m-7 5c1 1 4 4 0 6q1-3-2-3-1-1 2-3" class="K"/><path d="m294 324-4 2-3 5c-1 2-4 0-5 2v3l-2 2 1 2h3l4-3q3 0 5 2 3 1 5-2h1l-1 3-6 1-4 2-4 1-6 1q-3-1-4-4 5-4 7-12l2-4h6q4 1 4-3 0-2 2-3 3 0 2 1l-2 2-1 2" class="R"/></g><g class="K"><path d="M282 325a1 1 0 1 1-1 0h1m5-9h-1a1 1 0 1 1 1 0m-66 98 3 2h-1l-3-2m3-1q4 1 3 2l-1-1-2-1m2-1q4 0 3 1h-1l-2-1m29-9s0-2-2-1zm2-2s1-2-2-1zm2-2s0-2-3-1q4 0 3 1zm50-21q2-4 3-3h1s-3 0-4 3m1 2q3-3 4-2s-2-1-4 2m-2 4c3-4 4 0 4 0s-1-2-4 0m-24-62q1-4 4-6l3-1 2-1h3-3l-3 2-3 1-3 5m3 17 5 2h4-5l-4-2"/><path fill="#93aa5e" d="M280 327q-2 0-1 1h-1q-3-1-2 1v1l-2-1-1 1v3l1 1-1-1-2 3 2 1h-2v3l3 1-1 1 1 3 3-1 1 2q4 0 4-2h-5q-2 0-2-2l-1-1c-2-6 3-9 7-12l1-1zm17 13-5 1-5 2-1-1-4 2 4 1 1-2 3 2 2-3 3 2c2 1 2-3 2-3z"/></g></g></g><use href="#B" transform="matrix(-1 0 0 1 666 0)"/></svg>