<svg xmlns="http://www.w3.org/2000/svg" viewBox="0 0 640 480"><defs><linearGradient id="a" x1="0" x2="640" y1="0" y2="480" gradientUnits="userSpaceOnUse"><stop offset="0" stop-color="#333"/><stop offset=".5" stop-color="#444"/><stop offset="1" stop-color="#333"/></linearGradient></defs><path fill="url(#a)" d="M0 0h640v480H0z"/><g fill="#fff" stroke="#000" stroke-width="4" paint-order="stroke"><ellipse cx="311.6" cy="363.3" rx="40.8" ry="37.2"/><path d="M276 289c0-20-1-41 11-58 14-22 42-28 56-49 11-14 3-34-15-35-30-3-59 9-85 23l-30-59c45-27 101-39 152-27 30 8 58 32 61 64 4 28-6 57-28 75-17 16-39 24-53 42-4 7-3 16-3 24z"/></g></svg>