<svg xmlns="http://www.w3.org/2000/svg" viewBox="0 0 640 480"><path fill="#198a00" d="M0 0h640v480H0Z"/><path fill="#ef7d00" d="M556 173h84v307h-84z"/><path d="M471 173h85v307h-85z"/><path fill="#de2010" d="M385 173h86v307h-86Z"/><path fill="#ef7d00" stroke="#000" stroke-linejoin="round" stroke-width=".9" d="M404 42c-2 4 8 15 11 16l-12-5c-2 0-8-8-9-7 0 1 1 11 13 17l24 10-27-11c-5-2-11-9-12-9-1 1 2 9 7 11h-3l-5-5c-1 1 1 12 28 18l8-1-15 2c0 1 2 5 16 5l11-3-14 4-6 1s4 3 11 4c7 0 19-4 19-4l-12 5-6 1s7 7 25 0c-1 3-11 5-11 5l6 2h5c4 0 8-1 14-6 0 2-13 8-13 8 3 3 12 1 13 0l-4 3c2 2 9 0 9-1l10-4s-11 6-10 7c0 3 9 1 15-2l-5 4c4 6 14 4 15 3v3l2-4-2 6v9c-1 2 5-3 4-12 1 4-2 14-1 15l1-1c0 1-1 6-5 6-7 0-7 6-7 6l-1 4 2-3c1 0 4 1 8-3-4 5-1 7-1 7s-1 2 2 3l-1-2s5 0 5-6c0 5 3 6 3 6s0 2 3 3l-2-3s4-3 1-8l1-2 1 2c0 3 0 4 2 6l-1-4c1 0 2 2 5-3-2 5 0 7 0 7 0 1-1 3 3 3l-1-2s4-1 3-8h2s0 4 4 3c1 1-1 4-1 4s2 0 3-2c0-3 1-6-2-8l1-2 3 3c1 2 1-4-3-4h-3l-1-4c2 2 5 2 7 3 0-1-6-10-4-11 1 0 3 4 6 3-1-2-3-1-5-5l-1-2s4 5 9 5c2-2-4-5-4-5 2 1 10 8 15 5 2-3-4-2-9-9 4 3 14 8 20 6 1-2-5-5-10-9l5 3c5 2 9-1 9-1 0-1-2-2-5-2 6 1 11-1 12-2l-9-3c14 3 24-5 24-5s2-1 0-1c33-5 39-21 38-21-4 0-28 24-65 14 46 10 73-23 72-24 1-3-26 13-36 15 35-11 40-26 39-26 0-2-8 5-23 12 18-10 18-18 17-19-5 0-25 19-51 24 28-6 42-23 41-25-3 3-35 17-35 17v-1c3-3 6-7 3-7-5 4-25 8-30 10-4 1-16 5-19 4-21 0-25 2-25 2l-1-1c-3-7 1-9 3-10h3l-4-2c2 1 7 0 6 5 3-1 8-8-5-9-5-4-22-7-27 15h2c-5-2-20-4-26-5-14-4-29-14-31-13s8 11 8 11l-26-13zm110 62c4 10 7 14 5 23l2-2v5c0 1-4 0-7 2l1-1-4-2v-8l3 4-1-6zm-10 22v1-1z"/><path fill="#ef7d00" stroke="#000" d="M509 54c0-1-2-3-8 0 3 0 7 2 8-1z"/></svg>