<svg xmlns="http://www.w3.org/2000/svg" viewBox="0 0 640 480"><g stroke-width="1.2"><path fill="#006400" d="M0 0h640v480H0Z"/><path fill="#ffd200" d="M0 69h640v342H0Z"/><path fill="#d40000" d="M0 137h640v206H0Z"/><path d="M0 206h640v68H0Z"/></g><path stroke="#000" stroke-width="23.1" d="M-2 0v480l328-240z"/><g stroke-width="1.2"><path fill="#fff" d="M-2 0v480l328-240z"/><path fill="#d40000" d="m123 119 65 195L18 194h210L58 314z"/><path fill="#fc0" d="M95 290c11-3 23-3 34-3l22 3c7-1 1-11 4-16 1-12 6-23 12-34 2-6 12 4 11-3l-35-27-26-19c-3-6-1-14-3-20-2-8-11-10-18-7-3 1-12 1-10 6 2 1 11 0 8 3-5-1-5 3-1 3 6 2 5 8 5 13v21c-3 7-2 15 0 21-2 7-10 11-11 19-4 6 0 12 2 18l5 22z"/></g></svg>