<svg xmlns="http://www.w3.org/2000/svg" viewBox="0 0 640 480"><g stroke-width="1.2"><path fill="#006400" d="M-2.3-.1h984.5v480H-2.3z"/><path fill="#ffd200" d="M-2.3 68.5h984.5v342.9H-2.3z"/><path fill="#d40000" d="M-2.3 137h984.5v205.8H-2.3z"/><path d="M-2.3 205.6h984.5v68.6H-2.3z"/></g><path stroke="#000" stroke-width="23.1" d="M-2.3-.1v480l328.2-240z"/><g stroke-width="1.2"><path fill="#fff" d="M-2.3-.1v480l328.2-240z"/><path fill="#d40000" d="M122.5 119.2l65 195.1L17.5 193.8h210.4L57.5 314.3z"/><path fill="#fc0" d="M94.7 289.9c11.3-2.5 22.8-2.8 34.3-2.7 7.4.3 14.6 1.8 21.8 3.2 7-1.7 1.4-11 3.8-16.2 1.8-12 6.6-23.6 12.6-34.2 2-5.8 12.1 3.6 10.7-3-11.5-9.4-23-18.7-35.1-27.3-8.5-6.1-17-12.4-25.5-18.4-3.3-6-1.2-13.8-3.7-20.3-1.3-8.1-10.9-9.7-17.4-7.2-3 1.7-12.2 1.5-9.8 6.5 1.8.9 10.4.2 7.3 2.4-4.8-.7-5 3.5-.4 3.4 6 1.6 4.6 8.4 4.5 13 0 7 .3 13.8.1 20.7-3.3 6.9-2.3 14.8 0 21.7-1.8 6.4-9.8 10.6-10.7 18.2-4 6-.3 12.2 1.6 18.2 2.4 7 3.8 14.4 5.1 21.7z"/></g></svg>