<svg xmlns="http://www.w3.org/2000/svg" viewBox="0 0 83.339 17.636"><defs><linearGradient id="A" gradientUnits="userSpaceOnUse"><stop offset="0" stop-color="red"/><stop offset=".484" stop-color="#c8ab37"/><stop offset="1" stop-color="#0a0"/></linearGradient><linearGradient href="#A" id="B" x1="101.62493" x2="52.96923" y1="130.01288" y2="141.87652"/><linearGradient href="#A" id="C" x1="117.21393" x2="68.55823" y1="130.01288" y2="141.87652"/><linearGradient href="#A" id="D" x1="139.03393" x2="90.37823" y1="130.01288" y2="141.87652"/><linearGradient href="#A" id="E" x1="126.56393" x2="77.90823" y1="130.01288" y2="141.87652"/><linearGradient href="#A" id="F" x1="107.85893" x2="59.20323" y1="130.01288" y2="141.87652"/><linearGradient href="#A" id="G" x1="123.44793" x2="74.79223" y1="130.01288" y2="141.87652"/><linearGradient id="H" x1="2.39424" x2="2.39424" y1="6.42492" y2="16.27548" gradientUnits="userSpaceOnUse"><stop offset="0" stop-color="#fff"/><stop offset="1" stop-color="#80b2ff"/></linearGradient><linearGradient id="I" x1="13.55783" x2="13.55783" y1="7.53606" y2="15.82506" gradientUnits="userSpaceOnUse"><stop offset="0" stop-color="#8dc9ff"/><stop offset="1" stop-color="#6f70ff"/></linearGradient><path id="J" d="M100.499 141.861a1.068 1.068 0 0 1-.756-1.825 1.069 1.069 0 1 1 .756 1.825"/><path id="K" d="M94.265 141.861a1.07 1.07 0 1 1 0-2.137 1.07 1.07 0 0 1 0 2.137"/><path id="L" d="M99.743 138.383a1.066 1.066 0 0 0 1.513 0 1.069 1.069 0 1 0-1.513 0"/><path id="M" d="M100.499 132.365a1.07 1.07 0 1 1 0-2.141 1.07 1.07 0 0 1 0 2.141"/><linearGradient href="#A" id="N" x1="101.62493" y1="130.01288" x2="52.96923" y2="141.87652"/><linearGradient href="#A" id="O" x1="139.03393" y1="130.01288" x2="90.37823" y2="141.87652"/></defs><rect width="83.339" height="17.636" fill="#dde" fill-opacity=".53333" ry="2"/><path stroke="navy" stroke-linecap="round" stroke-linejoin="round" d="M11.87845 3.05972c-.544 0-1.03831.0549-1.48369.16735l-.0005.0005a4.8946 4.8946 0 0 0-1.22163.49039c-.38154.21304-.83537.55843-1.37291 1.03864-.07149.0637-.07899.17289-.01689.24582l1.53213 1.79297a.1764.1764 0 0 0 .24964.0191c.41284-.35706.77898-.62274 1.09296-.79779l.0012-.0005c.31298-.17629.61106-.25997.90169-.25997s.4819.0678.61678.18821.20245.27387.20245.5038a1.3155 1.3155 0 0 1-.11849.54849l-.0015.003c-.07452.17381-.21934.40175-.4347.67215-.21238.26196-.68335.77569-1.40222 1.52705L7.90449 11.745c-.03291.0329-.05126.0776-.05092.12415v1.83543c-.00007.0468.01849.0917.05157.12482a.1764.1764 0 0 0 .1248.0517h7.4915a.1764.1764 0 0 0 .12471-.0516c.03307-.0331.05166-.0779.05166-.12466V11.4031c.00007-.0468-.01849-.0917-.05157-.12482a.1764.1764 0 0 0-.1248-.0517h-3.532l1.99291-1.86126v-.0005c.35919-.37319.64882-.72901.86865-1.07092l.0005-.00099q.32963-.51969.48612-1.06148l.0005-.0005q.1627-.54254.16245-1.17173c0-.57208-.15649-1.09674-.46674-1.55759-.30628-.4668-.74346-.82709-1.29665-1.07415h-.00075c-.54797-.24681-1.16922-.36823-1.85803-.36823m-8.70468.003a.1764.1764 0 0 0-.17662.17651v10.46262c0 .0468.01862.0917.05174.12475a.1764.1764 0 0 0 .12487.0516h2.8417a.1764.1764 0 0 0 .12471-.0516c.03307-.0331.05166-.0779.05166-.12466V3.23883c0-.0468-.01858-.0916-.05166-.12466a.1764.1764 0 0 0-.12471-.0516zm14.24947 0a.1764.1764 0 0 0-.1248.0517c-.03308.0331-.05163.078-.05157.12482v10.46262c0 .0468.01858.0916.05166.12466a.1764.1764 0 0 0 .12471.0516h2.82754a.1764.1764 0 0 0 .12471-.0516c.03307-.0331.05166-.0779.05166-.12466v-3.29444h.61852c1.29864 0 2.32751-.32726 3.05433-.99841s1.09495-1.63828 1.09495-2.84204c0-1.10047-.35173-1.98243-1.0557-2.59474s-1.74625-.90952-3.09382-.90952zm11.82036 1.45529a.1764.1764 0 0 0-.1248.0517c-.03308.0331-.05163.078-.05157.12482V7.3002h-2.64422a.1764.1764 0 0 0-.17662.17651V9.5088c0 .0468.01858.0916.05166.12466a.1764.1764 0 0 0 .12471.0516h2.64422v2.56121a.1763.1763 0 0 0 .17662.17651h2.03961a.1764.1764 0 0 0 .17661-.17635V9.68522h2.64372a.1764.1764 0 0 0 .1248-.0517c.03308-.0331.05163-.078.05157-.12482V7.47661c0-.0468-.01858-.0916-.05166-.12466a.1764.1764 0 0 0-.12471-.0516h-2.64367V4.69394c0-.0468-.01858-.0916-.05166-.12466a.1764.1764 0 0 0-.12471-.0516zm-8.81621 1.18042h.55344c.3649 0 .61007.0819.76234.21925s.23523.3429.23523.66346c0 .38437-.1088.65675-.32416.85986l-.00099.00099c-.21189.20361-.49506.30839-.88679.30839h-.33907z" opacity=".54166" fill="navy"/><g transform="translate(-21.229 -127.226)"><use href="#J" fill="url(#N)"/><path fill="url(#N)" d="M97.38 141.861a1.07 1.07 0 1 1 .76-1.825 1.067 1.067 0 0 1-.76 1.825"/><use href="#K" fill="url(#N)"/><path fill="url(#N)" d="M91.147 141.861a1.067 1.067 0 0 1-.756-1.825 1.07 1.07 0 1 1 .756 1.825"/><path fill="url(#N)" d="M88.03 141.861a1.067 1.067 0 0 1-.757-1.825 1.069 1.069 0 1 1 .757 1.825"/><path fill="url(#N)" d="M84.912 141.861c-.273 0-.548-.104-.758-.312a1.07 1.07 0 1 1 .758.312"/><path fill="url(#N)" d="M81.793 141.861a1.067 1.067 0 0 1-.754-1.825 1.069 1.069 0 1 1 .754 1.825"/><use href="#K" x="-15.589" fill="url(#C)"/><path fill="url(#N)" d="M75.56 141.861c-.275 0-.548-.104-.756-.312a1.069 1.069 0 1 1 .757.312"/><path fill="url(#N)" d="M72.443 141.861a1.07 1.07 0 0 1-.758-.312 1.072 1.072 0 1 1 1.515 0 1.07 1.07 0 0 1-.757.312"/><path fill="url(#N)" d="M69.325 141.861a1.0715 1.0715 0 1 1 .758-.312 1.08 1.08 0 0 1-.758.312"/><path fill="url(#N)" d="M66.207 141.861c-.272 0-.547-.104-.757-.312a1.072 1.072 0 1 1 1.515 0c-.21.208-.485.312-.758.312"/><use href="#J" x="-37.409" fill="url(#O)"/><path fill="url(#N)" d="M59.972 141.861a1.067 1.067 0 0 1-.755-1.825 1.07 1.07 0 1 1 .755 1.825"/><use href="#L" fill="url(#N)"/><path fill="url(#N)" d="M96.626 138.383a1.072 1.072 0 0 0 1.514-1.513 1.07021 1.07021 0 0 0-1.514 1.513"/><path fill="url(#N)" d="M93.51 138.383a1.064 1.064 0 0 0 1.512 0 1.069 1.069 0 1 0-1.513 0"/><path fill="url(#N)" d="M90.391 138.383a1.06 1.06 0 0 0 1.512 0 1.07 1.07 0 1 0-1.512 0"/><path fill="url(#N)" d="M87.273 138.383a1.065 1.065 0 0 0 1.513 0 1.069 1.069 0 1 0-1.513 0"/><path fill="url(#N)" d="M84.154 138.383a1.073 1.073 0 0 0 1.514 0 1.07 1.07 0 1 0-1.514 0"/><path fill="url(#N)" d="M81.04 138.383c.208.21.481.314.753.314a1.072 1.072 0 0 0 .76-1.827 1.06985 1.06985 0 1 0-1.513 1.513"/><path fill="url(#N)" d="M77.92 138.383a1.07 1.07 0 0 0 1.513 0 1.07 1.07 0 1 0-1.512 0"/><use href="#L" x="-24.939" fill="url(#E)"/><path fill="url(#N)" d="M71.685 138.383a1.067 1.067 0 0 0 1.515 0 1.072 1.072 0 0 0-1.515-1.513 1.074 1.074 0 0 0 0 1.513"/><path fill="url(#N)" d="M68.568 138.383a1.07021 1.07021 0 1 0 1.515-1.512 1.07021 1.07021 0 0 0-1.515 1.512"/><path fill="url(#N)" d="M65.45 138.383a1.07 1.07 0 0 0 1.515 0 1.07 1.07 0 1 0-1.515 0"/><use href="#L" x="-37.409" fill="url(#D)"/><path fill="url(#N)" d="M59.217 138.383c.206.21.482.314.755.314a1.07 1.07 0 1 0-.755-.314"/><path fill="url(#N)" d="M99.743 135.218a1.07 1.07 0 0 0 1.513 0 1.069 1.069 0 1 0-1.513 0"/><path fill="url(#N)" d="M96.626 135.218a1.066 1.066 0 0 0 1.514 0 1.07 1.07 0 1 0-1.514 0"/><path fill="url(#N)" d="M93.51 135.218a1.07 1.07 0 0 0 1.512 0 1.069 1.069 0 1 0-1.513 0"/><path fill="url(#N)" d="M90.391 135.218a1.067 1.067 0 0 0 1.512 0 1.07 1.07 0 1 0-1.512 0"/><path fill="url(#N)" d="M87.273 135.218a1.07021 1.07021 0 1 0 1.513-1.514 1.07021 1.07021 0 1 0-1.513 1.514"/><path fill="url(#N)" d="M84.154 135.218a1.071 1.071 0 1 0 0-1.514 1.073 1.073 0 0 0 0 1.514"/><path fill="url(#N)" d="M81.04 135.218a1.066 1.066 0 0 0 1.512 0 1.07021 1.07021 0 1 0-1.513 0"/><path fill="url(#N)" d="M77.92 135.218a1.066 1.066 0 0 0 1.513 0 1.07 1.07 0 1 0-1.512 0"/><path fill="url(#N)" d="M74.804 135.218a1.067 1.067 0 0 0 1.512 0 1.069 1.069 0 1 0-1.513 0"/><path fill="url(#N)" d="M71.685 135.218a1.07 1.07 0 0 0 1.515 0 1.072 1.072 0 1 0-1.515 0"/><path fill="url(#N)" d="M68.568 135.218c.21.208.483.315.757.315a1.073 1.073 0 0 0 .758-1.828 1.072 1.072 0 0 0-1.515 1.513"/><path fill="url(#N)" d="M65.45 135.218c.21.208.485.315.757.315a1.07 1.07 0 1 0-.757-.314"/><path fill="url(#N)" d="M62.334 135.218a1.07056 1.07056 0 1 0 1.515-1.513 1.07056 1.07056 0 0 0-1.515 1.513"/><path fill="url(#N)" d="M59.217 135.218a1.06 1.06 0 0 0 1.51 0 1.07 1.07 0 1 0-1.51 0"/><use href="#M" fill="url(#N)"/><path fill="url(#N)" d="M97.38 132.365a1.07 1.07 0 1 1 .76-1.827 1.072 1.072 0 0 1-.76 1.827"/><use href="#M" x="-6.234" fill="url(#F)"/><path fill="url(#N)" d="M91.147 132.365c-.273 0-.549-.105-.756-.314a1.07 1.07 0 1 1 .756.314"/><path fill="url(#N)" d="M88.03 132.365a1.0705 1.0705 0 1 1-.002-2.141 1.0705 1.0705 0 0 1 .002 2.141"/><path fill="url(#N)" d="M84.912 132.365a1.072 1.072 0 0 1-.758-1.827 1.07 1.07 0 1 1 .758 1.827"/><path fill="url(#N)" d="M81.793 132.365a1.06 1.06 0 0 1-.753-.314 1.067 1.067 0 0 1 0-1.513 1.07 1.07 0 1 1 .753 1.827"/><use href="#M" x="-21.823" fill="url(#G)"/><path fill="url(#N)" d="M75.56 132.365a1.072 1.072 0 0 1-.757-1.827 1.07 1.07 0 0 1 1.513 0 1.072 1.072 0 0 1-.755 1.827"/><path fill="url(#N)" d="M72.443 132.365c-.275 0-.55-.105-.758-.314a1.074 1.074 0 0 1 0-1.513 1.072 1.072 0 1 1 .758 1.827"/><path fill="url(#N)" d="M69.325 132.365a1.07 1.07 0 1 1 .001-2.14 1.07 1.07 0 0 1-.001 2.14"/><path fill="url(#N)" d="M66.207 132.365c-.272 0-.547-.105-.757-.314a1.074 1.074 0 0 1 0-1.513 1.07 1.07 0 1 1 .757 1.827"/><use href="#M" x="-37.409" fill="url(#D)"/><path fill="url(#B)" d="M59.972 132.368a1.06 1.06 0 0 1-.755-.317 1.068 1.068 0 1 1 1.51 0c-.207.21-.48.317-.755.317"/></g><path fill="url(#I)" stroke="url(#H)" stroke-linecap="round" stroke-linejoin="round" stroke-width=".529" d="m 11.878401,3.0592133 c -0.543996,0 -1.038312,0.054874 -1.483693,0.1673542 l -4.97e-4,4.966e-4 A 4.89348,4.89151 0 0 0 9.1725794,3.7174566 C 8.7910374,3.930498 8.3372104,4.2758833 7.7996728,4.7560955 a 0.176364,0.176293 0 0 0 -0.016891,0.245817 l 1.5321306,1.7929743 a 0.176364,0.176293 0 0 0 0.249642,0.019119 C 9.9773954,6.4569504 10.343537,6.1912694 10.657515,6.0162179 l 0.0012,-4.966e-4 c 0.312984,-0.176293 0.611064,-0.2599701 0.901692,-0.2599701 0.286405,0 0.481896,0.067786 0.616777,0.1882114 0.13662,0.121667 0.202446,0.2738749 0.202446,0.5038007 A 1.31652,1.31599 0 0 1 12.261143,6.996258 l -0.0015,0.00348 c -0.07452,0.17381 -0.219337,0.4017494 -0.4347,0.6721481 -0.212382,0.2619565 -0.683348,0.7756892 -1.402218,1.527045 L 7.9044976,11.744996 a 0.17388,0.17381 0 0 0 -0.050922,0.12415 v 1.835434 a 0.176364,0.176293 0 0 0 0.176364,0.176541 h 7.4914954 a 0.176364,0.176293 0 0 0 0.176364,-0.176293 v -2.301741 a 0.176364,0.176293 0 0 0 -0.176364,-0.176541 h -3.531999 c 0.934729,-0.843724 1.675209,-1.5265492 1.992913,-1.8612576 V 9.3647918 C 14.341535,8.9915969 14.63117,8.635783 14.851004,8.2938739 l 4.97e-4,-9.932e-4 q 0.329626,-0.5196919 0.486118,-1.0614825 l 4.97e-4,-4.966e-4 Q 15.500818,6.6883661 15.50057,6.0591739 c 0,-0.5720832 -0.156492,-1.0967411 -0.466744,-1.5575859 C 14.727549,4.034784 14.290365,3.6745007 13.737178,3.4274422 h -7.45e-4 C 13.188463,3.180632 12.567214,3.0592133 11.878401,3.0592133 m -8.7046814,0.00298 A 0.176364,0.176293 0 0 0 2.9971072,3.2387342 V 13.701352 a 0.176364,0.176293 0 0 0 0.1766124,0.176293 h 2.841696 a 0.176364,0.176293 0 0 0 0.176364,-0.176293 V 3.2387342 a 0.176364,0.176293 0 0 0 -0.176364,-0.176293 z m 14.2494664,0 A 0.176364,0.176293 0 0 0 17.246822,3.2387342 V 13.701352 a 0.176364,0.176293 0 0 0 0.176364,0.176293 h 2.827537 a 0.176364,0.176293 0 0 0 0.176364,-0.176293 v -3.294444 h 0.618516 c 1.298635,0 2.327508,-0.32726 3.054326,-0.9984154 0.73129,-0.6756243 1.094948,-1.6382834 1.094948,-2.8420418 0,-1.1004656 -0.351735,-1.9824272 -1.0557,-2.594735 C 23.43223,3.3559318 22.392925,3.0621929 21.045355,3.0621929 Z m 11.820362,1.4552859 a 0.176364,0.176293 0 0 0 -0.176364,0.1765413 v 2.6061568 h -2.644218 a 0.176364,0.176293 0 0 0 -0.176612,0.1765413 v 2.0320872 a 0.176364,0.176293 0 0 0 0.176364,0.176293 h 2.644218 v 2.5612152 a 0.176364,0.176293 0 0 0 0.176612,0.176541 h 2.039613 a 0.176364,0.176293 0 0 0 0.176612,-0.176293 V 9.6853471 h 2.643721 A 0.176364,0.176293 0 0 0 34.279858,9.5088058 V 7.4767186 A 0.176364,0.176293 0 0 0 34.103494,7.3004256 H 31.459773 V 4.6940205 a 0.176364,0.176293 0 0 0 -0.176364,-0.176293 z m -8.816213,1.1804182 h 0.553436 c 0.364899,0 0.61007,0.081939 0.762339,0.2192489 0.152269,0.1373099 0.235235,0.3429023 0.235235,0.6634576 0,0.3843684 -0.108799,0.6567535 -0.324162,0.8598629 l -9.94e-4,9.932e-4 c -0.211885,0.203606 -0.495061,0.3083886 -0.886788,0.3083886 h -0.339066 z"/></svg>