<svg xmlns="http://www.w3.org/2000/svg" viewBox="0 0 48 48"><g fill="#2088ff"><path d="M42.7 37.7H5.3A5 5 0 0 1 0 32.6V15.4a5 5 0 0 1 5.3-5.1h37.4a5 5 0 0 1 5.3 5.1v17.2a5 5 0 0 1-5.3 5.1m-37.4-24a2 2 0 0 0-1.7 1.7v17.2a2 2 0 0 0 1.7 1.7h37.4a2 2 0 0 0 1.7-1.7V15.4a2 2 0 0 0-1.7-1.7z"/><path d="M35.6 22.3H32a1.7 1.7 0 1 1 0-3.4h3.6a1.7 1.7 0 1 1 0 3.4m3.5 6.8H32a1.7 1.7 0 1 1 0-3.4h7.1a1.7 1.7 0 1 1 0 3.4M17.5 24a6 6 0 0 1-.4 2.3 5 5 0 0 1-1.2 1.7l1.5 1.8h-2l-1-1-1.7.3a5 5 0 0 1-2.5-.6 4 4 0 0 1-1.7-1.7 6 6 0 0 1-.7-2.8 6 6 0 0 1 .7-2.8 4 4 0 0 1 1.7-1.7 5 5 0 0 1 5 0 4 4 0 0 1 1.7 1.7 6 6 0 0 1 .6 2.8M12 25.5h1.9l.7 1 .6-1 .2-1.5a4 4 0 0 0-.7-2.4 2 2 0 0 0-2-.9 2 2 0 0 0-1.8.9A4 4 0 0 0 10 24a4 4 0 0 0 .8 2.4 2 2 0 0 0 1.9.9l.5-.1zm8 3.6V19h2v8.5h4.4v1.7Z"/></g></svg>