<svg xmlns="http://www.w3.org/2000/svg" xml:space="preserve" viewBox="0 0 48 48"><path fill="none" d="M35.4 20.9h-2.1v6.7h2.2c1.8 0 3.1-1.4 3.1-3.3q-.2-3.2-3.2-3.4"/><path fill="#58595b" d="M4.5 31.4V26q0-1-.7-1.7l-.5-.4.5-.5q.7-.6.6-1.6v-4.5l.1-.8q0-.4.6-.6H7v-1.8H5.7q-1.5-.2-2.7.7-.8.9-.8 2.1v4.2L2 22q-.2.5-.5.6l-.3.2H0v2h.9l.3.2.3.1.5.7.1.9v4.1q0 1.3 1 2.1 1 1 2.6.8h1.2v-1.9H5q-.4 0-.6-.5M47.3 23H47l-.3-.1-.3-.1q-.3-.2-.5-.6l-.1-1v-4.1q0-1.3-1-2.1-1-1-2.6-.8H41V16h2q.4 0 .6.5V22q0 1 .7 1.7l.5.4-.5.5q-.7.6-.6 1.6v4.5l-.1.8q0 .4-.6.6h-2v1.8h1.2q1.5.2 2.7-.7.8-.9.8-2.1v-4.2l.2-.9q.2-.4.5-.6l.3-.2H48v-2z"/><path fill="#1dbf73" d="M29.1 29.7V18.8h-2.7l-3.2 6.7-3.1-6.7h-2.7v10.9h2.2v-7.3l2.8 6.2H24l3-6.2v7.3zm6.3-10.9H31v10.9h4.5c3.4 0 5.7-2.3 5.7-5.5s-2.3-5.4-5.7-5.4m.1 8.8h-2.2v-6.7h2.1c1.9 0 3.3 1.4 3.3 3.4s-1.4 3.3-3.2 3.3m-18.1-9.5-2.6 2-.7.5-.2.2-.8.8c-1.5 1.3-2.5 2.4-2.5 2.4l-1.4-1.5-.6-.8-.5-.5q0-.4.5-.7l.5-.3.6-.3.3.3.5.7.7.7 2.6-2.3q-.9-.5-2.4-.5H6.9v10.9h2.4v-3.1h2.2q4.2-.1 4.3-4 0-1.3-.5-2.1z"/></svg>