<svg xmlns="http://www.w3.org/2000/svg" xml:space="preserve" viewBox="0 0 48 48"><defs><path id="g" d="M23 25.6a1.3 1.3 0 1 1-2.7 0c0-.7.6-1.3 1.4-1.3s1.3.6 1.3 1.3"/><path id="e" d="M23.3 15.7a1.4 1.4 0 1 1-2.7 0 1.4 1.4 0 0 1 2.7 0"/><path id="f" d="M20.5 20.6c0 .8-.7 1.4-1.5 1.4s-1.5-.6-1.5-1.4A1.5 1.5 0 0 1 19 19a1.5 1.5 0 0 1 1.5 1.5z"/><radialGradient id="a" cx="16" cy="20.5" r="11" fx="16" fy="20.5" gradientTransform="matrix(1.18 0 0 1.45 -2.7 -9.2)" gradientUnits="userSpaceOnUse"><stop offset="0" stop-color="red"/><stop offset=".6" stop-color="#ff2a2a"/><stop offset="1" stop-color="#521111"/></radialGradient><radialGradient id="b" cx="16" cy="14.9" r="11" fx="16" fy="14.9" gradientTransform="matrix(1.5 0 0 1.98 -7.9 -14)" gradientUnits="userSpaceOnUse"><stop offset="0" stop-color="#fff" stop-opacity=".6"/><stop offset=".7" stop-color="#500" stop-opacity=".7"/><stop offset="1" stop-color="#fff" stop-opacity=".2"/></radialGradient><linearGradient id="c" x1="4.7" x2="4.7" y1="28.4" y2="15.3" gradientUnits="userSpaceOnUse"><stop offset="0" stop-opacity=".8"/><stop offset="1" stop-color="#fff" stop-opacity="0"/></linearGradient><filter id="d" width="1.106" height="1.095" x="-.053" y="-.045"><feGaussianBlur stdDeviation=".3"/></filter></defs><radialGradient id="h" cx="-23" cy="27.6" r="15.6" gradientUnits="userSpaceOnUse"><stop offset="0" stop-color="#64b5f6"/><stop offset="1" stop-color="#7bc9ff"/></radialGradient><path d="M27.86 17.247h1.88v13.839h-1.88z"/><path fill="#483737" d="M25.664 7.328a1.18 1.18 0 0 0-.784.353 1.176 1.176 0 0 0 0 1.686l1.097 1.176a3.76 3.76 0 0 0-1.058 2.548v.196c-.588.275-1.176.628-1.647 1.059L21.9 13.013a1.18 1.18 0 0 0-.823-.392 1.18 1.18 0 0 0-.863.392 1.255 1.255 0 0 0 0 1.686l2.117 2.117a1.18 1.18 0 0 0 .667.313 11.37 11.37 0 0 0 5.841 1.686c1.96 0 4.117-.627 5.802-1.686a1.18 1.18 0 0 0 .667-.313l2.117-2.117a1.255 1.255 0 0 0 0-1.686 1.176 1.176 0 0 0-1.686 0l-1.372 1.333c-.51-.392-1.059-.784-1.647-1.098v-.157c0-.98-.392-1.881-1.058-2.587l1.176-1.176a1.176 1.176 0 0 0 0-1.686 1.176 1.176 0 0 0-1.725 0l-1.686 1.764-.627-.078-.588.04-1.725-1.687a1.22 1.22 0 0 0-.863-.353ZM17.823 20.07c-.627 0-1.176.588-1.176 1.176 0 .627.588 1.176 1.176 1.176h3.136a1.176 1.176 0 0 0 1.176-1.176 1.255 1.255 0 0 0-1.176-1.176zm18.818 0a1.255 1.255 0 0 0-1.176 1.176 1.255 1.255 0 0 0 1.176 1.176h3.136a1.255 1.255 0 0 0 1.176-1.176 1.255 1.255 0 0 0-1.176-1.176zm-13.996 6.664a1.18 1.18 0 0 0-.863.392l-1.568 1.569c-.47.47-.47 1.176.04 1.685s1.254.47 1.685 0l1.568-1.568a1.215 1.215 0 0 0 0-1.725 1.18 1.18 0 0 0-.862-.353m12.35 0a1.18 1.18 0 0 0-.824.392 1.215 1.215 0 0 0 0 1.686l1.568 1.568a1.215 1.215 0 0 0 1.686 0 1.176 1.176 0 0 0 0-1.725l-1.568-1.568a1.18 1.18 0 0 0-.863-.353"/><path fill="url(#a)" d="M9 9a13.1 13.1 0 0 0 6.2 22.3c-.2.1.4-10.7.8-18.9a9.8 9.8 0 0 1-7-3.3Zm7 3.5c-11-9-5.5-4.5 0 0M23 9a13.1 13.1 0 0 1-6.2 22.3c.2.1-.4-10.7-.8-18.9a9.8 9.8 0 0 0 7-3.3zm-7 3.5c11-9 5.5-4.5 0 0" transform="matrix(.76 0 0 .76 16.647 7.328)"/><path fill="url(#b)" stroke="url(#c)" stroke-linejoin="round" d="M8.46 9C.84 16.23 4.94 29.57 15.2 31.83c-.2.1.4-11.23.8-19.43-2.69-.1-5.76-1.29-7.54-3.3ZM16 12.5c-11-9-5.5-4.5 0 0ZM23.54 9c7.62 7.23 3.52 20.57-6.74 22.83.2.1-.4-11.23-.8-19.43 2.69-.1 5.76-1.29 7.54-3.3ZM16 12.5c11-9 5.5-4.5 0 0z" filter="url(#d)" transform="matrix(.72 0 0 .74 17.227 7.477)"/><g transform="matrix(-.8 .1 .1 .8 38.719 3.016)"><use href="#e"/><use href="#f"/><use href="#g"/></g><g transform="rotate(8 -11.18 135.396)scale(.8)"><use href="#e"/><use href="#f"/><use href="#g"/></g><path fill="#616161" d="M28.815-.003a19.19 19.19 0 0 0-19.19 19.189 19.2 19.2 0 0 0 4.046 11.785L.032 44.61l3.358 3.36 13.638-13.641a19.2 19.2 0 0 0 11.787 4.044 19.19 19.19 0 0 0 19.188-19.187A19.19 19.19 0 0 0 28.815-.004M28.802 3.6a15.6 15.6 0 0 1 15.6 15.6 15.6 15.6 0 0 1-15.6 15.6A15.6 15.6 0 0 1 13.2 19.2 15.6 15.6 0 0 1 28.802 3.6"/><path fill="#37474f" d="m9.7 41.6-3.3-3.3L0 44.7 3.3 48z"/><circle cx="-28.8" cy="19.2" r="15.6" fill="url(#h)" opacity=".416" transform="scale(-1 1)"/><path fill="#bbdefb" fill-opacity=".9" d="M20.5 9.9a10.8 10.8 0 0 1 16.6 0c.4.4.3 1.3-.2 1.6-.4.5-1.3.4-1.6 0a8.5 8.5 0 0 0-13 0c-.2.2-.6.4-1 .4l-.7-.2c-.5-.5-.5-1.4-.1-1.8"/></svg>