<svg xmlns="http://www.w3.org/2000/svg" height="64" width="64"><path d="M51.77 55.92a1.17 1.17 0 0 0 1.13-1.13v-6.26a1.17 1.17 0 0 0-1.13-1.13H33.03c-.16 0-.3-.06-.4-.17s-.17-.26-.17-.4V23.5c-.01-.24.14-.46.36-.55s.48-.04.65.13l5.65 5.66a1.16 1.16 0 0 0 1.59 0l4.42-4.42a1.16 1.16 0 0 0 0-1.59L30.66 8.26a1.14 1.14 0 0 0-.79-.34h-3.3a1.14 1.14 0 0 0-.79.34L11.3 22.72a1.16 1.16 0 0 0 0 1.59l4.4 4.42a1.16 1.16 0 0 0 1.59 0l5.66-5.66a.58.58 0 0 1 .65-.13c.23.1.36.3.36.55v31.3a1.17 1.17 0 0 0 1.13 1.13z" fill="#7972d1"/></svg>