<svg viewBox="0 0 64 64" xmlns="http://www.w3.org/2000/svg"><g fill="#54586f"><path d="m31.99 1.01.03.01c-7.93 0-15.84 3.03-21.9 9.06-12.06 12.09-12.06 31.68 0 43.76 9.76 9.76 24.39 11.63 36.02 5.65l12.6 3.38c1.8.48 2.87-.59 2.39-2.39l-3.14-11.74c7.75-11.98 6.38-28.17-4.1-38.67-6.03-6.03-13.96-9.06-21.9-9.06zm.03 5.18c1.66 0 3.3.16 4.93.48s3.22.78 4.77 1.42c1.55.62 3.06 1.42 4.48 2.36s2.79 2.04 4.05 3.3c1.1 1.1 2.06 2.25 2.92 3.48s1.61 2.52 2.22 3.83 1.13 2.71 1.5 4.1.64 2.81.78 4.23.16 2.87.08 4.29c-.11 1.42-.32 2.87-.64 4.26s-.78 2.79-1.37 4.13c-.56 1.34-1.26 2.65-2.06 3.89l2.63 9.76c.21.75.08 1.34-.27 1.72-.38.35-.96.48-1.72.29l-10.51-2.81c-1.21.62-2.47 1.15-3.75 1.55-1.29.43-2.57.72-3.91.94-1.31.21-2.65.32-3.99.32s-2.65-.08-3.99-.27c-1.31-.19-2.63-.48-3.91-.88s-2.55-.91-3.75-1.5c-1.21-.62-2.41-1.31-3.54-2.12s-2.2-1.72-3.22-2.73c-1.26-1.26-2.36-2.63-3.3-4.05s-1.74-2.92-2.36-4.48-1.1-3.16-1.42-4.77c-.32-1.63-.48-3.27-.48-4.93s.16-3.3.48-4.93.78-3.22 1.42-4.77c.62-1.55 1.42-3.06 2.36-4.48s2.04-2.79 3.3-4.05 2.63-2.36 4.05-3.3 2.92-1.74 4.48-2.36 3.16-1.1 4.77-1.42c1.63-.32 3.27-.48 4.93-.48z"/><path d="m19.14 33.78h9.79v-8.15h-9.83l-7.01 4.07 7.01 4.05v.02z"/><path d="m35.21 33.56v-8.15l6.75-3.26 7.27.53-4.07 6.02v.02l-.04.02-9.92 4.8"/><path d="m30.22 21.37v23.63h3.74v-23.63z"/><path d="m33.97 21.91v-.39h-3.72c.04-.99.88-1.75 1.86-1.75 1.03 0 1.88.83 1.88 1.88 0 .09 0 .2-.02.28"/></g></svg>