<svg viewBox="0 0 64 64" xmlns="http://www.w3.org/2000/svg"><g fill="#54586f"><path d="m31.99 1.01.03.01c-7.93 0-15.84 3.03-21.9 9.06-12.06 12.09-12.06 31.68 0 43.76 9.76 9.76 24.39 11.63 36.02 5.65l12.6 3.38c1.8.48 2.87-.59 2.39-2.39l-3.14-11.74c7.75-11.98 6.38-28.17-4.1-38.67-6.03-6.03-13.96-9.06-21.9-9.06zm.03 5.18c1.66 0 3.3.16 4.93.48s3.22.78 4.77 1.42c1.55.62 3.06 1.42 4.48 2.36s2.79 2.04 4.05 3.3c1.1 1.1 2.06 2.25 2.92 3.48s1.61 2.52 2.22 3.83 1.13 2.71 1.5 4.1.64 2.81.78 4.23.16 2.87.08 4.29c-.11 1.42-.32 2.87-.64 4.26s-.78 2.79-1.37 4.13c-.56 1.34-1.26 2.65-2.06 3.89l2.63 9.76c.21.75.08 1.34-.27 1.72-.38.35-.96.48-1.72.29l-10.51-2.81c-1.21.62-2.47 1.15-3.75 1.55-1.29.43-2.57.72-3.91.94-1.31.21-2.65.32-3.99.32s-2.65-.08-3.99-.27c-1.31-.19-2.63-.48-3.91-.88s-2.55-.91-3.75-1.5c-1.21-.62-2.41-1.31-3.54-2.12s-2.2-1.72-3.22-2.73c-1.26-1.26-2.36-2.63-3.3-4.05s-1.74-2.92-2.36-4.48-1.1-3.16-1.42-4.77c-.32-1.63-.48-3.27-.48-4.93s.16-3.3.48-4.93.78-3.22 1.42-4.77c.62-1.55 1.42-3.06 2.36-4.48s2.04-2.79 3.3-4.05 2.63-2.36 4.05-3.3 2.92-1.74 4.48-2.36 3.16-1.1 4.77-1.42c1.63-.32 3.27-.48 4.93-.48z"/><path d="m47.95 30.27q0 2.81-.9 5.16-.9 2.32-2.54 3.65-1.64 1.33-3.81 1.33-1.45 0-2.56-.68-1.11-.7-1.6-1.84h-.31q-2.11 2.52-5.37 2.52-3.46 0-5.45-2.07-1.99-2.09-1.99-5.7 0-4.12 2.62-6.64 2.62-2.52 6.84-2.52 1.68 0 3.69.33 2.03.31 3.34.76l-.45 9.55q0 2.71 1.48 2.71 1.25 0 1.99-1.82.74-1.84.74-4.79 0-3.14-1.31-5.55-1.31-2.42-3.69-3.69-2.36-1.27-5.41-1.27-3.95 0-6.86 1.62-2.91 1.62-4.47 4.69-1.54 3.05-1.54 7.05 0 5.39 2.87 8.28 2.89 2.87 8.36 2.87 2.07 0 4.55-.45 2.48-.47 4.88-1.35v3.75q-4.18 1.78-9.28 1.78-7.42 0-11.58-3.91-4.14-3.91-4.14-10.86 0-4.82 2.11-8.75 2.13-3.95 6.04-6.17 3.93-2.25 9.02-2.25 4.3 0 7.68 1.76 3.38 1.76 5.21 5 1.84 3.24 1.84 7.48zm-20 2.44q0 4.12 3.36 4.12 1.76 0 2.68-1.23.92-1.25 1.11-4.04l.25-4.32q-1-.21-2.25-.21-2.44 0-3.81 1.52-1.35 1.52-1.35 4.16z"/></g></svg>