<svg fill="#00d400" viewBox="0 0 64 64" xmlns="http://www.w3.org/2000/svg"><path d="m53 54.87v5.31a3 3 0 0 1 -3 3h-36a3 3 0 0 1 -3-3v-5.31a3 3 0 0 1 3-3h36a3 3 0 0 1 3 3zm-23.69-54.05a2.96 2.96 0 0 0 -2.91 2.96v23.45l-6.63-6.63a2.96 2.96 0 0 0 -4.18 0l-3.73 3.73a2.96 2.96 0 0 0 0 4.18l14.28 14.28a2.96 2.96 0 0 0 .03.04l3.73 3.73a2.96 2.96 0 0 0 .06.06 2.96 2.96 0 0 0 .3.24 2.96 2.96 0 0 0 .02.02 2.96 2.96 0 0 0 .1.07 2.96 2.96 0 0 0 .12.07 2.96 2.96 0 0 0 .21.11 2.96 2.96 0 0 0 .1.05 2.96 2.96 0 0 0 .06.02 2.96 2.96 0 0 0 .1.04 2.96 2.96 0 0 0 .01 0 2.96 2.96 0 0 0 .08.03 2.96 2.96 0 0 0 .1.03 2.96 2.96 0 0 0 .14.04 2.96 2.96 0 0 0 .12.03 2.96 2.96 0 0 0 .07.01 2.96 2.96 0 0 0 .13.02 2.96 2.96 0 0 0 .11.01 2.96 2.96 0 0 0 .13.01 2.96 2.96 0 0 0 .05 0 2.96 2.96 0 0 0 .1 0 2.96 2.96 0 0 0 .05 0 2.96 2.96 0 0 0 .04 0 2.96 2.96 0 0 0 .01 0 2.96 2.96 0 0 0 .13-.01 2.96 2.96 0 0 0 .11-.01 2.96 2.96 0 0 0 .13-.02 2.96 2.96 0 0 0 .07-.01 2.96 2.96 0 0 0 .12-.03 2.96 2.96 0 0 0 .14-.04 2.96 2.96 0 0 0 .1-.03 2.96 2.96 0 0 0 .08-.03 2.96 2.96 0 0 0 .01 0 2.96 2.96 0 0 0 .1-.04 2.96 2.96 0 0 0 .06-.02 2.96 2.96 0 0 0 .1-.05 2.96 2.96 0 0 0 .21-.11 2.96 2.96 0 0 0 .12-.07 2.96 2.96 0 0 0 .1-.07 2.96 2.96 0 0 0 .02-.02 2.96 2.96 0 0 0 .3-.24 2.96 2.96 0 0 0 .06-.06l3.79-3.76 14.27-14.28a2.96 2.96 0 0 0 0-4.18l-3.73-3.73a2.96 2.96 0 0 0 -4.18 0l-6.63 6.63v-23.46a2.96 2.96 0 0 0 -2.95-2.96h-5.28a2.96 2.96 0 0 0 -.05 0z"/></svg>