<svg height="64" width="64" xmlns="http://www.w3.org/2000/svg"><path d="m63.95 33.1a2.03 2.03 0 0 0 0-1.97c-6.13-11.3-18.1-18.95-31.85-18.95s-25.7 7.66-31.85 18.94a2.03 2.03 0 0 0 0 1.97c6.13 11.3 18.1 18.95 31.85 18.95s25.7-7.67 31.85-18.95z" fill="#f30"/><path d="m32.1 47.4c-8.45 0-15.3-6.85-15.3-15.3s6.85-15.3 15.3-15.3 15.3 6.85 15.3 15.3-6.85 15.3-15.3 15.3z" fill="#fff"/><path d="m32.1 24.3a7.72 7.72 0 0 0 -1.87.22 4.05 4.05 0 0 1 .99 2.65c0 2.24-1.8 4.04-4.04 4.04-1 0-1.93-.37-2.65-1a7.66 7.66 0 0 0 -.22 1.87 7.79 7.79 0 0 0 7.79 7.79c4.3 0 7.8-3.5 7.8-7.8s-3.5-7.8-7.8-7.8z" fill="#f30"/></svg>