<svg fill="#54586f" viewBox="0 0 64 64" xmlns="http://www.w3.org/2000/svg"><path d="m32 11.32c-9.98 0-18.33 7.09-20.26 16.51a.9.9 0 0 0 -.18-.02h-9.58a.94.94 0 0 0 -.7.32c-.18.2-.29.48-.28.76v6.22c0 .29.1.56.28.76a.94.94 0 0 0 .7.32h9.59a.9.9 0 0 0 .18-.02c1.92 9.42 10.27 16.51 20.25 16.51s18.33-7.09 20.26-16.51a.9.9 0 0 0 .18.02h9.58a.94.94 0 0 0 .7-.32c.18-.2.29-.48.28-.76v-6.22c0-.59-.44-1.07-.98-1.07h-9.59a.9.9 0 0 0 -.18.02c-1.92-9.42-10.27-16.52-20.25-16.52zm0 3.43c9.52 0 17.25 7.73 17.25 17.25s-7.73 17.25-17.25 17.25-17.25-7.73-17.25-17.25 7.73-17.25 17.25-17.25zm-2.14 4.83v10.43h-4.14c-1.04 0-1.46.8-.94 1.78l6.28 11.88c.33.62.78.85 1.2.69.25-.09.49-.32.69-.69l6.28-11.88c.52-.98.1-1.78-.94-1.78h-4.14v-10.43z"/></svg>