<svg viewBox="0 0 64 64" xmlns="http://www.w3.org/2000/svg"><path d="m32 11.32c-9.98 0-18.33 7.09-20.26 16.51a.98-1.07 0 0 0 -.17-.02h-9.59a.98-1.07 0 0 0 -.98 1.07v6.22a.98-1.07 0 0 0 .98 1.07h9.59a.98-1.07 0 0 0 .18-.02c1.92 9.44 10.27 16.53 20.25 16.53s18.33-7.09 20.26-16.51a.98-1.07 0 0 0 .18.02h9.58a.98-1.07 0 0 0 .98-1.08v-6.22a.98-1.07 0 0 0 -.98-1.08h-9.59a.98-1.07 0 0 0 -.18.02c-1.92-9.41-10.27-16.51-20.25-16.51zm0 3.43c9.52 0 17.25 7.73 17.25 17.25s-7.73 17.25-17.25 17.25-17.25-7.73-17.25-17.25 7.73-17.25 17.25-17.25z" fill="#54586f"/></svg>