<svg viewBox="0 0 64 64" xmlns="http://www.w3.org/2000/svg"><path d="m32 5.69c-16.54 0-30 11.8-30 26.31 0 5.92 2.29 11.69 6.46 16.32 1.65 3.13 1.54 8.68-5.37 11.92 6.22 2.63 11.2-.03 14.79-5.02 4.34 2.03 9.19 3.09 14.12 3.09 16.54 0 30-11.8 30-26.31s-13.46-26.31-30-26.31zm.59 5.77c4.05 0 7.23.89 9.53 2.67 2.31 1.78 3.46 4.2 3.46 7.27 0 2.2-.52 4.1-1.55 5.72-1.02 1.6-2.65 3.12-4.9 4.55-1.91 1.23-3.11 2.14-3.6 2.72-.47.56-.71 1.23-.71 2.02v1.39h-8.36v-2.34c0-1.78.36-3.28 1.09-4.49.73-1.23 2.01-2.43 3.87-3.6 1.47-.93 2.52-1.76 3.16-2.51a3.78 3.78 0 0 0 .98-2.56c0-.76-.35-1.36-1.04-1.8-.69-.45-1.59-.68-2.7-.68-2.74 0-5.95.97-9.62 2.91l-3.79-7.41c4.52-2.58 9.24-3.87 14.17-3.87zm-1.55 30.64c1.82 0 3.21.46 4.17 1.39.98.91 1.47 2.19 1.47 3.84s-.51 2.93-1.53 3.84c-1 .91-2.37 1.36-4.11 1.36-1.8 0-3.21-.44-4.22-1.33-1.02-.91-1.53-2.2-1.53-3.87s.48-2.96 1.44-3.87c.98-.91 2.42-1.36 4.3-1.36z" fill="#54586f"/></svg>