<svg viewBox="0 0 64 64" xmlns="http://www.w3.org/2000/svg"><path d="m31.94.01c-7.67 0-14.77 2.75-20.53 7.63v-1.44c0-2.35-1.94-4.27-4.28-4.27h-2.87c-2.36.01-4.25 1.95-4.25 4.27v16.94c0 1.13.46 2.2 1.24 3 .7.72 1.65 1.1 2.64 1.18a.85.85 0 0 0 .37.08h16.98a4.25 4.25 0 0 0 4.24-4.24v-2.86c0-2.34-1.9-4.3-4.24-4.3h-2.08c3.6-2.82 8.07-4.6 12.77-4.6 8.7 0 16.46 5.52 19.34 13.73.8 2.28 2.97 3.82 5.38 3.82a5.8 5.8 0 0 0 1.88-.32c1.44-.5 2.6-1.54 3.25-2.9s.76-2.93.24-4.37c-4.47-12.78-16.55-21.36-30.08-21.36zm-24.81 34.82c-.63 0-1.27.1-1.88.32-1.44.5-2.6 1.55-3.25 2.9-.66 1.37-.76 2.93-.24 4.37 4.47 12.78 16.54 21.36 30.08 21.36 7.67 0 14.77-2.75 20.53-7.63v1.43c0 2.35 1.95 4.27 4.3 4.27h2.87c2.35 0 4.24-1.95 4.24-4.27v-16.95c0-1-.4-1.94-1.06-2.7a.85.85 0 0 0 0 0 .85.85 0 0 0 -.19-.3 4.19 4.19 0 0 0 -3-1.25h-16.98a4.25 4.25 0 0 0 -4.24 4.24v2.87c0 1.13.44 2.2 1.24 3.03.8.8 1.86 1.27 3 1.27h2.08c-3.6 2.82-8.07 4.6-12.77 4.6-8.7 0-16.46-5.52-19.34-13.72-.8-2.3-2.97-3.82-5.4-3.82z" fill="#3b6bbf"/></svg>