<svg viewBox="0 0 64 64" xmlns="http://www.w3.org/2000/svg"><path d="m37.58.97c-.62-.61-1.48-.97-2.38-.97a1.72 1.72 0 0 0 -.01 0l-6.41.03c-1.81 0-3.34 1.54-3.34 3.34a1.72 1.72 0 0 0 0 .01l.08 22.13-22.19-.05c-1.81 0-3.33 1.54-3.33 3.34v6.43c0 1.8 1.54 3.34 3.34 3.34l22.16.08-.05 22c0 1.8 1.54 3.34 3.34 3.34h6.44a3.4 3.38 0 0 0 3.34-3.34l.05-22.05 22.02-.05c1.84 0 3.41-1.53 3.34-3.4v-6.37c0-1.8-1.54-3.34-3.34-3.34a1.72 1.72 0 0 0 -.01 0l-21.99.07-.09-22.17a3.35 3.35 0 0 0 -.97-2.37z" fill="#71c837"/></svg>