<svg height="64" width="64" xmlns="http://www.w3.org/2000/svg"><path d="m37.57.97c-.61-.61-1.47-.97-2.37-.97a1.72 1.72 0 0 0 -.01 0l-6.4.03c-1.8 0-3.34 1.54-3.34 3.34a1.72 1.72 0 0 0 0 .01l.08 22.13-22.17-.05a1.72 1.72 0 0 0 0 0c-1.8 0-3.33 1.54-3.33 3.34v6.43c0 1.8 1.54 3.34 3.34 3.34l22.14.08-.05 22a1.72 1.72 0 0 0 0 0c0 1.8 1.54 3.34 3.34 3.34h6.43a3.39 3.39 0 0 0 3.34-3.34l.05-22.06 22-.05c1.84 0 3.4-1.53 3.34-3.4v-6.37c0-1.8-1.54-3.34-3.34-3.34a1.72 1.72 0 0 0 -.01 0l-21.97.08-.1-22.17a3.35 3.35 0 0 0 -.97-2.37z" fill="#71c837"/></svg>