<svg xmlns="http://www.w3.org/2000/svg" viewBox="0 0 512 512"><path d="M436.966 292.568V484.57c0 15.148-11.857 27.428-26.483 27.428H83.862c-14.626 0-26.483-12.28-26.483-27.428V27.428C57.38 12.28 69.236 0 83.862 0h326.62c14.626 0 26.483 12.28 26.483 27.428v191.997" fill="#5b5d6e"/><path d="M128 512H83.862c-14.626 0-26.483-11.857-26.483-26.483V26.483C57.38 11.857 69.236 0 83.862 0H128z" fill="#464655"/><path d="M101.517 494.345a8.83 8.83 0 0 1-8.828-8.828V26.483a8.83 8.83 0 0 1 8.828-8.828 8.83 8.83 0 0 1 8.828 8.828v459.034a8.83 8.83 0 0 1-8.828 8.828zm335.45-194.207h-44.138c-24.376 0-44.138-19.762-44.138-44.138s19.762-44.138 44.138-44.138h44.138a17.66 17.66 0 0 1 17.655 17.655v52.966a17.66 17.66 0 0 1-17.655 17.655z" fill="#515262"/><path d="M313.38 0v114.76c0 3.637 4.152 5.714 7.062 3.53l28.248-21.186 28.248 21.186c2.9 2.183 7.062.106 7.062-3.53V0z" fill="#ff6464"/><circle cx="392.828" cy="256" fill="#c7cfe2" r="17.655"/></svg>