<svg xmlns="http://www.w3.org/2000/svg" viewBox="0 0 64 64"><defs/><path fill="#5b5d6e" d="M53.44 36.11v23.04c0 1.82-1.42 3.29-3.18 3.29h-39.2c-1.76 0-3.18-1.47-3.18-3.29V4.29C7.88 2.47 9.3 1 11.06 1h39.19c1.76 0 3.18 1.47 3.18 3.29v23.04"/><path fill="#464655" d="M16.36 62.44h-5.3c-1.75 0-3.18-1.42-3.18-3.18V4.18C7.88 2.43 9.3 1 11.06 1h5.3z"/><path fill="#515262" d="M13.18 60.32a1.06 1.06 0 01-1.06-1.06V4.18a1.06 1.06 0 112.12 0v55.08a1.06 1.06 0 01-1.06 1.06zm40.25-23.31h-5.3c-2.93 0-5.3-2.37-5.3-5.3s2.37-5.3 5.3-5.3h5.3a2.12 2.12 0 012.12 2.12v6.36a2.12 2.12 0 01-2.12 2.12z"/><path fill="#ff6464" d="M38.61 1v13.77c0 .44.5.69.85.42l3.39-2.54 3.39 2.54c.35.26.85.01.85-.42V1z"/><circle cx="48.14" cy="31.72" r="2.12" fill="#c7cfe2"/></svg>