<svg viewBox="0 0 64 64" xmlns="http://www.w3.org/2000/svg"><path d="m53.44 36.11v23.04c0 1.82-1.42 3.29-3.18 3.29h-39.2c-1.76 0-3.18-1.47-3.18-3.29v-54.86c0-1.82 1.42-3.29 3.18-3.29h39.19c1.76 0 3.18 1.47 3.18 3.29v23.04" fill="#5b5d6e"/><path d="m16.36 62.44h-5.3c-1.75 0-3.18-1.42-3.18-3.18v-55.08c0-1.75 1.42-3.18 3.18-3.18h5.3z" fill="#464655"/><path d="m13.18 60.32a1.06 1.06 0 0 1 -1.06-1.06v-55.08a1.06 1.06 0 1 1 2.12 0v55.08a1.06 1.06 0 0 1 -1.06 1.06zm40.25-23.31h-5.3c-2.93 0-5.3-2.37-5.3-5.3s2.37-5.3 5.3-5.3h5.3a2.12 2.12 0 0 1 2.12 2.12v6.36a2.12 2.12 0 0 1 -2.12 2.12z" fill="#515262"/><path d="m38.61 1v13.77c0 .44.5.69.85.42l3.39-2.54 3.39 2.54c.35.26.85.01.85-.42v-13.77z" fill="#ff6464"/><circle cx="48.14" cy="31.72" fill="#c7cfe2" r="2.12"/></svg>