<svg height="64" width="64" xmlns="http://www.w3.org/2000/svg"><g fill="#eeb490"><circle cx="20.59" cy="25.93" r="4.35"/><circle cx="43.31" cy="25.93" r="4.35"/></g><path d="m25.77 40.18-10.16 4.03a7.62 7.62 0 0 0 -6.65 7.54v.32a30.95 30.95 0 0 0 11.22 7.93h23.64a30.95 30.95 0 0 0 11.22-7.93v-.32c0-3.84-2.84-7.09-6.65-7.54l-10.16-4.03z" fill="#5f8dd3"/><path d="m23.6 42.38v3.7c0 4.7 3.84 8.66 8.55 8.59 4.55-.07 8.22-3.81 8.22-8.4v-3.88c0-1.34-1.08-2.43-2.43-2.43h-11.95c-1.31.04-2.39 1.12-2.39 2.43z" fill="#807576"/><path d="m26.25 37.08v6.12a5.75 5.75 0 1 0 11.5 0v-6.12z" fill="#eeb490"/><path d="m37.79 14.42h-11.58a4.93 4.93 0 0 0 -4.93 4.93v11.08c0 5.94 4.82 10.71 10.71 10.71 5.94 0 10.71-4.82 10.71-10.71v-11.09a4.93 4.93 0 0 0 -4.93-4.93z" fill="#faccb4"/><g fill="#56545f"><path d="m42.64 9.76s8.23 1.08 0 16.61v-6.37s-.59-4.58-3.39-4.84z"/><path d="m37.05 3.96h-10.21c-.41 0-.82.03-1.19.11-15.42 0-4.4 23.09-4.4 23.09 0-8.9 5.58-8.94 5.58-8.94h10.24c3.95 0 7.12-3.21 7.12-7.12 0-3.95-3.21-7.15-7.15-7.15z"/></g><path d="m32 1c-17.11 0-31 13.89-31 31s13.89 31 31 31 31-13.89 31-31-13.89-31-31-31zm0 7.86c4.07 0 7.91 1.07 11.25 2.93a1.89 1.89 0 0 1 .41 2.98l-28.88 28.89a1.89 1.89 0 0 1 -2.99-.41c-1.86-3.34-2.93-7.18-2.93-11.25 0-12.74 10.4-23.14 23.14-23.14zm18.5 10.92a1.89 1.89 0 0 1 1.71.97c1.86 3.33 2.93 7.17 2.93 11.25 0 12.74-10.4 23.14-23.14 23.14-4.07 0-7.91-1.07-11.25-2.93a1.89 1.89 0 0 1 -.41-2.99l28.88-28.88a1.89 1.89 0 0 1 1.28-.55z" fill="#d40000"/></svg>