<svg xmlns="http://www.w3.org/2000/svg" xmlns:xlink="http://www.w3.org/1999/xlink" viewBox="0 0 64 64"><linearGradient id="b" gradientUnits="userSpaceOnUse"><stop offset="0" stop-color="#ff6969"/><stop offset="1" stop-color="#ff5151"/></linearGradient><linearGradient id="a" gradientUnits="userSpaceOnUse"><stop offset="0" stop-color="#4b82d5"/><stop offset="1" stop-color="#80a5dd"/></linearGradient><linearGradient id="c" x1="761.9" x2="11.4" y1="411" y2="270.5" gradientUnits="userSpaceOnUse"><stop offset="0" stop-color="#abe6ab"/><stop offset=".5" stop-color="#66d266"/><stop offset="1" stop-color="#6cd76c"/></linearGradient><linearGradient id="d" x1="550" x2="50.7" y1="707.4" y2="336.4" gradientUnits="userSpaceOnUse"><stop offset="0" stop-color="#8edc8e"/><stop offset=".2" stop-color="#7ad77a"/><stop offset=".6" stop-color="#66d266"/><stop offset="1" stop-color="#6cd76c"/></linearGradient><linearGradient id="e" x1="293.6" x2="538" y1="255.8" y2="439.4" xlink:href="#a"/><linearGradient id="f" x1="119.3" x2="391.7" y1="293.1" y2="629.2" xlink:href="#a"/><linearGradient id="g" x1="646.7" x2="426.7" y1="292.9" y2="190.4" xlink:href="#b"/><linearGradient id="h" x1="471.2" x2="274.7" y1="452.3" y2="341.6" xlink:href="#b"/><g stroke-linejoin="round"><path fill="#5fd35f" stroke="#217821" stroke-width=".9" d="M26.3 22.7l-24 14.5 34 25.8L59 44.3s1-1 1-1.8c-.2-1.6-1.2-1.9-1.2-1.9L30.3 22.4s-.9-.4-1.9-.3c-1.2.1-2 .6-2 .6z"/><path fill="#f0f0f0" stroke="#646464" stroke-width=".1" d="M58.4 42.4L35.3 61.5l-.8-2 .4-2.9L57 38.5s-.2 1.2 0 2.3 1.3 1.6 1.3 1.6z"/><g stroke="#217821" stroke-width="10"><path fill="url(#c)" d="M304.3 159.8L58.7 307.6l380 281.8 238-195.9s12-10.1 11-19.7c-1.7-17.7-13-21.4-13-21.4l-322-198.2s-10.4-4.6-21-3.6a76.2 76.2 0 00-27.4 9.3z" transform="matrix(.09 0 0 .09 -2.8 4.3)"/><path fill="url(#d)" d="M58.8 307.6s-5.3 6-6.9 11.2a73.6 73.6 0 00-.7 33c2 7.7 5.8 13.9 5.8 13.9l377 286s-7.5-23.9-5-38.6a62 62 0 019.7-23.8z" transform="matrix(.09 0 0 .09 -2.8 4.3)"/></g><path fill="#4b82d5" stroke="#304f84" stroke-width=".9" d="M31.7 15L3 25.6l24.4 31.2L59 42.4s1.3-.6 1.4-1.4c.3-1.6-.6-2.2-.6-2.2L36 15.8s-.8-.7-1.7-.9c-1.3-.2-2.6.2-2.6.2z"/><path fill="#f0f0f0" stroke="#646464" stroke-width=".1" d="M58.8 40.6l-32 14.8-1-2.4.7-3.4 31.8-14.3s-.6 1.5-.5 2.6 1 2.7 1 2.7z"/><g stroke="#304f84" stroke-width="10"><path fill="url(#e)" d="M395.3 76.8l-331 117.9L346 539.3l357.8-160.5s14.4-6.6 16-16.1c3-17.5-7-24-7-24L443.5 84.1s-8.7-7.2-19.2-9c-14.2-2.4-29 1.6-29 1.6z" transform="matrix(.09 0 0 .09 -3.2 2)"/><path fill="url(#f)" d="M64.3 194.7s-5.6 3.3-8 15c-2 10.4-1.2 17.8.3 28.2 1.4 9 4.7 13.8 4.7 13.8l278.4 355.4s-4.1-10.6-5.8-19.9-.7-24 2.2-31.7 9.6-16.4 9.6-16.4z" transform="matrix(.09 0 0 .09 -3.2 2)"/></g><path fill="#f55" stroke="#a02c2c" stroke-width=".9" d="M22 4.9L1.3 19.7l38 23.5 23-16s1-1 .8-1.8c-.2-1.2-1.3-1.8-1.3-1.8l-36-19.3s-1-.4-2-.2c-1.2.3-2 .8-2 .8z"/><path fill="#f0f0f0" stroke="#646464" stroke-width=".1" d="M61.5 25.8l-23.2 16-1-1.9.2-3 22.3-15s-.1 1.2.3 2.3 1.4 1.6 1.4 1.6z"/><g stroke="#a02c2c" stroke-width="10"><path fill="url(#g)" d="M323.9 54.6L87.7 195.2l425.2 256L755 283.4s11-11.3 9.2-20.8c-2.4-13.4-15-20-15-20L371.5 44.4s-10.7-3.6-21.2-1.6c-14.2 2.8-26.4 11.8-26.4 11.8z" transform="matrix(.09 0 0 .09 -6.9 -3)"/><path fill="url(#h)" d="M87.8 195.2S83 201.8 82 207c-1.8 8-1 23.5 2.4 32.9 2.7 7.6 7.2 13.3 7.2 13.3l422.8 260.4s-10-23-8.8-37.8c2.2-17.1 7.3-24.7 7.3-24.7z" transform="matrix(.09 0 0 .09 -6.9 -3)"/></g></g></svg>