<svg height="64" width="64" xmlns="http://www.w3.org/2000/svg" xmlns:xlink="http://www.w3.org/1999/xlink"><linearGradient id="a" gradientUnits="userSpaceOnUse"><stop offset="0" stop-color="#ff6969"/><stop offset="1" stop-color="#ff5151"/></linearGradient><linearGradient id="b" gradientUnits="userSpaceOnUse"><stop offset="0" stop-color="#4b82d5"/><stop offset="1" stop-color="#80a5dd"/></linearGradient><linearGradient id="c" gradientUnits="userSpaceOnUse" x1="761.92" x2="11.363" y1="411.03" y2="270.48"><stop offset="0" stop-color="#abe6ab"/><stop offset=".5" stop-color="#66d266"/><stop offset="1" stop-color="#6cd76c"/></linearGradient><linearGradient id="d" gradientUnits="userSpaceOnUse" x1="549.98" x2="50.71" y1="707.37" y2="336.36"><stop offset="0" stop-color="#8edc8e"/><stop offset=".232" stop-color="#7ad77a"/><stop offset=".633" stop-color="#66d266"/><stop offset="1" stop-color="#6cd76c"/></linearGradient><linearGradient id="e" x1="293.647" x2="538.017" xlink:href="#b" y1="255.773" y2="439.373"/><linearGradient id="f" x1="119.297" x2="391.737" xlink:href="#b" y1="293.143" y2="629.213"/><linearGradient id="g" x1="646.74" x2="426.73" xlink:href="#a" y1="292.891" y2="190.42"/><linearGradient id="h" x1="471.199" x2="274.657" xlink:href="#a" y1="452.276" y2="341.625"/><g stroke-linejoin="round"><path d="m26.339 22.656-23.996 14.561 33.942 25.763 22.666-18.67s1.089-.916 1.004-1.779c-.156-1.588-1.171-1.923-1.171-1.923l-28.452-18.194s-.927-.421-1.884-.324c-1.29.129-2.108.567-2.108.567z" fill="#5fd35f" stroke="#217821" stroke-width=".9"/><path d="m58.385 42.432-23.127 19.116-.775-1.995.402-2.943 22.194-18.147s-.203 1.255.1 2.384 1.207 1.586 1.207 1.586z" fill="#f0f0f0" stroke="#646464" stroke-width=".09"/><g stroke="#217821" stroke-width="10" transform="matrix(.09 0 0 .09 -2.817 4.31)"><path d="m304.28 159.84-245.53 147.76 379.88 281.8 238-195.87s12.1-10.178 11.15-19.77c-1.73-17.64-13.016-21.365-13.016-21.365l-322.14-198.15s-10.304-4.675-20.937-3.6c-14.33 1.437-27.4 9.205-27.4 9.205z" fill="url(#c)"/><path d="m58.813 307.56s-5.278 6.135-6.914 11.232c-2.475 7.7-3.194 23.3-.736 32.947 2 7.808 5.85 13.954 5.85 13.954l377.07 285.98s-7.626-23.835-5.12-38.523c3.912-16.8 9.693-23.807 9.693-23.807z" fill="url(#d)"/></g><path d="m31.677 15.059-28.71 10.427 24.456 31.194 31.482-14.263s1.292-.595 1.439-1.45c.27-1.572-.621-2.164-.621-2.164l-23.715-23.078s-.783-.651-1.731-.812c-1.278-.217-2.598.146-2.598.146z" fill="#4b82d5" stroke="#304f84" stroke-width=".9"/><path d="m58.781 40.597-31.971 14.764-1.078-2.407.754-3.377 31.792-14.261s-.531 1.494-.489 2.589.992 2.691.992 2.691z" fill="#f0f0f0" stroke="#646464" stroke-width=".09"/><g stroke="#304f84" stroke-width="10" transform="matrix(.09 0 0 .09 -3.166 2.011)"><path d="m395.25 76.823-331 117.85 281.75 344.6 357.8-160.48s14.354-6.614 15.986-16.113c3.002-17.468-6.895-24.048-6.895-24.048l-269.5-254.4s-8.7-7.236-19.234-9.023c-14.2-2.408-28.87 1.62-28.87 1.62z" fill="url(#e)"/><path d="m64.283 194.66s-5.56 3.305-7.893 15.084c-2.057 10.4-1.305 17.722.255 28.174 1.33 8.917 4.633 13.827 4.633 13.827l278.4 355.4s-4.1-10.606-5.745-19.904-.772-24.13 2.117-31.738 9.674-16.4 9.674-16.4z" fill="url(#f)"/></g><path d="m21.906 4.902-20.505 14.82 38.061 23.459 22.927-15.903s.956-1.01.828-1.868c-.174-1.165-1.35-1.801-1.35-1.801l-36.009-19.335s-.964-.33-1.907-.142c-1.271.253-2.043.767-2.043.767z" fill="#f55" stroke="#a02c2c" stroke-width=".9"/><path d="m61.465 25.827-23.162 16.029-.963-1.912.117-2.968 22.325-15.156s-.082 1.269.329 2.364 1.354 1.643 1.354 1.643z" fill="#f0f0f0" stroke="#646464" stroke-width=".09"/><g stroke="#a02c2c" stroke-width="10" transform="matrix(.09 0 0 .09 -6.867 -3.059)"><path d="m323.87 54.647-236.17 140.57 425.22 256 242.08-167.86s10.912-11.266 9.198-20.75c-2.428-13.434-15-20.014-15-20.014l-377.738-198.171s-10.706-3.662-21.187-1.58c-14.125 2.808-26.4 11.798-26.4 11.798z" fill="url(#g)"/><path d="m87.76 195.18s-4.664 6.614-5.803 11.845c-1.723 7.913-.938 23.508 2.435 32.865 2.733 7.58 7.163 13.327 7.163 13.327l422.8 260.4s-9.882-23-8.798-37.853c2.28-17.098 7.36-24.628 7.36-24.628z" fill="url(#h)"/></g></g></svg>