<svg xmlns="http://www.w3.org/2000/svg" xmlns:xlink="http://www.w3.org/1999/xlink" height="64" width="64"><style><![CDATA[.E{stroke-linejoin:round}.F{stroke-width:10}.G{fill:#f0f0f0}.H{stroke:#646464}]]></style><g transform="translate(-.38 -.04)" class="E"><g transform="matrix(.090408 0 0 .090408 -2.436909 4.349788)"><path d="M323.95 203.84L57.33 365.63l377.13 286.25L686.3 444.44s12.1-10.178 11.15-19.77c-1.73-17.64-13.016-21.365-13.016-21.365l-316.13-202.15s-10.304-4.675-20.937-3.6c-14.33 1.437-23.418 6.3-23.418 6.3z" fill="#5fd35f" stroke="#217821" class="F"/><path d="M680.02 423.58l-256.97 212.4-8.614-22.172 4.47-32.7 246.6-201.63s-2.258 13.943 1.114 26.492 13.408 17.626 13.408 17.626z" class="G H"/><g stroke="#217821" class="F"><path d="M304.28 159.84L58.75 307.6l379.88 281.8 238-195.87s12.1-10.178 11.15-19.77c-1.73-17.64-13.016-21.365-13.016-21.365l-322.14-198.15s-10.304-4.675-20.937-3.6c-14.33 1.437-27.4 9.205-27.4 9.205z" fill="url(#C)"/><path d="M58.813 307.56s-5.278 6.135-6.914 11.232c-2.475 7.7-3.194 23.3-.736 32.947 2 7.808 5.85 13.954 5.85 13.954l377.07 285.98s-7.626-23.835-5.12-38.523c3.912-16.8 9.693-23.807 9.693-23.807z" fill="url(#D)"/></g></g><g transform="matrix(.090408 0 0 .090408 -2.785523 2.05116)"><path d="M387.14 144.98l-319 115.85 271.73 346.6 349.8-158.48s14.354-6.614 15.986-16.113c3.002-17.468-6.895-24.048-6.895-24.048l-263.5-256.42s-8.7-7.236-19.234-9.023c-14.2-2.408-28.87 1.62-28.87 1.62z" fill="#4b82d5" stroke="#304f84" class="F"/><path d="M688.3 428.73L333.07 592.77l-11.974-26.743 8.382-37.52 353.24-158.46s-5.9 16.595-5.434 28.77 11.018 29.9 11.018 29.9z" class="G H"/><g stroke="#304f84" class="F"><path d="M395.25 76.823l-331 117.85L346 539.273l357.8-160.48s14.354-6.614 15.986-16.113c3.002-17.468-6.895-24.048-6.895-24.048l-269.5-254.4s-8.7-7.236-19.234-9.023c-14.2-2.408-28.87 1.62-28.87 1.62z" fill="url(#E)"/><path d="M64.283 194.66s-5.56 3.305-7.893 15.084c-2.057 10.4-1.305 17.722.255 28.174 1.33 8.917 4.633 13.827 4.633 13.827l278.4 355.4s-4.1-10.606-5.745-19.904-.772-24.13 2.117-31.738 9.674-16.4 9.674-16.4z" fill="url(#F)"/></g></g><g transform="matrix(.090408 0 0 .090408 -6.487218 -3.01884)"><path d="M319.7 88.458L91.87 253.128l422.9 260.66 254.74-176.7s10.622-11.22 9.198-20.75c-1.933-12.94-15-20.014-15-20.014l-400.1-214.83s-10.706-3.662-21.187-1.58c-14.125 2.808-22.704 8.523-22.704 8.523z" fill="#f55" stroke="#a02c2c" class="F"/><path d="M759.24 320.95l-257.36 178.1-10.7-21.24 1.3-32.98 248.06-168.4s-.907 14.095 3.656 26.263 15.04 18.255 15.04 18.255z" class="G H"/><g stroke="#a02c2c" class="F"><path d="M323.87 54.647L87.7 195.217l425.22 256L755 283.357s10.912-11.266 9.198-20.75c-2.428-13.434-15-20.014-15-20.014L371.46 44.422s-10.706-3.662-21.187-1.58c-14.125 2.808-26.4 11.798-26.4 11.798z" fill="url(#G)"/><path d="M87.76 195.18s-4.664 6.614-5.803 11.845c-1.723 7.913-.938 23.508 2.435 32.865 2.733 7.58 7.163 13.327 7.163 13.327l422.8 260.4s-9.882-23-8.798-37.853c2.28-17.098 7.36-24.628 7.36-24.628z" fill="url(#H)"/></g></g></g><defs><linearGradient id="A" gradientUnits="userSpaceOnUse"><stop offset="0" stop-color="#ff6969"/><stop offset="1" stop-color="#ff5151"/></linearGradient><linearGradient id="B" gradientUnits="userSpaceOnUse"><stop offset="0" stop-color="#4b82d5"/><stop offset="1" stop-color="#80a5dd"/></linearGradient><linearGradient x1="761.92" y1="411.03" x2="11.363" gradientUnits="userSpaceOnUse" y2="270.48" id="C"><stop offset="0" stop-color="#abe6ab"/><stop offset=".5" stop-color="#66d266"/><stop offset="1" stop-color="#6cd76c"/></linearGradient><linearGradient x1="549.98" y1="707.37" x2="50.71" gradientUnits="userSpaceOnUse" y2="336.36" id="D"><stop offset="0" stop-color="#8edc8e"/><stop offset=".232" stop-color="#7ad77a"/><stop offset=".633" stop-color="#66d266"/><stop offset="1" stop-color="#6cd76c"/></linearGradient><linearGradient x1="293.647" y1="255.773" x2="538.017" xlink:href="#B" y2="439.373" id="E"/><linearGradient x1="119.297" y1="293.143" x2="391.737" xlink:href="#B" y2="629.213" id="F"/><linearGradient x1="646.74" y1="292.891" x2="426.73" xlink:href="#A" y2="190.42" id="G"/><linearGradient x1="471.199" y1="452.276" x2="274.657" xlink:href="#A" y2="341.625" id="H"/></defs></svg>