<svg xmlns="http://www.w3.org/2000/svg" viewBox="0 0 512 512"><path d="M216.706 67.794L177.413 28.5c-6.52-6.516-6.52-17.092 0-23.6a16.7 16.7 0 0 1 23.61 0l39.294 39.294c6.52 6.516 6.52 17.092 0 23.6s-17.087 6.522-23.6 0z" fill="#79695a"/><path d="M271.685 67.794c-6.52-6.516-6.52-17.092 0-23.6L310.98 4.9c6.52-6.52 17.087-6.52 23.6 0s6.52 17.092 0 23.6l-39.294 39.294c-6.523 6.522-17.088 6.522-23.6 0zM489.74 304.696h-66.783A16.7 16.7 0 0 1 406.26 288a16.7 16.7 0 0 1 16.696-16.696h66.783A16.7 16.7 0 0 1 506.435 288a16.7 16.7 0 0 1-16.696 16.696z" fill="#6c5b52"/><path d="M89.044 304.696H22.26A16.7 16.7 0 0 1 5.565 288a16.7 16.7 0 0 1 16.696-16.696h66.783A16.7 16.7 0 0 1 105.74 288a16.7 16.7 0 0 1-16.696 16.696zm-10.13 171.517c-6.52-6.52-6.52-17.092 0-23.6l33.522-33.516c6.52-6.52 17.087-6.52 23.6 0s6.52 17.092 0 23.6l-33.522 33.516c-6.522 6.52-17.087 6.52-23.6 0zm45.164-289.298l-45.163-45.152a16.69 16.69 0 0 1 0-23.61c6.522-6.524 17.087-6.52 23.6 0l45.163 45.152a16.69 16.69 0 0 1 0 23.61c-6.522 6.524-17.088 6.52-23.6 0z" fill="#79695a"/><path d="M409.48 476.213l-33.522-33.516c-6.52-6.516-6.52-17.087 0-23.6s17.087-6.52 23.6 0l33.522 33.516c6.52 6.516 6.52 17.087 0 23.6s-17.088 6.52-23.6 0zm-45.165-289.298a16.69 16.69 0 0 1 0-23.61l45.163-45.152c6.52-6.52 17.087-6.52 23.6 0a16.69 16.69 0 0 1 0 23.61l-45.163 45.152c-6.522 6.52-17.087 6.52-23.6 0zm-24.837-70.045c0 5.565-.557 11.13-1.67 16.584-1.558 8.014-8.57 13.468-16.362 13.468L256 146.7l-62.1-.1c-9.015 1.78-17.92-4.007-19.7-13.134a83.01 83.01 0 0 1-1.67-16.584c0-46.08 37.398-83.478 83.478-83.478s83.48 37.398 83.48 83.478z" fill="#6c5b52"/><path d="M339.478 116.87c0 5.565-.557 11.13-1.67 16.584-1.558 8.014-8.57 13.468-16.362 13.468L256 146.7V33.392c46.08 0 83.478 37.398 83.478 83.478z" fill="#61524a"/><path d="M439.652 283.826v44.522c0 95.722-73.46 174.414-166.957 182.873-5.564.557-11.13.78-16.695.78s-11.13-.223-16.696-.78c-93.496-8.46-166.957-87.15-166.957-182.873v-44.522c0-41.74 14.136-80.14 37.62-110.97a183.48 183.48 0 0 1 22.705-24.7c31.278 32.167 75.02 52.202 123.326 52.202s92.05-20.035 123.326-52.202a183.97 183.97 0 0 1 22.705 24.7c23.487 30.83 37.622 69.23 37.622 110.97z" fill="#ff6243"/><path d="M439.652 283.826v44.522c0 95.722-73.46 174.414-166.957 182.873-5.564.557-11.13.78-16.695.78V200.348c48.307 0 92.05-20.035 123.326-52.202a183.97 183.97 0 0 1 22.705 24.7c23.486 30.83 37.62 69.23 37.62 110.97z" fill="#ff0c38"/><g fill="#6e6057"><circle cx="189.218" cy="395.131" r="16.696"/><circle cx="155.826" cy="261.565" r="16.696"/><circle cx="189.218" cy="328.348" r="16.696"/></g><g fill="#6c5b52"><circle cx="322.783" cy="395.131" r="16.696"/><circle cx="322.783" cy="328.348" r="16.696"/><circle cx="356.174" cy="261.565" r="16.696"/></g><path d="M272.696 211.48v299.743c-5.565.556-11.13.778-16.696.778s-11.13-.223-16.696-.78V211.48z" fill="#79695a"/><path d="M256 512c5.565 0 11.13-.223 16.696-.78V211.48H256z" fill="#6c5b52"/><path d="M402.03 172.856c-37.398 37.62-89.043 60.883-146.03 60.883s-108.633-23.263-146.03-60.883a183.48 183.48 0 0 1 22.705-24.7c32.613-29.718 75.8-47.972 123.326-47.972s90.713 18.254 123.326 47.972a183.38 183.38 0 0 1 22.705 24.71z" fill="#79695a"/><path d="M402.03 172.856c-37.398 37.62-89.043 60.883-146.03 60.883V100.174c47.527 0 90.713 18.254 123.326 47.972a183.38 183.38 0 0 1 22.705 24.71z" fill="#6c5b52"/></svg>