<svg viewBox="0 0 64 64" xmlns="http://www.w3.org/2000/svg" xmlns:xlink="http://www.w3.org/1999/xlink"><defs><path id="a" d="m23.31 15.67c0 .74-.61 1.35-1.35 1.35-.76 0-1.37-.61-1.37-1.35 0-.76.61-1.37 1.37-1.37.74 0 1.35.61 1.35 1.37z"/><path id="b" d="m20.46 20.58c0 .81-.66 1.47-1.49 1.47s-1.49-.66-1.49-1.47a1.47 1.47 0 0 1 1.49-1.47 1.47 1.47 0 0 1 1.49 1.47z"/><radialGradient id="c" cx="263.1" cy="265.16" gradientTransform="matrix(.15 0 0 .11 -23.82 -9.3)" gradientUnits="userSpaceOnUse" r="183.65"><stop offset="0" stop-color="#e77"/><stop offset="1" stop-color="#733"/></radialGradient></defs><g transform="matrix(1.94 0 0 1.94 1 1.7)"><path d="m11.87 0a1.59 1.59 0 0 0 -1.09.46 1.58 1.58 0 0 0 0 2.24l1.49 1.49c-.86.89-1.4 2.08-1.41 3.41l.01.21c-.78.39-1.5.87-2.16 1.42l-1.78-1.78c-.31-.31-.72-.47-1.12-.47a1.59 1.59 0 0 0 -1.12.46c-.59.59-.59 1.65 0 2.24l2.8 2.79c.25.25.55.38.88.43 2.19 1.38 4.97 2.19 7.64 2.19s5.45-.81 7.64-2.19c.33-.05.64-.18.88-.43l2.78-2.78c.59-.59.59-1.65 0-2.24-.3-.3-.7-.46-1.11-.46-.42 0-.82.16-1.12.46l-1.78 1.78c-.66-.54-1.37-1.03-2.15-1.43l.01-.21h.01c-.01-1.32-.55-2.51-1.41-3.39l1.49-1.5a1.58 1.58 0 0 0 0-2.24c-.31-.31-.72-.46-1.12-.46-.41 0-.81.15-1.12.46l-2.2 2.21-.8-.06c-.27 0-.51.04-.77.07l-2.23-2.22a1.62 1.62 0 0 0 -1.14-.46zm-10.33 16.73c-.8.02-1.54.77-1.54 1.58 0 .82.76 1.58 1.58 1.58h4.12c.83 0 1.58-.75 1.58-1.58a1.65 1.65 0 0 0 -1.58-1.58h-4.14zm24.72 0a1.65 1.65 0 0 0 -1.54 1.58 1.65 1.65 0 0 0 1.58 1.58h4.12a1.65 1.65 0 0 0 1.58-1.58 1.65 1.65 0 0 0 -1.58-1.58zm-18.37 8.81a1.55 1.55 0 0 0 -1.12.46l-2.07 2.06a1.59 1.59 0 0 0 0 2.23c.01.01.02.01.03.02l-.03-.01c.02.02.05.03.07.05.63.54 1.57.53 2.17-.06l2.07-2.05a1.6 1.6 0 0 0 0-2.24c-.31-.31-.72-.46-1.12-.46zm16.25 0c-.41 0-.81.15-1.12.46a1.6 1.6 0 0 0 0 2.24l2.06 2.06a1.6 1.6 0 0 0 2.24 0 1.58 1.58 0 0 0 0-2.24l-2.06-2.06c-.31-.31-.72-.46-1.12-.46z" fill="#483e37"/><path d="m14.75 12.59h2.49v18.17h-2.49z"/><path d="m8.92 9.06c-.5.43-.97.91-1.39 1.43-1.45 1.81-2.35 4.09-2.45 6.6l-.1 2.68c-.22 5.71 3.82 10.66 9.32 11.42l.98.09.72-18.78c-2.82-.11-5.33-1.43-7.08-3.44zm7.08 3.44.73 18.77.98-.09c5.5-.76 9.54-5.71 9.32-11.42l-.1-2.67c-.1-2.51-1.01-4.8-2.45-6.6-.42-.52-.89-1-1.4-1.43-1.75 2.01-4.26 3.33-7.08 3.44z" fill="url(#c)"/><g transform="matrix(-1.05 .14 .14 1.05 28.51 -4.63)"><use xlink:href="#a"/><use xlink:href="#b"/><path d="m22.87 25.63a1.32 1.32 0 1 1 -2.64 0c0-.72.59-1.32 1.32-1.32s1.32.6 1.32 1.32z"/></g><g transform="matrix(1.05 .14 -.14 1.05 3.14 -4.63)"><use xlink:href="#a"/><use xlink:href="#b"/><path d="m22.87 25.63a1.32 1.32 0 1 1 -2.64 0c0-.72.59-1.32 1.32-1.32s1.32.6 1.32 1.32z"/></g></g></svg>