<svg enable-background="new 0 0 512 512" viewBox="0 0 512 512" xmlns="http://www.w3.org/2000/svg"><path d="m216.706 67.794-39.293-39.294c-6.521-6.516-6.521-17.092 0-23.609 6.521-6.521 17.087-6.521 23.609 0l39.294 39.294c6.521 6.516 6.521 17.092 0 23.609-6.522 6.522-17.087 6.522-23.61 0z" fill="#79695a"/><path d="m271.685 67.794c-6.521-6.516-6.521-17.092 0-23.609l39.294-39.294c6.521-6.521 17.087-6.521 23.609 0 6.521 6.516 6.521 17.092 0 23.609l-39.294 39.294c-6.523 6.522-17.088 6.522-23.609 0z" fill="#6c5b52"/><path d="m489.739 304.696h-66.783c-9.217 0-16.696-7.473-16.696-16.696s7.479-16.696 16.696-16.696h66.783c9.217 0 16.696 7.473 16.696 16.696s-7.479 16.696-16.696 16.696z" fill="#6c5b52"/><g fill="#79695a"><path d="m89.044 304.696h-66.783c-9.217 0-16.696-7.473-16.696-16.696s7.479-16.696 16.696-16.696h66.783c9.217 0 16.696 7.473 16.696 16.696s-7.479 16.696-16.696 16.696z"/><path d="m78.913 476.213c-6.521-6.521-6.521-17.092 0-23.609l33.522-33.516c6.521-6.521 17.087-6.521 23.609 0s6.521 17.092 0 23.609l-33.522 33.516c-6.522 6.521-17.087 6.521-23.609 0z"/><path d="m124.077 186.915-45.163-45.152c-6.527-6.517-6.522-17.086 0-23.609 6.521-6.521 17.087-6.521 23.609 0l45.163 45.152c6.527 6.517 6.522 17.086 0 23.609s-17.088 6.521-23.609 0z"/></g><g fill="#6c5b52"><path d="m409.479 476.213-33.522-33.516c-6.521-6.516-6.521-17.087 0-23.609s17.087-6.521 23.609 0l33.522 33.516c6.521 6.516 6.521 17.087 0 23.609-6.523 6.521-17.088 6.521-23.609 0z"/><path d="m364.315 186.915c-6.522-6.522-6.527-17.092 0-23.609l45.163-45.152c6.521-6.521 17.087-6.521 23.609 0 6.522 6.522 6.527 17.092 0 23.609l-45.163 45.152c-6.522 6.521-17.087 6.521-23.609 0z"/><path d="m339.478 116.87c0 5.565-.557 11.13-1.67 16.584-1.558 8.014-8.569 13.468-16.362 13.468l-65.446-.223-62.109-.111c-9.015 1.781-17.919-4.007-19.7-13.134-1.113-5.454-1.67-11.019-1.67-16.584 0-46.08 37.398-83.478 83.478-83.478s83.479 37.398 83.479 83.478z"/></g><path d="m339.478 116.87c0 5.565-.557 11.13-1.67 16.584-1.558 8.014-8.569 13.468-16.362 13.468l-65.446-.223v-113.307c46.08 0 83.478 37.398 83.478 83.478z" fill="#61524a"/><path d="m439.652 283.826v44.522c0 95.722-73.461 174.414-166.957 182.873-5.564.557-11.13.779-16.695.779s-11.13-.223-16.696-.779c-93.496-8.459-166.957-87.151-166.957-182.873v-44.522c0-41.739 14.136-80.139 37.621-110.97 6.79-8.904 14.357-17.141 22.705-24.71 31.278 32.167 75.019 52.202 123.326 52.202s92.049-20.035 123.326-52.202c8.348 7.569 15.915 15.805 22.705 24.71 23.487 30.831 37.622 69.231 37.622 110.97z" fill="#ff6243"/><path d="m439.652 283.826v44.522c0 95.722-73.461 174.414-166.957 182.873-5.564.557-11.13.779-16.695.779v-311.652c48.307 0 92.049-20.035 123.326-52.202 8.348 7.569 15.915 15.805 22.705 24.71 23.486 30.831 37.621 69.231 37.621 110.97z" fill="#ff0c38"/><circle cx="189.218" cy="395.131" fill="#6e6057" r="16.696"/><circle cx="155.826" cy="261.565" fill="#6e6057" r="16.696"/><circle cx="189.218" cy="328.348" fill="#6e6057" r="16.696"/><g fill="#6c5b52"><circle cx="322.783" cy="395.131" r="16.696"/><circle cx="322.783" cy="328.348" r="16.696"/><circle cx="356.174" cy="261.565" r="16.696"/></g><path d="m272.696 211.479v299.743c-5.565.556-11.131.778-16.696.778s-11.13-.223-16.696-.779v-299.742z" fill="#79695a"/><path d="m256 512c5.565 0 11.13-.223 16.696-.779v-299.742h-16.696z" fill="#6c5b52"/><path d="m402.031 172.856c-37.398 37.621-89.043 60.883-146.031 60.883s-108.633-23.263-146.031-60.883c6.79-8.904 14.357-17.141 22.705-24.71 32.613-29.718 75.799-47.972 123.326-47.972s90.713 18.254 123.326 47.972c8.348 7.569 15.916 15.806 22.705 24.71z" fill="#79695a"/><path d="m402.031 172.856c-37.398 37.621-89.043 60.883-146.031 60.883v-133.565c47.527 0 90.713 18.254 123.326 47.972 8.348 7.569 15.916 15.806 22.705 24.71z" fill="#6c5b52"/></svg>