<svg height="64" width="64" xmlns="http://www.w3.org/2000/svg" xmlns:xlink="http://www.w3.org/1999/xlink"><defs><linearGradient id="a" gradientUnits="userSpaceOnUse" x1="33.781" x2="33.781" y1="31.629" y2="74.541"><stop offset="0" stop-color="#ffaeae"/><stop offset="1" stop-color="#b70524"/></linearGradient><radialGradient id="b" cx="255.999" cy="251.734" gradientTransform="matrix(.1431 0 0 .2431 -4.6246 -28.6726)" gradientUnits="userSpaceOnUse" r="183.653"><stop offset="0" stop-color="#ff0c38"/><stop offset="1" stop-color="#880016"/></radialGradient><path id="c" d="m60.068 38.804h-8.02a2.005 2.005 0 01-2.005-2.005 2.005 2.005 0 012.005-2.005h8.02a2.005 2.005 0 012.005 2.005 2.005 2.005 0 01-2.005 2.005z"/></defs><g fill="#502d16"><path d="m27.282 10.356-4.718-4.72c-.783-.782-.783-2.052 0-2.834a2.005 2.005 0 012.835 0l4.72 4.72c.783.782.783 2.052 0 2.834s-2.052.783-2.834 0z"/><use xlink:href="#c"/><path d="m33.884 10.356c-.783-.782-.783-2.052 0-2.834l4.72-4.72c.783-.783 2.052-.783 2.834 0s.783 2.052 0 2.834l-4.72 4.72c-.783.783-2.052.783-2.834 0zm-17.726 14.304-5.423-5.422a2.004 2.004 0 010-2.835c.783-.783 2.052-.783 2.834 0l5.423 5.422a2.004 2.004 0 010 2.835c-.783.783-2.052.783-2.834 0zm-5.423 34.74c-.783-.783-.783-2.052 0-2.834l4.025-4.025c.783-.783 2.052-.783 2.834 0s.783 2.052 0 2.834l-4.024 4.025c-.783.783-2.052.783-2.834 0z"/><use x="-48.118" xlink:href="#c"/><path d="m45.007 24.66a2.004 2.004 0 010-2.835l5.423-5.422c.783-.783 2.052-.783 2.834 0a2.004 2.004 0 010 2.835l-5.424 5.422c-.783.783-2.052.783-2.834 0zm5.423 34.74-4.025-4.025c-.783-.782-.783-2.052 0-2.834s2.052-.783 2.834 0l4.025 4.025c.783.782.783 2.052 0 2.834s-2.052.783-2.834 0z"/></g><path d="m54.054 36.298v5.346c0 11.495-8.82 20.944-20.05 21.96a20.11 20.11 0 01-2.005.094 20.11 20.11 0 01-2.005-.094c-11.226-1.014-20.048-10.464-20.048-21.96v-5.346c0-5.012 1.698-9.623 4.518-13.326a22.033 22.033 0 012.726-2.966c3.756 3.863 9.01 6.27 14.81 6.27s11.054-2.406 14.81-6.27a22.092 22.092 0 012.726 2.966c2.82 3.702 4.518 8.313 4.518 13.326z" fill="url(#b)"/><g fill="#241f1c"><circle cx="23.981" cy="49.664" r="2.005"/><circle cx="19.971" cy="33.625" r="2.005"/><circle cx="23.981" cy="41.644" r="2.005"/><circle cx="40.02" cy="49.664" r="2.005"/><circle cx="40.02" cy="41.644" r="2.005"/><circle cx="44.029" cy="33.625" r="2.005"/></g><path d="m33.238 27.61v35.994c-.412.067-.825.093-1.237.093a7.71 7.71 0 01-1.237-.094v-35.993z" fill="url(#a)"/><g fill="#502d16"><path d="m42.024 16.25c0 .668-.067 1.337-.2 1.99a2 2 0 01-1.965 1.617l-7.859-.025-7.457-.012a2.01 2.01 0 01-2.366-1.577 9.968 9.968 0 01-.201-1.991 10.03 10.03 0 0110.025-10.025 10.03 10.03 0 0110.025 10.024z"/><path d="m49.536 22.972c-4.49 4.518-10.693 7.31-17.536 7.31s-13.045-2.794-17.536-7.31a22.033 22.033 0 012.726-2.966c3.916-3.57 9.102-5.76 14.81-5.76s10.893 2.192 14.81 5.76a22.021 22.021 0 012.726 2.967z"/></g></svg>