<svg height="64" width="64" xmlns="http://www.w3.org/2000/svg" xmlns:xlink="http://www.w3.org/1999/xlink"><linearGradient id="a" gradientUnits="userSpaceOnUse" x1="33.78" x2="33.78" y1="31.63" y2="63.9"><stop offset="0" stop-color="#fffffe"/><stop offset="1" stop-color="#f30b40"/></linearGradient><radialGradient id="b" cx="256" cy="251.73" gradientTransform="matrix(.14 0 0 .24 -4.62 -28.67)" gradientUnits="userSpaceOnUse" r="183.65"><stop offset="0" stop-color="#ff1f15"/><stop offset="1" stop-color="#ec0058"/></radialGradient><g transform="translate(0 -.42)"><path d="m23.94 1.14a3.1 3.1 0 0 0 -2.13.9 3.11 3.11 0 0 0 0 4.36l4.72 4.72a1.08 1.08 0 0 0 0 0 3.11 3.11 0 0 0 4.36 0 3.11 3.11 0 0 0 0-4.36l-4.73-4.72c-.58-.58-1.4-.9-2.22-.9a1.08 1.08 0 0 0 0 0zm2.58 9.98a1.08 1.08 0 0 0 .76.32zm13.5-9.98c-.8 0-1.58.3-2.18.9l-4.7 4.72a3.11 3.11 0 0 0 0 4.36 3.1 3.1 0 0 0 4.35 0l4.71-4.72a3.11 3.11 0 0 0 0-4.36c-.6-.6-1.4-.9-2.18-.9zm-27.87 13.6a3.09 3.09 0 0 0 -2.18.9c-1.14 1.14-1.14 3.22 0 4.36l5.42 5.42a3.11 3.11 0 0 0 4.36 0c1.14-1.14 1.14-3.22 0-4.36l-5.42-5.42c-.6-.6-1.4-.9-2.18-.9zm39.7 0a3.09 3.09 0 0 0 -2.18.9l-5.42 5.42c-1.14 1.14-1.14 3.22 0 4.36a3.1 3.1 0 0 0 4.35 0l5.42-5.42c1.14-1.14 1.14-3.22 0-4.36a3.05 3.05 0 0 0 -2.17-.9zm-48 18.98a1.08 1.08 0 0 0 -.02 0c-1.58.04-3 1.5-3 3.08 0 1.6 1.47 3.08 3.08 3.08h8.02c1.6 0 3.08-1.47 3.08-3.08s-1.47-3.08-3.08-3.08h-8.07zm48.12 0a1.08 1.08 0 0 0 -.01 0c-1.58.04-3 1.5-3 3.08 0 1.6 1.47 3.08 3.08 3.08h8.02c1.6 0 3.08-1.47 3.08-3.08s-1.47-3.08-3.08-3.08h-8.1zm-35.8 17.16c-.8 0-1.58.3-2.18.9l-4.02 4.02a3.1 3.1 0 0 0 0 4.35 3.11 3.11 0 0 0 4.36 0l4.02-4.02a3.1 3.1 0 0 0 0-4.35c-.6-.6-1.4-.9-2.18-.9zm-6.2 9.28a1.08 1.08 0 0 0 .76.32zm37.85-9.28c-.8 0-1.58.3-2.18.9a3.11 3.11 0 0 0 0 4.36l4.02 4.02a3.11 3.11 0 0 0 4.36 0 3.11 3.11 0 0 0 0-4.36l-4.02-4.02c-.6-.6-1.4-.9-2.18-.9z" fill="#502d16"/><path d="m54.05 36.3v5.35c0 11.5-8.82 20.94-20.05 21.96a20.11 20.11 0 0 1 -2.01.09 20.11 20.11 0 0 1 -2.01-.09c-11.21-1.01-20.03-10.47-20.03-21.97v-5.34c0-5 1.7-9.62 4.52-13.33a22.03 22.03 0 0 1 2.73-2.97c3.76 3.86 9 6.27 14.8 6.27s11.05-2.4 14.8-6.27a22.09 22.09 0 0 1 2.73 2.97c2.82 3.7 4.52 8.3 4.52 13.33z" fill="url(#b)"/><g fill="#241f1c"><circle cx="23.98" cy="49.66" r="2.01"/><circle cx="19.97" cy="33.63" r="2.01"/><circle cx="23.98" cy="41.64" r="2.01"/><circle cx="40.02" cy="49.66" r="2.01"/><circle cx="40.02" cy="41.64" r="2.01"/><circle cx="44.03" cy="33.63" r="2.01"/></g><path d="m33.24 27.6v36c-.4.07-.83.1-1.24.1a7.71 7.71 0 0 1 -1.24-.09v-36z" fill="url(#a)"/><g fill="#502d16"><path d="m42.02 15.94c0 .65-.07 1.3-.2 1.93-.18.92-1 1.57-1.97 1.57l-7.85-.03-7.46-.01c-1.09.21-2.14-.48-2.36-1.53a9.39 9.39 0 0 1 -.2-1.93c.01-5.37 4.49-9.71 10.02-9.72 5.54 0 10.02 4.35 10.03 9.72z"/><path d="m50.54 23.43c-4.5 4.38-11.7 7.09-18.54 7.09s-14.05-2.71-18.54-7.09c.82-1.04 2.73-2.97 3.73-3.85 3.92-3.46 9.1-5.59 14.8-5.59s10.9 2.12 14.8 5.59c1 .87 2.9 2.81 3.73 3.85z"/></g></g></svg>