<svg xmlns="http://www.w3.org/2000/svg" viewBox="0 0 32 32"><radialGradient id="A" cx="256" cy="251.73" gradientTransform="matrix(.07 0 0 .12 -2.31 -14.55)" gradientUnits="userSpaceOnUse" r="183.65"><stop offset="0" stop-color="#fd1f15"/><stop offset="1" stop-color="#cd002d"/></radialGradient><linearGradient id="B" gradientUnits="userSpaceOnUse" x1="16.89" x2="16.89" y1="15.61" y2="30.34"><stop offset="0" stop-color="#ffd4d4"/><stop offset="1" stop-color="#b30b07" stop-opacity=".54"/></linearGradient><path d="m11.97.36c-.4.01-.78.17-1.06.45-.6.6-.6 1.58 0 2.18l1.45 1.45c-.84.87-1.36 2.03-1.37 3.32 0 .07.01.13.01.2-.76.38-1.46.85-2.1 1.38l-1.74-1.73c-.3-.3-.7-.45-1.09-.45-.4 0-.8.16-1.09.45-.57.57-.57 1.61 0 2.18l2.72 2.71c.24.24.54.37.86.42 2.13 1.34 4.84 2.13 7.44 2.13s5.31-.79 7.44-2.13c.32-.05.62-.18.86-.42l2.71-2.71c.57-.57.57-1.61 0-2.18-.29-.29-.68-.45-1.08-.45-.41 0-.8.16-1.09.45l-1.74 1.74c-.64-.53-1.34-1.01-2.1-1.39 0-.07.01-.13.01-.2h.01c-.01-1.29-.53-2.45-1.37-3.31l1.45-1.46c.6-.6.6-1.58 0-2.18-.3-.3-.7-.45-1.09-.45-.4 0-.79.15-1.09.45l-2.14 2.15c-.26-.03-.52-.06-.78-.06s-.5.04-.75.07l-2.17-2.16c-.29-.29-.7-.45-1.11-.45zm-10.06 16.29c-.78.02-1.5.75-1.5 1.54 0 .8.74 1.54 1.54 1.54h4.01c.81 0 1.54-.73 1.54-1.54 0-.8-.73-1.54-1.54-1.54h-4.03zm24.07 0c-.79.02-1.5.75-1.5 1.54 0 .8.73 1.54 1.54 1.54h4.01c.8 0 1.54-.73 1.54-1.54 0-.8-.73-1.54-1.54-1.54zm-17.89 8.58c-.41 0-.79.15-1.09.45l-2.02 2.01c-.59.6-.59 1.57 0 2.17.01.01.02.01.03.02l-.03-.01c.02.02.05.03.07.05.61.53 1.53.52 2.11-.06l2.02-2c.59-.61.59-1.57 0-2.18-.3-.3-.7-.45-1.09-.45zm15.82 0c-.4 0-.79.15-1.09.45-.59.61-.59 1.57 0 2.18l2.01 2.01c.6.59 1.58.59 2.18 0 .6-.6.6-1.57 0-2.18l-2.01-2.01c-.3-.3-.7-.45-1.09-.45z" fill="#6c5d53"/><path d="M27.02 17.94v2.67A11.03 11.03 0 0 1 17 31.59c-.34.04-.67.05-1 .05-.34 0-.68-.01-1.01-.05A11.03 11.03 0 0 1 4.98 20.61v-2.67c0-2.5.84-4.81 2.25-6.67.41-.53.87-1.03 1.37-1.48 1.88 1.93 4.5 3.14 7.4 3.14s5.52-1.2 7.4-3.14c.5.45.96.95 1.37 1.48 1.41 1.86 2.25 4.16 2.25 6.67zm0 0" fill="url(#A)"/><path d="M13 24.62c0 .56-.45 1.01-1.01 1.01s-1.01-.45-1.01-1.01c0-.55.45-1.01 1.01-1.01s1.01.46 1.01 1.01zm-2.01-8.01c0 .55-.45 1-1.01 1-.55 0-1-.45-1-1 0-.56.45-1.01 1-1.01.56 0 1.01.45 1.01 1.01zm0 0"/><path d="M13 20.61c0 .55-.45 1-1.01 1s-1.01-.45-1.01-1a1 1 0 0 1 1.01-1 1 1 0 0 1 1.01 1zm8.02 4.01c0 .56-.45 1.01-1.01 1.01S19 25.18 19 24.62c0-.55.45-1.01 1.01-1.01s1.01.46 1.01 1.01zm0-4.01c0 .55-.45 1-1.01 1s-1.01-.45-1.01-1a1 1 0 0 1 1.01-1 1 1 0 0 1 1.01 1zm2-4c0 .55-.45 1-1 1-.56 0-1.01-.45-1.01-1 0-.56.45-1.01 1.01-1.01.55 0 1 .45 1 1.01zm0 0"/><path d="m16.62 13.59v18c-.2.04-.42.05-.62.05-.21 0-.41-.01-.62-.05v-18zm0 0" fill="url(#B)"/></svg>