<svg xmlns="http://www.w3.org/2000/svg" xmlns:xlink="http://www.w3.org/1999/xlink" viewBox="0 0 64 64"><defs><path id="reuse-0" d="M22.9 25.6a1.3 1.3 0 11-2.7 0c0-.7.6-1.3 1.4-1.3s1.3.6 1.3 1.3z"/></defs><defs><path id="b" d="M23.3 15.7a1.4 1.4 0 11-2.7 0 1.4 1.4 0 012.7 0z"/><path id="c" d="M20.5 20.6c0 .8-.7 1.4-1.5 1.4s-1.5-.6-1.5-1.4A1.5 1.5 0 0119 19a1.5 1.5 0 011.5 1.5z"/><radialGradient id="a" cx="263.1" cy="265.2" r="183.7" gradientTransform="matrix(.15 0 0 .11 -23.8 -9.3)" gradientUnits="userSpaceOnUse"><stop offset="0" stop-color="#e77"/><stop offset="1" stop-color="#733"/></radialGradient></defs><path fill="#483e37" d="M24 1.7a3 3 0 00-2 .9 3 3 0 000 4.3l2.8 3a9.6 9.6 0 00-2.7 6.5v.5c-1.5.7-3 1.6-4.2 2.7l-3.5-3.4a3 3 0 00-2.1-1 3 3 0 00-2.2 1 3.2 3.2 0 000 4.3l5.4 5.4c.5.5 1.1.7 1.7.8C21.5 29.4 27 31 32.1 31s10.5-1.6 14.8-4.3a3 3 0 001.7-.8l5.4-5.4a3.2 3.2 0 000-4.3 3 3 0 00-4.3 0l-3.5 3.4c-1.3-1-2.7-2-4.2-2.8v-.4c0-2.5-1-4.8-2.7-6.6l3-2.9a3 3 0 000-4.3 3 3 0 00-4.4 0l-4.3 4.3-1.5-.1-1.5.1-4.4-4.3a3.1 3.1 0 00-2.2-.9zM4 34.2c-1.6 0-3 1.5-3 3 0 1.6 1.5 3 3 3h8c1.7 0 3.1-1.4 3.1-3a3.2 3.2 0 00-3-3H4zm48 0a3.2 3.2 0 00-3 3 3.2 3.2 0 003 3h8a3.2 3.2 0 003-3 3.2 3.2 0 00-3-3zm-35.7 17a3 3 0 00-2.2 1l-4 4a3 3 0 000 4.3h.2c1.2 1.1 3 1.1 4.2 0l4-4a3.1 3.1 0 000-4.4 3 3 0 00-2.2-.9zm31.5 0a3 3 0 00-2.1 1 3.1 3.1 0 000 4.3l4 4a3.1 3.1 0 004.3 0 3 3 0 000-4.4l-4-4a3 3 0 00-2.2-.9z"/><path d="M29.6 26.1h4.8v35.3h-4.8z"/><path fill="url(#a)" d="M9 9a11 11 0 00-4 8v2.8a11 11 0 009.3 11.4h1l.7-18.7a9.9 9.9 0 01-7-3.4zm7 3.5l.7 18.8 1-.1A11 11 0 0027 19.8V17a11.3 11.3 0 00-4-8 9.9 9.9 0 01-7 3.4z" transform="matrix(1.94 0 0 1.94 1 1.7)"/><g transform="matrix(-2.04 .27 .27 2.04 56.3 -7.3)"><use xlink:href="#b"/><use xlink:href="#c"/><use xlink:href="#reuse-0"/></g><g transform="matrix(2.04 .27 -.27 2.04 7 -7.3)"><use xlink:href="#b"/><use xlink:href="#c"/><use xlink:href="#reuse-0"/></g></svg>