<svg xmlns="http://www.w3.org/2000/svg" xmlns:xlink="http://www.w3.org/1999/xlink" viewBox="0 0 64 64"><defs><path id="c" d="M58.2.6H5.9a5 5 0 015 5v5.2a5 5 0 01-3 4.6 5 5 0 002 .4h48.3a5 5 0 005-5V5.6a5 5 0 00-5-5z"/><path id="b" d="M12.3 13.1a5 5 0 00.6-2.3V5.6c0-1.4-.6-2.6-1.5-3.5S7.3.6 6 .6a5 5 0 00-5 5v5.2a5 5 0 005 5h19.3c-1-.5-7.9-1.5-12.9-2.7z"/></defs><defs><path id="d" d="M41.6 5.6v5.2a5 5 0 01-5 5h-8a5 5 0 005-5V5.6a5 5 0 00-5-5h8a5 5 0 015 5z"/><path id="e" d="M4.9 10.8h5.9a5 5 0 01-3 4.6 5 5 0 01-3-4.6z"/><linearGradient id="a" x1="50.3" x2="50.3" y1="1.5" y2="14.8" gradientUnits="userSpaceOnUse"><stop offset="0" stop-color="#e3dedb"/><stop offset="1" stop-color="#917c6f"/></linearGradient></defs><g stroke="#6c5353" stroke-linejoin="round" stroke-width="1.6"><path fill="#e54728" d="M32.5 45.7H36v11.1l-3.6-3z"/><path fill="#f95428" d="M32.5 45.7v17.5l-3.7-2.7-3.6 2.7V45.7z"/><g><g transform="translate(.2 15.3) scale(.9941)"><g fill="url(#a)"><use xlink:href="#b"/><use xlink:href="#c"/></g><use fill="#f95428" xlink:href="#d"/><use fill="#c8beb7" xlink:href="#e"/></g><g transform="translate(.2 .2) scale(.9941)"><g fill="url(#a)"><use xlink:href="#b"/><use xlink:href="#c"/></g><use fill="#f95428" xlink:href="#d"/><use fill="#c8beb7" xlink:href="#e"/></g><g transform="translate(.2 30.5) scale(.9941)"><g fill="url(#a)"><use xlink:href="#b"/><use xlink:href="#c"/></g><use fill="#f95428" xlink:href="#d"/><use fill="#c8beb7" xlink:href="#e"/></g></g></g></svg>