<svg xmlns="http://www.w3.org/2000/svg" xmlns:xlink="http://www.w3.org/1999/xlink" viewBox="0 0 64 64"><defs><path id="reuse-1" d="M58.187.6H5.87c1.388 0 2.646.563 3.555 1.472s1.473 2.168 1.473 3.557v5.18a5.034 5.034 0 01-2.97 4.59c.628.28 1.324.438 2.056.438h48.204a5.03 5.03 0 005.029-5.027V5.63a5.03 5.03 0 00-5.03-5.02z"/><path id="reuse-0" d="M12.35 13.117a5 5 0 00.559-2.299v-5.18c0-1.39-.563-2.646-1.473-3.557S7.256.6 5.87.6A5.03 5.03 0 00.841 5.638v5.18a5.03 5.03 0 005.027 5.027h19.338c-1.1-.5-7.88-1.525-12.858-2.73z"/></defs><defs><path id="b" d="M41.627 5.638v5.18a5.03 5.03 0 01-5.029 5.027h-7.982a5.03 5.03 0 005.027-5.027v-5.18A5.03 5.03 0 0028.616.61h7.982a5.03 5.03 0 015.029 5.029z"/><path id="c" d="M4.855 10.818h5.942a5.034 5.034 0 01-2.97 4.59 5.03 5.03 0 01-2.972-4.589z"/><linearGradient id="a" x1="50.311" x2="50.311" y1="1.504" y2="14.85" gradientUnits="userSpaceOnUse"><stop offset="0" stop-color="#e3dedb"/><stop offset="1" stop-color="#917c6f"/></linearGradient></defs><g stroke="#6c5353" stroke-linejoin="round"><g stroke-width="1.591"><path fill="#e54728" d="M32.453 45.68h3.618v11.162l-3.604-2.963z"/><path fill="#f95428" d="M32.453 45.68v17.524l-3.617-2.68-3.618 2.68V45.68z"/></g><g stroke-width="1.6"><g transform="translate(.161 15.335) scale(.9941)"><g fill="url(#a)"><use xlink:href="#reuse-0"/><use xlink:href="#reuse-1"/></g><use fill="#f95428" xlink:href="#b"/><use fill="#c8beb7" fill-opacity=".992" xlink:href="#c"/></g><g transform="translate(.161 .19) scale(.9941)"><g fill="url(#a)"><use xlink:href="#reuse-0"/><use xlink:href="#reuse-1"/></g><use fill="#f95428" xlink:href="#b"/><use fill="#c8beb7" fill-opacity=".992" xlink:href="#c"/></g><g transform="translate(.161 30.48) scale(.9941)"><g fill="url(#a)"><use xlink:href="#reuse-0"/><use xlink:href="#reuse-1"/></g><use fill="#f95428" xlink:href="#b"/><use fill="#c8beb7" fill-opacity=".992" xlink:href="#c"/></g></g></g></svg>