<svg height="64" width="64" xmlns="http://www.w3.org/2000/svg" xmlns:xlink="http://www.w3.org/1999/xlink"><defs><path id="a" d="m41.627 5.638v5.18a5.03 5.03 0 01-5.029 5.027h-7.982a5.03 5.03 0 005.027-5.027v-5.18a5.03 5.03 0 00-5.027-5.028h7.982a5.03 5.03 0 015.029 5.029z"/><path id="b" d="m4.855 10.818h5.942c0 2.043-1.22 3.802-2.97 4.59a5.03 5.03 0 01-2.972-4.589z"/><linearGradient id="c" gradientUnits="userSpaceOnUse" x1="50.311" x2="50.311" y1="1.504" y2="14.85"><stop offset="0" stop-color="#e3dedb"/><stop offset="1" stop-color="#917c6f"/></linearGradient></defs><g stroke="#6c5353" stroke-linejoin="round"><g stroke-width="1.591"><path d="m32.453 45.68h3.618v11.162l-3.604-2.963z" fill="#e54728"/><path d="m32.453 45.68v17.524l-3.617-2.68-3.618 2.68v-17.524z" fill="#f95428"/></g><g stroke-width="1.6"><g transform="matrix(.9941 0 0 .9941 .161 15.3348)"><g fill="url(#c)"><path d="m12.35 13.117a5 5 0 00.559-2.299v-5.18c0-1.39-.563-2.646-1.473-3.557s-4.18-1.481-5.566-1.481a5.03 5.03 0 00-5.029 5.038v5.18a5.03 5.03 0 005.027 5.027h19.338c-1.1-.5-7.88-1.525-12.858-2.73z"/><path d="m58.187.6h-52.317c1.388 0 2.646.563 3.555 1.472s1.473 2.168 1.473 3.557v5.18c0 2.043-1.22 3.802-2.97 4.59.628.28 1.324.438 2.056.438h48.204a5.03 5.03 0 005.029-5.027v-5.18a5.03 5.03 0 00-5.03-5.02z"/></g><use fill="#f95428" xlink:href="#a"/><use fill="#c8beb7" fill-opacity=".992" xlink:href="#b"/></g><g transform="matrix(.9941 0 0 .9941 .161 .1892)"><g fill="url(#c)"><path d="m12.35 13.117a5 5 0 00.559-2.299v-5.18c0-1.39-.563-2.646-1.473-3.557s-4.18-1.481-5.566-1.481a5.03 5.03 0 00-5.029 5.038v5.18a5.03 5.03 0 005.027 5.027h19.338c-1.1-.5-7.88-1.525-12.858-2.73z"/><path d="m58.187.6h-52.317c1.388 0 2.646.563 3.555 1.472s1.473 2.168 1.473 3.557v5.18c0 2.043-1.22 3.802-2.97 4.59.628.28 1.324.438 2.056.438h48.204a5.03 5.03 0 005.029-5.027v-5.18a5.03 5.03 0 00-5.03-5.02z"/></g><use fill="#f95428" xlink:href="#a"/><use fill="#c8beb7" fill-opacity=".992" xlink:href="#b"/></g><g transform="matrix(.9941 0 0 .9941 .161 30.4804)"><g fill="url(#c)"><path d="m12.35 13.117a5 5 0 00.559-2.299v-5.18c0-1.39-.563-2.646-1.473-3.557s-4.18-1.481-5.566-1.481a5.03 5.03 0 00-5.029 5.038v5.18a5.03 5.03 0 005.027 5.027h19.338c-1.1-.5-7.88-1.525-12.858-2.73z"/><path d="m58.187.6h-52.317c1.388 0 2.646.563 3.555 1.472s1.473 2.168 1.473 3.557v5.18c0 2.043-1.22 3.802-2.97 4.59.628.28 1.324.438 2.056.438h48.204a5.03 5.03 0 005.029-5.027v-5.18a5.03 5.03 0 00-5.03-5.02z"/></g><use fill="#f95428" xlink:href="#a"/><use fill="#c8beb7" fill-opacity=".992" xlink:href="#b"/></g></g></g></svg>