<svg height="64" width="64" xmlns="http://www.w3.org/2000/svg" xmlns:xlink="http://www.w3.org/1999/xlink"><defs><path id="a" d="m13.464 43.314h-5.7c-.787 0-1.425-.638-1.425-1.425v-5.7c0-.787.638-1.425 1.425-1.425h5.7c.787 0 1.425.638 1.425 1.425v5.7c0 .787-.638 1.425-1.425 1.425z"/><path id="b" d="m34.84 37.614h-12.825c-.787 0-1.425-.638-1.425-1.425s.638-1.425 1.425-1.425h12.825c.787 0 1.425.638 1.425 1.425s-.638 1.425-1.425 1.425z"/><path id="c" d="m40.54 43.314h-18.525c-.787 0-1.425-.638-1.425-1.425s.638-1.425 1.425-1.425h18.525c.787 0 1.425.638 1.425 1.425s-.638 1.425-1.425 1.425z"/><linearGradient id="d" gradientUnits="userSpaceOnUse"><stop offset="0" stop-color="#ffd1d1"/><stop offset=".5" stop-color="#ff1d1d"/><stop offset="1" stop-color="#6f0000"/></linearGradient><linearGradient id="e" x1="60.631" x2="65.517" xlink:href="#d" y1="46.318" y2="48.374"/><linearGradient id="f" gradientUnits="userSpaceOnUse"><stop offset="0" stop-color="#c1c1c1"/><stop offset="1" stop-color="#acacac"/></linearGradient><linearGradient id="g" x1="63.052" x2="65.874" xlink:href="#f" y1="43.399" y2="45.072"/><linearGradient id="h" gradientUnits="userSpaceOnUse"><stop offset="0" stop-color="#e7e2b8"/><stop offset="1" stop-color="#e7e2b8" stop-opacity="0"/></linearGradient><radialGradient id="i" cx="29.053" cy="27.641" gradientTransform="matrix(.015 2.924 2.03 -.011 20.391 -69.727)" r="3.241" xlink:href="#h"/><linearGradient id="j" gradientUnits="userSpaceOnUse"><stop offset="0"/><stop offset="1" stop-color="#c9c9c9"/></linearGradient><linearGradient id="k" x1="79.876" x2="79.531" xlink:href="#j" y1="11.409" y2="11.207"/><linearGradient id="l" x1="-317.353" x2="-236.096" xlink:href="#d" y1="-222.32" y2="-133.554"/><linearGradient id="m" x1="-361.281" x2="-303.97" xlink:href="#f" y1="-148.287" y2="-100.726"/><radialGradient id="n" cx="29.053" cy="27.641" gradientTransform="matrix(62.622 -21.985 15.264 43.477 -3105.54 -196.895)" r="3.241" xlink:href="#h"/><linearGradient id="o" x1="-916.786" x2="-923.743" xlink:href="#j" y1="455.596" y2="449.762"/></defs><g stroke="#808080" stroke-width="1.939"><path d="m36.28.97h-34.24a1.07 1.07 0 0 0 -1.07 1.07v59.92a1.07 1.07 0 0 0 1.07 1.07h42.8a1.07 1.07 0 0 0 1.07-1.07v-51.36z" fill="#fff"/><path d="m45.9 10.6h-8.56a1.07 1.07 0 0 1 -1.07-1.07v-8.56z" fill="#e6e6e6" stroke-linejoin="round"/></g><g fill="#b3b3b3"><use xlink:href="#a"/><use xlink:href="#b"/><use xlink:href="#c"/><use xlink:href="#a" y="-12.826"/><path d="m37.713 24.788h-15.9c-.675 0-1.223-.638-1.223-1.425s.548-1.425 1.223-1.425h15.9c.675 0 1.223.638 1.223 1.425s-.548 1.425-1.223 1.425z"/><use xlink:href="#a" y="-25.652"/><path d="m30.764 11.962h-9.157c-.562 0-1.017-.638-1.017-1.425s.456-1.425 1.017-1.425h9.157c.562 0 1.018.638 1.018 1.425s-.456 1.425-1.017 1.425z"/><use xlink:href="#c" y="-25.652"/><use xlink:href="#a" y="12.999"/><use xlink:href="#b" y="12.999"/><use xlink:href="#c" y="12.999"/><path d="m29.463 30.488h-8.47c-.223 0-.403-.638-.403-1.425s.18-1.425.403-1.425h8.47c.223 0 .403.638.403 1.425s-.18 1.425-.403 1.425z"/></g><path d="m9.2 16.237a1.42 1.42 0 0 1 -1.008-.418l-2.85-2.85c-.557-.557-.557-1.46 0-2.015s1.46-.557 2.015 0l1.842 1.843 4.693-4.693c.557-.557 1.46-.557 2.015 0s.557 1.46 0 2.015l-5.7 5.7a1.42 1.42 0 0 1 -1.008.417zm0 25.653a1.42 1.42 0 0 1 -1.008-.417l-2.85-2.85c-.557-.557-.557-1.46 0-2.015s1.46-.557 2.015 0l1.843 1.842 4.693-4.693c.557-.557 1.46-.557 2.015 0s.557 1.46 0 2.015l-5.7 5.7a1.42 1.42 0 0 1 -1.008.417z" fill="#008000"/><g fill-rule="evenodd"><g transform="matrix(.49 1.371 1.371 -.49 310.553 -270.979)"><g transform="translate(32.56 -8.176)"><path d="m81.19 8.85-5.595 5.655-15.27 31.644c-1.233 3.257 3.402 5.17 5.012 2.287l14.894-31.58z" fill="#cb9022" stroke="#5c410c"/><path d="m63.227 41.398s.1 1.437 1.354 1.993c1.29.573 2.656-.014 2.656-.014l-2.442 5.044s-.874 1.457-2.84.67c-1.94-.774-1.17-2.68-1.17-2.68z" fill="url(#e)"/><path d="m63.227 41.398s.1 1.437 1.354 1.993c1.29.573 2.656-.014 2.656-.014l-.99 2.005s-1.315.834-2.687.233c-1.41-.618-1.324-2.212-1.324-2.212z" fill="url(#g)"/><path d="m80.478 10.282-4.476 4.524c.82 1.495 2.168 2.27 3.728 1.855z" fill="url(#i)"/><path d="m79.08 11.633 1.584-1.633-.3 2.345c-.718.223-1.064-.182-1.285-.712z" fill="url(#k)"/><g fill-opacity=".364"><path d="m75.97 14.806 1.258 1.556-12.79 26.954c-.858-.44-1.09-1.236-1.172-1.897z" fill="#fff"/><path d="m79.793 16.66-.75.19-12.55 26.77s.614-.114.75-.22z"/></g></g><g fill="#fff"><path d="m113.3 1.85-4.77 4.86-8.33 17.29 8.7-16.794 4.37-5.347z" opacity=".725"/><path d="m113.16 1.85-.88 6.718-6.77 14.407 6.54-14.45-.53.088 1.64-6.762z" opacity=".418"/></g></g><g transform="matrix(.066 0 0 .066 78.532 23.857)"><path d="m-281.782-232.254c13.542.443 26.38 7.26 35.42 17.17 9.893 10.673 15.87 25.298 14.875 39.945-.793 12.587-6.952 24.54-16.128 33.086l-556.585 554.553-133.252 66.355 63.383-131.928 558.296-566.248c9.398-8.012 21.46-13.432 34-12.933z" fill="#fc0" stroke="#333" stroke-linejoin="round" stroke-width="22.702"/><path d="m-402.713-129.224s31.494-8.8 52.945 13.737c22.105 23.228 19.973 56.893 19.973 56.893l89.203-90.7s24.48-29.807-7.33-65.84c-31.356-35.57-66.258-4.573-66.258-4.573z" fill="url(#l)"/><path d="m-402.713-129.224s31.494-8.8 52.945 13.737c22.105 23.228 19.973 56.893 19.973 56.893l35.32-36.448s7.794-34.48-15.527-59.227c-23.967-25.408-57.4-11.424-57.4-11.424z" fill="url(#m)"/><path d="m-936.3 477.102 62.56-130.228c38.222 6.12 65.08 29.026 68.115 65.547z" fill="url(#n)"/><path d="m-918.103 436.88-22.82 46.353 47.85-24.314c-.712-17.053-12.012-21.36-25.03-22.04z" fill="url(#o)"/><g fill-opacity=".364"><path d="m-873.986 346.212 42.87 15.02 478.67-479.16c-15.956-14.986-34.753-13.892-49.504-10.58z" fill="#fff"/><path d="m-805.153 413.768-1.633-17.472 476.538-472.64s2.25 13.998 1.013 17.693z"/></g></g></g></svg>