<svg viewBox="0 0 64 64" xmlns="http://www.w3.org/2000/svg" xmlns:xlink="http://www.w3.org/1999/xlink"><defs><path id="a" d="m13.46 43.31h-5.7c-.79 0-1.43-.64-1.43-1.43v-5.7c0-.79.64-1.43 1.43-1.43h5.7c.79 0 1.43.64 1.43 1.43v5.7c0 .79-.64 1.43-1.43 1.43z"/><path id="b" d="m34.84 37.61h-12.83a1.43 1.43 0 0 1 0-2.86h12.83a1.43 1.43 0 1 1 0 2.86z"/><path id="c" d="m40.54 43.31h-18.52a1.43 1.43 0 0 1 0-2.86h18.52a1.43 1.43 0 1 1 0 2.86z"/><linearGradient id="d" gradientUnits="userSpaceOnUse"><stop offset="0" stop-color="#ffd1d1"/><stop offset=".5" stop-color="#ff1d1d"/><stop offset="1" stop-color="#6f0000"/></linearGradient><linearGradient id="e" x1="60.63" x2="65.52" xlink:href="#d" y1="46.32" y2="48.37"/><linearGradient id="f" gradientUnits="userSpaceOnUse"><stop offset="0" stop-color="#c1c1c1"/><stop offset="1" stop-color="#acacac"/></linearGradient><linearGradient id="g" x1="63.05" x2="65.87" xlink:href="#f" y1="43.4" y2="45.07"/><linearGradient id="h" gradientUnits="userSpaceOnUse"><stop offset="0" stop-color="#e7e2b8"/><stop offset="1" stop-color="#e7e2b8" stop-opacity="0"/></linearGradient><radialGradient id="i" cx="29.05" cy="27.64" gradientTransform="matrix(.02 2.92 2.03 -.01 20.39 -69.73)" r="3.24" xlink:href="#h"/><linearGradient id="j" gradientUnits="userSpaceOnUse"><stop offset="0"/><stop offset="1" stop-color="#c9c9c9"/></linearGradient><linearGradient id="k" x1="79.88" x2="79.53" xlink:href="#j" y1="11.41" y2="11.21"/><linearGradient id="l" x1="-317.35" x2="-236.1" xlink:href="#d" y1="-222.32" y2="-133.55"/><linearGradient id="m" x1="-361.28" x2="-303.97" xlink:href="#f" y1="-148.29" y2="-100.73"/><radialGradient id="n" cx="29.05" cy="27.64" gradientTransform="matrix(62.62 -21.99 15.26 43.48 -3105.54 -196.9)" r="3.24" xlink:href="#h"/><linearGradient id="o" x1="-916.79" x2="-923.74" xlink:href="#j" y1="455.6" y2="449.76"/></defs><g stroke="#808080" stroke-width="1.94"><path d="m36.28.97h-34.24a1.07 1.07 0 0 0 -1.07 1.07v59.92a1.07 1.07 0 0 0 1.07 1.07h42.8a1.07 1.07 0 0 0 1.07-1.07v-51.36z" fill="#fff"/><path d="m45.9 10.6h-8.56a1.07 1.07 0 0 1 -1.07-1.07v-8.56z" fill="#e6e6e6" stroke-linejoin="round"/></g><g fill="#b3b3b3"><use xlink:href="#a"/><use xlink:href="#b"/><use xlink:href="#c"/><use xlink:href="#a" y="-12.83"/><path d="m37.71 24.79h-15.9c-.68 0-1.22-.64-1.22-1.43s.55-1.43 1.22-1.43h15.9c.68 0 1.22.64 1.22 1.43s-.55 1.43-1.22 1.43z"/><use xlink:href="#a" y="-25.65"/><path d="m30.76 11.96h-9.16c-.56 0-1.02-.64-1.02-1.43s.46-1.43 1.02-1.43h9.16c.56 0 1.02.64 1.02 1.43s-.46 1.43-1.02 1.43z"/><use xlink:href="#c" y="-25.65"/><use xlink:href="#a" y="13"/><use xlink:href="#b" y="13"/><use xlink:href="#c" y="13"/><path d="m29.46 30.49h-8.47c-.22 0-.4-.64-.4-1.43s.18-1.43.4-1.43h8.47c.22 0 .4.64.4 1.43s-.18 1.43-.4 1.43z"/></g><path d="m9.2 16.24a1.42 1.42 0 0 1 -1.01-.42l-2.85-2.85c-.56-.56-.56-1.46 0-2.02s1.46-.56 2.02 0l1.84 1.84 4.69-4.69c.56-.56 1.46-.56 2.02 0s.56 1.46 0 2.02l-5.7 5.7a1.42 1.42 0 0 1 -1.01.42zm0 25.65a1.42 1.42 0 0 1 -1.01-.42l-2.85-2.85c-.56-.56-.56-1.46 0-2.02s1.46-.56 2.02 0l1.84 1.84 4.69-4.69c.56-.56 1.46-.56 2.02 0s.56 1.46 0 2.02l-5.7 5.7a1.42 1.42 0 0 1 -1.01.42z" fill="#008000"/><g fill-rule="evenodd"><g transform="matrix(.49 1.37 1.37 -.49 310.55 -270.98)"><g transform="translate(32.56 -8.18)"><path d="m81.19 8.85-5.6 5.66-15.27 31.64c-1.23 3.26 3.4 5.17 5.01 2.29l14.89-31.58z" fill="#cb9022" stroke="#5c410c"/><path d="m63.23 41.4s.1 1.44 1.35 1.99c1.29.57 2.66-.01 2.66-.01l-2.44 5.04s-.87 1.46-2.84.67c-1.94-.77-1.17-2.68-1.17-2.68z" fill="url(#e)"/><path d="m63.23 41.4s.1 1.44 1.35 1.99c1.29.57 2.66-.01 2.66-.01l-.99 2.01s-1.32.83-2.69.23c-1.41-.62-1.32-2.21-1.32-2.21z" fill="url(#g)"/><path d="m80.48 10.28-4.48 4.52c.82 1.5 2.17 2.27 3.73 1.86z" fill="url(#i)"/><path d="m79.08 11.63 1.58-1.63-.3 2.35c-.72.22-1.06-.18-1.29-.71z" fill="url(#k)"/><g fill-opacity=".36"><path d="m75.97 14.81 1.26 1.56-12.79 26.95c-.86-.44-1.09-1.24-1.17-1.9z" fill="#fff"/><path d="m79.79 16.66-.75.19-12.55 26.77s.61-.11.75-.22z"/></g></g><g fill="#fff"><path d="m113.3 1.85-4.77 4.86-8.33 17.29 8.7-16.79 4.37-5.35z" opacity=".73"/><path d="m113.16 1.85-.88 6.72-6.77 14.41 6.54-14.45-.53.09 1.64-6.76z" opacity=".42"/></g></g><g transform="matrix(.07 0 0 .07 78.53 23.86)"><path d="m-281.78-232.25c13.54.44 26.38 7.26 35.42 17.17 9.89 10.67 15.87 25.3 14.88 39.95-.79 12.59-6.95 24.54-16.13 33.09l-556.59 554.55-133.25 66.36 63.38-131.93 558.3-566.25c9.4-8.01 21.46-13.43 34-12.93z" fill="#fc0" stroke="#333" stroke-linejoin="round" stroke-width="22.7"/><path d="m-402.71-129.22s31.49-8.8 52.95 13.74c22.11 23.23 19.97 56.89 19.97 56.89l89.2-90.7s24.48-29.81-7.33-65.84c-31.36-35.57-66.26-4.57-66.26-4.57z" fill="url(#l)"/><path d="m-402.71-129.22s31.49-8.8 52.95 13.74c22.11 23.23 19.97 56.89 19.97 56.89l35.32-36.45s7.79-34.48-15.53-59.23c-23.97-25.41-57.4-11.42-57.4-11.42z" fill="url(#m)"/><path d="m-936.3 477.1 62.56-130.23c38.22 6.12 65.08 29.03 68.11 65.55z" fill="url(#n)"/><path d="m-918.1 436.88-22.82 46.35 47.85-24.31c-.71-17.05-12.01-21.36-25.03-22.04z" fill="url(#o)"/><g fill-opacity=".36"><path d="m-873.99 346.21 42.87 15.02 478.67-479.16c-15.96-14.99-34.75-13.89-49.5-10.58z" fill="#fff"/><path d="m-805.15 413.77-1.63-17.47 476.54-472.64s2.25 14 1.01 17.69z"/></g></g></g></svg>