<svg xmlns="http://www.w3.org/2000/svg" xmlns:xlink="http://www.w3.org/1999/xlink" viewBox="0 0 64 64"><defs><linearGradient id="A" gradientUnits="userSpaceOnUse"><stop offset="0" stop-color="#ffd1d1"/><stop offset=".5" stop-color="#ff1d1d"/><stop offset="1" stop-color="#6f0000"/></linearGradient><linearGradient id="B" x1="60.6" x2="65.5" y1="46.3" y2="48.4" xlink:href="#A"/><linearGradient id="C" gradientUnits="userSpaceOnUse"><stop offset="0" stop-color="#c1c1c1"/><stop offset="1" stop-color="#acacac"/></linearGradient><linearGradient id="D" x1="63" x2="65.9" y1="43.4" y2="45.1" xlink:href="#C"/><linearGradient id="E" gradientUnits="userSpaceOnUse"><stop offset="0" stop-color="#e7e2b8"/><stop offset="1" stop-color="#e7e2b8" stop-opacity="0"/></linearGradient><linearGradient id="F" gradientUnits="userSpaceOnUse"><stop offset="0"/><stop offset="1" stop-color="#c9c9c9"/></linearGradient><linearGradient id="G" x1="79.9" x2="79.5" y1="11.4" y2="11.2" xlink:href="#F"/><linearGradient id="H" x1="-317.4" x2="-236.1" y1="-222.3" y2="-133.6" xlink:href="#A"/><linearGradient id="I" x1="-361.3" x2="-304" y1="-148.3" y2="-100.7" xlink:href="#C"/><linearGradient id="J" x1="-916.8" x2="-923.7" y1="455.6" y2="449.8" xlink:href="#F"/><path id="K" d="M13.5 43.3H7.8c-.8 0-1.5-.6-1.5-1.4v-5.7c0-.8.7-1.5 1.5-1.5h5.7c.8 0 1.4.7 1.4 1.5v5.7c0 .8-.6 1.4-1.4 1.4z"/><path id="L" d="M34.8 37.6H22a1.4 1.4 0 010-2.9h12.8a1.4 1.4 0 110 3z"/><path id="M" d="M40.5 43.3H22a1.4 1.4 0 010-2.8h18.5a1.4 1.4 0 110 2.8z"/><radialGradient id="N" cx="29.1" cy="27.6" r="3.2" gradientTransform="matrix(.02 2.92 2.03 -.01 20.4 -69.7)" xlink:href="#E"/><radialGradient id="O" cx="29.1" cy="27.6" r="3.2" gradientTransform="matrix(62.62 -21.99 15.26 43.48 -3105.5 -196.9)" xlink:href="#E"/></defs><g stroke="gray" stroke-width="1.9"><path fill="#fff" d="M36.3 1H2a1 1 0 00-1 1v60a1 1 0 001 1h42.8a1 1 0 001.1-1V10.6z"/><path fill="#e6e6e6" stroke-linejoin="round" d="M45.9 10.6h-8.6a1 1 0 01-1-1V1z"/></g><g fill="#b3b3b3"><use xlink:href="#K"/><use xlink:href="#L"/><use xlink:href="#M"/><use y="-12.8" xlink:href="#K"/><path d="M37.7 24.8H21.8c-.7 0-1.2-.7-1.2-1.4s.5-1.5 1.2-1.5h16c.6 0 1.1.7 1.1 1.5s-.5 1.4-1.2 1.4z"/><use y="-25.6" xlink:href="#K"/><path d="M30.8 12h-9.2c-.6 0-1-.7-1-1.5s.4-1.4 1-1.4h9.2c.5 0 1 .6 1 1.4s-.5 1.5-1 1.5z"/><use y="-25.6" xlink:href="#M"/><use y="13" xlink:href="#K"/><use y="13" xlink:href="#L"/><use y="13" xlink:href="#M"/><path d="M29.5 30.5H21c-.2 0-.4-.7-.4-1.4s.2-1.5.4-1.5h8.5c.2 0 .4.7.4 1.5s-.2 1.4-.4 1.4z"/></g><path fill="green" d="M9.2 16.2a1.4 1.4 0 01-1-.4L5.3 13c-.5-.6-.5-1.5 0-2s1.5-.6 2 0l1.9 1.8L13.9 8c.6-.6 1.5-.6 2 0s.6 1.5 0 2l-5.7 5.7a1.4 1.4 0 01-1 .4zm0 25.7a1.4 1.4 0 01-1-.4l-2.9-2.9c-.5-.5-.5-1.4 0-2s1.5-.6 2 0l1.9 1.8 4.7-4.7c.6-.5 1.5-.5 2 0s.6 1.5 0 2l-5.7 5.8a1.4 1.4 0 01-1 .4z"/><g fill-rule="evenodd"><path fill="#cb9022" stroke="#5c410c" stroke-width="1.455" d="M367.2-115.5l5-10.4 35.9-36.4c3.8-3.3 8.7 2 5.6 5.7l-36 35.9z"/><g transform="matrix(.49 1.37 1.37 -.49 315.3 -222.4)"><path fill="url(#B)" d="M63.2 41.4s.1 1.4 1.4 2 2.6 0 2.6 0l-2.4 5s-.9 1.5-2.8.7c-2-.8-1.2-2.7-1.2-2.7z"/><path fill="url(#D)" d="M63.2 41.4s.1 1.4 1.4 2 2.6 0 2.6 0l-1 2s-1.3.8-2.6.2c-1.4-.6-1.4-2.2-1.4-2.2z"/><path fill="url(#N)" d="M80.5 10.3L76 14.8c.8 1.5 2.2 2.3 3.7 1.9z"/><path fill="url(#G)" d="M79 11.6l1.7-1.6-.3 2.4c-.8.2-1.1-.2-1.3-.8z"/></g><g fill-opacity=".4"><path fill="#fff" d="M372.8-125.5l2.8 1 30.6-30.8c-1-1-2.2-.9-3.2-.7z"/><path d="M377.2-121.2v-1.1l30.4-30.3.1 1z"/></g><g fill="#fff"><path d="M368.6-116.7l4.3-8.9 19.6-19.9-18.7 20.2-5.2 8.6z" opacity=".7"/><path d="M368.5-116.9l8.8-4.5 16.4-16.3-16.6 16-.1-.7-8.5 5.5z" opacity=".4"/></g><path fill="#fc0" stroke="#333" stroke-linejoin="round" stroke-width="1.589" d="M58.8 7.6c1 0 1.9.5 2.5 1.2.7.8 1.1 1.8 1 2.8 0 .9-.5 1.7-1.1 2.3l-39 38.8-9.3 4.7 4.4-9.3L56.4 8.5c.7-.6 1.5-1 2.4-.9z"/><g transform="matrix(.07 0 0 .07 78.5 23.9)"><path fill="url(#H)" d="M-402.7-129.2s31.5-8.8 53 13.7c22 23.2 20 57 20 57l89.1-90.8s24.5-29.8-7.3-65.8c-31.4-35.6-66.3-4.6-66.3-4.6z"/><path fill="url(#I)" d="M-402.7-129.2s31.5-8.8 53 13.7c22 23.2 20 57 20 57l35.2-36.5s7.8-34.5-15.5-59.3c-24-25.4-57.4-11.4-57.4-11.4z"/><path fill="url(#O)" d="M-936.3 477.1l62.6-130.2c38.2 6 65 29 68 65.5z"/><path fill="url(#J)" d="M-918.1 436.9l-22.8 46.3 47.8-24.3c-.7-17-12-21.3-25-22z"/></g><g fill-opacity=".4"><path fill="#fff" d="M17.4 48l3 1.1 33.5-33.5c-1.2-1-2.5-1-3.5-.7z"/><path d="M22.2 52.8l-.1-1.2 33.3-33s.2.9 0 1.2z"/></g></g></svg>