<svg xmlns="http://www.w3.org/2000/svg" viewBox="0 0 64 64"><linearGradient id="A" gradientUnits="userSpaceOnUse" x1="7.78" x2="23.12" y1="10.41" y2="33.31"><stop offset="0" stop-color="#d5e5ff"/><stop offset="1" stop-color="#acf"/></linearGradient><path d="m34.03 44.85 1.06 7.68h-8.45l1.06-7.68z" fill="#999"/><path d="M22.94 52.24h18.1a2 2 45 0 1 2 2v.2a2 2 135 0 1-2 2h-18.1a2 2 45 0 1-2-2v-.2a2 2 135 0 1 2-2zM60 46.03c0 1.3-1.1 2.4-2.4 2.4H6.4c-1.3 0-2.4-1.1-2.4-2.4V9.95c0-1.3 1.1-2.4 2.4-2.4h51.2c1.3 0 2.4 1.1 2.4 2.4z" fill="gray"/><circle cx="32" cy="44.83" fill="#ccc" r="1.3"/><path d="M8.1 12.014l.04 29.26h48.05l-.02-29.21z" fill="#87aade"/><path d="M7.5 12.46l.04 28.97 49-28.98z" fill="url(#A)" transform="matrix(.98 0 0 1.01 .73 -.56)"/></svg>