<svg xmlns="http://www.w3.org/2000/svg" viewBox="0 0 64 64"><linearGradient id="a" x1="7.8" x2="23.1" y1="10.4" y2="33.3" gradientUnits="userSpaceOnUse"><stop offset="0" stop-color="#d5e5ff"/><stop offset="1" stop-color="#acf"/></linearGradient><path fill="#999" d="M34 44.9l1 7.6h-8.4l1.1-7.6z"/><path fill="gray" d="M23 52.2h18a2 2 45 012 2v.2a2 2 135 01-2 2H23a2 2 45 01-2-2v-.2a2 2 135 012-2zM60 46c0 1.3-1.1 2.4-2.4 2.4H6.4A2.4 2.4 0 014 46V10c0-1.3 1.1-2.4 2.4-2.4h51.2c1.3 0 2.4 1 2.4 2.4z"/><circle cx="32" cy="44.8" r="1.3" fill="#ccc"/><path fill="#87aade" d="M8.1 12v29.3h48V12z"/><path fill="url(#a)" d="M7.5 12.5v29l49-29z" transform="matrix(.98 0 0 1.01 .7 -.6)"/></svg>