<svg height="64" width="64" xmlns="http://www.w3.org/2000/svg"><path d="m27.93 55.05 1.1-8.07h6.65l1.1 8.07z" fill="#b3b3b3"/><path d="m60.27 46.25c0 1.3-1.1 2.4-2.4 2.4h-51.47c-1.3 0-2.4-1.1-2.4-2.4v-36.25c0-1.3 1.1-2.4 2.4-2.4h51.45c1.3 0 2.4 1.1 2.4 2.4z" fill="#ccc"/><path d="m57.86 7.6h-51.46c-1.3 0-2.37 1.2-2.4 2.5v32.54h56.26v-32.54c0-1.3-1.1-2.5-2.4-2.5z" fill="#b3b3b3"/><path d="m43.15 54.87c0 1-.81 1.8-1.8 1.8h-18.42c-1 0-1.8-.81-1.8-1.8v-.5c0-1 .81-1.8 1.8-1.8h18.53c1 0 1.8.81 1.8 1.8v.5z" fill="#ccc"/><circle cx="32.14" cy="45.06" fill="#999" r="1.3"/><path d="m57.86 7.6h-51.46c-1.3 0-2.37 1.2-2.4 2.5v32.54l56.26-32.54c0-1.3-1.1-2.5-2.4-2.5z" fill="#ccc"/></svg>