<svg xmlns="http://www.w3.org/2000/svg" height="64" width="64"><linearGradient id="A" gradientUnits="userSpaceOnUse" x1="7.78" x2="23.12" y1="10.4" y2="33.3"><stop offset="0" stop-color="#80b3ff"/><stop offset="1" stop-color="#9393ac" stop-opacity="0"/></linearGradient><path d="m34.03 44.87 1.06 7.68h-8.45l1.06-7.68z" fill="#ccc"/><path d="M60 46.05c0 1.3-1.1 2.4-2.4 2.4H6.4c-1.3 0-2.4-1.1-2.4-2.4V9.97c0-1.3 1.1-2.4 2.4-2.4h51.2c1.3 0 2.4 1.1 2.4 2.4zm-17.04 8.57a1.78 1.78 0 0 1-1.79 1.79H22.83a1.78 1.78 0 0 1-1.79-1.79v-.5a1.78 1.78 0 0 1 1.79-1.79h18.44a1.78 1.78 0 0 1 1.79 1.79v.5z" fill="#b3b3b3"/><circle cx="32" cy="44.86" fill="#999" r="1.3"/><path d="M7.8 10.45c-.64.32-.26 1.2-.36 1.77v29.2h49.13l-.02-30.62c-.22-.65-1.03-.24-1.53-.35H7.8z" fill="#acf"/><path d="M7.8 10.45c-.64.32-.26 1.2-.36 1.77v29.2l49.3-30.97H7.8z" fill="url(#A)"/></svg>