<svg xmlns="http://www.w3.org/2000/svg" viewBox="0 0 343.432 343.432" xmlns:v="https://vecta.io/nano"><path d="M298.035 151.536l.242-6.536c0-48.412-39.245-87.658-87.657-87.658-29.496 0-55.59 14.57-71.477 36.903-4.93-1.11-10.048-1.716-15.31-1.716-33.78 0-61.91 24.133-68.122 56.095-31.772 6.364-55.7 34.4-55.7 68.054C0 255.013 31.077 286.1 69.412 286.1H274.02c38.336 0 69.412-31.077 69.412-69.412 0-29.893-18.898-55.368-45.397-65.142z" fill="#5e96dc"/><path d="m197.642 244.478.007-75.18 25.444.001-47.566-47.567-47.566 47.566h25.447v75.18z" fill="#fff"/></svg>