<svg viewBox="0 0 64 64" xmlns="http://www.w3.org/2000/svg" xmlns:xlink="http://www.w3.org/1999/xlink"><linearGradient id="a" x1="284.8" x2="288.9" xlink:href="#g" y1="-441.23" y2="-436.83"/><linearGradient id="b" x1="-27.78" x2="-24.97" xlink:href="#g" y1="16.92" y2="19.42"/><linearGradient id="c" x1="275.94" x2="279.98" xlink:href="#g" y1="-437.11" y2="-431.92"/><linearGradient id="d" x1="285.94" x2="289.39" xlink:href="#g" y1="-439.94" y2="-436.44"/><linearGradient id="e" x1="286.51" x2="289.85" xlink:href="#g" y1="-441.29" y2="-436.14"/><linearGradient id="f" x1="287.52" x2="289.68" xlink:href="#g" y1="-439.75" y2="-436.32"/><linearGradient id="g" gradientUnits="userSpaceOnUse"><stop offset="0" stop-color="#fff"/><stop offset="1" stop-color="#fff" stop-opacity="0"/></linearGradient><filter id="h" color-interpolation-filters="sRGB" height="1" width="1" x="0" y="0"><feGaussianBlur stdDeviation=".002"/></filter><linearGradient id="i" gradientUnits="userSpaceOnUse" x1="-27.78" x2="-24.97" y1="16.92" y2="19.42"><stop offset="0" stop-color="#ccc"/><stop offset="1" stop-color="#fff" stop-opacity="0"/></linearGradient><circle cx="32" cy="54.15" fill="#0f0" r="3.05"/><g stroke="#4d4d4d"><g fill="none" transform="matrix(1.29 0 0 1.3 .93 2.74)"><circle cx="24" cy="39.64" r="2.69" stroke-width="1.54"/><path d="m1.54 39.64h19.36m6.2 0h19.36" stroke-linecap="round" stroke-width="1.19"/><path d="m24 36.55v-7.75" stroke-width="1.54"/></g><path d="m32 6.36c-4.86 0-8.81 3.33-10.11 7.77-1.48-.77-3.09-1.33-4.89-1.33a10.72 10.74 0 0 0 -10.71 10.74c0 1.24.34 2.38.73 3.48-2.94 1.68-5.01 4.7-5.01 8.33a9.66 9.67 0 0 0 9.64 9.66h40.71a9.66 9.67 0 0 0 9.64-9.66c0-3.63-2.08-6.65-5.01-8.33.39-1.09.73-2.23.73-3.48a10.72 10.74 0 0 0 -10.72-10.73c-1.81 0-3.41.56-4.89 1.33-1.29-4.45-5.25-7.77-10.11-7.77z" fill="#ccc" stroke-width="2"/></g><g filter="url(#h)"><g transform="matrix(2.27 0 0 2.28 -622.79 1013.88)"><circle cx="288.38" cy="-437.59" fill="#c4c5c2" r="3.31"/><circle cx="288.38" cy="-437.59" fill="url(#f)" r="3.31"/></g><circle cx="-26.24" cy="18.64" fill="#c4c5c2" r="3" transform="matrix(2.14 0 0 2.15 66.81 -4.61)"/><g transform="matrix(2.27 0 0 2.28 -607.22 1020.61)"><circle cx="288.38" cy="-437.59" fill="#c4c5c2" r="3.31"/><circle cx="288.38" cy="-437.59" fill="url(#e)" r="3.31"/></g><g transform="matrix(2.27 0 0 2.28 -637.25 1020.78)"><circle cx="288.38" cy="-437.59" fill="#c4c5c2" r="3.31"/><circle cx="288.38" cy="-437.59" fill="url(#d)" r="3.31"/></g><g transform="matrix(2.14 0 0 2.15 -567.58 965.01)"><path d="m280.47-440.97c-3.58 0-6.47 2.92-6.47 6.5 0 2.37 1.35 4.34 3.25 5.47h6.47c1.9-1.13 3.25-3.13 3.25-5.5 0-3.58-2.92-6.47-6.5-6.47z" fill="#c4c5c2"/><path d="m280.5-441a6.5 6.5 0 0 0 -6.5 6.5c0 2.38 1.34 4.37 3.25 5.5h6.5c1.9-1.13 3.25-3.12 3.25-5.5a6.5 6.5 0 0 0 -6.5-6.5z" fill="url(#c)"/></g><circle cx="-26.24" cy="18.64" fill="url(#b)" r="3" transform="matrix(2.14 0 0 2.15 71.38 -4.43)"/><g transform="matrix(2.6 0 0 2.6 -705.98 1168.59)"><circle cx="288.38" cy="-437.59" fill="#c4c5c2" r="3.31"/><circle cx="288.38" cy="-437.59" fill="url(#a)" r="3.31"/></g><circle cx="-26.24" cy="18.64" fill="url(#i)" r="3" transform="matrix(2.14 0 0 2.15 108.88 -4.47)"/></g><path d="m57.97 27.13c-1.56 5.54-8.88 5.79-8.88 5.79s5.79-2.02 6.94-6.33z" fill="#4d4d4d" fill-rule="evenodd"/><path d="m36.14 39.14v-14.09h4.76l-8.9-8.91-8.9 8.91h4.76v14.09z" fill="#fff" stroke="#4d4d4d" stroke-linejoin="round" stroke-width="2"/></svg>