<svg enable-background="new 0 0 343.432 343.432" viewBox="0 0 343.432 343.432" xmlns="http://www.w3.org/2000/svg"><path d="m298.035 151.536c.159-2.158.242-4.338.242-6.536 0-48.412-39.245-87.658-87.657-87.658-29.496 0-55.589 14.569-71.477 36.903-4.929-1.111-10.048-1.716-15.311-1.716-33.779 0-61.909 24.133-68.122 56.095-31.772 6.364-55.71 34.41-55.71 68.054 0 38.335 31.077 69.412 69.412 69.412h204.608c38.336 0 69.412-31.077 69.412-69.412 0-29.893-18.898-55.368-45.397-65.142z" fill="#5e96dc"/><path d="m197.642 244.478.007-75.18 25.444.001-47.566-47.567-47.566 47.566h25.447v75.18z" fill="#fff"/></svg>