<svg xmlns="http://www.w3.org/2000/svg" xmlns:xlink="http://www.w3.org/1999/xlink" viewBox="0 0 48 48"><style><![CDATA[.B{fill:#c4c5c2}.C{color-interpolation-filters:sRGB}.D{stroke:#4d4d4d}.E{filter:url(#I)}.F{filter:url(#J)}]]></style><linearGradient id="A" x1="284.8" x2="288.9" xlink:href="#H" y1="-441.23" y2="-436.83"/><linearGradient id="B" x1="-27.775" x2="-24.967" xlink:href="#H" y1="16.915" y2="19.424"/><linearGradient id="C" x1="275.94" x2="279.98" xlink:href="#H" y1="-437.11" y2="-431.92"/><linearGradient id="D" x1="285.94" x2="289.39" xlink:href="#H" y1="-439.94" y2="-436.44"/><linearGradient id="E" x1="286.51" x2="289.85" xlink:href="#H" y1="-441.29" y2="-436.14"/><linearGradient id="F" x1="287.52" x2="289.68" xlink:href="#H" y1="-439.75" y2="-436.32"/><linearGradient id="G" x1="14.571" x2="28.581" xlink:href="#H" y1="7.834" y2="16.914"/><linearGradient id="H" gradientUnits="userSpaceOnUse"><stop offset="0" stop-color="#fff"/><stop offset="1" stop-color="#fff" stop-opacity="0"/></linearGradient><filter id="I" height="1.168" width="1.168" x="-.084" y="-.084" class="C"><feGaussianBlur stdDeviation=".245"/></filter><filter id="J" height="1.196" width="1.196" x="-.098" y="-.098" class="C"><feGaussianBlur stdDeviation=".245"/></filter><filter id="K" height="1.098" width="1.091" x="-.045" y="-.049" class="C"><feGaussianBlur stdDeviation=".245"/></filter><filter id="L" height="1.147" width="1.147" x="-.073" y="-.073" class="C"><feGaussianBlur stdDeviation=".214"/></filter><linearGradient id="M" gradientUnits="userSpaceOnUse" x1="-27.775" x2="-24.967" y1="16.915" y2="19.424"><stop offset="0" stop-color="#ccc"/><stop offset="1" stop-color="#fff" stop-opacity="0"/></linearGradient><g transform="translate(0 1.351)"><circle cx="24" cy="39.642" fill="#0f0" r="2.352"/><g fill="none" class="D"><circle cx="24" cy="39.642" r="2.689" stroke-width="2"/><g stroke-miterlimit="10" stroke-width="1.549"><path d="M1.54 39.644h19.363m6.196 0H46.46" stroke-linecap="round"/><path d="M24 36.546V28.8"/></g></g><path d="M24.05 3.884c-2.2 0-3.72 1.34-4.4 3.84-.66-.34-1.54-.83-2.35-.83-2.72 0-4.76 1.94-4.76 4.55 0 .54.27 1.33.45 1.82-1.33.73-2.44 1.9-2.44 3.37 0 2.35 1.55 4.25 4.34 4.25h18.32c2.77 0 4.34-1.9 4.34-4.25 0-1.6-1.1-2.67-2.44-3.4.18-.5.47-1.26.47-1.8 0-2.6-2.12-4.57-4.78-4.57-.8 0-1.64.5-2.3.83-.65-2.42-2.25-3.82-4.44-3.82z" fill="url(#G)"/><path d="M24 2.794c-3.757 0-6.803 2.566-7.812 5.992-1.142-.596-2.383-1.026-3.774-1.026a8.28 8.28 0 0 0-8.276 8.276c0 .96.265 1.837.563 2.68C2.433 20.008.828 22.342.828 25.14a7.46 7.46 0 0 0 7.448 7.448h31.448a7.46 7.46 0 0 0 7.448-7.448c0-2.797-1.605-5.13-3.873-6.422.298-.844.563-1.72.563-2.68a8.28 8.28 0 0 0-8.276-8.276c-1.4 0-2.632.43-3.774 1.026-1-3.426-4.055-5.992-7.812-5.992z" stroke-miterlimit="2" stroke-width="1.655" class="B D"/><g transform="matrix(1.6552 0 0 1.6552 -440.1032 740.0293)" class="E"><g transform="matrix(1.0566 0 0 1.0566 -24.198 21.863)"><circle cx="288.375" cy="-437.594" r="3.313" class="B"/><circle cx="288.375" cy="-437.594" fill="url(#F)" r="3.313"/></g></g><circle cx="-26.242" cy="18.641" r="3" transform="matrix(1.6552 0 0 1.6552 51.8836 -5.8595)" class="B F"/><g transform="matrix(1.6552 0 0 1.6552 -440.1032 740.0293)" class="E"><g transform="matrix(1.0566 0 0 1.0566 -17.198 24.863)"><circle cx="288.375" cy="-437.594" r="3.313" class="B"/><circle cx="288.375" cy="-437.594" fill="url(#E)" r="3.313"/></g><g transform="matrix(1.0566 0 0 1.0566 -31.198 24.863)"><circle cx="288.375" cy="-437.594" r="3.313" class="B"/><circle cx="288.375" cy="-437.594" fill="url(#D)" r="3.313"/></g></g><g filter="url(#K)" transform="matrix(1.6552 0 0 1.6552 -441.7583 740.0293)"><path d="m280.47-440.97c-3.58 0-6.47 2.92-6.47 6.5 0 2.37 1.35 4.34 3.25 5.47h6.47c1.9-1.13 3.25-3.13 3.25-5.5 0-3.58-2.92-6.47-6.5-6.47z" class="B"/><path d="M280.5-441a6.5 6.5 0 0 0-6.5 6.5c0 2.38 1.34 4.37 3.25 5.5h6.5c1.9-1.13 3.25-3.12 3.25-5.5a6.5 6.5 0 0 0-6.5-6.5z" fill="url(#C)"/></g><circle cx="-26.242" cy="18.641" fill="url(#B)" r="3" transform="matrix(1.6552 0 0 1.6552 51.8836 -5.8595)" class="F"/><g filter="url(#L)" transform="matrix(1.8917 0 0 1.8917 -487.3931 850.9258)"><g transform="matrix(1.0566 0 0 1.0566 -31.198 24.863)"><circle cx="288.375" cy="-437.594" r="3.313" class="B"/><circle cx="288.375" cy="-437.594" fill="url(#A)" r="3.313"/></g></g><circle cx="-26.242" cy="18.641" fill="url(#M)" r="3" transform="matrix(1.6552 0 0 1.6552 82.9074 -5.8516)" class="F"/><path d="M44.04 18.623c-1.162 4.28-6.815 4.534-6.815 4.534s4.455-1.6 5.312-4.936z" fill="#4d4d4d" fill-rule="evenodd"/><path d="M27.195 28.065l.001-10.862h3.676L24 10.33l-6.873 6.873h3.677v10.862z" fill="#fff" stroke-linejoin="round" stroke-width="2" class="D"/></g></svg>