<svg xmlns="http://www.w3.org/2000/svg" height="64" width="64"><radialGradient id="A" cx="31.926" cy="32" gradientTransform="matrix(.83 0 0 .814 5.435 5.966)" gradientUnits="userSpaceOnUse" r="17.662"><stop offset="0" stop-color="#ccc"/><stop offset="1" stop-color="gray"/></radialGradient><path d="M31.926 14.338c-9.714 0-17.662 7.948-17.662 17.662s7.948 17.662 17.662 17.662S49.588 41.714 49.588 32 41.64 14.338 31.926 14.338zm0 25.02c-4.12 0-7.36-3.238-7.36-7.36s3.238-7.36 7.36-7.36 7.36 3.238 7.36 7.36-3.238 7.36-7.36 7.36z" fill="url(#A)" stroke="gray"/><path d="M54.887 35.238c.147-1.03.294-2.06.294-3.238s-.147-2.208-.294-3.238l6.623-4.7c.6-.442.883-1.325.44-2.06L55.475 11.1c-.44-.736-1.177-1.03-1.913-.6l-7.36 3.385a26.35 26.35 0 0 0-5.593-3.238l-.736-8.095c-.147-.736-.736-1.325-1.472-1.325H25.745c-.736 0-1.472.6-1.472 1.325l-.736 8.095c-2.06.883-3.974 1.913-5.593 3.238l-7.36-3.385c-.736-.294-1.62 0-1.913.6L2.34 21.992c-.44.736-.147 1.62.442 2.06l6.623 4.7c-.147 1.03-.294 2.06-.294 3.238s.147 2.208.294 3.238l-6.917 4.7c-.6.44-.883 1.325-.44 2.06l6.33 10.9c.44.736 1.177 1.03 1.913.6l7.36-3.385a26.35 26.35 0 0 0 5.593 3.238l.736 8.095c.147.736.736 1.325 1.472 1.325H38.11c.736 0 1.472-.6 1.472-1.325l.736-8.095c2.06-.883 3.974-1.913 5.593-3.238l7.36 3.385c.736.294 1.62 0 1.913-.6l6.33-10.9c.44-.736.147-1.62-.44-2.06zm-22.96 11.48c-8.095 0-14.718-6.623-14.718-14.718s6.623-14.718 14.718-14.718S46.644 23.905 46.644 32 40.02 46.718 31.926 46.718z" fill="#e6e6e6" stroke="#4d4d4d" stroke-width="2.478"/></svg>