<svg viewBox="0 0 64 64" xmlns="http://www.w3.org/2000/svg" xmlns:xlink="http://www.w3.org/1999/xlink"><radialGradient id="a" cx="31.93" cy="32" gradientTransform="matrix(.83 0 0 .81 5.44 5.97)" gradientUnits="userSpaceOnUse" r="17.66"><stop offset="0" stop-color="#ccc"/><stop offset="1" stop-color="#808080"/></radialGradient><path d="m31.93 14.34c-9.71 0-17.66 7.95-17.66 17.66s7.95 17.66 17.66 17.66 17.66-7.95 17.66-17.66-7.95-17.66-17.66-17.66zm0 25.02c-4.12 0-7.36-3.24-7.36-7.36s3.24-7.36 7.36-7.36 7.36 3.24 7.36 7.36-3.24 7.36-7.36 7.36z" fill="url(#a)" stroke="#808080"/><path d="m54.89 35.24c.15-1.03.29-2.06.29-3.24s-.15-2.21-.29-3.24l6.62-4.7c.6-.44.88-1.33.44-2.06l-6.47-10.9c-.44-.74-1.18-1.03-1.91-.6l-7.36 3.39a26.35 26.35 0 0 0 -5.59-3.24l-.74-8.1c-.15-.74-.74-1.33-1.47-1.33h-12.66c-.74 0-1.47.6-1.47 1.33l-.74 8.1c-2.06.88-3.97 1.91-5.59 3.24l-7.36-3.39c-.74-.29-1.62 0-1.91.6l-6.34 10.89c-.44.74-.15 1.62.44 2.06l6.62 4.7c-.15 1.03-.29 2.06-.29 3.24s.15 2.21.29 3.24l-6.92 4.7c-.6.44-.88 1.33-.44 2.06l6.33 10.9c.44.74 1.18 1.03 1.91.6l7.36-3.39a26.35 26.35 0 0 0 5.59 3.24l.74 8.1c.15.74.74 1.33 1.47 1.33h12.67c.74 0 1.47-.6 1.47-1.33l.74-8.1c2.06-.88 3.97-1.91 5.59-3.24l7.36 3.39c.74.29 1.62 0 1.91-.6l6.33-10.9c.44-.74.15-1.62-.44-2.06zm-22.96 11.48c-8.1 0-14.72-6.62-14.72-14.72s6.62-14.72 14.72-14.72 14.71 6.63 14.71 14.72-6.62 14.72-14.71 14.72z" fill="#e6e6e6" stroke="#4d4d4d" stroke-width="2.5"/></svg>