<svg xmlns="http://www.w3.org/2000/svg" xmlns:xlink="http://www.w3.org/1999/xlink" viewBox="0 0 64 64"><defs><path id="A" d="m234.21-238.41c-90.59 0-172.57 8.52-232.35 22.33-29.89 6.9-54.25 14.96-71.66 24.47-8.71 4.75-15.63 9.79-20.87 15.7-5.23 5.91-8.97 13.29-8.97 21.55 0 0 6.24 468.01 333.84 468.01s333.84-468.01 333.84-468.01c0-8.25-3.74-15.64-8.97-21.55s-12.16-10.94-20.87-15.7c-17.41-9.51-41.77-17.57-71.66-24.47-59.78-13.81-141.75-22.33-232.35-22.33z"/><path id="B" d="M234.23-175.13c-82.17 0-156.49 8.67-210.7 22.79-27.1 7.06-49.21 15.36-65 25.08-7.9 4.86-14.22 10-18.96 16.04-4.75 6.04-8.11 13.63-8.11 22.06 0 8.44 3.37 15.91 8.11 21.94 4.74 6.04 11.07 11.17 18.96 16.04 15.8 9.72 37.89 18.14 65 25.2C77.75-11.87 152.07-3.32 234.23-3.32c82.17 0 156.49-8.55 210.7-22.67 27.1-7.06 49.21-15.48 65-25.2 7.9-4.86 14.22-10 18.96-16.04 4.75-6.04 8.11-13.5 8.11-21.94s-3.37-16.03-8.11-22.06c-4.73-6.05-11.05-11.18-18.94-16.05-15.8-9.72-37.9-18.02-65-25.08-54.21-14.11-128.55-22.78-210.7-22.78z"/><path id="C" d="m-99.62-154.39s6.24 468.05 333.84 468.05 333.84-468.05 333.84-468.05c-82.65 76.83-257.64 74.97-333.84 75.51-66.01-12.59-324-5.72-333.84-75.51z"/><radialGradient id="D" cx="130" cy="-18.99" gradientTransform="matrix(8.6 0 0 1.31 -889.1 -184.54)" r="107" xlink:href="#N"><stop offset="0" stop-color="#f7f7f7"/><stop offset="1" stop-color="#cecece" stop-opacity="0"/></radialGradient><linearGradient id="E" x1="-38.92" x2="560.44" y1="-154.73" y2="-73.61" xlink:href="#N"><stop offset="0" stop-color="#fff" stop-opacity=".5"/><stop offset="1" stop-color="#502816" stop-opacity="0"/></linearGradient><radialGradient id="F" cx="323.37" cy="457.92" gradientTransform="matrix(4.08 0 0 3.65 -1090.94 -1675.71)" r="107" xlink:href="#N"><stop offset="0" stop-color="#f9f9f9"/><stop offset="1" stop-color="#ccc" stop-opacity="0"/></radialGradient><linearGradient id="G" x1="590.91" x2="526.73" y1="391.83" y2="492.83" xlink:href="#N"><stop offset="0" stop-color="gray"/><stop offset="1" stop-color="gray" stop-opacity="0"/></linearGradient><filter id="H" color-interpolation-filters="sRGB" height="1" width="1" x="0" y="0"><feGaussianBlur stdDeviation=".015"/></filter><filter id="I" color-interpolation-filters="sRGB" height="1.69" width="1.66" x="-.33" y="-.34"><feGaussianBlur stdDeviation="41.868"/></filter><linearGradient id="J" x1="-44.674" x2="-36.172" y1="-27.728" y2="-27.352" xlink:href="#N"><stop offset="0" stop-color="#ffd1d1"/><stop offset=".5" stop-color="#ff1d1d"/><stop offset="1" stop-color="#6f0000"/></linearGradient><linearGradient id="K" x1="-43.168" x2="-37.925" y1="-21.83" y2="-22.318" xlink:href="#N"><stop offset="0" stop-color="#c1c1c1"/><stop offset="1" stop-color="#acacac"/></linearGradient><radialGradient id="L" cx="29.05" cy="27.64" gradientTransform="matrix(2.15 -4.48 3.11 1.49 -192.49 121.48)" r="3.24" xlink:href="#N"><stop offset="0" stop-color="#e7e2b8"/><stop offset="1" stop-color="#e7e2b8" stop-opacity="0"/></radialGradient><linearGradient id="M" x1="-40.749" x2="-41.389" y1="36.14" y2="36.195" xlink:href="#N"><stop offset="0"/><stop offset="1" stop-color="#c9c9c9"/></linearGradient><linearGradient id="N" gradientUnits="userSpaceOnUse"/></defs><path d="M197.28 99.33L175 26.99l-41.07-74.05 31.5-84.46 78.83-56.6 84.05 1.31 110.6 44.49-3.23 117.15 2.37 70.88L428 64.48l-22.85 32.74L290.6 105z" fill="#c8b7b7" filter="url(#I)" opacity=".22" transform="matrix(.07 0 0 .07 1.99 29.67)"/><g transform="matrix(.97 0 0 .97 .03 -2.63)"><path d="M11.15 19.22l.15 3.13C.89 20.51 6.43 31 13.66 30.88l.12 5.33C3.05 37.27-7.33 16.95 11.15 19.22z" fill="#e1e1e1"/><path d="m537.22 406.56s41.83.38 51.69 7.32c27.19 19.14-35.52 96.7-82.67 75.48 31.46-3.42 104.8-74.76 30.98-82.8z" fill="url(#G)" filter="url(#H)" opacity=".5" transform="matrix(-.12 0 0 .12 72.74 -26.35)"/><g transform="matrix(-.09 0 0 .09 54.37 31.36)"><use fill="#a9a9a9" xlink:href="#A"/><use fill="url(#D)" xlink:href="#A"/><use fill="#502816" xlink:href="#B"/><use fill="url(#E)" xlink:href="#B"/><use fill="#b5b5b5" xlink:href="#C"/><use fill="url(#F)" xlink:href="#C"/></g><path d="m34.44 11.08c7.71 0 14.68.72 19.76 1.9 2.54.59 4.62 1.28 6.1 2.09.74.4 1.33.83 1.78 1.33.44.5.76 1.13.76 1.84 0 .7-.32 1.32-.76 1.83-.45.5-1.04.93-1.78 1.33-1.48.81-3.55 1.51-6.1 2.1-5.09 1.17-12.06 1.89-19.76 1.89-7.71 0-14.68-.71-19.76-1.89-2.54-.6-4.62-1.3-6.1-2.11-.74-.41-1.33-.83-1.78-1.34-.44-.5-.76-1.12-.76-1.82s.32-1.33.76-1.84c.45-.5 1.04-.93 1.78-1.33 1.48-.81 3.55-1.5 6.1-2.09 5.09-1.17 12.06-1.9 19.76-1.9zm0 1.45c-7.65 0-14.57.73-19.54 1.88-2.49.57-4.49 1.26-5.82 1.99-.67.36-1.16.74-1.46 1.07s-.37.58-.37.76.08.42.37.75c.3.33.79.71 1.46 1.07 1.33.73 3.34 1.42 5.82 2 4.97 1.15 11.9 1.87 19.54 1.87s14.57-.72 19.54-1.87c2.49-.57 4.49-1.27 5.82-2 .67-.36 1.16-.74 1.46-1.07s.37-.57.37-.75-.08-.43-.37-.76c-.29-.34-.79-.71-1.45-1.08-1.33-.72-3.34-1.41-5.83-1.98-4.97-1.15-11.89-1.88-19.54-1.88z" fill="#ececec" stroke="#ececec" stroke-width=".31"/><path d="m62.61 21.06.02.26c0 .79-.31 1.48-.75 2.04s-1.03 1.04-1.76 1.49c-1.47.9-3.53 1.69-6.05 2.34-5.05 1.31-11.96 2.11-19.61 2.11s-14.56-.8-19.61-2.11c-2.54-.66-4.6-1.44-6.07-2.35-.73-.45-1.32-.93-1.76-1.49s-.75-1.25-.75-2.04c0-.09.01-.17.02-.26.07.67.35 1.26.73 1.75.44.56 1.03 1.04 1.76 1.49 1.47.9 3.53 1.69 6.05 2.34 5.05 1.31 11.96 2.11 19.61 2.11s14.56-.8 19.61-2.11c2.52-.66 4.58-1.44 6.05-2.34.74-.45 1.32-.93 1.76-1.49.39-.49.67-1.08.73-1.75z" fill="navy"/><path d="m59.38 24.16c-2.57 1.24-3.79 1.92-6.34 1.6.57 6.8-.93 18.38-5.09 25.58 5.51-7.09 9.7-14.2 11.43-27.18z" fill="#e6e6e6" opacity=".4"/></g><g fill-rule="evenodd" transform="matrix(.89 .89 -.89 .89 78.05 61.13)"><path d="m-44.9-20.86c.72-.72 1.78-1.01 2.78-.97 1.09.04 2.18.5 2.9 1.33.62.71.93 1.67.9 2.6l-.11 49.81-3.54 10.57-3.63-10.34-.42-50.52c.07-.92.45-1.82 1.11-2.48z" fill="#fc0" stroke="#333" stroke-linejoin="round" stroke-width="1.7"/><path d="m-45.85-9.01s1.2-2.13 3.53-2.08c2.4.06 4.07 1.95 4.07 1.95l-.08-9.52s-.28-2.87-3.87-3.1c-3.54-.22-3.75 3.27-3.75 3.27z" fill="url(#J)"/><path d="m-45.85-9.01s1.2-2.13 3.53-2.08c2.4.06 4.07 1.95 4.07 1.95l-.06-3.8s-1.41-2.24-3.96-2.31c-2.61-.08-3.64 2.43-3.64 2.43z" fill="url(#K)"/><path d="m-42 42.33-3.58-10.2c2.35-1.7 4.98-1.91 7.07-.14z" fill="url(#L)"/><path d="m-43.16 39.24 1.25 3.66 1.25-3.82c-.94-.86-1.77-.49-2.49.16z" fill="url(#M)"/><g fill-opacity=".36"><path d="m-45.63 32.1 3.06-1.47-.03-41.7c-1.64.05-2.57 1.1-3.18 2.06z" fill="#fff"/><path d="m-38.41 32.04-1.01-.84.21-41.24s.86.62.99.88z"/></g></g></svg>