<svg height="800" width="800" xmlns="http://www.w3.org/2000/svg" xmlns:xlink="http://www.w3.org/1999/xlink"><defs><path id="a" d="m234.214-238.408c-90.592 0-172.565 8.522-232.347 22.327-29.89 6.903-54.25 14.964-71.664 24.472-8.707 4.754-15.634 9.793-20.866 15.698s-8.97 13.294-8.97 21.548c0 0 6.24 468.006 333.843 468.006s333.843-468.006 333.843-468.006c0-8.253-3.74-15.643-8.97-21.548s-12.158-10.943-20.866-15.698c-17.414-9.51-41.773-17.57-71.664-24.472-59.778-13.806-141.75-22.327-232.347-22.327z"/><path id="b" d="m234.228-175.13c-82.165 0-156.49 8.67-210.703 22.788-27.1 7.06-49.21 15.355-65.004 25.08-7.897 4.862-14.218 9.998-18.963 16.036s-8.114 13.625-8.114 22.064 3.37 15.906 8.114 21.944 11.066 11.174 18.963 16.036c15.795 9.723 37.894 18.14 65.004 25.2 54.218 14.114 128.543 22.662 210.703 22.662 82.165 0 156.49-8.55 210.703-22.667 27.1-7.06 49.21-15.476 65.004-25.2 7.897-4.862 14.218-9.998 18.963-16.036s8.114-13.504 8.114-21.944-3.37-16.028-8.114-22.064c-4.732-6.047-11.052-11.183-18.943-16.046-15.798-9.723-37.9-18.02-65-25.078-54.22-14.115-128.555-22.785-210.705-22.785z"/><path id="c" d="m-99.615-154.385s6.24 468.048 333.843 468.048 333.842-468.048 333.842-468.048c-82.65 76.825-257.637 74.971-333.842 75.505-66.014-12.594-324.002-5.72-333.843-75.505z"/><radialGradient id="d" cx="130" cy="-18.99" gradientTransform="matrix(8.602 0 0 1.312 -889.103 -184.535)" gradientUnits="userSpaceOnUse" r="107"><stop offset="0" stop-color="#f7f7f7"/><stop offset="1" stop-color="#cecece" stop-opacity="0"/></radialGradient><linearGradient id="e" gradientUnits="userSpaceOnUse" x1="-38.918" x2="560.442" y1="-154.734" y2="-73.613"><stop offset="0" stop-color="#fff" stop-opacity=".5"/><stop offset="1" stop-color="#502816" stop-opacity="0"/></linearGradient><radialGradient id="f" cx="323.37" cy="457.92" gradientTransform="matrix(4.082 0 0 3.645 -1090.94 -1675.705)" gradientUnits="userSpaceOnUse" r="107"><stop offset="0" stop-color="#f9f9f9"/><stop offset="1" stop-color="#ccc" stop-opacity="0"/></radialGradient><linearGradient id="g" gradientUnits="userSpaceOnUse" x1="590.913" x2="526.733" y1="391.83" y2="492.83"><stop offset="0" stop-color="#808080"/><stop offset="1" stop-color="#808080" stop-opacity="0"/></linearGradient><filter id="h" color-interpolation-filters="sRGB"><feGaussianBlur stdDeviation="1.299"/></filter><filter id="i" color-interpolation-filters="sRGB" height="1.686" width="1.659" x="-.329" y="-.343"><feGaussianBlur stdDeviation="41.868"/></filter><linearGradient id="j" gradientUnits="userSpaceOnUse" x1="-317.353" x2="-236.096" y1="-222.32" y2="-133.554"><stop offset="0" stop-color="#ffd1d1"/><stop offset=".5" stop-color="#ff1d1d"/><stop offset="1" stop-color="#6f0000"/></linearGradient><linearGradient id="k" gradientUnits="userSpaceOnUse" x1="-361.281" x2="-303.97" y1="-148.287" y2="-100.726"><stop offset="0" stop-color="#c1c1c1"/><stop offset="1" stop-color="#acacac"/></linearGradient><radialGradient id="l" cx="29.053" cy="27.641" gradientTransform="matrix(62.622 -21.985 15.264 43.477 -3105.54 -196.895)" gradientUnits="userSpaceOnUse" r="3.241"><stop offset="0" stop-color="#e7e2b8"/><stop offset="1" stop-color="#e7e2b8" stop-opacity="0"/></radialGradient><linearGradient id="m" gradientUnits="userSpaceOnUse" x1="-916.786" x2="-923.743" y1="455.596" y2="449.762"><stop offset="0"/><stop offset="1" stop-color="#c9c9c9"/></linearGradient></defs><path d="m197.28 99.333-22.28-72.347-41.07-74.054 31.497-84.456 78.828-56.6 84.054 1.314 110.6 44.485-3.225 117.15 2.373 70.882-10.047 18.77-22.85 32.74-114.55 7.778z" fill="#c8b7b7" filter="url(#i)" opacity=".22" transform="translate(0 288.62)"/><g transform="matrix(-1.101 0 0 1.101 690.357 358.592)"><path d="m508.026-142.64-1.715 36.82c122.263-21.637 57.167 101.577-27.838 100.216l-1.393 62.634c126.175 12.47 248.2-226.417 30.944-199.665z" fill="#e1e1e1"/><path d="m537.22 406.56s41.833.38 51.693 7.32c27.193 19.135-35.523 96.704-82.672 75.478 31.46-3.42 104.8-74.757 30.98-82.797z" fill="url(#g)" filter="url(#h)" opacity=".5" transform="matrix(1.392 0 0 1.392 -215.947 -678.334)"/><use fill="#a9a9a9" xlink:href="#a"/><use fill="url(#d)" xlink:href="#a"/><use fill="#502816" xlink:href="#b"/><use fill="url(#e)" xlink:href="#b"/><use fill="#b5b5b5" xlink:href="#c"/><use fill="url(#f)" xlink:href="#c"/><path d="m234.228-238.408c-90.592 0-172.537 8.48-232.32 22.285-29.89 6.903-54.255 15.017-71.67 24.525-8.707 4.754-15.677 9.778-20.907 15.682s-8.947 13.324-8.947 21.577 3.715 15.556 8.947 21.46 12.2 10.928 20.907 15.682c17.414 9.51 41.78 17.74 71.67 24.643 59.778 13.806 141.72 22.167 232.32 22.167 90.592 0 172.538-8.36 232.32-22.167 29.89-6.903 54.255-15.134 71.67-24.643 8.707-4.754 15.677-9.778 20.907-15.682s8.947-13.206 8.947-21.46-3.715-15.673-8.947-21.577-12.2-10.928-20.907-15.682c-17.414-9.51-41.78-17.623-71.67-24.525-59.778-13.806-141.72-22.285-232.32-22.285zm0 17.096c89.864 0 171.215 8.543 229.688 22.05 29.24 6.753 52.807 14.798 68.46 23.346 7.827 4.274 13.642 8.696 17.115 12.616s4.376 6.795 4.376 8.96-.902 4.923-4.376 8.843-9.288 8.343-17.115 12.616c-15.654 8.548-39.22 16.71-68.46 23.464-58.473 13.511-139.816 21.937-229.688 21.937-89.858 0-171.215-8.425-229.688-21.932-29.24-6.753-52.807-14.917-68.46-23.464-7.827-4.274-13.642-8.696-17.115-12.616s-4.376-6.677-4.376-8.843.902-5.04 4.376-8.96 9.288-8.343 17.115-12.616c15.654-8.548 39.22-16.593 68.46-23.346 58.478-13.505 139.828-22.05 229.688-22.05z" fill="#ececec"/><path d="m-96.803-121.06-.2 3.006c0 9.232 3.63 17.347 8.82 23.95s12.106 12.22 20.745 17.538c17.277 10.636 41.498 19.837 71.153 27.56 59.315 15.443 140.622 24.853 230.495 24.853 89.88 0 171.187-9.4 230.495-24.853 29.655-7.722 53.876-16.922 71.153-27.56 8.64-5.318 15.554-10.933 20.745-17.538s8.82-14.72 8.82-23.95c0-1-.12-2.04-.2-3.006-.776 7.838-4.077 14.765-8.62 20.544-5.2 6.604-12.106 12.22-20.745 17.538-17.277 10.636-41.498 19.837-71.153 27.56-59.31 15.443-140.608 24.853-230.495 24.853-89.88 0-171.187-9.4-230.495-24.853-29.654-7.722-53.876-16.922-71.153-27.56-8.64-5.318-15.554-10.933-20.745-17.538-4.54-5.78-7.842-12.706-8.62-20.544z" fill="#000080"/><path d="m-58.847-84.577c30.18 14.604 44.518 22.51 74.466 18.8-6.73 79.87 10.88 216.09 59.85 300.646-64.734-83.386-113.961-166.896-134.316-319.446z" fill="#e6e6e6" opacity=".4"/></g><g fill-rule="evenodd" transform="translate(1020.026 243.637)"><path d="m-281.782-232.254c13.542.443 26.38 7.26 35.42 17.17 9.893 10.673 15.87 25.298 14.875 39.945-.793 12.587-6.952 24.54-16.128 33.086l-556.585 554.553-133.252 66.355 63.383-131.928 558.296-566.248c9.398-8.012 21.46-13.432 33.99-12.933z" fill="#fc0" stroke="#333" stroke-linejoin="round" stroke-width="22.702"/><path d="m-402.713-129.224s31.494-8.81 52.945 13.737c22.105 23.228 19.973 56.893 19.973 56.893l89.203-90.71s24.48-29.807-7.33-65.84c-31.356-35.57-66.258-4.573-66.258-4.573z" fill="url(#j)"/><path d="m-402.713-129.224s31.494-8.81 52.945 13.737c22.105 23.228 19.973 56.893 19.973 56.893l35.32-36.448s7.794-34.48-15.527-59.227c-23.967-25.408-57.4-11.424-57.4-11.424z" fill="url(#k)"/><path d="m-936.3 477.102 62.56-130.228c38.222 6.12 65.08 29.026 68.115 65.547z" fill="url(#l)"/><path d="m-918.103 436.88-22.82 46.353 47.85-24.314c-.712-17.053-12.012-21.36-25.03-22.04z" fill="url(#m)"/><g fill-opacity=".364"><path d="m-873.986 346.212 42.87 15.02 478.67-479.16c-15.956-14.986-34.753-13.892-49.504-10.58z" fill="#fff"/><path d="m-805.153 413.768-1.633-17.472 476.538-472.64s2.25 13.998 1.013 17.693z"/></g></g></svg>