<svg xmlns="http://www.w3.org/2000/svg" xmlns:xlink="http://www.w3.org/1999/xlink" viewBox="0 0 64 64"><defs><linearGradient id="A" x1="-38.9" x2="560.4" y1="-154.7" y2="-73.6" xlink:href="#F"><stop offset="0" stop-color="#fff" stop-opacity=".5"/><stop offset="1" stop-color="#502816" stop-opacity="0"/></linearGradient><linearGradient id="B" x1="590.9" x2="526.7" y1="391.8" y2="492.8" xlink:href="#F"><stop offset="0" stop-color="gray"/><stop offset="1" stop-color="gray" stop-opacity="0"/></linearGradient><linearGradient id="C" x1="-44.7" x2="-36.2" y1="-27.7" y2="-27.4" xlink:href="#F"><stop offset="0" stop-color="#ffd1d1"/><stop offset=".5" stop-color="#ff1d1d"/><stop offset="1" stop-color="#6f0000"/></linearGradient><linearGradient id="D" x1="-43.2" x2="-37.9" y1="-21.8" y2="-22.3" xlink:href="#F"><stop offset="0" stop-color="#c1c1c1"/><stop offset="1" stop-color="#acacac"/></linearGradient><linearGradient id="E" x1="-40.7" x2="-41.4" y1="36.1" y2="36.2" xlink:href="#F"><stop offset="0"/><stop offset="1" stop-color="#c9c9c9"/></linearGradient><linearGradient id="F" gradientUnits="userSpaceOnUse"/><radialGradient id="G" cx="130" cy="-19" r="107" gradientTransform="matrix(8.6 0 0 1.31 -889.1 -184.5)" xlink:href="#F"><stop offset="0" stop-color="#f7f7f7"/><stop offset="1" stop-color="#cecece" stop-opacity="0"/></radialGradient><radialGradient id="H" cx="323.4" cy="457.9" r="107" gradientTransform="matrix(4.08 0 0 3.65 -1091 -1675.7)" xlink:href="#F"><stop offset="0" stop-color="#f9f9f9"/><stop offset="1" stop-color="#ccc" stop-opacity="0"/></radialGradient><radialGradient id="I" cx="29.1" cy="27.6" r="3.2" gradientTransform="matrix(2.15 -4.48 3.11 1.49 -192.5 121.5)" xlink:href="#F"><stop offset="0" stop-color="#e7e2b8"/><stop offset="1" stop-color="#e7e2b8" stop-opacity="0"/></radialGradient><path id="J" d="M234.2-238.4c-90.6 0-172.6 8.5-232.3 22.3-30 7-54.3 15-71.7 24.5A75.8 75.8 0 00-90.7-176c-5.2 5.9-9 13.3-9 21.5 0 0 6.3 468 333.9 468s333.8-468 333.8-468c0-8.2-3.7-15.6-9-21.5s-12-11-20.8-15.7a291.7 291.7 0 00-71.7-24.5c-59.7-13.8-141.7-22.3-232.3-22.3z"/><path id="K" d="M234.2-175.1c-82.1 0-156.5 8.6-210.7 22.8-27 7-49.2 15.3-65 25a70.3 70.3 0 0 0-19 16c-4.7 6.1-8 13.7-8 22.1 0 8.5 3.3 16 8 22 4.8 6 11.1 11.2 19 16a245.3 245.3 0 0 0 65 25.2C77.8-11.9 152.1-3.3 234.2-3.3 316.4-3.3 390.7-12 445-26c27.1-7 49.2-15.5 65-25.2 8-4.8 14.2-10 19-16 4.7-6 8.1-13.5 8.1-22s-3.4-16-8.1-22-11-11.2-19-16c-15.7-9.8-37.8-18.1-65-25.2-54.2-14-128.5-22.7-210.6-22.7z"/><path id="L" d="M-99.6-154.4s6.2 468 333.8 468 333.9-468 333.9-468c-82.7 76.8-257.7 75-333.9 75.5-66-12.6-324-5.7-333.8-75.5z"/><filter id="M" width="1" height="1" x="0" y="0" color-interpolation-filters="sRGB"><feGaussianBlur/></filter><filter id="N" width="1.7" height="1.7" x="-.3" y="-.3" color-interpolation-filters="sRGB"><feGaussianBlur stdDeviation="41.9"/></filter></defs><path fill="#c8b7b7" d="M197.3 99.3L175 27l-41-74 31.4-84.5 78.9-56.6 84 1.3L439-142.3l-3.2 117.1 2.3 71-10 18.7-22.9 32.7-114.5 7.8z" filter="url(#N)" opacity=".2" transform="matrix(.07 0 0 .07 2 29.7)"/><path fill="#e1e1e1" d="M10.8 16l.2 3c-10.1-1.7-4.7 8.4 2.3 8.3l.1 5.2C3 33.5-7.1 13.8 10.8 16z"/><path fill="url(#B)" d="M537.2 406.6s41.8.3 51.7 7.3c27.2 19.1-35.5 96.7-82.7 75.5 31.5-3.5 104.8-74.8 31-82.8z" filter="url(#M)" opacity=".5" transform="matrix(-.12 0 0 .12 70.6 -28.2)"/><g transform="matrix(-.09 0 0 .09 52.8 27.8)"><use fill="#a9a9a9" xlink:href="#J"/><use fill="url(#G)" xlink:href="#J"/><use fill="#502816" xlink:href="#K"/><use fill="url(#A)" xlink:href="#K"/><use fill="#b5b5b5" xlink:href="#L"/><use fill="url(#H)" xlink:href="#L"/></g><path fill="#ececec" stroke="#ececec" stroke-width=".291" d="M33.4 8.1c7.5 0 14.3.7 19.2 1.9 2.5.5 4.5 1.2 6 2 .6.4 1.2.8 1.6 1.3.5.5.8 1 .8 1.8 0 .6-.3 1.2-.8 1.7-.4.5-1 1-1.7 1.3a24 24 0 01-5.9 2c-5 1.2-11.7 1.9-19.2 1.9-7.4 0-14.2-.7-19.1-1.8-2.5-.6-4.5-1.3-6-2l-1.7-1.4c-.4-.5-.7-1-.7-1.7s.3-1.3.7-1.8c.5-.5 1-1 1.8-1.3a24 24 0 015.9-2C19.3 8.8 26 8 33.4 8zm0 1.4c-7.4 0-14.1.7-19 1.8a23 23 0 00-5.6 2c-.6.3-1 .7-1.4 1s-.3.6-.3.8 0 .4.3.7c.3.3.8.7 1.4 1 1.3.7 3.3 1.4 5.7 2 4.8 1 11.5 1.8 19 1.8s14-.7 18.9-1.8c2.4-.6 4.3-1.3 5.6-2 .7-.3 1.2-.7 1.5-1s.3-.6.3-.7 0-.5-.3-.8c-.3-.3-.8-.7-1.5-1-1.2-.7-3.2-1.4-5.6-2a88.3 88.3 0 00-19-1.8z"/><path fill="navy" d="M60.8 17.8v.3c0 .7-.3 1.4-.7 2s-1 1-1.8 1.4c-1.4.8-3.4 1.6-5.8 2.2-5 1.3-11.6 2-19 2s-14.2-.7-19-2a22 22 0 0 1-6-2.2L6.8 20c-.5-.5-.7-1.2-.7-2v-.2c.1.6.4 1.2.7 1.7.5.5 1 1 1.7 1.4 1.5.9 3.5 1.7 6 2.3 4.8 1.3 11.5 2 19 2s14-.7 19-2c2.4-.6 4.4-1.4 5.8-2.3.7-.4 1.3-.9 1.7-1.4s.7-1 .7-1.7z"/><path fill="#e6e6e6" d="M57.6 20.8c-2.5 1.2-3.6 1.9-6.1 1.6a49 49 0 01-5 24.8 49.3 49.3 0 0011.1-26.4z" opacity=".4"/><g fill-rule="evenodd"><path fill="#fc0" stroke="#333" stroke-linejoin="round" stroke-width="2.14" d="M56.7 2.6c1.2 0 2.4.7 3.3 1.6a4.8 4.8 0 01-.1 6.9L15.4 55.3 3 61.6l6-12.4L53.5 3.8a5 5 0 013.1-1.2z"/><g transform="matrix(.89 .89 -.89 .89 78 61.1)"><path fill="url(#C)" d="M-45.9-9s1.2-2.1 3.6-2c2.4 0 4 1.9 4 1.9v-9.6s-.3-2.8-3.9-3c-3.5-.3-3.7 3.2-3.7 3.2z"/><path fill="url(#D)" d="M-45.9-9s1.2-2.1 3.6-2c2.4 0 4 1.9 4 1.9V-13s-1.4-2.3-4-2.4c-2.6 0-3.6 2.5-3.6 2.5z"/><path fill="url(#I)" d="M-42 42.3l-3.6-10.2c2.4-1.7 5-1.9 7-.1z"/><path fill="url(#E)" d="M-43.2 39.2l1.3 3.7 1.2-3.8c-.9-.9-1.7-.5-2.4.1z"/></g><g fill-opacity=".4"><path fill="#fff" d="M8.9 49l4 1.5 37-37.1c-1.4-1.5-3.2-1.3-4.6-1z"/><path d="M15.3 55.5l-.1-1.7 36.9-36.5s.2 1.3 0 1.7z"/></g></g></svg>