<svg viewBox="0 0 64 64" xmlns="http://www.w3.org/2000/svg" xmlns:xlink="http://www.w3.org/1999/xlink"><defs><path id="a" d="m20.43 2.98v4.08h2.4v23l-16.13 27.32a2.41 2.41 0 0 0 2.08 3.63h46.42a2.41 2.41 0 0 0 2.08-3.63l-16.1-27.33v-22.98h2.4v-4.1z"/><linearGradient id="b" gradientUnits="userSpaceOnUse" x1="-69.39" x2="-69.39" y1="43.61" y2="33.39"><stop offset="0" stop-color="#00dca6"/><stop offset="1" stop-color="#004f00"/></linearGradient><linearGradient id="c" gradientUnits="userSpaceOnUse" x1="28.28" x2="37.19" y1="42.41" y2="42.41"><stop offset="0" stop-color="#fff"/><stop offset="1" stop-color="#fff" stop-opacity="0"/></linearGradient></defs><g transform="matrix(1.05 0 0 1.05 -1.55 -1.55)"><use fill="#acf" xlink:href="#a"/><path d="m-77.07 33.9a2.19 2.19 0 0 0 -1.85 1.06l-3.65 6.2a.85.85 0 0 0 -.12.43c-.4.93-.4 2 .1 2.88.58 1.02 1.68 1.66 2.86 1.66h18.47c1.18 0 2.27-.63 2.86-1.66.5-.9.48-1.94.1-2.88a.85.85 0 0 0 -.12-.43l-3.65-6.2c-.38-.64-1.1-1.06-1.85-1.06z" fill="url(#b)" transform="matrix(1.99 0 0 1.99 172.15 -29.47)"/><path d="m23.87 26.8v.56h.46a.75.75 0 0 1 .75.75v11.56a.75.75 0 0 1 -.1.38l-8.1 13.75c-.16.28.07.7.4.7h23.35c.32 0 .56-.42.4-.7l-8.1-13.75a.75.75 0 0 1 -.12-.38v-11.57a.75.75 0 0 1 .75-.75h.44v-.56z" fill="url(#c)" opacity=".58" transform="matrix(1.99 0 0 1.99 -25.54 -48.79)"/><g fill="#a0ffc6" opacity=".8" transform="matrix(.6 .6 -.6 .6 4.63 7.4)"><circle cx="59.73" cy="2.12" r="2.89"/><circle cx="52.31" cy="20.99" r="4.81"/><circle cx="62.53" cy="10.44" r="2.15"/></g><use fill="none" stroke="#939dac" stroke-linejoin="round" stroke-width="3" xlink:href="#a"/></g></svg>