<svg height="64" width="64" xmlns="http://www.w3.org/2000/svg" xmlns:xlink="http://www.w3.org/1999/xlink"><defs><path id="a" d="m20.2 2.43v4.17h2.44v23.4l-16.41 27.87a2.46 2.46 0 0 0 2.12 3.7h47.3a2.46 2.46 0 0 0 2.12-3.7l-16.42-27.87v-23.4h2.43v-4.17z"/><path id="b" d="m23.87 26.8v.56h.46a.75.75 0 0 1 .75.75v11.56a.75.75 0 0 1 -.1.38l-8.1 13.75c-.16.28.07.7.4.7h23.35c.32 0 .56-.42.4-.7l-8.1-13.75a.75.75 0 0 1 -.12-.38v-11.57a.75.75 0 0 1 .75-.75h.44v-.56z"/><linearGradient id="c" gradientUnits="userSpaceOnUse" x1="-69.39" x2="-69.39" y1="43.61" y2="33.39"><stop offset="0" stop-color="#00dca6"/><stop offset="1" stop-color="#004f00"/></linearGradient><linearGradient id="d" gradientUnits="userSpaceOnUse" x1="28.93" x2="16.21" y1="39.74" y2="39.74"><stop offset="0" stop-color="#fff"/><stop offset="1" stop-color="#fff" stop-opacity="0"/></linearGradient><linearGradient id="e" gradientUnits="userSpaceOnUse" x1="30.01" x2="30.01" y1="-7.29" y2="57.16"><stop offset="0" stop-color="#fff"/><stop offset="1" stop-color="#c0efff"/></linearGradient><linearGradient id="f" gradientUnits="userSpaceOnUse" x1="25.26" x2="29.34" y1="43.29" y2="43.29"><stop offset="0" stop-color="#fff" stop-opacity="0"/><stop offset="1" stop-color="#fff" stop-opacity="0"/></linearGradient></defs><use fill="url(#e)" xlink:href="#a"/><path d="m-77.07 33.9a2.19 2.19 0 0 0 -1.85 1.06l-3.65 6.2a.85.85 0 0 0 -.12.43c-.4.93-.4 2 .1 2.88.58 1.02 1.68 1.66 2.86 1.66h18.47c1.18 0 2.27-.63 2.86-1.66.5-.9.48-1.94.1-2.88a.85.85 0 0 0 -.12-.43l-3.65-6.2c-.38-.64-1.1-1.06-1.85-1.06z" fill="url(#c)" transform="matrix(2.03 0 0 2.03 174.82 -30.64)"/><g fill="#a0ffc6" opacity=".8" transform="matrix(.61 .61 -.61 .61 4.11 6.93)"><circle cx="59.73" cy="2.12" r="2.89"/><circle cx="52.31" cy="20.99" r="4.81"/><circle cx="62.53" cy="10.44" r="2.15"/></g><use fill="none" stroke="#53536c" stroke-linejoin="round" stroke-width="4.86" xlink:href="#a"/><g transform="matrix(2.03 0 0 2.03 -26.63 -50.33)"><use fill="url(#d)" opacity=".58" xlink:href="#b"/><use fill="url(#f)" stroke="#d5fff6" stroke-linejoin="round" stroke-width=".96" xlink:href="#b"/></g></svg>