<svg xmlns="http://www.w3.org/2000/svg" fill="#59f" viewBox="0 0 64 64"><g transform="translate(1 .9) scale(.96821)"><path d="M52.2 30.4c-2.4 0-3.9 1.2-3.9 3.4l.1 13.3c0 1.8 2.4 1.6 2.4-.1v-9.4s0-.2.2-.2h.8l.2.2v24.1h2.6V48.1h3.2v13.6h2.6v-24c0-.2 0-.3.2-.3h.7c.2 0 .3.2.3.3V47c0 2 2.4 1.8 2.4.1V33.7c0-2.4-1.7-3.3-3.8-3.3zM17.8 13H7.3c-2.3 0-2.6 1.3-2.6 1.3-.4 1-3.4 14.3-4.7 20.4v.1c-.4 2.1 2.2 2 2.8.1l3.3-11.7a1.4 1.4 0 01.4-.7l.2-.1h.4l.1.2v.6L2.8 47.7h3.4v12.5h4L10 47.7h5l.1 12.5H19l-.1-12.5h3.9L17.9 23l.1-.5.1-.2h.2l.4.1c.2.1.3.4.4.7l3 11.6c.2.9.5 1.4.8 1.8s.8.4 1.1.3c.4-.1.7-.4.9-.8s.2-.9 0-1.4l-3.4-17c-.5-1.7-.8-2.8-1.3-3.6-.6-.9-1.5-1-2.4-1z"/><path d="M27 13c-4.3 0-4.7 2.5-4.7 4.8v19c0 2.4 3.5 2.3 3.5-.2V23.1c.2-.7 1.7-.7 1.8.1v37h5.2l-.1-20.8h2.7l.1 20.8h5V23.1c.2-.7 1.7-.6 1.7 0v13.5c0 2.7 3.8 2.4 3.8.2v-19c0-3.8-1.6-4.8-5.1-4.8z"/><circle cx="12.2" cy="7" r="4.4"/><circle cx="34.1" cy="6.9" r="4.4"/><circle cx="56.4" cy="25.3" r="3.8"/></g></svg>