<svg xmlns="http://www.w3.org/2000/svg" fill="#59f" viewBox="0 0 64 64"><path d="M52.2 30.4c-1.3 0-2.2.4-2.9 1-.5.6-.8 1.4-1 2.4l.1 13.3.1.6a.6.6 0 00.2.4 1.2 1.2 0 00.9.2c.3 0 .6-.2.8-.4a1.3 1.3 0 00.4-.9v-9.4s0-.2.2-.2h.8l.2.2v24.2h2.6V48.4v-.2h.2l.1-.1H57.7a.2.2 0 010 .3l.2 13.3h2.5v-24c0-.2 0-.3.2-.3h.7c.2 0 .3.2.3.3V47l.1 1c.1.2.4.4 1 .4.7 0 1-.3 1.1-.5l.2-.8V33.7c-.2-1.3-.6-2.2-1.2-2.7s-1.6-.6-2.6-.6zm3.5-9.2c-1 0-2 .5-2.7 1.2a4.3 4.3 0 00-1 2.9 4.3 4.3 0 001 2.9 4 4 0 002.9 1.2 4 4 0 002.7-1.2c.8-.8 1.2-1.9 1.2-3a4.3 4.3 0 00-1.2-2.9 3.9 3.9 0 00-2.9-1.1zM17.8 13H7.3c-.6 0-1.2 0-1.6.3l-1 1c-.5 1-.8 2.1-1 3.3 0 0-.1 0 0 0L0 34.7v.1a2 2 0 000 1.3c.1.4.4.7.8.8.3.1.7 0 1-.3s.8-.9 1-1.7l3.3-11.7c.1-.4.3-.6.4-.7a.6.6 0 01.2-.1H7.1a.5.5 0 01.1.2v.6L2.8 47.7h3.4v12.5h4L10 47.7H15l.1 12.5H19l-.1-12.5h3.9L17.9 23l.1-.5a.5.5 0 01.1-.2h.2l.4.1c.2.1.3.4.4.7l3 11.6c.2.9.5 1.4.8 1.8s.8.4 1.1.3c.4-.1.7-.4.9-.8.2-.4.2-.9 0-1.4l-3.4-17c-.5-1.7-.8-2.8-1.3-3.6-.6-.9-1.5-1-2.4-1zM12.3 2.2c-1.2 0-2.3.6-3 1.4S7.8 5.7 7.8 7a4.9 4.9 0 001.4 3.3 4.3 4.3 0 003 1.3c1.2 0 2.3-.5 3.1-1.3s1.3-2 1.3-3.3c0-1.2-.4-2.5-1.3-3.3-.4-.5-.9-.8-1.4-1s-1.1-.4-1.7-.4z"/><path d="M40.3 13H27.8l-2.6.5c-.7.2-1.2.6-1.6 1s-.7 1-1 1.5c-.1.5-.3 1.1-.3 1.8v19c.1.5.4 1 .8 1.2s.8.4 1.3.3c.4 0 .6-.2 1-.5.3-.3.4-.7.4-1.2V23.2v-.1c.2-.7 1.7-.7 1.8.1v37h5.2l-.1-20.8h2.7l.1 20.8h5v-37-.1c.2-.7 1.7-.6 1.7 0v13.5c.2.8.5 1.3 1 1.6.3.3.7.3 1.1.3.8-.2 1.5-.9 1.7-1.7v-19c0-1-.3-1.9-.6-2.5s-.7-1-1.2-1.4a7 7 0 00-3.9-.8zM34.1 2.3c-1.1 0-2.3.6-3 1.4A5 5 0 0029.7 7c0 1.2.5 2.4 1.3 3.3s2 1.3 3.1 1.3 2.3-.5 3-1.3c.9-.9 1.4-2 1.4-3.3a5 5 0 00-1.3-3.3 4.4 4.4 0 00-1.4-1c-.6-.3-1.2-.4-1.7-.4z"/></svg>