<svg fill="#59f" viewBox="0 0 64 64" xmlns="http://www.w3.org/2000/svg"><path d="m52.2 30.42h-.02c-1.3.06-2.22.42-2.83 1-.6.6-.9 1.4-.97 2.33v.02c0-.02 0-.01 0 .01l.03 13.35.1.6a.59.59 0 0 0 .22.35 1.2 1.2 0 0 0 .85.23c.3-.03.6-.17.8-.4a1.27 1.27 0 0 0 .37-.88v-9.4c0-.12.1-.23.22-.23h.82c.13 0 .23.1.23.23v24.14l2.63.01-.07-13.4c0-.08.04-.16.1-.2l.1-.06c.04-.02.08-.03.12-.03h2.57c.04 0 .08.01.1.03l.1.05a.24.24 0 0 1 .12.2l.1 13.38 2.5.01v-24.1c0-.13.1-.23.24-.23l.7.02c.12 0 .22.1.22.23v9.4c-.01.32.03.7.18.96s.4.47.97.48c.73-.01 1-.28 1.14-.56s.13-.6.12-.73v-13.48c-.12-1.38-.54-2.23-1.2-2.72s-1.52-.6-2.52-.6zm3.53-9.26c-1 .03-2 .5-2.7 1.24a4.25 4.25 0 0 0 -1.12 2.85 4.25 4.25 0 0 0 1.16 2.9c.73.76 1.76 1.2 2.78 1.2a3.92 3.92 0 0 0 2.79-1.2c.73-.76 1.16-1.82 1.16-2.9a4.26 4.26 0 0 0 -1.2-2.94c-.75-.76-1.8-1.2-2.86-1.16zm-37.93-8.08-10.5.01c-.64-.02-1.15.1-1.57.35-.43.24-.76.6-1.02 1.02-.52.87-.8 2.04-1.1 3.25 0 .02-.01.03 0 .01v.01l-3.47 17.05c0 .01-.01.02-.01.03-.18.48-.17.95-.03 1.33.14.4.42.67.76.78.34.1.76.02 1.13-.3s.72-.9.97-1.75v-.01l3.24-11.66c0-.01 0-.01.01-.02.14-.36.3-.58.43-.7a.59.59 0 0 1 .19-.12c.03-.01.06-.02.1-.02s.07.01.07.01.08.03.12.08a.48.48 0 0 1 .08.16c.04.15.04.35-.03.6l-4.37 24.51h3.4v12.5h3.98l-.1-12.52h4.92l.12 12.48 3.8.01-.12-12.5h3.9l-4.76-24.62c-.03-.23 0-.4.07-.5a.45.45 0 0 1 .11-.13c.05-.04.12-.05.15-.05.15-.02.27.04.4.16s.3.32.42.62c0 .01.01.02.01.03l2.96 11.62c.2.86.5 1.43.84 1.76s.78.4 1.13.3c.36-.1.67-.4.85-.77.18-.4.24-.87.1-1.37 0-.01 0-.01-.01-.02l-3.43-17c-.55-1.7-.82-2.83-1.3-3.57-.62-.93-1.56-.98-2.45-1.07zm-5.52-10.85c-1.14.01-2.27.53-3.07 1.4s-1.28 2.07-1.28 3.27a4.87 4.87 0 0 0 1.33 3.26 4.3 4.3 0 0 0 3.08 1.34c1.14 0 2.27-.5 3.08-1.34s1.3-2.05 1.32-3.26c.01-1.23-.48-2.47-1.3-3.33-.4-.44-.9-.78-1.45-1s-1.12-.35-1.7-.34z"/><path d="m40.32 13.07-12.55.02c-1.02.04-1.85.2-2.54.43s-1.23.58-1.65 1-.73.9-.93 1.44c-.2.55-.32 1.15-.36 1.8v.02l.05 18.95c.1.62.38 1.05.75 1.3s.83.35 1.26.3c.44-.05.68-.2 1.03-.52.3-.28.42-.7.44-1.2v-13.41c0-.03.01-.06.02-.1.15-.73 1.7-.73 1.8.1v37h5.15l-.1-20.77h2.7l.14 20.75h4.93v-37c0-.04.01-.07.03-.1.17-.68 1.66-.62 1.7.04.01.03.02.06.02.1v13.38c0 .03.01.03 0 .01.2.78.52 1.3.9 1.58.37.3.8.36 1.2.28.8-.16 1.53-.87 1.72-1.63v-19.11c-.08-1-.3-1.8-.6-2.4s-.72-1.08-1.22-1.42c-1-.67-2.34-.84-3.87-.84zm-6.2-10.85c-1.14.02-2.27.53-3.07 1.4a4.92 4.92 0 0 0 -1.25 3.28c.02 1.2.5 2.4 1.32 3.26s1.95 1.34 3.08 1.34c1.14 0 2.27-.5 3.08-1.34.82-.83 1.3-2.04 1.33-3.25 0-1.23-.48-2.47-1.3-3.34a4.38 4.38 0 0 0 -1.45-1c-.54-.23-1.13-.35-1.7-.35z"/></svg>