<svg fill="#6f8a91" height="64" width="64" xmlns="http://www.w3.org/2000/svg"><path d="m41.72 4.9a4.22 4.34 0 0 1 -8.45 0 4.22 4.34 0 1 1 8.45 0zm-10.57 6c-3.9.16-5.1 1.92-5.27 4.32l.05 18.03c.36 2.24 3.45 1.65 3.5-.1.18-5.23-.01-12.83-.01-12.83.67-1.4 1.72-.86 1.72.1v39.65c0 2.73 5.2 2.73 5.28 0l-.1-19.97c.38-.63 1.6-.6 2-.05l.14 20.02c-.08 2.73 5.07 2.73 5.07 0v-39.75c.65-1.12 1.3-1.2 1.94.04v12.8c.8 2.9 3.2 1.54 3.55.23v-18.19c-.33-3.68-2.5-4.32-5.5-4.32zm-14.63-6a4.22 4.34 0 0 1 -8.45 0 4.22 4.34 0 1 1 8.45 0zm-9.2 6c-2.46-.1-2.9 2-3.53 4.32l-3.39 16.23c-.74 1.8 1.57 3.25 2.57 0l3.2-11.1c.56-1.4 1.46-.96 1.15.07l-4.32 28.98 3.36-.15v10.82c0 2.73 4.3 2.73 4.36 0l-.1-10.97c.32-.63 3.42-.6 3.74-.05l.12 11c-.07 2.73 4.18 2.73 4.18 0l-.13-10.68h3.86l-4.69-29.07c-.14-.92.82-1.2 1.36.04l2.92 11.1c.72 3.25 3.22 1.8 2.66 0l-3.4-16.23c-1.07-3.2-1.07-4.32-3.57-4.32zm46.18 20.32c-2.24.1-3.13 1.2-3.23 2.72l.03 11.34c.2 1.4 1.98 1.04 2-.06v-8.07c.38-.88 1.2-.54 1.2.07v24.93c0 1.72 2.84 1.72 2.88 0l-.06-11.67c.22-.4 1.24-.37 1.46-.03l.08 11.7c-.04 1.72 2.75 1.72 2.75 0v-25c.37-.7.74-.75 1.1.03v8.05c.47 1.83 1.83.97 2.04.14v-11.43c-.2-2.3-1.43-2.72-3.15-2.72zm6.56-4.5a3.35 3.36 0 0 1 -6.7 0 3.35 3.36 0 1 1 6.7 0z"/></svg>