<svg fill="#125593" height="64" stroke="#125593" stroke-linejoin="round" stroke-width=".498" width="64" xmlns="http://www.w3.org/2000/svg"><path d="m41.721 4.9a4.223 4.333 0 0 1 -8.447 0 4.223 4.333 0 1 1 8.447 0z"/><path d="m31.148 10.887c-3.898.156-5.11 1.922-5.27 4.317l.053 18.03c.357 2.243 3.448 1.652 3.506-.087.175-5.234-.01-12.83-.01-12.83.665-1.4 1.72-.86 1.72.114v39.645c0 2.726 5.2 2.726 5.283 0l-.108-19.968c.384-.632 1.604-.59 1.988-.045l.14 20.015c-.077 2.726 5.068 2.726 5.068 0v-39.76c.645-1.124 1.29-1.2 1.936.04v12.795c.812 2.908 3.186 1.543 3.55.227v-18.175c-.33-3.68-2.49-4.317-5.488-4.317z"/><path d="m16.523 4.9a4.223 4.333 0 0 1 -8.447 0 4.223 4.333 0 1 1 8.447 0z"/><path d="m7.316 10.887c-2.458-.085-2.9 2.002-3.532 4.317l-3.384 16.244c-.736 1.8 1.57 3.253 2.565 0l3.208-11.1c.555-1.4 1.46-.964 1.153.073l-4.353 28.979 3.36-.146v10.822c0 2.726 4.3 2.726 4.36 0l-.1-10.968c.32-.632 3.42-.6 3.74-.045l.116 11.014c-.065 2.726 4.18 2.726 4.18 0l-.133-10.677h3.855l-4.713-29.082c-.135-.923.822-1.2 1.36.04l2.92 11.1c.723 3.247 3.222 1.8 2.656 0l-3.368-16.244c-1.07-3.2-1.065-4.317-3.567-4.317zm46.18 20.328c-2.238.098-3.132 1.2-3.225 2.715l.03 11.338c.205 1.4 1.98 1.04 2.014-.055l-.005-8.068c.382-.88 1.187-.54 1.187.07v24.932c0 1.715 2.835 1.715 2.877 0l-.062-11.673c.22-.397 1.235-.372 1.455-.03l.08 11.702c-.044 1.715 2.753 1.715 2.753 0v-25.002c.37-.707.74-.75 1.112.026v8.047c.466 1.83 1.83.97 2.038.143v-11.43c-.2-2.314-1.428-2.715-3.15-2.715z"/><path d="m60.061 26.726a3.35 3.36 0 0 1 -6.7 0 3.35 3.36 0 1 1 6.7 0z"/></svg>