<svg viewBox="0 0 64 64" xmlns="http://www.w3.org/2000/svg"><path d="m59.281 26.816h-36.445c-2.157 0-3.905 1.745-3.905 3.897v23.381c0 2.152 1.748 3.897 3.905 3.897h20.826v4.284a.92.92 0 0 0 1.566.647l4.942-4.932h9.111c2.157 0 3.905-1.745 3.905-3.897v-23.381c0-2.152-1.748-3.897-3.905-3.897z" fill="#595"/><path d="m36.828 49.465a1.3 1.3 0 0 1 -.92-.38l-6.508-6.495a1.297 1.297 0 0 1 0-1.837c.508-.507 1.332-.507 1.841 0l5.588 5.576 12.096-12.07c.508-.507 1.332-.507 1.841 0a1.297 1.297 0 0 1 0 1.837l-13.016 12.989a1.298 1.298 0 0 1 -.92.381z" fill="#fff" stroke="#fff" stroke-width="2"/><path d="m37.624 19.31c0-10.111-8.197-18.309-18.309-18.309s-18.308 8.197-18.308 18.309c0 8.857 6.29 16.244 14.646 17.941l5.514 5.514a.81.81 0 0 0 1.379-.571v-4.877c8.568-1.528 15.077-8.999 15.077-18.006z" fill="#5555e1"/><path d="m19.316 31.233a1.326 1.326 0 1 1 -.002-2.652 1.326 1.326 0 0 1 1.327 1.325v.001c0 .732-.594 1.325-1.325 1.325zm-.001-5.298c-.731 0-1.324-.593-1.324-1.324v-.396c0-1.761 1.145-3.288 2.848-3.799a5.33 5.33 0 0 0 3.772-5.073c0-1.379-.561-2.697-1.58-3.716s-2.339-1.58-3.716-1.58a5.3 5.3 0 0 0 -5.295 5.295c0 .731-.593 1.324-1.324 1.324s-1.324-.593-1.324-1.324c0-4.38 3.563-7.944 7.942-7.944h.001c2.084 0 4.069.837 5.588 2.355s2.355 3.504 2.355 5.588a8 8 0 0 1 -5.659 7.61c-.573.172-.961.68-.961 1.262v.396a1.324 1.324 0 0 1 -1.323 1.325z" fill="#fff" stroke="#fff" stroke-width="2"/></svg>