<svg enable-background="new 0 0 512 512" viewBox="0 0 512 512" xmlns="http://www.w3.org/2000/svg"><path d="m479.66986 213.48821h-298.72884c-17.67679 0-32.00701 14.30091-32.00701 31.94155v191.64812c0 17.64064 14.33022 31.94155 32.00701 31.94155h170.70201v35.11726c0 6.6867 8.09995 10.03488 12.83762 5.3057l40.507-40.42296h74.68221c17.67679 0 32.00701-14.30091 32.00701-31.94155v-191.64812c0-17.64064-14.33022-31.94155-32.00701-31.94155z" fill="#595"/><path d="m295.63374 399.13632c-2.7302 0-5.4616-1.03967-7.544-3.1178l-53.34461-53.23553c-4.16719-4.15748-4.16719-10.89845 0-15.05593 4.166-4.15748 10.9208-4.15748 15.08679 0l45.80182 45.70574 99.14522-98.94247c4.166-4.15748 10.92079-4.15748 15.08679 0 4.16721 4.15748 4.16721 10.89846 0 15.05594l-106.68922 106.47104c-2.08118 2.07934-4.81259 3.11901-7.54279 3.11901z" fill="#fff" stroke="#fff" stroke-width="16"/><path d="m302.15623 151.96532c0-82.880994-67.188-150.0689938-150.069-150.0689938-82.881005 0-150.0690049 67.1879998-150.0690049 150.0689938 0 72.598 51.5549999 133.146 120.0500049 147.054l45.199 45.199c4.171 4.171 11.303 1.217 11.303-4.682v-39.978c70.228-12.525 123.586-73.764 123.586-147.593z" fill="#5555e1"/><g fill="#fff" stroke="#fff" stroke-width="15.999943"><path d="m152.09406413 249.69060148c-.00368818 0-.00983515.00122939-.01352333 0-5.9932938 0-10.85923367-4.86471048-10.85923367-10.85923367 0-.00122939 0-.00368818 0-.00737636s0-.00368818 0-.00737636c0-5.9932938 4.86471048-10.85923367 10.85923367-10.85923367.00245879 0 .00860576-.00122939.01352333 0 5.9932938 0 10.85923367 4.86471048 10.85923367 10.85923367v.00368818.00860576c.00122939 5.99698198-4.86471048 10.86169246-10.85923367 10.86169246z"/><path d="m152.08791716 206.26719013c-5.9932938 0-10.8530867-4.8597929-10.8530867-10.8530867v-3.24191092c0-14.43676904 9.38150256-26.94953711 23.34495507-31.13685171 18.20240164-5.45850758 30.91679025-22.55814317 30.91801965-41.58546791.00122939-11.28952143-4.59916146-22.10818511-12.95289097-30.46191462-8.35250012-8.35250012-19.16870501-12.95289097-30.45822644-12.95289097-.00122939 0-.00122939 0-.00368818 0-23.935064.00122939-43.40742923 19.47482402-43.40742923 43.40988802 0 5.9932938-4.8597929 10.8530867-10.8530867 10.8530867s-10.8530867-4.8597929-10.8530867-10.8530867c0-35.9019813 29.20793315-65.11237324 65.11114384-65.11606142h.00491757c17.08611225 0 33.35098958 6.8575575 45.80474675 19.30885588 12.45375717 12.45375717 19.31131467 28.72232268 19.30885588 45.80966432-.00245879 28.53545485-19.07772988 54.18429353-46.38747932 62.3732843-4.70980688 1.41257325-7.8754954 5.5703824-7.8754954 10.34657654v3.24191092c.00491757 6.00067016-4.85487533 10.85800428-10.84816913 10.85800428z"/></g></svg>