<svg xmlns="http://www.w3.org/2000/svg" viewBox="0 0 64 64"><defs/><path fill="#595" d="M59.281 26.816H22.836a3.901 3.901 0 00-3.905 3.897v23.381a3.901 3.901 0 003.905 3.897h20.826v4.284a.92.92 0 001.566.647l4.942-4.932h9.111a3.901 3.901 0 003.905-3.897V30.712a3.901 3.901 0 00-3.905-3.897z"/><path fill="#fff" stroke="#fff" stroke-width="2" d="M36.828 49.465a1.3 1.3 0 01-.92-.38L29.4 42.59a1.297 1.297 0 010-1.837 1.304 1.304 0 011.841 0l5.588 5.576 12.096-12.07a1.304 1.304 0 011.841 0 1.297 1.297 0 010 1.837L37.75 49.085a1.298 1.298 0 01-.92.381z"/><path fill="#5555e1" d="M37.624 19.31c0-10.111-8.197-18.309-18.309-18.309S1.007 9.198 1.007 19.31c0 8.857 6.29 16.244 14.646 17.941l5.514 5.514a.81.81 0 001.379-.571v-4.877c8.568-1.528 15.077-8.999 15.077-18.006z"/><path fill="#fff" stroke="#fff" stroke-width="2" d="M19.316 31.233a1.326 1.326 0 11-.002-2.652 1.326 1.326 0 011.327 1.325v.001c0 .732-.594 1.325-1.325 1.325zm-.001-5.298a1.324 1.324 0 01-1.324-1.324v-.396c0-1.761 1.145-3.288 2.848-3.799a5.33 5.33 0 003.772-5.073c0-1.379-.561-2.697-1.58-3.716s-2.339-1.58-3.716-1.58a5.3 5.3 0 00-5.295 5.295 1.324 1.324 0 01-2.648 0c0-4.38 3.563-7.944 7.942-7.944h.001c2.084 0 4.069.837 5.588 2.355s2.355 3.504 2.355 5.588a8 8 0 01-5.659 7.61c-.573.172-.961.68-.961 1.262v.396a1.324 1.324 0 01-1.323 1.325z"/></svg>