<svg xmlns="http://www.w3.org/2000/svg" viewBox="0 0 512 512" xmlns:v="https://vecta.io/nano"><path d="M479.67 213.488H180.94c-17.677 0-32.007 14.3-32.007 31.942v191.648c0 17.64 14.33 31.942 32.007 31.942h170.702v35.117c0 6.687 8.1 10.035 12.838 5.306l40.507-40.423h74.682c17.677 0 32.007-14.3 32.007-31.942V245.43c0-17.64-14.33-31.942-32.007-31.942z" fill="#595"/><path d="M295.634 399.136c-2.73 0-5.462-1.04-7.544-3.118l-53.345-53.236a10.63 10.63 0 0 1 0-15.056c4.166-4.157 10.92-4.157 15.087 0l45.802 45.706L394.78 274.5c4.166-4.157 10.92-4.157 15.087 0a10.63 10.63 0 0 1 0 15.056l-106.69 106.47a10.64 10.64 0 0 1-7.543 3.119z" fill="#fff" stroke="#fff" stroke-width="16"/><path d="M302.156 151.965c0-82.88-67.188-150.07-150.07-150.07S2.018 69.084 2.018 151.965c0 72.598 51.555 133.146 120.05 147.054l45.2 45.2c4.17 4.17 11.303 1.217 11.303-4.682v-39.978c70.228-12.525 123.586-73.764 123.586-147.593z" fill="#5555e1"/><path d="M152.094 249.7a10.87 10.87 0 0 1-10.873-10.859 10.87 10.87 0 0 1 10.859-10.874 10.87 10.87 0 0 1 10.873 10.859v.012c.001 5.997-4.865 10.862-10.86 10.862zm-.006-43.423c-5.993 0-10.853-4.86-10.853-10.853v-3.242c0-14.437 9.382-26.95 23.345-31.137 18.202-5.46 30.917-22.558 30.918-41.585.001-11.3-4.6-22.108-12.953-30.462s-19.17-12.953-30.458-12.953c-23.94.001-43.4 19.475-43.4 43.4 0 5.993-4.86 10.853-10.853 10.853s-10.853-4.86-10.853-10.853c0-35.902 29.208-65.112 65.1-65.116h.005c17.086 0 33.35 6.858 45.805 19.3s19.3 28.722 19.3 45.8c-.002 28.535-19.078 54.184-46.387 62.373-4.7 1.413-7.875 5.57-7.875 10.347v3.242a10.85 10.85 0 0 1-10.848 10.858z" fill="#fff" stroke="#fff" stroke-width="16"/></svg>