<svg enable-background="new 0 0 512 512" height="64" viewBox="0 0 64 64" width="64" xmlns="http://www.w3.org/2000/svg" xmlns:xlink="http://www.w3.org/1999/xlink"><linearGradient id="a" gradientUnits="userSpaceOnUse" x1="58.008" x2="58.008" y1="7.051" y2="52.579"><stop offset="0" stop-color="#dbdee3"/><stop offset="1" stop-color="#b7bec8"/></linearGradient><g stroke-width=".125"><path d="m58.093 3.134h-52.187c-2.558 0-4.632 2.074-4.632 4.632v48.786h61.451v-48.786c0-2.558-2.074-4.632-4.632-4.632z" fill="url(#a)"/><g fill="#d7e3f4"><path d="m5.992 31.275h52.016v18.869h-52.016z"/><path d="m5.992 7.051h52.016v18.869h-52.016z"/></g></g><path d="m32 19.875c1.661 0 3.012-1.351 3.012-3.012s-1.351-3.012-3.012-3.012-3.012 1.351-3.012 3.012 1.351 3.012 3.012 3.012z" fill="#939dac" stroke="#939dac" stroke-width="2"/><g stroke-width=".125"><path d="m3.825 56.553h8.924v4.462h-8.924z" fill="#b7bec8"/><path d="m51.251 56.553h8.924v4.462h-8.924z" fill="#b7bec8"/><path d="m46.152 18.254 9.307 13.004h-29.323z" fill="#fff"/><path d="m58.093 1.785h-52.186c-3.257 0-5.907 2.65-5.907 5.907v48.786c0 .704.571 1.275 1.275 1.275h1.275v3.188c0 .704.571 1.275 1.275 1.275h8.924c.704 0 1.275-.571 1.275-1.275v-3.188h35.952v3.188c0 .704.571 1.275 1.275 1.275h8.924c.704 0 1.275-.571 1.275-1.275v-3.188h1.275c.704 0 1.275-.571 1.275-1.275v-48.786c0-3.257-2.65-5.907-5.907-5.907zm-46.619 57.881h-6.375v-1.913h6.375zm47.426 0h-6.375v-1.913h6.375zm-56.351-4.463v-47.511c0-1.851 1.506-3.357 3.357-3.357h52.187c1.851 0 3.357 1.506 3.357 3.357v47.511h-58.901z" fill="#6f7c91"/><path d="m58.008 7.051h-52.016c-.704 0-1.275.571-1.275 1.275v18.869c0 .704.571 1.275 1.275 1.275h24.057l-4.317 2.805h-19.74c-.704 0-1.275.571-1.275 1.275v18.869c0 .704.571 1.275 1.275 1.275h52.016c.704 0 1.275-.571 1.275-1.275v-18.869c0-.704-.571-1.275-1.275-1.275h-1.883l-2.007-2.805h3.89c.704 0 1.275-.571 1.275-1.275v-18.869c0-.704-.571-1.275-1.275-1.275zm-5.03 24.207h-3.639l-3.442-4.59c-.423-.563-1.222-.677-1.785-.255s-.677 1.222-.255 1.785l2.295 3.06h-3.251l-1.339-1.785c-.423-.563-1.222-.677-1.785-.255s-.677 1.222-.255 1.785l.191.255h-9.275l15.386-9.996zm3.755 18.885h-49.466v-16.319h49.466zm0-24.223h-4.44l-5.105-7.133c-.397-.554-1.159-.699-1.731-.327l-11.483 7.46h-26.707v-16.319h49.466z" fill="#939dac"/></g><path d="m32 43.466c1.661 0 3.012-1.351 3.012-3.012s-1.351-3.012-3.012-3.012-3.012 1.351-3.012 3.012 1.351 3.012 3.012 3.012z" fill="#939dac" stroke="#939dac" stroke-width="2"/></svg>