<svg viewBox="0 0 64 64" xmlns="http://www.w3.org/2000/svg"><path d="m61 .5h-58a2.09 2.09 0 0 0 -2.09 2.09v10.37a2.09 2.09 0 0 0 2.09 2.09h2.59l19.13 22.49v23.86c0 .77.43 1.48 1.11 1.85a2.05 2.05 0 0 0 .99.25c.41 0 .81-.12 1.16-.35l10.36-6.91c.58-.39.93-1.04.93-1.74v-16.96l19.14-22.48h2.59a2.09 2.09 0 0 0 2.09-2.09v-10.38a2.09 2.09 0 0 0 -2.09-2.09z" fill="#214478" stroke="#214478"/><path d="m58.9 10.87h-53.8v-6.18h53.81zm-23.31 24.55a2.11 2.11 0 0 0 -.5 1.36v16.6l-6.18 4.12v-20.73a2.11 2.11 0 0 0 -.5-1.36l-17.32-20.35h41.82z" fill="#d5f6ff"/></svg>