<svg xmlns="http://www.w3.org/2000/svg" viewBox="0 0 64 64"><path fill="#214478" stroke="#214478" d="M61 .5H3A2.09 2.09 0 00.91 2.59v10.37A2.09 2.09 0 003 15.05h2.59l19.13 22.49V61.4c0 .77.43 1.48 1.11 1.85a2.05 2.05 0 00.99.25c.41 0 .81-.12 1.16-.35l10.36-6.91c.58-.39.93-1.04.93-1.74V37.54l19.14-22.48H61a2.09 2.09 0 002.09-2.09V2.59A2.09 2.09 0 0061 .5z"/><path fill="#d5f6ff" d="M58.9 10.87H5.1V4.69h53.81zM35.59 35.42a2.11 2.11 0 00-.5 1.36v16.6l-6.18 4.12V36.77a2.11 2.11 0 00-.5-1.36L11.09 15.06h41.82z"/></svg>