<svg viewBox="0 0 32 32" xmlns="http://www.w3.org/2000/svg" xmlns:xlink="http://www.w3.org/1999/xlink"><defs><path id="A" d="M27.98 6.92A14.8 14.8 0 0 0 16.6 1.04c-3.48-.08-5.89.97-7.25 1.81 1.82-1.05 4.46-1.65 6.77-1.62 5.93.07 12.31 4.11 13.25 11.4 1.09 8.36-4.74 15.34-12.93 15.36-9.02.03-14.5-7.96-13.07-15.12a7.4 7.4 0 0 1 .16-1.05A14.18 14.18 0 0 1 5.1 6.56c-1.04.54-2.36 2.24-3.02 3.81a15.51 15.51 0 0 0-.97 7.57c.02.19.04.39.07.58a15.02 15.02 0 1 0 26.8-11.6z"/><path id="B" d="M28.01 8.05A8.42 8.42 0 0 0 26.18 5a11.33 11.33 0 0 0-3.41-2.43 15.19 15.19 0 0 0-3.35-1.19 14.93 14.93 0 0 0-6.21-.04c-2.13.45-4.01 1.37-5.19 2.52a12.04 12.04 0 0 1 3.01-1.2A12.59 12.59 0 0 1 22.72 5.7a10.13 10.13 0 0 1 1.62 1.99c1.83 2.98 1.66 6.74.23 8.95-1.06 1.64-3.34 3.19-5.46 3.17a8.86 8.86 0 0 0 8.14-4.08c1.5-2.33 1.55-5.31.76-7.68z"/><radialGradient id="C" cx="27.48" cy="7.09" r="33.59" xlink:href="#N"><stop offset="0" stop-color="#fff36e"/><stop offset=".5" stop-color="#fc4055"/><stop offset="1" stop-color="#e31587"/></radialGradient><radialGradient id="D" cx="3.46" cy="8.48" r="19.88" xlink:href="#N"><stop offset=".001" stop-color="#c60084"/><stop offset="1" stop-color="#fc4055" stop-opacity="0"/></radialGradient><radialGradient id="E" cx="30.35" cy="5.18" r="39.44" xlink:href="#N"><stop offset="0" stop-color="#ffde67" stop-opacity=".6"/><stop offset=".093" stop-color="#ffd966" stop-opacity=".58"/><stop offset=".203" stop-color="#ffca65" stop-opacity=".53"/><stop offset=".321" stop-color="#feb262" stop-opacity=".43"/><stop offset=".446" stop-color="#fe8f5e" stop-opacity=".3"/><stop offset=".573" stop-color="#fd6459" stop-opacity=".14"/><stop offset=".664" stop-color="#fc4055" stop-opacity="0"/></radialGradient><radialGradient id="F" cx="16.66" cy="17.46" r="50.88" xlink:href="#N"><stop offset=".153" stop-color="#810220"/><stop offset=".167" stop-color="#920b27" stop-opacity=".86"/><stop offset=".216" stop-color="#cb2740" stop-opacity=".4"/><stop offset=".253" stop-color="#ef394f" stop-opacity=".11"/><stop offset=".272" stop-color="#fc4055" stop-opacity="0"/></radialGradient><radialGradient id="G" cx="12.81" cy="16.82" r="50.88" xlink:href="#N"><stop offset=".113" stop-color="#810220"/><stop offset=".133" stop-color="#920b27" stop-opacity=".86"/><stop offset=".204" stop-color="#cb2740" stop-opacity=".4"/><stop offset=".257" stop-color="#ef394f" stop-opacity=".11"/><stop offset=".284" stop-color="#fc4055" stop-opacity="0"/></radialGradient><linearGradient id="H" x1="17.97" x2="26.68" y1="3.91" y2="19.01" xlink:href="#N"><stop offset="0" stop-color="#ffbd4f"/><stop offset=".508" stop-color="#ff9640" stop-opacity="0"/></linearGradient><radialGradient id="I" cx="26.25" cy="5.53" r="31.56" xlink:href="#N"><stop offset="0" stop-color="#ff9640"/><stop offset=".8" stop-color="#fc4055"/></radialGradient><radialGradient id="J" cx="32.55" cy="1.97" r="53.35" xlink:href="#N"><stop offset=".054" stop-color="#fff36e"/><stop offset=".457" stop-color="#ff9640"/></radialGradient><linearGradient id="K" x1="22.86" x2="2.52" y1="3.65" y2="38.88" xlink:href="#N"><stop offset="0" stop-color="#fff36e" stop-opacity=".8"/><stop offset=".094" stop-color="#fff36e" stop-opacity=".7"/><stop offset=".52" stop-color="#ff5e14" stop-opacity=".29"/><stop offset=".819" stop-color="#fff377" stop-opacity="0"/></linearGradient><linearGradient id="L" x1="16.03" x2="24.06" y1=".78" y2="24.04" xlink:href="#N"><stop offset="0" stop-color="#b833e1"/><stop offset=".371" stop-color="#9059ff"/><stop offset=".614" stop-color="#5b6df8"/><stop offset="1" stop-color="#0090ed"/></linearGradient><linearGradient id="M" x1="11.26" x2="26.2" y1="1.15" y2="16.08" xlink:href="#N"><stop offset=".805" stop-color="#722291" stop-opacity="0"/><stop offset="1" stop-color="#592acb" stop-opacity=".5"/></linearGradient><linearGradient id="N" gradientUnits="userSpaceOnUse"/></defs><path d="M29.74 12.22C28.89 4.6 22.1 1.18 16.12 1.23c-2.31.02-4.95.57-6.77 1.62a7.39 7.39 0 0 0-1.33 1.02c.05-.04.19-.16.43-.33l.02-.01.02-.01a10 10 0 0 1 2.89-1.34 16.31 16.31 0 0 1 4.94-.59 12.47 12.47 0 0 1 11.72 12c.14 4.95-3.91 8.9-8.59 9.13-3.4.16-6.6-1.48-8.16-4.77a8.13 8.13 0 0 1-.74-2.37c-.74-5.01 2.63-9.28 5.71-10.33-1.66-1.45-5.83-1.35-8.93.93-2.24 1.64-3.69 4.14-4.17 7.12a12.35 12.35 0 0 0 .88 6.75 13.24 13.24 0 0 0 11.28 8.04q.56.04 1.12.04c9.92 0 14.23-7.53 13.3-15.91z" fill="url(#I)"/><path d="M27.98 6.92a14.98 14.98 0 0 0-1.3-1.49 11.75 11.75 0 0 0-1.19-1.1 9.15 9.15 0 0 1 .69.67 8.43 8.43 0 0 1 1.83 3.05c.78 2.37.73 5.34-.76 7.68a8.83 8.83 0 0 1-7.82 4.09c-.13 0-.27 0-.41-.01-5.63-.34-7.05-6.11-4.12-8.61-.79-.17-2.28.16-3.31 1.71-.93 1.39-.87 3.53-.3 5.05a8.13 8.13 0 0 1-.73-2.37c-.75-5.02 2.61-9.29 5.69-10.34-1.66-1.45-5.83-1.35-8.93.93a10.44 10.44 0 0 0-3.78 5.47A14.44 14.44 0 0 1 5.1 6.57c-1.04.54-2.37 2.24-3.02 3.81a15.51 15.51 0 0 0-.97 7.56c.02.19.04.39.07.58a15.02 15.02 0 1 0 26.8-11.6z" fill="url(#K)"/><use fill="url(#C)" xlink:href="#A"/><use fill="url(#D)" opacity=".67" xlink:href="#A"/><use fill="url(#E)" xlink:href="#A"/><use fill="url(#F)" xlink:href="#A"/><use fill="url(#G)" xlink:href="#A"/><path d="M29.37 12.63a15.38 15.38 0 0 1 .11 2.72q.75-.11 1.5-.2a15 15 0 0 0-3-8.23A14.8 14.8 0 0 0 16.6 1.04c-3.48-.08-5.89.97-7.25 1.81 1.82-1.05 4.46-1.65 6.77-1.62 5.93.07 12.31 4.11 13.25 11.4z" fill="url(#H)"/><path d="M19.45 22.72c6.41-.39 9.16-5.7 9.33-9.47.27-5.88-3.22-12.23-12.46-11.66a16.31 16.31 0 0 0-4.94.59A10.82 10.82 0 0 0 8.5 3.51l-.02.01-.02.01q-.21.15-.42.31a12.55 12.55 0 0 1 7.85-1.45c5.3.7 10.15 4.82 10.15 10.26 0 4.19-3.24 7.39-7.03 7.16-5.63-.34-7.05-6.11-4.12-8.61-.79-.17-2.27.16-3.31 1.71-.93 1.39-.87 3.53-.3 5.05a8.29 8.29 0 0 0 8.16 4.77z" fill="url(#J)"/><use fill="url(#L)" xlink:href="#B"/><use fill="url(#M)" xlink:href="#B"/></svg>