<svg viewBox="0 0 64 64" xmlns="http://www.w3.org/2000/svg"><path d="m61.55 19.16c-.79-1.47-2.1-2.54-3.69-3.02s-3.28-.32-4.74.47-2.54 2.1-3.02 3.69c-.32 1.06-.35 2.16-.1 3.21l-6.72 3.6c-2.05-2.87-5.24-4.87-8.9-5.33v-5.74c2.65-.72 4.61-3.14 4.61-6.01 0-3.43-2.79-6.23-6.23-6.23s-6.23 2.79-6.23 6.23c0 2.87 1.96 5.3 4.61 6.01v5.74c-4.68.59-8.59 3.69-10.32 7.91l-7.36-1.98c0-1.08-.27-2.15-.83-3.11-.83-1.44-2.17-2.47-3.78-2.91-3.32-.89-6.74 1.08-7.63 4.39-.43 1.61-.21 3.29.62 4.73s2.17 2.47 3.78 2.91c.54.15 1.09.22 1.63.22 1.08 0 2.14-.28 3.1-.83s1.73-1.34 2.27-2.27l7.36 1.98c-.08.58-.12 1.17-.12 1.77 0 2.98 1.02 5.72 2.71 7.9l-5.4 5.39c-2.38-1.37-5.47-1.04-7.51.99-2.43 2.43-2.43 6.38 0 8.81 1.22 1.22 2.81 1.82 4.4 1.82s3.19-.61 4.4-1.82c2.03-2.03 2.36-5.12.99-7.51l5.4-5.4c2.19 1.7 4.93 2.71 7.9 2.71s5.72-1.02 7.9-2.71l5.4 5.4c-1.37 2.38-1.04 5.47.99 7.51 1.22 1.22 2.81 1.82 4.4 1.82s3.19-.61 4.4-1.82c2.43-2.43 2.43-6.38 0-8.81-2.03-2.03-5.12-2.36-7.51-.99l-5.4-5.4c1.7-2.19 2.71-4.93 2.71-7.9 0-1.63-.31-3.18-.86-4.61l6.72-3.6c.74.79 1.67 1.37 2.73 1.7.6.18 1.21.27 1.81.27 1.01 0 2.01-.25 2.93-.74 1.47-.79 2.54-2.1 3.02-3.69s.31-3.28-.47-4.74z" fill="#333"/><path d="m53.56 51.16c1.16 1.16 1.16 3.06 0 4.23-1.16 1.16-3.06 1.16-4.23 0-1.16-1.16-1.16-3.06 0-4.23.58-.58 1.35-.87 2.11-.87s1.53.29 2.11.87zm-37.39 4.22c-1.16 1.16-3.06 1.16-4.23 0-1.16-1.16-1.16-3.06 0-4.23.58-.58 1.35-.87 2.11-.87s1.53.29 2.11.87c1.16 1.17 1.16 3.06 0 4.23zm-9.72-24.8c-.77-.21-1.41-.7-1.81-1.4-.4-.69-.5-1.5-.29-2.27.43-1.59 2.07-2.54 3.66-2.11.77.21 1.41.7 1.81 1.4.4.69.5 1.5.29 2.27-.43 1.59-2.07 2.54-3.66 2.11zm23.32-20.56c0-1.65 1.34-2.99 2.99-2.99s2.99 1.34 2.99 2.99-1.34 2.99-2.99 2.99-2.99-1.34-2.99-2.99zm12.65 24.55c0 5.33-4.34 9.67-9.67 9.67s-9.67-4.34-9.67-9.67 4.34-9.67 9.67-9.67 9.67 4.34 9.67 9.67zm15.05-9.84c-.7.38-1.51.46-2.28.23a3 3 0 0 1 -1.77-1.45c-.38-.7-.46-1.51-.23-2.28a3 3 0 0 1 1.45-1.77c.44-.23.92-.36 1.41-.36.29 0 .58.04.87.13a3 3 0 0 1 1.77 1.45c.38.7.46 1.51.23 2.28a3 3 0 0 1 -1.45 1.77z" fill="#2ad4ff"/></svg>