<svg xmlns="http://www.w3.org/2000/svg" height="64" width="64"><path d="M63.018 63.018L.982 62.99V36.504h51.03l3.002-4.002 3.002 4.002h5.003z" fill="#6737ec"/><path d="M.982 36.404h35.02L21.994 63.018H.982z" fill="#593bb1"/><path d="M64 64H0V35.422h51.52l3.493-4.657 3.493 4.657H64V64zM1.964 62.036h60.073v-24.65h-4.512l-2.51-3.348-2.51 3.348H1.964z" fill="#1d1d1b"/><path d="M33 41.525h24.014v1.964H33zm15 5.003h9.005v1.964H48zM7.986 51.53h28.016v1.964H7.986zm30.017 0h19v1.964h-19zm-3 5.003h22.013v1.964H35.002zm-16-10.005h27.016v1.964H18.992z" fill="#fff" fill-opacity=".724"/><path d="M.982.908l62.036.03v26.586h-51.03l-3.002 4.002-3.002-4.002H.982z" fill="#ff7f2a"/><path d="M63.018.908v26.615h-35.02L42.006.908z" fill="#f60"/><path d="M6.985 5.73H30v1.964H6.985zm0 5.002h35.02v1.964H6.985zm0 5.003H17.99V17.7H6.985zm13.008 0h15V17.7h-15zM6.985 20.737h17V22.7h-17zm37.022-10.005H50v1.964h-6.003zM32 5.73h4.002v1.964H32z" fill="#fff" fill-opacity=".724"/><path d="M8.987 33.235l-3.493-4.657H0V0h64v28.578H12.48zm-7.023-6.62h4.512l2.51 3.348 2.51-3.348h50.54V1.964H1.964z" fill="#1d1d1b"/></svg>