<svg enable-background="new 0 0 491.537 491.537" viewBox="0 0 491.537 491.537" xmlns="http://www.w3.org/2000/svg"><path d="m245.768 116.773v-116.773l-9.516 5.148c-46.067 24.921-73.57 66.65-73.57 111.625 0 41.446 23.37 80.123 63.086 105.443v-105.443z" fill="#91dc5a"/><path d="m265.768 116.773v105.443c39.717-25.319 63.086-63.997 63.086-105.443 0-44.975-27.503-86.704-73.57-111.625l-9.516-5.148v116.773z" fill="#6dc82a"/><path d="m373.386 238.221 85.608-50.888-9.288-5.55c-20.011-11.957-41.657-18.277-62.599-18.277-17.854 0-34.414 4.462-49.216 13.261-29.396 17.474-47.198 49.969-48.988 88.406l74.263-44.144z" fill="#91dc5a"/><path d="m383.606 255.413-74.251 44.137c16.888 8.184 34.602 12.476 51.84 12.476 17.854 0 34.415-4.462 49.217-13.261 32.463-19.297 50.789-56.913 49.021-100.622l-.438-10.811-85.608 50.888z" fill="#6dc82a"/><path d="m118.15 238.221-85.608-50.888-.438 10.811c-1.768 43.709 16.557 81.324 49.021 100.622 14.803 8.8 31.362 13.261 49.217 13.261 17.238 0 34.952-4.292 51.84-12.476l-74.251-44.137z" fill="#6dc82a"/><path d="m128.369 221.029 74.263 44.144c-1.789-38.438-19.592-70.932-48.988-88.406-14.803-8.8-31.362-13.261-49.216-13.261-20.941 0-42.588 6.32-62.599 18.277l-9.288 5.55 85.608 50.888z" fill="#91dc5a"/><path d="m265.768 348.942v-23.483l43.586-25.909 74.251-44.137-10.219-17.192-10.219-17.192-74.263 44.144-23.136 13.753v-56.711-105.442h-20-20v105.443 56.711l-23.136-13.753-74.263-44.144-10.219 17.192-10.219 17.192 74.251 44.137 43.586 25.909v23.483c6.594-.932 13.276-1.41 20-1.41s13.406.477 20 1.409z" fill="#00665a"/><path d="m245.768 347.532c-6.724 0-13.406.478-20 1.41-28.852 4.077-56.008 16.874-77.544 36.676-5.478-.857-11.015-1.289-16.559-1.289-59.115 0-107.208 48.093-107.208 107.208h221.311z" fill="#b39a7c"/><path d="m359.872 384.329c-5.545 0-11.081.432-16.56 1.289-21.536-19.802-48.692-32.6-77.544-36.677-6.594-.932-13.276-1.41-20-1.41v144.005h221.312c0-59.113-48.094-107.207-107.208-107.207z" fill="#a78966"/></svg>