<svg xmlns="http://www.w3.org/2000/svg" viewBox="0 0 491.537 491.537" xmlns:v="https://vecta.io/nano"><path d="M245.768 116.773V0l-9.516 5.148c-46.067 24.92-73.57 66.65-73.57 111.625 0 41.446 23.37 80.123 63.086 105.443V116.773z" fill="#91dc5a"/><path d="M265.768 116.773v105.443c39.717-25.32 63.086-63.997 63.086-105.443 0-44.975-27.503-86.704-73.57-111.625L245.768 0v116.773z" fill="#6dc82a"/><path d="M373.386 238.22l85.608-50.888-9.288-5.55c-20.01-11.957-41.657-18.277-62.6-18.277-17.854 0-34.414 4.462-49.216 13.26-29.396 17.474-47.198 49.97-48.988 88.406l74.263-44.144z" fill="#91dc5a"/><path d="M383.606 255.413l-74.25 44.137c16.888 8.184 34.602 12.476 51.84 12.476 17.854 0 34.415-4.462 49.217-13.26 32.463-19.297 50.8-56.913 49.02-100.622l-.438-10.8-85.608 50.888zM118.15 238.22l-85.608-50.888-.438 10.8c-1.768 43.7 16.557 81.324 49.02 100.622 14.803 8.8 31.362 13.26 49.217 13.26 17.238 0 34.952-4.292 51.84-12.476l-74.25-44.137z" fill="#6dc82a"/><path d="M128.37 221.03l74.263 44.144c-1.79-38.438-19.592-70.932-48.988-88.406-14.803-8.8-31.362-13.26-49.216-13.26-20.94 0-42.588 6.32-62.6 18.277l-9.288 5.55 85.608 50.888z" fill="#91dc5a"/><path d="M265.768 348.942V325.46l117.837-70.046-20.438-34.384-97.4 57.897V116.773h-40v162.154l-97.4-57.897-20.438 34.384 117.837 70.046v23.483a142.9 142.9 0 0 1 40-.001z" fill="#00665a"/><path d="M245.768 347.532a142.9 142.9 0 0 0-20 1.41c-28.852 4.077-56.008 16.874-77.544 36.676a107.14 107.14 0 0 0-16.559-1.289c-59.115 0-107.208 48.093-107.208 107.208h221.31z" fill="#b39a7c"/><path d="M359.872 384.33c-5.545 0-11.08.432-16.56 1.29a144.68 144.68 0 0 0-77.544-36.677 142.9 142.9 0 0 0-20-1.41v144.005H467.08c0-59.113-48.094-107.207-107.208-107.207z" fill="#a78966"/></svg>