<svg xmlns="http://www.w3.org/2000/svg" viewBox="0 0 97 97"><path fill="#f05133" d="M92.7 44.408L52.59 4.29a5.92 5.92 0 00-8.369 0l-8.33 8.332L46.46 23.2a7.024 7.024 0 017.23 1.685 7.03 7.03 0 011.67 7.275l10.186 10.185a7.03 7.03 0 017.275 1.67c2.75 2.75 2.75 7.206 0 9.958s-7.208 2.75-9.96 0a7.037 7.037 0 01-1.53-7.658l-9.5-9.5v24.997a7.06 7.06 0 011.861 1.332c2.75 2.75 2.75 7.206 0 9.96s-7.21 2.75-9.957 0a7.043 7.043 0 012.307-11.497V36.37a6.98 6.98 0 01-2.307-1.537 7.041 7.041 0 01-1.516-7.698l-10.417-10.42-27.5 27.507a5.92 5.92 0 000 8.371L44.41 92.71a5.92 5.92 0 008.369 0L92.7 52.78a5.92 5.92 0 000-8.371z"/></svg>