<svg xmlns="http://www.w3.org/2000/svg" height="97" width="97" xmlns:v="https://vecta.io/nano"><path d="M92.7 44.408L52.59 4.29a5.92 5.92 0 0 0-8.369 0l-8.33 8.332L46.46 23.2c2.456-.83 5.272-.273 7.23 1.685a7.03 7.03 0 0 1 1.67 7.275l10.186 10.185c2.465-.85 5.307-.3 7.275 1.67 2.75 2.75 2.75 7.206 0 9.958s-7.208 2.75-9.96 0c-2.068-2.07-2.58-5.1-1.53-7.658l-9.5-9.5v24.997a7.06 7.06 0 0 1 1.861 1.332c2.75 2.75 2.75 7.206 0 9.96s-7.21 2.75-9.957 0c-2.75-2.754-2.75-7.2 0-9.96.68-.68 1.467-1.193 2.307-1.537V36.37a6.98 6.98 0 0 1-2.307-1.537c-2.083-2.082-2.584-5.14-1.516-7.698l-10.417-10.42-27.5 27.507a5.92 5.92 0 0 0 0 8.371L44.41 92.71a5.92 5.92 0 0 0 8.369 0L92.7 52.78a5.92 5.92 0 0 0 0-8.371z" fill="#f05133"/></svg>