<svg xmlns="http://www.w3.org/2000/svg" viewBox="0 0 64 64"><defs/><path fill="#fc6d26" d="M64.074 36.358L53.37 3.412a1.229 1.229 0 00-2.331 0l-7.1 21.9H20.307l-7.1-21.9a1.227 1.227 0 00-2.329 0l-7.098 21.9L.177 36.358a2.447 2.447 0 00.885 2.734L32.12 61.66l31.054-22.568a2.451 2.451 0 00.899-2.734"/><path fill="#e24329" d="M32.122 61.643l11.8-36.343H20.317z"/><path fill="#fc6d26" d="M32.122 61.643L20.308 25.3H3.778z"/><path fill="#fca326" d="M3.765 25.3L.172 36.354a2.447 2.447 0 00.885 2.734L32.122 61.66z"/><path fill="#e24329" d="M3.77 25.3h16.55L13.198 3.423a1.229 1.229 0 00-2.331 0z"/><path fill="#fc6d26" d="M32.122 61.643l11.8-36.343H60.5z"/><path fill="#fca326" d="M60.478 25.3l3.593 11.043a2.442 2.442 0 01-.885 2.734L32.123 61.643 60.47 25.3z"/><path fill="#e24329" d="M60.485 25.3h-16.55l7.1-21.888a1.227 1.227 0 012.329 0z"/></svg>