<svg height="64" width="64" xmlns="http://www.w3.org/2000/svg"><path d="m64.074 36.358-10.704-32.946a1.229 1.229 0 0 0 -2.331 0l-7.1 21.9h-23.632l-7.1-21.9a1.227 1.227 0 0 0 -2.329 0l-7.098 21.9-3.603 11.046a2.447 2.447 0 0 0 .885 2.734l31.058 22.568 31.054-22.568a2.451 2.451 0 0 0 .899-2.734" fill="#fc6d26"/><path d="m32.122 61.643 11.8-36.343h-23.605z" fill="#e24329"/><path d="m32.122 61.643-11.814-36.343h-16.53z" fill="#fc6d26"/><path d="m3.765 25.3-3.593 11.054a2.447 2.447 0 0 0 .885 2.734l31.065 22.572z" fill="#fca326"/><path d="m3.77 25.3h16.55l-7.122-21.877a1.229 1.229 0 0 0 -2.331 0z" fill="#e24329"/><path d="m32.122 61.643 11.8-36.343h16.578z" fill="#fc6d26"/><path d="m60.478 25.3 3.593 11.043a2.442 2.442 0 0 1 -.885 2.734l-31.063 22.566 28.347-36.343z" fill="#fca326"/><path d="m60.485 25.3h-16.55l7.1-21.888a1.227 1.227 0 0 1 2.329 0z" fill="#e24329"/></svg>