<svg xmlns="http://www.w3.org/2000/svg" viewBox="0 0 64 64"><path fill="#fc6d26" d="M64 36.4l-10.6-33a1.2 1.2 0 00-2.4 0l-7 22H20.2l-7-22a1.2 1.2 0 00-2.4 0l-7.1 22-3.6 11A2.4 2.4 0 001 39l31 22.6 31-22.6a2.5 2.5 0 001-2.7"/><path fill="#e24329" d="M32.1 61.6L44 25.3H20.3z"/><path fill="#fc6d26" d="M32.1 61.6L20.3 25.3H3.8z"/><path fill="#fca326" d="M3.8 25.3l-3.6 11a2.4 2.4 0 00.9 2.8l31 22.6z"/><path fill="#e24329" d="M3.8 25.3h16.5L13.2 3.4a1.2 1.2 0 00-2.3 0z"/><path fill="#fc6d26" d="M32.1 61.6L44 25.3h16.6z"/><path fill="#fca326" d="M60.5 25.3l3.6 11a2.4 2.4 0 01-1 2.8l-31 22.5 28.4-36.3z"/><path fill="#e24329" d="M60.5 25.3H43.9L51 3.4a1.2 1.2 0 012.4 0z"/></svg>