<svg viewBox="0 0 48 48" xmlns="http://www.w3.org/2000/svg" xmlns:xlink="http://www.w3.org/1999/xlink"><defs><linearGradient id="a" gradientUnits="userSpaceOnUse"><stop offset="0" stop-color="#fff"/><stop offset="1" stop-color="#fff" stop-opacity="0"/></linearGradient><radialGradient id="b" cx="18.54" cy="15.22" gradientTransform="matrix(1.34 0 0 1 -6.89 -.71)" gradientUnits="userSpaceOnUse" r="29.99"><stop offset="0" stop-color="#dbe9ff"/><stop offset=".155" stop-color="#d3e9ff"/><stop offset=".75" stop-color="#4074ae"/><stop offset="1" stop-color="#36486c"/></radialGradient><radialGradient id="c" cx="15.6" cy="12.14" gradientUnits="userSpaceOnUse" r="43.53"><stop offset="0" stop-color="#fff"/><stop offset="1" stop-color="#fff" stop-opacity=".17"/></radialGradient><linearGradient id="d" x1="-25.18" x2="-22.25" xlink:href="#a" y1="30.06" y2="21.04"/><linearGradient id="e" x1="-25.18" x2="-22.11" xlink:href="#a" y1="30.06" y2="22.66"/><linearGradient id="f" x1="-22.82" x2="-22.11" xlink:href="#a" y1="28.34" y2="22.66"/><linearGradient id="g" x1="-21.66" x2="-21.96" xlink:href="#a" y1="15.65" y2="21.34"/><path id="h" d="m-2.83 21.04a15.73 9.46 0 1 1 -31.47 0 15.73 9.46 0 1 1 31.47 0z"/></defs><path d="m46.03 23.7c0 11.89-9.64 21.54-21.55 21.54s-21.53-9.64-21.53-21.54 9.64-21.55 21.54-21.55 21.55 9.64 21.55 21.55z" fill="url(#b)" stroke="#39396c" stroke-width="1.11"/><g fill="#204a87" fill-opacity=".71"><path d="m45.24 20.33-.59.67c-.36-.43-.76-.79-1.2-1.17l-.91.13-.83-.94v1.18l.71.54.48.54.64-.72.48.9v.9l-.71.81-1.31.9-.99.99-.64-.72.33-.81-.64-.72-1.07-2.29-.91-1.03-.24.27.36 1.3.67.76 1.27 3.23c.78 0 1.52-.08 2.3-.18v.63l-.95 2.34-.87.99-.71 1.53v2.51l.24 1-.4.44-.87.54-.91.76.76.85-1.03.9.2.58-1.55 1.74h-1.03l-.87.54h-.54v-.72l-.24-1.44-.95-2.69.08-1.96.4-.9-.54-1.08.04-1.48-.76-.85.38-1.22-.61-.7h-1.07l-.36-.4-1.07.67-.44-.5-.98.85-2.02-2.29-.79-1.89.71-1.08-.4-.44.87-2.07 2.22-2.6 1.35-.36 1.51-.18 1.03.27 1.47 1.48.52-.58.71-.09 1.35.44h1.01l.71-.63.33-.44-.71-.45-1.2-.09c-.33-.46-.64-.94-1.03-1.35l-.4.17-.16 1.17-.71-.81-.16-.9-.79-.63h-.32l.79.9-.33.81-.63.18.4-.81-.71-.36-.63-.72-1.2.27-.16.36-.71.45-.4 1-.98.49-.44-.49h-.48v-1.62l1.03-.54h.79l-.16-.63-.63-.63 1.07-.22.59-.67.48-.81h.87l-.24-.63.54-.36v.72l1.2.27 1.2-.99.08-.45 1.03-.72c-.37.05-.75.08-1.11.18v-.81l.4-.9h-.4l-.87.81-.24.45.24.63-.4 1.08-.63-.36-.56-.63-.87.63-.33-1.44 1.51-.99v-.54l.95-.63 1.51-.36 1.03.36 1.9.36-.48.54h-1.03l1.03 1.08.79-.9.24-.39s3.04 2.73 4.78 5.71 2.56 6.5 2.56 7.2zm-19.64-12.53-.08.54.54.36.95-.63-.48-.54-.64.36-.33-.09m.9-3.68-2.07-.81-2.38.27-2.95.81-.56.54 1.82 1.25v.72l-.71.72.95 1.89.63-.36.8-1.26a27.27 27.27 0 0 0 3.49-1.35l.95-2.42m2.15 7.55-.33-.81-.54.18.16.99zm.31-.18-.16 1.08.87-.18.63-.63-.56-.54c-.19-.5-.4-.96-.64-1.44h-.47v.54l.33.36zm-11.75 17.04-.64-1.26-1.2-.27-.64-1.7-1.59.18-1.35-.99-1.42 1.26v.2c-.43-.13-.96-.14-1.35-.38l-.33-.9v-.99l-.95.09.24-1.89h-.56l-.56.72-.56.27-.79-.44-.08-.99.16-1.08 1.19-.9h.95l.16-.54 1.19.27.87 1.08.16-1.8 1.51-1.26.56-1.35 1.11-.44.63-.9 1.42-.27.71-1.08h-2.15l1.35-.63h.95l1.35-.45.16-.54-.48-.45-.54-.18.16-.54-.4-.81-.95.36.16-.72-1.11-.63-.87 1.53.08.54-.87.36-.54 1.17-.24-1.08-1.51-.63-.24-.81 1.98-1.17.87-.81.08-.99-.48-.27-.64-.09-.4.99-.83.17c-2.18 2.01-6.58 6.34-7.6 14.52.04.19.74 1.29.74 1.29l1.67.99 1.67.45.71.9 1.11.81.63-.09.48.21v.14l-.63 1.71-.48.72.16.36-.4 1.34 1.43 2.6 1.43 1.26.64.9-.08 1.89.48 1.08-.48 2.07s-.04-.01.02.19 2.54 1.58 2.7 1.47l.29-.22-.16-.44.63-.63.24-.63 1.03-.36.79-1.96-.24-.54.56-.81 1.2-.27.64-1.44-.16-1.8.95-1.35.16-1.35-3.89-1.96m-1.74-20.44.79.54h.64v-.63l-.79-.36zm-2.07-.72-.4.99h.79l.4-.9 1.03-.72.79.27 1.59 1.08.79-.72-.87-.36-.4-.81-1.51-.18-.08-.45-.71.18-.33.63-.4-.81-.16.36.08.9-.64.54"/><path d="m16.23 5.2.4-.36.79-.18c.54-.26 1.09-.44 1.67-.63l-.33-.54-1.02.15-.48.48-.8.12-.71.33-.33.17-.22.28zm1.36 8.53.48-.72-.71-.54.24 1.25"/></g><g fill="none" transform="matrix(1.11 0 0 1.11 -2.99 -2.53)"><path d="m42.98 23.49a18.41 18.41 0 0 1 -18.41 18.41 18.41 18.41 0 0 1 -18.41-18.41 18.41 18.41 0 0 1 18.41-18.41 18.41 18.41 0 0 1 18.41 18.41z" opacity=".4" stroke="url(#c)"/><g stroke-linejoin="round"><g stroke-width=".88"><use stroke="url(#d)" transform="matrix(1.13 .61 -.48 .88 54.09 16.04)" xlink:href="#h"/><use stroke="url(#e)" transform="matrix(.94 -.88 .68 .73 32.31 -4.45)" xlink:href="#h"/></g><use stroke="url(#f)" stroke-width=".88" transform="matrix(-1.28 -.13 .1 -1 -2.4 40.52)" xlink:href="#h"/><use stroke="url(#g)" stroke-width=".9" transform="matrix(.92 -.86 .67 .71 27.63 -6.91)" xlink:href="#h"/></g></g></svg>