<svg xmlns="http://www.w3.org/2000/svg" xmlns:xlink="http://www.w3.org/1999/xlink" viewBox="0 0 48 48"><defs><linearGradient id="a" gradientUnits="userSpaceOnUse"><stop offset="0" stop-color="#fff"/><stop offset="1" stop-color="#fff" stop-opacity="0"/></linearGradient><linearGradient id="d" x1="-25.2" x2="-22.3" y1="30.1" y2="21" xlink:href="#a"/><linearGradient id="f" x1="-25.2" x2="-22.1" y1="30.1" y2="22.7" xlink:href="#a"/><linearGradient id="g" x1="-22.8" x2="-22.1" y1="28.3" y2="22.7" xlink:href="#a"/><linearGradient id="h" x1="-21.7" x2="-22" y1="15.7" y2="21.3" xlink:href="#a"/><radialGradient id="b" cx="18.5" cy="15.2" r="30" gradientTransform="matrix(1.34 0 0 1 -6.9 -.7)" gradientUnits="userSpaceOnUse"><stop offset="0" stop-color="#dbe9ff"/><stop offset=".2" stop-color="#d3e9ff"/><stop offset=".8" stop-color="#4074ae"/><stop offset="1" stop-color="#36486c"/></radialGradient><radialGradient id="c" cx="15.6" cy="12.1" r="43.5" gradientUnits="userSpaceOnUse"><stop offset="0" stop-color="#fff"/><stop offset="1" stop-color="#fff" stop-opacity=".2"/></radialGradient><path id="e" d="M-2.8 21a15.7 9.5 0 11-31.5 0 15.7 9.5 0 1131.5 0z"/></defs><path fill="url(#b)" stroke="#39396c" stroke-width="1.1" d="M46 23.7a21.5 21.5 0 11-43 0 21.5 21.5 0 0143 0z"/><g fill="#204a87" fill-opacity=".7"><path d="M45.2 20.3l-.6.7-1.2-1.2-.9.2-.8-1v1.2l.7.5.5.6.6-.7.5.9v.9l-.7.8-1.3.9-1 1-.6-.8.3-.8-.6-.7-1.1-2.3-1-1-.2.3.4 1.3.7.7L40 25l2.3-.1v.6l-1 2.3-.8 1-.7 1.6v2.5l.2 1-.4.4-.8.5-1 .8.8.9-1 .9.2.5-1.6 1.8h-1l-.8.5h-.6v-.7l-.2-1.4-1-2.7.1-2 .4-.9-.5-1v-1.6l-.8-.8.4-1.2-.6-.7h-1l-.4-.4-1 .6-.5-.5-1 .9-2-2.3-.8-1.9.7-1-.4-.5.9-2 2.2-2.7 1.3-.3 1.5-.2 1 .3 1.5 1.4.6-.5.7-.1 1.3.4h1l.7-.6.4-.5-.7-.4-1.2-.1-1-1.4-.5.2-.1 1.2-.7-.8-.2-1-.8-.6H33l.8 1-.4.8-.6.1.4-.8-.7-.3-.6-.8-1.2.3-.2.4-.7.4-.4 1-1 .5-.4-.5h-.5V15l1-.5h.8l-.1-.7-.7-.6 1.1-.2.6-.7.5-.8h.8l-.2-.6.6-.4v.7l1.1.3 1.3-1V10l1-.8-1 .2v-.8l.4-.9h-.4l-1 .8-.2.5.3.6-.4 1-.6-.3-.6-.6-.9.6-.3-1.4 1.5-1v-.5l1-.7 1.5-.3 1 .3 1.9.4-.5.5h-1l1 1.1.8-.9.2-.4s3 2.7 4.8 5.7 2.6 6.5 2.6 7.2zM25.6 7.8v.5l.5.4 1-.6-.6-.6-.6.4-.3-.1m.9-3.7l-2.1-.8-2.4.3-3 .8-.5.5 1.8 1.3v.7l-.7.7 1 2 .6-.5L22 8a27.3 27.3 0 003.5-1.4l1-2.4m2 7.6l-.2-.8-.6.1.2 1zm.4-.2l-.2 1 .9-.1.6-.6-.5-.6-.7-1.4h-.4v.5l.3.4zM17 28.5l-.6-1.2-1.2-.3-.6-1.7-1.6.2-1.4-1-1.4 1.2v.3l-1.4-.4-.3-1v-1l-1 .2.3-2h-.5l-.6.8-.6.3-.8-.5v-1l.1-1 1.2-1h1l.1-.5 1.2.3.9 1 .1-1.7 1.6-1.3.5-1.3 1.1-.5.7-.9 1.4-.2.7-1.1h-2.2l1.4-.7h1l1.3-.4.1-.5-.4-.5-.6-.2.2-.5-.4-.8-1 .3.2-.7-1.1-.6-.9 1.5v.5l-.8.4-.5 1.2L12 11l-1.5-.6-.2-.8 2-1.2.8-.8.1-1-.5-.3h-.6l-.4 1h-.8C8.7 9.6 4.3 13.9 3.3 22l.7 1.3 1.7 1 1.7.4.7 1 1 .7h.7l.5.2v.1l-.6 1.7-.5.7.1.4-.4 1.3 1.5 2.6 1.4 1.3.6.9v1.9l.4 1-.4 2.1v.2c0 .2 2.5 1.6 2.7 1.5l.3-.2-.2-.5.6-.6.3-.6 1-.4.8-2-.2-.5.5-.8 1.2-.3.7-1.4-.2-1.8 1-1.4.1-1.3-3.9-2M15.4 8.1l.8.5h.6V8l-.8-.4zm-2.1-.7l-.4 1h.8l.4-1 1-.7.8.3 1.6 1.1.8-.7-.9-.4-.4-.8-1.5-.2v-.4l-.8.2-.3.6-.4-.8-.2.3.1 1-.6.5"/><path d="M16.2 5.2l.4-.4.8-.1 1.7-.7-.3-.5-1 .1-.5.5-.8.1-.8.4-.3.1-.2.3zm1.4 8.5l.5-.7-.7-.5.2 1.2"/></g><g fill="none"><path stroke="url(#c)" d="M43 23.5a18.4 18.4 0 01-18.4 18.4A18.4 18.4 0 016.2 23.5 18.4 18.4 0 0124.6 5 18.4 18.4 0 0143 23.5z" opacity=".4" transform="matrix(1.11 0 0 1.11 -3 -2.5)"/><g stroke-linejoin="round" stroke-width=".9" transform="matrix(1.11 0 0 1.11 -3 -2.5)"><use stroke="url(#d)" transform="matrix(1.13 .61 -.48 .88 54 16)" xlink:href="#e"/><use stroke="url(#f)" transform="matrix(.94 -.88 .68 .73 32.3 -4.5)" xlink:href="#e"/><use stroke="url(#g)" transform="matrix(-1.28 -.13 .1 -1 -2.4 40.5)" xlink:href="#e"/><use stroke="url(#h)" transform="matrix(.92 -.86 .67 .71 27.6 -7)" xlink:href="#e"/></g></g></svg>