<svg height="64" width="64" xmlns="http://www.w3.org/2000/svg" xmlns:xlink="http://www.w3.org/1999/xlink"><defs><path id="a" d="m51.33 4.938a1.06 1.06 0 00-1.056 1.056 1.06 1.06 0 001.056 1.056 1.06 1.06 0 001.056-1.056 1.06 1.06 0 00-1.056-1.056z"/></defs><g fill="#f9f9f9" stroke="#333" stroke-linejoin="round"><path d="m.97.97h62.06v62.06h-62.06z" stroke-width="1.939"/><path d="m.97.97h62.06v10.53h-62.06z" stroke-width="1.826"/></g><g fill="#333"><use xlink:href="#a"/><use x="-5.414" xlink:href="#a"/><path d="m56.743 4.938a1.06 1.06 0 00-1.056 1.056 1.06 1.06 0 001.056 1.056 1.06 1.06 0 001.057-1.056 1.06 1.06 0 00-1.056-1.056z"/></g><g fill="#7eadda"><path d="m8.095 24.556h5.327v9.9h-5.327z"/><path d="m13.422 18.764h5.327v15.69h-5.327z"/><path d="m18.75 22.774h5.327v11.68h-5.327zm-10.655 29.698h5.327v3.575h-5.327z"/><path d="m24.077 19.547h5.327v14.908h-5.327zm-10.654 29.823h5.327v6.677h-5.327z"/><path d="m18.75 46.003h5.327v10.044h-5.327zm15.845-2.053h5.327v12.093h-5.327z"/><path d="m24.078 39.868h5.327v16.177h-5.327zm15.844-.526h5.327v16.7h-5.327z"/><path d="m45.25 45.203h5.327v10.84h-5.327zm-10.655-27.453h5.327v16.7h-5.327z"/><path d="m50.577 48.78h5.327v7.26h-5.327zm-10.654-26h5.327v11.672h-5.327z"/><path d="m45.25 26.876h5.327v7.576h-5.327z"/><path d="m50.578 29.377h5.327v5.075h-5.327z"/></g><path d="m8.154 25.624h5.724v-5.23h4.454v6.195h6.2v-5.519h4.947" fill="none" stroke="#3737c8"/></svg>