<svg height="64" width="64" xmlns="http://www.w3.org/2000/svg" xmlns:xlink="http://www.w3.org/1999/xlink"><defs><path id="a" d="m51.33 4.938a1.06 1.06 0 00-1.056 1.056 1.06 1.06 0 001.056 1.056 1.06 1.06 0 001.056-1.056 1.06 1.06 0 00-1.056-1.056z"/></defs><g fill="#f9f9f9" stroke="#333" stroke-linejoin="round"><path d="m.97.97h62.06v62.06h-62.06z" stroke-width="1.939"/><path d="m.97.97h62.06v10.53h-62.06z" stroke-width="1.826"/></g><g fill="#333"><use xlink:href="#a"/><use x="-5.414" xlink:href="#a"/><path d="m56.743 4.938a1.06 1.06 0 00-1.056 1.056 1.06 1.06 0 001.056 1.056 1.06 1.06 0 001.057-1.056 1.06 1.06 0 00-1.056-1.056z"/></g><path d="m39.02 16.45 7.152 10.88 1.953-2.378 3.827-.615 2.314 4.157 1.983 3.315 2.213 3.094h-24zm-14.444 31.334-4.32.027-2.174 4.325-2.204-6.333-5.407-.042-2.07 6.253-2.86 5.936h24zm1.754-26.848-2.353 5.762-3.232-3.988-4.13 6.404-4.566-7.166-6.5 12.955h24zm28.363 30.824-1.793-7.13-2.925-5.13-4.437 9.054-4.288-8.117-6.8 17.516h24z" fill="#7eadda"/></svg>