<svg xmlns="http://www.w3.org/2000/svg" xmlns:xlink="http://www.w3.org/1999/xlink" viewBox="0 0 64 64"><style>.F{opacity:.804}.G{fill:#d5e5ff}.H{stroke:#afc6e9}.I{stroke-width:1.3}.J{fill:#7eadda}</style><defs><path id="A" d="M51.3 5a1 1 0 00-1 1 1 1 0 001 1 1 1 0 001-1 1 1 0 00-1-1z"/></defs><g fill="#f9f9f9" stroke="#333"><path stroke-width="1.9" d="M1 1h62v62H1z"/><path stroke-width="1.8" d="M1 1h62v10.5H1z"/></g><g fill="#333"><use xlink:href="#A"/><use x="-5.4" xlink:href="#A"/><path d="M56.7 5a1 1 0 00-1 1 1 1 0 001 1 1 1 0 001.1-1 1 1 0 00-1-1z"/></g><path d="M7.8 40.2h21.5V57H7.8z" class="F G H I"/><g class="J"><path d="M8.3 53h5.1v3.5h-5zM13.4 50h5.2v6.5h-5.2zM18.6 46.8h5.1v9.7h-5.1z"/><path d="M23.7 49.5h5.1v7h-5.1z"/></g><path d="M34.7 40.2h21.5V57H34.7z" class="F G H I"/><g class="J"><path d="M35.2 45.3h5v11.2h-5zM40.3 41h5.1v15.5h-5.1zM45.4 46.5h5.2v10h-5.2zM50.6 49.8h5v6.7h-5z"/></g><path d="M34.7 17.8h21.5v16.8H34.7z" class="F G H I"/><g class="J"><path d="M35.2 19.1h5v15h-5zM40.3 23.6h5.1v10.5h-5.1zM45.4 27.3h5.2v6.8h-5.2zM50.6 29.6h5V34h-5z"/></g><path d="M7.8 17.8h21.5v16.8H7.8z" class="F G H I"/><g class="J"><path d="M8.3 24.5h5.2v9.6H8.3zM13.5 19h5v15h-5zM18.6 22.8h5.1v11.3h-5.1zM23.7 19.7h5.1v14.4h-5z"/></g><path fill="none" stroke="#3737c8" d="M8.4 25.6h5.5v-5h4.3v5.9h6v-5.3h4.7"/></svg>