<svg xmlns="http://www.w3.org/2000/svg" xmlns:xlink="http://www.w3.org/1999/xlink" width="64" height="64"><style><![CDATA[.F{opacity:.804}.G{fill:#d5e5ff}.H{stroke:#afc6e9}.I{stroke-width:1.3}.J{fill:#7eadda}]]></style><defs><path d="m51.33 4.938a1.06 1.06 0 00-1.056 1.056 1.06 1.06 0 001.056 1.056 1.06 1.06 0 001.056-1.056 1.06 1.06 0 00-1.056-1.056z" id="A"/></defs><g stroke="#333" fill="#f9f9f9"><path stroke-width="1.939" d="M.97.97h62.06v62.06H.97z"/><path stroke-width="1.826" d="M.97.97h62.06V11.5H.97z"/></g><g fill="#333"><use xlink:href="#A"/><use xlink:href="#A" x="-5.414"/><path d="m56.743 4.938a1.06 1.06 0 00-1.056 1.056 1.06 1.06 0 001.056 1.056 1.06 1.06 0 001.057-1.056 1.06 1.06 0 00-1.056-1.056z"/></g><path d="M7.835 40.216h21.488V56.98H7.835z" class="F G H I"/><g class="J"><path d="M8.317 53.018h5.13v3.443h-5.13z"/><path d="M13.448 50.03h5.13v6.43h-5.13z"/><path d="M18.58 46.788h5.13v9.673h-5.13z"/><path d="M23.7 49.545h5.13v6.914H23.7z"/></g><path d="M34.677 40.216h21.488V56.98H34.677z" class="F G H I"/><g class="J"><path d="M35.16 45.34h5.13v11.202h-5.13z"/><path d="M40.3 41.072h5.13v15.47H40.3z"/><path d="M45.42 46.502h5.13v10.042h-5.13z"/><path d="M50.552 49.815h5.13v6.725h-5.13z"/></g><path d="M34.677 17.838h21.488V34.6H34.677z" class="F G H I"/><g class="J"><path d="M35.16 19.1h5.13v15.028h-5.13z"/><path d="M40.292 23.616h5.13V34.12h-5.13z"/><path d="M45.423 27.302h5.13v6.817h-5.13z"/><path d="M50.553 29.552h5.13v4.567h-5.13z"/></g><path d="M7.835 17.838h21.488V34.6H7.835z" class="F G H I"/><g class="J"><path d="M8.323 24.53h5.13v9.534h-5.13z"/><path d="M13.454 18.953h5.13v15.1h-5.13z"/><path d="M18.584 22.814h5.13v11.25h-5.13z"/><path d="M23.715 19.706h5.13v14.358h-5.13z"/></g><path d="M8.38 25.56h5.512V20.52h4.3v5.966h5.972v-5.313h4.764" fill="none" stroke="#3737c8" stroke-width=".963"/></svg>