<svg height="64" width="64" xmlns="http://www.w3.org/2000/svg" xmlns:xlink="http://www.w3.org/1999/xlink"><defs><path id="a" d="m51.33 4.938a1.06 1.06 0 00-1.056 1.056 1.06 1.06 0 001.056 1.056 1.06 1.06 0 001.056-1.056 1.06 1.06 0 00-1.056-1.056z"/></defs><g fill="#f9f9f9" stroke="#333" stroke-linejoin="round"><path d="m.97.97h62.06v62.06h-62.06z" stroke-width="1.939"/><path d="m.97.97h62.06v10.53h-62.06z" stroke-width="1.826"/></g><g fill="#333"><use xlink:href="#a"/><use x="-5.414" xlink:href="#a"/><path d="m56.743 4.938a1.06 1.06 0 00-1.056 1.056 1.06 1.06 0 001.056 1.056 1.06 1.06 0 001.057-1.056 1.06 1.06 0 00-1.056-1.056z"/></g><g fill="#7eadda"><path d="m8.095 27.777h5.327v6.678h-5.327z"/><path d="m13.423 23.667h5.327v10.788h-5.327z"/><path d="m18.75 17.754h5.327v16.7h-5.327z"/><path d="m24.077 25.4h5.327v9.055h-5.327zm-15.982 27.072h5.327v3.575h-5.327z"/><path d="m13.423 49.394h5.327v6.652h-5.327z"/><path d="m18.75 46.003h5.327v10.044h-5.327z"/><path d="m24.078 39.345h5.327v16.7h-5.327zm10.517 4.605h5.327v12.093h-5.327z"/><path d="m39.922 39.342h5.327v16.7h-5.327z"/><path d="m45.25 45.203h5.327v10.84h-5.327z"/><path d="m50.577 48.78h5.327v7.26h-5.327zm-15.982-31.03h5.327v16.7h-5.327z"/><path d="m39.923 22.78h5.327v11.672h-5.327z"/><path d="m45.25 26.876h5.327v7.576h-5.327z"/><path d="m50.578 29.377h5.327v5.075h-5.327z"/></g></svg>