<svg viewBox="0 0 32 32" xmlns="http://www.w3.org/2000/svg" xmlns:xlink="http://www.w3.org/1999/xlink"><linearGradient id="a" gradientUnits="userSpaceOnUse"><stop offset="0" stop-color="#ff0"/><stop offset=".609" stop-color="#f7cc22"/><stop offset="1" stop-color="#d4aa00"/></linearGradient><radialGradient id="b" cx="282.71" cy="938.51" gradientTransform="matrix(-.1 -.07 -.03 .04 78.24 6.32)" r="184.62" xlink:href="#a"/><filter id="c" height="100%" width="100%" x="0%" y="0%"><feColorMatrix in="SourceGraphic" values="0 0 0 0 1 0 0 0 0 1 0 0 0 0 1 0 0 0 1 0"/></filter><mask id="d"><g filter="url(#c)"><path d="m0 0h32v32h-32z" fill-opacity=".8"/></g></mask><radialGradient id="e" cx="551.23" cy="852.58" gradientTransform="matrix(-.04 .34 .16 .02 -113.53 -187.99)" gradientUnits="userSpaceOnUse" r="10.95"><stop offset="0" stop-opacity="0"/><stop offset=".465" stop-opacity="0"/><stop offset="1"/></radialGradient><clipPath id="f"><path d="m0 0h32v32h-32z"/></clipPath><radialGradient id="g" cx="412.96" cy="807.7" gradientTransform="matrix(-.09 0 0 .1 49.73 -64.17)" r="151.06" xlink:href="#a"/><mask id="h"><g filter="url(#c)"><path d="m0 0h32v32h-32z" fill-opacity=".55"/></g></mask><clipPath id="i"><path d="m0 0h32v32h-32z"/></clipPath><radialGradient id="j" cx="306.09" cy="1055.1" gradientTransform="matrix(-.11 0 0 .04 54.81 -15.82)" gradientUnits="userSpaceOnUse" r="184.62"><stop offset="0" stop-color="#a80"/><stop offset=".79" stop-color="#a28100"/><stop offset="1" stop-color="#540"/></radialGradient><mask id="k"><g filter="url(#c)"><path d="m0 0h32v32h-32z" fill-opacity=".5"/></g></mask><radialGradient id="l" cx="478.21" cy="713.68" gradientTransform="matrix(-.12 .21 .13 .07 -27.25 -142.63)" gradientUnits="userSpaceOnUse" r="76.41"><stop offset="0" stop-color="#fff"/><stop offset="1" stop-color="#fff" stop-opacity="0"/></radialGradient><clipPath id="m"><path d="m0 0h32v32h-32z"/></clipPath><path d="m12.94 2.7c2.67-.01 5.15.92 7.13 2.47 2.62 1.62 4.57 4.15 5.3 7.12l-.01-.02c.56 1.61.85 3.06.99 4.33.36.24.79.55 1.09.82.51.46 1.63 1.53 2.63 2.64l1.32 1.62c.35.51.61.93.61 1.34 0 .46-.23.91-.55 1.34-.33.43-.77.85-1.24 1.25-.95.81-2.06 1.56-2.72 2.06-.88.67-1.5 1.1-2.38 1.34s-1.98.29-3.9.29c-1.6 0-4.2-.69-6.69-1.5l-5.95-2.2c-1.94-.83-4.46-2.13-5.96-3.27-1.42-1-2.29-2.25-2.29-3.63 0-1.12.59-2.16 1.56-3.04l-.09-1.24c-.17-6.44 4.83-11.7 11.15-11.72zm0 0"/><path d="m13.07 3.41c2.5-.01 4.83.87 6.69 2.34 2.46 1.52 4.29 3.93 4.97 6.73.55 1.58.82 3.01.95 4.25.36.24.83.57 1.12.84.95.86 4.28 4.15 4.28 5.22 0 1.42-2.92 3.28-4.22 4.28-1.69 1.3-2.2 1.52-5.86 1.52-2.92 0-9.96-2.64-12.01-3.56-1.85-.8-4.26-2.05-5.66-3.12-1.32-.94-2.09-2.08-2.09-3.3 0-1.03.55-2 1.51-2.84-.06-.43-.09-.87-.11-1.31-.15-6.08 4.52-11.03 10.43-11.05zm0 0" fill="url(#b)"/><g clip-path="url(#f)" mask="url(#d)"><path d="m2.75 15.77c0 .26.02.52.06.78-.48.64-.75 1.34-.75 2.06 0 .84.35 1.62.97 2.34-1.01-.81-1.65-1.72-1.77-2.7.11-.89.64-1.73 1.49-2.48zm0 0" fill="url(#e)"/></g><path d="m13.07 3.41c2.5-.01 4.83.87 6.69 2.34 2.46 1.52 4.28 3.93 4.97 6.73.54 1.58.82 3.01.95 4.25 0 5.84-7.77 7.37-11.34 7.44-5.24.03-11.59-3.67-11.59-8.4-.06-.43-.09-.87-.11-1.31-.15-6.08 4.52-11.03 10.43-11.05zm0 0" fill="url(#g)"/><g clip-path="url(#i)" mask="url(#h)"><path d="m2.64 13.9.11 1.27-.06.05-.05-.76zm0 0" fill="#ffff04"/></g><path d="m1.26 18.25c.15 1.2 1.07 2.32 2.53 3.24l5.2 2.86c2.05.94 9.09 3.68 12.01 3.74 3.66.09 4.17-.12 5.86-1.35 1.27-.92 4.11-2.62 4.21-4.01.01.02.01.04.01.06 0 1.42-2.92 3.28-4.22 4.28-1.69 1.3-2.2 1.52-5.86 1.52-2.92 0-9.96-2.65-12.01-3.56-2.19-.97-4.4-2.1-6.04-3.41-1.09-.88-1.71-1.91-1.71-3.01 0-.12.01-.23.02-.36zm0 0" fill="url(#j)"/><path d="m13.07 3.41c2.5-.01 4.83.87 6.69 2.34.38.23.73.49 1.08.76a12.08 12.08 0 0 1 3.75 8.32v.75c0-.03-.01-.06-.01-.09-.67-6.56-6.15-11.87-12.25-11.87a9.63 9.63 0 0 0 -2.43.3c1-.33 2.06-.5 3.17-.51zm0 0"/><path d="m10.24 3.81c4.39.93 8.12 5.75 8.92 12.15.22 1.74.2 3.44-.02 5.05.06-1.3.01-2.64-.18-4-.98-7.07-5.26-12.29-10.05-12.71.44-.19.88-.35 1.33-.49zm0 0"/><g clip-path="url(#m)" mask="url(#k)"><path d="m11.08 5.63c2.03 1.79 3.76 4.29 4.97 7.22-1.34-.2-2.75-.3-4.18-.3-3.04 0-5.83.46-8.16 1.27-.21-4.57 2.93-8.07 7.37-8.19zm0 0" fill="url(#l)"/></g></svg>