<svg xmlns="http://www.w3.org/2000/svg" xmlns:xlink="http://www.w3.org/1999/xlink" viewBox="0 0 32 32"><defs><path id="c" fill-opacity=".8" d="M0 0h32v32H0z"/></defs><linearGradient id="a" gradientUnits="userSpaceOnUse"><stop offset="0" stop-color="#ff0"/><stop offset=".6" stop-color="#f7cc22"/><stop offset="1" stop-color="#d4aa00"/></linearGradient><radialGradient id="d" cx="282.7" cy="938.5" r="184.6" gradientTransform="matrix(-.1 -.07 -.03 .04 78.2 6.3)" xlink:href="#a"/><filter id="b" width="100%" height="100%" x="0%" y="0%"><feColorMatrix in="SourceGraphic" values="0 0 0 0 1 0 0 0 0 1 0 0 0 0 1 0 0 0 1 0"/></filter><mask id="f"><g filter="url(#b)"><use fill-opacity=".8" xlink:href="#c"/></g></mask><radialGradient id="g" cx="551.2" cy="852.6" r="10.9" gradientTransform="matrix(-.04 .34 .16 .02 -113.5 -188)" gradientUnits="userSpaceOnUse"><stop offset="0" stop-opacity="0"/><stop offset=".5" stop-opacity="0"/><stop offset="1"/></radialGradient><clipPath id="e"><use xlink:href="#c"/></clipPath><radialGradient id="h" cx="413" cy="807.7" r="151.1" gradientTransform="matrix(-.09 0 0 .1 49.7 -64.2)" xlink:href="#a"/><mask id="j"><g filter="url(#b)"><use fill-opacity=".6" xlink:href="#c"/></g></mask><clipPath id="i"><use xlink:href="#c"/></clipPath><radialGradient id="k" cx="306.1" cy="1055.1" r="184.6" gradientTransform="matrix(-.11 0 0 .04 54.8 -15.8)" gradientUnits="userSpaceOnUse"><stop offset="0" stop-color="#a80"/><stop offset=".8" stop-color="#a28100"/><stop offset="1" stop-color="#540"/></radialGradient><mask id="m"><g filter="url(#b)"><use fill-opacity=".5" xlink:href="#c"/></g></mask><radialGradient id="n" cx="478.2" cy="713.7" r="76.4" gradientTransform="matrix(-.12 .21 .13 .07 -27.3 -142.6)" gradientUnits="userSpaceOnUse"><stop offset="0" stop-color="#fff"/><stop offset="1" stop-color="#fff" stop-opacity="0"/></radialGradient><clipPath id="l"><use xlink:href="#c"/></clipPath><path d="M13 2.7c2.6 0 5 1 7 2.5 2.7 1.6 4.6 4.1 5.4 7 .5 1.7.8 3.1 1 4.4l1 .8 2.7 2.7 1.3 1.6c.3.5.6 1 .6 1.3 0 .5-.2 1-.6 1.4l-1.2 1.2-2.7 2c-.9.7-1.5 1.2-2.4 1.4a17.9 17.9 0 01-10.6-1.2l-6-2.2a32 32 0 01-5.9-3.3c-1.4-1-2.3-2.2-2.3-3.6a4 4 0 011.6-3l-.1-1.3A11.3 11.3 0 0112.9 2.7zm0 0"/><path fill="url(#d)" d="M13 3.4c2.6 0 4.9.9 6.8 2.4a11 11 0 015 6.7c.5 1.6.7 3 .9 4.2l1.1.9c1 .8 4.3 4.1 4.3 5.2 0 1.4-3 3.3-4.2 4.3-1.7 1.3-2.2 1.5-5.9 1.5a46.5 46.5 0 01-17.7-6.7c-1.3-1-2-2-2-3.3 0-1 .5-2 1.5-2.8l-.2-1.3c-.1-6.1 4.6-11 10.5-11zm0 0"/><g clip-path="url(#e)" mask="url(#f)"><path fill="url(#g)" d="M2.8 15.8v.7c-.5.7-.7 1.4-.7 2.1 0 .8.3 1.6 1 2.3-1-.8-1.7-1.7-1.8-2.6a4 4 0 011.5-2.5zm0 0"/></g><path fill="url(#h)" d="M13 3.4c2.6 0 4.9.9 6.8 2.4a11 11 0 015 6.7c.5 1.6.7 3 .9 4.2 0 5.9-7.8 7.4-11.4 7.5-5.2 0-11.6-3.7-11.6-8.4v-1.3c-.2-6.1 4.5-11 10.4-11zm0 0"/><g clip-path="url(#i)" mask="url(#j)"><path fill="#ffff04" d="M2.6 13.9l.2 1.3h-.1v-.7zm0 0"/></g><path fill="url(#k)" d="M1.3 18.3c.1 1.1 1 2.3 2.5 3.2L9 24.4c2 .9 9 3.6 12 3.7 3.7 0 4.2-.1 5.9-1.4 1.2-.9 4-2.6 4.2-4 0 1.5-3 3.4-4.2 4.4-1.7 1.3-2.2 1.5-5.9 1.5a46.9 46.9 0 01-18-7c-1.1-.9-1.8-1.9-1.8-3v-.3zm0 0"/><path d="M13 3.4c2.6 0 4.9.9 6.8 2.4l1 .7a12 12 0 013.8 8.3v.7c-.7-6.6-6.2-11.9-12.3-11.9A9.6 9.6 0 0010 4c1-.3 2-.5 3.2-.5zm0 0"/><path d="M10.2 3.8c4.4 1 8.2 5.8 9 12.2.2 1.7.2 3.4 0 5 0-1.3 0-2.6-.2-4-1-7-5.3-12.3-10-12.7l1.2-.5zm0 0"/><g clip-path="url(#l)" mask="url(#m)"><path fill="url(#n)" d="M11 5.6c2.1 1.8 3.8 4.3 5 7.3a28.5 28.5 0 00-12.3 1c-.2-4.7 3-8.2 7.4-8.3zm0 0"/></g></svg>