<svg xmlns="http://www.w3.org/2000/svg" xmlns:xlink="http://www.w3.org/1999/xlink" height="64" width="64"><style><![CDATA[.C{color-interpolation-filters:sRGB}.D{stroke-linejoin:round}]]></style><defs><linearGradient id="A" xlink:href="#a"><stop offset="0" stop-color="#fff"/><stop offset="1" stop-color="#fff" stop-opacity="0"/></linearGradient><linearGradient id="B" xlink:href="#a"><stop offset="0" stop-color="#ff0"/><stop offset=".609" stop-color="#f7cc22"/><stop offset="1" stop-color="#d4aa00"/></linearGradient><filter id="C" class="C"><feGaussianBlur stdDeviation="2.937"/></filter><filter id="D" class="C"><feGaussianBlur stdDeviation="2.234"/></filter><filter id="E" class="C"><feGaussianBlur stdDeviation="1.376"/></filter><filter height="1.169" x="-.615" y="-.084" width="2.23" id="F" class="C"><feGaussianBlur stdDeviation="1.038"/></filter><filter height="1.267" x="-.053" y="-.134" width="1.106" id="G" class="C"><feGaussianBlur stdDeviation="1.038"/></filter><filter height="1.23" x="-.057" y="-.115" width="1.113" id="H" class="C"><feGaussianBlur stdDeviation="1.038"/></filter><filter height="1.114" x="-.229" y="-.057" width="1.458" id="I" class="C"><feGaussianBlur stdDeviation=".883"/></filter><filter height="1.162" x="-.113" y="-.081" width="1.227" id="J" class="C"><feGaussianBlur stdDeviation=".883"/></filter><filter height="1.179" x="-.211" y="-.089" width="1.421" id="K" class="C"><feGaussianBlur stdDeviation=".883"/></filter><filter height="2.449" x="-.311" y="-.725" width="1.623" id="L" class="C"><feGaussianBlur stdDeviation="25.014"/></filter><filter id="M" class="C"><feGaussianBlur stdDeviation="4.951"/></filter><filter id="N" class="C"><feGaussianBlur stdDeviation="6.601"/></filter><radialGradient r="110.72" gradientTransform="matrix(0.32362,-0.043031,0.07446,0.55998,-35.616,-176.16)" cx="233.15" cy="636.19" id="O" xlink:href="#a"><stop offset="0" stop-color="#ff8080"/><stop offset="1" stop-color="#2b0000"/></radialGradient><linearGradient x1="77.052" y1="141.769" x2="117.902" y2="231.333" id="P" xlink:href="#a"><stop offset="0" stop-color="#2b0000"/><stop offset=".425" stop-color="red"/><stop offset="1" stop-color="#2b0000"/></linearGradient><radialGradient r="116.43" gradientTransform="matrix(3.1667,-1.6277,-2.6726,3.9723,1190.7,-1457.8)" cx="170.71" cy="583.93" id="Q" xlink:href="#a"><stop offset="0" stop-color="#fff"/><stop offset="1" stop-color="#ff0"/></radialGradient><radialGradient r="116.43" gradientTransform="matrix(1.4942,0.094409,-0.62438,1.5622,316.38,-333.47)" cx="72.944" cy="564.44" id="R" xlink:href="#a"><stop offset="0" stop-color="#ff2a2a"/><stop offset="1" stop-color="#2b0000"/></radialGradient><radialGradient r="155.62" gradientTransform="matrix(1.121,-1.8784e-8,0,0.37961,6174.9,535.82)" cx="-5153.7" cy="987.1" id="S" xlink:href="#a"><stop offset="0" stop-opacity="0"/><stop offset=".1" stop-opacity="0"/><stop offset="1"/></radialGradient><radialGradient r="76.41" gradientTransform="matrix(1.7367,2.9212,-1.8824,1.0554,988.92,-1416.8)" cx="478.21" cy="713.68" xlink:href="#A" id="T"/><radialGradient r="71.609" gradientTransform="matrix(0.5,0.86603,-2.0826,1.2024,1494.2,-748.43)" cx="302.33" cy="709.34" xlink:href="#A" id="U"/><radialGradient r="76.41" gradientTransform="matrix(1.4649,2.5372,-1.5878,0.9167,776.68,-1489.9)" cx="478.21" cy="713.68" xlink:href="#A" id="V"/><radialGradient r="184.62" gradientTransform="matrix(1.3289,0,0,0.50782,-238.7,79.411)" cx="306.09" cy="1055.1" id="W" xlink:href="#a"><stop offset="0" stop-color="#a80"/><stop offset=".79" stop-color="#a28100"/><stop offset="1" stop-color="#540"/></radialGradient><radialGradient r="151.06" gradientTransform="matrix(1.1082,-1.4904e-7,1.6958e-7,1.1885,-175.91,-518.96)" cx="412.96" cy="807.7" xlink:href="#B" id="X"/><radialGradient r="10.953" gradientTransform="matrix(0.52675,4.2513,-2.0303,0.25156,1844.4,-2051.2)" cx="551.23" cy="852.58" id="Y" xlink:href="#a"><stop offset="0" stop-opacity="0"/><stop offset=".465" stop-opacity="0"/><stop offset="1"/></radialGradient><radialGradient r="184.62" gradientTransform="matrix(1.2811,-0.86582,0.33565,0.49663,-528.64,353.37)" cx="282.71" cy="938.51" xlink:href="#B" id="Z"/><linearGradient id="a" gradientUnits="userSpaceOnUse"/></defs><g transform="matrix(-.161624 0 0 .161624 63.998528 5.402336)"><g transform="translate(-43.552 -308.54)"><path d="M279.435 308.533c-33.055-.114-63.757 11.34-88.322 30.603-32.4 19.937-56.454 51.338-65.504 88.06l.088-.296c-6.9 19.896-10.47 37.912-12.2 53.644-4.558 3.018-9.86 6.772-13.56 10.124-6.252 5.663-20.085 18.974-32.482 32.713-6.2 6.87-12.027 13.828-16.385 20.06S43.544 554.84 43.544 560c0 5.725 2.805 11.214 6.842 16.534s9.43 10.537 15.3 15.544c11.74 10.013 25.45 19.2 33.62 25.412 11.007 8.37 18.646 13.616 29.5 16.567s24.552 3.623 48.234 3.623c19.88 0 51.96-8.587 82.844-18.548 30.866-9.955 60.2-21.32 73.62-27.258l.012-.006c24.045-10.3 55.168-26.305 73.756-40.396 17.528-12.435 28.336-27.874 28.336-44.905 0-13.884-7.282-26.736-19.396-37.707.655-5.04 1.106-10.135 1.238-15.333 2.03-79.677-59.8-144.722-138.023-145z"/><path d="M277.76 317.34c-30.97-.107-59.728 10.727-82.75 28.97-30.458 18.833-53.038 48.528-61.515 83.206-6.75 19.6-10.148 37.304-11.73 52.624-4.5 2.952-10.253 7.042-13.85 10.326-11.76 10.74-52.97 51.4-52.97 64.594 0 17.713 36.177 40.72 52.156 52.97 21 16.1 27.272 18.844 72.53 18.844 36.15 0 123.33-32.7 148.66-44 22.866-9.875 52.717-25.366 70.073-38.64 16.3-11.654 25.833-25.687 25.833-40.796 0-12.76-6.815-24.742-18.75-35.188a142.06 142.06 0 0 0 1.344-16.156c1.9-75.284-55.86-136.5-129.03-136.75z" fill="url(#Z)"/><path d="M405.45 470.25a65.58 65.58 0 0 1-.719 9.656c6.004 7.95 9.313 16.544 9.313 25.53 0 10.284-4.3 20.06-12.03 28.938 12.586-9.972 20.406-21.34 21.906-33.375-1.385-11.1-7.928-21.524-18.47-30.75z" opacity=".8" fill="url(#Y)"/><path d="M277.76 317.34c-30.97-.107-59.728 10.727-82.75 28.97-30.458 18.833-53.024 48.54-61.5 83.22-6.75 19.6-10.167 37.305-11.75 52.625 0 72.295 96.13 91.133 140.34 92 64.85.44 143.35-45.43 143.35-103.9a142.06 142.06 0 0 0 1.344-16.156c1.9-75.284-55.86-136.5-129.03-136.75z" fill="url(#X)"/><path d="M406.8 447.1a136.44 136.44 0 0 1-1.344 15.75l.78.656a140.05 140.05 0 0 0 .563-9.406v-7z" opacity=".55" fill="#ffff04"/><path d="M423.92 501c-1.845 14.8-13.234 28.613-31.313 40.03-18.993 11.608-42.864 25.692-64.312 35.406-25.323 11.588-112.5 45.497-148.66 46.312-45.26 1.022-51.542-1.52-72.53-16.75-15.682-11.378-50.823-32.444-52.125-49.562a6.83 6.83 0 0 0-.031.625c0 17.713 36.177 40.72 52.156 52.97 21 16.1 27.272 18.844 72.53 18.844 36.15 0 123.3-32.78 148.66-44 27.1-11.998 54.492-26.06 74.75-42.2 13.44-10.907 21.156-23.637 21.156-37.238a35.81 35.81 0 0 0-.281-4.437z" fill="url(#W)"/><path transform="matrix(.9796 0 0 1 -121.44 -345)" d="M540.1 822.28c-13.7 52.35-75.46 92.1-148.53 92.1-71.503 0-130.23-38.063-143.12-88.75-1.57 4.315-2.463 8.755-2.625 13.28-1.538 43.003 63.712 77.844 145.75 77.844s149.8-34.84 151.34-77.844c.204-5.7-.786-11.274-2.812-16.625z" opacity=".2" fill="url(#S)" filter="url(#C)"/><path d="M277.76 317.34c-30.97-.107-59.728 10.727-82.75 28.97-4.644 2.872-9.088 6.02-13.344 9.375-27.26 25.82-45 62.4-46.406 102.97-.108 3.093-.113 6.175-.03 9.22.034-.356.1-.706.125-1.062 8.308-81.13 76.18-146.9 151.6-146.9 10.468 0 20.517 1.286 30.062 3.688-12.344-4.025-25.53-6.202-39.25-6.25z"/><path d="M312.8 322.3c-54.347 11.452-100.47 71.166-110.34 150.25-2.685 21.512-2.458 42.63.28 62.594-.845-16.068-.18-32.684 2.156-49.562 12.1-87.446 65.143-152.02 124.3-157.3a126.71 126.71 0 0 0-16.406-5.969z"/><path d="M426.65 695.52c-29.774 25.56-55.2 61.16-72.926 102.83 19.725-2.764 40.294-4.246 61.33-4.246 44.57 0 85.495 6.594 119.7 18.062 3.042-65.1-42.9-114.86-108.1-116.65z" transform="matrix(.93316 0 0 1 -110.53 -345)" opacity=".4" fill="url(#T)" filter="url(#D)"/><path d="M302.4 344.77c-25.114 22.2-46.57 53.12-61.513 89.312 16.638-2.4 33.988-3.687 51.73-3.687 37.596 0 72.115 5.728 100.97 15.688 2.566-56.55-36.186-99.758-91.187-101.3z" opacity=".5" fill="url(#V)"/><path d="M423.92 501c-1.93 15.484-14.306 29.887-33.86 41.597-23.147 13.564-42.45 25.395-61.766 33.84-25.323 11.588-112.5 45.497-148.66 46.312-45.26 1.022-51.542-1.52-72.53-16.75-15.645-11.35-50.667-32.34-52.125-49.438 1.1 17.2 36.396 38.792 52.125 50.406 21 15.498 27.272 18.123 72.53 17.625 36.16-.4 123.34-33.35 148.67-44.66 20.74-10.06 44.43-22.64 63.914-34.5 19.134-11.775 30.9-26.303 31.925-41.98.003-.042-.003-.083 0-.125-.003-.042.003-.083 0-.125-.047-.74-.127-1.485-.22-2.22z" opacity=".624" fill="#fd5"/><path d="M145.42 437.35c20.04-62.92 75.6-114.1 143.22-114.1-72.97 16.45-105.26 83.284-106.75 132.06-14.175-3.195-27.246-10.206-36.47-17.965z" fill="url(#U)" filter="url(#E)"/><path d="M207.13 558.96l44.047 5.42v16.263l-44.05-5.42z" fill="#d4aa00" filter="url(#H)"/><g fill="#ffd42a"><path d="M207.13 558.96l44.047 5.42 3.05-13.214-44.047-5.42z" filter="url(#G)"/><path d="M255.24 573.2l-4.05 7.457v-16.28l3.03-13.22z" filter="url(#F)"/></g><g transform="matrix(-.85714 .27718 .13102 .99138 542.62 -459.75)"><path d="M341.3 903.96l44.047 5.42v16.263l-44.05-5.42z" fill="#d4aa00" filter="url(#H)"/><g fill="#ffd42a"><path d="M341.3 903.96l44.047 5.42 3.05-13.214-44.047-5.42z" filter="url(#G)"/><path d="M389.4 918.2l-4.05 7.457v-16.28l3.03-13.22z" filter="url(#F)"/></g></g><g transform="matrix(1.5255 0 0 1.0895 -272.47 -422.18)"><path d="M262.47 862.9l10.062-7.187-.48 15.812-9.583 7.906z" fill="#f5ca1f" filter="url(#K)"/><path d="M262.47 862.9l10.062-7.187-9.583-18.927-9.104 5.5z" fill="#e4ba10" filter="url(#J)"/><path d="M253.84 842.3l8.625 20.594v16.53l-9.25-21.686z" fill="#dab20d" filter="url(#I)"/></g></g><path d="M31.867 161.4c21.162-9.7 42.577-18.122 64.36-24.717 41.545-4.62 78.276 37.616 49.2 85.58-15.48 16.024-34.762 27.613-53.867 39.407L31.867 161.4" fill="url(#P)"/><path transform="matrix(.29959 0 0 .31874 15.593 29.129)" d="M407.14 391.43L214.3 474.3" opacity=".53" fill="none" stroke="#fff" stroke-width="55" stroke-linecap="round" filter="url(#L)" class="D"/><ellipse ry="171.786" rx="116.429" cy="583.929" cx="170.714" transform="matrix(.15143 -.21173 .19065 .27394 -76.421 88.494)" fill="url(#R)"/><ellipse ry="171.786" rx="116.429" cy="583.929" cx="170.714" transform="matrix(.080826 -.19773 .16454 .21978 -47.947 117.16)" opacity=".832" fill="#fff" filter="url(#M)"/><ellipse ry="171.786" rx="116.429" cy="583.929" cx="170.714" transform="matrix(.080826 -.19773 .16454 .21978 -46.295 115.52)" opacity=".8" fill="url(#Q)" filter="url(#N)"/><path d="M82.263 140.65l-10.6 3.805c36.277 8.22 63.167 67.914 49.613 98.347 4-2.774 7.942-5.633 11.743-8.65 9.033-39.816-14.65-84.646-50.765-93.502z" opacity=".225" fill="#2b0000" stroke="#fff" stroke-width=".979" class="D"/><path d="M39.75 159.5c-4.635.075-8.6 2.022-11.453 6.05-1.478 2.088-2.565 4.614-3.3 7.485 9.423-12.7 31.126-3.26 48.54 21.154 17.45 24.46 23.976 54.686 14.583 67.5-1.004 1.37-2.146 2.476-3.412 3.346 3.24-.757 6.035-2.616 8.192-5.665 9.606-13.572 2.93-45.578-14.915-71.486-12.547-18.217-27.267-28.562-38.245-28.385z" fill="url(#O)"/></g></svg>