<svg xmlns="http://www.w3.org/2000/svg" xmlns:xlink="http://www.w3.org/1999/xlink" viewBox="0 0 64 64"><defs><path id="A" fill-opacity=".8" d="M0 0h32v32H0z"/></defs><linearGradient id="B" gradientUnits="userSpaceOnUse"><stop offset="0" stop-color="#ff0"/><stop offset=".6" stop-color="#f7cc22"/><stop offset="1" stop-color="#d4aa00"/></linearGradient><radialGradient id="C" cx="282.7" cy="938.5" r="184.6" gradientTransform="matrix(-.19558 -.1369 -.05868 .07823 153.4 13)" xlink:href="#B"/><filter id="D" width="1" height="1" x="0" y="0"><feColorMatrix in="SourceGraphic" values="0 0 0 0 1 0 0 0 0 1 0 0 0 0 1 0 0 0 1 0"/></filter><radialGradient id="E" cx="413" cy="807.7" r="151.1" gradientTransform="matrix(-.17603 0 0 .19558 97.6 -124.9)" xlink:href="#B"/><radialGradient id="F" cx="306.1" cy="1055.1" r="184.6" gradientTransform="matrix(-.21514 0 0 .07823 107.6 -30.2)" gradientUnits="userSpaceOnUse"><stop offset="0" stop-color="#a80"/><stop offset=".8" stop-color="#a28100"/><stop offset="1" stop-color="#540"/></radialGradient><mask id="G"><g filter="url(#D)"><use fill-opacity=".5" xlink:href="#A"/></g></mask><radialGradient id="H" cx="478.2" cy="713.7" r="76.4" gradientTransform="matrix(-.12 .21 .13 .07 -27.3 -142.6)" gradientUnits="userSpaceOnUse"><stop offset="0" stop-color="#fff"/><stop offset="1" stop-color="#fff" stop-opacity="0"/></radialGradient><clipPath id="I"><use xlink:href="#A"/></clipPath><path d="M50.3 24.7c1 3.3 1.5 6 2 8.6 4 3.8 10.2 10 10.5 12.4.2 2.4-9.7 11-14.1 12-3 1-10.8.4-19.8-2.5-8.2-2.5-16-6-23.2-10.7-2.8-2-4.5-4.4-4.5-7 0-2.4 1.2-4.6 3.1-6L4.1 29A22.1 22.1 0 0125.8 6.1c14.2.5 21.6 9.6 24.5 18.6z"/><g transform="translate(.2 .1)"><path fill="url(#C)" d="M49 25.1c1 3.2 1.4 5.9 1.8 8.2l2.1 1.8c2 1.6 8.4 8 8.4 10.2 0 2.7-5.8 6.4-8.2 8.4-3.3 2.5-4.3 3-11.5 3A91 91 0 016.9 43.4c-2.6-2-4-3.9-4-6.4 0-2 1-4 3-5.5L5.5 29a21 21 0 0120-21.7A24.8 24.8 0 0149 25z"/><path fill="url(#E)" d="M50.8 33.3C50.7 45 35.4 47.8 28.4 48 18.2 48 5.7 40.8 5.7 31.6V29c9.2-34.5 39.1-17.5 45.1 4.3z"/><path fill="url(#F)" d="M3 36.5c.2 2.1 2.4 4.4 4.8 6.2a101 101 0 0033.7 13c4.2.3 8-.6 11.3-3.1 3.4-2.7 8-5 8.6-7.5.4 2.8-5.7 6.6-8.1 8.6a15 15 0 01-11.8 3A89 89 0 016.9 43.5c-2.7-2-4.1-4.3-4.1-6.4v-.6z"/></g><path d="M46.9 29.7v1.4C45.7 19.6 31.3 4.8 18.3 8.6c2-.6 4.1-1 6.4-1C36.3 7.8 47 19.4 47 29.7z"/><path d="M20.3 8.2c8.6 2 16 11.3 17.6 23.8.4 3.4.4 6.7 0 9.8 0-2.5 0-5-.4-7.8-2-13.7-10.3-24-19.5-24.9zm0 0"/><g clip-path="url(#I)" mask="url(#G)" transform="matrix(1.95584 0 0 1.95584 .6 .8)"><path fill="url(#H)" d="M11 5.6c2.1 1.8 3.8 4.3 5 7.3a28.5 28.5 0 00-12.3 1c-.2-4.7 3-8.2 7.4-8.3zm0 0"/></g></svg>