<svg height="64" viewBox="0 0 64 64" width="64" xmlns="http://www.w3.org/2000/svg" xmlns:xlink="http://www.w3.org/1999/xlink"><linearGradient id="a" gradientUnits="userSpaceOnUse" x1="26.874" x2="26.874" y1="17.178" y2="50.587"><stop offset="0" stop-color="#59f"/><stop offset="1" stop-color="#2a7fff"/></linearGradient><g stroke-linecap="round" stroke-linejoin="round"><path d="m60.81 32a28.81 28.81 0 0 1 -28.81 28.81 28.81 28.81 0 0 1 -28.81-28.81 28.81 28.81 0 0 1 28.81-28.81 28.81 28.81 0 0 1 28.81 28.81z" fill="url(#a)" stroke="#87aade" stroke-width="4"/><path d="m56.843 31.685a25.159 25.159 0 0 1 -25.158 25.158 25.159 25.159 0 0 1 -25.159-25.158 25.159 25.159 0 0 1 25.159-25.159 25.159 25.159 0 0 1 25.158 25.159z" fill="none" stroke="#fff" stroke-width="4"/><text fill="#fff" font-family="sans-serif" font-size="46.454" stroke-width="2" x="21.407" y="48.513"><tspan style="font-weight:bold;font-family:Open Sans;fill:#fff;stroke-width:2;stroke-linecap:round;stroke-linejoin:round" x="21.407" y="48.513">?</tspan></text></g></svg>