<svg xmlns="http://www.w3.org/2000/svg" viewBox="0 0 64 64"><path fill="#e4e7e7" d="M31.8 1C14.79 1 1 14.79 1 31.8s13.79 30.8 30.8 30.8 30.8-13.79 30.8-30.8S48.81 1 31.8 1zm0 44.28c-7.44 0-13.48-6.03-13.48-13.48 0-7.44 6.03-13.48 13.48-13.48s13.48 6.04 13.48 13.48-6.03 13.48-13.48 13.48z"/><path fill="#e24533" d="M25.6 19.85c1.86-.96 3.96-1.52 6.2-1.52s4.34.55 6.2 1.52l3.17-17.39C38.21 1.52 35.07 1 31.8 1c-3.26 0-6.41.52-9.36 1.46zM19.85 38c-.97-1.86-1.52-3.96-1.52-6.2s.55-4.34 1.52-6.2L2.46 22.44C1.52 25.4 1 28.54 1 31.8s.52 6.41 1.46 9.36zm23.91-12.4c.96 1.86 1.52 3.96 1.52 6.2s-.55 4.34-1.52 6.2l17.39 3.16c.94-2.95 1.46-6.1 1.46-9.36s-.52-6.41-1.46-9.36zM38 43.76c-1.86.97-3.96 1.52-6.2 1.52s-4.34-.55-6.2-1.52l-3.16 17.39c2.95.94 6.1 1.46 9.36 1.46s6.41-.52 9.36-1.46z"/></svg>