<svg xmlns="http://www.w3.org/2000/svg" xmlns:xlink="http://www.w3.org/1999/xlink" viewBox="0 0 280.028 280.028"><path d="M140.014.005C62.7.005 0 62.688 0 140s62.7 140.014 140.014 140.014c77.33 0 140.014-62.7 140.014-140.014S217.345.005 140.014.005zm0 201.26c-33.83 0-61.256-27.425-61.256-61.256 0-33.822 27.425-61.256 61.256-61.256S201.27 106.188 201.27 140c0 33.83-27.426 61.256-61.256 61.256z" fill="#e4e7e7"/><g fill="#cdcfcf"><use xlink:href="#A"/><path d="M201.27 139.975c0-33.778-27.4-61.256-61.256-61.256-14.7 0-28.178 5.163-38.68 13.826 11.2-13.74 28.265-22.577 47.43-22.577 33.866 0 61.256 27.478 61.256 61.256 0 19.164-8.75 36.23-22.577 47.43 8.663-10.502 13.826-23.978 13.826-38.68z"/></g><path d="M111.827 85.66c8.445-4.384 18.018-6.904 28.187-6.904s19.742 2.52 28.187 6.904l14.37-79.03C169.137 2.35 154.856.006 140.015.006S110.892 2.36 97.468 6.64zm-26.165 82.537c-4.393-8.445-6.904-18.018-6.904-28.187s2.52-19.733 6.904-28.178L6.633 97.464C2.354 110.887 0 125.17 0 140s2.354 29.123 6.633 42.547zm108.703-56.364c4.384 8.445 6.904 18 6.904 28.178s-2.512 19.742-6.904 28.187l79.03 14.37c4.28-13.433 6.633-27.714 6.633-42.555s-2.354-29.123-6.633-42.547zM168.2 194.36c-8.445 4.393-18.018 6.904-28.187 6.904s-19.742-2.512-28.187-6.904L97.458 273.4c13.424 4.28 27.705 6.633 42.547 6.633s29.123-2.354 42.547-6.633z" fill="#e2574c"/><use xlink:href="#A" fill="#cdcfcf"/><path d="M170.327 73.95c-6.712-2.53-13.958-3.982-21.562-3.982-14.133 0-27.1 4.83-37.445 12.873l.516 2.818a61.29 61.29 0 0 1 6.327-2.835c1.13-.43 2.3-.744 3.465-1.1 1.864-.595 3.745-1.1 5.67-1.523a61.57 61.57 0 0 1 3.588-.665 60.68 60.68 0 0 1 7.823-.683c.43-.017.85-.123 1.304-.123 2.5 0 4.97.193 7.403.5.14.01.263.044.403.06 2.266.3 4.5.7 6.668 1.243l.613.158a59.27 59.27 0 0 1 6.519 2.048c.026.01.053.018.08.026 2.23.85 4.4 1.794 6.5 2.888zm26.838 44.13l.263.735 1.785 5.67.36 1.4 1.015 5.443.236 1.584c.27 2.32.446 4.673.446 7.053v.027c0 3.255-.34 6.406-.84 9.52l-.5 2.66a62.14 62.14 0 0 1-1.934 7.22l-.604 1.925a62.44 62.44 0 0 1-3.037 6.861l2.8.516c8.068-10.344 12.864-23.33 12.864-37.48 0-7.578-1.444-14.815-3.964-21.518l-11.674 2.118c1.043 2.02 1.97 4.112 2.784 6.256zM17.843 180.527C12.06 165.17 8.75 148.604 8.75 131.225c0-11.27 1.47-22.166 3.973-32.658l-6.1-1.103c-.184.604-.324 1.234-.516 1.83-.92 3.072-1.794 6.16-2.5 9.3-.394 1.724-.7 3.474-1.033 5.224a137.55 137.55 0 0 0-1.321 8.322L.7 126.735c-.4 4.332-.7 8.698-.7 13.135-.01.043-.018.08-.018.123 0 4.34.263 8.62.648 12.864.14 1.444.333 2.87.516 4.297a134.07 134.07 0 0 0 1.251 8.2c.306 1.68.62 3.36 1 5.023.56 2.53 1.234 5.023 1.934 7.5.438 1.55.805 3.115 1.286 4.638 0 .018.01.026.01.044zm163.597 86.728c-10.5 2.512-21.405 3.982-32.676 3.982-17.362 0-33.918-3.308-49.26-9.075l-2.03 11.2c.096.035.184.08.28.105 1.04.333 2.126.578 3.177.893 3.02.875 6.056 1.67 9.145 2.354 1.304.3 2.634.534 3.955.78 3.185.595 6.414 1.103 9.678 1.48l2.975.35c4.393.4 8.83.665 13.328.665 4.682 0 9.293-.3 13.853-.735 1.033-.105 2.04-.236 3.072-.36 3.518-.43 7-.998 10.43-1.67l3.465-.7c3.973-.893 7.876-1.95 11.717-3.168z" fill="#cb4e44"/><defs><path id="A" d="M140.014 279.988C62.656 279.988 0 217.333 0 139.975 0 99.37 17.24 62.793 44.892 37.328 22.402 62.18 8.75 95.083 8.75 131.224c0 77.358 62.656 140.014 140.014 140.014 36.23 0 69.307-13.74 94.16-36.316-25.553 27.74-62.22 45.066-102.9 45.066z"/></defs></svg>