<svg xmlns="http://www.w3.org/2000/svg" height="64" width="64"><linearGradient id="A" gradientUnits="userSpaceOnUse" x1="26.874" x2="26.874" y1="17.178" y2="50.587"><stop offset="0" stop-color="#59f"/><stop offset="1" stop-color="#2a7fff"/></linearGradient><g stroke-width="4" stroke-linejoin="round"><path d="M60.8 32a28.81 28.81 0 1 1-57.62 0 28.81 28.81 0 1 1 57.62 0z" fill="url(#A)" stroke="#87aade"/><path d="M56.843 31.685a25.159 25.159 0 0 1-50.317 0A25.159 25.159 0 0 1 31.685 6.526a25.159 25.159 0 0 1 25.158 25.159z" fill="none" stroke="#fff"/></g><path d="M27.668 37.512v-1.68q0-2.178.93-3.788.93-1.6 3.402-3.425 2.382-1.7 3.13-2.767.77-1.066.77-2.382 0-1.474-1.09-2.246-1.09-.77-3.04-.77-3.402 0-7.757 2.223L21.543 17.7q5.058-2.835 10.73-2.835 4.673 0 7.417 2.246 2.767 2.246 2.767 5.988 0 2.495-1.134 4.3-1.134 1.815-4.3 4.083-2.178 1.6-2.767 2.45-.567.84-.567 2.2v1.36zm-.726 7.757q0-1.905 1.02-2.88 1.02-.975 2.97-.975 1.883 0 2.903.998 1.043.998 1.043 2.858 0 1.792-1.043 2.835-1.043 1.02-2.903 1.02-1.905 0-2.95-.998-1.043-1.02-1.043-2.858z" fill="#fff"/></svg>