<svg viewBox="0 0 64 64" xmlns="http://www.w3.org/2000/svg"><path d="m31.8 1c-17.01 0-30.8 13.79-30.8 30.8s13.79 30.8 30.8 30.8 30.8-13.79 30.8-30.8-13.79-30.8-30.8-30.8zm0 44.28c-7.44 0-13.48-6.03-13.48-13.48 0-7.44 6.03-13.48 13.48-13.48s13.48 6.04 13.48 13.48-6.03 13.48-13.48 13.48z" fill="#e4e7e7"/><path d="m25.6 19.85c1.86-.96 3.96-1.52 6.2-1.52s4.34.55 6.2 1.52l3.17-17.39c-2.96-.94-6.1-1.46-9.37-1.46-3.26 0-6.41.52-9.36 1.46zm-5.75 18.15c-.97-1.86-1.52-3.96-1.52-6.2s.55-4.34 1.52-6.2l-17.39-3.16c-.94 2.96-1.46 6.1-1.46 9.36s.52 6.41 1.46 9.36zm23.91-12.4c.96 1.86 1.52 3.96 1.52 6.2s-.55 4.34-1.52 6.2l17.39 3.16c.94-2.95 1.46-6.1 1.46-9.36s-.52-6.41-1.46-9.36zm-5.76 18.16c-1.86.97-3.96 1.52-6.2 1.52s-4.34-.55-6.2-1.52l-3.16 17.39c2.95.94 6.1 1.46 9.36 1.46s6.41-.52 9.36-1.46z" fill="#e24533"/></svg>