<svg height="64" viewBox="0 0 64 64" width="64" xmlns="http://www.w3.org/2000/svg" xmlns:xlink="http://www.w3.org/1999/xlink"><linearGradient id="a" gradientUnits="userSpaceOnUse" x1="26.874" x2="26.874" y1="17.178" y2="50.587"><stop offset="0" stop-color="#59f"/><stop offset="1" stop-color="#2a7fff"/></linearGradient><g stroke-linecap="round" stroke-linejoin="round"><path d="m60.81 32a28.81 28.81 0 0 1 -28.81 28.81 28.81 28.81 0 0 1 -28.81-28.81 28.81 28.81 0 0 1 28.81-28.81 28.81 28.81 0 0 1 28.81 28.81z" fill="url(#a)" stroke="#87aade" stroke-width="4"/><path d="m56.843 31.685a25.159 25.159 0 0 1 -25.158 25.158 25.159 25.159 0 0 1 -25.159-25.158 25.159 25.159 0 0 1 25.159-25.159 25.159 25.159 0 0 1 25.158 25.159z" fill="none" stroke="#fff" stroke-width="4"/><path d="m27.668 37.512v-1.679q0-2.178.93-3.788.93-1.61 3.402-3.425 2.382-1.701 3.13-2.767.771-1.066.771-2.382 0-1.474-1.089-2.246-1.089-.771-3.039-.771-3.402 0-7.757 2.223l-2.473-4.967q5.058-2.835 10.729-2.835 4.673 0 7.417 2.246 2.767 2.246 2.767 5.988 0 2.495-1.134 4.31-1.134 1.815-4.31 4.083-2.178 1.61-2.767 2.45-.567.839-.567 2.2v1.361zm-.726 7.757q0-1.905 1.021-2.881 1.021-.975 2.971-.975 1.883 0 2.903.998 1.043.998 1.043 2.858 0 1.792-1.043 2.835-1.043 1.021-2.903 1.021-1.905 0-2.949-.998-1.043-1.021-1.043-2.858z" fill="#fff" stroke-width="2"/></g></svg>