<svg viewBox="0 0 64 64" xmlns="http://www.w3.org/2000/svg" xmlns:xlink="http://www.w3.org/1999/xlink"><defs><path id="a" d="m8.6 38.43v.58c0-.2.02-.39.04-.58zm46.76 0a3.77 3.77 0 0 1 .04.58v-.58z"/></defs><g transform="matrix(.94 0 0 .94 2.05 2.05)"><path d="m31.64 2.88c-11.47.09-20.88 4.28-21.64 9.64-.03-.22-.05-.44-.05-.66v39.54h.04c.67 5.42 10.27 9.72 22.01 9.72s21.34-4.3 22.01-9.72h.04v-39.55c0 .22-.02.44-.05.66-.78-5.42-10.39-9.63-22-9.63z" fill="#ccc" stroke="#37c837" stroke-linejoin="round" stroke-width="8"/><g transform="matrix(.94 0 0 .97 1.85 .94)"><g transform="matrix(1 0 0 1.07 0 -5.38)"><use fill="#ccc" xlink:href="#a"/><use fill="#888" xlink:href="#a" y="-14.03"/></g><path d="m32 46.98c-12.93 0-23.4-4.76-23.4-10.63v15.64h.04c.71 5.58 10.9 10.01 23.36 10.01s22.65-4.43 23.36-10.01h.04v-15.64c0 5.87-10.48 10.63-23.4 10.63z" fill="#666"/><path d="m32 34.43c-12.93 0-23.4-4.76-23.4-10.63v15.64h.04c.71 5.58 10.9 10.01 23.36 10.01s22.65-4.43 23.36-10.01h.04v-15.64c0 5.87-10.48 10.63-23.4 10.63z" fill="#808080"/><ellipse cx="32" cy="12.63" fill="#ccc" rx="23.4" ry="10.63"/><path d="m32 21.88c-12.93 0-23.4-4.76-23.4-10.63v15.64h.04c.71 5.57 10.9 10 23.36 10s22.65-4.43 23.36-10.01h.04v-15.64c0 5.87-10.48 10.63-23.4 10.63z" fill="#999"/><use fill="#444" transform="matrix(1 0 0 1.07 0 -5.38)" xlink:href="#a" y="-28.07"/></g></g></svg>