<svg xmlns="http://www.w3.org/2000/svg" viewBox="0 0 64 64"><defs/><path fill="#c8beb7" d="M31.72 4.5L7.68 28.54V59.1a2 2 0 002 2h44.08a2 2 0 002-2V28.54z"/><path fill="#875334" d="M55.76 29.05L43.74 17.03v-4.68a2 2 0 012-2h8.01a2 2 0 012 2v16.7z"/><path fill="#ff6243" d="M60.44 35.06a2 2 0 01-1.42-.59l-27.3-27.3-27.3 27.3c-.78.78-2.05.78-2.83 0s-.78-2.05 0-2.83L30.31 2.92c.78-.78 2.05-.78 2.83 0l28.72 28.72c.78.78.78 2.05 0 2.83a2 2 0 01-1.42.59z"/><path fill="#ff3501" d="M33.14 2.92a2 2 0 00-1.42-.59v4.84l27.3 27.3a2 2 0 002.83 0c.78-.78.78-2.05 0-2.83z"/><path fill="#95673f" d="M37.73 37.06H25.71a2 2 0 00-2 2V61.1h16.03V39.06a2 2 0 00-2-2z"/></svg>