<svg viewBox="0 0 64 64" xmlns="http://www.w3.org/2000/svg"><path d="m31.72 4.5-24.04 24.04v30.56a2 2 0 0 0 2 2h44.08a2 2 0 0 0 2-2v-30.56z" fill="#c8beb7"/><path d="m55.76 29.05-12.02-12.02v-4.68a2 2 0 0 1 2-2h8.01a2 2 0 0 1 2 2v16.7z" fill="#875334"/><path d="m60.44 35.06a2 2 0 0 1 -1.42-.59l-27.3-27.3-27.3 27.3c-.78.78-2.05.78-2.83 0s-.78-2.05 0-2.83l28.72-28.72c.78-.78 2.05-.78 2.83 0l28.72 28.72c.78.78.78 2.05 0 2.83a2 2 0 0 1 -1.42.59z" fill="#ff6243"/><path d="m33.14 2.92a2 2 0 0 0 -1.42-.59v4.84l27.3 27.3a2 2 0 0 0 2.83 0c.78-.78.78-2.05 0-2.83z" fill="#ff3501"/><path d="m37.73 37.06h-12.02a2 2 0 0 0 -2 2v22.04h16.03v-22.04a2 2 0 0 0 -2-2z" fill="#95673f"/></svg>