<svg xmlns="http://www.w3.org/2000/svg" viewBox="0 0 64 64"><path fill="#c8beb7" d="M31.7 4.5l-24 24v30.6a2 2 0 002 2h44a2 2 0 002-2V28.5z"/><path fill="#875334" d="M55.8 29l-12-12v-4.6a2 2 0 012-2h8a2 2 0 012 2V29z"/><path fill="#ff6243" d="M60.4 35a2 2 0 01-1.4-.5L31.7 7.2 4.4 34.5a2 2 0 01-2.8-2.9L30.3 3a2 2 0 012.8 0L62 31.6c.7.8.7 2 0 2.9a2 2 0 01-1.5.6z"/><path fill="#ff3501" d="M33.1 3a2 2 0 00-1.4-.7v4.9L59 34.5a2 2 0 002.8 0c.8-.8.8-2 0-2.9z"/><path fill="#95673f" d="M37.7 37h-12a2 2 0 00-2 2v22.1h16v-22a2 2 0 00-2-2z"/></svg>