<svg viewBox="0 0 511.999 511.999" xmlns="http://www.w3.org/2000/svg"><path d="m256 29.174-200.348 200.348v254.652c0 9.223 7.473 16.696 16.696 16.696h367.304c9.223 0 16.696-7.473 16.696-16.696v-254.652z" fill="#c8beb7"/><path d="m456.348 233.74-100.174-100.175v-38.965a16.7 16.7 0 0116.696-16.696h66.783a16.7 16.7 0 0116.696 16.696v139.13z" fill="#875334"/><path d="m495.305 283.826a16.64 16.64 0 01-11.804-4.892l-227.501-227.499-227.5 227.5c-6.52 6.52-17.087 6.52-23.6 0s-6.52-17.092 0-23.6l239.295-239.315c6.52-6.52 17.087-6.52 23.6 0l239.315 239.304c6.52 6.516 6.52 17.092 0 23.6a16.64 16.64 0 01-11.803 4.892z" fill="#ff6243"/><path d="m267.804 16.022a16.64 16.64 0 00-11.804-4.892v40.304l227.5 227.5a16.64 16.64 0 0023.608 0c6.52-6.516 6.52-17.092 0-23.6z" fill="#ff3501"/><path d="m306.088 300.522h-100.175a16.7 16.7 0 00-16.696 16.696v183.652h133.566v-183.653a16.7 16.7 0 00-16.695-16.695z" fill="#95673f"/></svg>