<svg xmlns="http://www.w3.org/2000/svg" viewBox="0 0 511.999 511.999"><path fill="#c8beb7" d="M256 29.174L55.652 229.522v254.652c0 9.223 7.473 16.696 16.696 16.696h367.304c9.223 0 16.696-7.473 16.696-16.696V229.522L256 29.174z"/><path fill="#875334" d="M456.348 233.74L356.174 133.565V94.6a16.7 16.7 0 0 1 16.696-16.696h66.783a16.7 16.7 0 0 1 16.696 16.696v139.13z"/><path fill="#ff6243" d="M495.305 283.826a16.64 16.64 0 0 1-11.804-4.892L256 51.435l-227.5 227.5c-6.52 6.52-17.087 6.52-23.6 0s-6.52-17.092 0-23.6L244.195 16.02c6.52-6.52 17.087-6.52 23.6 0L507.11 255.324c6.52 6.516 6.52 17.092 0 23.6a16.64 16.64 0 0 1-11.803 4.892z"/><path fill="#ff3501" d="M267.804 16.022A16.64 16.64 0 0 0 256 11.13v40.304l227.5 227.5a16.64 16.64 0 0 0 23.608 0c6.52-6.516 6.52-17.092 0-23.6L267.804 16.022z"/><path fill="#95673f" d="M306.088 300.522H205.913a16.7 16.7 0 0 0-16.696 16.696V500.87h133.566V317.217a16.7 16.7 0 0 0-16.695-16.695z"/></svg>