<svg xmlns="http://www.w3.org/2000/svg" viewBox="0 0 64 64"><path fill="none" stroke="#38454f" stroke-width="4.2" d="M46.8 37.6V30v26.7a5 5 0 01-5 5H18.1a5 5 0 01-5-5"/><path fill="#546a79" d="M19 48.6H7.5v8.2H19z"/><path fill="#6f7c91" d="M6.3 29v2.6h3.8V29h6.3v2.6h3.8V29h4a2.4 2.4 0 012.3 2.4v13.8a6.6 6.6 0 01-6.6 6.6H6.6A6.6 6.6 0 010 45.2V31.4A2.3 2.3 0 012.3 29z"/><path fill="#535d6c" d="M2.3 29h4v2.6h3.8V29h6.3v2.6h3.8V29h4a2.4 2.4 0 012.3 2.4v.3a2.3 2.3 0 01-2.3 2.4H2.4A2.4 2.4 0 010 31.7v-.3A2.3 2.3 0 012.3 29z"/><path fill="#b7c4c8" stroke="#b7bec8" stroke-miterlimit="10" stroke-width="3" d="M16.4 30.3h3.8V15.7a1.9 1.9 0 00-1.9-1.9 1.9 1.9 0 00-1.9 2zm-10 0H10V15.7a1.9 1.9 0 00-1.9-1.9 1.9 1.9 0 00-1.9 2z"/><g fill-rule="evenodd"><path fill="#8787de" d="M61 0H33a3 3 135 00-3 3v28a3 3 45 003 3h28a3 3 135 003-3V3a3 3 45 00-3-3z"/><g opacity=".7"><path fill="#fafc4d" d="M59.5 32.6c-.7 0-1.4-.3-2-.8a2.9 2.9 0 010-4 2.9 2.9 0 014 0 2.9 2.9 0 010 4 2.9 2.9 0 01-2 .8z"/><path fill="#f82d2d" d="M51.2 32.6a2.9 2.9 0 01-2-4.9 2.9 2.9 0 014 4 2.9 2.9 0 01-2 1zm-8.4 0c-.7 0-1.5-.3-2-.8a2.9 2.9 0 114-4 2.9 2.9 0 010 4 2.9 2.9 0 01-2 .8z"/><path fill="#fafc4d" d="M34.4 32.6c-.7 0-1.4-.3-2-.8a2.9 2.9 0 010-4c1.1-1.2 3-1.2 4 0s1.2 2.9 0 4a2.9 2.9 0 01-2 .8z"/><path fill="#f82d2d" d="M57.5 23.3c.6.5 1.3.8 2 .8a2.9 2.9 0 002-.8 2.9 2.9 0 000-4 2.9 2.9 0 00-4 0 2.9 2.9 0 000 4z"/><path fill="#26fd26" d="M49.1 23.3c.6.6 1.3.8 2 .8a2.9 2.9 0 002.1-.8 2.9 2.9 0 10-4 0zm-8.3 0a2.9 2.9 0 004 0 2.9 2.9 0 000-4 2.9 2.9 0 00-4 0 2.9 2.9 0 000 4z"/><path fill="#f82d2d" d="M32.4 23.3a2.9 2.9 0 004 0 2.9 2.9 0 000-4 2.9 2.9 0 00-4 0 2.9 2.9 0 000 4zm25.1-8.5a2.9 2.9 0 002 .8 2.9 2.9 0 002-.8 2.9 2.9 0 000-4 2.9 2.9 0 10-4 4z"/><path fill="#26fd26" d="M49.1 14.8a2.9 2.9 0 002 .8c.8 0 1.5-.2 2.1-.8a2.9 2.9 0 000-4 2.9 2.9 0 10-4 4zm-8.3 0a2.9 2.9 0 002 .8c.7 0 1.5-.2 2-.8a2.9 2.9 0 000-4 2.9 2.9 0 00-4 0 2.9 2.9 0 000 4z"/><path fill="#f82d2d" d="M32.4 14.8a2.9 2.9 0 002 .8c.8 0 1.5-.2 2-.8a2.9 2.9 0 000-4 2.9 2.9 0 00-4 0 2.9 2.9 0 000 4z"/><path fill="#fafc4d" d="M59.5 7.1a2.8 2.8 0 01-2-.8 2.9 2.9 0 010-4 2.9 2.9 0 112 4.8z"/><path fill="#f82d2d" d="M51.2 7.1a2.9 2.9 0 01-2-.8 2.9 2.9 0 114-4 2.9 2.9 0 010 4c-.6.6-1.3.8-2 .8zm-8.4 0c-.7 0-1.5-.2-2-.8a2.9 2.9 0 010-4 2.9 2.9 0 014 0 2.9 2.9 0 010 4 2.9 2.9 0 01-2 .8z"/><path fill="#fafc4d" d="M34.4 7.1a2.9 2.9 0 01-2-.8 2.9 2.9 0 010-4c1.1-1.2 3-1.2 4 0s1.2 2.9 0 4a2.9 2.9 0 01-2 .8z"/></g></g><path fill="#ccc" d="M-45-23.3a2.8 2.8 0 002.7-2.8v-8.2c0-6.9-5.6-12.5-12.4-12.5a7.2 7.2 0 01-7.3-6.1 7 7 0 017-8h6.3A14 14 0 00-35-49.5h7c1 0 2-.8 2-1.8V-55h8.7c1.4 0 2.6-1 2.7-2.4a2.6 2.6 0 00-2.6-2.8h-8.9v-7h8.8c1.4 0 2.6-1 2.7-2.3a2.6 2.6 0 00-2.6-3h-8.9v-3.4c0-1-.8-1.8-1.8-1.8H-35a14 14 0 00-13.7 11.2h-6c-6.8 0-12.6 5.3-12.9 12.1a12.6 12.6 0 0012.6 13h.1a7 7 0 017 7.1v8.1a2.8 2.8 0 002.8 2.8z"/></svg>