<svg xmlns="http://www.w3.org/2000/svg" viewBox="0 0 64 64"><defs/><path fill="none" stroke="#38454f" stroke-width="4.234" d="M46.8 37.57v-7.494 26.752a5.052 5.052 0 01-5.055 5.055h-23.53a5.052 5.052 0 01-5.055-5.055"/><path fill="#546a79" d="M18.994 48.617H7.544v8.21h11.45z"/><path fill="#6f7c91" d="M6.32 29.026v2.528h3.79v-2.527h6.32v2.527h3.79v-2.527h3.94a2.38 2.38 0 012.38 2.38v13.75a6.62 6.62 0 01-6.617 6.617H6.617A6.62 6.62 0 010 45.156V31.363a2.34 2.34 0 012.337-2.337z"/><path fill="#535d6c" d="M2.337 29.026H6.32v2.528h3.79v-2.527h6.32v2.527h3.79v-2.527h3.94a2.38 2.38 0 012.38 2.38v.34a2.34 2.34 0 01-2.337 2.337H2.38A2.38 2.38 0 010 31.702v-.34a2.34 2.34 0 012.337-2.337z"/><path fill="#b7c4c8" stroke="#b7bec8" stroke-miterlimit="10" stroke-width="3" d="M16.428 30.254h3.8V15.72a1.9 1.9 0 00-1.896-1.896 1.9 1.9 0 00-1.896 1.896zm-10.108 0h3.8V15.72a1.9 1.9 0 00-1.896-1.896 1.9 1.9 0 00-1.896 1.896z"/><g fill-rule="evenodd"><path fill="#8787de" d="M61 0H32.973a3 3 135 00-3 3v28.027a3 3 45 003 3H61a3 3 135 003-3V3a3 3 45 00-3-3z"/><g opacity=".666"><path fill="#fafc4d" d="M59.53 32.622c-.73 0-1.465-.28-2.022-.837a2.861 2.861 0 010-4.058 2.87 2.87 0 014.059 0 2.874 2.874 0 010 4.058 2.887 2.887 0 01-2.037.837z"/><path fill="#f82d2d" d="M51.164 32.622a2.865 2.865 0 01-2.027-4.895 2.87 2.87 0 014.059 4.058 2.86 2.86 0 01-2.032.837zm-8.36 0c-.74 0-1.474-.28-2.032-.837a2.87 2.87 0 114.06-4.058 2.874 2.874 0 010 4.058 2.87 2.87 0 01-2.027.837z"/><path fill="#fafc4d" d="M34.438 32.622c-.737 0-1.477-.28-2.035-.837a2.88 2.88 0 010-4.058c1.125-1.12 2.945-1.12 4.066 0s1.12 2.94 0 4.058a2.88 2.88 0 01-2.031.837z"/><path fill="#f82d2d" d="M57.507 23.29c.557.56 1.29.843 2.022.843a2.88 2.88 0 002.037-.843 2.877 2.877 0 000-4.06 2.87 2.87 0 00-4.059 0 2.864 2.864 0 000 4.06z"/><path fill="#26fd26" d="M49.138 23.3c.56.56 1.297.843 2.027.843a2.85 2.85 0 002.032-.843 2.87 2.87 0 10-4.059.001zm-8.365 0a2.86 2.86 0 004.059 0 2.88 2.88 0 000-4.06 2.87 2.87 0 00-4.06 0 2.873 2.873 0 000 4.06z"/><path fill="#f82d2d" d="M32.403 23.3a2.87 2.87 0 004.065 0 2.873 2.873 0 000-4.06 2.88 2.88 0 00-4.066 0 2.884 2.884 0 000 4.06zm25.104-8.5a2.86 2.86 0 002.022.843 2.89 2.89 0 002.037-.843 2.88 2.88 0 000-4.063 2.872 2.872 0 10-4.059 4.063z"/><path fill="#26fd26" d="M49.138 14.8a2.88 2.88 0 002.027.843c.743 0 1.475-.286 2.032-.843a2.88 2.88 0 000-4.063 2.872 2.872 0 10-4.059 4.063zm-8.365 0a2.87 2.87 0 002.032.843c.733 0 1.467-.286 2.027-.843a2.88 2.88 0 000-4.063 2.873 2.873 0 00-4.06 0 2.88 2.88 0 000 4.063z"/><path fill="#f82d2d" d="M32.403 14.8a2.88 2.88 0 002.035.843c.73 0 1.47-.286 2.03-.843a2.88 2.88 0 000-4.063 2.88 2.88 0 00-4.066 0 2.89 2.89 0 000 4.063z"/><path fill="#fafc4d" d="M59.53 7.146a2.84 2.84 0 01-2.022-.843 2.861 2.861 0 010-4.058 2.87 2.87 0 112.023 4.901z"/><path fill="#f82d2d" d="M51.164 7.146a2.86 2.86 0 01-2.027-.843c-1.123-1.12-1.123-2.94 0-4.058s2.94-1.12 4.06 0a2.87 2.87 0 010 4.058c-.558.56-1.3.843-2.032.843zm-8.36 0c-.74 0-1.474-.28-2.032-.843a2.87 2.87 0 010-4.058 2.875 2.875 0 014.06 0 2.87 2.87 0 010 4.058 2.86 2.86 0 01-2.027.843z"/><path fill="#fafc4d" d="M34.438 7.146a2.86 2.86 0 01-2.035-.843 2.881 2.881 0 010-4.058c1.125-1.12 2.945-1.12 4.066 0s1.12 2.94 0 4.058a2.87 2.87 0 01-2.031.843z"/></g></g><path fill="#ccc" d="M-45.083-23.288a2.8 2.8 0 002.797-2.797V-34.3c0-6.893-5.572-12.476-12.454-12.5-3.585-.01-6.77-2.553-7.215-6.105a7.02 7.02 0 016.949-7.903h6.26c1.3 6.394 6.95 11.21 13.73 11.21h7.104c1 0 1.82-.8 1.82-1.82v-3.474h8.78c1.376 0 2.597-1 2.73-2.364a2.626 2.626 0 00-2.62-2.886h-8.89v-6.926h8.78c1.376 0 2.597-1 2.73-2.375a2.632 2.632 0 00-2.62-2.886h-8.89v-3.485c0-1-.8-1.82-1.82-1.82h-7.104c-6.782 0-12.432 4.817-13.73 11.21h-5.938c-6.827 0-12.654 5.295-12.91 12.12-.266 7.17 5.483 13.098 12.598 13.098h.1a7.003 7.003 0 017.004 7.004v8.125a2.82 2.82 0 002.808 2.808z"/></svg>