<svg height="64" width="64" xmlns="http://www.w3.org/2000/svg"><path d="m46.8 37.57v-7.494 26.752c0 2.794-2.26 5.055-5.055 5.055h-23.53c-2.794 0-5.055-2.26-5.055-5.055" fill="none" stroke="#38454f" stroke-width="4.234"/><path d="m18.994 48.617h-11.45v8.21h11.45z" fill="#546a79"/><path d="m6.32 29.026v2.528h3.79v-2.527h6.32v2.527h3.79v-2.527h3.94a2.38 2.38 0 012.38 2.38v13.75a6.62 6.62 0 01-6.617 6.617h-13.306a6.62 6.62 0 01-6.617-6.618v-13.793a2.34 2.34 0 012.337-2.337z" fill="#6f7c91"/><path d="m2.337 29.026h3.983v2.528h3.79v-2.527h6.32v2.527h3.79v-2.527h3.94a2.38 2.38 0 012.38 2.38v.34a2.34 2.34 0 01-2.337 2.337h-21.823a2.38 2.38 0 01-2.38-2.382v-.34a2.34 2.34 0 012.337-2.337z" fill="#535d6c"/><path d="m16.428 30.254h3.8v-14.534a1.9 1.9 0 00-1.896-1.896 1.9 1.9 0 00-1.896 1.896zm-10.108 0h3.8v-14.534a1.9 1.9 0 00-1.896-1.896 1.9 1.9 0 00-1.896 1.896z" fill="#b7c4c8" stroke="#b7bec8" stroke-miterlimit="10" stroke-width="3"/><g fill-rule="evenodd"><path d="m61 0h-28.0275a3 3 135 00-3 3v28.0275a3 3 45 003 3h28.0275a3 3 135 003-3v-28.0275a3 3 45 00-3-3z" fill="#8787de"/><g opacity=".666"><path d="m59.53 32.622c-.73 0-1.465-.28-2.022-.837-1.125-1.12-1.125-2.94 0-4.058a2.87 2.87 0 014.059 0c1.118 1.12 1.118 2.94 0 4.058-.56.557-1.302.837-2.037.837z" fill="#fafc4d"/><path d="m51.164 32.622c-.73 0-1.466-.28-2.027-.837-1.123-1.12-1.123-2.94 0-4.058a2.87 2.87 0 014.059 4.058 2.86 2.86 0 01-2.032.837zm-8.36 0c-.74 0-1.474-.28-2.032-.837a2.87 2.87 0 114.06-4.058c1.118 1.12 1.118 2.94 0 4.058a2.87 2.87 0 01-2.027.837z" fill="#f82d2d"/><path d="m34.438 32.622c-.737 0-1.477-.28-2.035-.837a2.88 2.88 0 010-4.058c1.125-1.12 2.945-1.12 4.066 0s1.12 2.94 0 4.058a2.88 2.88 0 01-2.031.837z" fill="#fafc4d"/><path d="m57.507 23.29c.557.56 1.29.843 2.022.843a2.88 2.88 0 002.037-.843c1.118-1.12 1.118-2.94 0-4.06a2.87 2.87 0 00-4.059 0c-1.125 1.12-1.125 2.938 0 4.06z" fill="#f82d2d"/><path d="m49.138 23.3c.56.56 1.297.843 2.027.843a2.85 2.85 0 002.032-.843 2.87 2.87 0 10-4.059.001zm-8.365 0a2.86 2.86 0 004.059 0 2.88 2.88 0 000-4.06 2.87 2.87 0 00-4.06 0c-1.12 1.12-1.12 2.938 0 4.06z" fill="#26fd26"/><path d="m32.403 23.3a2.87 2.87 0 004.065 0c1.12-1.12 1.12-2.94 0-4.06a2.88 2.88 0 00-4.066 0c-1.114 1.12-1.114 2.938 0 4.06zm25.104-8.5a2.86 2.86 0 002.022.843 2.89 2.89 0 002.037-.843 2.88 2.88 0 000-4.063 2.872 2.872 0 10-4.059 4.063z" fill="#f82d2d"/><path d="m49.138 14.8a2.88 2.88 0 002.027.843c.743 0 1.475-.286 2.032-.843a2.88 2.88 0 000-4.063 2.872 2.872 0 10-4.059 4.063zm-8.365 0a2.87 2.87 0 002.032.843c.733 0 1.467-.286 2.027-.843a2.88 2.88 0 000-4.063c-1.12-1.12-2.94-1.12-4.06 0a2.88 2.88 0 000 4.063z" fill="#26fd26"/><path d="m32.403 14.8a2.88 2.88 0 002.035.843c.73 0 1.47-.286 2.03-.843a2.88 2.88 0 000-4.063 2.88 2.88 0 00-4.066 0 2.89 2.89 0 000 4.063z" fill="#f82d2d"/><path d="m59.53 7.146a2.84 2.84 0 01-2.022-.843c-1.125-1.12-1.125-2.94 0-4.058 1.12-1.12 2.937-1.12 4.06 0s1.118 2.94 0 4.058c-.56.56-1.302.843-2.037.843z" fill="#fafc4d"/><path d="m51.164 7.146a2.86 2.86 0 01-2.027-.843c-1.123-1.12-1.123-2.94 0-4.058s2.94-1.12 4.06 0a2.87 2.87 0 010 4.058c-.558.56-1.3.843-2.032.843zm-8.36 0c-.74 0-1.474-.28-2.032-.843a2.87 2.87 0 010-4.058c1.12-1.118 2.938-1.12 4.06 0a2.87 2.87 0 010 4.058 2.86 2.86 0 01-2.027.843z" fill="#f82d2d"/><path d="m34.438 7.146a2.86 2.86 0 01-2.035-.843c-1.114-1.12-1.114-2.94 0-4.058 1.125-1.12 2.945-1.12 4.066 0s1.12 2.94 0 4.058a2.87 2.87 0 01-2.031.843z" fill="#fafc4d"/></g></g><path d="m-45.083-23.288a2.8 2.8 0 002.797-2.797v-8.215c0-6.893-5.572-12.476-12.454-12.5-3.585-.01-6.77-2.553-7.215-6.105a7.02 7.02 0 016.949-7.903h6.26c1.3 6.394 6.95 11.21 13.73 11.21h7.104c1 0 1.82-.8 1.82-1.82v-3.474h8.78c1.376 0 2.597-1 2.73-2.364.155-1.565-1.077-2.886-2.62-2.886h-8.89v-6.926h8.78c1.376 0 2.597-1 2.73-2.375.144-1.565-1.077-2.886-2.62-2.886h-8.89v-3.485c0-1-.8-1.82-1.82-1.82h-7.104c-6.782 0-12.432 4.817-13.73 11.21h-5.938c-6.827 0-12.654 5.295-12.91 12.12-.266 7.17 5.483 13.098 12.598 13.098h.1c3.874 0 7.004 3.14 7.004 7.004v8.125a2.82 2.82 0 002.808 2.808z" fill="#ccc"/></svg>