<svg xmlns="http://www.w3.org/2000/svg" xmlns:xlink="http://www.w3.org/1999/xlink" viewBox="0 0 64 64"><defs><linearGradient id="a" x1="150.4" x2="150.4" y1="152.65" y2="138.69" gradientUnits="userSpaceOnUse"><stop offset="0" stop-color="#f1eee9"/><stop offset="1" stop-color="#f1eef3"/></linearGradient><linearGradient id="b" x1="148.11" x2="148.11" y1="134.11" y2="144.96" gradientUnits="userSpaceOnUse"><stop offset="0" stop-color="#999"/><stop offset="1" stop-color="#666"/></linearGradient><path id="c" d="M144.1 151.03a1.38 1.38 0 10-2.76 0 1.38 1.38 0 102.76 0"/></defs><g transform="matrix(3.78 0 0 3.78 -526.06 -518.07)"><path fill="url(#a)" stroke="#666" stroke-linejoin="round" stroke-opacity=".7" stroke-width=".53" d="M141.06 137.34h13.19c.9 0 1.61.72 1.61 1.61v13.19c0 .9-.72 1.61-1.61 1.61h-13.19c-.9 0-1.61-.72-1.61-1.61v-13.19c0-.9.72-1.61 1.61-1.61z"/><g fill="url(#b)" transform="matrix(.86 0 0 .86 20.76 20.77)"><path d="M140.4 137.28h1.68v7.93h-1.68zM148.72 145.21h-5.61v-1.15l2.01-1.98 1.17-1.24c.18-.23.32-.44.4-.64a1.59 1.59 0 00.12-.61c0-.31-.09-.55-.27-.7s-.41-.23-.71-.23c-.31 0-.61.07-.91.21a4.69 4.69 0 00-.92.59l-.92-1.06c.4-.33.72-.56.98-.7s.54-.24.85-.31.65-.1 1.03-.1c.5 0 .94.09 1.33.27.38.18.68.43.9.75.21.32.32.69.32 1.1 0 .36-.07.7-.2 1.01-.13.32-.33.64-.6.97s-.75.8-1.44 1.42l-1.03.95v.08h3.5zM151.31 141h.55c.52 0 .9-.1 1.16-.31s.39-.5.39-.89-.11-.69-.32-.87c-.22-.19-.55-.28-1.01-.28h-.77zm3.8-1.26c0 .85-.27 1.51-.8 1.96s-1.29.68-2.28.68h-.72v2.82h-1.68v-7.93h2.53c.96 0 1.69.21 2.19.62s.75 1.03.75 1.85"/></g><use fill="#ffc434" xlink:href="#c"/><use y="-3.28" fill="#60ab60" xlink:href="#c"/><use x="3.29" fill="#e15647" xlink:href="#c"/><g fill="#ffc434"><use x="3.29" y="-3.28" xlink:href="#c"/><use x="6.57" xlink:href="#c"/></g><g fill="#60ab60"><use x="6.57" y="-3.28" xlink:href="#c"/><use x="9.85" xlink:href="#c"/></g><use x="9.85" y="-3.28" fill="#e15647" xlink:href="#c"/></g></svg>