<svg height="64" viewBox="0 0 16.933 16.933" width="64" xmlns="http://www.w3.org/2000/svg" xmlns:xlink="http://www.w3.org/1999/xlink"><defs><path id="a" d="m144.104 151.03a1.38 1.38 0 10-2.763 0 1.38 1.38 0 102.763 0"/><linearGradient id="b" gradientUnits="userSpaceOnUse" x1="150.399" x2="150.399" y1="152.654" y2="138.687"><stop offset="0" stop-color="#f1eee9"/><stop offset="1" stop-color="#f1eef3"/></linearGradient><linearGradient id="c" gradientUnits="userSpaceOnUse" x1="148.109" x2="148.109" y1="134.114" y2="144.962"><stop offset="0" stop-color="#999"/><stop offset="1" stop-color="#666"/></linearGradient></defs><g transform="translate(-139.183 -137.07)"><path d="m141.056 137.336h13.187c.9 0 1.606.716 1.606 1.606v13.187c0 .9-.716 1.606-1.606 1.606h-13.187c-.9 0-1.606-.716-1.606-1.606v-13.187c0-.9.716-1.606 1.606-1.606z" fill="url(#b)" stroke="#666" stroke-linejoin="round" stroke-opacity=".704" stroke-width=".534"/><g fill="url(#c)" transform="matrix(.8588 0 0 .8588 20.7628 20.7724)"><path d="m140.4 137.277h1.682v7.93h-1.682z"/><path d="m148.72 145.208h-5.61v-1.15l2.014-1.984 1.17-1.238c.183-.23.315-.443.395-.64a1.59 1.59 0 00.121-.61c0-.314-.09-.547-.266-.7s-.414-.23-.71-.23c-.31 0-.613.07-.906.21a4.69 4.69 0 00-.917.594l-.922-1.064c.395-.328.722-.56.982-.695s.543-.24.85-.313.65-.1 1.032-.1c.5 0 .944.09 1.328.267s.682.428.895.75.318.688.318 1.102c0 .36-.065.698-.195 1.014s-.33.64-.604.97-.753.804-1.44 1.417l-1.032.947v.075h3.496z"/><path d="m151.305 141h.553c.517 0 .904-.102 1.16-.307s.385-.502.385-.892-.108-.685-.323-.873-.553-.282-1.012-.282h-.765zm3.798-1.26c0 .854-.267 1.506-.8 1.96s-1.292.678-2.276.678h-.72v2.82h-1.682v-7.93h2.534c.962 0 1.693.207 2.194.62s.75 1.032.75 1.853"/></g><use fill="#ffc434" xlink:href="#a"/><use fill="#60ab60" xlink:href="#a" y="-3.283"/><use fill="#e15647" x="3.286" xlink:href="#a"/><g fill="#ffc434"><use x="3.286" xlink:href="#a" y="-3.283"/><use x="6.569" xlink:href="#a"/></g><g fill="#60ab60"><use x="6.569" xlink:href="#a" y="-3.283"/><use x="9.854" xlink:href="#a"/></g><use fill="#e15647" x="9.854" xlink:href="#a" y="-3.283"/></g></svg>