<svg xmlns="http://www.w3.org/2000/svg" viewBox="0 0 64 64"><defs><linearGradient id="A" x1="148.11" x2="148.11" y1="134.11" y2="144.96" gradientUnits="userSpaceOnUse"><stop offset="0" stop-color="#999"/><stop offset="1" stop-color="#666"/></linearGradient><linearGradient id="B" x1="43.895" x2="43.895" y1="60.914" y2="1.801" gradientUnits="userSpaceOnUse"><stop offset="0" stop-color="#f1eee9"/><stop offset="1" stop-color="#f1eef3"/></linearGradient></defs><rect width="62" height="62" x="1" y="1" fill="url(#B)" stroke="gray" stroke-linejoin="round" stroke-width="2" rx="7.75"/><g transform="matrix(3.26464 0 0 3.26464 -450.36 -441.78)"><path fill="url(#A)" d="M140.4 137.28h1.68v7.93h-1.68z"/><path fill="url(#A)" d="M148.72 145.2h-5.61v-1.14l2.01-1.99 1.17-1.23c.19-.23.32-.45.4-.64a1.59 1.59 0 00.12-.61c0-.32-.09-.55-.27-.7a1.05 1.05 0 00-.7-.23c-.32 0-.62.07-.91.2a4.69 4.69 0 00-.92.6l-.92-1.06c.4-.33.72-.56.98-.7a3.69 3.69 0 011.88-.41c.5 0 .95.09 1.33.27.39.17.68.42.9.75.2.32.31.68.31 1.1 0 .36-.06.7-.2 1.01a3.8 3.8 0 01-.6.97c-.27.33-.75.8-1.43 1.42l-1.04.95v.07h3.5z"/><path fill="url(#A)" d="M151.3 141h.56c.51 0 .9-.1 1.16-.3.25-.21.38-.5.38-.9 0-.39-.1-.68-.32-.87s-.55-.28-1.01-.28h-.77zm3.8-1.26c0 .85-.26 1.5-.8 1.96-.53.45-1.29.68-2.27.68h-.72v2.82h-1.69v-7.93h2.54c.96 0 1.7.2 2.2.62.5.41.74 1.03.74 1.85"/></g><g transform="matrix(2.75799 0 0 2.75799 -8.1 -45.24)"><g fill="#e15647"><circle cx="12.25" cy="35.47" r="1.83"/><circle cx="21.41" cy="30.89" r="1.83"/></g><g fill="#60ab60"><circle cx="7.67" cy="30.89" r="1.83"/><circle cx="16.83" cy="30.89" r="1.83"/><circle cx="21.41" cy="35.47" r="1.83"/></g><g fill="#ffc434"><circle cx="7.67" cy="35.47" r="1.83"/><circle cx="12.25" cy="30.89" r="1.83"/><circle cx="16.83" cy="35.47" r="1.83"/></g></g></svg>