<svg xmlns="http://www.w3.org/2000/svg" xmlns:xlink="http://www.w3.org/1999/xlink" height="64" viewBox="0 0 16.933 16.933" width="64"><linearGradient id="A" gradientUnits="userSpaceOnUse" x1="150.353" x2="150.353" y1="152.537" y2="138.8"><stop offset="0" stop-color="#f1eee9"/><stop offset="1" stop-color="#f1eef3"/></linearGradient><g transform="translate(-139.183 -137.07)"><path d="M141.165 137.472h12.97c.875 0 1.58.705 1.58 1.58v12.97c0 .875-.705 1.58-1.58 1.58h-12.97c-.875 0-1.58-.705-1.58-1.58v-12.97c0-.875.705-1.58 1.58-1.58z" stroke="#4d4d4d" stroke-width=".805" stroke-linejoin="round" stroke-opacity=".997" fill="url(#A)"/><path d="M141.175 138.7h1.482v7h-1.482zm7.325 7h-4.943v-1.013l1.775-1.75 1.03-1.1a2.66 2.66 0 0 0 .348-.563c.07-.163.106-.352.106-.537 0-.276-.078-.482-.235-.617s-.365-.203-.626-.203a1.84 1.84 0 0 0-.798.184c-.258.123-.527.297-.808.523l-.812-.938c.348-.3.637-.493.866-.613a3.23 3.23 0 0 1 .75-.276c.27-.064.574-.097.9-.097.442 0 .832.08 1.17.236s.6.377.788.66a1.72 1.72 0 0 1 .281.971c0 .317-.057.615-.172.893a3.43 3.43 0 0 1-.532.855c-.24.292-.663.7-1.27 1.25l-.9.834v.066h3.08zm2.277-3.7h.488c.456 0 .797-.1 1.023-.27s.34-.442.34-.786-.095-.604-.284-.77-.487-.25-.892-.25h-.674zm3.347-1.1c0 .752-.235 1.328-.705 1.726s-1.14.598-2.006.598h-.636v2.486h-1.482v-7h2.233c.848 0 1.492.182 1.934.547s.662.9.662 1.633" fill="#4d4d4d"/><use xlink:href="#C" fill="#ffc434"/><use xlink:href="#C" y="-3.371" fill="#60ab60"/><use xlink:href="#C" x="3.372" fill="#e15647"/><g fill="#ffc434"><use xlink:href="#C" x="3.372" y="-3.371"/><use xlink:href="#C" x="6.743"/></g><g fill="#60ab60"><use xlink:href="#C" x="6.743" y="-3.371"/><use xlink:href="#C" x="10.113"/></g><use xlink:href="#C" x="10.113" y="-3.371" fill="#e15647"/></g><defs ><path id="C" d="M144.01 150.945a1.42 1.42 0 0 0-1.418-1.418 1.42 1.42 0 0 0-1.418 1.418 1.42 1.42 0 0 0 1.418 1.418 1.42 1.42 0 0 0 1.418-1.418"/></defs></svg>