<svg xmlns="http://www.w3.org/2000/svg" xmlns:xlink="http://www.w3.org/1999/xlink" viewBox="0 0 64 64"><defs><linearGradient id="a" x1="150.4" x2="150.4" y1="152.7" y2="138.7" gradientUnits="userSpaceOnUse"><stop offset="0" stop-color="#f1eee9"/><stop offset="1" stop-color="#f1eef3"/></linearGradient><linearGradient id="b" x1="148.1" x2="148.1" y1="134.1" y2="145" gradientUnits="userSpaceOnUse"><stop offset="0" stop-color="#999"/><stop offset="1" stop-color="#666"/></linearGradient><path id="c" d="M144.1 151a1.4 1.4 0 10-2.8 0 1.4 1.4 0 102.8 0"/></defs><g transform="matrix(3.78 0 0 3.78 -526 -518)"><path fill="url(#a)" stroke="#666" stroke-linejoin="round" stroke-opacity=".7" stroke-width=".5" d="M141 137.3h13.3c.8 0 1.6.8 1.6 1.6v13.2c0 1-.8 1.7-1.6 1.7H141c-1 0-1.6-.8-1.6-1.7V139c0-1 .7-1.7 1.6-1.7z"/><path fill="url(#b)" d="M140.4 137.3h1.7v8h-1.7zm8.3 8h-5.6V144l2-2 1.2-1.3.4-.6a1.6 1.6 0 00.1-.6c0-.3 0-.6-.3-.7l-.7-.2c-.3 0-.6 0-.9.2a4.7 4.7 0 00-.9.6l-1-1.1 1-.7a4.1 4.1 0 012-.4c.4 0 .9 0 1.3.3.3.1.6.4.9.7.2.3.3.7.3 1.1 0 .4 0 .7-.2 1-.1.3-.3.7-.6 1l-1.4 1.4-1 1h3.4zm2.6-4.3h.6c.5 0 .9-.1 1.1-.3s.4-.5.4-.9-.1-.7-.3-.9c-.2-.2-.6-.2-1-.2h-.8zm3.8-1.3c0 .9-.3 1.6-.8 2s-1.3.7-2.3.7h-.7v2.8h-1.7v-8h2.6c1 0 1.7.3 2.2.7s.7 1 .7 1.8" transform="matrix(.86 0 0 .86 20.8 20.8)"/><use fill="#ffc434" xlink:href="#c"/><use y="-3.3" fill="#60ab60" xlink:href="#c"/><use x="3.3" fill="#e15647" xlink:href="#c"/><g fill="#ffc434"><use x="3.3" y="-3.3" xlink:href="#c"/><use x="6.6" xlink:href="#c"/></g><g fill="#60ab60"><use x="6.6" y="-3.3" xlink:href="#c"/><use x="9.8" xlink:href="#c"/></g><use x="9.8" y="-3.3" fill="#e15647" xlink:href="#c"/></g></svg>