<svg xmlns="http://www.w3.org/2000/svg" viewBox="0 0 64 64"><path fill="#ca3e47" stroke="#000" stroke-width="7.576" d="M32.009 4.552c-6.996 4.664-14.175 8.972-23.537 9.041-.033 27.211 9.155 34.36 23.537 45.615C46.39 47.953 55.576 40.805 55.546 13.593c-9.362-.069-16.54-4.379-23.537-9.041z"/><path fill="#ca3e47" stroke="#fff" stroke-width="2.841" d="M32.009 4.552c-6.996 4.664-14.175 8.972-23.537 9.041-.033 27.211 9.155 34.36 23.537 45.615C46.39 47.953 55.576 40.805 55.546 13.593c-9.362-.069-16.54-4.379-23.537-9.041z"/><g fill="#f4d7d7" stroke-width=".947"><path d="M22.51 21.798l-.441 2.176h2.42v1.934h-2.787l-.723 3.809h-2.064l.732-3.809h-1.821l-.713 3.809h-2.017l.693-3.809h-2.233v-1.934h2.598l.441-2.176h-2.364v-1.96h2.71l.723-3.817h2.055l-.723 3.817h1.857l.732-3.817h2.017l-.732 3.817h2.251v1.96zm-4.315 2.176h1.839l.441-2.176h-1.839zM35.485 34.099h-9.974v-1.313h9.974z"/></g></svg>