<svg xmlns="http://www.w3.org/2000/svg" viewBox="0 0 64 64"><path fill="#ca3e47" stroke="#000" stroke-width="7.6" d="M32 4.6c-7 4.6-14.2 9-23.5 9C8.5 40.8 17.6 48 32 59.2 46.4 48 55.6 40.8 55.5 13.6c-9.3 0-16.5-4.4-23.5-9z"/><path fill="#ca3e47" stroke="#fff" stroke-width="2.8" d="M32 4.6c-7 4.6-14.2 9-23.5 9C8.5 40.8 17.6 48 32 59.2 46.4 48 55.6 40.8 55.5 13.6c-9.3 0-16.5-4.4-23.5-9z"/><path fill="#f4d7d7" stroke-width=".9" d="M22.5 21.8l-.4 2.2h2.4v2h-2.8l-.7 3.7h-2l.6-3.8h-1.8l-.7 3.8h-2l.7-3.8h-2.2v-2h2.6l.4-2.1h-2.4v-2H17l.8-3.8h2l-.7 3.8h1.9l.7-3.8h2l-.7 3.8H25v2zM18.2 24H20l.5-2.2h-1.9zM35.5 34h-10v-1.3h10z"/></svg>