<svg viewBox="0 0 64 64" xmlns="http://www.w3.org/2000/svg" xmlns:xlink="http://www.w3.org/1999/xlink"><defs><linearGradient id="a" gradientUnits="userSpaceOnUse" x1="34.5" x2="34.5" y1="13.27" y2="34.94"><stop offset="0" stop-color="#5eace8"/><stop offset="1" stop-color="#5796e8"/></linearGradient><path id="b" d="m22.95 16.7a2.38 2.38 0 0 1 -.77-.52c-.21-.22-.38-.48-.5-.77a2.37 2.37 0 0 1 -.19-.93c0-.33.06-.64.19-.94.12-.28.29-.53.5-.75.22-.23.48-.4.77-.52.3-.13.61-.18.94-.19.33 0 .64.06.94.19a2.35 2.35 0 0 1 .77.52c.21.22.38.47.5.75.13.3.19.61.19.94a2.37 2.37 0 0 1 -.19.93 2.45 2.45 0 0 1 -.5.76 2.33 2.33 0 0 1 -.77.53c-.3.13-.61.19-.94.19a2.41 2.41 0 0 1 -.94-.19z"/><path id="c" d="m18.36 31.46v-1.79c0-.39.32-.71.71-.71h3.35v-7.38h-2.94c-.39 0-.71-.32-.71-.71v-1.77c0-.39.32-.71.71-.71h5.83c.39 0 .71.32.71.71v9.87h2.97c.39 0 .71.32.71.71v1.79c0 .39-.32.71-.71.71h-9.92c-.39 0-.71-.32-.71-.71z"/></defs><g transform="matrix(1.33 0 0 1.33 .04 1)"><path d="m22.83 1.05-21.78 21.78a1.65 1.65 0 0 0 0 2.33l21.79 21.79a1.65 1.65 0 0 0 2.33 0l21.78-21.78a1.65 1.65 0 0 0 0-2.33l-21.78-21.79a1.65 1.65 0 0 0 -2.33 0z" fill="url(#a)" stroke="#3a4389" stroke-width="1.8" transform="matrix(.96 0 0 .96 1.07 .35)"/><g fill="#fff"><g opacity=".4" stroke="#3c62a1" stroke-linejoin="round" stroke-width="2.4"><use xlink:href="#b"/><use xlink:href="#c"/></g><use xlink:href="#b"/><use xlink:href="#c"/></g><path d="m24 2.53-20.75 20.75 20.75 20.76 20.76-20.76z" fill="none" stroke="#fff" stroke-linejoin="round" stroke-width="2"/></g></svg>