<svg fill-rule="evenodd" height="64" stroke-linejoin="bevel" stroke-width=".501" viewBox="0 0 48 48" width="64" xmlns="http://www.w3.org/2000/svg" xmlns:xlink="http://www.w3.org/1999/xlink"><defs><linearGradient id="a" gradientUnits="userSpaceOnUse" x1="34.503" x2="34.503" y1="13.265" y2="34.936"><stop offset="0" stop-color="#5eace8"/><stop offset="1" stop-color="#5796e8"/></linearGradient><path id="b" d="m22.95 16.7c-.29-.123-.55-.297-.77-.523-.215-.222-.384-.478-.503-.764a2.37 2.37 0 01-.185-.929c0-.325.06-.642.187-.94.12-.282.29-.533.502-.753.22-.226.478-.4.77-.524.3-.125.614-.184.942-.185s.64.06.94.185a2.35 2.35 0 01.771.524c.213.22.38.47.502.753.127.297.186.613.186.94a2.37 2.37 0 01-.185.929c-.12.286-.288.542-.503.764a2.33 2.33 0 01-.771.523c-.298.126-.614.185-.94.185a2.41 2.41 0 01-.942-.185z"/><path id="c" d="m18.36 31.46v-1.786c0-.394.32-.714.713-.714h3.352v-7.382h-2.945c-.394 0-.713-.32-.713-.713v-1.765c0-.393.32-.713.713-.713h5.828c.393 0 .713.32.713.713v9.87h2.97c.394 0 .713.32.713.714v1.786c0 .394-.32.713-.713.713h-9.918c-.394 0-.713-.32-.713-.713z"/></defs><g transform="matrix(1.0308 0 0 1.0308 -.7426 0)"><path d="m22.833 1.046-21.787 21.787a1.65 1.65 0 000 2.333l21.787 21.787a1.65 1.65 0 002.333 0l21.787-21.787a1.65 1.65 0 000-2.333l-21.786-21.787a1.65 1.65 0 00-2.333 0z" fill="url(#a)" stroke="#3a4389" stroke-linejoin="miter" stroke-miterlimit="79.8403" stroke-width="1.875" transform="matrix(.9554 0 0 .9554 1.0726 .3523)"/><g style="opacity:.41;fill:#fff;stroke:#3c62a1;stroke-linejoin:round;stroke-width:2.339;stroke-miterlimit:79.8403"><use xlink:href="#b"/><use xlink:href="#c"/></g><g fill="#fff"><use xlink:href="#b"/><use xlink:href="#c"/></g><path d="m24.002 2.527-20.754 20.755 20.755 20.755 20.755-20.755z" fill="none" stroke="#fff" stroke-linejoin="round" stroke-miterlimit="79.8403" stroke-width="2.186"/></g></svg>