<svg xmlns="http://www.w3.org/2000/svg" height="64" width="64"><linearGradient id="A" gradientUnits="userSpaceOnUse" x1="26.875" x2="26.875" y1="17.179" y2="50.588"><stop offset="0" stop-color="#59f"/><stop offset="1" stop-color="#2a7fff"/></linearGradient><g stroke-width="4" stroke-linejoin="round"><path d="M60.81 32a28.81 28.81 0 1 1-57.621 0 28.81 28.81 0 1 1 57.621 0z" fill="url(#A)" stroke="#87aade"/><path d="M56.843 31.685a25.159 25.159 0 0 1-50.317 0A25.159 25.159 0 0 1 31.685 6.526a25.159 25.159 0 0 1 25.158 25.159z" fill="none" stroke="#fff"/></g><path d="M28.235 17.733q0-3.38 3.765-3.38 3.765 0 3.765 3.38 0 1.6-.953 2.518-.93.884-2.812.884-3.765 0-3.765-3.402zm7.213 31.914H28.53v-25.36h6.918z" fill="#fff"/></svg>