<svg height="64" width="64" xmlns="http://www.w3.org/2000/svg" xmlns:xlink="http://www.w3.org/1999/xlink"><linearGradient id="a" gradientUnits="userSpaceOnUse" x1="26.884" x2="26.884" y1="9.783" y2="50.587"><stop offset="0" stop-color="#f00"/><stop offset="1" stop-color="#a00"/></linearGradient><path d="m60.81 32a28.81 28.81 0 1 1 -57.62 0 28.81 28.81 0 1 1 57.62 0z" fill="url(#a)" stroke="#c83737" stroke-linejoin="round" stroke-width="4"/><path d="m57.159 32a25.159 25.159 0 1 1 -50.318 0 25.159 25.159 0 1 1 50.318 0z" fill="none" stroke="#fff" stroke-linejoin="round" stroke-width="4"/><g fill="#fff"><path d="m28.032 45.03q0-1.905 1.02-2.88 1.02-.975 2.97-.975 1.883 0 2.903.998 1.043.998 1.043 2.858 0 1.792-1.043 2.835-1.043 1.02-2.903 1.02-1.905 0-2.95-.998-1.043-1.02-1.043-2.858z"/><path d="m34.815 37.274h-5.535l-1.157-22.16h7.848z"/></g></svg>