<svg height="64" viewBox="0 0 64 64" width="64" xmlns="http://www.w3.org/2000/svg" xmlns:xlink="http://www.w3.org/1999/xlink"><linearGradient id="a" gradientUnits="userSpaceOnUse" x1="26.875" x2="26.875" y1="17.179" y2="50.588"><stop offset="0" stop-color="#59f"/><stop offset="1" stop-color="#2a7fff"/></linearGradient><g stroke-linecap="round" stroke-linejoin="round"><path d="m60.811 32.001a28.81 28.81 0 0 1 -28.81 28.81 28.81 28.81 0 0 1 -28.811-28.81 28.81 28.81 0 0 1 28.811-28.811 28.81 28.81 0 0 1 28.81 28.811z" fill="url(#a)" stroke="#87aade" stroke-width="4"/><path d="m56.843 31.685a25.159 25.159 0 0 1 -25.158 25.158 25.159 25.159 0 0 1 -25.159-25.158 25.159 25.159 0 0 1 25.159-25.159 25.159 25.159 0 0 1 25.158 25.159z" fill="none" stroke="#fff" stroke-width="4"/><path d="m28.235 17.733q0-3.38 3.765-3.38 3.765 0 3.765 3.38 0 1.61-.953 2.518-.929.884-2.812.884-3.765 0-3.765-3.402zm7.213 31.914h-6.918v-25.359h6.918z" fill="#fff" stroke-width="2"/></g></svg>