<svg height="64" viewBox="0 0 64 64" width="64" xmlns="http://www.w3.org/2000/svg" xmlns:xlink="http://www.w3.org/1999/xlink"><linearGradient id="a" gradientUnits="userSpaceOnUse" x1="26.874" x2="26.874" y1="9.783" y2="50.587"><stop offset="0" stop-color="#f00"/><stop offset="1" stop-color="#a00"/></linearGradient><g stroke-linecap="round" stroke-linejoin="round"><path d="m60.81 32a28.81 28.81 0 0 1 -28.81 28.81 28.81 28.81 0 0 1 -28.81-28.81 28.81 28.81 0 0 1 28.81-28.81 28.81 28.81 0 0 1 28.81 28.81z" fill="url(#a)" stroke="#c83737" stroke-width="4"/><path d="m57.159 32a25.159 25.159 0 0 1 -25.159 25.159 25.159 25.159 0 0 1 -25.159-25.159 25.159 25.159 0 0 1 25.159-25.159 25.159 25.159 0 0 1 25.159 25.159z" fill="none" stroke="#fff" stroke-width="4"/><path d="m34.813 37.274h-5.535l-1.157-22.161h7.848zm-6.782 7.757q0-1.905 1.021-2.881 1.021-.975 2.971-.975 1.883 0 2.903.998 1.043.998 1.043 2.858 0 1.792-1.043 2.835-1.043 1.021-2.903 1.021-1.905 0-2.949-.998-1.043-1.021-1.043-2.858z" fill="#fff" stroke-width="2"/></g></svg>