<svg xmlns="http://www.w3.org/2000/svg" xmlns:xlink="http://www.w3.org/1999/xlink" viewBox="0 0 64 64"><defs><path id="b" d="M22.95 16.7a2.38 2.38 0 01-.77-.52c-.21-.22-.38-.48-.5-.77a2.37 2.37 0 01-.19-.93c0-.33.06-.64.19-.94.12-.28.29-.53.5-.75.22-.23.48-.4.77-.52.3-.13.61-.18.94-.19.33 0 .64.06.94.19a2.35 2.35 0 01.77.52c.21.22.38.47.5.75.13.3.19.61.19.94a2.37 2.37 0 01-.19.93 2.45 2.45 0 01-.5.76 2.33 2.33 0 01-.77.53c-.3.13-.61.19-.94.19a2.41 2.41 0 01-.94-.19z"/><path id="c" d="M18.36 31.46v-1.79c0-.39.32-.71.71-.71h3.35v-7.38h-2.94c-.39 0-.71-.32-.71-.71V19.1c0-.39.32-.71.71-.71h5.83c.39 0 .71.32.71.71v9.87h2.97c.39 0 .71.32.71.71v1.79c0 .39-.32.71-.71.71h-9.92c-.39 0-.71-.32-.71-.71z"/><linearGradient id="a" x1="34.5" x2="34.5" y1="13.27" y2="34.94" gradientUnits="userSpaceOnUse"><stop offset="0" stop-color="#5eace8"/><stop offset="1" stop-color="#5796e8"/></linearGradient></defs><path fill="url(#a)" stroke="#3a4389" stroke-width="1.8" d="M22.83 1.05L1.05 22.83a1.65 1.65 0 000 2.33l21.79 21.79a1.65 1.65 0 002.33 0l21.78-21.78a1.65 1.65 0 000-2.33L25.17 1.05a1.65 1.65 0 00-2.33 0z" transform="matrix(1.28 0 0 1.28 1.463 1.466)"/><g fill="#fff" transform="matrix(1.33 0 0 1.33 .04 1)"><g stroke="#3c62a1" stroke-linejoin="round" stroke-width="2.4" opacity=".4"><use xlink:href="#b"/><use xlink:href="#c"/></g><use xlink:href="#b"/><use xlink:href="#c"/></g><path fill="none" stroke="#fff" stroke-linejoin="round" stroke-width="2.66" d="M31.96 4.365L4.362 31.962 31.96 59.573l27.61-27.61z"/></svg>