<svg xmlns="http://www.w3.org/2000/svg" height="64" width="64"><linearGradient id="A" gradientUnits="userSpaceOnUse" x1="26.874" x2="26.874" y1="9.783" y2="50.587"><stop offset="0" stop-color="red"/><stop offset="1" stop-color="#a00"/></linearGradient><g stroke-width="4" stroke-linejoin="round"><path d="M60.8 32a28.81 28.81 0 1 1-57.62 0 28.81 28.81 0 1 1 57.62 0z" fill="url(#A)" stroke="#c83737"/><path d="M57.16 32a25.159 25.159 0 1 1-50.318 0 25.159 25.159 0 1 1 50.318 0z" fill="none" stroke="#fff"/></g><path d="M34.813 37.274h-5.535l-1.157-22.16h7.848zM28.03 45.03q0-1.905 1.02-2.88 1.02-.975 2.97-.975 1.883 0 2.903.998 1.043.998 1.043 2.858 0 1.792-1.043 2.835-1.043 1.02-2.903 1.02-1.905 0-2.95-.998-1.043-1.02-1.043-2.858z" fill="#fff"/></svg>