<svg height="64" viewBox="0 0 64 64" width="64" xmlns="http://www.w3.org/2000/svg" xmlns:xlink="http://www.w3.org/1999/xlink"><linearGradient id="a" gradientUnits="userSpaceOnUse" x1="179.5493" x2="179.5493" y1="112.3621" y2="145.7708"><stop offset="0" stop-color="#59f"/><stop offset="1" stop-color="#2a7fff"/></linearGradient><g stroke-linecap="round" stroke-linejoin="round" transform="translate(-152.99 -95.499)"><path d="m213.4849 127.1836a28.8103 28.8103 0 01-28.8102 28.8103 28.8103 28.8103 0 01-28.8103-28.8103 28.8103 28.8103 0 0128.8103-28.8103 28.8103 28.8103 0 0128.8102 28.8103z" fill="url(#a)" stroke="#87aade" stroke-width="4"/><path d="m209.8333 127.1836a25.1587 25.1587 0 01-25.1587 25.1587 25.1587 25.1587 0 01-25.1587-25.1587 25.1587 25.1587 0 0125.1587-25.1587 25.1587 25.1587 0 0125.1587 25.1587z" fill="none" stroke="#fff" stroke-width="4"/><text fill="#fff" font-family="sans-serif" font-size="46.4541" stroke-width="2" x="178.0513" y="143.4584"><tspan style="font-weight:bold;font-family:Open Sans;fill:#fff;stroke-width:2;stroke-linecap:round;stroke-linejoin:round" x="178.0513" y="143.4584">!</tspan></text></g></svg>