<svg xmlns="http://www.w3.org/2000/svg" viewBox="0 0 298.09 264.13"><radialGradient id="a" cx="325.931" cy="486.079" r="149.047" gradientTransform="matrix(2.27473 0 0 1.3339 -415.476 -170.743)" gradientUnits="userSpaceOnUse"><stop offset="0" stop-color="#ff171a"/><stop offset="1" stop-color="red"/></radialGradient><path fill="url(#a)" d="M326.14 379.3c-5.422.05-10.738 3.08-15.906 9.47l-133.22 228.56c-1.017 19.52 6.662 23.412 15 26.094l268.22-.72c17.814-7.266 14.78-16.62 14.28-25.72l-131.78-229.28c-5.644-5.512-11.172-8.455-16.594-8.406z" transform="translate(-176.92 -379.31)"/><path fill="#fff" d="M149.064 34.97l118.2 202.53-235.38-.5z"/><path d="M129.4 97.2c-3.32-.053-6.498 1.376-9.5 4.5-4.665 5.18-3.595 10.89-.687 16.78 5.36 4.173 10.6 5.88 15.688 2.875l1.094 2.844c-3.036 2.222-5.893 5.067-8.22 9.656.64 7.787 1.426 15.525 3.938 22.844-2.658 3.318-4.625 6.925-6.094 10.72-1.508 4.226-2.283 8.46-2.125 12.688l-11.875 7.406c.25-1.97-.072-2.634-1.72-3.656-2.026-2.49-4.658-2.5-7.125-3.22.413-2.62-2.324-5.256-4.656-7.875-1.537-.7-3.106-1.28-5.344-.344-2.823-2.245-6.362-2.387-10.375-1.062l-31.406 57.125 72.5-.344c-.447-12.367-3.23-24.397-10.094-35.812l10.094-5.97 8.906.344 2.5-7.5 11.438-6.062-3.562 8.22-1.062 40.344c-8.65 1.623-12.067 3.97-12.156 6.78h24.656l7.656-34.562-2.03-.25.438-5.187c5.538-5.2 9.288-12.724 13.22-20-.426 8.87 3.04 16.163 7.125 23.562 8.195 9.404 17.95 17.635 28.03 25.625-.612 4.722-4.845 7.8-7.844 11.438l9.72-.25 4.375-3.22 10-17.5-5.687-1.437-20.812-23.562-1 2.125c-4.86-3.494-4.94-8.814-5.687-13.906.675-8.897-2.66-15.594-6.187-22.156l2.594-2.156c.312 1.416.897 1.54 1.438 1.813 3.748-1.128 6.264-3.4 7.156-7.156-.68-1.87-1.745-3.482-4.312-3.937l-1.406-8.22c-5.548-23.043-12.004-20.48-18.22-24.625-10.544 1.343-21.274 2.2-29.28 10-.976-.096-2.076-.07-1.437-1.78.575-7.437-1.962-10.452-4.656-13.22-2.752-1.736-5.418-2.678-8-2.72zm43.97 21.375c5.597-.188 8.566 7.183 12.28 23.5l-2.5 2.28-15.156-23.875c2.052-1.207 3.808-1.854 5.375-1.906zm-31 25.656c2.35 1.293 4.532 2.315 11.47 12.125l-2.906 7.063-17.78 11.094c.94-6.02 5.227-9.497 8.688-13.625 1.233-5.378 1.317-10.94.53-16.656z"/></svg>