<svg xmlns="http://www.w3.org/2000/svg" viewBox="0 0 298.1 264.1"><radialGradient id="a" cx="325.9" cy="486.1" r="149" gradientTransform="matrix(2.27473 0 0 1.3339 -415.5 -170.7)" gradientUnits="userSpaceOnUse"><stop offset="0" stop-color="#ff171a"/><stop offset="1" stop-color="red"/></radialGradient><path fill="url(#a)" d="M326.1 379.3c-5.4 0-10.7 3-15.9 9.5L177 617.3c-1 19.6 6.7 23.4 15 26.1l268.2-.7c17.8-7.3 14.8-16.6 14.3-25.7L342.7 387.7c-5.6-5.5-11.1-8.5-16.6-8.4z" transform="translate(-177 -379.3)"/><path fill="#fff" d="M149 35l118.3 202.5-235.4-.5z"/><path d="M129.4 97.2c-3.3 0-6.5 1.4-9.5 4.5-4.7 5.2-3.6 10.9-.7 16.8 5.4 4.2 10.6 5.9 15.7 2.9l1.1 2.8a26 26 0 00-8.2 9.7c.6 7.7 1.4 15.5 4 22.8-2.7 3.3-4.7 7-6.2 10.7a33.9 33.9 0 00-2.1 12.7l-11.9 7.4c.3-2 0-2.6-1.7-3.6-2-2.5-4.7-2.5-7.1-3.3.4-2.6-2.3-5.2-4.7-7.8-1.5-.7-3-1.3-5.3-.4-2.8-2.2-6.4-2.4-10.4-1l-31.4 57 72.5-.3a72.9 72.9 0 00-10.1-35.8l10-6 9 .4 2.5-7.5 11.4-6-3.5 8.2-1 40.3c-8.7 1.6-12.2 4-12.2 6.8h24.6l7.7-34.6-2-.2.4-5.2c5.5-5.2 9.3-12.7 13.2-20-.4 8.9 3 16.1 7.1 23.5a208 208 0 0028 25.7c-.6 4.7-4.8 7.8-7.8 11.4l9.7-.2 4.4-3.3 10-17.5-5.7-1.4-20.8-23.6-1 2.2c-4.9-3.5-5-8.9-5.7-14 .7-8.8-2.6-15.5-6.2-22.1l2.6-2.2c.3 1.5 1 1.6 1.5 1.9 3.7-1.2 6.2-3.4 7.1-7.2-.7-1.9-1.7-3.5-4.3-4l-1.4-8.2c-5.5-23-12-20.4-18.2-24.6-10.6 1.4-21.3 2.2-29.3 10-1 0-2 0-1.4-1.8.5-7.4-2-10.4-4.7-13.2a15.6 15.6 0 00-8-2.7zm44 21.4c5.6-.2 8.5 7.2 12.2 23.5l-2.4 2.3-15.2-24c2-1.1 3.8-1.8 5.4-1.8zm-31 25.6c2.3 1.3 4.5 2.3 11.4 12.2l-2.9 7-17.7 11.1c.9-6 5.2-9.5 8.6-13.6a46 46 0 00.6-16.7z"/></svg>