<svg viewBox="0 0 64 64" xmlns="http://www.w3.org/2000/svg"><path d="m4.99 19.74c0-8.13 6.6-14.73 14.73-14.73 8.14 0 14.73 6.59 14.73 14.73 0 8.13-6.6 14.73-14.73 14.73-8.14 0-14.73-6.6-14.73-14.73zm14.08-6.98c-1.75-1.75-4.59-1.75-6.33 0-1.75 1.75-1.75 4.58 0 6.33s4.59 1.75 6.33 0c1.75-1.75 1.75-4.59 0-6.33z" fill="#ddb74b"/><path d="m7.3 7.07c-6.91 6.78-7.09 17.98-.38 24.95 5.51 5.73 13.91 6.95 20.64 3.64l2.19 2.19-.03.03a2.31 2.31 0 0 0 0 3.28c.45.45 1.05.68 1.64.68a2.31 2.31 0 0 0 1.64-.68l.03-.03 20.87 20.87 3.62-.48 2.34-.31.13-.43 2.01-6.87-1.17-3.52-3.52-1.17-1.17-3.52-3.52-1.17-1.17-3.52-3.52-1.17-1.17-3.52-3.52-1.17-2.11-2.11.03-.03c.91-.91.91-2.38 0-3.28-.45-.45-1.05-.68-1.64-.68s-1.19.23-1.64.68l-.03.03-2.19-2.19c3.25-6.62 2.13-14.86-3.39-20.38-6.89-6.88-18.03-6.92-24.97-.12zm25.69 12.67a13.27 13.27 0 1 1 -26.54 0 13.27 13.27 0 1 1 26.54 0z" fill="#f7cf52"/><path d="m59.81 60.79-.12.42-2.33.31-27.64-27.63 1.59-1.59z" fill="#ddb74b"/></svg>