<svg height="64" width="64" xmlns="http://www.w3.org/2000/svg" xmlns:xlink="http://www.w3.org/1999/xlink"><defs><path id="a" d="m43.845 16.017a.91.91 0 01-.91-.91c0-3.943-2.277-8.187-7.277-8.187s-7.277 4.244-7.277 8.187a.91.91 0 01-.91.91.91.91 0 01-.91-.91c0-4.972 3.125-10.006 9.097-10.006s9.097 5.034 9.097 10.006a.91.91 0 01-.91.91"/><linearGradient id="b" gradientUnits="userSpaceOnUse"><stop offset="0" stop-color="#f7ed96"/><stop offset="1" stop-color="#f7cf15"/></linearGradient><linearGradient id="c" x1="25.801" x2="25.801" xlink:href="#b" y1="27.133" y2="114.194"/><linearGradient id="d" x1="34.519" x2="-25.309" xlink:href="#b" y1="9.325" y2="53.787"/></defs><path d="m24.986 29.896-.225 26.64c-.5.2-1.345-.588-1.478-1.052l.215-25.6zm-5.665-17.5c3.352-3.5 9.566-3.278 12.673.433 3.31 3.527 2.782 9.717-1.08 12.63-3.69 3.125-9.842 2.286-12.56-1.718-2.516-3.367-2.088-8.453.966-11.346zm8.815 3.053c.13-2.156-2.724-3.533-4.33-2.087-1.738 1.265-1.004 4.32 1.115 4.664 1.6.384 3.244-.94 3.215-2.577zm-2.47-8.51c-5.87-.23-11.35 4.617-11.846 10.47-.636 5.235 2.75 10.61 7.768 12.266-.024.67.024 1.414-.043 2.042-2.335.096-1.513 3.088-.002 3.295l-.162 19.22 3.126 2.43 4.415-2.368c.32-.76.917-1.52 1.06-2.282-.288-.73-.856-1.464-.97-2.194.3-.726.88-1.45 1.006-2.178-.288-.73-.856-1.465-.97-2.194.3-.726.88-1.45 1.007-2.177-.288-.73-.856-1.465-.97-2.195.3-.726.88-1.45 1.007-2.177-.43-1.027-1.243-1.967-1.014-3.144-.467-1.492 2.415-1.16 1.46-3.027-.726-.922-1.862-.894-1.416-2.352.422-1.667 3.614-1.657 4.562-3.436 4.23-3.995 4.614-11.188.883-15.632a11.7 11.7 0 00-8.902-4.367zm5.916 17.927c-3.353 3.5-9.566 3.28-12.673-.432-3.31-3.527-2.782-9.718 1.08-12.632 3.69-3.125 9.842-2.285 12.558 1.72 2.516 3.367 2.088 8.452-.966 11.345z" fill="#ddb74b" stroke="#666" stroke-width="3.8"/><path d="m33.338 20.652c-7.576-.14-13.925 5.91-14.14 13.486-.176 6.226 3.753 11.574 9.294 13.513l-.02 2.425h-.03c-1.003-.01-1.824.797-1.832 1.8-.004.5.196.96.52 1.29s.78.54 1.28.544h.03l-.197 23.104 3.713 2.888.302-.162 4.94-2.65 1.32-2.585-1.276-2.606 1.32-2.585-1.275-2.607 1.32-2.584-1.276-2.608 1.32-2.584-1.276-2.606.02-2.337h.03a1.82 1.82 0 001.833-1.802 1.81 1.81 0 00-.522-1.29c-.325-.33-.78-.54-1.28-.543h-.03l.02-2.425c5.49-1.816 9.47-6.967 9.523-13.07.065-7.624-6.027-13.865-13.633-14.004zm7.024 21.29a10.39 10.39 0 01-14.686-.124 10.39 10.39 0 01.126-14.686c4.09-4.02 10.664-3.965 14.685.125s3.965 10.664-.125 14.685z" fill="url(#c)" transform="matrix(.8417 0 0 .8417 -2.4181 -10.4087)"/><path d="m19.3 12.43c3.442-3.384 8.976-3.337 12.36.105s3.337 8.976-.105 12.36-8.977 3.338-12.36-.104-3.336-8.977.106-12.36zm8.81 3.052a2.66 2.66 0 00-2.634-2.679 2.66 2.66 0 00-2.68 2.634 2.66 2.66 0 002.634 2.679 2.66 2.66 0 002.68-2.634z" fill="#ffe680" stroke="#ecb32e" stroke-width="1.683"/><path d="m23.266 55.73.217-25.834 1.488.013-.225 26.64-.254.136z" fill="#ecb32e"/><path d="m62.134 24.434-14.28-14.28a6.38 6.38 0 00-9.019 0l-3.772 3.772c.828 1.604 1.303 3.42 1.303 5.35a11.63 11.63 0 01-1.236 5.213l13.476 13.476a6.38 6.38 0 009.019 0l4.5-4.5a6.38 6.38 0 000-9.019" fill="#25b99a"/><path d="m46.995 15.023a3.19 3.19 0 01-3.189 3.189 3.19 3.19 0 01-3.189-3.189 3.19 3.19 0 013.189-3.189 3.19 3.19 0 013.189 3.189" fill="#198d71"/><path d="m59.127 30.446-4.5 4.5c-.83.83-2.176.83-3.006 0l-7.516-7.516c-.83-.83-.83-2.177 0-3.007l4.51-4.51c.83-.83 2.177-.83 3.007 0l7.516 7.516c.83.83.83 2.176 0 3.006" fill="#fff"/><path d="m53.866 30.758a1.06 1.06 0 01-.751-.312l-4.51-4.5a1.06 1.06 0 111.503-1.503l4.51 4.5a1.06 1.06 0 01-.751 1.815" fill="#25b99a"/><g transform="matrix(.9341 -.3065 .3065 .9341 -11.0432 11.9045)"><path d="m670.188 325.188-189.98 189.97c-4.928-2.032-5.514-13.732-3.2-18.02l182.56-182.56zm82.93-165.82c48.784-1.39 91.964 44.066 88.065 92.718-1.13 48.772-48.702 89.546-97.08 83.187-48.634-3.628-86.936-53.16-78.158-101.154 5.715-42.004 44.756-75.543 87.174-74.75zm41.8 84.28c16.167-14.59 5.397-44.67-16.38-45.622-21.44-3.19-37.765 23.958-24.958 41.422 8.718 14.004 29.98 16.167 41.34 4.2zm42.42-78.66c-40.584-43.16-114.254-47.044-159.206-8.49-41.594 33.146-55.24 95.733-30.874 143.13-4.918 4.656-9.823 10.337-14.75 14.38-17.473-15.818-32.712 11.51-23.31 23.68l-137.07 137.06 5.3 39.6 48.5 14.2c7.67-3.22 17.338-4.444 23.763-8.91 3.096-7.294 4.195-16.584 8.537-22.633 7.295-3.1 16.584-4.203 22.633-8.547 3.1-7.295 4.203-16.584 8.547-22.633 7.294-3.096 16.584-4.195 22.633-8.537 3.098-7.298 4.203-16.6 8.547-22.643 7.294-3.096 16.585-4.195 22.633-8.537 4.158-10.432 4.97-22.932 14.934-29.777 7.19-14.034 25.567 8.73 31.91-11.44 1.3-11.764-7.068-19.6 6.454-26.926 14.82-9 37.707 13.636 57.095 7.548 58.668 1.18 112.286-47.82 116.876-106.162 3.607-34.35-8.77-69.826-33.134-94.343zm-84.22 170.74c-48.784 1.4-91.973-44.063-88.075-92.718 1.133-48.774 48.71-89.545 97.09-83.187 48.634 3.627 86.925 53.162 78.148 101.154-5.712 42.002-44.747 75.544-87.164 74.75z" fill="#ddb74b" stroke="#4d4d4d" stroke-width="29.763" transform="matrix(.0996 .0155 -.0155 .0996 -38.024 -18.2579)"/><path d="m42.822 11.192c-3.774-5.276-11.173-6.55-16.488-2.83-4.368 3.058-6.037 8.5-4.54 13.287l-1.677 1.224-.016-.02c-.506-.694-1.48-.846-2.174-.34-.346.253-.56.624-.62 1.017s.028.8.28 1.158l.015.02-15.974 11.664-.088 4.026.265.125 4.345 2.042 2.45-.413 1.14-2.208 2.45-.414 1.14-2.208 2.45-.413 1.14-2.21 2.45-.413 1.14-2.208 1.616-1.18.015.02a1.56 1.56 0 002.175.339 1.55 1.55 0 00.62-1.017c.06-.392-.028-.8-.28-1.157l-.015-.02 1.677-1.224c4.05 2.844 9.623 2.95 13.845-.132 5.272-3.85 6.45-11.222 2.66-16.52zm-11.042 15.698c-4.85-.757-8.17-5.303-7.414-10.155s5.304-8.17 10.156-7.413 8.17 5.303 7.413 10.155-5.303 8.17-10.154 7.413z" fill="url(#d)"/><g stroke="#ecb32e" stroke-width="1.712"><path d="m34.52 9.323c4.85.757 8.17 5.303 7.413 10.155s-5.303 8.17-10.154 7.413-8.17-5.303-7.414-10.155 5.304-8.17 10.156-7.413z" fill="#ffe680"/><path d="m37.374 18.368c1.203-.878 1.468-2.572.59-3.775s-2.572-1.47-3.776-.59-1.468 2.572-.59 3.775 2.573 1.47 3.776.59z" fill="#fc0"/></g><path d="m23.687 24.54-21.867 15.977-.265-.125.035-1.58 21.205-15.492z" fill="#ecb32e"/></g><use fill="#b3b3b3" stroke="#666" stroke-width="3" xlink:href="#a"/><use fill="#f2f2f2" stroke="#f2f2f2" stroke-width="1.2" xlink:href="#a"/></svg>