<svg height="64" width="64" xmlns="http://www.w3.org/2000/svg" xmlns:xlink="http://www.w3.org/1999/xlink"><defs><path id="a" d="m43.845 16.017a.91.91 0 01-.91-.91c0-3.943-2.277-8.187-7.277-8.187s-7.277 4.244-7.277 8.187a.91.91 0 01-.91.91.91.91 0 01-.91-.91c0-4.972 3.125-10.006 9.097-10.006s9.097 5.034 9.097 10.006a.91.91 0 01-.91.91"/><linearGradient id="b" gradientUnits="userSpaceOnUse"><stop offset="0" stop-color="#f7ed96"/><stop offset="1" stop-color="#f7cf15"/></linearGradient><linearGradient id="c" x1="19.8254" x2="19.8254" xlink:href="#b" y1="10.5308" y2="83.8101"/><linearGradient id="d" gradientTransform="matrix(1.0087 -.4071 .4071 1.0087 -67.6793 27.3375)" x1="34.519" x2="-25.309" xlink:href="#b" y1="9.325" y2="53.787"/><linearGradient id="e" gradientTransform="matrix(1.0202 -.5266 .5266 1.0202 -19.2794 16.9992)" x1="34.519" x2="-25.309" xlink:href="#b" y1="9.325" y2="53.787"/></defs><g stroke-linecap="round" stroke-linejoin="round"><g stroke-width="1.1679"><path d="m62.9762 30.7826-12.013-20.2961a7.4509 7.4509 0 00-10.2029-2.6157l-5.3611 3.1732c.4715 2.0547.4822 4.2468-.0776 6.4302a13.5822 13.5822 0 01-2.9101 5.5388l11.3366 19.1534a7.4509 7.4509 0 0010.2029 2.6157l6.3958-3.7856a7.4509 7.4509 0 002.6157-10.2029" fill="#25b99a"/><path d="m48.5794 15.7456a3.7255 3.7255 0 01-4.5325 2.6827 3.7255 3.7255 0 01-2.6827-4.5325 3.7255 3.7255 0 014.5325-2.6827 3.7255 3.7255 0 012.6827 4.5325" fill="#198d71"/><path d="m57.8309 36.7117-6.3958 3.7856c-1.1797.6982-2.7024.3079-3.4006-.8718l-6.3228-10.6824c-.6982-1.1797-.3076-2.7035.8721-3.4017l6.41-3.794c1.1797-.6982 2.7035-.3076 3.4017.8721l6.3228 10.6824c.6982 1.1797.3079 2.7024-.8718 3.4006" fill="#fff"/><path d="m51.7888 35.5388a1.2379 1.2379 0 01-.7591-.5708l-3.7969-6.3987a1.2412 1.2412 0 112.1362-1.2644l3.7969 6.3987a1.2379 1.2379 0 01-1.376 1.8354" fill="#25b99a"/></g><g transform="matrix(1.1679 0 0 1.1679 -6.2743 -2.8817)"><path d="m22.1356 27.8971-.043 2.043c-2.335.096-1.5129 3.0879-.002 3.2949l-.1621 19.2207 3.127 2.4297 4.4141-2.3691 1.0605-2.2813-.9707-2.1934 1.0078-2.1797-.9707-2.1934 1.0078-2.1777-.9707-2.1934 1.0059-2.1777-1.0137-2.7445.0098-1.5055c.8303-.0988 1.448-.6982 1.4492-1.4063-.0006-.7008-.6057-1.2967-1.4258-1.4043l.0117-1.4629z" stroke="#808080" stroke-width="2.5"/><path d="m22.0887 28.1374-.0156 1.7051h-.0254c-.8442-.0084-1.5343.6694-1.541 1.5137-.0034.4209.1648.8082.4375 1.0859.2727.2778.6573.4556 1.0781.459h.0234l-.1641 19.4473 3.125 2.4297.2539-.1367 4.1582-2.2305 1.1113-2.1758-1.0742-2.1934 1.1113-2.1758-1.0742-2.1934 1.1113-2.1758-1.0742-2.1953 1.1113-2.1738-1.0742-2.1934.0176-1.9688h.0254a1.5319 1.5319 0 001.541-1.5156 1.5235 1.5235 0 00-.4375-1.0859c-.2736-.2778-.6573-.4545-1.0781-.457h-.0254l.0098-1.1387z" fill="url(#c)" stroke-width=".8417"/><path d="m23.7807 53.823.217-25.834 1.488.013-.225 26.64-.254.136z" fill="#ecb32e"/></g><path d="m30.3028 5.8685c-6.6286-3.3954-14.8483-.7991-18.312 5.795-2.8461 5.42-1.6832 11.851 2.3648 15.9466l-1.0664 2.1318-.0269-.012c-.8817-.4416-1.9554-.0838-2.397.7979-.2198.4403-.2427.9315-.097 1.3641s.4498.8014.8954 1.034l.0258.0125-10.1553 20.3116 2.0302 4.1538.3362-.012 5.5082-.2047 2.2821-1.7115.0004-2.853 2.2816-1.7125.0004-2.853 2.2821-1.7115-.0007-2.855 2.2821-1.7115.0004-2.853 1.0273-2.0548.0258.0125a1.7911 1.7911 0 002.3975-.7994 1.7796 1.7796 0 00.097-1.3641c-.145-.4314-.4496-.8013-.8947-1.0328l-.0258-.0125 1.0664-2.1318c5.6296.7689 11.3712-2.0576 14.0557-7.4252 3.3514-6.704.6713-14.8456-5.9852-18.2551zm-2.9993 21.8303c-5.3468 1.7816-11.1278-1.1082-12.9115-6.4565s1.1092-11.1283 6.458-12.911c5.3488-1.7826 11.1278 1.1082 12.9104 6.457s-1.1082 11.1278-6.456 12.9099z" fill="url(#e)" stroke="#4d4d4d" stroke-width="3.0685"/><g transform="matrix(1.0509 -.0979 .0979 1.0509 49.173 -18.3537)"><path d="m-19.9286 21.1925c-5.9548-3.7853-13.9368-2.058-17.7834 3.8582-3.1609 4.8629-2.6288 11.0317.8301 15.2508l-1.1932 1.9174-.0243-.0137c-.7929-.494-1.8373-.2508-2.3313.5422-.246.3961-.3108.8574-.2113 1.2783.0995.4208.3539.7956.7539 1.0541l.0233.0141-11.364 18.2689 1.5504 4.0968.3182.0182 5.2141.2907 2.3031-1.4141.251-2.6913 2.3027-1.4151.251-2.6913 2.3031-1.4141.2501-2.6933 2.3031-1.4141.251-2.6913 1.1496-1.8482.0233.0141a1.6969 1.6969 0 002.3319-.5436 1.686 1.686 0 00.2113-1.2783c-.0991-.4198-.3539-.7956-.7535-1.0531l-.0233-.0141 1.1932-1.9174c5.2431 1.2198 10.9077-.9422 13.9116-5.7699 3.7503-6.0299 1.9372-13.9455-4.0427-17.7465zm-4.7468 20.3299c-5.2003 1.211-10.4-2.0228-11.6128-7.2247s2.0238-10.4004 7.2262-11.6122 10.4 2.0228 11.6118 7.2251c1.2118 5.2024-2.0228 10.4-7.2241 11.6114z" fill="url(#d)" stroke-width="1.0878"/><path d="m-29.0637 22.6872c5.2003-1.211 10.4 2.0228 11.6118 7.2251 1.2118 5.2024-2.0228 10.4-7.2241 11.6114s-10.4-2.0228-11.6128-7.2247 2.0238-10.4004 7.2262-11.6122z" fill="#ffe680" stroke="#ecb32e" stroke-width="1.8622"/><g fill="#ecb32e"><path d="m-22.5024 30.6489c.856-1.3754.4336-3.192-.9418-4.048s-3.1928-.4356-4.049.9422-.4336 3.192.9418 4.048 3.1938.4352 4.049-.9422z" stroke="#ecb32e" stroke-width="1.8622"/><path d="m-33.7955 42.4469-15.5522 25.0186-.3182-.0182-.608-1.608 15.0819-24.2598z" stroke-width="1.0878"/></g></g><g transform="matrix(1.1679 0 0 1.1679 -6.2743 -2.8817)"><use fill="#b3b3b3" height="100%" stroke="#666" stroke-width="3" width="100%" xlink:href="#a"/><use fill="#f2f2f2" height="100%" stroke="#f2f2f2" stroke-width="1.2" width="100%" xlink:href="#a"/></g></g></svg>