<svg xmlns="http://www.w3.org/2000/svg" xmlns:xlink="http://www.w3.org/1999/xlink" viewBox="0 0 64 64"><defs/><defs><linearGradient id="a" gradientUnits="userSpaceOnUse"><stop offset="0" stop-color="#f7ed96"/><stop offset="1" stop-color="#f7cf15"/></linearGradient><linearGradient id="b" x1="19.825" x2="19.825" y1="10.531" y2="83.81" xlink:href="#a"/><linearGradient id="d" x1="34.519" x2="-25.309" y1="9.325" y2="53.787" gradientTransform="rotate(-21.97 36.585 188.022) scale(1.088)" xlink:href="#a"/><linearGradient id="c" x1="34.519" x2="-25.309" y1="9.325" y2="53.787" gradientTransform="rotate(-27.31 25.335 48.15) scale(1.148)" xlink:href="#a"/><path id="e" d="M43.845 16.017a.91.91 0 01-.91-.91c0-3.943-2.277-8.187-7.277-8.187s-7.277 4.244-7.277 8.187a.91.91 0 01-.91.91.91.91 0 01-.91-.91c0-4.972 3.125-10.006 9.097-10.006s9.097 5.034 9.097 10.006a.91.91 0 01-.91.91"/></defs><g stroke-linecap="round" stroke-linejoin="round"><g stroke-width="1.168"><path fill="#25b99a" d="M62.976 30.783L50.963 10.487A7.451 7.451 0 0040.76 7.871l-5.361 3.173a13.567 13.567 0 01-.078 6.43 13.582 13.582 0 01-2.91 5.539l11.337 19.153a7.451 7.451 0 0010.203 2.616l6.396-3.786a7.451 7.451 0 002.616-10.203"/><path fill="#198d71" d="M48.579 15.746a3.726 3.726 0 01-4.533 2.683 3.726 3.726 0 01-2.683-4.533 3.726 3.726 0 014.533-2.683 3.726 3.726 0 012.683 4.533"/><path fill="#fff" d="M57.831 36.712l-6.396 3.786a2.483 2.483 0 01-3.401-.872l-6.323-10.682a2.484 2.484 0 01.872-3.402l6.41-3.794a2.484 2.484 0 013.402.872l6.323 10.682a2.483 2.483 0 01-.872 3.401"/><path fill="#25b99a" d="M51.789 35.539a1.238 1.238 0 01-.759-.571l-3.797-6.399a1.241 1.241 0 112.136-1.264l3.797 6.399a1.238 1.238 0 01-1.376 1.835"/></g><path stroke="gray" stroke-width="2.92" d="M19.58 29.702l-.05 2.386c-2.727.112-1.767 3.607-.002 3.848l-.189 22.45 3.652 2.839 5.156-2.767 1.24-2.664-1.135-2.562 1.177-2.546-1.134-2.561 1.178-2.544-1.134-2.562 1.175-2.544-1.185-3.206.012-1.759c.97-.115 1.691-.815 1.692-1.642 0-.819-.708-1.515-1.665-1.64l.014-1.709z"/><path fill="url(#b)" d="M22.089 28.137l-.016 1.705h-.025a1.526 1.526 0 00-1.541 1.514 1.535 1.535 0 001.516 1.545h.023l-.164 19.447 3.125 2.43.254-.137 4.158-2.231 1.111-2.176-1.074-2.193 1.111-2.176-1.074-2.193 1.111-2.176-1.074-2.195 1.111-2.174-1.074-2.193.018-1.969h.025a1.532 1.532 0 001.541-1.516 1.524 1.524 0 00-.438-1.086 1.525 1.525 0 00-1.078-.457h-.025l.01-1.139z" transform="translate(-6.274 -2.882) scale(1.168)"/><path fill="#ecb32e" d="M21.502 59.983l.254-30.174 1.738.015-.263 31.116-.297.159z"/><path fill="url(#c)" stroke="#4d4d4d" stroke-width="3.069" d="M30.303 5.869c-6.629-3.395-14.848-.799-18.312 5.795-2.846 5.42-1.683 11.851 2.365 15.947l-1.066 2.132-.027-.012a1.786 1.786 0 10-1.599 3.196l.026.013L1.535 53.252l2.03 4.154.336-.012 5.508-.205 2.282-1.712v-2.853l2.282-1.713v-2.853l2.282-1.712-.001-2.855 2.282-1.712v-2.853l1.027-2.055.026.013a1.791 1.791 0 002.398-.799 1.78 1.78 0 00.097-1.364 1.81 1.81 0 00-.895-1.033l-.026-.013 1.066-2.132c5.63.769 11.371-2.058 14.056-7.425 3.351-6.704.671-14.846-5.985-18.255zm-2.999 21.83c-5.347 1.782-11.128-1.108-12.912-6.457s1.109-11.128 6.458-12.911 11.128 1.108 12.91 6.457-1.108 11.128-6.456 12.91z"/><g><path fill="url(#d)" d="M-19.929 21.193c-5.955-3.785-13.937-2.058-17.783 3.858-3.161 4.863-2.629 11.032.83 15.251l-1.193 1.917-.024-.014a1.693 1.693 0 00-2.542 1.82c.1.421.354.796.754 1.054l.023.014-11.364 18.269 1.55 4.097.318.018 5.214.291 2.303-1.414.251-2.691 2.303-1.415.251-2.691 2.303-1.414.25-2.693 2.303-1.414.251-2.691 1.15-1.848.023.014a1.697 1.697 0 002.332-.544 1.686 1.686 0 00.211-1.278 1.709 1.709 0 00-.754-1.053l-.023-.014 1.193-1.917c5.243 1.22 10.908-.942 13.912-5.77 3.75-6.03 1.937-13.946-4.043-17.747zm-4.747 20.33c-5.2 1.211-10.4-2.023-11.613-7.225s2.024-10.4 7.226-11.612 10.4 2.023 11.612 7.225-2.023 10.4-7.224 11.611z" transform="matrix(1.051 -.098 .098 1.051 49.173 -18.354)"/><path fill="#ffe680" stroke="#ecb32e" stroke-width="1.9654527200000003" d="M20.85 8.338c5.347-1.782 11.129 1.107 12.912 6.456s-1.107 11.128-6.454 12.91-11.129-1.106-12.914-6.454 1.108-11.13 6.457-12.913z"/><g fill="#ecb32e"><path stroke="#ecb32e" stroke-width="1.9654527200000003" d="M28.527 16.063c.765-1.529.143-3.397-1.387-4.162s-3.398-.145-4.163 1.387-.143 3.397 1.387 4.162 3.4.144 4.163-1.387z"/><path d="M17.813 29.57L3.92 57.389l-.336.012-.797-1.63 13.474-26.976z"/></g></g><g transform="translate(-6.274 -2.882) scale(1.168)"><use width="100%" height="100%" fill="#b3b3b3" stroke="#666" stroke-width="3" xlink:href="#e"/><use width="100%" height="100%" fill="#f2f2f2" stroke="#f2f2f2" stroke-width="1.2" xlink:href="#e"/></g></g></svg>