<svg height="64" width="64" xmlns="http://www.w3.org/2000/svg" xmlns:xlink="http://www.w3.org/1999/xlink"><defs><path id="a" d="m43.845 16.017a.91.91 0 0 1 -.91-.91c0-3.943-2.277-8.187-7.277-8.187s-7.277 4.244-7.277 8.187a.91.91 0 0 1 -.91.91.91.91 0 0 1 -.91-.91c0-4.972 3.125-10.006 9.097-10.006s9.097 5.034 9.097 10.006a.91.91 0 0 1 -.91.91"/><linearGradient id="b" gradientUnits="userSpaceOnUse"><stop offset="0" stop-color="#f7ed96"/><stop offset="1" stop-color="#f7cf15"/></linearGradient><linearGradient id="c" x1="19.825" x2="19.825" xlink:href="#b" y1="10.531" y2="83.81"/><linearGradient id="d" gradientTransform="matrix(1.009 -.407 .407 1.009 -67.679 27.338)" x1="34.519" x2="-25.309" xlink:href="#b" y1="9.325" y2="53.787"/><linearGradient id="e" gradientTransform="matrix(1.02 -.527 .527 1.02 -19.279 16.999)" x1="34.519" x2="-25.309" xlink:href="#b" y1="9.325" y2="53.787"/></defs><g stroke-linecap="round" stroke-linejoin="round"><g stroke-width="1.168"><path d="m62.976 30.783-12.013-20.296a7.451 7.451 0 0 0 -10.203-2.616l-5.361 3.173c.472 2.055.482 4.247-.078 6.43a13.582 13.582 0 0 1 -2.91 5.539l11.337 19.153a7.451 7.451 0 0 0 10.203 2.616l6.396-3.786a7.451 7.451 0 0 0 2.616-10.203" fill="#25b99a"/><path d="m48.579 15.746a3.726 3.726 0 0 1 -4.533 2.683 3.726 3.726 0 0 1 -2.683-4.533 3.726 3.726 0 0 1 4.533-2.683 3.726 3.726 0 0 1 2.683 4.533" fill="#198d71"/><path d="m57.831 36.712-6.396 3.786c-1.18.698-2.702.308-3.401-.872l-6.323-10.682c-.698-1.18-.308-2.704.872-3.402l6.41-3.794c1.18-.698 2.704-.308 3.402.872l6.323 10.682c.698 1.18.308 2.702-.872 3.401" fill="#fff"/><path d="m51.789 35.539a1.238 1.238 0 0 1 -.759-.571l-3.797-6.399a1.241 1.241 0 1 1 2.136-1.264l3.797 6.399a1.238 1.238 0 0 1 -1.376 1.835" fill="#25b99a"/></g><g transform="matrix(1.168 0 0 1.168 -6.274 -2.882)"><path d="m22.136 27.897-.043 2.043c-2.335.096-1.513 3.088-.002 3.295l-.162 19.221 3.127 2.43 4.414-2.369 1.061-2.281-.971-2.193 1.008-2.18-.971-2.193 1.008-2.178-.971-2.193 1.006-2.178-1.014-2.745.01-1.506c.83-.099 1.448-.698 1.449-1.406-.001-.701-.606-1.297-1.426-1.404l.012-1.463z" stroke="#808080" stroke-width="2.5"/><path d="m22.089 28.137-.016 1.705h-.025c-.844-.008-1.534.669-1.541 1.514-.003.421.165.808.438 1.086s.657.456 1.078.459h.023l-.164 19.447 3.125 2.43.254-.137 4.158-2.231 1.111-2.176-1.074-2.193 1.111-2.176-1.074-2.193 1.111-2.176-1.074-2.195 1.111-2.174-1.074-2.193.018-1.969h.025a1.532 1.532 0 0 0 1.541-1.516 1.524 1.524 0 0 0 -.438-1.086c-.274-.278-.657-.455-1.078-.457h-.025l.01-1.139z" fill="url(#c)" stroke-width=".842"/><path d="m23.781 53.823.217-25.834 1.488.013-.225 26.64-.254.136z" fill="#ecb32e"/></g><path d="m30.303 5.869c-6.629-3.395-14.848-.799-18.312 5.795-2.846 5.42-1.683 11.851 2.365 15.947l-1.066 2.132-.027-.012c-.882-.442-1.955-.084-2.397.798-.22.44-.243.932-.097 1.364s.45.801.895 1.034l.026.013-10.155 20.312 2.03 4.154.336-.012 5.508-.205 2.282-1.712v-2.853l2.282-1.713v-2.853l2.282-1.712-.001-2.855 2.282-1.712v-2.853l1.027-2.055.026.013a1.791 1.791 0 0 0 2.398-.799 1.78 1.78 0 0 0 .097-1.364c-.145-.431-.45-.801-.895-1.033l-.026-.013 1.066-2.132c5.63.769 11.371-2.058 14.056-7.425 3.351-6.704.671-14.846-5.985-18.255zm-2.999 21.83c-5.347 1.782-11.128-1.108-12.912-6.457s1.109-11.128 6.458-12.911 11.128 1.108 12.91 6.457-1.108 11.128-6.456 12.91z" fill="url(#e)" stroke="#4d4d4d" stroke-width="3.069"/><g transform="matrix(1.051 -.098 .098 1.051 49.173 -18.354)"><path d="m-19.929 21.193c-5.955-3.785-13.937-2.058-17.783 3.858-3.161 4.863-2.629 11.032.83 15.251l-1.193 1.917-.024-.014c-.793-.494-1.837-.251-2.331.542-.246.396-.311.857-.211 1.278s.354.796.754 1.054l.023.014-11.364 18.269 1.55 4.097.318.018 5.214.291 2.303-1.414.251-2.691 2.303-1.415.251-2.691 2.303-1.414.25-2.693 2.303-1.414.251-2.691 1.15-1.848.023.014a1.697 1.697 0 0 0 2.332-.544 1.686 1.686 0 0 0 .211-1.278c-.099-.42-.354-.796-.754-1.053l-.023-.014 1.193-1.917c5.243 1.22 10.908-.942 13.912-5.77 3.75-6.03 1.937-13.946-4.043-17.747zm-4.747 20.33c-5.2 1.211-10.4-2.023-11.613-7.225s2.024-10.4 7.226-11.612 10.4 2.023 11.612 7.225-2.023 10.4-7.224 11.611z" fill="url(#d)" stroke-width="1.088"/><path d="m-29.064 22.687c5.2-1.211 10.4 2.023 11.612 7.225s-2.023 10.4-7.224 11.611-10.4-2.023-11.613-7.225 2.024-10.4 7.226-11.612z" fill="#ffe680" stroke="#ecb32e" stroke-width="1.862"/><g fill="#ecb32e"><path d="m-22.502 30.649c.856-1.375.434-3.192-.942-4.048s-3.193-.436-4.049.942-.434 3.192.942 4.048 3.194.435 4.049-.942z" stroke="#ecb32e" stroke-width="1.862"/><path d="m-33.796 42.447-15.552 25.019-.318-.018-.608-1.608 15.082-24.26z" stroke-width="1.088"/></g></g><g transform="matrix(1.168 0 0 1.168 -6.274 -2.882)"><use fill="#b3b3b3" height="100%" stroke="#666" stroke-width="3" width="100%" xlink:href="#a"/><use fill="#f2f2f2" height="100%" stroke="#f2f2f2" stroke-width="1.2" width="100%" xlink:href="#a"/></g></g></svg>