<svg xmlns="http://www.w3.org/2000/svg" fill="#59f" viewBox="0 0 64 64"><defs/><circle cx="32" cy="32" r="32" fill="navy"/><path d="M36.46 12.81c-1.02.02-2.04.48-2.76 1.26a4.42 4.42 0 00-1.12 2.94 4.42 4.42 0 001.19 2.93c.74.77 1.75 1.2 2.77 1.2s2.04-.45 2.77-1.2c.74-.75 1.17-1.83 1.19-2.92 0-1.1-.43-2.22-1.17-3a3.93 3.93 0 00-1.3-.9 3.84 3.84 0 00-1.53-.31zm-19.61.01c-1.02.01-2.04.48-2.76 1.26s-1.15 1.86-1.15 2.94a4.37 4.37 0 001.19 2.93 3.86 3.86 0 002.77 1.2c1.02 0 2.04-.45 2.77-1.2s1.17-1.84 1.18-2.93c.01-1.1-.43-2.22-1.17-2.99-.36-.4-.81-.7-1.3-.9s-1-.31-1.53-.31zm4.95 9.72l.01.02-9.43.01c-.57-.02-1.03.09-1.41.32-.39.22-.68.54-.92.92-.47.78-.72 1.83-.99 2.92 0 .02-.01.03 0 .01v.01l-3.11 15.3c0 .01-.01.02-.01.03-.16.43-.15.85-.03 1.19.13.36.38.6.68.7.31.09.68.02 1.02-.27.33-.29.65-.81.87-1.57v-.01l2.91-10.47c0-.01 0-.01.01-.02.13-.32.27-.52.39-.63a.53.53 0 01.17-.11c.03-.01.05-.02.09-.02s.06.01.06.01.07.03.11.07a.43.43 0 01.07.14c.04.13.04.32-.03.54l-3.2 17.94a28.73 28.73 0 005.83 5.8l-.01-1.75h4.42l.04 4.47a28.73 28.73 0 003.43 1.42l-.06-5.9h3.5l-4.28-22.1c-.03-.21 0-.36.06-.45a.4.4 0 01.1-.12c.04-.04.11-.04.14-.04.13-.02.24.04.36.14.12.11.27.29.38.56 0 .01.01.02.01.03l2.66 10.43c.07.3.16.55.25.77v.96c.09.56.34.94.67 1.17.33.22.75.31 1.13.27.4-.04.61-.18.92-.47.27-.25.38-.63.39-1.08V31.65c0-.03.01-.05.02-.09.13-.66 1.53-.66 1.62.09v29.38a28.73 28.73 0 001.41.04 28.73 28.73 0 003.2-.18l-.07-14.66h2.42l.1 14.28a28.73 28.73 0 004.46-1.27V31.63c0-.04.01-.06.03-.09.15-.61 1.49-.56 1.53.04.01.03.02.05.02.09v12.02c0 .03.01.03 0 .01.18.7.47 1.17.81 1.42.33.27.72.32 1.08.25.72-.14 1.37-.78 1.55-1.46V26.75c-.07-.9-.27-1.62-.54-2.16s-.65-.97-1.1-1.27c-.9-.6-2.1-.75-3.47-.75h-.02l-11.27.02c-.92.04-1.66.18-2.28.39s-1.1.52-1.48.9-.66.81-.84 1.29c-.18.49-.29 1.03-.32 1.62v.02l.01 3.31-.68-3.38c-.52-1.56-.77-2.57-1.2-3.24-.55-.83-1.4-.88-2.2-.96zm34.08 7.26l-.01.01c-.9.03-1.8.45-2.42 1.11a3.82 3.82 0 00-1 2.56 3.82 3.82 0 001.04 2.6c.66.68 1.58 1.08 2.5 1.08a3.52 3.52 0 002.5-1.08c.66-.68 1.04-1.63 1.04-2.6a3.83 3.83 0 00-1.08-2.64c-.67-.68-1.62-1.08-2.57-1.04zm-3.2 8.32c-1.17.05-1.99.38-2.54.9-.54.54-.81 1.26-.87 2.09v.03l.03 11.99.09.54a.53.53 0 00.2.31 1.08 1.08 0 00.76.21c.27-.03.54-.15.72-.36a1.14 1.14 0 00.33-.79V44.6c0-.11.09-.21.2-.21h.74c.12 0 .21.09.21.21v7.87a28.73 28.73 0 007.65-14.33c-.09 0-.18-.01-.27-.01l-7.22-.01z"/><circle cx="46.85" cy="47.02" r="16.94" fill="red"/><path fill="#fff" d="M36.69 50.31c-.94 0-1.71-.81-1.71-1.81l.01-3c0-1 .76-1.8 1.71-1.81 7.35.01 13.06.03 20.31.03.94 0 1.71.81 1.71 1.81v3c0 1-.77 1.81-1.71 1.81"/></svg>