<svg viewBox="0 0 64 64" xmlns="http://www.w3.org/2000/svg"><path d="m31.97.8a4.11 4.11 0 0 0 -4.11 4.11 4.11 4.11 0 0 0 2.04 3.54v2.04h-.01v1.36c-1.58.68-3.13 1.55-4.76 2.6-2.74 1.78-5.63 2.87-8.74 3.3a3.11 3.11 0 0 0 -6.2.34 3.11 3.11 0 0 0 1.58 2.7l-10.96 19.53h.02c0 7.28 6.24 10.27 12.42 10.27 6.12 0 12.42-2.99 12.42-10.27l-10.74-19.16c4.29-.27 8.31-1.59 11.97-3.98 1.04-.68 2.02-1.26 3.01-1.77v37.36c-7.06.6-12.79 4.17-14.42 8.15-.45 1.09.38 2.28 1.55 2.28h12.87 4.15 12.86c1.18 0 2.01-1.2 1.55-2.28-1.65-3.97-7.36-7.55-14.42-8.15v-37.35c.99.5 1.97 1.08 3.01 1.76 3.67 2.39 7.72 3.71 12.02 3.98l-10.75 19.16c0 7.28 6.24 10.27 12.42 10.27 6.12 0 12.42-2.99 12.42-10.27h.01l-10.95-19.53a3.11 3.11 0 0 0 -1.53-5.81 3.11 3.11 0 0 0 -3.09 2.78c-3.12-.42-6.02-1.51-8.78-3.3-1.63-1.06-3.19-1.92-4.78-2.61v-1.36-2.04a4.11 4.11 0 0 0 -2.08-7.65zm19.79 22.78 9.39 16.74h-9.39zm-39.53 0v16.74h-9.39zm2.03.02 9.38 16.72h-9.38zm35.47 0v16.72h-9.38z" fill="#970"/></svg>