<svg viewBox="0 0 64 64" xmlns="http://www.w3.org/2000/svg"><g stroke-width="8"><path d="m58.35 24.87-16.74 16.74c-5.45 5.45-14.33 5.45-19.78 0s-5.45-14.33 0-19.78l16.74-16.74c5.45-5.45 14.33-5.45 19.78 0s5.45 14.33 0 19.78zm-30.43 3.04c-2.1 2.1-2.1 5.51 0 7.61s5.51 2.1 7.61 0l16.74-16.74c2.1-2.1 2.1-5.51 0-7.61s-5.51-2.1-7.61 0z" fill="#6f7c91"/><path d="m26.4 44.65-7.61 7.61c-2.1 2.1-5.51 2.1-7.61 0s-2.1-5.51 0-7.61l16.74-16.74c2.1-2.1 5.51-2.1 7.61 0s2.1 5.51 0 7.61l9.13-9.13c-.68-1.66-1.69-3.22-3.04-4.57-5.45-5.45-14.33-5.45-19.78 0l-16.74 16.74c-5.45 5.45-5.45 14.33 0 19.78s14.33 5.45 19.78 0l16.74-16.74c-4.11 4.11-10.15 5.12-15.21 3.04z" fill="#939dac"/></g></svg>