<svg viewBox="0 0 512.001 512.001" xmlns="http://www.w3.org/2000/svg"><path d="m477.913 198.937-139.488 139.488c-45.45 45.45-119.398 45.45-164.85 0s-45.45-119.398 0-164.85l139.489-139.487c45.45-45.45 119.398-45.45 164.85 0s45.45 119.398 0 164.85zm-253.613 25.363c-17.48 17.48-17.48 45.925 0 63.404s45.925 17.48 63.404 0l139.486-139.489c17.48-17.48 17.48-45.925 0-63.404s-45.925-17.48-63.404 0z" fill="#6f7c91"/><path d="m211.636 363.768-63.422 63.432c-17.48 17.48-45.925 17.48-63.404 0s-17.48-45.925 0-63.404l139.488-139.488c17.48-17.48 45.925-17.48 63.404 0s17.48 45.925 0 63.404l76.066-76.066c-5.68-13.85-14.112-26.83-25.343-38.06-45.45-45.45-119.398-45.45-164.85 0l-139.487 139.478c-45.45 45.45-45.45 119.398 0 164.85s119.398 45.45 164.85 0l139.488-139.488c-34.22 34.22-84.586 42.652-126.79 25.343z" fill="#939dac"/></svg>