<svg height="256" viewBox="-6 0 256 256" width="256" xmlns="http://www.w3.org/2000/svg" xmlns:xlink="http://www.w3.org/1999/xlink"><linearGradient id="a" gradientUnits="userSpaceOnUse"><stop offset="0" stop-color="#45425a"/><stop offset="1" stop-color="#2d3251"/></linearGradient><linearGradient id="b" x1="106.97" x2="352.16" xlink:href="#a" y1="231.52" y2="356.84"/><linearGradient id="c" gradientUnits="userSpaceOnUse" x1="213.02" x2="431.37" y1="319.47" y2="410.68"><stop offset="0" stop-color="#ecf7ff"/><stop offset="1" stop-color="#c2e0ff"/></linearGradient><linearGradient id="d" x1="126.17" x2="163.35" xlink:href="#a" y1="161.28" y2="198.46"/><linearGradient id="e" x1="337.18" x2="374.37" xlink:href="#a" y1="161.28" y2="198.46"/><linearGradient id="f" gradientUnits="userSpaceOnUse" x1="337.21" x2="213.86" y1="324.37" y2="201.03"><stop offset=".003" stop-color="#c2e0ff" stop-opacity="0"/><stop offset=".076" stop-color="#bfdcfd" stop-opacity=".07"/><stop offset="1" stop-color="#9eb2e7"/></linearGradient><linearGradient id="g" gradientUnits="userSpaceOnUse" x1="243.38" x2="261.02" y1="230.53" y2="248.17"><stop offset="0" stop-color="#ffc738"/><stop offset=".245" stop-color="#ffc331"/><stop offset=".599" stop-color="#ffb81e"/><stop offset="1" stop-color="#ffa700"/></linearGradient><g transform="matrix(.5 0 0 .5 -3.3 0)"><path d="m20.86 512h459.47c11.96 0 21.4-10.3 20.26-22.2-4.35-45.34-20.75-87.15-45.96-122.2-30.16-41.94-40.52-95.17-28.58-145.43a180.2 180.2 0 0 0 4.86-39.7c1.16-99.49-79.51-181.77-179.01-182.47-100.2-.7-181.65 80.3-181.65 180.34 0 14.55 1.73 28.7 4.98 42.26 12.03 50.07 1.4 103.2-28.68 145-25.21 35.06-41.61 76.87-45.95 122.2-1.15 11.9 8.3 22.2 20.26 22.2zm0 0" fill="url(#b)"/><path d="m401.9 365.65c-28.8-29.4-35.12-73.88-17.34-111 9.3-19.38 14.48-41.1 14.48-64.02 0-15.13-2.26-29.73-6.47-43.48-15.07-49.25-87.67-38.45-87.67 13.05l6.43 48.08c2.23 16.64-7.75 32.5-23.7 37.7l-11.76 3.82c-16.43 5.34-34.13 5.34-50.55 0l-11.76-3.83a34.77 34.77 0 0 1 -23.71-37.68l6.44-48.13c0-50.98-72.16-62.53-87.38-13.87-4.63 14.8-7 30.6-6.72 47 .4 22.1 5.67 43.08 14.82 61.87 18 36.96 10.5 81.52-18.17 110.98-36.74 37.74-59.49 89.14-59.94 145.86h423.4c-.47-56.96-23.42-108.55-60.4-146.35zm0 0" fill="url(#c)"/><path d="m165.18 180.2c0-15.27-9-27.64-20.1-27.64s-20.1 12.38-20.1 27.64 9 27.64 20.1 27.64 20.1-12.38 20.1-27.64zm0 0" fill="url(#d)"/><path d="m376.2 180.2c0-15.27-9-27.64-20.1-27.64s-20.1 12.38-20.1 27.64 9 27.64 20.1 27.64 20.1-12.38 20.1-27.64zm0 0" fill="url(#e)"/><path d="m401.9 365.65c-20.64-21.1-29.73-49.9-26.68-78.23l-57.97-57.97c-1.66-2.4-3.76-4.54-6.27-6.27-.2-.3-.43-.57-.65-.86-3.08 10.9-11.36 19.96-22.7 23.64l-11.76 3.82c-16.43 5.34-34.13 5.34-50.55 0l-11.76-3.83c-11.34-3.7-19.63-12.77-22.7-23.68-7.93 10.45-7.15 26.46 4.66 35.6l.97.75a25.87 25.87 0 0 0 5.31 5.53l.96.75 246.89 247.1h12.65c-.47-56.96-23.42-108.55-60.4-146.35zm0 0" fill="url(#f)"/><path d="m228.88 283.7-33.36-25.8c-16.36-12.65-11.58-38.5 8.2-44.47l8.56-2.58a132.56 132.56 0 0 1 76.61 0l8.55 2.58c19.8 5.98 24.57 31.82 8.2 44.47l-33.36 25.8c-12.8 9.9-30.64 9.9-43.42 0zm0 0" fill="url(#g)"/></g></svg>