<svg xmlns="http://www.w3.org/2000/svg" xmlns:xlink="http://www.w3.org/1999/xlink" viewBox="-6 0 256 256"><linearGradient id="a" gradientUnits="userSpaceOnUse"><stop offset="0" stop-color="#45425a"/><stop offset="1" stop-color="#2d3251"/></linearGradient><linearGradient id="b" x1="107" x2="352.2" y1="231.5" y2="356.8" xlink:href="#a"/><linearGradient id="c" x1="213" x2="431.4" y1="319.5" y2="410.7" gradientUnits="userSpaceOnUse"><stop offset="0" stop-color="#ecf7ff"/><stop offset="1" stop-color="#c2e0ff"/></linearGradient><linearGradient id="d" x1="126.2" x2="163.3" y1="161.3" y2="198.5" xlink:href="#a"/><linearGradient id="e" x1="337.2" x2="374.4" y1="161.3" y2="198.5" xlink:href="#a"/><linearGradient id="f" x1="337.2" x2="213.9" y1="324.4" y2="201" gradientUnits="userSpaceOnUse"><stop offset="0" stop-color="#c2e0ff" stop-opacity="0"/><stop offset=".1" stop-color="#bfdcfd" stop-opacity=".1"/><stop offset="1" stop-color="#9eb2e7"/></linearGradient><linearGradient id="g" x1="243.4" x2="261" y1="230.5" y2="248.2" gradientUnits="userSpaceOnUse"><stop offset="0" stop-color="#ffc738"/><stop offset=".2" stop-color="#ffc331"/><stop offset=".6" stop-color="#ffb81e"/><stop offset="1" stop-color="#ffa700"/></linearGradient><path fill="url(#b)" d="M20.9 512h459.4c12 0 21.4-10.3 20.3-22.2a249.8 249.8 0 00-46-122.2 178.7 178.7 0 01-28.5-145.4 180.2 180.2 0 004.8-39.7 180.3 180.3 0 10-355.7 40.1c12 50 1.4 103.2-28.6 145a249.7 249.7 0 00-46 122.2A20.3 20.3 0 0020.9 512zm0 0" transform="matrix(.5 0 0 .5 -3.3 0)"/><path fill="url(#c)" d="M401.9 365.6a98 98 0 01-17.3-111 147.6 147.6 0 008-107.4c-15.1-49.3-87.7-38.5-87.7 13l6.4 48a34.8 34.8 0 01-23.7 37.8l-11.7 3.8a81.8 81.8 0 01-50.6 0l-11.7-3.8a34.8 34.8 0 01-23.7-37.7l6.4-48.1c0-51-72.2-62.6-87.4-14a148.6 148.6 0 008.1 109 98 98 0 01-18.2 111A210.9 210.9 0 0039 512h423.4c-.5-57-23.4-108.5-60.4-146.3zm0 0" transform="matrix(.5 0 0 .5 -3.3 0)"/><path fill="url(#d)" d="M165.2 180.2c0-15.3-9-27.6-20.1-27.6S125 164.9 125 180.2s9 27.6 20 27.6 20.2-12.3 20.2-27.6zm0 0" transform="matrix(.5 0 0 .5 -3.3 0)"/><path fill="url(#e)" d="M376.2 180.2c0-15.3-9-27.6-20.1-27.6S336 164.9 336 180.2s9 27.6 20.1 27.6 20.1-12.3 20.1-27.6zm0 0" transform="matrix(.5 0 0 .5 -3.3 0)"/><path fill="url(#f)" d="M401.9 365.6a96.6 96.6 0 01-26.7-78.2l-58-58a24.6 24.6 0 00-6.2-6.2l-.7-.9c-3 11-11.3 20-22.7 23.7l-11.7 3.8a81.8 81.8 0 01-50.6 0l-11.7-3.9a34.8 34.8 0 01-22.7-23.6 25.5 25.5 0 004.6 35.6l1 .7a25.9 25.9 0 005.3 5.5l1 .8L449.7 512h12.6c-.5-57-23.4-108.6-60.4-146.4zm0 0" transform="matrix(.5 0 0 .5 -3.3 0)"/><path fill="url(#g)" d="M228.9 283.7l-33.4-25.8a25.4 25.4 0 018.2-44.5l8.6-2.6a132.6 132.6 0 0176.6 0l8.5 2.6a25.4 25.4 0 018.2 44.5l-33.3 25.8a35.5 35.5 0 01-43.4 0zm0 0" transform="matrix(.5 0 0 .5 -3.3 0)"/></svg>