<svg viewBox="0 0 64 64" xmlns="http://www.w3.org/2000/svg" xmlns:xlink="http://www.w3.org/1999/xlink"><linearGradient id="a" gradientUnits="userSpaceOnUse" x1="32.76" x2="32.76" y1="33.03" y2="57.1"><stop offset="0" stop-color="#f9dc3f"/><stop offset="1" stop-color="#ecbe21"/></linearGradient><linearGradient id="b" gradientUnits="userSpaceOnUse" x1="32.07" x2="32.07" y1="21.49" y2="31.87"><stop offset="0" stop-color="#efe033"/><stop offset="1" stop-color="#ddb642" stop-opacity="0"/></linearGradient><g transform="matrix(.91 0 0 .91 2.72 3.64)"><path d="m10.01 20.92h43.97c2.02 0 3.66 1.74 3.66 3.87v32.94c0 2.14-1.64 3.87-3.66 3.87h-43.97c-2.02 0-3.66-1.73-3.66-3.87v-32.94c0-2.14 1.64-3.87 3.66-3.87z" fill="url(#a)"/><path d="m53.99 20.92h-43.98c-2.02 0-3.66 1.74-3.66 3.87v3.87c0 2.14 1.64 3.87 3.66 3.87h43.97c2.02 0 3.66-1.73 3.66-3.87v-3.87c0-2.14-1.64-3.87-3.66-3.87z" fill="url(#b)"/><path d="m18.37 22.48c-2.76 0-4.99 1.65-4.99 3.68s2.23 3.68 4.99 3.68 4.99-1.64 4.99-3.68-2.23-3.68-4.99-3.68zm26.6 0c-2.75 0-4.99 1.65-4.99 3.68s2.23 3.68 4.99 3.68 4.99-1.64 4.99-3.68-2.23-3.68-4.99-3.68z" fill="#917c6f"/><path d="m32 .39c-9.3 0-16.83 8.28-16.83 18.49v7.47c0 1.02 1.51 1.85 3.37 1.85s3.37-.83 3.37-1.85v-8c0-5.84 4.52-10.56 10.1-10.56s10.1 4.73 10.1 10.56v8c0 1.02 1.51 1.85 3.37 1.85s3.37-.83 3.37-1.85v-7.46c-.02-10.21-7.55-18.5-16.85-18.5z" fill="#917c6f"/><path d="m32 4.09c-9.3 0-13.47 8.28-13.47 18.49v5.62c1.86 0 3.37-.83 3.37-1.85v-8c0-5.84 4.52-10.56 10.1-10.56s10.1 4.73 10.1 10.56v8c0 1.02 1.51 1.85 3.37 1.85v-5.62c0-10.21-4.17-18.49-13.47-18.49z" fill="#ac9d93"/></g></svg>