<svg xmlns="http://www.w3.org/2000/svg" xmlns:xlink="http://www.w3.org/1999/xlink" viewBox="0 0 64 64"><defs><path id="a" d="M51.3 5a1 1 0 00-1 1 1 1 0 001 1 1 1 0 001-1 1 1 0 00-1-1z"/></defs><g fill="#f9f9f9" stroke="#333" stroke-linejoin="round"><path stroke-width="1.9" d="M1 1h62v62H1z"/><path stroke-width="1.8" d="M1 1h62v10.5H1z"/></g><g fill="#333"><use xlink:href="#a"/><use x="-5.4" xlink:href="#a"/><path d="M56.7 5a1 1 0 00-1 1 1 1 0 001 1 1 1 0 001.1-1 1 1 0 00-1-1z"/></g><g fill="none" stroke-linecap="round" stroke-linejoin="round" stroke-width="2.5"><path stroke="#999" d="M19 22.4h31"/><path stroke="red" d="M11 22.4h2.2"/><path stroke="#999" d="M19 30h12m5 0h13.3"/><path stroke="purple" d="M11 30h2.2"/><path stroke="#999" d="M19 52.7h30.6"/><path stroke="purple" d="M11 52.7h2.2"/><path stroke="#999" d="M19 45.2H53"/><path stroke="green" d="M11 45.2h2.2"/><path stroke="#999" d="M19 37.7h5m4.4 0H53"/><path stroke="green" d="M11 37.7h2.2"/></g></svg>