<svg xmlns="http://www.w3.org/2000/svg" xmlns:xlink="http://www.w3.org/1999/xlink" viewBox="0 0 64 64"><defs><path id="a" d="M51.33 4.938a1.06 1.06 0 00-1.056 1.056A1.06 1.06 0 0051.33 7.05a1.06 1.06 0 001.056-1.056 1.06 1.06 0 00-1.056-1.056z"/></defs><g fill="#f9f9f9" stroke="#333" stroke-linejoin="round"><path stroke-width="1.939" d="M.97.97h62.06v62.06H.97z"/><path stroke-width="1.826" d="M.97.97h62.06V11.5H.97z"/></g><g fill="#333"><use xlink:href="#a"/><use x="-5.414" xlink:href="#a"/><path d="M56.743 4.938a1.06 1.06 0 00-1.056 1.056 1.06 1.06 0 001.056 1.056A1.06 1.06 0 0057.8 5.994a1.06 1.06 0 00-1.056-1.056z"/></g><g fill="none" stroke-linecap="round" stroke-linejoin="round" stroke-width="2.5"><path stroke="#999" d="M19.06 22.36h30.994"/><path stroke="red" d="M11 22.36h2.17"/><path stroke="#999" d="M19.06 30.013h11.962m4.988 0h13.26"/><path stroke="purple" d="M11 30.013h2.17"/><path stroke="#999" d="M19.06 52.67h30.59"/><path stroke="purple" d="M11 52.67h2.17"/><path stroke="#999" d="M19.06 45.167h33.803"/><path stroke="green" d="M11 45.167h2.17"/><path stroke="#999" d="M19.06 37.664h4.965m4.422 0H53"/><path stroke="green" d="M11 37.664h2.17"/></g></svg>