<svg fill-rule="evenodd" height="48" stroke-linejoin="round" stroke-width=".501" viewBox="0 0 36 36" width="48" xmlns="http://www.w3.org/2000/svg" xmlns:xlink="http://www.w3.org/1999/xlink"><linearGradient id="a" gradientUnits="userSpaceOnUse"><stop offset="0" stop-color="#fff"/><stop offset=".1" stop-color="#fdfdfd"/><stop offset=".2" stop-color="#fbfbfb"/><stop offset=".3" stop-color="#f8f8f8"/><stop offset=".4" stop-color="#f4f4f4"/><stop offset=".5" stop-color="#efefef"/><stop offset=".6" stop-color="#e8e8e8"/><stop offset=".7" stop-color="#dedede"/><stop offset=".8" stop-color="#cecece"/><stop offset=".9" stop-color="#c0c0c0"/><stop offset="1" stop-color="#b3b3b3"/></linearGradient><linearGradient id="b" spreadMethod="reflect" x1="30.955" x2="30.955" xlink:href="#a" y1="13.836" y2="7.595"/><linearGradient id="c" gradientUnits="userSpaceOnUse" x1="-6.706" x2="18.134" y1="19.456" y2="19.456"><stop offset="0" stop-color="#e92222"/><stop offset="1" stop-color="#c61010"/></linearGradient><linearGradient id="d" spreadMethod="reflect" x1="30.955" x2="30.955" xlink:href="#a" y1="34.019" y2="27.778"/><g fill="none" transform="matrix(1 0 0 -1 0 36)"><path d="m5.74 7.867c-3.058 2.538-4.96 6.14-4.96 10.145 0 .26.007.523.058.773a4.58 4.58 0 0 0 .059.755c.032.422.077.688.16.94a3.68 3.68 0 0 0 .145.625c.1.457.168.71.273.95.044.14.1.265.152.385.27.774.537 1.326.87 1.843.06.132.136.257.217.38.144.273.183.335.225.395l-.016-.058c2.683 4.073 7.637 6.808 13.303 6.808h18.992v-7.435h-18.992c-.904 0-1.77-.15-2.56-.442.003.038-.128-.008-.247-.076-.334-.125-.658-.277-.956-.465-.012.037-.158-.046-.283-.154a4.45 4.45 0 0 1 -.802-.592c-.024.032-.16-.085-.27-.228-1.245-1.14-2.004-2.7-2.004-4.417 0-3.52 3.2-6.374 7.12-6.374h18.992v-7.425h-18.99c-4.057 0-7.75 1.4-10.485 3.677z" stroke="#333" stroke-linejoin="round" stroke-miterlimit="79.84" stroke-width="1.565"/><path d="m27.522 4.19v7.435h7.696v-7.435z" fill="url(#b)"/><path d="m.797 18c0 7.627 6.908 13.81 15.43 13.81h11.296v-7.435h-11.297c-3.93 0-7.12-2.854-7.12-6.374s3.2-6.374 7.12-6.374h11.296v-7.437h-11.296c-8.521 0-15.429 6.183-15.429 13.81z" fill="url(#c)"/><path d="m10.81 22.165c1.306 1.36 3.24 2.22 5.402 2.22h11.296v3.7h-9.595c-3.762 0-6.843-2.612-7.103-5.92zm-10.028-4.152c0-7.628 6.91-13.81 15.43-13.81h11.296v3.7h-9.595c-8.52 0-15.43 6.182-15.43 13.8a12.48 12.48 0 0 0 .457 3.347c-1.372-2.053-2.158-4.463-2.158-7.037z" fill="#af1616"/><path d="m27.522 24.374v7.435h7.696v-7.435z" fill="url(#d)"/></g></svg>