<svg fill-rule="evenodd" height="36pt" stroke-linejoin="bevel" stroke-width=".501" viewBox="0 0 36 36" width="36pt" xmlns="http://www.w3.org/2000/svg" xmlns:xlink="http://www.w3.org/1999/xlink"><linearGradient id="a"><stop offset="0" stop-color="#fff"/><stop offset=".1" stop-color="#fdfdfd"/><stop offset=".2" stop-color="#fbfbfb"/><stop offset=".3" stop-color="#f8f8f8"/><stop offset=".4" stop-color="#f4f4f4"/><stop offset=".5" stop-color="#efefef"/><stop offset=".6" stop-color="#e8e8e8"/><stop offset=".7" stop-color="#dedede"/><stop offset=".8" stop-color="#cecece"/><stop offset=".9" stop-color="#c0c0c0"/><stop offset="1" stop-color="#b3b3b3"/></linearGradient><linearGradient id="b" gradientUnits="userSpaceOnUse" spreadMethod="reflect" x1="30.955" x2="30.955" xlink:href="#a" y1="13.836" y2="7.5945"/><linearGradient id="c" gradientUnits="userSpaceOnUse" x1="-6.706" x2="18.134" y1="19.456" y2="19.456"><stop offset="0" stop-color="#830a0a"/><stop offset="1" stop-color="#c61010"/></linearGradient><linearGradient id="d" gradientUnits="userSpaceOnUse" spreadMethod="reflect" x1="30.955" x2="30.955" xlink:href="#a" y1="34.019" y2="27.7775"/><g fill="none" fill-rule="evenodd" stroke="#000" transform="matrix(1 0 0 -1 0 36)"><path d="m5.741 7.867c-3.058 2.538-4.959 6.141-4.959 10.145 0 .261.007.523.058.773-.003.258.021.509.059.755.032.422.077.688.159.941.035.233.081.432.145.625.09.457.168.709.273.95.044.14.09.265.152.385.27.774.537 1.326.87 1.843.061.132.136.257.217.38.144.273.183.335.225.395-.006-.021-.012-.041-.017-.059 2.683 4.073 7.637 6.808 13.303 6.808h18.992v-7.435h-18.992c-.904 0-1.77-.151-2.559-.442.003.038-.128-.008-.247-.076-.334-.125-.658-.277-.956-.465-.012.037-.158-.046-.283-.154-.283-.165-.558-.363-.802-.592-.024.032-.161-.085-.27-.228-1.245-1.14-2.004-2.699-2.004-4.417 0-3.52 3.19-6.374 7.121-6.374h18.992v-7.435h-18.992c-4.057 0-7.75 1.401-10.485 3.677z" stroke="#000" stroke-linecap="round" stroke-linejoin="round" stroke-miterlimit="79.840319" stroke-width="1.565"/><g stroke="none"><path d="m27.522 4.191v7.435h7.696v-7.435h-7.696z" fill="url(#b)"/><path d="m.797 18c0 7.627 6.908 13.809 15.429 13.809h11.296v-7.435h-11.296c-3.931 0-7.121-2.854-7.121-6.374s3.19-6.374 7.121-6.374h11.296v-7.435h-11.296c-8.521 0-15.429 6.182-15.429 13.809z" fill="url(#c)"/><path d="m10.809 22.165c1.306 1.361 3.241 2.221 5.402 2.221h11.296v3.7h-9.595c-3.762 0-6.843-2.612-7.103-5.921zm-10.027-4.152c0-7.628 6.909-13.809 15.429-13.809h11.296v3.699h-9.595c-8.519 0-15.429 6.182-15.429 13.81 0 1.154.159 2.274.457 3.347-1.372-2.063-2.158-4.473-2.158-7.047z" fill="#000" fill-opacity=".180392"/><path d="m27.522 24.374v7.435h7.696v-7.435h-7.696z" fill="url(#d)"/></g></g></svg>