<svg enable-background="new 0 0 512 512" viewBox="0 0 512 512" xmlns="http://www.w3.org/2000/svg"><path d="m192 320h128l120-100v-188c0-17.672-14.328-32-32-32h-304c-17.672 0-32 14.328-32 32v188z" fill="#e2e7f0"/><path d="m440 115.04v104.96l72-60z" fill="#f19920"/><path d="m72 115.04-72 44.96 72 60z" fill="#f19920"/><g fill="#9dacba"><path d="m192 48h128c4.416 0 8 3.584 8 8 0 4.416-3.584 8-8 8h-128c-4.416 0-8-3.584-8-8 0-4.416 3.584-8 8-8z"/><path d="m144 112h224c4.416 0 8 3.584 8 8 0 4.416-3.584 8-8 8h-224c-4.416 0-8-3.584-8-8 0-4.416 3.584-8 8-8z"/><path d="m144 160h224c4.416 0 8 3.584 8 8 0 4.416-3.584 8-8 8h-224c-4.416 0-8-3.584-8-8 0-4.416 3.584-8 8-8z"/><path d="m144 208h224c4.416 0 8 3.584 8 8 0 4.416-3.584 8-8 8h-224c-4.416 0-8-3.584-8-8 0-4.416 3.584-8 8-8z"/></g><path d="m56 206.64 16 13.36v-104.96l-16 10z" fill="#e78825"/><path d="m456 206.64-16 13.36v-104.96l16 10z" fill="#e78825"/><path d="m192 320-182.56 182.56c-6.008-5.976-9.408-14.088-9.44-22.56v-320z" fill="#f6b545"/><path d="m502.56 502.56c-5.976 6.008-14.088 9.408-22.56 9.44h-448c-8.472-.032-16.584-3.432-22.56-9.44l182.56-182.56h128z" fill="#fcd063"/><path d="m512 480c-.032 8.472-3.432 16.584-9.44 22.56l-182.56-182.56 192-160z" fill="#f6b545"/><path d="m192 320h128l117.6-98c-4.816-7.408-14.72-9.52-22.136-4.704-.448.296-.888.608-1.304.944l-78.16 65.76c-15.408 12.952-34.904 20.04-55.04 20h-55.04c-14.032.088-27.808 3.776-40 10.72z" fill="#c9d5e3"/><path d="m496 200v280c0 8.84-7.16 16-16 16h-432c-8.84 0-16 7.16-16 16h448c17.672 0 32-14.328 32-32v-296c-8.84 0-16 7.16-16 16z" fill="#f19920"/><path d="m491.28 491.28c-2.984 3.008-7.04 4.704-11.28 4.72h-432c-8.84 0-16 7.16-16 16h448c8.472-.032 16.584-3.432 22.56-9.44z" fill="#f6b545"/></svg>