<svg xmlns="http://www.w3.org/2000/svg" xmlns:xlink="http://www.w3.org/1999/xlink" viewBox="0 0 64 64"><defs><path id="a" d="M144 112h224a8 8 0 110 16H144a8 8 0 110-16z"/></defs><path fill="#e2e7f0" d="M24.04 39.4H39.4l14.4-12V4.84A3.84 3.84 0 0049.96 1H13.48a3.84 3.84 0 00-3.84 3.84V27.4z"/><path fill="#f19920" d="M53.8 14.8v12.6l8.64-7.2zm-44.16 0L1 20.2l8.64 7.2z"/><g fill="#9dacba" transform="matrix(.12 0 0 .12 1 1)"><path d="M192 48h128a8 8 0 110 16H192a8 8 0 110-16z"/><use xlink:href="#a"/><use y="48" xlink:href="#a"/><use y="96" xlink:href="#a"/></g><path fill="#e78825" d="M7.72 25.8l1.92 1.6V14.8L7.72 16zm48 0l-1.92 1.6V14.8l1.92 1.2z"/><path fill="#f6b545" d="M24.04 39.4L2.13 61.31A3.83 3.83 0 011 58.6V20.2z"/><path fill="#fcd063" d="M61.31 61.31a3.83 3.83 0 01-2.71 1.13H4.84a3.83 3.83 0 01-2.71-1.13L24.04 39.4H39.4z"/><path fill="#f6b545" d="M62.44 58.6a3.83 3.83 0 01-1.13 2.71L39.4 39.4l23.04-19.2z"/><path fill="#c9d5e3" d="M24.04 39.4H39.4l14.11-11.76a1.92 1.92 0 00-2.66-.56c-.05.04-.11.07-.16.11l-9.38 7.89c-1.85 1.55-4.19 2.4-6.6 2.4h-6.6a9.82 9.82 0 00-4.8 1.29z"/><path fill="#f19920" d="M60.52 25v33.6a1.92 1.92 0 01-1.92 1.92H6.76a1.92 1.92 0 00-1.92 1.92H58.6a3.84 3.84 0 003.84-3.84V23.08A1.92 1.92 0 0060.52 25z"/><path fill="#f6b545" d="M59.95 59.95a1.95 1.95 0 01-1.35.57H6.76a1.92 1.92 0 00-1.92 1.92H58.6a3.83 3.83 0 002.71-1.13z"/></svg>