<svg xmlns="http://www.w3.org/2000/svg" xmlns:xlink="http://www.w3.org/1999/xlink" viewBox="0 0 512 512"><path d="M192 320h128l120-100V32c0-17.672-14.328-32-32-32H104C86.328 0 72 14.328 72 32v188z" fill="#e2e7f0"/><path d="M440 115.04V220l72-60zm-368 0L0 160l72 60z" fill="#f19920"/><g fill="#9dacba"><path d="M192 48h128c4.416 0 8 3.584 8 8s-3.584 8-8 8H192c-4.416 0-8-3.584-8-8s3.584-8 8-8z"/><use xlink:href="#B"/><use xlink:href="#B" y="48"/><use xlink:href="#B" y="96"/></g><path d="M56 206.64L72 220V115.04l-16 10zm400 0L440 220V115.04l16 10z" fill="#e78825"/><path d="M192 320L9.44 502.56C3.432 496.584.032 488.472 0 480V160z" fill="#f6b545"/><path d="M502.56 502.56c-5.976 6.008-14.088 9.408-22.56 9.44H32c-8.472-.032-16.584-3.432-22.56-9.44L192 320h128z" fill="#fcd063"/><path d="M512 480c-.032 8.472-3.432 16.584-9.44 22.56L320 320l192-160z" fill="#f6b545"/><path d="M192 320h128l117.6-98c-4.816-7.408-14.72-9.52-22.136-4.704-.448.296-.888.608-1.304.944L336 284c-15.408 12.952-34.904 20.04-55.04 20h-55.04a81.86 81.86 0 0 0-40 10.72z" fill="#c9d5e3"/><path d="M496 200v280a16 16 0 0 1-16 16H48a16 16 0 0 0-16 16h448c17.672 0 32-14.328 32-32V184a16 16 0 0 0-16 16z" fill="#f19920"/><path d="M491.28 491.28c-2.984 3.008-7.04 4.704-11.28 4.72H48a16 16 0 0 0-16 16h448c8.472-.032 16.584-3.432 22.56-9.44z" fill="#f6b545"/><defs ><path id="B" d="M144 112h224c4.416 0 8 3.584 8 8s-3.584 8-8 8H144c-4.416 0-8-3.584-8-8s3.584-8 8-8z"/></defs></svg>