<svg xmlns="http://www.w3.org/2000/svg" viewBox="0 0 64 64"><linearGradient id="A" gradientUnits="userSpaceOnUse" x1="133.365" x2="8.952" y1="-69.473" y2="54.94"><stop offset="0" stop-color="#ccc"/><stop offset="1" stop-color="#ececec"/></linearGradient><path d="M41.32 1.38c-1.37 0-2.86.16-4.5.48-4.9 1.5-6.65 6.05-10.38 10.04-9.46 8.57-13.55 8.94-18.24 13.4-9.44 9.43-8.62 20.2-.4 28.2l1.36 1.32 1.32 1.36c8.02 8.22 18.78 9.04 28.2-.4 4.47-4.7 4.84-8.78 13.4-18.24 4-3.73 8.54-5.47 10.04-10.38 1.7-8.77-1.26-13.06-6.92-18.4-4.34-4.6-8-7.42-13.9-7.4z" fill="url(#A)" stroke="#666" stroke-width="1.12"/><path d="M10.17 24.36c2.58-2.35 6.1-4.4 8.92-5.97 3.14-2.15 5.13-3.77 8.15-6.46.06-.06.12-.13.17-.2C22 21.4 15.05 36.77 10.17 24.36z" fill="#b3b3b3"/><g stroke-linejoin="round"><path d="M48.73 14.97L60.07 3.63" fill="#999" stroke="#999" stroke-width="4.01" stroke-linecap="round"/><path d="M39.2 24.52c.87.87 2.3.87 3.18 0l6.36-6.36c.87-.87.87-2.3 0-3.18-.87-.87-2.3-.87-3.18 0l-6.36 6.36c-.87.87-.87 2.3 0 3.18z" fill="#666" stroke="#666" stroke-width="2.25"/></g><g fill="red" transform="matrix(.71 .71 -.71 .71 32.41 -15.62)"><path d="M33.38 66.27l1.9.02a25.25 25.25 0 0 0 4.14-.28c.6-.1 1.1-.3 1.68-.42A8.38 7.54 0 0 0 33.38 61z" opacity=".8"/><path d="M25.67 65.6l1.68.42c1.32.2 2.7.3 4.14.28l1.9-.02V61a8.38 7.54 0 0 0-7.71 4.6z" opacity=".8"/></g><path d="M39.67 53.77c2.35-2.58 4.17-5.86 5.75-8.67 2.15-3.14 3.77-5.13 6.46-8.15.06-.06.13-.12.2-.17-9.67 5.42-24.8 12.12-12.4 17z" fill="#b3b3b3"/></svg>