<svg xmlns="http://www.w3.org/2000/svg" xmlns:xlink="http://www.w3.org/1999/xlink" fill-rule="evenodd" height="512" stroke-linejoin="bevel" stroke-width=".501" viewBox="0 0 384 384" width="512"><style><![CDATA[.B{stroke-linejoin:miter}.C{stroke-miterlimit:79.840319}.D{stroke:none}.E{stroke-width:18}.F{stroke-linecap:round}.G{stroke-miterlimit:2.222222}.H{stroke-width:10.755}]]></style><radialGradient id="A" cx="0" cy="0" gradientTransform="matrix(1 0 0 .75199 145.48 293.276)" gradientUnits="userSpaceOnUse" r="280.057"><stop offset="0" stop-color="#dbe9ff"/><stop offset=".155" stop-color="#d3e9ff"/><stop offset=".75" stop-color="#4074ae"/><stop offset="1" stop-color="#36486c"/></radialGradient><g fill="none" stroke="#000" transform="scale(1 -1)"><g stroke="#39396c" class="B E"><path d="M209.48-345.107h95.63m-226.316 0h95.63" class="F G"/><path d="m191.952-327.348v23.24" class="G"/><use xlink:href="#C" class="C"/></g><g stroke="#333" class="B C H"><path d="M209.48-345.107h95.63m-226.316 0h95.63" class="F"/><path d="m191.952-327.348v23.24"/></g><path d="M195.553-358.553a13.93 13.93 0 0 0-17.047 9.844c-1.987 7.42 2.423 15.06 9.844 17.046s15.06-2.423 17.047-9.844-2.423-15.06-9.844-17.046z" fill="#1fa420" class="D"/><use xlink:href="#C" stroke="#333" stroke-width="10.545" class="B C"/><g class="D"><path d="M200.907-892.493H61.594c-3.343 0-5.572 2.23-5.572 5.573s2.23 5.572 5.572 5.572h139.313c3.344 0 5.572-2.23 5.572-5.572s-2.228-5.573-5.572-5.573zm178.32 0h-133.74c-3.343 0-5.572 2.23-5.572 5.573s2.23 5.572 5.572 5.572h133.74c3.344 0 5.572-2.23 5.572-5.572s-2.228-5.573-5.572-5.573zm-156.03 22.29c-3.344 0-5.573 2.228-5.573 5.572v55.725c0 3.343 2.23 5.572 5.573 5.572s5.572-2.23 5.572-5.572v-55.725c.001-3.344-2.23-5.572-5.572-5.572z" fill="#e2e3e5"/><path d="M239.914-881.347c0-12.26-10.03-22.3-22.29-22.3s-22.3 10.03-22.3 22.3 10.03 22.29 22.3 22.29 22.29-10.03 22.29-22.29" fill="#e0e0e0"/><path d="M223.197-881.347c0-12.26-6.13-22.3-13.932-22.3s-13.93 10.03-13.93 22.3 6.13 22.29 13.93 22.29 13.932-10.03 13.932-22.29" fill="#f0f0f0"/><g fill="#b6b6b6"><path d="M217.625-909.2c-15.603 0-27.864 12.26-27.864 27.862s12.26 27.863 27.864 27.863 27.862-12.26 27.862-27.863-12.26-27.862-27.862-27.862zm0 44.58c-9.474 0-16.718-7.244-16.718-16.718s7.244-16.717 16.718-16.717 16.717 7.244 16.717 16.717-7.244 16.718-16.717 16.718z"/><path d="M195.335-886.92H56.02c-3.343 0-5.572 2.23-5.572 5.573s2.23 5.572 5.572 5.572h139.313c3.343 0 5.572-2.23 5.572-5.572s-2.228-5.573-5.57-5.573zm183.892 0H239.914c-3.343 0-5.572 2.23-5.572 5.572s2.23 5.573 5.572 5.573h139.313c3.343 0 5.572-2.23 5.572-5.573s-2.228-5.572-5.572-5.572zm-161.602 22.3c-3.344 0-5.573 2.23-5.573 5.572v55.725c0 3.344 2.23 5.572 5.573 5.572s5.572-2.228 5.572-5.572v-55.725c0-3.343-2.23-5.572-5.572-5.572z"/></g></g><g transform="translate(0 -384)"><path d="M342.477 229.41c0-83.12-67.44-150.63-150.7-150.63s-150.54 67.442-150.54 150.63 67.428 150.7 150.63 150.7 150.7-67.427 150.7-150.7z" fill="url(#A)" stroke="#39396c" stroke-width="7.77" stroke-miterlimit="99.800399" class="B"/><path d="M336.903 253.013l-4.153-4.713c-2.546 3.007-5.344 5.525-8.392 8.154l-6.364-.93-5.826 6.6v-8.232l4.987-3.775 3.32-3.78 4.44 5.023 3.322-6.28v-6.28l-4.993-5.65-9.16-6.28-6.923-6.923-4.442 5.035 2.294 5.65-4.44 5.02-7.48 16-6.365 7.203-1.678-1.888 2.503-9.112 4.714-5.342 8.88-22.6c5.475 0 10.644.586 16.084 1.26v-4.405l-6.658-16.33-6.104-6.895-4.986-10.68V165.27l1.678-6.993-2.782-3.055-6.106-3.776-6.364-5.344 5.343-5.965-7.203-6.293 1.398-4.07-10.817-12.182h-7.204l-6.104-3.777h-3.804v5.036l-1.658 10.07-6.656 18.832.544 13.734 2.782 6.28-3.804 7.538.28 10.35-5.28 5.965 2.644 8.545-4.293 4.895h-7.496l-2.483 2.817-7.484-4.712-3.056 3.46-6.865-5.964-14.14 16-5.538 13.203 4.985 7.538-2.776 3.055 6.105 14.45 15.54 18.203 9.44 2.516 10.533 1.26 7.202-1.887 10.253-10.35 3.613 4.077 4.966.63 9.44-3.057h7.1l4.988 4.406 2.293 3.056-4.993 3.147-8.393.63c-2.307 3.217-4.46 6.573-7.203 9.412l-2.775-1.2-1.104-8.153-4.995 5.65-1.1 6.293-5.546 4.384h-2.238l5.553-6.28-2.294-5.65-4.427-1.246 2.776 5.65-4.993 2.503-4.426 5.02-8.393-1.886-1.103-2.505-4.986-3.147-2.777-7-6.868-3.448-3.055 3.448h-3.323v11.306l7.226 3.777h5.538l-1.12 4.4-4.426 4.406 7.484 1.566 4.152 4.706 3.323 5.65h6.104l-1.678 4.393 3.804 2.517v-5.022l8.392-1.888 8.4 6.895.56 3.147 7.203 5.022c-2.608-.328-5.216-.56-7.763-1.258v5.663l2.778 6.28h-2.778l-6.083-5.65-1.68-3.147 1.68-4.406-2.797-7.538-4.426 2.518-3.88 4.405-6.106-4.405-2.294 10.04 10.532 6.923v3.777l6.657 4.405 10.532 2.517 7.223-2.517 13.3-2.517-3.322-3.776h-7.203l7.203-7.54 5.545 6.28 1.68 2.756s21.258-19.055 33.426-39.9 17.868-45.44 17.868-50.37zM199.53 340.607l-.56-3.776 3.804-2.517 6.644 4.405-3.322 3.778-4.44-2.52-2.294.63m6.26 25.735l-14.504 5.665-16.644-1.888-20.602-5.65-3.88-3.778 12.742-8.776v-5.033l-4.987-5.037 6.665-13.2 4.428 2.52 5.572 8.798a190.6 190.6 0 0 1 24.399 9.417l6.665 16.952m15.05-52.825l-2.294 5.65-3.804-1.26 1.118-6.894 4.987 2.503m2.133 1.258l-1.105-7.538 6.105 1.258 4.426 4.393-3.88 3.776c-1.3 3.476-2.8 6.713-4.44 10.05h-3.314v-3.777l2.294-2.518v-5.65M140.6 195.58l-4.44 8.8-8.4 1.887-4.442 11.916-11.082-1.243-9.442 6.893-9.93-8.783v-1.398c-3.026.882-6.735.993-9.42 2.643l-2.294 6.28v6.9l-6.657-.63 1.665 13.182h-3.882l-3.88-5.02-3.88-1.887-5.547 3.055-.56 6.925 1.12 7.538 8.32 6.28h6.657l1.106 3.775 8.32-1.888 6.105-7.538 1.106 12.56 10.56 8.788 3.88 9.413 7.763 3.06 4.427 6.278 9.93 1.888 4.985 7.538H117.7l9.44 4.406h6.656l9.44 3.147 1.12 3.754-3.344 3.148-3.804 1.258 1.118 3.777-2.776 5.65-6.664-2.502 1.118 5.005-7.762 4.408-6.104-10.665.546-3.777-6.105-2.517-3.805-8.154-1.664 7.538-10.53 4.406-1.665 5.65 13.868 8.154 6.106 5.65.558 6.924-3.32 1.888-4.44.63-2.777-6.923-5.825-1.203C81.86 328.383 51.07 298.083 43.92 240.88c.28-1.33 5.176-9.02 5.176-9.02l11.65-6.895 11.652-3.148 4.992-6.294 7.762-5.65 4.428.63 3.32-1.497V208l-4.425-11.923-3.343-5.02 1.118-2.518-2.776-9.398 9.98-18.2 9.98-8.8 4.44-6.28-.56-13.2 3.343-7.538-3.343-14.45s-.258.07.17-1.356 17.8-11.063 18.88-10.252l2.028 1.553-1.104 3.056 4.426 4.405 1.678 4.407 7.203 2.516 5.545 13.735-1.664 3.762 3.88 5.65 8.392 1.887 4.44 10.044-1.104 12.55 6.657 9.4 1.104 9.42-27.168 13.735M128.537 338.1l5.538-3.775h4.44v4.37l-5.538 2.516-4.44-3.13m-14.504 5.02l-2.784-6.924h5.545l2.785 6.28 7.203 5.036 5.545-1.888 11.1-7.538 5.546 5.02-6.105 2.518-2.783 5.665-10.53 1.26-.56 3.146L124 354.42l-2.294-4.406-2.782 5.664-1.107-2.518.562-6.278-4.44-3.777m20.16 15.713l2.783 2.517 5.547 1.26c3.804 1.846 7.622 3.1 11.65 4.406l-2.294 3.776-7.168-1.028-3.377-3.37-5.566-.8-4.966-2.33-2.327-1.168-1.554-1.97 7.204-1.246m9.5-59.65l3.343 5.02-4.994 3.763 1.666-8.777" fill="#204a87" fill-opacity=".714" class="D"/></g><path d="M17.206-366.794c-12.93 12.933-12.93 33.898 0 46.83l115.81 115.81c-6.054 20.903-1.448 43.577 14.15 59.175 13.8 13.8 33.14 18.996 51.89 15.815a3.68 3.68 0 0 0 2.897-2.511c.42-1.313.07-2.75-.905-3.726l-16.39-16.39c-7.535-7.536-7.535-19.75 0-27.285l20.26-20.263c7.535-7.535 19.75-7.535 27.287 0l16.39 16.39a3.69 3.69 0 0 0 6.237-1.992c3.18-18.752-2.014-38.094-15.814-51.89-15.6-15.6-38.273-20.205-59.177-14.15l-115.8-115.812c-12.93-12.93-33.896-12.93-46.83 0zm34.64 17.472a12.14 12.14 0 0 1 0 17.167c-4.742 4.74-12.428 4.74-17.168 0a12.14 12.14 0 0 1 17.168-17.167z" fill="#bfbdc3" stroke-width="15" class="B C"/><g class="D"><path d="M147.906-189.264L17.15-320.023c-12.93-12.93-12.93-33.896 0-46.828s33.897-12.93 46.828 0l130.758 130.76zM51.787-349.38c-4.742-4.74-12.428-4.74-17.168 0a12.14 12.14 0 0 0 0 17.167c4.74 4.74 12.426 4.74 17.168 0a12.14 12.14 0 0 0 0-17.167z" fill="silver"/><path d="M118.977-218.196c4.408-10.003 10.77-19.46 19.07-27.758s17.755-14.66 27.758-19.07l28.93 28.932-46.83 46.827z" fill="#949494"/><path d="M65.868-317.755c-5.813 5.812-5.813 15.237 0 21.05l76.708 76.71 21.05-21.05-76.708-76.708c-5.814-5.815-15.238-5.815-21.05 0z" fill="#676767"/><path d="M69.473-320.413c5.616-2.95 12.722-2.065 17.446 2.657l77.3 77.302-14.79 14.788-77.3-77.3c-4.725-4.722-5.6-11.83-2.658-17.446z" fill="#949494"/><path d="M254.778-185c-.23 1.36-1.2 2.475-2.51 2.895s-2.75.07-3.726-.903l-16.39-16.388c-7.535-7.536-19.752-7.536-27.286 0l-20.26 20.262c-7.536 7.535-7.536 19.75 0 27.285l16.388 16.39c.975.975 1.325 2.413.905 3.727a3.68 3.68 0 0 1-2.897 2.51c-18.75 3.18-38.09-2.014-51.89-15.815-23.532-23.53-22.045-63.168 3.32-88.534s65.003-26.85 88.535-3.32c13.8 13.798 18.994 33.14 15.814 51.89z" fill="#d6d6d6"/></g></g><defs ><path id="C" d="M206.893-345.108c0 8.25-6.693 14.946-14.94 14.946S177-336.858 177-345.108s6.694-14.946 14.942-14.946 14.94 6.695 14.94 14.946z"/></defs></svg>