<svg xmlns="http://www.w3.org/2000/svg" xmlns:xlink="http://www.w3.org/1999/xlink" fill-rule="evenodd" stroke-linejoin="bevel" stroke-width=".501" viewBox="0 0 48 48"><defs><radialGradient id="b" cx="0" cy="0" r="280.057" gradientTransform="matrix(.125 0 0 -.094 20.528 11.342)" gradientUnits="userSpaceOnUse"><stop offset="0" stop-color="#dbe9ff"/><stop offset=".155" stop-color="#d3e9ff"/><stop offset=".75" stop-color="#4074ae"/><stop offset="1" stop-color="#36486c"/></radialGradient><path id="a" d="M206.893-345.108c0 8.25-6.693 14.946-14.94 14.946S177-336.858 177-345.108s6.694-14.946 14.942-14.946a14.95 14.95 0 0114.94 14.946z"/></defs><g fill="none" stroke-linejoin="miter"><g stroke="#39396c" stroke-width="18" transform="matrix(.125 0 0 -.125 2.34 0)"><g stroke-miterlimit="2.222"><path stroke-linecap="round" d="M209.48-345.107h95.63m-226.316 0h95.63"/><path d="M191.952-327.348v23.24"/></g><use stroke-miterlimit="79.84" xlink:href="#a"/></g><g stroke="#333" stroke-miterlimit="79.84" stroke-width="1.345"><path stroke-linecap="round" d="M28.53 43.145h11.956m-28.294 0h11.956"/><path d="M26.338 40.924V38.02"/></g></g><path fill="#1fa420" d="M26.788 44.826a1.742 1.742 0 01-2.131-1.231 1.74 1.74 0 013.362-.9 1.74 1.74 0 01-1.231 2.131z"/><g stroke-linejoin="miter"><use fill="none" stroke="#333" stroke-miterlimit="79.84" stroke-width="10.545" transform="matrix(.125 0 0 -.125 2.34 0)" xlink:href="#a"/><path fill="url(#b)" stroke="#39396c" stroke-miterlimit="99.8" stroke-width=".971" d="M45.156 19.326c0 10.392-8.43 18.832-18.84 18.832A18.82 18.82 0 017.495 19.326c0-10.4 8.43-18.84 18.832-18.84s18.84 8.43 18.84 18.84z"/></g><path fill="#204a87" fill-opacity=".714" d="M44.46 16.375l-.52.59c-.318-.376-.668-.69-1.05-1.02l-.796.116-.728-.825v1.03l.623.472.415.473.555-.628.415.785v.785l-.624.706-1.145.785-.866.866-.555-.63.287-.706-.555-.628-.935-2-.796-.9-.2.236.313 1.14.59.668 1.1 2.825c.684 0 1.33-.073 2.01-.158v.55l-.832 2.042-.763.862-.623 1.335v2.2l.2.874-.348.382-.763.472-.796.668.668.746-.9.787.175.51-1.352 1.523h-.9l-.763.472h-.476v-.63l-.207-1.26-.832-2.354.068-1.717.348-.785-.476-.942.035-1.294-.66-.746.33-1.068-.537-.612h-.937l-.3-.352-.936.59-.382-.433-.858.746-1.768-2-.692-1.65.623-.942-.347-.382.763-1.807 1.943-2.276 1.18-.315 1.317-.158.9.236 1.282 1.294.452-.5.62-.08 1.18.382h.888l.624-.55.287-.382-.624-.393-1.05-.08c-.288-.402-.558-.822-.9-1.177l-.347.15-.138 1.02-.624-.706-.138-.787-.693-.548h-.28l.694.785-.287.706-.553.156.347-.706-.624-.313-.553-.628-1.05.236-.138.313-.623.393-.347.875-.86.43-.382-.43h-.415v-1.413l.903-.472h.692l-.14-.55-.553-.55.936-.196.52-.588.415-.706h.763l-.2-.55.476-.315v.628l1.05.236 1.05-.862.07-.393.9-.628c-.326.04-.652.07-.97.157v-.708l.347-.785h-.347L34 6.1l-.2.393.2.55-.35.942-.553-.315-.485-.55-.763.55-.287-1.255 1.317-.866v-.472l.832-.55 1.317-.315.903.315 1.663.315-.415.472h-.9l.9.943.693-.785.2-.345s2.658 2.382 4.18 4.988 2.234 5.68 2.234 6.297zM27.285 5.424l-.07.472.476.315.83-.55-.415-.472-.555.315-.287-.08m.783-3.217L26.233 1.5l-2.08.236-2.576.706-.485.472 1.593 1.097v.63l-.623.63.833 1.65.554-.315.697-1.1a23.829 23.829 0 003.05-1.177l.833-2.12M29.9 8.812l-.287-.706-.476.158.14.862.623-.313m.267-.157l-.138.942.763-.157.553-.55-.485-.472a13.71 13.71 0 00-.555-1.256H29.9v.472l.287.315v.706m-10.27 14.9l-.555-1.1-1.05-.236-.555-1.5-1.385.155-1.18-.862-1.24 1.098v.175c-.378-.1-.842-.124-1.178-.33l-.287-.785v-.863l-.832.08.208-1.648h-.485l-.485.628-.485.236-.693-.382-.07-.866.14-.942 1.04-.785h.832l.138-.472 1.04.236.763.942.138-1.57 1.32-1.1.485-1.177.97-.383.553-.785 1.24-.236.623-.942h-1.874l1.18-.55h.832l1.18-.393.14-.47-.418-.394-.476-.157.14-.472L19.284 7l-.833.313.14-.626-.97-.55-.763 1.333.068.472-.763.315-.476 1.02-.208-.942-1.316-.55-.208-.706 1.734-1.02.763-.706.07-.866-.415-.236-.555-.08-.347.866-.728.15C12.574 6.953 8.725 10.74 7.83 17.892c.035.166.647 1.128.647 1.128l1.456.862 1.457.394.624.787.97.706.554-.08.415.187v.126l-.553 1.49-.418.628.14.315-.347 1.175 1.248 2.275 1.248 1.1.555.785-.07 1.65.418.942-.418 1.807s-.032-.01.02.17 2.225 1.383 2.36 1.282l.254-.194-.138-.382.553-.55.2-.55.9-.315.693-1.717-.208-.47.485-.706 1.05-.236.555-1.256-.138-1.57.832-1.175.138-1.178-3.397-1.717M18.4 5.738l.692.472h.555v-.546l-.692-.315-.555.39m-1.813-.628l-.348.866h.693l.348-.785.9-.63.693.236 1.388.942.693-.628L20.2 4.8l-.348-.708-1.316-.158-.07-.393-.624.157-.287.55-.348-.708-.138.315.07.785-.555.472m2.52-1.964l.348-.315.693-.158c.476-.23.953-.388 1.456-.55l-.287-.472-.896.13-.422.42-.696.1-.62.29-.29.146-.194.246.9.156m1.188 7.457l.418-.628-.624-.47.208 1.097"/><path fill="none" stroke="#333" stroke-linejoin="round" stroke-miterlimit="79.84" stroke-width="2.625" d="M2.684 45.316a4.71 4.71 0 010-6.661l16.473-16.473c-.86-2.973-.206-6.2 2.013-8.417 1.963-1.963 4.714-2.702 7.38-2.25a.523.523 0 01.412.357c.06.187.01.39-.13.53l-2.33 2.33a2.743 2.743 0 000 3.88l2.882 2.882a2.743 2.743 0 003.88 0l2.33-2.33a.525.525 0 01.887.283c.452 2.667-.286 5.42-2.25 7.38-2.22 2.22-5.444 2.874-8.418 2.013L9.346 45.316a4.71 4.71 0 01-6.661 0zM7.61 42.83a1.727 1.727 0 000-2.442 1.727 1.727 0 00-2.442 0A1.727 1.727 0 007.61 42.83z"/><path fill="silver" d="M21.275 20.064l-18.6 18.6a4.71 4.71 0 006.661 6.661l18.6-18.6zM7.603 42.84a1.727 1.727 0 01-2.442 0 1.727 1.727 0 010-2.442 1.727 1.727 0 012.442 0 1.727 1.727 0 010 2.442z"/><path fill="#676767" d="M9.606 38.34a2.12 2.12 0 010-2.994l10.91-10.912 2.994 2.994L12.6 38.34a2.117 2.117 0 01-2.994 0z"/><path fill="#949494" d="M10.118 38.72a2.12 2.12 0 002.482-.378l10.996-10.996-2.104-2.104-10.996 10.996a2.12 2.12 0 00-.378 2.482z"/><path fill="#d6d6d6" d="M36.477 19.457a.525.525 0 00-.887-.284l-2.33 2.33a2.743 2.743 0 01-3.88 0l-2.882-2.882a2.743 2.743 0 010-3.88l2.33-2.33a.526.526 0 00.13-.53.523.523 0 00-.412-.357c-2.667-.452-5.418.286-7.38 2.25-3.347 3.347-3.136 8.985.472 12.594s9.246 3.82 12.594.472c1.963-1.963 2.702-4.714 2.25-7.38z"/></svg>