<svg xmlns="http://www.w3.org/2000/svg" xmlns:xlink="http://www.w3.org/1999/xlink" viewBox="0 0 64 64"><defs/><defs><radialGradient id="a" cx="39.427" cy="22.252" r="25.506" gradientTransform="matrix(2.5982 0 0 1.2146 -63.137 -4.65)" gradientUnits="userSpaceOnUse"><stop offset="0" stop-color="#e6e6e6"/><stop offset="1" stop-color="#6f7c91"/></radialGradient><path id="b" d="M60.455 43.814c.02-.3-.098-.614-.32-.835L18.7 1.543a1.093 1.093 0 00-.836-.32 1.1 1.1 0 00-.794.412C7.393 13.8 8.4 31.274 19.4 42.28s28.48 12.005 40.645 2.327a1.093 1.093 0 00.411-.793z"/></defs><g transform="translate(0 .1)"><g stroke-linejoin="round" stroke-width=".984"><path fill="#535d6c" stroke="#535d6c" d="M37.245 25.207a.545.545 0 01-.774 0 .551.551 0 010-.773l5.808-5.808a.547.547 0 11.774.773zM52.45 10a.544.544 0 01-.773 0 .551.551 0 010-.773l5.808-5.808a.546.546 0 01.773 0 .551.551 0 010 .773zm-4.166 24.272a.676.676 0 01-.683.683.679.679 0 01-.682-.683V23.066c0-.377.295-.683.682-.683a.679.679 0 01.684.683zm-20.88-20.88a.683.683 0 100 1.366h11.218a.679.679 0 00.684-.683.67.67 0 00-.684-.684z"/><use fill="url(#a)" stroke="#333" xlink:href="#b"/></g><path fill="#dbdee3" d="M60.136 42.98L18.7 1.543a1.093 1.093 0 00-.836-.32 1.1 1.1 0 00-.794.412 30.64 30.64 0 00-2.849 4.286l41.535 41.545a30.399 30.399 0 004.286-2.85 1.11 1.11 0 00.411-.793 1.11 1.11 0 00-.319-.834z"/><path fill="#80b3ff" d="M49.616 22.684a1.78 1.78 0 01-2.513 0l-8.117-8.12c-.695-.695-.695-1.82 0-2.513s1.817-.694 2.5 0l8.12 8.12c.694.694.695 1.82 0 2.513z"/><path fill="#2a7fff" d="M49.616 20.183c.694.694.695 1.82 0 2.513a1.78 1.78 0 01-2.513 0l-8.117-8.12"/><path fill="#80b3ff" d="M52.95 19.36a1.78 1.78 0 01-2.513 0l-8.118-8.12a1.78 1.78 0 010-2.513 1.76 1.76 0 012.5 0l8.12 8.12a1.78 1.78 0 010 2.513z"/><g fill="#2a7fff"><path d="M52.95 16.848a1.777 1.777 0 11-2.513 2.513l-8.118-8.12"/><circle cx="50.848" cy="10.831" r="1.879"/></g><path fill="#80b3ff" d="M50.85 8.95a1.88 1.88 0 011.878 1.878 1.874 1.874 0 01-1.88 1.878"/><use fill="none" stroke="#535d6c" stroke-linejoin="round" stroke-width="2.5" xlink:href="#b"/><g fill="#373e48"><path d="M21.805 62.343v-11.83a5.38 5.38 0 00-5.382-5.383 5.385 5.385 0 00-5.383 5.383v11.83z"/><path d="M30.556 62.71a1.12 1.12 0 01-1.121 1.12H3.415a1.121 1.121 0 110-2.243h26.02a1.12 1.12 0 011.12 1.121z"/></g><circle cx="11.765" cy="45.204" r="9.557" fill="#dbdee3" stroke="#535d6c" stroke-linejoin="round" stroke-width="2.5" transform="rotate(-6.28)"/><path fill="#939dac" d="M22.13 37.44a8.29 8.29 0 01-10.366 12.935"/></g></svg>