<svg height="64" width="64" xmlns="http://www.w3.org/2000/svg" xmlns:xlink="http://www.w3.org/1999/xlink"><defs><radialGradient id="a" cx="39.427" cy="22.252" gradientTransform="matrix(2.5982 0 0 1.2146 -63.1368 -4.6493)" gradientUnits="userSpaceOnUse" r="25.506"><stop offset="0" stop-color="#e6e6e6"/><stop offset="1" stop-color="#6f7c91"/></radialGradient><path id="b" d="m60.455 43.814c.02-.3-.098-.614-.32-.835l-41.435-41.436a1.093 1.093 0 00-.836-.32 1.1 1.1 0 00-.794.412c-9.677 12.165-8.67 29.639 2.33 40.645s28.48 12.005 40.645 2.327a1.093 1.093 0 00.411-.793z"/></defs><g transform="translate(0 .1)"><g stroke-linejoin="round" stroke-width=".984"><path d="m37.245 25.207c-.214.215-.56.215-.774 0a.551.551 0 010-.773l5.808-5.808c.217-.213.56-.215.774 0s.214.56 0 .773zm15.205-15.207c-.214.215-.56.215-.773 0a.551.551 0 010-.773l5.808-5.808c.215-.213.56-.215.773 0a.551.551 0 010 .773zm-4.166 24.272c0 .377-.295.683-.683.683a.679.679 0 01-.682-.683v-11.206c0-.377.295-.683.682-.683a.679.679 0 01.684.683zm-20.88-20.88a.683.683 0 100 1.366h11.218a.679.679 0 00.684-.683.67.67 0 00-.684-.684z" fill="#535d6c" stroke="#535d6c"/><use fill="url(#a)" stroke="#333" xlink:href="#b"/></g><path d="m60.136 42.98-41.436-41.437a1.093 1.093 0 00-.836-.32 1.1 1.1 0 00-.794.412 30.64 30.64 0 00-2.849 4.286l41.535 41.545c1.484-.817 2.92-1.762 4.286-2.85a1.11 1.11 0 00.411-.793 1.11 1.11 0 00-.319-.834z" fill="#dbdee3"/><path d="m49.616 22.684a1.78 1.78 0 01-2.513 0l-8.117-8.12c-.695-.695-.695-1.82 0-2.513s1.817-.694 2.5 0l8.12 8.12c.694.694.695 1.82 0 2.513z" fill="#80b3ff"/><path d="m49.616 20.183c.694.694.695 1.82 0 2.513a1.78 1.78 0 01-2.513 0l-8.117-8.12" fill="#2a7fff"/><path d="m52.95 19.36a1.78 1.78 0 01-2.513 0l-8.118-8.12a1.78 1.78 0 010-2.513c.694-.695 1.817-.694 2.5 0l8.12 8.12a1.78 1.78 0 010 2.513z" fill="#80b3ff"/><g fill="#2a7fff"><path d="m52.95 16.848c.694.693.694 1.818 0 2.513s-1.82.694-2.513 0l-8.118-8.12"/><circle cx="50.848" cy="10.831" r="1.879"/></g><path d="m50.85 8.95a1.88 1.88 0 011.878 1.878c.001 1.04-.84 1.88-1.88 1.878" fill="#80b3ff"/><use fill="none" stroke="#535d6c" stroke-linejoin="round" stroke-width="2.5" xlink:href="#b"/><g fill="#373e48"><path d="m21.805 62.343v-11.83a5.38 5.38 0 00-5.382-5.383 5.385 5.385 0 00-5.383 5.383v11.83z"/><path d="m30.556 62.71a1.12 1.12 0 01-1.121 1.12h-26.02a1.121 1.121 0 110-2.243h26.02a1.12 1.12 0 011.12 1.121z"/></g><circle cx="11.765" cy="45.204" fill="#dbdee3" r="9.557" stroke="#535d6c" stroke-linejoin="round" stroke-width="2.5" transform="matrix(.994 -.1096 .1096 .994 0 0)"/><path d="m22.13 37.44a8.29 8.29 0 01-10.366 12.935" fill="#939dac"/></g></svg>