<svg xmlns="http://www.w3.org/2000/svg" height="64" width="64"><path d="M35.502 24.363c-.217.218-.568.218-.786 0a.56.56 0 0 1 0-.785l5.9-5.9c.22-.216.57-.218.786 0s.217.57 0 .785zM50.947 8.918c-.217.218-.568.218-.785 0a.56.56 0 0 1 0-.785l5.9-5.9c.218-.216.57-.218.785 0a.56.56 0 0 1 0 .785zm-4.232 24.654c0 .383-.3.694-.694.694a.69.69 0 0 1-.693-.694V22.188c0-.383.3-.694.693-.694a.69.69 0 0 1 .695.694zm-21.21-21.21a.69.69 0 1 0 0 1.388H36.9a.69.69 0 0 0 .695-.694c.001-.394-.3-.694-.695-.695z" fill="#6c9c9e" stroke="#6c9c9e"/><path d="M59.077 43.263c.02-.315-.1-.624-.324-.848L16.665.326a1.11 1.11 0 0 0-.849-.325c-.315.018-.608.17-.807.418-9.83 12.358-8.817 30.107 2.365 41.287S46.303 53.9 58.66 44.07a1.11 1.11 0 0 0 .417-.806z" fill="#7da4ad"/><path d="M15.816.002c-.315.018-.608.17-.807.418-9.83 12.358-8.817 30.107 2.365 41.287.04.04.083.08.125.12h7.675V8.836l-8.5-8.5a1.11 1.11 0 0 0-.848-.325z" fill="#88b1b7"/><path d="M58.753 42.415L16.665.326a1.11 1.11 0 0 0-.849-.325c-.315.018-.608.17-.807.418-1.104 1.388-2.063 2.847-2.894 4.354l42.19 42.2c1.507-.83 2.965-1.79 4.354-2.895.247-.197.4-.5.417-.806s-.1-.623-.324-.847z" fill="#527275"/><path d="M15.01.42c-1.104 1.388-2.063 2.847-2.894 4.354l42.19 42.2c1.507-.83 2.965-1.79 4.354-2.895" fill="#2b4649"/><path d="M13.447 2.574l-1.33 2.2L25.174 17.83v-7.247L15.01.42l-1.513 2.085-.05.07z" fill="#426166"/><path d="M48.067 21.8c-.705.705-1.847.705-2.553 0l-8.245-8.247c-.706-.706-.706-1.848 0-2.553s1.846-.705 2.55 0l8.247 8.247c.705.705.706 1.848 0 2.553z" fill="#ef43a6"/><path d="M48.067 19.26c.705.705.706 1.848 0 2.553s-1.847.705-2.553 0l-8.245-8.247" fill="#dd1f83"/><path d="M51.454 18.424c-.706.705-1.848.705-2.553 0l-8.246-8.247c-.705-.706-.705-1.847 0-2.553s1.846-.705 2.55 0l8.247 8.247c.705.705.705 1.848 0 2.553z" fill="#ef43a6"/><path d="M51.454 15.872c.705.704.705 1.847 0 2.553s-1.848.705-2.553 0l-8.246-8.247" fill="#dd1f83"/><circle cx="49.319" cy="9.761" fill="#ef43a6" r="1.909"/><path d="M49.32 7.85a1.91 1.91 0 0 1 1.908 1.908c.001 1.055-.854 1.91-1.91 1.908" fill="#dd1f83"/><g fill="#abd0d6" opacity=".746" stroke="#abd0d6" stroke-width="2.122"><circle cx="13.305" cy="15.875" r=".902"/><circle cx="17.574" cy="20.143" r=".902"/><circle cx="21.849" cy="24.413" r=".902"/><circle cx="26.114" cy="28.681" r=".902"/><circle cx="30.379" cy="32.951" r=".902"/><circle cx="34.655" cy="37.219" r=".902"/><circle cx="38.92" cy="41.489" r=".902"/><circle cx="43.186" cy="45.757" r=".903"/></g><path d="M23.036 62.62V51.637c0-2.76-2.234-4.998-4.997-4.998a5 5 0 0 0-4.998 4.998V62.62z" fill="#88b1b7"/><path d="M23.036 62.62V51.637c0-2.76-2.234-4.998-4.997-4.998a5 5 0 0 0-4.998 4.998" fill="#679899"/><path d="M18.04 46.64a5 5 0 0 0-4.997 4.984 7.11 7.11 0 0 0 4.997 2.049c1.95 0 3.71-.783 4.997-2.048a5 5 0 0 0-4.997-4.985z" fill="#548282"/><circle cx="18.041" cy="41.929" fill="#abd0d6" r="8.873"/><path d="M24.314 35.657c3.465 3.464 3.465 9.08 0 12.546s-9.082 3.466-12.547 0" fill="#99c4c6"/><circle cx="18.041" cy="41.929" fill="#abd0d6" r="8.873"/><path d="M24.323 35.675c3.466 3.465 3.466 9.085 0 12.55s-9.086 3.468-12.552 0" fill="#99c4c6"/><circle cx="18.039" cy="41.931" fill="#7da4ad" r="5.011"/><path d="M21.582 45.475a5.01 5.01 0 0 1-7.086 0c-1.956-1.957-1.96-5.13 0-7.088" fill="#88b1b7"/><path d="M31.16 62.96A1.04 1.04 0 0 1 30.119 64H5.962a1.04 1.04 0 1 1 0-2.082H30.12a1.04 1.04 0 0 1 1.04 1.041z" fill="#2b4649"/></svg>