<svg height="64" width="64" xmlns="http://www.w3.org/2000/svg"><path d="m9.7 0c-1.07 0-2.13.43-2.92 1.22a2.13 2.13 0 0 0 -.01.01l-5.57 5.62c-1.58 1.58-1.58 4.27 0 5.85a2.13 2.13 0 0 0 .01.01l19.44 19.29-19.45 19.34a2.13 2.13 0 0 0 0 0c-1.58 1.58-1.58 4.27 0 5.85l5.62 5.62c1.58 1.58 4.27 1.58 5.85 0l19.44-19.3 19.2 19.3a2.13 2.13 0 0 0 0 0c1.58 1.58 4.27 1.58 5.85 0l5.62-5.62c1.58-1.58 1.58-4.26 0-5.85l-19.24-19.34 19.2-19.3c1.62-1.6 1.65-4.3-.04-5.9l-5.58-5.6c-1.58-1.58-4.26-1.58-5.85 0a2.13 2.13 0 0 0 -.01.01l-19.14 19.3-19.5-19.3c-.79-.78-1.85-1.21-2.92-1.21z" fill="#f00"/></svg>