<svg xmlns="http://www.w3.org/2000/svg" viewBox="0 0 502 502"><defs><linearGradient id="a" x1="208.6" x2="208.6" y1="34.3" y2="81.9" gradientUnits="userSpaceOnUse"><stop offset="0" stop-color="#ececec"/><stop offset="1" stop-color="#ccc"/></linearGradient></defs><linearGradient id="b" x1="184.2" x2="184.2" y1="521.8" y2="-343.9" gradientUnits="userSpaceOnUse"><stop offset="0" stop-color="#fd5"/><stop offset="1" stop-color="#fd5" stop-opacity="0"/></linearGradient><path fill="#fffff5" d="M383.8 120.2h-33.1V42.4h-93v40h-129v-40h-93v386H192v57h262.2V190.6z"/><path fill="url(#a)" d="M231.7 49V36.6A26.6 26.6 0 00205.1 10h-11.8a26.6 26.6 0 00-26.6 26.6V49h-32v40h129V49z"/><path fill="url(#b)" d="M49.7 53.7a3.3 3.3 0 00-3.3 3.3v370a3.3 3.3 0 003.3 3.3h140.4a3.3 3.3 0 003.3-3.3V126.6c0-2 2-4.2 4-4.4l7.8-.1h143.5a3.3 3.3 0 003.3-3.3V57a3.3 3.3 0 00-3.3-3.3h-77a3.3 3.3 0 00-3.3 3.3v32.4c-.1 2-2.1 4-4.1 4.2H134.5c-2 0-4.2-2-4.4-4V57a3.3 3.3 0 00-3.4-3.3z"/><g fill="none" stroke="#fff" stroke-opacity=".7"><path stroke-width="7.9" d="M348.7 54.4V428"/><path stroke-linecap="round" stroke-linejoin="round" stroke-width="7.8" d="M49.7 56v368"/></g><path fill="#1a1a1a" d="M203.7 3.4h-12.6c-9.6.6-18.7 5.7-24.3 13.5a32.8 32.8 0 00-4.8 9.7l-.4 1.5c-.8 3.3-1 6.8-1 10.2v4l-119.4.1a6 6 0 00-5.5 6.1v386.2a6 6 0 006 5.7h150.4V492a6 6 0 006.3 5.4h262.3a6 6 0 005.5-6.1v-295c0-2-1.4-3.7-2.8-5l-69.8-69.7c-1.5-1.4-3.6-1.6-5.5-1.4h-25.4V47.8a6 6 0 00-6.3-5.4H237.6c0-4.9.4-9.9-1-14.6a32.8 32.8 0 00-33-24.4zm-4 12c2.8 0 5.6-.1 8.3.2a20.8 20.8 0 0117.7 22.8v11a6 6 0 006.4 5h25.6v28h-117v-28h51.6a6 6 0 005.4-6.5 6 6 0 00-5.8-5.5h-19.2c0-4.3-.4-8.8 1-13 2.5-7.3 9.4-13 17-13.9 3-.3 6 0 9-.1zm-150 39h79V89a6 6 0 006.3 5.3h129.3a6 6 0 005.4-6.2V54.4h81V120h-153a6 6 0 00-5.6 6.2v302.1H47.7v-374h2zM206 132.2h177.7v65a6 6 0 006.2 5.4H454.3v282.8H204V132.2h2zM399.2 144l46.6 46.5h-50v-50l3.4 3.5z"/></svg>