<svg xmlns="http://www.w3.org/2000/svg" viewBox="0 0 64 64"><defs><linearGradient id="a" x1="208.6" x2="208.6" y1="34.3" y2="81.9" gradientUnits="userSpaceOnUse"><stop offset="0" stop-color="#ececec"/><stop offset="1" stop-color="#ccc"/></linearGradient></defs><linearGradient id="b" x1="184.2" x2="184.2" y1="521.8" y2="-343.9" gradientUnits="userSpaceOnUse"><stop offset="0" stop-color="#fd5"/><stop offset="1" stop-color="#fd5" stop-opacity="0"/></linearGradient><path fill="#fffff5" d="M48.7 15.7h-4.2V5.9H32.8v5H16.7V6H5v48.4h19.6v7.2h33v-37z"/><path fill="url(#a)" d="M231.7 49V36.6A26.6 26.6 0 00205.1 10h-11.8a26.6 26.6 0 00-26.6 26.6V49h-32v40h129V49z" transform="translate(.5 .6) scale(.1255)"/><path fill="url(#b)" d="M49.7 53.7a3.3 3.3 0 00-3.3 3.3v370a3.3 3.3 0 003.3 3.3h140.4a3.3 3.3 0 003.3-3.3V126.6c0-2 2-4.2 4-4.4l7.8-.1h143.5a3.3 3.3 0 003.3-3.3V57a3.3 3.3 0 00-3.3-3.3h-77a3.3 3.3 0 00-3.3 3.3v32.4c-.1 2-2.1 4-4.1 4.2H134.5c-2 0-4.2-2-4.4-4V57a3.3 3.3 0 00-3.4-3.3z" transform="translate(.5 .6) scale(.1255)"/><g fill="none" stroke="#fff" stroke-opacity=".7"><path d="M44.3 7.4v46.9"/><path stroke-linecap="round" stroke-linejoin="round" d="M6.7 7.6v46.2"/></g><path fill="#1a1a1a" d="M26 1h-1.5c-1.2 0-2.4.7-3 1.7a4.1 4.1 0 00-.7 1.2v.2l-.1 1.3v.5h-15a.8.8 0 00-.7.8V55a.8.8 0 00.7.7h19v6.5a.8.8 0 00.7.7h33a.8.8 0 00.6-.8v-37l-.3-.6-8.8-8.8c-.2-.1-.4-.2-.7-.1H46v-9a.8.8 0 00-.8-.7H30.3l-.1-1.8A4.1 4.1 0 0026.1 1zm-.4 1.5h1a2.6 2.6 0 012.2 2.9v1.4a.8.8 0 00.8.6h3.2v3.5H18.2V7.4h6.4a.8.8 0 00.7-.8.8.8 0 00-.7-.7h-2.4l.1-1.6c.3-1 1.2-1.7 2.1-1.8h1.2zM6.7 7.4h10v4.3a.8.8 0 00.7.7h16.3a.8.8 0 00.7-.8V7.4h10.1v8.2H25.3a.8.8 0 00-.7.8v38H6.5v-47h.2zm19.7 9.8h22.3v8.1a.8.8 0 00.7.7h8.1v35.5H26.1V17.2zm24.2 1.4l5.9 5.9h-6.3v-6.3z"/></svg>