<svg xmlns="http://www.w3.org/2000/svg" viewBox="0 0 502 502"><defs><linearGradient id="a" x1="208.635" x2="208.635" y1="34.257" y2="81.853" gradientUnits="userSpaceOnUse"><stop offset="0" stop-color="#ececec"/><stop offset="1" stop-color="#ccc"/></linearGradient></defs><linearGradient id="b" x1="184.156" x2="184.156" y1="521.799" y2="-343.914" gradientUnits="userSpaceOnUse"><stop offset="0" stop-color="#fd5"/><stop offset="1" stop-color="#fd5" stop-opacity="0"/></linearGradient><path fill="#fffff5" d="M383.783 120.157h-33.1v-77.78h-93v40h-129v-40h-93v386H192.08v57h262.17V190.625z"/><path fill="url(#a)" d="M231.72 49V36.6c0-14.685-11.905-26.6-26.6-26.6H193.3c-14.686 0-26.6 11.905-26.6 26.6V49h-32v40h129V49z"/><path fill="url(#b)" d="M49.723 53.686A3.315 3.315 0 0046.408 57v370a3.315 3.315 0 003.314 3.314h140.385a3.315 3.315 0 003.314-3.314l.006-300.443c.02-1.996 1.978-4.158 3.963-4.4l7.77-.062h143.563a3.315 3.315 0 003.314-3.314V57a3.315 3.315 0 00-3.314-3.314h-77a3.315 3.315 0 00-3.314 3.311l-.022 32.393c-.092 2-2.113 4.077-4.105 4.258l-14.7.04c-38.377-.007-76.753.014-115.125-.012-1.995-.042-4.134-2.026-4.354-4.014-.114-2.97-.02-6.074-.055-9.305V57a3.315 3.315 0 00-3.314-3.314z"/><g fill="none" stroke="#fff" stroke-opacity=".65"><path stroke-width="7.937" d="M348.695 54.378v373.625"/><path stroke-linecap="round" stroke-linejoin="round" stroke-width="7.816" d="M49.695 56.085v367.918"/></g><path fill="#1a1a1a" d="M203.7 3.378c-4.195.027-8.393-.065-12.585.067-9.572.586-18.723 5.7-24.3 13.5a32.8 32.8 0 00-4.769 9.678l-.408 1.484c-.874 3.32-1.044 6.77-.963 10.187v4.085c-39.83.003-79.658-.015-119.487.02-3.056.18-5.7 3.068-5.492 6.15l-.02 26.2.01 359.987c.105 3.1 2.98 5.8 6.093 5.636l29.356.017h120.927l.027 51.635c.273 3.046 3.192 5.604 6.268 5.348l262.3.004c3.05-.16 5.72-3 5.545-6.083l.02-26.658-.012-268.352c-.065-2.02-1.368-3.72-2.84-4.986l-69.773-69.738c-1.495-1.318-3.583-1.52-5.5-1.4h-25.443l-.025-72.4c-.255-3.026-3.13-5.6-6.186-5.373l-118.795-.017c-.025-4.868.303-9.833-1.028-14.577-2.567-10.107-10.307-18.722-20.1-22.34-4.1-1.543-8.495-2.216-12.86-2.084zm-3.928 11.994c2.738.053 5.493-.1 8.218.206 7.28.983 13.795 6.188 16.355 13.074 1.2 3.103 1.464 6.472 1.34 9.772.032 3.648-.08 7.302.073 10.945.453 2.928 3.34 5.28 6.318 4.984l25.607.025v28h-117v-28l51.633-.027c3.137-.277 5.707-3.352 5.354-6.498-.243-2.912-2.822-5.456-5.784-5.46-2.53-.04-5.065.01-7.598-.015h-11.604c.094-4.32-.43-8.796 1.064-12.95 2.405-7.37 9.306-13.048 17.027-13.9 2.984-.3 6-.085 8.996-.164zM49.695 54.378h79l.035 34.674c.283 3.027 3.2 5.566 6.256 5.303l29.963.024 99.307-.024c3.042-.225 5.65-3.114 5.417-6.187l.022-33.8h81v65.78c-51.028.004-102.056-.01-153.084.016-3.07.176-5.727 3.07-5.5 6.166l-.02 26.477V428.37H47.695v-374h2zm156.385 77.78h177.703l.027 65.1c.262 3.015 3.13 5.582 6.18 5.357l29.15.022h35.112V485.39H204.08V132.17h2zm193.12 11.9l46.568 46.568h-49.982v-49.982l3.414 3.414z"/></svg>