<svg xmlns="http://www.w3.org/2000/svg" viewBox="0 0 64 64"><circle cx="32.366" cy="20.245" r="4.015" fill="#eeb490"/><circle cx="53.298" cy="20.245" r="4.015" fill="#eeb490"/><path fill="#48886e" d="M64 51.467H21.66v-7.583a7 7 0 016.107-6.931l9.333-3.706h11.46l9.333 3.706c3.5.412 6.107 3.397 6.107 6.93z"/><path fill="#faccb4" d="M48.148 9.573H37.512a4.525 4.525 0 00-4.53 4.53v10.2a9.85 9.85 0 009.847 9.847 9.85 9.85 0 009.847-9.847v-10.2a4.525 4.525 0 00-4.53-4.53z"/><path fill="#56545f" d="M52.677 5.352s7.583.995 0 15.303v-5.867s-.55-4.22-3.122-4.46z"/><path fill="#56545f" d="M47.53 0h-9.4a5.68 5.68 0 00-1.098.103c-14.205 0-4.05 21.273-4.05 21.273 0-8.2 5.147-8.235 5.147-8.235h9.436a6.552 6.552 0 006.553-6.553A6.59 6.59 0 0047.531 0z"/><circle cx="10.338" cy="33.876" r="3.876" fill="#eeb490"/><circle cx="30.545" cy="33.876" r="3.876" fill="#eeb490"/><path fill="#9d9072" d="M40.86 64H0v-7.318c0-3.41 2.55-6.258 5.894-6.69l9.007-3.576h11.06l9.007 3.576c3.377.397 5.894 3.278 5.894 6.69z"/><path fill="#807576" d="M12.98 48.37v3.278c0 4.172 3.41 7.682 7.583 7.616 4.04-.066 7.285-3.377 7.285-7.45V48.37a2.15 2.15 0 00-2.152-2.152H15.1c-1.16.033-2.12.993-2.12 2.152z"/><path fill="#eeb490" d="M15.33 43.67v5.43c0 2.815 2.285 5.1 5.1 5.1s5.1-2.285 5.1-5.1v-5.43z"/><path fill="#faccb4" d="M25.563 23.57H15.298a4.37 4.37 0 00-4.371 4.371v9.834c0 5.265 4.27 9.503 9.503 9.503 5.265 0 9.503-4.27 9.503-9.503V27.94a4.366 4.366 0 00-4.37-4.37z"/><path fill="#56545f" d="M29.934 19.497s7.318.96 0 14.768v-5.662s-.53-4.073-3.013-4.305z"/><path fill="#56545f" d="M24.967 14.33h-9.073a5.48 5.48 0 00-1.06.099c-13.71 0-3.907 20.53-3.907 20.53 0-7.914 4.967-7.947 4.967-7.947H25c3.5 0 6.324-2.848 6.324-6.324a6.36 6.36 0 00-6.358-6.358z"/><path fill="#f9f9f9" stroke="#666" stroke-linejoin="round" stroke-width="2.278" d="M42.919 36.729c3.496-.113 6.443 3.488 5.623 6.893-.596 3.431-4.682 5.606-7.852 4.133-3.147-1.219-4.53-5.425-2.678-8.258 1.014-1.689 2.932-2.787 4.907-2.768zm-4.092-14.627c-1.349.156-.935 1.745-1.14 2.698l-.321 3.54-4.035 1.99c-1.647-.695-3.224-1.605-4.917-2.162-1.156.153-1.361 1.553-1.991 2.36-1.055 1.907-2.28 3.735-3.224 5.693.084 1.226 1.516 1.588 2.315 2.329l2.497 1.776-.302 4.493c-1.494 1.079-3.122 2.002-4.529 3.182-.496 1.108.654 2.019 1.059 2.99 1.13 1.863 2.124 3.821 3.341 5.623.943.52 1.871-.46 2.784-.731l3.103-1.428 3.78 2.994c.208 1.611.171 3.279.539 4.853.714.918 2.024.397 3.037.534 2.18-.043 4.375.088 6.544-.068.98-.576.58-1.908.804-2.87l.299-3.297 4.035-1.992c1.647.696 3.223 1.609 4.915 2.166 1.155-.155 1.361-1.554 1.991-2.362 1.055-1.907 2.28-3.735 3.224-5.693-.097-1.209-1.489-1.623-2.268-2.39l-2.248-1.717.298-4.499c1.431-1.075 2.987-2.009 4.338-3.176.5-1.111-.665-2.012-1.078-2.979-1.154-1.868-2.184-3.824-3.42-5.634-.944-.517-1.871.461-2.785.733l-3.101 1.426-3.736-2.506c-.224-1.773-.199-3.602-.583-5.338-.713-.921-2.024-.398-3.037-.536h-6.189z"/></svg>