<svg xmlns="http://www.w3.org/2000/svg" viewBox="0 0 64 64"><defs/><g fill="#eeb490"><circle cx="32.366" cy="20.245" r="4.015"/><circle cx="53.298" cy="20.245" r="4.015"/></g><path fill="#48886e" d="M64 51.467H21.66v-7.583a7 7 0 016.107-6.931l9.333-3.706h11.46l9.333 3.706c3.5.412 6.107 3.397 6.107 6.93z"/><path fill="#3b745c" d="M35.1 35.272v3.397c0 4.323 3.534 7.96 7.857 7.892 4.186-.07 7.548-3.5 7.548-7.72v-3.568c0-1.235-.995-2.23-2.23-2.23h-10.98c-1.2.034-2.196 1.03-2.196 2.23z"/><path fill="#eeb490" d="M37.546 30.4v5.627a5.29 5.29 0 005.284 5.284 5.29 5.29 0 005.284-5.284V30.4z"/><path fill="#faccb4" d="M48.148 9.573H37.512a4.525 4.525 0 00-4.53 4.53v10.2a9.85 9.85 0 009.847 9.847 9.85 9.85 0 009.847-9.847v-10.2a4.525 4.525 0 00-4.53-4.53z"/><g fill="#56545f"><path d="M52.68 5.353s7.583.995 0 15.304V14.79s-.55-4.22-3.123-4.46z"/><path d="M47.533 0H38.13a5.68 5.68 0 00-1.098.103c-14.206 0-4.05 21.275-4.05 21.275 0-8.2 5.147-8.235 5.147-8.235h9.436a6.553 6.553 0 006.554-6.554A6.59 6.59 0 0047.533 0z"/></g><g fill="#eeb490"><circle cx="10.338" cy="33.876" r="3.876"/><circle cx="30.545" cy="33.876" r="3.876"/></g><path fill="#9d9072" d="M40.86 64H0v-7.318c0-3.41 2.55-6.258 5.894-6.69l9.007-3.576h11.06l9.007 3.576c3.377.397 5.894 3.278 5.894 6.69z"/><path fill="#807576" d="M12.98 48.37v3.278c0 4.172 3.4 7.682 7.583 7.616 4.04-.066 7.285-3.377 7.285-7.45V48.37a2.15 2.15 0 00-2.152-2.152H15.1c-1.16.033-2.12.993-2.12 2.152z"/><path fill="#eeb490" d="M15.33 43.67v5.43c0 2.815 2.285 5.1 5.1 5.1s5.1-2.285 5.1-5.1v-5.43z"/><path fill="#faccb4" d="M25.563 23.57H15.298a4.37 4.37 0 00-4.371 4.371v9.834c0 5.265 4.272 9.503 9.503 9.503 5.265 0 9.503-4.272 9.503-9.503V27.94a4.366 4.366 0 00-4.37-4.37z"/><g fill="#56545f"><path d="M29.95 19.5s7.32.96 0 14.775V28.61s-.53-4.075-3.015-4.306z"/><path d="M24.98 14.33h-9.077a5.48 5.48 0 00-1.06.099c-13.715 0-3.91 20.54-3.91 20.54 0-7.917 4.97-7.95 4.97-7.95h9.1a6.33 6.33 0 006.327-6.327c0-3.51-2.85-6.36-6.36-6.36z"/></g></svg>