<svg height="64" width="64" xmlns="http://www.w3.org/2000/svg" xmlns:xlink="http://www.w3.org/1999/xlink"><defs><path id="a" d="m58.066 45.736c.1-.627.18-1.255.18-1.972s-.1-1.344-.18-1.972l4.033-2.868c.358-.27.538-.807.27-1.255l-3.944-6.632c-.27-.448-.717-.627-1.165-.358l-4.48 2.062a16.02 16.02 0 00-3.406-1.972l-.448-4.93c-.1-.448-.448-.807-.896-.807h-7.7c-.448 0-.896.358-.896.807l-.448 4.93c-1.255.538-2.42 1.165-3.406 1.972l-4.482-2.06c-.448-.18-.986 0-1.165.358l-3.854 6.633c-.27.448-.1.986.27 1.255l4.033 2.868c-.1.627-.18 1.255-.18 1.972s.1 1.344.18 1.972l-4.213 2.868c-.358.27-.538.806-.27 1.255l3.854 6.633c.27.448.717.627 1.165.358l4.482-2.063a16.07 16.07 0 003.406 1.972l.448 4.93c.1.448.448.807.896.807h7.708c.448 0 .896-.358.896-.807l.448-4.93c1.255-.538 2.42-1.165 3.406-1.972l4.48 2.062c.448.18.986 0 1.165-.358l3.854-6.633c.27-.448.1-.986-.27-1.255zm-13.982 7c-4.93 0-8.963-4.033-8.963-8.963s4.033-8.963 8.963-8.963 8.963 4.033 8.963 8.963-4.033 8.963-8.963 8.963z"/><path id="b" d="m44.083 33.008c-5.916 0-10.756 4.84-10.756 10.756s4.84 10.756 10.756 10.756 10.757-4.84 10.757-10.756a10.79 10.79 0 00-10.756-10.756zm0 15.237a4.44 4.44 0 01-4.48-4.48c0-2.508 1.972-4.48 4.48-4.48s4.48 1.972 4.48 4.48-1.972 4.48-4.48 4.48z"/></defs><g fill="#eeb490" stroke-width=".1012"><circle cx="32.3664" cy="20.2454" r="4.0148"/><circle cx="53.2981" cy="20.2454" r="4.0148"/></g><path d="m64 51.467h-42.34v-7.583a7 7 0 016.107-6.931l9.333-3.706h11.46l9.333 3.706c3.5.412 6.107 3.397 6.107 6.93z" fill="#48886e"/><path d="m35.1 35.272v3.397c0 4.323 3.534 7.96 7.857 7.892 4.186-.07 7.548-3.5 7.548-7.72v-3.568c0-1.235-.995-2.23-2.23-2.23h-10.98c-1.2.034-2.196 1.03-2.196 2.23z" fill="#3b745c"/><path d="m37.546 30.4v5.627a5.29 5.29 0 005.284 5.284 5.29 5.29 0 005.284-5.284v-5.627z" fill="#eeb490"/><path d="m48.148 9.573h-10.636c-2.505 0-4.53 2.024-4.53 4.53v10.2a9.85 9.85 0 009.847 9.847 9.85 9.85 0 009.847-9.847v-10.2c0-2.505-2.024-4.53-4.53-4.53z" fill="#faccb4"/><g fill="#56545f"><path d="m52.677 5.352s7.583.995 0 15.303v-5.867s-.55-4.22-3.122-4.46z"/><path d="m47.53 0h-9.4a5.68 5.68 0 00-1.098.103c-14.205 0-4.05 21.273-4.05 21.273 0-8.2 5.147-8.235 5.147-8.235h9.436c3.637 0 6.553-2.95 6.553-6.553a6.59 6.59 0 00-6.587-6.588z"/></g><g fill="#eeb490" stroke-width=".0977"><circle cx="10.3377" cy="33.8764" r="3.876"/><circle cx="30.5454" cy="33.8764" r="3.876"/></g><path d="m40.86 64h-40.86v-7.318c0-3.41 2.55-6.258 5.894-6.69l9.007-3.576h11.06l9.007 3.576c3.377.397 5.894 3.278 5.894 6.69z" fill="#9d9072"/><path d="m12.98 48.37v3.278c0 4.172 3.41 7.682 7.583 7.616 4.04-.066 7.285-3.377 7.285-7.45v-3.444a2.15 2.15 0 00-2.152-2.152h-10.596c-1.16.033-2.12.993-2.12 2.152z" fill="#807576"/><path d="m15.33 43.67v5.43c0 2.815 2.285 5.1 5.1 5.1s5.1-2.285 5.1-5.1v-5.43z" fill="#eeb490"/><path d="m25.563 23.57h-10.265a4.37 4.37 0 00-4.371 4.371v9.834c0 5.265 4.27 9.503 9.503 9.503 5.265 0 9.503-4.27 9.503-9.503v-9.835c0-2.417-1.954-4.37-4.37-4.37z" fill="#faccb4"/><g fill="#56545f"><path d="m29.934 19.497s7.318.96 0 14.768v-5.662s-.53-4.073-3.013-4.305z"/><path d="m24.967 14.33h-9.073a5.48 5.48 0 00-1.06.099c-13.71 0-3.907 20.53-3.907 20.53 0-7.914 4.967-7.947 4.967-7.947h9.106c3.5 0 6.324-2.848 6.324-6.324a6.36 6.36 0 00-6.358-6.358z"/></g><g stroke="#666" stroke-linejoin="round" stroke-width="3"><use fill="#ccc" xlink:href="#a"/><use fill="#e6e6e6" xlink:href="#b"/></g><use fill="#ccc" xlink:href="#a"/><use fill="#e6e6e6" xlink:href="#b"/></svg>