<svg height="64" width="64" xmlns="http://www.w3.org/2000/svg"><circle cx="32.3664" cy="20.2454" fill="#eeb490" r="4.0148" stroke-width=".1012"/><circle cx="53.2981" cy="20.2454" fill="#eeb490" r="4.0148" stroke-width=".1012"/><path d="m64 51.467h-42.34v-7.583a7 7 0 016.107-6.931l9.333-3.706h11.46l9.333 3.706c3.5.412 6.107 3.397 6.107 6.93z" fill="#48886e"/><path d="m48.148 9.573h-10.636c-2.505 0-4.53 2.024-4.53 4.53v10.2a9.85 9.85 0 009.847 9.847 9.85 9.85 0 009.847-9.847v-10.2c0-2.505-2.024-4.53-4.53-4.53z" fill="#faccb4"/><path d="m52.677 5.352s7.583.995 0 15.303v-5.867s-.55-4.22-3.122-4.46z" fill="#56545f"/><path d="m47.53 0h-9.4a5.68 5.68 0 00-1.098.103c-14.205 0-4.05 21.273-4.05 21.273 0-8.2 5.147-8.235 5.147-8.235h9.436c3.637 0 6.553-2.95 6.553-6.553a6.59 6.59 0 00-6.587-6.588z" fill="#56545f"/><circle cx="10.3377" cy="33.8764" fill="#eeb490" r="3.876" stroke-width=".0977"/><circle cx="30.5454" cy="33.8764" fill="#eeb490" r="3.876" stroke-width=".0977"/><path d="m40.86 64h-40.86v-7.318c0-3.41 2.55-6.258 5.894-6.69l9.007-3.576h11.06l9.007 3.576c3.377.397 5.894 3.278 5.894 6.69z" fill="#9d9072"/><path d="m12.98 48.37v3.278c0 4.172 3.41 7.682 7.583 7.616 4.04-.066 7.285-3.377 7.285-7.45v-3.444a2.15 2.15 0 00-2.152-2.152h-10.596c-1.16.033-2.12.993-2.12 2.152z" fill="#807576"/><path d="m15.33 43.67v5.43c0 2.815 2.285 5.1 5.1 5.1s5.1-2.285 5.1-5.1v-5.43z" fill="#eeb490"/><path d="m25.563 23.57h-10.265a4.37 4.37 0 00-4.371 4.371v9.834c0 5.265 4.27 9.503 9.503 9.503 5.265 0 9.503-4.27 9.503-9.503v-9.835c0-2.417-1.954-4.37-4.37-4.37z" fill="#faccb4"/><path d="m29.934 19.497s7.318.96 0 14.768v-5.662s-.53-4.073-3.013-4.305z" fill="#56545f"/><path d="m24.967 14.33h-9.073a5.48 5.48 0 00-1.06.099c-13.71 0-3.907 20.53-3.907 20.53 0-7.914 4.967-7.947 4.967-7.947h9.106c3.5 0 6.324-2.848 6.324-6.324a6.36 6.36 0 00-6.358-6.358z" fill="#56545f"/><path d="m42.919 36.7292c3.4957-.1127 6.4433 3.4875 5.6233 6.893-.5959 3.4311-4.6823 5.6062-7.8517 4.1333-3.1466-1.2186-4.5303-5.4251-2.6784-8.258 1.0139-1.6892 2.9318-2.7873 4.9068-2.7683zm-4.0921-14.6268c-1.3487.1555-.9346 1.7447-1.1396 2.6983-.1071 1.18-.2141 2.3599-.3212 3.5399l-4.035 1.9899c-1.6472-.6953-3.2243-1.6052-4.9168-2.162-1.1559.153-1.3606 1.5528-1.9913 2.3603-1.0548 1.9069-2.2802 3.7348-3.224 5.6931.0843 1.2257 1.5158 1.588 2.315 2.3287l2.4969 1.7759-.302 4.4926c-1.4942 1.0785-3.1216 2.0016-4.5289 3.1816-.4955 1.1079.6544 2.0185 1.0591 2.9904 1.1296 1.8633 2.1239 3.8207 3.3414 5.6229.943.5196 1.8714-.4596 2.7843-.7314l3.1028-1.4277 3.78 2.9935c.2083 1.611.1708 3.2785.5389 4.8527.7141.9182 2.0238.3967 3.037.5344 2.1795-.0429 4.3753.0875 6.5441-.0684.9797-.5759.5798-1.9076.8039-2.8704l.2992-3.2973 4.0349-1.9917c1.6466.6963 3.2226 1.6088 4.9148 2.1657 1.1554-.1554 1.3605-1.554 1.9913-2.3621 1.0549-1.9068 2.2799-3.7347 3.224-5.6928-.0972-1.2087-1.4894-1.6228-2.2684-2.3901l-2.2483-1.7169.2977-4.4987c1.4312-1.0754 2.9868-2.0086 4.3378-3.1757.5005-1.1108-.665-2.0122-1.0782-2.9791-1.1541-1.868-2.1838-3.8235-3.4201-5.6337-.9435-.5166-1.8714.4609-2.7845.7329l-3.1005 1.4259-3.736-2.5062c-.2236-1.7726-.1993-3.6023-.5829-5.3381-.7127-.9208-2.0236-.3983-3.037-.5362h-6.1885z" fill="#f9f9f9" stroke="#666" stroke-linejoin="round" stroke-width="2.2782"/></svg>