<svg xmlns="http://www.w3.org/2000/svg" viewBox="0 0 64 64"><defs/><path fill="#53676c" d="M32.6 4.14c-10.66-.12-21 6.47-25.38 16.2-4.6 9.6-3 21.77 3.96 29.84 6.75 8.2 18.4 11.88 28.65 9.02 10.34-2.64 18.63-11.7 20.35-22.22 1.96-10.47-2.75-21.8-11.56-27.8C43.97 5.9 38.3 4.13 32.6 4.14zm0 6.07c8.38-.1 16.5 5.1 19.92 12.74 3.58 7.54 2.3 17.06-3.2 23.36-5.32 6.43-14.5 9.27-22.52 6.97-8.1-2.1-14.54-9.24-15.84-17.5-1.47-8.22 2.27-17.07 9.2-21.72 3.63-2.5 8.02-3.87 12.43-3.86zm0 13.4c-3.72-.06-7.27 2.62-8.23 6.2-.95 3.28.26 7.06 3 9.1 2.64 2.07 6.52 2.38 9.43.68 2.92-1.62 4.72-5.05 4.3-8.38-.33-3.22-2.63-6.14-5.72-7.16-.9-.3-1.84-.47-2.8-.47z"/><path fill="#374548" d="M32.6 23.6v17.03c1.46.01 2.93-.28 4.2-1.03 2.92-1.62 4.72-5.05 4.3-8.38-.33-3.22-2.63-6.14-5.72-7.16-.9-.3-1.84-.47-2.8-.47h-.01zm0-19.44v6.07h.01c8.38-.1 16.5 5.1 19.9 12.74 3.58 7.54 2.3 17.06-3.2 23.36-4.07 4.92-10.4 7.7-16.74 7.7v6.1c2.44.01 4.88-.26 7.24-.92C50.16 56.57 58.46 47.5 60.18 37c1.96-10.48-2.75-21.8-11.56-27.8A27.97 27.97 0 0032.6 4.16h-.01z"/></svg>