<svg viewBox="0 0 64 64" xmlns="http://www.w3.org/2000/svg"><circle cx="32" cy="32" fill="#1ea6c6" r="32"/><g fill="#f7cf52"><path d="m59.464 15.574v.002c-4.895-3.566-6.836-1.775-7.573-.298a2.03 2.03 0 0 1 -1.817 1.132l-.214-.012c-1.004-.106-1.793-.93-1.817-1.938-.111-4.216 2.641-8.44 2.641-8.44 3.547 2.554 6.535 5.805 8.781 9.555zm4.533 16.426a31.92 31.92 0 0 1 -1.876 10.82h-.002c-1.021-1.736-1.408-3.794-1.511-5.609-.114-2.012-1.934-3.516-3.924-3.205l-.121.017c-2.759.404-5.295-1.548-5.66-4.313-.163-1.245-.209-2.372-.163-3.391 0 0 .387-4.885 2.725-7.234.461-.463.875-.838 1.238-1.099.521-.373 1.161-.528 1.8-.449 2.288.283 3.998-.101 3.998-.101 2.237 4.369 3.499 9.32 3.499 14.563zm-26.825-26.703-3.869 5.047c-.505-3.869-5.08-7.166-3.869-7.066 6.056.505 7.738 2.019 7.738 2.019zm-8 5.324a3.2 3.2 0 0 1 -1.238 4.828c-2.836 1.299-6.717 3.353-8.495 5.545a3.06 3.06 0 0 1 -3.119 1.055c-1.452-.37-3.289-.333-4.382 1.581-2.019 3.533 5.787 7.557 5.332 12.062l-.01-.039a3.63 3.63 0 0 0 -2.103-2.47c-2.733-1.181-5.194-3.02-6.754-5.854-3.406-6.194-.986-13.593 1.396-18.382a32.02 32.02 0 0 1 10.317-6.674s5.307 3.314 9.053 8.344z"/><path d="m36.666 41.526c2.989 1.817 3.689 5.859 1.474 8.566l-4.116 4.731-4.976 5.277-3.263 3.297c-2.974-4.313-1.901-12.509-1.901-12.509l-3.122-2.179c-2.288-1.598-3.536-4.318-3.213-7.091.303-2.591.047-4.584-.274-5.922 2.646-.824 5.316-1.235 7.2-1.438 1.467-.158 2.932.331 3.997 1.353 2.119 2.036 5.406 4.222 8.197 5.915z"/></g><path d="m36.569 63.67c-20.676 3.829-40.453-16.768-36.082-37.227 2.484-16.605 19.665-28.914 36.159-26.099-18.345 8.138-25.377 33.058-14.77 49.81 3.463 5.789 8.625 10.57 14.693 13.516z" fill="#888" opacity=".3"/></svg>