<svg enable-background="new 0 0 380.45 380.45" viewBox="0 0 380.45 380.45" xmlns="http://www.w3.org/2000/svg"><path d="m102.62 211.975c.02.08.04.15.06.23 1.91 7.94 3.42 19.8 1.63 35.19-1.91 16.48 5.5 32.66 19.11 42.15l18.56 12.95s-6.37 48.72 11.31 74.36v.01c-87.38-17.2-153.29-94.22-153.29-186.64 0-53.81 22.35-102.41 58.27-137-14.15 28.48-28.54 72.45-8.29 109.27 9.27 16.85 23.9 27.78 40.15 34.8 6.23 2.68 10.89 8.1 12.49 14.68z" fill="#1ea6c6"/><path d="m190.23.005c41.46 0 79.82 13.26 111.07 35.79 0 0-16.37 25.11-15.71 50.17.15 5.99 4.84 10.89 10.81 11.52.42.04.85.07 1.27.07 4.55 0 8.75-2.58 10.81-6.73 4.38-8.78 15.91-19.42 45.02 1.77l.01-.01c2.17 3.61 4.22 7.3 6.14 11.07 0 0-10.16 2.28-23.77.6-3.78-.47-7.6.45-10.69 2.67-2.15 1.55-4.62 3.78-7.36 6.53-13.89 13.96-16.19 43-16.19 43-.27 6.06 0 12.76.97 20.16 2.17 16.44 17.24 28.04 33.65 25.64.24-.03.48-.07.72-.1 11.84-1.84 22.65 7.09 23.33 19.05.61 10.79 2.91 23.02 8.98 33.34h.01c-26.37 73.4-96.59 125.9-179.07 125.9-12.64 0-24.99-1.23-36.94-3.58v-.01s5.35-5.01 19.39-19.59l29.58-31.37c8.54-9.38 17.06-19.07 24.47-28.12 13.17-16.09 9.01-40.13-8.76-50.92-16.59-10.07-36.14-23.07-48.73-35.16-6.33-6.07-15.04-8.98-23.76-8.04-11.2 1.21-27.07 3.65-42.8 8.55 2.7-26.79-43.7-50.71-31.7-71.71 6.5-11.39 17.42-11.6 26.05-9.41 6.87 1.74 14.08-.76 18.54-6.27 10.56-13.03 33.63-25.24 50.49-32.96 11.05-5.05 14.62-18.98 7.36-28.71-22.27-29.9-53.82-49.59-53.82-49.59 21.84-8.74 45.67-13.55 70.63-13.55zm7.75 61.49 23-30s-10-9-46-12c-7.19-.6 20 19 23 42z" fill="#1ea6c6"/><g fill="#f7cf52"><path d="m353.51 92.585-.01.01c-29.11-21.19-40.64-10.55-45.02-1.77-2.06 4.15-6.26 6.73-10.81 6.73-.42 0-.85-.03-1.27-.07-5.97-.63-10.66-5.53-10.81-11.52-.66-25.06 15.71-50.17 15.71-50.17 21.03 15.14 38.84 34.48 52.21 56.79z"/><path d="m380.45 190.225c0 22.57-3.93 44.23-11.15 64.32h-.01c-6.07-10.32-8.37-22.55-8.98-33.34-.68-11.96-11.49-20.89-23.33-19.05-.24.03-.48.07-.72.1-16.41 2.4-31.48-9.2-33.65-25.64-.97-7.4-1.24-14.1-.97-20.16 0 0 2.3-29.04 16.19-43 2.74-2.75 5.21-4.98 7.36-6.53 3.09-2.22 6.91-3.14 10.69-2.67 13.61 1.68 23.77-.6 23.77-.6 13.3 25.97 20.8 55.39 20.8 86.57z"/><path d="m220.98 31.495-23 30c-3-23-30.19-42.6-23-42 36 3 46 12 46 12z"/><path d="m173.42 63.145c7.26 9.73 3.69 23.66-7.36 28.71-16.86 7.72-39.93 19.93-50.49 32.96-4.46 5.51-11.67 8.01-18.54 6.27-8.63-2.19-19.55-1.98-26.05 9.41-12 21 34.4 44.92 31.7 71.71-.02-.08-.04-.15-.06-.23-1.6-6.58-6.26-12-12.49-14.68-16.25-7.02-30.88-17.95-40.15-34.8-20.25-36.82-5.86-80.79 8.29-109.27 17.54-16.91 38.33-30.47 61.33-39.67 0 0 31.55 19.69 53.82 49.59z"/><path d="m217.97 246.855c17.77 10.79 21.93 34.83 8.76 50.92-7.41 9.05-15.93 18.74-24.47 28.12l-29.58 31.37c-14.04 14.58-19.39 19.59-19.39 19.59-17.68-25.64-11.31-74.36-11.31-74.36l-18.56-12.95c-13.61-9.49-21.02-25.67-19.11-42.15 1.79-15.39.28-27.25-1.63-35.19 15.73-4.9 31.6-7.34 42.8-8.55 8.72-.94 17.43 1.97 23.76 8.04 12.59 12.09 32.14 25.09 48.73 35.16z"/></g><path d="m190.23.005c5.8 0 11.54.26 17.2.77-96.95 8.74-172.93 90.22-172.93 189.45 0 99.25 76.01 180.74 172.99 189.45-5.68.51-11.44.77-17.26.77-105.06 0-190.23-85.16-190.23-190.22s85.17-190.22 190.23-190.22z" fill="#808080" opacity=".3"/></svg>