<svg xmlns="http://www.w3.org/2000/svg" viewBox="0 0 64 64"><defs/><circle cx="32" cy="32" r="32" fill="#1ea6c6"/><g fill="#f7cf52"><path d="M59.464 15.574v.002c-4.895-3.566-6.836-1.775-7.573-.298a2.03 2.03 0 01-1.817 1.132l-.214-.012c-1.004-.106-1.793-.93-1.817-1.938-.111-4.216 2.641-8.44 2.641-8.44a32.096 32.096 0 018.781 9.555zM63.997 32a31.92 31.92 0 01-1.876 10.82h-.002c-1.021-1.736-1.408-3.794-1.511-5.609-.114-2.012-1.934-3.516-3.924-3.205l-.121.017c-2.759.404-5.295-1.548-5.66-4.313a19.397 19.397 0 01-.163-3.391s.387-4.885 2.725-7.234c.461-.463.875-.838 1.238-1.099a2.543 2.543 0 011.8-.449c2.288.283 3.998-.101 3.998-.101A31.865 31.865 0 0164 31.999zM37.172 5.297l-3.869 5.047c-.505-3.869-5.08-7.166-3.869-7.066 6.056.505 7.738 2.019 7.738 2.019zm-8 5.324a3.2 3.2 0 01-1.238 4.828c-2.836 1.299-6.717 3.353-8.495 5.545a3.06 3.06 0 01-3.119 1.055c-1.452-.37-3.289-.333-4.382 1.581-2.019 3.533 5.787 7.557 5.332 12.062l-.01-.039a3.63 3.63 0 00-2.103-2.47c-2.733-1.181-5.194-3.02-6.754-5.854-3.406-6.194-.986-13.593 1.396-18.382a32.02 32.02 0 0110.317-6.674s5.307 3.314 9.053 8.344zM36.666 41.526c2.989 1.817 3.689 5.859 1.474 8.566l-4.116 4.731-4.976 5.277-3.263 3.297c-2.974-4.313-1.901-12.509-1.901-12.509l-3.122-2.179c-2.288-1.598-3.536-4.318-3.213-7.091.303-2.591.047-4.584-.274-5.922 2.646-.824 5.316-1.235 7.2-1.438a4.995 4.995 0 013.997 1.353c2.119 2.036 5.406 4.222 8.197 5.915z"/></g><path fill="#888" d="M36.569 63.67C15.893 67.499-3.884 46.902.487 26.443 2.971 9.838 20.152-2.471 36.646.344c-18.345 8.138-25.377 33.058-14.77 49.81 3.463 5.789 8.625 10.57 14.693 13.516z" opacity=".3"/></svg>