<svg xmlns="http://www.w3.org/2000/svg" viewBox="0 0 512 512" stroke="#000" stroke-width="4" xmlns:v="https://vecta.io/nano"><path d="M493.714 274.286h-76.617c-14.07 0-22.857-15.264-15.837-27.427 11.52-19.955-2.59-45.716-26.403-45.716-23.836 0-37.914 25.778-26.403 45.716 7.034 12.187-1.793 27.427-15.837 27.427H256A18.29 18.29 0 0 1 237.714 256v-52.003c-37.29 3.428-73.143-25.595-73.143-66.854 0-41.305 35.907-70.28 73.143-66.854V18.286A18.29 18.29 0 0 1 256 0h237.714A18.29 18.29 0 0 1 512 18.286V256a18.29 18.29 0 0 1-18.286 18.286z" fill="#e12858" stroke-opacity=".998"/><path d="M137.143 347.43c-41.217 0-70.28-35.812-66.854-73.143H18.286A18.29 18.29 0 0 1 0 256V18.286A18.29 18.29 0 0 1 18.286 0H256a18.29 18.29 0 0 1 18.286 18.286v76.617c0 14.07-15.265 22.86-27.427 15.837-19.96-11.522-45.716 2.595-45.716 26.403 0 23.9 25.817 37.89 45.716 26.403 12.187-7.034 27.427 1.792 27.427 15.837V256A18.29 18.29 0 0 1 256 274.286h-52.003c3.407 37.148-25.45 73.143-66.854 73.143z" fill="#fee763" stroke-opacity=".998"/><path d="M256 512H18.286A18.29 18.29 0 0 1 0 493.714V256a18.29 18.29 0 0 1 18.286-18.286h76.617c14.068 0 22.858 15.264 15.837 27.427-11.522 19.96 2.595 45.716 26.403 45.716 23.886 0 37.9-25.815 26.403-45.714-7.034-12.186 1.792-27.43 15.837-27.43H256A18.29 18.29 0 0 1 274.286 256v52c37.305-3.415 73.143 25.595 73.143 66.854 0 41.294-35.89 70.276-73.143 66.855v52.016A18.29 18.29 0 0 1 256 512z" fill="#4c8b36" stroke-opacity=".998"/><path d="M493.714 512H256a18.29 18.29 0 0 1-18.286-18.286v-76.63c0-14.07 15.265-22.86 27.427-15.837 19.956 11.516 45.716-2.59 45.716-26.405 0-23.834-25.778-37.912-45.716-26.403-12.186 7.033-27.427-1.8-27.427-15.835V256A18.29 18.29 0 0 1 256 237.714h52.002c-3.418-37.28 25.576-73.143 66.855-73.143 41.295 0 70.273 35.888 66.855 73.143h52.002A18.29 18.29 0 0 1 512 256v237.714A18.29 18.29 0 0 1 493.714 512z" fill="#403aff" stroke-opacity=".998"/></svg>