<svg stroke="#333" stroke-width="4" viewBox="0 0 64 64" xmlns="http://www.w3.org/2000/svg"><g stroke-linejoin="round"><g stroke-width="3"><path d="m29.95 1.55c-8.96 0-17.92 0-26.88.01-.4 0-.78.16-1.06.44s-.44.66-.44 1.06l.01 26.96a1.5 1.5 0 0 0 1.5 1.5h7.66c-.14 1.44-.3 2.98-.05 4.69.01.04.01.07.02.11.75 3.46 4.51 5.49 7.81 4.26 2.87-1.01 4.44-4.06 3.88-6.96l.03.19-.15-2.29h7.68a1.5 1.5 0 0 0 1.49-1.5v-5.52c0-.44-.2-.87-.54-1.15s-.79-.41-1.22-.33c-3.07.54-6.57-1.6-7.36-4.63-.01-.02-.01-.04-.02-.06-.9-2.95.8-6.63 3.65-7.79.02-.01.04-.02.06-.02 1.12-.51 2.43-.65 3.68-.45.44.07.88-.05 1.22-.34s.53-.71.53-1.15v-5.55a1.5 1.5 0 0 0 -1.5-1.49z" fill="#ffe680"/><path d="m1.57 33.81.01 26.96a1.5 1.5 0 0 0 1.5 1.5l26.88-.02a1.5 1.5 0 0 0 1.49-1.5v-7.68c1.44.14 2.97.3 4.68.05l.11-.02c3.45-.75 5.48-4.53 4.25-7.83-1-2.87-4.05-4.45-6.94-3.89l.2-.03-2.28.15v-7.71a1.5 1.5 0 0 0 -1.5-1.5h-5.51c-.44 0-.86.2-1.15.54s-.4.79-.33 1.23c.54 3.08-1.6 6.59-4.61 7.38l-.06.02c-2.94.9-6.61-.81-7.76-3.66l-.02-.06c-.5-1.12-.65-2.44-.44-3.69.07-.44-.05-.88-.34-1.22s-.71-.53-1.15-.53c-1.82.01-3.67-.02-5.53 0a1.5 1.5 0 0 0 -1.48 1.5z" fill="#80e5ff"/><path d="m34.07 62.47 26.88-.01a1.5 1.5 0 0 0 1.5-1.5l-.01-26.96a1.5 1.5 0 0 0 -1.5-1.5h-7.66c.14-1.44.3-2.98.05-4.69l-.02-.11c-.75-3.46-4.51-5.49-7.81-4.26-2.87 1.01-4.44 4.06-3.88 6.96l-.03-.19.15 2.29c-2.56 0-5.11-.01-7.68 0a1.5 1.5 0 0 0 -1.49 1.5v5.52c0 .44.2.87.54 1.15s.79.41 1.22.33c3.07-.54 6.57 1.6 7.36 4.63l.02.06c.9 2.95-.8 6.63-3.65 7.79l-.06.02c-1.12.51-2.43.65-3.68.45-.44-.07-.88.05-1.22.34s-.53.71-.53 1.15v5.55a1.5 1.5 0 0 0 1.5 1.49z" fill="#5fd38d"/><path d="m62.45 30.21-.01-26.95a1.5 1.5 0 0 0 -1.5-1.5c-8.96 0-17.92-.02-26.88.02a1.5 1.5 0 0 0 -1.49 1.5v7.68c-1.44-.14-2.97-.3-4.68-.05-.04.01-.07.01-.11.02-3.45.75-5.48 4.53-4.25 7.83 1 2.87 4.05 4.45 6.94 3.89l-.2.03 2.28-.15v7.71a1.5 1.5 0 0 0 1.5 1.5h5.51c.44 0 .86-.2 1.15-.54s.4-.79.33-1.23c-.54-3.08 1.6-6.59 4.61-7.38.02-.01.04-.01.06-.02 2.94-.9 6.61.81 7.76 3.66.01.02.02.04.02.06.5 1.12.65 2.44.44 3.69-.07.44.05.88.34 1.22s.71.53 1.15.53h5.53a1.5 1.5 0 0 0 1.48-1.5z" fill="#deaa87"/></g><path d="m1.76 1.76h60.48v60.48h-60.48z" fill="none" stroke-width="3.5"/></g></svg>