<svg height="64" width="64" xmlns="http://www.w3.org/2000/svg" xmlns:xlink="http://www.w3.org/1999/xlink"><linearGradient id="a" gradientUnits="userSpaceOnUse" x1="33.543" x2="33.543" y1="7.763" y2="67.713"><stop offset="0" stop-color="#efbe3e"/><stop offset="1" stop-color="#eb7c37"/></linearGradient><path d="m22.06 53.5-.004-3.035a1.96 1.96 0 00-.62-1.422c-.974-.914-1.5-2.136-1.514-3.443-.003-2.645 2.2-4.802 4.93-4.806s4.938 2.148 4.943 4.8c.003 1.308-.53 2.533-1.498 3.45-.394.374-.617.886-.616 1.42l.004 3.034a1.95 1.95 0 00.599 1.399 2.07 2.07 0 001.439.579h.003l16.3-.025c.54-.001 1.058-.2 1.44-.582s.596-.876.595-1.4l-.03-21.04.58-.004a2.91 2.91 0 012.058.848c1.314 1.32 3.072 2.044 4.948 2.044h.04c3.817-.005 6.92-3.017 6.937-6.724-.018-3.707-3.12-6.72-6.937-6.724h-.04c-1.876 0-3.634.726-4.948 2.044a2.91 2.91 0 01-2.058.848h-.006l-.575-.004v-3.654l.028-17.383c.001-.525-.213-1.03-.595-1.4s-.9-.58-1.44-.582l-16.303-.034a2.07 2.07 0 00-1.439.579 1.95 1.95 0 00-.599 1.399l-.004 3.034c-.002.535.22 1.048.616 1.42.97.916 1.502 2.14 1.498 3.45-.005 2.64-2.22 4.8-4.943 4.8s-4.933-2.16-4.93-4.806c.003-1.306.54-2.53 1.514-3.442.396-.373.62-.886.62-1.422l.004-3.035c.001-1.093-.908-1.98-2.033-1.982l-16.644.001c-1.123 0-2.035.884-2.036 1.976l-.015 20.2a1.95 1.95 0 00.594 1.402c.382.372.9.58 1.44.582l1.732.003a2.07 2.07 0 001.462-.602c.933-.937 2.183-1.452 3.515-1.452h.027c2.712.004 4.916 2.144 4.93 4.777-.012 2.633-2.216 4.773-4.93 4.777h-.027c-1.333 0-2.582-.516-3.515-1.452a2.07 2.07 0 00-1.462-.602h.005l-1.728.003c-.54.001-1.058.2-1.44.582a1.97 1.97 0 00-.594 1.402l.015 20.2c.002 1.092.913 1.976 2.036 1.976h.003l16.645.02c1.125-.001 2.034-.888 2.033-1.98z" fill="#917c6f" fill-opacity=".697"/><path d="m20.73 51.81-.004-3.035c-.001-.536-.225-1.05-.62-1.422-.974-.914-1.51-2.136-1.514-3.443-.003-2.645 2.21-4.802 4.93-4.806s4.938 2.148 4.943 4.79c.003 1.308-.53 2.533-1.498 3.45a2.038 1.982 0 00-.616 1.421l.003 3.034a2.035 1.979 0 00.599 1.399 2.07 2.07 0 001.439.579h.003l16.3-.025a2.035 1.979 0 001.439-.582c.382-.372.596-.876.595-1.4l-.029-21.04.58-.003a2.91 2.91 0 012.058.848c1.314 1.32 3.072 2.044 4.948 2.044h.04c3.817-.005 6.92-3.017 6.937-6.724-.018-3.707-3.12-6.72-6.937-6.724h-.04c-1.876 0-3.634.726-4.948 2.044a2.91 2.91 0 01-2.058.848h-.006l-.575-.003v-3.654l.028-17.383c.001-.525-.213-1.03-.595-1.4a2.035 1.979 0 00-1.436-.583l-16.304-.024a2.07 2.07 0 00-1.439.579 2.035 1.979 0 00-.599 1.399l-.003 3.034a1.95 1.95 0 00.616 1.421c.97.916 1.502 2.14 1.498 3.45-.005 2.64-2.22 4.79-4.943 4.79s-4.933-2.16-4.93-4.806c.003-1.306.54-2.53 1.514-3.442.396-.373.62-.886.62-1.422l.004-3.035c.002-1.096-.907-1.983-2.03-1.984l-16.65.02c-1.123 0-2.034.884-2.036 1.976l-.014 20.19c-.001.526.213 1.03.594 1.402s.9.582 1.44.582l1.732.003a2.07 2.07 0 001.462-.602c.933-.937 2.183-1.452 3.515-1.452h.028c2.712.004 4.916 2.144 4.93 4.777-.012 2.633-2.217 4.773-4.93 4.777h-.031c-1.333 0-2.582-.516-3.515-1.452a2.07 2.07 0 00-1.462-.602h-.003l-1.728.003c-.54.001-1.058.2-1.44.582s-.592.876-.592 1.401l.015 20.2c.002 1.092.913 1.976 2.036 1.976h.003l16.645.02a2.035 1.979 0 002.033-1.981z" fill="url(#a)"/><path d="m42.92 36.73c3.496-.113 6.443 3.488 5.623 6.893-.596 3.43-4.682 5.606-7.852 4.133-3.147-1.22-4.53-5.425-2.678-8.258 1.014-1.69 2.932-2.787 4.907-2.768zm-4.092-14.627c-1.35.155-.935 1.745-1.14 2.698l-.32 3.54-4.035 2-4.917-2.162c-1.156.153-1.36 1.553-1.99 2.36l-3.226 5.683c.084 1.226 1.516 1.588 2.315 2.33l2.497 1.776-.302 4.493-4.53 3.179c-.495 1.108.654 2.018 1.06 3l3.34 5.623c.943.52 1.87-.46 2.784-.73l3.103-1.428 3.78 2.994c.208 1.61.17 3.278.54 4.853.714.918 2.024.397 3.037.534l6.544-.068c.98-.576.58-1.908.804-2.87l.3-3.297 4.035-1.992 4.915 2.166c1.155-.155 1.36-1.554 1.99-2.362l3.224-5.693c-.097-1.21-1.49-1.623-2.268-2.4l-2.248-1.72.298-4.5 4.338-3.176c.5-1.11-.665-2.012-1.078-2.98l-3.42-5.634c-.944-.517-1.87.46-2.784.733l-3.1 1.426-3.736-2.506c-.224-1.773-.2-3.602-.583-5.338-.713-.92-2.024-.398-3.037-.536h-6.188z" fill="#f9f9f9" stroke="#666" stroke-linejoin="round" stroke-width="2.278"/></svg>