<svg viewBox="0 0 64 64" stroke="#333" stroke-width="4" xmlns="http://www.w3.org/2000/svg"><g stroke-linejoin="round"><g stroke-width="3.104"><path d="m29.95 1.553c-8.96-.001-17.917 0-26.877.006-.398 0-.78.158-1.06.44s-.44.664-.44 1.063l.014 26.958a1.5 1.5 0 0 0 1.499 1.497h7.655c-.137 1.442-.3 2.98-.053 4.694.005.035.01.07.02.106.748 3.457 4.512 5.494 7.808 4.26 2.866-1.008 4.437-4.063 3.878-6.96l.026.19-.146-2.29 7.684-.004a1.5 1.5 0 0 0 1.493-1.503l.002-5.522c-.001-.444-.197-.865-.537-1.15s-.787-.405-1.223-.328c-3.07.542-6.574-1.604-7.36-4.628-.005-.02-.01-.038-.017-.057-.895-2.95.804-6.627 3.654-7.785.018-.008.037-.016.055-.024 1.117-.506 2.43-.653 3.68-.445.436.073.88-.05 1.218-.338s.53-.708.527-1.15l-.002-5.547a1.5 1.5 0 0 0 -1.499-1.488z" fill="#ffe680"/><path d="m1.57 33.81.006 26.955a1.5 1.5 0 0 0 1.499 1.503l26.88-.015a1.5 1.5 0 0 0 1.493-1.503v-7.677c1.438.138 2.97.3 4.68.053l.105-.02c3.447-.75 5.478-4.525 4.25-7.83-1.005-2.874-4.05-4.45-6.94-3.89l.2-.026-2.284.146-.004-7.707a1.5 1.5 0 0 0 -1.499-1.497l-5.506-.002c-.443.001-.862.198-1.146.538s-.404.79-.327 1.226c.54 3.078-1.6 6.593-4.614 7.38l-.057.017c-2.942.897-6.608-.806-7.762-3.664l-.024-.055c-.504-1.12-.65-2.436-.444-3.69.072-.437-.05-.884-.337-1.22s-.706-.53-1.148-.53c-1.823.006-3.665-.02-5.53.002a1.5 1.5 0 0 0 -1.483 1.503z" fill="#80e5ff"/><path d="m34.07 62.472 26.877-.006a1.5 1.5 0 0 0 1.499-1.503l-.014-26.958a1.5 1.5 0 0 0 -1.499-1.497h-7.655c.137-1.442.3-2.98.053-4.694l-.02-.106c-.748-3.457-4.512-5.494-7.808-4.26-2.866 1.008-4.437 4.063-3.878 6.96l-.026-.19.146 2.29c-2.555.004-5.113-.007-7.684.004a1.5 1.5 0 0 0 -1.493 1.503l-.002 5.522c.001.444.197.865.537 1.15s.787.405 1.223.328c3.07-.542 6.574 1.604 7.36 4.628l.017.057c.895 2.95-.804 6.627-3.654 7.785l-.055.024c-1.117.506-2.43.653-3.68.445-.436-.073-.88.05-1.218.338s-.53.708-.527 1.15v5.547a1.5 1.5 0 0 0 1.499 1.488z" fill="#5fd38d"/><path d="m62.448 30.214-.006-26.954a1.5 1.5 0 0 0 -1.499-1.503c-8.955.004-17.916-.018-26.88.015a1.5 1.5 0 0 0 -1.493 1.503v7.677c-1.438-.138-2.97-.3-4.68-.053-.035.005-.07.01-.105.02-3.447.75-5.478 4.525-4.25 7.83 1.005 2.874 4.05 4.45 6.94 3.89l-.2.026 2.284-.146.004 7.707a1.5 1.5 0 0 0 1.499 1.497l5.506.002c.443-.001.862-.198 1.146-.538s.404-.79.327-1.226c-.54-3.078 1.6-6.593 4.614-7.38.02-.005.038-.01.057-.017 2.942-.897 6.608.806 7.762 3.664.008.018.015.037.024.055.504 1.12.65 2.436.444 3.69-.072.437.05.884.337 1.22s.706.53 1.148.53l5.53-.002a1.5 1.5 0 0 0 1.483-1.503z" fill="#deaa87"/></g><path d="m1.76 1.76h60.48v60.48h-60.48z" fill="none" stroke-width="3.519"/></g></svg>