<svg xmlns="http://www.w3.org/2000/svg" viewBox="0 0 64 64"><linearGradient id="a" x1="33.54" x2="33.54" y1="7.76" y2="67.71" gradientUnits="userSpaceOnUse"><stop offset="0" stop-color="#efbe3e"/><stop offset="1" stop-color="#eb7c37"/></linearGradient><path fill="#917c6f" fill-opacity=".7" d="M22.06 53.5v-3.04a1.96 1.96 0 00-.62-1.42c-.97-.91-1.5-2.14-1.51-3.44 0-2.65 2.2-4.8 4.93-4.81s4.94 2.15 4.94 4.8c0 1.31-.53 2.53-1.5 3.45-.39.37-.62.89-.62 1.42v3.03a1.95 1.95 0 00.6 1.4 2.07 2.07 0 001.44.58l16.3-.03c.54 0 1.06-.2 1.44-.58s.6-.88.6-1.4l-.03-21.04h.58a2.91 2.91 0 012.06.85c1.31 1.32 3.07 2.04 4.95 2.04h.04c3.82-.01 6.92-3.02 6.94-6.72-.02-3.71-3.12-6.72-6.94-6.72h-.04c-1.88 0-3.63.73-4.95 2.04a2.91 2.91 0 01-2.06.85h-.58v-3.65l.03-17.38c0-.53-.21-1.03-.6-1.4s-.9-.58-1.44-.58l-16.3-.03a2.07 2.07 0 00-1.44.58 1.95 1.95 0 00-.6 1.4v3.03c0 .54.22 1.05.62 1.42.97.92 1.5 2.14 1.5 3.45-.01 2.64-2.22 4.8-4.94 4.8s-4.93-2.16-4.93-4.81c0-1.31.54-2.53 1.51-3.44a1.94 1.94 0 00.62-1.42V3.69c0-1.09-.91-1.98-2.03-1.98H3.39c-1.12 0-2.04.88-2.04 1.98l-.02 20.2a1.95 1.95 0 00.59 1.4 2.07 2.07 0 001.44.58h1.73a2.07 2.07 0 001.46-.6c.93-.94 2.18-1.45 3.52-1.45h.03c2.71 0 4.92 2.14 4.93 4.78-.01 2.63-2.22 4.77-4.93 4.78h-.03a4.98 4.98 0 01-3.52-1.45 2.07 2.07 0 00-1.46-.6h.01-1.73c-.54 0-1.06.2-1.44.58a1.97 1.97 0 00-.59 1.4l.02 20.2c0 1.09.91 1.98 2.04 1.98l16.65.02c1.13 0 2.03-.89 2.03-1.98z"/><path fill="url(#a)" d="M20.73 51.81v-3.04a1.96 1.96 0 00-.62-1.42 4.698 4.698 0 01-1.51-3.44c0-2.65 2.21-4.8 4.93-4.81s4.94 2.15 4.94 4.79c0 1.31-.53 2.53-1.5 3.45a2.04 1.98 0 00-.62 1.42v3.03a2.04 1.98 0 00.6 1.4 2.07 2.07 0 001.44.58l16.3-.03a2.04 1.98 0 001.44-.58 1.97 1.97 0 00.6-1.4l-.03-21.04h.58a2.91 2.91 0 012.06.85c1.31 1.32 3.07 2.04 4.95 2.04h.04c3.82-.01 6.92-3.02 6.94-6.72-.02-3.71-3.12-6.72-6.94-6.72h-.04c-1.88 0-3.63.73-4.95 2.04a2.91 2.91 0 01-2.06.85h-.58v-3.65l.03-17.38c0-.53-.21-1.03-.6-1.4a2.04 1.98 0 00-1.44-.58L28.39.03a2.07 2.07 0 00-1.44.58 2.04 1.98 0 00-.6 1.4v3.03a1.95 1.95 0 00.62 1.42c.97.92 1.5 2.14 1.5 3.45-.01 2.64-2.22 4.79-4.94 4.79s-4.93-2.16-4.93-4.81c0-1.31.54-2.53 1.51-3.44a1.94 1.94 0 00.62-1.42V1.99c0-1.1-.91-1.98-2.03-1.98L2.05.03C.93.03.02.91.01 2.01L0 22.2c0 .53.21 1.03.59 1.4a2.07 2.07 0 001.44.58h1.73a2.07 2.07 0 001.46-.6c.93-.94 2.18-1.45 3.52-1.45h.03c2.71 0 4.92 2.14 4.93 4.78-.01 2.63-2.22 4.77-4.93 4.78h-.03a4.98 4.98 0 01-3.52-1.45 2.07 2.07 0 00-1.46-.6H2.03c-.54 0-1.06.2-1.44.58S0 31.1 0 31.62l.02 20.2c0 1.09.91 1.98 2.04 1.98l16.65.02a2.04 1.98 0 002.03-1.98z"/><path fill="#f9f9f9" stroke="#666" stroke-linejoin="round" stroke-width="2.3" d="M42.92 36.73c3.5-.11 6.44 3.49 5.62 6.89-.6 3.43-4.68 5.61-7.85 4.13-3.15-1.22-4.53-5.43-2.68-8.26a5.76 5.76 0 014.91-2.77zM38.83 22.1c-1.35.16-.94 1.75-1.14 2.7l-.32 3.54-4.04 2-4.92-2.16c-1.16.15-1.36 1.55-1.99 2.36l-3.23 5.68c.08 1.23 1.52 1.59 2.32 2.33l2.5 1.78-.3 4.49L23.18 48c-.5 1.11.65 2.02 1.06 3l3.34 5.62c.94.52 1.87-.46 2.78-.73l3.1-1.43 3.78 2.99c.21 1.61.17 3.28.54 4.85.71.92 2.02.4 3.04.53l6.54-.07c.98-.58.58-1.91.8-2.87l.3-3.3 4.04-1.99 4.92 2.17c1.16-.16 1.36-1.55 1.99-2.36l3.22-5.69c-.1-1.21-1.49-1.62-2.27-2.4l-2.25-1.72.3-4.5 4.34-3.18c.5-1.11-.67-2.01-1.08-2.98l-3.42-5.63c-.94-.52-1.87.46-2.78.73l-3.1 1.43-3.74-2.51c-.22-1.77-.2-3.6-.58-5.34-.71-.92-2.02-.4-3.04-.54h-6.19z"/></svg>