<svg height="64" width="64" xmlns="http://www.w3.org/2000/svg" xmlns:xlink="http://www.w3.org/1999/xlink"><defs><path id="a" d="m58.066 45.74c.1-.627.18-1.255.18-1.972s-.1-1.344-.18-1.972l4.033-2.868c.358-.27.538-.807.27-1.255l-3.944-6.632c-.27-.448-.717-.627-1.165-.358l-4.48 2.062c-1.075-.807-2.15-1.434-3.406-1.972l-.448-4.93c-.1-.448-.448-.807-.896-.807h-7.71c-.448 0-.896.358-.896.807l-.448 4.93c-1.255.538-2.42 1.165-3.406 1.972l-4.482-2.06c-.448-.18-.986 0-1.165.358l-3.854 6.633c-.27.448-.1.986.27 1.255l4.033 2.868c-.1.627-.18 1.255-.18 1.972s.1 1.344.18 1.972l-4.213 2.868c-.358.27-.538.806-.27 1.255l3.854 6.633c.27.448.717.627 1.165.358l4.482-2.062a16.07 16.07 0 003.406 1.972l.448 4.93c.1.448.448.807.896.807h7.708c.448 0 .896-.358.896-.807l.448-4.93c1.255-.538 2.42-1.165 3.406-1.972l4.48 2.062c.448.18.986 0 1.165-.358l3.854-6.633c.27-.448.1-.986-.27-1.255zm-13.982 6.99c-4.93 0-8.963-4.033-8.963-8.963s4.033-8.963 8.963-8.963 8.963 4.033 8.963 8.963-4.033 8.963-8.963 8.963z"/><path id="b" d="m44.083 33.012c-5.916 0-10.756 4.84-10.756 10.756s4.84 10.756 10.756 10.756 10.756-4.84 10.756-10.756-4.839-10.756-10.756-10.756zm0 15.237c-2.5 0-4.48-1.972-4.48-4.48s1.972-4.48 4.48-4.48 4.48 1.972 4.48 4.48-1.972 4.48-4.48 4.48z"/><linearGradient id="c" x1="60.631" x2="65.517" xlink:href="#d" y1="46.318" y2="48.374"/><linearGradient id="d" gradientUnits="userSpaceOnUse"><stop offset="0" stop-color="#ffd1d1"/><stop offset=".5" stop-color="#ff1d1d"/><stop offset="1" stop-color="#6f0000"/></linearGradient><linearGradient id="e" x1="63.052" x2="65.874" xlink:href="#f" y1="43.399" y2="45.072"/><linearGradient id="f" gradientUnits="userSpaceOnUse"><stop offset="0" stop-color="#c1c1c1"/><stop offset="1" stop-color="#acacac"/></linearGradient><radialGradient id="g" cx="29.053" cy="27.641" gradientTransform="matrix(.0154 2.9235 2.0297 -.0107 20.391 -69.727)" r="3.241" xlink:href="#h"/><linearGradient id="h" gradientUnits="userSpaceOnUse"><stop offset="0" stop-color="#e7e2b8"/><stop offset="1" stop-color="#e7e2b8" stop-opacity="0"/></linearGradient><linearGradient id="i" x1="79.876" x2="79.531" xlink:href="#j" y1="11.409" y2="11.207"/><linearGradient id="j" gradientUnits="userSpaceOnUse"><stop offset="0"/><stop offset="1" stop-color="#c9c9c9"/></linearGradient><linearGradient id="k" x1="-317.353" x2="-236.096" xlink:href="#d" y1="-222.32" y2="-133.554"/><linearGradient id="l" x1="-361.281" x2="-303.97" xlink:href="#f" y1="-148.287" y2="-100.726"/><radialGradient id="m" cx="29.053" cy="27.641" gradientTransform="matrix(62.6224 -21.9851 15.2636 43.4769 -3105.5395 -196.8949)" r="3.241" xlink:href="#h"/><linearGradient id="n" x1="-916.786" x2="-923.743" xlink:href="#j" y1="455.596" y2="449.762"/><linearGradient id="o" gradientUnits="userSpaceOnUse" x1="67.245" x2="423.875" y1="168.12" y2="168.12"><stop offset="0" stop-color="#efbe3e"/><stop offset="1" stop-color="#eb7c37"/></linearGradient></defs><g fill-rule="evenodd"><g transform="matrix(.4896 1.3713 1.3713 -.4896 195.8869 -166.0305)"><g transform="translate(32.56 -8.176)"><path d="m81.19 8.85-5.595 5.655-15.27 31.644c-1.233 3.257 3.402 5.17 5.012 2.287l14.894-31.58z" fill="#cb9022" stroke="#5c410c"/><path d="m63.227 41.398s.1 1.437 1.354 1.993c1.3.573 2.656-.014 2.656-.014l-2.442 5.044s-.874 1.457-2.84.67c-1.94-.774-1.17-2.68-1.17-2.68z" fill="url(#c)"/><path d="m63.227 41.398s.1 1.437 1.354 1.993c1.3.573 2.656-.014 2.656-.014l-1 2.005s-1.315.834-2.687.233c-1.4-.618-1.324-2.212-1.324-2.212z" fill="url(#e)"/><path d="m80.478 10.282-4.476 4.524c.82 1.495 2.168 2.27 3.728 1.855z" fill="url(#g)"/><path d="m79.08 11.633 1.584-1.633-.3 2.345c-.718.223-1.064-.182-1.285-.712z" fill="url(#i)"/><g fill-opacity=".364"><path d="m75.97 14.806 1.258 1.556-12.8 26.954c-.858-.44-1.1-1.236-1.172-1.897z" fill="#fff"/><path d="m79.793 16.66-.75.19-12.55 26.77s.614-.114.75-.22z"/></g></g><g fill="#fff"><path d="m113.3 1.85-4.77 4.86-8.33 17.29 8.7-16.794 4.37-5.347z" opacity=".725"/><path d="m113.16 1.85-.88 6.718-6.77 14.407 6.54-14.45-.53.088 1.64-6.762z" opacity=".418"/></g></g><g transform="matrix(.066 0 0 .066 357.2371 51.0539)"><path d="m-281.782-232.254c13.542.443 26.38 7.26 35.42 17.17 9.893 10.673 15.87 25.298 14.875 39.945-.793 12.587-6.952 24.54-16.128 33.086l-556.585 554.553-133.252 66.355 63.383-131.928 558.296-566.248c9.398-8.012 21.46-13.432 34-12.933z" fill="#fc0" stroke="#333" stroke-linejoin="round" stroke-width="22.702"/><path d="m-402.713-129.224s31.494-8.8 52.945 13.737c22.105 23.228 19.973 56.893 19.973 56.893l89.203-90.7s24.48-29.807-7.33-65.84c-31.356-35.57-66.258-4.573-66.258-4.573z" fill="url(#k)"/><path d="m-402.713-129.224s31.494-8.8 52.945 13.737c22.105 23.228 19.973 56.893 19.973 56.893l35.32-36.448s7.794-34.48-15.527-59.227c-23.967-25.408-57.4-11.424-57.4-11.424z" fill="url(#l)"/><path d="m-936.3 477.102 62.56-130.228c38.222 6.12 65.08 29.026 68.115 65.547z" fill="url(#m)"/><path d="m-918.103 436.88-22.82 46.353 47.85-24.314c-.712-17.053-12.012-21.36-25.03-22.04z" fill="url(#n)"/><g fill-opacity=".364"><path d="m-873.986 346.212 42.87 15.02 478.67-479.16c-15.956-14.986-34.753-13.892-49.504-10.58z" fill="#fff"/><path d="m-805.153 413.768-1.633-17.472 476.538-472.64s2.25 13.998 1.013 17.693z"/></g></g></g><path d="m22.06 53.5-.004-3.035c-.001-.536-.225-1.05-.62-1.422-.974-.914-1.51-2.136-1.514-3.443-.003-2.645 2.21-4.802 4.93-4.806s4.938 2.148 4.943 4.79c.003 1.308-.53 2.533-1.498 3.45-.394.374-.617.886-.616 1.42l.004 3.034a1.95 1.95 0 00.599 1.399 2.07 2.07 0 001.439.579h.003l16.3-.025c.54-.001 1.058-.2 1.44-.582s.596-.876.595-1.4l-.031-21.039.58-.004a2.91 2.91 0 012.058.848c1.314 1.32 3.072 2.044 4.948 2.044h.04c3.817-.005 6.92-3.017 6.937-6.724-.018-3.707-3.12-6.72-6.937-6.724h-.04c-1.876 0-3.634.726-4.948 2.044a2.91 2.91 0 01-2.058.848h-.006l-.575-.004v-3.654l.028-17.383c.001-.525-.213-1.03-.595-1.4s-.9-.58-1.44-.582l-16.302-.025a2.07 2.07 0 00-1.439.579 1.95 1.95 0 00-.599 1.399l-.004 3.034c-.002.535.22 1.048.616 1.42.97.916 1.502 2.14 1.498 3.45-.005 2.64-2.22 4.79-4.943 4.79s-4.933-2.16-4.93-4.806c.003-1.306.54-2.53 1.514-3.442.396-.373.62-.886.62-1.422l.004-3.035c.001-1.093-.908-1.98-2.033-1.982l-16.644.021c-1.123 0-2.035.884-2.036 1.976l-.015 20.2c-.001.526.212 1.03.594 1.402s.9.58 1.44.582l1.732.003a2.07 2.07 0 001.462-.602c.933-.937 2.183-1.452 3.515-1.452h.027c2.712.004 4.916 2.144 4.93 4.777-.012 2.633-2.216 4.773-4.93 4.777h-.027c-1.333 0-2.582-.516-3.515-1.452a2.07 2.07 0 00-1.462-.602h-.005l-1.728.003c-.54.001-1.058.2-1.44.582s-.594.876-.594 1.402l.015 20.2c.002 1.092.913 1.976 2.036 1.976h.003l16.645.02c1.125-.001 2.034-.888 2.033-1.98z" fill="#917c6f" fill-opacity=".697"/><path d="m329.278 242.223-18.053.024c-3.188.004-6.243 1.3-8.46 3.592-5.436 5.634-12.708 8.742-20.48 8.757-15.736.015-28.568-12.774-28.592-28.52 0-15.754 12.78-28.56 28.49-28.586 7.78-.02 15.066 3.064 20.518 8.666a11.79 11.79 0 008.454 3.562l18.048-.02a11.77 11.77 0 008.323-3.462c2.202-2.21 3.442-5.202 3.442-8.32v-.017l-.146-94.278a11.77 11.77 0 00-3.461-8.324c-2.213-2.207-5.21-3.445-8.337-3.44l-125.145.162-.02-3.36c0-4.48 1.823-8.77 5.042-11.9 7.844-7.602 12.162-17.768 12.162-28.617v-.227c-.03-22.074-17.948-40.02-40-40.12-22.052.102-39.97 18.047-40 40.12v.227c0 10.85 4.318 21.016 12.162 28.617 3.22 3.13 5.042 7.42 5.042 11.9v.035l-.02 3.324h-21.74l-103.407-.163c-3.126-.004-6.124 1.234-8.337 3.44a11.77 11.77 0 00-3.461 8.324l-.144 94.295c0 3.12 1.24 6.1 3.442 8.32a11.77 11.77 0 008.323 3.462l18.048.02c3.184.01 6.233-1.28 8.454-3.562 5.45-5.602 12.736-8.686 20.518-8.666 15.71.028 28.49 12.832 28.49 28.586-.02 15.74-12.854 28.53-28.592 28.52-7.77-.015-15.045-3.123-20.478-8.757-2.216-2.29-5.27-3.588-8.46-3.592l-18.053-.024c-6.502-.007-11.78 5.252-11.79 11.757l.122 96.286c0 6.496 5.258 11.77 11.756 11.777l120.108.084c3.127.004 6.126-1.23 8.338-3.436s3.46-5.197 3.463-8.32l.02-10.016c0-3.185-1.296-6.232-3.583-8.455-5.572-5.398-8.64-12.623-8.64-20.33v-.16c.022-15.686 12.752-28.434 28.417-28.505 15.665.07 28.395 12.82 28.417 28.505v.16c0 7.707-3.067 14.932-8.64 20.33-2.287 2.223-3.584 5.27-3.584 8.455v.022l.02 9.994c.004 3.123 1.25 6.117 3.463 8.32s5.21 3.438 8.338 3.436l120.108-.084c6.498-.01 11.756-5.28 11.756-11.777v-.018l.126-96.268a11.77 11.77 0 00-11.787-11.757z" fill="url(#o)" transform="matrix(0 .1681 -.1729 0 62.6113 -3.5406)"/><g stroke="#666" stroke-linejoin="round" stroke-width="3"><use fill="#ccc" xlink:href="#a"/><use fill="#e6e6e6" xlink:href="#b"/></g><use fill="#ccc" xlink:href="#a"/><use fill="#e6e6e6" xlink:href="#b"/></svg>