<svg xmlns="http://www.w3.org/2000/svg" stroke="#333" stroke-width="4" viewBox="0 0 64 64"><g stroke-linejoin="round"><g stroke-width="3"><path fill="#ffe680" d="M30 1.6H3A1.5 1.5 0 001.7 3v27A1.5 1.5 0 003 31.4h7.6c-.1 1.5-.3 3 0 4.7v.1a6 6 0 007.8 4.3c2.9-1 4.5-4 3.9-7v.2l-.1-2.3H30a1.5 1.5 0 001.5-1.5v-5.5a1.5 1.5 0 00-1.8-1.5c-3 .6-6.6-1.6-7.4-4.6 0 0 0 0 0 0-.9-3 .8-6.7 3.7-7.9 0 0 0 0 0 0 1.1-.5 2.4-.6 3.7-.4a1.5 1.5 0 001.7-1.5V3A1.5 1.5 0 0030 1.5z"/><path fill="#80e5ff" d="M1.6 33.8v27A1.5 1.5 0 003 62.3H30a1.5 1.5 0 001.5-1.5V53c1.4.1 3 .3 4.6 0h.1a6 6 0 004.3-7.8c-1-2.9-4-4.5-7-4h.2l-2.2.2v-7.7a1.5 1.5 0 00-1.5-1.5h-5.5A1.5 1.5 0 0023 34c.5 3-1.6 6.5-4.6 7.3h0c-3 1-6.7-.8-7.8-3.6h0A6.5 6.5 0 0110 34a1.5 1.5 0 00-1.5-1.7H3.1a1.5 1.5 0 00-1.5 1.5z"/><path fill="#5fd38d" d="M34 62.5h27a1.5 1.5 0 001.5-1.5V34a1.5 1.5 0 00-1.6-1.5h-7.6c.1-1.4.3-3 0-4.7v-.1a6 6 0 00-7.8-4.3c-2.9 1-4.4 4.1-3.9 7v-.2l.1 2.3h-7.6a1.5 1.5 0 00-1.5 1.5v5.5a1.5 1.5 0 001.7 1.5c3.1-.5 6.6 1.6 7.4 4.6h0c1 3-.8 6.7-3.6 7.9H38c-1.1.5-2.4.7-3.7.5a1.5 1.5 0 00-1.7 1.4V61a1.5 1.5 0 001.5 1.5z"/><path fill="#deaa87" d="M62.5 30.2v-27a1.5 1.5 0 00-1.6-1.4H34.1a1.5 1.5 0 00-1.5 1.5V11c-1.5-.2-3-.3-4.7 0h-.1a6 6 0 00-4.3 7.8c1 2.8 4 4.4 7 3.8h-.2 2.3v7.6a1.5 1.5 0 001.5 1.5h5.5A1.5 1.5 0 0041 30c-.5-3.1 1.6-6.6 4.6-7.4h.1a6.7 6.7 0 017.8 3.7c.5 1.1.6 2.4.4 3.7a1.5 1.5 0 001.5 1.7H61a1.5 1.5 0 001.4-1.5z"/></g><path fill="none" stroke-width="3.5" d="M1.8 1.8h60.4v60.4H1.8z"/></g></svg>