<svg enable-background="new 0 0 512 512" viewBox="0 0 512 512" xmlns="http://www.w3.org/2000/svg"><path d="m493.714 274.286h-76.617c-14.069 0-22.857-15.264-15.837-27.427 11.52-19.955-2.589-45.716-26.403-45.716-23.836 0-37.914 25.778-26.403 45.716 7.034 12.187-1.793 27.427-15.837 27.427h-76.617c-10.099 0-18.286-8.187-18.286-18.286v-52.003c-37.291 3.428-73.143-25.595-73.143-66.854 0-41.305 35.907-70.281 73.143-66.854v-52.003c0-10.099 8.187-18.286 18.286-18.286h237.714c10.099 0 18.286 8.187 18.286 18.286v237.714c0 10.099-8.187 18.286-18.286 18.286z" fill="#ff7058"/><path d="m493.714 0h-118.857v201.143c23.814 0 37.923 25.761 26.403 45.716-7.02 12.164 1.768 27.427 15.837 27.427h76.617c10.099 0 18.286-8.187 18.286-18.286v-237.714c0-10.099-8.187-18.286-18.286-18.286z" fill="#f1543f"/><path d="m137.143 347.429c-41.217 0-70.281-35.812-66.854-73.143h-52.003c-10.099 0-18.286-8.187-18.286-18.286v-237.714c0-10.099 8.187-18.286 18.286-18.286h237.714c10.099 0 18.286 8.187 18.286 18.286v76.617c0 14.069-15.265 22.86-27.427 15.837-19.961-11.522-45.716 2.595-45.716 26.403 0 23.89 25.817 37.889 45.716 26.403 12.187-7.034 27.427 1.792 27.427 15.837v76.617c0 10.099-8.187 18.286-18.286 18.286h-52.003c3.407 37.148-25.449 73.143-66.854 73.143z" fill="#fee856"/><path d="m246.858 110.74c12.162 7.023 27.427-1.768 27.427-15.837v-76.617c.001-10.099-8.186-18.286-18.285-18.286h-118.857v347.429c41.405 0 70.261-35.994 66.854-73.143h52.003c10.099 0 18.286-8.187 18.286-18.286v-76.617c0-14.045-15.241-22.869-27.427-15.837-19.899 11.486-45.716-2.514-45.716-26.403 0-23.808 25.755-37.926 45.715-26.403z" fill="#ffce3e"/><path d="m256 512h-237.714c-10.099 0-18.286-8.187-18.286-18.286v-237.714c0-10.099 8.187-18.286 18.286-18.286h76.617c14.068 0 22.858 15.264 15.837 27.427-11.522 19.961 2.595 45.716 26.403 45.716 23.886 0 37.89-25.815 26.403-45.714-7.034-12.186 1.792-27.429 15.837-27.429h76.617c10.099 0 18.286 8.187 18.286 18.286v51.99c37.305-3.415 73.143 25.595 73.143 66.854 0 41.294-35.891 70.276-73.143 66.855v52.016c0 10.098-8.187 18.285-18.286 18.285z" fill="#4cdbc4"/><path d="m274.286 307.99v-51.99c0-10.099-8.187-18.286-18.286-18.286h-76.617c-14.045 0-22.871 15.243-15.837 27.429 11.487 19.9-2.517 45.714-26.403 45.714v201.143h118.857c10.099 0 18.286-8.187 18.286-18.286v-52.014c37.252 3.421 73.143-25.561 73.143-66.855 0-41.259-35.838-70.27-73.143-66.855z" fill="#5ac2ad"/><path d="m493.714 512h-237.714c-10.099 0-18.286-8.187-18.286-18.286v-76.629c0-14.069 15.265-22.86 27.427-15.837 19.956 11.516 45.716-2.589 45.716-26.405 0-23.834-25.778-37.912-45.716-26.403-12.186 7.033-27.427-1.79-27.427-15.835v-76.605c0-10.099 8.187-18.286 18.286-18.286h52.002c-3.418-37.281 25.576-73.143 66.855-73.143 41.295 0 70.273 35.888 66.855 73.143h52.002c10.099 0 18.286 8.187 18.286 18.286v237.714c0 10.099-8.187 18.286-18.286 18.286z" fill="#84dbff"/><path d="m493.714 237.714h-52.002c3.418-37.255-25.56-73.143-66.855-73.143v347.429h118.857c10.099 0 18.286-8.187 18.286-18.286v-237.714c0-10.099-8.187-18.286-18.286-18.286z" fill="#54c9eb"/></svg>