<svg xmlns="http://www.w3.org/2000/svg" xmlns:xlink="http://www.w3.org/1999/xlink" viewBox="0 0 64 64"><defs><path id="a" d="M11.4 56.1a3.6 3.6 0 111.8-6.8 3.6 3.6 0 011.7 4.1 3.6 3.6 0 01-3.5 2.7zm0 0"/></defs><g transform="translate(-5 -5) scale(1.15632)"><path fill="#400" d="M8.3 4.3h47.4a4 4 0 014 4v47.4a4 4 0 01-4 4H8.3a4 4 0 01-4-4V8.3a4 4 0 014-4zm0 0"/><path fill="#b00" d="M11.4 45.9a3.6 3.6 0 111.8-6.8 3.6 3.6 0 01-1.8 6.8zm10.3 0a3.6 3.6 0 113.5-2.7 3.6 3.6 0 01-3.5 2.7zm0 0"/><path fill="#f77" d="M32 45.9c-1.5 0-2.8-1-3.4-2.3a3.6 3.6 0 015.2-4.5 3.6 3.6 0 01-1.8 6.8zm0 0"/><path fill="#b00" d="M42.3 45.9a3.6 3.6 0 01-2.6-6.2 3.6 3.6 0 014.4-.6 3.6 3.6 0 01-1.8 6.8zm10.3 0a3.6 3.6 0 01-2.5-6.2 3.6 3.6 0 016 3.5 3.6 3.6 0 01-3.5 2.7zm0 0"/><path fill="#f77" d="M8.8 34.6a3.6 3.6 0 002.6 1 3.6 3.6 0 002.5-1 3.6 3.6 0 000-5.2 3.6 3.6 0 00-5.1 0 3.6 3.6 0 000 5.2zm10.3 0a3.6 3.6 0 002.6 1 3.6 3.6 0 002.6-1 3.6 3.6 0 10-5.2-5.2 3.6 3.6 0 000 5.2zm10.3 0a3.6 3.6 0 002.6 1c1 0 1.9-.3 2.6-1a3.6 3.6 0 000-5.2 3.6 3.6 0 00-5.2 0 3.6 3.6 0 000 5.2zm10.3 0c.7.7 1.6 1 2.6 1a3.6 3.6 0 002.6-1 3.6 3.6 0 000-5.2 3.6 3.6 0 00-5.2 0 3.6 3.6 0 000 5.2zm10.3 0a3.6 3.6 0 005.2 0 3.6 3.6 0 10-5.2-5.2 3.6 3.6 0 000 5.2zm0 0"/><path fill="#b00" d="M8.8 24.4a3.6 3.6 0 002.6 1c1 0 1.9-.3 2.5-1a3.6 3.6 0 00.8-4 3.6 3.6 0 00-6.7 0 3.6 3.6 0 00.8 4zm10.3 0a3.6 3.6 0 002.6 1 3.6 3.6 0 003.4-5 3.6 3.6 0 00-6.8 0 3.6 3.6 0 00.8 4zm0 0"/><path fill="#f77" d="M29.4 24.4a3.6 3.6 0 006-4 3.6 3.6 0 10-6 4zm0 0"/><path fill="#b00" d="M39.7 24.4a3.6 3.6 0 006-4 3.6 3.6 0 10-6 4zm10.3 0a3.6 3.6 0 002.6 1 3.6 3.6 0 002.6-1 3.6 3.6 0 00.8-4 3.6 3.6 0 00-6.7 0 3.6 3.6 0 00.8 4zm0 0"/><path fill="#700" d="M11.4 15.2a3.6 3.6 0 01-2.6-1 3.6 3.6 0 01-.5-4.7c1-1.4 2.9-2 4.5-1.3a3.7 3.7 0 012.2 4 3.6 3.6 0 01-3.6 3zm0 0"/><path fill="#b00" d="M21.7 15.2a3.6 3.6 0 01-2.6-1 3.6 3.6 0 01-.4-4.7 3.6 3.6 0 016.6 2.8 3.6 3.6 0 01-3.6 2.9zm0 0"/><path fill="#f77" d="M32 15.2a3.6 3.6 0 01-2.6-1 3.6 3.6 0 112.6 1zm0 0"/><path fill="#b00" d="M42.3 15.2a3.6 3.6 0 01-2.6-1 3.6 3.6 0 01-.4-4.7c1-1.4 2.8-2 4.4-1.3a3.6 3.6 0 01-1.4 7zm0 0"/><g fill="#700"><path d="M52.6 15.2a3.6 3.6 0 01-2.6-1 3.6 3.6 0 01-.4-4.7c1-1.4 2.8-2 4.4-1.3a3.6 3.6 0 01-1.4 7zm0 0"/><use xlink:href="#a"/></g><use x="10.3" fill="#b00" xlink:href="#a"/><path fill="#f77" d="M32 56.1a3.6 3.6 0 01-2.6-6.2 3.6 3.6 0 014.4-.6 3.6 3.6 0 011.7 4.1 3.6 3.6 0 01-3.5 2.7zm0 0"/><path fill="#b00" d="M42.3 56.1a3.6 3.6 0 111.8-6.8 3.6 3.6 0 011.7 4.1 3.6 3.6 0 01-3.5 2.7zm0 0"/><path fill="#700" d="M52.6 56.1a3.6 3.6 0 01-3.3-2.2 3.6 3.6 0 113.3 2.2zm0 0"/></g></svg>