<svg xmlns="http://www.w3.org/2000/svg" xmlns:xlink="http://www.w3.org/1999/xlink" viewBox="0 0 64 64"><defs><path id="a" d="M11.37 56.1a3.64 3.64 0 111.82-6.78 3.63 3.63 0 011.69 4.08 3.64 3.64 0 01-3.52 2.7zm0 0"/></defs><g transform="translate(-5 -5) scale(1.15632)"><path fill="#400" d="M8.28 4.33h47.44a3.95 3.95 0 013.95 3.95v47.44a3.95 3.95 0 01-3.95 3.95H8.28a3.95 3.95 0 01-3.95-3.95V8.28a3.95 3.95 0 013.95-3.95zm0 0"/><path fill="#b00" d="M11.37 45.88a3.64 3.64 0 111.81-6.79 3.64 3.64 0 01-1.81 6.79zm10.31 0a3.64 3.64 0 113.52-2.69 3.64 3.64 0 01-3.52 2.69zm0 0"/><path fill="#f77" d="M32 45.88c-1.48 0-2.8-.89-3.37-2.24a3.64 3.64 0 015.18-4.54 3.63 3.63 0 01-1.82 6.78zm0 0"/><path fill="#b00" d="M42.31 45.88a3.63 3.63 0 01-2.57-6.2 3.64 3.64 0 014.39-.58 3.63 3.63 0 01-1.82 6.78zm10.32 0a3.63 3.63 0 01-2.57-6.21 3.64 3.64 0 016.08 3.51 3.63 3.63 0 01-3.5 2.7zm0 0"/><path fill="#f77" d="M8.8 34.59a3.63 3.63 0 002.56 1.07 3.62 3.62 0 002.58-1.07 3.64 3.64 0 000-5.15 3.64 3.64 0 00-5.14 0 3.64 3.64 0 000 5.15zm10.31 0a3.63 3.63 0 002.58 1.07 3.62 3.62 0 002.57-1.07 3.64 3.64 0 10-5.15-5.15 3.64 3.64 0 000 5.15zm10.3 0A3.63 3.63 0 0032 35.66c.97 0 1.9-.39 2.58-1.07a3.64 3.64 0 000-5.15 3.63 3.63 0 00-5.15 0 3.64 3.64 0 000 5.15zm10.33 0c.68.68 1.6 1.07 2.57 1.07a3.63 3.63 0 002.58-1.07 3.64 3.64 0 000-5.15 3.63 3.63 0 00-5.15 0 3.64 3.64 0 000 5.15zm10.3 0a3.61 3.61 0 005.16 0 3.64 3.64 0 10-5.15-5.15 3.64 3.64 0 000 5.15zm0 0"/><path fill="#b00" d="M8.8 24.36a3.65 3.65 0 002.56 1.07c.97 0 1.9-.38 2.58-1.07a3.64 3.64 0 00.8-3.97 3.65 3.65 0 00-6.74 0 3.64 3.64 0 00.8 3.97zm10.31 0a3.65 3.65 0 002.58 1.07 3.64 3.64 0 003.37-5.04 3.65 3.65 0 00-6.74 0 3.64 3.64 0 00.8 3.97zm0 0"/><path fill="#f77" d="M29.42 24.36a3.64 3.64 0 005.95-3.97 3.65 3.65 0 10-5.95 3.97zm0 0"/><path fill="#b00" d="M39.74 24.36a3.64 3.64 0 005.95-3.97 3.65 3.65 0 10-5.95 3.97zm10.3 0a3.63 3.63 0 002.58 1.07 3.65 3.65 0 002.57-1.07 3.64 3.64 0 00.8-3.97 3.65 3.65 0 00-6.74 0 3.64 3.64 0 00.8 3.97zm0 0"/><path fill="#700" d="M11.37 15.2a3.62 3.62 0 01-2.58-1.08 3.65 3.65 0 01-.44-4.6c.97-1.45 2.83-2 4.44-1.34a3.66 3.66 0 012.17 4.1 3.65 3.65 0 01-3.6 2.92zm0 0"/><path fill="#b00" d="M21.67 15.2a3.62 3.62 0 01-2.57-1.08 3.65 3.65 0 01-.44-4.6 3.65 3.65 0 016.6 2.75 3.64 3.64 0 01-3.59 2.93zm0 0"/><path fill="#f77" d="M32 15.2a3.62 3.62 0 01-2.58-1.08 3.65 3.65 0 112.57 1.08zm0 0"/><path fill="#b00" d="M42.3 15.2a3.61 3.61 0 01-2.57-1.08 3.65 3.65 0 01-.44-4.6c.97-1.45 2.82-2 4.43-1.34a3.65 3.65 0 01-1.42 7.02zm0 0"/><g fill="#700"><path d="M52.62 15.2a3.6 3.6 0 01-2.57-1.08 3.65 3.65 0 01-.44-4.6c.97-1.45 2.82-2 4.43-1.34a3.65 3.65 0 01-1.42 7.02zm0 0"/><use xlink:href="#a"/></g><use x="10.32" fill="#b00" xlink:href="#a"/><path fill="#f77" d="M32 56.1a3.64 3.64 0 01-2.58-6.21 3.64 3.64 0 014.39-.57 3.63 3.63 0 011.7 4.08 3.64 3.64 0 01-3.52 2.7zm0 0"/><path fill="#b00" d="M42.31 56.1a3.64 3.64 0 111.82-6.78 3.63 3.63 0 011.69 4.08 3.64 3.64 0 01-3.5 2.7zm0 0"/><path fill="#700" d="M52.63 56.1a3.63 3.63 0 01-3.36-2.24 3.64 3.64 0 113.36 2.24zm0 0"/></g></svg>