<svg enable-background="new 0 0 421.141 421.141" viewBox="0 0 421.141 421.141" xmlns="http://www.w3.org/2000/svg"><path d="m121.521 176.024c-9.864-2.468-16.326 2.805-16.326 13.161 0 13.709 13.265 47.296 27.21 26.321s-10.884-39.482-10.884-39.482z" fill="#ffe1b2"/><path d="m297.944 176.024c10.767-2.468 17.821 2.805 17.821 13.161 0 13.709-14.479 47.296-29.701 26.321s11.88-39.482 11.88-39.482z" fill="#ffe1b2"/><path d="m138.277 294.307c14.716-9.475 13.07-37.675 13.07-44.255h118.446c0 6.58-1.825 34.78 12.89 44.255l-72.113 80.771z" fill="#ffd7a3"/><path d="m256.632 322.436 26.051-28.129c-14.716-9.474-12.89-37.675-12.89-44.255h-118.446c8.498 24.433 64.707 66.352 105.285 72.384z" fill="#fdc88e"/><path d="m302.695 164.508c0 52.696-30.343 118.446-92.124 118.446s-92.124-65.75-92.124-118.446 41.246-72.384 92.124-72.384 92.124 19.688 92.124 72.384z" fill="#ffe1b2"/><path d="m138.187 147.146c-2.742 7.887-6.58 43.683-6.58 43.683l-13.161-7.281-3.701-48.234z" fill="#543d38"/><path d="m282.954 147.146c2.742 7.887 6.58 43.683 6.58 43.683l13.161-7.281 3.701-48.234z" fill="#543d38"/><path d="m361.918 421.141c10.903 0 19.741-8.838 19.741-19.741v-30.562c0-28.954-22.562-59.864-50.138-68.687l-41.168-13.173c-22.149 16.936-53.802 40.039-79.782 40.039s-57.633-23.103-79.782-40.039l-41.169 13.173c-27.576 8.823-50.138 39.733-50.138 68.687v30.562c0 10.903 8.838 19.741 19.741 19.741z" fill="#2582b1"/><path d="m175.612 329.016h72.384v92.124h-72.384z" fill="#d0d7dc"/><path d="m223.731 348.757c0 3.619-2.961 6.58-6.58 6.58h-13.161c-3.619 0-6.58-2.961-6.58-6.58v-13.161c0-3.619 2.961-6.58 6.58-6.58h13.161c3.619 0 6.58 2.961 6.58 6.58z" fill="#545465"/><circle cx="210.57" cy="388.239" fill="#d0d7dc" r="6.58"/><path d="m210.57 329.016-27.456 27.456c-2.859 2.859-7.596 2.487-9.975-.783l-48.113-66.156 15.326-15.326c2.475-2.475 6.454-2.579 9.055-.238z" fill="#e4ebf0"/><path d="m210.57 329.016 27.456 27.456c2.859 2.859 7.596 2.487 9.975-.783l48.113-66.156-15.326-15.326c-2.475-2.475-6.454-2.579-9.055-.238z" fill="#e4ebf0"/><path d="m219.611 351.636-9.041 3.701-9.04-3.701-4.12 69.505h13.16 13.161z" fill="#545465"/><path d="m342.177 85.544c0 36.342-58.922 46.062-131.606 46.062s-131.606-9.72-131.606-46.062 58.921-85.544 131.605-85.544 131.607 49.202 131.607 85.544z" fill="#2582b1"/><ellipse cx="210.57" cy="131.606" fill="#29394a" rx="98.705" ry="26.321"/><path d="m111.865 108.39v23.216c21.558-3.809 57.709-6.311 98.705-6.311s77.147 2.502 98.705 6.311v-23.216c-21.557-10.547-57.708-17.473-98.705-17.473s-77.146 6.926-98.705 17.473z" fill="#1464a2"/><path d="m212.627 233.505c0-8.689-8.431-10.656-13.983-8.55-10.179 3.861-21.386 14.632-30.845 7.971 0 0 3.29 13.903 8.841 13.903 11.103-.001 35.987 1.448 35.987-13.324z" fill="#543d38"/><path d="m209.966 233.505c0-8.689 8.431-10.656 13.983-8.55 10.179 3.861 21.386 14.632 30.845 7.971 0 0-3.29 13.903-8.841 13.903-11.104-.001-35.987 1.448-35.987-13.324z" fill="#543d38"/><path d="m327.81 315.5c-3.657-15.003-17.009-53.296-58.016-53.296 0 13.06-2.283 26.02-6.746 38.294l-39.729 120.642h35.595l46.325-56.196c2.316-2.315 2.576-5.981.611-8.601l-16.317-21.756 33.95-11.317c3.251-1.082 5.138-4.442 4.327-7.77z" fill="#1464a2"/><path d="m115.29 356.343c-1.965 2.62-1.705 6.286.611 8.601l46.325 56.196h35.595l-39.728-120.643c-4.463-12.274-6.746-25.233-6.746-38.294-41.008 0-54.359 38.294-58.016 53.296-.811 3.328 1.076 6.688 4.326 7.771l33.95 11.317z" fill="#1464a2"/><circle cx="209.966" cy="51.381" fill="#ffd267" r="17.273"/><path d="m103.78 297.619-14.16 4.531c-4.419 1.414-8.686 3.447-12.775 5.896l114.955 113.094h37.535z" fill="#543d38"/></svg>