<svg xmlns="http://www.w3.org/2000/svg" viewBox="0 0 421.141 421.141"><path d="M121.52 176.024c-9.864-2.468-16.326 2.805-16.326 13.16 0 13.7 13.265 47.296 27.2 26.32S121.5 176.022 121.5 176.022zm176.424 0c10.767-2.468 17.82 2.805 17.82 13.16 0 13.7-14.48 47.296-29.7 26.32s11.88-39.482 11.88-39.482z" fill="#ffe1b2"/><path d="M138.277 294.307c14.716-9.475 13.07-37.675 13.07-44.255h118.446c0 6.58-1.825 34.78 12.9 44.255l-72.113 80.77z" fill="#ffd7a3"/><path d="M256.632 322.436l26.05-28.13c-14.716-9.474-12.9-37.675-12.9-44.255H151.347c8.498 24.433 64.707 66.352 105.285 72.384z" fill="#fdc88e"/><path d="m302.695 164.508c0 52.696-30.343 118.446-92.124 118.446s-92.124-65.75-92.124-118.446 41.246-72.384 92.124-72.384 92.124 19.688 92.124 72.384z" fill="#ffe1b2"/><path d="M138.187 147.146c-2.742 7.887-6.58 43.683-6.58 43.683l-13.16-7.28-3.7-48.234zm144.767 0c2.742 7.887 6.58 43.683 6.58 43.683l13.16-7.28 3.7-48.234z" fill="#543d38"/><path d="M361.918 421.14c10.903 0 19.74-8.838 19.74-19.74v-30.562c0-28.954-22.562-59.864-50.138-68.687l-41.168-13.173c-22.15 16.936-53.802 40.04-79.782 40.04s-57.633-23.103-79.782-40.04L89.62 302.15c-27.576 8.823-50.138 39.733-50.138 68.687V401.4c0 10.903 8.838 19.74 19.74 19.74z" fill="#2582b1"/><path d="m175.612 329.016h72.384v92.124h-72.384z" fill="#d0d7dc"/><path d="M223.73 348.757c0 3.62-2.96 6.58-6.58 6.58H204c-3.62 0-6.58-2.96-6.58-6.58v-13.16c0-3.62 2.96-6.58 6.58-6.58h13.16c3.62 0 6.58 2.96 6.58 6.58z" fill="#545465"/><circle cx="210.57" cy="388.239" fill="#d0d7dc" r="6.58"/><g fill="#e4ebf0"><path d="M210.57 329.016l-27.456 27.456c-2.86 2.86-7.596 2.487-9.975-.783l-48.113-66.156 15.326-15.326a6.58 6.58 0 0 1 9.055-.238z"/><path d="M210.57 329.016l27.456 27.456c2.86 2.86 7.596 2.487 9.975-.783l48.113-66.156-15.326-15.326a6.58 6.58 0 0 0-9.055-.238z"/></g><path d="M219.61 351.636l-9.04 3.7-9.04-3.7-4.12 69.505h26.32z" fill="#545465"/><path d="M342.177 85.544c0 36.342-58.922 46.062-131.606 46.062s-131.606-9.72-131.606-46.062S137.886 0 210.57 0s131.607 49.202 131.607 85.544z" fill="#2582b1"/><ellipse cx="210.57" cy="131.606" fill="#29394a" rx="98.705" ry="26.321"/><path d="M111.865 108.4v23.216c21.558-3.81 57.71-6.31 98.705-6.31s77.147 2.502 98.705 6.31V108.4c-21.557-10.547-57.708-17.473-98.705-17.473s-77.146 6.926-98.705 17.473z" fill="#1464a2"/><g fill="#543d38"><path d="M212.627 233.505c0-8.69-8.43-10.656-13.983-8.55-10.18 3.86-21.386 14.632-30.845 7.97 0 0 3.3 13.903 8.84 13.903 11.103-.001 35.987 1.448 35.987-13.324z"/><path d="M209.966 233.505c0-8.69 8.43-10.656 13.983-8.55 10.18 3.86 21.386 14.632 30.845 7.97 0 0-3.3 13.903-8.84 13.903-11.104-.001-35.987 1.448-35.987-13.324z"/></g><path d="M327.8 315.5c-3.657-15.003-17-53.296-58.016-53.296a112.06 112.06 0 0 1-6.746 38.294L223.32 421.14h35.595l46.325-56.196a6.58 6.58 0 0 0 .611-8.601l-16.317-21.756 33.95-11.317c3.25-1.082 5.138-4.442 4.327-7.77zm-212.5 40.843a6.58 6.58 0 0 0 .611 8.601l46.325 56.196h35.595l-39.728-120.643a112.06 112.06 0 0 1-6.746-38.294c-41.008 0-54.36 38.294-58.016 53.296-.8 3.328 1.076 6.688 4.326 7.77l33.95 11.317z" fill="#1464a2"/><circle cx="209.966" cy="51.381" fill="#ffd267" r="17.273"/><path d="M103.78 297.62l-14.16 4.53c-4.42 1.414-8.686 3.447-12.775 5.896L191.8 421.14h37.535z" fill="#543d38"/></svg>