<svg xmlns="http://www.w3.org/2000/svg" viewBox="0 0 64 64"><defs/><path fill="#ffe1b2" d="M19.23 27.4c-1.48-.37-2.45.42-2.45 1.97 0 2.06 1.99 7.1 4.08 3.95s-1.63-5.92-1.63-5.92zm26.46 0c1.62-.37 2.67.42 2.67 1.97 0 2.06-2.17 7.1-4.46 3.95s1.78-5.92 1.78-5.92z"/><path fill="#ffd7a3" d="M21.74 45.15c2.21-1.42 1.96-5.65 1.96-6.64h17.77c0 .99-.27 5.22 1.94 6.64L32.59 57.27z"/><path fill="#fdc88e" d="M39.49 49.37l3.91-4.22c-2.21-1.42-1.94-5.65-1.94-6.64H23.7c1.27 3.66 9.71 9.95 15.79 10.86z"/><path fill="#ffe1b2" d="M46.41 25.68c0 7.91-4.55 17.77-13.82 17.77s-13.82-9.86-13.82-17.77 6.19-10.86 13.82-10.86 13.82 2.95 13.82 10.86z"/><path fill="#543d38" d="M21.73 23.07c-.41 1.18-.99 6.55-.99 6.55l-1.97-1.09-.56-7.23zm21.72 0c.41 1.18.99 6.55.99 6.55l1.97-1.09.56-7.23z"/><path fill="#2582b1" d="M55.29 64.17a2.96 2.96 0 002.96-2.96v-4.58c0-4.34-3.38-8.98-7.52-10.3l-6.18-1.98c-3.32 2.54-8.07 6.01-11.97 6.01s-8.64-3.47-11.97-6.01l-6.18 1.98c-4.14 1.32-7.52 5.96-7.52 10.3v4.58a2.96 2.96 0 002.96 2.96z"/><path fill="#d0d7dc" d="M27.34 50.35H38.2v13.82H27.34z"/><path fill="#545465" d="M34.56 53.31c0 .54-.44.99-.99.99H31.6c-.54 0-.99-.44-.99-.99v-1.97c0-.54.44-.99.99-.99h1.97c.54 0 .99.44.99.99z"/><circle cx="32.59" cy="59.24" r=".99" fill="#d0d7dc"/><g fill="#e4ebf0"><path d="M32.59 50.35l-4.12 4.12a.99.99 0 01-1.5-.12l-7.22-9.92 2.3-2.3a.99.99 0 011.36-.04zM32.59 50.35l4.12 4.12a.99.99 0 001.5-.12l7.22-9.92-2.3-2.3a.99.99 0 00-1.36-.04z"/></g><path fill="#545465" d="M33.94 53.75l-1.36.56-1.36-.56-.62 10.43h3.95z"/><path fill="#2582b1" d="M52.33 13.83c0 5.45-8.84 6.91-19.74 6.91s-19.74-1.46-19.74-6.91S21.69 1 32.59 1s19.74 7.38 19.74 12.83z"/><ellipse cx="32.59" cy="20.74" fill="#29394a" rx="14.81" ry="3.95"/><path fill="#1464a2" d="M17.78 17.26v3.48c3.23-.57 8.66-.95 14.81-.95s11.57.38 14.81.95v-3.48c-3.24-1.58-8.66-2.62-14.81-2.62s-11.57 1.04-14.81 2.62z"/><g fill="#543d38"><path d="M32.89 36.03c0-1.3-1.26-1.6-2.1-1.28-1.53.58-3.21 2.19-4.63 1.2 0 0 .5 2.09 1.33 2.09 1.67 0 5.4.22 5.4-2z"/><path d="M32.5 36.03c0-1.3 1.26-1.6 2.1-1.28 1.53.58 3.21 2.19 4.63 1.2 0 0-.5 2.09-1.33 2.09-1.67 0-5.4.22-5.4-2z"/></g><path fill="#1464a2" d="M50.17 48.33c-.55-2.25-2.55-8-8.7-8a16.81 16.81 0 01-1.01 5.74l-5.96 18.1h5.34l6.95-8.43a.99.99 0 00.09-1.29l-2.45-3.26 5.09-1.7c.49-.16.77-.67.65-1.17zm-31.88 6.13a.99.99 0 00.09 1.29l6.95 8.43h5.34l-5.96-18.1a16.81 16.81 0 01-1.01-5.74c-6.15 0-8.15 5.74-8.7 8-.12.5.16 1 .65 1.17l5.09 1.7z"/><circle cx="32.5" cy="8.71" r="2.59" fill="#ffd267"/><path fill="#543d38" d="M16.57 45.64l-2.12.68c-.66.21-1.3.52-1.92.89l17.24 16.96h5.63z"/></svg>