<svg xmlns="http://www.w3.org/2000/svg" height="64" width="64"><path d="M18.952 1h44.04v61.98H18.952z" fill="#fff" stroke="#ccc" stroke-width="2.019"/><path d="M23.044 7.985h8.523v8.523h-8.523z" fill="#afdde9"/><g fill="none"><path d="M34.55 9.09h24.543" stroke="#afdde9" stroke-width="2"/><path d="M36.095 15.464H45.2m3.797 0H59.09m-37.63 39.04h37.35m-26.2-7.55h3.574m3.183 0h19.724" stroke="#b3b3b3" stroke-width="2"/><path d="M32.17 39.083h26.92" stroke="#afdde9" stroke-width="3"/></g><g stroke="#b3b3b3" stroke-width="2"><path d="M38.083 31.2h21.01" fill="#87cdde"/><path d="M35.728 23.837h3.153m2.808 0h17.403" fill="none"/></g><g fill="#eeb490"><circle cx="10.762" cy="32.641" r="4.035"/><circle cx="31.798" cy="32.641" r="4.035"/></g><path d="M42.536 64H0v-7.618c0-3.55 2.654-6.515 6.136-6.963l9.376-3.723h11.513L36.4 49.42c3.516.414 6.136 3.413 6.136 6.963z" fill="#9d9072"/><path d="M13.512 47.73v3.413c0 4.343 3.55 7.997 7.894 7.928C25.61 59.002 29 55.555 29 51.315V47.73c0-1.24-1-2.24-2.24-2.24H15.72c-1.207.035-2.206 1.034-2.206 2.24z" fill="#807576"/><path d="M15.96 42.835v5.653a5.31 5.31 0 0 0 5.308 5.308 5.31 5.31 0 0 0 5.308-5.308v-5.653z" fill="#eeb490"/><path d="M26.61 21.912H15.925c-2.516 0-4.55 2.034-4.55 4.55V36.7c0 5.48 4.447 9.893 9.893 9.893 5.48 0 9.893-4.447 9.893-9.893V26.462c0-2.516-2.034-4.55-4.55-4.55z" fill="#faccb4"/><g fill="#56545f"><path d="M31.177 17.674s7.62 1 0 15.38v-5.897s-.552-4.242-3.138-4.483z"/><path d="M26.004 12.295h-9.45c-.38 0-.76.034-1.104.103-14.277 0-4.07 21.38-4.07 21.38 0-8.242 5.173-8.276 5.173-8.276h9.484c3.656 0 6.587-2.966 6.587-6.587 0-3.655-2.966-6.62-6.62-6.62z"/></g></svg>