<svg xmlns="http://www.w3.org/2000/svg" viewBox="0 0 64 64"><path fill="#fff" stroke="#ccc" stroke-width="2.019" d="M18.952 1h44.04v61.98h-44.04z"/><path fill="#afdde9" d="M23.044 7.985h8.523v8.523h-8.523z"/><g fill="none"><path stroke="#afdde9" stroke-width="2" d="M34.55 9.09h24.543"/><path stroke="#b3b3b3" stroke-width="2" d="M36.095 15.464H45.2m3.797 0H59.09m-37.63 39.04h37.35m-26.2-7.55h3.574m3.183 0h19.724"/><path stroke="#afdde9" stroke-width="3" d="M32.17 39.083h26.92"/></g><g stroke="#b3b3b3" stroke-width="2"><path fill="#87cdde" d="M38.083 31.2h21.01"/><path fill="none" d="M35.728 23.837h3.153m2.808 0h17.403"/></g><g fill="#eeb490"><circle cx="10.762" cy="32.641" r="4.035"/><circle cx="31.798" cy="32.641" r="4.035"/></g><path fill="#9d9072" d="M42.536 64H0v-7.618c0-3.55 2.654-6.515 6.136-6.963l9.376-3.723h11.513L36.4 49.42c3.516.414 6.136 3.413 6.136 6.963z"/><path fill="#807576" d="M13.512 47.73v3.413c0 4.343 3.55 7.997 7.894 7.928C25.61 59.002 29 55.555 29 51.315V47.73c0-1.24-1-2.24-2.24-2.24H15.72c-1.207.035-2.206 1.034-2.206 2.24z"/><path fill="#eeb490" d="M15.96 42.835v5.653a5.31 5.31 0 005.308 5.308 5.31 5.31 0 005.308-5.308v-5.653z"/><path fill="#faccb4" d="M26.61 21.912H15.925a4.546 4.546 0 00-4.55 4.55V36.7c0 5.48 4.447 9.893 9.893 9.893 5.48 0 9.893-4.447 9.893-9.893V26.462a4.546 4.546 0 00-4.55-4.55z"/><g fill="#56545f"><path d="M31.177 17.674s7.62 1 0 15.38v-5.897s-.552-4.242-3.138-4.483z"/><path d="M26.004 12.295h-9.45a5.7 5.7 0 00-1.104.103c-14.277 0-4.07 21.38-4.07 21.38 0-8.242 5.173-8.276 5.173-8.276h9.484a6.586 6.586 0 006.587-6.587 6.622 6.622 0 00-6.62-6.62z"/></g></svg>