<svg xmlns="http://www.w3.org/2000/svg" viewBox="0 0 504.123 504.123" xmlns:v="https://vecta.io/nano"><path d="M72.2 176.766c0 6.522-5.285 11.815-11.815 11.815-6.514 0-11.815-5.293-11.815-11.815V78.304c0-6.522 5.3-11.815 11.815-11.815 6.53 0 11.815 5.293 11.815 11.815z" fill="#a3c0c4"/><path d="M504.123 431.71c0 17.77-14.4 32.185-32.177 32.185H32.185C14.415 463.896 0 449.48 0 431.71V217.198c0-17.778 14.415-32.177 32.185-32.177h439.76c17.778 0 32.177 14.4 32.177 32.177z" fill="#003e89"/><path d="M504.123 404.14c0 17.77-14.4 32.185-32.177 32.185H32.185C14.415 436.326 0 421.912 0 404.14V189.63c0-17.778 14.415-32.177 32.185-32.177h439.76c17.778 0 32.177 14.4 32.177 32.177z" fill="#085bbf"/><path d="M0 189.63c0-17.778 14.415-32.177 32.185-32.177h439.76c17.778 0 32.177 14.4 32.177 32.177" fill="#177add"/><path d="M129.97 223.342c52.137 0 94.68 40.487 98.194 91.72.142-2.064.347-4.104.347-6.215 0-54.422-44.12-98.532-98.54-98.532-54.414 0-98.54 44.12-98.54 98.532 0 2.11.197 4.15.34 6.215 3.52-51.23 46.08-91.72 98.2-91.72z" fill="#566366"/><path d="M129.97 216.828c-54.414 0-98.54 44.11-98.54 98.525 0 25.214 9.507 74.894 25.104 128.843h146.88C219.002 390.24 228.5 340.583 228.5 315.353c0-54.414-44.12-98.525-98.54-98.525z" fill="#003e89"/><circle cx="129.969" cy="315.353" fill="#121c1b" r="98.54"/><path d="M60.3 385.032c-38.48-38.48-38.48-100.864 0-139.343 38.487-38.487 100.872-38.487 139.35 0" fill="#283538"/><path d="M136.074 271.14c0 3.37-2.74 6.105-6.105 6.105-3.37 0-6.105-2.74-6.105-6.105v-21.22c0-3.37 2.74-6.105 6.105-6.105 3.37 0 6.105 2.74 6.105 6.105z" fill="#121c1b"/><path d="M136.074 261.742c0 3.387-2.74 6.12-6.105 6.12-3.37 0-6.105-2.74-6.105-6.12v-21.205c0-3.38 2.74-6.112 6.105-6.112 3.37 0 6.105 2.74 6.105 6.113z" fill="#65e83a"/><path d="M476.562 244.382c0 12.327-9.996 22.315-22.315 22.315h-196.94c-12.312 0-22.307-9.988-22.307-22.315 0-12.32 9.996-22.315 22.307-22.315h196.94a22.32 22.32 0 0 1 22.315 22.315z" fill="#003e89"/><path d="M476.562 232.566c0 12.32-9.996 22.315-22.315 22.315h-196.94c-12.312 0-22.307-9.996-22.307-22.315s9.996-22.315 22.307-22.315h196.94c12.32 0 22.315 9.988 22.315 22.315z" fill="#fafdfe"/><path d="M257.308 210.25h196.94c12.32 0 22.315 9.996 22.315 22.315s-9.996 22.315-22.315 22.315" fill="#dde9ed"/><path d="M286.192 237.49c0 5.435-4.41 9.846-9.854 9.846a9.85 9.85 0 0 1-9.838-9.846v-9.846a9.85 9.85 0 0 1 9.838-9.846c5.443 0 9.854 4.41 9.854 9.846z" fill="#65e83a"/><path d="M276.338 217.797c5.443 0 9.854 4.41 9.854 9.846v9.846c0 5.435-4.41 9.846-9.854 9.846" fill="#41bc13"/><path d="M88.615 59.266a19.04 19.04 0 0 1-19.031 19.039H51.2a19.04 19.04 0 0 1 0-38.078h18.385a19.04 19.04 0 0 1 19.03 19.039z" fill="#7e9799"/><path d="M88.615 59.266a19.04 19.04 0 0 1-19.031 19.039H51.2a19.04 19.04 0 0 1-19.031-19.039" fill="#637f7f"/><g fill="#003e89"><circle cx="297.039" cy="297.511" r="8.862"/><circle cx="343.276" cy="297.511" r="8.862"/><circle cx="389.585" cy="297.511" r="8.862"/><circle cx="435.862" cy="297.511" r="8.862"/><circle cx="297.039" cy="336.896" r="8.862"/><circle cx="343.276" cy="336.896" r="8.862"/><circle cx="389.585" cy="336.896" r="8.862"/><circle cx="435.862" cy="336.896" r="8.862"/><circle cx="297.039" cy="376.281" r="8.862"/><circle cx="343.276" cy="376.281" r="8.862"/><circle cx="389.585" cy="376.281" r="8.862"/><circle cx="435.862" cy="376.281" r="8.862"/></g></svg>