<svg xmlns="http://www.w3.org/2000/svg" viewBox="0 0 504.1 504.1"><path fill="#a3c0c4" d="M72.2 176.8a11.8 11.8 0 11-23.6 0V78.3a11.8 11.8 0 0123.6 0z"/><path fill="#003e89" d="M504.1 431.7A32.2 32.2 0 01472 464H32.2A32.2 32.2 0 010 431.7V217.2A32.2 32.2 0 0132.2 185h439.7a32.2 32.2 0 0132.2 32.2z"/><path fill="#085bbf" d="M504.1 404.1a32.2 32.2 0 01-32.2 32.2H32.2A32.2 32.2 0 010 404.1V189.6a32.2 32.2 0 0132.2-32.1h439.7a32.2 32.2 0 0132.2 32.1z"/><path fill="#177add" d="M0 189.6a32.2 32.2 0 0132.2-32.1h439.7a32.2 32.2 0 0132.2 32.1"/><path fill="#566366" d="M130 223.3a98.4 98.4 0 0198.2 91.8c.1-2.1.3-4.1.3-6.3a98.5 98.5 0 00-197 0c0 2.2.1 4.2.3 6.3a98.5 98.5 0 0198.2-91.8z"/><path fill="#003e89" d="M130 216.8a98.5 98.5 0 00-98.6 98.6c0 25.2 9.5 74.8 25.1 128.8h147c15.5-54 25-103.6 25-128.8a98.5 98.5 0 00-98.5-98.6z"/><circle cx="130" cy="315.4" r="98.5" fill="#121c1b"/><path fill="#283538" d="M60.3 385a98.5 98.5 0 11139.3-139.3"/><path fill="#121c1b" d="M136 271.1a6.1 6.1 0 01-6 6.1 6.1 6.1 0 01-6.1-6v-21.3a6.1 6.1 0 016-6 6.1 6.1 0 016.2 6z"/><path fill="#65e83a" d="M136 261.7a6.1 6.1 0 11-12.1 0v-21.2a6.1 6.1 0 016-6c3.4 0 6.2 2.7 6.2 6z"/><path fill="#003e89" d="M476.6 244.4c0 12.3-10 22.3-22.4 22.3H257.3a22.3 22.3 0 010-44.6h197a22.3 22.3 0 0122.3 22.3z"/><path fill="#fafdfe" d="M476.6 232.6c0 12.3-10 22.3-22.4 22.3H257.3a22.3 22.3 0 010-44.6h197c12.3 0 22.3 10 22.3 22.3z"/><path fill="#dde9ed" d="M257.3 210.3h197a22.3 22.3 0 010 44.6"/><path fill="#65e83a" d="M286.2 237.5c0 5.4-4.4 9.8-9.9 9.8a9.8 9.8 0 01-9.8-9.8v-9.9a9.8 9.8 0 019.8-9.8c5.5 0 9.9 4.4 9.9 9.8z"/><path fill="#41bc13" d="M276.3 217.8c5.5 0 9.9 4.4 9.9 9.8v9.9c0 5.4-4.4 9.8-9.9 9.8"/><path fill="#7e9799" d="M88.6 59.3a19 19 0 01-19 19H51.2a19 19 0 010-38h18.4a19 19 0 0119 19z"/><path fill="#637f7f" d="M88.6 59.3a19 19 0 01-19 19H51.2a19 19 0 01-19-19"/><g fill="#003e89"><circle cx="297" cy="297.5" r="8.9"/><circle cx="343.3" cy="297.5" r="8.9"/><circle cx="389.6" cy="297.5" r="8.9"/><circle cx="435.9" cy="297.5" r="8.9"/><circle cx="297" cy="336.9" r="8.9"/><circle cx="343.3" cy="336.9" r="8.9"/><circle cx="389.6" cy="336.9" r="8.9"/><circle cx="435.9" cy="336.9" r="8.9"/><circle cx="297" cy="376.3" r="8.9"/><circle cx="343.3" cy="376.3" r="8.9"/><circle cx="389.6" cy="376.3" r="8.9"/><circle cx="435.9" cy="376.3" r="8.9"/></g></svg>