<svg enable-background="new 0 0 504.123 504.123" viewBox="0 0 504.123 504.123" xmlns="http://www.w3.org/2000/svg"><path d="m72.2 176.766c0 6.522-5.285 11.815-11.815 11.815-6.514 0-11.815-5.293-11.815-11.815v-98.462c0-6.522 5.301-11.815 11.815-11.815 6.53 0 11.815 5.293 11.815 11.815z" fill="#a3c0c4"/><path d="m504.123 431.711c0 17.77-14.399 32.185-32.177 32.185h-439.761c-17.77 0-32.185-14.415-32.185-32.185v-214.513c0-17.778 14.415-32.177 32.185-32.177h439.761c17.778 0 32.177 14.399 32.177 32.177z" fill="#003e89"/><path d="m504.123 404.141c0 17.77-14.399 32.185-32.177 32.185h-439.761c-17.77 0-32.185-14.414-32.185-32.185v-214.512c0-17.778 14.415-32.177 32.185-32.177h439.761c17.778 0 32.177 14.399 32.177 32.177z" fill="#085bbf"/><path d="m0 189.629c0-17.778 14.415-32.177 32.185-32.177h439.761c17.778 0 32.177 14.399 32.177 32.177" fill="#177add"/><path d="m129.969 223.342c52.137 0 94.681 40.487 98.194 91.719.142-2.064.347-4.104.347-6.215 0-54.422-44.119-98.532-98.54-98.532-54.414 0-98.54 44.119-98.54 98.532 0 2.111.197 4.151.339 6.215 3.52-51.231 46.079-91.719 98.2-91.719z" fill="#566366"/><path d="m129.969 216.828c-54.414 0-98.54 44.111-98.54 98.525 0 25.214 9.507 74.894 25.104 128.843h146.881c15.588-53.957 25.096-103.613 25.096-128.843 0-54.414-44.119-98.525-98.541-98.525z" fill="#003e89"/><circle cx="129.969" cy="315.353" fill="#121c1b" r="98.54"/><path d="m60.29 385.032c-38.479-38.479-38.479-100.864 0-139.343 38.487-38.487 100.872-38.487 139.351 0" fill="#283538"/><path d="m136.074 271.139c0 3.371-2.741 6.105-6.105 6.105-3.371 0-6.105-2.741-6.105-6.105v-21.22c0-3.371 2.741-6.105 6.105-6.105 3.371 0 6.105 2.741 6.105 6.105z" fill="#121c1b"/><path d="m136.074 261.742c0 3.387-2.741 6.12-6.105 6.12-3.371 0-6.105-2.741-6.105-6.12v-21.205c0-3.379 2.741-6.112 6.105-6.112 3.371 0 6.105 2.741 6.105 6.113z" fill="#65e83a"/><path d="m476.562 244.382c0 12.327-9.996 22.315-22.315 22.315h-196.939c-12.312 0-22.307-9.988-22.307-22.315 0-12.32 9.996-22.315 22.307-22.315h196.939c12.319-.001 22.315 9.987 22.315 22.315z" fill="#003e89"/><path d="m476.562 232.566c0 12.32-9.996 22.315-22.315 22.315h-196.939c-12.312 0-22.307-9.996-22.307-22.315 0-12.32 9.996-22.315 22.307-22.315h196.939c12.319 0 22.315 9.988 22.315 22.315z" fill="#fafdfe"/><path d="m257.308 210.251h196.939c12.319 0 22.315 9.996 22.315 22.315 0 12.32-9.996 22.315-22.315 22.315" fill="#dde9ed"/><path d="m286.192 237.489c0 5.435-4.411 9.846-9.854 9.846-5.427 0-9.838-4.411-9.838-9.846v-9.846c0-5.435 4.411-9.846 9.838-9.846 5.443 0 9.854 4.411 9.854 9.846z" fill="#65e83a"/><path d="m276.338 217.797c5.443 0 9.854 4.411 9.854 9.846v9.846c0 5.435-4.411 9.846-9.854 9.846" fill="#41bc13"/><path d="m88.615 59.266c0 10.516-8.523 19.039-19.031 19.039h-18.384c-10.508 0-19.031-8.523-19.031-19.039s8.523-19.039 19.031-19.039h18.385c10.508 0 19.03 8.523 19.03 19.039z" fill="#7e9799"/><path d="m88.615 59.266c0 10.516-8.523 19.039-19.031 19.039h-18.384c-10.508 0-19.031-8.523-19.031-19.039" fill="#637f7f"/><g fill="#003e89"><circle cx="297.039" cy="297.511" r="8.862"/><circle cx="343.276" cy="297.511" r="8.862"/><circle cx="389.585" cy="297.511" r="8.862"/><circle cx="435.862" cy="297.511" r="8.862"/><circle cx="297.039" cy="336.896" r="8.862"/><circle cx="343.276" cy="336.896" r="8.862"/><circle cx="389.585" cy="336.896" r="8.862"/><circle cx="435.862" cy="336.896" r="8.862"/><circle cx="297.039" cy="376.281" r="8.862"/><circle cx="343.276" cy="376.281" r="8.862"/><circle cx="389.585" cy="376.281" r="8.862"/><circle cx="435.862" cy="376.281" r="8.862"/></g></svg>