<svg xmlns="http://www.w3.org/2000/svg" viewBox="0 0 64 64"><defs/><path fill="#280b0b" d="M5.1.1h53.8a5 5 45 015 5v53.8a5 5 135 01-5 5H5.1a5 5 45 01-5-5V5.1a5 5 135 015-5z"/><path fill="#fff" d="M50.52 52.34c-2.17-.2-3.32-.86-4.97-3.06L33.77 32.81c7.27-1.63 10.35-4.88 10.35-10.87 0-2.8-.74-5.2-2.23-7.09-2.18-2.68-6.98-4.37-12.31-4.37H13.8v1.24c4.23.52 4.8 1.1 4.86 5.86v28.2c-.06 5.53-.57 6.19-4.86 6.58v1.24h15.84v-1.25c-4.4-.33-5.09-1.11-5.14-5.86V33.65l3.21-.13 13.6 20.05h9.21zM24.5 15.22c0-1.82.63-2.34 2.91-2.34 7.15 0 10.46 2.8 10.46 8.92 0 3.25-1.2 5.99-3.26 7.22-2.63 1.7-4.63 2.09-10.12 2.22zm-8.22-9.25v-1.7H4.23v55.7h12.04v-1.7h-4.9c-1.93-.07-2.73-1.09-2.8-3.54V8.97c.06-2.18.68-2.93 2.57-3zm31.16 0v-1.7h12.04v55.7H47.44v-1.7h4.9c1.94-.07 2.73-1.09 2.8-3.54V8.97c-.06-2.18-.69-2.93-2.57-3z"/></svg>