<svg viewBox="0 0 64 64" xmlns="http://www.w3.org/2000/svg"><path d="m5.1.1h53.8a5 5 45 0 1 5 5v53.8a5 5 135 0 1 -5 5h-53.8a5 5 45 0 1 -5-5v-53.8a5 5 135 0 1 5-5z" fill="#280b0b"/><path d="m50.52 52.34c-2.17-.2-3.32-.86-4.97-3.06l-11.78-16.47c7.27-1.63 10.35-4.88 10.35-10.87 0-2.8-.74-5.2-2.23-7.09-2.18-2.68-6.98-4.37-12.31-4.37h-15.78v1.24c4.23.52 4.8 1.1 4.86 5.86v28.2c-.06 5.53-.57 6.19-4.86 6.58v1.24h15.84v-1.25c-4.4-.33-5.09-1.11-5.14-5.86v-12.84l3.21-.13 13.6 20.05h9.21zm-26.02-37.12c0-1.82.63-2.34 2.91-2.34 7.15 0 10.46 2.8 10.46 8.92 0 3.25-1.2 5.99-3.26 7.22-2.63 1.7-4.63 2.09-10.12 2.22zm-8.22-9.25v-1.7h-12.05v55.7h12.04v-1.7h-4.9c-1.93-.07-2.73-1.09-2.8-3.54v-45.76c.06-2.18.68-2.93 2.57-3zm31.16 0v-1.7h12.04v55.7h-12.04v-1.7h4.9c1.94-.07 2.73-1.09 2.8-3.54v-45.76c-.06-2.18-.69-2.93-2.57-3z" fill="#fff"/></svg>