<svg xmlns="http://www.w3.org/2000/svg" viewBox="0 0 64 64"><path fill="#280b0b" d="M5.1.1h53.8a5 5 45 015 5v53.8a5 5 135 01-5 5H5.1a5 5 45 01-5-5V5.1a5 5 135 015-5z"/><path fill="#fff" d="M50.5 52.3c-2.1-.2-3.3-.8-5-3L33.9 32.8C41 31.2 44 28 44 22c0-2.8-.7-5.2-2.2-7-2.2-2.7-7-4.4-12.3-4.4H13.8v1.2c4.2.5 4.8 1.1 4.9 5.9v28.2c-.1 5.5-.6 6.2-4.9 6.6v1.2h15.8v-1.3c-4.4-.3-5-1-5.1-5.8V33.6h3.2l13.6 20h9.2zm-26-37c0-1.9.6-2.4 3-2.4 7 0 10.4 2.8 10.4 8.9 0 3.2-1.2 6-3.3 7.2-2.6 1.7-4.6 2.1-10.1 2.2zM16.3 6V4.3h-12V60h12v-1.7h-5c-1.9-.1-2.7-1.1-2.7-3.6V9c0-2.2.7-3 2.5-3zm31.1 0V4.3h12V60h-12v-1.7h5c1.9-.1 2.7-1.1 2.7-3.6V9c0-2.2-.7-3-2.5-3z"/></svg>