<svg xmlns="http://www.w3.org/2000/svg" viewBox="0 0 64 64"><g transform="translate(-1.42 -.93) scale(.44506)"><circle cx="75.1" cy="74" r="71.9" fill="#662d91"/><g stroke="#fff" fill="#fff"><path d="M114.9 96.5H36.1l-.5-.4a28.5 28.5 0 01-12.8-23.8 28.6 28.6 0 0141.7-25.4l-2 3.9c-3.4-1.8-7.2-2.7-11.1-2.7a24.4 24.4 0 00-24.3 24.3c0 7.9 3.8 15.3 10.3 19.8h76.2c6.5-4.5 10.3-11.9 10.3-19.8 0-13.3-10.9-24.2-24.2-24.2a23.94 23.94 0 00-11.1 2.7l-2-3.9a28.6 28.6 0 0141.7 25.4c0 9.6-4.8 18.5-12.8 23.8zm.2 22H35.9c-5.7 0-8.8-4.4-8.8-8.8s3-8.8 8.8-8.8h79.2c5.7 0 8.8 4.4 8.8 8.8s-3.1 8.8-8.8 8.8zm-79.2-13.1c-3.2 0-4.3 2.4-4.3 4.4s1.1 4.4 4.3 4.4h79.2c3.2 0 4.4-2.4 4.4-4.4s-1.1-4.4-4.4-4.4z"/><path d="M50.7 83.4c-.9 0-1.8-.6-2.1-1.5-1.1-3.1-1.7-6.3-1.7-9.6a28.6 28.6 0 1157.2 0c0 3.3-.6 6.5-1.6 9.6-.4 1.1-1.7 1.7-2.8 1.3-1.2-.4-1.7-1.7-1.3-2.8a24.22 24.22 0 00-22.8-32.3 24.33 24.33 0 00-22.9 32.4c.4 1.1-.2 2.4-1.3 2.8-.3.1-.5.1-.7.1zm24.8-44a13.2 13.2 0 110-26.4 13.19 13.19 0 0113.2 13.2c0 7.2-5.9 13.2-13.2 13.2zm0-22c-4.8 0-8.8 3.9-8.8 8.8a8.75 8.75 0 008.8 8.8c4.8 0 8.8-3.9 8.8-8.8a8.75 8.75 0 00-8.8-8.8z"/><path d="M86.5 28.4h-22a2.22 2.22 0 01-2.2-2.2 2.22 2.22 0 012.2-2.2h22a2.22 2.22 0 012.2 2.2 2.22 2.22 0 01-2.2 2.2zm-11 19.8a2.22 2.22 0 01-2.2-2.2v-8.8a2.22 2.22 0 012.2-2.2 2.22 2.22 0 012.2 2.2V46a2.22 2.22 0 01-2.2 2.2z"/></g></g></svg>