<svg enable-background="new 0 0 512 512" viewBox="0 0 512 512" xmlns="http://www.w3.org/2000/svg"><path d="m335.448 347.948v-47.81h-158.896v47.81c0 8.193-5.636 15.309-13.611 17.186l-109.235 25.703c-15.95 3.752-27.223 17.985-27.223 34.37v69.138c0 9.751 7.904 17.655 17.655 17.655h423.724c9.751 0 17.655-7.904 17.655-17.655v-69.138c0-16.386-11.273-30.618-27.223-34.371l-109.235-25.703c-7.974-1.876-13.611-8.992-13.611-17.185z" fill="#e6af78"/><path d="m458.294 390.836-87.588-20.609-8.775-8.296-17.458 1.356-88.473 51.61-85.023-54.105-20.908 1.14-.001 6.231-96.362 22.674c-15.95 3.753-27.223 17.985-27.223 34.371v69.138c0 9.751 7.904 17.655 17.655 17.655h423.724c9.751 0 17.655-7.904 17.655-17.655v-69.138c0-16.386-11.273-30.619-27.223-34.372z" fill="#5b5d6e"/><path d="m150.069 361.931 52.965 150.069h105.932l52.965-150.069-105.931 52.966z" fill="#d7deed"/><path d="m278.069 512h-44.138l7.357-79.448h29.424z" fill="#5b5d6e"/><path d="m176.552 347.948c0 5.927-2.975 11.257-7.625 14.482 104.728 52.467 166.521-51.283 166.521-51.283v-11.009h-158.896z" fill="#d29b6e"/><path d="m141.241 97.103 7.692 169.237c.718 15.81 8.47 30.472 21.131 39.967l36.501 27.375c9.169 6.876 20.319 10.593 31.779 10.593h35.31c11.46 0 22.611-3.717 31.779-10.593l36.5-27.375c12.661-9.496 20.413-24.157 21.131-39.967l7.693-169.237z" fill="#f0c087"/><path d="m141.241 97.103 7.692 169.236c.718 15.811 8.47 30.472 21.132 39.968l36.5 27.375c9.169 6.877 20.319 10.593 31.779 10.593h17.656c-26.483-8.828-44.138-79.448-44.138-79.448v-96.345c0-6.637 5.062-12.093 11.668-12.733 49.448-4.79 105.321-17.207 147.229-46.508v-12.138z" fill="#e6af78"/><path d="m123.586 88.276v8.828l8.828 97.103h17.655l17.655-52.966s114.759 0 176.552-35.31l17.655 88.276h17.655l8.828-97.103v-8.828c0-48.754-39.522-88.276-88.276-88.276h-88.276c-48.754 0-88.276 39.522-88.276 88.276z" fill="#7d7878"/><path d="m387.859 208.084-9.97 39.876c-1.181 4.725-5.426 8.039-10.296 8.039-5.353 0-9.867-3.986-10.531-9.297l-5.098-40.785c-1.362-10.905 7.143-20.538 18.133-20.538h.034c11.888 0 20.611 11.173 17.728 22.705z" fill="#f0c087"/><path d="m124.141 208.084 9.97 39.876c1.181 4.725 5.426 8.039 10.296 8.039 5.353 0 9.867-3.986 10.531-9.297l5.098-40.785c1.362-10.905-7.143-20.538-18.133-20.538h-.034c-11.888 0-20.611 11.173-17.728 22.705z" fill="#e6af78"/><path d="m91.289 454.709-57.203-51.384c-4.793 6.069-7.604 13.707-7.604 21.884v69.137c0 9.751 7.904 17.655 17.655 17.655h61.793v-24.456c.001-12.528-5.322-24.464-14.641-32.836z" fill="#515262"/><path d="m420.711 454.709 57.203-51.384c4.793 6.069 7.604 13.707 7.604 21.884v69.137c0 9.751-7.904 17.655-17.655 17.655h-61.793v-24.456c-.001-12.528 5.322-24.464 14.641-32.836z" fill="#515262"/><path d="m269.241 414.897h-26.483c-4.875 0-8.828 3.953-8.828 8.828v17.655c0 4.875 3.953 8.828 8.828 8.828h26.483c4.875 0 8.828-3.953 8.828-8.828v-17.655c0-4.876-3.953-8.828-8.828-8.828z" fill="#65687a"/><path d="m175.311 342.277 80.689 72.62s-22.598 11.407-50.483 34.4c-5.752 4.743-14.454 2.822-17.539-3.966l-37.909-83.4 11.992-17.988c2.986-4.479 9.25-5.266 13.25-1.666z" fill="#e4eaf6"/><path d="m336.689 342.277-80.689 72.62s22.598 11.407 50.483 34.4c5.752 4.743 14.454 2.822 17.539-3.966l37.909-83.4-11.992-17.988c-2.986-4.479-9.25-5.266-13.25-1.666z" fill="#e4eaf6"/><path d="m203.034 512-52.966-150.069-21.306 7.102c-3.172 1.057-5.474 3.816-5.948 7.126l-7.317 51.218c-.456 3.191.864 6.377 3.443 8.31l24.448 18.336c3.748 2.812 4.648 8.061 2.048 11.959l-9.759 14.638c-1.976 2.965-1.976 6.828 0 9.793l14.392 21.587z" fill="#65687a"/><path d="m308.966 512 52.966-150.069 21.306 7.102c3.172 1.057 5.474 3.816 5.948 7.126l7.317 51.218c.456 3.191-.864 6.377-3.443 8.31l-24.448 18.336c-3.748 2.812-4.648 8.061-2.048 11.959l9.759 14.638c1.976 2.965 1.976 6.828 0 9.793l-14.392 21.587z" fill="#65687a"/><path d="m361.931 176.552h-88.276c-4.875 0-8.828 3.953-8.828 8.828h-17.655c0-4.875-3.953-8.828-8.828-8.828h-88.276c-4.875 0-8.828 3.953-8.828 8.828s3.953 8.828 8.828 8.828h11.35l4.14 28.98c1.242 8.697 8.692 15.158 17.478 15.158h41.525c8.102 0 15.162-5.514 17.128-13.373l3.342-13.372c1.258-5.034 5.782-8.565 10.97-8.564 5.187.001 9.708 3.531 10.966 8.564l3.343 13.373c1.965 7.859 9.026 13.373 17.128 13.373h41.524c8.786 0 16.235-6.461 17.478-15.158l4.14-28.981h11.35c4.875 0 8.828-3.953 8.828-8.828.001-4.876-3.952-8.828-8.827-8.828z" fill="#515262"/></svg>