<svg xmlns="http://www.w3.org/2000/svg" viewBox="0 0 64 64"><defs/><path fill="#e6af78" d="M41.25 42.75v-5.74H22.18v5.74a2.12 2.12 0 01-1.63 2.06L7.44 47.89a4.24 4.24 0 00-3.27 4.12v8.3a2.12 2.12 0 002.12 2.12h50.85a2.12 2.12 0 002.12-2.12v-8.3a4.24 4.24 0 00-3.27-4.12l-13.11-3.08a2.117 2.117 0 01-1.63-2.06z"/><path fill="#5b5d6e" d="M55.99 47.9l-10.51-2.47-1.05-1-2.1.16-10.62 6.19-10.2-6.49-2.51.14v.75L7.44 47.9a4.244 4.244 0 00-3.27 4.12v8.3a2.12 2.12 0 002.12 2.12h50.85a2.12 2.12 0 002.12-2.12v-8.3c0-1.97-1.35-3.67-3.27-4.12z"/><path fill="#d7deed" d="M19.01 44.43l6.36 18.01h12.71l6.36-18.01-12.71 6.36z"/><path fill="#5b5d6e" d="M34.37 62.44h-5.3l.88-9.53h3.53z"/><path fill="#d29b6e" d="M22.19 42.75c0 .71-.36 1.35-.92 1.74 12.57 6.3 19.98-6.15 19.98-6.15v-1.32H22.18z"/><path fill="#f0c087" d="M17.95 12.65l.92 20.31a6.36 6.36 0 002.54 4.8l4.38 3.29c1.1.83 2.44 1.27 3.81 1.27h4.24c1.38 0 2.71-.45 3.81-1.27l4.38-3.29a6.374 6.374 0 002.54-4.8l.92-20.31z"/><path fill="#e6af78" d="M17.95 12.65l.92 20.31a6.36 6.36 0 002.54 4.8l4.38 3.29a6.36 6.36 0 003.81 1.27h2.12c-3.18-1.06-5.3-9.53-5.3-9.53V21.23c0-.8.61-1.45 1.4-1.53 5.93-.58 12.64-2.07 17.67-5.58v-1.46z"/><path fill="#7d7878" d="M15.83 11.59v1.06l1.06 11.65h2.12l2.12-6.36s13.77 0 21.19-4.24l2.12 10.59h2.12l1.06-11.65v-1.06A10.6 10.6 0 0037.02.99H26.43a10.59 10.59 0 00-10.59 10.59z"/><path fill="#f0c087" d="M47.54 25.97l-1.2 4.79c-.14.57-.65.96-1.24.96-.64 0-1.18-.48-1.26-1.12l-.61-4.89c-.16-1.31.86-2.46 2.18-2.46 1.43 0 2.47 1.34 2.13 2.73z"/><path fill="#e6af78" d="M15.9 25.97l1.2 4.79c.14.57.65.96 1.24.96.64 0 1.18-.48 1.26-1.12l.61-4.89c.16-1.31-.86-2.46-2.18-2.46-1.43 0-2.47 1.34-2.13 2.73z"/><path fill="#515262" d="M11.96 55.56L5.1 49.39a4.23 4.23 0 00-.91 2.63v8.3a2.12 2.12 0 002.12 2.12h7.41V59.5a5.3 5.3 0 00-1.76-3.94zm39.53 0l6.86-6.17a4.23 4.23 0 01.91 2.63v8.3a2.12 2.12 0 01-2.12 2.12h-7.41V59.5a5.3 5.3 0 011.76-3.94z"/><path fill="#65687a" d="M33.31 50.79h-3.18a1.06 1.06 0 00-1.06 1.06v2.12a1.06 1.06 0 001.06 1.06h3.18a1.06 1.06 0 001.06-1.06v-2.12a1.06 1.06 0 00-1.06-1.06z"/><g fill="#e4eaf6"><path d="M22.04 42.07l9.68 8.71s-2.71 1.37-6.06 4.13c-.69.57-1.73.34-2.1-.48l-4.55-10.01 1.44-2.16a1.06 1.06 0 011.59-.2zM41.4 42.07l-9.68 8.71s2.71 1.37 6.06 4.13c.69.57 1.73.34 2.1-.48l4.55-10.01-1.44-2.16a1.06 1.06 0 00-1.59-.2z"/></g><path fill="#65687a" d="M25.36 62.44L19 44.43l-2.56.85a1.06 1.06 0 00-.71.86l-.88 6.15a1.06 1.06 0 00.41 1l2.93 2.2a1.06 1.06 0 01.25 1.44l-1.17 1.76a1.06 1.06 0 000 1.17L19 62.45zm12.71 0l6.36-18.01 2.56.85a1.06 1.06 0 01.71.86l.88 6.15a1.06 1.06 0 01-.41 1l-2.93 2.2a1.06 1.06 0 00-.25 1.44l1.17 1.76a1.06 1.06 0 010 1.17l-1.73 2.59z"/><path fill="#515262" d="M44.43 22.19H33.84a1.06 1.06 0 00-1.06 1.06h-2.12a1.06 1.06 0 00-1.06-1.06H19.01a1.06 1.06 0 000 2.12h1.36l.5 3.48a2.12 2.12 0 002.1 1.82h4.98a2.13 2.13 0 002.06-1.6l.4-1.6a1.36 1.36 0 011.32-1.03c.62 0 1.17.42 1.32 1.03l.4 1.6a2.12 2.12 0 002.06 1.6h4.98a2.12 2.12 0 002.1-1.82l.5-3.48h1.36a1.06 1.06 0 000-2.12z"/></svg>