<svg viewBox="0 0 512 512" xmlns="http://www.w3.org/2000/svg"><path d="m335.448 347.948v-47.8h-158.896v47.8c0 8.193-5.636 15.3-13.6 17.186l-109.246 25.703a35.31 35.31 0 00-27.223 34.37v69.138a17.66 17.66 0 0017.655 17.655h423.724a17.66 17.66 0 0017.655-17.655v-69.138a35.31 35.31 0 00-27.223-34.37l-109.234-25.704c-7.974-1.876-13.6-8.992-13.6-17.185z" fill="#e6af78"/><path d="m458.294 390.836-87.588-20.6-8.775-8.296-17.458 1.356-88.473 51.6-85.023-54.105-20.908 1.14-.001 6.23-96.362 22.674c-15.95 3.753-27.223 17.985-27.223 34.37v69.138a17.66 17.66 0 0017.655 17.655h423.724a17.66 17.66 0 0017.655-17.655v-69.138c0-16.386-11.273-30.62-27.223-34.372z" fill="#5b5d6e"/><path d="m150.07 361.93 52.964 150.07h105.932l52.965-150.07-105.931 52.967z" fill="#d7deed"/><path d="m278.07 512h-44.14l7.357-79.448h29.424z" fill="#5b5d6e"/><path d="m176.552 347.948c0 5.927-2.975 11.257-7.625 14.482 104.728 52.467 166.52-51.283 166.52-51.283v-11h-158.895z" fill="#d29b6e"/><path d="m141.24 97.103 7.692 169.237a52.98 52.98 0 0021.13 39.967l36.5 27.375c9.17 6.876 20.32 10.593 31.78 10.593h35.3c11.46 0 22.6-3.717 31.78-10.593l36.5-27.375c12.66-9.496 20.413-24.157 21.13-39.967l7.693-169.237z" fill="#f0c087"/><path d="m141.24 97.103 7.692 169.236a52.98 52.98 0 0021.132 39.968l36.5 27.375a52.96 52.96 0 0031.779 10.593h17.657c-26.483-8.828-44.138-79.448-44.138-79.448v-96.345c0-6.637 5.062-12.093 11.668-12.733 49.448-4.8 105.32-17.207 147.23-46.508v-12.138z" fill="#e6af78"/><path d="m123.586 88.276v8.828l8.828 97.103h17.655l17.655-52.966s114.76 0 176.552-35.3l17.655 88.276h17.655l8.828-97.103v-8.828c0-48.764-39.522-88.286-88.276-88.286h-88.276c-48.754 0-88.276 39.522-88.276 88.276z" fill="#7d7878"/><path d="m387.86 208.084-9.97 39.876c-1.18 4.725-5.426 8.04-10.296 8.04-5.353 0-9.867-3.986-10.53-9.297l-5.098-40.785c-1.362-10.905 7.143-20.538 18.133-20.538h.034c11.888 0 20.6 11.173 17.728 22.705z" fill="#f0c087"/><path d="m124.14 208.084 9.97 39.876c1.18 4.725 5.426 8.04 10.296 8.04 5.353 0 9.867-3.986 10.53-9.297l5.098-40.785c1.362-10.905-7.143-20.538-18.133-20.538h-.034c-11.888 0-20.6 11.173-17.728 22.705z" fill="#e6af78"/><path d="m91.3 454.7-57.203-51.384a35.25 35.25 0 00-7.604 21.884v69.137a17.66 17.66 0 0017.655 17.655h61.793v-24.456a44.14 44.14 0 00-14.64-32.836zm329.42 0 57.203-51.384a35.25 35.25 0 017.604 21.884v69.137a17.66 17.66 0 01-17.655 17.655h-61.802v-24.456a44.14 44.14 0 0114.64-32.836z" fill="#515262"/><path d="m269.24 414.897h-26.483a8.83 8.83 0 00-8.828 8.828v17.655a8.83 8.83 0 008.828 8.828h26.483a8.83 8.83 0 008.828-8.828v-17.655a8.83 8.83 0 00-8.828-8.828z" fill="#65687a"/><g fill="#e4eaf6"><path d="m175.3 342.277 80.7 72.62s-22.598 11.407-50.483 34.4c-5.752 4.743-14.454 2.822-17.54-3.966l-37.9-83.4 11.992-17.988a8.83 8.83 0 0113.25-1.666z"/><path d="m336.7 342.277-80.7 72.62s22.598 11.407 50.483 34.4c5.752 4.743 14.454 2.822 17.54-3.966l37.9-83.4-11.992-17.988a8.83 8.83 0 00-13.25-1.666z"/></g><path d="m203.034 512-52.966-150.07-21.306 7.102a8.83 8.83 0 00-5.948 7.126l-7.317 51.218a8.8 8.8 0 003.443 8.3l24.448 18.336a8.83 8.83 0 012.048 11.959l-9.76 14.638a8.83 8.83 0 000 9.793l14.394 21.598zm105.932 0 52.966-150.07 21.306 7.102a8.83 8.83 0 015.948 7.126l7.317 51.218a8.8 8.8 0 01-3.443 8.3l-24.448 18.336a8.83 8.83 0 00-2.048 11.959l9.76 14.638a8.83 8.83 0 010 9.793l-14.394 21.598z" fill="#65687a"/><path d="m361.93 176.552h-88.276a8.83 8.83 0 00-8.828 8.828h-17.656a8.83 8.83 0 00-8.828-8.828h-88.276a8.83 8.83 0 00-8.828 8.828 8.83 8.83 0 008.828 8.828h11.35l4.14 28.98a17.66 17.66 0 0017.478 15.158h41.525c8.102 0 15.162-5.514 17.128-13.373l3.342-13.372c1.258-5.034 5.782-8.565 10.97-8.564s9.708 3.53 10.966 8.564l3.343 13.373c1.965 7.86 9.026 13.373 17.128 13.373h41.524a17.66 17.66 0 0017.478-15.158l4.14-28.98h11.35a8.83 8.83 0 008.828-8.828 8.83 8.83 0 00-8.827-8.828z" fill="#515262"/></svg>