<svg xmlns="http://www.w3.org/2000/svg" viewBox="0 0 512 512"><path d="M335.448 347.948v-47.8H176.552v47.8c0 8.193-5.636 15.3-13.6 17.186L53.706 390.837a35.31 35.31 0 0 0-27.223 34.37v69.138A17.66 17.66 0 0 0 44.138 512h423.724a17.66 17.66 0 0 0 17.655-17.655v-69.138a35.31 35.31 0 0 0-27.223-34.37L349.06 365.133c-7.974-1.876-13.6-8.992-13.6-17.185z" fill="#e6af78"/><path d="M458.294 390.836l-87.588-20.6-8.775-8.296-17.458 1.356-88.473 51.6-85.023-54.105-20.908 1.14-.001 6.23-96.362 22.674c-15.95 3.753-27.223 17.985-27.223 34.37v69.138a17.66 17.66 0 0 0 17.655 17.655h423.724a17.66 17.66 0 0 0 17.655-17.655v-69.138c0-16.386-11.273-30.62-27.223-34.372z" fill="#5b5d6e"/><path d="M150.07 361.93L203.034 512h105.932l52.965-150.07L256 414.897z" fill="#d7deed"/><path d="M278.07 512H233.93l7.357-79.448h29.424z" fill="#5b5d6e"/><path d="M176.552 347.948c0 5.927-2.975 11.257-7.625 14.482 104.728 52.467 166.52-51.283 166.52-51.283v-11H176.552z" fill="#d29b6e"/><path d="M141.24 97.103l7.692 169.237a52.98 52.98 0 0 0 21.13 39.967l36.5 27.375c9.17 6.876 20.32 10.593 31.78 10.593h35.3c11.46 0 22.6-3.717 31.78-10.593l36.5-27.375c12.66-9.496 20.413-24.157 21.13-39.967l7.693-169.237z" fill="#f0c087"/><path d="M141.24 97.103l7.692 169.236a52.98 52.98 0 0 0 21.132 39.968l36.5 27.375a52.96 52.96 0 0 0 31.779 10.593H256c-26.483-8.828-44.138-79.448-44.138-79.448v-96.345c0-6.637 5.062-12.093 11.668-12.733 49.448-4.8 105.32-17.207 147.23-46.508V97.103z" fill="#e6af78"/><path d="M123.586 88.276v8.828l8.828 97.103h17.655l17.655-52.966s114.76 0 176.552-35.3l17.655 88.276h17.655l8.828-97.103v-8.828C388.414 39.522 348.892 0 300.138 0h-88.276c-48.754 0-88.276 39.522-88.276 88.276z" fill="#7d7878"/><path d="M387.86 208.084l-9.97 39.876c-1.18 4.725-5.426 8.04-10.296 8.04-5.353 0-9.867-3.986-10.53-9.297l-5.098-40.785c-1.362-10.905 7.143-20.538 18.133-20.538h.034c11.888 0 20.6 11.173 17.728 22.705z" fill="#f0c087"/><path d="M124.14 208.084l9.97 39.876c1.18 4.725 5.426 8.04 10.296 8.04 5.353 0 9.867-3.986 10.53-9.297l5.098-40.785c1.362-10.905-7.143-20.538-18.133-20.538h-.034c-11.888 0-20.6 11.173-17.728 22.705z" fill="#e6af78"/><path d="M91.3 454.7l-57.203-51.384a35.25 35.25 0 0 0-7.604 21.884v69.137a17.66 17.66 0 0 0 17.655 17.655h61.793v-24.456a44.14 44.14 0 0 0-14.64-32.836zm329.42 0l57.203-51.384a35.25 35.25 0 0 1 7.604 21.884v69.137a17.66 17.66 0 0 1-17.655 17.655H406.07v-24.456a44.14 44.14 0 0 1 14.64-32.836z" fill="#515262"/><path d="M269.24 414.897h-26.483a8.83 8.83 0 0 0-8.828 8.828v17.655a8.83 8.83 0 0 0 8.828 8.828h26.483a8.83 8.83 0 0 0 8.828-8.828v-17.655a8.83 8.83 0 0 0-8.828-8.828z" fill="#65687a"/><g fill="#e4eaf6"><path d="M175.3 342.277l80.7 72.62s-22.598 11.407-50.483 34.4c-5.752 4.743-14.454 2.822-17.54-3.966l-37.9-83.4 11.992-17.988a8.83 8.83 0 0 1 13.25-1.666z"/><path d="M336.7 342.277l-80.7 72.62s22.598 11.407 50.483 34.4c5.752 4.743 14.454 2.822 17.54-3.966l37.9-83.4-11.992-17.988a8.83 8.83 0 0 0-13.25-1.666z"/></g><path d="M203.034 512l-52.966-150.07-21.306 7.102a8.83 8.83 0 0 0-5.948 7.126l-7.317 51.218a8.8 8.8 0 0 0 3.443 8.3l24.448 18.336a8.83 8.83 0 0 1 2.048 11.959l-9.76 14.638a8.83 8.83 0 0 0 0 9.793L150.07 512zm105.932 0l52.966-150.07 21.306 7.102a8.83 8.83 0 0 1 5.948 7.126l7.317 51.218a8.8 8.8 0 0 1-3.443 8.3l-24.448 18.336a8.83 8.83 0 0 0-2.048 11.959l9.76 14.638a8.83 8.83 0 0 1 0 9.793L361.93 512z" fill="#65687a"/><path d="M361.93 176.552h-88.276a8.83 8.83 0 0 0-8.828 8.828H247.17a8.83 8.83 0 0 0-8.828-8.828h-88.276a8.83 8.83 0 0 0-8.828 8.828 8.83 8.83 0 0 0 8.828 8.828h11.35l4.14 28.98a17.66 17.66 0 0 0 17.478 15.158h41.525c8.102 0 15.162-5.514 17.128-13.373l3.342-13.372c1.258-5.034 5.782-8.565 10.97-8.564s9.708 3.53 10.966 8.564l3.343 13.373c1.965 7.86 9.026 13.373 17.128 13.373h41.524a17.66 17.66 0 0 0 17.478-15.158l4.14-28.98h11.35a8.83 8.83 0 0 0 8.828-8.828 8.83 8.83 0 0 0-8.827-8.828z" fill="#515262"/></svg>