<svg xmlns="http://www.w3.org/2000/svg" viewBox="0 0 64 64"><defs/><linearGradient id="a" x1="44.637" x2="30.988" y1="39.791" y2="26.141" gradientTransform="rotate(180 32 32)" gradientUnits="userSpaceOnUse"><stop offset="0" stop-color="#4ecfff"/><stop offset="1" stop-color="#13a7ff"/></linearGradient><g stroke-width=".125"><path fill="#b4bbcc" d="M37.932 38.224l7.094-7.094-3.126-3.126-7.094 7.094a2.21 2.21 0 003.126 3.126zM25.776 26.068l7.094-7.094 3.126 3.126-7.094 7.094a2.21 2.21 0 01-3.126-3.126z"/><path fill="url(#a)" d="M55.747 24.186a2.952 2.952 0 00.862-2.182l-.218-6.564a-2.948-2.948 0 01.862-2.182l5.717-5.717-6.51-6.51-5.718 5.717a2.952 2.952 0 01-2.182.862l-6.564-.218a-2.948-2.948 0 00-2.182.862l-8.833 8.833 15.934 15.934z"/><path d="M53.477 12.525l.218 6.564a-2.948-2.948 0 01-.862 2.182L44 30.104l2.913 2.913 8.833-8.833a2.956 2.956 0 00.862-2.182l-.218-6.564a-2.948-2.948 0 01.862-2.182l5.717-5.716-2.913-2.913-5.718 5.718a-2.948-2.948 0 00-.862 2.182z" opacity=".167"/><path fill="url(#a)" d="M24.185 55.748a2.952 2.952 0 01-2.182.862l-6.564-.218a-2.948-2.948 0 00-2.182.862L7.54 62.971l-6.51-6.51 5.717-5.718a2.952 2.952 0 00.862-2.182l-.218-6.564a-2.948-2.948 0 01.862-2.182l8.833-8.833L33.02 46.915z"/><path d="M19.09 53.696l-6.564-.218a-2.948-2.948 0 00-2.182.862l-5.718 5.717L7.54 62.97l5.717-5.718a2.952 2.952 0 012.182-.862l6.564.218a-2.948-2.948 0 002.182-.862l8.833-8.833L30.105 44l-8.833 8.833a-2.949-2.949 0 01-2.183.862zm8.608-29.549l5.172-5.172 3.126 3.126-5.172 5.172zm9.03 9.028l5.172-5.172 3.126 3.126-5.172 5.172z" opacity=".167"/><path fill="#d5f6ff" d="M27.448 18.07l4.516-4.516 18.48 18.48-4.516 4.516z"/><path d="M43.017 33.638l4.516-4.516 2.913 2.913-4.516 4.516z" opacity=".1"/><path fill="#d5f6ff" d="M36.551 45.93l-4.516 4.516-18.48-18.48 4.516-4.516z"/><path d="M29.119 47.532l4.516-4.516 2.913 2.913-4.516 4.516z" opacity=".1"/><path d="M.301 57.188l6.51 6.51a-1.03-1.03 0 001.457 0l5.718-5.718a-1.924-1.924 0 011.42-.561l6.564.218a-3.989-3.989 0 002.945-1.163l5.847-5.847.545.545a1.03 1.03 0 001.457 0l4.516-4.516a-1.03-1.03 0 000-1.457L18.8 26.719a1.028 1.028 0 00-.728-.302-1.026-1.026 0 00-.728.302l-4.516 4.516a-1.03-1.03 0 000 1.457l.545.545-5.846 5.846a3.997 3.997 0 00-1.163 2.945l.218 6.564a-1.924-1.924 0 01-.561 1.42L.304 55.73a-1.03-1.03 0 000 1.457zm7.175-5.717a-3.994-3.994 0 001.163-2.945l-.218-6.564a1.922 1.922 0 01.561-1.42l5.846-5.846 2.344 2.344a1.03 1.03 0 001.457 0-1.03-1.03 0 000-1.457l-3.617-3.617 3.06-3.06 17.025 17.023-3.06 3.06-10.493-10.493a1.03 1.03 0 00-1.457 0-1.03-1.03 0 000 1.457l9.22 9.22-5.846 5.846a1.935 1.935 0 01-1.42.561l-6.564-.218a3.993 3.993 0 00-2.945 1.163l-4.989 4.989L2.49 56.46zm19.864-20.6a-3.219-3.219 0 002.291-.949l4.107-4.107 4.447 4.447-4.107 4.107c-.612.612-.949 1.426-.949 2.292s.337 1.679.949 2.291a-3.219-3.219 0 004.583 0l4.108-4.107 2.434 2.434a1.03 1.03 0 001.457 0l4.516-4.516a-1.03-1.03 0 000-1.457l-.545-.545 5.846-5.846a3.997 3.997 0 001.163-2.945l-.218-6.564a1.922 1.922 0 01.561-1.42l5.718-5.718a-1.03-1.03 0 000-1.457l-6.51-6.51a-1.03-1.03 0 00-1.457 0l-5.717 5.718a-1.929-1.929 0 01-1.42.561l-6.564-.218a4.004 4.004 0 00-2.945 1.163l-5.846 5.846-.545-.545a1.028 1.028 0 00-.728-.302-1.026-1.026 0 00-.728.302l-4.516 4.516a-1.03-1.03 0 000 1.457l2.434 2.434-4.107 4.107a-3.219-3.219 0 002.291 5.532zm9.864 6.625a-1.173-1.173 0 01-.835.346-1.174-1.174 0 01-.835-.346-1.171-1.171 0 01-.346-.835c0-.315.123-.612.346-.835l4.107-4.108 1.67 1.67zm-5.238-22.485l10.733 10.731a1.03 1.03 0 001.457 0-1.033-1.033 0 00.302-.728-1.026-1.026 0 00-.302-.728l-9.459-9.459 5.846-5.846a-1.933-1.933 0 011.42-.561l6.564.218a-3.996-3.996 0 002.945-1.163l4.988-4.989 5.053 5.053-4.989 4.988a-3.994-3.994 0 00-1.163 2.945l.218 6.565a-1.924-1.924 0 01-.561 1.42l-5.846 5.846-2.104-2.104a1.03 1.03 0 00-1.457 0-1.03-1.03 0 000 1.457l3.377 3.377-3.06 3.06L28.905 18.07zm-5.462 11.786l4.107-4.108 1.67 1.67-4.107 4.107c-.223.223-.52.346-.835.346a-1.173-1.173 0 01-.835-.346c-.223-.223-.346-.519-.346-.835s.123-.612.346-.835z"/></g></svg>