<svg height="64" viewBox="0 0 64 64" width="64" xmlns="http://www.w3.org/2000/svg" xmlns:xlink="http://www.w3.org/1999/xlink"><linearGradient id="a" gradientTransform="matrix(-1 0 0 -1 64 64)" gradientUnits="userSpaceOnUse" x1="44.637" x2="30.988" y1="39.791" y2="26.141"><stop offset="0" stop-color="#4ecfff"/><stop offset="1" stop-color="#13a7ff"/></linearGradient><g stroke-width=".125"><path d="m37.932 38.224 7.094-7.094-3.126-3.126-7.094 7.094c-.863.863-.863 2.263 0 3.126s2.263.863 3.126 0zm-12.156-12.156 7.094-7.094 3.126 3.126-7.094 7.094c-.863.863-2.263.863-3.126 0s-.863-2.263 0-3.126z" fill="#b4bbcc"/><path d="m55.747 24.186c.577-.577.888-1.367.862-2.182l-.218-6.564a-2.948-2.948 0 0 1 .862-2.182l5.717-5.717-6.51-6.51-5.718 5.717c-.577.577-1.367.888-2.182.862l-6.564-.218a-2.948-2.948 0 0 0 -2.182.862l-8.833 8.833 15.934 15.934z" fill="url(#a)"/><path d="m53.477 12.525.218 6.564a-2.948-2.948 0 0 1 -.862 2.182l-8.833 8.833 2.913 2.913 8.833-8.833c.577-.577.887-1.367.862-2.182l-.218-6.564a-2.948-2.948 0 0 1 .862-2.182l5.717-5.716-2.913-2.913-5.718 5.718a-2.948-2.948 0 0 0 -.862 2.182z" opacity=".167"/><path d="m24.185 55.748c-.577.577-1.367.888-2.182.862l-6.564-.218a-2.948-2.948 0 0 0 -2.182.862l-5.717 5.717-6.51-6.51 5.717-5.718c.577-.577.888-1.367.862-2.182l-.218-6.564a-2.948-2.948 0 0 1 .862-2.182l8.833-8.833 15.934 15.933z" fill="url(#a)"/><path d="m19.09 53.696-6.564-.218a-2.948-2.948 0 0 0 -2.182.862l-5.718 5.717 2.914 2.913 5.717-5.718c.577-.577 1.367-.888 2.182-.862l6.564.218a-2.948-2.948 0 0 0 2.182-.862l8.833-8.833-2.913-2.913-8.833 8.833a-2.949-2.949 0 0 1 -2.183.862zm8.608-29.549 5.172-5.172 3.126 3.126-5.172 5.172zm9.03 9.028 5.172-5.172 3.126 3.126-5.172 5.172z" opacity=".167"/><path d="m27.448 18.07 4.516-4.516 18.48 18.48-4.516 4.516z" fill="#d5f6ff"/><path d="m43.017 33.638 4.516-4.516 2.913 2.913-4.516 4.516z" opacity=".1"/><path d="m36.551 45.93-4.516 4.516-18.48-18.48 4.516-4.516z" fill="#d5f6ff"/><path d="m29.119 47.532 4.516-4.516 2.913 2.913-4.516 4.516z" opacity=".1"/><path d="m.301 57.188 6.51 6.51a-1.03-1.03 0 0 0 1.457 0l5.718-5.718a-1.924-1.924 0 0 1 1.42-.561l6.564.218a-3.989-3.989 0 0 0 2.945-1.163l5.847-5.847.545.545c.402.402 1.054.402 1.457 0l4.516-4.516a-1.03-1.03 0 0 0 0-1.457l-18.48-18.48c-.201-.201-.465-.302-.728-.302a-1.026-1.026 0 0 0 -.728.302l-4.516 4.516a-1.03-1.03 0 0 0 0 1.457l.545.545-5.846 5.846c-.775.775-1.199 1.85-1.163 2.945l.218 6.564a-1.924-1.924 0 0 1 -.561 1.42l-5.717 5.718a-1.03-1.03 0 0 0 0 1.457zm7.175-5.717a-3.994-3.994 0 0 0 1.163-2.945l-.218-6.564c-.018-.529.187-1.046.561-1.42l5.846-5.846 2.344 2.344c.402.402 1.054.402 1.457 0a-1.03-1.03 0 0 0 0-1.457l-3.617-3.617 3.06-3.06 17.025 17.023-3.06 3.06-10.493-10.493c-.402-.402-1.054-.402-1.457 0a-1.03-1.03 0 0 0 0 1.457l9.22 9.22-5.846 5.846c-.375.374-.893.577-1.42.561l-6.564-.218c-1.093-.038-2.169.388-2.945 1.163l-4.989 4.989-5.053-5.054zm19.864-20.6a-3.219-3.219 0 0 0 2.291-.949l4.107-4.107 4.447 4.447-4.107 4.107c-.612.612-.949 1.426-.949 2.292s.337 1.679.949 2.291a-3.219-3.219 0 0 0 4.583 0l4.108-4.107 2.434 2.434c.402.402 1.054.402 1.457 0l4.516-4.516a-1.03-1.03 0 0 0 0-1.457l-.545-.545 5.846-5.846c.775-.775 1.199-1.85 1.163-2.945l-.218-6.564c-.018-.529.187-1.046.561-1.42l5.718-5.718a-1.03-1.03 0 0 0 0-1.457l-6.51-6.51a-1.03-1.03 0 0 0 -1.457 0l-5.717 5.718a-1.929-1.929 0 0 1 -1.42.561l-6.564-.218c-1.094-.035-2.169.388-2.945 1.163l-5.846 5.846-.545-.545c-.201-.201-.465-.302-.728-.302a-1.026-1.026 0 0 0 -.728.302l-4.516 4.516a-1.03-1.03 0 0 0 0 1.457l2.434 2.434-4.107 4.107a-3.219-3.219 0 0 0 2.291 5.532zm9.864 6.625a-1.173-1.173 0 0 1 -.835.346-1.174-1.174 0 0 1 -.835-.346-1.171-1.171 0 0 1 -.346-.835c0-.315.123-.612.346-.835l4.107-4.108 1.67 1.67zm-5.238-22.485 10.733 10.731c.402.402 1.054.402 1.457 0a-1.033-1.033 0 0 0 .302-.728-1.026-1.026 0 0 0 -.302-.728l-9.459-9.459 5.846-5.846a-1.933-1.933 0 0 1 1.42-.561l6.564.218a-3.996-3.996 0 0 0 2.945-1.163l4.988-4.989 5.053 5.053-4.989 4.988a-3.994-3.994 0 0 0 -1.163 2.945l.218 6.565a-1.924-1.924 0 0 1 -.561 1.42l-5.846 5.846-2.104-2.104c-.402-.402-1.054-.402-1.457 0a-1.03-1.03 0 0 0 0 1.457l3.377 3.377-3.06 3.06-17.023-17.023zm-5.462 11.786 4.107-4.108 1.67 1.67-4.107 4.107c-.223.223-.52.346-.835.346a-1.173-1.173 0 0 1 -.835-.346c-.223-.223-.346-.519-.346-.835s.123-.612.346-.835z"/></g></svg>