<svg height="64" viewBox="0 0 64 64" width="64" xmlns="http://www.w3.org/2000/svg" xmlns:xlink="http://www.w3.org/1999/xlink"><linearGradient id="a" gradientTransform="matrix(-1 0 0 -1 64 64)" gradientUnits="userSpaceOnUse" x1="44.6374" x2="30.9878" y1="39.7907" y2="26.1411"><stop offset="0" stop-color="#4ecfff"/><stop offset="1" stop-color="#13a7ff"/></linearGradient><g stroke-width=".125"><path d="m37.9315 38.2236 7.0937-7.0937-3.126-3.1259-7.0937 7.0937c-.8632.8632-.8632 2.2627 0 3.126.8632.8632 2.2627.8632 3.126 0zm-12.1557-12.1556 7.0937-7.0937 3.126 3.126-7.0937 7.0937c-.8632.8632-2.2627.8632-3.126 0-.8632-.8632-.8631-2.2627 0-3.126z" fill="#b4bbcc"/><path d="m55.7469 24.186c.5767-.5767.8875-1.367.8617-2.1821l-.2184-6.5641a-2.9475-2.9475 0 01.8618-2.1821l5.7171-5.7173-6.51-6.51-5.7175 5.7171c-.5767.5767-1.367.8875-2.1821.8617l-6.5641-.2184a-2.9475-2.9475 0 00-2.1821.8617l-8.8328 8.833 15.9337 15.9335z" fill="url(#a)"/><path d="m53.477 12.5254.2184 6.5641a-2.9475-2.9475 0 01-.8617 2.1821l-8.8328 8.8328 2.9131 2.9131 8.8328-8.8328c.5767-.5768.8874-1.367.8617-2.1821l-.2184-6.5641a-2.9475-2.9475 0 01.8618-2.1822l5.7172-5.716-2.9131-2.9131-5.7175 5.7175a-2.9475-2.9475 0 00-.8616 2.1821z" opacity=".1673"/><path d="m24.185 55.7476c-.5767.5768-1.367.8875-2.1821.8618l-6.5641-.2184a-2.9475-2.9475 0 00-2.1821.8617l-5.7173 5.7174-6.51-6.51 5.7171-5.7175c.5767-.5767.8875-1.367.8617-2.1821l-.2184-6.5641a-2.9475-2.9475 0 01.8617-2.1821l8.8328-8.8328 15.9337 15.9334z" fill="url(#a)"/><path d="m19.0896 53.6964-6.5641-.2184a-2.9475-2.9475 0 00-2.1821.8618l-5.7175 5.7174 2.9135 2.9129 5.7174-5.7175c.5767-.5767 1.367-.8875 2.1821-.8617l6.5641.2184a-2.9475-2.9475 0 002.1821-.8617l8.8328-8.8328-2.9131-2.9131-8.8328 8.8328a-2.9487-2.9487 0 01-2.1825.8617zm8.608-29.5492 5.1717-5.1718 3.1259 3.1259-5.1718 5.1718zm9.0302 9.0281 5.1718-5.1718 3.1259 3.1259-5.1718 5.1718z" opacity=".1673"/><path d="m27.448 18.0698 4.5162-4.5162 18.48 18.4799-4.5163 4.5162z" fill="#d5f6ff"/><path d="m43.0167 33.6377 4.5162-4.5162 2.9131 2.9131-4.5162 4.5162z" opacity=".1"/><path d="m36.5505 45.9302-4.5163 4.5162-18.4799-18.4799 4.5163-4.5162z" fill="#d5f6ff"/><path d="m29.1193 47.5322 4.5162-4.5162 2.9131 2.9131-4.5162 4.5162z" opacity=".1"/><path d="m.3011 57.1884 6.5099 6.5099a-1.03-1.03 0 001.4565 0l5.7175-5.7175a-1.9237-1.9237 0 011.4196-.5606l6.564.2175a-3.9887-3.9887 0 002.9446-1.1627l5.8465-5.8465.545.545c.4022.4021 1.0544.4021 1.4565 0l4.5162-4.5162a-1.03-1.03 0 000-1.4566l-18.4796-18.4797c-.201-.201-.4647-.3016-.7282-.3016a-1.0262-1.0262 0 00-.7282.3016l-4.5162 4.5162a-1.03-1.03 0 000 1.4566l.5449.5451-5.8462 5.8462c-.7754.7754-1.1991 1.85-1.1627 2.9447l.2182 6.5641a-1.9237-1.9237 0 01-.5606 1.4196l-5.7171 5.7175a-1.03-1.03 0 00-.0002 1.4565zm7.175-5.7171a-3.9937-3.9937 0 001.1627-2.9446l-.2184-6.5641c-.0175-.5287.1867-1.0459.5606-1.4197l5.8462-5.8462 2.3435 2.3435c.4022.4021 1.0544.4021 1.4565 0a-1.03-1.03 0 000-1.4566l-3.6167-3.6169 3.0597-3.0597 17.0249 17.0232-3.0597 3.0597-10.4931-10.4929c-.4022-.4021-1.0544-.4021-1.4565 0a-1.03-1.03 0 000 1.4566l9.22 9.22-5.8462 5.8462c-.375.374-.8932.5765-1.4196.5606l-6.5641-.2184c-1.0934-.0378-2.1692.3875-2.9446 1.1627l-4.989 4.989-5.0533-5.0535zm19.8639-20.5999a-3.2187-3.2187 0 002.2914-.9491l4.1072-4.1072 4.4469 4.4469-4.1071 4.1072c-.6121.6121-.9491 1.4259-.9492 2.2915s.3371 1.6792.9491 2.2912a-3.2187-3.2187 0 004.5825 0l4.1075-4.1072 2.4337 2.4337c.4022.402 1.0544.4022 1.4565 0l4.5162-4.5162a-1.03-1.03 0 000-1.4567l-.545-.545 5.8462-5.8462c.7754-.7754 1.1991-1.85 1.1627-2.9447l-.2184-6.5641c-.0175-.5285.1867-1.0457.5606-1.4196l5.7175-5.7175a-1.03-1.03 0 000-1.4566l-6.51-6.5101a-1.03-1.03 0 00-1.4565 0l-5.7171 5.7175a-1.9287-1.9287 0 01-1.4197.5606l-6.5641-.2184c-1.094-.0354-2.1694.3875-2.9447 1.1627l-5.8462 5.8462-.545-.545c-.201-.201-.4647-.3016-.7282-.3016a-1.0262-1.0262 0 00-.7282.3016l-4.5162 4.5162a-1.03-1.03 0 000 1.4566l2.4337 2.4337-4.1072 4.1072a-3.2187-3.2187 0 002.291 5.5317zm9.8642 6.625a-1.1725-1.1725 0 01-.8347.3457-1.1737-1.1737 0 01-.835-.3459-1.1712-1.1712 0 01-.3457-.8345c0-.3152.1229-.6117.3457-.8347l4.1071-4.1075 1.6695 1.6695zm-5.2376-22.4847 10.7325 10.7311c.4022.4021 1.0544.4021 1.4565 0a-1.0325-1.0325 0 00.3017-.7284-1.0262-1.0262 0 00-.3017-.7284l-9.4587-9.4587 5.8462-5.8462a-1.9325-1.9325 0 011.4197-.5606l6.5641.2184a-3.9962-3.9962 0 002.9447-1.1627l4.9875-4.989 5.0534 5.0532-4.989 4.9875a-3.9937-3.9937 0 00-1.1627 2.9446l.2182 6.5653a-1.9237-1.9237 0 01-.5606 1.4197l-5.8462 5.8462-2.1041-2.1041c-.4022-.4021-1.0544-.4021-1.4565 0a-1.03-1.03 0 000 1.4566l3.3772 3.3773-3.06 3.0597-17.023-17.0229zm-5.4616 11.7858 4.1072-4.1075 1.6695 1.6695-4.1072 4.1071c-.223.223-.5195.3459-.835.3459a-1.1725-1.1725 0 01-.8347-.3459c-.223-.2229-.3457-.5192-.3457-.8347s.123-.6116.3459-.8345z"/></g></svg>