<svg xmlns="http://www.w3.org/2000/svg" viewBox="0 0 48 48"><radialGradient id="a" cx="-23" cy="27.6" r="15.6" gradientUnits="userSpaceOnUse"><stop offset="0" stop-color="#64b5f6"/><stop offset="1" stop-color="#7bc9ff"/></radialGradient><g fill="#616161" transform="matrix(-1.1993 0 0 1.1993 52.8 -4.8)"><path d="M29.2 32l2.8-2.8 12 12-2.8 2.8z"/><circle cx="20" cy="20" r="16"/></g><path fill="#37474f" d="M9.7 41.6l-3.3-3.3L0 44.7 3.3 48z"/><circle cx="-28.8" cy="19.2" r="15.6" fill="url(#a)" transform="scale(-1 1)"/><path fill="#bbdefb" fill-opacity=".9" d="M20.5 9.9a10.8 10.8 0 0116.6 0c.4.4.3 1.3-.2 1.6-.4.5-1.3.4-1.6 0a8.5 8.5 0 00-13 0c-.2.2-.6.4-1 .4l-.7-.2c-.5-.5-.5-1.4-.1-1.8z"/></svg>