<svg xmlns="http://www.w3.org/2000/svg" viewBox="0 0 48 48" xmlns:v="https://vecta.io/nano"><g transform="matrix(-1 0 0 1 48.021899 0)"><g fill="#616161"><path d="M29.175 31.99l2.828-2.828 12.02 12.02L41.194 44z"/><circle cx="20" cy="20" r="16"/></g><path d="M32.45 35.34l2.828-2.828 8.696 8.696-2.828 2.828z" fill="#37474f"/><circle cx="20" cy="20" fill="#64b5f6" r="13"/><path d="m26.9 14.2c-1.7-2-4.2-3.2-6.9-3.2s-5.2 1.2-6.9 3.2c-.4.4-.3 1.1.1 1.4.4.4 1.1.3 1.4-.1 1.4-1.6 3.3-2.5 5.4-2.5s4 .9 5.4 2.5c.2.2.5.4.8.4.2 0 .5-.1.6-.2.4-.4.4-1.1.1-1.5z" fill="#bbdefb"/></g></svg>