<svg xmlns="http://www.w3.org/2000/svg" viewBox="0 0 48 48"><radialGradient id="a" cx="18.541" cy="15.215" r="29.993" gradientTransform="matrix(1.335 0 0 1.004 -6.926 -.405)" gradientUnits="userSpaceOnUse"><stop offset="0" stop-color="#dbe9ff"/><stop offset=".155" stop-color="#d3e9ff"/><stop offset=".75" stop-color="#4074ae"/><stop offset="1" stop-color="#36486c"/></radialGradient><radialGradient id="b" cx="-15.37" cy="34.491" r="10.391" gradientUnits="userSpaceOnUse"><stop offset="0" stop-color="#64b5f6"/><stop offset="1" stop-color="#7bc9ff"/></radialGradient><path fill="url(#a)" stroke="#39396c" stroke-width="1.111" d="M46.001 24.005c0 11.886-9.644 21.54-21.55 21.54S2.924 35.901 2.924 24.005s9.642-21.55 21.54-21.55 21.55 9.642 21.55 21.55z"/><g fill="#204a87" fill-opacity=".713"><path d="M45.204 20.63l-.594.674c-.364-.43-.764-.79-1.2-1.166l-.91.133-.833-.942v1.177l.713.54.475.54.635-.718.475.898v.898l-.714.808-1.31.898-.99.99-.635-.72.328-.808-.635-.718-1.07-2.288-.91-1.03-.24.27.358 1.303.674.764 1.27 3.233c.783 0 1.522-.084 2.3-.18v.63l-.952 2.335-.873.986-.713 1.527v2.513l.24 1-.398.437-.873.54-.91.764.764.853-1.03.9.2.582-1.547 1.742h-1.03l-.873.54h-.544v-.72l-.237-1.44-.952-2.693.078-1.964.398-.898-.544-1.078.04-1.48-.755-.853.378-1.222-.614-.7h-1.072l-.355-.403-1.07.674-.437-.495-.982.853-2.022-2.288-.792-1.888.713-1.078-.397-.437.873-2.066 2.222-2.603 1.35-.36 1.506-.18 1.03.27 1.466 1.48.517-.583.71-.09 1.35.437h1.014l.713-.63.328-.437-.714-.45-1.2-.09c-.33-.46-.638-.94-1.03-1.346l-.397.173-.158 1.166-.714-.808-.156-.9-.793-.627h-.32l.794.898-.328.808-.633.178.397-.808-.714-.358-.633-.718-1.2.27-.158.358-.713.45-.397 1-.982.493-.437-.493h-.475v-1.617l1.033-.54h.792l-.16-.628-.633-.63 1.07-.224.594-.673.475-.808h.873l-.24-.628.544-.36v.718l1.2.27 1.2-.986.08-.45 1.03-.718c-.373.047-.746.08-1.11.18v-.81l.397-.898h-.397l-.87.808-.24.45.24.63-.4 1.078-.633-.36-.555-.63-.873.63-.328-1.436 1.506-.99v-.54l.952-.63 1.506-.36 1.033.36 1.903.36-.475.54h-1.03l1.03 1.078.793-.898.24-.394s3.04 2.725 4.78 5.707 2.555 6.498 2.555 7.203zM25.56 8.104l-.08.54.544.36.95-.63-.475-.54-.635.36-.328-.09m.895-3.68l-2.074-.81-2.38.27-2.946.808-.555.54 1.822 1.255v.72l-.713.72.953 1.886.633-.36.797-1.258a27.27 27.27 0 003.489-1.347l.953-2.424m2.152 7.554l-.328-.808-.544.18.16.986.713-.358m.305-.18l-.158 1.078.873-.18.633-.628-.555-.54c-.186-.497-.402-.96-.635-1.437h-.474v.54l.328.36v.808M17.133 28.843l-.635-1.257-1.2-.27-.635-1.704-1.585.178-1.35-.986-1.42 1.256v.2c-.433-.126-.963-.142-1.347-.378l-.328-.898v-.985l-.952.09.238-1.885h-.555l-.555.718-.555.27-.793-.437-.08-.99.16-1.078 1.19-.898h.952l.158-.54 1.19.27.873 1.078.158-1.796 1.51-1.257.555-1.346 1.11-.437.633-.898 1.42-.27.713-1.078h-2.145l1.35-.63h.952l1.35-.45.16-.537-.478-.45-.544-.18.16-.54-.397-.808-.953.358.16-.716-1.11-.63-.873 1.525.078.54-.873.36-.544 1.166-.238-1.078-1.506-.63-.238-.808 1.983-1.166.873-.808.08-.99-.475-.27-.635-.09-.397.99-.833.172c-2.177 2.007-6.58 6.34-7.602 14.52.04.19.74 1.29.74 1.29l1.666.986 1.666.45.714.9 1.11.808.633-.09.475.214v.144l-.633 1.705-.478.718.16.36-.397 1.344 1.427 2.604 1.427 1.26.635.898-.08 1.886.478 1.078-.478 2.066s-.037-.01.024.194 2.544 1.582 2.7 1.466l.29-.222-.158-.437.633-.63.24-.63 1.03-.36.793-1.964-.238-.538.555-.808 1.2-.27.635-1.436-.158-1.795.952-1.346.158-1.347-3.885-1.964M15.408 8.462l.792.54h.635v-.625l-.792-.36-.635.448m-2.074-.718l-.398.99h.793l.398-.898 1.03-.72.793.27 1.586 1.078.793-.718-.873-.36-.398-.81-1.506-.18-.08-.45-.713.18-.328.63-.398-.81-.158.36.08.898-.635.54"/><path d="M16.202 5.5l.398-.36.793-.18c.544-.264 1.09-.442 1.666-.63l-.328-.54-1.025.147-.483.482-.796.116-.71.333-.333.167-.222.282 1.03.178m1.36 8.53l.478-.718-.714-.538.238 1.255"/></g><g fill="#616161" stroke="#e6e6e6" stroke-width="3.86" opacity=".804"><path d="M18.811 32.284l-3.062-3.062L2.734 42.237l3.063 3.04z"/><path d="M28.746 1.967a17.324 17.324 0 00-17.324 17.324 17.324 17.324 0 0017.324 17.324A17.324 17.324 0 0046.07 19.291 17.324 17.324 0 0028.746 1.967zm0 3.246a14.075 14.075 0 0114.075 14.078 14.075 14.075 0 01-14.075 14.075 14.075 14.075 0 01-14.075-14.075A14.075 14.075 0 0128.746 5.213z"/></g><g transform="translate(2.735 -19.744) scale(1.355)"><circle cx="-19.235" cy="28.871" r="10.391" fill="url(#b)" opacity=".575" transform="scale(-1 1)"/><path fill="#616161" d="M11.869 38.408l-2.261-2.261L0 45.755 2.261 48z"/><path fill="#616161" d="M19.203 16.027A12.789 12.789 0 006.414 28.816a12.789 12.789 0 0012.789 12.789 12.789 12.789 0 0012.789-12.789 12.789 12.789 0 00-12.789-12.789zm0 2.397a10.391 10.391 0 0110.391 10.393 10.391 10.391 0 01-10.391 10.391A10.391 10.391 0 018.812 28.817a10.391 10.391 0 0110.391-10.393z"/><g stroke-width=".667"><path fill="#37474f" d="M6.492 43.679L4.283 41.47 0 45.755l2.209 2.209z"/><path fill="#bbdefb" fill-opacity=".924" d="M13.586 22.858c1.36-1.6 3.357-2.558 5.515-2.558s4.156.96 5.515 2.558c.32.32.24.88-.08 1.12-.32.32-.88.24-1.12-.08-1.12-1.28-2.638-1.998-4.316-1.998s-3.197.72-4.316 1.998c-.16.16-.4.32-.64.32-.16 0-.4-.08-.48-.16-.32-.32-.32-.88-.08-1.2z"/></g></g></svg>