<svg xmlns="http://www.w3.org/2000/svg" viewBox="0 0 48 48"><radialGradient id="A" cx="-23.013" cy="27.623" gradientUnits="userSpaceOnUse" r="15.59"><stop offset="0" stop-color="#64b5f6"/><stop offset="1" stop-color="#7bc9ff"/></radialGradient><g fill="#616161" transform="matrix(-1.1993 0 0 1.1993 52.797 -4.7953)"><path d="M29.175 32l2.828-2.828 12.02 12.02L41.194 44z"/><circle cx="20" cy="20" r="16"/></g><path d="M9.74 41.57l-3.314-3.314L0 44.685 3.314 48z" fill="#37474f"/><circle cx="-28.812" cy="19.19" fill="url(#A)" r="15.59" transform="scale(-1 1)"/><path d="M20.506 9.867c2.04-2.4 5.037-3.838 8.275-3.838s6.236 1.44 8.275 3.838c.48.48.36 1.32-.12 1.68-.48.48-1.32.36-1.68-.12-1.68-1.92-3.958-2.998-6.476-2.998s-4.797 1.08-6.476 2.998c-.24.24-.6.48-.96.48-.24 0-.6-.12-.72-.24-.48-.48-.48-1.32-.12-1.8z" fill="#bbdefb" fill-opacity=".924"/></svg>