<svg enable-background="new 0 0 48 48" viewBox="0 0 48 48" xmlns="http://www.w3.org/2000/svg"><g transform="matrix(-1 0 0 1 48.021899 0)"><g fill="#616161"><path d="m34.599998 28.1h4v17h-4z" transform="matrix(.707 -.707 .707 .707 -15.154 36.586)"/><circle cx="20" cy="20" r="16"/></g><path d="m36.200001 32.099998h4v12.3h-4z" fill="#37474f" transform="matrix(.707 -.707 .707 .707 -15.839 38.239)"/><circle cx="20" cy="20" fill="#64b5f6" r="13"/><path d="m26.9 14.2c-1.7-2-4.2-3.2-6.9-3.2s-5.2 1.2-6.9 3.2c-.4.4-.3 1.1.1 1.4.4.4 1.1.3 1.4-.1 1.4-1.6 3.3-2.5 5.4-2.5s4 .9 5.4 2.5c.2.2.5.4.8.4.2 0 .5-.1.6-.2.4-.4.4-1.1.1-1.5z" fill="#bbdefb"/></g></svg>