<svg xmlns="http://www.w3.org/2000/svg" viewBox="0 0 64 64"><linearGradient id="A" x1="41.244" x2="41.244" y1="5.343" y2="36.031" gradientUnits="userSpaceOnUse"><stop offset="0" stop-color="#dbdbe3"/><stop offset="1" stop-color="#fff"/></linearGradient><path fill="none" stroke="#939dac" stroke-linecap="round" stroke-width="3" d="M51.06 42.166V52.56H11.557v9.25" class="B"/><path fill="url(#A)" stroke="#9393ac" stroke-miterlimit="10" stroke-width="2.02" d="M3.01 1.18h57.98a2 2 45 012 2v35.878a2 2 135 01-2 2H3.01a2 2 45 01-2-2V3.18a2 2 135 012-2z"/><g fill="#535d6c" stroke="#535d6c" stroke-width=".408" class="B"><ellipse cx="4.795" cy="5.193" rx=".854" ry=".856"/><ellipse cx="4.795" cy="37.045" rx=".854" ry=".856"/><ellipse cx="59.206" cy="5.193" rx=".854" ry=".856"/><ellipse cx="59.206" cy="37.045" rx=".854" ry=".856"/></g><path fill="#939dac" stroke="#939dac" stroke-width="1.009" d="M46.7 14.347h8.148v4.085H46.7zm0 9.46h8.148v4.085H46.7z" class="B"/><g fill="none" stroke="#535d6c" stroke-width=".982"><g class="B" transform="matrix(1.0175 0 0 1.0201 -.47 -3.232)"><circle cx="20.927" cy="23.871" r="13.985"/><circle cx="20.927" cy="23.871" r="10.59"/><circle cx="20.927" cy="23.871" r="6.845"/></g><path d="M8.727 11.674L33.122 36.07M33.122 11.674L8.727 36.07" transform="matrix(1.0175 0 0 1.0201 -.47 -3.232)"/></g></svg>