<svg xmlns="http://www.w3.org/2000/svg" xmlns:xlink="http://www.w3.org/1999/xlink" viewBox="0 0 64 64"><defs/><defs><linearGradient id="b" x1="27.18" x2="27.18" y1="6.33" y2="31.97" gradientUnits="userSpaceOnUse"><stop offset="0" stop-color="#b7b7c8"/><stop offset="1" stop-color="#373748"/></linearGradient><linearGradient id="a" x1="32.79" x2="32.79" y1="31.97" y2="57.59" gradientUnits="userSpaceOnUse"><stop offset="0" stop-color="#b7bec8"/><stop offset="1" stop-color="#373e48"/></linearGradient><path id="c" d="M50.4 42.22c0 1.14-.76 1.9-1.9 1.9s-1.9-.76-1.9-1.9.76-1.9 1.9-1.9 1.9.76 1.9 1.9"/></defs><path fill="url(#a)" d="M56.83 58.3H7.17c-1.94 0-3.57-1.63-3.57-3.57V35.57C3.6 33.63 5.23 32 7.17 32h49.66c1.94 0 3.57 1.63 3.57 3.57v19.17c0 1.94-1.63 3.57-3.57 3.57z"/><path fill="url(#b)" d="M56.83 32H7.17c-1.94 0-3.57-1.63-3.57-3.57V9.26c0-1.94 1.63-3.57 3.57-3.57h49.66c1.94 0 3.57 1.63 3.57 3.57v19.17c0 1.94-1.63 3.57-3.57 3.57z"/><g fill="#ccc"><use xlink:href="#c"/><use x="-7.56" xlink:href="#c"/><use x="3.8" y="5.68" xlink:href="#c"/><use x="-3.78" y="5.68" xlink:href="#c"/><use x="-15.14" xlink:href="#c"/><path d="M39.05 47.9c0 1.14-.76 1.9-1.9 1.9-1.13 0-1.9-.76-1.9-1.9s.76-1.9 1.9-1.9 1.9.76 1.9 1.9"/><use y="-26.32" xlink:href="#c"/><use x="-7.56" y="-26.32" xlink:href="#c"/><use x="3.8" y="-20.62" xlink:href="#c"/><use x="-3.78" y="-20.62" xlink:href="#c"/><use x="-15.14" y="-26.32" xlink:href="#c"/><path d="M39.05 21.6c0 1.14-.76 1.9-1.9 1.9-1.13 0-1.9-.76-1.9-1.9s.76-1.9 1.9-1.9 1.9.76 1.9 1.9"/></g><g fill="#0f0"><circle cx="13.87" cy="45.16" r="3.32"/><circle cx="13.87" cy="18.84" r="3.32"/></g></svg>