<svg xmlns="http://www.w3.org/2000/svg" xmlns:xlink="http://www.w3.org/1999/xlink" viewBox="0 0 64 64"><defs><linearGradient id="b" x1="27.2" x2="27.2" y1="6.3" y2="32" gradientUnits="userSpaceOnUse"><stop offset="0" stop-color="#b7b7c8"/><stop offset="1" stop-color="#373748"/></linearGradient><linearGradient id="a" x1="32.8" x2="32.8" y1="32" y2="57.6" gradientUnits="userSpaceOnUse"><stop offset="0" stop-color="#b7bec8"/><stop offset="1" stop-color="#373e48"/></linearGradient><path id="c" d="M50.4 42.2c0 1.2-.8 2-1.9 2s-1.9-.8-1.9-2 .8-1.9 1.9-1.9 1.9.8 1.9 2"/></defs><path fill="url(#a)" d="M56.8 58.3H7.2c-2 0-3.6-1.6-3.6-3.6V35.6c0-2 1.6-3.6 3.6-3.6h49.6c2 0 3.6 1.6 3.6 3.6v19.1c0 2-1.6 3.6-3.6 3.6z"/><path fill="url(#b)" d="M56.8 32H7.2c-2 0-3.6-1.6-3.6-3.6V9.3c0-2 1.6-3.6 3.6-3.6h49.6c2 0 3.6 1.6 3.6 3.6v19.1c0 2-1.6 3.6-3.6 3.6z"/><g fill="#ccc"><use xlink:href="#c"/><use x="-7.6" xlink:href="#c"/><use x="3.8" y="5.7" xlink:href="#c"/><use x="-3.8" y="5.7" xlink:href="#c"/><use x="-15.1" xlink:href="#c"/><path d="M39 47.9c0 1.1-.7 1.9-1.9 1.9-1 0-1.9-.8-1.9-1.9s.8-1.9 2-1.9 1.8.8 1.8 1.9"/><use y="-26.3" xlink:href="#c"/><use x="-7.6" y="-26.3" xlink:href="#c"/><use x="3.8" y="-20.6" xlink:href="#c"/><use x="-3.8" y="-20.6" xlink:href="#c"/><use x="-15.1" y="-26.3" xlink:href="#c"/><path d="M39 21.6c0 1.1-.7 1.9-1.9 1.9-1 0-1.9-.8-1.9-1.9s.8-1.9 2-1.9 1.8.8 1.8 1.9"/></g><g fill="#0f0"><circle cx="13.9" cy="45.2" r="3.3"/><circle cx="13.9" cy="18.8" r="3.3"/></g></svg>