<svg height="64" width="64" xmlns="http://www.w3.org/2000/svg" xmlns:xlink="http://www.w3.org/1999/xlink"><defs><path id="a" d="m50.4 41.22c0 1.14-.76 1.9-1.9 1.9s-1.9-.76-1.9-1.9.76-1.9 1.9-1.9 1.9.76 1.9 1.9"/></defs><path d="m56.83 56.3h-49.66c-1.94 0-3.57-1.63-3.57-3.57v-17.16c0-1.94 1.63-3.57 3.57-3.57h49.66c1.94 0 3.57 1.63 3.57 3.57v17.17c0 1.94-1.63 3.57-3.57 3.57z" fill="#808080"/><g fill="#ccc"><use xlink:href="#a"/><use x="-7.56" xlink:href="#a"/><use x="3.8" xlink:href="#a" y="5.68"/><use x="-3.78" xlink:href="#a" y="5.68"/><use x="-15.14" xlink:href="#a"/><path d="m39.05 46.9c0 1.14-.76 1.9-1.9 1.9-1.13 0-1.9-.76-1.9-1.9s.76-1.9 1.9-1.9 1.9.76 1.9 1.9"/></g><circle cx="13.87" cy="44.16" fill="#4a0" r="3.32"/><path d="m56.83 32h-49.66c-1.94 0-3.57-1.63-3.57-3.57v-17.17c0-1.94 1.63-3.57 3.57-3.57h49.66c1.94 0 3.57 1.63 3.57 3.57v17.17c0 1.94-1.63 3.57-3.57 3.57z" fill="#b3b3b3"/><g fill="#ccc"><use xlink:href="#a" y="-24.32"/><use x="-7.56" xlink:href="#a" y="-24.32"/><use x="3.8" xlink:href="#a" y="-18.62"/><use x="-3.78" xlink:href="#a" y="-18.62"/><use x="-15.14" xlink:href="#a" y="-24.32"/><path d="m39.05 22.6c0 1.14-.76 1.9-1.9 1.9-1.13 0-1.9-.76-1.9-1.9s.76-1.9 1.9-1.9 1.9.76 1.9 1.9"/></g><circle cx="13.87" cy="19.84" fill="#4a0" r="3.32"/></svg>