<svg xmlns="http://www.w3.org/2000/svg" xmlns:xlink="http://www.w3.org/1999/xlink" viewBox="0 0 64 64"><defs/><linearGradient id="a" gradientUnits="userSpaceOnUse"><stop offset="0" stop-color="#afc6e9"/><stop offset="1" stop-color="#162d50"/></linearGradient><linearGradient id="c" x1="29.98" x2="29.98" y1=".13" y2="21.35" xlink:href="#a"/><linearGradient id="b" x1="17.49" x2="17.49" y1="21.22" y2="42.19" xlink:href="#a"/><linearGradient id="d" x1="21.43" x2="21.43" y1="42.13" y2="63.53" gradientUnits="userSpaceOnUse"><stop offset="0" stop-color="#87aade"/><stop offset="1" stop-color="#162d50"/></linearGradient><path fill="url(#b)" d="M59.87 42.3H4.12a3.96 3.96 0 01-3.96-3.96V25.42a3.96 3.96 0 013.96-3.96h55.76a3.96 3.96 0 013.96 3.96v12.94a3.96 3.96 0 01-3.96 3.96z"/><path fill="url(#c)" d="M59.87 21.46H4.12C1.94 21.45.16 19.68.16 17.5V4.16A3.97 3.97 0 014.12.2h55.76c2.18 0 3.96 1.77 3.95 3.95V17.5a3.95 3.95 0 01-3.96 3.96z"/><g fill="#d7e3f4"><circle cx="53.68" cy="9.14" r="1.09"/><circle cx="49.31" cy="9.14" r="1.09"/><circle cx="55.87" cy="12.42" r="1.09"/><circle cx="51.5" cy="12.42" r="1.09"/><circle cx="44.95" cy="9.14" r="1.09"/><circle cx="47.13" cy="12.42" r="1.09"/><circle cx="40.57" cy="9.14" r="1.09"/><circle cx="42.76" cy="12.42" r="1.09"/><circle cx="36.21" cy="9.14" r="1.09"/><circle cx="38.39" cy="12.42" r="1.09"/></g><path fill="url(#d)" d="M59.87 63.7H4.13a3.97 3.97 0 01-3.96-3.96V46.3a3.95 3.95 0 013.96-3.96h55.75c2.18.01 3.95 1.78 3.95 3.96v13.43a3.95 3.95 0 01-3.96 3.96z"/><g fill="#0f6"><circle cx="10.54" cy="10.78" r="3.82"/><circle cx="10.54" cy="31.72" r="3.82"/><circle cx="10.55" cy="52.75" r="3.82"/></g><path fill="red" stroke="#333" stroke-width="2.46" d="M50.34 24.3c-2.32 0-4.58 1.37-6.52 2.57-1.95-1.2-4.2-2.57-6.52-2.57-6.85 0-12.43 5.57-12.43 12.43.2 13.04 14.57 19.73 18.95 25.25 3.8-5.26 18.7-15.74 18.95-25.25 0-6.85-5.57-12.43-12.43-12.43z"/><path fill="#7fd658" d="M41.33 32.18a1.42 1.42 0 00-1.09.72l-6.92 9.73h-6.1l1.4 2.53 5.54-.02c.4-.07.76-.35.98-.7l5.3-7.47 1.27 14.26a1.31 1.31 0 001.16 1.02.74.74 0 00.21 0c.4-.03.8-.26 1-.6.2-.3.34-.6.5-.9l5.47-9.8 2.8 2.7c.17.17.4.28.63.32.3.06.63.02.95.03h4.3c.48-.82 1.23-1.66 1.6-2.53h-6.1L51 38.22l-.48-.46c-.45-.32-1.13-.32-1.56.04-.22.18-.37.43-.5.68l-1.78 3.2-2.8 5.03-1.2-13.53a1.28 1.28 0 00-1.21-1.01h-.13z"/></svg>