<svg enable-background="new 0 0 60 60" viewBox="0 0 60 60" xmlns="http://www.w3.org/2000/svg"><path d="m55.392 20.5h-50.784c-1.992 0-3.608-1.616-3.608-3.608v-11.784c0-1.992 1.616-3.608 3.608-3.608h50.783c1.993 0 3.609 1.616 3.609 3.608v11.783c0 1.993-1.616 3.609-3.608 3.609z" fill="#2f4583"/><circle cx="30" cy="53.5" fill="none" r="4" stroke="#424a9d" stroke-linecap="round" stroke-miterlimit="10" stroke-width="2"/><path d="m55.392 39.5h-50.784c-1.992 0-3.608-1.616-3.608-3.608v-11.784c0-1.992 1.616-3.608 3.608-3.608h50.783c1.993 0 3.608 1.616 3.608 3.608v11.783c.001 1.993-1.615 3.609-3.607 3.609z" fill="#325bb4"/><g fill="none" stroke="#424a9d" stroke-miterlimit="10" stroke-width="2"><path d="m1 53.5h25" stroke-linecap="round"/><path d="m34 53.5h25" stroke-linecap="round"/><path d="m30 49.5v-10"/></g><circle cx="10.5" cy="11" fill="#17be9e" r="3.5"/><circle cx="10.5" cy="30" fill="#17be9e" r="3.5"/><g fill="#7383bf"><circle cx="50" cy="9.5" r="1"/><circle cx="46" cy="9.5" r="1"/><circle cx="52" cy="12.5" r="1"/><circle cx="48" cy="12.5" r="1"/><circle cx="42" cy="9.5" r="1"/><circle cx="44" cy="12.5" r="1"/><circle cx="38" cy="9.5" r="1"/><circle cx="40" cy="12.5" r="1"/><circle cx="34" cy="9.5" r="1"/><circle cx="36" cy="12.5" r="1"/><circle cx="50" cy="28.5" r="1"/><circle cx="46" cy="28.5" r="1"/><circle cx="52" cy="31.5" r="1"/><circle cx="48" cy="31.5" r="1"/><circle cx="42" cy="28.5" r="1"/><circle cx="44" cy="31.5" r="1"/><circle cx="38" cy="28.5" r="1"/><circle cx="40" cy="31.5" r="1"/><circle cx="34" cy="28.5" r="1"/><circle cx="36" cy="31.5" r="1"/></g></svg>