<svg height="64" width="64" xmlns="http://www.w3.org/2000/svg"><path d="m60.011 42.416h-56.03a3.983 3.983 0 0 1 -3.981-3.981v-13.001a3.983 3.983 0 0 1 3.981-3.981h56.039a3.983 3.983 0 0 1 3.981 3.981v13.01a3.983 3.983 0 0 1 -3.98 3.982z" fill="#325bb4"/><path d="m60.01 21.453h-56.03c-2.197-.001-3.979-1.783-3.98-3.981v-13.402c.001-2.197 1.783-3.978 3.98-3.97h56.04c2.194-.003 3.98 1.777 3.97 3.97v13.4c-.001 2.198-1.782 3.98-3.98 3.982z" fill="#2f4583"/><g fill="#17be9e"><circle cx="10.481" cy="10.777" r="3.862"/><circle cx="10.481" cy="31.934" r="3.862"/></g><g fill="#7383bf"><circle cx="54.062" cy="9.122" r="1.103"/><circle cx="49.648" cy="9.122" r="1.103"/><circle cx="56.268" cy="12.432" r="1.103"/><circle cx="51.855" cy="12.432" r="1.103"/><circle cx="45.235" cy="9.122" r="1.103"/><circle cx="47.442" cy="12.432" r="1.103"/><circle cx="40.822" cy="9.122" r="1.103"/><circle cx="43.029" cy="12.432" r="1.103"/><circle cx="36.409" cy="9.122" r="1.103"/><circle cx="38.615" cy="12.432" r="1.103"/></g><path d="m60.015 63.9h-56.03c-2.198-.001-3.98-1.783-3.98-3.98v-13.5c.001-2.198 1.783-3.98 3.98-3.98h56.04c2.194.006 3.97 1.786 3.972 3.98v13.5c-.001 2.198-1.782 3.98-3.98 3.982z" fill="#2f4583"/><circle cx="10.486" cy="53.173" fill="#17be9e" r="3.862"/><path d="m50.275 24.556c-2.334 0-4.6 1.377-6.558 2.587-1.96-1.21-4.224-2.587-6.558-2.587-6.887 0-12.49 5.603-12.49 12.49 0 4.554 3.32 10.294 9.87 17.058 4.006 4.138 7.957 7.352 9.177 8.32 1.22-.967 5.17-4.18 9.177-8.32 6.55-6.764 9.87-12.504 9.87-17.058 0-6.887-5.603-12.49-12.49-12.49z" fill="#e71f07" stroke="#333" stroke-width="2.474"/><path d="m41.672 32.48c-.454.038-.863.333-1.086.724l-6.883 9.784h-6.055a27.43 27.43 0 0 0 1.48 2.544l5.405-.017c.41-.066.756-.35.97-.694l5.27-7.51 1.258 14.337c.105.54.595.99 1.15 1.025a1.31 1.31 0 0 0 .212-.001c.4-.034.784-.26.985-.61.185-.294.336-.615.508-.912l5.436-9.854 2.772 2.704c.168.17.388.282.623.323.31.058.63.024.943.032l4.388-.003c.48-.823.925-1.668 1.3-2.544h-5.838l-3.237-3.254-.472-.46c-.45-.326-1.12-.322-1.547.04-.222.18-.368.43-.494.683l-1.775 3.224-2.79 5.056-1.192-13.6a1.28 1.28 0 0 0 -1.203-1.017c-.043-.002-.086-.002-.128.001z" fill="#7fd658"/></svg>