<svg xmlns="http://www.w3.org/2000/svg" height="64" width="64"><style><![CDATA[.B{stroke-linejoin:round}.C{stroke-width:.982}]]></style><linearGradient id="A" gradientUnits="userSpaceOnUse" x1="41.244" x2="41.244" y1="5.343" y2="36.031"><stop offset="0" stop-color="#dbdbe3"/><stop offset="1" stop-color="#fff"/></linearGradient><path d="M51.06 42.166V52.56H11.557v9.25" fill="none" stroke="#939dac" stroke-linecap="round" stroke-width="3" class="B"/><path d="m3.0099 1.1805h57.9802a2 2 45 012 2v35.8773a2 2 135 01-2 2h-57.9802a2 2 45 01-2-2v-35.8773a2 2 135 012-2z" fill="url(#A)" stroke="#9393ac" stroke-miterlimit="10" stroke-width="2.02"/><g fill="#535d6c" stroke="#535d6c" stroke-width=".408" class="B"><ellipse cx="4.795" cy="5.193" rx=".854" ry=".856"/><ellipse cx="4.795" cy="37.045" rx=".854" ry=".856"/><ellipse cx="59.206" cy="5.193" rx=".854" ry=".856"/><ellipse cx="59.206" cy="37.045" rx=".854" ry=".856"/></g><path d="M46.7 14.347h8.148v4.085H46.7zm0 9.46h8.148v4.085H46.7z" fill="#939dac" stroke="#939dac" stroke-width="1.009" class="B"/><g fill="none" stroke="#535d6c" transform="matrix(1.0175 0 0 1.0201 -.4697 -3.2317)" class="C"><g class="B"><circle cx="20.927" cy="23.871" r="13.985"/><circle cx="20.927" cy="23.871" r="10.59"/><circle cx="20.927" cy="23.871" r="6.845"/></g><path d="M8.727 11.674L33.122 36.07"/><path d="M33.122 11.674L8.727 36.07"/></g></svg>