<svg xmlns="http://www.w3.org/2000/svg" viewBox="0 0 64 64"><path d="M13.38 21.54h9.63v12.34h12.95V21.54h9.63L29.49 2.35z" fill="#5b5"/><path d="M49.21 30.23l-3.02 1.46a.5.5 0 0 0-.13.09l-6.09 5.8a.5.5 0 0 0-.06.23.5.5 0 0 0-.1.12v.01a.5.5 0 0 0 .05.09.5.5 0 0 0-.02.07l.51 1.5a.5.5 0 0 0 .28.3l1.33.58a.5.5 0 0 0 .5-.06l2.9-2.17a.5.5 0 0 0 .06-.05l4.53-4.61a.5.5 0 0 0 .11-.17l.81-2.06a.5.5 0 0 0-.24-.63l-.98-.5a.5.5 0 0 0-.44 0zm7.29 3.12l-2.19.33a.5.5 0 0 0-.25.11l-6.88 5.84a.5.5 0 0 0-.02.09l-.02-.03-2.95 3.65a.5.5 0 0 0-.05.56l.74 1.33a.5.5 0 0 0 .36.25l1.51.23a.5.5 0 0 0 .4-.12l5.75-5a.5.5 0 0 0 .05-.06l3.89-4.64a.5.5 0 0 0 .12-.29l.1-1.73a.5.5 0 0 0-.56-.52zm-45.38 5.01L1.21 39a.5.5 0 0 0-.47.5l.15 18.72a.5.5 0 0 0 .45.49l26.04 3.11a.5.5 0 0 0 .11 0l19.27-2.12a.5.5 0 0 0 .29-.13l9.73-8.9a.5.5 0 0 0 .06-.06l6.31-8.59a.5.5 0 0 0-.1-.7l-3.74-2.84a.5.5 0 0 0-.66.05c-2.36 2.43-4.59 4.98-7.01 7.31l-9.98 8.13-19.67.5 3.31-4.3 14.08-.79a.5.5 0 0 0 .47-.51l-.08-5.36a.5.5 0 0 0-.46-.49l-17.56-1-10.45-3.64a.5.5 0 0 0-.18-.02z" fill="#6f6f91"/></svg>