<svg xmlns="http://www.w3.org/2000/svg" viewBox="0 0 64 64"><linearGradient id="A" gradientUnits="userSpaceOnUse" x1="29.62" x2="29.62" y1="30.98" y2="8.94"><stop offset="0" stop-color="#37c837"/><stop offset="1" stop-color="#0f6"/></linearGradient><path d="M13.38 21.54h9.63v12.34h12.95V21.54h9.63L29.49 2.35z" fill="url(#A)" stroke="#16502d"/><path d="M41.21 38.38c1.89-2.08 3.84-4.11 6.09-5.8.91-.64 1.88-1.34 3.02-1.46.37-.01.91.07.98.5.09.77-.42 1.46-.81 2.06-1.29 1.75-2.9 3.2-4.53 4.61-.93.77-1.86 1.56-2.91 2.17-.48.09-.97-.29-1.33-.58-.39-.37-.77-.97-.51-1.51zm6.05 1.63c2.15-2.1 4.34-4.2 6.88-5.84.64-.39 1.46-.7 2.19-.33.54.46.16 1.22-.1 1.73-1.03 1.76-2.48 3.2-3.89 4.64-1.82 1.78-3.7 3.49-5.75 5-.46.5-1.09.07-1.51-.23-.4-.32-.78-.81-.74-1.33.59-1.48 1.86-2.53 2.95-3.65zM1.15 58.21c9.17 1.54 18.38 3.05 27.7 2.91 6.1.1 12.8.68 18.17-2.81 3-2.28 5.34-5.28 8.01-7.91 2.55-2.84 5.39-5.47 7.48-8.68 1.19-1.82.14-4.81-2.23-4.79-2.53.09-3.75 2.74-5.42 4.25-4.32 4.66-8.39 9.86-14.09 12.9-2.65 1.42-5.68.79-8.55.92H16.36c1.23-1.76 2.32-3.99 4.4-4.8l15.46-.01c2.92-.18 4.51-3.4 3.39-5.97-.74-2.72-3.86-3.35-6.3-3.17L21.77 41c-4.54-3.04-10.18-5.12-15.66-3.71-1.65.57-4.25.77-5.11 2.2l.15 18.74z" fill="#e9c6af" stroke="#deaa87" stroke-linejoin="round" stroke-width="2"/></svg>