<svg xmlns="http://www.w3.org/2000/svg" xmlns:xlink="http://www.w3.org/1999/xlink" viewBox="0 0 64 64"><defs><path id="a" d="M51.33 4.938a1.06 1.06 0 00-1.056 1.056A1.06 1.06 0 0051.33 7.05a1.06 1.06 0 001.056-1.056 1.06 1.06 0 00-1.056-1.056z"/></defs><g fill="#f9f9f9" stroke="#333"><path stroke-width="1.939" d="M.97.97h62.06v62.06H.97z"/><path stroke-width="1.826" d="M.97.97h62.06V11.5H.97z"/></g><g fill="#333"><use xlink:href="#a"/><use x="-5.414" xlink:href="#a"/><path d="M56.743 4.938a1.06 1.06 0 00-1.056 1.056 1.06 1.06 0 001.056 1.056A1.06 1.06 0 0057.8 5.994a1.06 1.06 0 00-1.056-1.056z"/></g><path fill="#e6e6e6" stroke="#ccc" stroke-width=".825" d="M28.473 12.917h33.2V61.5h-33.2z" opacity=".75"/><path fill="#afc6e9" stroke="#87aade" stroke-width=".849" d="M2.497 12.917H26.02V61.5H2.497z"/></svg>