<svg xmlns="http://www.w3.org/2000/svg" xmlns:xlink="http://www.w3.org/1999/xlink" viewBox="0 0 64 64"><defs><path id="a" d="M51.3 5a1 1 0 00-1 1 1 1 0 001 1 1 1 0 001-1 1 1 0 00-1-1z"/></defs><g fill="#f9f9f9" stroke="#333"><path stroke-width="1.9" d="M1 1h62v62H1z"/><path stroke-width="1.8" d="M1 1h62v10.5H1z"/></g><g fill="#333"><use xlink:href="#a"/><use x="-5.4" xlink:href="#a"/><path d="M56.7 5a1 1 0 00-1 1 1 1 0 001 1 1 1 0 001.1-1 1 1 0 00-1-1z"/></g><path fill="#e6e6e6" stroke="#ccc" stroke-width=".8" d="M28.5 13h33.2v48.5H28.5z" opacity=".8"/><path fill="#afc6e9" stroke="#87aade" stroke-width=".8" d="M2.5 13H26v48.5H2.5z"/></svg>