<svg height="64" width="64" xmlns="http://www.w3.org/2000/svg" xmlns:xlink="http://www.w3.org/1999/xlink"><defs><path id="a" d="m51.33 4.938a1.06 1.06 0 00-1.056 1.056 1.06 1.06 0 001.056 1.056 1.06 1.06 0 001.056-1.056 1.06 1.06 0 00-1.056-1.056z"/></defs><g fill="#f9f9f9" stroke="#333"><path d="m.97.97h62.06v62.06h-62.06z" stroke-width="1.939"/><path d="m.97.97h62.06v10.53h-62.06z" stroke-width="1.826"/></g><g fill="#333"><use xlink:href="#a"/><use x="-5.414" xlink:href="#a"/><path d="m56.743 4.938a1.06 1.06 0 00-1.056 1.056 1.06 1.06 0 001.056 1.056 1.06 1.06 0 001.057-1.056 1.06 1.06 0 00-1.056-1.056z"/></g><path d="m28.473 12.917h33.2v48.583h-33.2z" fill="#e6e6e6" opacity=".75" stroke="#ccc" stroke-width=".825"/><path d="m2.497 12.917h23.523v48.583h-23.523z" fill="#afc6e9" stroke="#87aade" stroke-width=".849"/></svg>