<svg fill-rule="evenodd" height="128" stroke-linejoin="bevel" stroke-width=".501" viewBox="0 0 96 96" width="128" xmlns="http://www.w3.org/2000/svg" xmlns:xlink="http://www.w3.org/1999/xlink"><filter id="a" color-interpolation-filters="sRGB"><feGaussianBlur stdDeviation="1 1"/></filter><g stroke="#333" stroke-linejoin="round" stroke-miterlimit="79.84"><path d="m17.47 88.87-4.077-.445-8.477-.536c-2.317-.15-3.744-2.616-2.712-4.698l4.008-8.094 1.432-3.25c2.43-5.378 5.74-12.2 11.853-15.73 5.25-3.028 10.685-4.268 15.498-3.786-2.835-3.927-4.453-9.27-4.448-15.346 0-4.943 1.98-9.214 4.048-12.66 1.98-3.295 4.77-6.945 6.803-9.843l.554-.82 3.467-5.4c1.3-2.013 4.25-1.99 5.51.046l3.912 6.316c1.493 2.223 4.34 5.895 6.5 9.49 2.21 3.695 4.267 8.163 4.267 12.87-.003 5.604-1.333 10.513-3.757 14.323a21.7 21.7 0 0 1 -.691 1.015c4.79-.485 10.218.742 15.498 3.79 6.117 3.53 9.424 10.355 11.832 15.693l5.354 11.486a3.26 3.26 0 0 1 -2.741 4.628l-8.9.568-3.517.38c-5.883.584-13.44 1.125-19.554-2.402-5.256-3.032-9.05-7.122-11.035-11.53-1.992 4.4-5.8 8.492-11.063 11.53-6.1 3.525-13.675 2.98-19.552 2.405zm31.127-28.712a15.51 15.51 0 0 1 .584-.941c-.376.027-.75.035-1.12.035a16.84 16.84 0 0 1 -1.098-.035c.205.304.4.616.586.94a18.24 18.24 0 0 1 .523.981c.163-.328.336-.653.525-.98z" fill="#333" stroke-width="1.125"/><g stroke-width=".088"><path d="m33.602 36.583c0-5.868 3.568-11.33 7.085-16.232l2.122-2.908 4.974-7.466 7.28 10.396c3.504 4.873 7.078 10.342 7.078 16.2 0 11.728-6.422 19-14.275 19s-14.263-7.282-14.263-19z" fill="#f00"/><path d="m17.586 85.22-3.584-.387-9.077-.58 3.8-7.663 1.68-3.81c2.488-5.487 5.44-11.313 10.517-14.243 10.16-5.863 19.674-3.954 23.605 2.847 3.925 6.796.826 15.99-9.336 21.858-5.08 2.932-11.602 2.578-17.605 1.978z" fill="#fffc00"/><path d="m60.545 83.24c-9.514-5.485-12.85-13.9-9.994-20.554a13.16 13.16 0 0 1 .658-1.304c.246-.424.512-.834.803-1.223 2.317-3.1 5.952-4.91 10.285-5.1 3.787-.162 8.093.925 12.512 3.477 6.605 3.8 9.954 13.51 12.72 19.16l3.547 6.6-6.46.3-1.03.075c-3.786.333-8.042.898-11.736.96-3.794.062-7.78-.352-11.306-2.388z" fill="#00ff03"/><g filter="url(#a)" transform="scale(1 -1)"><path d="m18.992-85.688-3.584.387-9.077.58.037.074 8.035 3.067 3.42 1.137c5.7 1.947 11.8 4.334 15.193 9.112 3.876 5.446 5.22 10.92 4.476 15.467 3.668-.786 6.64-2.875 8.44-5.99 3.925-6.796.826-15.99-9.336-21.858-5.08-2.932-11.602-2.578-17.605-1.978z" fill-opacity=".173" stroke-opacity=".173"/><path d="m77.086-85.22 3.584.387 9.077.58-.037.074-8.035 3.067-3.42 1.137c-5.7 1.947-11.8 4.334-15.193 9.112-3.876 5.446-5.22 10.92-4.476 15.467-3.668-.786-6.64-2.875-8.44-5.99-3.925-6.796-.826-15.99 9.336-21.858 5.08-2.932 11.602-2.578 17.605-1.978z" fill-opacity=".173" stroke-opacity=".173"/><path d="m33.603-37.988c0 1.776.327 3.516.88 5.215 2.015-7.51 7.26-11.934 13.383-11.934s11.374 4.427 13.392 11.935c.555-1.7.883-3.44.883-5.216 0-11.728-6.422-19-14.275-19s-14.263 7.282-14.263 19z" fill-opacity=".18" stroke-opacity=".18"/></g></g></g></svg>