<svg fill-rule="evenodd" height="96pt" stroke-linejoin="bevel" stroke-width=".501" viewBox="0 0 96 96" width="96pt" xmlns="http://www.w3.org/2000/svg" xmlns:xlink="http://www.w3.org/1999/xlink"><filter id="a" color-interpolation-filters="sRGB"><feGaussianBlur result="blur" stdDeviation="1 1"/></filter><path d="m0 .008v95.984h96v-95.984z" fill="none"/><g stroke="#333" stroke-linecap="round" stroke-linejoin="round" stroke-miterlimit="79.8403"><path d="m17.469 88.869c-1.896-.197-2.053-.24-4.077-.445l-8.477-.536c-2.317-.149-3.744-2.616-2.712-4.698l4.008-8.094c.589-1.301.957-2.2 1.432-3.25 2.429-5.378 5.741-12.201 11.853-15.731 5.25-3.028 10.685-4.268 15.498-3.786-2.835-3.927-4.453-9.27-4.448-15.346 0-4.943 1.981-9.214 4.048-12.659 1.979-3.295 4.771-6.945 6.803-9.843.165-.248.383-.568.554-.819l3.467-5.399c1.29-2.013 4.25-1.989 5.509.046l3.912 6.316c1.493 2.223 4.341 5.895 6.49 9.489 2.211 3.695 4.267 8.163 4.267 12.869-.003 5.604-1.333 10.513-3.757 14.323-.224.352-.456.688-.691 1.015 4.789-.485 10.218.742 15.498 3.789 6.117 3.53 9.424 10.355 11.832 15.693l5.354 11.486c.971 2.074-.456 4.482-2.741 4.628l-8.901.568c-1.965.189-1.603.184-3.517.379-5.883.584-13.44 1.125-19.554-2.402-5.256-3.032-9.051-7.122-11.035-11.529-1.992 4.41-5.8 8.492-11.063 11.531-6.11 3.525-13.675 2.981-19.552 2.405zm31.127-28.712c.187-.325.379-.637.584-.941-.376.027-.749.035-1.12.035-.365 0-.73-.011-1.098-.035.205.304.4.616.586.939.187.325.36.653.523.981.163-.328.336-.653.525-.979z" fill="#333" stroke-width="1.125"/><g stroke-width=".088"><path d="m33.602 36.583c0-5.868 3.568-11.331 7.085-16.232.954-1.325 1.032-1.375 2.122-2.908l4.974-7.466 7.279 10.396c3.504 4.873 7.078 10.342 7.078 16.21 0 11.728-6.422 19.01-14.275 19.01-7.855 0-14.263-7.282-14.263-19.01z" fill="#f00"/><path d="m17.586 85.219c-1.181-.115-1.925-.224-3.584-.387l-9.077-.581 3.8-7.663c.787-1.741 1.021-2.338 1.68-3.809 2.488-5.487 5.44-11.313 10.517-14.243 10.16-5.863 19.674-3.954 23.605 2.847 3.925 6.796.826 15.989-9.336 21.858-5.08 2.932-11.602 2.578-17.605 1.978z" fill="#fffc00"/><path d="m60.545 83.241c-9.514-5.485-12.85-13.91-9.994-20.554.192-.442.413-.877.658-1.304.246-.424.512-.834.803-1.223 2.317-3.101 5.952-4.911 10.285-5.101 3.787-.162 8.093.925 12.512 3.477 6.605 3.81 9.954 13.509 12.719 19.159l3.547 6.599-6.459.301c-.352.029-.717.056-1.029.075-3.786.333-8.042.898-11.736.959-3.794.062-7.781-.352-11.306-2.388z" fill="#00ff03"/><g filter="url(#a)" transform="scale(1 -1)"><path d="m18.992-85.688c-1.181.115-1.925.224-3.584.387l-9.077.581.037.074 8.035 3.067c1.576.54 2.298.75 3.42 1.137 5.71 1.947 11.79 4.334 15.193 9.112 3.876 5.446 5.22 10.921 4.476 15.467 3.668-.786 6.64-2.875 8.441-5.989 3.925-6.796.826-15.989-9.336-21.858-5.08-2.932-11.602-2.578-17.605-1.978z" fill-opacity=".172549" stroke-opacity=".172549"/><path d="m77.086-85.219c1.181.115 1.925.224 3.584.387l9.077.581-.037.074-8.035 3.067c-1.576.54-2.298.75-3.42 1.137-5.71 1.947-11.79 4.334-15.193 9.112-3.876 5.446-5.22 10.921-4.476 15.467-3.668-.786-6.64-2.875-8.441-5.989-3.925-6.796-.826-15.989 9.336-21.858 5.08-2.932 11.602-2.578 17.605-1.978z" fill-opacity=".172549" stroke-opacity=".172549"/><path d="m33.603-37.988c0 1.776.327 3.516.88 5.215 2.015-7.509 7.259-11.934 13.383-11.934 6.122 0 11.375 4.426 13.392 11.935.555-1.699.883-3.44.883-5.216 0-11.728-6.422-19.01-14.275-19.01-7.855 0-14.263 7.282-14.263 19.01z" fill-opacity=".180392" stroke-opacity=".180392"/></g></g></g></svg>