<svg xmlns="http://www.w3.org/2000/svg" viewBox="0 0 64 64"><g stroke-linecap="round" stroke-linejoin="round" transform="matrix(1.72 0 0 1.72 .99 .98)"><g stroke="#4c4c4c"><g fill="none"><path d="M15.53 33.72a2.57 2.57 0 1 1 4.97-1.33 2.56 2.56 0 0 1-1.82 3.14 2.57 2.57 0 0 1-3.15-1.82z" fill="#4c4c4c" stroke-width=".75"/><path d="m5.76 33.06h9.7" stroke-width="2.01"/><path d="M18.45 34.69a1.69 1.69 0 0 0 1.2-2.07c-.24-.9-1.17-1.44-2.07-1.2a1.69 1.69 0 0 0-1.2 2.07c.24.9 1.17 1.44 2.07 1.2z" fill="#00ff03" stroke-width=".75"/><path d="m5.76 33.06h9.7m5.09 0h9.7" stroke-width="2"/></g><path d="m14.17 1.51c7.89-2.11 16 2.57 18.11 10.44s-2.58 15.97-10.45 18.08c-7.88 2.1-16-2.57-18.11-10.43a14.77 14.77 0 0 1 10.45-18.08z" fill="#d5fff6" stroke-width="2"/></g><path d="m22.29 7.06c-.16-.15-.41-.17-.58-.04l-7.95 6.07c-.1.08-.16.19-.17.32s.04.25.13.34l1.87 1.87a.45.45 0 0 0 .31.13h.03a.44.44 0 0 0 .32-.17l6.08-7.94a.44.44 0 0 0 -.04-.58z" fill="#fff"/><g stroke="#4c4c4c"><path d="M18 3.32a.46.46 0 0 0 .46-.46V1.03L18 1.02l-.46.01v1.83a.46.46 0 0 0 .46.46zm0 24.83a.46.46 0 0 1 .46.46v1.82l-.46.01-.46-.01v-1.82a.46.46 0 0 1 .46-.46zM7.3 22.16c0-.08-.02-.16-.06-.23a.46.46 0 0 0-.63-.17l-1.6.92.46.8 1.6-.92a.46.46 0 0 0 .23-.4zm-1.73-6.43a.46.46 0 0 0-.46-.46H3.28l-.01.46.01.46h1.83c.25 0 .46-.21.46-.46zM5 8.78l1.6.92a.46.46 0 0 0 .63-.16c.04-.08.06-.16.06-.23a.46.46 0 0 0-.23-.41l-1.6-.92zm5.22-5.55l.93 1.6a.46.46 0 0 0 .86-.23.46.46 0 0 0-.07-.23l-.92-1.6zm20.21 12.5a.46.46 0 0 1 .46-.46h1.83l.01.46-.01.46H30.9c-.25 0-.46-.21-.46-.46z" fill="#4c4c4c"/><path d="M15.47 6.34a9.79 9.79 0 0 1 11.98 6.9 9.77 9.77 0 0 1-6.92 11.96 9.79 9.79 0 0 1-11.98-6.9 9.77 9.77 0 0 1 6.92-11.96z" fill="#fff" stroke-width="1.3"/></g><g fill="#4c4c4c"><path d="M31 8.78l-1.6.92a.46.46 0 0 1-.63-.17c-.04-.07-.06-.16-.06-.23a.46.46 0 0 1 .23-.4l1.6-.92zm-5.22-5.55l-.93 1.6a.46.46 0 0 1-.63.17.46.46 0 0 1-.17-.63l.93-1.6z" stroke="#4c4c4c"/><path d="M26.64 7.1c-.16-.16-.41-.17-.58-.04l-7.95 6.07c-.1.08-.16.2-.17.32a.43.43 0 0 0 .13.34l1.87 1.87a.44.44 0 0 0 .31.13h.03a.46.46 0 0 0 .32-.18l6.08-7.94a.44.44 0 0 0-.04-.58z"/><path d="M15.29 15.79a2.65 2.65 0 0 1 5.3 0 2.65 2.65 0 1 1-5.3 0zm3.98 0a1.33 1.33 0 0 0-1.33-1.33 1.32 1.32 0 1 0 0 2.65c.73 0 1.33-.59 1.33-1.32z"/><path d="M10.24 28.23l.93-1.6a.45.45 0 0 1 .63-.17c.14.09.23.24.23.4a.45.45 0 0 1-.06.23l-.93 1.6z" stroke="#4c4c4c"/></g></g></svg>