<svg xmlns="http://www.w3.org/2000/svg" fill-rule="evenodd" height="48" stroke-linejoin="bevel" stroke-width=".501" viewBox="0 0 36 36" width="48"><g stroke="#4c4c4c"><g fill="none" stroke-miterlimit="79.84"><path d="M15.532 33.724a2.57 2.57 0 1 1 4.966-1.327c.367 1.37-.447 2.78-1.82 3.144a2.57 2.57 0 0 1-3.147-1.817z" stroke-width=".749" fill="#4c4c4c"/><path d="M5.762 33.06h9.7" stroke-linecap="round" stroke-linejoin="round" stroke-width="2.006"/><path d="M18.452 34.693a1.69 1.69 0 0 0 1.198-2.069c-.24-.902-1.17-1.438-2.072-1.197a1.69 1.69 0 0 0-1.198 2.07c.24.902 1.17 1.437 2.072 1.196z" fill="#00ff03" stroke-width=".75" class="B"/><path d="M5.762 33.06h9.7m5.093 0h9.7" stroke-linecap="round" stroke-linejoin="round" stroke-width="2.006"/></g><path d="M14.173 1.513C22.056-.595 30.168 4.08 32.28 11.95S29.7 27.92 21.827 30.027 5.832 27.46 3.72 19.6A14.77 14.77 0 0 1 14.173 1.523z" fill="#d5fff6" stroke-width="2.015" class="B G"/></g><path d="M22.287 7.062c-.156-.155-.404-.17-.578-.038l-7.95 6.07c-.1.08-.164.194-.172.32s.04.254.128.34l1.872 1.87a.45-.45 0 0 0 .309.129l.03-.001a.44-.44 0 0 0 .321-.173l6.078-7.936a.44.44 0 0 0-.038-.58z" fill="#fff"/><g stroke="#4c4c4c"><path d="M18 3.32a.46-.46 0 0 0 .459-.461V1.033l-.46-.01-.46.01V2.86a.46-.46 0 0 0 .459.461zm0 24.825a.46-.46 0 0 1 .459.46v1.823l-.46.012-.46-.012v-1.823a.46-.46 0 0 1 .459-.46zM7.3 22.158c0-.08-.02-.16-.06-.23a.46-.46 0 0 0-.629-.166l-1.604.922.46.795 1.604-.923a.46-.46 0 0 0 .228-.398zM5.566 15.73a.46-.46 0 0 0-.458-.46H3.28l-.012.46.012.46h1.828c.254 0 .458-.205.458-.46zm-.57-6.952l1.604.924a.46-.46 0 0 0 .629-.167c.04-.073.06-.155.06-.23a.46-.46 0 0 0-.228-.401l-1.604-.922-.46.795zM10.22 3.23l.928 1.6a.46-.46 0 0 0 .625.171c.147-.087.23-.242.23-.4a.46-.46 0 0 0-.062-.23l-.925-1.598-.797.457zm20.214 12.5a.46-.46 0 0 1 .458-.46h1.828l.012.46-.012.46H30.9c-.254 0-.458-.205-.458-.46z" fill="#4c4c4c"/><path d="M15.468 6.337a9.79-9.79 0 0 1 11.981 6.905 9.77 9.77 0 0 1-6.917 11.96 9.79-9.79 0 0 1-11.981-6.906 9.77-9.77 0 0 1 6.917-11.96z" fill="#fff" stroke-width="1.333"/></g><g transform="matrix(1 0 0 -1 0 36)" fill="#4c4c4c"><path d="M31.003 27.222l-1.604-.924a.46.46 0 0 0-.629.167c-.04.073-.06.155-.06.23a.46.46 0 0 0 .228.401l1.604.922.46-.795zM25.78 32.77l-.928-1.6a.46.46 0 0 0-.625-.171c-.147.087-.23.242-.23.4a.46.46 0 0 0 .062.23l.925 1.598.797-.457z" stroke="#4c4c4c"/><path d="M26.637 28.897c-.157.155-.406.172-.58.04l-7.95-6.07c-.1-.08-.163-.195-.173-.323s.04-.25.13-.34l1.87-1.867a.44.44 0 0 1 .312-.131h.03a.46.46 0 0 1 .32.175l6.08 7.936a.44.44 0 0 1-.038.579z"/><path d="m15.285 20.207a2.65 2.65 0 0 0 2.649 2.649 2.65 2.65 0 0 0 2.649-2.649 2.65 2.65 0 0 0 -2.649-2.645 2.65 2.65 0 0 0 -2.649 2.645zm3.975 0c0 .73-.593 1.325-1.326 1.325s-1.323-.594-1.323-1.325.592-1.32 1.323-1.32 1.326.594 1.326 1.32z"/><path d="m10.24 7.766.928 1.6a.45.45 0 0 0 .625.167c.147-.083.232-.238.232-.396a.45.45 0 0 0 -.063-.23l-.925-1.6-.797.458z" stroke="#4c4c4c"/></g></svg>