<svg viewBox="0 0 64 64" xmlns="http://www.w3.org/2000/svg"><path d="m32 4a28 28 0 0 0 -28 28 28 28 0 0 0 28 28 28 28 0 0 0 28-28 28 28 0 0 0 -28-28zm3.46 6.38c2.29 0 4.47.26 6.53.77s4.01 1.28 5.84 2.31l-3.89 8.54c-1.63-.84-3.15-1.47-4.55-1.9-1.39-.42-2.66-.63-3.82-.63-.61 0-1.16.06-1.63.2-.48.14-.89.33-1.22.61-.33.27-.57.61-.73.99-.16.4-.24.85-.24 1.36 0 .47.07.93.23 1.37.15.44.4.87.71 1.27.65.81 1.88 1.9 3.69 3.25 1.13.84 2.11 1.7 2.95 2.57.84.88 1.54 1.78 2.08 2.7.55.92.96 1.91 1.23 2.96.28 1.06.42 2.18.42 3.36 0 1.07-.09 2.08-.26 3.03-.18.94-.44 1.83-.79 2.66s-.79 1.6-1.33 2.31c-.52.71-1.14 1.36-1.85 1.96-.7.59-1.47 1.1-2.32 1.54-.84.44-1.75.81-2.74 1.11-.99.32-2.05.54-3.17.69s-2.31.22-3.58.22c-2.1 0-4.1-.23-5.98-.7-1.89-.48-3.5-1.17-4.87-2.07v-10.06c1.61 1.01 3.45 1.87 5.53 2.56 1.05.34 2.04.61 2.98.78.95.17 1.84.26 2.68.26.71 0 1.34-.07 1.88-.23.53-.14.98-.37 1.35-.67.36-.3.64-.66.82-1.07.18-.42.27-.91.27-1.45 0-.52-.12-1-.34-1.44-.23-.46-.56-.91-.98-1.35-.42-.46-1.55-1.46-3.4-2.99-1.12-.9-2.1-1.82-2.91-2.74s-1.48-1.85-1.99-2.79-.89-1.92-1.15-2.96c-.25-1.03-.38-2.1-.38-3.22 0-1.26.15-2.45.47-3.58.31-1.13.78-2.19 1.4-3.19.64-1 1.4-1.9 2.29-2.67.89-.78 1.9-1.45 3.04-1.99 1.15-.56 2.37-.98 3.65-1.26 1.29-.27 2.64-.42 4.06-.42z" fill="#666"/></svg>