<svg viewBox="0 0 64 64" xmlns="http://www.w3.org/2000/svg"><path d="m32 1a31 31 0 0 0 -31 31 31 31 0 0 0 31 31 31 31 0 0 0 31-31 31 31 0 0 0 -31-31 31 31 0 0 1 0 0zm3.83 7.06c2.53 0 4.95.29 7.23.85 2.28.57 4.44 1.42 6.47 2.56l-4.31 9.46c-1.81-.93-3.49-1.63-5.04-2.1-1.54-.47-2.95-.7-4.23-.7-.68 0-1.28.07-1.8.22-.53.15-.98.37-1.35.67-.36.3-.63.67-.81 1.1-.18.44-.27.94-.27 1.51 0 .52.08 1.03.26 1.52.17.49.44.96.79 1.41.72.9 2.08 2.1 4.08 3.6 1.25.93 2.34 1.88 3.27 2.85s1.7 1.97 2.3 2.99c.61 1.02 1.06 2.11 1.36 3.28.31 1.17.46 2.41.46 3.72 0 1.18-.1 2.3-.29 3.35-.2 1.04-.49 2.03-.88 2.95s-.88 1.77-1.47 2.56c-.58.79-1.26 1.51-2.05 2.17-.78.65-1.63 1.22-2.57 1.71-.93.49-1.94.9-3.03 1.23-1.09.32-2.26.57-3.5.73-1.24.17-2.56.25-3.96.25-2.33 0-4.54-.26-6.62-.77-2.09-.53-3.88-1.29-5.39-2.29v-11.15c1.78 1.12 3.82 2.07 6.12 2.83 1.16.38 2.26.67 3.3.86 1.05.19 2.04.29 2.97.29.79 0 1.48-.08 2.08-.25.59-.16 1.09-.41 1.49-.74s.71-.73.91-1.19c.2-.47.3-1.01.3-1.61 0-.58-.13-1.11-.38-1.59-.26-.51-.62-1.01-1.08-1.5-.47-.51-1.72-1.62-3.76-3.31-1.24-1-2.32-2.01-3.22-3.03s-1.64-2.05-2.2-3.09-.98-2.13-1.27-3.28c-.28-1.14-.42-2.33-.42-3.57 0-1.39.17-2.71.52-3.96.34-1.25.86-2.43 1.55-3.53.71-1.11 1.55-2.1 2.53-2.96s2.1-1.6 3.37-2.2c1.27-.62 2.62-1.08 4.04-1.39 1.43-.3 2.92-.46 4.5-.46z" fill="#666"/></svg>