<svg height="64" width="64" xmlns="http://www.w3.org/2000/svg" xmlns:xlink="http://www.w3.org/1999/xlink"><defs><path id="a" d="m-27.864 63.13h2.6c.26 0 .432-.22.432-.55s-.173-.55-.432-.55h-2.6c-.26 0-.432.22-.432.55s.173.55.432.55z"/></defs><path d="m-188.42 49.73h61.47v61.47h-61.47z" fill="#fff" stroke="#ccc" stroke-opacity=".997" stroke-width="2.53"/><path d="m73.003-58.353v3.17h-7.2v5.5h-7.2v45.307h54.597v-41.567h-7.2v-9.24h-11.367v8.442h-3.06v-13.559h-18.57z" fill="#333"/><g fill="#4d4d4d" transform="matrix(0 1 -1 0 57.898 146.678)"><use xlink:href="#a"/><use xlink:href="#a" y="-5.95"/><use xlink:href="#a" y="-11.902"/><use xlink:href="#a" y="-17.853"/><use xlink:href="#a" y="-23.804"/><use xlink:href="#a" y="-29.755"/><use xlink:href="#a" y="-35.706"/><use xlink:href="#a" y="-41.657"/><use xlink:href="#a" y="-59.51"/><use xlink:href="#a" y="-47.608"/><use xlink:href="#a" y="-53.56"/></g><g transform="matrix(1.033 0 0 1 0 .099)"><path d="m6.59 40.15h7.25v20.707h-7.25z" fill="#ff5023"/><path d="m6.59 29.796h7.25v10.354h-7.25z" fill="#ff9811"/><path d="m6.59 19.442h7.25v10.353h-7.25z" fill="#ffda44"/><path d="m50.64 47.173h7.25v13.682h-7.25z" fill="#ff5023"/><path d="m50.64 27.626h7.25v19.547h-7.25z" fill="#ff9811"/><path d="m50.64 13.943h7.25v13.683h-7.25z" fill="#ffda44"/><path d="m28.614 42.274h7.25v18.582h-7.25z" fill="#ff5023"/><path d="m28.614 21.834h7.25v20.44h-7.25z" fill="#ff9811"/><path d="m28.614 8.826h7.25v13.007h-7.25z" fill="#ffda44"/><path d="m17.602 47.173h7.25v13.682h-7.25z" fill="#ff5023"/><path d="m17.602 27.626h7.25v19.547h-7.25z" fill="#ff9811"/><path d="m17.602 13.943h7.25v13.683h-7.25z" fill="#ffda44"/><path d="m39.626 47.117h7.25v13.74h-7.25z" fill="#ff5023"/><path d="m39.626 32.003h7.25v15.113h-7.25z" fill="#ff9811"/><path d="m39.626 22.386h7.25v9.618h-7.25z" fill="#ffda44"/><g fill="#4d4d4d" transform="matrix(-1 0 0 1 5.689 -.7)"><use x="30.531" xlink:href="#a" y="-.824"/><use x="30.531" xlink:href="#a" y="-6.775"/><use x="30.531" xlink:href="#a" y="-12.726"/><use x="30.531" xlink:href="#a" y="-18.677"/><use x="30.531" xlink:href="#a" y="-24.628"/><use x="30.531" xlink:href="#a" y="-30.58"/><use x="30.531" xlink:href="#a" y="-36.53"/><use x="30.531" xlink:href="#a" y="-42.48"/><use x="30.531" xlink:href="#a" y="-48.432"/><use x="30.531" xlink:href="#a" y="-54.383"/></g><g fill="none" stroke="#4d4d4d" stroke-width=".844"><path d="m2.957 2.196v59.4"/><path d="m61.945 61.184h-59.4"/></g></g></svg>