<svg height="64" width="64" xmlns="http://www.w3.org/2000/svg" xmlns:xlink="http://www.w3.org/1999/xlink"><defs><path id="a" d="m-27.86 63.13h2.6c.26 0 .43-.22.43-.55s-.17-.55-.43-.55h-2.6c-.26 0-.43.22-.43.55s.17.55.43.55z"/></defs><path d="m-188.42 49.73h61.47v61.47h-61.47z" fill="#fff" stroke="#ccc" stroke-width="2.5"/><path d="m73-58.35v3.17h-7.2v5.5h-7.2v45.31h54.6v-41.57h-7.2v-9.24h-11.37v8.44h-3.06v-13.56h-18.57z" fill="#333"/><g fill="#4d4d4d" transform="matrix(0 1 -1 0 57.9 146.68)"><use xlink:href="#a"/><use xlink:href="#a" y="-5.95"/><use xlink:href="#a" y="-11.9"/><use xlink:href="#a" y="-17.85"/><use xlink:href="#a" y="-23.8"/><use xlink:href="#a" y="-29.76"/><use xlink:href="#a" y="-35.71"/><use xlink:href="#a" y="-41.66"/><use xlink:href="#a" y="-59.51"/><use xlink:href="#a" y="-47.61"/><use xlink:href="#a" y="-53.56"/></g><g transform="matrix(1.03 0 0 1 0 .1)"><path d="m6.59 40.15h7.25v20.71h-7.25z" fill="#ff5023"/><path d="m6.59 29.8h7.25v10.35h-7.25z" fill="#ff9811"/><path d="m6.59 19.44h7.25v10.35h-7.25z" fill="#ffda44"/><path d="m50.64 47.17h7.25v13.68h-7.25z" fill="#ff5023"/><path d="m50.64 27.63h7.25v19.55h-7.25z" fill="#ff9811"/><path d="m50.64 13.94h7.25v13.68h-7.25z" fill="#ffda44"/><path d="m28.61 42.27h7.25v18.58h-7.25z" fill="#ff5023"/><path d="m28.61 21.83h7.25v20.44h-7.25z" fill="#ff9811"/><path d="m28.61 8.83h7.25v13.01h-7.25z" fill="#ffda44"/><path d="m17.6 47.17h7.25v13.68h-7.25z" fill="#ff5023"/><path d="m17.6 27.63h7.25v19.55h-7.25z" fill="#ff9811"/><path d="m17.6 13.94h7.25v13.68h-7.25z" fill="#ffda44"/><path d="m39.63 47.12h7.25v13.74h-7.25z" fill="#ff5023"/><path d="m39.63 32h7.25v15.11h-7.25z" fill="#ff9811"/><path d="m39.63 22.39h7.25v9.62h-7.25z" fill="#ffda44"/><g fill="#4d4d4d" transform="matrix(-1 0 0 1 5.69 -.7)"><use x="30.53" xlink:href="#a" y="-.82"/><use x="30.53" xlink:href="#a" y="-6.78"/><use x="30.53" xlink:href="#a" y="-12.73"/><use x="30.53" xlink:href="#a" y="-18.68"/><use x="30.53" xlink:href="#a" y="-24.63"/><use x="30.53" xlink:href="#a" y="-30.58"/><use x="30.53" xlink:href="#a" y="-36.53"/><use x="30.53" xlink:href="#a" y="-42.48"/><use x="30.53" xlink:href="#a" y="-48.43"/><use x="30.53" xlink:href="#a" y="-54.38"/></g><g fill="none" stroke="#4d4d4d"><path d="m2.96 2.2v59.4"/><path d="m61.95 61.18h-59.4"/></g></g></svg>