<svg xmlns="http://www.w3.org/2000/svg" xmlns:xlink="http://www.w3.org/1999/xlink" viewBox="0 0 64 64"><defs><path id="a" d="M-27.9 63.1h2.6c.3 0 .5-.2.5-.5s-.2-.6-.5-.6h-2.6c-.2 0-.4.3-.4.6s.2.5.4.5z"/></defs><path fill="#fff" stroke="#ccc" stroke-width="2.5" d="M-188.4 49.7h61.5v61.5h-61.5z"/><path fill="#333" d="M73-58.4v3.2h-7.2v5.5h-7.2v45.3h54.6v-41.5H106v-9.3H94.6v8.5h-3v-13.6H73z"/><g fill="#4d4d4d" transform="rotate(90 -44.4 102.3)"><use xlink:href="#a"/><use y="-6" xlink:href="#a"/><use y="-11.9" xlink:href="#a"/><use y="-17.9" xlink:href="#a"/><use y="-23.8" xlink:href="#a"/><use y="-29.8" xlink:href="#a"/><use y="-35.7" xlink:href="#a"/><use y="-41.7" xlink:href="#a"/><use y="-59.5" xlink:href="#a"/><use y="-47.6" xlink:href="#a"/><use y="-53.6" xlink:href="#a"/></g><path fill="#ff5023" d="M6.8 40.3h7.5V61H6.8z"/><path fill="#ff9811" d="M6.8 29.9h7.5v10.4H6.8z"/><path fill="#ffda44" d="M6.8 19.5h7.5V30H6.8z"/><path fill="#ff5023" d="M52.2 47.3h7.4V61h-7.4z"/><path fill="#ff9811" d="M52.2 27.7h7.4v19.6h-7.4z"/><path fill="#ffda44" d="M52.2 14h7.4v13.7h-7.4z"/><path fill="#ff5023" d="M29.5 42.4h7.4V61h-7.4z"/><path fill="#ff9811" d="M29.5 22h7.4v20.4h-7.4z"/><path fill="#ffda44" d="M29.5 9h7.4v13h-7.4z"/><path fill="#ff5023" d="M18.1 47.3h7.5V61h-7.5z"/><path fill="#ff9811" d="M18.1 27.7h7.5v19.6h-7.5z"/><path fill="#ffda44" d="M18.1 14h7.5v13.7h-7.5z"/><path fill="#ff5023" d="M40.8 47.2h7.5V61h-7.5z"/><path fill="#ff9811" d="M40.8 32.1h7.5v15.1h-7.5z"/><path fill="#ffda44" d="M40.8 22.5h7.5V32h-7.5z"/><g fill="#4d4d4d" transform="matrix(-1.03 0 0 1 5.9 -.6)"><use x="30.5" y="-.8" xlink:href="#a"/><use x="30.5" y="-6.8" xlink:href="#a"/><use x="30.5" y="-12.7" xlink:href="#a"/><use x="30.5" y="-18.7" xlink:href="#a"/><use x="30.5" y="-24.6" xlink:href="#a"/><use x="30.5" y="-30.6" xlink:href="#a"/><use x="30.5" y="-36.5" xlink:href="#a"/><use x="30.5" y="-42.5" xlink:href="#a"/><use x="30.5" y="-48.4" xlink:href="#a"/><use x="30.5" y="-54.4" xlink:href="#a"/></g><g fill="none" stroke="#4d4d4d"><path d="M3 2.2v59.4M62 61.2H2.6" transform="matrix(1.03 0 0 1 0 .1)"/></g></svg>