<svg xmlns="http://www.w3.org/2000/svg" viewBox="0 0 390 390" xmlns:v="https://vecta.io/nano"><path d="M30 175h60v140H30z" fill="#ff5023"/><path d="M30 105h60v70H30z" fill="#ff9811"/><path d="M30 35h60v70H30z" fill="#ffda44"/><path d="M120 245.002h60V315h-60z" fill="#ff5023"/><path d="m120 145h60v100h-60z" fill="#ff9811"/><path d="m120 75h60v70h-60z" fill="#ffda44"/><path d="m210 215h60v100h-60z" fill="#ff5023"/><path d="m210 105h60v110h-60z" fill="#ff9811"/><path d="m210 35h60v70h-60z" fill="#ffda44"/><path d="M300 245.002h60V315h-60z" fill="#ff5023"/><path d="m300 175h60v70h-60z" fill="#ff9811"/><path d="M300 75.002h60V175h-60z" fill="#ffda44"/><path d="M180 315H0v40h195v-40z" fill="#cdcdd0"/><path d="M360 315H195v40h195v-40z" fill="#acabb1"/></svg>