<svg enable-background="new 0 0 504 504" viewBox="0 0 504 504" xmlns="http://www.w3.org/2000/svg"><path d="m364 97h40v388h-40z" fill="#cb5a30"/><path d="m436 53h44v432h-44z" fill="#b44f2b"/><path d="m288 269h44v216h-44z" fill="#e07d46"/><path d="m212 225h44v260h-44z" fill="#ef934a"/><path d="m136 313h44v172h-44z" fill="#f0b551"/><path d="m64 441h44v44h-44z" fill="#edc654"/><path d="m500 491h-470c-2.4 0-4-1.6-4-4v-470c0-2.4 1.6-4 4-4s4 1.6 4 4v466h466c2.4 0 4 1.6 4 4s-1.6 4-4 4z"/><path d="m28 491h-24c-2.4 0-4-1.6-4-4s1.6-4 4-4h24c2.4 0 4 1.6 4 4s-1.6 4-4 4z"/><path d="m28 447h-24c-2.4 0-4-1.6-4-4s1.6-4 4-4h24c2.4 0 4 1.6 4 4s-1.6 4-4 4z"/><path d="m28 403h-24c-2.4 0-4-1.6-4-4s1.6-4 4-4h24c2.4 0 4 1.6 4 4s-1.6 4-4 4z"/><path d="m28 363h-24c-2.4 0-4-1.6-4-4s1.6-4 4-4h24c2.4 0 4 1.6 4 4s-1.6 4-4 4z"/><path d="m28 319h-24c-2.4 0-4-1.6-4-4s1.6-4 4-4h24c2.4 0 4 1.6 4 4s-1.6 4-4 4z"/><path d="m28 275h-24c-2.4 0-4-1.6-4-4s1.6-4 4-4h24c2.4 0 4 1.6 4 4s-1.6 4-4 4z"/><path d="m28 231h-24c-2.4 0-4-1.6-4-4s1.6-4 4-4h24c2.4 0 4 1.6 4 4s-1.6 4-4 4z"/><path d="m28 187h-24c-2.4 0-4-1.6-4-4s1.6-4 4-4h24c2.4 0 4 1.6 4 4s-1.6 4-4 4z"/><path d="m28 59h-24c-2.4 0-4-1.6-4-4s1.6-4 4-4h24c2.4 0 4 1.6 4 4s-1.6 4-4 4z"/><path d="m28 143h-24c-2.4 0-4-1.6-4-4s1.6-4 4-4h24c2.4 0 4 1.6 4 4s-1.6 4-4 4z"/><path d="m28 103h-24c-2.4 0-4-1.6-4-4s1.6-4 4-4h24c2.4 0 4 1.6 4 4s-1.6 4-4 4z"/><path d="m402 491h-40c-2.4 0-4-1.6-4-4v-388c0-2.4 1.6-4 4-4h40c2.4 0 4 1.6 4 4v388c0 2.4-1.6 4-4 4zm-36-8h32v-380h-32z"/><path d="m478 491h-44c-2.4 0-4-1.6-4-4v-432c0-2.4 1.6-4 4-4h44c2.4 0 4 1.6 4 4v432c0 2.4-1.6 4-4 4zm-40-8h36v-424h-36z"/><path d="m330 491h-44c-2.4 0-4-1.6-4-4v-216c0-2.4 1.6-4 4-4h44c2.4 0 4 1.6 4 4v216c0 2.4-1.6 4-4 4zm-40-8h36v-208h-36z"/><path d="m254 491h-44c-2.4 0-4-1.6-4-4v-260c0-2.4 1.6-4 4-4h44c2.4 0 4 1.6 4 4v260c0 2.4-1.6 4-4 4zm-40-8h36v-252h-36z"/><path d="m178 491h-44c-2.4 0-4-1.6-4-4v-172c0-2.4 1.6-4 4-4h44c2.4 0 4 1.6 4 4v172c0 2.4-1.6 4-4 4zm-40-8h36v-164h-36z"/><path d="m106 491h-44c-2.4 0-4-1.6-4-4v-44c0-2.4 1.6-4 4-4h44c2.4 0 4 1.6 4 4v44c0 2.4-1.6 4-4 4zm-40-8h36v-36h-36z"/></svg>