<svg height="64" width="64" xmlns="http://www.w3.org/2000/svg"><g fill="#eeb490" stroke-width=".1897"><circle cx="12.3822" cy="37.9501" r="7.5258"/><circle cx="51.6188" cy="37.9501" r="7.5258"/></g><path d="m41.97 17.946h-19.94c-4.695 0-8.49 3.795-8.49 8.49v19.104c0 10.227 8.297 18.46 18.46 18.46 10.227 0 18.46-8.297 18.46-18.46v-19.104c0-4.695-3.795-8.49-8.5-8.49z" fill="#faccb4"/><g fill="#ff7f2a"><path d="m50.46 10.034s14.215 1.865 0 28.687v-11s-1.03-7.912-5.853-8.362z"/><path d="m40.812 0h-17.624c-.708 0-1.415.064-2.058.193-26.63 0-7.6 39.88-7.6 39.88 0-15.373 9.648-15.437 9.648-15.437h17.688c6.818 0 12.285-5.532 12.285-12.285.011-6.819-5.521-12.351-12.339-12.351z"/></g><path d="m36.845 28.442v7.505c0 3.597 2.916 6.513 6.513 6.513h3.02c3.597 0 6.513-2.916 6.513-6.513v-7.505z" fill="#20272e"/><path d="m38.665 44.3h-12.66a7.04 7.04 0 00-7.044 7.044c0 1.396 1.044 2.608 2.435 2.728 1.585.138 2.914-1.108 2.914-2.664 0 1.477 1.197 2.675 2.675 2.675s2.675-1.197 2.675-2.675c0 1.477 1.197 2.675 2.675 2.675s2.665-1.197 2.665-2.675c0 1.477 1.197 2.675 2.675 2.675s2.675-1.197 2.675-2.675c0 1.5 1.25 2.727 2.772 2.673 1.45-.05 2.577-1.287 2.577-2.737a7.04 7.04 0 00-7.044-7.044zm11.553-21.397c-1.477 0-2.675.832-2.675 1.86 0-1.027-1.197-1.86-2.675-1.86s-2.675.832-2.675 1.86c0-1.027-1.197-1.86-2.675-1.86s-2.675.832-2.675 1.86v3.68h16.047v-3.68c0-1.027-1.198-1.86-2.675-1.86z" fill="#58422c"/><path d="m43.358 39.493a3.55 3.55 0 01-3.546-3.546v-2.54h10.114v2.54a3.55 3.55 0 01-3.546 3.546h-3.02z" fill="#eee5dd"/><path d="m27.827 28.442v7.505c0 3.597-2.916 6.513-6.513 6.513h-3.02c-3.597 0-6.513-2.916-6.513-6.513v-7.505z" fill="#20272e"/><path d="m14.455 22.903c1.477 0 2.675.832 2.675 1.86 0-1.027 1.197-1.86 2.675-1.86s2.675.832 2.675 1.86c0-1.027 1.197-1.86 2.675-1.86s2.675.832 2.675 1.86v3.68h-16.05v-3.68c0-1.027 1.197-1.86 2.675-1.86z" fill="#58422c"/><path d="m21.314 39.493a3.55 3.55 0 003.546-3.546v-2.54h-10.113v2.54a3.55 3.55 0 003.546 3.546h3.02z" fill="#eee5dd"/><path d="m38.665 44.3h-12.66c-.45 0-.9.044-1.315.124a8.34 8.34 0 001.285 2.264 8.12 8.12 0 006.076 3.069l.284.005.284-.005a8.12 8.12 0 006.075-3.069c.55-.7.98-1.456 1.285-2.264a7.09 7.09 0 00-1.315-.124zm-1.82-10.936v2.583a6.49 6.49 0 001.817 4.51l10.075-7.092z" fill="#20272e" opacity=".3"/><path d="m38.732 40.227c.762 3.952-2.145 7.732-6.168 7.868l-.228.004a6.99 6.99 0 01-.228-.004c-4.022-.136-6.93-3.916-6.168-7.868l1.795-9.3c.054-.28.084-.563.107-.847a4.51 4.51 0 018.987 0l.107.847z" fill="#e9c6af"/><path d="m38.732 40.227-1.795-9.3a7.83 7.83 0 01-.107-.847 4.51 4.51 0 00-4.494-4.139v22.167l.228-.004c4.022-.136 6.93-3.916 6.168-7.868z" fill="#d38d5f" opacity=".3"/><path d="m11.78 33.364v2.583c0 1.75.69 3.34 1.815 4.51l10.075-7.092z" fill="#20272e" opacity=".3"/></svg>