<svg xmlns="http://www.w3.org/2000/svg" viewBox="0 0 64 64"><defs/><g fill="#eeb490" stroke-width=".19"><circle cx="12.382" cy="37.95" r="7.526"/><circle cx="51.619" cy="37.95" r="7.526"/></g><path fill="#faccb4" d="M41.97 17.946H22.03a8.482 8.482 0 00-8.49 8.49V45.54C13.54 55.767 21.837 64 32 64c10.227 0 18.46-8.297 18.46-18.46V26.436a8.484 8.484 0 00-8.5-8.49z"/><g fill="#ff7f2a"><path d="M50.46 10.034s14.215 1.865 0 28.687v-11s-1.03-7.912-5.853-8.362z"/><path d="M40.812 0H23.188c-.708 0-1.415.064-2.058.193-26.63 0-7.6 39.88-7.6 39.88 0-15.373 9.648-15.437 9.648-15.437h17.688c6.818 0 12.285-5.532 12.285-12.285C53.162 5.532 47.63 0 40.812 0z"/></g><path fill="#20272e" d="M36.845 28.442v7.505a6.513 6.513 0 006.513 6.513h3.02a6.513 6.513 0 006.513-6.513v-7.505z"/><path fill="#58422c" d="M38.665 44.3h-12.66a7.04 7.04 0 00-7.044 7.044c0 1.396 1.044 2.608 2.435 2.728a2.675 2.675 0 002.914-2.664 2.675 2.675 0 105.35 0c0 1.477 1.197 2.675 2.675 2.675S35 52.886 35 51.408a2.675 2.675 0 105.35 0 2.68 2.68 0 002.772 2.673c1.45-.05 2.577-1.287 2.577-2.737a7.04 7.04 0 00-7.044-7.044zm11.553-21.397c-1.477 0-2.675.832-2.675 1.86 0-1.027-1.197-1.86-2.675-1.86s-2.675.832-2.675 1.86c0-1.027-1.197-1.86-2.675-1.86s-2.675.832-2.675 1.86v3.68H52.89v-3.68c0-1.027-1.198-1.86-2.675-1.86z"/><path fill="#eee5dd" d="M43.358 39.493a3.55 3.55 0 01-3.546-3.546v-2.54h10.114v2.54a3.55 3.55 0 01-3.546 3.546h-3.02z"/><path fill="#20272e" d="M27.827 28.442v7.505a6.513 6.513 0 01-6.513 6.513h-3.02a6.513 6.513 0 01-6.513-6.513v-7.505z"/><path fill="#58422c" d="M14.455 22.903c1.477 0 2.675.832 2.675 1.86 0-1.027 1.197-1.86 2.675-1.86s2.675.832 2.675 1.86c0-1.027 1.197-1.86 2.675-1.86s2.675.832 2.675 1.86v3.68H11.78v-3.68c0-1.027 1.197-1.86 2.675-1.86z"/><path fill="#eee5dd" d="M21.314 39.493a3.55 3.55 0 003.546-3.546v-2.54H14.747v2.54a3.55 3.55 0 003.546 3.546h3.02z"/><path fill="#20272e" d="M38.665 44.3h-12.66c-.45 0-.9.044-1.315.124a8.34 8.34 0 001.285 2.264 8.12 8.12 0 006.076 3.069l.284.005.284-.005a8.12 8.12 0 006.075-3.069c.55-.7.98-1.456 1.285-2.264a7.09 7.09 0 00-1.315-.124zm-1.82-10.936v2.583a6.49 6.49 0 001.817 4.51l10.075-7.092z" opacity=".3"/><path fill="#e9c6af" d="M38.732 40.227c.762 3.952-2.145 7.732-6.168 7.868l-.228.004a6.99 6.99 0 01-.228-.004c-4.022-.136-6.93-3.916-6.168-7.868l1.795-9.3c.054-.28.084-.563.107-.847a4.51 4.51 0 018.987 0l.107.847z"/><path fill="#d38d5f" d="M38.732 40.227l-1.795-9.3a7.83 7.83 0 01-.107-.847 4.51 4.51 0 00-4.494-4.139v22.167l.228-.004c4.022-.136 6.93-3.916 6.168-7.868z" opacity=".3"/><path fill="#20272e" d="M11.78 33.364v2.583c0 1.75.69 3.34 1.815 4.51l10.075-7.092z" opacity=".3"/></svg>