<svg xmlns="http://www.w3.org/2000/svg" viewBox="0 0 64 64"><g fill="#eeb490" stroke-width=".2"><circle cx="12.4" cy="38" r="7.5"/><circle cx="51.6" cy="38" r="7.5"/></g><path fill="#faccb4" d="M42 18H22a8.5 8.5 0 00-8.5 8.4v19.1a18.5 18.5 0 0037 0v-19a8.5 8.5 0 00-8.5-8.6z"/><g fill="#ff7f2a"><path d="M50.5 10s14.2 1.9 0 28.7v-11s-1-7.9-5.9-8.3z"/><path d="M40.8 0H23.2c-.7 0-1.4 0-2 .2C-5.6.2 13.4 40 13.4 40c0-15.4 9.7-15.5 9.7-15.5h17.7c6.8 0 12.3-5.5 12.3-12.2C53.2 5.5 47.6 0 40.8 0z"/></g><path fill="#20272e" d="M36.8 28.4V36a6.5 6.5 0 006.6 6.6h3a6.5 6.5 0 006.5-6.6v-7.5z"/><path fill="#58422c" d="M38.7 44.3H26a7 7 0 00-7 7c0 1.4 1 2.7 2.4 2.8a2.7 2.7 0 003-2.7 2.7 2.7 0 105.3 0 2.7 2.7 0 105.3 0 2.7 2.7 0 105.3 0 2.7 2.7 0 002.8 2.7c1.5 0 2.6-1.3 2.6-2.8a7 7 0 00-7-7zm11.5-21.4c-1.5 0-2.7.8-2.7 1.9 0-1-1.2-1.9-2.6-1.9s-2.7.8-2.7 1.9c0-1-1.2-1.9-2.7-1.9s-2.7.8-2.7 1.9v3.6h16v-3.6c0-1-1.1-1.9-2.6-1.9z"/><path fill="#eee5dd" d="M43.4 39.5a3.5 3.5 0 01-3.6-3.6v-2.5H50V36a3.5 3.5 0 01-3.5 3.6h-3z"/><path fill="#20272e" d="M27.8 28.4V36a6.5 6.5 0 01-6.5 6.6h-3a6.5 6.5 0 01-6.5-6.6v-7.5z"/><path fill="#58422c" d="M14.5 22.9c1.4 0 2.6.8 2.6 1.9 0-1 1.2-1.9 2.7-1.9s2.7.8 2.7 1.9c0-1 1.2-1.9 2.7-1.9s2.6.8 2.6 1.9v3.6h-16v-3.6c0-1 1.2-1.9 2.7-1.9z"/><path fill="#eee5dd" d="M21.3 39.5a3.5 3.5 0 003.6-3.6v-2.5H14.7V36a3.5 3.5 0 003.6 3.6h3z"/><path fill="#20272e" d="M38.7 44.3H26a7 7 0 00-1.3.1 8.3 8.3 0 001.3 2.3 8.1 8.1 0 006 3h.6a8.1 8.1 0 006-3c.6-.7 1-1.5 1.4-2.3a7 7 0 00-1.3-.1zm-1.9-11V36a6.5 6.5 0 001.9 4.6l10-7.1z" opacity=".3"/><path fill="#e9c6af" d="M38.7 40.2c.8 4-2.1 7.8-6.1 7.9h-.3a7 7 0 01-.2 0c-4-.1-7-4-6.2-7.9l1.8-9.3.1-.8a4.5 4.5 0 019 0l.1.8z"/><path fill="#d38d5f" d="M38.7 40.2L37 31a7.8 7.8 0 010-.8 4.5 4.5 0 00-4.6-4.2v22.2h.3c4-.1 6.9-4 6.1-7.9z" opacity=".3"/><path fill="#20272e" d="M11.8 33.4v2.5c0 1.8.7 3.4 1.8 4.6l10-7.1z" opacity=".3"/></svg>