<svg viewBox="0 0 64 64" xmlns="http://www.w3.org/2000/svg"><path d="m64 25.85-.06-20.97c-.06-2.35-2.47-4.7-4.82-4.76l-20.97-.12a4.39 4.39 0 0 0 -3.25 1.3l-33.61 33.6a4.43 4.43 0 0 0 0 6.25l21.56 21.55a4.42 4.42 0 0 0 6.25 0l33.6-33.6c.86-.86 1.34-2.04 1.29-3.25zm-9.6-5.62a7.51 7.51 0 1 1 -10.63-10.63 7.51 7.51 0 0 1 10.63 0c2.95 2.95 2.95 7.7 0 10.63z" fill="#5fbcd3"/><path d="m32.27 18.09 13.65 13.65a2.68 2.68 0 0 1 0 3.79l-18.9 18.88a2.68 2.68 0 0 1 -3.79 0l-13.64-13.66a2.68 2.68 0 0 1 0-3.79l18.9-18.87a2.68 2.68 0 0 1 3.79 0z" fill="#afdde9"/></svg>