<svg xmlns="http://www.w3.org/2000/svg" viewBox="0 0 64 64"><path fill="#953" d="M32 2.86a5.23 5.23 0 00-2 10.06v4.41h-.56C15.06 18.56 6.1 26.47 6.14 38.31H2.32A2.32 2.32 0 000 40.66v8.92a2.33 2.33 0 002.33 2.33h3.8v4.58a4.65 4.65 0 004.66 4.66H53.2a4.65 4.65 0 004.67-4.66V51.9h3.8c1.3 0 2.33-1.04 2.33-2.33v-8.92c0-1.3-1.04-2.33-2.33-2.33h-3.8v-.01c.03-11.84-8.93-19.75-23.3-20.98H34v-4.41a5.23 5.23 0 00-2-10.06zM18.47 34.31a7.86 7.86 0 110 15.72 7.86 7.86 0 010-15.72zm27.06 0a7.86 7.86 0 110 15.72 7.86 7.86 0 010-15.72z"/></svg>