<svg xmlns="http://www.w3.org/2000/svg" xmlns:xlink="http://www.w3.org/1999/xlink" viewBox="0 0 64 64"><defs><path id="a" d="M51.3 5a1 1 0 00-1 1 1 1 0 001 1 1 1 0 001-1 1 1 0 00-1-1z"/></defs><g fill="#f9f9f9" stroke="#333" stroke-linejoin="round"><path stroke-width="1.9" d="M1 1h62v62H1z"/><path stroke-width="1.8" d="M1 1h62v10.5H1z"/></g><g fill="#333"><use xlink:href="#a"/><use x="-5.4" xlink:href="#a"/><path d="M56.7 5a1 1 0 00-1 1 1 1 0 001 1 1 1 0 001.1-1 1 1 0 00-1-1z"/></g><path stroke="#666" stroke-width="1.4" d="M20.8 30.7H55m-46 0h8.2m3.6-12.4H55m-46 0h8.2m3.6 6.2H55m-46 0h8.2M20.8 37H55M9 37h8.2m3.6 6.2H55m-46 0h8.2m3.6 6.2H55m-46 0h8.2" opacity=".5" transform="matrix(.9658 0 0 1 1 3.9)"/></svg>