<svg xmlns="http://www.w3.org/2000/svg" xmlns:xlink="http://www.w3.org/1999/xlink" viewBox="0 0 64 64"><defs><path id="a" d="M51.33 4.938a1.06 1.06 0 00-1.056 1.056A1.06 1.06 0 0051.33 7.05a1.06 1.06 0 001.056-1.056 1.06 1.06 0 00-1.056-1.056z"/></defs><g fill="#f9f9f9" stroke="#333" stroke-linejoin="round"><path stroke-width="1.939" d="M.97.97h62.06v62.06H.97z"/><path stroke-width="1.826" d="M.97.97h62.06V11.5H.97z"/></g><g fill="#333"><use xlink:href="#a"/><use x="-5.414" xlink:href="#a"/><path d="M56.743 4.938a1.06 1.06 0 00-1.056 1.056 1.06 1.06 0 001.056 1.056A1.06 1.06 0 0057.8 5.994a1.06 1.06 0 00-1.056-1.056z"/></g><g stroke="#666" stroke-width="1.411"><path d="M20.75 30.73h34.226m-45.95 0h8.135m3.6-12.393h34.226m-45.95 0h8.135M20.75 24.533h34.226m-45.95 0h8.135m3.6 12.392h34.226m-45.95 0h8.135m3.6 6.195h34.226m-45.95 0h8.135m3.6 6.197h34.226m-45.95 0h8.135" opacity=".517" transform="matrix(.9658 0 0 1 1.095 3.9)"/></g></svg>