<svg height="64" width="64" xmlns="http://www.w3.org/2000/svg" xmlns:xlink="http://www.w3.org/1999/xlink"><defs><path id="a" d="m51.33 4.938a1.06 1.06 0 00-1.056 1.056 1.06 1.06 0 001.056 1.056 1.06 1.06 0 001.056-1.056 1.06 1.06 0 00-1.056-1.056z"/></defs><g fill="#f9f9f9" stroke="#333" stroke-linejoin="round"><path d="m.97.97h62.06v62.06h-62.06z" stroke-width="1.939"/><path d="m.97.97h62.06v10.53h-62.06z" stroke-width="1.826"/></g><g fill="#333"><use xlink:href="#a"/><use x="-5.414" xlink:href="#a"/><path d="m56.743 4.938a1.06 1.06 0 00-1.056 1.056 1.06 1.06 0 001.056 1.056 1.06 1.06 0 001.057-1.056 1.06 1.06 0 00-1.056-1.056z"/></g><g stroke="#666" stroke-width="1.411" transform="matrix(.9658 0 0 1 1.0948 3.9)"><path d="m20.75 30.73h34.226m-45.95 0h8.135m3.6-12.393h34.226m-45.95 0h8.135" opacity=".517"/><path d="m20.75 24.533h34.226m-45.95 0h8.135m3.6 12.392h34.226m-45.95 0h8.135m3.6 6.195h34.226m-45.95 0h8.135m3.6 6.197h34.226m-45.95 0h8.135" opacity=".517"/></g></svg>