<svg viewBox="0 0 64 64" xmlns="http://www.w3.org/2000/svg"><g fill="#3771c8"><path d="m32 0c-17.67 0-32 14.33-32 32 0 17.68 14.33 32 32 32s32-14.32 32-32c0-17.67-14.33-32-32-32zm0 4.9c1.87 0 3.7.19 5.46.55s3.46.9 5.08 1.58c1.63.69 3.17 1.53 4.61 2.5s2.78 2.08 4.01 3.31 2.34 2.57 3.31 4.01c.98 1.44 1.81 2.98 2.5 4.61.68 1.62 1.22 3.32 1.58 5.08s.55 3.59.55 5.46-.19 3.7-.55 5.46-.9 3.46-1.58 5.08c-.69 1.63-1.52 3.17-2.5 4.61-.97 1.44-2.08 2.78-3.31 4.01s-2.57 2.34-4.01 3.31c-1.44.98-2.98 1.81-4.61 2.5-1.62.68-3.32 1.22-5.08 1.58s-3.59.55-5.46.55-3.7-.19-5.46-.55-3.46-.9-5.08-1.58c-1.63-.69-3.17-1.52-4.61-2.5-1.44-.97-2.78-2.08-4.01-3.31s-2.34-2.57-3.31-4.01-1.81-2.98-2.5-4.61c-.68-1.62-1.22-3.32-1.58-5.08s-.55-3.59-.55-5.46.19-3.7.55-5.46.9-3.46 1.58-5.08c.69-1.63 1.53-3.17 2.5-4.61s2.08-2.78 3.31-4.01 2.57-2.34 4.01-3.31 2.98-1.81 4.61-2.5c1.62-.68 3.32-1.22 5.08-1.58s3.59-.55 5.46-.55z"/><path d="m32 9.68v22.32h22.32a22.32 22.32 0 1 1 -44.64 0 22.32 22.32 0 0 1 22.32-22.32z"/></g></svg>