<svg xmlns="http://www.w3.org/2000/svg" viewBox="0 0 64 64"><defs/><path fill="#d38d5f" d="M20.46 41.77c2.34-1.51 2.09-6.02 2.09-7.07h18.94c0 1.07-.29 5.56 2.07 7.07L32.01 54.68z"/><path fill="#deaa87" d="M46.74 21.03c0 8.42-4.85 18.93-14.72 18.93s-14.71-10.5-14.71-18.93 6.58-11.57 14.7-11.57 14.72 3.14 14.72 11.57z"/><path fill="#eec539" d="M56.19 64a3.15 3.15 0 003.15-3.15v-6.86c0-4.62-3.6-9.57-8.01-10.97l-6.58-2.11c-3.54 2.7-8.6 6.39-12.75 6.39s-9.2-3.7-12.75-6.39l-6.58 2.1c-4.41 1.41-8.01 6.35-8.01 10.98v6.84a3.15 3.15 0 003.15 3.15z"/><path fill="#f60" d="M14.15 42.56V64h35.76V42.56l-4.21-1.35V51.5a1.04 1.04 0 01-.79 1.02c-3.56.87-8.02 1.41-12.89 1.41s-9.32-.53-12.89-1.41c-.47-.11-.79-.53-.79-1.02V41.2z"/><path fill="#deaa87" d="M17.8 22.08c-1.58-.39-2.61.45-2.61 2.1 0 2.19 2.13 7.56 4.35 4.21 2.22-3.36-1.74-6.31-1.74-6.31zm28.19 0c1.73-.39 2.84.45 2.84 2.1 0 2.19-2.31 7.56-4.75 4.21-2.44-3.36 1.9-6.31 1.9-6.31z"/><path fill="#7e5449" d="M20.45 17.66c-.43 1.14-.75 9.5-.75 9.5l-2.09-1.06-.92-10.16zm23.14 0c.43 1.14.75 9.5.75 9.5l2.1-1.07.92-10.16z"/><path fill="#fedc3b" d="M32.01 2.22a15.52 15.52 0 00-15.52 15.52v2.22h31.04v-2.22A15.52 15.52 0 0032.02 2.22z"/><path fill="#d4aa00" d="M48.65 19.95H15.39c-.61 0-1.11-.5-1.11-1.11s.5-1.11 1.11-1.11h33.26c.61 0 1.11.5 1.11 1.11a1.11 1.11 0 01-1.11 1.11zm-21.06-8.86c-.61 0-1.11-.5-1.11-1.11V2.22a1.11 1.11 0 01.62-.99C27.21 1.17 29.59 0 32.03 0c2.43 0 4.83 1.17 4.92 1.23a1.11 1.11 0 01.62.99v7.62c0 .61-.5 1.11-1.11 1.11a1.11 1.11 0 01-1.1-1.11V2.96c-.75-.3-2.07-.72-3.32-.72-1.2 0-2.51.4-3.32.72v7.03a1.11 1.11 0 01-1.11 1.11z"/></svg>