<svg viewBox="0 0 421.141 421.141" xmlns="http://www.w3.org/2000/svg"><path d="m138.277 261.405c14.716-9.475 13.07-37.675 13.07-44.255h118.446c0 6.58-1.825 34.78 12.9 44.255l-72.113 80.77z" fill="#ffd7a3"/><path d="m256.632 289.534 26.05-28.13c-14.716-9.474-12.9-37.675-12.9-44.255h-118.435c8.498 24.433 64.707 66.352 105.285 72.384z" fill="#fdc88e"/><path d="m302.695 131.606c0 52.696-30.343 118.446-92.124 118.446s-92.124-65.75-92.124-118.446 41.246-72.384 92.124-72.384 92.124 19.688 92.124 72.384z" fill="#ffe1b2"/><path d="m361.918 421.14c10.903 0 19.74-8.838 19.74-19.74v-63.463c0-28.954-22.562-59.864-50.138-68.687l-41.168-13.173c-22.15 16.936-53.802 40.04-79.782 40.04s-57.633-23.103-79.782-40.04l-41.168 13.173c-27.576 8.823-50.138 39.733-50.138 68.687v63.463c0 10.903 8.838 19.74 19.74 19.74z" fill="#b1c5c9"/><path d="m98.705 266.342v154.798h223.73v-154.798l-26.32-8.423v97.607c0 3.012-2 5.675-4.923 6.395-22.275 5.486-50.216 8.77-80.62 8.77s-58.346-3.284-80.62-8.77c-2.925-.72-4.923-3.383-4.923-6.395v-97.606z" fill="#4f6e8d"/><path d="m121.6 138.187c-9.864-2.468-16.326 2.805-16.326 13.16 0 13.7 13.265 47.296 27.2 26.32s-10.874-39.482-10.874-39.482zm176.425 0c10.767-2.468 17.82 2.805 17.82 13.16 0 13.7-14.48 47.296-29.7 26.32s11.88-39.482 11.88-39.482z" fill="#ffe1b2"/><path d="m138.187 110.632c-2.742 7.13-4.58 59.482-4.58 59.482l-13.16-6.58-5.7-63.595zm144.767 0c2.742 7.13 4.58 59.482 4.58 59.482l13.16-6.58 5.7-63.595z" fill="#7e5449"/><g stroke-width="1.057"><path d="m210.599 13.87c-53.636 0-97.117 43.481-97.117 97.122v13.87h194.24v-13.87c0-53.643-43.49-97.122-97.122-97.122z" fill="#fedc3b"/><path d="m314.651 124.863h-208.106c-3.831 0-6.934-3.11-6.934-6.94s3.104-6.93 6.934-6.93h208.105c3.832 0 6.93 3.099 6.93 6.93a6.934 6.934 0 0 1 -6.93 6.94zm-131.784-55.471c-3.832 0-6.934-3.099-6.94-6.93l-.015-48.582a6.934 6.934 0 0 1 3.852-6.218c.63-.315 15.603-7.663 30.835-7.663s30.198 7.346 30.83 7.663a6.944 6.944 0 0 1 3.862 6.208v47.698c0 3.831-3.11 6.93-6.95 6.93a6.934 6.934 0 0 1 -6.93-6.93v-43.134c-4.675-1.85-12.895-4.563-20.81-4.563-7.51 0-15.725 2.551-20.81 4.542l.015 44.04a6.934 6.934 0 0 1 -6.935 6.94z" fill="#fbaf37"/></g></svg>