<svg height="64" width="64" xmlns="http://www.w3.org/2000/svg"><path d="m21.16 39.63c2.2-1.42 1.96-5.65 1.96-6.64h17.78c0 1-.27 5.22 1.94 6.64l-10.84 12.12z" fill="#ffd7c6"/><path d="m45.83 20.16c0 7.9-4.55 17.77-13.82 17.77s-13.81-9.86-13.81-17.77 6.18-10.86 13.8-10.86 13.82 2.95 13.82 10.86z" fill="#ffe1d6"/><path d="m54.7 63.6a2.96 2.96 0 0 0 2.96-2.96v-9.54c0-4.34-3.38-8.98-7.52-10.3l-6.18-1.98c-3.32 2.54-8.07 6-11.97 6s-8.64-3.47-11.97-6l-6.18 1.98c-4.14 1.32-7.52 5.96-7.52 10.3v9.52a2.96 2.96 0 0 0 2.96 2.96z" fill="#eec539"/><path d="m15.23 40.37v23.23h33.57v-23.23l-3.95-1.26v14.64c0 .45-.3.85-.74.96-3.34.82-7.53 1.32-12.1 1.32s-8.75-.5-12.1-1.32c-.44-.1-.74-.5-.74-.96v-14.65z" fill="#2d768d"/><path d="m18.66 21.15c-1.48-.37-2.45.42-2.45 1.97 0 2.06 2 7.1 4.08 3.95s-1.63-5.92-1.63-5.92zm26.46 0c1.62-.37 2.67.42 2.67 1.97 0 2.06-2.17 7.1-4.46 3.95s1.78-5.92 1.78-5.92z" fill="#ffe1d6"/><path d="m21.15 17c-.4 1.07-.7 8.92-.7 8.92l-1.97-1-.86-9.54zm21.72 0c.4 1.07.7 8.92.7 8.92l1.97-1 .86-9.54z" fill="#7e5449"/><path d="m32 2.5a14.57 14.57 0 0 0 -14.57 14.57v2.08h29.14v-2.08a14.57 14.57 0 0 0 -14.56-14.57z" fill="#fedc3b"/><path d="m47.62 19.15h-31.22c-.57 0-1.04-.47-1.04-1.04s.47-1.04 1.04-1.04h31.22c.57 0 1.04.47 1.04 1.04a1.04 1.04 0 0 1 -1.04 1.04zm-19.77-8.32c-.57 0-1.04-.47-1.04-1.04v-7.29a1.04 1.04 0 0 1 .58-.93c.1-.05 2.34-1.15 4.63-1.15 2.28 0 4.53 1.1 4.62 1.15a1.04 1.04 0 0 1 .58.93v7.16c0 .57-.47 1.04-1.04 1.04a1.04 1.04 0 0 1 -1.04-1.04v-6.46c-.7-.28-1.94-.68-3.12-.68-1.13 0-2.36.38-3.12.68v6.6a1.04 1.04 0 0 1 -1.04 1.04z" fill="#fbaf37"/></svg>