<svg xmlns="http://www.w3.org/2000/svg" viewBox="0 0 421.141 421.141" xmlns:v="https://vecta.io/nano"><path d="M138.277 261.405c14.716-9.475 13.07-37.675 13.07-44.255h118.446c0 6.58-1.825 34.78 12.9 44.255l-72.113 80.77z" fill="#ffd7a3"/><path d="M256.632 289.534l26.05-28.13c-14.716-9.474-12.9-37.675-12.9-44.255H151.347c8.498 24.433 64.707 66.352 105.285 72.384z" fill="#fdc88e"/><path d="M302.695 131.606c0 52.696-30.343 118.446-92.124 118.446s-92.124-65.75-92.124-118.446 41.246-72.384 92.124-72.384 92.124 19.688 92.124 72.384z" fill="#ffe1b2"/><path d="M361.918 421.14c10.903 0 19.74-8.838 19.74-19.74v-63.463c0-28.954-22.562-59.864-50.138-68.687l-41.168-13.173c-22.15 16.936-53.802 40.04-79.782 40.04s-57.633-23.103-79.782-40.04L89.62 269.25c-27.576 8.823-50.138 39.733-50.138 68.687V401.4c0 10.903 8.838 19.74 19.74 19.74z" fill="#b1c5c9"/><path d="M98.705 266.342V421.14h223.73V266.342l-26.32-8.423v97.607c0 3.012-2 5.675-4.923 6.395-22.275 5.486-50.216 8.77-80.62 8.77s-58.346-3.284-80.62-8.77c-2.925-.72-4.923-3.383-4.923-6.395V257.92z" fill="#4f6e8d"/><path d="M121.6 138.187c-9.864-2.468-16.326 2.805-16.326 13.16 0 13.7 13.265 47.296 27.2 26.32S121.6 138.185 121.6 138.185zm176.425 0c10.767-2.468 17.82 2.805 17.82 13.16 0 13.7-14.48 47.296-29.7 26.32s11.88-39.482 11.88-39.482z" fill="#ffe1b2"/><path d="M138.187 110.632c-2.742 7.13-4.58 59.482-4.58 59.482l-13.16-6.58-5.7-63.595zm144.767 0c2.742 7.13 4.58 59.482 4.58 59.482l13.16-6.58 5.7-63.595z" fill="#7e5449"/><g transform="matrix(1.056877 0 0 1.056877 -11.976573 -.000005)"><path d="M210.573 13.122c-50.744 0-91.88 41.136-91.88 91.885v13.122h183.765v-13.122c0-50.75-41.145-91.885-91.885-91.885z" fill="#fedc3b"/><path d="M309.014 118.13H112.13c-3.624 0-6.56-2.942-6.56-6.566s2.937-6.556 6.56-6.556h196.883c3.625 0 6.556 2.932 6.556 6.556a6.56 6.56 0 0 1-6.556 6.566zM184.337 65.65c-3.625 0-6.56-2.932-6.566-6.556l-.014-45.962a6.56 6.56 0 0 1 3.644-5.883c.596-.298 14.762-7.25 29.172-7.25s28.57 6.95 29.167 7.25a6.57 6.57 0 0 1 3.654 5.873v45.126c0 3.624-2.942 6.556-6.575 6.556a6.56 6.56 0 0 1-6.556-6.556V17.44c-4.423-1.75-12.2-4.317-19.688-4.317-7.105 0-14.877 2.413-19.688 4.297l.014 41.665a6.56 6.56 0 0 1-6.561 6.566z" fill="#fbaf37"/></g></svg>