<svg xmlns="http://www.w3.org/2000/svg" viewBox="0 0 64 64"><linearGradient id="a" x1="44.7" x2="28.1" y1="53.9" y2="37.3" gradientUnits="userSpaceOnUse"><stop offset="0" stop-color="#8787de"/><stop offset="1" stop-color="#8787de" stop-opacity="0"/></linearGradient><path fill="#53536c" d="M30 17.2a1.8 1.8 0 01-2.4-.4L19.5 5.3a1.8 1.8 0 01.4-2.5 1.8 1.8 0 012.5.4l8 11.6a1.8 1.8 0 01-.4 2.4zm1.7 0a1.8 1.8 0 002.5-.4l8-11.5a1.8 1.8 0 00-.4-2.5 1.8 1.8 0 00-2.4.5l-8.1 11.5a1.8 1.8 0 00.4 2.4z"/><path fill="#6f6f91" d="M5.6 61.5h52.8a5.6 5.6 0 005.6-5.6v-36a5.6 5.6 0 00-5.6-5.7H5.6A5.7 5.7 0 000 19.8v36a5.6 5.6 0 005.6 5.7z"/><g fill="#afafe9"><circle cx="55.7" cy="26" r="4.3"/><circle cx="55.7" cy="39.6" r="4.3"/><path d="M10.5 56.4H43a5 5 0 005-4.9V24.2a5 5 0 00-5-5H10.5a5 5 0 00-4.9 5v27.3a5 5 0 005 5z"/></g><path fill="url(#a)" d="M46.2 20.5L6.7 54.6a5 5 0 003.8 1.8H43a5 5 0 005-4.9V24.2c0-1.5-.7-2.8-1.7-3.7z"/></svg>