<svg xmlns="http://www.w3.org/2000/svg" viewBox="0 0 64 64"><linearGradient id="A" gradientUnits="userSpaceOnUse" x1="44.73" x2="28.11" y1="53.88" y2="37.26"><stop offset="0" stop-color="#8787de"/><stop offset="1" stop-color="#8787de" stop-opacity="0"/></linearGradient><path d="M30.01 17.24a1.76 1.76 0 0 1-2.45-.43L19.49 5.27a1.76 1.76 0 0 1 .43-2.45 1.76 1.76 0 0 1 2.45.43l8.08 11.53a1.76 1.76 0 0 1-.43 2.45zm1.71 0a1.76 1.76 0 0 0 2.45-.43l8.08-11.53a1.76 1.76 0 0 0-.43-2.45 1.76 1.76 0 0 0-2.45.43l-8.08 11.53a1.76 1.76 0 0 0 .43 2.45z" fill="#53536c"/><path d="M5.64 61.49h52.72A5.64 5.64 0 0 0 64 55.85V19.83a5.64 5.64 0 0 0-5.64-5.64H5.64A5.65 5.65 0 0 0 0 19.83v36.02a5.64 5.64 0 0 0 5.64 5.64z" fill="#6f6f91"/><g fill="#afafe9"><circle cx="55.68" cy="26.03" r="4.32"/><circle cx="55.68" cy="39.63" r="4.32"/><path d="M10.53 56.43H42.9c2.72 0 4.93-2.21 4.93-4.93V24.19c0-2.72-2.21-4.93-4.93-4.93H10.53A4.93 4.93 0 0 0 5.6 24.2v27.31a4.93 4.93 0 0 0 4.93 4.93z"/></g><path d="M46.16 20.51L6.72 54.6c.9 1.11 2.27 1.84 3.81 1.84h32.38c2.72 0 4.93-2.21 4.93-4.93V24.19c0-1.47-.66-2.78-1.68-3.68z" fill="url(#A)"/></svg>