<svg height="64" viewBox="0 0 64 64" width="64" xmlns="http://www.w3.org/2000/svg"><path d="m62.98 11.57c-1.42.63-2.9 1.13-4.41 1.49 1.67-1.59 2.92-3.57 3.63-5.78.2-.63-.48-1.18-1.06-.84-2.11 1.25-4.38 2.19-6.75 2.79-.14.03-.28.05-.42.05-.43 0-.85-.16-1.18-.45-2.52-2.22-5.76-3.45-9.13-3.45-1.46 0-2.93.23-4.37.67-4.47 1.39-7.93 5.08-9.01 9.63-.41 1.71-.52 3.42-.33 5.08.02.19-.07.32-.12.39-.1.11-.24.17-.38.17-.02 0-.03 0-.05 0-9.79-.9-18.62-5.62-24.86-13.28-.32-.39-.93-.34-1.18.09-1.23 2.1-1.87 4.5-1.87 6.94 0 3.74 1.5 7.27 4.11 9.84-1.1-.26-2.16-.67-3.15-1.22-.48-.27-1.06.08-1.07.62-.07 5.56 3.19 10.5 8.06 12.73-.1 0-.2 0-.29 0-.77 0-1.55-.07-2.32-.22-.54-.1-.99.41-.82.93 1.58 4.94 5.83 8.58 10.92 9.41-4.22 2.84-9.14 4.33-14.26 4.33h-1.6c-.49 0-.91.32-1.03.8-.12.47.1.96.52 1.21 5.76 3.34 12.34 5.12 19.03 5.12 5.85 0 11.32-1.16 16.26-3.45 4.53-2.1 8.53-5.1 11.9-8.92 3.13-3.56 5.59-7.66 7.29-12.2 1.62-4.33 2.48-8.95 2.48-13.36v-.21c0-.71.32-1.37.88-1.83 2.12-1.72 3.97-3.75 5.49-6.02.4-.6-.23-1.35-.89-1.06z" fill="#76a9ea" stroke-width=".16"/></svg>