<svg xmlns="http://www.w3.org/2000/svg" viewBox="0 0 64 64"><path fill="#76a9ea" stroke-width=".16" d="M62.98 11.57c-1.42.63-2.9 1.13-4.41 1.49 1.67-1.59 2.92-3.57 3.63-5.78a.723.723 0 00-1.06-.84 25.533 25.533 0 01-6.75 2.79c-.14.03-.28.05-.42.05-.43 0-.85-.16-1.18-.45a13.803 13.803 0 00-9.13-3.45c-1.46 0-2.93.23-4.37.67-4.47 1.39-7.93 5.08-9.01 9.63-.41 1.71-.52 3.42-.33 5.08.02.19-.07.32-.12.39-.1.11-.24.17-.38.17h-.05c-9.79-.9-18.62-5.62-24.86-13.28a.722.722 0 00-1.18.09c-1.23 2.1-1.87 4.5-1.87 6.94 0 3.74 1.5 7.27 4.11 9.84-1.1-.26-2.16-.67-3.15-1.22a.72.72 0 00-1.07.62c-.07 5.56 3.19 10.5 8.06 12.73h-.29c-.77 0-1.55-.07-2.32-.22a.72.72 0 00-.82.93c1.58 4.94 5.83 8.58 10.92 9.41-4.22 2.84-9.14 4.33-14.26 4.33h-1.6c-.49 0-.91.32-1.03.8-.12.47.1.96.52 1.21a37.99 37.99 0 0019.03 5.12c5.85 0 11.32-1.16 16.26-3.45 4.53-2.1 8.53-5.1 11.9-8.92 3.13-3.56 5.59-7.66 7.29-12.2 1.62-4.33 2.48-8.95 2.48-13.36v-.21c0-.71.32-1.37.88-1.83 2.12-1.72 3.97-3.75 5.49-6.02.4-.6-.23-1.35-.89-1.06z"/></svg>