<svg xmlns="http://www.w3.org/2000/svg" height="64" width="64"><style><![CDATA[.B{stroke:#483e37}.C{stroke-linejoin:round}.D{fill:#e3dedb}.E{stroke-width:2.478}]]></style><path d="M4.735 62.76c-1.93 0-3.496-1.565-3.496-3.496V44.162c0-1.93 1.565-3.495 3.495-3.495h54.53c1.93 0 3.495 1.565 3.495 3.495v15.104c0 1.93-1.565 3.495-3.495 3.495H4.735z" class="B C D E"/><path d="M44.872 47.14h11.416v9.15H44.872z" fill="#5fd38d"/><path d="M29.688 47.14h11.416v9.15H29.688z" fill="#217844"/><path d="M59.775 33.017l-7.552-13.08c-.965-1.672-3.103-2.245-4.775-1.28l-27.88 16.097v25.513L58.495 37.79c1.672-.965 2.245-3.103 1.28-4.775z" class="B C D E"/><path d="M42.794 39.38l-4.574-7.922 9.886-5.708 4.574 7.922z" fill="#00aad4"/><path d="M29.645 46.972L25.07 39.05l9.886-5.708 4.574 7.922z" fill="#006680"/><path d="M44.1 11.807L31.027 4.243c-1.67-.967-3.81-.396-4.776 1.275L19.567 17.07v44.12l25.808-44.607c.967-1.67.396-3.81-1.275-4.776z" class="B C D E"/><path d="M32.566 25.8l-7.92-4.582 5.718-9.882 7.92 4.582z" fill="#a05a2c"/><path d="M24.96 38.944l-7.92-4.582 5.718-9.882 7.92 4.582z" fill="#ffb380" opacity=".568"/><path d="M23.334 59.265c0 1.93-1.565 3.495-3.495 3.495H4.735c-1.93 0-3.496-1.565-3.496-3.495V4.734c0-1.93 1.565-3.495 3.496-3.495h15.104c1.93 0 3.495 1.565 3.495 3.495z" class="B C D E"/><path d="M12.257 2.557h-7.24C3.295 2.557 2.4 3.56 2.4 5.41v53.23c0 1.852.897 2.83 2.62 2.854h7.24V2.557z" fill="#c8beb7"/><circle cx="12.287" cy="51.713" fill="#fff" r="3.279" stroke-width="2" class="B C"/></svg>