<svg xmlns="http://www.w3.org/2000/svg" viewBox="0 0 64 64"><path fill="#dbdbe3" d="M3.2 1.3a2 2 0 00-1.8 1.2 2 2 0 00-.1.8v57.9a2 2 0 002 1.5h57.5c.3 0 .6 0 .8-.2a2 2 0 001.2-1.8V42.2a2 2 0 00-2-1.4h-8l7-4.1a2 2 0 00.8-2.8l-9.1-15.3a2 2 0 00-2.7-.7l-6.2 3.6 3.6-6a2 2 0 00-.7-2.8L30 3.7a2 2 0 00-2.8.7L23 11.7V3.3a2 2 0 00-1.6-2zm9 45.2h.5c2.4.4 3.8 2.2 4 4.5l-.2 1.4a5 5 0 01-4.4 3.2c-2.7-.2-4.2-2-4.5-4.6.1-2.7 2-4.2 4.5-4.5z"/><path fill="#b7b7c8" d="M3.2 1.3a2 2 0 00-2 2v57.4c0 1.1 1 2 2 2h8.4v-7.2c-2.4-.3-3.7-2.2-4-4.5a4.5 4.5 0 014-4.4V1.3z"/><path fill="#4a0" d="M29.3 54.5v2h11.2V48z"/><path fill="#00d400" d="M44.5 47.2h11.4v9.2H44.5z"/><path fill="#00aad4" d="M42.4 39.5l-4.6-8 10-5.6 4.5 8z"/><path fill="#f1c7ad" d="M22.9 38.2l1.7 1 5.7-10-7.4-4.3z"/><path fill="#006680" d="M29.2 47.2l-4.5-8 9.9-5.8 4.5 8z"/><path fill="#a05a2c" d="M32.2 26l-8-4.7 5.8-9.9 7.9 4.6z"/></svg>