<svg xmlns="http://www.w3.org/2000/svg" height="64" width="64"><style><![CDATA[.B{stroke:#483e37}.C{stroke-linejoin:round}.D{stroke-width:2}.E{fill:#e3dedb}.F{stroke-width:2.478}.G{fill:#ac9d93}.H{fill:#c8beb7}]]></style><path d="M4.735 62.76c-1.93 0-3.496-1.565-3.496-3.496V44.162c0-1.93 1.565-3.495 3.495-3.495h54.53c1.93 0 3.495 1.565 3.495 3.495v15.104c0 1.93-1.565 3.495-3.495 3.495H4.735z" class="B C E F"/><path d="M44.872 47.14h11.416v9.15H44.872z" fill="#5fd38d"/><path d="M29.688 47.14h11.416v9.15H29.688z" fill="#217844"/><path d="M59.775 33.017l-7.552-13.08c-.965-1.672-3.103-2.245-4.775-1.28l-27.88 16.097v25.513L58.495 37.79c1.672-.965 2.245-3.103 1.28-4.775z" class="B C E F"/><path d="M42.794 39.38l-4.574-7.922 9.886-5.708 4.574 7.922z" fill="#00aad4"/><path d="M29.645 46.972L25.07 39.05l9.886-5.708 4.574 7.922z" fill="#006680"/><path d="M44.1 11.807L31.027 4.243c-1.67-.967-3.81-.396-4.776 1.275L19.567 17.07v44.12l25.808-44.607c.967-1.67.396-3.81-1.275-4.776z" class="B C E F"/><path d="M32.566 25.8l-7.92-4.582 5.718-9.882 7.92 4.582z" fill="#a05a2c"/><path d="M24.96 38.944l-7.92-4.582 5.718-9.882 7.92 4.582z" fill="#ffb380" opacity=".568"/><path d="M23.334 59.265c0 1.93-1.565 3.495-3.495 3.495H4.735c-1.93 0-3.496-1.565-3.496-3.495V4.734c0-1.93 1.565-3.495 3.496-3.495h15.104c1.93 0 3.495 1.565 3.495 3.495z" class="B C E F"/><path d="M-74.814 38.577c-2.008 0-3.636-1.628-3.636-3.636V19.228c0-2.008 1.628-3.636 3.636-3.636h56.728c2.008 0 3.636 1.628 3.636 3.636V34.94c0 2.008-1.628 3.636-3.636 3.636h-56.727z" class="B D G"/><path d="M-14.45 27.085v-7.856c0-2.008-1.628-3.636-3.636-3.636h-56.727c-2.008 0-3.636 1.628-3.636 3.637v7.856h64z" class="H"/><path d="M-33.06 22.326h11.876v9.517H-33.06z" fill="#5fd38d"/><path d="M-48.855 22.326h11.876v9.517h-11.876z" fill="#217844"/><path d="M-17.557 7.635l-7.856-13.607c-1.004-1.74-3.228-2.335-4.967-1.33L-59.384 9.44v26.54l40.496-23.38c1.74-1.004 2.335-3.228 1.33-4.967z" class="B D G"/><path d="M-59.384 22.712l37.9-21.88-3.928-6.804c-1.004-1.74-3.228-2.335-4.967-1.33L-59.384 9.44z" class="H"/><g transform="matrix(-.5 -.866 .866 -.5 0 0)"><path d="M5.265-37.63h9.517v11.876H5.265z" fill="#00aad4"/><path d="M5.266-53.425h9.517v11.876H5.266z" fill="#006680"/></g><path d="M-33.863-14.43l-13.6-7.87c-1.738-1.006-3.963-.412-4.968 1.326l-6.953 12.017v45.897l26.847-46.403c1.006-1.738.412-3.963-1.326-4.968z" class="B D G"/><path d="M-59.384 13.993l18.72-32.358-6.8-3.934c-1.738-1.006-3.963-.412-4.968 1.326l-6.953 12.017v22.95z" class="H"/><g transform="matrix(-.8656 -.5008 .5008 -.8656 0 0)"><path d="M39.634-23.078h9.518V-11.2h-9.518z" fill="#a05a2c"/><path d="M39.635-38.873h9.518v11.877h-9.518z" fill="#ffb380" opacity=".568"/></g><path d="M-55.466 34.94c0 2.008-1.628 3.636-3.636 3.636h-15.712c-2.008 0-3.636-1.628-3.636-3.636v-56.727c0-2.008 1.628-3.636 3.636-3.636h15.712c2.008 0 3.636 1.628 3.636 3.636z" class="B D G"/><path d="M12.257 2.557h-7.24C3.295 2.557 2.4 3.56 2.4 5.41v53.23c0 1.852.897 2.83 2.62 2.854h7.24V2.557z" class="H"/><g fill="#fff"><circle cx="12.287" cy="51.713" r="3.279" class="B C D"/><circle cx="-66.958" cy="27.084" r="3.411"/></g></svg>