<svg xmlns="http://www.w3.org/2000/svg" viewBox="0 0 64 64"><path fill="#e3dbdb" d="M4.8 1.4c-4 0-3.7 4.5-3.5 7.2V60c.7 3.2 4.5 3 7 2.8h51.4c3.2-.2 3.4-4 3.2-6.5-.1-4.4.2-8.9-.2-13.2-1-2.7-4.2-2.4-6.5-2.4-1 0-4 .4-1.5-.7 2.1-1.5 6-2.5 5.5-5.7-1-3-3-5.6-4.5-8.3-1.4-2.3-2.5-4.8-4.1-6.9-2.7-2-5.8.7-8.2 2-1.6.5 1.4-2.7 1.7-3.9 2.2-2.7-.4-5.7-3.2-6.6-4-2.3-7.8-4.8-12-6.8-2.6-.6-4.1 2.1-5.1 4.2-.5.5-1.6 3-1.8 2.1V3.7c0-2.3-.6-2.5-2.6-2.5h-7zm7.5 46c3.4-.2 5.7 4.7 3 7-2 2-6.5 2-7.2-.8-.8-4.2 1.7-6.2 4.2-6.2z"/><path fill="#4a0" d="M29.8 54.3v2H41v-8.6z"/><path fill="#00d400" d="M45 47h11.4v9.2H45z"/><path fill="#00aad4" d="M42.9 39.3l-4.6-8 10-5.6 4.5 8z"/><path fill="#f1c7ad" d="M23.4 38l1.7 1 5.7-10-7.4-4.3z"/><path fill="#006680" d="M29.7 47l-4.5-8 9.9-5.8 4.5 8z"/><path fill="#a05a2c" d="M32.7 25.7l-8-4.6 5.8-9.9 7.9 4.6z"/><path fill="#c8b7b7" d="M12.3 62.7v-6.9c-3 0-4.3-2.2-4.3-4.6.2-2 2.3-3.7 4.3-3.8V1.3H4c-2.8 0-2.8.2-2.8 5V60c.3 2.3 2.8 3.2 4.8 2.8z"/></svg>