<svg viewBox="0 0 64 64" xmlns="http://www.w3.org/2000/svg"><path d="m4.73 1.24c-1.93 0-3.5 1.57-3.5 3.5v54.53c0 .24.02.48.07.7.33 1.59 1.74 2.79 3.43 2.79h54.53c1.93 0 3.5-1.57 3.5-3.5v-15.1c0-1.93-1.57-3.49-3.5-3.49h-5.76l4.99-2.88c1.67-.96 2.24-3.1 1.28-4.77l-7.55-13.08a3.5 3.5 0 0 0 -4.78-1.28l-4.91 2.84 2.84-4.91c.97-1.67.4-3.81-1.28-4.78l-13.06-7.57c-1.67-.97-3.81-.4-4.78 1.28l-2.92 5.04v-5.83c0-1.93-1.56-3.5-3.49-3.5zm7.52 46.3h.03.17c.06 0 .11.01.17.01l.17.02.17.02.17.03c.06.01.11.02.17.04.06.01.11.03.17.04l.16.05.16.06c.05.02.11.04.16.07.05.02.1.05.15.07s.1.05.15.08.1.05.15.08l.15.09c.05.03.1.06.14.1.05.03.09.07.14.1a.69.69 0 0 1 .13.11c.04.04.09.07.13.11l.13.12.12.12c.04.04.08.09.11.13.04.04.07.09.11.13s.07.09.1.14.07.09.1.14l.09.14c.03.05.06.1.08.15.03.05.05.1.08.15a1.01 1.01 0 0 1 .07.15l.07.16.06.16c.02.05.04.11.05.16l.05.17c.01.06.03.11.04.17l.03.17.03.17.02.17a.97.97 0 0 1 .01.17v.17.03.17c0 .06-.01.11-.01.17s-.01.11-.02.17l-.02.17-.03.17c-.01.06-.02.11-.04.17-.01.06-.03.11-.05.17l-.05.16-.06.16c-.02.05-.04.11-.07.16-.02.05-.05.1-.07.16-.03.05-.05.1-.08.15s-.05.1-.08.15l-.09.14c-.03.05-.06.1-.1.14-.03.05-.07.09-.1.14l-.11.13c-.04.04-.07.09-.11.13l-.12.13-.13.12-.13.12c-.04.04-.09.07-.13.11s-.09.07-.14.1-.09.07-.14.1l-.14.09-.15.09c-.05.03-.1.05-.15.08s-.1.05-.15.07l-.16.07-.16.06c-.05.02-.11.04-.16.05-.05.02-.11.03-.16.05-.06.01-.11.03-.17.04l-.17.03-.17.03-.17.02c-.06.01-.11.01-.17.01s-.11.01-.17.01h-.03-.17c-.06 0-.11-.01-.17-.01s-.11-.01-.17-.02l-.17-.03-.17-.03c-.06-.01-.11-.02-.17-.04-.06-.01-.11-.03-.17-.04-.05-.02-.11-.03-.16-.05l-.16-.06c-.05-.02-.11-.04-.16-.07-.05-.02-.1-.05-.16-.07-.05-.03-.1-.05-.15-.08s-.1-.05-.15-.08l-.15-.09c-.05-.03-.09-.06-.14-.1-.05-.03-.09-.07-.14-.1-.04-.03-.09-.07-.13-.11s-.09-.07-.13-.11l-.12-.12-.12-.12-.12-.13c-.04-.04-.07-.09-.11-.13s-.07-.09-.1-.14-.07-.09-.1-.14l-.09-.14-.09-.15c-.03-.05-.05-.1-.08-.15s-.05-.1-.07-.16c-.01-.05-.03-.11-.05-.16l-.06-.16c-.02-.05-.04-.11-.05-.16l-.05-.17c-.01-.06-.03-.11-.04-.17l-.03-.17-.03-.17-.02-.17c-.01-.06-.01-.11-.01-.17v-.17-.03-.17c0-.06.01-.11.01-.17s.01-.11.02-.17l.03-.17.03-.17c.01-.06.02-.11.04-.17.01-.06.03-.11.04-.17l.05-.16.06-.16.06-.16c.02-.05.05-.1.07-.16.02-.05.05-.1.08-.15l.09-.15.09-.14c.03-.05.06-.1.1-.14.03-.05.07-.09.1-.14a.69.69 0 0 1 .11-.13c.04-.04.07-.09.11-.13l.12-.13.12-.12c.04-.04.09-.08.13-.11.04-.04.09-.07.13-.11s.09-.07.14-.1.09-.07.14-.1l.15-.09.15-.09c.05-.03.1-.05.15-.08s.1-.05.16-.07l.16-.07.16-.06c.05-.02.11-.04.16-.05.06-.02.11-.03.17-.04s.11-.03.17-.04l.17-.03.17-.03.17-.02c.06-.01.11-.01.17-.01s.11-.01.17-.01z" fill="#e3dbdb"/><path d="m29.69 54.42v1.87h11.41v-8.46z" fill="#4a0"/><path d="m44.87 47.14h11.42v9.15h-11.42z" fill="#00d400"/><path d="m42.79 39.38-4.57-7.92 9.89-5.71 4.57 7.92z" fill="#00aad4"/><path d="m23.33 38.01 1.63.94 5.72-9.89-7.35-4.25z" fill="#f1c7ad"/><path d="m29.65 46.97-4.58-7.92 9.89-5.71 4.57 7.92z" fill="#006680"/><path d="m32.57 25.8-7.92-4.58 5.72-9.88 7.92 4.58z" fill="#a05a2c"/><path d="m12.26 62.76v-6.88h-.09-.03-.17c-.06 0-.11-.01-.17-.01s-.11-.01-.17-.02l-.17-.03-.17-.03c-.06-.01-.11-.02-.17-.04-.06-.01-.11-.03-.17-.04-.05-.02-.11-.03-.16-.05l-.16-.06c-.05-.02-.11-.04-.16-.07-.05-.02-.1-.05-.16-.07-.05-.03-.1-.05-.15-.08s-.1-.05-.15-.08l-.15-.09c-.05-.03-.09-.06-.14-.1-.05-.03-.09-.07-.14-.1s-.09-.07-.13-.11-.09-.07-.13-.11l-.12-.12-.12-.12-.12-.13c-.04-.04-.07-.09-.11-.13s-.07-.09-.1-.14-.07-.09-.1-.14l-.09-.14-.09-.15c-.03-.05-.05-.1-.08-.15s-.05-.1-.07-.16l-.07-.16-.06-.16c-.02-.05-.04-.11-.05-.16l-.05-.17c-.01-.06-.03-.11-.04-.17l-.03-.17-.03-.17-.02-.17c-.01-.06-.01-.11-.01-.17v-.17-.03-.17c0-.06 0-.11.01-.17l.02-.17.03-.17.03-.17c.01-.06.02-.11.04-.17.01-.06.03-.11.04-.17l.05-.16.06-.16.06-.16c.02-.05.05-.1.07-.16.03-.05.05-.1.08-.15l.09-.15.09-.14a.71.71 0 0 1 .1-.14c.03-.05.07-.09.1-.14a.69.69 0 0 1 .11-.13c.04-.04.07-.09.11-.13l.12-.13.12-.12c.04-.04.09-.08.13-.11.04-.04.09-.07.13-.11s.09-.07.14-.1.09-.07.14-.1l.15-.09.15-.09c.05-.03.1-.05.15-.08s.1-.05.16-.07l.16-.07.16-.06c.05-.02.11-.04.16-.05.06-.02.11-.03.17-.04s.11-.03.17-.04l.17-.03.17-.03.17-.02c.06-.01.11-.01.17-.01s.11-.01.17-.01h.03.12v-46.3h-7.67c-1.93 0-3.5 1.57-3.5 3.5v54.53c0 .24.02.48.07.7.33 1.59 1.74 2.79 3.43 2.79z" fill="#c8b7b7"/></svg>