<svg xmlns="http://www.w3.org/2000/svg" viewBox="0 0 64 64"><path fill="#e3dbdb" d="M4.7 1.2c-1.9 0-3.5 1.6-3.5 3.5v54.6l.1.7a3.5 3.5 0 003.4 2.8h54.6c1.9 0 3.5-1.6 3.5-3.5V44.2c0-2-1.6-3.5-3.5-3.5h-5.8l5-3c1.7-.9 2.2-3 1.3-4.7l-7.6-13a3.5 3.5 0 00-4.8-1.3l-4.9 2.8 2.9-5c1-1.6.4-3.7-1.3-4.7L31 4.2c-1.7-1-3.9-.4-4.9 1.3l-2.9 5V4.8c0-1.9-1.5-3.5-3.5-3.5zm7.5 46.3h.8l.1.1h.2l.2.1h.1l.2.1h.1l.2.2h.1l.2.1.1.1.2.1.1.1a.7.7 0 01.2.1v.1l.2.1.1.2h.2v.2l.2.2v.1l.2.1v.2l.1.1a1 1 0 010 .2l.2.2V50.4l.1.1v.4l.1.1v.2a1 1 0 010 .2v1.2l-.1.2v.1l-.1.2-.1.2v.1l-.2.2v.1l-.1.2-.1.1-.1.1-.1.2-.1.1-.2.1-.1.2H15l-.2.2h-.1l-.1.2h-.2l-.1.2H14l-.1.1h-.2l-.2.1h-.1l-.2.1h-.1l-.2.1h-.4-.5-.2-.5H11.1l-.2-.1-.1-.1h-.2l-.1-.1-.2-.1-.1-.1H10l-.1-.2h-.2l-.1-.2-.1-.1-.2-.1v-.2H9l-.1-.2-.1-.1-.1-.2-.1-.1v-.2l-.2-.1v-.2a1 1 0 000-.1l-.1-.2a1 1 0 01-.1-.2v-.1-.2l-.1-.2V52.1 51.5v-.1-.5-.2-.2l.1-.1.1-.2V50l.1-.1.1-.2.1-.1v-.2l.2-.1v-.1a.7.7 0 01.2-.2l.1-.1.1-.1.1-.1.2-.2h.1l.1-.2h.2l.1-.2h.2l.1-.1.2-.1h.2l.1-.1h.2l.2-.1H11.6l.2-.1h.5z"/><path fill="#4a0" d="M29.7 54.4v1.9H41v-8.5z"/><path fill="#00d400" d="M44.9 47.1h11.4v9.2H44.9z"/><path fill="#00aad4" d="M42.8 39.4l-4.6-8 10-5.6 4.5 7.9z"/><path fill="#f1c7ad" d="M23.3 38l1.7 1 5.7-10-7.4-4.2z"/><path fill="#006680" d="M29.6 47l-4.5-8 9.9-5.7 4.5 8z"/><path fill="#a05a2c" d="M32.6 25.8l-8-4.6 5.8-9.9 7.9 4.6z"/><path fill="#c8b7b7" d="M12.3 62.8v-7H12h-.7-.2-.1l-.2-.1-.2-.1h-.1l-.2-.1-.1-.1-.2-.1H10l-.2-.2h-.1l-.2-.2v-.1l-.2-.1-.1-.2H9l-.2-.2V54h-.2v-.2l-.1-.2-.1-.1c-.1-.1 0-.1 0-.2l-.2-.2v-.1a1 1 0 010-.2l-.1-.1v-.4l-.1-.1V52 51.5 51v-.2l.1-.2v-.1l.1-.2.1-.2V50l.1-.2.1-.1.1-.2a.7.7 0 01.1-.1l.1-.1A.7.7 0 019 49L9 49l.2-.1v-.2h.2l.1-.2h.2l.1-.2h.2l.1-.2h.2l.1-.1h.2l.2-.1h.1l.2-.1H11.4l.2-.1h.7V1.1H4.6C2.6 1.2 1 2.8 1 4.7V60a3.5 3.5 0 003.5 2.8z"/></svg>