<svg xmlns="http://www.w3.org/2000/svg" fill-rule="evenodd" viewBox="-3 0 36 36" height="36" width="36"><path fill="#2a5900" d="M6.518 17.936A8.58 8.58 0 0 0 15 26.606v2.334l-.944 4.286A15.19 15.19 0 0 1 0 17.936C-.134 10.712 4.917 4.426 12 3h2l.048 6.323a8.6 8.6 0 0 0-7.53 8.613z"/><g fill="#39ff47"><path d="M15 33.275c-.32 0-.63-.03-.944-.05L15 28.94v-2.334c4.716-.1 8.486-3.953 8.486-8.67s-3.77-8.57-8.486-8.67a8.17 8.17 0 0 0-.95.058L14 7s-.658-4.4 1-4.4c8.376.094 15.1 6.96 15 15.336.093 8.378-6.622 15.245-15 15.34z"/><path d="M17.005 36V22L10 29z"/></g><path d="M13 0v13l6.024-6.494z" fill="#2a5900"/></svg>