<svg fill-rule="evenodd" viewBox="0 0 64 64" xmlns="http://www.w3.org/2000/svg"><path d="m28.2 3.15v4.57c-11.88 1.61-20.97 11.88-20.83 24.15-.15 13.33 10.53 24.23 23.85 24.39l.06.06-.02.1c.04 0 .08 0 .13.01l4.42 4.42v-4.58c11.86-1.63 20.96-11.87 20.82-24.17.15-13.3-10.53-24.22-23.83-24.38l-.06-.06.02-.1c-.04 0-.08 0-.13-.01zm0 15.36v6.92l6.85-6.85c6.38 1.22 11.2 6.83 11.2 13.54 0 6.46-4.45 11.88-10.48 13.37v-6.92l-6.85 6.85a13.8 13.8 0 0 1 -11.18-13.55c0-6.46 4.44-11.88 10.48-13.37z" fill="#141" stroke="#141" stroke-linejoin="round" stroke-width="5"/><path d="m31.22 7.48c.5 0 1 .05 1.5.08l-1.5 6.83v3.7a13.8 13.8 0 0 0 -13.5 13.79 13.77 13.77 0 0 0 13.5 13.77l1.5-.1-1.5 10.7c-13.32-.12-24.02-11.05-23.85-24.38-.15-13.34 10.53-24.25 23.85-24.39z" fill="#38ffb4"/><path d="m35.87 38.56-11.17 11.14 11.16 11.15" fill="none" stroke="#141" stroke-width="5"/><g fill="#33e933" transform="matrix(-1.59 0 0 -1.59 39.79 66.25)"><path d="m4.43 6.13c.32 0 .63.03.94.05l-.94 4.29v2.33c-4.72.1-8.49 3.95-8.49 8.67s3.77 8.57 8.49 8.67l.95-.06-.95 6.72c-8.38-.09-15.1-6.96-15-15.34-.09-8.38 6.62-15.25 15-15.34z"/><path d="m2.53 3.4v14l7-7z"/></g><path d="m28.1 25.4 11.15-11.14-11.15-11.11" fill="none" stroke="#141" stroke-width="5"/><path d="m28.2 3.15v22.27l11.16-11.14z" fill="#38ffb4"/></svg>