<svg height="64" width="64" xmlns="http://www.w3.org/2000/svg" xmlns:xlink="http://www.w3.org/1999/xlink"><defs><path id="a" d="m51.33 4.938a1.06 1.06 0 0 0 -1.056 1.056 1.06 1.06 0 0 0 1.056 1.056 1.06 1.06 0 0 0 1.056-1.056 1.06 1.06 0 0 0 -1.056-1.056z"/><path id="b" d="m56.743 4.938a1.06 1.06 0 0 0 -1.056 1.056 1.06 1.06 0 0 0 1.056 1.056 1.06 1.06 0 0 0 1.057-1.056 1.06 1.06 0 0 0 -1.056-1.056z"/></defs><g stroke="#4d4d4d"><path d="m.6.6h38.48v38.48h-38.48z" fill="#e7ebff" stroke-width="1.202"/><path d="m.6.6h38.48v6.53h-38.48z" fill="#f9f9f9" stroke-width="1.132"/></g><g fill="#4d4d4d" transform="scale(.62)"><use xlink:href="#a"/><use x="-5.414" xlink:href="#a"/><use xlink:href="#b"/></g><g stroke="#4d4d4d"><path d="m12.76 12.76h38.48v38.48h-38.48z" fill="#e7ebff" stroke-width="1.202"/><path d="m12.76 12.76h38.48v6.53h-38.48z" fill="#f9f9f9" stroke-width="1.132"/></g><g fill="#4d4d4d" transform="matrix(.62 0 0 .62 12.158 12.158)"><use xlink:href="#a"/><use x="-5.414" xlink:href="#a"/><use xlink:href="#b"/></g><g stroke="#4d4d4d"><path d="m24.918 24.918h38.482v38.482h-38.48z" fill="#e7ebff" stroke-width="1.202"/><path d="m24.918 24.918h38.482v6.53h-38.48z" fill="#f9f9f9" stroke-width="1.132"/></g><g fill="#4d4d4d" transform="matrix(.62 0 0 .62 24.317 24.317)"><use xlink:href="#a"/><use x="-5.414" xlink:href="#a"/><use xlink:href="#b"/></g></svg>