<svg xmlns="http://www.w3.org/2000/svg" xmlns:xlink="http://www.w3.org/1999/xlink" viewBox="0 0 64 64"><defs><path id="a" d="M51.33 4.938a1.06 1.06 0 00-1.056 1.056A1.06 1.06 0 0051.33 7.05a1.06 1.06 0 001.056-1.056 1.06 1.06 0 00-1.056-1.056z"/><path id="b" d="M56.743 4.938a1.06 1.06 0 00-1.056 1.056 1.06 1.06 0 001.056 1.056A1.06 1.06 0 0057.8 5.994a1.06 1.06 0 00-1.056-1.056z"/></defs><g stroke="#4d4d4d"><path fill="#e7ebff" stroke-width="1.202" d="M.6.6h38.48v38.48H.6z"/><path fill="#f9f9f9" stroke-width="1.132" d="M.6.6h38.48v6.53H.6z"/></g><g fill="#4d4d4d" transform="scale(.62)"><use xlink:href="#a"/><use x="-5.414" xlink:href="#a"/><use xlink:href="#b"/></g><g stroke="#4d4d4d"><path fill="#e7ebff" stroke-width="1.202" d="M12.76 12.76h38.48v38.48H12.76z"/><path fill="#f9f9f9" stroke-width="1.132" d="M12.76 12.76h38.48v6.53H12.76z"/></g><g fill="#4d4d4d" transform="matrix(.62 0 0 .62 12.158 12.158)"><use xlink:href="#a"/><use x="-5.414" xlink:href="#a"/><use xlink:href="#b"/></g><g stroke="#4d4d4d"><path fill="#e7ebff" stroke-width="1.202" d="M24.918 24.918H63.4V63.4H24.92z"/><path fill="#f9f9f9" stroke-width="1.132" d="M24.918 24.918H63.4v6.53H24.92z"/></g><g fill="#4d4d4d" transform="matrix(.62 0 0 .62 24.317 24.317)"><use xlink:href="#a"/><use x="-5.414" xlink:href="#a"/><use xlink:href="#b"/></g></svg>