<svg xmlns="http://www.w3.org/2000/svg" viewBox="0 0 64 64"><linearGradient id="b" x1="23.7" x2="23.7" y1="20.6" y2="39.5" gradientUnits="userSpaceOnUse"><stop offset="0" stop-color="#5f5fd3"/><stop offset="1" stop-color="#212178"/></linearGradient><linearGradient id="a" x1="27.6" x2="27.6" y1="1.5" y2="20.6" gradientUnits="userSpaceOnUse"><stop offset="0" stop-color="#5f8dd3"/><stop offset="1" stop-color="#214478"/></linearGradient><g transform="scale(1.07)"><path fill="url(#a)" d="M55.4 20.5H4.6A3.6 3.6 0 011 16.9V5a3.6 3.6 0 013.6-3.6h50.8A3.6 3.6 0 0159 5.1V17a3.6 3.6 0 01-3.6 3.6z"/><circle cx="30" cy="53.5" r="4" fill="#0f0" stroke="#424a9d" stroke-width="2"/><path fill="url(#b)" d="M55.4 39.5H4.6A3.6 3.6 0 011 35.9V24a3.6 3.6 0 013.6-3.6h50.8A3.6 3.6 0 0159 24v11.8a3.6 3.6 0 01-3.6 3.6z"/><g fill="none" stroke="#424a9d" stroke-width="2"><path stroke-linecap="round" d="M1 53.5h25m8 0h25"/><path d="M30 49.5v-10"/></g><g fill="#07be2d"><circle cx="10.5" cy="11" r="3.5"/><circle cx="10.5" cy="30" r="3.5"/></g><g fill="#afc6e9"><circle cx="50" cy="9.5" r="1"/><circle cx="46" cy="9.5" r="1"/><circle cx="52" cy="12.5" r="1"/><circle cx="48" cy="12.5" r="1"/><circle cx="42" cy="9.5" r="1"/><circle cx="44" cy="12.5" r="1"/><circle cx="38" cy="9.5" r="1"/><circle cx="40" cy="12.5" r="1"/><circle cx="34" cy="9.5" r="1"/><circle cx="36" cy="12.5" r="1"/><circle cx="50" cy="28.5" r="1"/><circle cx="46" cy="28.5" r="1"/><circle cx="52" cy="31.5" r="1"/><circle cx="48" cy="31.5" r="1"/><circle cx="42" cy="28.5" r="1"/><circle cx="44" cy="31.5" r="1"/><circle cx="38" cy="28.5" r="1"/><circle cx="40" cy="31.5" r="1"/><circle cx="34" cy="28.5" r="1"/><circle cx="36" cy="31.5" r="1"/></g></g></svg>