<svg xmlns="http://www.w3.org/2000/svg" viewBox="0 0 64 64"><path fill="#2b0" d="M32.77 2.01c-2.37 1.37-.72 5.48-3.26 6.96-.13 2.66-1.76 4.1-1.91 6.58-2.08.22.62 3.22-1.5 3.59-.53.99 1.36 2.82-.6 2.38-.38 1.74 1.22 3.36-.04 4.74.83 1.26.98 1.45-.03 2.21 1.53 2.23.21 3.61 1.52 5.96.09 3.16 1.71 6.09 2.19 9.24.45 1.62 1.87 5.96 1.09 6.03-1.98-2.64-3.13-5.9-4.95-8.41-1.56-2.77-3.05-5.58-4.81-7.69-.63-.53-1.52-1.85-2.29-2.29-1.04-1.93-3.64-1.77-4.25-3.41-2.76-.98-5.1-2.76-7.98-3.6-1.09-1.46-4.65-2.53-2.92.46 1.44 2.53 2.61 5.26 3.9 7.81.45 1.99 2.59 2.99 2.53 4.7 2.59 1.52 3.14 3.45 5.69 4.4 2.18 2.06 5.32 3.62 8 5.26 1.41.4 5.2 3.11 4.43 3.08-3.15-1.41-6.08-3.86-9.31-4.71-2.51-1.11-4.96-1.89-7.45-1.48-2.74-.42-4.85.41-7.63.42-2.55-.78-2.65 1.87-.42 2.2 2.19 1.09 4.07 2.96 6.3 3.72 2.18 1.13 4.8 2.03 7.38 1.89 2.52.69 4.79.16 7.66.17 1.33-.1 5.1-.09 4.89.48-2.4.66-5.02 1.07-7.13 2.43-2.12 1.46-4.49 3.58-5.35 5.97 2.31.8 5.91-.49 8.23-2.06 2.46-1.28 3.78-3.89 6.08-5.39.57 2.7-1.15 6.38 1.17 8.34 1.84-1.92.13-6.67 1.2-7.83 2.66 2.57 4.93 5.95 8.75 6.84 1.6.9 6.81 1.74 3.78-1.21-1.73-2.76-4.31-4.79-7.4-5.85-1.13-.54-4.75-1.37-4.48-1.94 2.96-.13 6.08.54 8.68.73 2.58.18 5.12.17 7.24-.29 2.74-.32 4.62-1.17 7.01-2.65 1.66-1.43 5.61-2.11 6.05-4.36-2.9-.15-5.91-.68-8.77-1.07-2.61.22-4.93-.21-7.3 1.03-2.74.39-5.06 2.08-7.5 3.08-1.38.88-5.42 2.82-2.2.62 2.26-1.46 4.84-2.52 7.14-3.82 2.25-1.64 5-2.53 6.71-4.5.99-.96 3.16-1.87 3.72-3.41 1-1.6 2.7-4.19 4.13-6.14-.08-2.51 3.18-4.66 3.14-7.33-2.09-.49-4.1 2.17-6.45 2.37-2.41.99-4.02 1.44-5.94 3.27-1.56-.16-1.4 1.71-2.8 1.12-.31 1.81-2.47 2.06-2.68 3.44-1.64-.58-.81 2.31-2.31 2.03-1.16 2.92-3.38 5.16-4.71 7.93-.56 1.5-3.05 5.56-3.68 4.83.39-2.7 1.46-5.3 1.97-7.95 1.21-2.77 1.5-5.37 2.42-8.37 1.11-1.52-.64-2.34 1.02-3.86-.83-1.49.56-3.19-.18-4.78 1.3-2.11-.85-2.93-.22-5.07-1.6-.84.74-3.43-1.47-3.94-.13-2.86-1.51-5.36-2.43-8.13-.66-1.53-.39-3.57-1.67-4.77zm14.41 50.2c-.04.23-.68.58 0 0z"/></svg>