<svg viewBox="0 0 64 64" xmlns="http://www.w3.org/2000/svg"><path d="m32.17 1.72c-1.16 1.65-.43 5.4-2.45 6.28-.76 1.55-.04 3.98-1.67 4.06-.14 1.47.35 3.25-1.14 3.21-.04 1.48.91 2.96-.67 3.16-.33 1.21 1.57 3.32-.77 2.66.19 1.81 1.73 3.21.05 3.69-.05 1.1 2.33 2.97.06 2.71.36 1.54 2.06 2.95.52 3.39.74 1.56 1.31 2.84.89 3.85 1.37 2.03.15 3.03 1.75 5.08-.04 2.53 2.15 6.66 1.95 10.15 4.09 7.53-4.59-4.84-5.12-7.94-1.58-.26-.91-2.63-2.12-2.85-.52-1.72-1.53-2.01-2-4.14-1.39 1.58-.48-3.21-2.08-1.34-.19-.8-.46-2.98-1.58-1.85-.31-.93-.74-3.03-1.82-1.61-.23-1.92-1.65-1.5-2.17-1.97-.75-2.1-2.02-.22-2.95-2.23-1.07.24-2.09-.79-3.33-1.61-1.48.94-5.94-4.46-4.07-.76 1.28 2.4 2.54 4.88 3.25 6.75 1.22.99-.04 2.27 2.22 2.91-1.85 1.22 2.82 1.66.68 2.63 1.19.79 2.01 1.12 2.29 2.18.76.52 2.42.26 1.31 1.37 1.59.47 2.23.63 2.35 1.63 2 .45 2.3 1.69 4.04 2.24.07.77 2.56 1.16 2.91 2.01 2.6.78 6.11 3.73 6.88 5.09-2.4-.3-4.49-2.19-6.3-2.85-1.53-1.41-3.07-1.37-4.69-2.81-.64.69-1.59-.9-2.32-.44-1.09-1.01-1.62.03-2.92-1.19-.23 1.22-1.94-.48-2.39.37-1.32-.85-1.75.5-3.33-.33-.2 1.19-2.35-.23-2.98.76-1.4 0-4.61-.42-1.89.92 2.18 1.04 3.61 2.52 5.38 3.28.04.94 2.06.17 1.98 1.25 1.81-.45 1.09 1.44 3.11.51.08 1.35 2.16-.15 2.28.93 1.51-.66 1.51.51 3.24.06 2.34.09 4.39-.12 7.13-.2 1.55.17 6.84.35 3.06 1.63-2.13.39-4.14 1.23-6.05 1.75-1.07.91-2.45 1.38-3.35 2.65-.35.86-4.63 4.37-1.33 3.15 1.72-.33 3.33-.84 4.76-1.23.95-.73 1.6-1.23 2.64-1.83 1.76-1.69 3.08-3.77 5.42-5.06.67 2.98-.63 6.63.62 8.78.73-2.63.06-5.63.4-8.68 2.36 1.47 3.81 4.07 5.66 5.56 1.07.75 1.9 1.62 3.39 1.92 1.12.54 4.37 1.37 4.66 1.13-1.28-1.77-2.4-2.98-3.27-4.29-1.4-.77-2.2-1.63-3.93-2.29-1.69-.81-6.2-1.9-6.6-3.14 2.7-.82 6.46.41 8.91.34 1.59.3 3.91.48 5.29.16.08-.74 2.25 1.13 1.69-.43 1.88.88 1.79-.66 3.73-.01-.46-1.33 2.08-.19 2-1.35 1.67.26 1.23-1.24 3.09-1.12.85-1.5 3.54-1.99 5.09-3.4-2.98.29-5.22-.87-7.56-.66-.87-.76-2.31.44-2.96-.4-1.36 1.15-1.54-.82-2.92.83-.59-1.17-1.77.96-2.49.16-1.54.92-3.22 1.34-4.71 2.27-1.73.55-3.82 2.33-6.28 2.98-3.6 1.35 1.09-2.13 2.27-2.89 2.45-1.14 3.84-2.26 6.12-3.02.28-.9 2.25-1.06 2.71-2.04 1.86-.04 1.74-1.2 2.33-1.6.91-.17 2.13-.32 1.25-1.3 1.75 0 2.1-.94 2.31-1.71 1.21-.23 2.38-.57 1.18-1.65 2.6-.44.75-2.18 2.93-2.81.18-.93.26-1.82 1.63-2.71-.91-1.22 1.64-2.52 1.58-4.07.82-1.22 3.08-4.55.19-2.36-1.92 1.46-4.09 1.47-5.8 2.71-.76-1.22-1.9 2.62-2.56.78-1.18 1.21-1.4 1.91-2.58 1.71-.69.71-.79 2.27-1.71.9-.85 1.28-.81 2.41-2.08 2.21-.54.8-.28 2.5-1.42 1.3-.54.64-.26 3.06-1.35 1.8-.67 2.37-1.76 2.64-2.5 4.61-.91-.03-1.08 2.6-2.01 2.89-.66 2.4-3.85 6.68-5.15 6.67.25-3.06 1.64-7.17 2.27-9.33-.49-1.46 2.17-3.25.87-3.96 1.58-2.14.44-3.38 2.03-5.62.2-.83-1.63-.35-.27-1.57.54-.81 1.53-2.2-.21-1.98 1.04-1.37 1.65-3.16.33-3.46.65-.99 1.99-3.34-.3-2.79.99-1.39.86-3.42-.34-3.33.4-1.13 1.11-3.25-.66-2.94.51-1.85.03-3.06-.93-3.76.06-2.95-1.67-4.09-1.89-7.08-.21-.69-.44-1.37-.69-2.05z" fill="#2b0"/></svg>