<svg xmlns="http://www.w3.org/2000/svg" viewBox="0 0 512.001 512.001" xmlns:v="https://vecta.io/nano"><path d="M28.204 512.005l-22.57-22.57 48.078-48.078 22.57 22.57z" fill="#082947"/><path d="m126.42 436.352-53.902 53.903-22.563-22.563 46.379-61.426z" fill="#98d9d5"/><path d="m103.858 413.789-53.903 53.903-22.562-22.578 53.895-53.895z" fill="#c1e8e6"/><path d="M171.576 300.93L96.342 421.305l37.61 37.625 90.288-90.288z" fill="#185f8d"/><path d="m96.342 421.305c-.007.007-37.624-37.624-37.624-37.624l90.288-90.273 45.14 30.093z" fill="#4284b2"/><path d="M306.988 195.612L186.622 331.025l45.14 45.14L352.128 255.8z" fill="#6da8d6"/><path d="M314.512 203.136l-127.9 127.89-45.14-45.14L261.855 165.51z" fill="#9ec8e8"/><path d="M449.94 157.988l-97.81 97.81-45.14-45.14L401.03 86.524l52.664 52.663z" fill="#185f8d"/><path d="M506.364 101.563l-33.855 33.855-18.815 3.77-45.14-45.14 52.664-37.617z" fill="#082947"/><path d="M416.076 101.57L306.988 210.66l-45.133-45.148 109.09-109.073z" fill="#4284b2"/><path d="M461.217 56.43l-45.14 45.14-45.132-45.132L416.076 11.3z" fill="#274b6d"/><path d="M228 154.23l-22.57-22.57L337.087 0l135.42 135.42-22.57 22.57-112.85-112.85z" fill="#98d9d5"/></svg>