<svg xmlns="http://www.w3.org/2000/svg" viewBox="0 0 512 512"><path fill="#082947" d="M28.2 512L5.6 489.4l48.1-48 22.6 22.5z"/><path fill="#98d9d5" d="M126.4 436.4l-53.9 53.9L50 467.7l46.3-61.4z"/><path fill="#c1e8e6" d="M103.9 413.8l-54 53.9L27.5 445l53.9-53.9z"/><path fill="#185f8d" d="M171.6 301L96.3 421.2 134 459l90.2-90.3z"/><path fill="#4284b2" d="M96.3 421.3l-37.6-37.6 90.3-90.3 45.1 30.1z"/><path fill="#6da8d6" d="M307 195.6L186.6 331l45.2 45.2L352 255.8z"/><path fill="#9ec8e8" d="M314.5 203.1l-127.9 128-45.1-45.2 120.4-120.4z"/><path fill="#185f8d" d="M450 158L352 255.8 307 210.7l94-124.2 52.7 52.7z"/><path fill="#082947" d="M506.4 101.6l-33.9 33.8-18.8 3.8L408.6 94l52.6-37.6z"/><path fill="#4284b2" d="M416 101.6l-109 109-45.1-45 109-109.2z"/><path fill="#274b6d" d="M461.2 56.4l-45.1 45.2-45.2-45.2 45.2-45.1z"/><path fill="#98d9d5" d="M228 154.2l-22.6-22.5L337.1 0l135.4 135.4L450 158 337.1 45z"/></svg>