<svg enable-background="new 0 0 512.001 512.001" viewBox="0 0 512.001 512.001" xmlns="http://www.w3.org/2000/svg"><path d="m25.001 442.68h31.919v67.993h-31.919z" fill="#082947" transform="matrix(-.7071 -.7071 .7071 -.7071 -267.1371 842.702)"/><path d="m126.42 436.352-53.902 53.903-22.563-22.563 46.379-61.426z" fill="#98d9d5"/><path d="m103.858 413.789-53.903 53.903-22.562-22.578 53.895-53.895z" fill="#c1e8e6"/><path d="m171.576 300.931-75.234 120.374 37.609 37.625 90.288-90.288z" fill="#185f8d"/><path d="m96.342 421.305c-.007.007-37.624-37.624-37.624-37.624l90.288-90.273 45.14 30.093z" fill="#4284b2"/><path d="m306.988 195.612-120.366 135.413 45.14 45.14 120.366-120.366z" fill="#6da8d6"/><path d="m314.512 203.136-127.89 127.889-37.617-37.617-7.523-7.523 120.373-120.374z" fill="#9ec8e8"/><path d="m449.939 157.988-97.811 97.811-45.14-45.14 94.042-124.135 52.664 52.663z" fill="#185f8d"/><path d="m506.364 101.563-33.855 33.855-18.815 3.769-45.141-45.14 52.664-37.617z" fill="#082947"/><path d="m416.076 101.57-109.088 109.089-45.133-45.148 109.089-109.073z" fill="#4284b2"/><path d="m461.217 56.43-45.141 45.14-45.132-45.132 45.132-45.148z" fill="#274b6d"/><path d="m227.999 154.229-22.571-22.57 131.659-131.659 135.42 135.42-22.57 22.57-112.85-112.85z" fill="#98d9d5"/></svg>