<svg viewBox="0 0 64 64" xmlns="http://www.w3.org/2000/svg" xmlns:xlink="http://www.w3.org/1999/xlink"><linearGradient id="a" gradientUnits="userSpaceOnUse"><stop offset="0" stop-color="#b3b3b3"/><stop offset=".36" stop-color="#fff"/><stop offset=".75" stop-color="#ccc"/><stop offset="1" stop-color="#999"/></linearGradient><linearGradient id="b" gradientTransform="matrix(1.15 .15 .15 1.15 -156.96 -1085.43)" x1="82.54" x2="89.91" xlink:href="#a" y1="962.43" y2="969.8"/><linearGradient id="c" gradientTransform="matrix(.91 .91 -.7 .7 -154.35 -1070.86)" gradientUnits="userSpaceOnUse" x1="738.91" x2="749.33" y1="632.15" y2="632.15"><stop offset="0" stop-color="#333"/><stop offset=".36" stop-color="#666"/><stop offset=".751" stop-color="#333"/><stop offset="1" stop-color="#1a1a1a"/></linearGradient><radialGradient id="d" cx="-84.1" cy="857.71" gradientTransform="matrix(.36 0 0 .41 129.42 -326.09)" gradientUnits="userSpaceOnUse" r="96.98"><stop offset="0" stop-color="#ffd42a"/><stop offset="1" stop-color="#f3361a"/></radialGradient><linearGradient id="e" gradientTransform="matrix(1.15 .15 .15 1.15 -156.96 -1085.43)" x1="8.8" x2="16.17" xlink:href="#a" y1="1036.17" y2="1043.54"/><g transform="matrix(.48 0 0 .48 1.04 1.05)"><path d="m110.09 22.36 17.41-1.41-15.79 7.48 15.79 7.48-17.41-1.41 9.93 14.37-14.37-9.93 1.41 17.41-7.48-15.79-7.48 15.79 1.41-17.41-14.37 9.93 9.93-14.37-17.41 1.41 15.79-7.48-15.79-7.48 17.41 1.41-9.93-14.37 14.37 9.93-1.41-17.41 7.48 15.79 7.48-15.79-1.41 17.41 14.37-9.93z" fill="url(#d)" stroke="#f60" stroke-linejoin="round" stroke-opacity=".65"/><path d="m96.8 21.39 9.6 9.6-94.47 94.47-9.6-9.6z" fill="#241c1c" stroke="#333" stroke-width="3.4"/><path d="m96.81 21.39-20.74 20.74 9.6 9.6 20.74-20.74z" fill="url(#b)"/><path d="m23.02 95.17-20.69 20.69 9.6 9.6 20.69-20.69z" fill="url(#e)"/><path d="m76.18 42.25 9.48 9.48-53.08 53.04-9.48-9.48z" fill="url(#c)"/></g></svg>