<svg xmlns="http://www.w3.org/2000/svg" xmlns:xlink="http://www.w3.org/1999/xlink" viewBox="0 0 128 128"><linearGradient id="A" gradientUnits="userSpaceOnUse"><stop offset="0" stop-color="#b3b3b3"/><stop offset=".359" stop-color="#fff"/><stop offset=".75" stop-color="#ccc"/><stop offset="1" stop-color="#999"/></linearGradient><linearGradient id="B" x1="82.544" x2="89.913" xlink:href="#A" y1="962.427" y2="969.796"/><linearGradient id="C" gradientUnits="userSpaceOnUse" x1="738.911" x2="749.333" y1="632.146" y2="632.146"><stop offset="0" stop-color="#333"/><stop offset=".36" stop-color="#666"/><stop offset=".751" stop-color="#333"/><stop offset="1" stop-color="#1a1a1a"/></linearGradient><radialGradient id="D" cx="-84.102" cy="857.708" gradientTransform="matrix(.3549 0 0 .4133 129.4164 598.2662)" gradientUnits="userSpaceOnUse" r="96.984"><stop offset="0" stop-color="#ffd42a"/><stop offset="1" stop-color="#f3361a"/></radialGradient><linearGradient id="E" x1="8.802" x2="16.171" xlink:href="#A" y1="1036.168" y2="1043.537"/><g transform="translate(0 -924.36)"><path d="M110.087 946.718l17.413-1.412-15.786 7.484 15.786 7.484-17.413-1.412 9.93 14.374-14.374-9.93 1.412 17.413-7.484-15.786-7.484 15.786 1.412-17.413-14.374 9.93 9.93-14.374-17.413 1.412 15.786-7.484-15.786-7.484 17.413 1.412-9.93-14.374 14.374 9.93-1.412-17.413 7.484 15.786 7.484-15.786-1.412 17.413 14.374-9.93z" fill="url(#D)" stroke="#f60" stroke-linejoin="round" stroke-opacity=".65"/><g fill-rule="evenodd" transform="matrix(1.1511 .1511 .1511 1.1511 -157.5774 -160.4456)"><path d="M96.588 948.402l7.37 7.37L9.49 1050.24l-7.37-7.37z" fill="#241c1c" stroke="#333" stroke-width="3"/><g transform="translate(.622 -.622)"><path d="M95.97 949.02L75.23 969.76l7.37 7.37 20.742-20.742z" fill="url(#B)"/><path d="M22.186 1022.804l-20.692 20.692 7.37 7.37 20.692-20.692z" fill="url(#E)"/><path d="M738.92 632.13h10.423v75.97H738.92z" fill="url(#C)" transform="matrix(.7071 .7071 -.7071 .7071 0 0)"/></g></g></g></svg>