<svg viewBox="0 0 128 128" xmlns="http://www.w3.org/2000/svg" xmlns:xlink="http://www.w3.org/1999/xlink"><linearGradient id="a" gradientUnits="userSpaceOnUse"><stop offset="0" stop-color="#b3b3b3"/><stop offset=".359" stop-color="#fff"/><stop offset=".75" stop-color="#ccc"/><stop offset="1" stop-color="#999"/></linearGradient><linearGradient id="b" x1="82.544" x2="89.913" xlink:href="#a" y1="962.427" y2="969.796"/><linearGradient id="c" gradientUnits="userSpaceOnUse" x1="738.911" x2="749.333" y1="632.146" y2="632.146"><stop offset="0" stop-color="#333"/><stop offset=".36" stop-color="#666"/><stop offset=".751" stop-color="#333"/><stop offset="1" stop-color="#1a1a1a"/></linearGradient><radialGradient id="d" cx="-84.102" cy="857.708" gradientTransform="matrix(.355 0 0 .413 129.416 598.266)" gradientUnits="userSpaceOnUse" r="96.984"><stop offset="0" stop-color="#ffd42a"/><stop offset="1" stop-color="#f3361a"/></radialGradient><linearGradient id="e" x1="8.802" x2="16.171" xlink:href="#a" y1="1036.168" y2="1043.537"/><g transform="translate(0 -924.36)"><path d="m110.087 946.718 17.413-1.412-15.786 7.484 15.786 7.484-17.413-1.412 9.93 14.374-14.374-9.93 1.412 17.413-7.484-15.786-7.484 15.786 1.412-17.413-14.374 9.93 9.93-14.374-17.413 1.412 15.786-7.484-15.786-7.484 17.413 1.412-9.93-14.374 14.374 9.93-1.412-17.413 7.484 15.786 7.484-15.786-1.412 17.413 14.374-9.93z" fill="url(#d)" stroke="#f60" stroke-linejoin="round" stroke-opacity=".65"/><g fill-rule="evenodd" transform="matrix(1.151 .151 .151 1.151 -157.577 -160.446)"><path d="m96.588 948.402 7.37 7.37-94.468 94.468-7.37-7.37z" fill="#241c1c" stroke="#333" stroke-width="3"/><g transform="translate(.622 -.622)"><path d="m95.97 949.02-20.74 20.74 7.37 7.37 20.742-20.742z" fill="url(#b)"/><path d="m22.186 1022.804-20.692 20.692 7.37 7.37 20.692-20.692z" fill="url(#e)"/><path d="m738.92 632.13h10.423v75.97h-10.423z" fill="url(#c)" transform="matrix(.707 .707 -.707 .707 0 0)"/></g></g></g></svg>