<svg xmlns="http://www.w3.org/2000/svg" viewBox="0 0 64 64"><path fill="#828186" d="M36.8 17L4.4 49.6a8.2 8.2 0 000 11.5A8.2 8.2 0 0016 61l32.3-32.3zM13 56.8a3 3 0 01-4.3-4.2 3 3 0 014.3 4.2z"/><path fill="#555558" d="M29.6 24.3a22.6 22.6 0 0011.6 11.5l7.1-7.1L36.8 17z"/><path fill="#484849" d="M16.5 48.9a3.7 3.7 0 010-5.2l19-19 5.2 5.2-19 19a3.7 3.7 0 01-5.2 0z"/><path fill="#555558" d="M17.4 49.5a3.7 3.7 0 004.3-.6l19.1-19.1-3.7-3.7-19 19.1a3.7 3.7 0 00-.7 4.4z"/><path fill="#bfbdc3" d="M63.2 16a1 1 0 00-.6-.7 1 1 0 00-1 .2l-4 4a4.8 4.8 0 01-6.7 0l-5-5a4.8 4.8 0 010-6.7l4-4a.9.9 0 00.2-1 1 1 0 00-.7-.6c-4.6-.8-9.4.5-12.8 4-5.8 5.8-5.5 15.6.8 21.9s16 6.6 22 .8c3.3-3.4 4.6-8.2 3.8-12.9z"/></svg>