<svg viewBox="0 0 64 64" xmlns="http://www.w3.org/2000/svg"><path d="m36.76 17.09-32.36 32.36a8.2 8.2 0 0 0 0 11.59 8.2 8.2 0 0 0 11.59 0l32.36-32.36zm-23.79 39.63c-1.17 1.17-3.08 1.17-4.25 0s-1.17-3.08 0-4.25 3.08-1.17 4.25 0 1.17 3.08 0 4.25z" fill="#828186"/><path d="m29.6 24.25c1.09 2.48 2.67 4.82 4.72 6.87s4.39 3.63 6.87 4.72l7.16-7.16-11.59-11.59z" fill="#555558"/><path d="m16.46 48.89a3.68 3.68 0 0 1 0-5.21l18.99-18.99 5.21 5.21-18.99 18.99a3.68 3.68 0 0 1 -5.21 0z" fill="#484849"/><path d="m17.35 49.55a3.69 3.69 0 0 0 4.32-.66l19.13-19.13-3.66-3.66-19.13 19.13a3.69 3.69 0 0 0 -.66 4.32z" fill="#555558"/><path d="m63.22 16.03a.93.93 0 0 0 -.62-.72c-.33-.1-.68-.02-.92.22l-4.06 4.06a4.78 4.78 0 0 1 -6.75 0l-5.01-5.01a4.78 4.78 0 0 1 0-6.75l4.06-4.06a.9.9 0 0 0 .22-.92.93.93 0 0 0 -.72-.62c-4.64-.79-9.43.5-12.84 3.91-5.82 5.82-5.46 15.63.82 21.91s16.09 6.65 21.91.82c3.42-3.42 4.7-8.2 3.91-12.84z" fill="#bfbdc3"/></svg>