<svg viewBox="0 0 64 64" xmlns="http://www.w3.org/2000/svg"><path d="m55.5 4.96c5.16 5.16 5.16 13.56 0 18.72l-26.82 26.81a8.24 8.24 0 0 1 -11.64 0 8.24 8.24 0 0 1 0-11.64l18.64-18.62c2.69-2.69 5.6.47 3.04 3.04l-18.64 18.62c-1.53 1.53-1.53 4.03 0 5.57 1.53 1.53 4.03 1.53 5.57 0l26.82-26.82c3.49-3.49 3.49-9.16 0-12.65s-9.16-3.49-12.65 0l-26.82 26.82a13.97 13.97 0 0 0 0 19.73 13.97 13.97 0 0 0 19.73 0l18.63-18.63c2.52-2.52 5.5.57 3.04 3.04l-18.63 18.63c-7.11 7.11-18.69 7.11-25.8 0s-7.11-18.69 0-25.8l26.81-26.82c5.16-5.16 13.56-5.16 18.72 0z" fill="#494" stroke="#494" stroke-linejoin="round" stroke-width="2.1"/></svg>