<svg viewBox="0 0 64 64" xmlns="http://www.w3.org/2000/svg"><path d="m28.78 61-5.24-8.58-9.78 2.36-4.54-4.54 2.36-9.78-8.58-5.24v-6.44l8.56-5.24-2.34-9.78 4.54-4.54 9.78 2.36 5.24-8.58h6.44l5.24 8.58 9.78-2.36 4.54 4.54-2.36 9.78 8.58 5.24v6.44l-8.58 5.24 2.36 9.76-4.54 4.54-9.78-2.36-5.24 8.58zm6.12-18.14c6-1.62 9.56-7.78 7.94-13.78-1.6-5.98-7.78-9.54-13.76-7.94-6 1.6-9.56 7.78-7.94 13.78 1.62 5.98 7.78 9.54 13.76 7.94" fill="#f60" stroke="#f60" stroke-linecap="round" stroke-linejoin="round" stroke-width="2"/></svg>