<svg viewBox="0 0 64 64" xmlns="http://www.w3.org/2000/svg"><path d="m49.66 8.91h-7.59v-1.83c0-2.55-2.08-4.63-4.63-4.63h-11.07c-2.56 0-4.63 2.09-4.63 4.63v1.83h-7.59c-2.62 0-4.76 2.14-4.76 4.76v4.93c0 1.05.84 1.9 1.9 1.9h.98v38.98c0 1.05.84 1.9 1.9 1.9h35.46c1.05 0 1.9-.84 1.9-1.9v-38.98h.98c1.05 0 1.9-.84 1.9-1.9v-4.94c-.01-2.62-2.14-4.75-4.77-4.75z" fill="#ee9" stroke="#ee9" stroke-width="3"/><g stroke-width="1.9" fill="#f60"><path d="m26.45 6.27c-.46 0-.84.37-.84.84v1.82h12.76v-1.82c0-.46-.37-.84-.84-.84zm-12.24 6.47c-.53 0-.96.43-.96.96v3.04h37.52v-3.04c0-.53-.43-.96-.96-.96zm1.93 7.81v37.18h31.73v-37.18z"/><g fill="#ee9" stroke="#ee9"><path d="m25.22 55.32c.71 0 1.26-.57 1.26-1.26v-30.02c0-.71-.57-1.26-1.26-1.26-.71 0-1.26.57-1.26 1.26v30.02c0 .71.57 1.26 1.26 1.26z"/><path d="m38.87 55.32c.71 0 1.26-.57 1.26-1.26v-30.02c0-.71-.57-1.26-1.26-1.26-.71 0-1.26.57-1.26 1.26v30.02c0 .71.57 1.26 1.26 1.26z"/></g></g></svg>