<svg viewBox="0 0 64 64" xmlns="http://www.w3.org/2000/svg"><path d="m60.69 17.91c-1.77-3.81-4.66-8.26-11.29-8.77a1.48 1.48 0 0 1 -1.15-.72c-3.47-5.67-8.09-5.33-8.28-5.31l-.68.06-.19.65c-.06.22-1.63 5.27-7.02 5.27-7.54 0-10.63 4.46-12.66 8.82-2.08 4.47-1.68 9.54 1.09 14.2l1.6 3.24c.02 6.73.72 13.56 5.52 18.12.77.73 1.6 1.39 2.46 2.01l1.99 1.38c.11.07.22.15.34.22l.96.64c.38.26.75.53 1.12.8 1.6 1.18 3.25 2.4 5.57 2.4s3.97-1.22 5.57-2.4l1.11-.8.96-.64c.11-.07.22-.15.33-.22l1.99-1.38c.85-.62 1.68-1.27 2.46-2.01 4.81-4.56 5.53-11.41 5.55-18.17l1.54-3.12c2.8-4.73 3.2-9.8 1.13-14.27zm-4.66 17.1c0 6.41-.6 12.91-4.93 17.02-.77.73-1.63 1.4-2.52 2.03a1.31 1.31 0 0 0 -.27.19l-1.73 1.18-.97.65c-.4.27-.79.56-1.18.85-1.4 1.03-2.72 2.01-4.38 2.01s-2.99-.98-4.38-2.01c-.39-.29-.78-.58-1.18-.85l-.97-.65c-1.56-1.04-3.17-2.12-4.52-3.4-4.52-4.29-4.9-10.97-4.9-16.9l.03-9.09c0-.67.13-1.33.39-1.94.68-1.61 2.31-2.56 4.09-2.56.57 0 1.16.1 1.74.31 1.52.55 4.44 1.21 9.73 1.21s8.2-.66 9.73-1.21c2.38-.86 4.94.13 5.83 2.26.26.61.39 1.27.39 1.94v8.97zm-6.9-15.04c-1.37.5-4.05 1.09-9.05 1.09s-7.68-.59-9.05-1.09c-3.37-1.22-7.04.25-8.35 3.36a7.02 7.02 0 0 0 -.55 2.71l-.01 4.89c-2.33-4.08-2.65-8.39-.89-12.17 2.53-5.45 5.67-7.67 10.85-7.67 4.97 0 7.69-3.56 8.67-5.95 1.14.14 3.67.86 5.8 4.34.58.95 1.59 1.58 2.7 1.66 4.49.35 7.29 2.56 9.64 7.62 1.74 3.74 1.44 8-.85 12.1v-4.82a7.03 7.03 0 0 0 -.55-2.72c-1.31-3.1-4.98-4.58-8.35-3.35z" stroke="#494" stroke-width="4"/><path d="m23.42 49.01h-17.42c-2.48 0-4.5-2.01-4.5-4.5 0-2.48 2.01-4.5 4.5-4.5h17.42l-5.81-5.81c-1.76-1.76-1.76-4.61 0-6.36 1.76-1.76 4.61-1.76 6.36 0l13.49 13.49.3.33c.04.05.08.1.12.16.05.07.1.13.15.2.04.06.08.13.12.19s.07.12.11.19.07.13.1.2l.09.2c.03.07.05.13.07.2.03.07.05.14.07.22.02.07.04.13.05.2.02.07.04.15.05.22.02.08.02.16.04.23.01.07.02.13.03.2.02.14.02.29.02.44v.01c0 .15-.01.29-.02.44-.01.07-.02.13-.03.2-.01.08-.02.16-.04.24-.02.07-.04.15-.05.22-.02.07-.03.14-.05.2-.02.07-.05.14-.07.21s-.05.13-.07.2c-.03.07-.06.13-.09.19-.03.07-.06.14-.1.21-.03.06-.07.12-.1.18l-.12.2c-.04.07-.09.13-.14.19-.04.05-.08.11-.12.16-.09.11-.19.21-.28.31l-13.54 13.51c-.88.88-2.03 1.32-3.18 1.32s-2.3-.44-3.18-1.32c-1.76-1.76-1.76-4.61 0-6.36z" fill="#494" stroke="#000" stroke-width="3"/></svg>