<svg viewBox="0 0 64 64" xmlns="http://www.w3.org/2000/svg"><path d="m31.33 35.07h-26.48a3 3 0 0 1 -3-3 3 3 0 0 1 3-3h26.48l-3.88-3.86c-1.17-1.17-1.17-3.06 0-4.24 1.17-1.17 3.06-1.17 4.24 0l8.99 8.99a3.47 3.47 0 0 1 .2.22c.03.03.06.07.08.1.03.04.07.09.1.13s.06.09.08.13.06.08.08.12.04.09.07.13l.07.13c.02.04.03.09.04.13.02.04.03.1.06.14.01.04.02.09.03.13.01.06.02.1.03.16s.01.1.02.16c.01.04.01.09.02.13.01.1.01.19.01.29v.01c0 .1-.01.19-.01.29 0 .04-.01.09-.02.13-.01.06-.01.11-.02.16-.01.06-.02.1-.03.14s-.02.09-.03.13-.03.09-.06.14c-.01.04-.03.09-.06.13-.02.04-.04.09-.06.13l-.07.13c-.02.04-.04.08-.07.12l-.08.13c-.03.04-.07.09-.09.13-.03.03-.06.08-.08.11-.06.07-.12.14-.19.21l-9 9c-.59.59-1.35.88-2.12.88s-1.53-.29-2.12-.88c-1.17-1.17-1.17-3.06 0-4.24zm27.67-29.97h-37.96a3 3 0 0 0 -3 3v8.9a3 3 0 0 0 3 3 3 3 0 0 0 3-3v-5.9h31.97v41.96h-31.97v-5.9a3 3 0 0 0 -3-3 3 3 0 0 0 -3 3v8.89a3 3 0 0 0 3 3h37.96a3 3 0 0 0 3-3v-47.95a3 3 0 0 0 -3-3z" fill="#f60"/></svg>