<svg viewBox="0 0 64 64" xmlns="http://www.w3.org/2000/svg"><path d="m51.21 175h132.49a15.01 15.01 0 0 0 15-15 15.01 15.01 0 0 0 -15-15h-132.49l19.39-19.39c5.86-5.86 5.86-15.36 0-21.21-5.86-5.86-15.36-5.86-21.21 0l-44.99 44.99a17.39 17.39 0 0 0 -1 1.1c-.14.17-.26.34-.39.52-.17.22-.34.44-.49.66-.14.21-.26.43-.39.64-.12.21-.25.41-.37.62-.12.22-.22.45-.32.67l-.31.66c-.09.22-.16.44-.24.66-.09.24-.18.48-.25.72-.07.22-.12.45-.17.67-.06.25-.13.5-.18.75-.05.26-.08.52-.12.78-.03.22-.08.44-.1.67-.05.48-.07.97-.07 1.46v.04c0 .49.03.97.07 1.46.02.22.06.44.1.66.04.26.07.53.12.79.05.25.12.5.18.74.06.23.11.46.18.68.07.24.16.47.25.71.08.23.16.45.25.68.09.22.2.43.3.65.11.23.21.46.33.69.11.21.24.4.35.6l.4.66c.15.22.31.42.47.64.14.18.26.37.41.54.3.36.62.71.95 1.05l45.05 45.05c2.93 2.93 6.77 4.39 10.61 4.39s7.68-1.47 10.61-4.39c5.86-5.86 5.86-15.36 0-21.21zm253.79-150h-190a15.01 15.01 0 0 0 -15 15v44.52a15.01 15.01 0 0 0 15 15 15.01 15.01 0 0 0 15-15v-29.52h160v210h-160v-29.52a15.01 15.01 0 0 0 -15-15 15.01 15.01 0 0 0 -15 15v44.52a15.01 15.01 0 0 0 15 15h190a15.01 15.01 0 0 0 15-15v-240a15.01 15.01 0 0 0 -15-15z" fill="#494" stroke="#494" stroke-width="5" transform="matrix(-.18 0 0 .18 61.01 2.99)"/></svg>