<svg viewBox="0 0 64 64" xmlns="http://www.w3.org/2000/svg"><path d="m12.49 4c-.93 0-1.86.38-2.55 1.07a1.86 1.86 0 0 0 -.01.01l-4.87 4.91c-1.38 1.38-1.38 3.74 0 5.12a1.86 1.86 0 0 0 .01.01l17.01 16.88-17.02 16.92c-1.38 1.38-1.38 3.74 0 5.12l4.92 4.92c1.38 1.38 3.74 1.38 5.12 0l17.01-16.89 16.8 16.89c1.38 1.38 3.74 1.38 5.12 0l4.92-4.92c1.38-1.38 1.38-3.73 0-5.12l-16.84-16.92 16.8-16.89c1.42-1.4 1.44-3.76-.04-5.16l-4.88-4.9c-1.38-1.38-3.73-1.38-5.12 0a1.86 1.86 0 0 0 -.01.01l-16.75 16.89-17.06-16.89c-.69-.68-1.62-1.06-2.56-1.06z" fill="#ee9"/></svg>