<svg viewBox="0 0 64 64" xmlns="http://www.w3.org/2000/svg"><path d="m4.36 24.65.3.15 19.86 17.88 4.34-3.67c.43-.37.93-.65 1.47-.83.53-.19 1.23-.28 1.79-.28.57 0 1.01.09 1.54.28s1.03.46 1.47.83l4.34 3.67 19.87-17.88.54-.05m-55.22 33.89 24.2-19.42c1.73-1.48 4.53-1.48 6.26 0l24.21 19.41c.76.64.31 1.89-.69 1.89h-53.3c-.99 0-1.44-1.24-.68-1.88zm27.46-55.17c-1.14 0-2.42.38-3.29 1.14l-24.47 16.77c-.15.14-.25.3-.31.46-.24.33-.38.72-.38 1.15v35.57c0 1.08.87 1.95 1.95 1.95h52.76c1.08 0 1.95-.87 1.95-1.95v-35.57c0-.43-.15-.83-.38-1.15-.06-.17-.15-.33-.31-.46l-24.48-16.77c-.88-.76-1.89-1.14-3.04-1.14z" fill="none" stroke="#ee9" stroke-linecap="round" stroke-linejoin="round" stroke-width="5"/></svg>