<svg viewBox="0 0 64 64" xmlns="http://www.w3.org/2000/svg"><g fill="#494" stroke="#494" stroke-width="1"><path d="m57.99 13.4v5.88c-.42-.73-.88-1.45-1.37-2.14-1.71-2.43-3.78-4.58-6.16-6.37-2.4-1.81-5.06-3.22-7.9-4.19-2.94-1-6.01-1.51-9.14-1.51-3.27 0-6.47.55-9.52 1.64-2.95 1.05-5.69 2.58-8.15 4.54-2.43 1.94-4.52 4.25-6.2 6.87-1.71 2.66-2.95 5.57-3.69 8.64-.47 1.97.74 3.96 2.71 4.43.29.07.58.1.86.1 1.66 0 3.16-1.13 3.57-2.82 1.08-4.5 3.69-8.58 7.33-11.49 1.82-1.45 3.85-2.58 6.03-3.36 2.26-.81 4.63-1.21 7.05-1.21 4.6 0 8.96 1.46 12.62 4.21 2.48 1.87 4.52 4.28 5.96 7.01h-4.07c-2.03 0-3.68 1.65-3.68 3.68s1.65 3.68 3.68 3.68h13.73c2.03 0 3.68-1.65 3.68-3.68v-13.92c0-2.03-1.65-3.68-3.68-3.68s-3.68 1.65-3.68 3.68z"/><path d="m5.17 57.11c2.03 0 3.68-1.65 3.68-3.68v-5.9c2.19 3.81 5.24 7.07 8.94 9.52 4.64 3.08 10.04 4.7 15.62 4.71h.01.01.01.01c3.26 0 6.45-.55 9.49-1.64 2.95-1.05 5.69-2.58 8.15-4.54 2.43-1.94 4.52-4.25 6.2-6.87 1.71-2.66 2.95-5.57 3.69-8.64.47-1.97-.74-3.96-2.71-4.43s-3.96.74-4.43 2.71c-1.08 4.5-3.69 8.58-7.33 11.49-1.82 1.45-3.85 2.58-6.03 3.36-2.26.8-4.63 1.21-7.05 1.21-4.14 0-8.14-1.21-11.58-3.48-2.96-1.96-5.36-4.62-7-7.74h4.06c2.03 0 3.68-1.65 3.68-3.68s-1.65-3.68-3.68-3.68h-13.73c-2.03 0-3.68 1.65-3.68 3.68v13.92c0 2.03 1.65 3.68 3.68 3.68z"/></g></svg>