<svg viewBox="0 0 64 64" xmlns="http://www.w3.org/2000/svg"><g fill="#f60" stroke-width="8.6"><path d="m43.23 51.5h-30.91a3.5 3.5 0 0 1 -3.5-3.5 3.5 3.5 0 0 1 3.5-3.5h30.92l-4.52-4.52c-1.37-1.37-1.37-3.58 0-4.95s3.58-1.37 4.95 0l10.5 10.5a4.06 4.06 0 0 1 .23.26c.03.04.06.08.09.12.04.05.08.1.11.15s.06.1.09.15.06.1.09.14c.03.05.05.11.07.16l.07.15c.02.05.04.1.06.15.02.06.04.11.06.17.02.05.03.11.04.16.01.06.03.12.04.18s.02.12.03.18c.01.05.02.1.02.16.01.11.02.23.02.34v.01c0 .11-.01.23-.02.34-.01.05-.01.1-.02.15-.01.06-.02.12-.03.18s-.03.12-.04.17-.03.11-.04.16c-.02.06-.04.11-.06.17-.02.05-.04.11-.06.16s-.05.1-.07.15c-.03.05-.05.11-.08.16s-.06.09-.08.14l-.09.15c-.04.05-.07.1-.11.15-.03.04-.06.09-.1.13-.07.08-.14.17-.22.25l-10.52 10.51c-.68.68-1.58 1.02-2.47 1.02-.9 0-1.79-.34-2.48-1.02-1.37-1.37-1.37-3.58 0-4.95z"/><path d="m43.23 19.5h-30.91a3.5 3.5 0 0 1 -3.5-3.5 3.5 3.5 0 0 1 3.5-3.5h30.91l-4.52-4.53c-1.37-1.37-1.37-3.58 0-4.95s3.58-1.37 4.95 0l10.5 10.5a4.06 4.06 0 0 1 .23.26c.03.04.06.08.09.12.04.05.08.1.11.15s.06.1.09.15.06.1.09.14c.03.05.05.11.07.16l.07.15c.02.05.04.1.06.15.02.06.04.11.06.17.02.05.03.11.04.16.01.06.03.12.04.18s.02.12.03.18c.01.05.02.1.02.16.01.11.02.23.02.34v.01c0 .11-.01.23-.02.34-.01.05-.01.1-.02.15-.01.06-.02.12-.03.18s-.03.12-.04.17-.03.11-.04.16c-.02.06-.04.11-.06.17-.02.05-.04.11-.06.16s-.05.1-.07.15c-.03.05-.05.11-.08.16s-.06.09-.08.14l-.09.15c-.04.05-.07.1-.11.15-.03.04-.06.09-.1.13-.07.08-.14.17-.22.25l-10.51 10.51c-.68.68-1.58 1.02-2.48 1.02s-1.79-.34-2.48-1.02c-1.37-1.37-1.37-3.58 0-4.95z"/></g></svg>