<svg viewBox="0 0 64 64" xmlns="http://www.w3.org/2000/svg"><path d="m47.02 36.68h-41.34a4.68 4.68 0 0 1 -4.68-4.68 4.68 4.68 0 0 1 4.68-4.68h41.34l-6.05-6.05c-1.83-1.83-1.83-4.79 0-6.62s4.79-1.83 6.62 0l14.04 14.04a5.43 5.43 0 0 1 .31.34c.04.05.08.11.12.16.05.07.11.14.15.21s.08.13.12.2.08.13.12.19c.04.07.07.14.1.21l.1.21c.03.07.05.14.07.21.03.07.06.15.08.22s.04.14.05.21c.02.08.04.16.06.23.02.08.02.16.04.24.01.07.02.14.03.21.02.15.02.3.02.46v.01c0 .15-.01.3-.02.46-.01.07-.02.14-.03.21-.01.08-.02.17-.04.25s-.04.16-.06.23-.03.14-.06.21c-.02.07-.05.15-.08.22-.02.07-.05.14-.08.21s-.06.13-.09.2-.07.14-.1.22c-.03.07-.07.12-.11.19l-.12.21c-.05.07-.1.13-.15.2-.04.06-.08.12-.13.17-.09.11-.19.22-.3.33l-14.06 14.06c-.91.91-2.11 1.37-3.31 1.37s-2.4-.46-3.31-1.37c-1.83-1.83-1.83-4.79 0-6.62z" fill="#f60" stroke-width="11"/></svg>