<svg xmlns="http://www.w3.org/2000/svg" viewBox="0 0 64 64"><path d="M46.7 36.5v23.63c0 1.86-1.46 3.37-3.26 3.37H3.26C1.46 63.5 0 62 0 60.13V3.87C0 2 1.46.5 3.26.5h40.2c1.8 0 3.26 1.5 3.26 3.37V27.5" fill="#536c53"/><path d="M8.7 63.5H3.26A3.26 3.26 0 0 1 0 60.24V3.76A3.26 3.26 0 0 1 3.26.5H8.7z" fill="#374837"/><path d="M27 .5v19.25c0 .6.7.96 1.18.6l3.74-6.55 3.74 6.55c.5.37 1.15.02 1.18-.6V.5z" fill="#ff2a2a"/><circle cx="44.33" cy="44.33" fill="#00d400" r="19.67"/><path d="M46.78 30.7c-.27-.27-.65-.43-1.04-.43a.76.76 0 0 0 0 0l-2.8.01a1.5 1.5 0 0 0-1.47 1.47.76.76 0 0 0 0 0l.04 9.73-9.74-.02c-.8 0-1.46.68-1.46 1.47v2.83a1.5 1.5 0 0 0 1.47 1.47l9.73.04-.02 9.67a1.5 1.5 0 0 0 1.47 1.47h2.83a1.49 1.49 0 0 0 1.47-1.47l.02-9.7 9.67-.02c.8 0 1.5-.67 1.47-1.5v-2.8a1.5 1.5 0 0 0-1.47-1.47.76.76 0 0 0 0 0l-9.66.04-.04-9.74a1.47 1.47 0 0 0-.43-1.04z" fill="#003000" stroke="#003000" stroke-linejoin="round" stroke-width="1.86"/></svg>