<svg xmlns="http://www.w3.org/2000/svg" viewBox="0 0 64 64"><linearGradient id="A" gradientUnits="userSpaceOnUse" x1="45.17" x2="45.17" y1="26.13" y2="49.6"><stop offset="0" stop-color="#0055d4"/><stop offset="1" stop-color="#003380"/></linearGradient><path d="M46.7 36.5v23.63c0 1.86-1.46 3.37-3.26 3.37H3.26C1.46 63.5 0 62 0 60.13V3.87C0 2 1.46.5 3.26.5h40.2c1.8 0 3.26 1.5 3.26 3.37V27.5" fill="#536c53"/><path d="M8.7 63.5H3.26A3.26 3.26 0 0 1 0 60.24V3.76A3.26 3.26 0 0 1 3.26.5H8.7z" fill="#374837"/><path d="M27 .5v19.25c0 .6.7.96 1.18.6l3.74-6.55 3.74 6.55c.5.37 1.15.02 1.18-.6V.5z" fill="#ff2a2a"/><circle cx="44.33" cy="44.33" fill="url(#A)" r="19.67"/><path d="M46.56 31.7a1.37 1.37 0 0 0-.96-.4l-2.6.01a1.39 1.39 0 0 0-1.36 1.36l.04 9-9-.02c-.74 0-1.35.63-1.35 1.36v2.62A1.39 1.39 0 0 0 32.69 47l9 .04-.02 8.95a1.39 1.39 0 0 0 1.36 1.36h2.62a1.38 1.38 0 0 0 1.36-1.36l.02-8.97 8.95-.02c.74 0 1.4-.62 1.36-1.4v-2.6a1.39 1.39 0 0 0-1.36-1.36l-8.94.04-.04-9a1.36 1.36 0 0 0-.4-.96z" fill="#fff" stroke="#fff" stroke-linejoin="round"/></svg>