<svg xmlns="http://www.w3.org/2000/svg" xmlns:xlink="http://www.w3.org/1999/xlink" viewBox="0 0 64 64"><defs/><defs><path id="a" d="M11.365 56.101c-1.469 0-2.8-.885-3.363-2.244s-.251-2.926.789-3.967a3.64 3.64 0 014.39-.574 3.634 3.634 0 011.696 4.088 3.64 3.64 0 01-3.512 2.697zm0 0"/></defs><path fill="#040" d="M4.571 0h54.858A4.567 4.567 0 0164 4.571v54.858A4.567 4.567 0 0159.429 64H4.571A4.567 4.567 0 010 59.429V4.571A4.567 4.567 0 014.571 0zm0 0"/><path d="M62.551 1.24L1.254 62.537A4.567 4.567 0 004.57 64h54.86A4.567 4.567 0 0064 59.43V4.57a4.567 4.567 0 00-1.449-3.33z" opacity=".2"/><g transform="translate(.009 .002)"><path fill="#f00" d="M8.139 48.05a4.209 4.209 0 112.1-7.846 4.203 4.203 0 01-2.1 7.846zm11.932 0a4.209 4.209 0 112.1-7.846 4.203 4.203 0 011.961 4.727 4.209 4.209 0 01-4.061 3.119zm0 0"/><path fill="#2f2" d="M31.992 48.05a4.2 4.2 0 01-3.889-2.595 4.209 4.209 0 015.989-5.251 4.2 4.2 0 011.956 4.727 4.205 4.205 0 01-4.056 3.119zm0 0"/><path fill="#f00" d="M43.924 48.05a4.207 4.207 0 01-2.977-7.179 4.209 4.209 0 015.076-.667 4.204 4.204 0 01-2.1 7.846zm11.932 0a4.197 4.197 0 01-3.888-2.595 4.205 4.205 0 01.912-4.584 4.209 4.209 0 017.033 4.06 4.201 4.201 0 01-4.058 3.119zm0 0"/><path fill="#2f2" d="M5.163 34.99a4.197 4.197 0 002.976 1.243 4.186 4.186 0 002.976-1.243 4.206 4.206 0 000-5.947 4.209 4.209 0 00-5.948 0 4.212 4.212 0 00-.005 5.947zm11.933 0a4.197 4.197 0 002.976 1.243 4.186 4.186 0 002.976-1.243 4.209 4.209 0 000-5.947 4.209 4.209 0 00-5.948 0 4.212 4.212 0 00-.005 5.947zm11.919 0a4.197 4.197 0 002.976 1.243 4.2 4.2 0 002.976-1.243 4.209 4.209 0 00-.005-5.947 4.2 4.2 0 00-5.943 0 4.209 4.209 0 00-.005 5.947zm11.933 0a4.194 4.194 0 002.976 1.243A4.197 4.197 0 0046.9 34.99a4.209 4.209 0 00-.005-5.947 4.2 4.2 0 00-5.943 0 4.209 4.209 0 00-.005 5.947zm11.919 0a4.18 4.18 0 005.952 0 4.209 4.209 0 00-.005-5.947 4.209 4.209 0 00-5.948 0 4.206 4.206 0 000 5.947zm0 0"/><path fill="#f00" d="M5.163 23.171a4.221 4.221 0 002.976 1.236 4.2 4.2 0 002.976-1.236 4.209 4.209 0 00.925-4.599 4.221 4.221 0 00-3.901-2.611 4.213 4.213 0 00-3.896 2.611 4.209 4.209 0 00.92 4.599zm11.933 0a4.216 4.216 0 002.976 1.236 4.209 4.209 0 003.901-5.835 4.221 4.221 0 00-3.901-2.611 4.215 4.215 0 00-3.897 2.611 4.209 4.209 0 00.922 4.599zm0 0"/><path fill="#2f2" d="M29.016 23.171a4.209 4.209 0 002.976 1.236 4.21 4.21 0 002.976-1.236 4.216 4.216 0 00.925-4.599 4.221 4.221 0 00-7.803-.001 4.217 4.217 0 00.925 4.599zm0 0"/><path fill="#f00" d="M40.949 23.171a4.209 4.209 0 002.976 1.236 4.21 4.21 0 002.976-1.236 4.215 4.215 0 00.924-4.599 4.221 4.221 0 00-7.802 0 4.217 4.217 0 00.925 4.599zm11.919 0a4.2 4.2 0 002.976 1.236 4.221 4.221 0 002.976-1.236 4.209 4.209 0 00.92-4.599 4.214 4.214 0 00-3.896-2.611 4.221 4.221 0 00-3.901 2.611 4.209 4.209 0 00.925 4.599zm0 0"/><path fill="#fa0" d="M8.139 12.568a4.186 4.186 0 01-2.976-1.24 4.221 4.221 0 01-.506-5.332 4.225 4.225 0 015.129-1.54 4.232 4.232 0 012.509 4.732 4.221 4.221 0 01-4.155 3.38zm0 0"/><path fill="#f00" d="M20.06 12.568a4.186 4.186 0 01-2.977-1.24 4.226 4.226 0 01-.511-5.332 4.221 4.221 0 017.639 3.193 4.215 4.215 0 01-4.151 3.38zm0 0"/><path fill="#2f2" d="M31.992 12.568a4.186 4.186 0 01-2.976-1.24 4.225 4.225 0 01-.512-5.332 4.221 4.221 0 113.487 6.573zm0 0"/><path fill="#f00" d="M43.912 12.568a4.174 4.174 0 01-2.976-1.24 4.221 4.221 0 01-.511-5.332 4.222 4.222 0 015.128-1.539 4.221 4.221 0 01-1.642 8.112zm0 0"/><g fill="#fa0" transform="translate(-5.002 -5.002) scale(1.156)"><path d="M52.621 15.195a3.607 3.607 0 01-2.574-1.072 3.65 3.65 0 01-.442-4.612c.97-1.444 2.828-2 4.435-1.331a3.65 3.65 0 01-1.42 7.015zm0 0"/><use width="100%" height="100%" xlink:href="#a"/></g><use width="100%" height="100%" x="10.319" fill="#f00" transform="translate(-5.002 -5.002) scale(1.156)" xlink:href="#a"/><path fill="#2f2" d="M31.992 59.868a4.209 4.209 0 01-3.889-2.595 4.214 4.214 0 01.912-4.587 4.209 4.209 0 015.076-.664 4.197 4.197 0 011.956 4.727 4.206 4.206 0 01-4.056 3.119zm0 0"/><path fill="#f00" d="M43.924 59.868a4.209 4.209 0 112.1-7.846 4.2 4.2 0 011.956 4.727 4.209 4.209 0 01-4.056 3.119zm0 0"/><path fill="#fa0" d="M55.856 59.868a4.205 4.205 0 01-3.888-2.595 4.209 4.209 0 015.987-5.251 4.205 4.205 0 01-2.1 7.846zm0 0"/></g></svg>