<svg xmlns="http://www.w3.org/2000/svg" xmlns:xlink="http://www.w3.org/1999/xlink" viewBox="0 0 64 64"><defs><path id="a" d="M11.37 56.1a3.64 3.64 0 111.82-6.78 3.63 3.63 0 011.69 4.08 3.64 3.64 0 01-3.52 2.7zm0 0"/></defs><path fill="#030" d="M4.57 0h54.86A4.57 4.57 0 0164 4.57v54.86A4.57 4.57 0 0159.43 64H4.57A4.57 4.57 0 010 59.43V4.57A4.57 4.57 0 014.57 0zm0 0"/><path d="M62.55 1.24l-61.3 61.3A4.57 4.57 0 004.57 64h54.86A4.57 4.57 0 0064 59.43V4.57a4.57 4.57 0 00-1.45-3.33z" opacity=".5"/><path fill="#fa0" d="M8.15 48.05a4.2 4.2 0 112.1-7.84 4.2 4.2 0 01-2.1 7.84zm11.93 0a4.2 4.2 0 114.06-3.12 4.2 4.2 0 01-4.06 3.12zm0 0"/><path fill="#7f7" d="M32 48.05a4.2 4.2 0 112.11-7.84A4.2 4.2 0 0132 48.05zm0 0"/><path fill="#fa0" d="M43.93 48.05a4.2 4.2 0 112.1-7.84 4.2 4.2 0 01-2.1 7.84zm11.94 0a4.2 4.2 0 01-2.98-7.18 4.2 4.2 0 112.97 7.18zm0 0"/><path fill="#7f7" d="M5.17 35a4.2 4.2 0 002.98 1.23A4.19 4.19 0 0011.12 35a4.2 4.2 0 10-5.94-5.95 4.21 4.21 0 000 5.95zm11.93 0a4.2 4.2 0 002.98 1.23A4.19 4.19 0 0023.06 35a4.2 4.2 0 10-5.95-5.95 4.21 4.21 0 000 5.95zm11.92 0a4.2 4.2 0 105.96-5.95A4.2 4.2 0 1029.03 35zm11.94 0a4.2 4.2 0 100-5.95 4.2 4.2 0 000 5.95zm11.92 0a4.18 4.18 0 005.95 0 4.21 4.21 0 10-5.95-.01zm0 0"/><path fill="#fa0" d="M5.17 23.17a4.22 4.22 0 002.98 1.24 4.2 4.2 0 002.97-1.24 4.2 4.2 0 00.93-4.6 4.22 4.22 0 00-3.9-2.6 4.21 4.21 0 00-3.9 2.6 4.2 4.2 0 00.92 4.6zm11.93 0a4.22 4.22 0 002.98 1.24 4.2 4.2 0 003.9-5.84 4.22 4.22 0 00-3.9-2.6 4.21 4.21 0 00-3.9 2.6 4.2 4.2 0 00.93 4.6zm0 0"/><path fill="#7f7" d="M29.02 23.17A4.2 4.2 0 0032 24.41a4.21 4.21 0 002.98-1.24 4.22 4.22 0 10-5.96 0zm0 0"/><path fill="#fa0" d="M40.96 23.17a4.2 4.2 0 002.97 1.24 4.21 4.21 0 003.9-5.84 4.22 4.22 0 10-6.87 4.6zm11.92 0a4.2 4.2 0 002.97 1.24 4.22 4.22 0 002.98-1.24 4.2 4.2 0 00.92-4.6 4.21 4.21 0 00-3.9-2.6 4.22 4.22 0 00-3.9 2.6 4.2 4.2 0 00.93 4.6zm0 0"/><path fill="#d22" d="M8.15 12.57a4.19 4.19 0 01-2.98-1.24 4.22 4.22 0 014.62-6.87 4.23 4.23 0 012.51 4.73 4.22 4.22 0 01-4.15 3.38zm0 0"/><path fill="#fa0" d="M20.07 12.57a4.19 4.19 0 01-2.98-1.24A4.23 4.23 0 0116.6 6a4.22 4.22 0 017.63 3.2 4.21 4.21 0 01-4.15 3.37zm0 0"/><path fill="#7f7" d="M32 12.57a4.19 4.19 0 01-2.98-1.24 4.22 4.22 0 01-.5-5.33A4.22 4.22 0 1132 12.57zm0 0"/><path fill="#fa0" d="M43.92 12.57a4.17 4.17 0 01-2.98-1.24 4.22 4.22 0 112.98 1.24zm0 0"/><g transform="translate(-5 -5) scale(1.156)"><g fill="#d22"><path d="M52.62 15.2a3.6 3.6 0 01-2.57-1.08 3.65 3.65 0 01-.44-4.6c.97-1.45 2.82-2 4.43-1.34a3.65 3.65 0 01-1.42 7.02zm0 0"/><use xlink:href="#a"/></g><use x="10.32" fill="#fa0" xlink:href="#a"/></g><path fill="#7f7" d="M32 59.87a4.2 4.2 0 01-3.89-2.6 4.21 4.21 0 01.91-4.58A4.2 4.2 0 1132 59.87zm0 0"/><path fill="#fa0" d="M43.93 59.87A4.2 4.2 0 1148 56.75a4.2 4.2 0 01-4.06 3.12zm0 0"/><path fill="#d22" d="M55.87 59.87a4.2 4.2 0 112.1-7.85 4.2 4.2 0 01-2.1 7.85zm0 0"/></svg>