<svg xmlns="http://www.w3.org/2000/svg" viewBox="0 0 64 64"><g stroke-linejoin="round"><path d="M59.06 32a27.06 27.06 0 1 1-54.12 0 27.06 27.06 0 1 1 54.12 0z" fill="none" stroke="#000" stroke-width="9.89"/><path d="M59.06 32a27.06 27.06 0 1 1-54.12 0 27.06 27.06 0 1 1 54.12 0z" stroke="#f60" stroke-width="7.91"/></g><path d="M27.93 37.18V35.6q0-2.05.87-3.56.88-1.5 3.2-3.2 2.24-1.6 2.94-2.6.72-1 .72-2.24 0-1.38-1.02-2.1-1.02-.72-2.86-.72-3.2 0-7.3 2.1l-2.32-4.67q4.75-2.66 10.08-2.66 4.4 0 6.97 2.1 2.6 2.1 2.6 5.62 0 2.34-1.07 4.04-1.07 1.7-4.04 3.83-2.05 1.5-2.6 2.3-.53.8-.53 2.07v1.28zm-.68 7.3q0-1.8.96-2.7.96-.92 2.8-.92 1.77 0 2.73.94.98.94.98 2.68 0 1.68-.98 2.66-.98.96-2.73.96-1.8 0-2.77-.94-.98-.96-.98-2.68z" fill="#f60"/></svg>