<svg viewBox="0 0 64 64" xmlns="http://www.w3.org/2000/svg"><path d="m18.35 12.06c-13.03 7.53-17.51 24.27-9.99 37.3 7.51 13.03 24.26 17.51 37.29 9.99s17.51-24.27 9.99-37.3c-1.01-1.75-3.3-2.36-5.05-1.35-1.76 1.01-2.37 3.31-1.35 5.05 5.5 9.52 2.23 21.7-7.28 27.19-9.52 5.5-21.7 2.24-27.2-7.27-5.49-9.52-2.23-21.7 7.28-27.2 4.11-2.37 8.78-3.11 13.3-2.32l-3.1 1.8c-1.76 1.01-2.37 3.31-1.35 5.05 1.01 1.76 3.31 2.37 5.05 1.35l10.43-6.03c1.76-1.01 2.37-3.31 1.35-5.05l-6.01-10.42c-1-1.76-3.29-2.38-5.05-1.36s-2.37 3.3-1.35 5.05l1.37 2.38c-6.22-1.08-12.69-.12-18.33 3.14z" fill="#ee9"/></svg>