<svg viewBox="0 0 64 64" xmlns="http://www.w3.org/2000/svg"><path d="m4.7 31.98c-.01 15.04 12.24 27.3 27.28 27.32s27.31-12.23 27.32-27.28c.02-15.04-12.24-27.3-27.28-27.32-2.02 0-3.7 1.67-3.7 3.7-.01 2.03 1.68 3.71 3.7 3.7 10.99.01 19.9 8.94 19.89 19.92-.01 10.99-8.93 19.91-19.91 19.9-10.99-.02-19.9-8.94-19.9-19.92.01-4.74 1.7-9.16 4.65-12.67l.01 3.58c-.01 2.03 1.68 3.71 3.7 3.7 2.03.01 3.71-1.68 3.7-3.7v-12.05c-.01-2.03-1.69-3.71-3.71-3.7l-12.03-.02c-2.02-.01-3.7 1.66-3.7 3.69s1.67 3.7 3.7 3.7l2.75.01c-4.06 4.84-6.47 10.92-6.47 17.44z" fill="#080"/></svg>