<svg viewBox="0 0 64 64" xmlns="http://www.w3.org/2000/svg"><path d="m35.17 44.85 1.06 7.68h-8.45l1.06-7.68z" fill="#ccc"/><path d="m60 46.03c0 1.3-1.1 2.4-2.4 2.4h-51.2c-1.3 0-2.4-1.1-2.4-2.4v-36.08c0-1.3 1.1-2.4 2.4-2.4h51.2c1.3 0 2.4 1.1 2.4 2.4zm-37.05 6.2h18.1a2 2 0 0 1 2 2v.2a2 2 0 0 1 -2 2h-18.1a2 2 0 0 1 -2-2v-.2a2 2 0 0 1 2-2z" fill="#b3b3b3"/><circle cx="32" cy="44.83" fill="#dedbe3" r="1.3"/><path d="m8.1 12 .04 29.26h48.06l-.02-29.2z" fill="#afe9af"/><path d="m7.96 12 .04 29.27h48.05l-.02-29.2z" fill="none" stroke="#37483e" stroke-width="2"/></svg>