<svg xmlns="http://www.w3.org/2000/svg" height="64" width="64"><g fill="none" stroke="#4d4d4d" stroke-miterlimit="10" stroke-width="4.02"><path d="M2.15 59.4H28.1m8.3 0h25.94" stroke-linecap="round"/><path d="m32.24 55.26v-10.4"/></g><circle cx="32.24" cy="59.4" fill="#0f0" r="3.15"/><circle cx="32.24" cy="59.4" fill="none" r="3.6" stroke="#4d4d4d" stroke-width="2.68"/><g fill="#520"><path d="M-.01 49.088h20.963V35.67H-.01z"/><path d="M20.953 49.088h20.963V35.67H20.953z"/><path d="M41.915 49.088H64V35.67H41.915zM11.04 35.67H32V22.25H11.028z"/><path d="M52.953 35.668H64V22.25H52.953z"/><path d="M32 35.668h20.962V22.25H32zM20.953 8.817H2.14c-.57 0-1.117.212-1.52.6a1.95 1.95 0 0 0-.63 1.423v11.407h20.963z"/><path d="M20.953 22.237h20.963V8.817H20.953z"/><path d="M61.84 8.817H41.915v13.42H64V10.83c0-1.1-.963-2.012-2.15-2.012zM-.01 35.668h11.038V22.25H-.01z"/></g><g fill="#fca" stroke="#fca" stroke-width=".6"><path d="M.4 36.86h62.96V34.8H.4zm0-13.32h62.96V21.5H.4z"/><path d="M40.57 48.87h2.18V35.83h-2.18zm-20.63 0h2.18V35.83h-2.18zM10.18 34.8h2.18V22.53h-2.18zm20.63 0H33V22.53H30.8zm20.63 0h2.18V22.53h-2.18zM40.58 22.57h2.18V9.32h-2.18zm-20.63-.07h2.18V9.32h-2.18z"/></g><g fill="#f60" opacity=".7"><path d="m33.42 53.18c-.12 0 .12 0 0 0z"/><path d="m42.54 28.6c-6.26-7.46-3.8-17.2-3.8-17.2-10.62 2-16.13 8.82-17.57 19.3-1.15-.8-2.8-1.05-3.65-2.13-5.97 15.5 6 25.03 15.9 24.6 9.86-.43 20.73-10.74 9.12-24.57z"/></g><g fill="#fc0" opacity=".7"><path d="m32.77 54.56c-.1 0 .1 0 0 0z"/><path d="m39.62 36.13c-4.7-5.6-2.85-12.9-2.85-12.9-7.97 1.5-12.1 6.62-13.18 14.48-.86-.6-2.1-.8-2.74-1.6-4.48 11.63 4.5 18.77 11.93 18.44 7.4-.33 15.55-8.05 6.84-18.43z"/></g></svg>