<svg height="64" width="64" xmlns="http://www.w3.org/2000/svg"><circle cx="32" cy="32" fill="#ccc" r="29.07" stroke="#e6e6e6" stroke-width="5.86"/><g stroke-linejoin="round"><path d="m13.44 30.6 14.52.04a4.28 4.28 0 0 1 2.78-2.76l.06-21.9a1.28 1.28 0 0 1 1.28-1.27 1.28 1.28 0 0 1 1.27 1.28l-.06 21.9c1.72.55 2.96 2.16 2.96 4.05-.01 2.34-1.92 4.24-4.26 4.23a4.24 4.24 0 0 1 -4.03-3l-14.52-.04a1.28 1.28 0 0 1 -1.27-1.28 1.28 1.28 0 0 1 1.28-1.27zm18.56 3.02a1.68 1.68 0 1 0 .01-3.37 1.68 1.68 0 1 0 -.01 3.37z" fill="#333" stroke="#333" stroke-width="2"/><ellipse cx="43.77" cy="44.32" fill="#fc0" rx="17.71" ry="17.16" stroke="#540" stroke-width="4.81"/></g><path d="m41.3 33.5h5.32v12.7h-5.32zm0 16.3h5.32v5.2h-5.32z" fill="#540"/></svg>