<svg height="64" width="64" xmlns="http://www.w3.org/2000/svg"><g stroke="#4d4d4d"><circle cx="32" cy="32" fill="#e6e6e6" r="29.74" stroke-width="4"/><path d="m19.07 23.17 10.03 5.66c1.01-.94 2.42-1.33 3.77-1.05l8.31-14.73c.35-.61 1.12-.83 1.74-.48.61.35.83 1.12.48 1.74l-8.31 14.73c1.23 1.32 1.53 3.33.6 4.98-1.15 2.04-3.74 2.76-5.78 1.61-1.65-.94-2.43-2.81-2.06-4.58l-10.03-5.66c-.61-.35-.83-1.12-.48-1.74.35-.61 1.12-.83 1.74-.48zm12.1 10.23c.81.46 1.84.17 2.3-.64s.17-1.84-.64-2.3-1.84-.17-2.3.64-.17 1.84.64 2.3z" fill="#4d4d4d" stroke-width="2"/></g><path d="m64 64h-45.88l22.94-39.73z" fill="#fc0"/><path d="m38.13 53h5.42v5.53h-5.42zm0-17.24h5.42v14.5h-5.42z"/></svg>