<svg xmlns="http://www.w3.org/2000/svg" xmlns:xlink="http://www.w3.org/1999/xlink" height="64" width="64"><defs><path id="A" d="M39.8 12.58a7.67 7.67 0 0 1-.37 2.36c-1-3.15-3.94-5.42-7.42-5.42s-6.42 2.28-7.42 5.42a7.67 7.67 0 0 1-.37-2.36c0-4.3 3.5-7.8 7.8-7.8s7.8 3.5 7.8 7.8z"/></defs><g fill="#333"><path d="M18.04 45.57H9.17c0 4.55 3.97 8.23 8.87 8.23m0-49.28H9.17c0 4.55 3.97 8.23 8.87 8.23"/><path d="M18.04 25.05H9.17c0 4.55 3.97 8.23 8.87 8.23M46.56 53.8c4.9 0 8.87-3.7 8.87-8.23h-8.87m0-32.82c4.9 0 8.87-3.7 8.87-8.23h-8.87m0 28.76c4.9 0 8.87-3.7 8.87-8.23h-8.87"/></g><path d="M44.12 0H19.88c-1.8 0-3.26 1.2-3.26 2.7v58.6c0 1.48 1.46 2.7 3.26 2.7h24.25c1.8 0 3.26-1.2 3.26-2.7V2.7C47.38 1.2 45.92 0 44.12 0z" fill="#4d4d4d"/><circle cx="32" cy="12.58" fill="#d40000" r="7.79"/><circle cx="32" cy="32" fill="#ffd42a" r="7.79"/><circle cx="32" cy="51.42" fill="#0f0" opacity=".15" r="7.79"/><g fill="#ccc"><use opacity=".5" xlink:href="#A"/><use opacity=".5" xlink:href="#A" y="19.42"/><use opacity=".5" xlink:href="#A" y="38.84"/></g><ellipse cx="41.61" cy="42.3" fill="#fc0" rx="19.68" ry="19.07" stroke="#540" stroke-linejoin="round" stroke-width="5.34"/><path d="M38.87 30.27h5.9v14.1h-5.9zm0 18.1h5.9v5.8h-5.9z" fill="#540"/></svg>