<svg height="64" width="64" xmlns="http://www.w3.org/2000/svg"><path d="m12.96 59.2 14.14-57.36c.12-.5.56-.84 1.07-.84h7.13c.5 0 .93.34 1.07.84l15.35 57.38" fill="#d4aa00"/><path d="m31.12 1h-2.82a1.15 1.15 0 0 0 -1.11.86l-14.71 56.54h14.92l3.45-56.55c.03-.5.14-.86.26-.86zm26.14 57.42h-50.52a1.15 1.15 0 0 0 -1.15 1.15v2.3a1.15 1.15 0 0 0 1.15 1.13h50.52a1.15 1.15 0 0 0 1.15-1.15v-2.3a1.15 1.15 0 0 0 -1.15-1.15z" fill="#f60"/><path d="m24.38 61.88v-2.2a1.12 1.12 0 0 1 1.12-1.12h-18.8a1.12 1.12 0 0 0 -1.12 1.12v2.2c0 .6.5 1.12 1.12 1.12h18.76a1.12 1.12 0 0 1 -1.12-1.12z" fill="#f56e2d"/><path d="m46.64 40.04h-29.48l-1.8 6.9h33.08zm-6.06-22.96h-17.34l-1.8 6.9h20.93z" fill="#e4eaf8"/><path d="m29.83 17.08h-6.6l-1.8 6.9h7.98zm-1.4 22.96h-11.07l-1.8 6.9h12.44z" fill="#c7cfe2"/></svg>