<svg height="64" width="64" xmlns="http://www.w3.org/2000/svg" xmlns:xlink="http://www.w3.org/1999/xlink"><defs><path id="a" d="m39.8 12.58a7.67 7.67 0 0 1 -.37 2.36c-1-3.15-3.94-5.42-7.42-5.42s-6.42 2.28-7.42 5.42a7.67 7.67 0 0 1 -.37-2.36c0-4.3 3.5-7.8 7.8-7.8s7.8 3.5 7.8 7.8z"/></defs><g fill="#333"><path d="m18.04 45.57h-8.87c0 4.55 3.97 8.23 8.87 8.23m0-49.28h-8.87c0 4.55 3.97 8.23 8.87 8.23"/><path d="m18.04 25.05h-8.87c0 4.55 3.97 8.23 8.87 8.23m28.52 20.52c4.9 0 8.87-3.7 8.87-8.23h-8.87m0-32.82c4.9 0 8.87-3.7 8.87-8.23h-8.87m0 28.76c4.9 0 8.87-3.7 8.87-8.23h-8.87"/></g><path d="m44.12 0h-24.24c-1.8 0-3.26 1.2-3.26 2.7v58.6c0 1.48 1.46 2.7 3.26 2.7h24.25c1.8 0 3.26-1.2 3.26-2.7v-58.6c-.01-1.5-1.47-2.7-3.27-2.7z" fill="#4d4d4d"/><g fill="#666"><circle cx="32" cy="12.58" r="7.79"/><circle cx="32" cy="32" r="7.79"/><circle cx="32" cy="51.42" r="7.79"/></g><g fill="#ccc"><use opacity=".5" xlink:href="#a"/><use opacity=".5" xlink:href="#a" y="19.42"/><use opacity=".5" xlink:href="#a" y="38.84"/></g></svg>