<svg xmlns="http://www.w3.org/2000/svg" height="64" width="64"><linearGradient id="A" gradientUnits="userSpaceOnUse" x1="31.25" x2="31.25" y1="8.49" y2="50.93"><stop offset="0" stop-color="gray"/><stop offset="1" stop-color="#999"/></linearGradient><path d="m31.67 39.55c-13 .1-24.2 5.6-29.08 14.83-2.57 4.85 1.9 9.58 7.4 9.58h44c5.52 0 9.98-4.73 7.4-9.58-4.92-9.3-16.27-14.83-29.4-14.83z" fill="#4d4d4d"/><path d="m32 .04c-14.67 0-22.6 19.2-22.6 34.13.28 10.86 7.37 16.43 16.43 18.15l6.16.01zm0 0c14.67 0 22.6 19.2 22.6 34.13-.28 10.86-7.37 16.43-16.43 18.15l-6.16.01z" fill="url(#A)"/><path d="m32 18.66c-7.94 0-14.38 6.44-14.38 14.38v4.33c0 5.72 5.2 12.66 10.05 14.98 4.05 1.5 4.48 1.77 8.66 0 4.84-2.3 10.05-9.25 10.05-14.98v-4.33c0-7.94-6.44-14.38-14.38-14.38z" fill="#f2f2f2"/><path d="M44.9 31.64a5.69 5.69 0 0 1-5.69 5.69h-3.8a.48.48 0 0 1-.48-.48v-.4a5.69 5.69 0 0 1 5.69-5.69h3.8a.48.48 0 0 1 .48.48zm-16.47 5.68h-3.8a5.69 5.69 0 0 1-5.69-5.69v-.4a.48.48 0 0 1 .48-.48h3.8a5.69 5.69 0 0 1 5.69 5.69v.4a.48.48 0 0 1-.48.48z" fill="#666"/></svg>