<svg xmlns="http://www.w3.org/2000/svg" viewBox="0 0 64 64"><g transform="scale(.44)"><circle cx="72" cy="72" r="72" fill="#ff4e00"/><path fill="#fff" d="m47.3 96-1-6.5A22.5 22.5 0 0 1 29.4 97c-8.6 0-14-5.2-14-13.3 0-12 10.1-16.7 30.2-18.7v-2.1c0-6-3.6-8.1-9.1-8.1a44 44 0 0 0-16.6 4l-1.2-7.6a47 47 0 0 1 18.5-4c11.6 0 17.3 4.6 17.3 15.4V96h-7.3Zm-1.7-24.3c-17.7 1.7-21.4 6.5-21.4 11.5s2.6 6.3 7.2 6.3c4.5 0 10.2-2.6 14.2-6.7zm25-4v28.2h-8.8V48.2h7.1l1.6 9.7a21 21 0 0 1 16.7-10.7l1.4 8.5c-8 .4-14.7 5.7-18 12Zm39.1 29.2a39.2 39.2 0 0 1-17.4-4.6l1.3-8.4a29.9 29.9 0 0 0 16.9 5.5c6 0 9.7-2.3 9.7-6.3s-2.7-6-11.4-8c-11.2-2.9-15.7-6.2-15.7-14.8 0-8.6 6.4-13.2 17-13.2a38.7 38.7 0 0 1 15.6 3.2l-1.4 8.5a30.6 30.6 0 0 0-14.5-4.1c-5.4 0-8.2 2-8.2 5.5 0 3.4 2.4 5 10 7 11.8 3 17 6.3 17 15.4 0 9.1-6.5 14.3-18.9 14.3z"/></g></svg>