<svg xmlns="http://www.w3.org/2000/svg" viewBox="0 0 64 64"><rect width="64" height="64" fill="#1a1a1a" ry="8"/><path fill="#fff" stroke="#fff" stroke-linecap="round" stroke-linejoin="round" stroke-width="3.6" d="M32 8.8c2 0 3.5 1.6 3.5 3.6S33.9 16 32 16c-2 0-3.5-1.7-3.5-3.6 0-2 1.6-3.6 3.5-3.6zm1.4 12.7V23c0 5.8-.6 6.7-4.6 10.3l-2.3 2.1a11 11 0 0 0-4.2 8.9c0 5.3 3.5 8.4 9.5 8.4 6.1 0 10.3-4.3 10.1-11.4h2.8c.2 9-5.5 13.9-13 13.9-8.6 0-12.4-5-12.4-10.6s2.5-8.3 6-11.7l1.8-1.7c3.2-3 3.6-3.4 3.6-8.1v-1.6h2.7Z"/></svg>