<svg xmlns="http://www.w3.org/2000/svg" viewBox="0 0 64 64"><defs><radialGradient id="a" cx="32" cy="32" r="32" fx="32" fy="32" gradientTransform="matrix(2 0 0 2 -22.7 -22.7)" gradientUnits="userSpaceOnUse" href="#C"><stop offset="0" stop-color="#003380"/><stop offset="1" stop-color="#025"/></radialGradient></defs><rect width="64" height="64" fill="url(#a)" ry="8"/><g stroke-linejoin="round" stroke-width="3.6"><path stroke="#000" d="M32.2 8.8c2 0 3.7 1.6 4 3.6S35 16 33 16s-3.7-1.7-4-3.6c-.2-2 1.2-3.6 3.1-3.6zm3 12.7V23c.8 5.8.3 6.7-3.3 10.3l-2 2.1a11.7 10.4 43.3 0 0-3.2 8.9c.6 5.3 4.5 8.4 10.5 8.4s9.8-4.3 8.7-11.4h2.8c1.3 9-3.8 13.9-11.3 13.9-8.6 0-13-5-13.7-10.6s1.6-8.3 4.7-11.7l1.6-1.7c2.8-3 3.2-3.4 2.6-8.1l-.2-1.6z"/><path fill="#fff" stroke="#fff" d="M32 8.8c2 0 3.5 1.6 3.5 3.6S33.9 16 32 16c-2 0-3.5-1.7-3.5-3.6 0-2 1.6-3.6 3.5-3.6zm1.4 12.7V23c0 5.8-.6 6.7-4.6 10.3l-2.3 2.1a11 11 0 0 0-4.2 8.9c0 5.3 3.5 8.4 9.5 8.4 6.1 0 10.3-4.3 10.1-11.4h2.8c.2 9-5.5 13.9-13 13.9-8.6 0-12.4-5-12.4-10.6s2.5-8.3 6-11.7l1.8-1.7c3.2-3 3.6-3.4 3.6-8.1v-1.6z"/></g></svg>