<svg xmlns="http://www.w3.org/2000/svg" viewBox="0 0 64 64"><g transform="matrix(.47 0 0 .47 -17 -37.3)"><circle cx="105" cy="148.5" r="66.4" fill="gold"/><path fill="#153064" d="M44 174.7a42.2 42.2 0 0 1 33.6-28.2c5-.8 7.8-.6 27.1 1.8l18.6 2.2c1.5-1 4.9-6 6-8.3-.3-.3-5.4-.6-7-.5a27 27 0 0 0-15.5 6.5 41.6 41.6 0 0 1 59.3-20.5l-4 .2c-7.8.2-14.5 2.2-21.1 6.2-3.8 2.3-9 6.8-8.2 7 1.6.6 8.7 2.6 9 3.3l-1.9.7a60 60 0 0 0-11.1 4.2c-2.8 1.4-3.2 1.7-4.5 3.3a33.2 33.2 0 0 1-15.9 11.3c-15.1 5.5-24.6-3.4-39.3-1.7a42 42 0 0 0-23.4 11 7 7 0 0 1-1.8 1.5z"/></g></svg>