<svg xmlns="http://www.w3.org/2000/svg" viewBox="0 0 48 48"><radialGradient id="a" cx="-23" cy="27.6" r="15.6" gradientUnits="userSpaceOnUse"><stop offset="0" stop-color="#64b5f6"/><stop offset="1" stop-color="#7bc9ff"/></radialGradient><g fill="#616161" transform="matrix(-1.2 0 0 1.2 52.8 -4.8)"><path d="m29.2 32 2.8-2.8 12 12-2.8 2.8z"/><circle cx="20" cy="20" r="16"/></g><path fill="#37474f" d="m9.7 41.6-3.3-3.3L0 44.7 3.3 48z"/><circle cx="-28.8" cy="19.2" r="15.6" fill="url(#a)" transform="scale(-1 1)"/><path fill="#fff" fill-rule="evenodd" d="M29.4 5.7c-7 0-10.5 5-10.5 9.2 0 2.5 1 4.8 3 5.6.3.1.6 0 .7-.4L23 19c.1-.4.1-.5-.2-.8-.6-.7-1-1.6-1-2.9 0-3.7 2.8-7 7.2-7 3.9 0 6.1 2.4 6.1 5.6 0 4.2-1.9 7.8-4.7 7.8-1.5 0-2.7-1.3-2.3-2.8.4-1.9 1.3-3.9 1.3-5.2 0-1.2-.6-2.2-2-2.2-1.6 0-2.8 1.6-2.8 3.8 0 1.4.5 2.3.5 2.3l-1.9 8c-.6 2.4-.1 5.3 0 5.6 0 .2.2.2.3.1.1-.2 2-2.5 2.7-4.8l1-4c.5 1 2 1.8 3.6 1.8 4.7 0 7.9-4.3 7.9-10.1 0-4.4-3.7-8.4-9.3-8.4z"/></svg>