<svg xmlns="http://www.w3.org/2000/svg" viewBox="0 0 64 64"><path fill="#2b0" d="M32.8 2c-2.4 1.4-.7 5.5-3.3 7-.1 2.6-1.7 4-1.9 6.5-2 .3.6 3.3-1.5 3.6-.5 1 1.4 2.9-.6 2.4-.4 1.8 1.2 3.4 0 4.8.8 1.2 1 1.4 0 2.2 1.5 2.2.1 3.6 1.5 6 0 3 1.7 6 2.1 9.2.5 1.6 2 6 1.1 6-2-2.6-3.1-5.9-5-8.4-1.5-2.8-3-5.6-4.7-7.7-.7-.5-1.5-1.8-2.3-2.3-1-2-3.7-1.8-4.3-3.4-2.7-1-5-2.8-8-3.6-1-1.5-4.6-2.5-2.9.5 1.5 2.5 2.6 5.2 4 7.8.4 2 2.5 3 2.5 4.7 2.6 1.5 3.1 3.4 5.7 4.4 2.1 2 5.3 3.6 8 5.2 1.4.4 5.2 3.1 4.4 3.1-3.2-1.4-6.1-3.8-9.3-4.7-2.5-1.1-5-1.9-7.5-1.5-2.7-.4-4.8.4-7.6.4-2.6-.7-2.7 2-.4 2.2 2.2 1.1 4 3 6.3 3.8 2.2 1 4.8 2 7.4 1.9 2.5.6 4.7.1 7.6.1 1.3 0 5.1 0 4.9.5-2.4.7-5 1-7.1 2.4a14 14 0 0 0-5.4 6c2.3.8 6-.5 8.3-2 2.4-1.3 3.7-4 6-5.4.6 2.7-1.1 6.3 1.2 8.3 1.8-2 .1-6.7 1.2-7.8 2.7 2.5 5 6 8.8 6.8 1.6.9 6.8 1.7 3.7-1.2a14 14 0 0 0-7.4-5.9c-1.1-.5-4.7-1.3-4.4-1.9 3-.1 6 .5 8.6.7a24.8 24.8 0 0 0 14.3-2.9c1.6-1.4 5.6-2.1 6-4.4-2.9-.1-5.9-.6-8.7-1-2.6.2-5-.2-7.3 1-2.8.4-5.1 2-7.5 3-1.4 1-5.5 2.9-2.2.7 2.2-1.5 4.8-2.5 7.1-3.8 2.3-1.7 5-2.6 6.7-4.5 1-1 3.2-1.9 3.7-3.4 1-1.6 2.7-4.2 4.2-6.2-.1-2.5 3.1-4.6 3.1-7.3-2-.5-4.1 2.2-6.4 2.4-2.5 1-4 1.4-6 3.2-1.5-.1-1.4 1.7-2.8 1.2-.3 1.8-2.5 2-2.7 3.4-1.6-.6-.8 2.3-2.3 2-1.1 3-3.4 5.2-4.7 8-.5 1.5-3 5.5-3.7 4.8.4-2.7 1.5-5.3 2-8 1.2-2.7 1.5-5.3 2.4-8.3 1.1-1.6-.6-2.4 1-3.9-.8-1.5.6-3.2-.1-4.8 1.3-2-.9-3-.3-5-1.6-.9.8-3.5-1.4-4-.2-2.8-1.5-5.3-2.5-8.1-.6-1.5-.3-3.6-1.6-4.8zm14.4 50.2c0 .2-.7.6 0 0z"/></svg>