<svg xmlns="http://www.w3.org/2000/svg" width="64" height="64" viewBox="0 0 64 64"><path fill="#fc0" d="M64 32a32 32 0 0 1-32 32A32 32 0 0 1 0 32 32 32 0 0 1 32 0a32 32 0 0 1 32 32" opacity=".804"/><path fill="#803300" d="M30.231 6.802a.743.743 0 0 0-.714.714v1.881a.62.62 0 0 1-.507.608c-.756.136-1.503.249-2.108.431H26.9c-2.658.797-4.728 2.123-6.109 3.974-1.381 1.853-2.058 4.213-2.058 6.985 0 3.634 1.438 6.591 4.195 8.556l.007.005q.965.708 2.115 1.214l.011.005c.812.375 2.349.879 4.026 1.409a.62.62 0 0 1 .431.589v12.158a.617.617 0 0 1-.795.591c-1.513-.459-2.833-1.159-3.708-2.367l-.04-.051a1.2 1.2 0 0 1-.192-.276l-.002-.005-.012-.022c-.36-.646-.648-1.807-.823-3.568v-.02l-.002-.011-.185-1.459a.74.74 0 0 0-.709-.624h-4.297a.74.74 0 0 0-.712.672c-.129 2.189.107 4.177.727 5.951l.002.004.007.018c1.526 4.16 5.096 6.547 10.201 7.196a.62.62 0 0 1 .538.611v4.52c0 .373.341.714.714.714h3.203a.743.743 0 0 0 .714-.714v-4.514a.62.62 0 0 1 .537-.611c2.287-.303 4.305-.862 5.897-1.817l.004-.002.047-.029.004-.004 1.327-.956.004-.002.057-.047.002-.002c2.618-2.354 3.948-5.614 3.948-9.553v-.01c-.037-4.032-1.763-7.178-5.004-9.043q-.02-.012-.042-.022l-.009-.004-.014-.007a.62.62 0 0 1-.4-.173.7.7 0 0 0-.185-.133l-.641-.32-.007-.004-.011-.005-.007-.004c-.756-.351-2.72-.976-5.069-1.692a.62.62 0 0 1-.436-.591V15.941a.617.617 0 0 1 .802-.589c.334.105.783.18 1.242.436l.014.009c1.843 1.093 2.781 2.835 2.814 5.442a.74.74 0 0 0 .714.705h4.324a.743.743 0 0 0 .714-.714c0-2.1-.423-3.974-1.282-5.582l-.005-.007c-1.664-3.221-4.72-5.09-8.806-5.672a.62.62 0 0 1-.53-.611V7.511a.743.743 0 0 0-.714-.714zm-1.323 8.614a.617.617 0 0 1 .61.616v9.528a.617.617 0 0 1-.858.569c-1.077-.458-2.021-.966-2.679-1.651-.921-.959-1.381-2.139-1.386-3.595l.002-.06.137-1.417.014-.082c.281-1.208.858-2.144 1.745-2.839.608-.476 1.38-.788 2.23-1.043a.6.6 0 0 1 .185-.026m5.821 18.638a.6.6 0 0 1 .251.038c.979.365 2.137.71 2.848 1.149l.009.005c1.486.947 2.225 2.347 2.225 4.353 0 2.009-.683 3.63-2.074 4.957-.75.715-1.826 1.14-3.065 1.465a.617.617 0 0 1-.774-.598V34.67a.617.617 0 0 1 .58-.616"/></svg>