<svg xmlns="http://www.w3.org/2000/svg" viewBox="0 0 64 64"><path fill="url(#a)" d="M63.9 64H0l-.1-.1V.1L.1 0h63.8v63.8c.1.1 0 .2 0 .2z"/><path fill="#fff" d="M52.7 27.8H36.2V11.3c0-.3-.2-.5-.5-.5h-7.5c-.2 0-.4.2-.4.5v16.5H11.3c-.3 0-.5.2-.5.4v7.6c0 .2.2.4.5.4h16.5v16.5c0 .3.2.5.4.5h7.6c.2 0 .4-.2.4-.5V36.2h16.5c.3 0 .5-.2.5-.5v-7.5c-.1-.2-.3-.4-.5-.4zM11.3 44.9h7.6c.2 0 .4-.2.4-.4V39c0-.2-.2-.4-.4-.4h-7.6c-.3 0-.5.2-.5.4v5.4c0 .3.2.5.5.5zm14 1.9h-14c-.3 0-.5.2-.5.4v5.4c0 .3.2.5.5.5h14c.2 0 .4-.2.4-.5v-5.4c0-.2-.3-.4-.5-.4z"/><defs><linearGradient id="a" x1="0" x2="64" y1="63.9" y2="0" gradientUnits="userSpaceOnUse"><stop stop-color="#0074f5"/><stop offset="1" stop-color="#03aaff"/></linearGradient></defs></svg>