<svg xmlns="http://www.w3.org/2000/svg" viewBox="0 0 64 64"><defs><linearGradient id="a" x1="33.81" x2="33.81" y1="167.47" y2="135" gradientUnits="userSpaceOnUse"><stop offset="0" stop-color="#006fcd"/><stop offset="1" stop-color="#00a9f2"/></linearGradient><linearGradient id="b" x1="39.2" x2="39.2" y1="150.17" y2="144.62" gradientUnits="userSpaceOnUse"><stop offset="0" stop-color="#008ce2"/><stop offset=".9" stop-color="#0098e8"/></linearGradient><linearGradient id="c" x1="34.01" x2="34.01" y1="163.63" y2="151.34" gradientUnits="userSpaceOnUse"><stop offset="0" stop-color="#006fce"/><stop offset=".9" stop-color="#0082d9"/></linearGradient></defs><path fill="url(#a)" d="M56.03 154.32a6.57 6.57 0 0 0-4.51-4.15c-1.38-6.21-7.35-6.45-7.35-6.45C41.03 134.58 32.2 135 32.2 135a12.08 12.08 0 0 0-11.98 9.14c-9.26 1.54-9.02 9.45-9.02 9.45.35 9.3 8.19 10.04 8.19 10.04h3.35c.1 1.8.86 2.77 1.59 3.28.54.38 1.2.56 1.85.56H42.4c.35 0 .7-.03 1.04-.12 2.76-.72 2.67-3.72 2.67-3.72h3.94a7.05 7.05 0 0 0 5.97-9.31zm-11.1 9.08a2.78 2.78 0 0 1-2.78 2.78H26.39a2.19 2.19 0 0 1-2.19-2.2v-19.27a2.81 2.81 0 0 1 2.81-2.81h9.47c.98 0 1.93.37 2.65 1.04l4.38 4.1a4.5 4.5 0 0 1 1.43 3.28v13.08z" transform="translate(-14.38 -175.45)scale(1.37)"/><path fill="url(#b)" d="m37.4 144.78 4.36 4.09a.76.76 0 0 1-.52 1.3h-3.95a.9.9 0 0 1-.89-.88v-4.07a.59.59 0 0 1 1-.44" transform="translate(-14.38 -175.45)scale(1.37)"/><path fill="url(#c)" d="m38.57 159.49-4.09 3.93a.76.76 0 0 1-.52.2.75.75 0 0 1-.53-.21l-4-4.01a.92.92 0 0 1 .09-1.36.91.91 0 0 1 1.23.08l2.36 2.47v-8.28a.96.96 0 0 1 .96-.96.96.96 0 0 1 .96.96v8.07l2.3-2.2a.9.9 0 0 1 .63-.26.9.9 0 0 1 .68.3.94.94 0 0 1-.07 1.26z" transform="translate(-14.38 -175.45)scale(1.37)"/></svg>