<svg xmlns="http://www.w3.org/2000/svg" viewBox="0 0 64 64"><defs><linearGradient id="b" x1="20.2" x2="24.8" y1="22.3" y2="22.3" gradientUnits="userSpaceOnUse"><stop offset="0" stop-color="#6176b9"/><stop offset=".7" stop-color="#394a9f"/></linearGradient><linearGradient id="c" x1="34.6" x2="38.7" y1="20.9" y2="20.9" gradientUnits="userSpaceOnUse"><stop offset="0" stop-color="#6176b9"/><stop offset=".7" stop-color="#394a9f"/></linearGradient><clipPath id="a"><circle cx="127.3" cy="79" r="52"/></clipPath></defs><circle cx="32" cy="32" r="30.7" fill="#de5833" stroke="#de5833" stroke-width="2.7"/><g clip-path="url(#a)" transform="translate(-36 -10.1) scale(.5333)"><path fill="#d5d7d8" d="m138.5 132.5-6.4-12.3c-4-8-8-19.1-6.2-26.3.4-1.3-3.7-48.5-6.6-50a54 54 0 0 0-13.7-4.6c-2.5-.4-3 .3-4.1.5 1 0 5.7 2.4 6.6 2.5-.9.6-3.6 0-5.3.8-.9.4-1.5 1.8-1.5 2.5a39 39 0 0 1 17 2c-3.5.4-9 .9-11.4 2.1-6.8 3.6-9.8 12-8 22.2 1.8 10 9.7 46.8 12.2 59.1 2.5 12.3 31.5 9.7 27.3 1.5z"/><path fill="#fff" d="m142.1 133.7-7.9-15.2c-4-8-7.9-19.1-6-26.3.2-1.3.2-6.7 1.3-7.4 8.4-5.5 7.8-.2 11.2-2.6a9.3 9.3 0 0 0 3.8-5c2.1-7.5-3-20.7-8.8-26.5-1.9-1.9-4.8-3-8-3.7a17.8 17.8 0 0 0-6.2-4.9 28.9 28.9 0 0 0-18.2-2.8c1 0 3.2 2.1 4.1 2.2-1.3 1-5 .9-5 3 5-.6 10.3.2 14.9 2.2-3.6.4-7 1.3-9.4 2.6-6.8 3.6-8.6 10.8-6.8 20.9 1.8 10 9.7 46.9 12.2 59.1 2.6 12.3 32.5 11.8 28.8 4.4z"/></g><circle cx="24.3" cy="27.6" r="2" fill="#2d4f8e"/><circle cx="25.2" cy="26.9" r=".5" fill="#fff"/><circle cx="37.8" cy="26.4" r="1.7" fill="#2d4f8e"/><circle cx="38.5" cy="25.8" r=".4" fill="#fff"/><path fill="url(#b)" d="M24.8 21.7s-1.5-.7-3 .3c-1.4.9-1.4 1.9-1.4 1.9s-.8-1.8 1.3-2.7c2.1-.8 3.1.5 3.1.5z"/><path fill="url(#c)" d="M38.8 21.6s-1-.6-2-.6c-1.7 0-2.2.8-2.2.8s.3-1.9 2.6-1.5a2.2 2.2 0 0 1 1.6 1.3z"/><path fill="#fdd20a" d="M30.4 35.4c.2-1.2 3.4-3.6 5.6-3.7 2.3-.1 3-.1 4.8-.6l8-2.2c1.4-.6 7 .3 3 2.5-1.7 1-6.3 2.7-9.6 3.7-3.4 1-5.4-1-6.5.7-.8 1.3-.1 3 3.8 3.5 5.4.5 10.5-2.5 11-.9s-4.5 3.5-7.7 3.5a31 31 0 0 1-10.4-2.7c-1-.7-2.2-2.2-2-3.8z"/><path fill="#65bc46" d="M32.9 51.5s-7.6-4-7.7-2.4c-.1 1.7 0 8.3.9 8.8s7.1-3.2 7.1-3.2l-.3-3.2zm2.8-.2s5.2-4 6.3-3.7c1.1.3 1.4 8.3.4 8.7-1 .4-6.9-2-6.9-2l.2-3z"/><path fill="#43a244" d="M31 52c0 2.6-.3 3.7.8 4a7 7 0 0 0 4-.5c.7-.5.1-4-.1-4.5s-4.7-.2-4.7 1z"/><path fill="#65bc46" d="M31.5 51.4c0 2.6-.4 3.7.8 4a7 7 0 0 0 4-.5c.7-.5.1-3.9-.2-4.5s-4.6-.2-4.6 1z"/><circle cx="32" cy="32" r="28.3" fill="none" stroke="#fff" stroke-width="2.1"/></svg>