<svg xmlns="http://www.w3.org/2000/svg" xmlns:xlink="http://www.w3.org/1999/xlink" xml:space="preserve" viewBox="0 0 64 64"><defs><linearGradient id="a"><stop offset="0" stop-color="#244878"/><stop offset="1" stop-color="#0e2748"/></linearGradient><linearGradient xlink:href="#a" id="b" x1="0" x2="64" y1="0" y2="64" gradientUnits="userSpaceOnUse"/></defs><rect width="64" height="64" fill="url(#b)" ry="4"/><path fill="#fff" stroke="#fff" stroke-linecap="round" stroke-linejoin="round" stroke-width=".5" d="M44.6 47.8V17H34.3c-.8-.6-1.4-.9-1.7-.7-.1 0-.7.2-.7.6v7.5h.9c.2 0 .4-.1.5-.3.4-.5.7-1.6 1.6-2.9.7-1.2 2-2.3 4.3-2.3H42v22.7c0 1.2 0 2.8-.9 3.6-.8.8-2.8 1-2.8 2.2v.4zm0 0V17h10.2c.9-.6 1.5-.9 1.8-.7 0 0 .6.2.6.6v7.5h-.8a.6.6 0 0 1-.5-.3c-.4-.5-.7-1.6-1.7-2.9-.7-1.2-2-2.4-4.3-2.3h-2.7v22.7c0 1.2 0 2.8.8 3.6.8.8 2.9 1 2.9 2.2v.4zM25.8 17h0-19v.3c0 .3.3.9.5 1 .3.2 1.2 0 2 .4.8.3 1.6 1 1.6 2.7v21.7c0 3.7-4.1 2-4.1 3.7v1l.4-.1h21l2.4-8.8h-.8c-3.3 0-1.2 7.4-7.3 7.4-3.8 0-6.2-1-6.2-4.3V31.3H21c2.8 0 1.8 4 3 4h.7v-9.9h-.5c-1.2 0-.4 3.8-3 3.8h-4.9V18.5h.6a50 50 0 0 1 6.7.2c2.8.4 1.8 5.8 4 5.8h.5v-7.3c0-.2 0-.5-.4-.7-.4-.2-1 .3-1.9.4z"/></svg>