<svg xmlns="http://www.w3.org/2000/svg" viewBox="0 0 48 48"><path fill="#2ca089" d="M40.97 7.03A23.84 23.84 0 0 0 24 0 23.84 23.84 0 0 0 7.029 7.029 23.84 23.84 0 0 0 0 24a23.84 23.84 0 0 0 7.029 16.971A23.84 23.84 0 0 0 24 48a23.84 23.84 0 0 0 16.971-7.029A23.84 23.84 0 0 0 48 24a23.84 23.84 0 0 0-7.029-16.971z"/><path fill="#fff" d="M40.462 30.56a1.28 1.28 0 0 0-1.184-.79H36V18.865a1.28 1.28 0 0 0-1.282-1.282h-6.092a1.28 1.28 0 0 0-1.282 1.282v10.903h-3.287a1.28 1.28 0 0 0-.906 2.188l7.616 7.614a1.28 1.28 0 0 0 1.812 0l7.615-7.614c.368-.367.478-.917.277-1.397zM24.897 17.208a1.28 1.28 0 0 1-1.183.79h-3.288V28.9a1.28 1.28 0 0 1-1.282 1.282h-6.092A1.28 1.28 0 0 1 11.77 28.9V18H8.483a1.28 1.28 0 0 1-.906-2.188l7.616-7.615a1.28 1.28 0 0 1 1.812 0L24.62 15.8c.368.367.478.917.277 1.397z"/></svg>