<svg xmlns="http://www.w3.org/2000/svg" width="48" height="48" viewBox="0 0 48 48"><path fill="#5e96dc" d="M40.971 7.029C36.438 2.496 30.411 0 24 0S11.562 2.496 7.029 7.029 0 17.589 0 24s2.496 12.438 7.029 16.971S17.589 48 24 48s12.438-2.496 16.971-7.029S48 30.411 48 24s-2.496-12.438-7.029-16.971"/><path fill="#fff" d="M37.31 21.286a1.94 1.94 0 0 1-1.791 1.197h-4.973v16.492a1.94 1.94 0 0 1-1.939 1.939h-9.215a1.94 1.94 0 0 1-1.939-1.939V22.483H12.48a1.938 1.938 0 0 1-1.371-3.31l11.52-11.518a1.94 1.94 0 0 1 2.742 0L36.89 19.173c.555.554.721 1.388.42 2.113"/></svg>