<svg xmlns="http://www.w3.org/2000/svg" viewBox="0 0 64 64"><path fill="#6737ec" d="M63 63H1V36.5h51l3-4 3 4h5z"/><path fill="#593bb1" d="M1 36.4h35L22 63H1z"/><path fill="#1d1d1b" d="M64 64H0V35.4h51.5l3.5-4.6 3.5 4.6H64V64zM2 62h60V37.4h-4.5L55 34l-2.5 3.4H2z"/><path fill="#fff" fill-opacity=".7" d="M33 41.5h24v2H33zm15 5h9v2h-9zm-40 5h28v2H8zm30 0h19v2H38zm-3 5h22v2H35zm-16-10h27v2H19z"/><path fill="#ff7f2a" d="M1 1h62v26.5H12l-3 4-3-4H1z"/><path fill="#f60" d="M63 1v26.5H28L42 1z"/><path fill="#fff" fill-opacity=".7" d="M7 5.7h23v2H7zm0 5h35v2H7zm0 5h11v2H7zm13 0h15v2H20zm-13 5h17v2H7zm37-10h6v2h-6zm-12-5h4v2h-4z"/><path fill="#1d1d1b" d="M9 33.2l-3.5-4.6H0V0h64v28.6H12.5zm-7-6.6h4.5L9 30l2.5-3.4H62V2H2z"/></svg>