<svg xmlns="http://www.w3.org/2000/svg" width="64" height="64" viewBox="0 0 64 64"><path fill="#999" d="M58.829 0H5.171C2.315 0 0 2.711 0 6.055v51.89C0 61.289 2.315 64 5.171 64h53.658C61.685 64 64 61.289 64 57.945V6.055C64 2.711 61.685 0 58.829 0"/><path fill="#74bbf0" d="M55.475 4H8.525C6.026 4 4 6.372 4 9.298v45.404C4 57.628 6.026 60 8.525 60h46.95C57.974 60 60 57.628 60 54.702V9.298C60 6.372 57.974 4 55.475 4"/><path fill="#fff" d="M4 28.663c1.981-1.02 4.482-1.628 7.2-1.628 5.147 0 9.511 2.183 11.049 5.208 1.861-.713 4.027-1.123 6.34-1.123 6.42 0 11.711 3.148 12.465 7.21 5.468.384 9.76 3.333 9.999 6.97L37.48 53.97l-33.478.178z"/><g stroke-width=".112"><path fill="#6c994e" d="M19.358 47.818s-8.865-2.522-15.357 3.122v6.498c0 1.415 1.52 2.562 3.395 2.562l13.499-7.707z"/><path d="M4.001 54.32c6.491-5.643 15.357-3.122 15.357-3.122l.566 1.649.971-.554-1.537-4.475s-8.865-2.522-15.357 3.122z" opacity=".1"/><path fill="#7eb35b" d="M7.396 60c4.505-9.024 18.629-19.669 30.383-13.659l-3.907 9.478L23.931 60z"/><path d="m37.375 47.32.404-.98C26.025 40.331 11.901 50.976 7.396 60h4.29c4.945-7.545 15.735-15.167 25.689-12.68" opacity=".1"/><path fill="#a5eb78" d="M60 57.438V40.297C37.391 38.6 23.931 60 23.931 60h32.674C58.48 60 60 58.853 60 57.438"/><path d="M60 42.458v-2.162C37.391 38.6 23.931 60 23.931 60h4.598C32.493 54.856 43.597 42.673 60 42.458" opacity=".1"/></g><g stroke-width=".269"><circle cx="46.822" cy="17.174" r="9.995" fill="#ffe97a"/><path d="M39.943 20.288c0-5.519 4.474-9.993 9.993-9.993 1.962 0 3.791.568 5.335 1.545a9.98 9.98 0 0 0-8.448-4.659c-5.519 0-9.993 4.474-9.993 9.993a9.98 9.98 0 0 0 4.659 8.448 9.94 9.94 0 0 1-1.545-5.335z" opacity=".1"/></g></svg>