<svg xmlns="http://www.w3.org/2000/svg" viewBox="0 0 64 64"><defs><radialGradient id="a" cx="34.2" cy="38.2" r="31.1" fx="34.2" fy="38.2" gradientTransform="matrix(2 -1 2 3 -103.4 -15.7)" gradientUnits="userSpaceOnUse"><stop offset="0" stop-color="#c45750"/><stop offset="1" stop-color="#ad1a0b"/></radialGradient></defs><path fill="url(#a)" d="M61 9.1H39.4v16.6l-1.7-.9V9.1h-28c-3.8.3-10 4.2-8.6 16.6C2.8 34 9.5 39.2 18.5 39.5c1.4 4.3 4.1 16.7 10.8 16.7l18.3-.1C59.2 56 62.4 26.8 63 13.8c0-1.6.8-4.7-1.9-4.7zm-54.6 17c-2.2-6.4.3-12.7 6-13.4.6 6 2.6 16.2 4.6 21.9a14 14 0 0 1-10.6-8.4Z" transform="translate(0 -.7)"/><g transform="rotate(26 1 -.4)"><rect width="17.4" height="17.4" x="39.3" y="7" fill="#500" rx="1.4"/><g fill="#f33"><circle cx="42.8" cy="15.7" r="1.7"/><circle cx="48" cy="10.4" r="1.7"/><circle cx="48" cy="15.7" r="1.7"/><circle cx="48" cy="20.9" r="1.7"/><circle cx="53.3" cy="15.7" r="1.7"/></g><g fill="#900"><circle cx="42.8" cy="10.4" r="1.7"/><circle cx="42.8" cy="20.9" r="1.7"/><circle cx="53.3" cy="10.4" r="1.7"/><circle cx="53.3" cy="20.9" r="1.7"/></g></g></svg>