<svg xmlns="http://www.w3.org/2000/svg" viewBox="0 0 64 64"><circle cx="32.2" cy="32.2" r="32.2" fill="#6c5367"/><path fill="#fff" d="m53.7 36.5-2 .3q-1.3.2-2 .6-1 .5-1.4 1.3-.4.8-.4 2V49l.2 2.1Q44 53 39.9 54q-4 1-8 1-4.2 0-8-1.6-4-1.6-6.8-4.5-3-3-4.7-7.1-1.7-4.2-1.7-9.4 0-5 1.6-9.3Q14 19 17 15.8q3-3 7-4.8 4-1.7 8.7-1.7 3.7 0 6.4.9 2.8.9 4.9 2.1l1.2-2h2.5l.3 15.2h-2.6q-.6-2.5-1.6-5-1-2.4-2.4-4.3-1.5-2-3.7-3.1-2.2-1.2-5.2-1.2-3.3 0-6 1.4-2.5 1.3-4.4 4-1.9 2.5-3 6.3-1 3.9-1 8.6 0 4.1 1 7.8t3 6.4q1.9 2.7 4.8 4.3 2.8 1.6 6.5 1.6 2.7 0 5-.8 2.2-.9 3-1.8.3-1.6.3-3.2v-5.2q0-1.3-.3-2.3-.3-1-1.4-1.5-1-.4-2.8-.7l-2.7-.3v-2.2h19.2z"/></svg>