<svg xmlns="http://www.w3.org/2000/svg" fill="#fff" viewBox="0 0 64 64"><path stroke="#000" stroke-linejoin="round" stroke-width="2.8" d="M2.4 12.6c0-.5 0-1 .2-1.5l4.8 4.3 5.3-5.9-4.8-4.2a7.5 7.5 0 0 1 9.6 7.2v1.2l5.8 5.2a16.6 16.6 0 0 0-5 6.3l-6-5.5a7.5 7.5 0 0 1-9.8-7.1zm51.7 31.3a7.4 7.4 0 0 0-2.2.3l-5.7-5c-1 2.5-2.5 4.8-4.5 6.6l5 4.4a7.5 7.5 0 0 0 9.5 8.4l-4.9-4.3 5.3-5.8 4.9 4.3v-1.4a7.5 7.5 0 0 0-7.4-7.5zm-8.4-18.7 6-5.5a7.5 7.5 0 0 0 9.7-8.6l-4.8 4.3-5.3-5.9 4.8-4.2a7.6 7.6 0 0 0-9.6 7.2v1.2l-5.8 5.2c2.1 1.7 3.8 3.8 5 6.3zm-27.9 14-5.7 5a7.5 7.5 0 0 0-9.7 7.2 6.6 6.6 0 0 0 .2 1.4l4.8-4.4 5.3 6-5 4.2a7.5 7.5 0 0 0 9.7-8.4l4.9-4.3c-2-1.9-3.6-4.2-4.5-6.7zM40 45.7a2.7 2.7 0 0 1-3.3 3.9 2.7 2.7 0 0 1-1.5-2.8h-.5a2.6 2.6 0 0 1-2.6 3 2.6 2.6 0 0 1-2.6-3H29c.2 1.6-1 3-2.7 3a2.7 2.7 0 0 1-2.7-2.7 2.9 2.9 0 0 1 .4-1.5 16.1 16.1 0 0 1-6-12.8c0-8.6 6.2-15.6 14-15.6s14 7 14 15.6a16.1 16.1 0 0 1-6 13zM29.6 31c-.3-.6-.8-1.2-1.4-1.6a4.5 4.5 0 0 0-2.2-.7l-.8.1c-1 .2-1.9.8-2.4 1.6a3.7 3.7 0 0 0-1 2.3c0 .7 0 1.3.2 2 .2.8.7 1.4 1.4 1.9.3.2.7.6 1 .3.3-.3 0-.8.3-1.2a1.3 1.3 0 0 1 .7-.8l2-.9c.5-.1 1-.5 1.5-.8.6-.5 1-1.4.7-2.2zm2.4 6c-.8 0-1.6 3-1.5 4.4.5 1.7.6-1.3 1.5-1.3.7 0 .6 3 1.3 1.3.2-1.3-.6-4.4-1.3-4.4zm10-2.1c0-.7.2-1.4.1-2 0-.9-.4-1.6-1-2.3a3.7 3.7 0 0 0-2.4-1.6H38a4.5 4.5 0 0 0-2.3.6c-.6.4-1 1-1.4 1.6-.3.8.2 1.7.8 2.2l1.5.9 2 .8c.3.2.5.5.6.8.2.4 0 .9.3 1.2.3.3.8 0 1-.3.7-.5 1.2-1.1 1.4-1.9z"/><path d="M32 17.2c-7.8 0-14 7-14 15.6a16.1 16.1 0 0 0 6 12.8 2.9 2.9 0 0 0-.4 1.5c0 1.5 1.2 2.7 2.7 2.7 1.7 0 3-1.4 2.7-3h.4c-.3 1.6 1 3 2.6 3a2.6 2.6 0 0 0 2.6-3h.5a2.7 2.7 0 1 0 4.8-1 16.1 16.1 0 0 0 6.2-13c0-8.6-6.3-15.6-14-15.6zm-6 11.6a4.5 4.5 0 0 1 2.2.7c.6.4 1 1 1.4 1.6.3.8-.1 1.7-.7 2.2-.5.3-1 .7-1.6.8l-2 1a1.3 1.3 0 0 0-.6.7c-.2.4 0 .9-.2 1.2-.4.3-.8 0-1.1-.3a3.2 3.2 0 0 1-1.4-2l-.2-2a3.7 3.7 0 0 1 1-2.2c.5-.8 1.4-1.5 2.4-1.6h.8zm12 0a3.6 3.6 0 0 1 .8.1c1 .2 1.9.8 2.5 1.6.5.7.9 1.4.9 2.3 0 .6 0 1.3-.2 2-.2.8-.7 1.4-1.3 1.9-.3.3-.8.6-1.1.3-.3-.3 0-.8-.3-1.2-.1-.3-.3-.6-.6-.8l-2-.9c-.6-.1-1-.5-1.5-.8-.6-.5-1-1.4-.8-2.2a5 5 0 0 1 1.4-1.6 4.5 4.5 0 0 1 2.3-.7zm-6 8c.8 0 1.6 3.2 1.4 4.4-.7 1.9-.6-1.2-1.3-1.2-.9 0-1 3-1.5 1.2-.1-1.3.7-4.4 1.5-4.3zm-14.2 2.4-5.7 5a7.5 7.5 0 0 0-9.7 7.1v.1a6.6 6.6 0 0 0 .2 1.4l4.8-4.4 5.3 5.9-5 4.3a7.5 7.5 0 0 0 9.7-8.4l4.9-4.4c-2-1.8-3.6-4.1-4.5-6.7zm27.9-14 6-5.5a7.5 7.5 0 0 0 9.7-8.6l-4.8 4.3-5.3-5.9 4.8-4.2a7.6 7.6 0 0 0-9.6 7.2v1.2l-5.8 5.2c2.1 1.7 3.8 3.8 5 6.3zM54 43.9a7.4 7.4 0 0 0-2.2.3l-5.7-5c-1 2.5-2.5 4.8-4.5 6.6l5 4.4a7.5 7.5 0 0 0 9.5 8.4l-4.9-4.3 5.3-5.9 4.9 4.4v-1.4a7.5 7.5 0 0 0-7.4-7.5zM2.4 12.6a7.6 7.6 0 0 1 .2-1.5l4.8 4.3 5.3-5.9-4.8-4.2a7.5 7.5 0 0 1 9.6 7.2v1.2l5.8 5.2a16.6 16.6 0 0 0-5 6.3l-6-5.5a7.5 7.5 0 0 1-9.8-7.1z"/></svg>