<svg xmlns="http://www.w3.org/2000/svg" viewBox="0 0 64 64"><defs><linearGradient id="a" x1="42.8" x2="189.4" y1="10.2" y2="74.1" gradientTransform="matrix(.4 0 0 1 -18.7 -10.2)" gradientUnits="userSpaceOnUse"><stop offset="0" stop-color="#4cabfe"/><stop offset="1" stop-color="#044d92"/></linearGradient></defs><path fill="url(#a)" d="M0 0v64h64V0z"/><path d="M2 2h60v56H2z"/><path fill="#fff" d="M22.5 34.5v-14h-2v14zM6 20.5v14h2v-14zm9.3 0v5.9H9l2 2.3h4.3v5.8h2v-14zm14 14H32l-5.5-7 5.2-7H29l-5.2 7.1zm5.5-14v14h2v-12h7.9v-2zm3.1 6.7 1.7 2h3.7v-2zm9.7-6.6v14h2V22.3h3.9c.8 0 1.5.2 1.9.7a2.5 2.5 0 0 1 .6 1.7c0 .8-.2 1.4-.6 1.9-.4.4-1 .7-2 .7h-2.6l1.5 1.8h1.3c1.3 0 2.4-.4 3.2-1.2.8-.9 1.2-1.9 1.2-3.1a4.2 4.2 0 0 0-4.4-4.3z"/><path fill="#044c90" d="M3 37.4h58v2H3z"/><path fill="#0464c0" d="M32 37.4h29v2H32z"/><path fill="#2887dd" d="M46.5 37.4H61v2H46.5z"/><path fill="#4cabfe" d="M57.4 37.4H61v2h-3.6z"/></svg>