<svg xmlns="http://www.w3.org/2000/svg" width="64" height="64" viewBox="-64 0 64 64"><path fill="#701" d="M-24 20V2a2 2 0 0 0-2-2h-4a2 2 0 0 0-2 2v18.4q1-.4 2-.4zm16 12a8 8 0 0 0-8-8h-14a2 2 0 0 0-2 2 6 6 0 0 0 6 6h4.3q1.8 0 1.7 1v2q0 1-1 1c-5.5.3-8 3.1-12 9.1l-.8 1.2a1 1 0 0 1-1.4.2l-1.6-1a1 1 0 0 1-.3-1.4l.8-1.2a35 35 0 0 1 5.9-7.3 8 8 0 0 1-4.9-4.3 6 6 0 0 1-2.7.7h-4a6 6 0 0 1-4-1.6 6 6 0 0 1-4 1.6h-4l-2-.4v9.8c0 4.2 1.7 8.3 4.7 11.3L-48 56v8h32v-8l4.5-4.5A12 12 0 0 0-8 43Zm-4-11.3V6a2 2 0 0 0-2-2h-4a2 2 0 0 0-2 2v14h4q2 0 4 .7M-54 28h4a2 2 0 0 0 2-2V10a2 2 0 0 0-2-2h-4a2 2 0 0 0-2 2v16q.2 1.8 2 2m12 0h4c1 0 2-.9 2-2V6a2 2 0 0 0-2-2h-4a2 2 0 0 0-2 2v20c0 1 .9 2 2 2" style="stroke-width:2.13333"/></svg>