<svg xmlns="http://www.w3.org/2000/svg" viewBox="0 0 64 64"><defs><linearGradient id="A" x1="44" x2="44" y1="61" y2="1.8" gradientUnits="userSpaceOnUse"><stop offset="0" stop-color="#f1eee9"/><stop offset=".7" stop-color="#f1eeed"/><stop offset="1" stop-color="#f1eef3"/></linearGradient></defs><rect width="62" height="62" x="1" y="1" fill="url(#A)" stroke="#4d4d4d" stroke-width="2" rx="6"/><path fill="#666" d="M8 6.39h5.48v25.89H7.99zm27.16 25.86H16.84v-3.73c3.9-4.73 9.11-7.61 11.69-12.6a5.21 5.21 0 0 0 .4-1.99c0-1.04-.3-1.8-.89-2.28a3.43 3.43 0 0 0-2.28-.75 7.1 7.1 0 0 0-2.98.65 15.31 15.31 0 0 0-3 1.96l-3-3.46a21.24 21.24 0 0 1 3.2-2.29 12.05 12.05 0 0 1 6.14-1.34c1.63 0 3.1.3 4.34.88a6.59 6.59 0 0 1 2.94 2.45 6.6 6.6 0 0 1 1 3.6c0 1.17-.19 2.28-.64 3.29-2.57 4.58-5.61 7.5-9.33 11.02h10.73zm8.42-13.72h1.83c1.66 0 2.94-.32 3.79-.97a3.59 3.59 0 0 0 1.24-2.94c0-1.28-.33-2.22-1.05-2.84s-1.8-.92-3.3-.92h-2.51zm12.4-4.1c0 2.77-.84 4.89-2.6 6.39-1.74 1.47-4.22 2.22-7.42 2.22h-2.35v9.2H38.1V6.37h8.3c3.13 0 5.55.65 7.18 2.02 1.63 1.34 2.41 3.36 2.41 6.04"/><g transform="matrix(2.76 0 0 2.76 -8.1 -45.24)"><g fill="#eb4b3a"><circle cx="12.25" cy="35.47" r="1.83"/><circle cx="21.41" cy="30.89" r="1.83"/></g><g fill="#53b653"><circle cx="7.67" cy="30.89" r="1.83"/><circle cx="16.83" cy="30.89" r="1.83"/><circle cx="21.41" cy="35.47" r="1.83"/></g><g fill="#ffc332"><circle cx="7.67" cy="35.47" r="1.83"/><circle cx="12.25" cy="30.89" r="1.83"/><circle cx="16.83" cy="35.47" r="1.83"/></g></g></svg>