<svg xmlns="http://www.w3.org/2000/svg" viewBox="0 0 64 64"><defs/><rect width="64" height="64" fill="purple" rx="5"/><g fill="#d5f"><circle cx="20" cy="32" r="4"/><circle cx="32" cy="32" r="4"/><circle cx="32" cy="56" r="4"/><circle cx="44" cy="32" r="4"/><circle cx="20" cy="56" r="4"/><circle cx="44" cy="8" r="4"/><circle cx="44" cy="20" r="4"/><circle cx="44" cy="44" r="4"/><circle cx="44" cy="56" r="4"/><circle cx="8" cy="32" r="4"/><circle cx="56" cy="32" r="4"/><circle cx="8" cy="44" r="4"/><circle cx="56" cy="20" r="4"/><circle cx="56" cy="44" r="4"/><circle cx="8" cy="56" r="4"/><circle cx="56" cy="8" r="4"/><circle cx="56" cy="56" r="4"/></g><g fill="#405"><circle cx="32" cy="8" r="4"/><circle cx="32" cy="20" r="4"/><circle cx="20" cy="44" r="4"/><circle cx="32" cy="44" r="4"/><circle cx="8" cy="20" r="4"/><circle cx="20" cy="8" r="4"/><circle cx="20" cy="20" r="4"/><circle cx="8" cy="8" r="4"/></g></svg>
