<svg xmlns="http://www.w3.org/2000/svg" viewBox="0 0 64 64"><g fill="#ca3e47"><path stroke="#000" stroke-width="8" d="M32 4.81c6.95 4.61 14.06 8.87 23.36 8.95C55.4 40.7 46.28 47.78 32 58.92 17.73 47.78 8.61 40.7 8.64 13.76c9.29-.07 16.42-4.34 23.36-8.95z"/><path d="M32 4.96c6.94 4.62 14.07 8.88 23.36 8.95.03 26.95-9.09 34.03-23.36 45.17C17.73 47.94 8.61 40.86 8.64 13.91c9.3-.07 16.42-4.33 23.36-8.95z"/></g><path fill="#79262b" d="M32 4.96c-6.94 4.62-14.07 8.88-23.36 8.95C8.6 40.86 17.73 47.94 32 59.08z"/><path fill="none" stroke="#fff" stroke-width="3" d="M32 4.92c6.95 4.62 14.06 8.89 23.36 8.96C55.4 40.82 46.28 47.9 32 59.04 17.73 47.9 8.61 40.82 8.64 13.88c9.29-.07 16.42-4.34 23.36-8.96z"/></svg>