<svg xmlns="http://www.w3.org/2000/svg" viewBox="0 0 64 64"><rect width="64" height="64" fill="#300" ry="8"/><path fill="#f33" d="M21.8 20.18V34.3l7.26-1.7V6.04H21.8v14.1z"/><path fill="#fff" d="M32.53 9.52v3.47h8.58v8.3l.04 8.38 3.63-.87 3.6-.87v-7.5l.04-7.47h8.57V6H32.5v3.48zM44.7 32.55l-3.6.87v24.26h7.32V44.64l-.04-12.96z"/><path fill="#f33" d="m25.34 37.26-3.55.86v3.36c0 3.68-.08 4.75-.4 5.81a5.36 5.36 0 0 1-3.71 3.36c-1.5.28-3.08-.24-4.59-1.46l-.4-.36-2.84 2.33-2.84 2.3.35.47c.8.95 2.37 2.13 3.95 2.88 1.62.87 3.05 1.19 5.3 1.19s3.91-.36 5.61-1.1a9.68 9.68 0 0 0 3.16-2.22 12.25 12.25 0 0 0 3.56-7.11c.2-1.3.24-11.22.04-11.18l-3.64.86z"/></svg>