<svg xmlns="http://www.w3.org/2000/svg" viewBox="0 0 64 64"><g fill="none" stroke="#0095aa" stroke-width="4" transform="matrix(.4332 .2166 -.2166 .4332 32 32)"><path d="M0 64V-64M-37 52c-9-6-11-22-4-42A122 122 0 0 1-4-42c16-13 32-17 41-10"/><path d="M-64 0c0-16 12-31 32-39a88 88 0 0 1 64 0c20 8 32 23 32 39"/><path d="M-37-52c15-10 43 5 63 34s25 60 11 70"/><path d="M45 45A55 39 0 0 1 0 62a55 39 0 0 1-45-17M62 16A63 45 0 0 1 0 52a63 45 0 0 1-62-36M62-16a63 45 0 0 1-27 45 63 45 0 0 1-70 0 63 45 0 0 1-27-45M45-45a55 39 0 0 1-8 52 55 39 0 0 1-74 0 55 39 0 0 1-8-52"/><ellipse cy="-34.7" rx="41.1" ry="29.1"/><ellipse cy="-42.5" rx="21.9" ry="15.5"/><circle r="64"/></g></svg>