<svg xmlns="http://www.w3.org/2000/svg" viewBox="0 0 64 64"><g transform="scale(2)"><circle cx="16" cy="16" r="16" fill="#ffcc34"/><circle cx="16" cy="16" r="13" fill="#333"/><path fill="#fefefe" d="m7 20.56-3.13-3.02 2.55-2.56 1.4 1.16.11-.11a4.38 4.38 0 0 1 1.28-4.3c1.27-1.27 2.9-1.62 4.3-.93a5.58 5.58 0 0 1 .11-2.43c.23-.82.7-1.63 1.4-2.33 1.85-1.85 4.52-1.97 7.42.93l5.7 5.7-2.9 2.9L20 10.33c-1.4-1.4-2.67-1.74-3.6-.81-.7.7-.7 1.62-.35 2.43.11.24.46.59.7.82l5.68 5.69-2.9 2.9-5.34-5.34c-1.16-1.16-2.44-1.63-3.48-.58-.82.81-.58 1.86-.35 2.44.11.34.35.58.7.92l5.57 5.58-2.9 2.9z"/></g></svg>