<svg xmlns="http://www.w3.org/2000/svg" xmlns:xlink="http://www.w3.org/1999/xlink" viewBox="0 0 64 64"><defs><path id="a" stroke-width="4.8" d="M22.3 15.7c3 .2 8.6 3.7 11 10 .7 1.3 1 2.7 1 4.2v6.9L15.7 15.7H2.5L7.8 22v11c0 9.5-1.7 14.8-5.3 15.2v.2h18v-.2c-3-.3-8.6-3.6-11-10a12 12 0 0 1-.8-4.2V23l21.7 25.4H35v-18c.2-9.2 1.9-14.3 5.4-14.7Z"/><path id="b" stroke-width="4.8" d="M39.4 15.7c4.6.4 6.3 3.7 6.3 7.3 0 4.1-1.8 7.5-7 7.4h-2.9l12.3 18h13.4V48c-1.2-.5-2-1.2-3.1-2.9l-8.9-13a12 12 0 0 1-5.6 1.2 12.3 12.3 0 0 1-7.6-2.4c16.2 1.2 20.1-3 20.1-8.1 0-5.8-6.3-7.1-15.2-7.1h-1.7z"/></defs><g stroke="#000" stroke-linecap="round" stroke-linejoin="round" stroke-width="4.8"><use xlink:href="#a"/><use xlink:href="#b"/></g><g fill="#fff"><use xlink:href="#a"/><use xlink:href="#b"/></g></svg>