<svg xmlns="http://www.w3.org/2000/svg" viewBox="0 0 64 64"><defs><radialGradient id="a" cx="60.9" cy="69.2" r="48.4" fx="60.9" fy="69.2" gradientTransform="matrix(.19576 .33906 -.44839 .25888 -11.2 -19.4)" gradientUnits="userSpaceOnUse"><stop offset="0" stop-color="#fff8e1"/><stop offset=".4" stop-color="#ffca28"/><stop offset=".6" stop-color="#f8b713"/><stop offset=".8" stop-color="#f4aa05"/><stop offset="1" stop-color="#f2a600"/></radialGradient></defs><g fill="#616161"><path d="m23.7 44.8-4.5-4.5L0 59.5 4.5 64z"/><path d="M38.4 0a25.6 25.6 0 0 0 0 51.2A25.6 25.6 0 0 0 64 25.6 25.6 25.6 0 0 0 38.4 0zm0 4.8c11.5 0 20.8 9.3 20.8 20.8a20.8 20.8 0 0 1-20.8 20.8 20.8 20.8 0 0 1-20.8-20.8c0-11.5 9.3-20.8 20.8-20.8z"/></g><path fill="#37474f" d="M13 55.5 8.4 51 0 59.6 4.4 64z"/><path fill="url(#a)" d="M-24.9 2.7s-.2 0-.3.2l-1 1.8-.5-.9h-.3c-.6 1.6-1.2 3.8-2.5 4.6a10.5 10.5 0 0 0-1.7 18.3 6.7 6.7 0 0 0 1.8.8c2.1.8 4.6.8 7-.1 2.3-1 6.6-4.6 6.7-9.4v-.5c-.4-4.7-2.8-7.4-6.8-9.5-1.6-1.3-2-3.4-2.4-5.3z" transform="translate(70.8 5.2) scale(1.2655)"/><path fill="none" stroke="#c87137" stroke-linejoin="round" stroke-width="1.3" d="M39.3 8.6c-.1 0-.3 0-.4.3L37.7 11l-.8-1c0-.2-.3-.1-.3-.1-.7 2.1-1.5 5-3.2 6a13.3 13.3 0 0 0-2.1 23 6 6 0 0 0 2.3 1c2.7 1 5.7 1.1 8.7 0 3.1-1.3 8.5-5.9 8.7-12v-.6c-.6-6-3.6-9.3-8.7-12-2-1.6-2.5-4.3-3-6.7z"/><path fill="#c87137" d="M37 11.8a5.3 5.3 0 0 1 0 3 11.1 11.1 0 0 1-1.1 2.9l-1.7 2.5a16.6 16.6 0 0 0-1.5 2.4c-.8 1.7-1 3.6-.8 5.5a10.3 10.3 0 0 0 .9 2.7c.3.9.8 1.7 1.4 2.6a14 14 0 0 1-2-2.3 10 10 0 0 1-1.4-4.4v-1.6l.9-3a13.2 13.2 0 0 1 1.6-2.6l1-1 .8-1.3c1-1.6 1.9-3.4 1.8-5.4zm-4.3 6.7c-1 1-1.8 2-2.5 3.1l-.9 1.8-.7 1.8A9.8 9.8 0 0 0 29 31l.8 2a9 9 0 0 1-2-3.8 8.4 8.4 0 0 1 .1-4.2 11 11 0 0 1 3.3-5.3 11.7 11.7 0 0 1 1.6-1.3zm5.5-6.1a18.4 18.4 0 0 0 2.2 3.6l1.5 1.4 1.8 1.3 1.7 1.2a9 9 0 0 1 2.7 3.6 12.3 12.3 0 0 1 .9 6.7 9 9 0 0 1-2 4c-.8 1.2-2 2.1-3.2 3A19.9 19.9 0 0 1 40 39c1.8-1.1 3.6-2.4 5.1-3.8 1-1 1.8-2.1 2.3-3.4a9.3 9.3 0 0 0 .4-6 11 11 0 0 0-1.6-3.8c-.8-1-1.8-2-3-2.8-1.1-.8-2.2-1.8-3-3a11.6 11.6 0 0 1-1.9-4zm-.4 2a15.5 15.5 0 0 0 2.5 5.8L42 23a9.9 9.9 0 0 1 1.6 6.3A14.3 14.3 0 0 1 39 38l-.4-.7a12.6 12.6 0 0 0 6.2-5.5 9.2 9.2 0 0 0-.2-8.2c.4.6.8 1.3 1 2a9.1 9.1 0 0 1-.4 6.4 10.6 10.6 0 0 1-2.6 3.6 16 16 0 0 1-3.7 2.5l-2.3.9 2-1.9a15.4 15.4 0 0 0 3.6-5 10 10 0 0 0-1.4-10.3l-.9-1.4a16.8 16.8 0 0 1-1.3-3c-.4-1-.6-2-.7-3z"/></svg>