<svg xmlns="http://www.w3.org/2000/svg" width="64" height="64"><g fill="#eeb490"><circle cx="18.126" cy="26.853" r="5.325"/><circle cx="45.888" cy="26.853" r="5.325"/></g><path fill="#00aad4" d="M60.075 68.255H3.925V58.2c0-4.686 3.504-8.6 8.1-9.19L24.4 44.094h15.198L51.973 49c4.642.547 8.1 4.505 8.1 9.19z"/><path fill="#08a" d="M21.762 46.778v4.505c0 5.733 4.686 10.556 10.42 10.466 5.55-.09 10.024-4.642 10.024-10.238V46.78a2.95 2.95 0 0 0-2.957-2.957H24.676c-1.593.046-2.912 1.365-2.912 2.957z"/><path fill="#eeb490" d="M24.992 40.316v7.462a7.01 7.01 0 0 0 7.007 7.007 7.01 7.01 0 0 0 7.007-7.007v-7.462z"/><path fill="#faccb4" d="M39.05 12.696H24.947a6 6 0 0 0-6.006 6.006v13.515c0 7.234 5.87 13.06 13.06 13.06 7.234 0 13.06-5.87 13.06-13.06V18.703a6 6 0 0 0-6.006-6.006z"/><g fill="#56545f"><path d="M45.068 7.1s10.057 1.32 0 20.297v-7.782s-.728-5.6-4.14-5.916z"/><path d="M38.24.001H25.77a7.5 7.5 0 0 0-1.457.136C5.47.137 18.94 28.352 18.94 28.352c0-10.877 6.827-10.922 6.827-10.922h12.516c4.825 0 8.693-3.914 8.693-8.693A8.74 8.74 0 0 0 38.24 0z"/></g></svg>