<svg xmlns="http://www.w3.org/2000/svg" viewBox="0 0 64 64"><path fill="#3ddf89" d="M31.3 13.1a18.9 18.9 0 0 0-18.2 19.4 18.9 18.9 0 0 1 18.4 18.4 18.9 18.9 0 1 0-.2-37.8"/><path fill="#4c9cef" d="M32 1A31 31 0 0 0 1 32a31 31 0 0 0 .3 4.3 25 25 0 0 1 3.5-2.1 28 28 0 0 1 0-2.2A27.2 27.2 0 0 1 32 4.7C47 4.7 59.3 17 59.3 32A27.2 27.2 0 0 1 32 59.3l-2.2-.1a19 19 0 0 1-2 3.5 31 31 0 0 0 4.2.3 31 31 0 0 0 0-62"/><path fill="#4cdcdf" d="M21 59.6a11.7 11.7 0 0 1-16.6 0 12 12 0 0 1 0-16.6A11.7 11.7 0 0 1 21 43c4.6 4.5 4.6 12 0 16.5z"/></svg>