<svg xmlns="http://www.w3.org/2000/svg" viewBox="0 0 64 64"><g transform="scale(.12696)"><path fill="#a3c0c4" d="M72 177a12 12 0 11-23 0V78a12 12 0 0123 0z"/><path fill="#003e89" d="M504 432a32 32 0 01-32 32H32a32 32 0 01-32-32V217a32 32 0 0132-32h440a32 32 0 0132 32z"/><path fill="#085bbf" d="M504 404a32 32 0 01-32 32H32a32 32 0 01-32-32V190a32 32 0 0132-33h440a32 32 0 0132 33z"/><path fill="#177add" d="M0 190a32 32 0 0132-33h440a32 32 0 0132 33"/><path fill="#566366" d="M130 223a98 98 0 0198 92v-6a99 99 0 00-196 0v6a99 99 0 0198-92z"/><path fill="#003e89" d="M130 217a99 99 0 00-99 98c0 26 10 75 26 129h147c15-54 25-103 25-129a99 99 0 00-99-98z"/><circle cx="130" cy="315.4" r="98.5" fill="#121c1b"/><path fill="#283538" d="M60 385a99 99 0 11140-139"/><path fill="#121c1b" d="M136 271a6 6 0 11-12 0v-21a6 6 0 1112 0z"/><path fill="#65e83a" d="M136 262a6 6 0 11-12 0v-22a6 6 0 016-5c3 0 6 2 6 6z"/><path fill="#003e89" d="M477 244c0 13-10 23-23 23H257a22 22 0 010-45h197a22 22 0 0123 22z"/><path fill="#fafdfe" d="M477 233c0 12-10 22-23 22H257a22 22 0 010-45h197c13 0 23 10 23 23z"/><path fill="#dde9ed" d="M257 210h197a22 22 0 010 45"/><path fill="#65e83a" d="M286 238c0 5-4 9-10 9a10 10 0 01-9-9v-10a10 10 0 019-10c6 0 10 4 10 10z"/><path fill="#41bc13" d="M276 218c6 0 10 4 10 10v10c0 5-4 9-10 9"/><path fill="#7e9799" d="M89 59a19 19 0 01-19 19H51a19 19 0 010-38h19a19 19 0 0119 19z"/><path fill="#637f7f" d="M89 59a19 19 0 01-19 19H51a19 19 0 01-19-19"/><g fill="#003e89"><circle cx="297" cy="297.5" r="8.9"/><circle cx="343.3" cy="297.5" r="8.9"/><circle cx="389.6" cy="297.5" r="8.9"/><circle cx="435.9" cy="297.5" r="8.9"/><circle cx="297" cy="336.9" r="8.9"/><circle cx="343.3" cy="336.9" r="8.9"/><circle cx="389.6" cy="336.9" r="8.9"/><circle cx="435.9" cy="336.9" r="8.9"/><circle cx="297" cy="376.3" r="8.9"/><circle cx="343.3" cy="376.3" r="8.9"/><circle cx="389.6" cy="376.3" r="8.9"/><circle cx="435.9" cy="376.3" r="8.9"/></g></g></svg>