<svg xmlns="http://www.w3.org/2000/svg" viewBox="0 0 64 64"><path fill="#e6af78" d="M41.3 42.8V37H22.1v5.7a2.1 2.1 0 01-1.6 2.1l-13.2 3A4.2 4.2 0 004.2 52v8.3a2.1 2.1 0 002 2.1h51a2.1 2.1 0 002-2V52A4.2 4.2 0 0056 48l-13.1-3a2.1 2.1 0 01-1.7-2.1z"/><path fill="#5b5d6e" d="M56 47.9l-10.5-2.5-1-1-2.2.2-10.6 6.2-10.2-6.5-2.5.1v.8L7.4 47.9A4.2 4.2 0 004.2 52v8.3a2.1 2.1 0 002 2.1h51a2.1 2.1 0 002-2V52c0-2-1.3-3.7-3.2-4.1z"/><path fill="#d7deed" d="M19 44.4l6.4 18H38l6.3-18-12.7 6.4z"/><path fill="#5b5d6e" d="M34.4 62.4H29l.8-9.5h3.6z"/><path fill="#d29b6e" d="M22.2 42.8c0 .7-.4 1.3-1 1.7 12.6 6.3 20-6.2 20-6.2V37h-19z"/><path fill="#f0c087" d="M18 12.7l.9 20.3a6.4 6.4 0 002.5 4.8l4.4 3.3c1 .8 2.4 1.2 3.8 1.2h4.2c1.4 0 2.7-.4 3.8-1.2l4.4-3.3a6.4 6.4 0 002.6-4.8l.9-20.3z"/><path fill="#e6af78" d="M18 12.7l.9 20.3a6.4 6.4 0 002.5 4.8l4.4 3.3a6.4 6.4 0 003.8 1.2h2.1c-3.2-1-5.3-9.5-5.3-9.5V21.2c0-.8.6-1.4 1.4-1.5 6-.6 12.7-2 17.7-5.6v-1.4z"/><path fill="#7d7878" d="M15.8 11.6v1l1 11.7H19l2.1-6.4s13.8 0 21.2-4.2l2.1 10.6h2.2l1-11.7v-1A10.6 10.6 0 0037 1H26.4a10.6 10.6 0 00-10.6 10.6z"/><path fill="#f0c087" d="M47.5 26l-1.2 4.8c-.1.5-.6 1-1.2 1s-1.2-.6-1.3-1.2l-.6-4.9a2.2 2.2 0 114.3.3z"/><path fill="#e6af78" d="M15.9 26l1.2 4.8c.1.5.7 1 1.2 1 .7 0 1.2-.6 1.3-1.2l.6-4.9a2.2 2.2 0 10-4.3.3z"/><path fill="#515262" d="M12 55.6L5 49.4a4.2 4.2 0 00-1 2.6v8.3a2.1 2.1 0 002.2 2.1h7.4v-2.9a5.3 5.3 0 00-1.7-4zm39.5 0l6.9-6.2a4.2 4.2 0 01.9 2.6v8.3a2.1 2.1 0 01-2.2 2.1h-7.4v-2.9a5.3 5.3 0 011.8-4z"/><path fill="#65687a" d="M33.3 50.8h-3.2a1 1 0 00-1 1V54a1 1 0 001 1h3.2a1 1 0 001-1v-2.2a1 1 0 00-1-1z"/><path fill="#e4eaf6" d="M22 42l9.7 8.8s-2.7 1.4-6 4.1c-.7.6-1.8.4-2.1-.5l-4.6-10 1.4-2.1A1 1 0 0122 42zm19.4 0l-9.7 8.8s2.7 1.4 6 4.1c.8.6 1.8.4 2.2-.5l4.5-10-1.4-2.1a1 1 0 00-1.6-.2z"/><path fill="#65687a" d="M25.4 62.4l-6.4-18-2.6.9a1 1 0 00-.7.8l-.8 6.2a1 1 0 00.4 1l2.9 2.2a1 1 0 01.2 1.4l-1.1 1.8a1 1 0 000 1.2l1.7 2.6zm12.7 0l6.3-18 2.6.9a1 1 0 01.7.8l.9 6.2a1 1 0 01-.4 1l-3 2.2a1 1 0 00-.2 1.4l1.2 1.8a1 1 0 010 1.2l-1.8 2.5z"/><path fill="#515262" d="M44.4 22.2H33.8a1 1 0 00-1 1h-2.1a1 1 0 00-1.1-1H19a1 1 0 000 2.1h1.4l.5 3.5a2.1 2.1 0 002 1.8h5A2.1 2.1 0 0030 28l.4-1.6a1.4 1.4 0 011.3-1c.7 0 1.2.4 1.4 1l.3 1.6a2.1 2.1 0 002.1 1.6h5a2.1 2.1 0 002-1.8l.6-3.5h1.3a1 1 0 000-2.1z"/></svg>