<svg xmlns="http://www.w3.org/2000/svg" viewBox="0 0 64 64"><circle cx="32" cy="32" r="32" fill="#ff2a2a"/><path fill="#fff" d="M55.3 14.2a64.32 64.32 0 0 0-1.6 7.05h-3.05c.28-1 .37-1.64.38-2.2.02-1.3-1.48-2.14-3.7-2.14-2.29 0-3.81 1.17-3.84 2.63-.02 1.39.5 1.97 2.26 3.2l3.03 2.15c2.82 2 4.53 3.87 4.47 7.1-.1 5.35-4.64 8.06-10.45 8.06-1.36 0-2.5-.21-3.42-.43-.79-.2-1.55-.44-2.38-.44a3.86 3.86 0 0 0-1.77.47l-.47-.26a121.86 121.86 0 0 0-1.4-7.76l3.17-.76c.83 3.93 2.65 5.74 6.61 5.74 2.6 0 4-1.27 4.03-3.3.03-1.94-.98-2.75-2.82-3.96l-2.41-1.57a14.4 14.4 0 0 1-2.15-1.71 7.13 7.13 0 0 1-2.02-5.39c.06-4.2 3.84-7.2 8.95-7.2 2.14 0 3.8.54 5.74.65.64.02 1.71-.12 2.4-.29l.44.35zm-31.96 1.25a62.16 62.16 0 0 0-10.56 1.01c-3.1.61-7.94 2.16-7.94 6.03a2.46 2.46 0 0 0 2.46 2.49c1.05 0 2.17-.48 2.67-1.08.1-.13.18-.24.18-.43 0-.27-.16-.45-.3-.65-.1-.16-.14-.34-.14-.58 0-.56.83-1.25 1.59-1.55a15.1 15.1 0 0 1 2.86-.8l-3.43 20.69c-.14.83-.66 1.24-1.3 1.44a4.57 4.57 0 0 1-1.06.22c-.4.04-.8.04-1.4.07l-.54 3.32c2.28-.13 4.7-.25 7-.25 2.53-.01 5.07.1 7.37.25l.65-3.32-1.6-.11c-2.3-.15-2.32-.57-2.12-1.87l1.08-6.8h2.49c3.19 10.8 11.48 16.98 25.55 16.98 7.6 0 10.5-2.35 10.5-5.3-.34-3.86-5.8-4.68-8.7-3.46a2.2 2.2 0 0 1 2.24 2.27c0 1.43-1.2 2.9-4.62 2.9-9 0-15.01-5.73-17.88-14.68 3.77-1.28 7.29-4.28 7.29-8.92 0-5.64-5.2-7.87-12.34-7.87zm.56 3.4c2.6 0 4.59 1.82 4.59 4.72 0 3.77-3.6 6.57-7.9 6.57-.3 0-.87.03-1.2 0l1.8-11.22c.55-.06 2.1-.08 2.71-.08z"/></svg>