<svg xmlns="http://www.w3.org/2000/svg" viewBox="0 0 64 64"><path fill="#aca793" stroke="#aca793" d="M51.7 20c.2-6.8-2-11.7-6-14-4-2.3-9.3-1.7-15 1.9h-.1c-5.7-3.6-11-4.2-15-2-4 2.4-6 7.3-5.8 14v.1h-.1C3.7 23.3.5 27.6.5 32.2s3.3 9 9.2 12v.2c-.2 6.7 1.9 11.6 5.9 14a10.3 10.3 0 0 0 5.2 1.3c3 0 6.3-1 9.8-3.3h.2a19 19 0 0 0 9.8 3.3c1.9 0 3.6-.4 5.2-1.3 4-2.4 6-7.3 5.8-14v-.1h.1c6-3.2 9.2-7.5 9.2-12 0-4.7-3.3-9-9.2-12.1zm-9 19a51.8 51.8 0 0 1-4.3 6.5 51.8 51.8 0 0 1-15.4 0A51.8 51.8 0 0 1 15.3 32 51.9 51.9 0 0 1 23 18.8a51.8 51.8 0 0 1 15.4 0A51.8 51.8 0 0 1 46.1 32a51.8 51.8 0 0 1-3.4 7zm4.7-3a36.5 36.5 0 0 1 1.3 6.5 36.5 36.5 0 0 1-6.3 2.2 55.7 55.7 0 0 0 5-8.7zM30.7 53a36.5 36.5 0 0 1-5-4.4 55.7 55.7 0 0 0 10 0 36.5 36.5 0 0 1-5 4.4zm-11.8-8.3a36.5 36.5 0 0 1-6.3-2.2c.2-2 .7-4.3 1.3-6.5a55.7 55.7 0 0 0 5 8.7zm-2.7-21a55.7 55.7 0 0 0-2.3 4.5 36.5 36.5 0 0 1-1.3-6.5 36.5 36.5 0 0 1 6.3-2.1 55.7 55.7 0 0 0-2.7 4.2zm14.5-12.4c1.7 1.2 3.4 2.7 5 4.4a55.7 55.7 0 0 0-10 0 36.5 36.5 0 0 1 5-4.4zM45 23.8a55.7 55.7 0 0 0-2.7-4.2c2.3.5 4.4 1.2 6.3 2.1-.2 2.1-.6 4.3-1.3 6.5a52 52 0 0 0-2.3-4.4zM40.5 7.4a7.6 7.6 0 0 1 3.9 1c2.9 1.6 4.4 5.3 4.5 10.4a42.7 42.7 0 0 0-9-2.6 42.7 42.7 0 0 0-6.7-6.5 15 15 0 0 1 7.3-2.3zM17 8.4a7.6 7.6 0 0 1 3.8-1c2.2 0 4.7.8 7.4 2.3-2.3 1.8-4.6 4-6.7 6.5a42.7 42.7 0 0 0-9 2.6c0-5.1 1.6-8.8 4.5-10.4zM3.3 32c0-3.3 2.3-6.5 6.7-9a42.7 42.7 0 0 0 2.3 9 42.7 42.7 0 0 0-2.3 9.1c-4.4-2.6-6.7-5.8-6.7-9zM17 56c-2.9-1.7-4.5-5.4-4.5-10.4a42.7 42.7 0 0 0 9 2.5 42.7 42.7 0 0 0 6.7 6.6c-4.4 2.5-8.4 3-11.2 1.3zm27.4 0c-2.9 1.6-6.8 1.2-11.2-1.3 2.3-1.8 4.6-4 6.7-6.6a42.7 42.7 0 0 0 9-2.5c0 5-1.6 8.7-4.5 10.4zm7-14.7a42.7 42.7 0 0 0-2.3-9 42.7 42.7 0 0 0 2.3-9.2c4.3 2.6 6.7 5.8 6.7 9.1s-2.4 6.5-6.7 9.1z"/><circle cx="59.5" cy="32.1" r="4.5" fill="#0cf"/><circle cx="16.4" cy="56.8" r="4.5" fill="#0a0"/><circle cx="16.3" cy="7.2" r="4.5" fill="#ff2a7f"/><circle cx="30.6" cy="32.1" r="4.5" fill="#37c8ab"/></svg>