<svg xmlns="http://www.w3.org/2000/svg" xmlns:xlink="http://www.w3.org/1999/xlink" viewBox="0 0 64 64"><linearGradient id="a" gradientUnits="userSpaceOnUse"><stop offset="0" stop-color="#afc6e9"/><stop offset="1" stop-color="#162d50"/></linearGradient><linearGradient id="c" x1="30" x2="30" y1=".1" y2="21.4" xlink:href="#a"/><linearGradient id="b" x1="17.5" x2="17.5" y1="21.2" y2="42.2" xlink:href="#a"/><linearGradient id="d" x1="21.4" x2="21.4" y1="42.1" y2="63.5" gradientUnits="userSpaceOnUse"><stop offset="0" stop-color="#87aade"/><stop offset="1" stop-color="#162d50"/></linearGradient><path fill="url(#b)" d="M59.9 42.3H4a4 4 0 01-4-4V25.4a4 4 0 014-4H60a4 4 0 014 4v13a4 4 0 01-4 4z"/><path fill="url(#c)" d="M59.9 21.5H4a4 4 0 01-4-4V4.2a4 4 0 014-4H60a4 4 0 014 4v13.3a4 4 0 01-4 4z"/><g fill="#d7e3f4"><circle cx="53.7" cy="9.1" r="1.1"/><circle cx="49.3" cy="9.1" r="1.1"/><circle cx="55.9" cy="12.4" r="1.1"/><circle cx="51.5" cy="12.4" r="1.1"/><circle cx="45" cy="9.1" r="1.1"/><circle cx="47.1" cy="12.4" r="1.1"/><circle cx="40.6" cy="9.1" r="1.1"/><circle cx="42.8" cy="12.4" r="1.1"/><circle cx="36.2" cy="9.1" r="1.1"/><circle cx="38.4" cy="12.4" r="1.1"/></g><path fill="url(#d)" d="M59.9 63.7H4a4 4 0 01-4-4V46.3a4 4 0 014-4H60a4 4 0 014 4v13.4a4 4 0 01-4 4z"/><g fill="#0f6"><circle cx="10.5" cy="10.8" r="3.8"/><circle cx="10.5" cy="31.7" r="3.8"/><circle cx="10.6" cy="52.8" r="3.8"/></g><path fill="red" stroke="#333" stroke-width="2.5" d="M50.3 24.3c-2.3 0-4.5 1.4-6.5 2.6-2-1.2-4.2-2.6-6.5-2.6-6.8 0-12.4 5.6-12.4 12.4.2 13 14.5 19.8 19 25.3 3.7-5.3 18.6-15.8 18.9-25.3 0-6.8-5.6-12.4-12.5-12.4z"/><path fill="#7fd658" d="M41.3 32.2a1.4 1.4 0 00-1 .7l-7 9.7h-6l1.3 2.6h5.6c.4-.1.7-.4 1-.8l5.2-7.4 1.3 14.2a1.3 1.3 0 001.2 1 .7.7 0 00.2 0c.4 0 .8-.2 1-.6l.5-.9L50 41l2.8 2.7.7.4h5.2c.5-.8 1.3-1.7 1.6-2.5h-6L51 38.2l-.5-.4c-.4-.4-1.1-.4-1.5 0-.3.2-.4.4-.5.7l-1.8 3.2-2.8 5-1.2-13.5a1.3 1.3 0 00-1.2-1h-.2z"/></svg>