<svg xmlns="http://www.w3.org/2000/svg" viewBox="0 0 64 64"><path fill="#710303" d="M22.2 63.4c-1-2.6-.4-6.6 1.2-8.3-2-2-4.3-9-3.6-10.7-2.7-1.6-11.3 5-13.5 3.5-4-4 7.5-9 8.7-9.6-4.5-.1-6.5-2-7.6-6.6C7 30 7 29.7 6 29c-2.2-2-2.8-6.5-1-8.4.3-.3.3-.8.4-3.3.3-9.2 4.2-13 15.8-15.7 17.4-4 29.7-.3 32 11.3l2.5 13.8c.7 5.5-2.2 6.6-10.3 8.4-2 .4 1.4-.3 0 0l10.2 2.7c4 1 4 4.7 2.3 5.7S47 42.5 45 42c1.6 2.7 1.6 7.6-1.4 12.3 2.3 1.6 4.4 7.5 3.3 9-.5.8-9.2.5-9.5-.4a14 14 0 0 1 .1-7.2 15 15 0 0 1-8-.9c1.5 2.4 2.2 5.2 2 8-.2 1.2-9 1.8-9.3.7z"/><path fill="#edd195" d="M23.8 34.3c-.5-.4-.5-1 .1-1.4l23.6-3.5c.5 0 .8 1 .3 1a124 124 0 0 1-24 3.8zM34.5 2.7c-8.7 0-20 2.7-23.5 6.3-2 2-3 5.5-3 9.8 0 1 0 1 1.3 1 2.4-.2 3.7 1 4.4 3.8 1 3.8-.3 6.5-3.2 6.6-.5 0-.7 0-.7.3 0 .7.6 2.8.7 3 .6.6 7 1 10.5.7 1.4 0 1.4 0 1.4-1 0-1.3-.1-1.3 5.4-2l17-2.8c4.2-.7 4-1 4.2.7.1 1.2.1 1.2 1 1 4.4-1.3 4.4-1.5 2-12.8C50 7 46.4 5.6 41.5 3.8c-2-.7-4.6-1-7.5-1zm11 7c3.4 0 3.8 1.3 5 7 1.4 6.3 1 7.6-2.8 8.4l-20.2 3.5C17 30.3 18 31 15.7 18.7c-.4-2.4.4-3.8 2.5-4.5l27.3-4.4zM54 31.2c.4-.5 0-1.3-.5-1a64 64 0 0 1-12.2 3A98 98 0 0 1 12 35.3c-.2-.1-.7 0-.7.3C13 39 49.6 34.6 54 31z"/></svg>