<svg xmlns="http://www.w3.org/2000/svg" viewBox="0 0 64 64"><defs><radialGradient id="b" cx="32" cy="32" r="32" fx="32" fy="32" gradientTransform="matrix(2 0 0 2 -20 -20)" gradientUnits="userSpaceOnUse" href="#a"/><linearGradient id="a"><stop offset="0" stop-color="#0f0"/><stop offset="1" stop-color="#00ba00"/></linearGradient></defs><path fill="url(#b)" d="M8 0C3.57 0 0 3.57 0 8v48c0 4.43 3.57 8 8 8h48c4.43 0 8-3.57 8-8V8c0-4.43-3.57-8-8-8Zm26.46 4a31 31 0 0 1 4.96.6 44 44 0 0 1 7.33 2.35c.66.27 1.33.56 2 .86l-3.57 8.99a83 83 0 0 0-3.81-1.52 42 42 0 0 0-3.1-.98 22 22 0 0 0-3.81-.64Zm-4.34.14v9.84a6.3 6.3 0 0 0-1.59.78 4.9 4.9 0 0 0-1.7 2.12 5 5 0 0 0-.39 1.63 6.7 6.7 0 0 0 .15 2.03 4.9 4.9 0 0 0 1.38 2.36 9.1 9.1 0 0 0 2.16 1.65V36.8l-2.1-1.07a54 54 0 0 1-4.19-2.3c-.6-.37-1.15-.75-1.64-1.11a17.6 17.6 0 0 1-3.5-3.44 16.7 16.7 0 0 1-2.3-4.18 13.4 13.4 0 0 1-.6-2.48 16.5 16.5 0 0 1-.2-2.74 20.7 20.7 0 0 1 .3-3.42 15.8 15.8 0 0 1 .87-3.04 13.34 13.34 0 0 1 5.54-6.4 15.3 15.3 0 0 1 3.59-1.61 19.4 19.4 0 0 1 2.74-.67c.49-.08.98-.15 1.48-.2m4.34 22.74c.56.3 1.15.6 1.8.91a58 58 0 0 1 3.37 1.83 39 39 0 0 1 2.8 1.84 25 25 0 0 1 2.22 1.83 16 16 0 0 1 1.64 1.85 12.9 12.9 0 0 1 2.03 4.07 14.8 14.8 0 0 1 .64 3.6 19.8 19.8 0 0 1-.28 4.8 15.3 15.3 0 0 1-1.3 3.82 13.3 13.3 0 0 1-3.48 4.32 15.2 15.2 0 0 1-3.05 2 17.6 17.6 0 0 1-3.64 1.37 23 23 0 0 1-2.75.56V49.9a7 7 0 0 0 1.73-.9 4.9 4.9 0 0 0 1.47-1.81 5 5 0 0 0 .46-1.83 7.6 7.6 0 0 0-.02-1.47 4.9 4.9 0 0 0-1.28-2.68A8.5 8.5 0 0 0 35.55 40c-.24-.2-.5-.4-.78-.59l-.31-.2zM15 45.98a95 95 0 0 0 4.87 2.1 51 51 0 0 0 4.05 1.37 33 33 0 0 0 3.24.71 24 24 0 0 0 2.96.29v9.54l-.35.01a41 41 0 0 1-6-.46 32.6 32.6 0 0 1-5.44-1.38A28 28 0 0 1 15 56.72Z"/></svg>