<svg xmlns="http://www.w3.org/2000/svg" viewBox="0 0 64 64"><defs><radialGradient href="#a" id="b" cx="32" cy="32" r="32" fx="32" fy="32" gradientTransform="matrix(2 0 0 2 -20 -20)" gradientUnits="userSpaceOnUse"/><linearGradient id="a"><stop offset="0" stop-color="#0f0"/><stop offset="1" stop-color="#00ba00"/></linearGradient></defs><path fill="url(#b)" d="M8 0C3.57 0 0 3.57 0 8v48c0 4.43 3.57 8 8 8h48c4.43 0 8-3.57 8-8V8c0-4.43-3.57-8-8-8Zm26.46 4a30.9 30.9 0 0 1 4.96.6 44.12 44.12 0 0 1 7.33 2.35c.66.27 1.33.56 2 .86l-3.57 8.99a82.86 82.86 0 0 0-3.81-1.52 42.4 42.4 0 0 0-3.1-.98 22.17 22.17 0 0 0-3.81-.64Zm-4.34.14v9.84a6.29 6.29 0 0 0-1.59.78 4.92 4.92 0 0 0-1.7 2.12 5 5 0 0 0-.39 1.63 6.71 6.71 0 0 0 .15 2.03 4.88 4.88 0 0 0 1.38 2.36 9.09 9.09 0 0 0 2.16 1.65V36.8l-2.1-1.07a54.44 54.44 0 0 1-4.19-2.3c-.6-.37-1.15-.75-1.64-1.11a17.6 17.6 0 0 1-3.5-3.44 16.73 16.73 0 0 1-2.3-4.18 13.39 13.39 0 0 1-.6-2.48 16.48 16.48 0 0 1-.2-2.74 20.7 20.7 0 0 1 .3-3.42 15.77 15.77 0 0 1 .87-3.04 13.34 13.34 0 0 1 5.54-6.4 15.34 15.34 0 0 1 3.59-1.61 19.44 19.44 0 0 1 2.74-.67c.49-.08.98-.15 1.48-.2zm4.34 22.74c.56.3 1.15.6 1.8.91a58.17 58.17 0 0 1 3.37 1.83 38.88 38.88 0 0 1 2.8 1.84 25.03 25.03 0 0 1 2.22 1.83 15.78 15.78 0 0 1 1.64 1.85 12.9 12.9 0 0 1 2.03 4.07 14.84 14.84 0 0 1 .64 3.6 19.81 19.81 0 0 1-.28 4.8 15.28 15.28 0 0 1-1.3 3.82 13.26 13.26 0 0 1-3.48 4.32 15.16 15.16 0 0 1-3.05 2 17.59 17.59 0 0 1-3.64 1.37 22.98 22.98 0 0 1-2.75.56V49.9a6.94 6.94 0 0 0 1.73-.9 4.9 4.9 0 0 0 1.47-1.81 4.97 4.97 0 0 0 .46-1.83 7.64 7.64 0 0 0-.02-1.47 4.92 4.92 0 0 0-1.28-2.68A8.51 8.51 0 0 0 35.55 40c-.24-.2-.5-.4-.78-.59l-.31-.2zM15 45.98a94.5 94.5 0 0 0 4.87 2.1 50.98 50.98 0 0 0 4.05 1.37 33.09 33.09 0 0 0 3.24.71 24.31 24.31 0 0 0 2.96.29v9.54l-.35.01a40.75 40.75 0 0 1-6-.46 32.62 32.62 0 0 1-5.44-1.38A28.31 28.31 0 0 1 15 56.72Z"/></svg>