<svg xmlns="http://www.w3.org/2000/svg" viewBox="0 0 64 64"><rect width="64" height="64" fill="#c8b7b8" ry="4"/><path fill="#2b2a2f" d="m28.4 27.4-8-1.4c-2.5-.5-4.2-1.2-4.2-3.1 0-1.7 1.2-3 3.2-3.5 2-3.8 5.3-6.8 9.3-8.6-2.2-.4-4.3-.7-6.5-.7C11.7 10.1 5 15.3 5 24c0 7.4 4.8 11.2 11.8 12.5l7.6 1.3c3.2.6 5.7 1 5.7 3.5 0 2.4-2.5 3.8-6.5 3.8-4.6 0-8.7-1.8-9.1-7.2L4 38.2c0 10.2 8.2 15.7 19.6 15.7 9.9 0 17.7-4.5 17.7-13.4 0-6.9-4-11.5-12.9-13z"/><path fill="#ec0000" d="M19 24a12.8 12.8 0 0 0 1.7.5l8 1.4 1.7.4a9 9 0 0 1 8.8-6c6.6 0 9.1 4.3 9.8 9l10.9-.4C59.1 18.3 52.2 10 39.3 10A21 21 0 0 0 19 24zm23.5 19.4c-.7 4.9-4 8.2-8.7 9.9a23 23 0 0 0 5.6.6c12.9 0 19.8-8.1 20.6-18.7l-10.9-.4c-.6 3.8-2.4 7.4-6.6 8.6z"/><path fill="#ce0000" d="M43.4 21a12.2 12.2 0 0 0-4.1-.8 9 9 0 0 0-8.9 6l-1.7-.3-8-1.4A12.8 12.8 0 0 1 19 24c6-6.7 10.7-6.6 13.7-6.6a17.8 17.8 0 0 1 10.7 3.4z"/><path fill="#202023" d="M34.8 34.2 14.9 30c-9.6-2.3-9.8-7.1-9.8-7.6V24c0 7.4 4.7 11.3 11.7 12.6l7.6 1.2c3.2.6 5.7 1 5.7 3.5 0 2.4-2.5 3.8-6.5 3.8-4.6 0-8.7-1.8-9.1-7.2L4 38.2c0 10.2 8.2 15.7 19.6 15.7 9.9 0 17.7-4.5 17.7-13.4a15.1 15.1 0 0 0-.2-2.7c-.6-1.5-3.2-3-6.3-3.6z"/></svg>