<svg xmlns="http://www.w3.org/2000/svg" viewBox="0 0 64 64"><path fill="#57b" d="M32 0a32 32 0 100 64 32 32 0 100-64zm0 4.07a4.11 4.11 0 011.57 7.91v3.47h.45c11.3.97 18.36 7.2 18.33 16.51h3a1.84 1.84 0 011.83 1.84v7.02a1.82 1.82 0 01-1.84 1.83h-2.99v3.61a3.66 3.66 0 01-3.67 3.67H15.31a3.66 3.66 0 01-3.66-3.67v-3.6h-3a1.83 1.83 0 01-1.83-1.83V33.8a1.83 1.83 0 011.83-1.85h3c-.03-9.31 7.02-15.54 18.34-16.5h.44v-3.48A4.11 4.11 0 0132 4.07zM21.36 28.81a6.18 6.18 0 000 12.37 6.18 6.18 0 000-12.37zm21.28 0a6.18 6.18 0 000 12.37 6.18 6.18 0 000-12.37z"/></svg>