<svg xmlns="http://www.w3.org/2000/svg" viewBox="0 0 64 64"><defs><linearGradient id="a" x1=".55" x2=".55" y1="19.13" y2="56.5" gradientUnits="userSpaceOnUse"><stop offset="0" stop-color="#c00"/><stop offset="1" stop-color="#bd0000"/></linearGradient></defs><path fill="url(#a)" stroke="#2b0000" stroke-linejoin="round" stroke-width="1.52" d="M.9.35v8.67l2.99.5c.3 0 1.7.2 2.49 3.39l11.46 50.74h7.18L32 32.95l7.08 30.7h7.28L56.52 17.5c1.7-7.78 2.7-7.98 3.6-8.18h2.98V.35H44.66v8.97h3.49c.4 0 .4-.2.4.4 0 1.6-.4 3.09-.6 4.29l-3.99 17.54-4.98-21.93v.2-.6h4.29V.35H21.32zm21.93 8.97h1.5c1.49 0 2.09.7 2.98 3.99l-4.18 18.44-4.99-21.93v-.6h1.7z" transform="matrix(.99 0 0 .99 .4 .4)"/><path fill="#fff" stroke="#fff" stroke-width=".5" d="M51.69 10c0 1.97-.4 3.84-.7 4.92l-6.88 31.7h-.3l-8.27-35.83-.2-1.18c.1-2.66 2.56-3.25 4.53-3.25V4.19H24.82v2.17c3.44.4 4.82 2.26 6.1 7.09l-7.68 33.17h-.1l-8.07-35.63c0-.2-.3-.89-.3-1.48 0-2.95 2.96-3.15 5.12-3.25V4.2H4.64v2.16c1.67.3 4.23 1.38 5.31 6l10.83 47.45h1.67L32 18.17h.1l9.54 41.63h1.78l9.45-42.9c1.87-8.18 3.34-10.15 6.5-10.54V4.2H47.94v2.17c1.67 0 3.73.6 3.73 3.64z"/></svg>