<svg xmlns="http://www.w3.org/2000/svg" xmlns:xlink="http://www.w3.org/1999/xlink" viewBox="0 0 64 64"><defs><linearGradient xlink:href="#a" id="b" x1="31" x2="31" y1="13.8" y2="7.6" spreadMethod="reflect"/><linearGradient id="a" gradientUnits="userSpaceOnUse"><stop offset="0" stop-color="#fff"/><stop offset=".1" stop-color="#fdfdfd"/><stop offset=".2" stop-color="#fbfbfb"/><stop offset=".3" stop-color="#f8f8f8"/><stop offset=".4" stop-color="#f4f4f4"/><stop offset=".5" stop-color="#efefef"/><stop offset=".6" stop-color="#e8e8e8"/><stop offset=".7" stop-color="#dedede"/><stop offset=".8" stop-color="#cecece"/><stop offset=".9" stop-color="silver"/><stop offset="1" stop-color="#b3b3b3"/></linearGradient><linearGradient id="c" x1="-6.7" x2="18.1" y1="19.5" y2="19.5" gradientUnits="userSpaceOnUse"><stop offset="0" stop-color="#e92222"/><stop offset="1" stop-color="#c61010"/></linearGradient><linearGradient xlink:href="#a" id="d" x1="31" x2="31" y1="34" y2="27.8" spreadMethod="reflect"/></defs><g fill="#616161"><path d="m23.7 44.8-4.5-4.5L0 59.5 4.5 64z"/><path d="M38.4 0a25.6 25.6 0 0 0 0 51.2A25.6 25.6 0 0 0 64 25.6 25.6 25.6 0 0 0 38.4 0zm0 4.8c11.5 0 20.8 9.3 20.8 20.8a20.8 20.8 0 0 1-20.8 20.8 20.8 20.8 0 0 1-20.8-20.8c0-11.5 9.3-20.8 20.8-20.8z"/></g><path fill="#37474f" d="M13 55.5 8.4 51 0 59.6 4.4 64z"/><g fill="none"><path stroke="#333" stroke-miterlimit="79.8" stroke-width="1.5" d="M24.4 34.7a12.2 12.2 0 0 1-4.6-10 4.2 4.2 0 0 1 .1-.7c0-.4 0-.6.2-.9a3.4 3.4 0 0 1 .1-.5l.3-1v-.2a7.7 7.7 0 0 1 1-2.2l.4-.2c2.5-3.7 7-6.2 12.3-6.2h17.5v6.8H34.2a6.8 6.8 0 0 0-3.5 1s-.1 0-.2.1a4.2 4.2 0 0 0-.8.6s-.2 0-.3.1a5.5 5.5 0 0 0-1.8 4.1c0 3.2 3 6 6.6 6h17.5v6.8H34.2c-3.7 0-7.2-1.3-9.7-3.5z"/><path fill="url(#b)" d="M27.5 4.2v7.4h7.7V4.2z" transform="matrix(.9238 0 0 -.9238 19.1 42)"/><path fill="url(#c)" d="M.8 18c0 7.6 7 13.8 15.4 13.8h11.3v-7.4H16.2c-3.9 0-7-2.9-7-6.4s3.1-6.4 7-6.4h11.3V4.2H16.2C7.7 4.2.8 10.4.8 18z" transform="matrix(.9238 0 0 -.9238 19.1 42)"/><path fill="#af1616" d="M29 21.5a7 7 0 0 1 5-2h10.5v-3.3h-8.8c-3.4 0-6.3 2.4-6.4 5.5zm-9.2 4c0 7 6.4 12.7 14.3 12.7h10.4v-3.5h-8.8C28 34.7 21.5 29 21.5 22a11.5 11.5 0 0 1 .4-3c-1.3 1.8-2 4-2 6.4z"/><path fill="url(#d)" d="M27.5 24.4v7.4h7.7v-7.4z" transform="matrix(.9238 0 0 -.9238 19.1 42)"/></g></svg>