<svg xmlns="http://www.w3.org/2000/svg" viewBox="0 0 64 64"><defs><linearGradient id="a" x1="1" x2="1" y1="63.8" y2=".9" gradientUnits="userSpaceOnUse"><stop offset="0" stop-color="#0cf"/><stop offset="1" stop-color="#2ad4ff"/></linearGradient></defs><path fill="url(#a)" d="M56.8 1H7.2A6.2 6.2 0 0 0 1 7.2v37.2a6.2 6.2 0 0 0 6.2 6.2h11.1L29.8 62a3.1 3.1 0 0 0 4.4 0l11.5-11.5h11.1a6.2 6.2 0 0 0 6.2-6.2V7.2A6.2 6.2 0 0 0 56.8 1"/><path fill="#fff" stroke="#002" d="M48.2 11.5H36a4 4 0 0 0-8 0H15.8a4 4 0 0 0 0 8h19.8a24.6 24.6 0 0 1-4 10.6 21.4 21.4 0 0 1-4-4.5 4 4 0 0 0-7 4 26.6 26.6 0 0 0 4.6 5.6l-2.3.6a4 4 0 0 0 1 8h1a22.9 22.9 0 0 0 7.1-3.2 26.8 26.8 0 0 0 7 3l1 .2a4 4 0 0 0 1-8 16.2 16.2 0 0 1-3-1.3 34 34 0 0 0 5.9-15h4.3a4 4 0 0 0 0-8z"/></svg>