<svg xmlns="http://www.w3.org/2000/svg" viewBox="0 0 64 64"><path fill="#76a9ea" stroke-width=".2" d="M63 11.6c-1.4.6-3 1.1-4.4 1.5 1.6-1.6 2.9-3.6 3.6-5.8a.7.7 0 00-1-.9 25.5 25.5 0 01-6.8 2.8 1.8 1.8 0 01-1.6-.4 13.8 13.8 0 00-9.1-3.4c-1.5 0-3 .2-4.4.7-4.5 1.3-8 5-9 9.6-.4 1.7-.5 3.4-.4 5v.5l-.5.1A36.1 36.1 0 014.5 8a.7.7 0 00-1.1.1A13.7 13.7 0 005.6 25c-1.1-.2-2.2-.7-3.2-1.2a.7.7 0 00-1 .6c0 5.6 3.2 10.5 8 12.7h-.3c-.7 0-1.5 0-2.3-.2a.7.7 0 00-.8 1c1.6 4.9 5.8 8.5 11 9.4a25.4 25.4 0 01-14.3 4.3H1a1 1 0 00-1 .8c-.2.5 0 1 .5 1.2a38 38 0 0019 5.1 36 36 0 0028.2-12.4 39.2 39.2 0 009.7-25.5v-.2c0-.7.3-1.4.9-1.9 2.1-1.7 4-3.7 5.5-6 .4-.6-.2-1.3-.9-1z"/></svg>