<svg xmlns="http://www.w3.org/2000/svg" fill="none" viewBox="0 0 64 64"><path fill="#2ca02c" fill-rule="evenodd" d="M11.8 21.6C4.6 24 0 27.7 0 32c0 4 4 7.4 10.2 10L6 48.7C4.7 51.3 8.6 53 10 51l4.8-8a80 80 0 0 0 14.7 2v9.6c0 3.1 4.8 3.1 4.8 0V45q7.6-.2 14.7-2l4.8 8c1.4 2.6 6 .6 4-2.4l-4-7c6.2-2.4 10.2-6 10.2-9.8 0-4-4.6-8-11.8-10.3-2.5 7.4-33.5 9.7-40.4 0M35 35.7c0 4.3-6.4 4.3-6.4 0s6.4-4.2 6.4 0m-19.1 0c4.2 0 4.2-6.4 0-6.4s-4.3 6.4 0 6.4m35-3.2c0 4.3-6.3 4.3-6.3 0s6.3-4.2 6.3 0" clip-rule="evenodd"/><path fill="#37c837" d="M16 19.8C17 12.3 24.4 6.9 31.9 7s14.8 5.6 15.8 12.8c-2.5 3.6-26.7 5-31.7 0"/></svg>