<svg xmlns="http://www.w3.org/2000/svg" viewBox="0 0 64 64"><path fill="#007fd3" fill-rule="evenodd" d="M25.56 41.5a26.92 26.92 0 0 1 17.77 3.23l-3.08 4.65h-.01s-1.2 1.75-3.42 1.75H25.56zm-6.62 2.45-3.91 5.52s-1.18 1.63-3.35 1.65h-8.9c5.06-1.26 11.41-4.95 11.41-4.95a37 37 0 0 1 4.75-2.22m23.58-21.1A33.25 33.25 0 0 1 56.2 25.4l-8.8 13.06c-8.26-1.88-15.53-1.57-22.12.25v-4.5l-3.75 5.52a88 88 0 0 0-8.7 4.13C6.66 47.11 2.66 48.66 0 48.84v-8.1c4.12-.11 9.4-1.24 23.02-11.05 5.42-3.9 10.58-5.82 15.3-6.51v5.14zm-29.53-9.98v15.55L23.97 14.6s1.22-1.73 3.46-1.73h11V19c-6.71 1.5-12.1 4.36-17.23 8.35C6.87 38.47.97 37.32 0 37.15V12.86h13zM6.36 25.45l-1 2.5H2.87l2.16 2.1-1.1 2.56 2.42-1.44 2.62 1.44-1.08-2.57 2.16-2.1h-2.5l-1.2-2.49zm0-10.5-1 2.49H2.87l2.16 2.1-1.1 2.56 2.42-1.43 2.62 1.43-1.08-2.56 2.16-2.1h-2.5l-1.2-2.49zM64 13.99l-2.69 3.8c-2-.13-7.93-.37-15.07.6l2.4-3s.84-1.4 2.6-1.4z"/></svg>