<svg xmlns="http://www.w3.org/2000/svg" width="64" height="64"><path fill="#fcc21b" d="M22 0h20a22 22 45 0 1 22 22v20a22 22 135 0 1-22 22H22A22 22 45 0 1 0 42V22A22 22 135 0 1 22 0"/><path fill="#4d4d4d" d="M15.027 0a15 15 0 0 0-2.006.135L.136 13.02A15 15 0 0 0 0 15.027v17.928L32.955 0zm38.4.675L.675 53.427a15.03 15.03 0 0 0 9.899 9.898l52.75-52.75a15.03 15.03 0 0 0-9.897-9.9M64 31.046 31.045 64h17.928a15 15 0 0 0 2.008-.135L63.864 50.98A15 15 0 0 0 64 48.972z"/><path fill="none" stroke="#4d4d4d" stroke-linejoin="round" stroke-width="5.854" d="M14.264 2.912C8.3 2.98 2.92 8.42 2.92 14.384v35.2c0 6.007 5.465 11.472 11.472 11.472h35.2c6.007 0 11.472-5.465 11.472-11.472v-35.2c0-6.007-5.465-11.472-11.472-11.472H14.265z"/></svg>