<svg xmlns="http://www.w3.org/2000/svg" viewBox="0 0 64 64"><defs><linearGradient id="a" x1="174.9" x2="174.9" y1="147.6" y2="162.8" gradientUnits="userSpaceOnUse"><stop offset="0" stop-color="#ffd159"/><stop offset="1" stop-color="#dd130e"/></linearGradient><linearGradient id="b" x1="204.1" x2="204.1" y1="182.2" y2="191.9" gradientUnits="userSpaceOnUse"><stop offset="0" stop-color="#ffad3f" stop-opacity=".3"/><stop offset="1" stop-color="#dd2f0e"/></linearGradient><filter id="c" width="1.1" height="1.1" x="0" y="0" color-interpolation-filters="sRGB"><feGaussianBlur stdDeviation=".3"/></filter></defs><path fill="url(#a)" d="M171.2 146.4c-2.3 0-4.7 2.1-4.8 4.9 0 4.3 3.7 7.5 8.5 11.5 4.8-4 8.6-7.2 8.5-11.5-.2-4.5-6-7.3-8.5-1.9-1-2-2.3-2.9-3.7-3z" transform="translate(-577.2 -507.1) scale(3.48316)"/><path fill="url(#b)" d="M208 175.8a3.1 3.1 0 0 0-.7 0l-1 .5a3.2 3.2 0 0 0-.5.4l-.4.4-.7.9-.3.7-.3.5-.3-.7-.2-.5-.2-.3-.3-.4c-.3-.4-.8-.8-1.3-1.1a3.3 3.3 0 0 0-1.7-.4 3.4 3.4 0 0 0-.9.2l-.4.1-.3.2a4.7 4.7 0 0 0-.5.3l-.3.2a5.1 5.1 0 0 0-.8 1 4.9 4.9 0 0 0-.3.4l-.3.5-.1.3a5 5 0 0 0-.2.9v.5a7 7 0 0 0 .2 2c.3 1 .8 2 1.5 2.8.7 1 1.6 2 2.6 3l3.9 3.3 3.9-3.4c.9-1 1.8-1.9 2.6-3 .6-.8 1.1-1.8 1.4-2.8a6.9 6.9 0 0 0 .3-2 4.8 4.8 0 0 0-.3-1.4 4.8 4.8 0 0 0-.6-1l-.1-.3-.7-.7a4.7 4.7 0 0 0-.4-.3l-.2-.1-.5-.3-.5-.2a3.8 3.8 0 0 0-.7-.2h-.5z" filter="url(#c)" transform="translate(-679 -607.7) scale(3.48316)"/></svg>