<svg viewBox="0 0 64 64" xmlns="http://www.w3.org/2000/svg" xmlns:xlink="http://www.w3.org/1999/xlink"><defs><path id="a" d="m26.56 37.38c1.49 1.48 3.44 2.23 5.37 2.23 1.97 0 3.91-.76 5.39-2.23 2.97-2.96 2.97-7.81 0-10.77-2.97-2.97-7.78-2.97-10.76 0s-2.98 7.81 0 10.77z"/><path id="b" d="m26.72 57.64a7.58 7.58 0 0 0 5.37 2.23c1.97 0 3.91-.75 5.39-2.23 2.97-2.97 2.97-7.8 0-10.76-2.97-2.97-7.78-2.97-10.76 0s-2.98 7.79 0 10.76z"/><path id="c" d="m32.09 19.35c-1.93 0-3.89-.75-5.37-2.23-2.98-2.97-2.98-7.8 0-10.76 2.98-2.97 7.8-2.97 10.76 0 2.97 2.96 2.97 7.79 0 10.76-1.48 1.49-3.42 2.23-5.39 2.23z"/></defs><path d="m3 0h58a3 3 45 0 1 3 3v58a3 3 135 0 1 -3 3h-58a3 3 45 0 1 -3-3v-58a3 3 135 0 1 3-3z" fill="#006"/><path d="m63.09.91-62.18 62.18a3.1 3.1 0 0 0 2.19.91h57.8a3.1 3.1 0 0 0 3.1-3.1v-57.8a3.1 3.1 0 0 0 0-.05 3.1 3.1 0 0 0 -.91-2.14z" fill="#003"/><use fill="#00d400" xlink:href="#a"/><g fill="#fc0"><use x="20.29" xlink:href="#a"/><use xlink:href="#b"/><use xlink:href="#c"/><use x="-20.29" xlink:href="#a"/></g><g fill="#d40000"><use x="20.25" xlink:href="#b" y="-.01"/><use x="20.26" xlink:href="#c"/><use x="-20.26" xlink:href="#b" y="-.01"/><use x="-20.26" xlink:href="#c"/></g></svg>