<?xml version="1.0" encoding="UTF-8" standalone="no"?>
<svg
   xmlns:dc="http://purl.org/dc/elements/1.1/"
   xmlns:cc="http://creativecommons.org/ns#"
   xmlns:rdf="http://www.w3.org/1999/02/22-rdf-syntax-ns#"
   xmlns:svg="http://www.w3.org/2000/svg"
   xmlns="http://www.w3.org/2000/svg"
   xmlns:sodipodi="http://sodipodi.sourceforge.net/DTD/sodipodi-0.dtd"
   xmlns:inkscape="http://www.inkscape.org/namespaces/inkscape"
   inkscape:version="1.0 (4035a4fb49, 2020-05-01)"
   sodipodi:docname="no.svg"
   id="svg4"
   version="1.1"
   width="64"
   viewBox="0 0 64 64"
   height="64"
   enable-background="new 0 0 128 128">
  <metadata
     id="metadata10">
    <rdf:RDF>
      <cc:Work
         rdf:about="">
        <dc:format>image/svg+xml</dc:format>
        <dc:type
           rdf:resource="http://purl.org/dc/dcmitype/StillImage" />
        <dc:title></dc:title>
      </cc:Work>
    </rdf:RDF>
  </metadata>
  <defs
     id="defs8">
    <inkscape:path-effect
       hide_knots="false"
       only_selected="true"
       apply_with_radius="true"
       apply_no_radius="true"
       use_knot_distance="true"
       flexible="false"
       chamfer_steps="1"
       radius="10"
       mode="F"
       method="auto"
       unit="px"
       satellites_param="F,0,1,1,0,10,0,1 @ F,0,1,1,0,10,0,1 @ F,0,1,1,0,10,0,1 @ F,0,1,1,0,10,0,1 @ F,0,1,1,0,10,0,1 @ F,0,1,1,0,10,0,1 @ F,0,0,1,0,0,0,1 @ F,0,1,1,0,10,0,1 @ F,0,1,1,0,10,0,1 @ F,0,1,1,0,10,0,1 @ F,0,1,1,0,10,0,1 @ F,0,1,1,0,10,0,1 @ F,0,1,1,0,10,0,1 @ F,0,1,1,0,10,0,1 @ F,0,0,1,0,0,0,1 @ F,0,1,1,0,10,0,1 @ F,0,1,1,0,10,0,1 @ F,0,1,1,0,10,0,1 @ F,0,1,1,0,10,0,1 @ F,0,1,1,0,10,0,1 @ F,0,1,1,0,10,0,1 @ F,0,1,1,0,10,0,1 @ F,0,0,1,0,0,0,1 @ F,0,1,1,0,10,0,1 @ F,0,1,1,0,10,0,1 @ F,0,1,1,0,10,0,1 @ F,0,1,1,0,10,0,1 @ F,0,1,1,0,10,0,1 @ F,0,1,1,0,10,0,1 @ F,0,1,1,0,10,0,1 @ F,0,0,1,0,0,0,1 @ F,0,1,1,0,10,0,1 @ F,0,1,1,0,10,0,1 | F,0,1,1,0,10,0,1 @ F,0,1,1,0,10,0,1 | F,0,1,1,0,10,0,1 @ F,0,1,1,0,10,0,1"
       lpeversion="1"
       is_visible="true"
       id="path-effect839"
       effect="fillet_chamfer" />
    <inkscape:path-effect
       hide_knots="false"
       only_selected="false"
       apply_with_radius="true"
       apply_no_radius="true"
       use_knot_distance="true"
       flexible="false"
       chamfer_steps="1"
       radius="10"
       mode="F"
       method="auto"
       unit="px"
       satellites_param="F,0,0,1,0,10,0,1 @ F,0,0,1,0,10,0,1 @ F,0,0,1,0,10,0,1 @ F,0,0,1,0,10,0,1 @ F,0,0,1,0,10,0,1 @ F,0,0,1,0,10,0,1 @ F,0,0,1,0,10,0,1 @ F,0,0,1,0,10,0,1 @ F,0,0,1,0,10,0,1 @ F,0,0,1,0,10,0,1 @ F,0,0,1,0,10,0,1 @ F,0,0,1,0,10,0,1 @ F,0,0,1,0,10,0,1 @ F,0,0,1,0,10,0,1 @ F,0,0,1,0,10,0,1 @ F,0,0,1,0,10,0,1 @ F,0,0,1,0,10,0,1 @ F,0,0,1,0,10,0,1 @ F,0,0,1,0,10,0,1 @ F,0,0,1,0,10,0,1 @ F,0,0,1,0,10,0,1 @ F,0,0,1,0,10,0,1 @ F,0,0,1,0,10,0,1 @ F,0,0,1,0,10,0,1 @ F,0,0,1,0,10,0,1 @ F,0,0,1,0,10,0,1 @ F,0,0,1,0,10,0,1 @ F,0,0,1,0,10,0,1 @ F,0,0,1,0,10,0,1 @ F,0,0,1,0,10,0,1 @ F,0,0,1,0,10,0,1 @ F,0,0,1,0,10,0,1 @ F,0,0,1,0,10,0,1 | F,0,0,1,0,10,0,1 @ F,0,0,1,0,10,0,1 | F,0,0,1,0,10,0,1 @ F,0,0,1,0,10,0,1"
       lpeversion="1"
       is_visible="true"
       id="path-effect836"
       effect="fillet_chamfer" />
  </defs>
  <sodipodi:namedview
     inkscape:current-layer="svg4"
     inkscape:window-maximized="1"
     inkscape:window-y="47"
     inkscape:window-x="0"
     inkscape:cy="26.05938"
     inkscape:cx="12.692478"
     inkscape:zoom="8.6770833"
     showgrid="false"
     id="namedview6"
     inkscape:window-height="1007"
     inkscape:window-width="1920"
     inkscape:pageshadow="2"
     inkscape:pageopacity="0"
     guidetolerance="10"
     gridtolerance="10"
     objecttolerance="10"
     borderopacity="1"
     bordercolor="#666666"
     pagecolor="#ffffff" />
  <path
     sodipodi:nodetypes="cccccccscssscccssccccccccccccccccc"
     d="m -54.220806,1.3256806 -0.0088,0.00584 -4.159276,4.1971947 c -1.612535,1.6158055 -1.611596,4.2860591 0.0029,5.9005727 0.0019,0.003 0.0039,0.0058 0.0058,0.0088 l 13.749531,13.644528 -13.752448,13.688277 c -9.72e-4,9.93e-4 -0.0019,0.0019 -0.0029,0.003 l -0.0029,0.003 c -1.615503,1.615502 -1.615503,4.287985 0,5.903489 l 4.203028,4.203028 c 1.614513,1.614512 4.284767,1.615451 5.900573,0.003 l 0.003,-0.003 13.755365,-13.656194 13.586192,13.650361 c 9.93e-4,9.97e-4 0.0019,0.0019 0.003,0.003 l 0.003,0.003 c 1.615504,1.615502 4.287987,1.615502 5.903489,0 l 4.200111,-4.203028 c 1.6148875,-1.614887 1.6142364,-4.285169 0.003,-5.900572 -4.542378,-4.565688 -9.084733,-9.131397 -13.627097,-13.697099 l 13.586194,-13.653277 c 1.1720495,-2.2295375 1.3411769,-4.5619095 -0.06118,-5.9648123 L -15.072271,1.319847 c -1.614884,-1.614883 -4.28739,-1.61405762 -5.903491,0 -0.0019,0.00291 -0.0039,0.00582 -0.0058,0.00875 -0.006,0.00576 -0.0118,0.011603 -0.0175,0.017501 l -13.530775,13.629944 -13.790364,-13.6561946 -0.003,-0.00291 c -1.826019,-1.53010008 -4.319066,-1.52665203 -5.897592,0.00874 z m -4.165111,10.1036004 -0.198338,-0.274174 c 0.05136,0.101206 0.118288,0.193723 0.198338,0.274174 z"
     style="fill:#ff0000;fill-opacity:1;stroke-width:1.49337"
     id="path2" />
  <g
     style="fill:#ff0000;fill-opacity:1"
     transform="matrix(1.126621,0,0,1.126621,-4.2774592,-4.4484644)"
     id="g892">
    <rect
       ry="7.4612703"
       y="17.310858"
       x="-7.7988877"
       height="55.887951"
       width="15.597775"
       id="rect841-6"
       style="fill:#ff0000;fill-opacity:1;stroke-width:0;stroke-linecap:round;stroke-linejoin:round"
       transform="rotate(-45)" />
    <rect
       transform="matrix(-0.70710678,-0.70710678,-0.70710678,0.70710678,0,0)"
       style="fill:#ff0000;fill-opacity:1;stroke-width:0;stroke-linecap:round;stroke-linejoin:round"
       id="rect841-6-7"
       width="15.597775"
       height="55.887951"
       x="-53.053722"
       y="-27.943975"
       ry="7.4612703" />
  </g>
</svg>
