<svg enable-background="new 0 0 128 128" height="64" viewBox="0 0 64 64" width="64" xmlns="http://www.w3.org/2000/svg"><g fill="#f00"><path d="m-54.22 1.33-.01.01-4.16 4.2c-1.61 1.62-1.61 4.29 0 5.9 0 0 0 .01.01.01l13.75 13.64-13.75 13.69c-1.62 1.62-1.62 4.29 0 5.9l4.2 4.2c1.61 1.61 4.28 1.62 5.9 0l13.76-13.66 13.59 13.65c1.62 1.62 4.29 1.62 5.9 0l4.2-4.2c1.61-1.61 1.61-4.29 0-5.9-4.54-4.57-9.08-9.13-13.63-13.7l13.59-13.65c1.17-2.23 1.34-4.56-.06-5.96l-4.14-4.14c-1.61-1.61-4.29-1.61-5.9 0 0 0 0 .01-.01.01-.01.01-.01.01-.02.02l-13.53 13.63-13.79-13.66c-1.83-1.53-4.32-1.53-5.9.01zm-4.17 10.1-.2-.27c.05.1.12.19.2.27z" stroke-width="1.49"/><rect height="55.89" ry="7.46" transform="matrix(.8 -.8 .8 .8 -4.28 -4.45)" width="15.6" x="-7.8" y="17.31"/><rect height="55.89" ry="7.46" transform="matrix(-.8 -.8 -.8 .8 -4.28 -4.45)" width="15.6" x="-53.05" y="-27.94"/></g></svg>