<?xml version="1.0" encoding="UTF-8" standalone="no"?>
<svg
   xmlns:dc="http://purl.org/dc/elements/1.1/"
   xmlns:cc="http://creativecommons.org/ns#"
   xmlns:rdf="http://www.w3.org/1999/02/22-rdf-syntax-ns#"
   xmlns:svg="http://www.w3.org/2000/svg"
   xmlns="http://www.w3.org/2000/svg"
   xmlns:sodipodi="http://sodipodi.sourceforge.net/DTD/sodipodi-0.dtd"
   xmlns:inkscape="http://www.inkscape.org/namespaces/inkscape"
   inkscape:version="1.0 (4035a4fb49, 2020-05-01)"
   height="64"
   width="64"
   sodipodi:docname="yes.svg"
   id="svg4"
   version="1.1"
   viewBox="0 0 64 64"
   enable-background="new 0 0 48 48">
  <metadata
     id="metadata10">
    <rdf:RDF>
      <cc:Work
         rdf:about="">
        <dc:format>image/svg+xml</dc:format>
        <dc:type
           rdf:resource="http://purl.org/dc/dcmitype/StillImage" />
        <dc:title></dc:title>
      </cc:Work>
    </rdf:RDF>
  </metadata>
  <defs
     id="defs8" />
  <sodipodi:namedview
     inkscape:current-layer="svg4"
     inkscape:window-maximized="1"
     inkscape:window-y="47"
     inkscape:window-x="0"
     inkscape:cy="36.423899"
     inkscape:cx="-6.3957383"
     inkscape:zoom="6.1356245"
     showgrid="false"
     id="namedview6"
     inkscape:window-height="1007"
     inkscape:window-width="1920"
     inkscape:pageshadow="2"
     inkscape:pageopacity="0"
     guidetolerance="10"
     gridtolerance="10"
     objecttolerance="10"
     borderopacity="1"
     bordercolor="#666666"
     pagecolor="#ffffff" />
  <path
     transform="matrix(1.5961353,0,0,1.5961353,-6.3239208,-6.2976672)"
     style="fill:#71c837;fill-opacity:1"
     d="m 38.386719,8.0898438 a 0.77199966,0.77199966 0 0 0 -0.310547,0.060547 c -0.678108,0.055978 -1.309398,0.3109029 -1.833984,0.7441406 A 0.77199966,0.77199966 0 0 0 35.988281,9.0625 a 0.77199966,0.77199966 0 0 0 -0.002,0.00195 l -18.015625,18.0136719 -5.933594,-5.931641 -0.002,-0.002 c -1.290282,-1.289385 -3.471971,-1.270468 -4.7402341,0.04102 l -2.40625,2.492187 c -0.00112,0.0011 -0.00279,0.0028 -0.00391,0.0039 l -0.00586,0.0059 a 0.77199966,0.77199966 0 0 0 -0.00195,0.0039 c -1.240733,1.286636 -1.2160681,3.408012 0.052734,4.666016 L 15.630859,38.972656 c 1.201136,1.190978 3.141588,1.218435 4.429688,0.164063 0.0011,-9.33e-4 0.0028,-0.001 0.0039,-0.002 a 0.77199966,0.77199966 0 0 0 0.253906,-0.167969 0.77199966,0.77199966 0 0 0 0.002,-0.002 l 22.78125,-22.783203 c 1.276413,-1.276413 1.276413,-3.424759 0,-4.701172 L 40.6875,9.0625 A 0.77199966,0.77199966 0 0 0 40.429688,8.890625 C 39.849702,8.4105471 39.143976,8.1014226 38.386719,8.0898438 Z"
     inkscape:original="M 38.375 8.8613281 L 38.373047 8.8632812 C 37.693047 8.8542812 37.015203 9.129375 36.533203 9.609375 A 1.072 1.072 0 0 0 36.53125 9.609375 L 17.970703 28.169922 L 11.490234 21.691406 C 10.536234 20.736406 8.7886094 20.751656 7.8496094 21.722656 L 5.4335938 24.224609 A 1.072 1.072 0 0 0 5.4316406 24.226562 C 4.5126406 25.179562 4.5326562 26.876594 5.4726562 27.808594 L 16.173828 38.423828 C 17.119828 39.361828 18.831437 39.360922 19.773438 38.419922 A 1.072 1.072 0 0 0 19.775391 38.419922 L 42.556641 15.636719 C 43.501641 14.691719 43.501641 12.970391 42.556641 12.025391 L 40.140625 9.6074219 A 1.072 1.072 0 0 0 40.138672 9.6074219 C 39.675672 9.1444219 39.029 8.8713281 38.375 8.8613281 z "
     inkscape:radius="0.77192247"
     sodipodi:type="inkscape:offset"
     id="path2" />
</svg>
