<svg enable-background="new 0 0 48 48" height="64" viewBox="0 0 64 64" width="64" xmlns="http://www.w3.org/2000/svg"><path d="m55.1 6.64a1.23 1.23 0 0 0 -.5.1c-1.09.1-2.1.5-2.93 1.18a1.23 1.23 0 0 0 -.42.27l-28.83 28.82-9.49-9.49c-2.06-2.06-5.55-2.03-7.58.06l-3.86 3.98-.02.02a1.23 1.23 0 0 0 0 0c-1.98 2.06-1.95 5.46.08 7.47l17.12 16.99c1.92 1.9 5.02 1.95 7.09.26a1.23 1.23 0 0 0 .4-.27l36.45-36.45c2.05-2.05 2.05-5.47 0-7.52l-3.84-3.87a1.23 1.23 0 0 0 -.42-.27c-.93-.77-2.06-1.26-3.26-1.28z" fill="#71c837" stroke-width="1.6"/></svg>