<svg viewBox="0 0 64 64" xmlns="http://www.w3.org/2000/svg" xmlns:xlink="http://www.w3.org/1999/xlink"><defs><path id="a" d="m26.73 37.21c1.44 1.43 3.33 2.17 5.21 2.17a7.32 7.32 0 0 0 5.22-2.17 7.39 7.39 0 0 0 0-10.44c-2.87-2.88-7.54-2.88-10.43 0a7.39 7.39 0 0 0 0 10.44z"/><path id="b" d="m51.71 19.75a7.34 7.34 0 0 1 -5.21-2.17c-2.88-2.87-2.88-7.55 0-10.42 2.89-2.87 7.55-2.87 10.43 0s2.88 7.55 0 10.42a7.32 7.32 0 0 1 -5.22 2.17z"/></defs><path d="m4 1h56a3 3 45 0 1 3 3v56a3 3 135 0 1 -3 3h-56a3 3 45 0 1 -3-3v-56a3 3 135 0 1 3-3z" fill="#d7e3f4"/><path d="m62.12 1.88-60.24 60.24a3 3 0 0 0 2.12.88h56a3 3 0 0 0 3-3v-56a3 3 0 0 0 0-.05 3 3 0 0 0 -.88-2.07z" fill="#afc6e9"/><use fill="#00d400" xlink:href="#a"/><g fill="#fc0"><use x="19.66" xlink:href="#a"/><path d="m26.88 56.83a7.32 7.32 0 0 0 5.21 2.17c1.91 0 3.79-.72 5.22-2.17 2.88-2.88 2.88-7.55 0-10.43-2.87-2.88-7.54-2.88-10.43 0-2.88 2.87-2.88 7.55 0 10.43zm5.21-37.09a7.34 7.34 0 0 1 -5.21-2.17c-2.88-2.87-2.88-7.55 0-10.42 2.89-2.87 7.55-2.87 10.43 0s2.88 7.55 0 10.42a7.32 7.32 0 0 1 -5.22 2.17z"/><use x="-19.66" xlink:href="#a"/></g><g fill="#f00"><path d="m46.5 56.83c1.44 1.44 3.33 2.17 5.21 2.17 1.91 0 3.79-.72 5.22-2.17 2.88-2.88 2.88-7.55 0-10.43-2.87-2.88-7.54-2.88-10.43 0-2.88 2.87-2.88 7.55 0 10.43z"/><use xlink:href="#b"/><path d="m7.26 56.83c1.44 1.44 3.33 2.17 5.21 2.17 1.91 0 3.79-.72 5.22-2.17 2.88-2.88 2.88-7.55 0-10.43-2.87-2.88-7.54-2.88-10.43 0-2.88 2.87-2.88 7.55 0 10.43z"/><use x="-39.25" xlink:href="#b"/></g></svg>