<svg viewBox="0 0 64 64" xmlns="http://www.w3.org/2000/svg"><path d="m31.955.01c7.696 0 14.821 2.759 20.601 7.656v-1.445c0-2.358 1.947-4.285 4.295-4.285h2.88a4.3 4.3 0 0 1 4.265 4.285v16.999c0 1.134-.462 2.208-1.244 3.01-.702.722-1.656 1.104-2.649 1.184a.853.853 0 0 1 -.371.08h-17.04a4.265 4.265 0 0 1 -4.255-4.254v-2.87c0-2.348 1.907-4.315 4.255-4.315h2.087c-3.612-2.83-8.098-4.616-12.814-4.616-8.73 0-16.517 5.539-19.407 13.777-.803 2.288-2.98 3.833-5.399 3.833a5.82 5.82 0 0 1 -1.886-.32c-1.445-.502-2.609-1.546-3.261-2.91s-.763-2.94-.241-4.385c4.486-12.824 16.607-21.434 30.184-21.434zm24.896 34.94c.632 0 1.274.1 1.886.321 1.445.502 2.609 1.555 3.261 2.91.662 1.375.763 2.94.241 4.385a32 32 0 0 1 -30.184 21.434c-7.696 0-14.821-2.759-20.601-7.656v1.435c0 2.358-1.957 4.285-4.315 4.285h-2.879c-2.358 0-4.255-1.957-4.255-4.285v-17.009c0-1.003.401-1.947 1.064-2.709a.853.853 0 0 1 .19-.301 4.204 4.204 0 0 1 3.011-1.255h17.039a4.265 4.265 0 0 1 4.255 4.255v2.88c0 1.134-.442 2.208-1.244 3.04-.803.803-1.866 1.274-3.01 1.274h-2.087c3.612 2.83 8.098 4.616 12.814 4.616 8.73 0 16.517-5.539 19.407-13.767.803-2.308 2.98-3.833 5.419-3.833z" fill="#f00"/></svg>