<svg viewBox="0 0 64 64" xmlns="http://www.w3.org/2000/svg"><path d="m31.94-.01c-3.43 0-6.24 2.83-6.24 6.24v19.94c0 3.43 2.83 6.24 6.24 6.24a6.27 6.27 0 0 0 6.24-6.24v-19.94a6.27 6.27 0 0 0 -6.24-6.24zm15.44 6.87c-3.12.16-5.96 2.75-5.96 6.26 0 1.93.92 3.7 2.38 4.9 4.24 3.45 6.97 8.7 6.97 14.6a18.8 18.8 0 0 1 -20.97 18.68 1.91 1.91 0 0 0 0 0c-8.67-.97-15.65-8.02-16.54-16.7-.7-6.7 2.14-12.73 6.85-16.58v.01c1.46-1.17 2.4-2.96 2.4-4.9 0-5.15-6.24-8.06-10.23-4.8-7.8 6.3-12.5 16.29-11.48 27.27 1.4 15.1 13.74 27.15 28.88 28.2 18.25 1.32 33.6-13.22 33.6-31.2 0-9.84-4.57-18.64-11.7-24.38a1.91 1.91 0 0 0 0 0c-1.25-1-2.76-1.45-4.18-1.37z" fill="#f00"/></svg>