<svg xmlns="http://www.w3.org/2000/svg" viewBox="0 0 64 64"><path fill="none" stroke="#000000aa" stroke-linejoin="round" stroke-width="4" d="M28 5c-.8 0-1.5.3-2.1.7L6.5 20.1h0A4.5 4.5 0 005 22.6h0v0L5 31.1c0 1 .6 2.3 1.5 3l28.3 24c.3.4.7.7 1 .8h.1a2.1 2.1 0 00.6.1c.5 0 1-.1 1.7-.6L58.7 41c.5-.5.5-1.3 0-1.8a1.6 1.6 0 00-1.1-.4v-8.3l1-.9c.6-.5.6-1.3 0-1.8h0L30.1 5.6a3.3 3.3 0 00-2-.7z"/><path fill="#917c6f" d="M5 22.5V31c0 1 .6 2.3 1.5 3L35.8 59c.3.3 0-12.1 0-12.1zm0 0"/><path fill="#c8beb7" d="M30 5.7c-.5-.4-1.2-.7-2-.7s-1.6.3-2.2.7L6.4 20.1l.6 2.5L36 46.9l22.5-19zm0 0"/><path fill="#e3dedb" d="M57.5 28.7L36 46.4v11l21.5-17.6zm0 0"/><path fill="#ac9d93" d="M6.5 20.2A4.5 4.5 0 005 22.6l29.6 25V57a1.8 1.8 0 001.2 1.8 2.2 2.2 0 00.7.1c.4 0 1-.1 1.6-.6L58.6 41c.6-.5.6-1.3 0-1.8a1.7 1.7 0 00-2.1 0l-19 16v-7c0-.4.3-1 .6-1.3l6.4-5.4 14-11.9c.6-.5.6-1.3 0-1.8s-1.5-.5-2 0L36 45.2zm0 0"/></svg>