<svg xmlns="http://www.w3.org/2000/svg" viewBox="0 0 64 64"><filter id="a" width="1.2" height="1.2" x="-.1" y="-.1"><feGaussianBlur stdDeviation="1.4"/></filter><filter id="b" width="1.2" height="1.3" x="-.1" y="-.1"><feGaussianBlur stdDeviation="1.4"/></filter><path stroke="#00000077" stroke-linejoin="round" stroke-width="4.5" d="M36.8 3A2 2 0 0035 4l-3.6 5.4-1.5 2c-2.7 3.8-5.6 8-5.6 13.3 0 4.7 1.2 8.6 3.5 11.5l.2.2a13.5 13.5 0 00-2.4-.2A19.6 19.6 0 0016 39c-4.5 2.6-6.8 7.3-8.6 11.4a2 2 0 000 0L6 53.2l-2.7 5.6a2 2 0 001.7 3l6.6.5 2.6.2c4.5.5 9.8.9 14.2-1.7 4.1-2.3 7-5.4 8.3-8.8l.1-.5a18 18 0 008.2 9.3c3.1 1.8 6.4 2.1 9.4 2 3 0 6-.4 8.8-.6h0l.7-.1h0l4.7-.2a2 2 0 001.8-3L67.9 54c-2-4-4.3-11.6-10.2-15a19.5 19.5 0 00-9.7-2.8h-.6l-1.7.2.2-.2c2.2-2.9 3.5-6.8 3.5-11.5 0-5.2-3-9.5-5.6-13.1l-5.3-7.7a2 2 0 00-1.8-.9z" transform="matrix(.888 0 0 .89 -.8 2.4)"/><path fill="#0f0" d="M40.2 54.8c-6.2-3.6-8.4-9.1-6.5-13.5a8.6 8.6 0 01.4-.8 7 7 0 01.5-.8 8.6 8.6 0 016.8-3.4c2.4 0 5.3.6 8.1 2.3 4.3 2.5 6.5 8.8 8.3 12.6l2.4 4.3-4.3.2h-.6c-2.5.2-5.3.6-7.7.6-2.5 0-5.1-.2-7.4-1.5z"/><path fill="#fc0" d="M12.2 56l-2.4-.2-6-.4 2.6-5 1-2.5c1.7-3.6 3.6-7.4 7-9.3 6.6-3.8 12.8-2.6 15.4 1.9 2.5 4.4.5 10.4-6.2 14.3-3.3 1.9-7.5 1.7-11.5 1.3z"/><path fill="red" d="M22.6 24.2c0-3.8 2.3-7.4 4.6-10.6l1.4-2L32 6.9l4.7 6.8c2.3 3.2 4.6 6.8 4.6 10.6 0 7.7-4.2 12.5-9.3 12.5s-9.3-4.8-9.3-12.5z"/><path d="M19-85.7l-3.6.4-9 .6 8 3.1 3.4 1.2c5.7 2 11.8 4.3 15.2 9 3.9 5.5 5.2 11 4.5 15.5a12.6 12.6 0 008.4-6c4-6.8.9-16-9.3-21.8-5-3-11.6-2.6-17.6-2z" filter="url(#a)" opacity=".3" transform="matrix(.687 0 0 -.689 -1 -2.7)"/><path d="M77-85.2l3.7.4 9 .5v.1l-8 3-3.5 1.2c-5.7 2-11.8 4.4-15.1 9.1-4 5.5-5.3 11-4.5 15.5a12.6 12.6 0 01-8.5-6c-3.9-6.8-.8-16 9.4-21.8 5-3 11.6-2.6 17.6-2z" filter="url(#a)" opacity=".3" transform="matrix(.687 0 0 -.689 -1 -2.4)"/><path d="M33.6-38c0 1.8.3 3.5.9 5.2 2-7.5 7.2-11.9 13.4-11.9s11.3 4.4 13.4 12c.5-1.8.8-3.5.8-5.3 0-11.7-6.4-19-14.2-19-7.9 0-14.3 7.3-14.3 19z" filter="url(#b)" opacity=".3" transform="matrix(.687 0 0 -.689 -1 -2.7)"/></svg>