<svg xmlns="http://www.w3.org/2000/svg" viewBox="0 0 64 64"><linearGradient id="a" x1="32" x2="32" y1="59.7" y2="4.3" gradientUnits="userSpaceOnUse"><stop offset="0" stop-color="#e6e6e6"/><stop offset="1" stop-color="#f5f5f5"/></linearGradient><path fill="none" stroke="#000" stroke-width="4" d="M8.9 5H55A3.9 3.9 0 0159 8.9V55a3.9 3.9 0 01-3.9 3.9H9A3.9 3.9 0 015 55.1V9A3.9 3.9 0 018.9 5zm0 0"/><path fill="url(#a)" d="M8.3 4.3h47.4a4 4 0 014 4v47.4a4 4 0 01-4 4H8.3a4 4 0 01-4-4V8.3a4 4 0 014-4zm0 0" transform="translate(.8 .8) scale(.97564)"/><path fill="#7f2aff" d="M41.7 28.7l-1.3 6.7h7.4v6h-8.6L37 53h-6.3l2.2-11.7h-5.5L25.2 53H19L21 41.3h-6.8v-5.9h8l1.3-6.7h-7.3v-6h8.4L26.9 11h6.3l-2.3 11.7h5.7L39 11H45l-2.3 11.7h7v6zm-13.2 6.7H34l1.4-6.7h-5.7z"/></svg>