<svg xmlns="http://www.w3.org/2000/svg" viewBox="0 0 74 66"><defs><filter id="a" width="1.2" height="1.2" x="-.1" y="-.1"><feGaussianBlur stdDeviation="1.4"/></filter><filter id="b" width="1.2" height="1.3" x="-.1" y="-.1"><feGaussianBlur stdDeviation="1.4"/></filter><filter id="e" width="1.3" height="1.3" x="-.2" y="-.2"><feGaussianBlur stdDeviation="1.3"/></filter><radialGradient id="c" cx="91.8" cy="125.5" r="18.7" fx="91.8" fy="125.5" gradientTransform="matrix(5.42083 0 0 8.39388 -460.7 -1008.9)" gradientUnits="userSpaceOnUse"><stop offset="0" stop-color="#f0f"/><stop offset="1" stop-color="#fa0080"/></radialGradient><radialGradient id="d" cx="27.9" cy="29.1" r="10.2" fx="27.9" fy="24.9" gradientTransform="matrix(1.16695 0 0 1.33119 -79.1 -12.2)" gradientUnits="userSpaceOnUse"><stop offset="0" stop-color="#fff"/><stop offset="1" stop-color="#fff" stop-opacity="0"/></radialGradient></defs><g stroke="#00000077" stroke-linejoin="round"><path stroke-width="4" d="M36.8 3A2 2 0 0035 4l-3.6 5.4-1.5 2c-2.7 3.8-5.6 8-5.6 13.3 0 4.7 1.2 8.6 3.5 11.5l.2.2a13.5 13.5 0 00-2.4-.2A19.6 19.6 0 0016 39c-4.5 2.6-6.8 7.3-8.6 11.4a2 2 0 000 0L6 53.2l-2.7 5.6a2 2 0 001.7 3l6.6.5 2.6.2c4.5.5 9.8.9 14.2-1.7a18 18 0 008.3-8.8l.1-.5a18 18 0 008.2 9.3 17 17 0 009.4 2c3 0 6-.4 8.8-.6h0l.7-.1h0l4.7-.2a2 2 0 001.8-3L67.9 54c-2-4-4.3-11.6-10.2-15a19.5 19.5 0 00-9.7-2.8h-.6l-1.7.2.2-.2c2.2-2.9 3.5-6.8 3.5-11.5 0-5.2-3-9.5-5.6-13.1l-5.3-7.7a2 2 0 00-1.8-.9z"/><path stroke-width="6" d="M28 17.2c-5.3 0-9.4 3-11 7s-1.3 9 1 13.4a2.4 2.4 0 000 0c2.8 5 7 9.8 10.4 13.8 2.7 3.2 5.4 5.7 8.6 9.8 3-4 6-6.9 8.6-9.9 3.4-4 7.6-8.7 10.4-13.7a2.4 2.4 0 000 0c2.3-4.4 2.7-9.3 1-13.4s-5.7-7-11-7a2.4 2.4 0 00-.2 0c-3.7.3-6.6 2.3-8.8 4.7a13.3 13.3 0 00-8.8-4.7 2.3 2.3 0 00-.3.1z"/></g><path fill="#f80" d="M26.3 24.5c0-4.3 2.7-8.3 5.2-12l1.6-2L36.8 5l5.3 7.6c2.6 3.6 5.2 7.6 5.2 12 0 8.6-4.7 14-10.5 14s-10.5-5.4-10.5-14zM14.6 60.3l-2.7-.3-6.7-.4L8 54l1.3-2.8c1.8-4 4-8.4 7.7-10.5 7.5-4.3 14.5-3 17.4 2 2.9 5 .6 11.8-6.9 16.2-3.7 2.1-8.5 1.9-13 1.4zM46.2 59c-7-4-9.5-10.3-7.4-15.2a9.7 9.7 0 01.5-1 7.8 7.8 0 01.6-.8 9.6 9.6 0 017.6-3.8c2.7-.1 6 .7 9.2 2.6 4.8 2.8 7.3 10 9.3 14l2.6 5-4.7.1-.8.1c-2.8.3-6 .7-8.6.7-2.8 0-5.8-.2-8.4-1.7z"/><path d="M19-85.7l-3.6.4-9 .6 8 3.1 3.4 1.2c5.7 2 11.8 4.3 15.2 9 3.9 5.5 5.2 11 4.5 15.5a12.6 12.6 0 008.4-6c4-6.8.9-16-9.3-21.8-5-3-11.6-2.6-17.6-2z" filter="url(#a)" opacity=".3" transform="matrix(.77397 0 0 -.77397 -.3 -5.7)"/><path d="M77-85.2l3.7.4 9 .5v.1l-8 3-3.5 1.2c-5.7 2-11.8 4.4-15.1 9.1-4 5.5-5.3 11-4.5 15.5a12.6 12.6 0 01-8.5-6c-3.9-6.8-.8-16 9.4-21.8 5-3 11.6-2.6 17.6-2z" filter="url(#a)" opacity=".3" transform="matrix(.77397 0 0 -.77397 -.3 -5.3)"/><path d="M33.6-38c0 1.8.3 3.5.9 5.2 2-7.5 7.2-11.9 13.4-11.9s11.3 4.4 13.4 12c.5-1.8.8-3.5.8-5.3 0-11.7-6.4-19-14.2-19-7.9 0-14.3 7.3-14.3 19z" filter="url(#b)" opacity=".3" transform="matrix(.77397 0 0 -.77397 -.3 -5.7)"/><path fill="url(#c)" d="M28 17.2c-5.3 0-9.4 3-11 7s-1.3 9 1 13.4c2.8 5 7 9.8 10.4 13.8 2.7 3.2 5.4 5.7 8.6 9.8 3-4 6-6.9 8.6-9.9 3.4-4 7.6-8.7 10.4-13.7 2.3-4.4 2.7-9.3 1-13.4s-5.7-7-11-7a2.4 2.4 0 00-.2 0c-3.7.3-6.6 2.3-8.8 4.7a13.3 13.3 0 00-8.8-4.7 2.3 2.3 0 00-.3.1z"/><g fill="url(#d)" opacity=".8"><ellipse cx="-46.6" cy="29.2" filter="url(#e)" rx="9.7" ry="10.2" transform="matrix(-1.22605 0 0 1.22605 -9.5 -5.1)"/><ellipse cx="-46.6" cy="29.2" filter="url(#e)" rx="9.7" ry="10.2" transform="translate(83.9 -5.1) scale(1.22605)"/></g><path fill="none" stroke="#000" stroke-linejoin="round" stroke-width="3" d="M17 24.3c-1.7 4-1.3 8.9 1 13.3a2.4 2.4 0 000 0c2.8 5 7 9.8 10.4 13.8 2.7 3.2 5.4 5.7 8.6 9.8 3-4 6-6.9 8.6-9.9 3.4-4 7.6-8.7 10.4-13.7a2.4 2.4 0 000 0c2.3-4.4 2.7-9.3 1-13.3s-5.7-7.1-10.3-7-7.5 2.2-9.7 4.6c-2.2-2.4-5.1-4.4-9.7-4.6s-8.7 3-10.3 7z"/></svg>