<svg xmlns="http://www.w3.org/2000/svg" viewBox="0 0 144 144"><circle cx="72" cy="72" r="72" fill="#ff4e00"/><path fill="#fff" d="m47.3 95.94-.98-6.4a22.53 22.53 0 0 1-16.9 7.37c-8.67 0-14.08-5.2-14.08-13.32 0-11.92 10.18-16.68 30.22-18.74v-2.06c0-6.06-3.57-8.12-9.1-8.12S25.1 56.5 19.9 58.78l-1.2-7.69c5.75-2.27 11.16-4 18.53-4 11.6 0 17.22 4.65 17.22 15.38v33.47h-7.26zm-1.74-24.27c-17.66 1.74-21.34 6.5-21.34 11.49s2.6 6.39 7.15 6.39 10.18-2.6 14.19-6.72zm25.1-4v28.27h-8.88V48.17h7.15l1.52 9.75c3.35-5.42 8.88-10.3 16.79-10.73l1.4 8.56c-8.01.33-14.73 5.63-17.98 11.92zM109.7 96.9a39.2 39.2 0 0 1-17.44-4.55l1.3-8.44a29.9 29.9 0 0 0 16.9 5.52c6.07 0 9.75-2.28 9.75-6.28s-2.7-6.07-11.37-8.13c-11.27-2.81-15.7-6.17-15.7-14.73s6.38-13.21 16.89-13.21a38.67 38.67 0 0 1 15.7 3.24l-1.4 8.45a30.55 30.55 0 0 0-14.52-4.11c-5.41 0-8.23 2.06-8.23 5.52s2.38 4.98 9.97 6.93c11.8 3.04 17.11 6.4 17.11 15.5s-6.6 14.3-18.96 14.3z"/></svg>