<svg xmlns="http://www.w3.org/2000/svg" xmlns:xlink="http://www.w3.org/1999/xlink" viewBox="0 0 64 64"><defs><path id="g" d="M22.9 25.6a1.3 1.3 0 1 1-2.7 0c0-.7.6-1.3 1.4-1.3s1.3.6 1.3 1.3z"/><path id="e" d="M23.3 15.7a1.4 1.4 0 1 1-2.7 0 1.4 1.4 0 0 1 2.7 0z"/><path id="f" d="M20.5 20.6c0 .8-.7 1.4-1.5 1.4s-1.5-.6-1.5-1.4A1.5 1.5 0 0 1 19 19a1.5 1.5 0 0 1 1.5 1.5z"/><radialGradient id="a" cx="16" cy="20.5" r="11" fx="16" fy="20.5" gradientTransform="matrix(1.18 0 0 1.45 -2.7 -9.2)" gradientUnits="userSpaceOnUse"><stop offset="0" stop-color="red"/><stop offset=".6" stop-color="#ff2a2a"/><stop offset="1" stop-color="#521111"/></radialGradient><radialGradient id="b" cx="16" cy="14.9" r="11" fx="16" fy="14.9" gradientTransform="matrix(1.5 0 0 1.98 -7.9 -14)" gradientUnits="userSpaceOnUse"><stop offset="0" stop-color="#fff" stop-opacity=".6"/><stop offset=".7" stop-color="#500" stop-opacity=".7"/><stop offset="1" stop-color="#fff" stop-opacity=".2"/></radialGradient><linearGradient id="c" x1="4.65" x2="4.65" y1="28.36" y2="15.27" gradientUnits="userSpaceOnUse"><stop offset="0" stop-opacity=".8"/><stop offset="1" stop-color="#fff" stop-opacity="0"/></linearGradient><filter id="d" width="1.09" height="1.08" x="-.04" y="-.04" color-interpolation-filters="sRGB"><feGaussianBlur stdDeviation=".26"/></filter></defs><path fill="#483737" d="M24 1.7a3 3 0 0 0-2 .9 3 3 0 0 0 0 4.3l2.8 3a9.6 9.6 0 0 0-2.7 6.5v.5c-1.5.7-3 1.6-4.2 2.7l-3.5-3.4a3 3 0 0 0-2.1-1 3 3 0 0 0-2.2 1 3.2 3.2 0 0 0 0 4.3l5.4 5.4a3 3 0 0 0 1.7.8C21.5 29.4 27 31 32.1 31s10.5-1.6 14.8-4.3a3 3 0 0 0 1.7-.8l5.4-5.4a3.2 3.2 0 0 0 0-4.3 3 3 0 0 0-4.3 0l-3.5 3.4c-1.3-1-2.7-2-4.2-2.8v-.4c0-2.5-1-4.8-2.7-6.6l3-2.9a3 3 0 0 0 0-4.3 3 3 0 0 0-4.4 0l-4.3 4.3-1.5-.1-1.5.1-4.4-4.3a3.1 3.1 0 0 0-2.2-.9zM4 34.2c-1.6 0-3 1.5-3 3 0 1.6 1.5 3 3 3h8c1.7 0 3.1-1.4 3.1-3a3.2 3.2 0 0 0-3-3zm48 0a3.2 3.2 0 0 0-3 3 3.2 3.2 0 0 0 3 3h8a3.2 3.2 0 0 0 3-3 3.2 3.2 0 0 0-3-3zm-35.7 17a3 3 0 0 0-2.2 1l-4 4c-1.21 1.18-1.21 3.12.08 4.28s3.15 1.16 4.32.02l4-4a3.1 3.1 0 0 0 0-4.4 3 3 0 0 0-2.2-.9zm31.5 0a3 3 0 0 0-2.1 1 3.1 3.1 0 0 0 0 4.3l4 4a3.1 3.1 0 0 0 4.3 0 3 3 0 0 0 0-4.4l-4-4a3 3 0 0 0-2.2-.9z"/><path d="M29.6 26.1h4.8v35.3h-4.8z"/><path fill="url(#a)" d="M9 9a13.1 13.1 0 0 0 6.2 22.3c-.2.1.4-10.7.8-18.9a9.8 9.8 0 0 1-7-3.3Zm7 3.5c-11-9-5.5-4.5 0 0zM23 9a13.1 13.1 0 0 1-6.2 22.3c.2.1-.4-10.7-.8-18.9a9.8 9.8 0 0 0 7-3.3Zm-7 3.5c11-9 5.5-4.5 0 0z" transform="matrix(1.94 0 0 1.94 1 1.7)"/><path fill="url(#b)" stroke="url(#c)" stroke-linejoin="round" stroke-width=".79" d="M8.46 9C.84 16.23 4.94 29.57 15.2 31.83c-.2.1.4-11.23.8-19.43-2.69-.1-5.76-1.29-7.54-3.3ZM16 12.5c-11-9-5.5-4.5 0 0ZM23.54 9c7.62 7.23 3.52 20.57-6.74 22.83.2.1-.4-11.23-.8-19.43 2.69-.1 5.76-1.29 7.54-3.3ZM16 12.5c11-9 5.5-4.5 0 0z" filter="url(#d)" transform="matrix(1.88 0 0 1.9 2.03 1.95)"/><g transform="matrix(-2.04 .27 .27 2.04 57.3 -9.3)"><use xlink:href="#e"/><use xlink:href="#f"/><use xlink:href="#g"/></g><g transform="rotate(8 73.1 40.8) scale(2.06)"><use xlink:href="#e"/><use xlink:href="#f"/><use xlink:href="#g"/></g></svg>