<svg xmlns="http://www.w3.org/2000/svg" viewBox="0 0 64 64"><path fill="#53676c" d="M51.9 52.1a5.4 5.4 0 0 0-3.2 1H41c-.2-.5-.7-1-1.3-1h-.4v-5.4l3.4-.3c.7 0 1.3-.6 1.3-1.3v-8.2c0-.7-.6-1.3-1.4-1.3h-3.3V24.7h1a1.4 1.4 0 1 0 0-2.7H29.6a1.4 1.4 0 1 0 0 2.7h1v10.9h-6.1c-.9 0-1.5-.7-1.5-1.5V14.7c0-.8.6-1.5 1.5-1.5h18.1c.8 0 1.4-.6 1.4-1.3a9 9 0 0 0-8-9L21.9 1a1.3 1.3 0 0 0-.2 0h-3.1C12 1 6.7 6.3 6.7 12.8V36c0 6.5 5.3 11.8 11.8 11.8h3.1l9-.6v5h-.4c-.6 0-1.2.4-1.3 1H21a5.4 5.4 0 0 0-3.1-1A5.4 5.4 0 0 0 18 63a5.4 5.4 0 0 0 3.1-1H29c.1.6.7 1 1.3 1h9.5c.6 0 1.1-.4 1.3-1h7.7a5.4 5.4 0 0 0 3.2 1 5.4 5.4 0 0 0 0-10.9z"/><path fill="#e2f1f6" d="M51.9 60.3a2.7 2.7 0 0 1-1.8-.7l-.9-.3H41v-3.4h8.2a1.4 1.4 0 0 0 .9-.4 2.7 2.7 0 0 1 1.8-.6 2.7 2.7 0 0 1 0 5.4m-13.6 0h-6.8v-5.4h6.8zm-1.7-13.5v5.3h-3.4v-5zm-15-1.7h-3.1A9.1 9.1 0 0 1 9.4 36V12.8a9.1 9.1 0 0 1 9-9h3.1l14.2 1.7c2.7.4 4.9 2.4 5.4 5H24.5a4.2 4.2 0 0 0-4.3 4.2v19.4c0 2.3 2 4.2 4.3 4.2h16.8v5.5zm11.6-20.4h3.4v10.9h-3.4zm-4.4 34.6h-8.1a1.4 1.4 0 0 0-1 .3 2.7 2.7 0 0 1-1.7.7 2.7 2.7 0 0 1 0-5.4 2.7 2.7 0 0 1 1.8.6c.2.3.5.4.9.4h8.1z"/></svg>