<svg xmlns="http://www.w3.org/2000/svg" xmlns:xlink="http://www.w3.org/1999/xlink" viewBox="0 0 64 64"><linearGradient id="h" x1="284.8" x2="288.9" y1="-441.2" y2="-436.8" xlink:href="#a"/><linearGradient id="g" x1="-27.8" x2="-25" y1="16.9" y2="19.4" xlink:href="#a"/><linearGradient id="f" x1="275.9" x2="280" y1="-437.1" y2="-431.9" xlink:href="#a"/><linearGradient id="e" x1="285.9" x2="289.4" y1="-439.9" y2="-436.4" xlink:href="#a"/><linearGradient id="d" x1="286.5" x2="289.9" y1="-441.3" y2="-436.1" xlink:href="#a"/><linearGradient id="c" x1="287.5" x2="289.7" y1="-439.8" y2="-436.3" xlink:href="#a"/><linearGradient id="a" gradientUnits="userSpaceOnUse"><stop offset="0" stop-color="#fff"/><stop offset="1" stop-color="#fff" stop-opacity="0"/></linearGradient><filter id="b" width="1" height="1" x="0" y="0" color-interpolation-filters="sRGB"><feGaussianBlur/></filter><linearGradient id="i" x1="-27.8" x2="-25" y1="16.9" y2="19.4" gradientUnits="userSpaceOnUse"><stop offset="0" stop-color="#ccc"/><stop offset="1" stop-color="#fff" stop-opacity="0"/></linearGradient><circle cx="32" cy="54.1" r="3" fill="#0f0"/><g stroke="#4d4d4d"><g fill="none" transform="matrix(1.29 0 0 1.3 1 2.7)"><circle cx="24" cy="39.6" r="2.7" stroke-width="1.6"/><path stroke-linecap="round" stroke-width="1.2" d="M1.5 39.6H21m6.2 0h19.4"/><path stroke-width="2" d="M24 36.5v-7.7"/></g><path fill="#ccc" stroke-width="2" d="M32 6.4c-4.9 0-8.8 3.3-10.1 7.7-1.5-.7-3.1-1.3-4.9-1.3A10.7 10.7 0 006.3 23.5c0 1.3.3 2.4.7 3.5-3 1.7-5 4.7-5 8.3a9.7 9.7 0 009.7 9.7h40.7a9.7 9.7 0 009.6-9.6c0-3.7-2-6.7-5-8.4.4-1 .7-2.2.7-3.5A10.7 10.7 0 0047 12.8c-1.8 0-3.4.6-4.9 1.3A10.6 10.6 0 0032 6.4z"/></g><g filter="url(#b)"><g transform="matrix(2.27 0 0 2.28 -622.8 1013.9)"><circle cx="288.4" cy="-437.6" r="3.3" fill="#c4c5c2"/><circle cx="288.4" cy="-437.6" r="3.3" fill="url(#c)"/></g><circle cx="-26.2" cy="18.6" r="3" fill="#c4c5c2" transform="matrix(2.14 0 0 2.15 66.8 -4.6)"/><g transform="matrix(2.27 0 0 2.28 -607.2 1020.6)"><circle cx="288.4" cy="-437.6" r="3.3" fill="#c4c5c2"/><circle cx="288.4" cy="-437.6" r="3.3" fill="url(#d)"/></g><g transform="matrix(2.27 0 0 2.28 -637.3 1020.8)"><circle cx="288.4" cy="-437.6" r="3.3" fill="#c4c5c2"/><circle cx="288.4" cy="-437.6" r="3.3" fill="url(#e)"/></g><path fill="#c4c5c2" d="M32.6 17a14 14 0 00-13.8 13.9c0 5 2.9 9.3 7 11.8h13.8c4-2.5 7-6.8 7-11.9a14 14 0 00-14-13.9z"/><path fill="url(#f)" d="M280.5-441a6.5 6.5 0 00-6.5 6.5c0 2.4 1.3 4.4 3.3 5.5h6.4a6.4 6.4 0 003.3-5.5 6.5 6.5 0 00-6.5-6.5z" transform="matrix(2.14 0 0 2.15 -567.6 965)"/><circle cx="-26.2" cy="18.6" r="3" fill="url(#g)" transform="matrix(2.14 0 0 2.15 71.4 -4.4)"/><g transform="matrix(2.6 0 0 2.6 -706 1168.6)"><circle cx="288.4" cy="-437.6" r="3.3" fill="#c4c5c2"/><circle cx="288.4" cy="-437.6" r="3.3" fill="url(#h)"/></g><circle cx="-26.2" cy="18.6" r="3" fill="url(#i)" transform="matrix(2.14 0 0 2.15 108.9 -4.5)"/></g><path fill="#4d4d4d" fill-rule="evenodd" d="M58 27.1c-1.6 5.6-9 5.8-9 5.8s5.9-2 7-6.3z"/><path fill="#fff" stroke="#4d4d4d" stroke-linejoin="round" stroke-width="2.5" d="M36.1 39.1v-14H41L32 16l-8.9 9h4.8v14z"/></svg>