<svg xmlns="http://www.w3.org/2000/svg" xml:space="preserve" viewBox="0 0 64 64"><rect width="64" height="64" fill="#0e2748" ry="1.5"/><path fill="#fff" d="M28.4 16.9c-.4-.3-1 .2-1.8.3h-.1c-.4.2-15 .1-18 0H8v.4c0 .3.3.8.5 1 .3.1 1.2 0 2 .3.7.3 1.5 1 1.5 2.7v21.2c0 3.7-4 2-4 3.7v.9l.4-.1c2.4-.5 19.4.2 20.5-.2.3-.2.6-.6.8-1.1a11 11 0 0 0 .4-1.4 34.5 34.5 0 0 0 .7-2.5l.5-2.6V39h-.8c-2 0-1.2 7-7.2 7-3.7 0-6-1-6-4.2V31.3h4.6c2.7 0 1.7 4 3 4h.6v-9.7H25c-1.2 0-.4 3.7-3 3.7h-4.7V18.7h.6a49.5 49.5 0 0 1 6.5.2c2.8.4 1.8 5.7 4 5.7h.4v-7.1c0-.2 0-.5-.3-.6zM50 46.5zm5.1-29.9c-.3 0-.7.2-1.2.6-.4.2-5.3.4-10.2.4a78 78 0 0 1-10.2-.4c-.8-.6-1.4-.7-1.7-.5-.1 0-.4.2-.4.6-.1 4.5 0 2.4-.2 4.3a134.6 134.6 0 0 1-.1 3l-.1.4h1c.2 0 .4-.1.5-.3.4-.5.7-1.9 1.6-3.2.7-1.2 2-2.3 4.2-2.3H41v22.6c0 1.7-.3 2.7-.8 3.2-.6.8-1.5.8-2.1 1-.3 0-.7.1-.7.5v1l.4-.1 2.5-.2a86.2 86.2 0 0 1 9.3.2h.4v-.9c0-.4-.4-.5-.7-.6-.6-.1-1.5-.1-2.1-1-.5-.5-.8-1.4-.8-3.1V19.3H49c2.2 0 3.3 1 3.9 2.2.6 1.3.8 2.7 1.1 3.2.1.2.3.3.5.3h1.2l-.1-.4a50.2 50.2 0 0 1 .4-7.1v-.1l-.2-.6c-.1-.2-.4-.3-.7-.2z"/></svg>