<svg xmlns="http://www.w3.org/2000/svg" viewBox="0 0 64 64"><path fill="#595" d="M59.3 26.8H22.8a3.9 3.9 0 00-3.9 4V54a3.9 3.9 0 004 3.9h20.8v4.3a1 1 0 001.5.6l5-5h9a3.9 3.9 0 004-3.8V30.7a3.9 3.9 0 00-4-3.9z"/><path fill="#fff" stroke="#fff" stroke-width="2" d="M36.8 49.5a1.3 1.3 0 01-.9-.4l-6.5-6.5a1.3 1.3 0 010-1.8 1.3 1.3 0 011.8 0l5.6 5.5 12.1-12a1.3 1.3 0 011.9 0 1.3 1.3 0 010 1.8l-13 13a1.3 1.3 0 01-1 .4z"/><path fill="#5555e1" d="M37.6 19.3a18.3 18.3 0 10-22 18l5.6 5.5a.8.8 0 001.3-.6v-4.9c8.6-1.5 15.1-9 15.1-18z"/><path fill="#fff" stroke="#fff" stroke-width="2" d="M19.3 31.2a1.3 1.3 0 110-2.6 1.3 1.3 0 011.3 1.3v0c0 .7-.6 1.3-1.3 1.3zm0-5.3a1.3 1.3 0 01-1.3-1.3v-.4a4 4 0 012.8-3.8 5.3 5.3 0 003.8-5 5.5 5.5 0 00-5.3-5.4 5.3 5.3 0 00-5.3 5.3 1.3 1.3 0 01-2.6 0 8 8 0 018-7.9h0c2 0 4 .8 5.5 2.4s2.4 3.5 2.4 5.5a8 8 0 01-5.7 7.7c-.6.1-1 .6-1 1.2v.4a1.3 1.3 0 01-1.3 1.3z"/></svg>