<svg xmlns="http://www.w3.org/2000/svg" viewBox="0 0 64 64"><path fill="#fc6d26" d="M62.8 36.3L52.5 4.4a1.2 1.2 0 00-2.3 0l-6.7 21.3h-23L13.7 4.4a1.2 1.2 0 00-2.3 0L4.6 25.7 1 36.3a2.3 2.3 0 00.9 2.5l29.9 21.8 30-21.8a2.4 2.4 0 00.9-2.6"/><path fill="#e24329" d="M32 60.6l11.5-35h-23z"/><path fill="#fca326" d="M4.7 25.6L1.2 36.2a2.3 2.3 0 00.9 2.7L32 60.7zm54.7 0l3.5 10.6a2.3 2.3 0 01-1 2.7L32 60.6z"/><path fill="#e24329" d="M59.4 25.6h-16l6.8-21.2a1.2 1.2 0 012.3 0zm-38.8 0h-16l6.8-21.2a1.2 1.2 0 012.3 0z"/></svg>