<svg xmlns="http://www.w3.org/2000/svg" fill="none" viewBox="0 0 64 64"><path fill="#e24329" d="m62.93 25.58-.09-.23-8.7-22.72a2.3 2.3 0 0 0-4.35.23l-5.88 18H20.09l-5.88-18a2.3 2.3 0 0 0-4.35-.23l-8.7 22.72-.1.23a16.17 16.17 0 0 0 5.37 18.69l.04.02.07.06 13.25 9.93 6.58 4.97 3.99 3.02a2.7 2.7 0 0 0 3.25 0l4-3.02 6.57-4.97 13.35-9.99.03-.02a16.17 16.17 0 0 0 5.37-18.7z"/><path fill="#fc6d26" d="m62.93 25.58-.09-.23a29.37 29.37 0 0 0-11.7 5.26L32 45.09l12.18 9.2 13.34-9.99.04-.03a16.17 16.17 0 0 0 5.36-18.68z"/><path fill="#fca326" d="m19.79 54.28 6.57 4.97 4 3.02a2.7 2.7 0 0 0 3.25 0l4-3.02 6.57-4.97L32 45.08z"/><path fill="#fc6d26" d="M12.87 30.61a29.35 29.35 0 0 0-11.71-5.26l-.1.23a16.17 16.17 0 0 0 5.37 18.69l.04.02.07.06 13.25 9.93 12.19-9.2-19.12-14.46z"/></svg>