<svg xmlns="http://www.w3.org/2000/svg" xmlns:xlink="http://www.w3.org/1999/xlink" viewBox="0 0 64 64"><defs><path id="a" d="M51.3 5a1 1 0 0 0-1 1 1 1 0 0 0 1 1 1 1 0 0 0 1-1 1 1 0 0 0-1-1z"/></defs><g fill="#f9f9f9" stroke="#333" stroke-width="2"><path d="M1 1h62v62H1z"/><path d="M1 1h62v10.5H1z"/></g><g fill="#333"><use xlink:href="#a"/><use xlink:href="#a" x="-5.4"/><path d="M56.7 5a1 1 0 0 0-1 1 1 1 0 0 0 1 1 1 1 0 0 0 1.1-1 1 1 0 0 0-1-1z"/></g><path fill="none" stroke="#aaa" d="M7.8 40.2h21.5V57H7.8z" class="F G H I"/><path fill="#5f5faf" d="M17.7 44v4.8H13v2.7H8.5v5h20.1v-6.1h-4.5v-6.5z"/><path fill="none" stroke="#aaa" d="M34.7 40.2h21.5V57H34.7z" class="F G H I"/><path fill="#5f5faf" d="M40 40.9v3.8h-4.7v11.7h20.3v-7.6h-4.5v-3h-4.7v-5Z" class="J"/><path fill="none" stroke="#aaa" d="M34.7 17.8h21.5v16.8H34.7z" class="F G H I"/><path fill="#5f5faf" d="M35.4 19.8V34h20.3v-4.8H51v-2h-4.7v-3.3h-4.6v-4z" class="J"/><path fill="none" stroke="#aaa" d="M7.8 17.8h21.5v16.8H7.8z" class="F G H I"/><path fill="#5f5faf" d="M13 20.6v5H8.5V34h20.3V21.2h-6.4v2.9h-2.9v-3.5z"/><path fill="none" stroke="#20f846" d="M8.4 27.4h6.1v-5H18v3.1h5.9V23h4.8"/></svg>