<svg xmlns="http://www.w3.org/2000/svg" xml:space="preserve" viewBox="0 0 64 64"><defs><radialGradient id="c" cx="31.8" cy="31.8" r="30.8" fx="31.8" fy="31.8" gradientTransform="translate(-15 -15)" gradientUnits="userSpaceOnUse" href="#a"/><radialGradient id="d" cx="32" cy="32" r="29.9" fx="32" fy="32" gradientTransform="rotate(30 32 32)" gradientUnits="userSpaceOnUse" href="#b"/><linearGradient id="b"><stop offset="0" stop-color="#a11100"/><stop offset=".6" stop-color="#ff412b"/><stop offset="1" stop-color="#ed1d06"/></linearGradient><linearGradient id="a"><stop offset="0" stop-color="#fbfbfb"/><stop offset=".5" stop-color="#f5f5f5"/><stop offset="1" stop-color="#cacfcf"/></linearGradient></defs><path fill="url(#c)" d="M32 2a30 30 0 1 0 0 60 30 30 0 0 0 0-60m0 43a13 13 0 1 1 0-26 13 13 0 0 1 0 26"/><path fill="url(#d)" d="M26 20a13 13 0 0 1 12 0l3-17a30 30 0 0 0-18 0zm-6 18a13 13 0 0 1 0-12L4 23a30 30 0 0 0 0 18zm24-12a13 13 0 0 1 0 12l16 3a30 30 0 0 0 0-18zm-6 18a13 13 0 0 1-12 0l-3 17a30 30 0 0 0 18 0z" style="mix-blend-mode:multiply"/><path fill="none" stroke="#eeefef" stroke-width="3" d="M32 2a30 30 0 1 0 0 60 30 30 0 0 0 0-60zm0 43a13 13 0 1 1 0-26 13 13 0 0 1 0 26z"/></svg>