<svg xmlns="http://www.w3.org/2000/svg" viewBox="0 0 64 64"><g fill="#eeb490"><circle cx="19.7" cy="24" r="5"/><circle cx="45.4" cy="24" r="5"/></g><path fill="#9d90c5" d="M32 64H4.4c0-22.5 6-14.9 20.6-22.7h7zm0 0h27.6c0-22.5-6-14.9-20.6-22.7h-7z"/><path fill="#8075af" d="M22.8 43.9V48a9.6 9.6 0 1 0 19.2.2v-4.4c0-1.6-1.2-2.8-2.8-2.8H25.6a2.8 2.8 0 0 0-2.8 2.8z"/><path fill="#eeb490" d="M25.9 37.8v7c0 3.6 3 6.6 6.5 6.6 3.7 0 6.6-3 6.6-6.6v-7z"/><path fill="#faccb4" d="M39 11.9H25.9c-3 0-5.6 2.5-5.6 5.6v12.7a12.2 12.2 0 1 0 24.5 0V17.5c0-3-2.5-5.6-5.6-5.6z"/><path fill="#56545f" d="m26.6 0-1.4.1c-17.6 0-5 26.5-5 26.5 0-10.2 6.4-10.3 6.4-10.3h11.7c2 0 3.7-.6 5-1.7 1.7 2.8 1.5 7.3 1.5 11.1 6.6-12.5 3.9-16.8 1.6-18.3A8.2 8.2 0 0 0 38.3 0Z"/></svg>