<svg xmlns="http://www.w3.org/2000/svg" viewBox="0 0 64 64"><path fill="none" stroke="#a72376" stroke-linejoin="round" stroke-width="4" d="M2 2h52.3v40.2H2z"/><path fill="#fff" d="M4 4h48.2v36.2H4z"/><g fill="#a72376"><path stroke="#a72376" stroke-linecap="round" stroke-width="4" d="m40.2 22.7 12 12.1m-21.1-3 9.1-9.1m-22.1-4 21.3 21.5M4 32.8l14-14.1"/><circle cx="44.2" cy="12.1" r="4"/></g><path fill="none" stroke="#000" stroke-linejoin="round" stroke-width="3.2" d="M20.6 30.2h41.8v32.2H20.6z"/><path fill="#fff" d="M22.2 31.8h38.6v28.9H22.2z"/><path d="m33.4 41.4-1 1-1 1.1L21 53.8l-1 1 2 2.2 1.2-1.1 10.1-10.2 8.3 8.4 2 2h.1l5.6 5.7 1 1.1 2.2-2.1-1-1L46 54l5.1-5.2 8.6 8.6 1 1.1 2.2-2.1-1-1-8.6-8.7-1.1-1-.1-.2-1-1-1 1.1-1 1-5.3 5.2-8.2-8.3-1-1v-.1l-1.1-1zm17.7 5.4 9.7 9.7m-17-2.4 7.3-7.3m-17.7-3.3 17 17.3m-28.2-6 11.2-11.3"/><circle cx="54.4" cy="38.3" r="3.2"/></svg>