<svg xmlns="http://www.w3.org/2000/svg" xmlns:xlink="http://www.w3.org/1999/xlink" viewBox="0 0 64 64"><defs><path id="b" d="M23 16.7a2.4 2.4 0 01-.8-.5l-.5-.8a2.4 2.4 0 01-.2-1c0-.2 0-.6.2-.9l.5-.7.8-.5c.2-.2.6-.2.9-.2.3 0 .6 0 1 .2a2.4 2.4 0 01.7.5l.5.7.2 1a2.4 2.4 0 01-.2 1 2.5 2.5 0 01-.5.7 2.3 2.3 0 01-.8.5l-1 .2a2.4 2.4 0 01-.9-.2z"/><path id="c" d="M18.4 31.5v-1.8c0-.4.3-.7.7-.7h3.3v-7.4h-3a.7.7 0 01-.6-.7V19c0-.4.3-.7.7-.7h5.8c.4 0 .7.3.7.7V29h3c.4 0 .7.3.7.7v1.8c0 .4-.3.7-.7.7H19a.7.7 0 01-.6-.7z"/><linearGradient id="a" x1="34.5" x2="34.5" y1="13.3" y2="34.9" gradientUnits="userSpaceOnUse"><stop offset="0" stop-color="#5eace8"/><stop offset="1" stop-color="#5796e8"/></linearGradient></defs><path fill="url(#a)" stroke="#3a4389" stroke-width="1.8" d="M22.8 1L1 22.9a1.6 1.6 0 000 2.4l21.8 21.7a1.6 1.6 0 002.4 0L47 25.2a1.6 1.6 0 000-2.4L25.2 1a1.6 1.6 0 00-2.4 0z" transform="matrix(1.28 0 0 1.28 1.5 1.5)"/><g fill="#fff" transform="matrix(1.33 0 0 1.33 0 1)"><g stroke="#3c62a1" stroke-linejoin="round" stroke-width="2.4" opacity=".4"><use xlink:href="#b"/><use xlink:href="#c"/></g><use xlink:href="#b"/><use xlink:href="#c"/></g><path fill="none" stroke="#fff" stroke-linejoin="round" stroke-width="2.7" d="M32 4.4L4.4 32 32 59.6 59.6 32z"/></svg>