<svg xmlns="http://www.w3.org/2000/svg" viewBox="0 0 64 64"><path fill="#ff171a" d="M32.1 4.5c-3 .2-4 3.4-5.4 5.6L1.1 54c-1 2.1.8 5.2 3.5 5.4l55.4-.2a4.2 4.2 0 002.8-5.6L35.6 6.3c-1-1-2.1-1.8-3.5-1.8z"/><path fill="#fff" d="M32.1 11.8L56.7 54h-49z"/><path d="M28 24.8c-.7 0-1.3.2-2 .9-1 1-.7 2.3 0 3.5 1 .9 2.1 1.2 3.2.6l.2.6a5.4 5.4 0 00-1.7 2c.1 1.6.3 3.2.8 4.7-.5.7-1 1.5-1.3 2.3a7 7 0 00-.4 2.6l-2.5 1.5c0-.4 0-.5-.3-.7-.4-.5-1-.5-1.5-.7 0-.5-.5-1-1-1.6-.3-.2-.6-.3-1-.1-.7-.5-1.4-.5-2.2-.2L11.7 52h15.1a15.2 15.2 0 00-2.1-7.5l2-1.2h2l.5-1.5 2.3-1.2-.7 1.7-.2 8.3c-1.8.4-2.5.9-2.5 1.5h5l1.7-7.2h-.4v-1.2c1.2-1 2-2.6 2.8-4.1a9 9 0 001.5 4.9 43.3 43.3 0 005.8 5.3c-.1 1-1 1.6-1.6 2.4h2l1-.7 2-3.7-1.2-.3-4.3-4.9-.2.5c-1-.8-1-1.9-1.2-3 .1-1.8-.6-3.2-1.3-4.5l.5-.5.3.4A2 2 0 0042 34c-.1-.4-.3-.7-.9-.8l-.3-1.7c-1.1-4.8-2.5-4.3-3.7-5.1-2.2.2-4.5.4-6.1 2-.2 0-.5 0-.3-.3 0-1.6-.4-2.2-1-2.8a3.2 3.2 0 00-1.7-.5zm9.2 4.4c1.1 0 1.7 1.5 2.5 4.9l-.5.5-3.1-5c.4-.3.7-.4 1-.4zm-6.5 5.3c.5.3 1 .5 2.4 2.6l-.6 1.4-3.7 2.3c.2-1.2 1.1-2 1.8-2.8a9.6 9.6 0 00.1-3.5z"/></svg>