<svg xmlns="http://www.w3.org/2000/svg" xmlns:xlink="http://www.w3.org/1999/xlink" viewBox="0 0 64 64"><style>.B{stroke-linejoin:round}.C{stroke-width:1.965}</style><defs><linearGradient id="A" gradientUnits="userSpaceOnUse"><stop offset="0" stop-color="#f7ed96"/><stop offset="1" stop-color="#f7cf15"/></linearGradient><linearGradient id="B" x1="19.8" x2="19.8" y1="10.5" y2="83.8" xlink:href="#A"/><linearGradient id="C" x1="-29.1" x2="-71.3" y1="22.7" y2="91.9" xlink:href="#A"/><linearGradient id="D" x1="20.9" x2="-16.8" y1="8.3" y2="85.2" xlink:href="#A"/><path id="E" d="M43.8 16a1 1 0 01-.9-.9c0-4-2.2-8.2-7.2-8.2s-7.3 4.3-7.3 8.2a1 1 0 11-1.8 0c0-5 3-10 9-10s9.2 5 9.2 10a1 1 0 01-1 1"/></defs><path fill="#25b99a" d="M63 30.8L51 10.5a7.5 7.5 0 00-10.2-2.6L35.4 11a13.6 13.6 0 010 6.5 13.6 13.6 0 01-3 5.5l11.3 19.2A7.5 7.5 0 0054 44.8l6.3-3.8A7.5 7.5 0 0063 30.8"/><path fill="#198d71" d="M48.6 15.7a3.7 3.7 0 01-4.6 2.7 3.7 3.7 0 01-2.6-4.5 3.7 3.7 0 014.5-2.7 3.7 3.7 0 012.7 4.5"/><path fill="#fff" d="M57.8 36.7l-6.4 3.8a2.5 2.5 0 01-3.4-.9L41.7 29a2.5 2.5 0 01.9-3.4l6.4-3.8a2.5 2.5 0 013.4 1l6.3 10.6a2.5 2.5 0 01-.9 3.4"/><path fill="#25b99a" d="M51.8 35.5a1.2 1.2 0 01-.8-.5l-3.8-6.4a1.2 1.2 0 112.2-1.3l3.8 6.4a1.2 1.2 0 01-1.4 1.8"/><path stroke="gray" stroke-width="2.9" d="M19.6 29.7v2.4c-2.8.1-1.8 3.6 0 3.8l-.3 22.5 3.7 2.8 5.1-2.7 1.3-2.7-1.1-2.6 1.1-2.5-1.1-2.6 1.2-2.5-1.2-2.6 1.2-2.5-1.2-3.2v-1.8c1-.1 1.7-.8 1.7-1.6 0-.9-.7-1.5-1.6-1.7v-1.7z" class="B"/><path fill="url(#B)" d="M22 28.1v1.7a1.5 1.5 0 00-1.5 1.6 1.5 1.5 0 001.5 1.5L22 52.3l3.1 2.5.3-.2 4.1-2.2 1.1-2.2-1-2.2 1-2.1-1-2.2 1.1-2.2-1-2.2 1-2.2-1-2.2v-2a1.5 1.5 0 001.6-1.5 1.5 1.5 0 00-.5-1 1.5 1.5 0 00-1-.5v-1.1z" transform="translate(-6.3 -2.9) scale(1.168)"/><path fill="#ecb32e" d="M21.5 60l.3-30.2h1.7L23.2 61l-.3.2z"/><path fill="url(#D)" stroke="#4d4d4d" stroke-width="3.1" d="M30.3 5.9a13.7 13.7 0 00-16 21.7l-1 2.1h0a1.8 1.8 0 10-1.6 3.2h0L1.5 53.3l2 4.1H4l5.5-.2 2.3-1.7v-2.9L14 51v-2.8l2.3-1.8v-2.8l2.2-1.7v-2.9l1-2h0A1.8 1.8 0 0022 36a1.8 1.8 0 000-1.4 1.8 1.8 0 00-.8-1h0l1-2.2A13.7 13.7 0 0030.3 6zm-3 21.8a10.2 10.2 0 11-6.4-19.4 10.2 10.2 0 016.4 19.4z" class="B"/><path fill="url(#C)" d="M-20 21.2a13 13 0 00-17 19.1l-1 2h-.1a1.7 1.7 0 00-2.5 1.7c0 .4.3.8.7 1l-11.3 18.4 1.5 4h.3l5.3.4 2.3-1.4.2-2.7 2.3-1.5.3-2.6 2.3-1.5.2-2.7 2.3-1.4.3-2.7 1.1-1.8a1.7 1.7 0 002.4-.5 1.7 1.7 0 00.2-1.3 1.7 1.7 0 00-.8-1l1.2-2a13 13 0 009.9-23.5zm-4.7 20.3A9.7 9.7 0 11-29 22.7a9.7 9.7 0 014.4 18.8z" transform="matrix(1.051 -.098 .098 1.051 49.2 -18.4)"/><path fill="#ffe680" stroke="#ecb32e" d="M20.9 8.3a10.2 10.2 0 116.4 19.4 10.2 10.2 0 01-6.4-19.4z" class="B C"/><g fill="#ecb32e"><path stroke="#ecb32e" d="M28.5 16a3.1 3.1 0 10-5.5-2.7 3.1 3.1 0 005.5 2.8z" class="B C"/><path d="M17.8 29.6L4 57.4h-.3l-.8-1.6 13.5-27z"/></g><g stroke-linecap="round" class="B" transform="translate(-6.3 -2.9) scale(1.168)"><use fill="#b3b3b3" stroke="#666" stroke-width="3" xlink:href="#E"/><use fill="#f2f2f2" stroke="#f2f2f2" stroke-width="1.2" xlink:href="#E"/></g></svg>