<svg xmlns="http://www.w3.org/2000/svg" fill="none" viewBox="0 0 64 64"><defs><linearGradient id="b" x1="256.5" x2="256.5" y1="52.5" y2="52.9" gradientUnits="userSpaceOnUse"><stop offset="0" stop-color="#ffd42a"/><stop offset="1" stop-color="#0043b2"/></linearGradient><linearGradient id="c" x1="9.6" x2="9.6" y1="74.7" y2="31.5" gradientUnits="userSpaceOnUse"><stop offset="0" stop-color="#501616"/><stop offset="1"/></linearGradient><linearGradient id="a" x1="501" x2="501" y1="63.7" y2="18.6" gradientUnits="userSpaceOnUse"><stop offset="0" stop-color="#fff"/><stop offset="1" stop-color="#ccc"/></linearGradient></defs><path fill="#000" stroke="#000" stroke-width="9" d="M4.5 59.5v-55h12v24l22.3-24h14.6L31.1 27.8l23.4 31.6H39.9L23 36l-6.3 6.6v16.7z"/><path stroke="url(#a)" stroke-width="4" d="M5 71.3V34.5h8v16l15-16h9.8l-15 15.6 15.6 21.1h-9.7L17.3 55.6l-4.2 4.5v11.2z" transform="translate(-3 -47) scale(1.49416)"/><path fill="url(#b)" d="M5 71.3V34.5h8.2v16.1l14.8-16h9.8L22.8 50l15.7 21.2h-9.7L17.4 55.6l-4.2 4.5v11.2z" opacity=".8" transform="translate(-3 -47) scale(1.49416)"/><path fill="url(#c)" stroke="#fff" stroke-width=".8" d="M6.6 36v33.8h5V59.5l5.9-6.3 12 16.5h6L20.9 50l13.4-14h-5.6L11.5 54.3V36h-5z" transform="translate(-3 -47) scale(1.49416)"/></svg>