<svg xmlns="http://www.w3.org/2000/svg" fill="#59f" viewBox="0 0 64 64"><circle cx="32" cy="32" r="32" fill="navy"/><path d="M36.5 12.8c-1 0-2 .5-2.8 1.3a4.4 4.4 0 00-1.1 3 4.4 4.4 0 001.2 2.8c.7.8 1.7 1.2 2.7 1.2s2-.4 2.8-1.2a4.3 4.3 0 000-5.9 4 4 0 00-1.3-.9 3.8 3.8 0 00-1.5-.3zm-19.6 0c-1 0-2 .5-2.8 1.3s-1.2 1.8-1.2 3a4.4 4.4 0 001.2 2.8 3.9 3.9 0 002.8 1.3c1 0 2-.5 2.8-1.3s1.1-1.8 1.2-2.9c0-1-.5-2.2-1.2-3-.4-.4-.8-.7-1.3-.9s-1-.3-1.5-.3zm4.9 9.7h-9.4a2.5 2.5 0 00-2.3 1.3c-.5.8-.8 1.8-1 3L6 42c-.2.4-.2.8 0 1.2 0 .3.3.6.6.7.3 0 .7 0 1-.3.3-.3.7-.8.9-1.6l2.9-10.4c.1-.4.3-.6.4-.7a.5.5 0 01.2-.1h.2a.4.4 0 010 .2v.5l-3.1 18a28.7 28.7 0 005.8 5.8v-1.8h4.4v4.5a28.7 28.7 0 003.5 1.4v-5.9h3.4l-4.3-22V31a.4.4 0 01.2-.2h.1l.4.1.4.6 2.6 10.5.3.7v1c0 .6.3 1 .7 1.2.3.2.7.3 1 .2.5 0 .7-.1 1-.4.3-.3.4-.7.4-1.1v-12-.1c.2-.7 1.6-.7 1.6 0V61a28.7 28.7 0 001.5 0 28.7 28.7 0 003.2-.1l-.1-14.7h2.4l.1 14.3a28.7 28.7 0 004.5-1.3V31.6c.1-.7 1.5-.6 1.5 0v12.1c.2.7.5 1.2.9 1.4.3.3.7.3 1 .3.8-.2 1.4-.8 1.6-1.5V26.8c0-1-.3-1.7-.6-2.2s-.6-1-1-1.3c-1-.6-2.2-.7-3.5-.7H30.8c-1 0-1.7.2-2.3.4s-1.1.5-1.5.9-.6.8-.8 1.3c-.2.5-.3 1-.3 1.6v3.3l-.7-3.4c-.5-1.5-.8-2.5-1.2-3.2-.6-.8-1.4-.9-2.2-1zm34 7.3c-.8 0-1.7.5-2.3 1.1a3.8 3.8 0 00-1 2.6 3.8 3.8 0 001 2.6c.6.7 1.6 1 2.5 1a3.5 3.5 0 002.5-1c.6-.7 1-1.7 1-2.6a3.8 3.8 0 00-1-2.7c-.7-.6-1.7-1-2.6-1zm-3.1 8.3c-1.2 0-2 .4-2.6 1-.5.5-.8 1.2-.8 2v12.6a.5.5 0 00.3.3 1 1 0 00.8.2l.7-.4a1.1 1.1 0 00.3-.8v-8.4c0-.1 0-.2.2-.2h.7c.2 0 .3 0 .3.2v7.9A28.7 28.7 0 0060.2 38h-7.5z"/><circle cx="46.9" cy="47" r="16.9" fill="red"/><path fill="#fff" d="M36.7 50.3c-1 0-1.7-.8-1.7-1.8v-3c0-1 .7-1.8 1.7-1.8H57c1 0 1.7.8 1.7 1.8v3c0 1-.8 1.8-1.7 1.8"/></svg>