<svg xmlns="http://www.w3.org/2000/svg" viewBox="0 0 64 64"><path fill="#970" d="M32 .8a4.1 4.1 0 00-4.1 4.1 4.1 4.1 0 002 3.5v3.4c-1.6.7-3.1 1.6-4.8 2.6a21.1 21.1 0 01-8.7 3.3 3.1 3.1 0 00-6.2.4 3.1 3.1 0 001.6 2.7L.8 40.3c0 7.3 6.3 10.3 12.5 10.3 6 0 12.4-3 12.4-10.3L14.9 21.2c4.3-.3 8.3-1.6 12-4l3-1.8v37.4c-7 .6-12.8 4.1-14.4 8.1-.5 1.1.4 2.3 1.5 2.3h30c1.1 0 2-1.2 1.5-2.3-1.7-4-7.4-7.5-14.5-8.1V15.4l3 1.8c3.7 2.4 7.8 3.7 12 4L38.4 40.3c0 7.3 6.3 10.3 12.5 10.3 6 0 12.4-3 12.4-10.3l-11-19.5a3.1 3.1 0 00-1.5-5.8 3.1 3.1 0 00-3 2.8 21 21 0 01-8.9-3.3c-1.6-1.1-3.2-2-4.7-2.6V8.4A4.1 4.1 0 0032 .8zm19.8 22.8l9.4 16.7h-9.4zm-39.6 0v16.7H2.8zm2 0l9.4 16.7h-9.3zm35.5 0v16.7h-9.4z"/></svg>