<svg xmlns="http://www.w3.org/2000/svg" xmlns:xlink="http://www.w3.org/1999/xlink" viewBox="0 0 64 64"><linearGradient id="a" gradientUnits="userSpaceOnUse"><stop offset="0" stop-color="#45425a"/><stop offset="1" stop-color="#2d3251"/></linearGradient><linearGradient id="b" x1="107" x2="352.2" y1="231.5" y2="356.8" xlink:href="#a"/><linearGradient id="c" x1="213" x2="431.4" y1="319.5" y2="410.7" gradientUnits="userSpaceOnUse"><stop offset="0" stop-color="#ecf7ff"/><stop offset="1" stop-color="#c2e0ff"/></linearGradient><linearGradient id="d" x1="126.2" x2="163.3" y1="161.3" y2="198.5" xlink:href="#a"/><linearGradient id="e" x1="126.2" x2="163.4" y1="161.3" y2="198.5" xlink:href="#a"/><linearGradient id="f" x1="337.2" x2="213.9" y1="324.4" y2="201" gradientUnits="userSpaceOnUse"><stop offset="0" stop-color="#c2e0ff" stop-opacity="0"/><stop offset=".1" stop-color="#bfdcfd" stop-opacity=".1"/><stop offset="1" stop-color="#9eb2e7"/></linearGradient><linearGradient id="g" x1="243.4" x2="261" y1="230.5" y2="248.2" gradientUnits="userSpaceOnUse"><stop offset="0" stop-color="#ffc738"/><stop offset=".2" stop-color="#ffc331"/><stop offset=".6" stop-color="#ffb81e"/><stop offset="1" stop-color="#ffa700"/></linearGradient><g transform="translate(1) scale(.12514)"><path fill="url(#b)" d="M21 512h459c12 0 22-10 21-22a250 250 0 00-46-122 179 179 0 01-29-146 180 180 0 005-39 180 180 0 10-356 40c12 50 2 103-28 145A250 250 0 001 490a20 20 0 0020 22zm0 0"/><path fill="url(#c)" d="M402 366a98 98 0 01-17-111 148 148 0 008-108c-16-49-88-38-88 13l6 48a35 35 0 01-23 38l-12 4a82 82 0 01-51 0l-11-4a35 35 0 01-24-38l6-48c0-51-72-62-87-14a149 149 0 008 109 98 98 0 01-18 111 211 211 0 00-60 146h423c0-57-23-108-60-146zm0 0"/><use fill="url(#d)" xlink:href="#H"/><use x="211" fill="url(#e)" xlink:href="#H"/><path fill="url(#f)" d="M402 366a97 97 0 01-27-79l-58-58a25 25 0 00-6-6l-1-1c-3 11-11 20-22 24l-12 4a82 82 0 01-51 0l-11-4a35 35 0 01-23-24 26 26 0 005 36l1 1a26 26 0 005 5l1 1 247 247h12c0-57-23-109-60-146zm0 0"/><path fill="url(#g)" d="M229 284l-33-26a25 25 0 018-45l8-2a133 133 0 0177 0l8 2a25 25 0 019 45l-34 26a36 36 0 01-43 0zm0 0"/></g><defs><path id="H" d="M165 180c0-15-9-27-20-27s-20 12-20 27 9 28 20 28 20-13 20-28zm0 0"/></defs></svg>