<svg xmlns="http://www.w3.org/2000/svg" viewBox="0 0 64 64"><circle cx="7.4" cy="14.94" r="4.99" fill="#ac9393"/><circle cx="7.9" cy="14.44" r="2.49" fill="#e3dbdb"/><g fill="#ac9393"><g transform="matrix(.125 0 0 .125 -.01 .01)"><circle cx="423.6" cy="69.1" r="58.3"/><circle cx="434" cy="446.4" r="55.8"/><circle cx="98.7" cy="446.4" r="39.9"/></g><circle cx="29.32" cy="31.87" r="10.96"/></g><circle cx="30.32" cy="29.89" r="6.97" fill="#c8b7b7"/><circle cx="32.8" cy="28.39" r="4.49" fill="#e3dbdb"/><path fill="#241c1c" d="M54.05 47.72c-2 0-3.84.72-5.25 1.92l-11.07-9.83a11.67 11.67 0 0 0 .3-15.26l9.92-9.92a8.15 8.15 0 1 0-1.41-1.37l-9.88 9.88a11.66 11.66 0 0 0-16.06.71l-7.88-6.06a5.72 5.72 0 0 0 .56-2.5 5.75 5.75 0 1 0-1.7 4.1l7.76 5.97a11.65 11.65 0 0 0 1.88 15.4l-6.56 9.85a5.75 5.75 0 1 0 1.62 1.1l6.51-9.78a11.65 11.65 0 0 0 6.2 1.78 11.66 11.66 0 0 0 7.3-2.55l11.17 9.92a8.15 8.15 0 1 0 6.58-3.37zM7.53 19.1a3.8 3.8 0 1 1 0-7.6 3.8 3.8 0 0 1 0 7.6zm4.77 40.54a3.8 3.8 0 1 1 0-7.59 3.8 3.8 0 0 1 0 7.59zM52.85 1.97a6.18 6.18 0 1 1 0 12.37 6.18 6.18 0 0 1 0-12.37zM19.23 32a9.77 9.77 0 1 1 9.75 9.75A9.77 9.77 0 0 1 19.23 32zm34.82 30.03a6.18 6.18 0 1 1 0-12.38 6.18 6.18 0 0 1 0 12.38z"/><g fill="#e3dbdb" transform="matrix(.125 0 0 .125 -.01 .01)"><circle cx="438" cy="51.7" r="27.9"/><circle cx="446" cy="434.4" r="27.9"/><circle cx="107.1" cy="438.4" r="15.9"/></g></svg>