<svg xmlns="http://www.w3.org/2000/svg" viewBox="0 0 64 64"><defs><linearGradient id="b" x1="35.6" x2="35.6" y1="32.9" y2="19.7" gradientUnits="userSpaceOnUse"><stop offset="0" stop-color="#d40000"/><stop offset="1" stop-color="#f55"/></linearGradient><path id="a" d="M51.3 5a1 1 0 1 0 0 2 1 1 0 1 0 0-2"/></defs><g fill="#f9f9f9" stroke="#333" stroke-width="2" class="C"><path d="M1 1h62v62H1z"/><path d="M1 1h62v10.5H1z"/></g><g fill="#333"><use href="#a"/><use x="-5.4" href="#a"/><path d="M56.7 5a1 1 0 1 0 0 2 1 1 0 0 0 1.1-1 1 1 0 0 0-1-1z"/></g><g fill="none" stroke-linecap="round" stroke-width="2.5" class="C"><path d="M19 22.4h31" class="B"/><path stroke="red" d="M11 22.4h2.2"/><path d="M19 30h12m5 0h13.3" class="B"/><path stroke="purple" d="M11 30h2.2"/><path d="M19 52.7h30.6" class="B"/><path stroke="purple" d="M11 52.7h2.2"/><path d="M19 45.2h34" class="B"/><path stroke="green" d="M11 45.2h2.2"/><path d="M19 37.7h5m4.4 0H53" class="B"/><path stroke="green" d="M11 37.7h2.2"/></g><path stroke="#000" stroke-width="2.8" d="m19 39.1 1.3 1 1.3.7 10.4-18 10.4 18 1.2-.7 1.4-1-11.3-19.5a2 2 0 0 0-3.4 0zm0 0-8 14a2 2 0 0 0 0 1.8 2 2 0 0 0 1.7 1h38.6a2 2 0 0 0 1.7-1 2 2 0 0 0 0-1.9l-8-13.9-1.4 1-1.2.7 7 12H14.6l7-12-1.3-.7z" class="C"/><path fill="url(#b)" d="M32 5.7q-1.6 0-2.4 1.3L2.3 54.3a2.7 2.7 0 0 0 2.4 4h54.6c2.1 0 3.4-2.2 2.4-4L34.4 7A3 3 0 0 0 32 5.7" transform="matrix(.7 0 0 .7 9.4 14.6)"/><path fill="#fff" stroke="red" stroke-width=".7" d="m32 23 17.4 30H14.6Z" class="C"/><path d="M30 31.4h4v11.4h-4zm0 14.4h4v4.4h-4z"/></svg>