<svg xmlns="http://www.w3.org/2000/svg" xmlns:xlink="http://www.w3.org/1999/xlink" fill-rule="evenodd" stroke-linejoin="round" stroke-width=".5" viewBox="0 0 36 36"><linearGradient id="a" gradientUnits="userSpaceOnUse"><stop offset="0" stop-color="#fff"/><stop offset=".1" stop-color="#fdfdfd"/><stop offset=".2" stop-color="#fbfbfb"/><stop offset=".3" stop-color="#f8f8f8"/><stop offset=".4" stop-color="#f4f4f4"/><stop offset=".5" stop-color="#efefef"/><stop offset=".6" stop-color="#e8e8e8"/><stop offset=".7" stop-color="#dedede"/><stop offset=".8" stop-color="#cecece"/><stop offset=".9" stop-color="silver"/><stop offset="1" stop-color="#b3b3b3"/></linearGradient><linearGradient id="b" x1="31" x2="31" y1="13.8" y2="7.6" spreadMethod="reflect" xlink:href="#a"/><linearGradient id="c" x1="-6.7" x2="18.1" y1="19.5" y2="19.5" gradientUnits="userSpaceOnUse"><stop offset="0" stop-color="#e92222"/><stop offset="1" stop-color="#c61010"/></linearGradient><linearGradient id="d" x1="31" x2="31" y1="34" y2="27.8" spreadMethod="reflect" xlink:href="#a"/><g fill="none"><path stroke="#333" stroke-miterlimit="79.8" stroke-width="1.6" d="M5.7 28.1A13.2 13.2 0 01.8 17.2a4.6 4.6 0 01.1-.7c0-.5 0-.7.2-1a3.7 3.7 0 01.1-.6l.3-1 .1-.3a8.3 8.3 0 011.1-2.3L3 11v.1c2.7-4 7.7-6.8 13.3-6.8h19v7.4h-19a7.4 7.4 0 00-3.7 1s-.2 0-.3.2a4.5 4.5 0 00-.8.6s-.2 0-.3.2a6 6 0 00-2 4.4c0 3.5 3.2 6.4 7.1 6.4h19v7.4h-19c-4 0-7.7-1.4-10.5-3.7z"/><path fill="url(#b)" d="M27.5 4.2v7.4h7.7V4.2z" transform="matrix(1 0 0 -1 0 36)"/><path fill="url(#c)" d="M.8 18c0 7.6 7 13.8 15.4 13.8h11.3v-7.4H16.2c-3.9 0-7-2.9-7-6.4s3.1-6.4 7-6.4h11.3V4.2H16.2C7.7 4.2.8 10.4.8 18z" transform="matrix(1 0 0 -1 0 36)"/><path fill="#af1616" d="M10.8 13.8a7.5 7.5 0 015.4-2.2h11.3V8H18c-3.7 0-6.8 2.6-7 6zM.8 18c0 7.6 6.9 13.8 15.4 13.8h11.3v-3.7H18c-8.5 0-15.4-6.2-15.4-13.8a12.5 12.5 0 01.4-3.3C1.6 13 .8 15.4.8 18z"/><path fill="url(#d)" d="M27.5 24.4v7.4h7.7v-7.4z" transform="matrix(1 0 0 -1 0 36)"/></g></svg>