<svg xmlns="http://www.w3.org/2000/svg" viewBox="0 0 64 64"><defs><path id="a" d="M144 112h224a8 8 0 110 16H144a8 8 0 110-16z"/></defs><path fill="#e2e7f0" d="M24 39.4h15.4l14.4-12V4.8A3.8 3.8 0 0050 1H13.5a3.8 3.8 0 00-3.9 3.8v22.6z"/><path fill="#f19920" d="M53.8 14.8v12.6l8.6-7.2zm-44.2 0L1 20.2l8.6 7.2z"/><g fill="#9dacba" transform="matrix(.12 0 0 .12 1 1)"><path d="M192 48h128a8 8 0 110 16H192a8 8 0 110-16z"/><use href="#a"/><use y="48" href="#a"/><use y="96" href="#a"/></g><path fill="#e78825" d="M7.7 25.8l2 1.6V14.8l-2 1.2zm48 0l-1.9 1.6V14.8l2 1.2z"/><path fill="#f6b545" d="M24 39.4l-21.9 22A3.8 3.8 0 011 58.5V20.2z"/><path fill="#fcd063" d="M61.3 61.3a3.8 3.8 0 01-2.7 1.1H4.8a3.8 3.8 0 01-2.7-1l22-22h15.3z"/><path fill="#f6b545" d="M62.4 58.6a3.8 3.8 0 01-1 2.7l-22-21.9 23-19.2z"/><path fill="#c9d5e3" d="M24 39.4h15.4l14.1-11.8a2 2 0 00-2.7-.5h-.1l-9.4 8a10.3 10.3 0 01-6.6 2.4h-6.6a9.8 9.8 0 00-4.8 1.3z"/><path fill="#f19920" d="M60.5 25v33.6a2 2 0 01-1.9 2H6.8a2 2 0 00-2 1.8h53.8a3.8 3.8 0 003.8-3.8V23.1a2 2 0 00-1.9 1.9z"/><path fill="#f6b545" d="M60 60a2 2 0 01-1.4.5H6.8a2 2 0 00-2 2h53.8a3.8 3.8 0 002.7-1.2z"/></svg>