<svg xmlns="http://www.w3.org/2000/svg" viewBox="0 0 64 64"><path fill="#ffdd09" d="M4.1 3 32 28.9 59.9 3v33.2L32 60.9 4.1 36.3V11.6z"/><path fill="#fd9808" d="M5.2 14V6L2 3v33l3.2 3V25zM62 3v33l-3.2 3V6z"/><path fill="#540" d="M1.3 1H1c-.4.2-.4.6-.4 1v33l31 27.8a.8.8 0 0 0 .4.2.8.8 0 0 0 .3-.2L63.4 35V2c0-.4 0-.8-.4-1h-.3c-.2 0-.6 0-.8.3L32 28.1 2 1.3c0-.2-.4-.3-.6-.3zm1.1 3.4 29.3 26.3a1.1 1.1 0 0 0 .3.2l.3-.2L61.6 4.4v7.8L32 38.8 2.4 12.2zm0 10.8 5.3 4.7 24 21.5.3.2.3-.2 24-21.5 5.3-4.7V23L32 49.5 2.4 23zm0 10.7L31.8 52l.2.2.2-.2 29.4-26v7.8L32 60.2 2.4 33.7z"/></svg>