<svg xmlns="http://www.w3.org/2000/svg" xmlns:xlink="http://www.w3.org/1999/xlink" fill-rule="evenodd" stroke-linejoin="bevel" stroke-width=".5" viewBox="0 0 48 48"><defs><radialGradient id="b" cx="0" cy="0" r="280.1" gradientTransform="matrix(.125 0 0 -.094 20.5 11.3)" gradientUnits="userSpaceOnUse"><stop offset="0" stop-color="#dbe9ff"/><stop offset=".2" stop-color="#d3e9ff"/><stop offset=".8" stop-color="#4074ae"/><stop offset="1" stop-color="#36486c"/></radialGradient><path id="a" d="M206.9-345.1a15 15 0 11-15-15 15 15 0 0115 15z"/></defs><g fill="none" stroke-linejoin="miter"><g stroke="#39396c" stroke-width="18" transform="matrix(.125 0 0 -.125 2.3 0)"><g stroke-miterlimit="2.2"><path stroke-linecap="round" d="M209.5-345.1H305m-226.3 0h95.6"/><path d="M192-327.3v23.2"/></g><use stroke-miterlimit="79.8" xlink:href="#a"/></g><g stroke="#333" stroke-miterlimit="79.8" stroke-width="1.3"><path stroke-linecap="round" d="M28.5 43.1h12m-28.3 0h12"/><path d="M26.3 41v-3"/></g></g><path fill="#1fa420" d="M26.8 44.8a1.7 1.7 0 01-2.1-1.2 1.7 1.7 0 013.3-1 1.7 1.7 0 01-1.2 2.2z"/><g stroke-linejoin="miter"><use fill="none" stroke="#333" stroke-miterlimit="79.8" stroke-width="10.5" transform="matrix(.125 0 0 -.125 2.3 0)" xlink:href="#a"/><path fill="url(#b)" stroke="#39396c" stroke-miterlimit="99.8" stroke-width="1" d="M45.2 19.3c0 10.4-8.5 18.9-18.9 18.9A18.8 18.8 0 017.5 19.3a18.8 18.8 0 1137.7 0z"/></g><path fill="#204a87" fill-opacity=".7" d="M44.5 16.4l-.6.6-1-1H42l-.7-.8v1l.6.5.4.5.6-.6.4.8v.8l-.7.7-1.1.7-.9 1-.5-.7.3-.7-.6-.7-1-2-.7-.9-.2.3.3 1.1.6.7 1 2.8 2.1-.1v.5l-.8 2-.8 1-.6 1.2v2.2l.2 1-.4.3-.7.5-.8.6.6.8-.9.8.2.5-1.3 1.5h-1l-.7.5h-.5v-.6l-.2-1.3-.8-2.4v-1.7l.4-.8-.5-1v-1.2l-.6-.7.3-1.1-.5-.6h-1l-.2-.4-1 .6-.4-.4-.8.7-1.8-2-.7-1.6.6-1-.3-.4.8-1.8 1.9-2.2 1.2-.3 1.3-.2.9.2 1.3 1.3.4-.5h.7l1.1.3h1l.5-.5.3-.4-.6-.4h-1l-1-1.3-.3.2-.1 1-.7-.7v-.8l-.8-.5h-.3l.7.8-.3.7-.5.1.3-.7-.6-.3-.5-.6-1 .2-.2.3-.6.4-.4.9-.9.4-.3-.4h-.5v-1.4l1-.5h.6l-.1-.5-.6-.6 1-.2.5-.6.4-.7h.8l-.2-.5.5-.4v.7l1 .2 1-.8.1-.4 1-.7-1 .2v-.7l.3-.8h-.3L34 6l-.2.4.2.5-.3 1-.6-.3-.5-.6-.8.6-.2-1.3 1.3-.9v-.4l.8-.6 1.3-.3 1 .3 1.6.3-.4.5h-1l1 1 .7-.8.2-.4s2.6 2.4 4.2 5 2.2 5.7 2.2 6.3zm-17.2-11V6l.4.3.8-.5-.4-.5-.5.3h-.3m.7-3.3l-1.8-.7-2 .2-2.6.7-.5.5L22.7 4v.6l-.6.7.8 1.6.5-.3.7-1a23.8 23.8 0 003.1-1.3l.8-2M30 8.7l-.3-.7-.5.2.2.8.6-.3m.3-.1l-.2.9.8-.2.5-.5-.4-.5a13.7 13.7 0 00-.6-1.2H30v.4l.3.3v.8M19.9 23.6l-.5-1.1-1-.3-.6-1.5-1.4.2-1.2-.9-1.2 1.1v.2c-.4-.1-.9-.1-1.2-.3l-.3-.8v-.9h-.8l.2-1.6h-.5l-.5.7-.5.2-.7-.4v-1.8l1.1-.8h.9l.1-.4 1 .2.8 1 .1-1.6 1.4-1.1.4-1.2 1-.4.6-.8 1.2-.2.6-1h-1.8l1.1-.5h.9l1.1-.4.2-.5-.4-.4-.5-.1.1-.5-.3-.7-.8.3v-.6l-.9-.6-.7 1.4v.4l-.7.4-.5 1-.2-1-1.3-.5L14 7l1.7-1 .8-.7v-1l-.4-.1-.5-.1-.4.8-.7.2a19.9 19.9 0 00-6.7 12.7c0 .2.7 1.1.7 1.1l1.4.9 1.5.4.6.8 1 .7.5-.1.5.2v.1l-.6 1.5-.4.6.1.3-.3 1.2L14 28l1.3 1 .5.9v1.6l.4 1-.4 1.8v.1a10 10 0 002.3 1.3l.3-.2-.1-.4.5-.5.2-.6.9-.3.7-1.7-.2-.5.5-.7 1-.2.6-1.3-.2-1.5.9-1.2.1-1.2-3.4-1.7M18.4 5.7l.7.5h.5v-.5l-.6-.4-.6.4m-1.8-.6l-.4.9h.7l.4-.8.9-.6.7.2 1.4 1L21 5l-.8-.3-.3-.7-1.4-.2v-.4l-.7.2-.2.5-.4-.7-.1.4v.7l-.5.5m2.5-2l.4-.3.6-.1 1.5-.6-.3-.4h-.9l-.4.5-.7.1-.6.3-.3.1-.2.3.9.1m1.2 7.5l.4-.6-.6-.5.2 1.1"/><path fill="none" stroke="#333" stroke-linejoin="round" stroke-miterlimit="79.8" stroke-width="2.6" d="M2.7 45.3a4.7 4.7 0 010-6.6l16.5-16.5c-.9-3-.2-6.2 2-8.4 2-2 4.7-2.7 7.4-2.3a.5.5 0 01.4.4c0 .2 0 .4-.2.5l-2.3 2.3a2.7 2.7 0 000 4l2.9 2.8a2.7 2.7 0 003.9 0l2.3-2.3a.5.5 0 01.9.2c.4 2.7-.3 5.5-2.3 7.4a8.5 8.5 0 01-8.4 2L9.3 45.3a4.7 4.7 0 01-6.6 0zm5-2.5a1.7 1.7 0 000-2.4 1.7 1.7 0 00-2.5 0 1.7 1.7 0 002.4 2.4z"/><path fill="silver" d="M21.3 20L2.7 38.8a4.7 4.7 0 006.6 6.6L28 26.7zM7.6 42.9a1.7 1.7 0 01-2.4 0 1.7 1.7 0 010-2.4 1.7 1.7 0 012.4 0 1.7 1.7 0 010 2.4z"/><path fill="#676767" d="M9.6 38.3a2.1 2.1 0 010-3l11-10.9 3 3-11 11a2.1 2.1 0 01-3 0z"/><path fill="#949494" d="M10.1 38.7a2.1 2.1 0 002.5-.4l11-11-2.1-2-11 11a2.1 2.1 0 00-.4 2.4z"/><path fill="#d6d6d6" d="M36.5 19.5a.5.5 0 00-1-.3l-2.2 2.3a2.7 2.7 0 01-4 0l-2.8-2.9a2.7 2.7 0 010-3.9l2.3-2.3a.5.5 0 00.2-.5.5.5 0 00-.5-.4c-2.6-.4-5.4.3-7.3 2.3-3.4 3.3-3.2 9 .4 12.6s9.3 3.8 12.6.4c2-2 2.7-4.7 2.3-7.3z"/></svg>