<svg xmlns="http://www.w3.org/2000/svg" xmlns:xlink="http://www.w3.org/1999/xlink" viewBox="0 0 64 64"><rect width="64" height="64" fill="#e86154" ry="4.1"/><g fill="#fff"><g stroke="#fff" stroke-linejoin="round" stroke-width="2.5"><use xlink:href="#a"/><use xlink:href="#b"/></g><use xlink:href="#a"/><use xlink:href="#b"/></g><defs><path id="a" d="M27 7.8V8c2.3 4.3 2.9 6.6 3 12.1v21.3L13.7 7.8h-6V8a22 22 0 0 1 2 8v27.8c0 5.6-.6 7.8-2.2 12v.2h6.3v-.1a21.7 21.7 0 0 1-2.9-12.1l-.2-28 19.8 40.4.8-.2V20c0-5.5.5-7.8 2.1-12v-.2z"/><path id="b" d="M48.6 28.4c-4-4.1-8.2-7.7-8.2-14 0-4.3 2.3-6.3 4.8-6.3 3.6 0 5.7 2.7 8.4 10.6l.4-.1-.4-9.8A12 12 0 0 0 47 6.9c-5.9 0-11 4-11 11.4 0 6.3 3.9 11 7.8 15 4 4.2 8.1 8 8.1 14.6 0 4.6-2 8-5.5 8-3.4 0-6.8-2.9-9.9-11l-.5.3.5 10c2.7 1.2 5.7 1.9 8.8 1.9 6.5 0 11.2-4.5 11.2-12.8 0-7.4-4-12-8-16z"/></defs></svg>