<svg xmlns="http://www.w3.org/2000/svg" xmlns:xlink="http://www.w3.org/1999/xlink" shape-rendering="geometricPrecision" viewBox="0 0 64 64"><defs><linearGradient xlink:href="#N" id="A" x1="9.8" x2="14.3" y1="14.1" y2="9.6" spreadMethod="pad"><stop offset="0%" stop-color="#d20000"/><stop offset="50%" stop-color="#eb0f00"/></linearGradient><linearGradient xlink:href="#N" id="B" x1="27.7" x2="32.1" y1="31.7" y2="27.2" spreadMethod="pad"><stop offset="50%" stop-color="#d20000"/><stop offset="50%" stop-color="#eb0f00"/></linearGradient><linearGradient xlink:href="#N" id="C" x1="9.8" x2="14.2" y1="18.5" y2="14" spreadMethod="pad"><stop offset="50%" stop-color="#e66820"/><stop offset="50%" stop-color="#ea8118"/></linearGradient><linearGradient xlink:href="#N" id="D" x1="27.7" x2="32.1" y1="27.3" y2="22.8" spreadMethod="pad"><stop offset="50%" stop-color="#e66820"/><stop offset="50%" stop-color="#ea8118"/></linearGradient><linearGradient xlink:href="#N" id="E" x1="14.3" x2="18.7" y1="18.5" y2="14" spreadMethod="pad"><stop offset="50%" stop-color="#cb2695"/><stop offset="50%" stop-color="#ea58a6"/></linearGradient><linearGradient xlink:href="#N" id="F" x1="18.7" x2="23.2" y1="22.8" y2="18.3" spreadMethod="pad"><stop offset="50%" stop-color="#984eb6"/><stop offset="50%" stop-color="#ab66bc"/></linearGradient><linearGradient xlink:href="#N" id="G" x1="23.2" x2="27.7" y1="27.3" y2="22.8" spreadMethod="pad"><stop offset="50%" stop-color="#688194"/><stop offset="50%" stop-color="#8b9ead"/></linearGradient><linearGradient xlink:href="#N" id="H" x1="9.8" x2="14.3" y1="22.8" y2="18.4" spreadMethod="pad"><stop offset="50%" stop-color="#ebad00"/><stop offset="50%" stop-color="#f4c33d"/></linearGradient><linearGradient xlink:href="#N" id="I" x1="27.7" x2="32.1" y1="22.9" y2="18.4" spreadMethod="pad"><stop offset="50%" stop-color="#ebad00"/><stop offset="50%" stop-color="#f4c33d"/></linearGradient><linearGradient xlink:href="#N" id="J" x1="9.8" x2="14.2" y1="27.3" y2="22.8" spreadMethod="pad"><stop offset="50%" stop-color="#77b300"/><stop offset="50%" stop-color="#9bcb19"/></linearGradient><linearGradient xlink:href="#N" id="K" x1="27.7" x2="32.1" y1="18.5" y2="14" spreadMethod="pad"><stop offset="0%" stop-color="#77b300"/><stop offset="50%" stop-color="#7fb805"/><stop offset="50%" stop-color="#9bcb19"/></linearGradient><linearGradient xlink:href="#N" id="L" x1="9.8" x2="14.3" y1="31.6" y2="27.2" spreadMethod="pad"><stop offset="50%" stop-color="#368bd6"/><stop offset="50%" stop-color="#4b9fdd"/></linearGradient><linearGradient xlink:href="#N" id="M" x1="27.7" x2="32.1" y1="14.1" y2="9.6" spreadMethod="pad"><stop offset="50%" stop-color="#368bd6"/><stop offset="50%" stop-color="#4b9fdd"/></linearGradient><linearGradient id="N" gradientUnits="userSpaceOnUse"/></defs><path fill="#688194" d="M59 5v53.9H5.3v-54Zm5-5H0v64h64Z"/><g transform="matrix(1.8482 0 0 1.8613 -6.8 -6.3)"><path fill="url(#A)" d="M14.3 9.6H9.8V14h4.5z"/><path fill="url(#B)" d="M32.2 27.2h-4.5v4.4h4.5z"/><path fill="url(#C)" d="M14.3 14H9.8v4.4h4.5z"/><path fill="url(#D)" d="M32.2 22.8h-4.5v4.4h4.5z"/><path fill="url(#E)" d="M18.8 14h-4.5v4.4h4.5z"/><path fill="url(#F)" d="M23.2 18.4h-4.5v4.4h4.5z"/><path fill="url(#G)" d="M27.7 22.8h-4.5v4.4h4.5z"/><path fill="url(#H)" d="M14.3 18.4H9.8v4.4h4.5z"/><path fill="url(#I)" d="M32.2 18.4h-4.5v4.4h4.5z"/><path fill="url(#J)" d="M14.3 22.8H9.8v4.4h4.5z"/><path fill="url(#K)" d="M32.2 14h-4.5v4.4h4.5z"/><path fill="url(#L)" d="M14.3 27.2H9.8v4.4h4.5z"/><path fill="url(#M)" d="M32.2 9.6h-4.5V14h4.5z"/></g></svg>