<svg xmlns="http://www.w3.org/2000/svg" xmlns:xlink="http://www.w3.org/1999/xlink" viewBox="0 0 64 64"><defs><radialGradient id="a" cx="39.4" cy="22.3" r="25.5" gradientTransform="matrix(2.5982 0 0 1.2146 -63.1 -4.7)" gradientUnits="userSpaceOnUse"><stop offset="0" stop-color="#e6e6e6"/><stop offset="1" stop-color="#6f7c91"/></radialGradient><path id="b" d="M60.5 43.8c0-.3-.1-.6-.4-.8L18.7 1.5a1 1 0 00-.8-.3 1.1 1.1 0 00-.8.4 30.6 30.6 0 0043 43 1 1 0 00.4-.8z"/></defs><g transform="translate(0 .1)"><g stroke-linejoin="round"><path fill="#535d6c" stroke="#535d6c" d="M37.2 25.2a.5.5 0 01-.7 0 .6.6 0 010-.8l5.8-5.8a.5.5 0 11.8.8zM52.5 10a.5.5 0 01-.8 0 .6.6 0 010-.8l5.8-5.8a.5.5 0 01.8 0 .6.6 0 010 .8zm-4.2 24.3a.7.7 0 01-.7.7.7.7 0 01-.7-.7V23c0-.4.3-.7.7-.7a.7.7 0 01.7.7zm-20.9-21a.7.7 0 100 1.5h11.2a.7.7 0 00.7-.7.7.7 0 00-.7-.7z"/><use fill="url(#a)" stroke="#333" xlink:href="#b"/></g><path fill="#dbdee3" d="M60.1 43L18.7 1.5a1 1 0 00-.8-.3 1.1 1.1 0 00-.8.4A30.6 30.6 0 0014.2 6l41.6 41.6a30.4 30.4 0 004.2-2.9 1.1 1.1 0 00.5-.8 1.1 1.1 0 00-.4-.8z"/><path fill="#80b3ff" d="M49.6 22.7a1.8 1.8 0 01-2.5 0L39 14.6a1.8 1.8 0 012.5-2.5l8.1 8c.7.8.7 1.9 0 2.6z"/><path fill="#2a7fff" d="M49.6 20.2c.7.7.7 1.8 0 2.5a1.8 1.8 0 01-2.5 0L39 14.6"/><path fill="#80b3ff" d="M53 19.4a1.8 1.8 0 01-2.6 0l-8-8.2a1.8 1.8 0 010-2.5 1.8 1.8 0 012.4 0l8.1 8.1a1.8 1.8 0 010 2.6z"/><g fill="#2a7fff"><path d="M53 16.8a1.8 1.8 0 11-2.6 2.6l-8-8.2"/><circle cx="50.8" cy="10.8" r="1.9"/></g><path fill="#80b3ff" d="M50.9 9a1.9 1.9 0 011.8 1.8 1.9 1.9 0 01-1.9 2"/><use fill="none" stroke="#535d6c" stroke-linejoin="round" stroke-width="2.5" xlink:href="#b"/><g fill="#373e48"><path d="M21.8 62.3V50.5a5.4 5.4 0 00-5.4-5.4 5.4 5.4 0 00-5.4 5.4v11.8z"/><path d="M30.6 62.7a1.1 1.1 0 01-1.2 1.1h-26a1.1 1.1 0 110-2.2h26a1.1 1.1 0 011.2 1.1z"/></g><circle cx="11.8" cy="45.2" r="9.6" fill="#dbdee3" stroke="#535d6c" stroke-linejoin="round" stroke-width="2.5" transform="rotate(-6.3)"/><path fill="#939dac" d="M22.1 37.4a8.3 8.3 0 01-10.3 13"/></g></svg>