<svg xmlns="http://www.w3.org/2000/svg" fill="none" viewBox="0 0 64 64"><path fill="url(#a)" d="M32 64a32 32 0 1 0 0-64 32 32 0 0 0 0 64Z"/><path fill="#77787b" d="m84 44.9-18-18-23-.8-.6 4.7-5.2 6.5-12.8-13.5L14 60l23.6 23.7 4.3.2a42.1 42.1 0 0 0 42-39.1Z" opacity=".5" style="mix-blend-mode:darken" transform="scale(.7619)"/><path fill="#fff" d="M10.7 18h7.7v10.5h10V18.1H36v27.8h-7.7V35.3h-10V46h-7.7z"/><path fill="#fff" d="M47.8 31.3c2.5-1 4.3-3 4.3-6.2a6 6 0 0 0-1.8-4.5c-1.6-1.7-4.1-2.5-7.6-2.5H28.4v27.8h14.4c6.6 0 10.5-2.9 10.5-7.7 0-3.8-2.1-5.8-5.5-6.9zm-6 8.4h-5.7V24.2h4.8c2.3 0 3.5 1 3.5 2.4 0 1.7-1.3 2.5-3.7 2.5h-3.1v5.5h4c2.6 0 3.9 1 3.9 2.5.1 1.7-1.3 2.6-3.6 2.6z"/><defs><radialGradient id="a" cx="0" cy="0" r="1" gradientTransform="translate(32 32) scale(31.97714)" gradientUnits="userSpaceOnUse"><stop offset=".6" stop-color="#ED1C24"/><stop offset=".7" stop-color="#E61B23"/><stop offset=".8" stop-color="#D91921"/><stop offset=".9" stop-color="#C4161C"/><stop offset="1" stop-color="#B11116"/></radialGradient></defs></svg>