<svg xmlns="http://www.w3.org/2000/svg" viewBox="0 0 64 64"><path fill="#aca793" stroke="#aca793" d="M51.7 20.08l-.09-.04v-.1c.25-6.69-1.83-11.65-5.83-13.96-4-2.31-9.34-1.63-15.01 1.92l-.09.05-.08-.05c-5.67-3.55-11-4.23-15-1.92-4.01 2.31-6.09 7.27-5.85 13.96v.1l-.08.04C3.76 23.23.5 27.5.5 32.12c0 4.63 3.26 8.9 9.17 12.04l.08.05v.1c-.24 6.69 1.84 11.64 5.84 13.96a10.3 10.3 0 005.22 1.34c2.99 0 6.33-1.1 9.8-3.26l.07-.06.09.06c3.46 2.16 6.8 3.26 9.79 3.26 1.9 0 3.66-.44 5.22-1.34 4-2.32 6.08-7.27 5.84-13.97v-.1l.08-.04c5.91-3.14 9.17-7.41 9.17-12.04 0-4.62-3.26-8.9-9.17-12.04zm-8.96 19a51.84 51.84 0 01-4.34 6.4 51.84 51.84 0 01-15.43 0 51.84 51.84 0 01-7.7-13.36 51.86 51.86 0 017.7-13.35 51.84 51.84 0 0115.43 0 51.84 51.84 0 017.7 13.35 51.82 51.82 0 01-3.36 6.97zm4.7-3.06a36.46 36.46 0 011.3 6.52 36.45 36.45 0 01-6.3 2.14 55.7 55.7 0 005-8.66zM30.68 52.97a36.45 36.45 0 01-5-4.39 55.68 55.68 0 0010 0 36.45 36.45 0 01-5 4.39zm-11.75-8.29a36.45 36.45 0 01-6.3-2.14c.22-2.1.65-4.29 1.3-6.52a55.68 55.68 0 005 8.66zm-2.7-20.9a55.68 55.68 0 00-2.3 4.44 36.46 36.46 0 01-1.3-6.52 36.46 36.46 0 016.3-2.14 55.7 55.7 0 00-2.7 4.22zm14.45-12.5c1.72 1.23 3.4 2.7 5 4.38a55.69 55.69 0 00-10 0 36.48 36.48 0 015-4.38zm14.45 12.5a55.72 55.72 0 00-2.7-4.22c2.26.56 4.38 1.27 6.3 2.14-.2 2.1-.64 4.3-1.3 6.52-.68-1.49-1.45-2.97-2.3-4.44zM40.54 7.4a7.6 7.6 0 013.86.97c2.87 1.66 4.44 5.33 4.48 10.39a42.68 42.68 0 00-9-2.55 42.69 42.69 0 00-6.71-6.52c2.66-1.52 5.17-2.3 7.37-2.3zm-23.57.97a7.6 7.6 0 013.86-.97c2.2 0 4.7.77 7.37 2.29-2.34 1.8-4.6 4-6.7 6.52a42.68 42.68 0 00-9 2.55c.03-5.06 1.6-8.73 4.47-10.39zM3.27 32.12c0-3.32 2.38-6.51 6.74-9.07a42.69 42.69 0 002.3 9.07 42.7 42.7 0 00-2.3 9.08c-4.36-2.56-6.75-5.76-6.75-9.08zm13.7 23.76c-2.87-1.66-4.44-5.33-4.48-10.39a42.68 42.68 0 009 2.55 42.68 42.68 0 006.72 6.52c-4.4 2.5-8.36 2.97-11.24 1.32zm27.43 0c-2.88 1.65-6.84 1.18-11.24-1.32 2.35-1.8 4.6-4 6.71-6.52a42.68 42.68 0 009-2.55c-.03 5.06-1.6 8.73-4.47 10.39zm6.96-14.68a42.7 42.7 0 00-2.3-9.08 42.69 42.69 0 002.3-9.07c4.36 2.56 6.75 5.75 6.75 9.07 0 3.32-2.39 6.52-6.75 9.08z"/><circle cx="59.49" cy="32.12" r="4.51" fill="#0cf"/><circle cx="16.43" cy="56.82" r="4.51" fill="#0a0"/><circle cx="16.28" cy="7.18" r="4.51" fill="#ff2a7f"/><circle cx="30.59" cy="32.14" r="4.51" fill="#37c8ab"/></svg>