<svg xmlns="http://www.w3.org/2000/svg" viewBox="0 0 64 64"><circle cx="32.4" cy="20.2" r="4" fill="#eeb490"/><circle cx="53.3" cy="20.2" r="4" fill="#eeb490"/><path fill="#48886e" d="M64 51.5H21.7v-7.6a7 7 0 016-7l9.4-3.7h11.5l9.3 3.8a7 7 0 016.1 6.9z"/><path fill="#faccb4" d="M48.1 9.6H37.5A4.5 4.5 0 0033 14v10.2a9.8 9.8 0 009.8 9.8 9.8 9.8 0 009.9-9.8V14.1A4.5 4.5 0 0048 9.6z"/><path fill="#56545f" d="M52.7 5.4s7.6 1 0 15.3v-6s-.6-4.1-3.1-4.4z"/><path fill="#56545f" d="M47.5 0h-9.4a5.7 5.7 0 00-1 .1C22.7.1 33 21.4 33 21.4 33 13.2 38 13 38 13h9.5A6.6 6.6 0 0054 6.6 6.6 6.6 0 0047.5 0z"/><circle cx="10.3" cy="33.9" r="3.9" fill="#eeb490"/><circle cx="30.5" cy="33.9" r="3.9" fill="#eeb490"/><path fill="#9d9072" d="M40.9 64H0v-7.3c0-3.4 2.5-6.3 5.9-6.7l9-3.6h11l9 3.6c3.4.4 6 3.3 6 6.7z"/><path fill="#807576" d="M13 48.4v3.2c0 4.2 3.4 7.7 7.6 7.7 4-.1 7.2-3.4 7.2-7.5v-3.4a2.1 2.1 0 00-2.1-2.2H15.1c-1.2 0-2.1 1-2.1 2.2z"/><path fill="#eeb490" d="M15.3 43.7V49a5.1 5.1 0 0010.2 0v-5.4z"/><path fill="#faccb4" d="M25.6 23.6H15.3a4.4 4.4 0 00-4.4 4.3v9.9a9.5 9.5 0 1019 0v-9.9a4.4 4.4 0 00-4.3-4.3z"/><path fill="#56545f" d="M30 19.5s7.3 1 0 14.8v-5.7s-.6-4-3-4.3z"/><path fill="#56545f" d="M25 14.3h-9.1a5.5 5.5 0 00-1 .1c-13.8 0-4 20.6-4 20.6 0-8 5-8 5-8H25c3.5 0 6.3-2.8 6.3-6.3a6.4 6.4 0 00-6.3-6.4z"/><path fill="#f9f9f9" stroke="#666" stroke-linejoin="round" stroke-width="2.3" d="M43 36.7a5.8 5.8 0 015.5 7 5.8 5.8 0 01-7.8 4 5.8 5.8 0 01-2.7-8.2c1-1.7 3-2.8 5-2.8zm-4.2-14.6c-1.3.2-1 1.7-1.1 2.7l-.3 3.5-4 2c-1.7-.7-3.3-1.6-5-2.1-1.1.1-1.3 1.5-2 2.3-1 2-2.3 3.8-3.2 5.7 0 1.2 1.5 1.6 2.3 2.3l2.5 1.8-.3 4.5c-1.5 1.1-3.1 2-4.5 3.2-.5 1.1.6 2 1 3l3.4 5.6c1 .5 1.9-.4 2.8-.7l3-1.4 3.8 3c.3 1.6.2 3.2.6 4.8.7 1 2 .4 3 .5h6.6c1-.6.5-2 .8-2.9l.3-3.3 4-2c1.7.7 3.2 1.6 5 2.2 1-.2 1.3-1.6 2-2.4 1-1.9 2.2-3.7 3.1-5.7 0-1.2-1.5-1.6-2.2-2.4L58 44.6l.3-4.5c1.4-1 3-2 4.4-3.2.5-1-.7-2-1.1-3l-3.4-5.6c-1-.5-2 .5-2.8.8l-3.1 1.4-3.8-2.5c-.2-1.8-.2-3.6-.5-5.4-.8-.9-2-.4-3-.5h-6.3z"/></svg>