<svg xmlns="http://www.w3.org/2000/svg" viewBox="0 0 64 64"><g fill="#eeb490"><circle cx="32.4" cy="20.2" r="4"/><circle cx="53.3" cy="20.2" r="4"/></g><path fill="#48886e" d="M64 51.5H21.7v-7.6a7 7 0 016-7l9.4-3.7h11.5l9.3 3.8a7 7 0 016.1 6.9z"/><path fill="#3b745c" d="M35.1 35.3v3.4c0 4.3 3.5 8 7.9 7.9 4.1-.1 7.5-3.5 7.5-7.8v-3.5c0-1.3-1-2.3-2.2-2.3h-11C36 33 35 34 35 35.3z"/><path fill="#eeb490" d="M37.5 30.4V36a5.3 5.3 0 005.3 5.3 5.3 5.3 0 005.3-5.3v-5.6z"/><path fill="#faccb4" d="M48.1 9.6H37.5A4.5 4.5 0 0033 14v10.2a9.8 9.8 0 009.8 9.8 9.8 9.8 0 009.9-9.8V14.1A4.5 4.5 0 0048 9.6z"/><g fill="#56545f"><path d="M52.7 5.4s7.6 1 0 15.3v-6s-.6-4.1-3.1-4.4z"/><path d="M47.5 0h-9.4a5.7 5.7 0 00-1 .1C22.7.1 33 21.4 33 21.4 33 13.2 38 13 38 13h9.5A6.6 6.6 0 0054 6.6 6.6 6.6 0 0047.5 0z"/></g><g fill="#eeb490"><circle cx="10.3" cy="33.9" r="3.9"/><circle cx="30.5" cy="33.9" r="3.9"/></g><path fill="#9d9072" d="M40.9 64H0v-7.3c0-3.4 2.5-6.3 5.9-6.7l9-3.6h11l9 3.6c3.4.4 6 3.3 6 6.7z"/><path fill="#807576" d="M13 48.4v3.2c0 4.2 3.4 7.7 7.6 7.7 4-.1 7.2-3.4 7.2-7.5v-3.4a2.1 2.1 0 00-2.1-2.2H15.1c-1.2 0-2.1 1-2.1 2.2z"/><path fill="#eeb490" d="M15.3 43.7V49a5.1 5.1 0 0010.2 0v-5.4z"/><path fill="#faccb4" d="M25.6 23.6H15.3a4.4 4.4 0 00-4.4 4.3v9.9a9.5 9.5 0 0019 0v-9.9a4.4 4.4 0 00-4.3-4.3z"/><g fill="#56545f"><path d="M30 19.5s7.3 1 0 14.8v-5.7s-.6-4-3-4.3z"/><path d="M25 14.3h-9.1a5.5 5.5 0 00-1 .1c-13.8 0-4 20.6-4 20.6 0-8 5-8 5-8H25a6.3 6.3 0 006.3-6.3c0-3.5-2.8-6.4-6.3-6.4z"/></g></svg>