<svg xmlns="http://www.w3.org/2000/svg" viewBox="0 0 64 64"><circle cx="32" cy="32" r="32" fill="#1ea6c6"/><path fill="#f7cf52" d="M59.5 15.6c-5-3.6-6.9-1.8-7.6-.3a2 2 0 01-1.8 1.1h-.2a2 2 0 01-1.9-2c0-4.2 2.7-8.4 2.7-8.4a32.1 32.1 0 018.8 9.6zM64 32a32 32 0 01-1.9 10.8c-1-1.7-1.4-3.8-1.5-5.6-.1-2-2-3.5-4-3.2a5 5 0 01-5.7-4.3 19.4 19.4 0 01-.2-3.4s.4-4.9 2.8-7.2c.4-.5.8-.9 1.2-1.1a2.5 2.5 0 011.8-.5c2.3.3 4 0 4 0A31.9 31.9 0 0164 32zM37.2 5.3l-3.9 5c-.5-3.8-5-7.1-3.9-7 6 .5 7.8 2 7.8 2zm-8 5.3a3.2 3.2 0 01-1.3 4.8 26.1 26.1 0 00-8.5 5.6 3 3 0 01-3 1c-1.5-.3-3.4-.3-4.5 1.6-2 3.6 5.8 7.6 5.4 12a3.6 3.6 0 00-2.1-2.4c-2.8-1.2-5.2-3-6.8-5.9C5 21.1 7.4 13.7 9.8 9a32 32 0 0110.3-6.6s5.3 3.3 9 8.3zm7.5 31c3 1.7 3.7 5.8 1.4 8.5l-4 4.7-5 5.3-3.3 3.3c-3-4.3-2-12.5-2-12.5l-3-2.2a7.6 7.6 0 01-3.3-7 17 17 0 00-.2-6c2.6-.8 5.3-1.2 7.2-1.4a5 5 0 014 1.3c2 2 5.4 4.2 8.2 6z"/><path fill="#888" d="M36.6 63.7C15.9 67.5-4 46.9.5 26.4A32.2 32.2 0 0136.6.4a35.4 35.4 0 000 63.3z" opacity=".3"/></svg>