<svg xmlns="http://www.w3.org/2000/svg" viewBox="0 0 64 64"><linearGradient id="a" x1="33.5" x2="33.5" y1="7.8" y2="67.7" gradientUnits="userSpaceOnUse"><stop offset="0" stop-color="#efbe3e"/><stop offset="1" stop-color="#eb7c37"/></linearGradient><path fill="#917c6f" fill-opacity=".7" d="M22 53.5v-3a2 2 0 00-.6-1.5c-1-.9-1.5-2.1-1.5-3.4 0-2.6 2.2-4.8 5-4.8a4.8 4.8 0 013.4 8.2 2 2 0 00-.6 1.5v3a2 2 0 00.6 1.4 2 2 0 001.4.6H46a2 2 0 002-2v-21h.6a3 3 0 012 .8 7 7 0 005 2c3.9 0 7-3 7-6.7s-3.1-6.7-7-6.7a7 7 0 00-5 2 3 3 0 01-2 .9H48V3.7c0-.5-.2-1-.5-1.4s-1-.5-1.5-.5H29.7a2 2 0 00-1.4.5 2 2 0 00-.6 1.4v3c0 .6.2 1 .6 1.5 1 .9 1.5 2 1.5 3.4 0 2.6-2.2 4.8-5 4.8a4.7 4.7 0 01-3.3-8.2 2 2 0 00.7-1.5v-3c0-1.1-1-2-2-2H3.3a2 2 0 00-2 2v20.2a2 2 0 00.5 1.4 2 2 0 001.5.6H5a2 2 0 001.5-.6c.9-1 2.1-1.5 3.5-1.5a5 5 0 015 4.8 5 5 0 01-5 4.8 5 5 0 01-3.5-1.5 2 2 0 00-1.5-.6H3.4a2 2 0 00-1.5.6 2 2 0 00-.6 1.4v20.2c0 1.1 1 2 2.1 2H20a2 2 0 002-2z"/><path fill="url(#a)" d="M20.7 51.8v-3a2 2 0 00-.6-1.4 4.7 4.7 0 01-1.5-3.5c0-2.6 2.2-4.8 5-4.8s4.9 2.1 4.9 4.8c0 1.3-.6 2.5-1.5 3.4a2 2 0 00-.7 1.5v3a2 2 0 00.6 1.4 2 2 0 001.5.6h16.3a2 2 0 001.4-.6 2 2 0 00.6-1.4v-21h.6a3 3 0 012 .8 7 7 0 005 2c3.9 0 7-3 7-6.7s-3.2-6.7-7-6.7a7 7 0 00-5 2 3 3 0 01-2 .9h-.6V2c0-.5-.2-1-.6-1.4a2 2 0 00-1.4-.5H28.4a2 2 0 00-1.4.5 2 2 0 00-.7 1.4v3a2 2 0 00.7 1.5c1 .9 1.5 2.1 1.5 3.4 0 2.6-2.3 4.8-5 4.8s-4.9-2.2-4.9-4.8c0-1.3.5-2.5 1.5-3.4a2 2 0 00.6-1.5V2a2 2 0 00-2-2H2.1a2 2 0 00-2 2L0 22.2c0 .5.2 1 .6 1.4a2 2 0 001.4.6h1.8a2 2 0 001.4-.6c1-1 2.2-1.5 3.5-1.5a5 5 0 015 4.8 5 5 0 01-5 4.8 5 5 0 01-3.5-1.5 2 2 0 00-1.4-.6H2c-.5 0-1 .2-1.4.6s-.6.9-.6 1.4v20.2c0 1.1 1 2 2 2h16.7a2 2 0 002-2z"/><path fill="#f9f9f9" stroke="#666" stroke-linejoin="round" stroke-width="2" d="M43 36.7a5.8 5.8 0 015.5 7 5.7 5.7 0 01-7.8 4 5.8 5.8 0 01-2.7-8.2 5.8 5.8 0 015-2.8zm-4.2-14.6c-1.3.2-1 1.8-1.1 2.7l-.3 3.5-4 2-5-2.1c-1.2.1-1.4 1.5-2 2.3l-3.2 5.7c0 1.2 1.5 1.6 2.3 2.3l2.5 1.8-.3 4.5-4.5 3.2c-.5 1.1.6 2 1 3l3.4 5.6c1 .5 1.8-.4 2.8-.7l3-1.4 3.8 3c.2 1.6.2 3.2.6 4.8.7 1 2 .4 3 .5h6.6c1-.6.5-2 .8-3l.3-3.2 4-2 5 2.2c1-.2 1.3-1.6 2-2.4l3.1-5.7c0-1.2-1.5-1.6-2.2-2.4L58 44.6l.3-4.5 4.3-3.2c.5-1-.6-2-1-3l-3.5-5.6c-.9-.5-1.8.5-2.7.7l-3.1 1.5-3.8-2.5c-.2-1.8-.2-3.6-.6-5.4-.7-.9-2-.4-3-.5h-6.2z"/></svg>