<svg xmlns="http://www.w3.org/2000/svg" viewBox="0 0 64 64"><path fill="#ffe1b2" d="M19.2 27.4c-1.4-.4-2.4.4-2.4 2 0 2 2 7 4 4s-1.6-6-1.6-6zm26.5 0c1.6-.4 2.7.4 2.7 2 0 2-2.2 7-4.5 4s1.8-6 1.8-6z"/><path fill="#ffd7a3" d="M21.7 45.1c2.2-1.4 2-5.6 2-6.6h17.8c0 1-.3 5.2 2 6.6l-11 12.2z"/><path fill="#fdc88e" d="M39.5 49.4l3.9-4.3c-2.2-1.4-2-5.6-2-6.6H23.8c1.3 3.7 9.7 10 15.8 10.9z"/><path fill="#ffe1b2" d="M46.4 25.7c0 7.9-4.5 17.8-13.8 17.8s-13.8-10-13.8-17.8S25 14.8 32.6 14.8s13.8 3 13.8 10.9z"/><path fill="#543d38" d="M21.7 23c-.4 1.3-1 6.6-1 6.6l-2-1-.5-7.3zm21.8 0c.4 1.3 1 6.6 1 6.6l2-1 .5-7.3z"/><path fill="#2582b1" d="M55.3 64.2a3 3 0 003-3v-4.6c0-4.3-3.4-9-7.6-10.3l-6.1-2c-3.4 2.6-8.1 6-12 6s-8.7-3.4-12-6l-6.2 2c-4.1 1.4-7.5 6-7.5 10.3v4.6a3 3 0 003 3z"/><path fill="#d0d7dc" d="M27.3 50.4h10.9v13.8H27.3z"/><path fill="#545465" d="M34.6 53.3c0 .6-.5 1-1 1h-2a1 1 0 01-1-1v-2c0-.5.5-1 1-1h2c.5 0 1 .5 1 1z"/><circle cx="32.6" cy="59.2" r="1" fill="#d0d7dc"/><path fill="#e4ebf0" d="M32.6 50.4l-4.1 4a1 1 0 01-1.5 0l-7.2-10 2.3-2.3a1 1 0 011.3 0zm0 0l4.1 4a1 1 0 001.5 0l7.2-10-2.3-2.3a1 1 0 00-1.3 0z"/><path fill="#545465" d="M34 53.8l-1.4.5-1.4-.5-.6 10.4h4z"/><path fill="#2582b1" d="M52.3 13.8c0 5.5-8.8 7-19.7 7s-19.7-1.5-19.7-7S21.7 1 32.6 1s19.7 7.4 19.7 12.8z"/><ellipse cx="32.6" cy="20.7" fill="#29394a" rx="14.8" ry="4"/><path fill="#1464a2" d="M17.8 17.3v3.4c3.2-.5 8.6-1 14.8-1s11.6.5 14.8 1v-3.4c-3.2-1.6-8.7-2.7-14.8-2.7s-11.6 1-14.8 2.7z"/><g fill="#543d38"><path d="M32.9 36c0-1.3-1.3-1.6-2.1-1.2-1.5.5-3.2 2.1-4.6 1.2 0 0 .5 2 1.3 2 1.7 0 5.4.3 5.4-2z"/><path d="M32.5 36c0-1.3 1.3-1.6 2.1-1.2 1.5.5 3.2 2.1 4.6 1.2 0 0-.5 2-1.3 2-1.7 0-5.4.3-5.4-2z"/></g><path fill="#1464a2" d="M50.2 48.3c-.6-2.2-2.6-8-8.7-8a16.8 16.8 0 01-1 5.8l-6 18h5.3l7-8.4a1 1 0 000-1.3l-2.4-3.2 5.1-1.7c.5-.2.8-.7.7-1.2zm-32 6.2a1 1 0 00.2 1.3l7 8.4h5.3l-6-18.1a16.8 16.8 0 01-1-5.8c-6.2 0-8.2 5.8-8.7 8-.1.5.2 1 .7 1.2l5 1.7z"/><circle cx="32.5" cy="8.7" r="2.6" fill="#ffd267"/><path fill="#543d38" d="M16.6 45.6l-2.2.7c-.6.2-1.3.5-1.9 1l17.3 16.9h5.6z"/></svg>