<svg xmlns="http://www.w3.org/2000/svg" viewBox="0 0 64 64"><path fill="#fff" stroke="#ccc" stroke-width="2" d="M19 1h44v62H19z"/><path fill="#afdde9" d="M23 8h8.6v8.5H23z"/><g fill="none"><path stroke="#afdde9" stroke-width="2" d="M34.5 9h24.6"/><path stroke="#b3b3b3" stroke-width="2" d="M36 15.5h9.2m3.8 0h10m-37.5 39h37.3M32.6 47h3.6m3.2 0H59"/><path stroke="#afdde9" stroke-width="3" d="M32.2 39H59"/></g><g stroke="#b3b3b3" stroke-width="2"><path fill="#87cdde" d="M38 31.2h21"/><path fill="none" d="M35.7 23.8H39m2.8 0H59"/></g><g fill="#eeb490"><circle cx="10.8" cy="32.6" r="4"/><circle cx="31.8" cy="32.6" r="4"/></g><path fill="#9d9072" d="M42.5 64H0v-7.6a7 7 0 016.1-7l9.4-3.7H27l9.4 3.7a7 7 0 016.1 7z"/><path fill="#807576" d="M13.5 47.7v3.4c0 4.4 3.6 8 8 8 4.1-.1 7.5-3.5 7.5-7.8v-3.6c0-1.2-1-2.2-2.2-2.2h-11c-1.3 0-2.3 1-2.3 2.2z"/><path fill="#eeb490" d="M16 42.8v5.7a5.3 5.3 0 005.3 5.3 5.3 5.3 0 005.3-5.3v-5.7z"/><path fill="#faccb4" d="M26.6 22H16a4.5 4.5 0 00-4.5 4.5v10.2a9.9 9.9 0 0019.8 0V26.5a4.5 4.5 0 00-4.6-4.6z"/><g fill="#56545f"><path d="M31.2 17.7s7.6 1 0 15.4v-6s-.6-4.2-3.2-4.4z"/><path d="M26 12.3h-9.4a5.7 5.7 0 00-1.1.1c-14.3 0-4.1 21.4-4.1 21.4 0-8.3 5.2-8.3 5.2-8.3H26a6.6 6.6 0 006.6-6.6 6.6 6.6 0 00-6.6-6.6z"/></g></svg>