<svg xmlns="http://www.w3.org/2000/svg" xmlns:xlink="http://www.w3.org/1999/xlink" viewBox="0 0 64 64"><defs><linearGradient id="a"><stop offset="0" stop-color="#f6d5ff"/><stop offset="1" stop-color="#eaf"/></linearGradient><linearGradient xlink:href="#a" id="b" x1="20.4" x2="20.4" y1="5.3" y2="52.9" gradientUnits="userSpaceOnUse"/></defs><g fill="#405" stroke="#405" stroke-linecap="round" stroke-linejoin="round" stroke-width="5"><path d="m46.7 5-7.4 3.2v-2h-1.2c0 1.5-.6 3.3-2 4.2L27 15.6a9.5 9.5 0 0 0-3.5 4.5c-5.4 5.6-20 4.7-19 13.8 1.1 5.6 7.5 7.4 11.8 9l.2-.8C-7.7 32.4 19 19.7 23 30.8c-5.5 0-15 1.6-11.1 7.8.4.6 1.2 1 2.4 1 .7 0 1-.2.6-.5l-.8-1c8.6-5 12.4 4.2 4.8 8.8C9.7 51 4.3 54 6 61.5c2.7-12.2 20.2-6.7 28-3.8 1.8-4.2 4.7-8 8.3-11 1.1 7.8 5.7 10 10.7 12l7.8-13.3-2.1.2-1.7 3c-1.3-.2-2-.5-2.4-1.2 0-13.4-4.6-14.8-12-17.3 13.5-4.7 11.4-21.5 4-25.2Zm-7.4 6c7.8 2.6 5 15.4.7 18.8-.4.2-.7.4-.7.2zm-1.8 0v19.5L34 32c-1.3-6.7-2.9-16 3.5-21Zm2.7 20.5c3.7 1.8 4.9 10.2 1.2 14L39 47.8V32.1zm-2.7 1.1v17.5A25 25 0 0 0 23.8 47c8-1.7 9.8-6.4 10.5-13z"/><path d="M13 2.5c-4.9.1-9.2 2-9.8 7.5-1 7.4 5 8.2 11.1 10.4C6 16.2 3.3 9.1 9 6.8c6-1.7 3.9 4.1 6.7 8.3 3.4 4.3 11.6 1 12.2-3 .5-2.3 0-5.3.4-7.7l-.8.4c-1.3 12-7.1 9.9-6.8 5.3.4-5-3.3-7.6-7.5-7.6Z"/></g><g fill="url(#b)" transform="translate(0 -.2) scale(1.00754)"><path d="M46.2 5.1 39 8.4v-2h-1.1c0 1.4-.7 3.3-2 4.1l-9.2 5.2a9.5 9.5 0 0 0-3.4 4.5c-5.4 5.6-20 4.6-19 13.6 1.2 5.6 7.5 7.4 11.8 9l.2-.8c-24-9.6 2.4-22.2 6.5-11.2-5.5 0-14.9 1.6-11 7.8.4.6 1.2.9 2.3.9.7 0 1-.2.6-.4l-.8-1c8.5-5 12.3 4.1 4.8 8.7-9 4-14.5 7-12.6 14.5 2.7-12.2 20-6.6 27.7-3.8 1.9-4.2 4.7-8 8.3-10.9 1.1 7.8 5.7 10 10.6 11.9l7.8-13.2-2.1.2-1.7 3c-1.3-.2-2-.5-2.4-1.2 0-13.3-4.5-14.7-11.9-17.2 13.4-4.7 11.3-21.3 4-25Zm-7.3 6c7.8 2.6 5 15.3.8 18.7-.4.2-.8.4-.8.2zm-1.8 0v19.4L33.7 32c-1.3-6.7-2.9-16 3.4-20.8Zm2.7 20.4c3.7 1.8 4.8 10.1 1.2 13.8l-2.4 2.5.1-15.7zM37 32.6V50a24 24 0 0 0-13.6-3.1c8-1.7 9.7-6.4 10.5-13z"/><path d="M13 2.7c-5 .2-9.3 2-10 7.4-1 7.4 5 8.2 11.1 10.4C5.8 16.3 3.1 9.3 8.7 7c6-1.7 4 4.1 6.7 8.2 3.4 4.3 11.5 1 12.1-3 .5-2.2 0-5.2.4-7.6L27 5c-1.2 11.9-7 9.8-6.7 5.3.4-5-3.3-7.6-7.5-7.6Z"/></g></svg>