<svg xmlns="http://www.w3.org/2000/svg" xmlns:xlink="http://www.w3.org/1999/xlink" viewBox="0 0 32 32"><defs><path id="a" stroke-width="2.74" d="M20.04 15.73c1.84.93 2.43 5.07.6 6.94l-1.17 1.23.03-7.86z"/><path id="b" stroke-width="2.74" d="M6.6 1.37c-1.63 0-3.42.77-4.55 2.35a2.7 2.7 0 0 0-.37 1.34 4.83 4.83 0 0 0 2.78 4.76c.7.3 1.57.47 2.61.47.2 0 .35-.06.4-.14l.25-.2-1.86-.45C3.12 8.47 1.6 4.46 4.02 3.6c2.96-.82 2.42 2.35 3.82 4.42 1.71 2.13 5.75.1 6.07-1.9.22-1.14-.04-2.63.17-3.8l-.36.18c-.64 5.93-3.54 4.9-3.38 2.64.19-2.48-1.64-3.77-3.74-3.77Z"/></defs><g fill="#e9afdd" stroke="#405" stroke-linecap="round" stroke-linejoin="round" stroke-width="2.74"><use xlink:href="#a"/><path d="m23.27 2.56-1.75.74-1.91.89V3.17h-.58c.03.75-.33 1.47-.96 1.89l-4.6 2.75a4.74 4.74 0 0 0-1.73 2.25c-2.71 2.77-9.99 2.36-9.46 6.86.58 2.78 3.73 3.69 5.89 4.47l.07-.39c-12-4.79 1.23-11.08 3.24-5.58 0 .18-.14.29-.45.34-3 .06-6.57 1.36-5.07 3.52.22.3.62.45 1.2.45.35 0 .45-.07.31-.2a4.23 4.23 0 0 0-.4-.46c4.23-2.53 6.13 2.04 2.36 4.34-4.52 1.97-7.21 3.48-6.28 7.22h0c1.35-6.06 9.99-3.3 13.87-1.86a14.73 14.73 0 0 1 4.12-5.46c.16.27.26.56.3.87.2 2.05 2.07 3.94 5 5.06l3.9-6.57-.96.07c-.1.2-.19.4-.26.6l-.6 1.02c-.62-.13-1.05-.36-1.26-.73.73-5.56-.82-6.8-4.89-8.07-.38-.1-.74-.28-1.05-.52 1.23-.58 2.21-1.1 2.95-1.55 2.78-2.32 3.71-8.85-1-10.93zm-3.64 3c3.89 1.3 2.5 7.64.35 9.35-.48.25-.48.14-.48-.54zm-.76.02v9.68c-.5.2-1.22.51-1.88.7-.63-3.35-1.28-7.93 1.88-10.38zm-.2 10.72-.13 8.68a11.77 11.77 0 0 0-6.64-1.54c5.3-1.48 4.45-3.6 5.24-6.46z"/><use xlink:href="#b"/></g><g fill="#e9afdd"><use xlink:href="#a"/><path d="m23.27 2.56-1.75.74-1.91.89V3.17h-.58c.03.75-.33 1.47-.96 1.89l-4.6 2.75a4.74 4.74 0 0 0-1.73 2.25c-2.71 2.77-9.99 2.36-9.46 6.86.58 2.78 3.73 3.69 5.89 4.47l.07-.39c-12-4.79 1.23-11.08 3.24-5.58 0 .18-.14.29-.45.34-3 .06-6.57 1.36-5.07 3.52.22.3.62.45 1.2.45.35 0 .45-.07.31-.2a4.23 4.23 0 0 0-.4-.46c4.23-2.53 6.13 2.04 2.36 4.34-4.52 1.97-7.21 3.48-6.28 7.22 1.35-6.06 9.99-3.3 13.87-1.86a14.73 14.73 0 0 1 4.12-5.46c.16.27.26.56.3.87.2 2.05 2.07 3.94 5 5.06l3.9-6.57-.96.07c-.1.2-.19.4-.26.6l-.6 1.02c-.62-.13-1.05-.36-1.26-.73.73-5.56-.82-6.8-4.89-8.07a3.33 3.33 0 0 1-1.05-.52c1.23-.58 2.21-1.1 2.95-1.55 2.78-2.33 3.71-8.85-1-10.93zm-3.64 3c3.89 1.3 2.5 7.64.35 9.35-.48.25-.48.14-.48-.55zm-.76.02v9.68c-.5.2-1.22.51-1.88.7-.63-3.35-1.28-7.93 1.88-10.38zm-.2 10.72-.13 8.68a11.77 11.77 0 0 0-6.64-1.54c5.3-1.48 4.45-3.6 5.24-6.46z"/><use xlink:href="#b"/></g></svg>