<svg xmlns="http://www.w3.org/2000/svg" viewBox="0 0 64 64"><linearGradient id="a" x1="44.6" x2="31" y1="39.8" y2="26.1" gradientTransform="rotate(180 32 32)" gradientUnits="userSpaceOnUse"><stop offset="0" stop-color="#4ecfff"/><stop offset="1" stop-color="#13a7ff"/></linearGradient><g stroke-width=".1"><path fill="#b4bbcc" d="m38 38.2 7-7-3-3.2-7 7.1a2.2 2.2 0 0 0 3 3.1M25.7 26.1l7-7.1 3.3 3-7.1 7a2.2 2.2 0 0 1-3.1-3z"/><path fill="url(#a)" d="M55.7 24.2a3 3 0 0 0 1-2.2l-.3-6.6"/><path d="m53.5 12.5.2 6.6" opacity=".2"/><path fill="url(#a)" d="M24.2 55.7a3 3 0 0 1-2.2 1l-6.6-.3"/><path d="m19 53.7-6.5-.2" opacity=".2"/><path fill="#d5f6ff" d="m27.4 18 4.6-4.4L50.4 32 46 36.5z"/><path d="m43 33.6 4.5-4.5 3 3-4.6 4.5z" opacity=".1"/><path fill="#d5f6ff" d="M36.6 46 32 50.3 13.6 32l4.5-4.6z"/><path d="m29.1 47.5 4.5-4.5 3 3-4.6 4.4z" opacity=".1"/><path d="m.3 57.2 6.5 6.5"/></g></svg>