<svg xmlns="http://www.w3.org/2000/svg" viewBox="0 0 64 64"><linearGradient id="a" x1="44.6" x2="31" y1="39.8" y2="26.1" gradientTransform="rotate(180 32 32)" gradientUnits="userSpaceOnUse"><stop offset="0" stop-color="#4ecfff"/><stop offset="1" stop-color="#13a7ff"/></linearGradient><g stroke-width=".1"><path fill="#b4bbcc" d="M38 38.2l7-7L42 28l-7 7.1a2.2 2.2 0 003 3.1zM25.7 26.1l7-7.1L36 22l-7.1 7a2.2 2.2 0 01-3.1-3z"/><path fill="url(#a)" d="M55.7 24.2a3 3 0 001-2.2l-.3-6.6a-3-3 0 01.9-2.1L63 7.5 56.5 1l-5.8 5.7a3 3 0 01-2.1 1L42 7.3a-3-3 0 00-2.2.9L31 17l16 16z"/><path d="M53.5 12.5l.2 6.6a-3-3 0 01-.9 2.2L44 30l3 3 8.7-9a3 3 0 001-2.1l-.3-6.6a-3-3 0 01.9-2.1L63 7.5l-3-2.9-5.7 5.7a-3-3 0 00-.8 2.2z" opacity=".2"/><path fill="url(#a)" d="M24.2 55.7a3 3 0 01-2.2 1l-6.6-.3a-3-3 0 00-2.1.9L7.5 63 1 56.5l5.7-5.8a3 3 0 001-2.1L7.3 42a-3-3 0 01.9-2.2L17 31l16 16z"/><path d="M19 53.7l-6.5-.2a-3-3 0 00-2.2.8l-5.7 5.8 3 2.9 5.7-5.7a3 3 0 012.1-1l6.6.3a-3-3 0 002.2-.9L33 47 30.1 44l-8.8 8.8a-3-3 0 01-2.2.9zm8.7-29.6l5.2-5.1L36 22l-5.2 5.2zm9 9L42 28l3.1 3.1-5.1 5.2z" opacity=".2"/><path fill="#d5f6ff" d="M27.4 18l4.6-4.4L50.4 32 46 36.5z"/><path d="M43 33.6l4.5-4.5 3 3-4.6 4.5z" opacity=".1"/><path fill="#d5f6ff" d="M36.6 46L32 50.3 13.6 32l4.5-4.6z"/><path d="M29.1 47.5l4.5-4.5 3 3-4.6 4.4z" opacity=".1"/><path d="M.3 57.2l6.5 6.5a-1-1 0 001.5 0L14 58a-2-2 0 011.4-.6l6.6.2a-4-4 0 003-1.1l5.8-5.9.5.6a1 1 0 001.5 0l4.5-4.5a-1-1 0 000-1.5L18.8 26.7a1 1 0 00-.7-.3-1-1 0 00-.8.3l-4.5 4.5a-1-1 0 000 1.5l.6.5-5.9 5.9a4 4 0 00-1.1 3l.2 6.5A-2-2 0 016 50L.3 55.7a-1-1 0 000 1.5zm7.2-5.7a-4-4 0 001.1-3L8.4 42a2 2 0 01.6-1.5l5.8-5.8 2.4 2.3a1 1 0 001.4 0-1-1 0 000-1.4L15 32l3-3 17.1 17-3 3-10.6-10.5a1 1 0 00-1.4 0-1-1 0 000 1.5l9.2 9.2-5.8 5.8a2 2 0 01-1.5.6l-6.5-.2a4 4 0 00-3 1.1l-5 5-5-5zm19.8-20.6a-3.2-3.2 0 002.3-1l4.1-4 4.5 4.4-4.1 4a3.2 3.2 0 000 4.7-3.2-3.2 0 004.6 0l4-4.2 2.5 2.5a1 1 0 001.5 0l4.5-4.5a-1-1 0 000-1.5l-.6-.5 5.9-5.9a4 4 0 001.1-3l-.2-6.5A2 2 0 0158 14l5.7-5.7a-1-1 0 000-1.5L57.2.3a-1-1 0 00-1.5 0L50 6a-2-2 0 01-1.4.6L42 6.4a4 4 0 00-3 1.1l-5.8 5.9-.5-.6a1 1 0 00-.7-.3-1-1 0 00-.8.3l-4.5 4.5a-1-1 0 000 1.5l2.5 2.4-4.1 4.1a-3.2-3.2 0 002.2 5.6zm9.9 6.6a-1.2-1.2 0 01-.8.3-1.2-1.2 0 01-.9-.3-1.2-1.2 0 01-.3-.8c0-.4.1-.7.3-.9l4.1-4 1.7 1.6zM32 15l10.7 10.7a1 1 0 001.5 0-1-1 0 00.3-.7-1-1 0 00-.3-.7l-9.5-9.5L40.5 9a-2-2 0 011.5-.6l6.5.2a-4-4 0 003-1.1l5-5 5 5-5 5a-4-4 0 00-1.1 3l.2 6.5a-2-2 0 01-.6 1.5l-5.8 5.8-2.1-2.1a1 1 0 00-1.5 0-1-1 0 000 1.5L49 32l-3 3-17-17zm-5.5 11.8l4.1-4.1 1.7 1.7-4.1 4c-.2.3-.5.4-.9.4a-1.2-1.2 0 01-.8-.3 1.2 1.2 0 010-1.7z"/></g></svg>