<svg xmlns="http://www.w3.org/2000/svg" viewBox="0 0 48 48"><radialGradient id="a" cx="18.5" cy="15.2" r="30" gradientTransform="matrix(1.335 0 0 1.004 -7 -.4)" gradientUnits="userSpaceOnUse"><stop offset="0" stop-color="#dbe9ff"/><stop offset=".2" stop-color="#d3e9ff"/><stop offset=".8" stop-color="#4074ae"/><stop offset="1" stop-color="#36486c"/></radialGradient><radialGradient id="b" cx="-15.4" cy="34.5" r="10.4" gradientUnits="userSpaceOnUse"><stop offset="0" stop-color="#64b5f6"/><stop offset="1" stop-color="#7bc9ff"/></radialGradient><path fill="url(#a)" stroke="#39396c" stroke-width="1.1" d="M46 24a21.5 21.5 0 11-43.1 0A21.5 21.5 0 0146 24z"/><g fill="#204a87" fill-opacity=".7"><path d="M45.2 20.6l-.6.7-1.2-1.2-.9.2-.8-1v1.2l.7.5.5.6.6-.7.5.9v.9l-.7.8-1.4.9-1 1-.6-.8.3-.8-.6-.7-1-2.3-1-1-.2.3.3 1.3.7.7 1.3 3.3 2.3-.2v.6l-1 2.4-.8 1-.7 1.5v2.5l.2 1-.4.4-.9.6-.9.7.8.9-1 .9.1.6-1.5 1.7h-1l-.9.5h-.5v-.7l-.3-1.4-1-2.7.1-2 .4-.9-.5-1v-1.5l-.7-.9.4-1.2-.7-.7h-1l-.4-.4-1 .7-.5-.5-1 .8-2-2.3L25 24l.7-1-.4-.5.9-2 2.2-2.6 1.4-.4 1.5-.2 1 .3 1.5 1.5.5-.6.7-.1 1.4.4h1l.7-.6.3-.4-.7-.5h-1.2l-1-1.4-.4.1-.2 1.2-.7-.8-.2-.9-.8-.6h-.3l.8.9-.3.8-.6.2.4-.8-.8-.4-.6-.7-1.2.3-.1.3-.8.5-.4 1-1 .5-.4-.5h-.5v-1.7l1-.5h.9l-.2-.6-.6-.7 1-.2.6-.7.5-.8h.9l-.2-.6.5-.3v.7l1.2.2 1.2-1v-.4l1.1-.7c-.4 0-.7 0-1.1.2V9l.4-1H34l-.9.9-.2.4.2.6-.4 1.1-.6-.3-.6-.7-.8.7-.4-1.5 1.5-1v-.5l1-.6 1.5-.4 1 .4 2 .3-.5.6h-1l1 1 .8-.9.2-.3s3 2.7 4.8 5.7 2.5 6.5 2.5 7.2zM25.6 8.1l-.1.5.5.4 1-.6-.5-.6-.6.4-.4-.1m1-3.7l-2.1-.8L22 4l-3 .8-.5.5 1.8 1.3v.7l-.7.7 1 2 .6-.4.8-1.3a27.3 27.3 0 003.5-1.4l1-2.4m2 7.6l-.3-.8-.5.1.1 1 .8-.3m.3-.2l-.2 1 .9-.1.6-.6-.5-.6-.7-1.4h-.4v.5l.3.4v.8M17 28.8l-.6-1.2-1.2-.3-.6-1.7-1.6.2-1.4-1-1.4 1.3v.2c-.4-.2-1-.2-1.3-.4l-.4-1V24h-1l.3-1.8h-.5l-.6.7-.5.3-.8-.4-.1-1 .1-1.1 1.2-1h1l.1-.5 1.2.3.9 1.1.2-1.8 1.5-1.3.5-1.3 1.1-.4.7-1 1.4-.2.7-1h-2.1l1.3-.7h1l1.3-.5.2-.5-.5-.5-.6-.1.2-.6-.4-.8-1 .4.2-.7-1-.7-1 1.6.1.5-.9.4-.5 1.1-.2-1-1.5-.7-.3-.8 2-1.2.9-.8V7l-.4-.2-.7-.1-.4 1-.8.1c-2.2 2-6.6 6.4-7.6 14.6l.7 1.3 1.7 1 1.7.4.7.9 1.1.8h.6l.5.1v.2l-.6 1.7-.5.7.2.3-.4 1.4 1.4 2.6 1.4 1.3.7.9-.1 1.8.5 1.1-.5 2v.3c0 .3 2.5 1.6 2.7 1.4l.3-.2-.2-.4.7-.6.2-.7 1-.3.8-2-.2-.5.5-.8 1.2-.3.7-1.4-.2-1.8 1-1.4.1-1.3-3.9-2M15.4 8.5l.8.5h.6v-.6L16 8l-.6.5m-2-.8l-.5 1h.8l.4-.9 1-.7.8.3 1.6 1 .8-.7-.8-.3-.4-.8-1.5-.2-.1-.5-.7.2-.4.7-.4-.9-.1.4v1l-.6.4"/><path d="M16.2 5.5l.4-.4.8-.1 1.7-.7-.4-.5-1 .1-.5.5-.8.1-.7.4-.3.1-.2.3 1 .2m1.4 8.5l.4-.7-.7-.5.3 1.2"/></g><g fill="#616161" stroke="#e6e6e6" stroke-width="3.9" opacity=".8"><path d="M18.8 32.3l-3-3-13 13 3 3z"/><path d="M28.7 2a17.3 17.3 0 100 34.6 17.3 17.3 0 100-34.6zm0 3.2a14 14 0 0114.1 14 14 14 0 01-14 14.2 14 14 0 01-14.1-14.1 14 14 0 0114-14z"/></g><g transform="translate(2.7 -19.7) scale(1.355)"><circle cx="-19.2" cy="28.9" r="10.4" fill="url(#b)" opacity=".6" transform="scale(-1 1)"/><g fill="#616161"><path d="M11.9 38.4l-2.3-2.3L0 45.8 2.3 48z"/><path d="M19.2 16a12.8 12.8 0 100 25.6 12.8 12.8 0 100-25.6zm0 2.4a10.4 10.4 0 110 20.8 10.4 10.4 0 010-20.8z"/></g><path fill="#37474f" d="M6.5 43.7l-2.2-2.2L0 45.8 2.2 48z"/><path fill="#bbdefb" fill-opacity=".9" d="M13.6 22.9a7.2 7.2 0 0111 0c.3.3.3.8 0 1-.4.4-1 .3-1.2 0a5.7 5.7 0 00-8.6 0 1 1 0 01-.7.3l-.4-.1a1 1 0 01-.1-1.2z"/></g></svg>