<svg xmlns="http://www.w3.org/2000/svg" viewBox="0 0 64 64"><linearGradient id="a" x1="41.2" x2="41.2" y1="5.3" y2="36" gradientUnits="userSpaceOnUse"><stop offset="0" stop-color="#dbdbe3"/><stop offset="1" stop-color="#fff"/></linearGradient><path fill="none" stroke="#939dac" stroke-linecap="round" stroke-width="3" d="M51 42.2v10.4H11.7v9.2" class="B"/><path fill="url(#a)" stroke="#9393ac" stroke-width="2" d="M3 1.2h58a2 2 45 012 2V39a2 2 135 01-2 2H3a2 2 45 01-2-2V3a2 2 135 012-2z"/><g fill="#535d6c" stroke="#535d6c" stroke-width=".4" class="B"><circle cx="4.8" cy="5.2" r=".9"/><circle cx="4.8" cy="37" r=".9"/><circle cx="59.2" cy="5.2" r=".9"/><circle cx="59.2" cy="37" r=".9"/></g><path fill="#939dac" stroke="#939dac" d="M46.7 14.3h8.1v4.1h-8.1zm0 9.5h8.1v4h-8.1z" class="B"/><g fill="none" stroke="#535d6c"><g class="B" transform="matrix(1.0175 0 0 1.0201 -.5 -3.2)"><circle cx="20.9" cy="23.9" r="14"/><circle cx="20.9" cy="23.9" r="10.6"/><circle cx="20.9" cy="23.9" r="6.8"/></g><path d="M8.7 11.7L33.1 36m0-24.4L8.7 36" transform="matrix(1.0175 0 0 1.0201 -.5 -3.2)"/></g></svg>