<svg xmlns="http://www.w3.org/2000/svg" xmlns:xlink="http://www.w3.org/1999/xlink" viewBox="0 0 64 64"><g fill="#59f" transform="translate(3.3 .5) scale(.11151)"><use xlink:href="#a" x="-887.8"/><path d="M455.5 401.7s-48.9 58.7-135.6 58a182 182 0 0 1-5-363.8c67-2.8 114.9 35 114.9 35l-32-39.3V31L317.4 0 295 51.7h-12.3a221.4 221.4 0 0 0-40 3.6l-12.2 2.2L186 2.9l-82.9 50.3 23.1 67-12.3 16a221.1 221.1 0 0 0-19.2 29.5l-9.1 17-64.3-2.5L0 285l65 27.3 4.5 23.9a220.7 220.7 0 0 0 8.4 31.5l6.3 18.1-43.8 47.5 63.6 72 56-25.6 5 3.5a221.2 221.2 0 0 0 41.6 22.4l9.8 4-1.6 52.8 86.7 2.7 15.1-50.9 6.2-1.4a221 221 0 0 0 49.3-17.4l28.5 30.2 56.4-52-11-43z"/></g><defs><path id="a" d="M1160.8 313.5c-3.7 16.1-3 20 4.6 23.2 4.6 2 24.3 3.5 46.8 3.5 82.6 0 93.1-2.5 98.4-21.8 2.6-9.5-.1-16.5-6.8-19-7-2.5-7-2.5-43.9-2.8h-64.7c-43.2 0-60.5-2.5-73.5-10.2-14.4-8.8-17-27.4-8.4-59.4 11.5-42.2 28.4-60.1 64.3-68.2 20.3-5 48.2-6.7 99.5-6.7 82.3 0 100.7 2.1 114.6 13 13.2 11 14.5 25.3 5 60.5H1327c5.5-20.4-.7-23.2-46.8-23.2-22.8 0-53.6.7-65 1.4-19.4 1.4-27 6.3-30.7 19.7-2.7 9.8.5 16.1 10 18.6 4 1 5.3 1.4 28.4 1.7h66.4c6.3 0 37.7 1.1 49.4 1.8 44.1 2.1 56.3 21.8 43.5 68.9-11.8 43.2-29.6 62.2-66 69.6-18.7 3.9-54 6-105 6-81.3 0-98.7-1.8-116.6-12.3-12.5-7-15-25-7.4-52.8a183.1 183.1 0 0 1 3.5-11.6h70z"/></defs></svg>