<svg height="64" viewBox="0 0 64 64" width="64" xmlns="http://www.w3.org/2000/svg"><filter id="a"><feGaussianBlur stdDeviation="1 1"/></filter><g stroke="#333" stroke-linejoin="round"><path d="m12.47 57.66-2.61-.28-5.42-.35c-1.48-.1-2.4-1.68-1.74-3.01l2.57-5.18.92-2.08c1.56-3.44 3.67-7.81 7.58-10.07 3.36-1.94 6.84-2.73 9.92-2.43-1.82-2.52-2.85-5.93-2.85-9.82 0-3.16 1.27-5.89 2.59-8.1 1.27-2.11 3.05-4.45 4.35-6.3l.35-.52 2.22-3.46c.83-1.29 2.72-1.27 3.53.03l2.5 4.04c.95 1.42 2.78 3.78 4.16 6.07 1.41 2.37 2.73 5.22 2.73 8.24 0 3.58-.85 6.73-2.41 9.16a13.89 13.89 0 0 1 -.44.65c3.07-.31 6.54.47 9.92 2.43 3.92 2.26 6.03 6.63 7.57 10.04l3.42 7.35a2.09 2.09 0 0 1 -1.75 2.96l-5.7.36-2.25.24c-3.76.37-8.6.72-12.51-1.54-3.37-1.94-5.79-4.56-7.07-7.38-1.27 2.82-3.71 5.43-7.08 7.38-3.9 2.26-8.76 1.91-12.51 1.54zm19.92-18.37a9.93 9.93 0 0 1 .37-.6c-.24.02-.48.03-.72.03a10.78 10.78 0 0 1 -.7-.03c.13.19.26.4.38.6a11.67 11.67 0 0 1 .33.63c.1-.21.22-.42.34-.63z" fill="#333" stroke-width=".7"/><g stroke-width=".1" transform="matrix(.64 0 0 .64 1.29 .78)"><path d="m33.6 36.58c0-5.87 3.57-11.33 7.09-16.23l2.12-2.91 4.97-7.47 7.28 10.4c3.5 4.87 7.08 10.34 7.08 16.2 0 11.73-6.42 19-14.28 19-7.85 0-14.26-7.28-14.26-19z" fill="#f00"/><path d="m17.59 85.22-3.58-.39-9.08-.58 3.8-7.66 1.68-3.81c2.49-5.49 5.44-11.31 10.52-14.24 10.16-5.86 19.67-3.95 23.61 2.85 3.93 6.8.83 15.99-9.34 21.86-5.08 2.93-11.6 2.58-17.61 1.98z" fill="#fffc00"/><path d="m60.55 83.24c-9.52-5.48-12.85-13.9-10-20.55a13.16 13.16 0 0 1 .66-1.3c.25-.42.51-.83.8-1.22 2.32-3.1 5.95-4.91 10.29-5.1 3.79-.16 8.09.93 12.51 3.48 6.61 3.8 9.95 13.51 12.72 19.16l3.55 6.6-6.46.3-1.03.08c-3.79.33-8.04.9-11.74.96-3.79.06-7.78-.35-11.31-2.39z" fill="#00ff03"/><g filter="url(#a)" transform="scale(1 -1)"><path d="m18.99-85.69-3.58.39-9.08.58.04.07 8.04 3.07 3.42 1.14c5.7 1.95 11.8 4.33 15.19 9.11 3.88 5.45 5.22 10.92 4.48 15.47 3.67-.79 6.64-2.88 8.44-5.99 3.93-6.8.83-15.99-9.34-21.86-5.08-2.93-11.6-2.58-17.61-1.98z" fill-opacity=".17" stroke-opacity=".17"/><path d="m77.09-85.22 3.58.39 9.08.58-.04.07-8.04 3.07-3.42 1.14c-5.7 1.95-11.8 4.33-15.19 9.11-3.88 5.45-5.22 10.92-4.48 15.47-3.67-.79-6.64-2.88-8.44-5.99-3.93-6.8-.83-15.99 9.34-21.86 5.08-2.93 11.6-2.58 17.61-1.98z" fill-opacity=".17" stroke-opacity=".17"/><path d="m33.6-37.99c0 1.78.33 3.52.88 5.22 2.02-7.51 7.26-11.93 13.38-11.93s11.37 4.43 13.39 11.94c.56-1.7.88-3.44.88-5.22 0-11.73-6.42-19-14.28-19-7.85 0-14.26 7.28-14.26 19z" fill-opacity=".2" stroke-opacity=".2"/></g></g></g></svg>