<svg xmlns="http://www.w3.org/2000/svg" viewBox="0 0 64 64"><g stroke-linecap="round" stroke-linejoin="round"><g stroke="#4c4c4c"><g fill="none"><path fill="#4c4c4c" stroke-width="1.3760000000000001" d="M27.7 59a4.4 4.4 0 118.5-2.3 4.4 4.4 0 01-3 5.4 4.4 4.4 0 01-5.5-3.1z"/><path stroke-width="3.44" d="M10.9 57.8h16.7"/><path fill="#00ff03" stroke-width="1.3760000000000001" d="M32.7 60.6a3 3 0 002-3.5 3 3 0 00-3.5-2 3 3 0 00-2 3.5 3 3 0 003.5 2z"/><path stroke-width="3.44" d="M10.9 57.8h16.7m8.7 0H53"/></g><path fill="#d5fff6" stroke-width="3.44" d="M25.4 3.6a25.4 25.4 0 11-18 31 25.4 25.4 0 0118-31z"/></g><path fill="#fff" d="M39.3 13.1a.8.8 0 00-1 0L24.7 23.5c-.2.1-.3.3-.3.5l.2.6 3.2 3.2a.8.8 0 00.5.3.8.8 0 00.6-.3L39.4 14a.8.8 0 000-1z"/><g stroke="#4c4c4c"><path fill="#4c4c4c" stroke-width="1.72" d="M32 6.7a.8.8 0 00.7-.8V2.8h-1.5v3.1a.8.8 0 00.8.8zm0 42.7a.8.8 0 01.7.8v3.1h-1.5v-3.1a.8.8 0 01.8-.8zM13.4 39.1v-.4a.8.8 0 00-1.1-.3L9.6 40l.8 1.4 2.8-1.6a.8.8 0 00.3-.7zm-3-11a.8.8 0 00-.7-.9H6.6v1.6h3.2c.4 0 .8-.3.8-.8zm-1-12l2.8 1.6a.8.8 0 001.1-.3l.1-.4a.8.8 0 00-.4-.7l-2.7-1.6zm9-9.6l1.7 2.8a.8.8 0 001.4-.4.8.8 0 000-.4l-1.7-2.8zM53.4 28a.8.8 0 01.8-.8h3.2v1.6H54a.8.8 0 01-.8-.8z"/><path fill="#fff" stroke-width="2.236" d="M27.6 11.9a16.8 16.8 0 0120.6 11.9 16.8 16.8 0 01-11.9 20.5 16.8 16.8 0 01-20.6-11.8 16.8 16.8 0 0111.9-20.6z"/></g><g fill="#4c4c4c"><path stroke="#4c4c4c" stroke-width="1.72" d="M54.3 16l-2.7 1.7a.8.8 0 01-1.1-.3l-.1-.4a.8.8 0 01.4-.7l2.7-1.6zm-9-9.5l-1.6 2.8a.8.8 0 01-1 .3.8.8 0 01-.3-1.1L44 5.7z"/><path d="M46.8 13.2a.8.8 0 00-1 0L32.1 23.5l-.3.5a.7.7 0 00.3.6l3.2 3.2a.8.8 0 00.5.2.8.8 0 00.6-.3L47 14.2a.8.8 0 000-1z"/><path d="M27.3 28.1a4.6 4.6 0 019.1 0 4.6 4.6 0 11-9.1 0zm6.8 0a2.3 2.3 0 00-2.3-2.2 2.3 2.3 0 100 4.5c1.3 0 2.3-1 2.3-2.3z"/><path stroke="#4c4c4c" stroke-width="1.72" d="M18.6 49.5l1.6-2.7a.8.8 0 011-.3c.3.1.5.4.5.7a.8.8 0 01-.1.4L20 50.3z"/></g></g></svg>