<svg xmlns="http://www.w3.org/2000/svg" viewBox="0 0 64 64"><path fill="#214478" d="M9.68 48.74a.66.66 0 0 1-.6-.95l2.06-4.21a.66.66 0 0 1 1.18.57l-2.06 4.23a.66.66 0 0 1-.58.36zm8.44 0a.66.66 0 0 1-.6-.95l2.06-4.21a.66.66 0 1 1 1.18.57l-2.05 4.23a.66.66 0 0 1-.6.36zm20.85 0a.66.66 0 0 1-.6-.95l2.06-4.21a.66.66 0 1 1 1.18.57l-2.06 4.23a.66.66 0 0 1-.58.36zm8.44 0a.66.66 0 0 1-.6-.95l2.07-4.21a.66.66 0 1 1 1.19.57L48 48.38a.66.66 0 0 1-.6.36zm-41.05 6.8a.66.66 0 0 1-.6-.96l2.07-4.22a.66.66 0 1 1 1.19.57l-2.07 4.23a.66.66 0 0 1-.6.37zm8.45 0a.66.66 0 0 1-.6-.96l2.07-4.22a.66.66 0 1 1 1.18.57l-2.06 4.23a.66.66 0 0 1-.59.37zm20.84 0a.66.66 0 0 1-.6-.96l2.07-4.22a.66.66 0 1 1 1.19.57l-2.07 4.23a.66.66 0 0 1-.6.37zm8.45 0a.66.66 0 0 1-.6-.96l2.07-4.22a.66.66 0 1 1 1.18.57l-2.05 4.23a.66.66 0 0 1-.6.37zM27.4 37.76h-3.5l-1.88 3.85a.66.66 0 0 1-1.18-.58l1.6-3.27h-7l-1.86 3.85a.66.66 0 0 1-1.2-.58l1.6-3.27h-.7A12.3 12.3 0 0 1 1 25.48 12.3 12.3 0 0 1 17.9 14.1a17.33 17.33 0 0 1 33.37 7.66 8.36 8.36 0 1 1 3.3 16H53.2l-1.88 3.85a.66.66 0 1 1-1.18-.58l1.6-3.27h-6.99l-1.87 3.85a.66.66 0 1 1-1.2-.58l1.6-3.27h-7.4z"/><path fill="#fc0" d="M20.56 60.74a.66.66 0 0 1-.57-.98l7.82-14.54h-3.13a.66.66 0 0 1-.59-.95l3.3-6.5h8.47l-1.48 2.55h4.26a.66.66 0 0 1 .49 1.12l-18.08 19.1a.66.66 0 0 1-.49.2z"/></svg>