<svg xmlns="http://www.w3.org/2000/svg" viewBox="0 0 64 64"><g fill="#214478"><path stroke="#59f" stroke-linejoin="round" stroke-width="3.76" d="M33.93 4.91a16.3 16.3 0 0 0-15.15 10.32 11.56 11.56 0 0 0-15.9 10.7c0 6.37 5.18 11.55 11.55 11.55h.66l-1.5 3.08a.62.62 0 0 0 1.12.54l1.76-3.62h6.57l-1.5 3.08c-.15.3-.03.68.28.83.3.15.68.02.83-.29l1.77-3.62h3.28l-3.1 6.11a.62.62 0 0 0 .55.9h2.95l-7.36 13.68a.62.62 0 0 0 1 .72l17-17.96a.62.62 0 0 0-.45-1.04h-4l1.38-2.41h6.98l-1.5 3.08a.62.62 0 1 0 1.1.54l1.77-3.62h6.57l-1.5 3.08a.62.62 0 1 0 1.11.54l1.77-3.62h1.3a7.86 7.86 0 1 0-3.1-15.05c.02-.41.04-.82.04-1.23A16.3 16.3 0 0 0 33.93 4.9zm-20.98 37.7a.62.62 0 0 0-.53.34l-1.94 3.97a.62.62 0 1 0 1.11.55l1.94-3.98a.62.62 0 0 0-.58-.89zm7.94 0a.62.62 0 0 0-.53.34l-1.94 3.97a.62.62 0 1 0 1.12.55l1.94-3.98a.62.62 0 0 0-.59-.89zm19.6 0a.62.62 0 0 0-.52.34l-1.94 3.97a.62.62 0 1 0 1.11.55l1.94-3.98a.62.62 0 0 0-.58-.89zm7.95 0a.62.62 0 0 0-.53.34l-1.94 3.97a.62.62 0 0 0 1.12.55l1.94-3.98a.62.62 0 0 0-.59-.89zm-38.6 6.37a.62.62 0 0 0-.53.35L7.37 53.3a.62.62 0 0 0 .55.9c.23 0 .45-.13.56-.35l1.94-3.97a.62.62 0 0 0-.58-.9zm7.94 0a.62.62 0 0 0-.53.35L15.3 53.3a.62.62 0 0 0 1.11.55l1.94-3.97a.62.62 0 0 0-.58-.9zm19.6 0a.62.62 0 0 0-.53.35l-1.93 3.97a.62.62 0 0 0 1.11.55l1.94-3.97a.62.62 0 0 0-.58-.9zm7.95 0a.62.62 0 0 0-.53.35l-1.94 3.97a.62.62 0 1 0 1.12.55l1.93-3.97a.62.62 0 0 0-.58-.9z"/><path d="M11.04 47.81a.62.62 0 0 1-.56-.9l1.94-3.96a.62.62 0 0 1 1.11.54l-1.94 3.98a.62.62 0 0 1-.55.34zm7.94 0a.62.62 0 0 1-.56-.9l1.94-3.96a.62.62 0 1 1 1.11.54l-1.93 3.98a.62.62 0 0 1-.56.34zm19.61 0a.62.62 0 0 1-.56-.9l1.94-3.96a.62.62 0 1 1 1.11.54l-1.94 3.98a.62.62 0 0 1-.55.34zm7.94 0a.62.62 0 0 1-.56-.9l1.94-3.96a.62.62 0 1 1 1.12.54l-1.94 3.98a.62.62 0 0 1-.56.34zM7.92 54.2a.62.62 0 0 1-.56-.9l1.94-3.97a.62.62 0 1 1 1.12.54l-1.94 3.98a.62.62 0 0 1-.56.34zm7.95 0a.62.62 0 0 1-.56-.9l1.94-3.97a.62.62 0 1 1 1.11.54l-1.94 3.98a.62.62 0 0 1-.55.34zm19.6 0a.62.62 0 0 1-.56-.9l1.94-3.97a.62.62 0 1 1 1.12.54l-1.94 3.98a.62.62 0 0 1-.56.34zm7.95 0a.62.62 0 0 1-.56-.9l1.94-3.97a.62.62 0 1 1 1.11.54l-1.93 3.98a.62.62 0 0 1-.56.34zM27.7 37.48h-3.28l-1.77 3.62a.62.62 0 0 1-1.11-.54l1.5-3.08h-6.57l-1.76 3.62a.62.62 0 0 1-1.12-.54l1.5-3.08h-.66A11.56 11.56 0 0 1 2.88 25.93a11.56 11.56 0 0 1 15.9-10.7 16.3 16.3 0 0 1 31.38 7.2 7.86 7.86 0 1 1 3.11 15.05h-1.3L50.2 41.1a.62.62 0 1 1-1.11-.54l1.5-3.08h-6.57l-1.76 3.62a.62.62 0 1 1-1.12-.54l1.5-3.08h-6.97z"/></g><path fill="#fc0" d="M21.28 59.09a.62.62 0 0 1-.54-.92L28.1 44.5h-2.95a.62.62 0 0 1-.55-.9l3.1-6.11h7.97l-1.39 2.4h4a.62.62 0 0 1 .46 1.05l-17 17.96a.62.62 0 0 1-.46.2z"/></svg>