<svg xmlns="http://www.w3.org/2000/svg" viewBox="0 0 64 64"><defs><radialGradient id="a" cx="55.1" cy="38.2" r="159.3" fx="55.1" fy="38.2" gradientTransform="matrix(.67067 0 0 .35047 -6.8 -4.5)" gradientUnits="userSpaceOnUse" spreadMethod="pad"><stop offset="0" stop-color="#fff"/><stop offset=".4" stop-color="#24b2e7"/><stop offset="1" stop-color="#3d4199"/></radialGradient></defs><path fill="url(#a)" d="M13 41.5C9 39.6 5 36.8 2.5 33a40 40 0 0 1 2.6-7.6c2 3.4 5.3 5.9 8.8 7.6a57 57 0 0 0-1.1 8.5zm44-7.1-.5.7h.7l-.2-.7zm.8-1.2.4 1.8h.6c.2-1.4.3-2.9.3-4.3a15.8 15.8 0 0 1-1.3 2.5zM43.3 43.8c-3.1 1-6.4 1.7-9.7 2-1.2 3.3 2.8 3.6 7.5 0zm11.4-19.4c1.2 2.3 2.2 4.8 2.8 7.4a14.4 14.4 0 0 0 1.4-4.1c-.4-3.3-1.3-6.5-2.8-9.4 0 2-.4 4.2-1.4 6zm-9.4 8.5c.6 2.7 1 5.4 1.1 8a29 29 0 0 1 8.5-5.4l1.9-2.5c-.6-2.7-1.5-5.2-2.7-7.7a21.2 21.2 0 0 1-8.8 7.6zM39.8 35c0 2.5-1.3 4.4-4 7.5a13 13 0 0 0-1.6 2.2A39.4 39.4 0 0 0 45.4 42a.5.5 0 0 1 .1 0 54 54 0 0 0-1-8.5 29 29 0 0 1-4.7 1.6zm-9.6.4c2.5 0 4.9-.3 7.2-.8a45 45 0 0 0 2-2.6l.3 2a31 31 0 0 0 4.5-1.6 50 50 0 0 0-3-9 27.1 27.1 0 0 1-11 2.6v9.4zm0 1v5.2a36.4 36.4 0 0 0 6.1-5.7c-2 .4-4 .5-6.1.6zm-16.3 5.5a39 39 0 0 0 10.9 2.8 28 28 0 0 0 4.4-2.5v-5.8a36 36 0 0 1-14.2-3 41 41 0 0 0-1 8.5zm0 1v3.6c2.8.3 5.9 0 9-1a39.6 39.6 0 0 1-9-2.6zm-1-.4a25.4 25.4 0 0 1-10.6-8.2 46.9 46.9 0 0 0-.6 4.5A16.2 16.2 0 0 0 13 46.4v-3.8zm16.8-27.1c-2.7 0-5-.7-6.7-1.9-1.8-1.1-2.8-2.6-2.8-4.3s1-3.2 2.7-4.3a12.6 12.6 0 0 1 13.5.1c1.7 1 2.7 2.5 2.7 4.2 0 1.6-1 3.1-2.7 4.3-2 1.3-4.3 2-6.7 1.9zm19.8-5.9.2.7 1.5 1-1.7-1.7zM36.7 4.1c1.1.6 2 1.6 2.8 2.8 3.1.3 6.1 1.3 9 2.7a10 10 0 0 0-.7-1.5 29.3 29.3 0 0 0-8.7-4.7c-.8 0-1.7.3-2.4.7zm-6.5-1.8c1.9 0 3.8.4 5.5 1.2a6 6 0 0 1 1.4-.7 30 30 0 0 0-7-1zm10.6 20.3a45.3 45.3 0 0 0-4.6-7.6c-1.8 1-3.9 1.5-6 1.6V25a26.1 26.1 0 0 0 10.6-2.4zm6.8-5.8a33 33 0 0 0-8-5.1 7.3 7.3 0 0 1-2.4 2.8 46.7 46.7 0 0 1 4.5 7.7 14.5 14.5 0 0 0 5.9-5.4zm.5-.9c.7-1.5 1-3.3.7-5a26.7 26.7 0 0 0-8.9-3c.3.9.3 1.8.1 2.8a34.6 34.6 0 0 1 8.1 5.2zm.8.7a29.7 29.7 0 0 1 5.2 6.6 11.5 11.5 0 0 0 .7-7.3 11 11 0 0 0-4.9-4.4 9.6 9.6 0 0 1-1 5.1zm4.7 7.7a28.3 28.3 0 0 0-5.2-6.8 15.5 15.5 0 0 1-6.2 5.6 62 62 0 0 1 3 8.9 19.7 19.7 0 0 0 8.4-7.7zM9.9 9.5a11 11 0 0 0-.2.7l-1.5 1L10 9.5zm12.8-5.4A7.9 7.9 0 0 0 20 6.9a26 26 0 0 0-9 2.7 9 9 0 0 1 .7-1.5 29.2 29.2 0 0 1 8.8-4.7c.7 0 1.6.3 2.3.7zm6.5-1.8a13 13 0 0 0-5.5 1.2 6.2 6.2 0 0 0-1.4-.7 30 30 0 0 1 6.9-1zM18.6 22.6a45.7 45.7 0 0 1 4.6-7.6c1.9 1 3.9 1.5 6 1.5V25a26.1 26.1 0 0 1-10.6-2.4zm-6.8-5.8c2.4-2 5-3.8 8-5.2a7.4 7.4 0 0 0 2.5 2.8 46.6 46.6 0 0 0-4.6 7.8 14.5 14.5 0 0 1-5.9-5.4zm-.5-.9c-.7-1.5-1-3.3-.7-5 2.8-1.5 5.8-2.5 8.9-3a5.1 5.1 0 0 0 0 2.7 34.6 34.6 0 0 0-8.3 5.3zm-.8.7a29.5 29.5 0 0 0-5.3 6.6c-1-2.3-1.2-4.9-.7-7.3 1.5-2.4 2.5-3 5-4.5-.2 1.8.2 3.5 1 5.2zm4.7 15.8c.7-3 1.7-6 3-8.9 3.4 1.6 7.1 2.5 11 2.5v9.5a36 36 0 0 1-14-3.1zm-9.5-8c1.4-2.6 3.2-4.9 5.3-6.9a16 16 0 0 0 6.2 5.6 49 49 0 0 0-3 8.9 19.7 19.7 0 0 1-8.5-7.7zm-3.9 7.4C1.1 30.5.7 29.1.4 27.7c.4-3.3 1.4-6.5 2.8-9.4 0 2 .6 4.2 1.5 6A33.6 33.6 0 0 0 2 31.8zm-.3 1.4a50 50 0 0 0-.7 4C.4 35.1.2 33 .2 30.7a16.4 16.4 0 0 0 1.3 2.5z" transform="translate(-.1 -.1)"/><path fill="#5fbcd3" d="M39.2 33.5C26.2 52 7.2 51.8.8 38.7c2 10.1 9.3 18.4 19 21.8C38.8 67 50.8 53 58 50a4.3 4.3 0 0 0-4.2-.4 32 32 0 0 1 8-4.8 8 8 0 0 0-7.4.6 25.4 25.4 0 0 1 8.9-5c-3-1.7-5.7-1.2-8.8.7 2.4-1.9 4.8-3.3 7.2-4C53.5 34 47 42.5 41 47.2c-5.9 4.7-10.7 3-5.3-3.1 3.8-4.3 4.8-6.2 3.5-10.5z"/><path fill="#3771c8" d="M39.2 33.5C26.2 52 7.2 51.8.8 38.7A29.6 29.6 0 0 0 6 50.2c11.3 7.2 24-2 33.2-16.8zM57.9 50a4.3 4.3 0 0 0-4.2-.5 64.3 64.3 0 0 1-9.3 6.4c4.9-1.5 9.3-6.4 13.5-6zm5.5-9.7c-3.1-1.7-5.9-1.2-9 .7-4.7 3.4-9.5 8.4-15 11.1 8.5-2.8 15.2-12.8 23.8-11.9zm-1.7 4.3c-2.4-1-5.2-.7-7.3.7-4 3-8.2 6.7-12.4 9 7.1-2.7 13.2-10.2 19.7-9.7zM41 47.1c-5.9 4.7-10.7 3-5.3-3.1-7.8 8.2-1.4 10 5.3 4.5 4.8-3.8 10-11 16.1-12-6 .5-11.3 6.8-16.1 10.6z"/><path fill="none" stroke="#025" stroke-linejoin="round" stroke-width=".8" d="M39.5 33.4a45.8 45.8 0 0 1-5 6.2c-7 6.8-17.8 11.2-26.7 6.4a16 16 0 0 1-5.5-5c-.5-.7-1-1.5-1.3-2.3 4 21 25.8 28.7 44 19.3 5.5-2.9 8.3-5.2 13-8a5 5 0 0 0-.8-.5 4.1 4.1 0 0 0-2.1-.2 5.2 5.2 0 0 0-1.2.3c2.8-2 5.4-4 8-5a9.2 9.2 0 0 0-2-.5l-2.8.1-1.7.7-.9.5a26.4 26.4 0 0 1 8.9-5.1 7.4 7.4 0 0 0-6.6-.5 14 14 0 0 0-2.2 1.2c2.4-1.8 4.8-3.3 7.2-4a9.5 9.5 0 0 0-4.6-.6h.1c-2.8.3-5.5 1.7-7.9 3.6-4.4 2.8-8.3 9.5-14 9.7a3 3 0 0 1-.6 0c-1.5 0-2.2-1-1.2-2.9A19 19 0 0 1 36 44c3.8-4.3 4.8-6.2 3.5-10.5z"/></svg>