<svg xmlns="http://www.w3.org/2000/svg" viewBox="0 0 64 64"><defs><path id="a" d="M51.3 5a1 1 0 0 0-1 1 1 1 0 0 0 1 1 1 1 0 0 0 1-1 1 1 0 0 0-1-1"/></defs><g fill="#f9f9f9" stroke="#333" stroke-linejoin="round" stroke-width="2"><path d="M1 1h62v62H1z"/><path d="M1 1h62v10.5H1z"/></g><g fill="#333"><use href="#a"/><use x="-5.4" href="#a"/><path d="M56.7 5a1 1 0 0 0-1 1 1 1 0 0 0 1 1 1 1 0 0 0 1.1-1 1 1 0 0 0-1-1z"/></g><path stroke="#777" stroke-width="2" d="M20.8 30.7H55m-46 0h8.2m3.6-12.4H55m-46 0h8.2m3.6 6.2H55m-46 0h8.2M20.8 37H55M9 37h8.2m3.6 6.2H55m-46 0h8.2m3.6 6.2H55m-46 0h8.2" transform="matrix(.9658 0 0 1 1 3.9)"/></svg>