<svg xmlns="http://www.w3.org/2000/svg" viewBox="0 0 64 64"><defs><radialGradient id="a" cx="32.07" cy="31.92" r="32" fx="32.07" fy="31.92" gradientUnits="userSpaceOnUse"><stop offset="0" stop-color="#aae0ee"/><stop offset="1" stop-color="#4ec5e3"/></radialGradient></defs><circle cx="32.07" cy="31.92" r="32" fill="url(#a)"/><path fill="#a50" d="M59.57 15.52c-5-3.6-6.9-1.8-7.6-.3a2 2 0 0 1-1.8 1.1h-.2a2 2 0 0 1-1.9-2c0-4.2 2.7-8.4 2.7-8.4a32.1 32.1 0 0 1 8.8 9.6m4.5 16.4a32 32 0 0 1-1.9 10.8c-1-1.7-1.4-3.8-1.5-5.6-.1-2-2-3.5-4-3.2a5 5 0 0 1-5.7-4.3 19.4 19.4 0 0 1-.2-3.4s.4-4.9 2.8-7.2a4 4 0 0 1 1.2-1.1 2.5 2.5 0 0 1 1.8-.5c2.3.3 4 0 4 0a31.9 31.9 0 0 1 3.5 14.5m-26.8-26.7-3.9 5c-.5-3.8-5-7.1-3.9-7 6 .5 7.8 2 7.8 2m-8 5.3a3.2 3.2 0 0 1-1.3 4.8 26.1 26.1 0 0 0-8.5 5.6 3 3 0 0 1-3 1c-1.5-.3-3.4-.3-4.5 1.6-2 3.6 5.8 7.6 5.4 12a3.6 3.6 0 0 0-2.1-2.4c-2.8-1.2-5.2-3-6.8-5.9-3.4-6.2-1-13.6 1.4-18.3a32 32 0 0 1 10.3-6.6s5.3 3.3 9 8.3zm7.5 31c3 1.7 3.7 5.8 1.4 8.5l-4 4.7-5 5.3-3.3 3.3c-3-4.3-2-12.5-2-12.5l-3-2.2a7.6 7.6 0 0 1-3.3-7 17 17 0 0 0-.2-6c2.6-.8 5.3-1.2 7.2-1.4a5 5 0 0 1 4 1.3c2 2 5.4 4.2 8.2 6"/><path fill="#00d400" stroke="#000" d="M56.68 3.5H26.12a3.82 3.82 0 0 0-3.82 3.82v22.92a3.82 3.82 0 0 0 3.82 3.82h6.84l7.09 7.02a1.91 1.91 0 0 0 2.7 0l7.1-7.09h6.83a3.82 3.82 0 0 0 3.82-3.81V7.32a3.82 3.82 0 0 0-3.82-3.82Z"/><path fill="#fff" stroke="#002" d="M51.38 9.97h-7.51a2.46 2.46 0 0 0-4.93 0h-7.52a2.46 2.46 0 0 0 0 4.93h12.2a15.15 15.15 0 0 1-2.46 6.53 13.2 13.2 0 0 1-2.47-2.78 2.48 2.48 0 0 0-4.31 2.47 16.4 16.4 0 0 0 2.83 3.45l-1.41.37a2.48 2.48 0 0 0 .61 4.93h.62a14.1 14.1 0 0 0 4.37-1.97 16.5 16.5 0 0 0 4.31 1.84l.62.13a2.48 2.48 0 0 0 .62-4.93 10 10 0 0 1-1.85-.8 20.95 20.95 0 0 0 3.63-9.24h2.65a2.46 2.46 0 0 0 0-4.93z"/></svg>