<svg xmlns="http://www.w3.org/2000/svg" viewBox="0 0 64 64"><path fill="#06f" stroke="#025" stroke-width="3" d="M55.6 2.5H8.4a5.9 5.9 0 0 0-5.9 5.9v35.4a5.9 5.9 0 0 0 5.9 5.9H19l11 11a3 3 0 0 0 4.2 0l11-11h10.6a5.9 5.9 0 0 0 5.9-5.9V8.4a5.9 5.9 0 0 0-5.9-5.9z"/><path fill="#fff" stroke="#fff" stroke-linejoin="round" stroke-width=".9" d="m20.3 31.6-.2-6.8h2q2 0 3.8-.4 1.7-.4 2.8-1.4 1-1 1-3t-1.2-3q-1.2-1.2-3.2-1.2T22.1 17q-1.2 1-1.2 3h-5q0-2.5 1-4.4 1-2 3.2-3 2-1 5-1 2.8 0 5 1 2 1 3.3 3 1.2 2 1.2 4.7 0 3-1.3 4.7-1.2 2-3.4 2.8-2 1-5 1V32zm2.4 9.3q-1.4 0-2.4-1t-1-2.2q0-1.3 1-2.2 1-1 2.4-1t2.4 1 1 2.2q0 1.3-1 2.2-1 1-2.4 1zm19.7-9.6-.6-20h5.8l-.6 20zm2.4 9.6q-1.5 0-2.5-1t-1-2.2q0-1.3 1-2.3t2.5-1q1.4 0 2.4 1t1 2.3-1 2.2q-1 1-2.4 1z"/></svg>