<svg xmlns="http://www.w3.org/2000/svg" viewBox="0 0 64 64"><path fill="#d38d5f" d="M20.5 41.8c2.3-1.5 2-6 2-7.1h19c0 1-.3 5.6 2 7L32 54.8z"/><path fill="#deaa87" d="M46.7 21c0 8.5-4.8 19-14.7 19S17.3 29.5 17.3 21 24 9.5 32 9.5 46.7 12.6 46.7 21z"/><path fill="#eec539" d="M56.2 64a3.1 3.1 0 003.1-3.1v-7c0-4.5-3.6-9.5-8-10.9l-6.5-2c-3.6 2.6-8.6 6.3-12.8 6.3s-9.2-3.7-12.8-6.4L12.8 43c-4.4 1.4-8 6.4-8 11v6.8A3.1 3.1 0 007.8 64z"/><path fill="#f60" d="M14.2 42.6V64h35.7V42.6l-4.2-1.4v10.3a1 1 0 01-.8 1 55.6 55.6 0 01-25.8 0 1 1 0 01-.8-1V41.2z"/><path fill="#deaa87" d="M17.8 22c-1.6-.3-2.6.5-2.6 2.2 0 2.2 2.1 7.5 4.3 4.2 2.3-3.4-1.7-6.3-1.7-6.3zM46 22c1.7-.3 2.8.5 2.8 2.2 0 2.2-2.3 7.5-4.7 4.2C41.6 25 46 22 46 22z"/><path fill="#7e5449" d="M20.4 17.7c-.4 1.1-.7 9.5-.7 9.5l-2-1.1-1-10.2zm23.2 0c.4 1.1.7 9.5.7 9.5l2.1-1.1 1-10.2z"/><path fill="#fedc3b" d="M32 2.2a15.5 15.5 0 00-15.5 15.5V20h31v-2.3A15.5 15.5 0 0032 2.2z"/><path fill="#d4aa00" d="M48.6 20H15.4c-.6 0-1.1-.6-1.1-1.2s.5-1 1-1h33.3c.7 0 1.2.4 1.2 1a1.1 1.1 0 01-1.1 1.1zm-21-9c-.6 0-1.1-.4-1.1-1V2.2a1.1 1.1 0 01.6-1c.1 0 2.5-1.2 5-1.2 2.4 0 4.8 1.2 4.8 1.2a1.1 1.1 0 01.7 1v7.6c0 .6-.5 1.1-1.1 1.1a1.1 1.1 0 01-1.1-1v-7c-.8-.2-2.1-.7-3.4-.7-1.2 0-2.5.4-3.3.8v7a1.1 1.1 0 01-1 1.1z"/></svg>