<svg xmlns="http://www.w3.org/2000/svg" xmlns:xlink="http://www.w3.org/1999/xlink" viewBox="0 0 64 64"><defs><path id="b" d="m60 13 1 1 1 1-2 2-2 1-2 1-1 4v8l1 5-1 4v11h-2l-1-1h-2l-1 1h-8l-3-2-2-4a38 38 0 0 1-2-9v-5l3-3 1-1 1-3h3l1-1h1l1 1 2 1 3 1v1h2v-1l-1-5 1-2-1-3 1-2v-1h8zM45 28h-3l-1 2-1 2v1l-1 2 1 1-1 1v7a13 13 0 0 1 3 3l1 1h2l4-2 3-4v-2l-1-4-2-4-2-4h-1z"/></defs><circle cx="32" cy="32" r="32" fill="#f60"/><g fill="#fd5" stroke="#520" stroke-linejoin="round" stroke-width="3"><use xlink:href="#a" stroke-linecap="round"/><use xlink:href="#b"/></g><g fill="#fd5"><use xlink:href="#a"/><use xlink:href="#b"/></g><defs><path id="a" d="m6 26 2 2v3l-1 4 1 2v12l1-1 1 2 2 1h2l7-2 2 1 4 1h5l2-1v-2l-5-4-1 1-1-6V24l-1-1-2 1-3-2-3 2v1h5l2 2v1l-1 1v9l-2 5-4 3h-3l-3-1-1-7v-5l-1-1 1-3v-3l1-1-1-1-2-1-2-1H3l-1 2 1 1 1 1h2"/></defs></svg>