<svg xmlns="http://www.w3.org/2000/svg" xmlns:xlink="http://www.w3.org/1999/xlink" viewBox="0 0 64 64"><defs><path id="a" d="M51.3 5a1 1 0 00-1 1 1 1 0 001 1 1 1 0 001-1 1 1 0 00-1-1z"/><path id="b" d="M56.7 5a1 1 0 00-1 1 1 1 0 001 1 1 1 0 001.1-1 1 1 0 00-1-1z"/></defs><g stroke="#4d4d4d"><path fill="#e7ebff" stroke-width="1.2" d="M.6.6h38.5v38.5H.6z"/><path fill="#f9f9f9" stroke-width="1.1" d="M.6.6h38.5v6.5H.6z"/></g><g fill="#4d4d4d" transform="scale(.62)"><use xlink:href="#a"/><use x="-5.4" xlink:href="#a"/><use xlink:href="#b"/></g><g stroke="#4d4d4d"><path fill="#e7ebff" stroke-width="1.2" d="M12.8 12.8h38.4v38.4H12.8z"/><path fill="#f9f9f9" stroke-width="1.1" d="M12.8 12.8h38.4v6.5H12.8z"/></g><g fill="#4d4d4d" transform="matrix(.62 0 0 .62 12.2 12.2)"><use xlink:href="#a"/><use x="-5.4" xlink:href="#a"/><use xlink:href="#b"/></g><g stroke="#4d4d4d"><path fill="#e7ebff" stroke-width="1.2" d="M25 25h38.4v38.4H24.9z"/><path fill="#f9f9f9" stroke-width="1.1" d="M25 25h38.4v6.4H24.9z"/></g><g fill="#4d4d4d" transform="matrix(.62 0 0 .62 24.3 24.3)"><use xlink:href="#a"/><use x="-5.4" xlink:href="#a"/><use xlink:href="#b"/></g></svg>