<svg xmlns="http://www.w3.org/2000/svg" viewBox="0 0 64 64"><path fill="#082947" d="M3.5 64L.7 61.2l6-6L9.5 58z"/><path fill="#98d9d5" d="M15.8 54.5l-6.7 6.8-2.8-2.8 5.7-7.7z"/><path fill="#c1e8e6" d="M13 51.7l-6.8 6.8-2.8-2.9 6.8-6.7z"/><path fill="#185f8d" d="M21.4 37.6l-9.4 15 4.8 4.8L28 46z"/><path fill="#4284b2" d="M12 52.7L7.3 48l11.3-11.3 5.7 3.7z"/><path fill="#6da8d6" d="M38.4 24.4l-15 17L29 47l15-15z"/><path fill="#9ec8e8" d="M39.3 25.4l-16 16-5.6-5.7 15-15z"/><path fill="#185f8d" d="M56.3 19.8L44 32l-5.6-5.7L50 10.8l6.6 6.6z"/><path fill="#082947" d="M63.3 12.7l-4.2 4.2-2.4.5-5.6-5.6L57.6 7z"/><path fill="#4284b2" d="M52 12.7L38.4 26.3l-5.7-5.6L46.4 7z"/><path fill="#274b6d" d="M57.6 7L52 12.8l-5.6-5.6L52 1.3z"/><path fill="#98d9d5" d="M28.5 19.3l-2.8-2.8L42 0l17 17-2.9 2.8-14-14.2z"/></svg>