<svg xmlns="http://www.w3.org/2000/svg" xmlns:xlink="http://www.w3.org/1999/xlink" viewBox="0 0 64 64"><linearGradient id="a" gradientUnits="userSpaceOnUse"><stop offset="0" stop-color="#b3b3b3"/><stop offset=".4" stop-color="#fff"/><stop offset=".8" stop-color="#ccc"/><stop offset="1" stop-color="#999"/></linearGradient><linearGradient id="c" x1="82.5" x2="89.9" y1="962.4" y2="969.8" gradientTransform="matrix(1.15 .15 .15 1.15 -157 -1085.4)" xlink:href="#a"/><linearGradient id="e" x1="738.9" x2="749.3" y1="632.1" y2="632.1" gradientTransform="matrix(.91 .91 -.7 .7 -154.3 -1070.9)" gradientUnits="userSpaceOnUse"><stop offset="0" stop-color="#333"/><stop offset=".4" stop-color="#666"/><stop offset=".8" stop-color="#333"/><stop offset="1" stop-color="#1a1a1a"/></linearGradient><radialGradient id="b" cx="-84.1" cy="857.7" r="97" gradientTransform="matrix(.36 0 0 .41 129.4 -326)" gradientUnits="userSpaceOnUse"><stop offset="0" stop-color="#ffd42a"/><stop offset="1" stop-color="#f3361a"/></radialGradient><linearGradient id="d" x1="8.8" x2="16.2" y1="1036.2" y2="1043.5" gradientTransform="matrix(1.15 .15 .15 1.15 -157 -1085.4)" xlink:href="#a"/><path fill="url(#b)" stroke="#f60" stroke-linejoin="round" stroke-opacity=".7" d="M110 22.4l17.5-1.4-15.8 7.4 15.8 7.5-17.4-1.4 10 14.4-14.4-10 1.4 17.4-7.5-15.7L92 56.3 93.5 39 79.1 49l10-14.4-17.4 1.4 15.7-7.5L71.7 21 89 22.4 79 8l14.4 10L92.1.4l7.5 15.8L107 .5 105.7 18 120 8z" transform="matrix(.48 0 0 .48 1 1)"/><path fill="#241c1c" stroke="#333" stroke-width="1.632" d="M47.5 11.3l4.6 4.6L6.8 61.3l-4.6-4.6z"/><path fill="url(#c)" d="M96.8 21.4L76.1 42l9.6 9.6L106.4 31z" transform="matrix(.48 0 0 .48 1 1)"/><path fill="url(#d)" d="M23 95.2L2.3 115.9l9.6 9.6 20.7-20.7z" transform="matrix(.48 0 0 .48 1 1)"/><path fill="url(#e)" d="M76.2 42.3l9.5 9.4-53.1 53-9.5-9.4z" transform="matrix(.48 0 0 .48 1 1)"/></svg>