<svg height="64" width="64" xmlns="http://www.w3.org/2000/svg" xmlns:xlink="http://www.w3.org/1999/xlink"><defs><path id="a" d="m50.4 42.22c0 1.14-.76 1.9-1.9 1.9s-1.9-.76-1.9-1.9.76-1.9 1.9-1.9 1.9.76 1.9 1.9"/><linearGradient id="b" gradientUnits="userSpaceOnUse" x1="27.18" x2="27.18" y1="6.33" y2="31.97"><stop offset="0" stop-color="#b7b7c8"/><stop offset="1" stop-color="#373748"/></linearGradient><linearGradient id="c" gradientUnits="userSpaceOnUse" x1="32.79" x2="32.79" y1="31.97" y2="57.59"><stop offset="0" stop-color="#b7bec8"/><stop offset="1" stop-color="#373e48"/></linearGradient></defs><path d="m56.83 58.3h-49.66c-1.94 0-3.57-1.63-3.57-3.57v-19.16c0-1.94 1.63-3.57 3.57-3.57h49.66c1.94 0 3.57 1.63 3.57 3.57v19.17c0 1.94-1.63 3.57-3.57 3.57z" fill="url(#c)"/><path d="m56.83 32h-49.66c-1.94 0-3.57-1.63-3.57-3.57v-19.17c0-1.94 1.63-3.57 3.57-3.57h49.66c1.94 0 3.57 1.63 3.57 3.57v19.17c0 1.94-1.63 3.57-3.57 3.57z" fill="url(#b)"/><g fill="#ccc"><use xlink:href="#a"/><use x="-7.56" xlink:href="#a"/><use x="3.8" xlink:href="#a" y="5.68"/><use x="-3.78" xlink:href="#a" y="5.68"/><use x="-15.14" xlink:href="#a"/><path d="m39.05 47.9c0 1.14-.76 1.9-1.9 1.9-1.13 0-1.9-.76-1.9-1.9s.76-1.9 1.9-1.9 1.9.76 1.9 1.9"/><use xlink:href="#a" y="-26.32"/><use x="-7.56" xlink:href="#a" y="-26.32"/><use x="3.8" xlink:href="#a" y="-20.62"/><use x="-3.78" xlink:href="#a" y="-20.62"/><use x="-15.14" xlink:href="#a" y="-26.32"/><path d="m39.05 21.6c0 1.14-.76 1.9-1.9 1.9-1.13 0-1.9-.76-1.9-1.9s.76-1.9 1.9-1.9 1.9.76 1.9 1.9"/></g><g fill="#0f0"><circle cx="13.87" cy="45.16" r="3.32"/><circle cx="13.87" cy="18.84" r="3.32"/></g></svg>