<svg xmlns="http://www.w3.org/2000/svg" width="37.794" height="37.794"><path fill=":color:" d="m30.638 17.313-.914 1.584.915 1.585a.78.78 0 1 1-1.352.78l-1.366-2.366 1.366-2.365a.78.78 0 0 1 1.067-.286c.372.215.5.692.284 1.068M11.65 11.08l2.733.002 1.367-2.367a.78.78 0 0 0-1.352-.781l-.915 1.585-1.831-.002h-.001a.78.78 0 0 0-.001 1.563m14.491 15.633h-2.733l-1.365 2.365a.78.78 0 1 0 1.352.78l.914-1.584h1.831a.781.781 0 0 0 .001-1.561m-4.1-17.998 1.367 2.367h2.733a.78.78 0 1 0 0-1.562h-1.833l-.915-1.585a.78.78 0 0 0-1.352.78M15.75 29.08l-1.368-2.366h-2.733a.781.781 0 0 0 0 1.562h1.832l.917 1.585c.146.25.409.391.677.391a.779.779 0 0 0 .675-1.172m-8.313-7.531a.78.78 0 0 0 1.067-.284L9.87 18.9l-1.367-2.368a.781.781 0 0 0-1.351.781l.916 1.587-.914 1.584a.776.776 0 0 0 .283 1.065m27.827 6.798a.784.784 0 0 1-1.067.285l-.89-.515-2.096 1.209a.8.8 0 0 1-.391.105.76.76 0 0 1-.391-.105l-2.484-1.435a.78.78 0 0 1-.391-.676l-.002-2.417-2.408-1.392a7.71 7.71 0 0 1-5.467 3.168v2.773l2.093 1.208a.78.78 0 0 1 .391.676l.001 2.868c0 .28-.149.537-.392.676l-2.093 1.205v1.032a.781.781 0 0 1-1.562 0V35.98l-2.095-1.207a.78.78 0 0 1-.391-.676l.001-2.868c0-.28.15-.537.391-.676l2.094-1.206v-2.773a7.72 7.72 0 0 1-5.468-3.168l-2.408 1.392.002 2.415c0 .281-.15.539-.391.676l-2.487 1.437a.79.79 0 0 1-.782 0l-2.095-1.209-.893.518a.782.782 0 0 1-.782-1.354l.893-.517.001-2.414a.78.78 0 0 1 .391-.677l2.487-1.434a.77.77 0 0 1 .781 0l2.093 1.208 2.407-1.39a7.66 7.66 0 0 1 0-6.317l-2.406-1.39-2.096 1.209a.77.77 0 0 1-.782 0l-2.485-1.434a.79.79 0 0 1-.391-.676l.002-2.416-.894-.517a.78.78 0 0 1-.285-1.066.79.79 0 0 1 1.07-.283l.893.514 2.093-1.208a.77.77 0 0 1 .781 0L9.851 9.91c.24.14.391.398.391.675L10.24 13l2.408 1.392a7.71 7.71 0 0 1 5.468-3.167V8.45L16.02 7.242a.78.78 0 0 1-.391-.676l.002-2.87c0-.279.15-.538.391-.675l2.094-1.208V.781a.781.781 0 0 1 1.562 0v1.032l2.093 1.206a.79.79 0 0 1 .391.677l-.002 2.87c0 .28-.149.536-.391.674l-2.091 1.208v2.772a7.7 7.7 0 0 1 5.467 3.167l2.409-1.392-.002-2.416c0-.28.149-.539.391-.676l2.487-1.436c.24-.14.539-.14.781 0l2.095 1.208.894-.514a.78.78 0 1 1 .781 1.352l-.894.516v2.417c0 .279-.15.538-.391.675l-2.487 1.436a.79.79 0 0 1-.782 0l-2.092-1.209-2.408 1.39c.436.967.684 2.032.684 3.158a7.65 7.65 0 0 1-.684 3.158l2.408 1.391 2.091-1.206a.78.78 0 0 1 .78 0l2.488 1.432c.24.141.392.398.392.677l-.002 2.414.893.517a.783.783 0 0 1 .287 1.068m-6.147-16.251.001.9.78.453.921.531 1.706-.982v-1.965l-.78-.451-.923-.533-1.707.983zm-20.443-.002.002-1.063-1.706-.985-.922.535-.778.451-.001.902-.001 1.063 1.703.982.924-.533.779-.451zm0 13.604-.001-.899-.781-.451-.919-.533-1.706.982-.001 1.064v.901l.781.451.923.533 1.707-.982zm15.109-3.076c.315-.413.586-.864.789-1.351a6.12 6.12 0 0 0 0-4.748 6.2 6.2 0 0 0-.789-1.35 6.16 6.16 0 0 0-4.106-2.375 7 7 0 0 0-.781-.056c-.266 0-.525.022-.781.056a6.15 6.15 0 0 0-4.106 2.375 6.1 6.1 0 0 0-.789 1.35 6.1 6.1 0 0 0-.479 2.374 6.1 6.1 0 0 0 1.268 3.725 6.15 6.15 0 0 0 4.106 2.374c.256.031.516.056.781.056s.525-.022.781-.056a6.14 6.14 0 0 0 4.106-2.374M17.19 6.113l.924.531.781.452.781-.452.919-.531.002-1.968-.921-.531-.784-.452-.779.451-.922.532zm3.408 25.57-.921-.532-.781-.452-.781.452-.922.532-.001 1.966.923.531.782.451.78-.449.922-.533zm11.925-5.819.001-1.063-1.707-.981-.919.529-.782.451v.901l.001 1.065 1.702.981.924-.533.778-.449z"/></svg>