<svg xmlns="http://www.w3.org/2000/svg" width="31.25" height="31.25"><path fill=":color:" d="m20.581 1.176-3.914 3.915V0h1.041v2.576L19.845.439zm-1.615 9.069.351.217 6.623-6.625-.736-.737-6.048 6.051a7 7 0 0 0-1.449-.6v-.082l5.082-5.082-.737-.737-5.387 5.388v1.33l.402.093a6.2 6.2 0 0 1 1.899.784m2.041 2.043c.368.585.63 1.224.786 1.893l.094.403h1.028l5.171-5.173-.736-.737-4.699 4.701a7.5 7.5 0 0 0-.549-1.28l6.048-6.05-.737-.735-6.622 6.625zm7.368 1.254 1.921-1.923-.736-.735-3.699 3.7h5.39v-1.042zm1.185 6.826.736-.736-1.923-1.923h2.877v-1.042h-5.389zm-6.915-2.498 4.705 4.707.736-.736-5.171-5.174h-1.03l-.096.4a6.2 6.2 0 0 1-.795 1.883l-.22.353 6.639 6.641.736-.736-6.061-6.062q.342-.622.557-1.276m-3.7 3.125a6.2 6.2 0 0 1-1.88.794l-.399.096v1.33l5.387 5.387.736-.736-5.082-5.082v-.089a7.3 7.3 0 0 0 1.434-.605l6.061 6.062.736-.736-6.641-6.641zM16.667 31.25h1.041v-2.576l2.137 2.137.736-.737-3.914-3.914zm-5.26-.439 2.134-2.137v2.576h1.042v-5.093l-3.913 3.916zm.897-9.816-.352-.222-6.642 6.641.736.736 6.062-6.062c.456.254.937.456 1.433.605v.089l-5.08 5.082.736.736 5.387-5.387v-1.33l-.4-.096a6.2 6.2 0 0 1-1.88-.792m-2.046-2.047a6.3 6.3 0 0 1-.798-1.883l-.096-.4H8.335l-5.172 5.174.737.736 4.706-4.71q.216.66.556 1.276L3.1 25.202l.736.736 6.643-6.643zM0 16.667v1.042h2.876L.954 19.632l.736.736 3.698-3.701zm1.69-5.783-.736.735 1.921 1.923H0v1.042h5.39zm6.916 2.498L3.9 8.674l-.736.737 5.172 5.173h1.029l.096-.4a6.2 6.2 0 0 1 .798-1.881l.222-.352L3.837 5.31l-.736.736 6.062 6.06a7.3 7.3 0 0 0-.557 1.276m-.145-9.996 5.08 5.082v.088q-.747.225-1.433.606L6.047 3.101l-.736.737 6.643 6.643.352-.222a6.2 6.2 0 0 1 1.88-.797l.4-.095v-1.33L9.2 2.649zm5.081-.81L11.408.439l-.736.737 3.913 3.917V0h-1.042zm-1.757 14.831a4.2 4.2 0 0 0 2.06 2.058l.739.338v-3.136h-3.138zm0-3.562-.337.738h3.135v-3.136l-.739.338a4.22 4.22 0 0 0-2.059 2.06m7.679 3.561.338-.739h-3.135v3.136l.738-.338a4.2 4.2 0 0 0 2.059-2.059m0-3.561a4.2 4.2 0 0 0-2.059-2.06l-.738-.34v3.138h3.135z"/></svg>