<svg xmlns="http://www.w3.org/2000/svg" id="geomap" viewBox="0 120 720 355">
  <rect id="sea" width="100%" height="355" x="0" y="120" fill="#227b"/>
  <g id="countries" style="opacity:0">
    <path d="M 385,243 V 242 L 384,241 V 240 H 386 L 385,239 H 386 L 387,240 388,241 387,242 H 386Z"/>
    <path d="M 402,316 V 317 H 400 V 315 H 402Z"/>
    <path d="M 415,267 V 269 H 414 L 415,268 H 414 V 267 L 415,266Z"/>
    <path d="M 498,259 H 500 L 499,260Z"/>
    <path d="M 502,267 V 268Z"/>
    <path d="M 502,269 H 503 V 270Z"/>
    <path d="M 503,265 504,266 H 503Z"/>
    <path d="M 504,270 505,271Z"/>
    <path id="Afghanistan" d="M480 269h-2l-1 1v3h-3l-1 1h-4l-3-1 1-1 1-2v-1h-2v-5l-1-1 1-1v-1l1-1v-1h1l1 1h1l1-1v-1h2l1-1v-2h2v-1l1 1h3l1 1v-1h2l1-1h1v-1l1-1h1v1h1l-1 2 1 1h1l1-1 1-1 1 1h2l-1 1h-3l-2 1-1 1 1 1v1l-1 1v1l-1 1h-2l1 1v1h-1l-1 2v1l-1 1v-1h-1Z"/>
    <path id="Albania" d="M385 243v1l1 1v3h-1v1h-1v-1l-1-1v-5l1-1 1 1v1Z"/>
    <path id="Algeria" d="m362 267 1 5 1 2v6l-1 1 1 2v1l1 1h2v1l1 1-4 2-5 4-3 3h-3v5-5l-2 1-1-1 1-1-2-1h-1l-1-1h-1v-1l-4-3-3-2-5-3-6-4-1-1v-4l2-1 1-1v1l2-1 1 1v-1l2-2h2v-1h-1l1-1 1-1v-1h4v-1h-1v-3l-1-2h1l-1-1h1l1-1 1-1h1l1-1h1l3-1h8v-1l1 1v-1l2 1h1l-1 1h1v4l-1 1-1 1 1 2 1 1Z"/>
    <path id="Andorra" d="M347 241Z"/>
    <path id="Angola" d="M371 353v-1l-1-2-1-2 1-1h7l1 1v2l1 1v1h4v-2h2v-1 1h3v4l1 1v3h3v-1 5h-4v7l3 2-4 1h-5l-1-1h-9l-1-1h-1l-1 1-1-1v1-5l1-2v-1l1-1v-1h1l1-2v-2l-1-1-1-2Zm-1-8-1 1v1l-1-1 1-1 1-1Zm-2 24Z"/>
    <path id="Antigua and Barbuda" d="M220 301Zm0-2Z"/>
    <path id="Argentina" d="m227 410 1 1 1 1v1l1 1v1l-1 2v1l-1 1h-1l-2 1-3 1h-2l-1-1v5l-1 1h-2l-2-1-1 1 1 1-1 1 1 1h1l-1 1h1v-1h1v2h-1v-1h-1v2l-1 1v2l-1 1v1h-1l-1 1-1 1-1 1 1 1 1 2h2v2l-2 2-1 1-1 1v2l-1 1-2 1v4l2 2h-1l-2-1h-4l-1-1v-3h-2l-1-2 1-2 1-1v-2h1v-3l1-1v-4l1-1-1-1 1-1v-1h-1v-3l-1-1v-2h1v-6l1-1v-2h1v-2l-1-1v-3h1l1-1-1-2h1v-1l1-1v-3h-1l1-1-1-1v-1l-1-1 1-3h1v-4l1-1 1-2h1l-1-1 1-1-1-2h1l-1-1 1-1 2-1 1-2h-1l1-2h1v-1l1 1h2l1 2 1-2h2l1 1 1 1 1 1 1 1h1l2 1 1 1 2 1h1l-1 2h-1v2h-1v1l2-1 3 1h1l1-1 1-1 1-2h1v3l-2 1-2 1-3 4-1 1v3l-1 1v6Zm-20 49Zm5 8-1 1-1-1h-3l-1-5h1l1 2 1 1 1 1Zm-6-5Z"/>
    <path id="Armenia" d="m435 246 1 1v1l1 1 1 1-1 1-1-2h-1l-1-1v1l-1-1h-1l-1-1 1-1-1-1h3v-1 1l2 1Zm-1-1Z"/>
    <path id="Australia" d="m646 411-1 2v4h-1l-2 1h-1l-2 2h-2 1v1l-1-1-1-1h-1v-1h-1l1 1h-2l-1 1-2-1h-2l-1-1h-1l-1-2-1-1h1l-1-2-1-1h-2l1-1v-1l-1-2-1 3h-1v-1h1v-2l1-1v-2 1h-1l-1 1-1 1-2 2v-2l-1-1-1-1-1-1h1l-2-1h-1l-1-1h-2l-1-1h-1l-3 1-2 1h-4l-3 1-1 1v1l-1 1h-7l-1 1h-1l-1 1-2 1h-2l-1-1-1-1h-1v-2l1-1v-3l-1-3v-3l-1-1-1-2v-2l-2-2 1 1 1-1h-1v-1l1 2v-2l-1-2v-3l1-1-1-1 1-1v1h1v-2h1l2-1 1-1h2l1-1h2v-1l1 1 3-1 1-1v-2h2l-1-2 1-1h1v-1l1 2v-1h1l-1-1v-1l1 1 1-1v-1l1-1h1l-1-1h2v-1h1l1-1 1 1 1 1v1h1v-1l1 1h1v-2l1-1v-1h1v-1h1l1-1h2v-1h-1v-1h1v1l1-1v1h2v1h4-1 1v1l1-1 1 1-1 1h-1v2l-1 1v1l1 1 1 1h1l1 1h1l2 1v1l2 1h1l1-1v-1l1-2v-6l1-1h-1l1-1v-2l1-1v1h1v2l1 1v2l1 2 1-1v1l2 1v3l1 1v3h1v2h2v1h1l1 1h1l-1 1h1l1 1v2l1 1v-1 1h2v2l1 1h1v1l1 1v1h1v5h1v6l-1 1v2l-1 2-1 1-1 1v2l-1 1Zm-10 8Zm5-1Zm-6 1Zm3 1Zm4-44Zm-4-2Zm1 1Zm-9-18Zm7 16Zm-13-3Zm-1 0Zm1-1Zm6-13Zm-1 0Zm0 1Zm19 28Zm-5-8Zm2 4Zm1 0Zm-3-4Zm5 8Zm-2-5Zm-1 2Zm6 7v-1l1-1-1 2Zm1 4Zm0-1Zm-1 0Zm-39 12Zm2 4Zm7 4-1 1h-1l-1-1h2Zm-4-1Zm-46-24Zm0 2Zm4-11Zm19-11Zm0 0Zm1-1Zm6 0Zm-6-1Zm1 0Zm2-1Zm35 59v1-2Zm8 1Zm0 1Zm-6-1Zm6 6Zm1-1Zm0-5h-1v-1Zm-1 8v-1 1Zm-1 0Zm-5-7Zm0-1Zm-1 3 1-2h1l1 1h3l1-1 1 1v2l-1 1v2h-1v1l-1 1h-2l-1-3-1-2Zm-15-60Zm-1 0Zm1 0Zm0 0Zm-3-1Zm3-2h-1l1-1Zm-2-1Zm0 0Zm-13 3Zm0 0Zm6-7Zm8 8Zm-11-8v1l-1-1v-1 1l2-1v1Zm-1 0h-1l1-1v1Zm4-1Zm6 2Zm2-1Zm0 0Zm-1 1Zm-5-1Zm5 0Zm-2 1Zm-5 0Zm8-1Zm-6 0Zm3 1Zm0 0Zm-59-3Zm125 39Z"/>
    <path id="Austria" d="M378 225h1l-1 1h-1v2l-1 1h-2l-1 1h-1l-3-1-1-1h-2v1h-2l-1-1v-1h4l3-1v1-2l2-1v-1 1h2v-2l2 1h1l1 1Z"/>
    <path id="Azerbaijan" d="M434 249v-1l1 1h1l1 2-2-1-1-1Zm0-4Zm3 6 1-1-1-1-1-1v-1l-1-1h1l-2-1v-1h1l1 1h1l1-1h-1v-1l2 1 1 1 1-1 1-1 1 1v2h1l1 1h-2v3h-1v2l-2-1 1-1v-1h-1l-2 1Zm9-4Z"/>
    <path id="Bahamas" d="M195 289Zm-3-4Zm-3-4v1-1Zm-1 4h-1v-2Zm0 0Zm0 0Zm0 0Zm3-1Zm-5-4h2Zm10 8Zm-1 1Zm-3-2Zm0 0Zm6 4Zm-2 2v-1h1Zm-3-6Zm-5-1Zm9 3Zm-8-5Zm-1-5Zm4 11Zm2-3Zm1-1Zm-7 0Zm0 0Zm0 0Zm0 0Zm0 1Zm-2-7Z"/>
    <path id="Bahrain" d="M445 281Zm0 0Zm1 1Zm0-1Z"/>
    <path id="Bangladesh" d="M528 289Zm1-3v2l1 1v3l-1-1v1-2l-1-1-1-1v1l-1-1v-1h-2l2 1v1l-1 2v-1h-1v1h-1v-1l-1-2v-3h-1v-1l1-1h1l-1-1v1l-1-1v-1l1-1 2 1v2h5l1 1-1 1-2 1v2h1l1-1v-1Zm-2 3Zm-1-1Zm-1-1Zm0 0Zm0 0Zm1 0Zm-1 0Zm1 0Zm-2 4Zm0 0Zm-1 0Zm0 0Zm3-1v-1Zm0-1Zm0-1Zm0 0Zm0 0Zm0 2Zm-1 0Zm1-1Z"/>
    <path id="Barbados" d="M224 309Z"/>
    <path id="Belarus" d="M408 213h-2l-1 2v-1h-1l-1 1-1-1v1l-1-1h-4l-1-1h-3l-1 1-1 1v-4h1v-2l-1-3 2 1 1-1 1-1 1-2 1-1h1-1v-2h2l1-1h3v1h2l1 1v2l1 1v1l1 1v1h1l1 1-1 1h-2v3Z"/>
    <path id="Belgium" d="M354 215h1l1 1-1 1h1l1 1-1 1v1h-2v-1h-1l-2-1-1-1-1-1 2-1h1Z"/>
    <path id="Belize" d="m167 301-1 1-1 1v-4h1v-1h1v2Zm1-1Zm0-1Z"/>
    <path id="Benin" d="m346 314 1-2h1l1-1 1-1 1 2v1l1 1-1 2h-1v1l-1 3h1l-1 3h-1l-1-1v-7h-1Z"/>
    <path id="Bhutan" d="m529 279-3 1v-1l-2 1h-1l-1-1h1v-1l1-1v-1l1 1h3v1h1Z"/>
    <path id="Bolivia" d="M218 381h-2l-1 2-1-2h-2l-1-1v1h-1l-1 2h-1v-1l-1-2v-1l-1-1h1l-1-1v-1l1-1-1-1-1-2v-1h-1l1-1 1-1-1-2v-1l1-2v-3l-2-3h3l1-1 2-2h3v4l1 1h1v1h1l2 1h1l1 1h3v3h-1l1 1v2h4v2h1l1 2-1 1-1 2h1v1l-1-1-2-1h-3l-2 1v1l-1 1v1Zm-12-13Z"/>
    <path id="Bosnia and Herzegovina" d="M382 234v1l1-1-1 1 1 1v2h-1l-1 2v1l-1-1h-1v-1l-2-3h-1v-2h1l1-1 1 1h1Z"/>
    <path id="Botswana" d="M397 387h-1l-1 2h-3l-1-1h-1v2l-2 2-3-1 1-1v-1l-1-2h-1v-6h2v-8h1l3-1h1v1l2-1h2v1l1 1 1 2h1l1 1v1h1v2h2v1h1-1v1h-1l-1 1-2 1v2Z"/>
    <path id="Brazil" d="M263 377Zm-35 22 1-1 3-4 2-1 2-1v-3h-1l-1-1 1-2v-1h-2v-1l-1-2v-1h-4v-3l-1-1h1v-1h-1l1-2 1-1-1-2h-1v-2h-4v-2l-1-1h1v-3h-3l-1-1h-1l-2-1h-1v-1h-1l-1-1v-4h-3l-2 2-1 1h-5v-3l-1 1h-2v-1l-1-1h-1 1l-1-1-1-1v-3h1v-1l1-1v-1l2-1 1-1h3l1-5v-1l-1-1-1-1v-2h2v-1h-1v-1h3l1-1h1v2h1l1 1h2l1-1 1-1 2-1h-1l-1-2-1-2h1l1 1h2v-1h2l1-1h1v-1h2l-1 1 1 1 1 1h-1v4l1 1h2v-1h2v-1l1 1h2v-2l1 1 1-1v1h4l2-3v-1h1l1 1v3l1 1h1v1l-1 1-1 1-1 1 1 1h1l-1-1h5v1l-1 1-1 1h-2 2v1l1-1v-1l1 1v-2h4l1 1h2l1 1v1l-1 1v1l2-1 1-1 2 1h5l1 1 2 1 2 2 1 1h3v1l1 1v5l-1 1-2 3h-1l-1 1-1 3-1 1-1-1v8l-1 2v1l-1 1v3l-1 2h-1v3l-2 1v1h-6l1 1h-2v1h-1l-2 1-2 1-1 1-1 2v3l1 1-1 1-1 1-1 1v1l-1 2-1 1-1 2-1 1v-1l1-1v-1h1l1-2-2 1v1l-1 1-1 1v2l-1 1-1 2-1-2 1-1-1-1-1-1-1-1h-1l-1-1v-1l-2-1h-2Zm27-16Zm1 0Zm-9-45Zm0 0Zm4 0Zm-9-3v1Zm7 2Zm-6-2Zm0-1Zm0 1Zm0 0Zm1 0Zm-2 0Zm2 1-1-1h1Zm4 1Zm0 0Zm-7-1Zm6 57Zm0-3Zm0-2Zm1-1Zm5-2Zm-2 0Zm-8-53Zm0-1Zm1 3Zm-1 0Zm17 7Zm-5 0Zm0 0h1Zm1-1Zm-4-2Zm0 0Zm0 0Zm1 0Zm1 0Zm0 0Zm-1 0Zm0 0Zm1 1Zm-1-1Zm0 0Zm13 24Zm0 1Zm0 0Zm0 0Z"/>
    <path id="Brunei Darussalam" d="m575 326 1 1h-1Zm0 1h-1l-1-1h2-1Z"/>
    <path id="Bulgaria" d="M392 244h-2v-2h-1v-2l1-1-1-1v-1l1-1v1h1l2 1h2l1-1h4l1 1v1h-1v2h-1 1v1l-1 1v-1l-2 1-1 1h-3Z"/>
    <path id="Burkina Faso" d="M335 311v-1h1l-1-1 1-1 1 1h1v-2h2v-1h1l1-1h3l-1 1 1 2h2-1v1l1 1h2l-1 1h1l-1 1h-1l-1 2-2-1h-6v2l1 1h-1l-1-1-1 1h-1l-1-1-1-1v-2Z"/>
    <path id="Burundi" d="m404 344-1-1v-1l-1-1h2v-1h1v1h1v1l-1 1-1 1Z"/>
    <path id="Cabo Verde" d="M298 302Zm-4 3Zm3 0Zm1-4Zm-4 0Zm1 1Zm-1-1Zm0 0h-1Zm1 4Zm2 0h-1Z"/>
    <path id="Cambodia" d="M557 306h1v1l2-1-1 1 1 1v3h-2v1h-1v2l-1-1-2 1h-2v-1l-1 1v-2l-1-1v-1l-1-2 2-1 1-1h2l1 1v-1l2 1v-1Zm-6 7Zm0-1Zm0 2Zm1 0Z"/>
    <path id="Cameroon" d="M376 331v1h-2l-1-1h-9v-2l-1-1h1l-1-1v1l-1-1v-1h-1l1-1v-1l2-2v-1l1 1v-1l2 1 1-1 1-2 1-1v-1l1-1v-2l1-1h1v-3l-1-1h1v1h1v4l2 1h-3l-1 1 1 1 1 1 1 2v1l-1 1v1h-1v2l1 1v1l1 1 1 2Zm-13-3Zm0 0Z"/>
    <path id="Canada" d="M209 234v-2h-1v-4l-1-1-1 1-1-1-1 2-1 2v1h-1v1h-1v1h-8l-2 3v1l-1 1h-5l1 1-1 1-2 1-2 1-1 1h-2l-1-1v-1l1-1 1-1 1-1v-2l1-2v-1l-1-1h1v1l2 1v1-1h1l-2-4h-5l-1-1v1h-1v-1l-1-2-1-1 1-1h-2l-1-1v-2h-2l-2-1v1l-1 1 1-1h-1v1h-1v1h-5l-1-1h-3v-1h-2v-2h-1v1l-7-1h-6l-7-1h-14l-6 1h-7l-7 1h-2v-1h-1l-1-1h-1l-1-1h1v-1h-3v-1l-1-1-1 1-1-1v-2h-1v-1l2-1v-1l-2 1v-1 1-2h-1v-1h-1l1-3-1 2h-1l-1-1v-2h-1v-1l1-1v-4l-2-1-1-1h-1v-2l-2-4-1-1-1-1-1-2h-1v-1l-1-1-2 1v1l-2 1v-1l-2-2-1-1v-1h-4v-45h2l2 1 1 1 3 2h2l2 2-1-1v-1l-1-2h2l-1-1h2v-1l1 1v1l2-1v-1h2l1-2 1 1v-1h2l1-1v1l-1 1-2 2h-2v1h-1l-2 3h2l-1-1 2-2 1-1 1 1 1-2 3-1v1l2-2h-1l2-1-1-1v-1l2 2 1 2 1 2 2 1-1-2 1-1 1-1v2h1l-1 2h2l1-1v-2h3l2 2 4 1 1 2h2l2 1v-1h1l2 1 1 2v1h-2v1l-1 1 4 1h2l1-1h2l2-1 1 2h1l1 2v-2l1 2 1 1h-1v2l2 2-1-2v-1h1l-1-2v-1l-1-2 1-1 2-1v-1h2v-1h-2v1l-1 1-1-1v1h-2 1-1l1-2 2-1 2-1 1 1v2l1 1h1v1h2l2 1 2 1 2-1h2l2 1 1-1 1 1h1v-1l-1-1-1 1-1-3h1v-1h2l1 2v1l1-1v5h1l1 1v-3h-1v-2h2l1-1 1-4-1 1h-1v-1l1-1v-1l1-1h-1l-1-1-2-1h-1l-1-2v-1l1-1-1-2 1-1-1-2 2-1v1-2l1-1v-1h1v1h2v1l1 2 1 3 2 3v1h-2l1 1-1 2h1l1 1v-1l1 1h2l-2 1 1 1 1 1-1 3 1 1 1-1v-3l1-2 2 2 1 3v1h-1v3l2 2 1-1v1-2l1-2 1-2v-2h1l1-2h-1l-1-2 1-2h2l1 1h2v1l1 1 2 1-1 1h1v2l-2 1-1-1 1 2v1l2 3v2l-2 1-1 2h-1l-1 1v-1l-1-1v-1h-1l1 1 1 3-2-1 1 1-2-1v-1h-3v1h2l-1 1v1l-1 1-1 2-2-1-1-1-2-1h-1l1 1 1 2h4l1 1-3 4-1 1h-1l-2-1 1 1-1 2h-1l-2-1h-1l-2-1 1 1h2l1 1 1 1v1l-1 1h-2l1 1-2 1-1 1-1 1 1 1-1 1-2 4v6l1 1h2v1l2 4-1 1h4l2 1h2l1 2 1 1 2 1h2l1 1 1 1h4l1 1v6l1 2 1 2 1 1 1 1 1 1 1-2 1 1-1-1 1-1v-3h-1l1-1-1-1v-3l-1-1 3-1 2-3 1-1h2l-1-1-1 1v-6l-1-1-2-2-1-1 1-2h1v-2h1v-1h-1v-3h-1l1-2v-2l-1-1v-2l1-1 2 1 2 1 1-1 2 1 1-1 2 2h1l1 1v2l2 1h1l1 1 1-1v1l-1 1v2l1 1-1 1 1 1v1l-2 1h1l1-1h1l1 1v1h1v1l2-1 1-1 1-1v-1l1-1-1-1h1l1-2 2 2h-1l1 1 1 1v1l1 1v1h-1 1v1l2 1-1 2h1v1h1v1h-1v2h1v2h1l1 1-1 2 1-1h2l1 1 1 1 1-1 1 1-1 1h-1l-1 1-2 1h-1v1h1l2-1v-1h1l1-1 1 1v2l1-1h1l1 1v2h-1l1 1v2l-2 2h-2l-2 1v1h-1l-2 2h-3l-2-1-1 1-1-1h-3l-2 1-2 1v1l-2 1h-1l-1 1v1l-1 1v1l-1 1-1 1-1 1 1-1 3-3h1l1-2 3-1h5v2l-2 1h-2l1 1h2v1l-1 1h1v2l2 1h-1l2 1h4v2h-1l-2 1h-2v1l-1-1v1l-2 2h-1v-1l-1 1v-1l1-2 2-1 1-1v1l2-1h-3l1-1h-1l-2 2h-1ZM65 138Zm126 61Zm36 16Zm0 0Zm-22-27Zm-4 41Zm19-1Zm0 0Zm-4-8h2l2 1v1h-1l-3-1v-1h-1Zm9-3Zm-9 2Zm2 12h-2v-1h-1v-1l1-1-1 1 1 1h4-1v1h-1Zm-51-8Zm1 0Zm0 0Zm0-24Zm1 24Zm-2 0Zm7 6Zm-2-3Zm-7-1Zm11 7Zm7 3Zm0-2Zm-3 0Zm-3-1h1l1-1 1 2Zm1 0Zm2 0Zm1-1Zm-2 0Zm5-18Zm0-4Zm0-6Zm-1 5Zm-3 2h-1l1-1h1l1 1v1Zm6-12Zm-2 0Zm1 1Zm-2 1 2-3 1 1-2 2v-1 1Zm1-6Zm0 0Zm4-3Zm-5-5Zm0-1Zm1 12Zm0-1Zm0 0Zm-6-40Zm-51-3Zm1-2Zm91 1Zm0-1Zm-3 0Zm3 8Zm-3-9Zm-89 0Zm0 0Zm-1 0Zm0-1Zm1 0Zm19-41Zm-10-13Zm1 1 2-2-1 2h-1Zm-1-2h3l-3 1Zm48 1 1-1 1 2Zm-30 0v-1l1 2h-1Zm-20 6v-2h2v2l-2 1Zm14 5Zm4-1Zm0-1-1-2v-2l1-2 2-1 1 1 1 2 1 3-1 2h-2Zm-2-6 1-1 1 1-1 1h-1Zm-8 0Zm21 12Zm-28-25Zm-3-6 1 1 2 4h-2l-2-5Zm-9-4 1 2-3 1 2 1v2h-1l-3 2-2-2v-3l1-2 3-1Zm0-5 2 2-1 1-2 1-1-1-1 1-1-1-2 1v-2l2-1h1l1-2h1Zm22-12-1-1h-1l1-3 2 1v3Zm7-11Zm11 37-2-2v-1l1-1h1l1 1Zm10-4Zm-21 3Zm9 1Zm34-15Zm-23-3 1 1h-3l1-1Zm-35 8Zm17 0Zm-1 4 4 2-1 2-5-1v-2l1-1Zm-12 0v1h-2l-1-1Zm26-6Zm-17-2 1 2 1-1 2 2-1 1 1 1-1 2h-3v1l-1-1-1-1h2l-2-2-1-2v-3l1-1Zm-14 0v-1h-1l1-2h-1l-2 1 1-1-2-1 1-3 2-1 2 2 2 2v-1l2 2v1h2l1 3v2l1 3v2h-2l-1-1-1-2-2-1h-1v-1l-4 1-1-2 1-1h2Zm16-9 3-2h-3l-2-2 1-1-1-2 3 1h1v-2l-1 1-3-2 1-1 1-3h2v-1l-2-1 2-4 1 2 2-2v-2h-2v-2h2l2 2 2 6 1 1v2h3v4l2 1-1-3h2v2l-1 2 2-1 1 2-1 4 2-1 1 2v-1l2 3-3 2-2 3-1 2v-1l-1-2v1l1 3-1 1-1-1v4h-1l-2-4 1 3-1-1v2l-4-1-2-2 3-1-2-1-1 1-2-5 2-1h1l4-1h-3l2-2-2 1v-2l-4 2v-1l-2 1Zm35-46Zm-52 79v-1l3-1v1l-1 1Zm0-2-1-3h1l2 2Zm46 1Zm-28 1Zm22-4Zm-52 8 2 1 1-2-3-2 2-1-1-1-1-1-1-1 2-1 1-3 1 1v3l1 1-1 2h2l-1 1h2l1-1 2 1 1 2-1 1-1 4-2 1h-3v-1l-2 1h-1l-1 2-2 1-2 1h-2l-2-2 3-2 3-1 1-1-6 1v-3l-1 3-1 1v-2h-1v2l-1-1v-1h-1l-2-1 1-1 2-1 2-1-3 1h-1v-2l4-1h-3v-1l1-1h2l-2-1 1-1 2-1 1 1v2l2-1 1 1v1l2 1 1 2v1Zm43 0v-1l1 1 2-1 1 2h2l-1-1 2-1h1l2-1h5v1l2 1v1h1v2l-1 1v1l1-1 1 1-1 1-1-1v3l-2-1-1 1h-2l-1-2-1 2h-10l1-2h-1v1l-3 1-2-2v1l-2-1v-2l-1-1 1-2v-4h-1l-1-4-1 1h-2l-2-1-2-3v-2l3-1 2 2h1l1 2 4-1 1 1v1h-1l4 2-1 1h-3l2 1 2 2v1Zm-23-4-1-2h1l-1-1-1-1 2-1h1l1 1 1-1 2 1v6l1 1v2l-1-1-1 2 1 1-1 1-3 1-1-1-1-3h1l1-2-6 1v-1l1-1 1-1-1-2 1-1h-1v-1h2l1 3Zm-2-5 2-1-2 1Zm3-1Zm20 2h-1l-1-2 2-1Zm9-1 1 2 1 1h-2l-2-1h-1l-1-1-1 1h-1l-1-3v3l-2-2v-2l2-2h2l1-1-1-2v-1l-1-1v-2l2-1 2 1 1 4h5v-1l1-4-2 4h-2l-1-1-1-3 1-1 1-3-1 2-2 1v-2l-1 1h-2v-3l2-3 3-2 3 1 2 2 1 1-2-3h3l1-2-2 1h-4l-1-1v-1l2 1-1-2-1-2-1-2-2-2v-6h4l4 5 1 3h2l2-1h-4v-3l-1-1-2-4 5-1 1-1 4-1h-3l3-2 4-1-3-1-2 1v-2l2-3 2-3-3 2-2 3v3l-3 2-4 2-1-1 2-1v-2l-2 2h-1v2h-5l-1-1v-1l2-3 7-3-7 2-3 4v1l-2-1-2-2v-1l2-1h3l4-4-2 1-1 1-2 1-5 1h-1v-2l2-1-1-1 3-4-4 3-1-1 2-2-1-1-2 2-1-1 1-2 1-2h2l2-2 2-1 1 2 2-1h3l-4-1v-2l3-1v-3l3 2 1 2 1-1 4 4 3 2-1-2-2-1-4-4v-2h2l-1-2v-1l4 4-2-6 3 1-1-2 2-1 2 1 1-1 1 2 3 5 1-2-2-1v-1l-2-3v-2l2-1h4l1 5h1l-1-3 2-1 6-1v2h2l2 1h3l-1 2-3 2-1 1h3l3-3 1 1 1-2 1 2 1-1v2l2 3h2l1 2v2l-2 2-1 2-3 4-1-1-2 1v1h-3l1 1-6 5 5-2 5-3h1l-1 2-2 2-2 2-3 4-2 3v2h-2l1 1-5 3 4-1-1 2h-1l1 1-1 1-2 1h-1v-2h-5l1 1h3v3l-2 1-2-1 1 1-3-1 1 2h-5l2 1 1-1 4 1 1 2h-3v-2h-4l3 1-2 1-1 1 2-1 2 1h-1l3 1v2l-1 1h-3l3 2v1h-3v1h2v2h-5l1 3-2 3h-4l-2-2v1l1 1h-2l1 1 1-1 2 1h2v2l1 1 1-1 1 1v2l-1 1h-1l-1 1-2 1-2 1 1-2-1-1h-2v1l-2-1-1 1-2-1Zm-48 59Zm23 1Zm43 2h-1l-1-2 1-3 2-1 1 1v3l-1 2Zm-43-3Zm3 0Zm-35 0Zm9 0Zm2 0Zm67 0v-1h3v1Zm-24-2h1v2h-1l-1-1Zm-43 1Zm18 0Zm-20 0Zm-1 0Zm10-1Zm-6 0Zm83 0Zm-87 0Zm-4 0Zm66 0Zm-53-1Zm1 1Zm9-1Zm-6-13Zm6 1Zm-1 1Zm27 2v-1h1v1Zm-7 4Zm1-1Zm17 1Zm29-1Zm-30 0Zm-29 0 1-1v2Zm2-1 1 1-1 1Zm-11 1Zm66-1h1v1Zm-21 1 1-2 1 1-2 1Zm-4-1 3-1-1 1h-1Zm-43 0Zm21-1Zm18 1Zm-2-1Zm-16 0Zm18 0Zm-18 0Zm-11-1Zm-22-23Zm19-2-2-1 3-1h1l-1 2Zm53 19h2l-2 1Zm-1-4Zm0 1v1l-1-1Zm-45-2Zm18-3Zm15-1Zm-2 0Zm-57 3Zm15-5 1-2v-1h-1l1-2-1 1-2-1 1-1 1 1v-1l-1-1 1-1 1 1 1-1 1 1 2-1h2v1l-1 2h1l-1 1-2 2 1 1 1-1h1v3l1-1 1 2h-1v4l-2 1h-1v1l-1 1h-1v-2l-3-4-1-1-1 1-1-2-1-1v-2l1-1 2 3Zm-17-1Zm27 0Zm-2 0Zm2-1Zm-3-1 1 1h-1Zm0-1Zm40-2 1 3h1v2h-4l-2 1-2-1v-3h-1v-3h5Zm-37 3Zm1-4v-2l1-1h4l1 1h1l3 1-1 3-2 4-1 1-2-1h-2l1 1v2l-1 2-2 1v-3l-1-2v-7Zm-20 5v1l-3-4h-1l1-2h3l1 1v2Zm30 25Zm-20 0Zm-5 0Zm-23 2Zm7 0Zm64 0Zm8 0Zm-55 0v-1Zm68-1Zm-44 0Zm-21-1v-1l1 1v1Zm53 4Zm-9-1Zm-53-1 1 1-1-1Zm-11 0Zm71-1 1 1v1l-1-1Zm-20-2Zm-10 0Zm-23 0Zm47 0-1 1h-1l1-3 1 1Zm-35 2-1 2-3-1-4-2v-1h2l1-1-1-2 1 1v-3l1 1 2 2 2 2v1h1l-1 1Zm37-3v-1h1v2Zm-66-19 1-1-1-2-1-1h2l2 3v1l1 3v1h2l-1-3v-2l-1-4v-2l2 2 1-1 1 1 1 1 1 1v3l1 3 1 2v2l-1 1 1 1v1l2 2v-1l1 1 2 2h1v3l-1-2v2l-1-1h-1v2l-2-1 2 1h1l1 2v1l-2 1h-2l-2-1h-1l1-1-3-1-1-1-1 1v1l-3 1-1 1-1 1h-4l-3 1-1-2v-3h-5l-1-1-1-2-1-1 3-1 3-1h3l1 1 2-1-1-1-4-1h-2l-2 1v-1h-3l-2-2 2-1 3-1 1-2-4 2-1-1v-1h-2v-2l2-3-1-1 3-3 3-2 2-1 1 1v3l-1 2h1l1-1v-1l1-1 2 1 2 1-1 2h1l1-1Zm90 43Zm-32 2Zm16 0Zm-9 1Zm-11-9Zm-3 1v1l-1-1 1-2Zm2-1 1 1h-2v-2Zm39 25Zm-29-2Zm22 1v1h-1v-1Zm6 0Zm-2-6Zm0 1Zm-55-1Zm57 1v2l-1-1Zm0 0Zm-53-4Zm33 0Zm21-3Zm-53-1Zm27 0v-1l1 1v1Zm-1 0v2l-2-1Zm-4 8-1-1 1-2 1 1-1 2Zm31-3h-1l1-1Zm-27-1Zm-1 0Zm-9-1 1-1 1 1v1l-3 2h-1v-1l1-2Zm23 0h1l1 1h-1Zm-3-3Zm16-2 1 1h-1Zm-36-4h1l1 2v1l-1 1 3-1v2h1l-2 1-2-1-1-1h-1l1-1h-2v2l-3 3h-1v-3h-2l-1 1v-1l1-1h1v-8l1-1h1l1 3v-1l1 1 2 1Zm-26-12Zm7 23Zm30-13v-1l2 1h3l2-1h1l-1-1-1-2v-1l2-2 1-2h1v-1l-1-2v-3h-2v-3h-1l1 1h-1l-1-1-1-1h-1l-1 1h-1v-2h2v-1l-2-2h-1l1-1h-2v-2h-1l-2-2h-1l2 1v3h-2v-1l-4-1 1 1 1 1h-1l-2-2-1-1 2 2-1 1-2-1h-1l-4-1v1l-2-1-2-1h-1l-1-1-1-3h5l2-1h2v1-4h-1l-1-3 1-1-1-1v-2l1-3 2 1-2-2 5-3h2l1 1v2l1 1v2l1 1-1 1v1l-1 2h2v-2h2l1 1-1 2 1-1v-3l2-1h2l3 1 1 2-1 1h2v2h-1l-1 2 3-2v1l1 1-1 2 1-1 1-2 2 1 1 1v2l-2-1v2h2l1-2v1l-1 2 3-1v1l1-1 2 2v1l-3 1h2l-1 1h1l1-1v-1l2 2v1h-2l-1 1 1 1h2l1 1v1h-2l-1-1h-2l2 1 1 1h-1l1 1-2-1-1 1h2v1h1l1 1 2 1v1h3v1h1v1l1 2h2l-1 2h3l1 1v2h-1l-1-1-1 2h1v1l-1 1h-1v3l-1 1v-1h-1v-1l-1 1-1-2v-2h-1v-1l-1-1-1-1-1 1-1-1v1l1 1v1h-1v2l1-1v2l1 1 2 1v2h1v1l1 1v1h1l-1 2v-1h-1l1 2v1h-1l1 1h-1v-1l-3-1-2-3v2l-1-2h-1l1 3h1l4 4v1l-4-1h-2l-1-2v-1l-2 1-1-1v-1h-1l-1-1 1-1-1-1h-1l-1-2-1-1h-1l-1-1-1 1-2-1v1l-2 1-2-1-1-1v-1Zm-25-42 1-2v-2l2-3h2l2-1h2l1 1-3 3-1 3v1l1 2-1 1 1 3 2 2h1l-2 2-3 1-2-1-3-1-1-2 1-1-1-1 1-1-1-2Zm50 54Zm-3 63Zm12-5Zm-11 7Zm10-5Zm-1-1-1-1 1-1 1-2 1 1-1 2-1 1h1l1-1h-1l1-1 1 1-2 1-1 1ZM72 141Zm0-1Zm3-1Zm-3-1Zm23-26Zm3-17Zm10-1-2 4h-2l2-3 2-2Zm-7 2Zm14-20 1 2-1 1-2-2ZM99 95h-1v-2h-1l1-2 2-1 2-3 3-4 2-1 2 1 1-1-1-1h2l1 1v1l-1 1v1l1 1-1 3-2 1v2l-2-1 1-4-2 1 1 1-1 2-1 2-1-1v3l-2 1v-3h-1v2l-2-1Zm16-7h-1v-1h2v1Zm1-3Zm-24 36 1-1v-2l1-1-1-1 3-5h-1l-1-3 1-1 4-1h1l3 2h2v2l1-2h2l2 2 3 3-1 2h-2l-5 4v2l-1 1h-1l-1 2v2l-2 2v-1l-3 2-1-1v-1l-1-1-2-2h-2Zm-7 16Zm2-5Zm30 2Zm2 0Zm-10-2Zm2 1Zm-1 0Zm125 93Zm-4 1Zm6-2Zm-4-12Zm0 4Zm-1 4Zm3-1Zm-1 1Zm0 0Zm-2-5Zm-10-16Zm0-1Zm-2-1Zm1 0Zm-1-5Zm0 1Zm0-1Zm1 4Zm0-1Zm8 8Zm-6-2Zm4 22h-1l1-2v-1h1v-2l1-2 1-2 2-1h1l-1 1h-1l1 1-2 3v1l1-1h2l-2 1 1 1h1v1l1-1h2l1 1h-1v2h2-1l-1 1v1l1 1v-2h1l-1 1v1l1-1v3h-2v-1 1h-1l1-2-1-1v1h-1l-1 2h-1l1-1 1-1-1-1v1h-1v-1h-1l-1 1-2-1-3 1v-1l2-2Zm5-3Zm-22 14Zm4-9Zm0 0Zm-118-3Zm-13-20Zm-1 1Zm0 0Zm-1 0Zm1 1Zm0 0Zm0 0Zm-3 2Zm3 0v-1 1Zm3 1Zm0-1Zm-2 1Zm0-2Zm-1 0Zm-2 4Zm6 0Zm1 0Zm-1 0Zm-7-1Zm6 1v-1h1v2l-1-1Zm1 1Zm-1 0Zm-1-1Zm0-1Zm0 1Zm1-1Zm-1 0Zm-2-1h1v1Zm1-1 1 1v1Zm-6 1v-2h3l-1 1v2h-1v-1Zm14 13Zm5 2Zm0-2Zm-1-1Zm-1 1Zm-4-1v1l-1-1Zm3-1Zm0 0Zm-5-4Zm-1-1Zm1 0Zm-1 1Zm0-3Zm0 0Zm-1 0Zm0 0Zm1 0Zm0 1Zm-6 0Zm6-1Zm0 0Zm0 0 2-1-1 1-1 1Zm4 9h-1v-1h-1v-1h-2v-1l-1-1h3l3 1 1 2 1 1 1 1 1 1 1 1h-3l-1-1v-1l-1 1Zm2-3Zm0 0Zm-1 1Zm0-1Zm-2-1Zm-1 0Zm1 0Zm-4-6Zm-6 0Zm6 1Zm0-1Zm-7-1-1-1h2l-1 1 1 1 1 1Z"/>
    <path id="Central African Republic" d="M398 325h-3l-1 1-1-1-2 1h-2v1h-4v-1l-1-1h-1l-1 1v1h-1v1h-3l-1 1v2h-1v-1l-1-2-1-1v-1l-1-1v-2h1v-1l1-1v-1l1 1 1-1h1l1-1h2l1-1v-1h4l1-2h1v-1l1-1h1l1 1 1 2-1 2h1l1 1h1l1 1 1 1 1 1v1l2 1v1Z"/>
    <path id="Chad" d="m375 320-1-2-1-1-1-1 1-1h3l-2-1v-4h-1v-1h-1l-1-1v-2l2-2 2-3v-4l1-2v-1l-1-1v-3l-1-2 2-1 4 2 6 3 6 4v8h-2v1l-1 1v1l-1 1h1l-1 2h1v2l1 1h-1l-1 1v1h-1l-1 2h-4v1l-1 1h-2l-1 1h-1l-1 1Z"/>
    <path id="Chile" d="M209 383h1l-1 2-2 1-1 1 1 1h-1l1 2-1 1 1 1h-1l-1 2-1 1v4h-1l-1 3 1 1v1l1 1-1 1h1v3l-1 1v1h-1l1 2-1 1h-1v3l1 1v2h-1v2l-1 1v6h-1v2l1 1v3h1v1l-1 1 1 1-1 1v4l-1 1v3h-1v2l-1 1-1 2 1 2h2v3l1 1h4l2 1h1-2l-1 1-2 1v3h-3v-2h2v-1l-1-1h-1l-2 1 1 1-2-1h1v-1l1-1h1l-1-1 1-1-2-1 1 1v1l-1-1 1 1-1 1-1-1v-2 1-2h-1l1-1v-1 1l-1-1-1-1 1-1v-5h2-1v-1h-1v-3h-1v-1l-2 1 2-2-1-1h2l1 1v1l1-1-1-1 1-1v-1l1-1v-1h-1l1-2h-1l1-1v-3l1 1v-2h-1v-1l-1 1h-1v-5h1v-5l-1-1v-1h1v-1l1-1v-2l1-1 1-2v-3l1-2-1-3v-2h1v-2l-1-1 1-1v-1l1-1v-4l1-1-1-1 1-2-1-2h1v-10h1v-1l1-1v1l1 2 1 1-1 1v1l1 1h-1l1 1v1l1 2v1Zm-17 65Zm1-1Zm0 0Zm0 0Zm2 0Zm0 0Zm0 0Zm-2-1Zm1 0Zm0 1Zm0-1Zm1 1Zm0-1Zm-2 0h1v1Zm1 0Zm2 0Zm-3 0Zm0 1-1-1h1Zm0 0Zm1-2Zm0 1Zm-1 0Zm1 0Zm2-1Zm-2 0Zm1 0Zm0 0Zm-1 0Zm-1 0Zm0 0Zm0 0Zm2-2Zm-1-1Zm2-2Zm0-1h1l-1 2Zm0 1Zm-1-1Zm-1 0Zm0 0Zm2-1Zm-1 0Zm0 1Zm0-1Zm1 0Zm0 0Zm0 0Zm-1 0Zm0-1Zm0 0Zm1 1-1-1h1v1Zm-1-1Zm1-1Zm0 0Zm-3 1Zm3-1Zm-1 0Zm0 0Zm0 0h1Zm-1 0Zm2 0Zm0 0Zm-1-1Zm0 11Zm0 0Zm0 0Zm0 0Zm2 0Zm0 0Zm-1 0Zm-1-1h-1v-1Zm0 0Zm0-2Zm1-8Zm-1 0Zm1 0Zm2 1-1 1v-1l1-1v1Zm-2-1Zm1 0Zm-1 0Zm0 0Zm0 0Zm-1 0Zm0-1Zm0 0Zm1 0Zm0 0Zm1 0Zm-2 0Zm-1-1Zm2-2Zm0-1Zm0 0Zm1-1Zm1 0Zm-2 3h-1v-4h1l1 1-1 1 1 1Zm1-4Zm0-5Zm12 48Zm0 0Zm-1 0Zm1 0Zm0-1Zm0 1Zm-1-1Zm-4 0Zm0-1Zm6 0Zm1 0Zm-2-1Zm-2 0-1 1h1-1l1 1h-1v-1h-1v1l-1-1v-1Zm-2 2Zm-1-1v-1Zm5 0h-2v-1h2Zm-6-1-1 1v-1Zm1 0h1-1Zm-3 0Zm-2-1Zm-2-2Zm4 0v1l-1-1Zm0 1Zm-4-1Zm3 0v1l-1-1 1-1Zm-1 0Zm0 1Zm-2-2Zm0 0Zm0 0Zm0-1Zm5 2v-1l1-1Zm1 1Zm-7-3Zm1 0Zm1 0 1 1v1h-1v-1h-1v-1Zm-3 0Zm1-2Zm-1 0 2 1v1h-1v-1h-1l-1-1Zm2 0Zm2 1-1 1h1l-2-1h1v-1h1l1-1h1v1Zm3 4h4l-3-1v-1l2-1h-2v-2h1l1-1h1v8h-3l-2-1h-1v-1Zm0 2Zm-6-8Zm-1-1Zm-1 0Zm1-1Zm0 1Zm-1 0Zm1 0Zm1 0Zm-2-1Zm1 0Zm-1 0Zm0 0Zm0-1Zm1 0Zm1 0Zm-2 0Zm2 0Zm-1-1Zm-2 0Zm3 0Zm0 0Zm-2 0Zm0-1Zm1 0Zm0 0Zm-1-1 1 1h-1Zm0 0Zm0 0Zm0-1Zm-1 0v1h-1Zm2 1h-1l1-1Zm-1-1Zm0-1-1 1v-1Zm-1-1Zm0-1Zm2 0Zm-2-1Zm-1 0Zm0 0Zm1 0Zm0 0Zm0-1Zm3 13v-2l1-1 1 1v-1 1Zm1-1Zm0-4Zm-1 0Zm-3-5 1-1v-2l1 3-1 1v-2l-1 1Zm0-1Zm0 0Zm1-2Zm0 0Zm-1 0Zm-69-56Z"/>
    <path id="China" d="M562 298v-2l2-1 1-1 2 1-1 2-2 1Zm4-1Zm-38-20h-3l-1-1v1l-1 1v1h-1v-2h-6v-1h-1v-1l-1 1-1-1v-1h-1l-1-1-2-1-2-1v1l-2-1-1-1h-1v-1h-1v-3 1l1-1h1l-1-1-1-1h1l-1-1h1l1-1 1-1v-2l-2-1-2 1h-3l-1-1-1-2-1-2-1-2-1-1h-1v-3h1l1-2 1 1 1-1v1l2-1v-1h2l1-1h1l2-2h1v-2l1-1v-1l-1-1v-2l-1-1h2l2-1 2 1-1-1 2-5h3l1 1 1-1v-4h2v-2h2v1l1 1h1v1h2v1h1l1 1v1l1 1-1 1 1 1-1 1v1l2 1h4l1 1 1 1h1l2 3v1h2l2 1h7l1 1h1l2 1h2l1 1 1-1 2-1 2-1h3l3-1 1-1 2-1v-1l-1-1v-2h2l2 1 1-1 1-1h2l1-1v-1l2-1h2v-1h2l1 1 1-1-1-1-2-3h-2v1h-4v-2l2-4-1-1h1l1 1 1 1 2-1 1-1 1-1h-1l2-3v-1l1-1v-2l-1-1 2-1 3-1h2l2 1h2l1 2 1 1v1l1 2v1l1 1v3l1 1h2l3 2 1 3h3l1-1h1l2-1h1l-1 1 1 1-2 2v3l-2 2v1l-2-1-2 2 1 2-1 1h1l-1 2-1 1-1-1-1 1-1 1h-2v1l1 1h-3v-1h-1v1l-1 1-2 2-1 1h-2l-4 2v-2l2-2h-1l-2-1-2 3h-1l-1 2h-3v2l3 2v1h1l2-2 2 1-1 3-2 2h-1l-1 2h1l1 1 1 2 1 1v1l1 1v1h-1l1 1v2h-2v1h2l1 1v1h-1v2h-1l-1 2v1l-2 1v2l-1 1v1l-1 1h-1l-2 2h-1l-1 2-3-1-1 1-1-1v2h-1l-3 1h-1l-1 1h-1l-1-1-2-1-2 1-2-1v-2h-1l-2-1-1 1h1l-2 1v-1 1l-1-1v1l-1-1v1h-3v3h-1v-1h-1l-1-1h-2l1-2h-1l-1-2h-2v-2l1-1 1-1v-4l-1-2h-3v-1l-1-1h-1v1l-2-1-1 1h-1l-1 1-1 1h-1Zm53 8Zm6-8Zm1-9Zm-16 22Zm6-3Zm-6 3Zm-6 2Z"/>
    <path id="Colombia" d="M205 338v1l-1 5-1-1h-1l1-2-1-1h-5v-1h-1v-1l-1-1-2-1-1-1h-4l1-1h-1l-2-1-1-1h1v-2l1 1 1-1v-1l1-1v-6h-1v-2h1v-2l1 1v1-2l1-1h1l1-3h-1l2-1h1v1-1h2l1-1 1-1 1-1 1 1-1 1-1 1-1 1v2l-1 1h1v1l1 1v2h4l2 2h4l-1 1v4h1v1l-1 1 1 1 1 2h-1v-2h-1l-1 1h-3v1h1v1h-2v2l1 1Zm-24-30Z"/>
    <path id="Comoros" d="M432 360Zm1 0v1Zm-2-1v1-1Z"/>
    <path id="Congo" d="M370 345v-1l-1 1-1 1v-1l-2-2h2v-1l-1-2h2v-1h1v1h2l1-1v-2l-1-1v-1l1-1v-1h-3v-1l1-1h2l1 1h2v-1h1v-2l1-1h3v1l-1 2v6l-1 1h-1l-1 1v3l-1 1-1 1-1 1h-1v-1l-1 1v-1 1h-1Z"/>
    <path id="Congo (Democratic Republic)" d="M369 347v-1l1-1h2v-1 1l1-1v1h1l1-1 1-1 1-1v-3l1-1h1l1-1v-6l1-2v-2h1v-1l1-1h1l1 1v1h4v-1h2l2-1 1 1 1-1h3l2 1 1 1 1-1 1 1v-1h1v1l1 1 1 1v2h1l-2 1-1 2v2l-1 2v1l-1 1v1l1 1v1l1 1h-1v1l1 2h-1l1 2 1 1 1 2h-1l-3 1-1 1 1 1-1 2v2l1 2h1v-1h1v3l-1-1-1 1v-1l-1-1-1-1h-1l-1-1v1h-2l-1-1v-1h-1l-1 1v-1l-1-1v1h-3v-3l-1-1v-4h-3v-1 1h-2v2h-4v-1l-1-1v-2l-1-1h-7l-1 1Z"/>
    <path id="Costa Rica" d="M175 314h1v-1l1 1 1 2v2l-1 1h1-1v-1h-1l1 1-1-1v-1l-1-1h-1v-1h-1 1l-1 1h-1v-3h2Zm-6 10Zm4-9Z"/>
    <path id="Côte d'Ivoire" d="m333 314 1 1 1 1h1l1-1 1 1h1l-1 1 1 1v1h-1v2l-1 1 1 2 1 1h-7l-2 1-1 1v-3l-1-1-1-1v-2h1v-1h-1l1-1 1 1-1-2h1-1v-2l1-1 1 1h1v-1l1 1v-1Z"/>
    <path id="Croatia" d="M382 235v-1h-3l-1-1-1 1h-1v2h1l2 3v1l-1-1-1-1h-1l-2-2h1l-1-1v-1l-1-1-1 2-1-1v-1h2v-1l1 1h1v-1h1v-1l1-1 2 1 1 1h2v1l1 1h-1Zm-9 0Zm1-1Zm0 1Zm-1 0Zm0 0Zm1 0Zm1 2Zm-1 0Zm0 0Zm2 3Zm1-2Zm1 1Zm-1 0Zm0 0Zm1 1Zm2 0 1 1Zm-1 0Zm0 0Z"/>
    <path id="Cuba" d="M178 291h-1l1-1Zm0-3h4l2 1h2l1 1 1 1h1l1 1h2v1h2l1 1h-1l-1 1h-5l1-1v-1h-2l-1-1v-1h-1l-2-1h-3l-1-1h1-2l-1 1h-2l-1 1v-1h1v-1l2-1Zm4 0Zm0 0Zm4 5Zm3-2Zm-2-1Zm-2 3Zm2-4Zm0 0Zm-2 0Zm-2-1Zm1 0Zm-1 0Z"/>
    <path id="Cyprus" d="m412 260-1 1h-2v-1h2l2-1-1 1v1Z"/>
    <path id="Czechia" d="m378 224-1-1h-1l-2-1v2h-2v-1l-2-2h-1v-3h1l1-1 2-1 1 1 1-1v1h2v1l1 1v-1l2 1 1 1 1 1h-1l-1 1-1 1Z"/>
    <path id="Denmark" d="M363 197v-1l1-1 1 1v1l1 1h-1v1l-1 1h-1v2l1 1h-3v-2h-1l1-1-1-1v-2l2 1v-2Zm-1-1Zm4-2Zm-5 3v-2h2l1-2h1v3l-1-1h-2l-1 1Zm3-1Zm-1 0Zm2 4Zm2-3Zm2 6Zm-1 1v-1Zm0-4 1-1v3h-2l-1-1 1-1Zm-2 3h1l1 1h-1Zm8-1v1-1Zm-5-1Zm-4 3Zm0-1Zm-1 0Zm-3-2Zm5 0v2h-1l-1-1v-1h1Zm-5 1Z"/>
    <path id="Djibouti" d="m431 312-1 1h-2v-1l1-2h2v1l-1 1h1Z"/>
    <path id="Dominica" d="M221 304v1Z"/>
    <path id="Dominican Republic" d="M200 297v-2h4v1h1-1l2 1h1l-1 1h-5v2l-1-1v-2Zm6 1Zm-5 2Z"/>
    <path id="Ecuador" d="m186 333 2 1h1l-1 1h4l1 1h-1l1 1-1 2-1 1-1 1-2 1h-1l-1 2v1l-1 1v-1h-1l-1-1v1l-1-1 1-1v-1l1-1v-1l-1 1-1-1v-4l1-1v-1h1l2-1Zm0 0Zm-3 8v1-1Zm1-1Zm-21-2Zm1-1Zm-1 0h-1Zm-2-1Zm1 0Zm-1-1 1 2-1 1-1-1h1v-1Zm1 0Zm0-1Z"/>
    <path id="Egypt" d="M409 270h3l1-1 1 4v2l-1 1v1h-1l-1-1v-1l-1-1-1-1v-3Zm4 20-1 1h-1v-1h-17v5-27l1 1h4l2 1h2l1-1h5v5l1 1 1 2v1l1 1v1l2 3 1 2 1 1h-1v3l-1-1v2Zm-1-12Zm-3-9Z"/>
    <path id="El Salvador" d="M167 309h-1l-1-1h-2l1-1 1-1 1 1h1l1 1v1Z"/>
    <path id="Equatorial Guinea" d="M361 328h1l-1 1Zm3 3h3v2h-4l1-1Z"/>
    <path id="Eritrea" d="M431 310h-2l-1-1-1-1-1-1-1-1h-4l-1-1-1 2v-1l-1 1h-1v-2l1-3v-1h1v-1l2-1 1 1 1 2v1l1 2v-1l1 1h1v1h1l1 1 1 1v1l1 1Zm-7-7Z"/>
    <path id="Estonia" d="M391 190Zm0 0-2 1h-1v-1l1-1 1 1Zm1 1Zm2 1h-1v-2l-1 1v-1l-1-1v-2h1l1-1h8l-1 2h-1l-1 1 2 3-1 2-1-1-1 1v-1l-1-1h-1Zm-4-4v1h-1v-1Zm1 0Z"/>
    <path id="Eswatini" d="m408 390 1 1h-1v2l-1-1-1-1 1-2Z"/>
    <path id="Ethiopia" d="m429 310-1 2v1h2v2l1 1 2 1 5 2h2l-4 4-2 3h-4v1h-1l-1 1h-1l-1-1-2 1-1 1-2-1-3-1h-2v-2h-1l-1-1v-1l-1-2h-1v-1h-1l-1-1h2l1-1-1-2 1-1v-1l1-1v1-2l1-1 1-1h1v-3h1l1-1v1l1-2 1 1h4l1 1 1 1 1 1Z"/>
    <path id="Falkland Islands" d="M 225,456 224,458 H 223 L 222,459 V 458 H 223 L 222,457 H 223 L 222,456ZM 226,456 H 228 V 457 L 225,459 H 224 L 225,458 226,457 225,456Z"/>
    <path id="Fiji" d="M705 370Zm1 0Zm-1-1v1h-2l-1-1h2l1-1-1 1Zm-3 5Zm0-3 1 1-2 1h-1v-1l1-1h1Z"/>
    <path id="Finland" d="M396 183Zm-1 0Zm-10-42h1l1-1 2 2v1l2 1 1-1 2 1 2-2v-4l2-2 2-1 1 2 2 1v1l-1 1v1l-1 1h1l-1 2 1 2 1 1 1 2v1l-2 2v1l2 4 1 2-2 2 1 2v2l1 1v1l-1 1 1 1 2 1v4l-4 5h-1l-2 3h-1l-3 1h-2l-1 1-3 1v-2h-1v-1h-2v-8l-1-1 1-3 1 1 1-1v-1l1-1 1-1 1-2 1-1v-1h2v-3l-1-1-2-1v-5l-1-1 1-2h-1v-4h-1l-2-2Zm7 43Zm-2 0Zm-3-3Zm1 1Zm1 1Zm0 0Zm-1-1Zm0 0Zm-1 0Zm3 2Zm-3 0Zm2-1h1v1Zm-1 0Zm0 0Zm-1 0Zm2 0Zm0 0Zm0 0Zm0 0Zm-1-1Zm6-20Zm-7 10Zm3-4Zm-1 2Zm-3 0Zm1 0Zm10 13Zm-11 1Zm-1 0Zm-1 0Zm1-1Zm1 0Zm-1 0Zm-1 0Zm0 0v-1l1 1Z"/>
    <path id="France" d="M347 241v-1h-2v1h-1l-1-1-2-1h-1l1-1 1-3v-2h1l-1-1v-1l-2-1v-2l-2-1-2-1h-1v-1l-1-1 1-1h3l1 1v-1h2v-1l-1-1v-1h1l1 1h3l-1-1h2l1-1v-2l2-1v1h1l1 1 2 1h1v1h2v1h1l1 1h3l-1 2-1 1v2h-1l-1 2-1 1v1l1-1h1v3l-1 1 1 1v1l1 1v-1 2l-1 1h-1l-1 1-1-1h-2v-1h-1l-2 1v2l-1 1-1-1Zm-8-12Zm1 0Zm-2-2Zm3 4Zm0 0Zm22 12v1h-1v-1l-1-1 1-1h1v-1 2Z"/>
    <path id="Gabon" d="m371 331-1 1v1h3v1l-1 1v1l1 1v2l-1 1h-2v-1h-1v1h-2l1 2v1h-2l-1-1-2-2v-1l-1-2 1-1v-1h1l-1-1h4v-3Z"/>
    <path id="Gambia" d="m315 308 1 1v-1 1h-1l-1-1h-2v1h-2l1-1v1l1-1h1Zm1 0h-1Zm-5 0h1Zm2 0h-1 3Z"/>
    <path id="Georgia" d="M434 244v1h-3l-1-1h-3l1-1v-1l-1-1-1-1-1-1h-1l1-1h1l2 1h2l1 1h1v1h4v1l1 1v1h1l-1 1h-1l-1-1Z"/>
    <path id="Germany" d="M361 226Zm-5-9v-1l1-1-1-2h2-1l1-1-1-1h1l1-2-1-1 1-1h1l1 1v-1h1v-2h-1l1-1-1-1h2l1 1v1l2 1 1 1v-1h1l1-1h1l1 1h1v1h1v2l-1 1 1 1v1l1 1h-1l1 2v2l-1-1-2 1-1 1h-1v3h1l2 2v1l-2 1v2-1l-3 1h-4v-1h-2v1h-2v-2l1-1 1-2h-3l-1-1v-1l-1-1 1-1Zm11-11Zm6 1h-1v-1h1Zm-2-3 1 1h-2Zm-13 4Zm1-1Zm7-3Zm-5 0Zm0 0Z"/>
    <path id="Ghana" d="m339 316-1-1v-2h6v1l1 1v3l1 1h-1v2l1 2v1h-1l-3 1h-1l-1 1h-1l-1-1h1l-1-1-1-2 1-1v-2h1v-1l-1-1Z"/>
    <path id="Greece" d="M385 249v-1h1v-2l1-1h3v-1h6l1-1v2l-1 1-2-1v1l-1-1-1 1v2-1h-2l-1 1 2 2h-1l-1 1h2v1h1v2l-1-1h-1 1l-1-1h-3l-1-2h-1Zm7 12Zm0-2 1 1 1-1 2 1h1-1l-2 1v-1h-3v-1Zm-2-2Zm0-2Zm1 0Zm0-2Zm0 1Zm0 0h-1v3-1h-1v1l-1-2v1l-1-1h1l-2-2 1-1h1l1 1Zm2-8Zm-2 1Zm5 0Zm-10 7Zm-2-6v1Zm2 3Zm0 2-1-1Zm0-1Zm12 7Zm0 0Zm1-2Zm2 0-1 1v-1Zm-5 0Zm-1 0Zm4 0Zm-6-1Zm0 0Zm1 0Zm1 0Zm-1 0Zm4-1Zm-5 1Zm5 0Zm-5-1Zm3 1Zm1 0Zm2 1Zm1-1Zm-5 0Zm1-4v-1l1 1Zm-1-1Zm-1 3Zm-1 0Zm5 0Zm-4-1Zm3-3h-1l1-1v1Zm-3-1Zm1-1h-1 1Zm-2 6Zm1 0Zm1 0Zm3 0Zm-1 0Zm-2 1Zm0 0Zm3 0Zm-5 0Zm0-4Zm0 2-1-1h-1v-1h-1l1-1 1 1h1v2Zm-1-3Zm-1 0Zm1 0Z"/>
    <path id="Greenland" d="m293 127-3-1-2-2-1-1v1l2 1v1l1 1h2l1 1v1l-2 1h-4l1 1-1 2h-2v1l2-1v1l3-1 1 1h-1l-2 1 1 1 1-2 1 1 2-2 3 2h4l-1 1-2 1h1l-2 1-3 3-1 1-2 1-2 2h-2l-1 1-1-1-1 1h1-2l1 1h-3l1-1h-1l-1-2h-1l1 1 1 2-1 1-2 2v1l-1 2v1l-1 1-1 1h-1l-1 2h-1l-2 1-1-2 1-1h-1v2h-1v1l-1 1-1-1v1l-1-1-1 1h1v1l-1 1h-2l1 1 1 1-1 1-1 1h1l1 2-1 1h-2l1 2-1 1h-1l-1 1 1 1h-1l1 1v3h-1 1l-1 2h-1l1 1v1l-1 1v1l-2-1-1 1v-2h-2v-1l1-1-2 1 2-1h-2 1-2l-2 1v-1l-2-1v-1l-1-1v-2h-1l-1-1 1-2-1 1-1-2 1-1-1 1-1-2v-2l-1-1h1l1-1 1-1v1l1-1-2-1v1l-1-1-1 3-1-4v-1l-1-2h-1l1-1-1-1 2-2 1-1 2-2-2 2-1 1-2 2h-1v-1l1-2h1v-1h-2v-2l3-1-3 1v-1l2-1 1-1 1 1h2l-1-1-1 1-1-1h-1l-2 2 1-4h1l2 1h1l1 1h1l-2-2h-2l-2-1 3-1h2v-1h-1v-2h3-3l1-4h1v-1h-4l-2-2-1-1-2-1 1-1h3l2 2 2 1-1-1h1v-1h-1v-1l-1-1h1v-1h-2l2-1h-1l-1 1v-2h-1l1-1h1l-3-1v-1l-1 2v1l-1 1-2-1-1-1 1-2-1-1 2-1v-1h-1v-1h1v-3l-1-1v-2l-1-1v-2l-1-1v-1h-2l2-1v-1l-1-2-1-1h1l-3-2 1-1-1-1v-3h-1l-1-2-1 1-1-2h-1v-1h-2l-1-1-2-1-1 2-1-2-1 2h-1l-1 1v-2l-1 1-1-1-1 1 2 2-5-2h1l-3-2 2-2h2v-1l-3 1-1-1v-2l-1 1-2-1 1-2h5l-2-1 2-1h4v-2l-1-1-2 2-3 1-2-2 2-1h-3l2-1-3 1v-1l-1-1-2-2v-2l1-2 6-3 1-2 3-1h3l1-3 1-3-1-2 2-1 1-2-2 1-1-1-1 1-1-1-1 1-1-2v-2l3-4 2-1v-2l4-3 2 2 2-2-1-2 1-3-1-3 2-2 2 1v2l3 2-1-4-2-3 1-1 6-2 2-1 1 4v6l2-4-1 3v2l2-4v-2l2 1 2 2-1-2 2 3v-2l2-1-3-5-1-4h3l1 3 4 3 3 5h2l1-1v-2l-1-1 1-1-1-3 3 1h1l-2-1v-2l-4-5h6v4l1-4 1 3h3v-2l-4-2-5-1 1-1-2-3v-1l3 2 1-1-1-2 2 1 2 3 3 1 1 2v-2h1l1 3-1-3 1-2 3-1-2-1-1-4h3l-1-2 2 2 1-3 2 1 2-1h7l2 3 2-1 4 2v2l-2 2-3-1h-5l-2 2-4 1-1 1 3 1 1-1 3-1 4-2 1 1h5l2-1 1 2-2 3 2-1 4 1 3 3v1l-2 2v2l-4 1-2 1h-3l-7 1-2 1-5 3v2h2l1-2v3l2-1 1-2 6-3 5 1-1 3-4 4 1 1 2-2 1 2 4-4 2-1v-3h1l1 1v5l-1 3-3 6 1 1-1 3 1-2v-3h1l1-3 2-2-1 4-2 2h1l-2 3 2-2v-1l2-2 3-3v-2l1-2h1v2l2-1 3 1v-3l3-3 4 1 3 2-3 4-1 2-2 1 1 2-3 1-1 2-2-1-3 2-2-1 1 1 3 2 2-1 1 1-1 2-3 1-3-1-2 5 1 1 3-3h3l-1 3h-3l-1 4 1 1v2l-1 1v1l-2 1v2l-1 3v1l-1 2v4h1l1-3 2 1 1 1v1l-1-1-2 1 1 1-1 1 2 1 2 1v-1h1v5l-2-1-1-1-2 1-2 2-1-2-1 1 2 1 1 4 1-1 1 1 1-1v1l-1 1 2 2v4l-1 1v-1h-1l-2-2v2l2 1-2 1h2l-1 3h2v1l1-1 1 1-1 2h-1l-1-1h-3v2l3 2v3h-2l-2 1-2-1-1-1v-2l-1 1v1l-1-1v1l-1 1-1 1h-1l-1 1h4l-1 2 1 1v2l2 1 3 2-1 2 1-1v3l1-1h1l-1 5 1 1-1 1-1-1v-2 2h-2l-1-1-1-3-1-1Zm-68-96 1 1v2Zm11-5v3Zm18-11Zm6-3 2 3-1-1-2-2Zm22 0Zm-5 2Zm17 16Zm11 22Zm-4 55h2v2h-1l-2-1Zm-51 73Zm-2 1Zm0-1Z"/>
    <path id="Grenada" d="M220 311Z"/>
    <path id="Guatemala" d="M165 299v4h1l1 1h-1l-1 1v1l-1 1-1 1-1-1h-2l-1-1v-1l1-2h2l1-1-1-1-1-1v-1h4Z"/>
    <path id="Guinea-Bissau" d="M316 310h1l-1 1h1v1h-2l-1 1h-1v-2l-1 1v-1l-1-1h3Zm-4 3Zm0 0Zm0 0Zm0 0Zm1 0Zm-1 0Zm-1 0Zm2-1Zm-1 0Zm0 0Zm0 0Zm-1 0Zm1 0Zm1 0Zm-1 0Zm-1 0Z"/>
    <path id="Guinea" d="M314 313Zm0 0Zm14 2v2h1-1l1 2-1-1-1 1h1v1h-1l-1 1h-1v-2l-1-1h-1v1-2l-1-2h-2l-1 1-1 1h-1l-1-1v-1l-1-1-1-1 1-1h2v-1h-1l1-1h-1 2l1 1 1-1h1v1h4v-1l1 1v1h1v2Zm-12 0Zm-2-2Z"/>
    <path id="Guyana" d="M231 332h-1l-1-1v1h-2v1h-2l-1-1v-4h1l-1-1-1-1 1-1h-2l-1-2v-1h1l1-1h-1v-1h1l1-1h1l2 2-1 1h2l1 1v2h-1v4h1v1l1 1Zm-4-10Z"/>
    <path id="Haiti" d="M200 295v4l-1-1h-4v-1l2 1h2v-1h-1v-1l-1-1h2Zm-3 2Zm-1 0Zm2-3Zm-2 5Z"/>
    <path id="Honduras" d="m168 308-1-1h-1l-1-1v-1l1-1h1l1-1h7l1 1 1 1-3 1v-1l-1 2h-2v1h-1v1h-1Zm2-5Zm1-1Zm1 0Zm-4 7Z"/>
    <path id="Hungary" d="m376 229 1-1v-2h1l1-1 1 1h1l1-1h3v-1h3l2 2h-1l-1 1-1 2-1 2h-3l-1 1h-2l-1-1-2-1Z"/>
    <path id="Iceland" d="m300 167 1-2h-1v-1 1l-1-2h-3l3-1v-1l1-1h-1l-1-1-2 1h-1l1-1v-1h1l-1-1 1-1 2 2v-1l-1-1v-1h1l1 2 1 1v1l1 2v-2l1 1v-3h1l1 2v-1l1-2 1 2 1 1-1-2h2v-1l1 1 1-1v-1h1l1 1v1l1-2v2l1 1-1 1h1l2 1v2l-1 2h-1v1l-2 1-3 2h-2l-1 1-1 1-2-1-3-2-3 1Zm8 2Z"/>
    <path id="India" d="m522 279 1 1h1l2-1v1l3-1v-1h-1v-1h2l1-1 1-1h1l1-1 2 1v-1h1l1 1v1h1v3l-1-1-1 1h-1l-1 1v2l-1 1v1l-1 1v1h-2l1 1-1 1v2h-1v-1l-1-1v-2 1l-1 1h-1v-2l2-1 1-1-1-1h-5v-2l-2-1-1 1v1l1 1v-1l1 1h-1l-1 1v1h1v3l1 2-2 1v-1l-1 1h-1l-1 1 1 1-2 2h-2l-1 1-1 2-1 1-1 1-1 1h-1v1h-2v1h-1l-1 1v6l-1 1v4h-1l-1 1 1 1h-2v2h-2l-1-1-1-1v-2l-1-3-1-1-1-2v-2l-1-1-1-3-1-1v-1l-1-3v-8l-1-1v3l-2 1h-2v-1l-3-2h1l1-1h1v-1h1-4v-1l-1-1h1v-1h4l1-1-1-1v-1h-1v-2h-2l1-1 1-2h1v1l2-1 1-2h1l1-2v-1h2l-1-1 2-1v-2l1-1v-1h-2v-2h-1l1-1h-1v-2h4l3-1 1-1 1 2 2 1-1 1v1l1 1v1l-1 1v-1 3l1 1h1l1 1 2 1h-1l-1 1v2h1l1 1 1 1h1l1 1h4v1l1 1h4v1h2v-4h1v1Zm-1 12Zm0 0Zm1 0Zm0 0Zm0 0Zm0 0Zm0 0Zm1 0Zm-1 0Zm0 0Zm0 0Zm-1 0Zm0 0Zm1 0Zm0 0Zm0 0Zm0 0Zm0 0Zm0-1Zm0 0Zm0 1Zm1 0Zm0-1Zm-2 1Zm0 0Zm1 0Zm0-1Zm10 32v-1Zm0-1Zm0-2Zm-1 0Zm1 0Zm-1-8Zm0 0Zm0 0Zm0 8Zm-1-2Zm0-6Zm0 3Zm0-2Zm-1 0Zm1 0v-1Zm0-3Zm0 1 1-1v1l-1 1Zm1-2v1h-1l1-1Z"/>
    <path id="Indonesia" d="M576 353Zm-2-1h2l-1 1-1-1Zm4 0v1h-1v-1Zm3 1-1-1h3v1h-2l-2 1h-1l1-1v-1h1Zm2-1Zm-3 0Zm-25-3Zm3 1-1-1h-1l1-1v-1l1 1 1-1v1h2l1 1h4v-1h1v1h3l1 2h3v2l-3-1-1 1-2-1h-2l-1-1h-5l-2-1Zm16-8h-2l-1-1v1h-2v1l-1-2-1 1-1-1-1 1v-4l-1-1h-1v-2l-1-1 1-2 1-1v1l2 2 1-1 1 1 1-1 1-1h1l1 1h2l1-1-1-1 1-1 1-1v-2h4l1 1h-2l1 1v1l1 1h-1l1 1 1 1 1 1h-3v2l-1 2h-1v3l-1 2-3 1v-1Zm3 1v1-2Zm1 0Zm-14-5v-1Zm29 2Zm-1-1Zm-4-2Zm1-1Zm0 0Zm-1 0Zm-2-3Zm4 3Zm-1 0Zm3 3Zm0 0Zm-1 0Zm0-1h1l-1 1v-1 1-1Zm-3-3h-1l-1-1-1 1v2l1 1h1l1-1h3-1 2l-1 1v-1l-1 1-1 1h-1l2 3-1 1 1 1h1l-1 1v-1l-1 1h-1v-1l-1-1v-2h-2l1 1v3l-1 1 1 1h-2v-4l-1-1v1l-1-1 1-1v-1l1-2v-1l1-2v-1h1l1-1h3l1 1h1l1-1 2-1v2l-1 1h-3v-1Zm7-3Zm1-2Zm0 1Zm3-3Zm-1 0Zm1-1h-1Zm-3 1Zm-9 22Zm-1 0Zm0-2Zm7-1Zm-1-1Zm0 1Zm-1-3Zm0-1Zm-1 0Zm-1 3Zm2-1v1l-1 1 1-2v-1Zm-1 1v-1Zm-51-15Zm-1 0Zm-3-7Zm0 0Zm0 0Zm4 7Zm-2-1v1l-1-1Zm4 1h-1v-1l-1-2h-1l-2-2-1-2h1l1 1h3l1 2 3 2 1 1 1 1h1l1 1 1 1 1 1h1v1-1l1 1v2l2 1v2h2v1l1 1-1 1h1l-1 1 1 1-1 2-1-1v1h-1l-1-1-1-1-3-2-1-1-1-1-1-1v-1l-1-2-1-1-1-1v-1l-1-2Zm8 15Zm5 1Zm-3-13Zm-1-1h1v1Zm1 1Zm0 0Zm-1-1Zm0 1v-1l1 1h-1Zm0-1-1 1v-1Zm-1-1h1v1Zm-1 0v-1 1Zm4 4Zm-2-1Zm-5 6Zm1 1Zm-3-3Zm0-2v2h-1v-2Zm1 3Zm-2-4Zm-1 0Zm0 0Zm1-4Zm-2 2-1-1v-1l2 1Zm49 23Zm2 0h1-1Zm-7-4Zm8 3Zm-8-1h-1v-1h2v1h1l1 1h-2Zm11-1v1l-1 1h-2v-1l1-1 1 1v-1h1Zm-11-2Zm7 0Zm-6 1v-1h2l1 1h1l2-1v1h-3l-1 1-1-1Zm9-1h1-1Zm-2 0h1l-1 1Zm1 0h1l-1 1Zm-2 0Zm16 0Zm-7 0Zm1 0Zm2 0Zm-2 0Zm6-1Zm-8 1Zm-2 0v-1h2-1Zm8-1Zm-5 0Zm7 0Zm1-1v2l-1-1Zm-1 0Zm2 0Zm-7 0Zm6 0Zm0-1Zm6 0Zm1-1Zm-2 1v-1l1 1Zm-3-2Zm0 0Zm4 0Zm-14-5Zm-1 1Zm4 0Zm-1 0Zm0 0Zm-1 0Zm-2-1v1h-1l-1-1Zm2 0Zm0 0v-1h3l1 1h1l1 1-3-1h-3Zm0-1Zm7 3Zm-1 0Zm1-1Zm6 5v1l-1-1 1-1 1 1Zm-4-1Zm4 0v1Zm-3 0Zm-14-7Zm-3-1Zm2 0h2-2Zm4-1Zm0 0Zm-6 1h2-1l-1 1v-1Zm7 0h-1v-1l1 1Zm-1-5Zm0 1Zm-2-2Zm3-2Zm-1 3v-2h1v1l-1 1h1v-1l1-1v1l-1 1h1v1h-1v2l-1-1v-2Zm0 0Zm0-3Zm2 0v-1 1Zm2 5Zm-4-1Zm-1 2Zm1-1v1-1Zm-1 1Zm-27 16Zm-2-6Zm1 3h-1l1-1h1l1 1h-1Zm5 0Zm-13-12Zm-1 1Zm-2 2Zm-2 0Zm2 0h1v1h-1Zm-1 0Zm-1 1-1-1-1-1h-1v-1h2v1l1 1Zm-5-6Zm1 0Zm0 0Zm0 0Zm0-1Zm0 0Zm0 0Zm-2-1Zm1 0Zm0 0Zm10-4Zm-12 3Zm2 0Zm9-3Zm-2-1Zm-4 1Zm5-2v-1l1 1Zm-4 1Zm0 0Zm-5 5Zm0 0Zm0 0Zm1 0Zm-1 0Zm1 0Zm7-1Zm-7 0Zm1 1-1-1h1v1Zm68 15Zm0 3Zm1 0Zm0 0h-1Zm-1 0h-2l1-1 2-1v2Zm-7-15Zm1 0h1l1 1h-1Zm-2 4h1v1h1l1-1 1-1h1v-1l2-1v1h1l3 1 2 1v13l-2-2h-2v-1l-1-1h1-1l1-1-1-1-1-1-2-1v-1h-2l-2-1h-1v-1h-2v-1 1l-1 1-1-1h1v-1l-1-1h-1 1l1-1 1 1 1-1h-4v-1l-1-1h-1l1-1h-1 2l1-1 1 1h2l1 1-1 1v1l1 1Zm9 11Zm0 0Zm-4-13Zm-4 0Zm1 0h3-3Zm-3 1Zm1 0Zm-2 4Zm-2-2Zm4-2Zm-1-1Zm-4 0Zm-1-1Zm-3 2-1-1h2Zm0-2Zm2-1v1l-1-1Zm-1 0Zm0-1Zm0 0h2-1Zm-26-7Zm-1-1Zm1 1Zm0-2Zm0 0Zm0 1Zm1 1Zm-1-1Z"/>
    <path id="Iran" d="M467 259v1l-1 1v1l-1 1 1 1v5h2v1l-1 2-1 1 1 1 1 1v1h2v3h1v1h-2v1h-1v2l-1 1-1-1h-1l-3-1h-3l-1-2v-1h-2l-2 1h-2l-1-1h-1l-1-1v-1h-2v-1l-1-2v-1l-1-1h-2v-1l-1 1h-1l-1-1v-3l-1-1-1-1-1-1-1-1-1-1v-2l1-1h1l-1-1 1-1h-2v-1l-1-1v-2l-1-1v-2l-1-2h1l1-1v1l1 1 2 1 1-1 2-1h1v1l-1 1 2 1v2h1l2 1 1 1 2 1 3-1h1v-1h1l1-1 1-1h2v-1h2v1l2 1h2l1 1h1v1h2Zm-10 20Zm0 0-2 1Zm0 0Zm-6 1Zm1 0Zm-10-8Z"/>
    <path id="Iraq" d="m423 267-1-1v-2l4-2 1-1v-4l1-1 1-1h4v1l1-1v1l1 1v1h2l-1 1 1 1h-1l-1 1v2l1 1 1 1 1 1 1 1 1 1v3l1 1h-2l-1 2h-4l-5-4-2-1-2-1-2-1Z"/>
    <path id="Ireland" d="M329 203v1l-1 1 1 1 1-1 1 1 1 2v2l-1 2-2 1-2 1-2 1h-1l1-1h-1l-1-1 1-1 1-1v-1l1-1h-1l-1-1v-1h1l-1-2h2l2-1h-2 1v-2h2v-1l1 1Zm-2 0Zm-2 6Zm-1-3Z"/>
    <path id="Israel" d="m414 273-1-4 1-2 1-2h1v1l-1 1v-1l-1 1v1h1l-1 1h1v2l-1 2Z"/>
    <path id="Italy" d="M365 229h1v-1h2l1 1 3 1h-1v2h1-1l-3 1 1 1v2l1 1 1 1 1 3 2 1 1 1h2-1v1l2 1 2 1 1 1v1h-1v-1h-1l-1-1-1 2v1h1v2h-1v1l-1 1-1-1h1l1-1-1-3h-1l-1-1v-1h-2v-2l-2 1-1-1-2-2v-1l-1-1h-1v-1l-1-2-1-1h-1l-2 1-1 1v-2 1l-1-1v-1l-1-1 1-1v-1h2l1-2 1 2 1-2h1v1-1h1Zm4 8Zm-4 3Zm1 1Zm-2-1Zm8 6Zm-11 1-1-1 1-1v1l1-2 1 1 1 1-1 1 1 1-1 2-1 1h-1v-3Zm0-2Zm0 5Zm12 6v-1h-1l-2-1h-1v-1h1v-1l2 1h1l1-1v1l1-1v2l-1 1h1l-1 1Zm-5 0Zm6-4Zm0-1Zm0 1Z"/>
    <path id="Jamaica" d="M189 298h2v1h-3l-1-1Z"/>
    <path id="Japan" d="M615 262h1v-1h-3v1h-4v1h-2v-1h1l2-2v-1h7v-1l1-2 1-1 1-1-1 1v1h1l1-1h1l1-2 2-2v-5h1v-2 1h1v-1 1-1h1v2l1 1v3l-1 1v1h-1v4l-1 1 1 2h-1v1l-1 1v-2l-1 1h-1v1-1h-1l-1 1h-2 1-1v-1h-1v1l1 1h-1l-1 2h-1l-1-1Zm-8 2h1l1 1v1h-1v3l-2 1 1-1-1-1v2l-1-1 1-1-1-1h1v-2l-1 1v-1h-1l1-1h1v-1h1Zm7-2 1-1v1Zm14 22Zm-3-19Zm-1-2Zm0 0Zm0-2Zm-21 5Zm1-2Zm-1-1Zm1-1Zm-1 3Zm1 0Zm0-1Zm1 3Zm1-1Zm0 0Zm-4 12Zm1-1Zm0 0Zm2-1Zm-1-3Zm1 0Zm-1 4-1-1h1Zm2-5Zm-2-4Zm1 0Zm0-1Zm2 4Zm4-9Zm-1 0Zm1 0Zm0 0Zm-1 1Zm0-1Zm1 0Zm0-4Zm0 0Zm0 0Zm11-6v1-1Zm-8 10v2l-1 1v-1h-1l-1 2-1-1v-1l1-1h1l1-1Zm-3 0Zm0 0Zm2 0Zm-22 23Zm1 0Zm1 0Zm14-3Zm-11 2Zm2-3Zm2-1Zm0 0Zm24-38Zm3-8Zm0-1Zm0 9-1-1v1l1 1h-1l-1 1v-3l1-1v-1h2v-2l1-2-1-2h1l2 2 2 2h2l1-1-1 1 1 2-1 1h-2l-1 1v2l-4-2Zm-17 21Z"/>
    <path id="Jordan" d="m419 269 1 2v1h-1l-1 1h-1l-1 1h-2v-1l1-2v-4l1-1 1 1h1l4-3v2l1 1-1 1-4 1Z"/>
    <path id="Kazakhstan" d="M519 222h-1v2h-2v4l-1 1-1-1h-3l-2 5 1 1-2-1-2 1h-2l1 1v2l1 1v1l-1 1v2-1h-2l-1-1h-7l-2-1-1 1-1 1h-1l-2-1h-1v1l-1 1h-1l-2 2-1 1v1h-2l1-1h-3v-2h-1v-3h-1v-1l-2-1h-6l-1-2-3-2v-1 1l-2-1 1-2-1 1-6 2v10h1-2v-1l-1-1-1-1-3 1-1 1v-1l1-2h-2v-1h-1v-1l-1-2h-1v-1h2v-2h1l3 1v-1l1 1-1 2 1-2h1l1-1-1-1-1 1-1-1v-3l-2-1-1 1v-1h-1l-2 1-1 1h-3v-1h1l-1-2-1-1h-1v-1l-2-1 1-1v-3l1-1v-1h1l1 2 1-1v-2h1v-1h1l1-1 1-1h1v1h1v-1h1l1 1h2l1 1v1h1v-1l1 1 1 1 1-2h2v1l1-1h1l1 1 2 1v-1h3v-2l-1-1-1-1 2-1-1-1 1-2 2 1v-1h-2v-1h1l-1-1v-1h2l4-1h2v-1l6-1v-1h1v-1l2 1h2l1 2v2h1v-1l1 1h1l1 1v1l1-1 1 1v-1h2v-1l3-1v1l2 3 3 4 2 4 1-1-1-1h1l1 1 1 1h2v-1h2l1 2 2 1v1l2 1 1-1 1 2Zm-68 11Zm-4 1Zm-2 0Z"/>
    <path id="Kenya" d="M416 326v1h2l3 1 2 1 1-1 2-1 1 1h1l-1 1-1 1v7l1 2-2 2v1h-1l-1 2v1l-3-2-1-2-7-3v-3l1-1v-1h1v-3h-1v-2l-1-1 1-1 2-1v1Zm10 14Zm0 0Zm0 0Z"/>
    <path id="Kiribati" d="M28 332Z"/>
    <path id="Kuwait" d="M437 274h1l1-2h1l1 1-1 1h1v2h-1l-1-1Zm4 0Zm0-1Zm-1-1Zm1 0Z"/>
    <path id="Kyrgyzstan" d="M505 242h-1l-2 2h-1l-1 1h-2v1l-2 1v-1l-1 1-1-1-1 2h-1v1h-3l-1 1v-1h-5v-1h1l1-1 1 1v-1h2l1-1h2l-1-1h-2v-1l-1 1h-1l-1-2 2-1h-1l1-1v-1h1l2 1h1l1-1 1-1 2 1h7l1 1h2Zm-17 6Zm-1 0Zm-1 0Z"/>
    <path id="Lao People's Democratic Republic" d="m560 306-2 1v-1h-1v1l-2-1h1v-3h-1l-1-1v-2l-1-1v-1h-1l-1 1h-1l-1-1-2 1v1-5h-1v-1h-1v-1h1v-1l1-1v1h1v-3h1l1 1v1h1v2h1l1-1 1 1 1 1-1 1h-1v1l1 1h1v1h1v1l2 2v1l1 1 1 1Z"/>
    <path id="Latvia" d="M401 199h-1l-1 1h-2l-1-1h-2v-1h-7l-1 1v-3h1v-2h1l1-1h1v1l1 1v1h1l1-1v-3h3l1 1v1l1-1 1 1h1v2l1 2Z"/>
    <path id="Lebanon" d="M417 262h1l-2 2v1h-1l1-2v-2Z"/>
    <path id="Lesotho" d="m402 396 1 1-1 2h-1l-1 1-1-1-1-1 1-1 1-1 2-1Z"/>
    <path id="Liberia" d="M327 320v2l1 1 1 1v3l-2-1-2-1-2-2-2-1 1-1 1-1v-2h1l1 1v2h1Z"/>
    <path id="Libya" d="M367 285h-2l-1-1v-1l-1-2 1-1v-6l-1-2 1-1 1-1-1-1 2-2h1v-2l2 1h3l2 1h1v2h1l3 1 2 1 2 1 1-1 1-1-1-2v-1l1-1 3-1 2 1 1 1h1v1h2v27h-2v1l-6-4-6-3-4-2-2 1-1 1-2-1-3-1Z"/>
    <path id="Liechtenstein" d="M363 228Z"/>
    <path id="Lithuania" d="M397 200v2h1-1l-1 1-1 2-1 1-1 1-2-1v-1h-1v-2h-2l-1-1-1-3 1-1h7v1h2l1 1Zm-11 2Zm1 0Z"/>
    <path id="Luxembourg" d="M356 220v-1l1 1v1h-1Z"/>
    <path id="Madagascar" d="M441 363Zm0-1Zm-1 2v-1h2v-2l1-1v1l1 1 1 1v5h-1v-1 3l-1 1v2l-1 3-1 4-1 2v3l-1 2-1 1h-1l-2 1-1-1h-1l-1-1v-4h-1v-4h1v-1l1-1v-1l-1-3v-2l1-1v-2l1 1 1-1h3-1v-1l1-1v1h1l-1-1 1-1v1l1-1v-1Zm4 6Z"/>
    <path id="Malawi" d="m414 359-1 1v3h1l2 2v3h-1v2h-1 1l-2-1v-4h-1l-1-1h-1v-3h1v-4h1l-1-1v-1l-1-1 1 1h1l1 1 1 1v1Zm0 1Zm-1 0Z"/>
    <path id="Malaysia" d="M547 330Zm1 0h-1v-1l-1-1v-2l-1-2v-2l2 1v1h2v-1l1 1 1 1 1 1v1l-1 1h1v3l1 1v1h-1l-1-1-1-1h-1Zm5 0Zm27-3Zm2 0Zm0-1Zm-2-4Zm-5 4v1h1l-1-1 1-1v-1h1v-1l1-1v-1l1 1v-1 1l1 1v1l1-1v1h1l1 1-1 1v-1l-1 1h1v1h-6v2l-1 1-1 1 1 1-1 1h-2l-1-1h-1l-1 1-1 1-1-1-1 1-2-2v-1l1 1h2v-1h1v-1l3-1 1-1 1-1v-1l1 1h1l-1-1h1Zm4-5Zm0 0Zm-11 10Zm-17-7Zm-7-1Zm0 0Zm1 1Zm30 1Z"/>
    <path id="Mali" d="m334 284 5 3 3 2 4 3v1h1l1 1h1l2 1-1 1 1 1 2-1v5l-1 1v2h-5l-1 1h-4l-1 1h-1v1h-2v2h-1l-1-1-1 1 1 1h-1v1l-2 1v2h-1v1l-1-1v1h-1l-1-1-1 1-1-1v-2h-1v-1l-1-1v1h-4v-3l-1 1v-2l-1-1 1-1v-1h1l1 1 1-1h10v-2l-1-8-1-10Z"/>
    <path id="Malta" d="M373 258Zm0 0Z"/>
    <path id="Mauritania" d="m327 279 1 1 6 4h-3l1 10 1 8v2h-10l-1 1-1-1h-1v1l-1 1-1-1v-1h-1v-1h-1l-1-1h-4v1-1l1-2v-2l-1-2v-1l1-1-1-1-1-1v1-1h8v-4l1-1h1v-6h7Zm-16 16Z"/>
    <path id="Mauritius" d="m459 378 1-2v1Zm12-2Zm-13-19Z"/>
    <path id="Mexico" d="M109 266h5l7 3h6v-1h3l2 2 1 1 1 2 1 1 2 1 1-1v-1h2l2 1 1 2 1 2v1l1 1 1 1h2v1h1l-1 1v8l1 2 1 2 1 1 1 1h1l1 1h5l-1-1h1v1h1l1-1 1-1v-3l1-1h3l1-1h2l1 1-1 1-1 1v1h1l-1 1v2h-1v-1 1h-1v1h-5v1l1 1 1 1-1 1h-2l-1 2v1l-2-2-2-1-1-1-2 1-1 1h-1l-1-1h-1l-2-1-2-1h-1l-2-1-2-1-3-1v-1l-3-1-1-1v-1l1-1h-1l1-1v-1h-1v-2l-2-2-1-1-1-1-1-1-1-2h-2l1-1-1-1-1-1-1-1v-1h-1l-2-2v-1l-1-1v-1l-1-2-1-1h-1l-2-1h1l-1 2h1v2l1 1 1 1 1 2 1 1 1 1 1 2v-1l1 2v1l1 2v1l1 1v-1l1 1v2h-1v-1l-2-1-1-1-1-1v-3l-2-1h-1l-1-1h-1v-1l-1-1h2v1-2l-2-2-1-1v-1l-1-1-1-2v-1h-1Zm4 10Zm-6-2Zm9-1 1 1v1l-1-1Zm-2-5Zm9 17Zm-3 0Zm2 0Zm0 0Zm0-2Zm-3 1Zm3-2Zm-1 0Zm39 15Zm-39 0Zm18 2Zm-9-8Zm0 0Zm2-2Zm38 4Zm-43-9Zm0-1Zm-1 0Zm-8-8Zm1-1v1h-1v-1Zm39 23 1 1h-1Zm-10-14Zm0 9Zm0 0Z"/>
    <path id="Micronesia (Federated States of)" d="M621 316Zm27 5Zm1 0Zm13 0Zm9 4Z"/>
    <path id="Moldova" d="M401 232v1l-1-2 1-2-1-1-1-2-1-1h-1l1-1h1l1 1h3l-1 2h1v1l1 1v1h-2v1Z"/>
    <path id="Mongolia" d="m577 219 1 1-2 4v2h4v-1h2l2 3 1 1-1 1-1-1h-2v1h-2l-2 1v1l-1 1h-2l-1 1-1 1-2-1h-2v2l1 1v1l-2 1-1 1-3 1h-3l-2 1-2 1-1 1-1-1h-2l-2-1h-1l-1-1h-7l-2-1h-2v-1l-2-3h-1l-1-1-1-1h-4l-2-1v-1l1-1-1-1 1-1-1-1v-1l-1-1h-1v-1h-2v-1h-1l-1-1v-1l1-1h1l2-1v-1l2-1h1l1-1h5v2h1l4 1h1l2-1v-2l-1-1 1-1 1-2v-1l2 1 1 1h1l1 1h2v2l1 1h1v1h2l1-1h4l1 1h2v1l1 1h1l2 1h1l1-1h2l2-1 2-1h2l1 1Z"/>
    <path id="Montenegro" d="m384 241-1 1v1l-2-2v-1l1-2h1v1l2 1h-1Z"/>
    <path id="Morocco" d="m340 260 1 1h-1l1 2v3h1v1h-4v1l-1 1-1 1h1v1h-2l-2 2v1l-1-1-2 1v-1l-1 1-2 1v3h-9v-1h2l1-1 1-1h1l1-1 1-2v-1h-1v-2l1-2v-1l2-1 2-1 1-1 1-1v-1l1-3h1l1 1v1h4Z"/>
    <path id="Mozambique" d="m421 359 1-1h1l2-1v4h1l-1 2 1 1v2l-1 1v1l-1 1-1 1h-2l-2 2-2 2h-1l-1 1-1 1v1l1 2h-1l1 1v6l-3 2h-2l-1 2h1v1h-1l-1-1v-5l-1-1v-2l2-3v-1l1-1v-7l-1-1h-1l-1-1h-2v-2l6-2 1 1h1v4l2 1h-1 1v-2h1v-3l-2-2h-1v-3l1-1h6v-1h1Zm-7 1Zm-1 0Z"/>
    <path id="Myanmar" d="M534 303Zm1 0Zm0 0Zm-1 0Zm1 0Zm-1 0Zm1 0Zm4-27h2l1 2v4l-1 1-1 1v2h2l1 2h1l-1 2h2l1 1h1l-1 1v1h-1v1h-2v1h-3v4l2 2v3l-1 1 1 1 1 1v2l1 1v2l-1 1-1 1v1-6l-1-1v-1l-1-1v-4h-1v-2l-1 2h-1l-1 2h-1v-2l-1 1v-1 1h-1v-1l1-2v-1l-1-2-1-1h1l-1-1-1-1h-1l-1-1v-2l1 1v-2h1v-2l1-1-1-1h2v-1l1-1v-1l1-1v-2l1-1h1l1-1 1 1v-2Zm-4 27Zm-1 0Zm0-1Zm2 0Zm1 1Zm-3-1Zm0 0Zm3 0Zm3 0Zm-7-6Zm-1 1Zm1 0Zm-3-3Zm1 0Zm0 0Zm0 1Zm0-1Zm0 0Zm0 0Zm0 0Zm1 1Zm0 0Zm0 0Zm0 0Zm0 0Zm9 21Zm-1-4Zm1 0Zm1 0Zm0-1Zm-1 1Zm0-1Zm0 4Zm0 0Zm0-1Zm1 0Zm-1-1Zm0 0Zm1 0Zm-1-3Zm-1 0Zm1-1Zm1 2Zm-1 0Zm0-1Zm1 0Zm-1 0Z"/>
    <path id="Namibia" d="M368 371v-1l1 1 1-1h1l1 1h9l1 1h5l4-1h3l1 1h-2l-2 1v-1h-1l-3 1h-1v8h-2v14h-1l-1 1h-3v-1l-1-1v1h-1l-1-1-1-1-1-2v-3l-1-2v-5l-2-3v-1l-2-2-1-2v-1Z"/>
    <path id="Nauru" d="M679 337Z"/>
    <path id="Nepal" d="M507 272v-1l2 1 2 1 1 1h1v1l1 1 1-1v1h1v1h5v4h-2v-1h-4l-1-1v-1h-4l-1-1h-1l-1-1-1-1h-1v-2l1-1Z"/>
    <path id="Netherlands" d="m357 208 2 1-1 2h-1l1 1-1 1h1-2l1 2-1 1v1h-1l1-1-1-1h-3l-1-1h2l-1-1 1-1 1-2v2l1-1v-2l1-1Zm-3 1Zm-2 5v-1l1 1Zm2-5Zm1-1Zm1 0Zm1 0Zm-6 7h2-1Z"/>
    <path id="New Zealand" d="M694 414h-1l-2-3v-2l1 1 1 1h1v2l1 1v1l1 1v-2l1 1v2l3 1 1-1h1v2l-1 1v1h-1l-1 1v3h-1l-1 2-1 1v-1h-1l1-2v-1l-1-1-2-1v-1l1-1 1-2-1-2v-2 1Zm2 1Zm-1 0Zm0 0Zm0-1Zm0-1Zm1 0Zm2 4Zm-17 18 1-1h1l1-1 3-2 1-2v-1h1v-2l2-1v1l1 1 1-1h1l-1 1 1 1-1 1-1 1v1l-1 1v1h1l-1 1h-1l-2 1v2l-2 2h1l-1 1-2 1-1 1-2-1-1-1h-1l-1-1h1v-2l2-1Zm0 7 1 1h-2l1-1Zm-3-3Zm1-2Zm15-11Zm-1-1Zm20 10Zm0-1h-1v-1Z"/>
    <path id="Nicaragua" d="M176 313v1h-1l-1-1h-2l-2-1v-1l-2-2h2v-1h1v-1h2l1-2v1l3-1v2l-1 1v4Zm1-8Zm1 1Z"/>
    <path id="Niger" d="M353 301v-5h3l3-3 5-4 4-2-1-1v-1l1 2 3 1 2 1 1-1 1 2v3l1 1v1l-1 2v4l-2 3-2 2v2h-1l-1 1h-1l-1-1h-2l-1 1-1 1h-1l-2-2-1 1h-1l-1-1-2-1v1h-3v1l-1 1v2l-1-2-1 1h-1l1-1h-2l-1-1v-1h1-2l-1-2 1-1h1l1-1h5v-2Z"/>
    <path id="Nigeria" d="m372 309 1 1v3h-1l-1 1v2l-1 1v1l-1 1-1 2-1 1-2-1v1l-1-1v1l-2 2v1l-1 1-2 1v-1l-1 1h-2l-1-1v-2h-1l-1-1h-2l1-1h-1v1h-2l1-3h-1l1-3v-1h1l1-2-1-1v-3l1-1v-1h3v-1l2 1 1 1h1l1-1 2 2h1l1-1 1-1h2l1 1h1l1-1h1Zm-13 18Zm0-1Zm-4-1Zm-1-1Zm3 3Zm-1 0Z"/>
    <path id="North Korea" d="m594 248 1-1 2-2 1-1v-1h1v1h3l-1-1v-1h2l1-1 1-1 1 1v1l-1 1-1 1h1l-1 2h-1v1h-1l-1 1h-1v2l2 1-1 1h-2l-1 1h-2v1l-1-1h-1l2-2h-1l1-1v-1l-2-1v1Zm-1 0Zm7 1Z"/>
    <path id="North Macedonia" d="M386 246v-1l-1-1v-1l1-1h4v3h-3Z"/>
    <path id="Norway" d="M365 186v2h-1l-4 3-2 1-1-1h1l-3-1v-2h1v-2l-1 1v-2l2-1-1-1v1l-2-1 1-1h1v-1l-1 1-1-2h1l-1-1 1-1-1-1h1v-2h1l2-1-1-1h2v-1l-1 1 1-2v1h1v-1h1v-1l3-1 2 1-1-1 2-1-1-1v1l-2 1-1-1 1-1v-1l1-1 1-1 1 1v-1l1-1h-1l1-1 1-2 1-3v-2l1-2 2-2h2-2l1-2 1 1-1-2 2-1-1-1h1v1l1-1v-1h1l1-1-2 1v-1l1-1 1-1 1-1v-1l2-2v-1h2v1-2l1 1v2-2l2-1 1 1v-1l-1-1 1-1 2 1 1 1v-1l2-3v-2h2l1 1-2 2 1 2v-1l1-2 2-2-1 4 1-3h1l-1-1 1-1h2v1l-1 2v1h1v-1l1-1 4 2v1h-1l-1 2-2-1h-1l2 1 2 2-1 1-1 1-1 1v-1l1-1v-1l-2-1-1-2-2 1-2 2v4l-2 2-2-1-1 1-2-1v-1l-2-2-1 1h-2l1 1v2l-1 1-3-1h-1v3l-1-1-1 2-1 2h-1l1 1-2 4v1l-2 1v4l-2 3 1 1v2l-1-1-2 1-1 2v1l1 1-1 2 1 2-1 2 2 1-1 2v4l-1 1-1 1 1 1-1 1-1-1-1-1Zm0 1Zm-3 3Zm4-2Zm-10 2Zm-1-3Zm0 0Zm1 0Zm-1 0Zm16-41 1-1v1Zm-3 16Zm8-18-1 1v-1l1-2v1l1-1v2Zm-8 15Zm1 0Zm1-2Zm-1 0Zm1-1Zm0 0Zm0-1Zm1-2Zm0 0Zm2-2Zm0 0Zm1-4Zm2 0Zm-6 0Zm1-1Zm1-1Zm3 0-2 1v-1Zm-1-1Zm-1-1h2l-1 1h-1Zm2-1 1-2Zm-19 32Zm-1 0Zm1 0Zm1 0Zm0-1Zm1 0Zm0-1Zm2-1Zm0 0Zm-1 0Zm2 0Zm-1 0Zm1-1Zm0 0Zm-1 0Zm-5 15Zm1 0Zm-1 0Zm0 0Zm-1-1Zm1 0Zm0 0Zm0 0Zm1-1Zm-2 0Zm0-1Zm0 0Zm1-1v1Zm-1 0Zm0 0Zm0-1Zm0 0Zm-1 0Zm1 0Zm0-2Zm0-1Zm1-1Zm-1 0Zm8-7-1 1v-1h1Zm0-1Zm-1 0Zm3-1Zm0 0Zm3-3Zm0 0Zm0 0Zm0-1Zm0 0Zm-1-1Zm0 0Zm2 0Zm38-25v1l-1 1v-2Zm-29 8Zm1-2Zm1-1Zm-2 0Zm2-1Zm1-2v2h-2v-2Zm2-1h-2l1-1h1Zm22-1Zm-18 0Zm-2-1Zm2 0Zm-3-1 1 1-2 1v-1Zm-1 0Zm4 0Zm-3 0Zm3 0v1h-1Zm-3 0Zm0-1 1 1v1Zm7 0Zm-2 0Zm3-2v2l-1-1Zm1 1v-2 1Zm-3 0v-1h1v-1h1l-1 2Zm3-3Zm2-1Zm1 0h1v1h-1Z"/>
    <path id="Oman" d="M457 299h-2v2h-3l-1 1-3-5 6-2 2-5-1-1v-1l1-1-1-1h1v-2h1l2 2h1l2 1 1 2h1v1l-1 1v1l-1 1-1 1v-1l-1 1v3h-2v1Zm-1 1Zm6-6Zm-5-11Zm0-1v-1Z"/>
    <path id="Pakistan" d="m467 272-1 1 3 1h4l1-1h3v-3l1-1h2l1-1h1v1l1-1v-1l1-2h1v-1l-1-1h2l1-1v-1l1-1v-1l-1-1 1-1 2-1h3l1-1 1-1 1 2 1 2 1 1 1 1-3 1h-4v2h1l-1 1h1v2h2v1l-1 1v2l-2 1 1 1h-2v1l-1 2h-1l-1 2-2 1v-1h-1l-1 2-1 1h2v2h1v1l1 1-1 1h-4v1h-3v-2h-1v-1l-1-1-1 1h-8v-2h1v-1h2v-1h-1v-3h-2v-1l-1-1-1-1Zm14 14Zm0 0Z"/>
    <path id="Palau" d="M614 321Zm0-1Z"/>
    <path id="Panama" d="M179 317Zm0 0Zm0 0Zm10 1v2h-1v1l-1-1v-2 1l-1-1-1-1-1 1-1 1v2h-1v-1h-2v-1h-3l1-1v-2l1 1h1v1h2l1-1 1-1h2l1 1 1 1Zm-2 1Zm-2 0Zm1 0Zm-6 2Zm0 0Zm1-1Zm-2-1Zm0 0Zm0 0Z"/>
    <path id="Papua New Guinea" d="M657 349h-2v-2l1 1 1 1Zm-3-3Zm-27 3v-8l2 1h3l1 1h1l1 1h1l1 1v1l1 1h1l1 1 1 1h-2v2h1l1 1 1 1v1h2-1l1 1h1v1h2-1v1h-1l-2-1h-2l-1-1h-1v-1l-1-1-1-1v-1h-2l-1-1-1 1v1h-2l1 1v1h-5Zm21-4v-1h2v1h-1v1l-1 1h-1v1h-4v-1h-1 3v-1 1l1-1 1 1v-1l1-1Zm-13 6Zm-1 0Zm-1 0Zm1 0Zm0 0Zm0 0Zm0 0Zm0 0Zm0 0Zm1 0Zm-1 0Zm0 0Zm0 0Zm0 0Zm0 0Zm0 0Zm0 0Zm0 0Zm0-1Zm0 1Zm0-1Zm0 0Zm0 0Zm0 0Zm5-4Zm-1-1Zm-1 0Zm-2-1Zm6-4Zm-1 0Zm0 0h-2Zm12 18 1 1h-1Zm2 0Zm-3 0Zm-1-1Zm-3 0Zm0 0Zm0-1Zm-1-2 1 1h-1Zm0 1Zm5-1Zm-4-1Zm0-1Zm-6-5v-1 1Zm0-1Zm-1 0Zm12-2Zm0-2Zm-2 0Zm-3-1Zm2 0Zm0 0Zm0 0Zm0 1 2 1v2l-1-1v-1l-1-1-2-1Zm-3-2v1h-1v-1Zm-2-2Zm-1 7Zm1 0Zm-12 9Zm0-1Zm0-1Zm0 0Zm0 0Z"/>
    <path id="Paraguay" d="m235 389-1 2-1 1-1 1h-1l-3-1-2 1v-1h1v-2h1l1-2h-1l-2-1-1-1-2-1h-1l-1-1-1-1-1-1-1-1 1-2v-1l1-1v-1l2-1h3l2 1 1 1h-1l1 1v3h4v1l1 2v1h2v1l-1 2Z"/>
    <path id="Peru" d="m204 358 2 3v3l-1 2v1l1 2-1 1-1 1h1l-1 1v1h-1l-2-1v-1h-1l-1-1-1-1h-2l-1-2h-2l-1-1v-1l-1-1v-1l-2-3v-1l-1-1-1-2-2-4v-1l-1-1-1-1-2-1v-1h1l-1-1v-2l1-1h1l-1 1 1 1v-1l1 1h1v1l1-1v-1l1-2h1l2-1 1-1 1-1 1-2-1-1h1l2 1 1 1v1h1v1h5l1 1-1 2h1l1 1h-3l-1 1-2 1v1l-1 1v1h-1v3l1 1 1 1h-1 1l1 1v1h2l1-1v3h2Zm2 10Z"/>
    <path id="Philippines" d="M584 326Zm1-1Zm2-1Zm0 0Zm0 0v-1Zm1-1Zm-2 0Zm3-1h1l-1 1v-1Zm-7-1Zm11 1v-2h-1v1l-1-1v1l-1-1-1 2v-2l1-1h1v-1h1l1 1 1-1v-1l1 1 1-1v-1h1l1 2h-1 1v3l-1 2v-2l-1 1v2h-1l-2-1Zm-6-16-1-1v1l-1-1v-2h-1v-1l1 1h1v-5l1-1 2 1h1l-1 1v1l1 1-1 1-1 1v4h1l1-1 1 1 2 1h-1l1 1v1l-1-1-1-1-1-1v2l-1-2h-1l-1 1v-1l-1 1v-1Zm1-9Zm1 0Zm-2-1Zm1 0Zm1-1Zm0-1Zm0 0Zm-1-1Zm1 14Zm0-2Zm-10 14Zm0 0Zm5-5Zm3 0Zm-4 1h-1v1l-1 2h-2l1-1h1l2-2v-1l1-1v1Zm2-2Zm0-1Zm0-1Zm0 0h1-1Zm5-1Zm-1 0Zm0 1v-1Zm-1-2v1l-1 1-1-1v-2h1Zm1-1Zm-4 0Zm6 13Zm1-11 1 1v1l-1-1h-1Zm0 0Zm-1 0Zm2-1Zm0 0Zm0 0Zm1-2v1h-1v-1Zm-4 7Zm0 2v-1h1l-1-1h1v-1l1 1-1 2 1 1h-1Zm0-4h1v1l-1 1h-1v-3Zm2 5Zm1-1Zm1-1v1h-1Zm-1 0Zm1-1Zm0 0Zm-1-1v2h-1v1-1Zm-1 0Zm3 3Zm1-2Zm-1-1v2h-1l1-1-1-1-1-1 1 1Zm-1-1Zm2-1v2h-1v-1l-1-1-1-1h2Zm-1 6Zm1 8Zm0-1Zm0-3Zm1-5Zm-1 0Zm1 0Zm-1-1v-1 2Z"/>
    <path id="Poland" d="m391 206 1 3v2h-1v4l1 2v1l-1 1-2 2 1 1h-1l-1-1h-3l-1 1-1-2v1h-1l-1-1-1-1-2-1v1l-1-1v-1h-2v-1l-1 1v-2l-1-2h1l-1-1v-1l-1-1 1-1v-2l1-1 2-1h1l2-1 1-1 1 1v1h10Zm-18 1Zm0 0v-1 1Z"/>
    <path id="Portugal" d="M310 266Zm1-1Zm-17-9Zm-2-3h2l-2 1Zm-4-1Zm-1-1Zm0 0Zm2 0Zm-1-1Zm-6-1Zm44-3 1-1-1-2 1-1 1 1h3l1 1-2 1v4h-1l1 1-1 1v1l1 1-1 1v1h-3v-3l-1-1v-2h1Z"/>
    <path id="Qatar" d="M447 285h-1v-4h1l1 1-1 1 1 1-1 1Z"/>
    <path id="Romania" d="m401 238-1-1h-4l-1 1h-2l-2-1h-1v-1h-1l1-1h-1v1l-2-1v-1l-1-1v-1l-1-1h1l1-2 1-2 1-1h1l1-1 2 1h2l2-1h1l1 1 1 2 1 1-1 2 1 2 1 1 1-1h1l-1 2h-1v-1 2Z"/>
    <path id="Russia" d="m442 243-1 1-1 1-1-1-2-1-1-1v-1h-4v-1h-1l-1-1h-2l-2-1h-1l-1 1-2-3h-1l-1-1h-1v-1h-1v-1h1l1-1 1-1-1-2h1l2-1h-2v-1l1-1h2v-4h1l-1-1-1-1h-1l-1-1-1 1-1-2-1 1-1-1h-1l-1-1v-2l-1 1-1-1v-1h-1 1l-1-2h-3v1h-1l-1-1v-3h2l1-1-1-1h-1v-1l-1-1v-1l-1-1v-2l-1-1h-2v-1h-2v-1l-1-2v-2h-1l1-2-2-3 1-1h1l1-2-1-1h2v-1l2 1 1-1-1-1h-3l1-2-2 1 2-3h1l4-5v-4l-2-1-1-1 1-1v-1l-1-1v-2l-1-2 2-2-1-2-2-4v-1l2-2v-1l-1-2-1-1-1-2 1-2h-1l1-1 1-1 1-1 1-1v1l1-1v-1h2v-1l2 1v1h-2l2 2 1-1v1h4l2 1 2 2 2 2 1 1 1 1h1l2 2v2l1 1v1l-2 2-1 1-1 1h-2l-2-1h-4l-1-2h-3l-1-1v-1h-1v1l1 2h1v1h1l2 2v2l-1 1 1 1v3l1 1 1-1 1 2 2 1 1-1v-2h-1l-2-1v-1l1-1h1l1 1 2 1h4l-2-3v-1l1-2 1-1h1l2-2h2l2 2-1-1 1-2v-2l-1-1 1-2v-3l-2-2v-1l2 1h1l2 1 1 2 1 1h-3l-1 2v1h1l1 2h3l1-1v-3h2l1-1 1-1 2-2h1l2-1v1h1l-1-1 2-2 1 1v2h-1v1h3v-1l3-1h2l1-1 2-1 1 1v2h1v-1l1-1 1-2-1-3h1v-1h1l3 1 3 1 1 1 5 3 2 2v1l2-3v-1h-1l-1-2v-1l-3-1v-2h1v-5h-1v-3h1l2-2 1-2 1-5v-2l1 1h4l2 1v3l-1 4-1 1 1 1 1 1v5h-1l1 3v6l2 1-1 2v2l-1 1-1 2-1 2h-1l-1 1h-1l-3-1 1 2 2 1h4l1-2 2-2 1-2 1-1v-2l-1-2 1-2 1-1h3v1l1 1v4l1 2h2l-1-1h-1v-2l1-1-1-2v-2h-2l-1-2h-2l-1 1h-2v-6l1-2v-1l-1-3-1-2v-1l1-1 2-1 1-2-1-4 1 1 1 3-1 3 1 2-1 1 2 1h2l1 1h2l-1-2h-1l-3-2v-2l1-1 2 2 1-1-1-1h-1l1-1 2-1h2l2 2 2 3 3-1v2l-2 1v2l1 2v-2l1 1-1 3v1l1 1 1 1 1 1-1-2-1-1v-1l1-1-1-5 1-2v-1l-2-1-1-1v-1l-2-1-1-1v-4l-1-1 1-1v-1l3-1h6l2-1h2l-1-3h-1v-2l2 1-1-2h-2l1-1 2 1v-1l1-2-2-1 3 1 2-3h1l1-1 6-2 2-1h-2v-1h3l1-1 2 1-1 1h1l3-1 1-1h2l2 1-3-4h5v-5l3-4 3-2 2 1 2 1v2l-1-1v2l-3 1h6l1 1-2 2v2h3v-2h5l2 1 2 3 1 1h1v2h1l-1 2-2-1 1 1-1 1 1-1 1 1v2l-2 3h-1l-1 2-3 2v1l-2 1-2 3-2 1-1 2h-1v2l-2 1-1 1v1l2-1 1-2v-1h3l1-1 3-1 2-2h-2v-1l1-1 2 1 2 1h1l1-1 1 2-1 1 2 1-1-2h3v-1h3l2 1h3l-1 1v2l2 1h4l2 1h1l1-2v-4l1 1 1-2 1 1v1l2 1 1-1-1 2 4-1v1l2 1-1 1h-1l1 1-2 1-2 1v1h2l2 2v2l1 1 2 3 1 2h1v1l1-1 2-5 1-2v1l1 2 2 1 2-2 3 1h1l1 2 1-1-1-1v-1h2v1h2l-1-3 1-1-2-1 1-2 1 1 3-1-2-2h2l1 1h3l4 1 2 1h-3l-1 1h5l-2 2 1-1-1-1v2l-2 1 1 1 1-1 2-3 3-1 2 1 1 1v2l-1-1-1 2h2v1h1v1h2l1 2h-1l3 1 6-2h2l3 1 2 2 1 2v3l1 1h1v3l1 1v1l1-1-1-2 2-2 3-1 1 1h3l2 1 2-2 1 2v2h2v2h2l1-1v-2l-1-2 1-1-1-2 4 1 2 1h6l4 2 2 1 1 2v20l-1 1-2 1h-1l-1-1h-2l1 1h1v1l2 1v-1l1 2v3l1 1 1 2-2 1-2-1-2 1-1 1h-2l-4 3-2 1-1 2-1 1h-1l-1 2h-1v-2h-4l-2 1-1 2h-1l1-2v-1l-3 2v1l-1-1h-1l-1 2v1l-1 1-1 2-1 2 1 1 1-1 1 1-1 1v2l1 1v2h-1l-1-1-1 1v5h-2l-2 2v3h-1l-1 1-1 3-1 1-2 2-1-1v-2l-1-3v-4l-1-4v-3l1-3 1-1 1-1v-1h1v-1h2l1-2 2-1v-1l2-2 1-2 1-1v-1l2-1 2-1h-1l1-1v-2l1-2v-1h1l-1-1-2 1v1l-1 2h1l-1 1v-1h-1l-1 1-2 2v1l-2 1 1-2h-1v-1l1-1v-2l-2 1v-1l-2 1h-2l-2 1v1l-1 1v1l-2 2-1 1-1 2h1l2 1h-2v1l-2-1-1 1h-2l-1 1-1-1 1-1h2-1l-1-1h-2l-1-1-2 1h1l-2 1-1-1v1l-3-1v1h-1v-1l-2 1-3-1-3 2-1 1-1 2-1 1-1 1v1l-2 1-2 2v1l-1 1-2 2-1 1-1 1h-1l1 1h3l-1 3h1l1-1h-1l1-1v1h1l-1 2h1l1-1v1l1-2-1-1 2 1h2v1l2 2-1 1-1-1 1 1v2h1v1l-1 1-1 1v8l-1 1-1 2-1 1-1 1-1 3-1 1-2 2-1 2-2 2-2 2-2 1v-1h-1v-1l-1 1v-1l-1 1-1 1-1 1v-1l1-1 1-2h-1l1-1-1-2 2-2 2 1v-1l2-2v-3l2-2-1-1 1-1h-1l-2 1h-1l-1 1h-3l-1-3-3-2h-2l-1-1v-3l-1-1v-1l-1-2v-1l-1-1-1-2h-2l-2-1h-2l-3 1-2 1 1 1v2l-1 1v1l-2 3h1l-1 1-1 1-2 1-1-1-1-1h-1l-1 1-1-1h-2l-2 1-2 1h-2l-1 1h-1l-2-1h-1l-1-1v-1h-2l-1-1h-4l-1 1h-2v-1h-1l-1-1v-2h-2l-1-1h-1l-1-1-2-1v1l-1 2-1 1 1 1v2l-2 1h-1l-4-1h-1v-2h-5l-1 1h-1l-2 1v1l-2 1h-1l-1 1h-1l-1-2-1 1-2-1v-1l-2-1-1-2h-2v1h-2l-1-1-1-1h-1l1 1-1 1-2-4-3-4-2-3v-1l-3 1v1h-2v1l-1-1-1 1v-1l-1-1h-1l-1-1v1h-1v-2l-1-2h-2l-2-1v1h-1v1l-6 1v1h-2l-4 1h-2v1l1 1h-1v1h2v1l-2-1-1 2 1 1-2 1 1 1 1 1v2h-3v1l-2-1-1-1h-1l-1 1v-1h-2l-1 2-1-1-1-1v1h-1v-1l-1-1h-2l-1-1h-1v1h-1v-1h-1l-1 1-1 1h-1v1h-1v2l-1 1-1-2h-1v1l-1 1v3l-1 1 2 1v1h1l1 1 1 2h-1v1h2l-1 1-2 1-1 1v2h-1v1h1v1h1l-1 2v1Zm62-126v2h-2v-1l1-2Zm55-4Zm-48-4Zm-1 0Zm3 1Zm-9-4Zm10 0Zm2 0Zm0 0Zm0-2Zm-7-3-1-1 1-2v2h-1Zm9 3Zm-10-9Zm1 0Zm26-2Zm0-1Zm3 1Zm1 1Zm-3-2h2v1h-2Zm23-16 1-1v1Zm-1-2Zm-61-15 3 2h-2Zm31-1Zm-25-13Zm24-5 1 1-1 2-2-2Zm3 15 2 1-1 3h-2v-1l-2-1v-2l2-1Zm0-1-1-2h-1l2-2h1l-1-2 2-2-2 1 1-3 3-2 2-1h1l1 3 2 2 1 1-2 1v1l1 3-1 1h-3l-2 1-1 1Zm6-14Zm-6 22Zm0 0Zm17 3 1-2 1 1 1-2 1 1-1 1v5l1-3 2-1 1 3 1 1 1 2-1 2-3 1-5 1-2 2-1-1 1-3v-3Zm-5-10h1l1 1 1 2-1 2v3h-1l1 3 1 1-1 1h-4l-1-1-3-1v-1l-1 1-2-2v-3l-1-1 1-2h1l-1-1 1-2 2-1h3l1-1 1 2-1 2h2Zm-23 48Zm20-11Zm-1-1Zm33 0Zm-2-2Zm-32 0Zm-1 0Zm-14-4Zm1-2Zm14 1 1 1-2 1h-1Zm-3 5Zm-25-8Zm50 1Zm1 1Zm-144 82Zm-2-1Zm2-3Zm0 1Zm13-8Zm21-26h1l-1 2-1-2Zm8 5Zm-1-1Zm6-37Zm-11-42-2 1-1-2h1v-1l2 2Zm-6-11Zm17-9-3 1v-2h3Zm5 2Zm1-1h2l1 1Zm-6 4v1h-2Zm-4-1v-1h1l1 2Zm12 7h1l2-3h1v3l-1 2-3 2-1-2Zm-12-4 1 2-2-1Zm-2 0-1 1v-2l2 1-1-2 3 2-2 1Zm9 6 3-1v3l-2 1v2l-2-1-1 1-1-1 1-4Zm-14 2 1 2h-1Zm-15 2v-1l-3-1 3-1 2-2 2 1 1 1h-1l-1-1Zm20-2h-1v-2l2 1Zm4-3 1 2-2-1Zm-8 0h2l1 1-2 1Zm2-1-2-1 1-1 1 1h2l1 2h2v2l-3-1-2-2Zm12-1v1h-2l2-2h1Zm-10-1 2 1 2 1-1 1Zm4 1Zm2 12h1v1l-2-1Zm-17 1 1-2v2Zm-1-1-2-1 2-1Zm12 0-1-3h3l-1 2Zm3-5h2l1 2-1-1-1 2v1l-2-1v-3Zm-22 3v-1l3-1-2-1 2-1h2l1-1-2-2 3-2 1 1-1 1h2l1 1-2 2-2 1v1h-2v3h-2v-2Zm12 66v-1l1-1v-1l1-1h1l1-1 1 1h2v2h-2l2 1-1 1-1 3h1l-1 2 1 2 1 3 2 2 1 1-1 1-2-1h-2v1l-1-2-1 1-2-1 1-1 1-1h-1l-1-2-2-1-1 1-1-2 1-2h1l1-3Zm6-15 2-1h-2v-2l1 1 1-1 1-2 1 1v-2h1l-1-1h2v-1l1-1 4-1v-2h1l3 1 1-1h1l3-2h1l-1-1 2-2 2-1 2 1 1 1-1 3-1 1-4 2-1 1-1 1-3 1-1 1-3 1-3 4v1h-1v1h-1v1h-2l1 1-1 2v1l-2-2 1 3v2l-2 2h-3l-1-1h-1l1-2-2 1v-1l3-3 1-1-1-1 2-1h-1v-1h1Zm-44 36Zm35 5Zm13-2Zm-18 0-1-1v-2l1-1h1l2 2-1 1Zm20-3Zm2-2-1-1-1-1-1-2 2-1 2 3v2Zm-2-2Zm193 85Zm-1-1Zm0 3Zm0-1Zm-1 0Zm5-5Zm-2 0Zm0 2v-1l1-1v1l-1 1Zm-10 12-2 1Zm3-2Zm1-2Zm1-1Zm1-1Zm-23-2v-5l1-2-1-1-1-2v-1l1-1v-3h1v-3l1 1v1l1 2v2l-1 1v1l1 1v1l1 3 1 3v1h-1l-1-1-1 1-1 4v1h1v2h1v1h-2l-1 2v-8Zm39-80Zm0-1Zm-1-1Zm1 1-1-1v-2h1Zm0-2Zm0-1Zm0-8Zm-1 0Zm-21-3Zm-26-1-1-1h2Zm-17-5Zm0 1Zm-1-1Zm0 0Zm-2-1Zm3 1h1Zm-1 0Zm0 0Zm0-1Zm0 0Zm-3-1Zm1 1Zm3 0Zm-2-1 2 1h-3Zm-2 0Zm2 0Zm16-23v2h-1v-3Zm21 2v-1l1 2 1-1 2 1v1l2-1 1 1 1 1 1-1-1 2-1 1h-4l-1-1-1-1-2-1Zm-68 7 2 1-1 2h-2l-1-1 1-1v-1Zm73-17Zm-14 14-4 1-1-1v2h-1l-2-1-1-2-1-2h1l-1-3 1-1v-2l3-1 2 2 1 1v1h1v-3l2-1 1 2 2 1 4 2-1 1v2l-2 1-2-1-1-1 1-3-1-1-1 2 1 3 2 2-2 1Zm-29 17Zm2 0Zm0 0Zm-3 0Zm2 0Zm-1 0Zm0-1Zm2 0Zm0 0Zm-2 0Zm3 0Zm-1-1Zm0 0Zm-1 1Zm0 0Zm1 0Zm0 0Zm0-2Zm0 0Zm-17 0Zm0 0Zm17 1Zm-2-4Zm29 1-3-1-1 1 1-2 1-2h3l2 3v2Zm-3-4-1-2 1-1h1v2Zm-9-1-1-2 2 2Zm-23 1Zm52 77Zm-149-72Zm-13 1 1-2 1-1h1v1l1 1-3 1Zm3-3Zm8 0Zm2 0Zm-10 1Zm-2-1Zm14 6h2l-1 2h-2Zm-12-2Zm7-2v2l-1-1v-1Zm-10 39Zm1-1Zm0 0Zm-1-1Zm-2 0Zm0 0Zm6 1Zm-1 0Zm-3 0Zm3 0Zm-3 0Zm-1 0Zm4-1Zm194 51Zm-4-2h1l1 2Zm-2-14-1 1-2 1 1-2 1-1Zm-2-3Zm-53 20Zm1 0Zm0-2-1 1v-1 1-2l1 1Zm-2 0ZM5 158Zm715 6Zm-15-2v-1l1-1Zm-706-9 1 1 3 3-1 1v1l-3 1v-7Zm722 7v2l-1 1v1l1 1h-1l-1 1-2-1v-1l-1-1h-2v-2l-1-1-2-1-1 1h-2l1-1-1-1v-2l-1 1h-1v1l1 1-1 1h-1v-18l3 1v1l2 2h1l1 1h1l2 2 1 1v4h-1l1 1v1l1-1v1l1-1h-1v-3h1l3 1v7Zm-16-33v3l-2 1v-2Zm0 3v-3l3-1 1 1 1 1-1 2-3 1Zm-24 7 1-1 2 1v1h-2Zm-294 65 1 1h2v2h-6l1-1h-1v-1h1l1-1-1 1h1l1-1Zm221 38Z"/>
    <path id="Rwanda" d="M402 341v-1l1-1v-1h2l1 1v1h-2v1h-1Z"/>
    <path id="Saint Kitts and Nevis" d="M218 300Zm1 1Z"/>
    <path id="Saint Lucia" d="M222 308Z"/>
    <path id="Saint Vincent and the Grenadines" d="M221 308Z"/>
    <path id="San Marino" d="M369 237Z"/>
    <path id="Sao Tome and Principe" d="M359 332Zm-2 3Z"/>
    <path id="Saudi Arabia" d="M414 274h2l1-1h1l1-1h1v-1l-1-2h-1l4-1 1-1 2 1 2 1 2 1 5 4h3l2 1 1 1h1l1 1v1l1 1 1 1 1 1v2h1v2h1l1 1 2 2 5 1 1 1-2 5-6 2h-5l-2 1-1 2-1 1h-1v-1h-7v2h-1l-1-2-1-1-1-2-1-2-1-1h-1l-1-1v-1l-1-3-1-3-1-1h-1v-2l-1-1-1-2-2-2v-1h-2Zm14 27Zm0 0Z"/>
    <path id="Senegal" d="M310 309h2v-1h2l1 1h1v-1h-5l-1-2h-1l1-1 1-2v-1h4l1 1h1v1h1v1l1 1 1 1v2l1-1v2h-1l-1 1-1-1h-8Zm1-1Zm-1-1Z"/>
    <path id="Serbia" d="M383 238v-2l-1-1 1-1-1 1v-1h1l-1-1v-1l1-1h2l1 1v1l1 1v1l2 1v-1h1l-1 1h1l-1 1v1l1 1-1 1v2h-2l1-1-1-1-1-1h-1l1 1h-1l-2-1Z"/>
    <path id="Seychelles" d="M437 354Zm19-10Zm-1 1Zm0 0Z"/>
    <path id="Sierra Leone" d="M319 320v1l-1-1Zm-2-3h1l1-1 1-1h2l1 2v2-1 2l-1 1-1 1-2-1v-1h-1Z"/>
    <path id="Singapore" d="M553 333Zm0 0Z"/>
    <path id="Slovakia" d="M379 225h-1v-1l1-1 1-1 1-1h2v-1l1 2 1-1h3l1 1-1 2h-3v1h-3l-1 1h-1Z"/>
    <path id="Slovenia" d="M372 230h1l1-1h2l1 1-1 1v1h-1v1h-1l-1-1v1h-2l1-1h-1v-2Z"/>
    <path id="Solomon Islands" d="M666 359h-1Zm2-3 1 1h1-2v-1Zm11 3Zm-2-2Zm-9-2Zm0 0-1-1-1-2h1v1Zm-3 0 1-1 1 1h-3l1-1Zm1-1Zm-1 0Zm-2 0Zm-3-1Zm1 0Zm-1 0Zm1 0-1-1 1 1Zm-2-1Zm0-1Zm-2-1Zm8 3Zm-3-2Zm3 2-2-1-1-1h1l1 1h1Zm-5-3h-1l-1-1 1 1h1Z"/>
    <path id="Somalia" d="m428 328 1-1h1v-1h4l2-3 4-4h-2l-5-2-2-1-1-1v-1l1-2v1l1 1h5l2-1h3l1-1h2l1-1 1 1v2l-1 1v1l-1 2v1l-1 1-1 2-1 1v2l-2 1-2 3-2 2-2 1-1 1-2 1-2 3-2 2-1-2v-7l1-1Z"/>
    <path id="South Africa" d="M384 387h1l1 2v1l-1 1 3 1 2-2v-2h1l1 1h3l1-2h1l1-1v-2l2-1 1-1h1v-1h2l1 1 1-1 1 1v2l1 1v5l-1-1-1 2 1 1 1 1v-2h2l-1 4-1 1-1 2-1 2-2 2-1 1-2 2-1 1-1 1-2 1-1-1v1h-2v1l-3-1h-2l-1 1h-3l-1 1h-1v-1h-1l-1-1v-1l-1-1v-1l1-1v-1l-2-2v-2l-1-2-1-1 1-1v-1l1 1v1h3l1-1h1Zm18 9v-1l-2 1-1 1-1 1 1 1 1 1 1-1h1l1-2Z"/>
    <path id="South Korea" d="m598 253 1-1h2l1-1v2l2 2v3l-1 2h-1v1l-1-1-1 1-1 1v-1 1l-1-1v1-6h-1l1-1 1 1-1-1v-1Zm0 1Zm0 3Zm0-3Zm0 8Zm0 0Zm3-1Zm1 0Zm5-7Zm-8 10v1h-1v-1h1Z"/>
    <path id="South Sudan" d="m406 329-1-1-1-1v-1h-1v1l-1-1-1 1-1-1-2-1h1v-1l-2-1v-1l-1-1-1-1-1-1h-1l-1-1h-1l1-2-1-2 1 2h2v-1l2-1 1 2h3v1h2v-1h1v-1h1l2 1h1l1-2 1-1v-2h2v3l1 1v1l1 2-1 1h-2l1 1h1v1h1l1 2v1l1 1h1v1h-1v-1l-2 1-1 1 1 1-1-1-1 1h-4Zm-6-13Z"/>
    <path id="Spain" d="M308 278Zm2-1Zm3 0h-1 1Zm4-3Zm-1 1Zm-8 0v1Zm3 1v1l-1-1Zm4 1 1-2v1Zm23-17Zm-5-2Zm14-17h1l1 1 1-1 1 2h-1l-1 1h-1l-2 1-2 3-1 1 1 1v1l-1 1-1 2h1-2l-1 1v1h-5v1h-1l-1 1-1-1-1-2h-2v-1l1-1-1-1v-1l1-1-1-1h1v-4l2-1-1-1h-3l-1-1-1 1v-1h1l-1-1v-1h-1l1-1h2v-1h4l3 1 2-1 1 1h3l2 1 1 1h1v-1h2Zm0 10Zm6-3h-1Zm-3 1h-1l1-1 1 1-1 1Z"/>
    <path id="Sri Lanka" d="M504 317Zm0-1Zm0 2 1-1v-1h-1 1l1 1 1 1 1 1v3l-1 1-1 1-1-1-1-1v-3Zm1-2Zm-1 0Z"/>
    <path id="Sudan" d="m391 314-1-1-1-1v-2h-1l1-2h-1l1-1v-1l1-1v-1h2v-9h2v-5h17v1h1l1-1h1v-2l1 1v-1l1 1h1l1 1v1l1 1h-1l1 1v4l2 1v1l-2 1v1h-1v1l-1 3v5h-1l-1 1-1 1v2-1l-1 1v1l-1 1v-1l-1-1v-3h-2v2l-1 1-1 2h-1l-2-1h-1v1h-1v-1h-2v1h-3l-1-2-2 1v1h-2Z"/>
    <path id="Suriname" d="M234 331v-1l-1 1-1-1v2h-1l-1-1-1-1v-1h-1v-4h1v-1l1-1 2 1v-1l1 1 1-1 2 1-1 2v1l1 1-1 1v1Z"/>
    <path id="Sweden" d="m367 188 1-1-1-1 1-1 1-1v-4l1-2-2-1 1-2-1-2 1-2-1-1v-1l1-2 2-1 1 1v-2l-1-1 2-3v-4l2-1v-1l2-4-1-1h1l1-2 1-2 1 1v-3h1l3 1 1-1v-2l-1-1h1l3 3 2 2h1v4h1l-1 2 1 1v6l-2-1h-1l-1 2h-1v2l-1 1v1l1 1-1 1v2h-2v1h-1l-1 2h-1v1h-1v2h-1v8h1l1 1 1 1-1 2v1l-1 2-1-1-1 2h-1l1 1-1 1 1 1-1 3-1 2v1h-3v2l-2 1-1-1v-1l-1-1 1-1v-1l-1-1-1-3-1-1 1-1-1-1-1-2Zm0 4Zm0-1Zm1 0h-1Zm7 8Zm3-5-1 4v-1Zm2-6Zm1 0Zm-1 0Zm-1 0Zm2 0Zm0-1Zm1 0Zm0 0Zm-1 0Zm0 0Zm0-1Zm1-1Zm0-2Zm0 10v1l-1 1-1-1 1-1 1-1Zm1-1Z"/>
    <path id="Switzerland" d="m363 228 1 1h1v1h-1v1-1h-1l-1 2-1-2-1 2h-2v-2h-1l-1 1v-1l1-1 1-2h3v-1h2v2Zm-2-2Z"/>
    <path id="Syria" d="m422 264-4 3h-1l-1-1v-2l2-2h-1l-1-1v-3h1l1-1h-1l1-1h6l2-1h3l-1 1-1 1v4l-1 1Z"/>
    <path id="Taiwan" d="m587 284 1-1 1 1-1 4-1 1v1h-1v-1l-1-1v-2Zm-6 1Zm7 5Zm0-1Zm-4-2Z"/>
    <path id="Tajikistan" d="M494 255h-2l-1-1-1 1-1 1h-1l-1-1 1-2h-1v-1h-1l-1 1v1h-1l-1 1h-2v1l-1-1v-1l1-2v-2h-2v-1h3v-2h1v-1h1l1-1 1 1-1 1h1v1l-1-1-1 1h-1v1h5v1l1-1h3v2h1l1 1 1 2-1 1Zm-8-7Z"/>
    <path id="Tanzania" d="m406 352-1-2-1-1-1-2h1l-1-2v-1h1l1-1 1-1v-1h-1v-1h1v-1l-1-1h7l7 3 1 2 3 2v1l-1 2 1 2v3l1 1v2h1v1l-2 1h-1l-1 1v-1h-1v1h-6v-2l-1-1-1-1h-1l-1-1h-2l-1-1h-1Zm18-1Zm-1-3v1-2Zm1-2v-1Z"/>
    <path id="Thailand" d="M555 306v1l-1-1h-2l-1 1-2 1 1 2v1l1 1-1-1h-1l-1-1h-2l1-2h-2v3l-1 2-1 2v2h1l1 1v1l1 2-1-1 1 1 1 1h1l1 1v1h-2v-1l-2-1v1l-1-1v-1h-1v-2h-1l-1-1v-1l1-2v-1l1-1 1-1v-2l-1-1v-2l-1-1-1-1 1-1v-3l-2-2v-4h3v-1h3v1h1v5-1l2-1 1 1h1l1-1h1v1l1 1v2l1 1h1v3Zm-10 10Zm-1 0Zm1 0Zm5-5Zm0 1Zm-8 7-1 1v-1Zm2 2Zm-2-1Zm0-1Zm-1-2Zm2 3Zm0 0Zm0 2Zm1 0Z"/>
    <path id="Tibet" d="M 500,259 H 501 L 503,258 505,259 V 261 L 504,262 503,263 H 502 L 503,264 H 502 V 263 L 503,262 501,261Z"/>
    <path id="Timor-Leste" d="M594 354v1l-1-1Zm1 1v-2h3l1-1h1l-1 1-1 1h-2Zm1-3Z"/>
    <path id="Togo" d="m344 313 2 1v1h1v7l1 1h-2l-1-2v-2h1l-1-1v-3l-1-1v-1Z"/>
    <path id="Tonga" d="M715 376Zm-1-9Zm1 12Zm2-5Zm-2 6Z"/>
    <path id="Trinidad and Tobago" d="M223 313Zm-2 2h-1 1l-1-1h2v1Z"/>
    <path id="Tunisia" d="m363 272-1-5-1-1-1-1-1-2 1-1 1-1v-4h-1l1-1 2-1h1l1 1 1-1v2h-1v2h1v1l-1 2h-1v1l1 1h1v1h1v2h-1l-2 2 1 1-1 1-1 1Zm3-11Zm0 0Zm0 2Z"/>
    <path id="Turkey" d="m431 245 1 1-1 1 1 1h1l1 1v-1l-1 1h-1l1 2v2l1 1v1l-1 1v-1h-7l-2 1h-6l-1 1h1l-1 1h-1v-1l1-1h-1l-1 1-1-1-1 1h-1l-1 1h-2l-1-1-1-1h-2v1l-1 1-1-1-1-1h-2l1-1-2 1v-3h-2v-1h1v-1l-1-1 1-1h-2l1-1 1-1h5l-1-1h2-1l-1-1h5v-1l2-1 2-1 3 1v-1l1 1h1l1 1h1l1 1h8v-1h3l1 1Zm-31 1Zm-4 2Zm1-5 2-1v1l1-1v1l1 1 1 1h-3v1l-1 1h-1l1-1h-2l1-1v-1Zm-1 4Z"/>
    <path id="Turkmenistan" d="M478 255h-1l-1-1v1h-2v2l-1 1h-2v1l-1 1h-1l-1-1h-1v-3h-2v-1h-1l-1-1h-2l-2-1v-1h-2v1h-2l-1 1-1 1-1-1v-3l-1-1v-1h1l-1-1h-1v-5h-1l1-1h4l1 1v1h4l-1-1 1-1h1l1-1h1v-1l1 2h1l1 1v2h2v-1l1 1 1 1v2l4 2 3 2 2 1Z"/>
    <path id="Uganda" d="m403 338 1-2v-2l1-2 2-1h-1v-2l1-1h4l1-1 1 1v2h1v3h-1v1l-1 1v3h-8Zm9 0Z"/>
    <path id="Ukraine" d="m391 215 1-1 1-1h3l1 1h4l1 1v-1l1 1 1-1h1v1l1-2h3v-1h3l1 2h-1 1v1l1 1 1-1v2l1 1h1l1 1 1-1 1 2 1-1 1 1h1l1 1 1 1h-1v4h-2l-1 1v1h-2l-2 1h-1l-1 1-1 1h-2l1 1h1v1h3v1h-2l-1 1h-1l-1 1-1-1v-1l-1-1h-1l3-2h-3l-1-1h-1 2l-1-1h-1l-1 1-1 1v-1h-1l1 1-1 1v1h-1l-1 1-1-1v-1l1-1v-1h2v-1l-1-1v-1h-1l1-2h-3l-1-1h-1l-1 1-2 1h-2l-2-1-1 1-2-2 1-2h1l-1-1 2-2 1-1v-1l-1-2Zm18 16Zm-5 3Zm-3-1Z"/>
    <path id="United Arab Emirates" d="M451 286Zm1-1Zm1 0Zm-2 0Zm-1 0Zm7-1h-1v2h-1l1 1-1 1v1l-5-1-2-2h1l1-1 2 1 1-1 1-1h1l2-3v3Zm0-1Zm-6 3Zm3-1Zm-5 0Zm4 0Z"/>
    <path id="United Kingdom" d="M338 209v-3l-1-2v-1l-2 1-1-1v1-1l1-2-1-1h-1v2h-1l1-2v-2l1-2-1 1-1-1 1-2h-1v-2l1 1 1-1h-1l1-3 1 1 3-1v1l-2 2v1h4v1l-1 3-1 1h1l-2 1h2l1 1 1 1v3l2 1 1 1v1l1 2-1 1h3l1 1-1 2-1 1-1 1h2v1l-2 1h-8v2l-1-1h-2v1h-1l1-1 1-1v-1l1-1h2l1-1-1 1h-1l-1-1h-2l-1-1 3-1v-2h-1l1-1v-1Zm4 8Zm-14-12 1-1v-1l1-1h2l1 2v1l-1 1h-1l-1-1-1 1Zm4-15-1 2h-1v-1Zm0 3v1l1 1h-2l-1-1Zm9-9v-2h1Zm1-3Zm-10 16 1 1h-2Zm6-8-1-1 1-1Zm0 0Zm-7 12v-1l1-1v1Zm3 0Zm-4-8Zm2 6Zm-2-5Zm8-5Zm4-8Zm-8 19Zm-3-5Zm-2-1Zm1 3Zm1 0Zm-2-2Zm10-8Zm-7 7Zm6-7Zm0 0Zm-6 12Zm10-17Zm-3 6Zm-7 6Zm-1 3Zm10-15Zm-6 27v-1l1 1Zm0 0Z"/>
    <path id="United States of America" d="M167 271h-1l-2 1-1-1v1l2 1h-1l1 1v1l-2-1h-2v-1h-6l-1 1v-1h-1l1 1-1 1-2 1-2 1-1 2 1 3h-1v-1h-2l-1-1-1-1v-1l-1-2-1-2-2-1h-2v1l-1 1-2-1-1-1-1-2-1-1-2-2h-3v1h-6l-7-3h-5v-1l-1-1-1-1h-2l-1-1h-2v-2l-1-1-2-2 1-1-2-1v-2l1 1-1-1-1-1-1-2-1-2-1-1 1-2v-3h-1v-2l1-3v-9l-1-2v-2l1 1h3v1l-1 1 1-1v1h1l-1-1 1-1-1-2v-1h1l7-1h7l6-1h14l7 1h6l7 1v-1h1v2h2v1h3l1 1h4l-1 1-1 1-3 2h3v1h1l1-1h1l2-2h1l-1 1 1 1 1 1h1l1-1h2v1h2v1h1-2v1l-2-1-3 1-1 2-1 1 2-1-1 2v7h2l1-1v-3l-1-1v-1l1-1v-1l1-1v1l1-1v-1h1-1l1-1 2 1 1 1v2l-1 2 1-1h1l1 3-1 1-1 1v1l1 1h2l1-1 2-1 2-1 1-1-1-1h5l1-1v-1l2-3h8v-1h1v-1h1v-1l1-2 1-2 1 1 1-1 1 1v4h1v2l1 1h-2l-1 1h-1l-1 1h-1l-1 1-1 2v1l-1 1h1l1 1-1 1v-1l-1 1v-1 1h-3l-2 1-1 2h1l-1 2-1 1-2-1 1 1v2l-2 3 1-1v-1l-1-1v-2l1-1-1 1-1 2 1 1v1l-1 1 1 1h1l-1 1h1l-2 1h2v1l-1 1-1-1v1l1 1h-2l-1 1v1h-2l-1 1v1h-1l-1 1v1l-2 1v5l1 1v2l1 3v3l-1 1h-1v-1h-1v-2l-1-1-1-1 1-1-1 1v-3l-1-1-1-1-1-1-1 1h-1l-1-1-1-1h-2v1h-1l-1-1v1Zm25-11Zm1-7Zm-1 1Zm0 1Zm-33 18Zm17-42v1Zm-2 1Zm-2 0Zm0 0Zm-1 2Zm0 0Zm-1-4Zm-5-4 1-1Zm38 18Zm-1 0Zm-22 41Zm1-1Zm0 0Zm-1 0Zm0 1Zm-1-5Zm-6-7Zm6 7Zm-81-52Zm0 0Zm0 0Zm0-3Zm-1-1Zm0-1Zm0 1Zm-2 6Zm3-5Zm0 2Zm0 0Zm115 71Zm0 1Zm-3-1h2l-1 1h-2v-1Zm-2 1Zm-55-25Zm-4 5Zm0 0Zm1-3Zm0 1Zm-1 5Zm-43-18Zm0 1Zm-2 0Zm0-2Zm-1 0Zm-1 0Zm93-17Zm1-1h3l-3 1Zm3 0Zm505-32Zm-1 2Zm-1-2Zm0 0Zm-2 0Zm-3-1Zm-5-1Zm0-1h-1Zm-612-7Zm0 0Zm-3 0Zm0-5h1-1Zm0 3Zm-1 0Zm0 1Zm0-3Zm1-1v1h1l1 3v2h-1v-2h-1v-1l-1-1h1v-1l-1-1Zm1 4Zm-1 0 1 2-1-1Zm0 0Zm-1-2Zm0 0Zm0 1Zm-1-1Zm-1 0Zm0-4h2l-1 3-1-1h1l-1-2Zm2-1 1 1v2h-1v-2h-1Zm1 1 1 1h-1Zm-2-3v1l-1 1v-1l-1-3h2v2Zm-3 1h1l1 3v2l-2-3v-2Zm-1 1Zm1-1Zm-2-3Zm2 1v-1l1 1v2l-1-1v1l-2-2v-1h2Zm-18-7Zm-4-3Zm0 1v-1h1l-1 1Zm-2-2Zm1 2-2 2Zm-2 0Zm0-2Zm0 3Zm0-1Zm0 1Zm-1 0Zm-4 2Zm-3 5Zm0-8Zm-1 5Zm-2 4Zm1-1 1-1 1 1-2 1-1-1Zm1-1Zm-2-4Zm-2 11Zm1 0Zm-2 1Zm1-1Zm0-3v-1h1v-1l2 1-1-1 2 1v1l-2 1-1 2v-2 1h-1Zm2-1Zm1 2Zm-5 5Zm-4-3Zm-4 6Zm0 0Zm0-1Zm-2 1Zm0-2Zm0 1Zm0 0h-1l1-1Zm-1-13Zm-2 13Zm-1 1Zm-1-34Zm1 0Zm0 36Zm-3-2h1v1h-1l-1 1h-1v-1l1-1Zm-3 3Zm0 0Zm-1-1Zm0 1Zm-1 1Zm2-23-2 1-2-1v-1h1l1-1 1 1Zm-4 25H7l2-1v-2h1v1l-1 1Zm58-24 2 2v1l2-1v-1l2-1 1 1v1h1l1 2 1 1 1 1 2 4v2h1l1 1 2 1v3l-1 2-1-1v-4l-2 1v1-3l-1-1h1l-1-1-1-1h-1v-1l-1-3-1-1-1-1-1-1 1 3-1-1h-1v-1l-2-1 2 1v2h-1l-3-2v-1l-4-2 1-1h-3l-1-1h-5v-1h-2v-1l-1 1v-2h-2v-1h-2l-1 1v-1l-1 1 1 1-1 1v1h-2l-1 1-2 2h-2v-1h1l1-1-1 1-1-1 1-2v-2l2-1h3l-3-1-3 2-1 1v2l-1 2-1-1-1 2v1h1v1l-1 1v1l-1 1h-1l-1 1-1 1v-1l-1 2-2 1-2 2h1l-1 1-2 1v1-1h-1l-1 1-2 1v-1l-1 1-1 1v-1 1h-2v-1l2-1v-1h1l2-1 1 1v-2l1-1 2-1h1l2-3v-3l1-1v-1l-2 1h-1v-1l-1 1v1l-1-2-1 1-1-1-2 1v1l-1-1v-3l-1-3v1l-3 1-1-2-2-1 1-2 2 1v1l1-1-1-1-1 1-2-1v-1 1l-1-2v-1l1-1h-1l1-2 1-1v-1l1-2h1l1 1 2-1v-1h3v-3l-1-1 1-1v-1l-3 1-1 1-1-1h-2l-1 1-3-1v-2l1-1-3-1-1-1 1-1h1l1-1h2l-1-1 1-1h3v2h4l1-1h1l-2-1-1-2 1 1 1 1 1 1h1v-2h-1l-1 1-1-1 1-1-1-1h-3l-1-2-3-3-2-1-1-1h1v-3h5l2-2v-3l2-3h1l2-1 1 1v-2l1-1h3l1-1 2-2 2 1-1 1v1h1v-2h1l1 2h1l2-1 1 1v2h1l2 1 1-1h3l1 1 1 1h4l2 1 4-1 3 3h1v45h4v1Zm15 14v3l-2-1 1-1Zm-1 3Zm-1-3-1-2 1 1Zm0 0h-1v-1Zm-4-8Zm-23-8Zm-5-2Zm0 0Zm0 3Zm-5 2ZM6 208h1l-1 1-1 1Zm-3 2Zm0-13Zm0 13Zm0 0Zm-1 1Zm0-16Zm-1 16Zm-1 0Zm-1-42v-1l1 1h1l1-1 1 1 1 1h1v1H4v1l-2-2H0Zm721 43Zm1-29Zm-3 30Zm-1 0h-1l1-1Zm-4 0Zm0 0Zm0 0Zm-2 1 1-1v1Zm2-1Zm-3 1 1-1v1Zm-1-1Zm-1 1Zm-1 1Zm0 0ZM4 364Zm-3 1Zm213-67Zm0 1Zm0-1Zm-19-49Zm0 0Zm11-13Zm0 1Zm1-1ZM31 296v-2l2 1v1h-1v1h-1Zm-1-3h1-1Zm0 0Zm-1 0Zm0-1h-1Zm-2-1 1 1h-1l-1-1Zm-3-1v1l-1-1h1Zm-2 0Zm613 18Zm1-9Zm1 5Zm-1-7Zm0 5Zm0 3Zm-1 2Zm-434-64Zm-31-10Zm-8-5Zm0 1Zm0 0Zm0 0Z"/>
    <path id="Uruguay" d="M227 404v-1l1-1v-3h2l2 1v1l1 1h1l1 1 1 1 1 1-1 1 1 2-1 1-1 1h-5l-1-1h-1l-1-1v-2Z"/>
    <path id="Uzbekistan" d="M480 255h-2v-2l-2-1-3-2-4-2v-2l-1-1-1-1v1h-2v-2l-1-1h-1l-1-2v1h-1l-1 1h-1l-1 1 1 1h-3v-10l6-2 1-1-1 2 2 1v-1 1l3 2 1 2h6l2 1v1h1v3h1v2h3l-1 1h2v-1l1-1 2-2h2l-2 1 1 2h1l1-1v1h2l1 1h-2l-1 1h-3l1-1-1-1-1 1h-1v1h-1v2h-3v1h2v2l-1 2Zm7-7Zm1 0Z"/>
    <path id="Vanuatu" d="M679 367Zm1 0Zm-1-1 1 1h-1l-1-1h1Zm1-2Zm0-1Zm0 0Zm0 1Zm-2-2Zm0 0Zm3 5Zm0-1Zm1 2Zm-1 0Zm1 1Zm-2-1 1 1h-1v-1Zm2 4v-1 1Zm0-2Zm3 7Zm-1-2Zm0-1h-1Z"/>
    <path id="Venezuela" d="m210 333-1-2-1-1 1-1v-1h-1v-4l1-1h-4l-2-2h-4v-2l-1-1v-1h-1l1-1v-2l1-1 1-1v2l-1 2 1 1h1v-2l-1-1 1-1h1l2-1h-1v-1h1v1h2l1 1v1h4l1 1h2l1-1h1-1 4-1l1 2v-1l1 1h2v2h2v1l-1 1h-1v1h1l-1 1h-1v1l1 2v1h-1l-1 1h-2v1h-2l-1-1h-1l1 2 1 2h1l-2 1-1 1-1 1h-2Zm12-16Zm-6-3Zm-1-1h1Zm-2 0Zm-2-1Zm3 0Z"/>
    <path id="Viet Nam" d="m554 314 2-1 1 1v-2h1v-1h2v-3l-1-1 1-1v-2l-1-1-1-1v-1l-2-2v-1h-1v-1h-1l-1-1v-1h1l1-1-1-1-1-1-1 1h-1v-2h-1v-1l-1-1h2v-1l1 1v-1l1 1v-1 1l2-1h-1l1-1 2 1h1v2l2 1h1l-1 1h-2v2l-2 1v2l1 1 1 1 1 2 1 1 1 1 1 1h1v4l1 1-1 1v3l-4 2v-1l-1 2h-1v1h-1l-1 1h-1l1-2v-1Zm1 4Zm3 0Zm0-25Zm-5 22h-1Zm10-9Zm-3-14Zm0 0Zm0 0Zm-3 24Zm1-1Zm0 0Z"/>
    <path id="Western Sahara" d="M 327,278 V 281 H 320 V 287 H 319 L 318,288 V 292 H 310 V 293 290 H 311 L 312,288 V 286 L 314,284 V 283 L 315,281 317,280 318,278Z"/>
    <path id="Yemen" d="m448 297 3 5h-2v2l-2 1h-2l-2 1-1 1h-2l-1 1h-3l-2 2h-3v-2l-1-2v-4h1v-2h7v1h1l1-1 1-2 2-1h3Zm-19 8Zm1-1Zm0 4Zm0-1Zm-1-3Zm20 7Zm3-1h1v1h-1l-1-1Zm-2 1Z"/>
    <path id="Zambia" d="m391 371-3-2v-7h4v-5l1 1v1l1-1h1v1l1 1h2v-1l1 1h1l1 1 1 1v1l1-1 1 1v-3h-1v1h-1l-1-2v-2l1-2-1-1 1-1 3-1h1v1h1l1 1h2l1 1v1l1 1h-1v4h-1v3h1l-6 2v1h-2l-1 1v1l-2 1-1 1-1 1h-3l-1-1h-1Z"/>
    <path id="Zimbabwe" d="M403 381h-1v-1h-2v-2h-1v-1l-1-1h-1l-1-2-1-1v-1h3l1-1 1-1 2-1v-1l1-1h2v1h2l1 1h1l1 1v7l-1 1v1l-2 3-1-1-1 1-1-1Z"/>
  </g>
  <link xmlns="http://www.w3.org/1999/xhtml" href="/themes/geomap/geomap.css" rel="stylesheet" type="text/css"/>
  <script href="/js/geomap.js"/>
</svg>
