<svg height="30" viewBox="0 0 40 30" width="40" xmlns="http://www.w3.org/2000/svg"><path d="m0 0h40v30h-40z" fill="#808080" stroke-width=".063"/><path d="m16.905 18.953v-1.202q0-1.559.666-2.712.666-1.153 2.436-2.452 1.706-1.218 2.241-1.981.552-.763.552-1.706 0-1.055-.78-1.608-.78-.552-2.176-.552-2.436 0-5.554 1.592l-1.771-3.556q3.622-2.03 7.682-2.03 3.346 0 5.311 1.608 1.981 1.608 1.981 4.287 0 1.786-.812 3.086-.812 1.3-3.086 2.923-1.559 1.153-1.981 1.754-.406.601-.406 1.575v.974zm-.52 5.554q0-1.364.731-2.063.731-.698 2.127-.698 1.348 0 2.079.715.747.715.747 2.046 0 1.283-.747 2.03-.747.731-2.079.731-1.364 0-2.111-.715-.747-.731-.747-2.046z" fill="#fff" stroke-linecap="round" stroke-linejoin="round" stroke-width="1.432"/></svg>