<svg xmlns="http://www.w3.org/2000/svg" viewBox="0 0 640 480"><style><![CDATA[.B{stroke-miterlimit:2.6}.C{fill:#d40000}.D{stroke-linejoin:round}.E{stroke-width:.5}.F{stroke:#000}.G{fill:#f5ce00}.H{fill:#64b4d1}.I{stroke-width:.4}]]></style><path d="M0 0h640v480H0z" fill="#cf142b"/><path d="M0 0h320v160H0z" fill="#00247d"/><g fill="#fff"><path d="M0 0v17.9L284.2 160H320v-17.9L35.8 0zm320 0v17.9L35.8 160H0v-17.9L284.2 0z"/><path d="M133.3 0v160h53.4V0zM0 53.3v53.4h320V53.3z"/></g><path d="M0 64v32h320V64zM144 0v160h32V0zM0 160l106.7-53.3h23.8L23.8 160zM0 0l106.7 53.3H82.8L0 12zm189.5 53.3L296 0h24L213.3 53.3zM320 160l-106.7-53.3h23.9L320 148z" fill="#cf142b"/><path d="M553.8 148.3v135.5c0 36.2-72.3 48-72.3 48S409 320 409 283.7V148.3h144.7z" fill="#fff"/><path d="M553.8 283.8c0 36.2-72.3 48-72.3 48S409 320 409 283.7c0 0 0-3 1.5-4.6 0 0-.8 6 3.8 10.6 0 0-3.6-6.5 0-12.8 0 0-1.4 8.2 3.7 12.8 0 0-2.8-6.6.3-14 0 0-1.5 12 4 14.5 0 0 1.5-7-.7-11.4 0 0 3.8 1.5 3.6 11.6 0 0 1.2-1.5 1.5-8.8 0 0 .2 8.4 3 10.3 0 0 1-.9-.3-4.6s.5-5.1.8-5c0 0-.6 4.1 2.9 7.3 0 0-1.5-6.6.6-7.5 0 0-.5 5.6 4 6.8 0 0 .3-1.6-.7-3.4 0 0-.8-2.1-.2-3.8 0 0 1.4 5 3.3 5.9 0 0-1.1-3 0-5.9 0 0 .2 4.2 4 6 0 0-2.5-3.3-1.6-6.9l24.1 1.2 12.5.6 37.5-2.6 6.4-5.6s2.6 3.5-1.5 9.1c0 0 4-.7 5.3-7 0 0 1.6 3.5-.6 7.4 0 0 4.4-4.5 5-9.5 0 0 1.8 4.9-2.4 10.1 0 0 3.7-1.3 5.3-6.8 0 0 1.3 3.3-2.3 8 0 0 6.8-3.5 6.6-11 0 0 2.8 4.1-.4 9.8 0 0 3.4-3.1 3.8-7.8 0 0 1.9 2.1-.2 7.9 0 0 4.2-4 4.9-8.3 0 0 .9 4-2.7 9 0 0 2.4-.6 4.8-5.5 0 0 .6 2-1.5 5.5 0 0 2.3-.4 3.8-4.9 0 0 .3 2.7-.4 5 0 0 1.8-1.1 2.2-6.1 0 0 1 1.6 1 3.7v.7z" fill="#2f8f22"/><g class="F"><g class="C D E"><path d="M516.6 205.4s-2.5.5-5.8-.5c-3.2-1-4.5-.6-5.5 0 0 0 1.3-2.6-1.9-4.7 0 0 1 2.7-.4 3.9 0 0-.6.6-1.4-.3 0 0-1.1-1.2-2.3-2 0 0 2.7-1 2.2-3.8-.5-2.7-2-3-2.7-3.4a5 5 0 0 0 0 2s-3-1.6 1-3.9 3.3-3.7 2.6-4.9a11 11 0 0 0-3-3s.8 1.3.6 2.4c-.1 1-2 1.7-1.6-.1.4-2 0-1.6 0-3.6 0 0 3.5 1.2 5-2.3 0 0 1.3-3.6-3.2-5.4 0 0 1.1 1.5.6 2.6 0 0-1 1.8-2.1.4s-1.9-1.8-1.8-3.5c0 0 4.1.6 3-3.9 0 0-.7 3-6-1 0 0 3.5-3.6 2.1-6.4 0 0-.4-1.3-4.1-.6 0 0 3.2-2 1.9-3.8 0 0-.7-1.1-3.8.4 0 0 1.2-2-1.8-4.2 0 0-2 1-3 2 0 0-2-2.6-3.3-3.6 0 0-2.4.9-3 3.6 0 0-1.1-1.3-3.6-2 0 0-1.2 2.3.4 4.2 0 0-1.2 0-3.3-1 0 0-2.4-1-2 1 .3 2 .5 2.5 1 3.5 0 0-5.4-1.3-5.2 1.7a7.4 7.4 0 0 0 2.6 5.2s-3 4-5.6 1c0 0-1 1 1 3.5 0 0 2 2.1.3 3.5 0 0-2.1 1.7-3.1-1.6 0 0-3.5 3.4.6 6 0 0 2.6 1.5 5.3-.8 0 0-.9 6.6-3.4 5.3 0 0-1.5-1 1.2-2.4 0 0-4-.5-4.6 3.3 0 0-.5 3 3 4.2 0 0 2.6 1-.1 3 0 0-2 1.5-.7 3.7 0 0 1.5 2.4-2.4 2.7 0 0-2 0-2.8-.3 0 0-.9 1.6-.3 3.4 0 0-2-1.5-6.3.1-4.4 1.6-4.1.5-4.4 1l-1.3 2s2.3 3 2.4 2.8l-.5 3.3 1.2.5 9-4 9.3-4.8 7.4.4 4.7 1.1 6.1.5 4.5-2.4h6.4l7 3.5 8 4.8 4.2.8 3.2-.2v-6.5z"/><path d="m443.5 213s3.5 1.8 5-.3c0 0 1.9-3.7-2.3-5 0 0 2.3-2.7-.2-5.2 0 0-1.3-1.4-3.5-.4 0 0-1-2-3.1-1.9 0 0-2 0-2.6 2.1 0 0-2.6-1-4 .5 0 0-2.5 2.7.9 4.9l2.4.2 2.4-1.1 2.7.7s-.7 2.7 2.3 5.5z"/></g><path d="M521.8 206.6a5.6 5.6 0 0 1 5.8 3.2c2.2 5.2-2.5 8-2.5 8 .3 1.1.4 2.7.4 2.7 6.6.8 5.4 8.2 5.4 8.2l-2.2-1.8c-3.8-1.5-7.8 1.8-10.6 7.2-2.8 5.5-1.5 8-1 14.5s11 10.4 11 10.4l-8.2 21c-3.2 8.3-10 4.9-12 3.1-1.9-1.7-2.4-.7-3.3 0-1 .8 4.4 5-5.5 9-9.8 4-11.5 7-13.2 8-1.6 1-8.4.4-9-.5-.8-.8-.4-.8-3-2.4-2.5-1.5-6.8-3-11.5-5.2-4.7-2.3-4.6-5.2-4.5-5.8 0-.6 1.6-5.5-3.9-1.6s-10.2-1.9-10.2-1.9c-1-1.4-5.7-13.7-5.7-13.7a77.5 77.5 0 0 0-3.6-10s-.3.6 3.8-1.7c4-2.3 5.9-6.2 7.3-10 1.4-3.9 0-10.5-.5-11.8s-3.5-7.4-7.3-8.7c-3.7-1.3-6.3 2-6.3 2s-1.1-7.5 5.5-8.3c0 0 0-1.6.4-2.7 0 0-4.7-2.8-2.5-8 0 0 1.5-3.6 5.7-3.2l-1 2s-1 10.6 14.5 3.5c15.5-7.2 15-8.5 24-4l6.4-.1s9.3-4.4 12.3-2.5 13.7 7.9 13.7 7.9 10.4 3.9 12.5-3.3z" class="H I"/><path d="M457.8 286.6s-3 .1-4.6 1c-1.5.7-2.7 1.5-4.5 2.7 0 0-.9 1.1-4.4.4 0 0-6-1.4-6 3.3 0 0-7.4.6-4.4 7 0 0 2 5 6.2 1.5 0 0-2.7 3.8 2.5 5.3 0 0 3.7 1 4.8-2.9 0 0 .6-1.5-.8-3.3 0 0 1.8-.4 3-2.3 0 0-3.8 4.8.4 6.6 0 0 5.3 1.3 5.6-4.2 0 0-.5-2.6 1.6-3.5 0 0 4.2-1 6-5.6 0 0-6-3.2-5.4-6zm-12.3-48.2s-4.7-2.1-7 0c0 0-3-1.9-6.3 0 0 0-3.1 2-5.3 4.3 0 0-1.5 1.3-1 5.4 0 0 .9 2.9.4 4.3 0 0-1-.2-3.1 2.3 0 0-2.6 3-5 .3 0 0 .8 3.8 5.1 3.2 0 0-2.1 1.6-.3 5.9 0 0 1.4 3-.8 6.8 0 0 3.8-1.5 3.7-6 0 0-.4-3 .8-5.1 0 0-1.2 1.9 1.4 6 0 0 2 3 .4 6 0 0 3.7-1.3 3.4-5.8-.4-4.6-2.6-2.7-1.2-6.9 0 0 .4 2.2 1.5 3.3a6 6 0 0 1 2 5.9s2.2-2.8 1.7-5.7a11 11 0 0 0-1.1-3.7l7-4 3.6-6.3z" class="C D E"/></g><path d="M436.4 307s-4.4-2.7-2-7.3c0 0 .7-1.3 2-1 0 0 2.7.8.6 4.6 0 0-1.1 2.4-.6 3.8zm8.8 4.4s-6.2-2.8-4.3-7.7c0 0 .6-1.6 2-1.5 0 0 2.4.2 1.9 3.4 0 0-.7 3 .4 5.8zm4.2-1.2s5-1.2 4-6.3c0 0-.5-2.2-2.5-1.9 0 0-2.5.7-.9 3.9 0 0 1 2.2-.6 4.3z" stroke="#00247d" class="B H I"/><g class="E F"><path d="m471.5 203.7 4.8 1.6s4.5 2 10.3 0l4.4-1.7-3 4.6v2.4l1.8 2.7s-1.1.5-4.5-1.6c0 0-3.7-2.9-8.1 0 0 0-2.5 1.6-4.5 1.6l2.9-3.2-1.1-2.9-3-3.6z" class="B G"/><path d="m519.1 213.2s-3.5 1.8-5-.3c0 0-1.9-3.7 2.3-5 0 0-2.3-2.7.2-5.2 0 0 1.3-1.4 3.5-.4 0 0 1-2 3.1-1.9 0 0 2 0 2.6 2.1 0 0 2.6-1 4 .5 0 0 2.5 2.7-.9 4.9l-2.4.2-2.4-1.1-2.7.7s.7 2.7-2.3 5.5z" class="C D"/><path d="m491.3 210.2s0 .7-.8.8c0 0-.7.2-1.1-.7l-.1-.3c0-.4-.2-1.7 1.1-2.7 0 0 2.3-1.8 6.5.4l5.6 3 6.8 3.4s2.6 1.3 6.6 1.5c0 0 5.5.4 7.8-3.5 0 0 1.8-2.9 0-4.8 0 0-.7-.8-1.9-.7-.5.1-1 .3-1.5 1 0 0-.9 1.2.1 2.1 0 0 1.3.8 1.8-.9 0 .2.3 1.4-.4 2.5 0 0-3.3 5-12.4-.2l-12-6.7s-6-3.1-9.7 1.7c0 0-2.9 4 .8 6.7 0 0 2.8 1.7 4.6-1 0 0 1.4-2.6-.8-3.7 0 0-2-1-2.9 1-.8 2 1.6 2.6 1.8 1.1 0 0 0-.3.1 0z" class="B G"/><path d="m504.6 286.6s3 .1 4.6 1c1.6.7 2.8 1.5 4.6 2.7 0 0 .8 1.1 4.3.4 0 0 6.1-1.4 6.1 3.3 0 0 7.3.6 4.3 7 0 0-2 5-6.2 1.5 0 0 2.7 3.8-2.5 5.3 0 0-3.7 1-4.8-2.9 0 0-.6-1.5.9-3.3 0 0-1.8-.4-3-2.3 0 0 3.8 4.8-.4 6.6 0 0-5.3 1.3-5.6-4.2 0 0 .4-2.6-1.6-3.5 0 0-4.2-1-6.1-5.6 0 0 6-3.2 5.4-6z" class="C D"/><path d="m520.5 256c-5.3-3-6.5-9.6-6.5-9.6a20.6 20.6 0 0 1 1.4-12c3.4-7.2 9.3-8.6 9.3-8.6s-5.8 4-7.4 9.4c0 0-1.2 4.6-.5 9 .7 4.6.4 3.4 1.5 6.9l2.2 5z" class="B G"/><path d="M517 238.4s4.7-2.1 7 0c0 0 3-1.9 6.4 0 0 0 3 2 5.2 4.3 0 0 1.5 1.3 1 5.4 0 0-.8 2.9-.3 4.3 0 0 1-.2 3 2.3 0 0 2.7 3 5 .3 0 0-.7 3.8-5 3.2 0 0 2 1.6.2 5.9 0 0-1.3 3 .8 6.8 0 0-3.8-1.5-3.6-6 0 0 .3-3-.8-5.1 0 0 1.1 1.9-1.5 6 0 0-2 3-.3 6 0 0-3.8-1.3-3.4-5.8.3-4.6 2.6-2.7 1.1-6.9 0 0-.3 2.2-1.4 3.3a6 6 0 0 0-2 5.9s-2.2-2.8-1.7-5.7 1-3.7 1-3.7l-7-4-3.5-6.3z" class="C D"/></g><g class="B E F G"><path d="m526.4 259.6c-8.6-2.7-11-12-11-12a21.4 21.4 0 0 1 1.1-13c4-9.3 10.6-9.3 10.6-9.3a3.4 3.4 0 0 1 3.8 2.8c.3 2-1.1 2.7-1.1 2.7-2.3 1.3-3.8-.4-3.8-.4-1-1.3-.2-2.4-.2-2.4.6-.8 1.7-.4 1.7-.4 1 .2.8 1.4.8 1.4s.3-1.4-1-1.5c0 0-2.7-.6-5.7 3.2 0 0-4 5.1-4 11.8 0 0-.5 12.4 12.4 15.6 0 0-1.4 2-3.9 9.3 0 0-2.8 9.4-5.4 14.5 0 0-3.6 7.2-11.6 4.3 0 0-4.7-2.1-4.7-5.5 0 0-.3-3.2 2.5-3.4 0 0 2.8-.2 2.8 2.2 0 0 0 2.5-3 2 0 0-1-.3-.9-1.3 0 0 .2-1 1.5-.5s0 0 0-.1c0 0-.5-.2-1 0 0 0-.5.1-.5.9 0 0 0 .5.6.9l1.4.2s.8 1.6 2.6 2.2c2.5.7 4.6 0 5.9-1a9 9 0 0 0 2.5-3.6 95 95 0 0 0 4.4-11.3s1.5-4.8 2.8-7.3z"/><path d="M502 283.2s1.7-.2 1.7 1.2c0 0-.1 2-2.7 1.6 0 0-2.5-.5-1.6-3.3 0 0 .6-2 3-1.7 0 0 2.3 0 3.3 3.2 0 0 .8 2.7-.6 5-1.5 2.5-5.2 4.2-7 5 0 0-7.3 2.8-9.5 4.5 0 0-3.3 2.4-1.8 4.7 0 0 .6.9 1.4.9 0 0 1 0 1.1-1 0 0 0 .6-.6.9 0 0-.7.3-1.4-.3 0 0-.8-.8-.2-2 0 0 .9-1.4 3-.5 0 0 1.7.9 1 2.7 0 0-.7 1.8-2.8 1.7 0 0-1.6 0-2.7-1-1.6-1.8-1.7-5-.2-6.7 0 0 1.3-1.8 4-3l7.5-3c2.2-.9 4.1-1.9 5.4-3.4 0 0 1.1-1.2 1.5-3.4 0 0 .3-1.6-.7-2l-1-.2zm-30.5-73s0 .7.8.8c0 0 .7.2 1.1-.7l.1-.3c0-.4.2-1.7-1.1-2.7 0 0-2.3-1.8-6.5.4l-5.6 3-6.8 3.4s-2.6 1.3-6.6 1.5c0 0-5.5.4-7.8-3.5 0 0-1.8-2.9 0-4.8 0 0 .7-.8 1.9-.7.5.1 1 .3 1.5 1 0 0 .9 1.2-.1 2.1 0 0-1.3.8-1.8-.9 0 .2-.3 1.4.4 2.5 0 0 3.3 5 12.4-.2l12-6.7s6-3.1 9.7 1.7c0 0 2.9 4-.8 6.7 0 0-2.8 1.7-4.6-1 0 0-1.4-2.6.8-3.7 0 0 2-1 2.9 1 .8 2-1.6 2.6-1.8 1.1 0 0 0-.3-.1 0zM442 256.1c5.3-3 6.5-9.7 6.5-9.7 1.2-6.7-1.4-12-1.4-12-3.4-7.2-9.3-8.6-9.3-8.6s5.8 4 7.4 9.4c0 0 1.3 4.6.5 9-.7 4.6-.4 3.4-1.5 6.9z"/><path d="M436 259.6c8.7-2.7 11-12 11-12a21.4 21.4 0 0 0-1-13c-4-9.3-10.6-9.3-10.6-9.3a3.4 3.4 0 0 0-3.8 2.8c-.3 2 1.1 2.7 1.1 2.7 2.3 1.3 3.8-.4 3.8-.4 1-1.3.2-2.4.2-2.4-.6-.8-1.7-.4-1.7-.4-1 .2-.8 1.4-.8 1.4s-.3-1.4 1-1.5c0 0 2.7-.6 5.7 3.2 0 0 4 5.1 4 11.8 0 0 .5 12.4-12.4 15.6 0 0 1.4 2 3.9 9.3 0 0 2.8 9.4 5.5 14.5 0 0 3.5 7.2 11.5 4.3 0 0 4.7-2.1 4.7-5.5 0 0 .3-3.2-2.5-3.4 0 0-2.8-.2-2.8 2.2 0 0 0 2.5 3 2 0 0 1-.3.9-1.3 0 0-.2-1-1.5-.5s0 0 0-.1c0 0 .5-.2 1 0 0 0 .5.1.5.9 0 0 0 .5-.6.9l-1.3.2s-.8 1.6-2.7 2.2a6.3 6.3 0 0 1-5.9-1 9 9 0 0 1-2.5-3.6 95.2 95.2 0 0 1-4.4-11.3s-1.5-4.8-2.7-7.3l-.5-1z"/><path d="m460.5 283.2s-1.6-.2-1.6 1.2c0 0 0 2 2.6 1.6 0 0 2.5-.5 1.6-3.3 0 0-.6-2-3-1.7 0 0-2.3 0-3.3 3.2 0 0-.8 2.7.6 5 1.5 2.5 5.2 4.2 7 5 0 0 7.3 2.8 9.5 4.5 0 0 3.3 2.4 1.8 4.7 0 0-.5.9-1.4.9 0 0-1 0-1.1-1 0 0 0 .6.6.9 0 0 .7.3 1.4-.3 0 0 .8-.8.2-2 0 0-.9-1.4-2.9-.5 0 0-1.8.9-1 2.7 0 0 .6 1.8 2.7 1.7 0 0 1.6 0 2.7-1 1.6-1.8 1.7-5 .3-6.7 0 0-1.4-1.8-4-3-1.6-.5-4.6-1.8-7.6-3-2.2-.9-4.1-1.9-5.4-3.4 0 0-1.1-1.2-1.5-3.4 0 0-.3-1.6.7-2l1-.2h.1z"/></g><path d="M517.3 311.4s6.2-2.8 4.3-7.7c0 0-.6-1.6-2-1.5 0 0-2.4.1-2 3.3 0 0 .8 3.2-.4 5.9zm8.8-4.4s4.4-2.7 2-7.3c0 0-.7-1.3-2-1 0 0-2.7.8-.6 4.6 0 0 1 2.4.6 3.8zm-13.1 3.2s-4.9-1.2-4-6.3c0 0 .5-2.2 2.6-1.9 0 0 2.5.7.9 3.9 0 0-1 2.2.5 4.3zm12.5-99s.7-1 .4-3.7 2.2-3.1 3.1-2.3c0 0 1 .8 0 2.6a7 7 0 0 1-3.5 3.4zm-.7-1s-.1-1.2-2-3c-2-2-.4-3.7.8-3.7 0 0 1.2 0 1.7 1.9a7 7 0 0 1-.5 4.8zm-2.7-.9s-.5-.9-2.9-1.8c-2.4-.8-1.8-2.9-.8-3.4 0 0 1.1-.4 2.2 1a6.4 6.4 0 0 1 1.5 4.2zm1.5.9s-1.1.4-3.7-.9c-2.6-1.2-3.7 1-3.2 2 0 0 .4 1.3 2.4 1a7 7 0 0 0 4.5-2zm-86.8 1s-.7-1-.4-3.7c.3-2.8-2.1-3.1-3-2.3 0 0-1 .8-.1 2.6a7 7 0 0 0 3.5 3.4zm.8-1s0-1.2 2-3c2-2 .4-3.7-.8-3.7 0 0-1.3 0-1.7 1.9a7 7 0 0 0 .5 4.8zm2.6-.9s.5-.9 3-1.8c2.3-.8 1.7-2.9.7-3.4 0 0-1-.4-2.2 1a6.4 6.4 0 0 0-1.5 4.2zm-1.5.9s1.2.4 3.7-.9c2.6-1.2 3.7 1 3.3 2 0 0-.5 1.3-2.5 1a7 7 0 0 1-4.5-2z" stroke="#00247d" class="B H I"/><g fill="none" class="F"><g class="E"><path d="m442.5 202.1s-1.3.6-1 2.1" class="B"/><path d="m436.8 202.3s-.5 1.6 0 2.5" stroke-miterlimit="10"/></g><path d="M554 148.3v135.5c0 36.2-72.3 48-72.3 48s-72.4-11.8-72.4-48V148.3h144.8z" stroke-width="1.3"/></g></svg>
