<svg viewBox="0 0 640 480" xmlns="http://www.w3.org/2000/svg"><path d="m.1 0h640.1v480h-640.1z" fill="#ffd520"/><path d="m.1 480h640.1v-480z" fill="#ff4e12"/><path d="m542.2 59.5c-20.657 11.82-17.63 59.947-49.14 49.694-17.87-12.627-39.72-11.38-58.987-19.69-10.1-6.17-40.842-23.28-43.343-15.65 9.098 1.64 16.795 8.068 2.48 4.35 19.888 18.73-13.174-2.106-22.707 4.13-11.672 2.28-20.415 4.93-2.48 5.69 15.468 7.56-19.354 4.678 1.875 9.918 5.175 13.55-21.166-6.778-30.41 3.798-19.822 1.43 2.92 28.672-3.687 8.976 9.442-8.36 36.6.23 38.34 7.453-22.62-10.417-34.538 10.81-57.728 10.92-19.35 11.315 42.32-8.528 26.72 18.973-2.288 9.328-32.55 31.423-9.19 20.725 4.766 6.222-14.076 31.236 2.793 14.017 17.412-5.233 29.045 27.348 13.165 31.214 10.984 1.28 28.76 15.888 6.267 12.206-6.51 3.9 12.03 12.245-4.097 4.826-18.612-1.64-31.847-21.436-43.94-26.625-2.07 21.5-43.196-10.262-44.995-.935 8.273 6.28-16.11 16.475-14.058 16.418-9.344 9.614-27.353 3.304-33.12 14.505 21.856 4.495-4.995 42.684-22.307 44.64 32.733-6.76 10.224 26.945-.575 35.156 4.484 13.007-18.592 18.72-31.5 20.997 11.692 10.9-22.185.303-29.722-1.44-8.664-4.916-34.94.35-13.455 4.16 11.318-.623 43.326 8.807 15.6 11.033-11.26.713-38.768 12.294-13.744 8.27 29.245-2.623-11.995 11.012-20.275 13.976-11.8 2.23-27.9 20.53-6.94 9.622 8.365-2.213 32.57-10.615 13.03-.92-10.233 6.248-38.716 22.568-34.193 26.21 25.993-6.275 49.795-17.993 71.853-32.777 9.742-6.727 14.773-10.104 4.203 1.16-9.864 15.098 28.05-16.958 17.206-.01-21.598 14.22 17.96-1.133 22.325-7.73 10.883-11.745 32.515-43.91 48.037-23.87-13.072 2.566-6.85 11.663-14.757 18.435 4.426 5.3 11.416-2.4 12.38 5.88 16.99-18.714 14.716 19.025 1.274 23.643-8.857 16.43 7.53 47.068 29.278 41.17 22.627-6.27 11.263-40.46 19.176-48.463 9.697 4.22 14.914 29.256 14.984 4.812-3.122-24.517-40.536-8.063-39.46-36.9-9.932-16.313 6.906-26.608 18.573-12.157 25.36 14.465 51.956-18.4 26.15-36.456-7.328-10.377-35.522 6.708-18.432-11.936 19.49-4.57-14.446-12.58-16.12 3.696-17.936 30.34-21.584-26.352-.78-31.657 29.923-12.052 58.927 12.318 89.013 10.793 11.668-.948 23.55 16.188 4.005 12.1-7.442 1.45 14.22 8.947-2.383 12.77-10.02 14.546 14.76-7.61 11.995 8.58 18.72-3.75 35.425 14.856 56.532 13.292 15.26 6.742 6.94 31.182 28.486 34.525 17.537 5.316-13.56-13.753-1.423-23.762 7.633-19.06-7.915 19.156 7.758 21.992 18.548 18.434 48.633-10.74 31.293-30.137-6.1-9.914-28.168-9.8-5.98-6.954 19.24-2.038-11.583-15.947-17.047-18.247 11.385-4.643 16.776-16.367-.336-12.8-14.713 4.276-18.725 24.374-38.88 17.19-19.47-.012-37.27-13.442-19.4-30.928 18.53-11.16 4.336-47.89 25.804-48.405 7.375 3.663-.487 14.2 10.116 10.366-5.18 10.43 9.368 21.474 7.807 5.434 15.526 11.588 2.62-12.876 18.626-14.42 21.915-18.083 48.246 17.766 66.587-9.694 13.81-17.013-11.366-55.408-32.26-39.782-15.733 7.4-4.738 27.466 2.328 30.573-15.068-3.278-8.185-29.22-20.43-11.53-23.1 14.3-47.926-.102-68.986-10.478-13.647-1.252-14.5-20.08-.46-8.146 6.155 5.402 21.615 12.547 9.577-.326-24.59-12.71 21.316-18.264 30.22-10.352 13.61 7.633-.774 24.363 14.22 21.223 5.757 9.13 8.9-6.67 15.384 1.055.588-8.37-6.225-40.65 5.763-18.488 1.394 19.856 2.95-6.14 15.128-.964 14.716-6.106 37.668-3.866 47.166-.162-7.34-7.767-26.765-25.107-27.227-9.102-5.91-7.577-16.59-11.837-9.953-.53-18.142 10.45-6.507-10.212-8.425-19.44 9.953-22.546 43.154-14.355 59.303-26.15-10.725-4.044-38.59 7.36-39.14.12 9.175-2.62 30.122-17.4 8.032-13.245-9.14-.245-21.45 12.765-12.64-3.603 4.354-12.092 9.176-24.01 14.254-35.816zm-132.915 23.117c9.374 4.3 26.2 22.386 7.092 7.656-2.753-2.065-6.252-3.963-7.092-7.656zm-34.002 1.29c11.316-.67 23.597 15.798 6.018 5.275-2.926-.595-15.805-5.132-6.018-5.275zm30.89 3.5c20.058 8.57-1.847 18.764 0 0zm-22.14 6.104c31.8 13.66-19.91 3.537 0 0zm-6.5 4.654c12.798-2.425 11.173 18.52 2.167 3.566zm144.545 19.916c-1.317 4.696-3.064-2.64 0 0zm-47.64 17.78c-5.803 14.31 18.865-5.832 12.694 9.536 24.77 5.242-33.827 15.1-21.88-5.967 2.4-2.4 5.82-3.636 9.187-3.57zm-73.89 10.525c21.578 1.5 2.83 11.4 0 0zm106.152 1.814c2.17 15.694-10.106 18.883 0 0zm-43.082 3.215c10.63-2.237 25.166 14.037 7.575 5.622-2.438-1.98-4.737-4.197-7.575-5.622zm-65.816 1.643.13.22zm97.332 1.563c4.374 7.67-8.797.1 0 0zm-69.934 1.279c-9.327 17.318-27.474-1.25 0 0zm-24.213.873c23.86 19.503-16.578 3.712 0 0zm132.973 39.057c3.797 10.578-12.757 6.597 0 0zm-67.96 117.97c10.867 1.316-8.854 7.33 0 0zm-173.748 26.576c2.51.58 2.248.518 0 0zm-35.052 52.524c-10.8 2.037-12 2.752 0 0zm-10.11 2.744-3.233 2.386z" fill="#fff" stroke="#000" stroke-width=".4"/></svg>