<svg viewBox="0 0 640 480" xmlns="http://www.w3.org/2000/svg"><path d="m.1 0h640.1v480h-640.1z" fill="#ffd520"/><path d="m.1 480h640.1v-480z" fill="#ff4e12"/><path d="m542.2 59.5c-20.66 11.82-17.63 59.95-49.14 49.69-17.87-12.63-39.72-11.38-58.99-19.69-10.1-6.17-40.84-23.28-43.34-15.65 9.1 1.64 16.8 8.07 2.48 4.35 19.89 18.73-13.17-2.11-22.71 4.13-11.67 2.28-20.42 4.93-2.48 5.69 15.47 7.56-19.35 4.68 1.88 9.92 5.18 13.55-21.17-6.78-30.41 3.8-19.82 1.43 2.92 28.67-3.69 8.98 9.44-8.36 36.6.23 38.34 7.45-22.62-10.42-34.54 10.81-57.73 10.92-19.35 11.32 42.32-8.53 26.72 18.97-2.29 9.33-32.55 31.42-9.19 20.73 4.77 6.22-14.08 31.24 2.79 14.02 17.41-5.23 29.05 27.35 13.17 31.21 10.98 1.28 28.76 15.89 6.27 12.21-6.51 3.9 12.03 12.25-4.1 4.83-18.61-1.64-31.85-21.44-43.94-26.63-2.07 21.5-43.2-10.26-45-.94 8.27 6.28-16.11 16.48-14.06 16.42-9.34 9.61-27.35 3.3-33.12 14.51 21.86 4.5-5 42.68-22.31 44.64 32.73-6.76 10.22 26.95-.57 35.16 4.48 13.01-18.59 18.72-31.5 21 11.69 10.9-22.19.3-29.72-1.44-8.66-4.92-34.94.35-13.46 4.16 11.32-.62 43.33 8.81 15.6 11.03-11.26.71-38.77 12.29-13.74 8.27 29.25-2.62-12 11.01-20.27 13.98-11.8 2.23-27.9 20.53-6.94 9.62 8.37-2.21 32.57-10.62 13.03-.92-10.23 6.25-38.72 22.57-34.19 26.21 25.99-6.28 49.8-17.99 71.85-32.78 9.74-6.73 14.77-10.1 4.2 1.16-9.86 15.1 28.05-16.96 17.21-.01-21.6 14.22 17.96-1.13 22.33-7.73 10.88-11.75 32.52-43.91 48.04-23.87-13.07 2.57-6.85 11.66-14.76 18.43 4.43 5.3 11.42-2.4 12.38 5.88 16.99-18.71 14.72 19.02 1.27 23.64-8.86 16.43 7.53 47.07 29.28 41.17 22.63-6.27 11.26-40.46 19.18-48.46 9.7 4.22 14.91 29.26 14.98 4.81-3.12-24.52-40.54-8.06-39.46-36.9-9.93-16.31 6.91-26.61 18.57-12.16 25.36 14.47 51.96-18.4 26.15-36.46-7.33-10.38-35.52 6.71-18.43-11.94 19.49-4.57-14.45-12.58-16.12 3.7-17.94 30.34-21.58-26.35-.78-31.66 29.92-12.05 58.93 12.32 89.01 10.79 11.67-.95 23.55 16.19 4.01 12.1-7.44 1.45 14.22 8.95-2.38 12.77-10.02 14.55 14.76-7.61 12 8.58 18.72-3.75 35.42 14.86 56.53 13.29 15.26 6.74 6.94 31.18 28.49 34.53 17.54 5.32-13.56-13.75-1.42-23.76 7.63-19.06-7.92 19.16 7.76 21.99 18.55 18.43 48.63-10.74 31.29-30.14-6.1-9.91-28.17-9.8-5.98-6.95 19.24-2.04-11.58-15.95-17.05-18.25 11.39-4.64 16.78-16.37-.34-12.8-14.71 4.28-18.73 24.37-38.88 17.19-19.47-.01-37.27-13.44-19.4-30.93 18.53-11.16 4.34-47.89 25.8-48.41 7.38 3.66-.49 14.2 10.12 10.37-5.18 10.43 9.37 21.47 7.81 5.43 15.53 11.59 2.62-12.88 18.63-14.42 21.92-18.08 48.25 17.77 66.59-9.69 13.81-17.01-11.37-55.41-32.26-39.78-15.73 7.4-4.74 27.47 2.33 30.57-15.07-3.28-8.19-29.22-20.43-11.53-23.1 14.3-47.93-.1-68.99-10.48-13.65-1.25-14.5-20.08-.46-8.15 6.16 5.4 21.62 12.55 9.58-.33-24.59-12.71 21.32-18.26 30.22-10.35 13.61 7.63-.77 24.36 14.22 21.22 5.76 9.13 8.9-6.67 15.38 1.06.59-8.37-6.23-40.65 5.76-18.49 1.39 19.86 2.95-6.14 15.13-.96 14.72-6.11 37.67-3.87 47.17-.16-7.34-7.77-26.77-25.11-27.23-9.1-5.91-7.58-16.59-11.84-9.95-.53-18.14 10.45-6.51-10.21-8.43-19.44 9.95-22.55 43.15-14.36 59.3-26.15-10.73-4.04-38.59 7.36-39.14.12 9.18-2.62 30.12-17.4 8.03-13.25-9.14-.25-21.45 12.77-12.64-3.6 4.35-12.09 9.18-24.01 14.25-35.82zm-132.92 23.12c9.37 4.3 26.2 22.39 7.09 7.66-2.75-2.07-6.25-3.96-7.09-7.66zm-34 1.29c11.32-.67 23.6 15.8 6.02 5.28-2.93-.6-15.81-5.13-6.02-5.28zm30.89 3.5c20.06 8.57-1.85 18.76 0 0zm-22.14 6.1c31.8 13.66-19.91 3.54 0 0zm-6.5 4.65c12.8-2.42 11.17 18.52 2.17 3.57zm144.54 19.92c-1.32 4.7-3.06-2.64 0 0zm-47.64 17.78c-5.8 14.31 18.86-5.83 12.69 9.54 24.77 5.24-33.83 15.1-21.88-5.97 2.4-2.4 5.82-3.64 9.19-3.57zm-73.89 10.53c21.58 1.5 2.83 11.4 0 0zm106.15 1.81c2.17 15.69-10.11 18.88 0 0zm-43.08 3.22c10.63-2.24 25.17 14.04 7.58 5.62-2.44-1.98-4.74-4.2-7.58-5.62zm-65.82 1.64.13.22zm97.33 1.56c4.37 7.67-8.8.1 0 0zm-69.93 1.28c-9.33 17.32-27.47-1.25 0 0zm-24.21.87c23.86 19.5-16.58 3.71 0 0zm132.97 39.06c3.8 10.58-12.76 6.6 0 0zm-67.96 117.97c10.87 1.32-8.85 7.33 0 0zm-173.75 26.58c2.51.58 2.25.52 0 0zm-35.05 52.52c-10.8 2.04-12 2.75 0 0zm-10.11 2.74-3.23 2.39z" fill="#fff" stroke="#000" stroke-width=".4"/></svg>