<svg fill-rule="evenodd" viewBox="0 0 640 480" xmlns="http://www.w3.org/2000/svg"><path d="m0 0h640v480h-640z" fill="#108c00"/><path d="m-.1 170.1h640.62v47.1h-640.62z" fill="#ffd600"/><path d="m-.1 215.6h640.62v47.2h-640.62z"/><path d="m-.1 262.8h640.62v47.1h-640.62z" fill="#fff"/><path d="m252.46 0h45.6v481.28h-45.5z" fill="#ffd600"/><path d="m296.45 0h45.5v481.28h-45.5z"/><path d="m341.95 0h45.6v481.28h-45.6z" fill="#fff"/><rect fill="#e72910" height="258.5" ry="129.25" transform="scale(-1)" width="257.37" x="-450.62" y="-370.27"/><path d="m315.92 129.44 4.42-12.88 4.14 12.78 14 .2c0-.2-11 8.46-11 8.46l4.9 14.3c-.2-.47-12.03-8.84-12.03-8.84l-11.84 8.46c.2 0 4.7-13.9 4.7-13.9l-10.9-8.27 13.54-.2zm99.92 70.4 4.6-13.07 4.14 12.88 13.9.2c0-.2-11 8.46-11 8.46l4.98 14.2c-.2-.38-12.03-8.84-12.03-8.84l-11.84 8.46c.2 0 4.6-13.9 4.6-13.9l-10.8-8.18zm-29.14 111.68 4.6-12.97 4.14 12.78s13.9.47 13.9.2-11 8.46-11 8.46l4.98 14.3c-.2-.47-12.03-8.84-12.03-8.84l-11.84 8.46c.2 0 4.6-13.9 4.6-13.9l-10.8-8.18zm-139.68 0 4.5-12.97 4.14 12.78s13.9.47 13.9.2-11 8.46-11 8.46l4.98 14.3c-.2-.47-12.03-8.84-12.03-8.84l-11.84 8.46c.2 0 4.6-13.9 4.6-13.9l-10.8-8.18 13.44-.28zm-25.57-114.6 4.5-12.97 4.23 12.78s13.82.47 13.82.2-11 8.46-11 8.46l4.98 14.3c-.2-.47-12.03-8.84-12.03-8.84l-11.75 8.46c.28 0 4.5-13.9 4.5-13.9l-10.8-8.18zm162.72-34.03c0 .28-4.7 13.07-4.7 13.07l-4.04-12.78-13.9-.28c0 .2 11-8.37 11-8.37l-4.98-14.3c.2.47 12.03 8.84 12.03 8.84l11.84-8.46c-.2 0-4.6 13.9-4.6 13.9l10.8 8.18-13.54.2zm40.13 109.23-4.6 12.97-4.14-12.78-13.9-.2c0 .2 11-8.46 11-8.46l-4.98-14.3c.2.47 12.03 8.84 12.03 8.84l11.84-8.46c-.2 0-4.6 13.9-4.6 13.9l10.8 8.27-13.54.2zm-99.54 79.8-4.6 13.16-4.14-12.88s-13.9-.47-13.9-.2 11-8.46 11-8.46l-4.98-14.3c.2.47 12.03 8.84 12.03 8.84l11.84-8.46c-.2 0-4.6 13.9-4.6 13.9l10.8 8.18-13.44.28zm-93.53-79.8-4.6 12.97-4.14-12.78-13.9-.2c0 .2 11-8.46 11-8.46l-4.98-14.3c.2.47 12.03 8.84 12.03 8.84l11.84-8.46c-.2 0-4.6 13.9-4.6 13.9l10.8 8.27zm34.5-107.63-4.6 13.16-4.14-12.88s-13.9-.47-13.9-.2 11-8.46 11-8.46l-4.98-14.3c.2.47 12.03 8.84 12.03 8.84l11.84-8.46c-.2 0-4.5 13.9-4.5 13.9l10.72 8.18-13.44.28z" fill="#ffe700"/><g transform="translate(-469.07 -91.28)"><g stroke="#000"><g stroke-width=".49"><path d="m764.27 367.73c5.87-.3 3.32-3.23 6.26-4.9 2.93-1.56 7.14-.6 8.4 1.37s.3 3.9 1.96 3.9 45.95-2.44 47.5-.88c1.56 1.66 1.96 4.9.3 6.16-1.56 1.37-57.58 2.93-59.54 1.56s-4.9-6.84-4.9-7.23z" fill="#a95600"/><path d="m804.06 323.9a5.78 36.75.18 0 0 -.1.01 5.78 36.75.18 0 0 -2.68 4.52 6.74 33.41.3 0 0 -2.52-2.11 6.74 33.41.3 0 0 -6.73 32.15 7.78 3.25 84.2 0 0 -.46.85 7.78 3.25 84.2 0 0 -3.34-4.01 7.78 3.25 84.2 0 0 -2.45 8.06 7.78 3.25 84.2 0 0 2.54 6.79 7.54 3.46 84.2 0 0 .05 2.63 7.54 3.46 84.2 0 0 1.95 5.82c-.04.23-.07.47-.08.7.1 2.23 1.56 4.05 3.4 5.33a7.54 3.46 84.2 0 0 .84 1.4 6.74 33.41.3 0 0 4.29 7.07 6.74 33.41.3 0 0 1.95-1.67 5.78 36.75.18 0 0 3.25 5.95 5.78 36.75.18 0 0 2.77-4.83 7.22 33.41.35 0 0 .65.05 7.22 33.41.35 0 0 3.79-5.43 3.46 7.54 4.47 0 0 .35-.57c1.3 0 2.25-.43 2.28-1.42-.04-.82-.5-1.35-1.15-1.76a3.46 7.54 4.47 0 0 .29-2.05 3.46 7.54 4.47 0 0 .03-.4 3.25 7.78 4.47 0 0 3.65-7.5 3.25 7.78 4.47 0 0 -2.19-7.89 7.22 33.41.35 0 0 .17-7.28 7.22 33.41.35 0 0 -7.23-32.5 7.22 33.41.35 0 0 -1.21.62 5.78 36.75.18 0 0 -2.12-2.53z" fill="#009200"/><path d="m785 291.28s-11.44 9.78-9.87 36.07c1.33 29.53 37.12 49.2 37.12 49.2s-5.15-18.12-6.13-39.43c-1.96-31.1-13.5-44.68-13.5-44.68l-7.63-1.27z" fill="#804bff"/></g><path d="m797.12 282.77a3.41 3.41 0 0 0 -.04 0c-3.52.04-7.13 2.94-7.2 6.7 0 .04.02.07.02.1-.43.07-.87.08-1.28.23-.8-.33-1.66-.53-2.54-.55a3.41 3.41 0 0 0 0 0c-2.96-.05-5.62 2.07-6.68 4.78-2.02 1.3-3.4 3.56-3.44 5.96a3.41 3.41 0 0 0 0 0c-.06 3.72 3.22 7.24 6.98 7.3 1.3.02 2.56-.42 3.68-1.1.03-.01.06-.03.1-.04.06.03.12.03.18.05.74 2.8 3.12 5.05 6 5.4.14.2.3.37.46.54a37.32 12.27 69.37 0 0 3.48 37.41 37.32 12.27 69.37 0 0 19.4 29.99c5.47 8.1 7.1 12.68 9.57 19.1.65-4.36 1.4-9.23-.55-15.44.05-1.9-.1-3.95-.54-6.18a37.32 12.27 69.37 0 0 -4.64-35.38 37.32 12.27 69.37 0 0 -12.69-23.67c1.44-1.28 2.42-3.05 2.45-5.02a3.41 3.41 0 0 0 0 0c.01-.6-.15-1.2-.3-1.78.66-1.1 1.1-2.3 1.13-3.58a3.41 3.41 0 0 0 0 0c.04-2.44-1.42-4.7-3.44-6.04.25-.65.5-1.3.52-2.03.02-1.03-.25-2.03-.7-2.94.13-.5.28-.97.3-1.47.04-2.17-1.2-4.02-2.87-5.3 0-.04.02-.08.03-.13a3.41 3.41 0 0 0 0 0c.06-3.83-3.6-6.87-7.2-6.93h-.2z" fill="#009200" stroke-width=".51"/><path d="m788.37 270.9c-3.3.04-6.42 1.03-8.5 2.67-3.3 2.72-4.06 8.55-1.82 12.18 2.15 3.85 8.13 5.77 15.23 4.72 3.67-.54 5.63-1 8.24-2.58.26.33.53.64.82.9-.88 1.7.26 4.05 1.63 5.36-1.54 2 .34 5.2 2.08 6.35 2.03 1.66 13.55 12.52 21.32 2.58-1.68.05-3.77-.9-6-2.2 1.62-.6 3.2-1.73 4.64-3.58-1.65.04-3.7-.85-5.9-2.12 1.44-.64 2.84-1.7 4.13-3.36-2.05.06-4.7-1.34-7.52-3.1 1.3-.66 2.54-1.67 3.7-3.16-5.33.14-14.7-9.43-20.35-10.02-1.5-1.26-2.87-2.3-4.03-2.9-2.4-1.26-5.1-1.8-7.67-1.77z" fill="#804bff" stroke-width=".47"/></g><ellipse cx="794.9" cy="265.28" fill="#f00" rx="3.47" ry="1.91" transform="matrix(1 .02 -.02 1 0 0)"/><ellipse cx="622.98" cy="543.59" fill="#ff0" rx="4.89" ry="2.85" stroke="#000" stroke-width="2.5" transform="matrix(.94 -.35 .36 .93 0 0)"/><circle cx="789.46" cy="272.17" r="1.13" transform="matrix(1 .01 -.01 1 0 0)"/><path d="m786.76 280.6c.4 1.42-.7 3.35-3.3 4.05-2.63.98-4.55 3.18-5.53 6.77-4.5-8.16-2.1-11.64 2.17-12.5 3.67-1.05 5.92-.93 6.65 1.67z" fill="#ff0" stroke="#000" stroke-width=".58"/><circle cx="780.1" cy="276.49" r=".92" transform="matrix(1 .01 -.01 1 0 0)"/></g></svg>