<svg xmlns="http://www.w3.org/2000/svg" xmlns:xlink="http://www.w3.org/1999/xlink" viewBox="0 0 640 480"><style><![CDATA[.B{stroke:#000}.C{fill:#ffdf00}.D{stroke-width:.8}.E{fill:#0000c4}.F{fill:#e10000}.G{stroke-width:1pt}.H{stroke-width:.738}]]></style><defs><path id="A" d="M478.4 60.2v88.6l17.7 88.6 17.7-88.6V60.2z"/><path id="B" d="M460.6 184.3l17.7 35.4v17.7c-.8-1.3 0 17.7-17.7 17.7S443 219.7 443 219.7s-17.7 35.4-17.7 70.9 17.7 53.1 17.7 53.1-2.6-36.7 17.7-35.4c20.4 1.2 17.7 17.7 17.7 17.7v35.4h17.8V219.7l17.7-35.4-27.2-53.2-26 53.1z"/><path id="C" d="M557.8 95.7l-26.3 70.8 17.7 53.2-35.4-17.7 35.4 53.1v35.5H567V255l35.5-53.1-35.5 17.7 17.8-53.2-26.9-70.8z"/></defs><g fill-rule="evenodd"><path d="M0 0h640v480H0z" fill="#ffe800"/><path d="M0 240h640v240H0z" fill="#00148e"/><path d="M0 360h640v120H0z" fill="#da0010"/><path d="m269.6 290.8-72.6 76.5-1.2-1.6 72.4-76.5 1.2 1.6zm50.4 12.5-94.8 100-1.6-1.6 94.7-100z"/><g class="B"><g stroke-width="4.1" fill="gray"><use transform="matrix(-.07 -.07 -.1 .1 265 429.6)" xlink:href="#A"/><use transform="matrix(-.07 -.07 -.1 .1 240.6 390.5)" xlink:href="#A"/></g><g stroke-width=".737"><path d="m207.94 114.792s-7.965 215.424 23.895 215.424 47.835-22.656 47.835-22.656l-.36-118.4z" class="C"/><path d="m227.425 134.888c0 11.328-3.555 172.672 12.375 172.672s39.87-11.328 39.87-11.328l-.36-107.072z" class="E"/><path d="m237.775 145.768c0 11.328 2.025 139.136 18 139.136h23.895l-.36-95.744z" class="F"/></g></g><path d="m206.2 116 72.4 76.5 1.3-1.6-72.4-76.5z"/><g class="B D"><path d="m184.296 158.936s-20.532 208.692 41.064 208.692c51.33 0 51.33-32.922 61.596-32.922l-10.266-76.88-92.452-98.9z" class="C"/><path d="m204.828 180.946c0 10.974-20.532 131.812 30.856 164.734 20.532 10.974 51.33-10.974 51.33 0l-10.266-87.854z" class="E"/><path d="m225.36 202.894c0 10.974-10.266 98.828 20.6 120.838 20.532 21.948 71.92 15.996 71.92 15.996l-41.122-81.902z" class="F"/></g><path d="m183.8 158 94.8 100 1.7-1.6-94.8-99.9-1.6 1.6z"/><g fill="#cececc" class="B G"><use transform="matrix(.14 -.14 .1 .1 86.3 192.2)" xlink:href="#B"/><use transform="matrix(.1 -.16 .14 .1 114 183.8)" xlink:href="#C"/></g><path d="M370.4 290.8l72.5 76.5 1.3-1.6-72.5-76.5zM320 303.3l94.8 100 1.6-1.6-94.7-100z"/><g class="B"><g stroke-width="4.1" fill="gray"><use transform="matrix(.07 -.07 .1 .1 375 429.6)" xlink:href="#A"/><use transform="matrix(.07 -.07 .1 .1 399.4 390.5)" xlink:href="#A"/></g><g transform="matrix(-.45 0 0 .64 567.6 -59.8)" class="G"><path d="M301.2 272.8s-17.7 336.6 53.1 336.6S460.6 574 460.6 574l-.8-185z" class="C"/><path d="m344.5 304.2c0 17.7-7.9 269.8 27.5 269.8s88.6-17.7 88.6-17.7l-.8-167.3z" class="E"/><path d="m367.5 321.2c0 17.7 4.5 217.4 40 217.4h53.1l-.8-149.6z" class="F"/></g></g><path d="m433.8 116-72.4 76.5-1.3-1.6 72.4-76.5z"/><g transform="matrix(-.58 0 0 .62 630.4 -10.2)" class="B G"><path d="M301.2 272.8S265.8 609.4 372 609.4c88.5 0 88.5-53.1 106.2-53.1l-17.7-124-159.4-159.5z" class="C"/><path d="m336.6 308.3c0 17.7-35.4 212.6 53.2 265.7 35.4 17.7 88.5-17.7 88.5 0l-17.7-141.7z" class="E"/><path d="m372 343.7c0 17.7-17.7 159.4 35.5 194.9 35.4 35.4 124 25.8 124 25.8l-70.9-132.1z" class="F"/></g><path d="m456.2 158-94.8 100-1.7-1.6 94.8-99.9 1.7 1.6z"/><g class="B"><g fill="#cececc" class="G"><use transform="matrix(-.14 -.14 -.1 .1 553.7 192.2)" xlink:href="#B"/><use transform="matrix(-.1 -.16 -.14 .1 526 183.8)" xlink:href="#C"/></g><path d="m287.072 422.56c9.535 5.855 21.263 5.855 30.798 0v-87.854h-20.532c10.266 32.922 10.266 65.906-10.324 87.854z" class="D F"/><g class="E H"><path d="m303.33 336.65c0 61.95-14.875 75.74-14.875 88.2 6.195 0 10.325-5.8 14.875-13.8 6.195-12.46 6.8-75.4 6.195-74.4z"/><path d="M290.94 336.65c-.315 36.2-15.68 69.72-12.775 77.14 3.3 6.65 12.775-15.2 25.165-2.8 6.195-12.4 6.8-75.32 6.195-74.4H290.94z"/></g><g stroke-width=".545" class="C"><path d="m292.33 331.37c0 40.7-14.245 43.424-14.245 54.28 6.195 0 14.2-5.934 14.245-5.382 6.195-8.188 6.8-49.542 6.195-48.898z"/><path d="m279.94 331.37c-.315 23.782-15.33 44.022-12.425 48.898 3.325 4.324 12.425-8.188 24.815 0 6.195-8.188 6.8-49.542 6.195-48.898z"/></g><path d="m352.928 422.56c-9.535 5.855-21.263 5.855-30.798 0v-87.854h20.532c-10.266 32.922-10.266 65.906 10.324 87.854z" class="D F"/><g class="E H"><path d="m336.67 336.65c0 61.95 14.875 75.74 14.875 88.2-6.195 0-10.325-5.8-14.875-13.8-6.195-12.46-6.8-75.4-6.195-74.4z"/><path d="m349.06 336.65c.315 36.2 15.68 69.72 12.775 77.14-3.3 6.65-12.775-15.2-25.165-2.8-6.195-12.4-6.8-75.32-6.195-74.4h18.585z"/></g><g transform="matrix(-.35 0 0 .46 527.5 51)" class="C G"><path d="m513.8 609.5c0 88.5-40.7 94.4-40.7 118 17.7 0 40.6-12.9 40.7-11.7 17.7-17.8 19.4-107.7 17.7-106.3z"/><path d="m478.4 609.5c-.9 51.7-43.8 95.7-35.5 106.3 9.5 9.4 35.5-17.8 70.9 0 17.7-17.8 19.4-107.7 17.7-106.3z"/></g><path d="M241.632 341.56l-10.764 7.788 10.764 7.788 5.376-3.894 2.688 3.894 2.688 7.788 2.7-7.788 2.688-3.894H402v-7.788H257.76l-2.688-3.916c0-3.894.564-7.788 2.7-7.788h10.752c0-3.894-5.376-11.682-16.14-11.682-10.752 0-16.14 7.788-16.14 11.682h10.764c2.124 0 2.688 3.894 2.688 7.8l-2.688 3.894-5.388-3.916z" fill="#908f8a" stroke-width=".797"/><path d="M272.268 332.11l.04 34.704h96.108v-36.672h-96.16l.01 1.968z" fill="#a40" stroke-width=".978"/><g class="C D"><path d="m389.8 235.878c0 54.56-32.248 98.828-71.92 98.828s-71.92-44.268-71.92-98.828 32.2-98.9 71.92-98.9 71.92 44.268 71.92 98.828zm-10.266 0c0 48.484-27.608 87.854-61.654 87.854s-61.654-39.37-61.654-87.854c0-48.546 27.608-87.916 61.654-87.916s61.654 39.37 61.654 87.916z"/><path d="m345.884 144.8c-8.642-5.022-18.096-7.812-28.014-7.812s-19.372 2.8-28.014 7.75l4.06 10.168c14.844-9.146 33.122-9.146 47.966 0l4.002-10.168zm.2 179.5c-8.642 5.022-18.096 7.812-28.014 7.812s-19.372-2.8-28.014-7.75l4.06-10.168c14.844 9.146 33.122 9.146 47.966 0l4.002 10.168z"/></g></g><path d="m379.6 235.9c0 48.5-27.7 87.8-61.7 87.8s-61.6-39.3-61.6-87.8 27.6-88 61.6-88 61.7 39.4 61.7 88z" fill="#a7cfff"/><g class="B D"><path d="M379.524 235.878c.978 13.936-3.21 27.476-6.67 40.802-6.326 2.317-8.205-9.8-15.178-6.216-3.747-2.142-7.21-4.087-11.625-3.876-4.786-2.377-9.83-3.883-15.19-3.944-5.077-.482-10.18-.618-15.253-1.16 4.642-1.734 12.847.618 14.216-5.85-1.586-6.916-10.57-3.95-15.56-5.885-5.56-2.31-5.95-11.127-12.88-11.3-7.824-2.413-16.13-3.188-24.08-4.713 5.978 4.55 14.988 3.373 20.103 9.278 4.392 6.556-5.33 7.6-9.662 8.244-3.477 1.245-11.552.69-11.566 4.55 4.15 2.793 9.652-1.288 14.102 1.077 4.853 4.846-6.76 2.224-8.966 4.562-4.323 2.903 7.376 6.474 1.33 10.343-4.4 1.913-10.027 1.08-13.983 4.064 1.99 5.296 9.83 6.45 14.674 9.123 3.716.826 11.155 4.113 4.003 5.927-4.432 2.233-8.807 4.582-13.084 7.1-12.165-18.225-18.413-40.242-18.038-62.124 9.855-4.086 19.974-8.836 30.92-8.224 26.868-.786 54.108-.888 80.407 5.433l11.98 2.79z" fill="#afff7b"/><path d="M379.524 235.878c-6.75.326-13.413 3.482-20.204 1.42-5.68-1.517-11.696-2.11-17.36-.19-5.386 1.662-11.198 2.197-16.58.16-6.125-2.36-12.662-1.12-18.85.22-8.93 2.16-17.663-3.583-26.57-.994-5.76 1.593-11.843 2.04-17.608.196-4.43-.245-7.477-.935-6.035-5.952.398-9.843 1.964-19.646 4.77-29.093 4.567.768 10.574-.682 10.756-6.327 2.45-6.124 11.25-3.095 15.572-.657 2.968 3.697 5.854 3.314 9.15.225 3.924-2.248 9.233-4.518 13.502-1.96 4.802 4.43 3.754 13.156 10.258 16.118 4.97.95 7.936 6.027 12.847 7.52 6.458 3.02 13.76 1.667 20.637 1.774 8.02-.1 16.067-1.007 24.076-.422 1.55 5.245 1.388 11.416 1.636 17.055l.004.9z" fill="#fff"/></g><path d="m265.1 185.906s21.866-6.944 53.418-6.448 53.418 7.936 52.954 7.936-6.032-11.408-6.032-11.408-22.272-6.5-47.386-7.006c-25.056-.496-46.922 4.96-46.4 5.456z" fill="#fede00" stroke="#fede00" class="D"/><path d="M303 170.9l13.6-.2c-.365 2.422 1.008 6.5-.416 7.914l-12.984.286-.2-8zm-31.2 4.3c-1.18 2.45-4.396 6.217-4.294 7.838L283.2 181.1c-1.15-2.316.39-8.533-3.194-7.325-2.66.405-5.877 1.414-8.206 1.425zm13.7-3l13.6-1.1.6 7.8-13.5 1.2-.7-7.9zm48.9-.7l-13.5-1c.534 2.445-1.944 7.556.766 8.075l12.234.725.5-7.8zm29.2 5c1.097 2.884 4.685 7.742 4.302 9.452L353.9 182.5c1.203-2.214.007-8.08 3.12-7.385 2.198.435 4.414.798 6.58 1.385zm-11.8-3l-13.4-1.7c.116 2.438-1.66 6.33-.39 7.88l12.89 1.72.9-7.9z" fill="#00dcff"/><path d="m281.4 194.8s1 8-5.1 18c-6 9.9-5.1 6.4-5.1 6.4s2.8 5.5 2.3 5.5-4.7-5-4.7-5l-5 5.5s4.6-8.5 4.1-8.5-1.4-3-1.4-3l3.7-1.5s5.6-10.4 5.6-9.9-16.7 11.4-16.7 11.4l22.3-18.8zm3.7 3c-.5 0 2.3 8 4.7 12 2.3 4 2.3 8.9 2.3 8.9l7.9 4-10.2-15.4 6.5 2.4zm0 20.9s5.6 6 6 8 .5 6.4.5 6.4l-2.3-5-3.3 4.5s2.4-7 1.9-7.5-3.7 2.5-3.7 2.5 1.4-4 1.4-4.4 0-3-.5-4.5zm-27.9 13.9c1.9-1.5 5.6-2.5 5.6-2.5s-2.3 4-2.8 4-1.8 0-2.8-1.5zm64.1-21.8s12.1 7.4 12.1 7.9-7.9-3.5-7.9-3.5zm-21.8-15.5c1 .5 17.7 14.4 17.2 14.4s-7.4-4-7.4-3.4v3.4l-3.8-7.9-.9 3-5-9.5zm4.2 22.4 4.6 9.4 4.7-1s-8.8-8.4-9.3-8.4zm14.4-6 .5 9s2.7 2.5 2.7 2-2.7-10.5-3.2-11z" fill="#b7e1ff"/><path d="M281.7 54.9c-34.696 5.784-68.16 17.97-99.1 34.6 3.603.26 12.932-1.482 5.006 3.713 7.17 3.33 21.998 8.974 30.316 3.234 7.384-1.616-4.656 10.588 4.047 5.89 8.357-7.004 18.617-2.786 27.994-1.188 13.978 2.945 28.176 4.632 42.155 7.53 9.583 2.004 12.304 15.788 13.506 22.945-2.557 5.25-17.956 12.136-5.12 6.623 10.215-3.544-9.404 14.3 2.284 3.8 4.977-7.105 7.328-1.197 9.912 3.45-3.073-9.495-.673-17.948 4.02-26.403 6.055-10.842 16.662 11.823 6.44 15.934-2.77 2.947-12.92 8.638-3.898 4.145 9.028-5.046 2.91 4.477-.46 7.424 5.46-6.618 11.804-11.127 14.398-.4-.28-4.91-3.54-18.92 1.102-7.2l16.2-8-13.2-20.7c11.287-3.324 22.812-5.854 33.75-10.25 8.967-.37 21.104 3.42 27.7 3.706-2.325-13.595 14.777-5.142 22.75-8.034 16.354-1.125 32.65-2.964 48.9-5.023-36.14-14.475-72.926-28.864-111.784-33.753-5.863 4.473 6.91 18.88-2.037 18.753-5.36-.235-10.884.467-16.145-.344-7.746-7.38-19.123-9.73-29.083-5.623-12.314 9.03-16.722-10.32-26.815-14.068l-1.47-.565z" fill="#803300"/></g></svg>
