<svg viewBox="0 0 640 480" xmlns="http://www.w3.org/2000/svg" xmlns:xlink="http://www.w3.org/1999/xlink"><path d="m0 320h640v160h-640z"/><path d="m0 160h640v160h-640z" fill="#fff"/><path d="m0 0h640v160h-640z" fill="#ce1126"/><path d="m320.64 241.92 54.8 50.88-3.92-92.4c-.56-14-12.72-10.8-21.6-5.76-8.88 5.76-19.2 5.76-29.92 2-10.8 3.76-21.04 3.76-29.92-2-8.8-5.04-21.04-8.24-21.6 5.76l-3.92 92.4z" fill="#fff" stroke="#c09300" stroke-linejoin="round" stroke-width="1.3"/><path id="a" d="m274.8 197.2-3.84 89.84-6.4 5.76 3.92-92.4a19.2 19.2 0 0 1 6.32-3.2zm7.68 6.4-3.2 75.2-6.4 6.56 3.84-86.8c1.28 1.28 5.04 4.4 5.76 5.04zm6.96 5.76-2.48 62.72-5.2 5.04 3.2-71.52c1.28 1.2 3.84 3.04 4.48 3.76zm7.6 3.2-2.48 53.44-5.04 4.08 2.48-59.44c1.28.56 3.76 1.92 5.04 1.92zm7.04 0-1.84 44.56-5.2 5.04 2-49.04c1.2 0 4.48 0 5.04-.56z" fill="#c09300"/><use fill="#fff" height="100%" stroke="#c09300" transform="matrix(-1 0 0 1 640 0)" width="100%" xlink:href="#a"/><path d="m322.56 252 7.68 35.04-2.56 2.56-2.64-2-4.32-31.2 1.84 31.2-2.56 3.2-2.48-3.2 1.84-31.2-4.4 31.2-2.64 2-2.56-2.56 7.68-34.96h5.12z" fill="#c09300" stroke="#c09300" stroke-width=".88"/><g id="b" fill="none" stroke="#c09300" stroke-linejoin="round"><path d="m302.8 236.64-15.28 54.16 21.04 3.2 8.88-40.72z" fill="#fff" stroke-width=".96"/><g stroke-width="1.3"><path d="m297.76 255.2 1.84 4.4 9.92-9.44" stroke-width="1.04"/><path d="m304.64 244 2.08 19.44 6.32-8.32m-2.56 3.2 3.44 12m1.36-4.4-6.96 10.56m2.16 10.56-2.24-10.56-1.92-10.72-4.72 6.32-2-7.28-6.56 6.72 3.28 12.16 4.64-7.52 2.48 7.68 4.8-7.36m-16.24 13.12 4.24-6 2.72 9.2 3.84-6.4 2.48 7.68" stroke-width="1.04"/></g></g><g fill="#fff" stroke="#c09300"><use height="100%" transform="matrix(-1 0 0 1 640 0)" width="100%" xlink:href="#b"/><g stroke-linejoin="round"><path d="m320 315.04c16 0 31.2-1.28 40.16-3.76 3.76-.72 3.76-2.64 3.76-5.2 3.84-1.28 1.92-5.76 4.56-5.76-2.72.8-3.2-4.4-6.4-3.76 0-4.48-4.56-5.04-8.32-3.76-7.6 2.48-21.04 3.12-33.76 3.12-12.8-.64-26.08-.64-33.76-3.2-3.76-1.2-8.24-.64-8.24 3.84-3.2-.64-3.76 4.48-6.4 3.76 2.64 0 .64 4.56 4.48 5.76 0 2.56 0 4.48 3.84 5.2 8.8 2.48 24.16 3.76 40.08 3.76z" stroke-width="1.92"/><g stroke-width="1.04"><path d="m298.32 290.8c5.12.72 10.88 1.28 15.36.72 2.56 0 4.4 4.4-.72 5.04-4.4.56-11.44 0-15.2-.64a184.8 184.8 0 0 1 -14.72-3.2c-4.48-1.92-1.28-5.6 1.28-5.12a84.24 84.24 0 0 0 14 3.2zm43.36 0c-5.12.72-10.88 1.28-15.2.72-2.72 0-4.56 4.4.56 5.04 4.48.56 11.44 0 15.2-.64 3.2-.64 10.24-1.84 14.72-3.2 4.48-1.92 1.28-5.6-1.28-5.12a84.16 84.16 0 0 1 -14 3.2z"/><path d="m282.4 288.32c-3.84-.72-5.6 3.76-4.4 6.32.56-1.28 3.2-1.28 3.76-2.56.72-1.92-.56-1.92.72-3.76zm15.36 11.76c0-2.56 2.48-2.24 2.48-4.8 0-1.2-.64-3.2-1.92-3.2a2.72 2.72 0 0 0 -2.56 2.56c-.56 2.48 2 2.88 2 5.44zm18.16-7.28c3.76 0 3.36 5.04 1.6 7.6 0-1.84-3.2-2.56-3.2-3.84 0-1.92 2.88-1.92 1.6-3.76zm41.6-4.48c3.92-.72 5.76 3.76 4.48 6.32-.56-1.28-3.2-1.28-3.76-2.56-.72-1.92.56-1.92-.72-3.76zm-15.12 11.68c0-2.56-2.56-2.24-2.56-4.8 0-1.2.64-3.2 1.92-3.2a2.72 2.72 0 0 1 2.56 2.56c.56 2.48-2 2.88-2 5.44zm-18.4-7.2c-3.76 0-3.36 5.04-1.6 7.6 0-1.84 3.2-2.56 3.2-3.84 0-1.92-2.88-1.92-1.6-3.76z"/></g><path d="m283.76 289.6c1.28 0 3.2.56 3.76 1.28zm6.32 1.92c.64 0 3.2.56 4.4 1.28zm22.88 2.56c-1.2 0-3.76 0-4.4.56l4.4-.64zm-6.96 0c-.72-.72-3.2-.72-4.48 0zm50.24-4.48a6.4 6.4 0 0 0 -3.76 1.28zm-6.24 1.92c-.8 0-3.2.56-4.48 1.28zm-22.96 2.56c1.2 0 3.76 0 4.48.56l-4.48-.64zm6.96 0c.72-.72 3.2-.72 4.48 0z" stroke-width=".72"/></g><path d="m320 261.76c26.08-20 23.84-49.44 23.84-49.44l-2 .16c-5.52 0-18.56-3.2-21.6-7.12-3.2 3.6-16.64 7.2-22.08 7.2l-2-.24s-2.32 29.36 23.84 49.44z" stroke-width=".88"/><path d="m341.76 214.4h-.64c-4.96 0-16.48-2.48-20.96-6.32-4.64 3.52-16.4 6.4-21.28 6.4a3.76 3.76 0 0 1 -.64-.08 58.48 58.48 0 0 0 2.08 14.96 56.8 56.8 0 0 0 19.68 29.68 56.96 56.96 0 0 0 19.68-29.76 58.48 58.48 0 0 0 2.08-14.88z" stroke-width=".72"/></g><path d="m311.52 212a49.76 49.76 0 0 1 -13.28 2.4l.08 3.28a58.24 58.24 0 0 0 2 11.6 56.8 56.8 0 0 0 11.2 21.44zm16.48 0v39.36a56.88 56.88 0 0 0 11.68-22.08 58.4 58.4 0 0 0 2-11.6l.08-3.2h-.64c-3.04 0-8.32-.96-13.12-2.56z" fill="#c09300"/><g stroke="#c09300"><path d="m329.84 202.4c.56.08-.72-2.8-.72-2.8 1.44 1.44 6.72 1.84 6.72 1.84-3.2-1.44-6.4-12.08-6-20.64.32-8.48-1.2-11.84-2.4-13.12-1.6-1.6-6.8-3.04-10.16-3.2-2-.08-1.6 1.44-1.6 1.44-3.6-.88-7.2-1.28-8.8-.16-1.44.96-1.76 6-.64 5.12 2.64-2.16 4.96-.16 6.56 2.16 1.44 2 1.36 7.76-.72 14.56a48 48 0 0 1 -8 14.16c3.2 0 7.68-2.8 7.68-2.8l-1.04 4.4c3.36-1.6 6-4.08 6-4.08l3.2 3.36c1.04-1.44 3.2-3.36 3.2-3.36s2.64 2.8 6.72 3.2z" fill="#fff" stroke-width=".96"/><path d="m316.88 182.08s-1.76 13.12-5.12 16.8m8-17.2s-.8 13.36-3.04 17.6m5.52-17.04s0 14.56.8 17.04m2.4-16.32s.64 12.24 3.68 16.64" fill="none" stroke-width="1.3"/><path d="m313.6 175.68a6.4 6.4 0 0 0 -.8-2.64c-1.6-2.4-3.92-4.32-6.56-2.16 0 0 .88-2.8 2.88-2.88 1.44-.08 4.88 1.12 7.92 6.24 0 0-2.24-.48-2.8 0-.96.8-.56 1.44-.56 1.44zm-7.68-8.24c.24-.8.56-1.44 1.04-1.68 1.6-1.12 5.12-.8 8.72.16 0 0-.32-1.52 1.6-1.44 3.36.16 8.48 1.6 10.08 3.2a6.32 6.32 0 0 1 1.2 1.92c-.8-1.12-3.04-1.04-3.6-.96-.8.08-1.36 0-2.48.32-.56.16-1.36.32-1.84.64-.32.32-.64 1.28-1.12 1.28-.8 0-.8-.16-1.04-.4-.24-.4-.4-.88-.72-.8-.8.08-2.24-.56-4-2-1.84-1.44-2.56-1.76-4.8-1.6-2.4.16-3.04 1.52-3.04 1.52z" fill="#c09300" stroke-width=".24"/></g><circle cx="319.04" cy="168.56" fill="#fff" r=".96"/></svg>