<svg xmlns="http://www.w3.org/2000/svg" viewBox="0 0 640 480"><style><![CDATA[.B{fill-rule:evenodd}.C{stroke-width:.58}.D{fill:#dd8b59}.E{stroke:#512007}.F{fill:#fecf3e}.G{fill:#012169}]]></style><path d="M0 0h640v480H0z" class="G"/><g class="B"><path d="M0 0h400v200H0z" class="G"/><path d="M412.9 308.9a11.3 12.7 0 0 0-1.7 0c-3 .6-7.6 11.3-10 17.6-4.1 5.4-6.2 9.6-7.8 12.7-.7 1.2-1.7 2.6-1.4 4.2-6 1.6-6.3 7.4-6.3 9.6 0 2.5.7 3.7.7 3.7l3.6 7.5v.1c3.8 9 9.4 20.9 12.7 21.8 4.4 1.5 16-3.3 24.8-11.7a140.6 157.8 0 0 0 53.2 12.1c20.4 0 38.7-5.5 53-12.1 8.8 8.4 20.4 13.2 25 11.7 3-1 8.7-13 12.6-21.8l3.5-7.6s.7-1.2.7-3.6c0-2.2-.3-8-6.3-9.6.3-1.6-.6-3-1.3-4.3-1.7-3.2-3.8-7.4-7.7-13-2.6-6.2-7.2-16.7-10-17.2-4.2-.8-13 1.5-13 2.4v.4l-17.7 18.6c0 .5.9 14 4.3 26a126 141.5 0 0 1-43.3 8.2c-17 0-31.5-3.4-43.2-8.3a116.6 130.9 0 0 0 4.3-26L424 311.8v-.4c0-.7-6.8-2.5-11.1-2.5z" fill="#fff" stroke="#fff" stroke-width="10"/><path d="M411.1 306.1c-.62.02-1.2.08-1.7.2-4.2.9-11.7 21.4-12 21.8a44.5 52 0 0 0 1.21 1.88c-2.4 3.74-3.95 6.8-5.3 9.22a7.05 7.05 0 0 0-.45 1.1c-.5-.02-1 .01-1.55.1-7.1 1.3-7.5 7.6-7.5 9.9 0 2.2.7 3.5.7 3.5l3.8 8c3.8 8.8 9.33 20.4 12.4 21.4 4.34 1.25 15.06-2.93 23.5-10.32 14.75 7.32 34.33 13.72 56.4 13.72 21.48 0 40.56-6 55.12-13.04 8.33 6.97 18.48 10.85 22.68 9.64 3.1-1 8.7-12.74 12.55-21.56l3.75-7.84a9 9 0 0 0 .6-3.5c0-2.23-.3-8.2-6.87-9.75a6.53 6.53 0 0 0-.53-1.35c-1.46-2.75-3.3-6.3-6.32-10.75a44.5 52 0 0 0 .22-.35c-.4-.4-7.9-20.9-12-21.8s-12.8 1.5-12.8 2.3l-.08.58-17.72 18.52h.1c0 .58 1.17 16.15 5.1 28.57-11.9 4.94-26.57 8.43-43.8 8.43-18.15 0-33.46-3.88-45.66-9.23 3.74-12.28 4.86-27.2 4.86-27.77h.1l-17.72-18.52-.08-.58c0-.7-6.66-2.63-11-2.5zm4.48 23.24c2.18-.07 4.5 1.94 6.44 4.2-.07.43-.13.86-.2 1.25-.6 3.1-1.67 7.3-3.2 11.55-5.22-3.65-9.32-7.4-12.22-10.74 1.86-2.28 5.23-5.73 8.72-6.2.16-.03.3-.04.47-.05zm128.06 0c.16.01.3.02.47.05 4.3.6 8.27 5.7 9.6 7.44-3.12 3.36-7.37 7.05-12.7 10.6-1.74-4.62-2.95-9.3-3.6-12.65-.08-.4-.16-.84-.23-1.28 1.95-2.25 4.3-4.24 6.46-4.17zm-143.9 27.42c1.9 1.77 4.48 3.88 7.7 6.17-.63.33-1.27.6-1.94.76-1.5.4-3.06.33-4.64-.03-.5-1.4-.92-3.13-1.06-5.47-.03-.5-.04-.96-.06-1.43zm159.62 1.87c-.2 2.1-.6 3.73-1.08 5.03-1.6.36-3.18.42-4.68.03-.2-.05-.4-.12-.6-.2 2.47-1.73 4.6-3.38 6.36-4.87z" fill="#e9c6af" stroke="#000" stroke-width="1.2"/><path d="M480.5 356.1s-82-27-81.4-129.4l.6-135.6H561l.6 134.8c.5 102.4-81.4 130.1-81.4 130.1z" fill="#0072c4" stroke="#fff" stroke-width="3.9"/><path d="M410.36 123.67c.15 0 1.1-1.07 2.05-1.98l3.67-2.47c1.03-.58 2.93-1.07 3.74-1.56a9.16 10.29 0 0 0 3.08-2.8l.37-5.1c1.32-.82 2.5-1.48 3.67-1.98 1.7-.58 2.05-1.32 3.74-1.65 1.1-.4 2.86-.4 4.4-.4 1.7 0 2.7 1.4 4.25 1.65 1.83.82 2.64 1.4 4.1 2.8.73 1.15 1.25 2.14 2.64 2.96 1.1.66 2.13 1.65 3.37 1.98 1.47.9 2.64 1.48 3.74 2.8 1.03.82 1.47 1.98 2.35 2.8a26.46 29.71 0 0 0 3.45 2.8c1.47 1.07 2.93 1.9 5.2 1.65 1.25 0 2.57-.25 4.03 0 1.7 0 3.3 0 4.76.5 1.76 0 3.15.25 4.76.4 1.47.25 3 .33 4.7.33 1.47.5 3.08.4 4.76.4h9.53c1.7 0 3.45.08 4.7.4a37.38 41.97 0 0 0 4.76-.41c1.83 0 3.23-.33 5.06-.4h5.72c1.47.5 3.37.82 4.4 1.65 1.4.4 2.05 1.15 3.37 1.56 1.1.58 2.64 1.56 3.45 2.8a18.11 20.33 0 0 1 2.71 4.36c.88 1.48 1.25 3.3 1.98 5.18.44 1.8.73 3.54.73 5.5.37 1.73.3 3.62.3 5.6-.37 1.8-.44 3.8-1.03 5.5 0 1.98-.37 3.7-.66 5.18-.3 1.65-.66 2.72-.73 4.77v5.6c0 1.8-.44 3.13-.6 5.1a52.04 58.43 0 0 0-2.42 6.01 10.78 12.1 0 0 0-2.71 3.13c-.73.5-1.1 1.32-.95 1.65 1.32.5.95 1.56.95 3.54l.73 5.18c.07 1.9.44 3.05.95 4.36.6.82.73.4-.66.4-.95.82-1.98.4-2.35-1.23a8.8 9.88 0 0 1-1.39-4.36c-.15-1.8-.44-3.62-.95-4.77-.22-2.22-.73-2.22-2.7-2.4-.95-.9-2.2-1.15-4.1-1.15-1.83 0-1.98-.25-1.98 1.98v5.6c-.37 1.65-1.03 2.88-1.4 4.36-1.03.82-1.47 2.22-2.7 3.13-.6 1.8-1.4 2.14-3 2.47l-2.05-2.8c.95-1.8 1.76-2.06 2.35-4.03l1.7-3.95c-.73-1.23-1.32-1.8-1.98-3.54a19.28 21.64 0 0 1-1.69-4.36c-1.17-.5-2.93-.58-3.74-1.23-1.7-.4-2.13 1.65-4.1 1.65h-4.7c-2.13 0-2.64 1.23-4.4 1.15-.5.16-1.83-.08-3.74 0-1.47.58-3.15.4-4.76.4-1.7 0-3.08-.5-4.4-.82-1.54-.5-3.08-1-4.7-1.15-1.98 0-2.8.16-4.1 1.15-1.03.74-2.57 2.3-3.67 3.2-.5 1.32-.73 3.54-1.47 5.1-.3 1.65-.88 2.55-1.25 4.03a13.49 15.14 0 0 0-1.03 4.77c-.15 2.63-.66 2.3-2.05 1.56-.6-1.15-1.47-2.3-2.05-3.62.3-1.98.73-2.96.73-5.1-.37-1.65-1.1-1.48-2.05-.4 0 2.06 0 3.7-.73 4.77a4.4 4.94 0 0 1-1.98 3.13c-.5 1.48-1.6 2.22-2.7 2.8-.15 0 0-.5 0-1.65-.8-1.73 0-3.3 0-5.5 0-1.98-.15-3.3.37-5.1 0-1.98-.73-3.8-1.03-5.18-.66-1.48-1.03-2.22-2.7-2.8-1.25-.58-2.93-1.23-3.74-2.47a7.04 7.9 0 0 0-3.08-2.72c-1.47-.58-2.27-1.23-3.37-1.98-1.03-1.32-1.9-1.8-2.35-3.54-.73-1.23-.8-3.54-1.32-5.18a15.91 17.86 0 0 0-1.03-4.77 17.81 20 0 0 0-1.03-4.77c-.22-1.65-.6-3.3-1.03-5.18 0-1.9 0-3.8-.37-5.5v-5.6c-.22-1.65-.3-3.95-.66-5.18 0-2.14-.22-3.3-.73-4.77-.73-1.4-.73-1.98-1.98-2.4-.88 1.23-2.27 1.8-4.03 2.06-1.25-.33-3-.58-4.4-1.23-1.4-.33-2.27-1-3.37-1.65a31.67 35.55 0 0 0-2.05-3.13l-.73-5.18c0-1.48.07-.66 1.47-2.72z" fill="#e6e6e6"/><path d="M428.68 196.27c1.16-.4-1.8.7 1 1.25 1.62 1.28 3.95 4.24 5.86 1.73.92 2.84 3.44 4 4.48 1.1.73 2.5 1.68 7.4 4.6 3.68 4.6-1.38 7.8 4.04 12 1.86 3-.87 5.2-7.6 8.52-3.17 3.3-.38 7.07-4.98 9.54-.3 2.76.98 2.86-7.48 5.2-2.97 1.47 5.4 5.26-3.6 7.85.57 3.62 1.07 8.6-.88 11.06 1.48 4.67-1 10.25 3.4 14-1.6 1.66-.32 1.58 4.64 4.7 2.35 3.6-1.67 7.93 1.38 10.23-3.24 2.12 4.05 7.38.15 10.3-.18 1.7 1.1 3.46 2.85 5.27 3.16-.4 4.13-4.3 6.76-6.87 9.68-1.23 5-5.56 8-9.25 11.17-3.58 4.56-9.48 6.67-15.16 5.9l-44.08-.01c-6.94 3.43-15.15 4.32-22.67 2.58-4.47-2.5-8.23-6.73-10.77-11.2-2.04-4.8-3.76-9.73-5.23-14.76-1.13-2.83-.36-6.05-.57-9.04z" fill="#005120" stroke="#002b0d" stroke-width="1.17pt"/><path d="M425.9 214.3c-11.2-.15-16.15 14.17-27.5 13.5.53 8.62-.6 20.2 2.78 26.9 10-1.58 14.92-14.35 25.77-13.25 10.9.8 16.1 15.27 27.8 13.22 10.3-1.56 15.53-15.1 26.9-13.12 10.3 1.6 15.54 15.08 26.9 13.1 10.24-1.6 15.4-15 26.7-13.13 9.47 1.36 13.95 12.52 23.66 13.27.66-8.54 3.45-20.18.82-26.97-11.3-.3-16.55-15.35-28.46-13.28-10.3 1.6-15.45 15.16-26.8 13.2-10.32-1.64-15.58-15.2-27-13.2-10.26 1.65-15.43 15.16-26.77 13.2-9.8-1.5-14.48-13.48-24.8-13.45zm0 52.7c-7.7 1.4-21.34 8.07-18.32 17.2 3.17 5.05 4.34 19.82 11.5 11.58 9.42-5.23 17.82 2.7 24.44 8.5 5.87 5.05 14.7 3.9 20.06-1.24 5.43-4.78 12-11.1 19.92-8.4 9.04 2.83 14.3 14.6 24.92 12.8 10.13-1.6 15.2-14.68 26.25-13.23 5.63-.36 10.8 8.97 12.38-.08 1.92-6.6 10.5-15.72.85-19.42-5.64-5.94-15.1-10.8-22.62-5.25-6.54 4.23-12.12 12.47-20.95 10.9-10.3-1.6-15.44-15.16-26.8-13.2-10.28 1.66-15.5 15.14-26.87 13.2-9.78-1.45-14.4-13.6-24.78-13.36zm53.7 52.7c-11.56-.12-16.78 15.34-28.82 13.38-9.35-1.28-13.73-12-23.08-13.28a132 132 0 0 0 39.3 33c7.2-.36 14.4 7.28 20.82.32 7.47-1.62 13.83-5.8 19.7-10.52 8.72-6.56 16.6-14.23 23.5-22.7-10.12 1.84-15.36 15.04-26.62 13.16-9.8-1.4-14.4-13.6-24.78-13.36z" fill="#fff"/></g><g class="E C"><path d="M408.5 268.38a118.94 138.85 0 0 1 11.35-3.79l17.62 19.82-14.5 3.4z" fill="none"/><g class="B D"><path d="M476.4 307.26l.97-92.15s2.8-.38 2.8 0l-.65 92.15c-.32.38-3.46.63-3.14 0zm30.82-88.1l-.65 77.38-2.16 3.03.65-80.4z"/><path d="M441.47 292.1s3.24 37.87 39.36 36.73c36.1-1.14 46.17-38.12 46.17-38.12l-15.68-.76c-.32 0-12.54 17.67-28.33 17.3s-20.76-4.8-24.22-8.46c-3.46-3.8-6.5-9.2-6.5-9.2l-18.38-8.46 1.08 8.08zm97.64-3.8l-1.08-5.05v-4.3l1.73-4.54-27.36 5.05-.1 8.58 26.8.13z"/><path d="M452.5 289.6c.32-2.15.32-68.67.32-68.67l-1.84-.25-.32 67.8 1.84 1.26zM407.63 268l23.8 13.5-.54 1.9-22.92-13c0-.38.22-1.9-.32-2.52z"/><path d="M418.55 263.96c0 1 3.46 23.48 3.46 23.48s2.16.38 2.16 0l-3.68-23.1zm22.06.63c1.2 0 22.7-4.04 22.7-4.04l-.43 4.04-21.08 2.52z"/></g></g><path d="M443.64 234.17c1.4.44 2.7 1.22 4.07 1.74 1.78.74 3.64 1.47 5.6 1.45 1.1-.05 2.32-.74 2.5-1.93.15-.63-.46-1.56-.06-2 1.07.32 2.07 1.2 3.25.87 1.03-.4 1.45-1.52 1.82-2.46.38-1.07.74-2.2.7-3.34-.5-.3-1.1.5-1.66.53-4.4 1.83-8.85 3.63-13.44 4.96-.8.22-1.62.43-2.45.37-.12-.05-.18-.2-.32-.2z" class="F"/><path d="M440.93 243.4c1.2.38 25.73-7.7 25.73-7.7s0 2.52-.32 2.52l-25.4 7.7z" class="B C D E"/><path d="M497.7 232.02c.66 1.4 1.24 3.4 2.94 3.74 1.36-.1 2.78-2.35 3.57-2 .48 1.9 2.82 3.87 4.45 1.96 1.13-1.12 1.8-2.6 2.34-4.07 1.5.63 3.84.96 4.07-1.25.4-1.4 1.24-3.6 1.04-4.6l-18.3 6.25h-.1zm-28.76 7.33c-1.24 3.46-2.68 7.05-2.34 10.8a58.84 58.84 0 0 0 2.9 11.4c.77 1.05 1.93-1.5 2.85-1.95 2.24-2.02 4.67-4.35 7.82-4.66 3.13.08 6 1.74 8.4 3.63-.28-.76-1-3.73-1.15-5.37-.47-2.76-.4-5.6.43-8.28 1.1-4.12 2.52-8.15 4-12.14l-22.92 6.56zm.66-10.6c1.68.8 2.45 3.1 4.4 3.37 1.32-.24 2.94-3.2 3.38-2.72-.5 2.1 1.46 4.66 3.4 2.75 1.64-.55.93-4.08 2.8-2.68 2.12.6 3.5-1.54 4.05-3.28.27-1.04 2-4.65-.37-3.4-5.83 1.95-11.55 4.23-17.46 5.93l-.3.03z" class="F"/><path d="M441.9 232.66a5.41 6.31 0 0 0 .22 3.41l20.54-8.08s.87-1.9 0-1.9-21.08 7.32-20.87 6.7zm27.03-5.05c.54 0 20.98-7.7 20.98-7.7s.32 3.28 0 3.28l-19.14 6.56-1.95-2.15z" class="B C D E"/><path d="M495.86 243.76c-2.13 3-2.86 6.92-1.98 10.5.6 3.06 1.12 6.15 2.14 9.1.73.17 1.26-1.8 1.92-2.45 1.38-1.96 2.9-4.16 5.28-4.93 2.3-.44 4.58.6 6.67 1.48 1.57.72 3.1 1.54 4.56 2.46-.4-4.34-.9-8.7-.63-13.07.55-3.22 2.4-6.03 4.14-8.73.25-.58 1.6-1.9 1.24-2l-23.35 7.5v.08z" class="F"/><g class="B C E"><path d="M467.32 237.07s-.65 3.4-.32 3.4l26.7-8.08V230l-26.38 6.94z" class="D"/><path d="M433.9 281.13s-6.27-1-5.95.76c.32 1.9 3.14 3.66 3.46 4.8s-.97 5.05.97 4.8c1.84-.38 3.68-1.9 3.68-3.03l-.32-6.3z" fill="#b6b6b4"/><path d="M468.3 263.2v2.52l22.6-3.66-.65-1.9z" class="D"/></g><path d="M441.47 245.9c-1.88 1.2-2.1 3.7-2.03 5.74.33 4.07 1.3 8.16 3.25 11.78.86 1.22 1.37-1.67 2.1-2.27 1.4-2.22 3.38-4.66 6.23-4.73 3.28.07 6.26 1.76 8.97 3.45.05-1.05-.17-2.7-.13-4-.1-5 .63-10.14 3.15-14.54.14-.64 1.7-2.22 1.25-2.28l-22.27 6.8c-.17.04-.34.1-.5.08z" class="F"/><path d="M494.35 264.97l.32 2.27s22.7-3.28 22.7-3.8c0-.25 0-2.52-.43-2.52-.32 0-22.27 4.42-22.7 4.04zm-.32-23.48l.32 2.52 26.7-8.33s.65-2.27.32-2.27c-.32 0-26.7 9.2-27.36 8.08z" class="B C D E"/><path d="M0 0h320v240H0z" class="G"/><path d="M37.5 0l122 90.5L281 0h39v31l-120 89.5 120 89V240h-40l-120-89.5L40.5 240H0v-30l119.5-89L0 32V0z" fill="#fff"/><path d="M212 140.5L320 220v20l-135.5-99.5zm-92 10l3 17.5-96 72H0zM320 0v1.5l-124.5 94 1-22L295 0zM0 0l119.5 88h-30L0 21z" fill="#c8102e"/><path d="M120.5 0v240h80V0zM0 80v80h320V80z" fill="#fff"/><path d="M0 96.5v48h320v-48zM136.5 0v240h48V0z" fill="#c8102e"/></svg>