<svg viewBox="0 0 640 480" xmlns="http://www.w3.org/2000/svg"><path d="m0 0h640v480h-640z" fill="#171796"/><path d="m0 0h640v320h-640z" fill="#fff"/><path d="m0 0h640v160h-640zm320 364.1c51.3 0 93.3-42 93.3-93.3v-110.8h-186.6v110.8c0 51.4 42 93.4 93.3 93.4z" fill="#f00"/><path d="m320 362.6a91.8 91.8 0 0 0 91.6-91.5v-109.3h-183.1v109.2a91.8 91.8 0 0 0 91.5 91.5z" fill="#fff"/><g fill="#f00"><path d="m267.1 165.2h-35.1v38.7h35.2zm0 77.4h35.3v-38.7h-35.4zm-35.1 28.3c0 3.5.2 7 .6 10.4h34.6v-38.7h-35.2zm105.7-28.3h-35.2v38.7h35.2zm0 77.4h35.2v-38.7h-35.2zm35.2 21.2a89.2 89.2 0 0 0 20.1-21.2h-20v21.2zm-105.8-21.2h35.3v-38.7h-35.4zm-20.1 0a89.2 89.2 0 0 0 20.1 21.2v-21.2zm79.1 38.7c4-.3 7.7-.8 11.5-1.6v-37.1h-35.2v37.1a87 87 0 0 0 11.4 1.6c4.1.3 8.2.2 12.3 0z"/><path d="m407.4 281.3c.4-3.4.6-6.9.6-10.4v-28.3h-35.2v38.7zm-69.8-38.7h35.2v-38.7h-35.2zm0-77.4h-35.2v38.7h35.2zm70.4 38.7v-38.7h-35.2v38.7z"/></g><path d="m410 158.8 21.8-49.5-16.6-26.8-27.6 10.2-19.4-22.2-25.4 14.7-22.8-18.7-22.7 18.6-25.5-14.6-19.4 22.2-27.6-10.3-16.6 27 21.8 49.4a217.8 217.8 0 0 1 90-19.3c32 0 62.5 6.9 90 19.3z" fill="#fff"/><path d="m253 94.8-27.4-10-15.3 24.7 5.9 13.3 14.8 33.7a219.7 219.7 0 0 1 34.6-12z" fill="#0093dd"/><path d="m297.5 87.4-25.4-14.4-19.1 21.9 12.6 49.6a219.8 219.8 0 0 1 36.1-6z" fill="#171796"/><path d="m262.5 132.2a232.3 232.3 0 0 1 38.2-6.4l-1-12.9a245.6 245.6 0 0 0 -40.4 6.7zm-6.3-25a258 258 0 0 1 42.4-7l-1.1-12.7a270.7 270.7 0 0 0 -44.5 7.4z" fill="#f00"/><path d="m342.69 87.43-.06.03-22.56-18.47-22.51 18.43 4.24 51.1c6.03-.5 12.12-.76 18.27-.76 6.18 0 12.3.27 18.35.77l4.25-51.1z" fill="#0093dd"/><path d="m387.2 94.9-19.3-22-25.2 14.5-4.3 51.1a219.7 219.7 0 0 1 36.2 6l12.6-49.5z" fill="#171796"/><path d="m351.6 101a.3.3 0 0 1 .3.3.3.3 0 0 1 -.3.2.3.3 0 0 1 -.2-.2.3.3 0 0 1 .2-.3zm1.8 1.6a2.2 2.2 0 0 0 .8-.7c.1 0 0 0 0 .1a2.3 2.3 0 0 1 -.2.3l-.5.4c-.1-.1 0-.1 0-.1zm3.7-1.6a.5.5 0 0 1 .3 0 .8.8 0 0 1 .3.2.7.7 0 0 0 -.3 0 .5.5 0 0 0 -.2 0l-.1-.1zm-2 .1a.8.8 0 0 1 .3-.4l.7-.1v.1a1 1 0 0 0 -.7 0 .7.7 0 0 0 -.3.5c-.1 0-.1 0 0 0zm.2.4a.4.4 0 0 1 0-.3.6.6 0 0 1 .3-.1h.1a.5.5 0 0 0 -.3.2.3.3 0 0 0 0 .2zm-3.6 1.1-.1.3a.8.8 0 0 0 0 .3l-.1.1a1 1 0 0 1 0-.4c0-.1 0-.2.2-.3zm1 .5v.2zm-.6-1.1a1 1 0 0 0 .3 0h.3a1.4 1.4 0 0 1 -.3.1 1 1 0 0 1 -.3 0s-.1 0 0-.1zm.6-2a.3.3 0 0 0 -.2.1.4.4 0 0 0 -.1.2h-.1a.5.5 0 0 1 .2-.3.4.4 0 0 1 .2 0h.1zm-1 .2a.8.8 0 0 0 -.2 0 .3.3 0 0 0 0 .2h-.1c-.1 0 0 0 0 0a.4.4 0 0 1 0-.2.9.9 0 0 1 .3-.1zm-.7 0a.8.8 0 0 0 -.1.1.7.7 0 0 0 -.1.2h-.1a.7.7 0 0 1 .1-.2.9.9 0 0 1 .2-.2zm-.8.7a1.7 1.7 0 0 0 -.4.4v-.1a2 2 0 0 1 .4-.4zm0 .9v.1l-.2.2c-.1 0-.1 0 0 0v-.2l.2-.2c.1 0 .1 0 0 0zm-.7.2v.3l-.1.1c-.1 0 0 0 0 0v-.4zm1 1.4v.6h-.1v-.6zm-.6-.4v.3h-.1v-.3zm-.6-4.5a.7.7 0 0 1 .5.4v.1h-.1a.7.7 0 0 0 -.2-.3.7.7 0 0 0 -.2-.1zm5.2 6.7a1.6 1.6 0 0 1 0 1.4h-.1a1.6 1.6 0 0 0 0-1.3v-.1zm-1.7 2c0-.3.2-.5.3-.7l.4-.6c.2-.2.3-.4.3-.7a1.8 1.8 0 0 0 0-.7h.1a2 2 0 0 1 -.3 1.5 6.3 6.3 0 0 0 -.4.5l-.3.7zm-2.2-.6a.7.7 0 0 1 .2-.3.9.9 0 0 1 .3-.1.8.8 0 0 0 -.2.2.6.6 0 0 0 -.2.2zm-.4-.2.3-.3.3-.2v.1a1 1 0 0 0 -.3.2 2 2 0 0 0 -.2.3c-.1 0-.1 0 0 0zm2.3-2.2h.2a.8.8 0 0 0 .3 0v.1a.8.8 0 0 1 -.6 0c0-.1 0-.1 0 0zm-1.2-.1.1-.1c.1 0 .1 0 0 0v.1c-.1 0 0 0 0 0zm24.2 7a1.1 1.1 0 0 1 .2.3h-.1a.8.8 0 0 0 0-.1.8.8 0 0 0 -.2-.2c0-.1 0 0 0 0zm-26.8 12.5.3.3a1 1 0 0 0 .5 0v.1a1 1 0 0 1 -.5 0 1.7 1.7 0 0 1 -.4-.3c0-.1 0-.1 0 0z"/><path d="m409 156.5 20.8-47-15.3-24.7-27.3 10-12.7 49.8a219.4 219.4 0 0 1 34.5 11.9z" fill="#0093dd"/><path d="m382.6 113a251.7 251.7 0 0 1 39.6 13.7l-8 18.2a232 232 0 0 0 -36.5-12.7z" fill="#fff"/><path d="m415.4 142 5.4-12.2a248.6 248.6 0 0 0 -39-13.5l-3.2 12.4a235.9 235.9 0 0 1 37 12.8l-.1.4z" fill="#f00"/></svg>