<svg viewBox="0 0 640 480" xmlns="http://www.w3.org/2000/svg"><g fill-rule="evenodd"><path d="m0 0h640v480h-640z" fill="#fff" stroke-width=".818"/><g stroke-width=".938"><g transform="matrix(.761 0 0 .999 76.223 0)"><path d="m-100.096 322.484h840.448v157.772h-840.448z" fill="#da0000"/><path d="m-100.096 0h840.448v157.772h-840.448z" fill="#239f40"/></g><g fill="#da0000"><path d="m342.452 185.255c7.879 9.755 32.361 63.409-14.727 98.678-22.231 16.696-8.442 17.447-7.785 20.261 35.644-18.854 47.181-44.555 46.9-67.536-.188-22.887-12.382-43.148-24.388-51.402zm4.69-2.533a68.755 68.755 0 0 1 14.727 105.431c25.514-5.628 58.156-81.043-14.727-105.431zm-54.029 0a68.755 68.755 0 0 0 -14.633 105.431c-25.607-5.628-58.156-81.043 14.633-105.431z"/><path d="m297.804 185.255c-7.879 9.755-32.361 63.409 14.727 98.678 22.137 16.696 8.442 17.447 7.785 20.261-35.644-18.854-47.181-44.555-46.9-67.536.188-22.887 12.382-43.148 24.388-51.402z"/><path d="m365.34 299.316c-13.976.188-31.517-1.876-44.555-8.723 2.157 4.221 3.94 6.847 6.097 10.975 12.382 1.219 29.547 2.626 38.458-2.251zm-89.11 0c13.976.188 31.517-1.876 44.555-8.723-2.157 4.221-3.94 6.847-6.097 10.975-12.382 1.219-29.547 2.626-38.458-2.251zm25.607-130.101c2.814 7.504 10.224 8.63 18.103 4.221 5.816 3.377 14.727 3.658 17.822-3.846 2.345 18.572-17.165 14.07-17.822 10.506-7.316 7.035-20.824 3.002-18.103-10.881z"/><path d="m320.503 311.041 7.316-8.442 1.032-112.654-8.723-7.692-8.723 7.316 1.782 113.498z"/></g></g></g></svg>