<svg viewBox="0 0 640 480" xmlns="http://www.w3.org/2000/svg"><path d="m0 0h640v480h-640z" fill="#006"/><path d="m0 0h400v200h-400z" fill="#006" fill-rule="evenodd"/><g stroke-width="1pt"><path d="m0 0v27l334.4 215.3h42.1v-27l-334.4-215.3zm376.5 0v27l-334.4 215.4h-42.1v-27l334.4-215.4z" fill="#fff"/><path d="m156.9 0v242.3h62.7v-242.3h-62.6zm-156.9 80.8v80.7h376.5v-80.7z" fill="#fff"/><path d="m0 97v48.4h376.5v-48.5h-376.5zm169.4-97v242.3h37.7v-242.3zm-169.4 242.3 125.5-80.8h28l-125.3 80.8zm0-242.3 125.5 80.8h-28l-97.5-62.8zm223 80.8 125.3-80.8h28.1l-125.4 80.8zm153.5 161.5-125.5-80.8h28l97.5 62.7z" fill="#c00"/></g><g fill-rule="evenodd"><path d="m448.3 179.1c-1 .6-3 2.5-5 1.9s-6.6-8.6-11.6-7.4c-5 1.3-8.1 3.1-10.1 3.1s-7.6 1.8-7.6 6.7.5 8.6 1.5 8.6 2.5-3.1 2.5-3.1.5 6.1 4 6.1 11.2.6 11.7 2.5c.5 1.8-3.5 6-2.5 9.7s5.5 9.8 5.5 9.8-6.5 4.8-6.5 8 1 6 1 6l-29.3 1.2s-2 86.7-1 93.4l3.5 23.2s-6.6-2.2-12.1 3.3c-5.6 5.5-25 15-25.5 19.2-.5 4.3-2.3 8-.3 11s9.2 11.4 7.1 11c-6.8-1.1-9.3-10.8-13.9-14.3-4.5-3.5-13.3-2.8-14.4.9-1 3.7-.5 9.8 0 11s6.1 20.7 7.6 25 17.4 10.7 24.5 10c13.4.4 19.4-5.7 20-5.1.4.6 28.7 29.8 86.8 29.9 45.2 0 79.2-29.3 79.2-28.7s18.7 6.1 25.3 4.3c6.5-1.9 16.1-6.1 18.1-10.4s7.6-26.2 8.1-29.9 0-8-4.5-9.2-7-.9-9.6.3-3.3 4.6-7 10.7c-2.1 1.9-7.4 6.7-5.9 5.5s4.8-10.3 5.3-13.4c.5-3 2-8.5-1.5-11.6-3.5-3-9-4.3-15.1-8.8-6-4-10.6-10.7-14.2-10.7-3.5 0-7.5-1.8-7-1.8s4.5-9 3.5-18c-1-9.2.5-96.8 0-96.8s-25.2 1.9-25.2.6 2-9.7 0-15.2-10.7-9.2-8.1-10.4c2.5-1.2 13.6-4.3 13-9.1-.4-5-7.5-4.3-10.5-6.1-3-1.9-12.1-10.4-13.1-10.4s26.2-16.5 24.2-16.5-12.6-3-16.2-1.2c0-3 14.7-12.2 12.2-13.4-2.6-1.3-14.2-2.5-11.1-3 3-.7 4-8 3.5-8l-13.1 1.8s-3-4.3-4-4.3-5.6 2.5-5.6 2.5l-2.6-6.7-5.5 3.6-2.5-3s-4.6 1.2-4.6 0c.2 0-.5-3-1.2-3s-5.7 3.8-5.9 3.6-5.7-8-5.7-7.8l-4.1 14.7c-.2 0-4 .4-4.1.6-.2.3-20-11.4-19.8-11.2l5.1 11.2s-4.2 2.4-4.2 2.6l.7 5-13.2-4.5s5 10 4.6 10l-9.6.5 4.4 8.4-1.6 5s14.2 10 13.2 10.6zm84.3 212.4c1.3 1.8 8.1 10.4 7.1 10.4s-18 11.3-24.7 13.4a351 351 0 0 1 -27.8 5.8c1.3-.3 20-10.5 27.5-15.4a119 119 0 0 0 18-14.2zm-105.5-.3c-1 1.2-5.8 10.7-5.8 10.7s13.9 9.7 24.2 13.4c10.4 3.6 28 4.9 27 4.6s-22.1-9.8-28.2-14.7c-6-4.9-17-14-17.2-14z" fill="#fff"/><path d="m488.736 134.736c-2.333 1.772-4.078 8.877-7.715 5.261-1.201 3.358-3.689 5.968-7.276 6.291-1.759 1.451 2.618 3.939-.727 4.522-4.095-1.813-5.981-6.409-9.577-8.964-1.458-2.128-6.532-2.173-3.28.807 4.604 5.732 8.737 12.29 9.901 19.679-3.767-7.232-9.961-12.845-16.558-17.47-.079 3.173 6.442 7.925 2.626 9.725-4.758-2.686-9.762-4.982-15.017-6.506 3.137 4.305 8.066 6.805 11.414 10.912 2.536.629 3.983 6.164.026 3.431-5.14-1.68-10.393-2.99-15.671-4.157 7.287 4.001 14.488 8.405 20.37 14.351-4.175-1.933-8.064-4.922-12.8-5.267-2.606-2.534-3.603 2.411-.316 2.296 4.374 3.195 8.8 6.455 12.239 10.689 5.768-1.173 12.055 1.479 17.483-1.521 4.677-1.085 9.435 1.406 14.085.027 6.027-.179 10.422 6.529 16.636 4.775 4.805-1.743 7.147-7.145 12.125-8.609 4.144-2.169 8.558-3.825 12.515-6.345-2.317-3.071-6.307-1.047-9.169-.061-2.822 1.96-7.409-.897-3.124-3.181 2.725-1.935 4.653-4.714 7.175-6.911 2.374-2.34 4.76-4.669 7.184-6.958-10.836 4.491-20.978 10.786-29.49 18.885 5.82-9.98 14.824-17.465 22.472-25.958 1.317-.958 3.208-4.018.223-1.86-8.696 4.389-17.424 9.226-24.146 16.416-.642-5.19 4.649-8.076 6.5-12.342 4.068-.988 3.729-8.751-.898-4.885-1.322 1.368-5.926 5.548-6.009 2.18 1.252-1.599 1.027-6.452-1.363-2.963-1.951 1.17-3.89 7.122-5.249 3.838-1.686.411-5.175 1.11-2.458-1.532 2.527-1.524 4.287-5.874-.303-3.985-1.961-.435-3.028-2.956-1.829-4.611z" fill="#fec500"/><path d="m445.5 216.5c.2.9 5.9 16.4 14.7 16s12.3-3 11.9-3.2a18 18 0 0 1 -6.2-8.5 44 44 0 0 1 -2.5-8zm31.2-6s6.5 15.3 9.3 17.5c2.9 2.1 9.5 3.8 12.3 3.6 2.9-.2 6.3 0 6.3 0s-2.9-1.5-5.2-9.9l-3-11.2zm39.3 5.6s-1.2 11.2 0 14c1.3 2.8 7.5 8 7.5 8s7.5-1 7.7-8a36 36 0 0 0 -2.5-13.3l-12.7-.8z" fill="#00389b"/><path d="m432.453 177.496c-4.545 2.213-12.902 1.853-14.263 7.474 2.217 2.21 5.158 2.547 6.059 6.041 3.812 5 12.569-.396 14.774 6.197.919 5.361-6.185 10.128-1.028 15.258 4.441 6.48 13.225 7.289 20.242 5.388 4.474-.87 8.601-2.828 12.88-4.27 3.83-.244 7.539 1.567 11.455 1.468 9.732.744 19.535-.582 28.925-3.138 1.398 5.042 3.392 12.004 9.894 11.709 3.25.787 11.17 5.025 10.062-1.545-.482-6.274-5.658-10.525-8.795-15.502-.495-4.537 7.537-.837 8.809-5.402 1.444-.993 5.56-5.499 1.049-3.579-4.348 1.447-7.389-3.586-11.343-4.607-8.272-4.412-17.014-7.863-25.525-11.767-9.394-3.415-19.648-3.89-29.521-3.029-5.796.894-10.931 3.913-16.226 6.183-6.181 1.205-10.709-3.98-15.679-6.545l-.867-.251z" fill="#005120" stroke="#000" stroke-width=".506"/><path d="m388 359.2c2.6-2.5 6.6-8.7 12-9 5.5-.2 11.3 4.8 11.3 4.8s5.7 23.5 5.4 23.5c-.2 0-9.5 6.7-9.7 6.7-.3 0-4-9.2-7.5-8.3-3.5.8-3.2 13.4-3.8 12.6-.5-.9-15.2-18.2-14.6-18.8.5-.6 7.2-10.7 6.9-11.5zm151.9-3c1.7-.4 9.5-6.2 15-6 5.4.3 8.6 2.8 11.4 5.4 3 2.5 6.4 9 6.4 9s-7 19-7.5 19-3.5 1.6-4 .2-2.3-5.8-5.8-6.4c-3.4-.6-4.3 6.2-4.3 6.2l-11.2-27.6z" fill="#d40f0f"/><path d="m543.6 362c0 1.7 10.7 28 27.9 33 17.3 5.1 22.7-4.7 24.7-8 2-3.4 9.2-3.1 9.2-3.1s-1.7 24.6-4.6 27.7c-2.8 3-5.1 9.8-21.2 10-16.1.3-30.8-15-35.7-19.5a91.6 91.6 0 0 1 -13.8-21.6c-2.6-5.3 13.8-18 13.5-18.5zm-187.6 52.4c.3 0 7.8 8.1 18.8 7.3 10.9-.9 29.6-7.3 38.2-18.5a96 96 0 0 0 13-23.3s-12.7-22.4-13-22.4-1.4 7.3-3.7 12c-2.3 4.8-8.7 18.3-19.3 22.5s-10.6 5.9-15 5.3a59.3 59.3 0 0 1 -15.5-7.6l-5.5 13.3s-1.1 8.7 2 11.5z" fill="#fddc59"/><path d="m387.8 358.4c-.8 0-21.2 11.1-20.4 15.9.9 4.7 35 72 108.2 72.9 73.3.8 118-61 114.8-71.3-3.3-10.3-26-22.2-26-22.2s5.6 4.7 4.8 11c-.8 6.4-26 61-89.5 59.5-63.4-1.6-93.5-50-93.5-55.5s3.2-8.7 1.6-10.3z" fill="#fddc59"/><path d="m586.2 407.4c1.7-1.4 12.3-30.5 18.4-29.7 6 .8 4 9.5 3.4 11.8-.5 2.2-6.6 22.4-6.6 22.4s.3-4.8-3.7-6-10.7 2-11.5 1.5zm-230.2 7.3c0-1.6-4.8-7.2.9-8.7 5.7-1.6 13 1.5 13 1.5s-4-11.8-9-21.4c-4.9-9.5-6.5-7.9-10.6-6.3-4 1.6-4 5.8-1.5 12.1 2.5 6.4 7.2 24.4 7.2 22.8z" fill="#d40f0f"/><path d="m423.2 360.4 7-24-19.6-15 24.6-.6 8-23.6 8.1 23.6 24.6.4-19.6 15.2 7.2 23.9-20.2-14.3z" fill="#fdc400"/><path d="m555.6 235.8v92c.2 45-45.7 84.4-76.1 92.1-30.5-7.6-76.3-47-76.2-92v-92h152.3z" fill="#fff"/><path d="m403.4 235.708.123 57.531s.737-1.181 10.745-.465 10.868 12.709 21.766 12.709c10.868 0 10.868-12.709 21.736-12.709s10.899 12.709 21.766 12.709c10.868 0 10.868-12.709 21.766-12.709 10.899 0 10.868 12.709 22.35 13.425 10.285-.716 10.285-13.425 21.183-14.141l10.837.716v-57.066z" fill="#d40f0f" stroke="#000" stroke-width=".497"/><path d="m403.3 312v19h11c10 .8 10.8 12.8 21.7 12.8s10.8-12.8 21.7-12.8 11 12.8 21.8 12.8 10.9-12.8 21.7-12.8 10.3 12 21.8 12.8c10.3-.8 10.8-12 21.8-12.8h10.8v-19h-10.8c-11 0-11 12.7-21.8 12.7s-10.9-12.7-21.8-12.7-10.8 12.7-21.7 12.7-10.9-12.7-21.8-12.7-10.8 12.7-21.7 12.7-11-12.7-21.8-12.7zm3.3 38 7.6 19.1c10 .8 10.9 12.7 21.8 12.7 10.8 0 10.8-12.7 21.7-12.7s11 12.7 21.8 12.7 10.9-12.7 21.7-12.7 10.3 12 21.8 12.7c10.3-.7 10.6-12 21.5-12.7l7.8-19.3-7.5.3c-11 0-11 12.7-21.8 12.7s-10.9-12.8-21.8-12.8-10.8 12.7-21.7 12.7-10.9-12.7-21.8-12.7-10.8 12.7-21.7 12.7-11-12.7-21.8-12.7zm72.9 70c10.9 0 35.8-19.1 35.5-19.1.3 0-2.9-12.7-13.8-12.7s-10.8 12.7-21.7 12.7-10.9-12.7-21.8-12.7-13.6 12.7-13.7 12.7c-.5 0 24.6 19 35.5 19z" fill="#0062bb"/><path d="m520.307 242.223c-7.922-1.423-13.323 8.072-21.303 6.023-6.333-.666-13.619-3.243-19.276 1-3.439 3.656-.475 9.167 3.487 10.965 4.505 2.303 9.911 1.867 14.761 1.175 9.542-1.858 18.414-7.473 28.343-6.936 6.122 1.44 3.471 9.219-2.225 8.553-6.071.646-12.185-.258-18.281.11-13.227.029-26.454-.052-39.681-.009-4.04-4.525 4.567-8.666 2.167-13.295-4.329-3.446-11.188-7.349-16.215-2.915-4.295-.334-9.547 4.797-4.193 7.762 2.085 5.938-7.381 7.687-7.866 12.958-5.174.157-9.513-6.343-9.83-11.07.803-2.828 5.353-10.196.303-10.384-.221 2.546-3.156 4.721-3.191.809-1.781-5.793-5.366 3.12-4.626 3.364-2.247-1.62-5.806-2.615-2.865 1.167.804 3.335-1.309 8.111.825 10.264-.365 2.583 6.85 4.719 2.278 7.234 5.784.764 7.858 8.155 14.15 8.018 4.803 3.014 10.048 2.34 14.844.431-1.433 4.765-10.87 3.206-15.553 3.305-6.38.575-12.973-.982-17.491-5.654-2.863-.224 2.574 4.47-1.995 4.564-2.152-.231-7.674 3.116-2.847 2.836 3.242-1.186 7.455 2.529 2.652 4.235 5.548 4.357 12.088-6.618 17.675-.099 6.287.548 12.772-.371 19.047-1.056 4.76-2.41 12.007 2.571 12.886-5.01.685-5.927 6.908-3.568 10.866-4.656 5.119-.823 9.958-2.915 15.011-3.892 5.738.216 5.724 8.631-.564 6.752-3.517-.242-11.622-3.484-12.204-.685 6.034 2.696-4.349 2.118-1.953 5.262 2.314-1.557 7.769.113 4.893 3.334 4.207 1.153 8.455-6.229 11.359-1.962 4.1-1.3 9.187-.897 12.9-1.373 5.466 1.955 8.391-3.832 6.803-8.326 3.868-4.046 11.377-3.042 16.34-1.599 5.532 1.691 3.962 7.623-.058 9.873.945 1.681 6.698-1.495 4.791 3.303 1.993 1.957 7.769-4.865 9.459 1.054 2.684-2.381-2.832-6.617 1.027-8.799-1.038-3.183-6.07-5.704-3.687-8.982-4.465-4.428-10.943-1.377-16.361-1.454-5.769-2.583 3.762-4.072 6.135-3.862 7.17-.802 7.095-11.995-.274-12.374-6.229-1.854-12.822-2.326-19.02-.21-5.734.717-11.161 2.603-16.309 5.16-4.138 2.381-12.787 1.753-11.839-4.579 4.514-4.429 11.569-.929 17.174-1.593 7.683-.073 16.117-1.097 22.224-6.13 3.196-4.222-6.82.158-2.692-2.607zm-104.484 37.299.052-.028zm18.213-30.154c.912.566-.244-1.186 0 0zm.379-.229.108-.047zm9.59 16.928c-.071 1.555-1.099 2.61 0 0zm5.104 4.436-.023.131zm5.555 1.045c1.093.509-.788 1.26 0 0z" fill="#fdc400"/><path d="m462.4 403.8 6.4-21.1-17.9-13.2 22.4-.5 7.2-20.8 7.4 20.7 22.3.4-17.7 13.3 6.4 21-18.3-12.4z" fill="#fdc400"/><path d="m465.4 398.1 5.3-16.7-14.8-10.5 18.6-.4 6-16.5 6.2 16.4 18.5.4-14.7 10.5 5.4 16.7-15.3-9.9z" fill="#003017"/><path d="m425.7 361.1 6.3-19.9-17.6-12.5 22-.5 7.2-19.7 7.3 19.7 22 .3-17.5 12.6 6.5 20-18.2-11.9z" fill="#fdc400"/><path d="m428.7 355.8 5.3-15.9-14.7-9.9 18.4-.4 6-15.6 6 15.6 18.4.3-14.6 10 5.4 15.8-15.2-9.4z" fill="#003017"/><path d="m499.6 361.1 6.4-20-17.8-12.4 22.3-.5 7.3-19.7 7.4 19.7 22.3.3-17.8 12.6 6.5 20-18.3-12z" fill="#fdc400"/><path d="m502.6 355.8 5.4-15.9-15-9.9 18.6-.4 6-15.6 6.3 15.6 18.6.3-14.8 10 5.4 15.8-15.3-9.4z" fill="#003017"/></g><path d="m373.3 372.6c8 34.5 41.9 60.1 87.5 66.2 58.6 7.8 114.5-21.9 124.8-66.3" fill="none"/></svg>