<svg viewBox="0 0 640 480" xmlns="http://www.w3.org/2000/svg"><path d="m0 0h640v480h-640z" fill="#006"/><path d="m0 0h400v200h-400z" fill="#006" fill-rule="evenodd"/><g stroke-width="1pt"><path d="m0 0v27l334.4 215.3h42.1v-27l-334.4-215.3zm376.5 0v27l-334.4 215.4h-42.1v-27l334.4-215.4z" fill="#fff"/><path d="m156.9 0v242.3h62.7v-242.3h-62.6zm-156.9 80.8v80.7h376.5v-80.7z" fill="#fff"/><path d="m0 97v48.4h376.5v-48.5h-376.5zm169.4-97v242.3h37.7v-242.3zm-169.4 242.3 125.5-80.8h28l-125.3 80.8zm0-242.3 125.5 80.8h-28l-97.5-62.8zm223 80.8 125.3-80.8h28.1l-125.4 80.8zm153.5 161.5-125.5-80.8h28l97.5 62.7z" fill="#c00"/></g><g fill-rule="evenodd"><path d="m448.3 179.1c-1 .6-3 2.5-5 1.9s-6.6-8.6-11.6-7.4c-5 1.3-8.1 3.1-10.1 3.1s-7.6 1.8-7.6 6.7.5 8.6 1.5 8.6 2.5-3.1 2.5-3.1.5 6.1 4 6.1 11.2.6 11.7 2.5c.5 1.8-3.5 6-2.5 9.7s5.5 9.8 5.5 9.8-6.5 4.8-6.5 8 1 6 1 6l-29.3 1.2s-2 86.7-1 93.4l3.5 23.2s-6.6-2.2-12.1 3.3c-5.6 5.5-25 15-25.5 19.2-.5 4.3-2.3 8-.3 11s9.2 11.4 7.1 11c-6.8-1.1-9.3-10.8-13.9-14.3-4.5-3.5-13.3-2.8-14.4.9-1 3.7-.5 9.8 0 11s6.1 20.7 7.6 25 17.4 10.7 24.5 10c13.4.4 19.4-5.7 20-5.1.4.6 28.7 29.8 86.8 29.9 45.2 0 79.2-29.3 79.2-28.7s18.7 6.1 25.3 4.3c6.5-1.9 16.1-6.1 18.1-10.4s7.6-26.2 8.1-29.9 0-8-4.5-9.2-7-.9-9.6.3-3.3 4.6-7 10.7c-2.1 1.9-7.4 6.7-5.9 5.5s4.8-10.3 5.3-13.4c.5-3 2-8.5-1.5-11.6-3.5-3-9-4.3-15.1-8.8-6-4-10.6-10.7-14.2-10.7-3.5 0-7.5-1.8-7-1.8s4.5-9 3.5-18c-1-9.2.5-96.8 0-96.8s-25.2 1.9-25.2.6 2-9.7 0-15.2-10.7-9.2-8.1-10.4c2.5-1.2 13.6-4.3 13-9.1-.4-5-7.5-4.3-10.5-6.1-3-1.9-12.1-10.4-13.1-10.4s26.2-16.5 24.2-16.5-12.6-3-16.2-1.2c0-3 14.7-12.2 12.2-13.4-2.6-1.3-14.2-2.5-11.1-3 3-.7 4-8 3.5-8l-13.1 1.8s-3-4.3-4-4.3-5.6 2.5-5.6 2.5l-2.6-6.7-5.5 3.6-2.5-3s-4.6 1.2-4.6 0c.2 0-.5-3-1.2-3s-5.7 3.8-5.9 3.6-5.7-8-5.7-7.8l-4.1 14.7c-.2 0-4 .4-4.1.6-.2.3-20-11.4-19.8-11.2l5.1 11.2s-4.2 2.4-4.2 2.6l.7 5-13.2-4.5s5 10 4.6 10l-9.6.5 4.4 8.4-1.6 5s14.2 10 13.2 10.6zm84.3 212.4c1.3 1.8 8.1 10.4 7.1 10.4s-18 11.3-24.7 13.4a351 351 0 0 1 -27.8 5.8c1.3-.3 20-10.5 27.5-15.4a119 119 0 0 0 18-14.2zm-105.5-.3c-1 1.2-5.8 10.7-5.8 10.7s13.9 9.7 24.2 13.4c10.4 3.6 28 4.9 27 4.6s-22.1-9.8-28.2-14.7c-6-4.9-17-14-17.2-14z" fill="#fff"/><path d="m488.736 134.736c-.737.445-6.447 9.053-6.785 9.053s-1.781-8.607-1.781-8.607.338 9.461-1.811 9.906c-1.852.384-7.627 1.699-9.193 1.795 1.86.428 8.119 2.953 8.119 2.953s-2.507 1.163-4.729 2.223c-1.443-2.323-2.869-4.32-4.113-5.523-5.035-4.86-11.358-8.236-11.85-8.83.246.928 9.578 11.576 11.85 18.588a123.414 149.142 0 0 1 1.891 6.648c-1.435-2.67-3.011-5.268-4.654-7.242-5.557-6.678-12.372-10.686-12.617-11.279 0 0 3.961 7.408 6.322 12.701-.54-.471-1.057-.905-1.533-1.268-6.304-4.805-16.479-7.51-18.166-8.359.74.605 12.918 10.598 17.357 16.508-7.384-2.934-19.919-5.736-20.16-5.736.768 0 14.645 8.532 18.943 12.836 1.004 1.006 1.857 2.072 2.6 3.119-2.489-2.047-5.724-4.435-8.188-5.234-3.835-1.244-9.707-2.533-11.523-3.291l10.295 7.521c2.026 1.521 8.597 8.236 9.088 7.939.341-.206 1.84-1.601 2.922-2.615.683 1.318 1.167 2.318 1.375 2.318.245 0 2-.304 3.668-.609.187.369.32.609.354.609.276 0 12.373-3.08 12.373-2.746 0 .034-.236-.223-.51-.529.26-.179.497-.387.711-.621.618 1.782 2.172 3.074 3.975 3.074 1.636 0 3.025-1.016 3.752-2.48.853.993 2.068 1.627 3.432 1.627.784 0 1.511-.23 2.156-.602.065.17.138.335.217.496-.223.223-.824.803-.869.854-.166.2.825.546 2.182.902.934.845 2.133 1.354 3.436 1.354.237 0 .47-.022.699-.055 2.651 1.131 6.735 2.79 7.068 2.361.491-.631 5.834-7.01 11.605-9.459 5.833-2.412 15.932-8.236 15.41-8.533 0 0-10.795 1.395-19.02 2.99 6.001-6.033 17.813-17.643 18.252-17.941-.737.631-8.072 3.041-16.914 8.865-4.204 2.762-9.429 7.184-13.822 11.131 2.088-2.845 4.578-6.198 6.516-8.682 3.896-4.994 17.661-18.62 20.09-21.584-2.121 1.455-12.742 5.825-19.322 11.158-2.877 2.308-6.184 5.278-9.213 8.176 1.144-2.69 2.256-5.22 2.889-6.32a222.575 268.975 0 0 1 10.625-14.313c-.955.435-4.915.407-9.857 4.557-1.049.881-2.245 2.052-3.473 3.311.703-2.487 2.628-9.475 3.277-11.252-1.004 1.511-5.787 7.132-9.926 12.088l-.256-.146s5.004-5.604 3.93-5.604c-1.075 0-9.273 5.603-8.566 5.195.706-.445 8.904-11.688 8.904-11.688l-8.168 4.75s1.444-6.902.738-6.457z" fill="#fec500" stroke="#6d6666" stroke-width=".472"/><path d="m445.5 216.5c.2.9 5.9 16.4 14.7 16s12.3-3 11.9-3.2a18 18 0 0 1 -6.2-8.5 44 44 0 0 1 -2.5-8zm31.2-6s6.5 15.3 9.3 17.5c2.9 2.1 9.5 3.8 12.3 3.6 2.9-.2 6.3 0 6.3 0s-2.9-1.5-5.2-9.9l-3-11.2zm39.3 5.6s-1.2 11.2 0 14c1.3 2.8 7.5 8 7.5 8s7.5-1 7.7-8a36 36 0 0 0 -2.5-13.3l-12.7-.8z" fill="#00389b"/><g stroke-width="1.5" transform="matrix(.307 0 0 .371 350.7 188.7)"><g stroke="#000"><g fill="#005120"><path d="m289 21s1.1 4.7 0 8.2-11.1 12.8-11.1 20.3c0 7.6 11.6 30.8 47 31.4 35.6.6 80.3-19.2 79.7-19.8-.6-.5-84.9-57-86-56.4-1.2.6-29.7 17.5-29.7 16.3zm234.2 40.1s7.6 20.4 10.5 22.7 4 7 4.7 7 48.8 10.4 48.8 10.4 4.6-13.3-2.3-23.8c-7-10.5-33.2-37.8-33.2-37.8zm33.2-25c1.1 0 12.8 10 22 4.7 9.4-5.2 24.5-19.2 24.5-19.2s-12.8 4-22.1 3.5c-9.3-.6-23.8 11.6-24.4 11z"/><path d="m287.2 23.3s-3.5-9.8-12.8-10.4-26.2 1.1-32-3.5c-5.8-4.7-7.4-15.7-10.4-15.1-3 .5-10.5 0-11 0s-3.6-9.3 4.6-14 15-.6 19.7-4 11.7-5.9 21-6.5c9.3-.5 24.4 11.7 31.4 14.6s22 6.4 27.9 3.5c5.8-3 38.3-15.7 50-16.3 11.6-.6 36-1.2 45.3-.6s46 5.3 57 10.5 69.8 25.5 77.9 30.2 26.2 11.6 26.2 11.6-32 31.4-47.8 36.7a354.9 354.9 0 0 1 -95.4 11.6c-29.6-1.7-52.9-4.7-75.5-16.3-22.7-11.6-47.1-22.7-48.3-28.5s-.6-13.3-.6-13.3l-27.3 9.8z"/><path d="m251.2-14.4c-1.2.5-7 2.9-5.9 4 1.2 1.2 3.5 4.7 10.5 4 7-.5 14.5-4.6 14.5-4.6s-8.7-4-19.1-3.4z"/></g><path d="m250.6-13.3v6.4s8.1 2.3 8.1.6.6-5.8-1.2-5.8-6.4-.6-7-1.2z"/></g><path d="m332-8.4c2-3.7 0-8.7 11.9-14.4 11.9-5.8 32.7-4.2 32.7-4.2s-6 4.6-6.2 9.3.4 6.8.4 6.8-11.3-3.7-20-1.5-18.6 4.6-18.9 4zm53.4-20.2c-1.2.6-10.3 10.7-9.3 13.8 1 3 13.2 10.5 17.1 9.8 4-.6 21.8-9.2 22.8-13.5s1.9-10.1.4-11.3c-1.4-1.3-30.8 1.6-31 1.2zm39.3-1.6c-2.3 2.2-1.5 13.1-.7 14.3.9 1.3 15 15.5 18.1 16.3s26-1.5 27.8-4 7.4-12.9 5.7-15.3c-1.6-2.5-6.5-5.8-21.8-9s-24.2-3-29.1-2.3zm58.1 13.7c3.7 1.9 25.3 12.4 38 20.8 12.8 8.4 18 18 21.6 18.9 3.7.8 18.7-8.2 19.3-10.7.7-2.5-18.3-15.6-31-21.6s-47.9-6.7-47.9-7.4zm-4.5 8.9c-1.9 1.6 23 45 27.7 46.4 4.8 1.5 33.1-8.4 32.7-11.7s-7.8-9.9-25.3-19.5c-17.4-9.7-31.6-16-35.1-15.2zm-30.8 15.8c-4 2.3-10.1 41.1-6.2 43 3.9 1.8 52-4.8 53.9-9 1.8-4.5-19.8-38.8-26.2-38.8s-18 1.6-21.6 4.7zm-49.8-8.2c-5.1 4.7-4 40.9-1.8 43.1 2.2 2.3 30.8 9.7 33.9 7 3-2.6 7.2-43.3 4.3-46.4-2.9-3.1-10.9-10.5-17-11.1-6.2-.6-16.5 6-19.4 7.4zm-64.5-.6c-4.7 3.7-5 13.3.2 15 5.1 1.6 17.9 7.2 29.8 12.3 12 5.1 18.7 11.3 22.2 11.1s6.8-36.4 3-38.4a62 62 0 0 0 -24.7-3.4 156 156 0 0 0 -30.4 3.3z" fill="#001707" stroke="#000007"/></g><path d="m388 359.2c2.6-2.5 6.6-8.7 12-9 5.5-.2 11.3 4.8 11.3 4.8s5.7 23.5 5.4 23.5c-.2 0-9.5 6.7-9.7 6.7-.3 0-4-9.2-7.5-8.3-3.5.8-3.2 13.4-3.8 12.6-.5-.9-15.2-18.2-14.6-18.8.5-.6 7.2-10.7 6.9-11.5zm151.9-3c1.7-.4 9.5-6.2 15-6 5.4.3 8.6 2.8 11.4 5.4 3 2.5 6.4 9 6.4 9s-7 19-7.5 19-3.5 1.6-4 .2-2.3-5.8-5.8-6.4c-3.4-.6-4.3 6.2-4.3 6.2l-11.2-27.6z" fill="#d40f0f"/><path d="m543.6 362c0 1.7 10.7 28 27.9 33 17.3 5.1 22.7-4.7 24.7-8 2-3.4 9.2-3.1 9.2-3.1s-1.7 24.6-4.6 27.7c-2.8 3-5.1 9.8-21.2 10-16.1.3-30.8-15-35.7-19.5a91.6 91.6 0 0 1 -13.8-21.6c-2.6-5.3 13.8-18 13.5-18.5zm-187.6 52.4c.3 0 7.8 8.1 18.8 7.3 10.9-.9 29.6-7.3 38.2-18.5a96 96 0 0 0 13-23.3s-12.7-22.4-13-22.4-1.4 7.3-3.7 12c-2.3 4.8-8.7 18.3-19.3 22.5s-10.6 5.9-15 5.3a59.3 59.3 0 0 1 -15.5-7.6l-5.5 13.3s-1.1 8.7 2 11.5z" fill="#fddc59"/><path d="m387.8 358.4c-.8 0-21.2 11.1-20.4 15.9.9 4.7 35 72 108.2 72.9 73.3.8 118-61 114.8-71.3-3.3-10.3-26-22.2-26-22.2s5.6 4.7 4.8 11c-.8 6.4-26 61-89.5 59.5-63.4-1.6-93.5-50-93.5-55.5s3.2-8.7 1.6-10.3z" fill="#fddc59"/><path d="m586.2 407.4c1.7-1.4 12.3-30.5 18.4-29.7 6 .8 4 9.5 3.4 11.8-.5 2.2-6.6 22.4-6.6 22.4s.3-4.8-3.7-6-10.7 2-11.5 1.5zm-230.2 7.3c0-1.6-4.8-7.2.9-8.7 5.7-1.6 13 1.5 13 1.5s-4-11.8-9-21.4c-4.9-9.5-6.5-7.9-10.6-6.3-4 1.6-4 5.8-1.5 12.1 2.5 6.4 7.2 24.4 7.2 22.8z" fill="#d40f0f"/><path d="m423.2 360.4 7-24-19.6-15 24.6-.6 8-23.6 8.1 23.6 24.6.4-19.6 15.2 7.2 23.9-20.2-14.3z" fill="#fdc400"/><path d="m555.6 235.8v92c.2 45-45.7 84.4-76.1 92.1-30.5-7.6-76.3-47-76.2-92v-92h152.3z" fill="#fff"/><path d="m403.4 235.708.123 57.531s.737-1.181 10.745-.465 10.868 12.709 21.766 12.709c10.868 0 10.868-12.709 21.736-12.709s10.899 12.709 21.766 12.709c10.868 0 10.868-12.709 21.766-12.709 10.899 0 10.868 12.709 22.35 13.425 10.285-.716 10.285-13.425 21.183-14.141l10.837.716v-57.066z" fill="#d40f0f" stroke="#000" stroke-width=".497"/><path d="m403.3 312v19h11c10 .8 10.8 12.8 21.7 12.8s10.8-12.8 21.7-12.8 11 12.8 21.8 12.8 10.9-12.8 21.7-12.8 10.3 12 21.8 12.8c10.3-.8 10.8-12 21.8-12.8h10.8v-19h-10.8c-11 0-11 12.7-21.8 12.7s-10.9-12.7-21.8-12.7-10.8 12.7-21.7 12.7-10.9-12.7-21.8-12.7-10.8 12.7-21.7 12.7-11-12.7-21.8-12.7zm3.3 38 7.6 19.1c10 .8 10.9 12.7 21.8 12.7 10.8 0 10.8-12.7 21.7-12.7s11 12.7 21.8 12.7 10.9-12.7 21.7-12.7 10.3 12 21.8 12.7c10.3-.7 10.6-12 21.5-12.7l7.8-19.3-7.5.3c-11 0-11 12.7-21.8 12.7s-10.9-12.8-21.8-12.8-10.8 12.7-21.7 12.7-10.9-12.7-21.8-12.7-10.8 12.7-21.7 12.7-11-12.7-21.8-12.7zm72.9 70c10.9 0 35.8-19.1 35.5-19.1.3 0-2.9-12.7-13.8-12.7s-10.8 12.7-21.7 12.7-10.9-12.7-21.8-12.7-13.6 12.7-13.7 12.7c-.5 0 24.6 19 35.5 19z" fill="#0062bb"/><path d="m423.291 279.768c1.351 0 12.458 1.566 20.414 1.044 8.105-.522 11.107-3.263 11.107-3.785v-1.566h10.507s1.801 7.439.6 7.961-4.353 2.741-4.953 2.741 0-3.785-1.201-2.61-1.801 2.61-1.801 2.61-1.351-1.566-1.951-1.566-1.801 1.566-1.801 1.566 0-1.566-.6-1.566-3.753 2.61-3.753 2.61l-3.002-2.088s-1.951 2.61-2.552 2.61c-.6 0-4.353-2.088-4.353-2.088l-6.004 3.263s0-4.829-1.351-4.307c-1.201.522-7.955.522-7.955.522s-1.951 3.002-2.552 3.002c-.6 0-3.002-2.61-2.402-2.61s1.801-1.566 1.201-2.219c-.6-.522-3.753 0-3.753-.522s-1.201-3.654-.6-3.654l3.002.522v-3.263h3.152l.6 3.263z" fill="#fdc400" stroke="#000" stroke-width=".98"/><path d="m434.548 249.101c-.751 0-4.953 4.307-4.503 9.135.751 4.829 11.258 11.745 11.258 11.745s5.554-2.088 7.355 0 1.801 8.613 1.201 8.613-7.955 1.697-7.955.653c0-1.175 0-2.219-.6-2.219l-7.505.522.6-2.088-6.004-1.044 2.402-2.219s-9.907-3.785-9.306-3.785c.6 0 4.353-2.088 4.353-2.088l-7.505-4.307h4.503s-6.304-4.307-5.704-4.307l3.753.522-1.801-4.307h1.801l-1.801-3.132 3.002-1.175 1.951 2.741-.751-6.525 4.503.653v5.22s1.801-3.132 1.801-3.654 5.554 2.219 4.803 1.044z" fill="#fdc400" stroke="#000" stroke-width=".98"/><path d="m530 282.4c-.8.7-3.1 2.2-3.1 2.2l5-.4a7 7 0 0 1 -2-1.8zm4.4 2.6c-.3.4-1.2 4.6-.6 4.3a29 29 0 0 0 3.1-3.4zm7.1.5c.8.7 4.3 3.8 3.9 3.1-.5-.7-1-3.5-1.3-3.6s-2.3.8-2.6.5zm-62.1-4.4c-.5.1-4.3 2.7-4.3 2.7l6.1-1c-.3 0-2-1.3-1.8-1.7zm4 3.2c-.6.6-2.6 4.3-1.9 4.2a27 27 0 0 0 4.2-2.6zm-2.5-5.2-3.5-1.5 4.3-1zm-61-1.7-4.7-3.3 5.9 1.6zm-4 2.1c-.7 0-6.5 3.2-6.4 3.2s8.2.2 8 0c-.1-.1-1.3-3-1.7-3.2zm3.7 4.7a40 40 0 0 0 -5 3.4h7zm-.7-33.4s-1.7-3.8-1.5-3.8l4.3 3zm4.7-4.7.4-2.4s4.2 2.8 4 2.8c-.1 0-4.1 0-4.4-.4zm6.4 1.7.5-3.5s3.9 4.6 3.5 4.7c-.3.2-3.7-.6-4-1.2z"/><g fill="#fdc400" stroke="#000" stroke-width=".7"><path d="m137.3 110.9c0 .2 4.3 3.7 4.4 4.5 0 .8-7.8 1-7.8 1s-2.3-1.7-3-1.6c-.7 0-1 1.8-1 1.8l1.8 1-3.5.2 1 2 2.7-.2-.6 1.8s1.6 1.3 2 1c.3-.1 1.3-2 2.1-2.3s2.6-.3 2.6-.3-1.4 2.3-.7 2.3c.6 0 3.4-2.4 3.4-2.4l.7 2.2 2-2.5s0 2 .3 2 3.2-2.5 3.2-2.5 2.3 2.8 2.6 2.6.6-3 1-3 2.2-.3 2.2-.5-1.3-1-1.5-2.5.2-4.8.1-4.8-13.8.5-14 .2z" transform="matrix(1.501 0 0 1.305 286 126.6)"/><path d="m115.4 104.6h40.3c4 0 7.8-1.6 7.8-4.1s-6.6-2.9-9-2c-2.5.8-13.2 5.7-17.7 5.3s-8.7-3.3-9.1-6.2 2-5.3 6.6-5.3 10.3 1.6 11.5 1.2 4.1-3.7 5.3-4.1c1.3-.4 5-.8 5-.8l-1.7 1.2 5.4-1.2s-4.1 4.5-8.3 5.7c-4 1.3-12.7.8-16 .8s-5-.4-4.5 2.1c.4 2.5 2.9 4.1 5 3.7 2-.4 8.1-2.5 8.1-2.5l-1.6-1.2 7.4-.4s-.4-1.2 0-1.2l4.1.4s-2.5-1.3-2-1.3 2 0 5.3.4 10.3 1.7 9.9 5c-.5 3.3-3 6.1-5.8 6.1s-5.3-.8-5.3.5c0 1.2 3.3 2 5.3 2s4.5-1.6 5-1.6 1.2 2.4 1.6 2.4 2.9-.8 2.9-.8l-1.7 4.5 2.9.8s-1.6 1.7-1.2 1.7 2.8 0 2.8.4-3.2 2.9-3.2 3.3 2.4 1.6 2.4 1.6-1.6 2.5-2 2.1l-2-2.5s-.5 1.7-1.3 1.7-2.5-.4-2.5-.4 1.2-2.5.8-2.5-2.4 1.6-2.4 1.2l-1.3-1.2s3.3-1.3 3.3-3.3-1.3-3.9-7.3-4.2-6 1.4-10.5 1.2c-4.4-.2-4.4-2-7.7-2s-13.4 4.2-18.2 4c-4.7 0-10.6-.3-10.4-.5s3.9-9.7 4-10z" transform="matrix(1.501 0 0 1.305 286 126.6)"/><path d="m106.9 102.5c-.4.2-4 .7-4.2 4.5s.3 3.8.7 3.6 1.2-3.5 1.2-3.5-1.2 4.5.1 5.5a9.3 9.3 0 0 0 2.8 1.5l.5-3.6s-1 3.5 1.5 4.7c2.4 1.2 3.4.3 3.1-.6a70 70 0 0 0 -.9-3.3l2 2.4c.2.2 1 1.8 3.6 1 2.4-.6.7-2.3.7-2.3l-3-2.4s3 3.1 4.4 2-1-3.6-1-3.5 2 3.5 2.8 1.4-1.2-2.8-1.8-4.9c-.6-2-1.1-2.2-.5-3.5.6-1.2.7-3.6.7-3.6s2.6.7 2.4-1.5-2.8-2.7-3.3-2.8c-.5 0-.4-2.2-.6-2.1-.2 0-1.9 1.3-1.9 1.3s-1.4-3.4-1.7-3.2-2 2-3.2 2c-1.2.2-2 2-2 2s-4.3-2.1-4.2 1.3 2.6 2.5 2.6 2.6-.4 4.8-.8 5z" transform="matrix(1.501 0 0 1.305 287 126.3)"/></g><path d="m450.9 253.3c.7-.3 1.8-1.2 3-1.1s3.4 1 2.4 1.6c-1 .5-1.8.8-3 .5-1-.3-2-.8-2.4-1zm12.6-.2c-.8-.2-1.9-1.1-3.2-1s-3.2 1-2.2 1.6a4 4 0 0 0 2.8.5c1.2-.3 2-.9 2.6-1z"/><path d="m453.711 261.076c0 .653.6 6.264.901 5.873l2.552-5.742z" fill="#000039" stroke="#000" stroke-width=".56"/></g><g fill="none" stroke="#000"><path d="m110 103.2c0-1.3.8-1.2 2.4-1 1.7.2 2.5 1 2.4 1.3-.1.2-1.5.7-2.6.6-1.3-.4-2.3 0-2.2-1z" stroke-width=".8" transform="matrix(1.501 0 0 1.305 287.1 126.6)"/><g stroke-width="1.5"><path d="m112.4 100-.2 2m7.1-7.2s1.4.7 1.2 1.3-1.2.9-1.2.9m-11.2-2.7c-.3.1-.7.3-1 1.2-.1.8 1 1.3 1 1.3" transform="matrix(1.501 0 0 1.305 287.1 126.6)"/><path d="m111.2 136.1s-1.5 1.5 1 1.5.7-1.3.7-1.3" transform="matrix(1.501 0 0 1.305 287.4 77.6)"/></g></g><g fill-rule="evenodd"><path d="m462.4 403.8 6.4-21.1-17.9-13.2 22.4-.5 7.2-20.8 7.4 20.7 22.3.4-17.7 13.3 6.4 21-18.3-12.4z" fill="#fdc400"/><path d="m465.4 398.1 5.3-16.7-14.8-10.5 18.6-.4 6-16.5 6.2 16.4 18.5.4-14.7 10.5 5.4 16.7-15.3-9.9z" fill="#003017"/><path d="m425.7 361.1 6.3-19.9-17.6-12.5 22-.5 7.2-19.7 7.3 19.7 22 .3-17.5 12.6 6.5 20-18.2-11.9z" fill="#fdc400"/><path d="m428.7 355.8 5.3-15.9-14.7-9.9 18.4-.4 6-15.6 6 15.6 18.4.3-14.6 10 5.4 15.8-15.2-9.4z" fill="#003017"/><path d="m499.6 361.1 6.4-20-17.8-12.4 22.3-.5 7.3-19.7 7.4 19.7 22.3.3-17.8 12.6 6.5 20-18.3-12z" fill="#fdc400"/><path d="m502.6 355.8 5.4-15.9-15-9.9 18.6-.4 6-15.6 6.3 15.6 18.6.3-14.8 10 5.4 15.8-15.3-9.4z" fill="#003017"/></g><path d="m373.3 372.6c8 34.5 41.9 60.1 87.5 66.2 58.6 7.8 114.5-21.9 124.8-66.3" fill="none"/></svg>