<svg xmlns="http://www.w3.org/2000/svg" fill-rule="evenodd" viewBox="0 0 640 480"><path d="M0 0h640v480H0z" fill="#6fdcff"/><g fill="#ffe400"><path d="M60.2 467c10.12 24.16 41.786-11.53 13.547-16.4-17.738-6.73-3.866-36.116 7.4-18.12-3.094 3.414-16.4-1.533-7.74 4.978 10.8-1.923 11.648 6.654 3.8 11.834 14.734 1.442 6.394-11.238 6.307-21.893-8.992-14.128-33.562 2.83-21.207 16.168 9.484 4.82 29.3 29.373 6.67 25.086-9.063-1.496-8.88-22.23-11.003-6.746-4.77 14.763-29.97 6-16.106-5.552L57.9 440.1c8.778-22.727-36.264-22.72-24.923 1.235-5.534 8.487 13.36 10.724 3.877 1.644-7.33-11.125 19.66-1.4 7.05-10.984-10.104 7.305-6.533-8.83 3.843-4.47 20.525 11.926-17.546 24.348-15.622 38.86 4.227 11.275 23.18 11.334 28.076.617zm-1.1-123.7c4.294-20.76 43.453-11.424 31.263 9.03-8.217 19.805-21.96 37.573-26.62 58.66-.548 16.316 28.817-2.42 9.725 2.16-11.64-9.946 17.854-.384 6.617-12.748-8.908-8.727 12.257-3.03 4.5 4.343 11.08 24.187-34.983 22.03-24.376-.407l27.115-58.875c.836-22.674-40.45 3.538-14.27 2.903 2.347 5.023-18.797 2.436-8.745 10.857 8.63-.45-7.897 5.784-5.417 8.68-3.524-7.996-12.152-6.108-2.798-12.46-1.67-4.43-20.56-5.694-5.744-7.43 15.58-6.585-24.44-21.24-19.14-.55l28 61.082c2.2 20.32-36.293 17.298-25.82-3.923-6.697-8.538 12.96-11.993 3.548-2.408-7.32 11.118 19.44 1.405 7.094 10.995-10.982-6.52-5.198 9.38 4.835 3.85 13.53-7.927-3.988-25.367-7.094-36.177-6.14-11.763-12.617-23.432-17.052-35.98 1.984-17.822 29.688-17.38 34.4-1.6zm0-23.9c4.294 20.76 43.453 11.424 31.263-9.03-8.22-19.802-21.95-37.57-26.625-58.655-.504-16.354 28.8 2.458 9.74-2.175-11.695 9.916 17.838.4 6.606 12.757-8.908 8.727 12.257 3.03 4.5-4.343 11.068-24.156-34.995-22.015-24.375.407l27.115 58.776c.836 22.674-40.45-3.538-14.27-2.903 2.347-5.023-18.797-2.436-8.745-10.857 8.63.45-7.897-5.784-5.417-8.68-3.524 7.996-12.152 6.108-2.798 12.46-1.67 4.43-20.56 5.694-5.744 7.43 15.582 6.585-24.44 21.24-19.14.55 9.084-20.412 19.53-40.22 27.723-61.025 2.15-21.92-37.14-15.74-25.775 5.587-5.35 7.874 13.492 9.242 3.768.787-7.32-11.118 19.44-1.405 7.094-10.995-10.982 6.52-5.198-9.38 4.835-3.85 13.53 7.927-3.988 25.367-7.094 36.177-6.14 11.762-12.617 23.43-17.052 35.978 1.984 17.822 29.688 17.38 34.4 1.6zm0-158.8c4.297-20.763 43.46-11.418 31.26 9.038-8.215 19.824-22 37.614-26.6 58.738-.333 16.353 28.646-2.714 9.758 2.147-11.843-9.888 17.794-.502 6.554-12.832-8.9-8.68 12.264-3.014 4.493 4.354 11.077 24.183-34.978 22.036-24.374-.406l27.115-58.776c.973-22.704-40.237 3.483-14.433 2.804-6.793 3.857-13.04 8.9-6.853 12.54-4.072.873-9.195 13.764-10.03.792-14.818.707 10.302-6.52-4.8-10.116-12.592-2.24-4.08-2.7 2.783-3.556 1.204-18.28-32.32-14.107-20.763 4.2 8.7 18.7 18.137 37.135 25.714 56.348 2.15 21.92-37.14 15.74-25.775-5.587-5.353-7.872 13.492-9.24 3.768-.8-7.336 11.12 19.44 1.457 7.082 11.006-10.963-6.534-5.2 9.376 4.845 3.842 13.534-7.928-3.992-25.366-7.107-36.17C35.6 186.426 29.1 174.757 24.7 162.2c2.012-17.806 29.682-17.36 34.4-1.6zm0-23.9c4.25 20.797 43.46 11.415 31.263-9.03-8.216-19.804-21.96-37.572-26.618-58.66-.455-16.403 28.746 2.584 9.756-2.158-11.748 9.87 17.816.412 6.584 12.746-8.905 8.724 12.246 3.036 4.488-4.34 11.075-24.143-34.92-21.972-24.374.403l27.115 58.876c.875 22.782-40.496-3.5-14.262-2.9 2.063-4.582-19.45-3.4-8.024-11.008 7.335.388-8.477-5.395-6.148-8.522-3.58 8.024-12.105 6.085-2.8 12.507-1.678 4.416-20.603 5.696-5.77 7.44 15.653 6.46-24.43 21.225-19.122.493l28-61.082c2.2-20.32-36.293-17.298-25.82 3.923-6.7 8.545 12.948 11.984 3.543 2.4-7.278-11.075 19.495-1.468 7.054-10.967-10.86 6.725-5.26-9.482 4.894-3.872 13.526 7.93-4.005 25.373-7.1 36.2-6.138 11.763-12.615 23.432-17.05 35.98 1.953 17.92 29.72 17.5 34.4 1.6zM60.2 13c10.12-24.16 41.786 11.53 13.547 16.4-17.738 6.73-3.866 36.116 7.4 18.12-3.105-3.404-16.402 1.524-7.74-5C84.2 44.433 85.06 35.883 77.2 30.7c14.75-1.45 6.408 11.315 6.274 21.965-9.004 14.127-33.642-2.752-21.274-16.14 9.468-4.84 29.45-29.453 6.77-25.186-9.067 1.505-8.9 22.242-10.988 6.727-4.714-14.818-29.994-6.13-16.12 5.47L57.9 39.8c8.77 22.736-36.266 22.755-24.92-1.22-5.525-8.475 13.207-10.727 3.83-1.623-7.18 11.096 19.678 1.368 7.093 10.95-10.104-7.305-6.533 8.83 3.843 4.47C68.27 40.45 30.2 28.028 32.124 13.517 36.34 2.23 55.442 2.155 60.2 13z"/><rect height="172.107" rx="90.802" ry="86.107" width="181.603" x="259.735" y="119.802"/><path d="M346.27 68.48c-.18 13.867-10.893 28.225-3.406 41.635 13.174 11.72 15.746-13.03 9.025-20.932-1.98-6.865-3.62-13.834-5.62-20.703zm7.256 277.207c.994-13.86 12.958-27.37 6.425-41.296-12.3-12.6-16.893 11.72-10.678 20.144 1.554 7.016 2.744 14.118 4.253 21.15zM208.84 205.268c14.634.857 28.8 12.7 43.46 6.167 12.845-11.917-13.584-15.665-21.578-9.724l-21.883 3.557zm289.904 3.414c-14.683-.314-29.3-11.716-43.733-4.596-12.366 12.4 14.105 15.222 21.9 9.03l21.824-4.432zm-259.387-94.1c10.808 9.364 14.923 26.986 30.242 30.5 17.684-1.312.165-20.65-10.304-20.396l-19.938-10.104zM464.6 297.03c-11.574-8.44-17.304-25.564-32.874-27.784-17.506 2.802 1.774 20.546 12.115 19.477 6.918 2.753 13.737 5.78 20.76 8.307zM284.277 83.63c6.25 12.567 3.037 30.3 15.734 39.154 17.17 5.046 8.304-18.54-1.245-22.64-4.872-5.458-9.5-11.155-14.5-16.515zM415.624 331.6c-5.174-12.983-.722-30.37-12.724-40.1-16.74-6.256-9.742 17.94-.4 22.666 4.513 5.695 8.837 11.558 13.135 17.425zm32.33-228.765c-10 10.2-28.118 12.906-32.497 28.014 1.678 18.276 20.314.033 21.925-9.793l10.573-18.22zm-195.26 206.678c10.705-9.527 28.998-10.982 34.46-25.775-.06-17.52-20.434-2.28-22.08 7.7-4.013 6.1-8.244 12.05-12.38 18.065zM215.348 155.76c13.42 5.54 22.984 20.994 38.815 19.612 15.888-5.2-3.96-18.964-13.618-15.847l-25.197-3.765zm270.698 104.993c-13.02-6.426-21.534-22.455-37.413-22.18-16.206 4.074 2.672 19.113 12.492 16.675l24.92 5.506zm-86-184.484c-4.158 11.407-27.593 27.98-12.528 37.928 15.97-3.008 7.388-25.115 12.344-36.513l.103-.798zm-100.2 260.668c6.304-12.573 22.5-20.676 21.853-36.196-6.495-16.433-19.516 4.555-17.5 14.502l-4.352 21.694zm-82.693-73.943c13.564-5.403 31.285-.548 41.867-12.486 7.088-15.347-16.3-10.025-21.37-1.756l-20.498 14.242zm269-109.58c-13.904 4.484-31.263-1.502-42.63 9.7-7.855 16.404 17.948 9.47 23.86 1.573l18.77-11.274zm-110.435-83.12c-2.883 13.645-16.7 25.37-12.17 40.12 10.525 14.143 18.165-9.562 13.334-18.724-.462-7.122-.512-14.276-1.163-21.397zm-51.75 273.045c3.93-13.432 18.526-24.14 15.1-39.24-9.452-14.803-18.773 8.244-14.667 17.706-.074 7.174-.548 14.348-.442 21.534zM313.62 72.96c3.205 13.555-3.913 30.057 6.514 41.4 15.563 8.54 12.403-16.178 3.942-22.287-3.585-6.308-6.88-12.8-10.456-19.113zm72.556 268.777c-2.3-13.74 6.053-29.688-3.537-41.742-14.942-9.573-13.473 15.303-5.52 22.02 3.084 6.538 5.82 13.246 9.057 19.723zM262.2 96.86c8.4 11.343 8.654 29.28 22.783 35.794 16.684 3.097 6.48-18.16-3.435-20.465L262.2 96.86zM438.03 318.7c-7.608-11.856-6.496-29.762-20.1-37.246-17.92-3.26-5.894 18.726 3.693 22.26L438.03 318.7zm-213.4-185.978c12.216 7.642 19.002 24.524 34.77 25.743 17.322-3.925-3.1-20.405-13.368-18.657l-21.4-7.086zm249.9 149.06c-11.6-8.458-17.214-25.697-32.817-27.932-17.515 2.77 1.612 20.583 11.995 19.507l20.823 8.425zM208.2 177.42c14.24 3.32 26.212 17.374 41.73 13.317 14.726-9.605-10.572-17.803-19.496-13.26-7.404.016-14.818-.175-22.235-.056zm285.316 61.673c-13.948-4.212-24.866-18.8-40.543-16.054-15.35 6.6 5.728 18.473 15.034 14.532l25.5 1.523zM207.24 232.37c14.933-2.347 32.248 6.577 45.265-4.103 4.996-15.73-18.73-9.712-26.125-3.604l-19.14 7.707zm288.303-48.015c-14.6 1.237-30.25-8.338-43.86.082-11.246 13.488 15.353 14.03 22.463 6.773l21.397-6.855zM233.38 289.348c11.996-7.972 30.326-6.912 37.92-20.787 2.5-17.34-19.892-4.998-22.973 4.578l-14.946 16.2zm237.195-162.504c-12.594 7.225-30.793 4.953-39.43 18.294-3.67 18.02 19.447 5.44 23.755-3.434l15.676-14.86zM277.768 327.12c7.655-11.914 24.837-17.98 26.118-33.526-4.706-16.8-20.373 2.785-19.25 12.943l-6.87 20.583zm149.06-238.795c-8.48 11.344-26.058 16.196-28.407 31.626 3.54 17.117 20.558-1.368 20.102-11.606 2.617-6.727 5.502-13.362 8.306-20.02zm-215.35 174.74c4.095 43.156 38.865 78.925 79.36 91.268 13.106 6.827 29.04 5.32 41.9 12.513-19.77 8.164-37.475-10.35-56.976-8.68-14.348-4.144-23.848-16.993-35.28-25.915-11.916-11.28-22.48-24.264-29.52-39.167-22.014 7.74-23.6-24.78-29.092-38.642 2.355-15.137 3.394 13.843 8.636 17.188 1.918 6.67 11.132 12.143 5.15.94-4.915-15-11.072-32.684-2.218-47.428-1.883 16.785.788 35.23 10.58 49.212 6.197 1.174-7.058-24.078 5.484-23.923 1.818 3.912 1.4 8.45 2 12.634zm-22.814 28.173c-5.445-2.526-14.18-25.34-15.74-16.557 3.66 9.924 18.004 20.288 12.702 30.92-4.026-4.386-23.97-21.824-12.4-7.37 6.865 5 12.4 19.05.836 8.02-6.183-1.597 14.6 17.736 1.175 6.637 3.6 9.312 6.116 12.064 7.647 18.363-2-.715 15.05 9.672 18.94 15.654 9.7 10.665 20.685 20.426 34.382 25.506 7.472 4.587 28.706 17.948 30.532 7.578-15.14-12.17-36.892-13.413-49.474-29.717-11.486-10.406-25.47-17.616-26.747-24.316-10.315-6.2 4.15-2.714-.56-3.814-4.313-2.03-7.1-8.65-.13-2.953-5.213-3.65-3.743-12.757 1.877-4.268 1.406-6.868-1.113-18.07 5.868-16.323-1.72-3.72-6.353-4.435-8.9-7.362zm107.32 108.3c-5-10.047 28.946-12.307 24.38-12.1-3.83 9.756-16.268 8.748-24.38 12.1zm29.1-11.225c7.964-21.33 33.08-24.967 51.325-33.55 39.666-15.442 74.966-40.855 104.52-71.237 11.492-9.55 17.485-31.285 22-39.14 5.068 7.477-9.2 35.058 8.234 21.84 16.962-13.055 18.95-36.117 30.675-52.3 4.864 11.567-8.84 32.45-16.12 44.853-13.548 15.465 15.017 1.05 16.986-8 3.74-3.495 13.084-27.263 15.634-16.504-4.208 15.33-11.994 29.622-25.534 38.6-16.402 17.614 18.875 11.303 24.807 1.127 6.4-4.7 14.36-24.174 10.132-6.126-6.174 15.35-21.3 26.146-37.124 29.785-.203 6.408 22.455-7.9 28.992-3.502-9.952 9.063-40.907 12.122-40.485 21.848 12.26 3.33 34.014-13.398 38.36-8.05-7.784 11.96-35.815 8.772-37.704 19.17 6.654.04 28.78-3.094 9.797 1.566-6.36.634-29.788 8-11.298 4.543 6.858-2.418 24.413-2.633 8.055 1.75-7.387 2.743-31.3 8.1-27.144 9.682 6.2-.57 24.595-7.086 24.237-3.3-18.378 5.76-37.156 10.18-55.407 16.356 16.88-2.022 33.134-8.317 50.12-9.155-7.918 1.718-30.766 8.308-9.764 5.225 5.358 1.84-16.1 5.26-21.36 7.172-8.206 2.925-20.078 3.088-25.786 8.977 7.1-3.65 33.76-3.254 13.605 3.782-15 5.614-38.277 14.682-49.643 13.487 6.933-8.33 29.18-7.16 31.08-12.86-6.72 2.592-25.854-.97-9.24-5.267 3.025-2.254-14.536-1.675-1.32-5.875 7.897-2.335 14.267-7.847 10.668-9.15 12.352-6.725 28.47-6.44 39.458-15.058-7.862 2-24.316 3.443-7.34-1.86 6.812-1.76 19.235-10.713 4.2-4.922-3.356-3.108 30.026-14.507 8.424-10.3-5.957-5.53 25.436-18.98 8.1-16.773 3.5-5.924 23.006-16.696 4.75-15.482-22.906-.13-42.107 13.834-57.567 29.346-14.46 13.388-30.7 25.636-50.014 30.8-27.327 12.36-52.665 29.106-81.304 38.506zm-36.782 15.407c-10.04 2.536-3.516 14.464 2.652 5.2 22.718-1.002 46.1.115 68.16-5.873-4.594-3.738-22.322-.34-31.754-.87-12.855 1.272-26.04-.408-38.722 1.457z"/><path d="M312.28 397.765c16.714 10.25-15.637 6.086 0 0zm96.845-3.08c19.764 4.192 39.7 7.668 59.754 10.066-.757 6.972-9.605 6.007-14.593 4.834-3.86-1.5-9.056-.607-5.37 3.65-2.33 1.4-9.454-1.46-9.298.955 2.545 1.502 5.313 1.637.997 1.174-7.958-.236-14.38 5.375-21.664 7.46-5.933-1.564-10.874 1.522-16.683 1.464-8.384-1.422-16.55 2.066-24.948 1.254-9.833-.12-19.656-.863-29.48-1.105-6.194.03-12.965.984-18.616-2.07-4.452-5.392 2.657-12.166 8.5-11.274 15.747-2.153 32.268-2.025 46.88-9.076 8.145-2.54 16.27-5.155 24.52-7.334z"/></g></svg>
