<svg xmlns="http://www.w3.org/2000/svg" fill-rule="evenodd" viewBox="0 0 640 480"><path d="M0 0h640v480H0z" fill="#6fdcff"/><g fill="#ffe400"><path d="M60.2 467c3.3 3.2 2.2 8.5 11.3 7.8 13.8 0 14.2-8.4 14.2-14.3S65 446.4 64 437.7s4.8-11 9.6-11c4.7 0 8 2.7 8 5.1S79.4 435 76 435s1.5-1.7-1.4-3-4.8 2-4.8 4c0 2.2 7.2 2.8 12 1.3 1 4.7 1.4 5-5.3 13 4.8-3.1 5.2-3.8 10.5-2-5.3-4.6-1.3-13.8-1.2-16.1s-1-5.1-3-6.5c-3.9-3.5-12.2-3.7-17.2-1.4-7.3 3.2-7.7 12.8-5.8 16L80 460.7c1.4 2.4 2 9.2-6.6 9.5-9 .7-12.2-11.6-13.8-15.7-2.1 4.5-4.5 16.8-13.6 16.1-8.6-.3-10.2-7-8.8-9.5l20.7-21c2-3.2 1.6-12.8-5.7-16-5-2.3-13.3-2-17.1 1.4-2.2 1.4-3.4 4.1-3.2 6.5s4.1 11.5-1.1 16c5.2-1.7 5.7-1 10.5 2-6.7-7.9-6.2-8.2-5.3-13 4.8 1.6 12 1 12-1.1s-2-5.6-4.9-4.2c-2.8 1.4 2 3.1-1.4 3.1-3.3 0-5.7-.7-5.7-3s3.3-5.3 8.1-5.3 10.5 2.4 9.5 11.1-22 18.1-22 24c0 6 1.4 13.1 15.2 13.1 9 .7 10.1-4.6 13.4-7.8z"/><path d="M59.1 343.3c3.3-3.2 6-12.6 15-12 13.8 0 19 7.7 19 13.6s-28 54-29 62.7 4.8 11.1 9.5 11.1c4.8 0 8.1-2.7 8.1-5.2s-2.4-3-5.7-3 1.4 1.7-1.4 3-4.8-2-4.8-4.1 7.2-2.8 12-1.2c.9-4.7 1.3-5-5.3-13 4.8 3 5.2 3.8 10.5 2-5.3 4.6-1.4 13.7-1.2 16s-1 5.2-3.1 6.6c-3.8 3.5-12.2 3.6-17.2 1.4-7.2-3.3-7.6-12.8-5.7-16L87 346.6c1.5-2.4-2.3-10.4-10.9-10.7-9-.7-12.1 8.8-13.7 12.9l12.3-1s.5 2 0 3.2a110 110 0 0 0-12.3 1.6l-.5 6.2h6l-.4 2.8s-5.1-.4-5.6 0c-.5.3-1 6.2-1 6.2s-1 .4-2 .4-2-.4-2-.4-.4-5.9-.9-6.2c-.5-.4-5.6 0-5.6 0l-.5-2.8H56l-.5-6.2s-6-1.2-12.3-1.6c-.4-1.2 0-3.1 0-3.1l12.3.9c-1.6-4.1-4.7-13.6-13.7-13-8.6.4-12.4 8.4-11 10.8L58 405.2c1.9 3.1 1.5 12.7-5.7 16-5 2.2-13.4 2-17.2-1.4-2.1-1.4-3.3-4.2-3.1-6.5s4-11.6-1.2-16c5.3 1.7 5.8 1 10.5-2.1-6.6 8-6.2 8.3-5.2 13 4.7-1.6 11.9-1 11.9 1.2 0 2-2 5.5-4.8 4.1s2-3-1.4-3c-3.3 0-5.7.6-5.7 3s3.3 5.2 8 5.2 10.5-2.4 9.6-11c-1-8.7-29-57-29-62.8 0-6 5.2-13.5 19-13.5 9-.7 12.3 8.7 15.5 11.9z"/><path d="M59.1 319.4c3.3 3.2 6 12.6 15 12 13.8 0 19-7.7 19-13.6s-28-54-29-62.7 4.8-11.1 9.5-11.1c4.8 0 8.1 2.7 8.1 5.2s-2.4 3-5.7 3 1.4-1.6-1.4-3-4.8 2-4.8 4.1 7.2 2.8 12 1.2c.9 4.7 1.3 5-5.3 13 4.8-3 5.2-3.8 10.5-2-5.3-4.6-1.4-13.7-1.2-16s-1-5.2-3.1-6.6c-3.8-3.4-12.2-3.6-17.2-1.4-7.2 3.3-7.6 12.8-5.7 16L87 316c1.5 2.4-2.3 10.4-10.9 10.7-9 .7-12.1-8.8-13.7-12.9l12.3 1s.5-2 0-3.2a110 110 0 0 1-12.3-1.6l-.5-6.2h6l-.4-2.8s-5.1.4-5.6 0c-.5-.3-1-6.2-1-6.2s-1-.4-2-.4-2 .4-2 .4-.4 5.9-.9 6.2c-.5.4-5.6 0-5.6 0l-.5 2.8H56l-.5 6.2s-6 1.2-12.3 1.6c-.4 1.2 0 3.1 0 3.1l12.3-.9c-1.6 4.1-4.7 13.6-13.7 13-8.6-.4-12.4-8.4-11-10.8L58 257.5c1.9-3.2 1.5-12.7-5.7-16-5-2.2-13.4-2-17.2 1.4-2.1 1.4-3.3 4.2-3.1 6.5s4 11.5-1.2 16c5.3-1.7 5.8-1 10.5 2.1-6.6-8-6.2-8.3-5.2-13 4.7 1.6 11.9 1 11.9-1.2 0-2-2-5.5-4.8-4.1s2 3-1.4 3c-3.3 0-5.7-.6-5.7-3s3.3-5.2 8-5.2 10.5 2.4 9.6 11c-1 8.7-29 57-29 62.8 0 6 5.2 13.5 19 13.5 9 .7 12.3-8.7 15.5-11.9zm0-158.8c3.3-3.2 6-12.6 15-12 13.8 0 19 7.7 19 13.6s-28 54-29 62.8c-1 8.6 4.8 11 9.5 11 4.8 0 8.1-2.7 8.1-5.1s-2.4-3.2-5.7-3.2 1.4 1.8-1.4 3.2-4.8-2.1-4.8-4.2c0-2 7.2-2.8 12-1.2.9-4.7 1.3-5-5.3-13 4.8 3.1 5.2 3.8 10.5 2-5.3 4.6-1.4 13.8-1.2 16s-1 5.2-3.1 6.6c-3.8 3.5-12.2 3.6-17.2 1.4-7.2-3.3-7.6-12.8-5.7-16L87 164c1.5-2.4-2.3-10.4-10.9-10.7-9-.7-12.1 8.8-13.7 12.9l12.3-1s.5 2 0 3.2c-6.4.4-12.3 1.6-12.3 1.6l-.5 6.2h6l-.4 2.8s-5.1-.3-5.6 0-1 6.3-1 6.3-1 .3-2 .3-2-.3-2-.3-.4-6-.9-6.3-5.6 0-5.6 0l-.5-2.8H56l-.5-6.2s-6-1.2-12.3-1.6c-.4-1.2 0-3.1 0-3.1l12.3.9c-1.6-4.1-4.7-13.6-13.7-13-8.6.4-12.4 8.4-11 10.8L58 222.5c1.9 3.2 1.5 12.7-5.7 16-5 2.2-13.4 2-17.2-1.4-2.1-1.4-3.3-4.2-3.1-6.5s4-11.5-1.2-16c5.3 1.7 5.8 1 10.5-2.1-6.6 8-6.2 8.3-5.2 13 4.7-1.6 11.9-.9 11.9 1.2 0 2-2 5.5-4.8 4.1-2.8-1.3 2-3-1.4-3-3.3 0-5.7.6-5.7 3s3.3 5.2 8 5.2 10.5-2.4 9.6-11c-1-8.7-29-56.9-29-62.8s5.2-13.5 19-13.5c9-.7 12.3 8.7 15.5 12z"/><path d="M59.1 136.7c3.3 3.2 6 12.7 15 12 13.8 0 19-7.7 19-13.6s-28-54-29-62.7 4.8-11.1 9.5-11.1c4.8 0 8.1 2.8 8.1 5.2s-2.4 3.1-5.7 3.1 1.4-1.7-1.4-3.1-4.8 2-4.8 4.1 7.2 2.8 12 1.2c.9 4.7 1.3 5-5.3 13 4.8-3 5.2-3.8 10.5-2-5.3-4.5-1.4-13.7-1.2-16s-1-5.2-3.1-6.6c-3.8-3.4-12.2-3.6-17.2-1.3-7.2 3.2-7.6 12.8-5.7 15.9L87 133.4c1.5 2.4-2.3 10.4-10.9 10.8-9 .6-12.1-8.8-13.7-13l12.3 1s.5-2 0-3.2a111.5 111.5 0 0 1-12.3-1.5l-.5-6.3h6l-.4-2.8s-5.1.4-5.6 0c-.5-.3-1-6.2-1-6.2s-1-.4-2-.4-2 .4-2 .4-.4 5.9-.9 6.2c-.5.4-5.6 0-5.6 0l-.5 2.8H56l-.5 6.3s-6 1.1-12.3 1.5c-.4 1.3 0 3.2 0 3.2l12.3-1c-1.6 4.2-4.7 13.6-13.7 13-8.6-.4-12.4-8.4-11-10.8L58 74.8c1.9-3.1 1.5-12.7-5.7-16-5-2.2-13.4-2-17.2 1.4-2.1 1.4-3.3 4.2-3.1 6.5s4 11.6-1.2 16c5.3-1.7 5.8-1 10.5 2.1-6.6-8-6.2-8.3-5.2-13 4.8 1.6 11.9 1 11.9-1.2 0-2-2-5.5-4.8-4.1s2 3.1-1.4 3.1c-3.3 0-5.7-.7-5.7-3.1s3.3-5.2 8-5.2 10.6 2.4 9.6 11c-1 8.7-29 57-29 62.8 0 6 5.2 13.6 19 13.6 9 .7 12.3-8.8 15.5-12zM60.2 13c3.3-3.2 2.2-8.5 11.3-7.8 13.8 0 14.2 8.4 14.2 14.3S65 33.6 64 42.3s4.8 11 9.6 11c4.7 0 8-2.7 8-5.1S79.4 45 76 45s1.5 1.7-1.4 3-4.8-2-4.8-4c0-2.2 7.2-2.9 12-1.3 1-4.7 1.4-5-5.3-13 4.8 3.1 5.2 3.8 10.5 2-5.3 4.6-1.3 13.8-1.2 16.1s-1 5.1-3 6.5c-4 3.7-12.3 3.7-17.3 1.5-7.3-3.2-7.7-12.8-5.8-16L80 19.3c1.4-2.4 2-9.2-6.6-9.5-9-.7-12.2 11.6-13.8 15.7C57.5 21 55.1 8.6 46 9.3c-8.6.3-10.2 7-8.8 9.5l20.7 21c2 3.2 1.6 12.8-5.7 16-5 2.3-13.3 2.1-17.1-1.4-2.2-1.4-3.4-4.1-3.2-6.5s4.1-11.5-1.1-16c5.2 1.7 5.7 1 10.4-2-6.6 7.9-6.1 8.2-5.2 13 4.8-1.6 12-1 12 1.1s-2 5.6-4.9 4.2c-2.8-1.4 2-3.1-1.4-3.1-3.3 0-5.7.7-5.7 3s3.3 5.3 8.1 5.3 10.5-2.4 9.5-11.1-22-18.1-22-24c0-6 1.4-13.1 15.2-13.1 9-.7 10.1 4.6 13.4 7.8z"/><rect height="172.107" rx="90.802" ry="86.107" width="181.603" x="259.735" y="119.802"/><path d="M346.27 68.48c-.854 0-4.908 28.596-6.402 34.998-1.494 14.405 19.206 13.87 15.792-.534l-9.4-34.57zm7.256 277.207c.747 0 6.936-28.276 8.963-34.57 2.454-14.19-18.246-14.938-16.005-.427zM208.84 205.268c0 .747 29.77 6.722 36.385 8.643 14.938 2.454 16.005-17.072.64-14.938l-37.025 6.402zm289.904 3.414c0-.747-30.09-5.655-36.812-7.362-15.045-1.814-15.15 17.712 0 15.045zm-259.387-94.11c-.534.534 19.1 22.727 23.047 28.17 10.243 10.67 23.794-4.268 10.243-11.524l-33.3-16.54zM464.6 297.03c.534-.534-21.02-21.02-25.5-26.035-11.204-9.816-23.26 6.082-9.176 12.27l34.678 13.87zM284.277 83.63c-.64.32 8.536 27.85 10.03 34.357 5.122 13.55 23.687 4.695 14.084-6.936l-24.008-27.42zM415.624 331.6c.747-.32-6.402-28.382-7.362-34.89-4.16-13.87-23.26-6.402-14.618 5.975l22.087 28.81zm32.33-228.765c-.64-.534-24.328 17.712-30.09 21.34-11.417 9.603 4.055 22.62 11.95 9.923zm-195.26 206.678c.534.534 25.608-16.005 31.583-19.313 12.057-8.75-2.347-22.834-11.204-10.67L252.8 309.514zM215.348 155.76c-.32.64 25.608 15.685 31.263 19.633 13.338 6.936 21.127-11.204 5.87-14.084zm270.698 104.993c.32-.64-24.54-17.392-29.876-21.66-12.804-7.896-21.874 9.7-6.83 13.55zm-86-184.484c-.747-.213-15.578 24.968-19.526 30.4a8.323 8.323 0 0 0 14.938 5.015zm-100.19 260.668c.747.32 17.392-23.9 21.66-29.13 7.79-12.377-11.097-20.273-14.618-5.975zm-82.693-73.943c.32.64 29.876-6.402 36.812-7.47 14.51-4.055 6.402-21.98-6.402-13.658zm268.99-109.58c-.213-.64-30.196 4.375-37.132 5.015-14.938 3.094-8.002 21.553 5.335 14.084zm-110.435-83.12c-.747-.107-10.777 27.102-13.764 33.077-4.375 13.87 16.005 17.285 15.685 2.56l-1.814-35.745zm-51.75 273.045c.747.213 12.804-26.355 16.218-32.223 5.335-13.444-14.725-18.14-15.472-3.52l-.853 35.744zM313.62 72.96c-.747.213 2.027 29.022 2.027 35.638 2.027 14.19 21.98 9.283 15.365-3.948zm72.556 268.777c.747-.107 0-29.022.534-35.638-.96-14.405-21.34-10.777-15.578 2.88l14.938 32.757zM262.19 96.86c-.64.427 13.55 25.928 16.218 32 7.682 12.484 24.22.747 12.59-9.176zM438.03 318.7c.64-.427-11.737-26.888-13.87-33.077-6.722-12.91-24.008-2.24-13.23 8.323zm-213.4-185.978c-.427.64 22.514 19.633 27.315 24.54 11.844 8.963 22.834-7.682 8.323-12.91zm249.89 149.06c.427-.64-21.02-21.127-25.5-26.248-11.097-9.7-23.26 6.19-9.176 12.377zM208.2 177.42c-.213.747 28.062 11.524 34.25 14.618 14.298 4.802 18.886-14.298 3.308-14.725zm285.316 61.673c.32-.64-27.102-13.23-33.077-16.752-13.87-5.762-19.953 13.017-4.48 14.51zM207.24 232.37c.107.64 30.623.213 37.558.747 15.15-.747 11.524-20.06-2.988-14.83zm288.303-48.015c0-.747-30.516-2.347-37.345-3.308-15.258-.213-13.017 19.313 1.814 14.938l35.53-11.737zM233.38 289.348c.427.64 27.742-12.377 34.144-14.83 13.23-6.936 1.067-22.834-9.496-12.057zm237.195-162.504c-.427-.64-28.49 10.563-35.21 12.59-13.764 6.082-2.774 22.727 8.536 12.697zM277.768 327.12c.64.32 20.166-21.874 25.075-26.568 9.283-11.417-8.536-21.34-13.764-7.47zm149.06-238.795c-.534-.427-21.66 20.38-26.888 24.754-10.03 10.777 7.042 21.874 13.23 8.43l13.55-33.183z"/><g transform="matrix(2.328 0 0 2.201 -626.835 -282.564)"><path d="M360.1 247.9c.7 2.5.8 16.5 14.9 30 14 13.4 38 16.4 38 16.4s.1 1.9-1.6 2c-1.7.2-9.9-1.5-14-2.8-4-1.2-7.6-3.4-8-3.3-.5.2-1.3 1.6-2.5 1.4s-7-6.2-9.6-7.8a80.6 80.6 0 0 1-13.7-15.3c-2.8-4.5-3.5-7.5-4.4-7.5s-4.2 2.2-4.2 2.2-3-4.5-5.6-11.7c-2.7-7.2-2.4-11.4-1.8-11.7.7-.3.7 5.3 2.7 10.4 2 5.2 4.8 6.8 4.8 6.8s-1.8-2.7-3.2-9.4-2-13.2-1-15.2 1.9-2.6 2-2.5c.2.2-1.7 3.1-.4 10.8s4.8 14.2 5.6 13.9-.5-1.9-1-6.4.5-7.3 1.6-7.7c.5-.4 1.3 5 1.4 7.4zm-9.8 12.8c-2.7-2.5-6.9-11.2-7.8-10.8-1 .5 6.8 13 7 14 .2 1.2 1.9 4.6.6 4.1s-10.6-10.3-9.5-8.4 8.1 10.5 7.7 11-5.8-4.8-6-4.1c-.1.6 5.3 5.8 5.2 6.4s-3.5-3.3-3.5-2.5 3.5 4.7 3.5 5.3-3-2.8-2-1c.9 2 3.5 3.7 3.4 4.3s-2.2-.8-2.2-.5 3.9 1.7 4.8 2.8c1 1.1 7.4 8.5 12.2 12.2s18.6 10.2 19.6 10.2c.9 0 2.3-2 2-2.8s-13.8-5.4-17.5-8.8l-13.8-12c-.7-.5-2.8-.3-2.8-.8s2.7.3 2.5 0c-.1-.3-3.7-1.9-3.6-2.2.2-.3 2.5.6 2.5.3s-4.2-2.6-4-3.1c.1-.5 3.1 1.4 3.1 1 0-.2-4-3-3.9-3.5s3.1 2.2 3 1.6-2.4-4-2.4-4.4c0-.5 3.6 3.4 4 2.6.2-.7-1.3-7.2-1.2-7.3s2.7 1.4 3.1.5c.5-1-1.8-2.3-4-4.1zm46.1 49.2c-1.9.3-2.8-.4-1.7-2 1.5 0 5.5-1.3 6.9-1.9s2.9-1.4 4.1-2.5c1.2-1.3 2 .7 1.3 1.8-.5.7-2.8 2-4.5 2.7-2.5.8-4.7 2-6.1 1.9zm12.5-5.1c-1.3-1.4-.2-2.4 1.7-3.5 2.8-1.5 2-3.6 5.6-5.3 1.6-1 24-10 31.3-14.8s27.8-20.3 33.3-31c5.4-10.6 2.8-11.4 3.6-11.8.7-.5 1.5 1.5 1.4 3.9-.2 2.3-2 9.3-1.4 10s8.2-5.5 11.4-13 5.6-15.3 7.1-15.3c1.6 0-2.6 12.8-5.3 17.8-2.6 5-5.7 7.5-5 8.6.8 1 8.6-5.5 11.3-10.3 2.6-4.9 5.1-9.2 5.6-8.3a34 34 0 0 1-6.7 16.1c-4.2 4.8-9.2 8.3-8.4 9 .7.8 6.4 1.6 12.3-2.4 6-4.1 6.6-10 7.3-9.7.8.3-.7 8.4-6.4 13.4s-13.2 5.5-13 6.6c.4 1 16.3-4.6 16-3.3-.3 1.2-20.6 9.2-20.8 10 0 .6 3.5.8 9-.5 5.4-1.2 10.6-5.5 11.3-4.5.2 1.4-3.9 4.8-10.1 6.4-6.3 1.6-9.4 3.7-9.6 4.2-.1.5 11.2-1.4 11.2-.8s-14.8 3.5-14.9 4.3c-.2.7 14-2.9 13.8-2-.4.7-19.3 6.3-19.1 6.6.1.4 15.8-3.4 15.5-2.8-.4.7-26.4 8-26.6 8.5-.2.4 23-5.2 22.8-4.7s-12 3.4-12 3.7 9.5-1.5 9.3-1c-.1.4-24 6.5-24.5 7.4-.5 1 12.4-2.5 12.2-.7s-27.7 11-27.8 9.3c-.2-1.7 16.7-6 16.6-6.5-.2-.5-9.7 1-9.9.1-.1-1 6.3-3 5.8-3.4-.5-.5-5.3 1.4-4.9.3.5-1.1 9.6-5.3 9.4-5.6-.1-.3-3.3 1-3 0 .4-1.1 19.7-6.7 19.4-7.4-.3-.6-8.9 1.4-9.7 1.6-.3-.6 12-5.2 11.8-6-.4-.7-6.6 2.7-7 1.8-.2-1 10.9-5.3 10.2-6s-5.7 1.8-6.4 1.1 10.5-8.4 8.8-8.6c-1.7-.1-3.8 2.4-4 .8.2-2 8.7-5.3 6.8-6.9-3-.9-13.1.7-17.3 3.2s-18.2 16.4-21.6 18.6c-3.4 2.1-15 7-17.2 8-3.4 1.2-4 3-7.5 4.8-6.3 1.7-6.2 3.6-9.2 4.7-1.1.3-12.4 5.7-12.5 5.3zm-15.8 7c-1.9 1-3.6 3.4-2.5 4.4.6 1.2 2.5-2.7 4-2.5l8 .4c4.3.3 6.4-.9 8.8-.7s7.7-1.3 10.2-1.3 3 .3 3.2-.8c.3-1-7.8-.3-11.4-.4-3.6-.2-8.1.7-10.8.7-2.5-.1-6.8-.9-9.5.2z"/><rect height="3" rx="1.7" ry="1.5" width="3.4" x="401.7" y="309.1"/><path d="m445 307.7c1.7-.3 6.3 1.3 9.5 2 5.8 2.3 16.6 1.2 16.6 2.3s-.7 2.4-3.2 2.6-8.8-1-8.6-1 5 2.3 3.6 2.9-5.5-1.3-6.2-.8 3.8 1.4 3 1.7c-.6.3-3.7-.4-4.7-.3-1 .2.8 1.3-.4 1.7-1.2.5-3.2-.6-4-.3-.9.3 1.8 2 .6 2.2s-4-.8-5.6-1c-1.6 0 1.5 1.6.5 1.8-1 .1-3.8-1.3-4.5-1.3s0 2-1 2-2.2-1.7-2.8-1.7 0 2-1 2-1.4-2.1-2.2-2c-1 .2 0 2.7-1.4 2.5-1.3-.1-1.5-2.6-2.6-2.5-1 .2.2 2.5-.8 2.5s-1.2-2.3-2.2-2.5c-1-.1-.6 2.2-1.2 2.2s-1.2-2.2-1.6-2.2c-.3 0 0 2.2-1.2 2s-1.2-2.4-1.5-2.3c-.4.2-.4 1.8-1.2 1.8s-.9-1.6-1.2-1.4c-.4.1-1.6 2.1-2.4 1.8-.9-.3.2-1.9-.2-1.9s-1.4 1.1-2 1 0-1.4-.2-1.4-1.7.8-2.4.8-2.6 1-3.1.1c-.5-1 1.3-1 1.7-1.9.3-.9-1-3.6.4-4.5 1.3-1 5.6 1.3 12-.3 11.6-3.1 20.6-6.7 21.5-6.6z"/></g></g></svg>