<svg xmlns="http://www.w3.org/2000/svg" xmlns:xlink="http://www.w3.org/1999/xlink" viewBox="0 0 640 480"><style><![CDATA[.B{stroke-linejoin:round}.C{stroke-width:1.6}.D{stroke-width:1.2}.E{fill:#ffd83d}.F{stroke-linecap:round}]]></style><path d="M0 0h640v240H0z" fill="#002b7f"/><path d="M0 240h640v240H0z" fill="#ce1126"/><g stroke="#000" class="B"><g class="E"><path d="M173.12 97.84l-1.52 50h-50.72c-6.838-13.048-13.865-27.822-10.323-42.907 3.506-11.767 17.6-16.562 28.726-14.062 11.494 1.138 22.618 4.402 33.838 6.968z" class="C"/><g class="D"><path d="m115.6 100.16v28.8m4-31.76v38.4m4.16-40.4v45.76m4-46.72v35.92m4.08-36.08v36.24m4.08-37.6v37.6m4.08-37.6v37.6m4.08-37.2v37.6m4.08-37.2v37.52m4.08-35.2v37.6m4-37.2v42.32m4.16-42.32v37.6m4-37.6v37.6" class="F"/><path d="M141.12 94.4c9.906 2.227 20.57 7.044 24.91 16.866 2.424 7.034-2.423 17.898-10.972 16.226-7.614-1.27-16.188-4.938-23.382-.288-4.246 7.224-14.447 2.346-19.137 4.22-.727 6.116-.114 12.362-.302 18.546-.627 2.766.39 3.89 3.185 3.23h61.935V97.6l-36.24-3.2z"/></g><g class="C"><use xlink:href="#B"/><use xlink:href="#B" x="-8.88" y="-2.16"/><use xlink:href="#B" x="-17.92" y="-4.4"/><use xlink:href="#B" x="-26.96" y="-5.92"/><use xlink:href="#B" x="-36" y="-6.8"/><use xlink:href="#B" x="-44.8" y="-6.32"/><use xlink:href="#B" x="-53.28" y="-3.44"/><use xlink:href="#B" x="-60.4" y="1.84"/><use xlink:href="#B" x="-65.44" y="9.12"/><use xlink:href="#B" x="-67.92" y="17.76"/><use xlink:href="#B" x="-67.84" y="26.64"/><use xlink:href="#B" x="-66.08" y="35.36"/><path d="M172 95.6c.085 8.034-9.21 3.392-13.532 1.906-12.307-2.643-26.096-6.764-37.994-.352-7.85 4.693-7.946 15.326-5.906 23.216 2.006 8.66 6.1 16.653 10.712 24.2-4.686 4.778-10.98.826-11.167-5.122-5.703-11.984-10.513-26.662-4.23-39.37 5.962-10.32 19.226-13.658 30.31-11.326 10.806 1.24 21.228 4.494 31.8 6.86z"/></g><g transform="matrix(-.8 0 0 .8 355.2 0)"><path d="M216.4 122.3l-1.9 62.5h-63.4c-8.547-16.3-17.33-34.777-12.904-53.634 4.382-14.71 21.987-20.702 35.907-17.577 14.367 1.422 28.272 5.503 42.297 8.7z" stroke-width="2"/><g stroke-width="1.5"><path d="m144.5 125.2v36m5-39.7v48m5.2-50.5v57.2m5-58.4v44.9m5.1-45.1v45.3m5.1-47v47m5.1-47v47m5.1-46.5v47m5.1-46.5v46.9m5.1-44v47m5-46.5v52.9m5.2-52.9v47m5-47v47" class="F"/><path d="M176.4 118c12.382 2.784 25.712 8.805 31.14 21.082 3.03 8.792-3.03 22.373-13.715 20.283-9.517-1.587-20.235-6.173-29.227-.36-5.308 9.03-18.06 2.932-23.92 5.274-.91 7.645-.143 15.453-.377 23.183-.784 3.457.486 4.86 3.98 4.038h77.42V122l-45.3-4z"/></g><g stroke-width="2"><use xlink:href="#C"/><use xlink:href="#C" x="-11.1" y="-2.7"/><use xlink:href="#C" x="-22.4" y="-5.5"/><use xlink:href="#C" x="-33.7" y="-7.4"/><use xlink:href="#C" x="-45" y="-8.5"/><use xlink:href="#C" x="-56" y="-7.9"/><use xlink:href="#C" x="-66.6" y="-4.3"/><use xlink:href="#C" x="-75.5" y="2.3"/><use xlink:href="#C" x="-81.8" y="11.4"/><use xlink:href="#C" x="-84.9" y="22.2"/><use xlink:href="#C" x="-84.8" y="33.3"/><use xlink:href="#C" x="-82.6" y="44.2"/><path d="M215 119.5c.106 10.042-11.514 4.24-16.915 2.383-15.384-3.304-32.62-8.455-47.492-.44-9.813 5.866-9.933 19.158-7.383 29.02 2.508 10.824 7.624 20.816 13.4 30.237-5.857 5.972-13.725 1.032-13.96-6.403-7.13-14.98-13.14-33.327-5.29-49.213 7.453-12.9 24.032-17.073 37.886-14.158 13.507 1.55 26.535 5.617 39.762 8.574z"/></g></g><g class="C"><path d="m177.6 42.48-4.16 7.76 4.16 7.68 4.08-7.68-4.08-7.84zm0 19.52-4.16 7.68 4.16 7.76 4-7.84-4.08-7.68zm-14.72-2 6.48 4.08 6.48-4.08-6.4-4.16zm16.4 0 6.48 4.08 6.56-4.08-6.56-4.16-6.4 4.16z"/><circle cx="177.6" cy="60.08" r="3.12"/><circle cx="177.6" cy="80" r="8.4"/></g></g><path d="M175.44 71.92v5.28a50 50 0 0 0-5.92.64m16.16 0a49.68 49.68 0 0 0-6-.64v-5.28m-10.24 10.16a49.12 49.12 0 0 1 8.16-.72c2.72 0 5.44.24 8 .72" fill="none" class="D F"/><g class="C E"><path d="m169.44 94.16c-.8 13.6-2.4 27.6-7.76 37.68l8.64-3.52c3.04-11.44 3.68-26.24 4.56-33.28zm16.32 0-5.52.88c.96 7.04 1.6 21.84 4.56 33.28l8.64 3.52c-5.28-10.08-6.88-24-7.68-37.68z"/><path d="M177.6 123.76c-8.172-.674-17.226 4.733-17.995 13.425-.102 7.7-4.182-3.135-6.775-4.403-4.474-4.845-11.174-10-18.127-7.825-6.957 2.856-9.643 11.262-8.943 18.242-2.612-9.896-14.63-15.952-24.008-11.434-4.794.71-6.745 5.62-1.818 7.99 7.383 11 9.517 24.684 17.346 35.445h120.56c8.872-11.994 10.26-28.1 20.497-39.244-2.51-5.12-9.34-5.842-14.462-5.516-6.913-.53-12.25 8.484-14.355 11.2.17-7.208-3.543-15.984-11.412-17.277-9.614.037-16.186 8.343-21.433 15.345-2.654-4.23-2.587-12.27-9.384-13.997-3.015-1.412-6.38-1.955-9.692-1.94z"/></g><path d="m237.68 175.2c0 4.48-26.88 9.36-60.08 9.36s-60.16-4.8-60.16-9.36c0-4.4 26.96-6.8 60.16-6.8 33.12 0 60.08 2.4 60.08 6.8z" class="D"/><g class="D E"><circle cx="177.6" cy="91.52" r="2.8"/><circle cx="177.6" cy="97.6" r="2.96"/><circle cx="177.6" cy="104.16" r="3.28"/><circle cx="177.6" cy="111.44" r="3.76"/></g></g><path d="M242.24 143.84c-.24 0-.56.16-.88.48a38.56 38.56 0 0 0-4.4 4.64c-1.04 1.36-2.16 1.12-2.4.8a9.6 9.6 0 0 1-.8-2.32c-.32-1.12-1.04-1.2-1.12 0 0 1.28.48 2.72.88 4.96s0 5.76-1.84 10.08c-.64 1.36.48.8 1.28-.64a42.4 42.4 0 0 1 11.68-11.04c.96-.72.8-1.36-.56-1.12-1.36.32-2.08 1.44-3.52 1.44-.48 0-1.04 0-.96-1.12.08-1.04 1.44-3.52 2.64-5.12.48-.8.4-1.04 0-1.04zm-129.36 0c-.32 0-.48.32 0 1.04a13.6 13.6 0 0 1 2.64 5.12c.08 1.12-.4 1.12-.88 1.12-1.52 0-2.24-1.12-3.52-1.44-1.36-.24-1.6.4-.64 1.12a42.72 42.72 0 0 1 11.76 11.04c.8 1.52 1.84 2 1.28.64a18.96 18.96 0 0 1-1.92-10.08c.4-2.24.96-3.68.88-4.96 0-1.2-.8-1.12-1.04 0l-.8 2.24c-.32.4-1.44.64-2.4-.72a38.4 38.4 0 0 0-4.48-4.64c-.24-.24-.56-.4-.8-.48zm102.24-8.16c-.24 0-.48.32-.64.8-.56 1.6-2.32 4.96-3.2 6.24s-1.92.64-2.56-.8c-1.04-2.16-1.6-.88-1.04.48 1.68 3.52 1.44 9.28.4 16.24-.24 1.28.48 1.12.8 0a25.92 25.92 0 0 1 9.44-14.08c.96-.8.24-1.28-.4-.8a14.4 14.4 0 0 1-2.24 1.2c-.8.32-1.28.24-1.52-.8-.16-.96.16-3.12 1.36-7.2.16-.64 0-1.2-.24-1.28a.24.24 0 0 0-.16 0zm-75.28 0c-.24 0-.4.56-.16 1.36a20.8 20.8 0 0 1 1.28 7.2c-.24.96-.8 1.04-1.52.8a15.04 15.04 0 0 1-2.24-1.36c-.64-.4-1.36.08-.4.88 4.8 4 8.24 8.56 9.6 14.08.16 1.12.88 1.28.72 0-1.12-6.96-1.36-12.72.32-16.24.64-1.36 0-2.64-.96-.48-.72 1.44-1.76 2-2.64.8a38.32 38.32 0 0 1-3.2-6.16c-.16-.56-.4-.8-.64-.88a.24.24 0 0 0-.08 0zm37.76-1.76c-.64 0-.72.8-.72 1.36a9.84 9.84 0 0 1-1.6 5.12c-.8.96-1.84.72-2.8.16a17.84 17.84 0 0 1-2.64-1.76c-1.12-.8-1.92-.32-.64 1.52 3.68 5.28 7.68 9.76 7.68 18.4 0 1.04.24 1.36.72 1.36s.64-.32.64-1.44c0-8.56 4-13.04 7.68-18.4 1.28-1.76.48-2.24-.56-1.44a16.8 16.8 0 0 1-2.64 1.76c-1.04.56-2.08.8-2.8-.16a9.84 9.84 0 0 1-1.6-5.12c-.08-.56-.16-1.36-.8-1.36z"/><defs ><path id="B" d="M174.16 90.4c-.828 9.473-14.074-2.523-4.158-3.96 2.134-.1 4.26 1.766 4.158 3.96z"/><path id="C" d="M217.7 113c-1.035 11.84-17.593-3.154-5.197-4.95 2.667-.126 5.324 2.207 5.197 4.95z"/></defs></svg>
