<svg viewBox="0 0 640 480" xmlns="http://www.w3.org/2000/svg" xmlns:xlink="http://www.w3.org/1999/xlink"><defs><path id="a" d="m174.16 90.4c-.83 9.47-14.07-2.52-4.16-3.96 2.13-.1 4.26 1.77 4.16 3.96z"/><path id="b" d="m217.7 113c-1.03 11.84-17.59-3.15-5.2-4.95 2.67-.13 5.32 2.21 5.2 4.95z"/></defs><path d="m0 0h640v240h-640z" fill="#002b7f"/><path d="m0 240h640v240h-640z" fill="#ce1126"/><g stroke="#000" stroke-linejoin="round"><g fill="#ffd83d"><path d="m173.12 97.84-1.52 50h-50.72c-6.84-13.05-13.87-27.82-10.32-42.91 3.51-11.77 17.6-16.56 28.73-14.06 11.49 1.14 22.62 4.4 33.84 6.97z" stroke-width="1.6"/><g stroke-width="1.2"><path d="m115.6 100.16v28.8m4-31.76v38.4m4.16-40.4v45.76m4-46.72v35.92m4.08-36.08v36.24m4.08-37.6v37.6m4.08-37.6v37.6m4.08-37.2v37.6m4.08-37.2v37.52m4.08-35.2v37.6m4-37.2v42.32m4.16-42.32v37.6m4-37.6v37.6" stroke-linecap="round"/><path d="m141.12 94.4c9.91 2.23 20.57 7.04 24.91 16.87 2.42 7.03-2.42 17.9-10.97 16.23-7.61-1.27-16.19-4.94-23.38-.29-4.25 7.22-14.45 2.35-19.14 4.22-.73 6.12-.11 12.36-.3 18.55-.63 2.77.39 3.89 3.19 3.23h61.94v-55.61l-36.24-3.2z"/></g><g stroke-width="1.6"><use xlink:href="#a"/><use x="-8.88" xlink:href="#a" y="-2.16"/><use x="-17.92" xlink:href="#a" y="-4.4"/><use x="-26.96" xlink:href="#a" y="-5.92"/><use x="-36" xlink:href="#a" y="-6.8"/><use x="-44.8" xlink:href="#a" y="-6.32"/><use x="-53.28" xlink:href="#a" y="-3.44"/><use x="-60.4" xlink:href="#a" y="1.84"/><use x="-65.44" xlink:href="#a" y="9.12"/><use x="-67.92" xlink:href="#a" y="17.76"/><use x="-67.84" xlink:href="#a" y="26.64"/><use x="-66.08" xlink:href="#a" y="35.36"/><path d="m172 95.6c.09 8.03-9.21 3.39-13.53 1.91-12.31-2.64-26.1-6.76-37.99-.35-7.85 4.69-7.95 15.33-5.91 23.22 2.01 8.66 6.1 16.65 10.71 24.2-4.69 4.78-10.98.83-11.17-5.12-5.7-11.98-10.51-26.66-4.23-39.37 5.96-10.32 19.23-13.66 30.31-11.33 10.81 1.24 21.23 4.49 31.8 6.86z"/></g><g transform="matrix(-.8 0 0 .8 355.2 0)"><path d="m216.4 122.3-1.9 62.5h-63.4c-8.55-16.3-17.33-34.78-12.9-53.63 4.38-14.71 21.99-20.7 35.91-17.58 14.37 1.42 28.27 5.5 42.3 8.7z" stroke-width="2"/><g stroke-width="1.5"><path d="m144.5 125.2v36m5-39.7v48m5.2-50.5v57.2m5-58.4v44.9m5.1-45.1v45.3m5.1-47v47m5.1-47v47m5.1-46.5v47m5.1-46.5v46.9m5.1-44v47m5-46.5v52.9m5.2-52.9v47m5-47v47" stroke-linecap="round"/><path d="m176.4 118c12.38 2.78 25.71 8.81 31.14 21.08 3.03 8.79-3.03 22.37-13.72 20.28-9.52-1.59-20.24-6.17-29.23-.36-5.31 9.03-18.06 2.93-23.92 5.27-.91 7.65-.14 15.45-.38 23.18-.78 3.46.49 4.86 3.98 4.04h77.42v-69.49l-45.3-4z"/></g><g stroke-width="2"><use xlink:href="#b"/><use x="-11.1" xlink:href="#b" y="-2.7"/><use x="-22.4" xlink:href="#b" y="-5.5"/><use x="-33.7" xlink:href="#b" y="-7.4"/><use x="-45" xlink:href="#b" y="-8.5"/><use x="-56" xlink:href="#b" y="-7.9"/><use x="-66.6" xlink:href="#b" y="-4.3"/><use x="-75.5" xlink:href="#b" y="2.3"/><use x="-81.8" xlink:href="#b" y="11.4"/><use x="-84.9" xlink:href="#b" y="22.2"/><use x="-84.8" xlink:href="#b" y="33.3"/><use x="-82.6" xlink:href="#b" y="44.2"/><path d="m215 119.5c.11 10.04-11.51 4.24-16.92 2.38-15.38-3.3-32.62-8.46-47.49-.44-9.81 5.87-9.93 19.16-7.38 29.02 2.51 10.82 7.62 20.82 13.4 30.24-5.86 5.97-13.73 1.03-13.96-6.4-7.13-14.98-13.14-33.33-5.29-49.21 7.45-12.9 24.03-17.07 37.89-14.16 13.51 1.55 26.54 5.62 39.76 8.57z"/></g></g><g stroke-width="1.6"><path d="m177.6 42.48-4.16 7.76 4.16 7.68 4.08-7.68-4.08-7.84zm0 19.52-4.16 7.68 4.16 7.76 4-7.84-4.08-7.68zm-14.72-2 6.48 4.08 6.48-4.08-6.4-4.16zm16.4 0 6.48 4.08 6.56-4.08-6.56-4.16-6.4 4.16z"/><circle cx="177.6" cy="60.08" r="3.12"/><circle cx="177.6" cy="80" r="8.4"/></g></g><path d="m175.44 71.92v5.28a50 50 0 0 0 -5.92.64m16.16 0a49.68 49.68 0 0 0 -6-.64v-5.28m-10.24 10.16a49.12 49.12 0 0 1 8.16-.72c2.72 0 5.44.24 8 .72" fill="none" stroke-linecap="round" stroke-width="1.2"/><g fill="#ffd83d" stroke-width="1.6"><path d="m169.44 94.16c-.8 13.6-2.4 27.6-7.76 37.68l8.64-3.52c3.04-11.44 3.68-26.24 4.56-33.28zm16.32 0-5.52.88c.96 7.04 1.6 21.84 4.56 33.28l8.64 3.52c-5.28-10.08-6.88-24-7.68-37.68z"/><path d="m177.6 123.76c-8.17-.67-17.23 4.73-18 13.43-.1 7.7-4.18-3.14-6.78-4.4-4.47-4.85-11.17-10-18.13-7.83-6.96 2.86-9.64 11.26-8.94 18.24-2.61-9.9-14.63-15.95-24.01-11.43-4.79.71-6.75 5.62-1.82 7.99 7.38 11 9.52 24.68 17.35 35.45h120.56c8.87-11.99 10.26-28.1 20.5-39.24-2.51-5.12-9.34-5.84-14.46-5.52-6.91-.53-12.25 8.48-14.36 11.2.17-7.21-3.54-15.98-11.41-17.28-9.61.04-16.19 8.34-21.43 15.35-2.65-4.23-2.59-12.27-9.38-14-3.02-1.41-6.38-1.96-9.69-1.94z"/></g><g stroke-width="1.2"><path d="m237.68 175.2c0 4.48-26.88 9.36-60.08 9.36s-60.16-4.8-60.16-9.36c0-4.4 26.96-6.8 60.16-6.8 33.12 0 60.08 2.4 60.08 6.8z"/><g fill="#ffd83d"><circle cx="177.6" cy="91.52" r="2.8"/><circle cx="177.6" cy="97.6" r="2.96"/><circle cx="177.6" cy="104.16" r="3.28"/><circle cx="177.6" cy="111.44" r="3.76"/></g></g></g><path d="m242.24 143.84c-.24 0-.56.16-.88.48a38.56 38.56 0 0 0 -4.4 4.64c-1.04 1.36-2.16 1.12-2.4.8a9.6 9.6 0 0 1 -.8-2.32c-.32-1.12-1.04-1.2-1.12 0 0 1.28.48 2.72.88 4.96s0 5.76-1.84 10.08c-.64 1.36.48.8 1.28-.64a42.4 42.4 0 0 1 11.68-11.04c.96-.72.8-1.36-.56-1.12-1.36.32-2.08 1.44-3.52 1.44-.48 0-1.04 0-.96-1.12.08-1.04 1.44-3.52 2.64-5.12.48-.8.4-1.04 0-1.04zm-129.36 0c-.32 0-.48.32 0 1.04a13.6 13.6 0 0 1 2.64 5.12c.08 1.12-.4 1.12-.88 1.12-1.52 0-2.24-1.12-3.52-1.44-1.36-.24-1.6.4-.64 1.12a42.72 42.72 0 0 1 11.76 11.04c.8 1.52 1.84 2 1.28.64a18.96 18.96 0 0 1 -1.92-10.08c.4-2.24.96-3.68.88-4.96 0-1.2-.8-1.12-1.04 0l-.8 2.24c-.32.4-1.44.64-2.4-.72a38.4 38.4 0 0 0 -4.48-4.64c-.24-.24-.56-.4-.8-.48zm102.24-8.16c-.24 0-.48.32-.64.8-.56 1.6-2.32 4.96-3.2 6.24s-1.92.64-2.56-.8c-1.04-2.16-1.6-.88-1.04.48 1.68 3.52 1.44 9.28.4 16.24-.24 1.28.48 1.12.8 0a25.92 25.92 0 0 1 9.44-14.08c.96-.8.24-1.28-.4-.8a14.4 14.4 0 0 1 -2.24 1.2c-.8.32-1.28.24-1.52-.8-.16-.96.16-3.12 1.36-7.2.16-.64 0-1.2-.24-1.28a.24.24 0 0 0 -.16 0zm-75.28 0c-.24 0-.4.56-.16 1.36a20.8 20.8 0 0 1 1.28 7.2c-.24.96-.8 1.04-1.52.8a15.04 15.04 0 0 1 -2.24-1.36c-.64-.4-1.36.08-.4.88 4.8 4 8.24 8.56 9.6 14.08.16 1.12.88 1.28.72 0-1.12-6.96-1.36-12.72.32-16.24.64-1.36 0-2.64-.96-.48-.72 1.44-1.76 2-2.64.8a38.32 38.32 0 0 1 -3.2-6.16c-.16-.56-.4-.8-.64-.88a.24.24 0 0 0 -.08 0zm37.76-1.76c-.64 0-.72.8-.72 1.36a9.84 9.84 0 0 1 -1.6 5.12c-.8.96-1.84.72-2.8.16a17.84 17.84 0 0 1 -2.64-1.76c-1.12-.8-1.92-.32-.64 1.52 3.68 5.28 7.68 9.76 7.68 18.4 0 1.04.24 1.36.72 1.36s.64-.32.64-1.44c0-8.56 4-13.04 7.68-18.4 1.28-1.76.48-2.24-.56-1.44a16.8 16.8 0 0 1 -2.64 1.76c-1.04.56-2.08.8-2.8-.16a9.84 9.84 0 0 1 -1.6-5.12c-.08-.56-.16-1.36-.8-1.36z"/></svg>