<svg viewBox="0 0 640 480" xmlns="http://www.w3.org/2000/svg" xmlns:xlink="http://www.w3.org/1999/xlink"><defs><path id="a" d="m177.2 696.3c0 24.4-9.6 44.3-21.3 44.3s-21.3-19.9-21.3-44.3 9.7-44.3 21.4-44.3 21.3 19.8 21.3 44.3z"/><path id="b" d="m248.07 140.39c-.28 0-12.2-11.65-12.2-11.65l-12.2 11.65-12.2-11.65-12.2 11.65"/><path id="c" d="m394.63 140.39c.28 0 12.2-11.65 12.2-11.65l12.2 11.65 12.2-11.65 12.2 11.65"/><path id="d" d="m312.39 271.67c0 3.4-3.97 6.16-8.86 6.16s-8.86-2.76-8.86-6.16 3.97-6.16 8.86-6.16 8.86 2.76 8.86 6.16z"/><path id="e" d="m279.79 273.32c0 2.56-2.17 4.64-4.86 4.64s-4.86-2.08-4.86-4.64 2.17-4.64 4.86-4.64 4.86 2.08 4.86 4.64z"/><path id="f" d="m209 776c0 7.8-10.2 14.2-23 14.2s-23-6.4-23-14.2 10.3-14.2 23-14.2 23 6.4 23 14.2z"/></defs><g fill-rule="evenodd"><path d="m0 0h213.3v480h-213.3z" fill="#00319c"/><path d="m213.3 0h213.4v480h-213.4z" fill="#ffde00"/><path d="m426.7 0h213.3v480h-213.3z" fill="#de2110"/></g><g stroke="#000"><g fill-rule="evenodd"><path d="m360.4 320.4 24.2 35c1.4 2 2.7 3.9.7 5.2s-1.4 6.4 0 8.4c2.7 3.9 6 4.5 8 3.2l18.4-11.6c2-1.2 2.7-4.5 0-8.4-1.5-2-6-4.5-8-3.2-2.1 1.3-3.5-.7-4.8-2.6l-24.3-35" fill="#ff1900" stroke-width=".7"/><use fill="#a77b3b" stroke-width="2.5" transform="matrix(.53 -.42 .44 .5 -32.4 20)" xlink:href="#a"/><path d="m262 306.1-21.5 36.7c-1.2 2-2.4 4-4.5 3-2.1-1.2-6.6 1.7-7.8 3.8-2.4 4-1.5 7.2.7 8.4l19.2 10.2c2 1.1 5.4.2 7.8-3.8 1.1-2.2 1.4-7.3-.7-8.4s-1-3.2.3-5.2l21.4-36.7" fill="#ff1900" stroke-width=".7"/><path d="m331.2 280.6h-19.6c-.6.6-6.2 35.6-12.2 49-7.3 16.3-29.2 30.7-29.2 30.7s13.1 4 17 6.6c1-.3 22-4.7 24.4-30.3 2.4 25.6-14.6 37.3-14.6 37.3s24.4 7 24.4 23.3c0-16.3 24.4-23.3 24.4-23.3s-12.2-11.7-14.7-37.3c5 25.6 23.5 30 24.5 30.3 3.9-2.6 17-6.6 17-6.6s-21.9-14.4-29.2-30.7c-6-13.4-11.6-48.4-12.2-49zm-83-116.7 36.6 11.7c12.1 0 24.4-11.7 24.4-23.4.4-26-9.8-35-12.2-35l4.8-4.6-7.3-7s2.5-12.1 26.9-11.7c24.4.5 24.4 11.7 24.4 23.3s-12.2 11.7-12.2 35c0 11.7 12.2 23.4 24.4 23.4l36.6-11.7v116.7h-146.5v-116.7z" fill="#a77b3b" stroke-width="1.7"/></g><g fill="none"><path d="m304.37 168.65 2.44 7.02 2.46-7.02 2.44 7.02 4.89-7.02 2.39 7.39 2.51-7.39 3.61 7.39 3.72-7.39 2.44 7.02 2.46-7.02" stroke-width=".18"/><path d="m314.06 142.76-4.89 25.66m7.3-25.66v25.66m4.89-25.66v25.66m4.89-25.66 2.41 25.66m2.48-25.66 2.41 25.66" stroke-width=".14"/></g><path d="m223.68 93.8c-24.39 11.65-24.39 35.01-24.39 46.65.83 10.59 0 233.13 0 233.13s1.59-13.16 12.2-23.29l12.13-11.65 12.2-11.65c8.94-7.76 12.18-23.35 12.18-35v-163.18s0-11.71-24.39-35.01z" fill="#a77b3b" fill-rule="evenodd" stroke-width="1.68"/><g fill="none"><g stroke-width="1.68"><use xlink:href="#b"/><path d="m248.07 152.51c-.28 0-12.2 11.65-12.2 11.65l-12.2-11.65-12.2 11.65-12.2-11.65"/><use xlink:href="#b" y="46.6"/></g><path d="m235.74 128.89.14 198.34" stroke-width="2.52"/><path d="m223.74 140.56.14 197.86" stroke-width="2.33"/><path d="m211.54 129.06.14 221.68" stroke-width="2.53"/></g><path d="m419.02 93.8c24.39 11.65 24.39 35.01 24.39 46.65-.83 10.59 0 233.13 0 233.13s-1.59-13.16-12.2-23.29l-12.13-11.65-12.2-11.65c-8.96-7.76-12.2-23.36-12.2-35.01v-163.17s0-11.71 24.39-35.01z" fill="#a77b3b" fill-rule="evenodd" stroke-width="1.68"/><g fill="none"><g stroke-width="1.68"><use xlink:href="#c"/><path d="m394.63 152.51c.28 0 12.2 11.65 12.2 11.65l12.2-11.65 12.2 11.65 12.2-11.65"/><use xlink:href="#c" y="46.6"/></g><path d="m406.97 128.89-.14 198.34" stroke-width="2.52"/><path d="m419.07 140.56-.14 197.86" stroke-width="2.33"/><path d="m431.27 129.06-.14 221.68" stroke-width="2.53"/></g><use fill="#a77b3b" fill-rule="evenodd" stroke-width="2.5" transform="matrix(.64 .25 -.27 .61 361.1 -165.2)" xlink:href="#a"/></g><g fill-rule="evenodd"><path d="m248.1 175.6h146.5v70h-146.5z" fill="#f00"/><path d="m248.1 245.6h146.5v35c0 23.3-36.6 23.3-73.2 46.6-36.7-23.2-73.4-23.2-73.4-46.6v-35z" fill="#564dff"/></g><path d="m248.12 175.39h146.48v105.01c0 23.29-36.59 23.29-73.24 46.65-36.59-23.36-73.24-23.36-73.24-46.72v-104.87z" fill="none" stroke="#ff0" stroke-width="1.35"/><g fill-rule="evenodd"><g fill="#ff0" stroke="#000"><g stroke-width="1.01"><path d="m294.36 180.24s-24.39 17.15-24.39 33.56 25.59 21.91 25.59 21.91-8.53 0-8.53 21.88c0 10.97 25.59 5.5 25.59 10.97s-.34 18.7 0 27.38c0 5.47-17.06 0-17.06 5.47 0 2.72 12.82 16.41 25.64 16.41s25.59-13.69 25.59-16.41c0-5.47-17.06 0-17.06-5.47v-27.39c0-5.47 25.59 0 25.59-10.97 0-21.88-8.53-21.88-8.53-21.88s25.64-5.47 25.64-21.91-24.44-33.56-24.44-33.56 13.74 22.62 13.74 33.56c0 5.47-6.41 16.44-23.47 16.44 0 0-4.34-5.5-8.53 0 0 0-4.92-5.5-8.53 0-1.25 1.85-3.47-5.5-8.58 0-2.12 1.45-3.86-5.5-8.53 0-8.53 0-25.59-5.5-25.59-16.44s15.86-33.56 15.86-33.56z"/><path d="m294.86 278.23c-1.74 1.11 2.22 18.94 3.37 19.71 1.74 1.08 12 1.08 13.7 0 1.21-.77 0-17.52-1.69-18.6-1.74-1.11-14.17-1.85-15.42-1.11zm53.08 0c1.74 1.11-2.22 18.94-3.37 19.71-1.74 1.08-12 1.08-13.7 0-1.21-.77 0-17.52 1.69-18.6 1.74-1.11 14.17-1.85 15.42-1.11z"/></g><g stroke-width="1.19"><use xlink:href="#d"/><use x="35.3" xlink:href="#d"/></g></g><path d="m336.8 307.5c0 1.5-2 2.7-4.3 2.7-2.4 0-4.3-1.2-4.3-2.7s2-2.7 4.3-2.7 4.3 1.2 4.3 2.7zm-22.3 0c0 1.5-1.9 2.7-4.2 2.7-2.4 0-4.3-1.2-4.3-2.7s1.9-2.7 4.3-2.7c2.3 0 4.2 1.2 4.2 2.7z"/><g fill="#ff0" stroke="#000"><path d="m321.28 219.8-5.24-6.61-8.6 1.09 1.2-8.22-6.92-4.94 6.92-5.01-1.2-8.22 8.6 1.16 5.24-6.61 5.24 6.61 8.53-1.16-1.14 8.22 6.85 5.01-6.85 5.01 1.14 8.15-8.6-1.09z" stroke-width=".72"/><path d="m357.94 245.34 14.68 7.04 14.68-7.04-14.68-6.98-14.61 6.98zm-105 0 14.68 7.04 14.68-7.04-14.68-6.98-14.61 6.98z" stroke-width=".74"/><path d="m535 659c-3.5-7-14.1-10.6-21.2-10.6s-14.2 0-21.3 10.7c0-14.2 10.5-21.3 21.3-21.3a22.7 22.7 0 0 1 21.2 21.3z" stroke-width="1.1" transform="matrix(.6 -.33 .34 .57 -165.2 86.5)"/><g stroke-width=".74"><use xlink:href="#e"/><use x="-4.9" xlink:href="#e" y="16.3"/><use x="-7.3" xlink:href="#e" y="7"/><use x="4.9" xlink:href="#e" y="16.3"/><use x="7.3" xlink:href="#e" y="7"/><use xlink:href="#e" y="9.3"/></g></g><path d="m297.8 120.4c-12.4 0-14 2-19.6 3.9 0-5.4 13.8-11.7 26-11.7 0 3.9-3.2 7.8-6.4 7.8z" fill="#da4500"/><path d="m316.5 108c0 2.5-2.2 4.6-4.9 4.6s-4.9-2.1-4.9-4.7 2.2-4.6 4.9-4.6 4.9 2 4.9 4.6z" fill="#cac9c7"/><path d="m265.21 91.5v6.98h12.19v34.94h7.37v-34.94h12.2v-6.98h-12.2v-9.34h-7.44v9.34h-12.2z" fill="#ff0" stroke="#000" stroke-width=".74"/><path d="m304.3 112.6a78.5 78.5 0 0 0 -29.3 3.9c0-7.2 8.4-15.6 22.8-15.6 3.2 0 6.5 7.8 6.5 11.7z" fill="#da4500"/><path d="m67.3 613c-14.2-14.2-16.6-21.4 3.6-10.1l283.7 247.5-3.4 7-283.8-244.4z" fill="#008500" stroke="#000" stroke-width=".7" transform="matrix(.39 .3 -.14 .24 237.4 71.3)"/><g fill="#008f00"><path d="m228.4 330.4c.8-10.6-18.6-22-19.4-21.3-.7.8 1.2 7 4.9 10.1-7-3.6-14.4-5.8-14.6-4.3-.6 2.2 11 7.2 12 9.2 0 1.4-8.6 1.2-8.4 2.6s24.3 13.6 25.5 3.7zm-19.4-30.8c.8-10.6-18.6-22-19.3-21.3-.8.7 1.1 6.9 4.8 10.1-7-3.6-14.4-5.9-14.6-4.3-.5 2.1 11 7.2 12 9.2.1 1.4-8.5 1.2-8.4 2.6.2 1.4 24.3 13.5 25.5 3.7zm-14.8-28c.8-10.6-18.6-22-19.4-21.3-.7.7 1.2 6.9 4.9 10.1-7-3.6-14.4-5.9-14.6-4.3-.5 2.1 11 7.2 12 9.2 0 1.4-8.5 1.2-8.4 2.6.2 1.4 24.3 13.6 25.5 3.7zm-14.6-30.4c.7-10.5-18.6-22-19.4-21.3-.8.8 1.2 7 4.8 10.2-7-3.7-14.4-5.9-14.5-4.3-.6 2.1 11 7.2 11.9 9.1.1 1.4-8.5 1.3-8.3 2.7.1 1.4 24.2 13.5 25.5 3.6z"/><path d="m184.6 239.9c9.4-5.7 7.5-27.4 6.5-27.6-1.1-.1-5.2 5-5.7 9.8-1.1-7.6-3.6-14.6-5-13.8-2.1.8.4 12.7-.7 14.6-1 1-6-5.8-7-4.8-1.2 1 2.8 26.7 12 21.8zm13.6 26.6c10.8-2.4 16.7-23.4 15.7-23.9s-6.6 3-8.7 7.4c1.6-7.5 1.7-14.9 0-14.6-2.3.1-4 12.1-5.7 13.5-1.3.6-3.7-7.3-5-6.8-1.4.6-6.6 26.1 3.7 24.4zm16.2 27.2c9.9-4.8 10-26.6 9-26.8-1-.3-5.5 4.5-6.5 9.2-.4-7.7-2.2-14.8-3.7-14.1-2.2.6-.8 12.6-2 14.4-1.2.9-5.5-6.3-6.7-5.4-1.2.8.4 26.8 10 22.7zm17.6 35.6c10.3-3.9 12.8-25.5 11.8-25.9-1-.3-6 4-7.5 8.6.4-7.7-.6-15-2.2-14.4-2.3.4-2.1 12.5-3.5 14.2-1.3.7-4.8-6.8-6-6-1.3.6-2.5 26.7 7.4 23.5z"/></g><g stroke="#000"><use fill="#ff1900" stroke-width="1.1" transform="matrix(.6 .32 -.34 .57 389.6 -146.8)" xlink:href="#f"/><g fill="#ff0" stroke-width=".5" transform="matrix(.5 .16 -.18 .47 451.4 -3.7)"><path d="m156 414.6v-7.1h7v-7.1h7v7h7.2v7.2h-7.2v17.7h-7v-17.7zm7 60.2h7v205.5h-7z"/><path d="m159.4 676.8h14.2v56.7h-14.2zm-3.4-237.4h21.3c14.1 0-3.6 39-3.6 39h-14.1s-17.8-39-3.6-39zm17.6-5.4c0 3-3.1 5.4-7 5.4s-7.1-2.4-7.1-5.3 3.1-5.4 7-5.4 7.1 2.4 7.1 5.4z"/></g><use fill="#ff1900" stroke-width="1.1" transform="matrix(.57 -.36 .38 .55 -2.3 4.2)" xlink:href="#f"/></g></g></svg>