<svg xmlns="http://www.w3.org/2000/svg" xmlns:xlink="http://www.w3.org/1999/xlink" viewBox="0 0 640 480"><style><![CDATA[.B{fill-rule:evenodd}.C{stroke:#000}.D{fill:#a77b3b}.E{fill:#ff1900}.F{stroke-width:1.684}.G{stroke-width:.7}.H{stroke-width:.741}.I{stroke-width:1.1}.J{stroke-width:2.522}.K{stroke-width:2.326}.L{stroke-width:2.532}]]></style><g class="B"><path d="M0 0h213.3v480H0z" fill="#00319c"/><path d="M213.3 0h213.4v480H213.3z" fill="#ffde00"/><path d="M426.7 0H640v480H426.7z" fill="#de2110"/></g><g class="C"><g class="B"><path d="m360.4 320.4 24.2 35c1.4 2 2.7 3.9.7 5.2s-1.4 6.4 0 8.4c2.7 3.9 6 4.5 8 3.2l18.4-11.6c2-1.2 2.7-4.5 0-8.4-1.5-2-6-4.5-8-3.2-2.1 1.3-3.5-.7-4.8-2.6l-24.3-35" class="E G"/><use xlink:href="#B" stroke-width="2.5" transform="matrix(.527 -.424 .444 .504 -32.4 20)" class="D"/><path d="m262 306.1-21.5 36.7c-1.2 2-2.4 4-4.5 3-2.1-1.2-6.6 1.7-7.8 3.8-2.4 4-1.5 7.2.7 8.4l19.2 10.2c2 1.1 5.4.2 7.8-3.8 1.1-2.2 1.4-7.3-.7-8.4s-1-3.2.3-5.2l21.4-36.7" class="E G"/><path d="M331.2 280.6h-19.6c-.6.6-6.2 35.6-12.2 49-7.3 16.3-29.2 30.7-29.2 30.7s13.1 4 17 6.6c1-.3 22-4.7 24.4-30.3 2.4 25.6-14.6 37.3-14.6 37.3s24.4 7 24.4 23.3c0-16.3 24.4-23.3 24.4-23.3s-12.2-11.7-14.7-37.3c5 25.6 23.5 30 24.5 30.3 3.9-2.6 17-6.6 17-6.6s-21.9-14.4-29.2-30.7c-6-13.4-11.6-48.4-12.2-49zm-83-116.7l36.6 11.7c12.1 0 24.4-11.7 24.4-23.4.4-26-9.8-35-12.2-35l4.8-4.6-7.3-7s2.5-12.1 26.9-11.7c24.4.5 24.4 11.7 24.4 23.3s-12.2 11.7-12.2 35c0 11.7 12.2 23.4 24.4 23.4l36.6-11.7v116.7H248.1V163.9z" stroke-width="1.7" class="D"/></g><g fill="none"><path d="M304.367 168.65l2.438 7.02 2.455-7.02 2.438 7.02 4.893-7.02 2.388 7.394 2.505-7.394 3.607 7.394 3.724-7.394 2.438 7.02 2.455-7.02" stroke-width=".176"/><path d="M314.055 142.756l-4.892 25.662m7.303-25.662v25.662m4.892-25.662v25.662m4.892-25.662l2.41 25.662m2.48-25.662l2.41 25.662" stroke-width=".135"/></g><path d="M223.678 93.8c-24.39 11.647-24.39 35.006-24.39 46.652.827 10.594 0 233.13 0 233.13s1.585-13.16 12.195-23.293l12.126-11.647 12.195-11.647C244.76 319.232 248 303.637 248 291.99V128.807s0-11.712-24.39-35.006z" class="B D F"/><g fill="none"><g class="F"><use xlink:href="#C" /><path d="M248.07 152.508c-.276 0-12.195 11.647-12.195 11.647l-12.195-11.647-12.195 11.647-12.195-11.647"/><use xlink:href="#C" y="46.6"/></g><path d="M235.735 128.893l.138 198.34" class="J"/><path d="M223.735 140.555l.138 197.856" class="K"/><path d="M211.535 129.06l.138 221.684" class="L"/></g><path d="M419.022 93.8c24.39 11.647 24.39 35.006 24.39 46.652-.827 10.594 0 233.13 0 233.13s-1.585-13.16-12.195-23.293l-12.126-11.647-12.195-11.647c-8.957-7.764-12.195-23.36-12.195-35.006V128.807s0-11.712 24.39-35.006z" class="B D F"/><g fill="none"><g class="F"><use xlink:href="#D" /><path d="M394.63 152.508c.276 0 12.195 11.647 12.195 11.647l12.195-11.647 12.195 11.647 12.195-11.647"/><use xlink:href="#D" y="46.6"/></g><path d="M406.965 128.893l-.138 198.34" class="J"/><path d="M419.065 140.555l-.138 197.856" class="K"/><path d="M431.265 129.06l-.138 221.684" class="L"/></g><use xlink:href="#B" transform="matrix(.636 .253 -.265 .608 361.1 -165.2)" stroke-width="2.5" class="B D"/></g><g class="B"><path d="M248.1 175.6h146.5v70H248.1z" fill="red"/><path d="M248.1 245.6h146.5v35c0 23.3-36.6 23.3-73.2 46.6C284.7 304 248 304 248 280.6v-35z" fill="#564dff"/></g><path d="M248.117 175.393H394.6V280.4c0 23.293-36.586 23.293-73.24 46.652-36.586-23.36-73.24-23.36-73.24-46.718V175.46z" fill="none" stroke="#ff0" stroke-width="1.347"/><g class="B"><g fill="#ff0" class="C"><g stroke-width="1.012"><path d="M294.36 180.24s-24.39 17.15-24.39 33.557 25.594 21.908 25.594 21.908-8.53 0-8.53 21.877c0 10.97 25.594 5.5 25.594 10.97s-.337 18.695 0 27.377c0 5.47-17.063 0-17.063 5.47 0 2.72 12.82 16.408 25.642 16.408s25.594-13.69 25.594-16.408c0-5.47-17.063 0-17.063-5.47V268.55c0-5.47 25.594 0 25.594-10.97 0-21.877-8.53-21.877-8.53-21.877s25.642-5.47 25.642-21.908-24.437-33.557-24.437-33.557 13.737 22.62 13.737 33.557c0 5.47-6.41 16.44-23.473 16.44 0 0-4.338-5.5-8.53 0 0 0-4.916-5.5-8.53 0-1.253 1.854-3.47-5.5-8.58 0-2.12 1.452-3.856-5.5-8.53 0-8.53 0-25.594-5.5-25.594-16.44s15.858-33.557 15.858-33.557z"/><path d="M294.86 278.232c-1.735 1.112 2.217 18.942 3.374 19.714 1.735 1.082 12.002 1.082 13.7 0 1.205-.772 0-17.52-1.687-18.602-1.735-1.112-14.17-1.854-15.424-1.112zm53.08 0c1.735 1.112-2.217 18.942-3.374 19.714-1.735 1.082-12.002 1.082-13.7 0-1.205-.772 0-17.52 1.687-18.602 1.735-1.112 14.17-1.854 15.424-1.112z"/></g><g stroke-width="1.193"><use xlink:href="#E" /><use xlink:href="#E" x="35.3"/></g></g><path d="m336.8 307.5c0 1.5-2 2.7-4.3 2.7-2.4 0-4.3-1.2-4.3-2.7s2-2.7 4.3-2.7 4.3 1.2 4.3 2.7zm-22.3 0c0 1.5-1.9 2.7-4.2 2.7-2.4 0-4.3-1.2-4.3-2.7s1.9-2.7 4.3-2.7c2.3 0 4.2 1.2 4.2 2.7z"/><g fill="#ff0" class="C"><path d="M321.277 219.8l-5.242-6.613-8.602 1.09 1.2-8.218-6.922-4.943 6.922-5.008-1.2-8.218 8.602 1.156 5.242-6.613 5.242 6.613 8.534-1.156-1.142 8.218 6.854 5.008-6.854 5.008 1.142 8.153-8.602-1.09z" stroke-width=".723"/><path d="M357.944 245.34l14.676 7.04 14.676-7.04-14.676-6.975-14.607 6.975zm-105 0l14.676 7.04 14.676-7.04-14.676-6.975-14.607 6.975z" class="H"/><path d="m535 659c-3.5-7-14.1-10.6-21.2-10.6s-14.2 0-21.3 10.7c0-14.2 10.5-21.3 21.3-21.3a22.7 22.7 0 0 1 21.2 21.3z" transform="matrix(.598 -.328 .343 .571 -165.2 86.5)" class="I"/><g class="H"><use xlink:href="#F" /><use xlink:href="#F" x="-4.9" y="16.3"/><use xlink:href="#F" x="-7.3" y="7"/><use xlink:href="#F" x="4.9" y="16.3"/><use xlink:href="#F" x="7.3" y="7"/><use xlink:href="#F" y="9.3"/></g></g><path d="m297.8 120.4c-12.4 0-14 2-19.6 3.9 0-5.4 13.8-11.7 26-11.7 0 3.9-3.2 7.8-6.4 7.8z" fill="#da4500"/><path d="m316.5 108c0 2.5-2.2 4.6-4.9 4.6s-4.9-2.1-4.9-4.7 2.2-4.6 4.9-4.6 4.9 2 4.9 4.6z" fill="#cac9c7"/><path d="M265.205 91.498v6.975H277.4v34.94h7.372v-34.94h12.195v-6.975h-12.195v-9.344h-7.44v9.344h-12.195z" fill="#ff0" class="C H"/><path d="M304.3 112.6a78.5 78.5 0 0 0-29.3 3.9c0-7.2 8.4-15.6 22.8-15.6 3.2 0 6.5 7.8 6.5 11.7z" fill="#da4500"/><path d="M67.3 613c-14.2-14.2-16.6-21.4 3.6-10.1l283.7 247.5-3.4 7L67.4 613z" fill="#008500" transform="matrix(.388 .297 -.141 .237 237.4 71.3)" class="C G"/><g fill="#008f00"><path d="M228.4 330.4c.8-10.6-18.6-22-19.4-21.3-.7.8 1.2 7 4.9 10.1-7-3.6-14.4-5.8-14.6-4.3-.6 2.2 11 7.2 12 9.2 0 1.4-8.6 1.2-8.4 2.6s24.3 13.6 25.5 3.7zM209 299.6c.8-10.6-18.6-22-19.3-21.3-.8.7 1.1 6.9 4.8 10.1-7-3.6-14.4-5.9-14.6-4.3-.5 2.1 11 7.2 12 9.2.1 1.4-8.5 1.2-8.4 2.6.2 1.4 24.3 13.5 25.5 3.7zm-14.8-28c.8-10.6-18.6-22-19.4-21.3-.7.7 1.2 6.9 4.9 10.1-7-3.6-14.4-5.9-14.6-4.3-.5 2.1 11 7.2 12 9.2 0 1.4-8.5 1.2-8.4 2.6.2 1.4 24.3 13.6 25.5 3.7zm-14.6-30.4c.7-10.5-18.6-22-19.4-21.3-.8.8 1.2 7 4.8 10.2-7-3.7-14.4-5.9-14.5-4.3-.6 2.1 11 7.2 11.9 9.1.1 1.4-8.5 1.3-8.3 2.7.1 1.4 24.2 13.5 25.5 3.6z"/><path d="m184.6 239.9c9.4-5.7 7.5-27.4 6.5-27.6-1.1-.1-5.2 5-5.7 9.8-1.1-7.6-3.6-14.6-5-13.8-2.1.8.4 12.7-.7 14.6-1 1-6-5.8-7-4.8-1.2 1 2.8 26.7 12 21.8zm13.6 26.6c10.8-2.4 16.7-23.4 15.7-23.9s-6.6 3-8.7 7.4c1.6-7.5 1.7-14.9 0-14.6-2.3.1-4 12.1-5.7 13.5-1.3.6-3.7-7.3-5-6.8-1.4.6-6.6 26.1 3.7 24.4zm16.2 27.2c9.9-4.8 10-26.6 9-26.8-1-.3-5.5 4.5-6.5 9.2-.4-7.7-2.2-14.8-3.7-14.1-2.2.6-.8 12.6-2 14.4-1.2.9-5.5-6.3-6.7-5.4-1.2.8.4 26.8 10 22.7zm17.6 35.6c10.3-3.9 12.8-25.5 11.8-25.9-1-.3-6 4-7.5 8.6.4-7.7-.6-15-2.2-14.4-2.3.4-2.1 12.5-3.5 14.2-1.3.7-4.8-6.8-6-6-1.3.6-2.5 26.7 7.4 23.5z"/></g><g class="C"><use xlink:href="#G" transform="matrix(.602 .321 -.336 .575 389.6 -146.8)" class="E I"/><g fill="#ff0" transform="matrix(.499 .157 -.183 .471 451.4 -3.7)" stroke-width=".5"><path d="M156 414.6v-7.1h7v-7.1h7v7h7.2v7.2H170v17.7h-7v-17.7zm7 60.2h7v205.5h-7z"/><path d="M159.4 676.8h14.2v56.7h-14.2zM156 439.4h21.3c14.1 0-3.6 39-3.6 39h-14.1s-17.8-39-3.6-39zm17.6-5.4c0 3-3.1 5.4-7 5.4s-7.1-2.4-7.1-5.3 3.1-5.4 7-5.4 7.1 2.4 7.1 5.4z"/></g><use xlink:href="#G" transform="matrix(.574 -.364 .38 .549 -2.3 4.2)" class="E I"/></g></g><defs ><path id="B" d="M177.2 696.3c0 24.4-9.6 44.3-21.3 44.3s-21.3-19.9-21.3-44.3S144.3 652 156 652s21.3 19.8 21.3 44.3z"/><path id="C" d="M248.07 140.392c-.276 0-12.195-11.647-12.195-11.647l-12.195 11.647-12.195-11.647-12.195 11.647"/><path id="D" d="M394.63 140.392c.276 0 12.195-11.647 12.195-11.647l12.195 11.647 12.195-11.647 12.195 11.647"/><path id="E" d="M312.388 271.673c0 3.402-3.97 6.16-8.864 6.16s-8.864-2.758-8.864-6.16 3.97-6.16 8.864-6.16 8.864 2.758 8.864 6.16z"/><path id="F" d="M279.792 273.316c0 2.562-2.175 4.64-4.857 4.64s-4.857-2.077-4.857-4.64 2.175-4.64 4.857-4.64 4.857 2.077 4.857 4.64z"/><path id="G" d="m209 776c0 7.8-10.2 14.2-23 14.2s-23-6.4-23-14.2 10.3-14.2 23-14.2 23 6.4 23 14.2z"/></defs></svg>