<svg viewBox="0 0 640 480" xmlns="http://www.w3.org/2000/svg"><g fill-rule="evenodd"><path d="m320 0h320v480h-320z" fill="#ce0000"/><path d="m0 0h320v480h-320z" fill="#fff"/><path d="m155.175 141.892c0 1.44-1.44 2.4-3.198 2.4-1.92 0-3.198-.96-3.198-2.24s1.28-2.4 3.198-2.4c1.76 0 3.198 1.12 3.198 2.4z" fill="#f1eeee"/><path d="m52.68 130.7v59.483h59.643c0 9.914 9.914 19.828 19.828 19.828v59.483h59.643v-59.494c9.914 0 19.828-9.914 19.828-19.828h59.483v-59.472h-59.645c0-9.914-9.914-19.828-19.828-19.828v-59.482h-59.482v59.483c-10.074 0-19.988 9.914-19.988 19.828z" fill="#c00"/><path d="m54.758 132.618v55.645h59.483c0 9.914 9.914 19.828 19.828 19.828v59.483h55.485v-59.324c9.914 0 19.828-9.914 19.828-19.828h59.643v-55.645h-59.483c0-9.914-9.914-19.828-19.828-19.828v-59.642h-55.644v59.493c-9.914 0-19.828 9.914-19.828 19.828z" fill="#ffe600"/><path d="m56.677 134.697v51.488h59.483c0 9.914 9.914 19.828 19.828 19.828v59.483h51.648v-59.483c9.914 0 19.828-9.914 19.828-19.828h59.483v-51.488h-59.483c0-9.914-9.914-19.828-19.828-19.828v-59.483h-51.648v59.323c-9.914 0-19.828 9.914-19.828 19.828h-59.483z" fill="#707070"/><path d="m58.756 136.615v47.65h59.483c0 9.914 9.914 19.828 19.828 19.828v59.323h47.5v-59.483c9.914 0 19.828-9.914 19.828-19.828h59.483v-47.65h-59.483c0-9.914-9.914-19.828-19.828-19.828v-59.322h-47.5v59.483c-9.914 0-19.828 9.914-19.828 19.828h-59.643z" fill="#a0a0a0"/><path d="m113.28 183.786c3.518-3.518 11.993-.64 18.868 6.236s9.754 15.5 6.396 18.868c-3.518 3.518-11.993.8-19.028-6.236s-9.594-15.5-6.396-18.868zm25.266-71.956c3.358 3.518.64 11.993-6.396 19.028s-15.35 9.594-18.868 6.396c-3.518-3.678-.64-12.152 6.396-19.188s15.35-9.594 18.868-6.236z" fill="#d0d0d0"/><path d="m134.228 115.988c3.518 3.518 2.558 10.074-2.08 14.87s-11.193 5.597-14.71 2.08-2.558-10.074 2.08-14.71 11.193-5.597 14.71-2.24z" fill="#808080"/><path d="m210.34 137.095c-3.518 3.518-11.993.64-18.868-6.396s-9.914-15.35-6.396-18.868 11.993-.64 19.028 6.396 9.594 15.35 6.396 18.868z" fill="#d0d0d0"/><path d="m206.183 132.938c-3.518 3.518-10.074 2.558-14.71-2.08s-5.597-11.193-2.24-14.71c3.518-3.518 10.234-2.558 14.87 2.08s5.597 11.193 2.08 14.71z" fill="#808080"/><path d="m185.077 209.05c-3.518-3.518-.64-11.993 6.396-19.028s15.35-9.754 18.868-6.396c3.518 3.518.64 11.993-6.396 19.028s-15.35 9.754-18.868 6.396z" fill="#d0d0d0"/><path d="m189.394 204.733c-3.518-3.518-2.558-10.074 2.08-14.7s11.193-5.597 14.7-2.08 2.558 10.074-2.08 14.7-11.193 5.597-14.87 2.08zm-71.954-16.8c3.518-3.518 10.074-2.558 14.7 2.08s5.597 11.193 2.08 14.7c-3.358 3.518-10.074 2.558-14.7-2.08s-5.597-11.193-2.08-14.7z" fill="#808080"/></g><g fill="none" stroke="#707070"><path d="m203.625 160.44c0 22.946-18.648 41.638-41.67 41.638a41.606 41.606 0 0 1 -41.616-41.638c0-23.002 18.648-41.638 41.67-41.638s41.67 18.636 41.67 41.638z" stroke-width=".737"/><path d="m193.7 160.597c0 17.504-14.23 31.764-31.8 31.764s-31.76-14.215-31.76-31.764 14.23-31.764 31.8-31.764 31.8 14.215 31.8 31.764z" stroke-width=".563"/></g></svg>