<svg viewBox="0 0 640 480" xmlns="http://www.w3.org/2000/svg"><g fill-rule="evenodd"><path d="m320 0h320v480h-320z" fill="#ce0000"/><path d="m0 0h320v480h-320z" fill="#fff"/><path d="m155.18 141.89c0 1.44-1.44 2.4-3.2 2.4-1.92 0-3.2-.96-3.2-2.24s1.28-2.4 3.2-2.4c1.76 0 3.2 1.12 3.2 2.4z" fill="#f1eeee"/><path d="m52.68 130.7v59.48h59.64c0 9.91 9.91 19.83 19.83 19.83v59.48h59.64v-59.49c9.91 0 19.83-9.91 19.83-19.83h59.48v-59.47h-59.65c0-9.91-9.91-19.83-19.83-19.83v-59.48h-59.48v59.48c-10.07 0-19.99 9.91-19.99 19.83z" fill="#c00"/><path d="m54.76 132.62v55.65h59.48c0 9.91 9.91 19.83 19.83 19.83v59.48h55.49v-59.32c9.91 0 19.83-9.91 19.83-19.83h59.64v-55.65h-59.48c0-9.91-9.91-19.83-19.83-19.83v-59.64h-55.64v59.49c-9.91 0-19.83 9.91-19.83 19.83z" fill="#ffe600"/><path d="m56.68 134.7v51.49h59.48c0 9.91 9.91 19.83 19.83 19.83v59.48h51.65v-59.48c9.91 0 19.83-9.91 19.83-19.83h59.48v-51.49h-59.48c0-9.91-9.91-19.83-19.83-19.83v-59.48h-51.65v59.32c-9.91 0-19.83 9.91-19.83 19.83h-59.48z" fill="#707070"/><path d="m58.76 136.62v47.65h59.48c0 9.91 9.91 19.83 19.83 19.83v59.32h47.5v-59.48c9.91 0 19.83-9.91 19.83-19.83h59.48v-47.65h-59.48c0-9.91-9.91-19.83-19.83-19.83v-59.32h-47.5v59.48c-9.91 0-19.83 9.91-19.83 19.83h-59.64z" fill="#a0a0a0"/><path d="m113.28 183.79c3.52-3.52 11.99-.64 18.87 6.24s9.75 15.5 6.4 18.87c-3.52 3.52-11.99.8-19.03-6.24s-9.59-15.5-6.4-18.87zm25.27-71.96c3.36 3.52.64 11.99-6.4 19.03s-15.35 9.59-18.87 6.4c-3.52-3.68-.64-12.15 6.4-19.19s15.35-9.59 18.87-6.24z" fill="#d0d0d0"/><path d="m134.23 115.99c3.52 3.52 2.56 10.07-2.08 14.87s-11.19 5.6-14.71 2.08-2.56-10.07 2.08-14.71 11.19-5.6 14.71-2.24z" fill="#808080"/><path d="m210.34 137.1c-3.52 3.52-11.99.64-18.87-6.4s-9.91-15.35-6.4-18.87 11.99-.64 19.03 6.4 9.59 15.35 6.4 18.87z" fill="#d0d0d0"/><path d="m206.18 132.94c-3.52 3.52-10.07 2.56-14.71-2.08s-5.6-11.19-2.24-14.71c3.52-3.52 10.23-2.56 14.87 2.08s5.6 11.19 2.08 14.71z" fill="#808080"/><path d="m185.08 209.05c-3.52-3.52-.64-11.99 6.4-19.03s15.35-9.75 18.87-6.4c3.52 3.52.64 11.99-6.4 19.03s-15.35 9.75-18.87 6.4z" fill="#d0d0d0"/><path d="m189.39 204.73c-3.52-3.52-2.56-10.07 2.08-14.7s11.19-5.6 14.7-2.08 2.56 10.07-2.08 14.7-11.19 5.6-14.87 2.08zm-71.95-16.8c3.52-3.52 10.07-2.56 14.7 2.08s5.6 11.19 2.08 14.7c-3.36 3.52-10.07 2.56-14.7-2.08s-5.6-11.19-2.08-14.7z" fill="#808080"/></g><g fill="none" stroke="#707070"><path d="m203.63 160.44c0 22.95-18.65 41.64-41.67 41.64a41.61 41.61 0 0 1 -41.62-41.64c0-23 18.65-41.64 41.67-41.64s41.67 18.64 41.67 41.64z" stroke-width=".74"/><path d="m193.7 160.6c0 17.5-14.23 31.76-31.8 31.76s-31.76-14.22-31.76-31.76 14.23-31.76 31.8-31.76 31.8 14.22 31.8 31.76z" stroke-width=".56"/></g></svg>