<svg viewBox="0 0 640 480" xmlns="http://www.w3.org/2000/svg"><g stroke-width=".9"><path d="m0 0h640v480h-640z" fill="#009543"/><path d="m0 0h640v320h-640z" fill="#ed4135"/><path d="m0 0h640v160h-640z" fill="#0035ad"/></g><circle cx="240" cy="240" fill="#fae600" r="157.3" stroke="#000" stroke-width="5.3"/><path d="m213.3 263.5h53.3m-53.3-39.5h53.3m-26.6-140.8v268.8" stroke="#000" stroke-width="6.4"/><g stroke-width="1.1"><path d="m176.6 384.4c64.2 26.3 124.4 1.7 124.4 1.7s-22.7-24.6-34.3-34.2c-11.4-9.4-44.8-9-56.2 0a488.7 488.7 0 0 0 -33.9 32.5z"/><ellipse cx="240" cy="312.5" rx="17.6" ry="25.6"/><ellipse cx="240" cy="243.7" rx="21.3" ry="13.5"/><circle cx="240" cy="181.3" r="21.3"/><path d="m265.6 101.9s1.8 3-2 10c-18.6 33.5-37.3 34.2-40.8 37.1-4 3.2-5.6 3-5.6 3 .3-2.9.5-14.6.7-15.7 2.9-15.7 26.5-15.5 45-31.5 2.9-2.5 2.7-3 2.7-3z"/></g><path d="m203.201 173.867s4.267 11.947 4.8 24c1.067 19.2 19.413 19.733 32 19.733v-10.667c-9.493 0-17.707-1.387-24.533-15.467a122.667 122.667 0 0 0 -12.267-17.6zm-.533 154.667s6.72-8.32 14.613-27.733c4.053-10.133 13.867-16 22.72-16v-14.933c-20.267 0-30.08 7.467-31.04 18.56-2.133 22.507-6.293 40.107-6.293 40.107z" stroke-width="1.067"/></svg>