<svg viewBox="0 0 640 480" xmlns="http://www.w3.org/2000/svg" xmlns:xlink="http://www.w3.org/1999/xlink"><defs><clipPath id="a"><path d="m0 0h600v300h-600z"/></clipPath><clipPath id="b"><path d="m0 0 300 150h-300zm300 0h300l-300 150zm0 150h300v150zm0 0v150h-300z"/></clipPath><g id="c"><g id="d"><path d="m0-.3v.5l1-.5z"/><path d="m0 0v-.5l1 .5z" transform="matrix(.809 -.588 .588 .809 .213 .256)"/></g><use transform="scale(-1 1)" xlink:href="#d"/><use transform="matrix(.309 .951 -.951 .309 0 0)" xlink:href="#d"/><use transform="matrix(.309 -.951 .951 .309 0 0)" xlink:href="#d"/><use transform="matrix(-.309 .951 .951 .309 0 0)" xlink:href="#d"/></g></defs><path d="m0 0h640v480h-640z" fill="#00247d" fill-rule="evenodd"/><g transform="matrix(.668 0 0 .668 -93 36.1)"><use fill="#fff" height="100%" transform="matrix(45.4 0 0 45.4 900 120)" width="100%" xlink:href="#c"/><use fill="#cc142b" height="100%" transform="matrix(30 0 0 30 900 120)" width="100%" xlink:href="#c"/></g><g transform="matrix(.093 .662 -.662 .093 583.637 -421.398)"><use fill="#fff" height="100%" transform="matrix(5.623 -40.007 40.007 5.623 900.015 119.949)" width="100%" xlink:href="#c"/><use fill="#cc142b" height="100%" transform="matrix(3.479 -24.757 24.757 3.479 900.015 119.949)" width="100%" xlink:href="#c"/></g><g transform="matrix(.093 .662 -.662 .093 583.637 -421.398)"><use fill="#fff" height="100%" transform="matrix(6.318 -44.958 44.958 6.318 900.06 380)" width="100%" xlink:href="#c"/><use fill="#cc142b" height="100%" transform="matrix(4.175 -29.708 29.708 4.175 900.06 380)" width="100%" xlink:href="#c"/></g><g transform="matrix(.668 0 0 .668 -93 36.1)"><use fill="#fff" height="100%" transform="matrix(50.4 0 0 50.4 900 480)" width="100%" xlink:href="#c"/><use fill="#cc142b" height="100%" transform="matrix(35 0 0 35 900 480)" width="100%" xlink:href="#c"/></g><path clip-path="url(#a)" d="m0 0 600 300m-600 0 600-300" stroke="#fff" stroke-width="60" transform="scale(.607 .731)"/><path clip-path="url(#b)" d="m0 0 600 300m-600 0 600-300" stroke="#cc142b" stroke-width="40" transform="scale(.607 .731)"/><path clip-path="url(#a)" d="m151.7 0v79.4h-151.7v60.6h151.7v79.4h60.7v-79.3h151.6v-60.7h-151.6v-79.4z" fill="#fff"/><path d="m163.8 0v91.5h-163.8v36.4h163.8v91.5h36.4v-91.4h163.9v-36.5h-163.9v-91.5z" fill="#cc142b"/></svg>