<svg viewBox="0 0 640 480" xmlns="http://www.w3.org/2000/svg" xmlns:xlink="http://www.w3.org/1999/xlink"><defs><clipPath id="a"><path d="m0 0h600v300h-600z"/></clipPath><clipPath id="b"><path d="m0 0 300 150h-300zm300 0h300l-300 150zm0 150h300v150zm0 0v150h-300z"/></clipPath><g id="c"><g id="d"><path d="m0-.3v.5l1-.5z"/><path d="m0 0v-.5l1 .5z" transform="matrix(.81 -.59 .59 .81 .21 .26)"/></g><use transform="scale(-1 1)" xlink:href="#d"/><use transform="matrix(.31 .95 -.95 .31 0 0)" xlink:href="#d"/><use transform="matrix(.31 -.95 .95 .31 0 0)" xlink:href="#d"/><use transform="matrix(-.31 .95 .95 .31 0 0)" xlink:href="#d"/></g></defs><path d="m0 0h640v480h-640z" fill="#00247d" fill-rule="evenodd"/><g transform="matrix(.67 0 0 .67 -93 36.1)"><use fill="#fff" height="100%" transform="matrix(45.4 0 0 45.4 900 120)" width="100%" xlink:href="#c"/><use fill="#cc142b" height="100%" transform="matrix(30 0 0 30 900 120)" width="100%" xlink:href="#c"/></g><g transform="matrix(.09 .66 -.66 .09 583.64 -421.4)"><use fill="#fff" height="100%" transform="matrix(5.62 -40.01 40.01 5.62 900.02 119.95)" width="100%" xlink:href="#c"/><use fill="#cc142b" height="100%" transform="matrix(3.48 -24.76 24.76 3.48 900.02 119.95)" width="100%" xlink:href="#c"/></g><g transform="matrix(.09 .66 -.66 .09 583.64 -421.4)"><use fill="#fff" height="100%" transform="matrix(6.32 -44.96 44.96 6.32 900.06 380)" width="100%" xlink:href="#c"/><use fill="#cc142b" height="100%" transform="matrix(4.18 -29.71 29.71 4.18 900.06 380)" width="100%" xlink:href="#c"/></g><g transform="matrix(.67 0 0 .67 -93 36.1)"><use fill="#fff" height="100%" transform="matrix(50.4 0 0 50.4 900 480)" width="100%" xlink:href="#c"/><use fill="#cc142b" height="100%" transform="matrix(35 0 0 35 900 480)" width="100%" xlink:href="#c"/></g><path clip-path="url(#a)" d="m0 0 600 300m-600 0 600-300" stroke="#fff" stroke-width="60" transform="scale(.61 .73)"/><path clip-path="url(#b)" d="m0 0 600 300m-600 0 600-300" stroke="#cc142b" stroke-width="40" transform="scale(.61 .73)"/><path clip-path="url(#a)" d="m151.7 0v79.4h-151.7v60.6h151.7v79.4h60.7v-79.3h151.6v-60.7h-151.6v-79.4z" fill="#fff"/><path d="m163.8 0v91.5h-163.8v36.4h163.8v91.5h36.4v-91.4h163.9v-36.5h-163.9v-91.5z" fill="#cc142b"/></svg>