<svg viewBox="0 0 640 480" xmlns="http://www.w3.org/2000/svg"><path d="m0 319.7h640v160.3h-640z" fill="#0038a8"/><path d="m0 160h640v160h-640z" fill="#fff"/><path d="m0 0h640v160h-640z" fill="#d52b1e"/><g stroke="#000"><g fill="none"><circle cx="319.96" cy="240" r="61.38" stroke-width="1.6"/><circle cx="319.96" cy="240" r="50.47" stroke-width=".73"/><circle cx="319.96" cy="240" r="38.69" stroke-width=".58"/></g><path d="m298.04 215.29c-4.42 1-5.94 5.75-8.69 8.77-3.56 7.58-2.64 16.33-.4 24.14 1.07 4.65 4.05 8.49 6.49 12.49 3.61 2.77 7.75 4.73 11.43 7.39 2.99 1.52 9.72-4.93 9.57.99-1.59.79-6.48-.3-4.64 2.9 3.47 2.3 6.91-2.1 10.53-1.1 1.86 2.3 9.24 2.7 7.59-1.29-1.03-.18-5.55-.83-3.01-1.56 3.5 2.22 7.28-1.74 9.53-2.8 2.01 1.89 3.92-.53 4.64-1.76 3.36-.31 5.26-3.81 5.53-6.17 2.5-1.95 2.75-5.62 5.32-7.58-.55-4.19-1.13-5.49.69-10.87-1.26-3.45.17-6.93-1.28-10.46-2.53-2.35-2.84-5.7-4.13-8.77-1.94-3.39-6.16-4.2-9.32-6.14-3.43-.27-7.12-5.1-10.16-1.82-1.25 4.16 4.62 3.56 6.69 5.52 2.93 3.18 5.98 6.76 6.6 11.19 1.17 3.63 4.09 7.28 2.52 11.26-.85 2.81-2.53 5.33-3.07 8.24-2.02 2.8-4.36 6.16-6.74 8.16-4.01-.32-6.82 2.29-7.66 6.07-1.4 3.41-5.85 4.93-8.7 2.37-3.36-2.29-6.1-5.46-9.85-7.18-6.85-4-10.23-12.07-10.37-19.75-.16-5.8 2.25-11.67 6.84-15.3 3.17-2.91 7.12-4.76 11.03-6.41 3.71-3.53-2.24-7.12-5.55-5.65-1.69-2.79-10.35 3.76-11.43 5.14zm15.72-3.47-.16.02z" fill="#009b3a" stroke-width=".1"/><path d="m327.6 249.5-7.6-5.3-7.6 5.3 2.9-8.4-6.7-5.2h8.6l2.8-8.4 2.8 8.4h8.6l-6.7 5.2z" fill="#fedf00" stroke-width=".4"/></g></svg>