<svg viewBox="0 0 640 480" xmlns="http://www.w3.org/2000/svg"><path d="m0 319.7h640v160.3h-640z" fill="#0038a8"/><path d="m0 160h640v160h-640z" fill="#fff"/><path d="m0 0h640v160h-640z" fill="#d52b1e"/><g stroke="#000"><g fill="none"><circle cx="319.965" cy="240.001" r="61.382" stroke-width="1.6"/><circle cx="319.965" cy="240.001" r="50.473" stroke-width=".727"/><circle cx="319.965" cy="240.001" r="38.691" stroke-width=".582"/></g><path d="m298.041 215.287c-4.415.995-5.943 5.751-8.692 8.767-3.561 7.581-2.64 16.328-.403 24.14 1.073 4.649 4.053 8.488 6.488 12.487 3.608 2.769 7.749 4.728 11.432 7.387 2.992 1.523 9.715-4.934 9.566.992-1.589.787-6.479-.303-4.643 2.895 3.47 2.301 6.908-2.098 10.532-1.098 1.86 2.302 9.243 2.7 7.588-1.289-1.035-.181-5.547-.834-3.007-1.564 3.496 2.219 7.279-1.743 9.529-2.798 2.01 1.891 3.917-.534 4.64-1.762 3.364-.309 5.263-3.811 5.533-6.172 2.501-1.945 2.752-5.616 5.324-7.581-.547-4.188-1.131-5.494.69-10.865-1.257-3.453.17-6.932-1.281-10.46-2.527-2.349-2.84-5.695-4.13-8.771-1.935-3.387-6.163-4.204-9.316-6.137-3.43-.272-7.121-5.103-10.157-1.821-1.249 4.157 4.616 3.555 6.69 5.519 2.93 3.183 5.981 6.763 6.6 11.19 1.174 3.631 4.093 7.277 2.519 11.258-.846 2.814-2.532 5.331-3.07 8.244-2.015 2.802-4.356 6.155-6.737 8.162-4.012-.324-6.82 2.285-7.661 6.065-1.399 3.414-5.847 4.93-8.703 2.371-3.363-2.292-6.104-5.458-9.854-7.184-6.848-4.003-10.228-12.069-10.371-19.749-.159-5.796 2.246-11.666 6.841-15.302 3.171-2.912 7.123-4.765 11.029-6.413 3.712-3.529-2.242-7.122-5.551-5.65-1.685-2.792-10.35 3.759-11.425 5.14zm15.718-3.469-.163.024z" fill="#009b3a" stroke-width=".1"/><path d="m327.6 249.5-7.6-5.3-7.6 5.3 2.9-8.4-6.7-5.2h8.6l2.8-8.4 2.8 8.4h8.6l-6.7 5.2z" fill="#fedf00" stroke-width=".4"/></g></svg>