<svg viewBox="0 0 640 480" xmlns="http://www.w3.org/2000/svg"><path d="m.16-.1h639.68v480.2h-639.68z" fill="#fff"/><path d="m.16-.1h639.68v320.12h-639.68z" fill="#0c4076"/><path d="m.16-.1h639.68v160.06h-639.68z" fill="#c6363c"/><path d="m224.59 39.87c-5 .83.84 11.5-6.02 7.54-7.24.94.87 9.8 4.47 4.98-.31 6.09-10.63 8.14-7.51 14.98-6.87-1.12-14.06-.25-21.35 1.1-7.01 1.44-13.8 4.35-20.48 7.34-5.06 2.1-10.72 2.19-13.62 6.42-3.99-2.3-6.6 4.3-10.25 4.29-.36 5.3-7.58 5.59-3.73 11.8 1.14 6.29 5.81 11.26 6.63 17.56 7.43 3.6 8.8 11.75 13.62 17.81 3.69 5.62 4.49 12.13 2.96 18.52 3.2 5.24 8.2 10.6 15.62 8.78 7.45-.54 14.77 1.28 22.26 1.01 22.79.7 45.63.04 68.34-1.94 2.67-4.99 7-11.32 4.25-15.98 1.69-4.09.93-8.95 5.38-12.14 2.85-6.69 6.79-12.97 12.67-16.92-.05-7.34 6.94-12.39 6.47-19.05 2.51-4.09-5.07-7.37-5.68-10.41-4.29-1.19-5.61-4.54-9.84-4.19-4.4-5.34-11.87-2.98-16.56-7.79-6.61-1.65-13.43-4.89-19.58-6.15-6.73.25-11.75-1.07-18.4-.14 4.69-6.67-10-8.94-5.48-14.9 7.38 5.49 5.28-10.77-.95-3.97-1.25-3.16 2.1-7.74-3.25-8.55zm-1.28 1.77-.04.26zm3.52.16.08.12zm-3.78 3.48c.43-.5.29.44 0 0zm9.9 3.37.12.12zm.06 3.42-.1.36zm.96 16.76c.52 1.22-1.36 1.52 0 0zm-17.91.21c1.42 1.04-.71 1.54 0 0zm-8.1 6.58h7.5c1 8.56.58 17.34-1.79 25.65 2.97 2.54 8.69 11.89 6.68 12.06-5.75-7.37-11.28 2.73-7.93 8.21 1.99 7.89 10.06-5.28 9.04 2.98-.88 10.25-15.57 4.53-13.08-3.82 1.8-3.74-2-17.47-5.85-9.45-2.53 6.61 5.04 15.16-2.97 19.24-4.88 1.64-10.74-11.54-3.64-5.31 8.09-.94 3.06-16.79-2.77-12.3-2.48 3.36-3.56 4.31-2.04-.35 4.17-9.28-3.58-16.09-6.03-24.12-2.02-8.85 7.94-11.48 14.62-12.09 2.74-.36 5.49-.52 8.24-.7zm11.79 37.94.09-.02zm14.86-37.94c9.5.07 19.71-.31 28.16 4.77 5.29 5.15.76 12.35-2.42 17.29-5.01 5.52-.97 12.42-1.11 18.44-1.39-5.46-6.92-5.15-7.88-.65-5.7 5.49 3.59 12.59 6.52 8.31-.75 8.77-14.9 7.26-10.95-1.76 1.8-3.72 2.73-14.55-4.06-12.45-3.52 6.33 2.49 18.6-7.42 20.17-6.87 2.86-9.91-13.67-2.74-6.49 4.88 4.02 8.32-7.49 4.15-10.56-1-6.93-11.11 5.45-6.7-1.86 4.75-6.1 7.03-13.42 4.12-20.8-.36-4.8-.14-9.62.33-14.41zm-4.38 37.94-.09-.02zm-60.33-26.94c2.11 8.56 4.89 16.89 9.23 24.5 1.22 3.41 6.8 7.93.45 3.95-6.72-2.36-2.74 13.09 3.53 11.31 5.54-5.73.07 10.07-4.83 2.7-3.32-4.58-.5-16.25-8.71-15.63-4.63 5.96 8.72 15.3.03 18.73-3.52-.86-2.72-6.82.53-2.77 2.5-4.66-3.39-15.37-7.9-11.14 1.6-8.2-3.39-14.55-5.67-21.88-.22-6.58 9.09-7.1 13.33-9.75zm11.48 40.96-.03.1zm98.69-40.96c7.17 1.45 18.89 8.44 10.46 16.04-3.25 3.43-2.2 15.49-3.73 14.81-5.26-1.96-11.34 12.27-3.83 11.15-2.02 8.99-9.9-1.97-3.61-5.65 3.42-3.5 1.77-14.5-3.64-7.65-2.34 4.56-2.1 20.19-10.15 14.22-2.1-2.29-.56-9 1.43-3.09 7.39 1.64 9.86-16.78 1.78-10.43-4.25 1.37 3.52-4.25 2.93-6.74a90.07 90.07 0 0 0 8.37-22.65zm-11.47 40.96.03.1zm-106.94-20.23.22.1zm126.67 0-.22.1zm-59.8 4.51c.66-.05-.11.46 0 0zm-58.19.52.08.14zm109.32 0-.08.14zm-57.04 1.18v.05zm-46.47.27c-.05.99.83-.72 0 0zm.13.3.02.07zm97.2-.3c-.05 1.07.82-.65 0 0zm.25.3-.02.07zm-70.11 4.86c.08.39-.55-.26 0 0zm42.78 0c.55-.25-.07.39 0 0zm-17.73.78-.01.11zm-7.33 0-.02.1zm-17.15 2.89c.62-.12-.07.59 0 0zm3.15.08.08.16zm38.36.15.01.12zm-60.43.36.04 1.48zm56.9 1.38c-2.75 3.89-2.92 4.23 0 0zm-70.87.44.04.16zm1.65.89c.48.08-.3.32 0 0zm93.91.08-.07.08zm-83.72 0 .07.08zm-7.05 0 .12.13zm-3.03.14.06.13zm.48.51c1.25.73-1.11.63 0 0zm-.38.2.07.09zm103.52.02v.21zm-112.57 1.84.21.83zm.32 1.15.14.4zm.21.6.2.45zm.92 2.08-.11.1z" fill="#fc0"/><path d="m135.68 160.54v144.6c0 25.85 10.02 49.36 26.22 66.41a86.83 86.83 0 0 0 63 27.66 86.88 86.88 0 0 0 63.16-27.56c16.2-17.06 26.22-40.51 26.22-66.36v-144.76h-178.56z" fill="#c6363c"/><path d="m268.4 340.22c-8.97 3.73-4.3 22.08-1.44 21.35-.74-11.68-19.56-4.45-9.1 1.87 8.95-6.03 5.27 8.18 3.4 10.62 4.15 7.22 20.34.66 11.63-5.06-2.31-4.75 4.44-10.5 6.87-4.37 10.29-11.3-15.05-9.4-8.99-4.11 4.3-6.48 4.28-15.32-2.37-20.3zm-86.83 0c-8.7 2.27-4.11 21.89-2.48 18.45-2.13-9.82-17.9 1.57-7.44 5.01 6.32-6.27 6.59 8.53 2.61 9.3 2.74 8.84 21.43 2.15 11.89-4-2.45-7.66 5.62-7.48 7.67-5.4 6.69-14.1-18.53-3.54-10.55-.23 2.78-7.63 7.53-17.62-1.7-23.14zm.37-12.63.13.35zm97.33-6.4c.65.2-.44.49 0 0zm-108.57 0c.44.5-.65.21 0 0zm9.64-14.63-1.35 1.91zm.96-1.61-.24.43zm.72-1.35c-.59 1.08-.52.96 0 0zm1.06-2.34c-.87 1.93-1.47 3.25 0 0zm.65-1.7c-.5 1.33-.88 2.35 0 0zm41.45-66.79c9.65 3.48 31.02-7.1 31.89 8.02-.12 14.71.98 29.63 2.41 44.11-8.15-2.11-.31 14.14-9.05 13.87-6.33 3.9-12.68 11.81-17.28 1.45-5.74-8.6-2.14-21.9-7.79-28.81-6.7 6.18-2.77 21-8.94 29.6-3.67 4.35-8.77 7.02-11.99.46-9.3-1.85-9.96-10.19-11.82-17.25-4.29-1.9.7-15.72-.26-22.4.68-8.81.47-17.76.52-26.43 8.03-5.9 19.98-.23 29.65-2.53l1.33-.04z" fill="#e3dedb"/><path d="m256.09 166.2c-8.46 3.37-25.53 1.59-25.15 14.35-.71 5.72-6.73 21.75-6.19 21.55-3.55-9.27-2.82-23.42-9.64-29.28-7-2.79-21.84-12.09-24.08.04 2.71 7.16 10.05 12.2 13.19 19.5 5.37 8.85.05 18.51-5.96 25.35-7.46 10.66-15.6-.46-19.75-7.5-5.61-7.03-13.52-14.64-12.77-24.28 3.95-6.17 5.97-22.69-5.74-15.12-15.99 9.65-19.02 30.01-20.77 47.01-.32 21.94.31 44.01 2.94 65.8 2.47 16.23 5.93 33.09 1.45 49.31 4.95 1.52 12.82-11.51 12.9-.72 6.64-2.83 6.15-12.63 13.34-14.24 5.28-8.49 7.12-18.11 12.94-25 .22-7.28 3.52-5.85 2.22.53-1.65 10.5-9.36 19.64-13.1 28.41 8.47 6.79-8.7 15.71-15.98 13.16-6.38-.49-9.51 3.86-1.62 3.92 4.76.09 7.83 1.51.98 2-8.98 3.19 2.51 14.53 4.71 4.39 10.25-5.79-9.1 11.48 2.67 13.65 6.57-6.59 3.84-22.64 16.88-22.55 6.88 1.36 10.44-8.3 1.66-5.4-11.58 6.04 1.04-9.35 6.02-2.83 4.91 2.92 8.4-5.5 11.46-2.23-2.35-6.65 7.68-16.92 9.17-5.49 2.44 12.46-5.45 23.92-8.64 35.53.11 10.15-8.32 20.05-6.18 29.19 11.13 4.49 9.65-11.37 13.28-17.67-5.9 7.52-8.19 25.61 6.59 22.49 4.28 2 8.44-1.91 11.48.89 7.53-3.95 23.57 4.23 24.73-7.74.17-3.13-5.26-14.97-4.82-12.65-1.25 7.81 12.5 23.69 13.45 9.44-6.27-9.45-5.64-20.7-10-30.54-2.28-10.14-12.77-26.09-1.51-33.78 8.14-.73.24 14.44 10.13 10.61 2.69 7.23 7.13-.1 8.93-.21 4.94 1.62 13.15 8.89 2.99 4.45-7.71.29-4.8 6.19 1.28 5.08 12.64 1.44 12.1 15.92 17.75 22.85 9.95.11-6.37-22.2 2.11-12.56 4.69 6.2 14.54 1.01 5.55-3.73-3.85-1.28-9.38-4.31-1.56-2.72 5.73 2.67 11.56-6.87 2.7-4.52-10.2 5.49-24-6.93-18.8-15.56-5.71-9.4-14-20.18-12.14-31.58 1.6-1.8 2.19 8.1 5.58 9.93 4.37 8.01 5.2 18.18 13.73 23.37 4.49 2.48 7 17.52 10.76 6.32 3.36-2.36 9.4 12.08 10.54 1.24-5.45-23.4 5.02-46.84 4.06-70.41 1.63-13.77.47-27.7 1.18-41.51-2.09-17.13-5.81-37.25-21.82-46.94-11.42-4.74-8.93 10.13-4.42 15.3.65 13.44-11.99 21.51-17.71 32.33-7.14 10.1-17.8.18-21.41-7.55-6.46-13.12 4.28-24.77 12.12-34.09 2.18-3.07 3.86-8.99-1.71-9.55z" fill="#fff"/><path d="m186.9 167.75c-1.76-.21-2.5 2.26-4.32 1.92-2.03.38-4.4 1.55-4.68 3.84-.31 2.96 1.7 5.45 3.4 7.66 1.2 1.5 2.55 2.92 4.05 4.13 1.51.13 1.41-1.74 1.9-2.7.74-1.24 2.43-2.07 3.84-1.52 1.32.74 1.84 2.78 3.63 2.77 1.24-.51 2.58.04 3.46.98.44.54 2.6 1.81.78 1.74-1.56-.01-3.04.62-4.56.94-2.34.53-4.66 1.48-7.09 1.31-2.88-.25-5.34-2.05-7.2-4.15-.63-.45.16 1.3.37 1.74 1.39 2.7 4.3 4.31 7.24 4.72 1.47.28 2.96.36 4.46.37-1.81-.45-1.14 1.84 0 2.25 1.64.83 3.53.15 5.23-.1 2.07-.42 4.23-.9 6.33-.42 1.96-.56.69-2.99-.06-4.11-3.43-6.16-8.33-11.3-12.37-17.04-.04-2.29-2.18-4.13-4.38-4.28zm76.18 0c-2.06.17-4.13 1.74-4.31 3.89-.66 1.78-2.24 2.98-3.22 4.58-3.73 4.81-7.77 9.5-10.33 15.07-.46 1.81 1.56 2.2 2.83 1.69 3.22-.12 6.33 1.68 9.56.89 1.24-.07 1.54-2.6.87-2.39 3.47-.08 7.28-.7 9.8-3.31.83-.85 1.97-2.82 1.67-3.53-1.11 1.11-2.22 2.25-3.63 2.99-2.05 1.2-4.57 1.53-6.85.84-3.11-.67-6.16-1.82-9.35-2.04.93-.86 1.89-1.95 3.05-2.59 1.39-.41 3.14.56 4.08-1.1.81-1.42 2.55-2.52 4.1-1.44 1.36.79 1.87 2.33 2.28 3.74 1.06.96 2.13-.8 2.87-1.45 2.48-2.65 5.18-5.55 5.66-9.31.12-1.97-1.45-3.63-3.23-4.22-1.64-.4-3.46-.5-4.5-2a2.57 2.57 0 0 0 -1.34-.31z" fill="#d4aa00"/><path d="m260.72 224.93v57.87a38.38 38.38 0 0 1 -10.5 26.54 34.65 34.65 0 0 1 -50.48.05 38.86 38.86 0 0 1 -10.5-26.54v-57.94h71.53z" fill="#c6363c"/><path d="m260.72 260.42v14.92h-28.25v44.24a34.01 34.01 0 0 1 -7.46.8 31.45 31.45 0 0 1 -7.46-.8v-44.24h-28.25v-14.92h28.25v-35.5h14.92v35.5z" fill="#fff" stroke="#21231e" stroke-width=".53"/></svg>