<svg viewBox="0 0 640 480" xmlns="http://www.w3.org/2000/svg"><g stroke-width=".533" transform="matrix(.889 0 0 1.001 28.608 -.09)"><path d="m-32 0h719.55v479.7h-719.55z" fill="#fff"/><path d="m-32 0h719.55v319.8h-719.55z" fill="#0c4076"/><path d="m-32 0h719.55v159.9h-719.55z" fill="#c6363c"/></g><path d="m224.586 39.867c-4.996.825.839 11.49-6.015 7.543-7.239.94.868 9.803 4.47 4.981-.313 6.086-10.632 8.135-7.511 14.983-6.868-1.121-14.059-.253-21.345 1.102-7.006 1.441-13.804 4.348-20.476 7.338-5.055 2.104-10.721 2.187-13.619 6.422-3.987-2.298-6.596 4.301-10.249 4.292-.36 5.301-7.575 5.586-3.727 11.79 1.143 6.293 5.806 11.257 6.629 17.558 7.43 3.602 8.803 11.75 13.619 17.812 3.686 5.616 4.493 12.133 2.956 18.518 3.202 5.242 8.2 10.603 15.622 8.781 7.45-.542 14.773 1.277 22.257 1.011 22.793.703 45.626.042 68.343-1.939 2.666-4.987 6.996-11.318 4.25-15.984 1.686-4.093.928-8.953 5.383-12.144 2.85-6.691 6.789-12.966 12.669-16.918-.045-7.336 6.936-12.386 6.466-19.049 2.505-4.092-5.069-7.366-5.681-10.412-4.285-1.191-5.613-4.54-9.837-4.189-4.41-5.336-11.868-2.98-16.559-7.791-6.607-1.651-13.426-4.891-19.576-6.149-6.732.253-11.746-1.071-18.397-.14 4.689-6.667-10-8.938-5.478-14.903 7.384 5.493 5.281-10.773-.95-3.966-1.249-3.162 2.102-7.737-3.247-8.545zm-1.279 1.768-.042.258zm3.517.16.079.116zm-3.783 3.478c.425-.496.292.437 0 0zm9.904 3.372.118.12zm.063 3.418-.098.363zm.957 16.763c.518 1.217-1.356 1.516 0 0zm-17.912.209c1.417 1.044-.709 1.536 0 0zm-8.096 6.58h7.504c1.004 8.557.582 17.344-1.794 25.651 2.971 2.535 8.692 11.894 6.679 12.058-5.746-7.366-11.282 2.725-7.931 8.214 1.985 7.893 10.06-5.278 9.042 2.981-.88 10.247-15.57 4.526-13.08-3.823 1.81-3.74-1.999-17.471-5.847-9.452-2.527 6.605 5.042 15.158-2.965 19.238-4.879 1.636-10.738-11.542-3.64-5.314 8.087-.938 3.06-16.792-2.765-12.29-2.476 3.36-3.56 4.305-2.039-.352 4.174-9.281-3.584-16.089-6.034-24.116-2.02-8.853 7.939-11.484 14.624-12.091 2.736-.357 5.493-.524 8.245-.702zm11.787 37.94.087-.02zm14.863-37.94c9.504.068 19.713-.305 28.164 4.77 5.285 5.147.76 12.354-2.423 17.285-5.011 5.523-.971 12.415-1.113 18.437-1.392-5.457-6.917-5.153-7.88-.65-5.695 5.492 3.588 12.589 6.518 8.308-.746 8.768-14.902 7.257-10.949-1.761 1.801-3.716 2.729-14.547-4.055-12.446-3.521 6.334 2.492 18.602-7.416 20.169-6.87 2.863-9.914-13.666-2.742-6.491 4.882 4.016 8.322-7.494 4.146-10.562-1.004-6.925-11.113 5.445-6.703-1.855 4.748-6.095 7.031-13.423 4.12-20.798-.36-4.799-.136-9.622.332-14.405zm-4.378 37.94-.089-.02zm-60.329-26.934c2.111 8.555 4.889 16.891 9.234 24.5 1.216 3.405 6.8 7.934.447 3.945-6.724-2.362-2.744 13.087 3.53 11.306 5.538-5.732.071 10.073-4.833 2.697-3.319-4.582-.498-16.249-8.712-15.634-4.628 5.961 8.722 15.303.031 18.731-3.522-.857-2.724-6.822.533-2.773 2.5-4.656-3.388-15.369-7.897-11.137 1.601-8.202-3.391-14.547-5.666-21.882-.223-6.576 9.088-7.097 13.333-9.753zm11.481 40.955-.026.099zm98.691-40.955c7.171 1.45 18.894 8.439 10.462 16.037-3.25 3.434-2.197 15.493-3.734 14.807-5.259-1.959-11.337 12.273-3.834 11.145-2.015 8.992-9.898-1.97-3.605-5.65 3.42-3.501 1.768-14.501-3.639-7.648-2.343 4.559-2.098 20.187-10.153 14.221-2.104-2.286-.562-8.997 1.427-3.093 7.389 1.642 9.858-16.784 1.776-10.431-4.251 1.367 3.524-4.247 2.932-6.744 3.802-7.147 6.602-14.751 8.37-22.645zm-11.482 40.955.025.099zm-106.94-20.234.22.095zm126.67 0-.219.095zm-59.8 4.515c.664-.053-.112.455 0 0zm-58.194.522.077.138zm109.319 0-.076.137zm-57.043 1.176-.004.049zm-46.465.267c-.053.986.828-.724 0 0zm.127.297.022.074zm97.199-.297c-.048 1.073.821-.646 0 0zm.246.299-.023.072zm-70.111 4.861c.076.392-.547-.255 0 0zm42.777 0c.549-.254-.072.388 0 0zm-17.725.782-.012.109zm-7.328.002-.018.104zm-17.15 2.886c.615-.122-.068.594 0 0zm3.15.077.079.163zm38.358.152.011.118zm-60.43.359c.04 1.615.128 5.178.037 1.483zm56.904 1.383c-2.75 3.894-2.92 4.233 0 0zm-70.867.438.041.164zm1.652.892c.479.084-.301.32 0 0zm93.909.076-.071.078zm-83.723.002.073.082zm-7.047.002.116.129zm-3.033.139.058.127zm.475.512c1.254.728-1.106.632 0 0zm-.379.197.072.086zm103.515.023v.207zm-112.566 1.844.209.828zm.32 1.145.14.398zm.213.597.201.452zm.92 2.078-.106.097z" fill="#fc0"/><g stroke-width=".533"><path d="m135.682 160.54v144.603c0 25.851 10.02 49.356 26.224 66.412a86.826 86.826 0 0 0 63.001 27.663 86.879 86.879 0 0 0 63.161-27.556c16.203-17.056 26.224-40.508 26.224-66.359v-144.763h-178.555z" fill="#c6363c"/><g fill="#e3dedb"><path d="m268.398 340.215c-8.972 3.734-4.29 22.084-1.442 21.346-.739-11.675-19.557-4.453-9.101 1.873 8.946-6.029 5.266 8.183 3.39 10.622 4.15 7.215 20.344.658 11.633-5.063-2.305-4.747 4.442-10.5 6.873-4.368 10.285-11.3-15.048-9.401-8.987-4.108 4.304-6.477 4.28-15.324-2.367-20.302z"/><path d="m181.572 340.215c-8.7 2.27-4.113 21.893-2.475 18.447-2.125-9.818-17.899 1.572-7.439 5.015 6.322-6.268 6.585 8.529 2.614 9.31 2.736 8.838 21.431 2.154 11.888-4.001-2.45-7.657 5.617-7.475 7.665-5.4 6.685-14.097-18.532-3.535-10.552-.229 2.775-7.633 7.531-17.616-1.701-23.141z"/><path d="m181.945 327.582.131.352z"/><path d="m279.271 321.186c.646.21-.435.493 0 0z"/><path d="m170.699 321.186c.441.491-.645.213 0 0z"/><path d="m180.34 306.555-1.347 1.905z"/><path d="m181.301 304.951-.244.426z"/><path d="m182.02 303.598c-.585 1.076-.519.955 0 0z"/><path d="m183.08 301.26c-.874 1.928-1.472 3.246 0 0z"/><path d="m183.725 299.549c-.499 1.328-.884 2.352 0 0z"/><path d="m225.172 232.762c9.648 3.48 31.022-7.099 31.888 8.02-.12 14.706.983 29.626 2.407 44.112-8.146-2.107-.306 14.135-9.045 13.871-6.332 3.901-12.679 11.812-17.279 1.45-5.742-8.611-2.143-21.91-7.792-28.814-6.695 6.175-2.774 20.997-8.937 29.599-3.671 4.354-8.774 7.021-11.994.455-9.297-1.85-9.955-10.188-11.821-17.254-4.286-1.897.702-15.717-.258-22.397.675-8.805.47-17.762.519-26.432 8.03-5.9 19.98-.233 29.652-2.527l1.33-.039z"/></g><path d="m256.094 166.199c-8.457 3.366-25.526 1.585-25.154 14.354-.712 5.717-6.725 21.749-6.191 21.548-3.548-9.271-2.818-23.424-9.643-29.284-7-2.794-21.842-12.086-24.079.044 2.709 7.159 10.048 12.204 13.186 19.497 5.366 8.851.05 18.512-5.956 25.345-7.462 10.655-15.6-.458-19.748-7.503-5.613-7.03-13.519-14.643-12.767-24.281 3.946-6.167 5.971-22.686-5.738-15.122-15.994 9.649-19.021 30.009-20.774 47.013-.323 21.944.313 44.006 2.942 65.796 2.465 16.232 5.933 33.094 1.45 49.306 4.954 1.522 12.82-11.512 12.897-.718 6.635-2.833 6.149-12.633 13.335-14.24 5.276-8.491 7.116-18.108 12.937-25.002.217-7.277 3.521-5.847 2.217.528-1.648 10.501-9.364 19.638-13.096 28.409 8.467 6.793-8.701 15.711-15.978 13.16-6.379-.489-9.505 3.858-1.62 3.922 4.756.088 7.828 1.509.981 1.995-8.98 3.194 2.514 14.527 4.714 4.388 10.247-5.793-9.103 11.478 2.674 13.652 6.565-6.593 3.844-22.636 16.878-22.545 6.881 1.355 10.438-8.297 1.664-5.404-11.577 6.038 1.04-9.352 6.024-2.83 4.905 2.921 8.4-5.499 11.456-2.234-2.354-6.648 7.681-16.919 9.166-5.493 2.444 12.463-5.448 23.923-8.639 35.528.112 10.147-8.322 20.054-6.175 29.186 11.126 4.491 9.652-11.368 13.28-17.67-5.897 7.516-8.188 25.607 6.591 22.485 4.279 2 8.439-1.911 11.476.886 7.531-3.949 23.569 4.231 24.731-7.74.168-3.125-5.261-14.974-4.818-12.653-1.251 7.813 12.51 23.691 13.45 9.438-6.268-9.445-5.639-20.702-10.01-30.541-2.28-10.143-12.772-26.086-1.513-33.775 8.14-.727.24 14.443 10.132 10.608 2.693 7.227 7.127-.102 8.93-.207 4.944 1.619 13.148 8.887 2.994 4.45-7.711.289-4.803 6.194 1.279 5.082 12.636 1.443 12.098 15.917 17.753 22.848 9.953.105-6.365-22.199 2.105-12.556 4.689 6.19 14.541 1.015 5.554-3.726-3.845-1.277-9.376-4.311-1.564-2.721 5.727 2.673 11.564-6.869 2.704-4.52-10.197 5.486-23.99-6.934-18.798-15.559-5.711-9.398-14.001-20.181-12.144-31.576 1.597-1.8 2.186 8.11 5.578 9.93 4.369 8.006 5.19 18.183 13.725 23.368 4.486 2.484 7.004 17.522 10.761 6.321 3.364-2.364 9.405 12.08 10.542 1.235-5.453-23.403 5.019-46.835 4.062-70.412 1.631-13.766.468-27.695 1.183-41.507-2.091-17.13-5.806-37.254-21.821-46.943-11.422-4.737-8.932 10.125-4.422 15.299.651 13.443-11.989 21.506-17.711 32.326-7.136 10.11-17.8.175-21.409-7.55-6.463-13.115 4.275-24.768 12.12-34.088 2.182-3.07 3.86-8.995-1.705-9.549z" fill="#fff"/><path d="m186.896 167.752c-1.76-.206-2.495 2.257-4.315 1.92-2.029.382-4.403 1.554-4.678 3.839-.307 2.96 1.701 5.447 3.391 7.655 1.211 1.503 2.545 2.915 4.047 4.132 1.506.131 1.413-1.739 1.891-2.704.736-1.24 2.426-2.069 3.841-1.52 1.324.737 1.839 2.783 3.629 2.765 1.242-.508 2.576.044 3.458.977.443.543 2.602 1.814.779 1.737-1.556-.008-3.043.624-4.562.935-2.338.527-4.662 1.475-7.094 1.307-2.88-.251-5.336-2.051-7.2-4.152-.632-.445.163 1.3.372 1.738 1.388 2.71 4.299 4.313 7.241 4.723 1.468.275 2.964.364 4.455.365-1.812-.445-1.14 1.844-.003 2.253 1.644.828 3.526.147 5.228-.111 2.072-.424 4.227-.903 6.333-.422 1.963-.561.685-2.992-.056-4.112-3.431-6.162-8.334-11.303-12.374-17.044-.041-2.294-2.181-4.128-4.384-4.281z" fill="#d4aa00"/><path d="m263.074 167.752c-2.056.165-4.131 1.74-4.305 3.892-.655 1.781-2.243 2.982-3.216 4.576-3.726 4.808-7.773 9.499-10.326 15.069-.464 1.812 1.556 2.197 2.825 1.687 3.224-.12 6.33 1.68 9.559.886 1.243-.069 1.539-2.596.874-2.394 3.467-.078 7.281-.69 9.79-3.308.834-.853 1.971-2.815 1.669-3.525-1.113 1.105-2.218 2.253-3.632 2.988-2.054 1.2-4.567 1.528-6.848.839-3.113-.674-6.164-1.817-9.347-2.036.934-.861 1.885-1.946 3.052-2.585 1.388-.405 3.136.555 4.079-1.097.806-1.423 2.552-2.522 4.096-1.438 1.356.786 1.874 2.333 2.28 3.737 1.057.96 2.127-.797 2.871-1.452 2.477-2.649 5.181-5.552 5.657-9.307.118-1.966-1.449-3.633-3.231-4.216-1.644-.399-3.462-.489-4.504-2.01-.408-.223-.878-.327-1.342-.306z" fill="#d4aa00"/><path d="m260.724 224.926v57.884a38.376 38.376 0 0 1 -10.5 26.543 34.645 34.645 0 0 1 -50.475.053 38.856 38.856 0 0 1 -10.5-26.543v-57.937h71.529z" fill="#c6363c"/><path d="m260.724 260.424v14.924h-28.249v44.239a34.005 34.005 0 0 1 -7.462.8 31.447 31.447 0 0 1 -7.462-.8v-44.239h-28.249v-14.924h28.249v-35.498h14.924v35.498z" fill="#fff" stroke="#21231e"/></g></svg>