<svg viewBox="0 0 640 480" xmlns="http://www.w3.org/2000/svg"><path d="m.16-.1h639.68v480.2h-639.68z" fill="#fff"/><path d="m.16-.1h639.68v320.12h-639.68z" fill="#0c4076"/><path d="m.16-.1h639.68v160.06h-639.68z" fill="#c6363c"/><path d="m224.586 39.867c-4.996.825.84 11.5-6.015 7.543-7.24.94.868 9.803 4.47 4.98-.313 6.086-10.632 8.135-7.51 14.983-6.868-1.12-14.06-.253-21.345 1.102-7.006 1.44-13.804 4.348-20.476 7.338-5.055 2.104-10.72 2.187-13.62 6.422-3.987-2.298-6.596 4.3-10.25 4.292-.36 5.3-7.575 5.586-3.727 11.8 1.143 6.293 5.806 11.257 6.63 17.558 7.43 3.602 8.803 11.75 13.62 17.812 3.686 5.616 4.493 12.133 2.956 18.518 3.202 5.242 8.2 10.603 15.622 8.78 7.45-.542 14.773 1.277 22.257 1.01 22.793.703 45.626.042 68.343-1.94 2.666-4.987 6.996-11.318 4.25-15.984 1.686-4.093.928-8.953 5.383-12.144 2.85-6.69 6.79-12.966 12.67-16.918-.045-7.336 6.936-12.386 6.466-19.05 2.505-4.092-5.07-7.366-5.68-10.412-4.285-1.19-5.613-4.54-9.837-4.19-4.4-5.336-11.868-2.98-16.56-7.79-6.607-1.65-13.426-4.89-19.576-6.15-6.732.253-11.746-1.07-18.397-.14 4.69-6.667-10-8.938-5.478-14.903 7.384 5.493 5.28-10.773-.95-3.966-1.25-3.162 2.102-7.737-3.247-8.545zm-1.28 1.768-.042.258zm3.517.16.08.116zm-3.783 3.478c.425-.496.292.437 0 0zm9.904 3.372.118.12zm.063 3.418-.098.363zm.957 16.763c.518 1.217-1.356 1.516 0 0zm-17.912.21c1.417 1.044-.71 1.536 0 0zm-8.096 6.58h7.504c1.004 8.557.582 17.344-1.794 25.65 2.97 2.535 8.692 11.894 6.68 12.058-5.746-7.366-11.282 2.725-7.93 8.214 1.985 7.893 10.06-5.278 9.042 2.98-.88 10.247-15.57 4.526-13.08-3.823 1.8-3.74-2-17.47-5.847-9.452-2.527 6.605 5.042 15.158-2.965 19.238-4.88 1.636-10.738-11.542-3.64-5.314 8.087-.938 3.06-16.792-2.765-12.3-2.476 3.36-3.56 4.305-2.04-.352 4.174-9.28-3.584-16.09-6.034-24.116-2.02-8.853 7.94-11.484 14.624-12.09 2.736-.357 5.493-.524 8.245-.702zm11.787 37.94.087-.02zm14.863-37.94c9.504.068 19.713-.305 28.164 4.77 5.285 5.147.76 12.354-2.423 17.285-5.01 5.523-.97 12.415-1.113 18.437-1.392-5.457-6.917-5.153-7.88-.65-5.695 5.492 3.588 12.59 6.518 8.308-.746 8.768-14.902 7.257-10.95-1.76 1.8-3.716 2.73-14.547-4.055-12.446-3.52 6.334 2.492 18.602-7.416 20.17-6.87 2.863-9.914-13.666-2.742-6.49 4.882 4.016 8.322-7.494 4.146-10.562-1.004-6.925-11.113 5.445-6.703-1.855 4.748-6.095 7.03-13.423 4.12-20.798-.36-4.8-.136-9.622.332-14.405zm-4.378 37.94-.09-.02zm-60.328-26.936c2.11 8.555 4.89 16.89 9.234 24.5 1.216 3.405 6.8 7.934.447 3.945-6.724-2.362-2.744 13.087 3.53 11.306 5.538-5.732.07 10.073-4.833 2.697-3.32-4.582-.498-16.25-8.712-15.634-4.628 5.96 8.722 15.303.03 18.73-3.522-.857-2.724-6.822.533-2.773 2.5-4.656-3.388-15.37-7.897-11.137 1.6-8.202-3.39-14.547-5.666-21.882-.223-6.576 9.088-7.097 13.333-9.753zm11.48 40.955-.026.1zm98.69-40.955c7.17 1.45 18.894 8.44 10.462 16.037-3.25 3.434-2.197 15.493-3.734 14.807-5.26-1.96-11.337 12.273-3.834 11.145-2.015 8.992-9.898-1.97-3.605-5.65 3.42-3.5 1.768-14.5-3.64-7.648-2.343 4.56-2.098 20.187-10.153 14.22-2.104-2.286-.562-8.997 1.427-3.093 7.39 1.642 9.858-16.784 1.776-10.43-4.25 1.367 3.524-4.247 2.932-6.744a90.07 90.07 0 0 0 8.37-22.645zm-11.47 40.956.025.1zm-106.94-20.234.22.095zm126.67 0-.22.095zm-59.8 4.515c.664-.053-.112.455 0 0zm-58.194.522.077.138zm109.32 0-.076.137zm-57.043 1.176-.004.05zm-46.465.267c-.053.986.828-.724 0 0zm.127.297.022.074zm97.2-.297c-.048 1.073.82-.646 0 0zm.246.3-.023.072zm-70.11 4.86c.076.392-.547-.255 0 0zm42.777 0c.55-.254-.072.388 0 0zm-17.725.782-.012.11zm-7.328.002-.018.104zm-17.15 2.886c.615-.122-.068.594 0 0zm3.15.077.08.163zm38.358.152.01.118zm-60.43.36.037 1.483zm56.904 1.383c-2.75 3.894-2.92 4.233 0 0zm-70.867.438.04.164zm1.652.892c.48.084-.3.32 0 0zm93.91.076-.07.078zm-83.723.002.073.082zm-7.047.002.116.13zm-3.033.14.058.127zm.475.512c1.254.728-1.106.632 0 0zm-.38.197.072.086zm103.515.023v.207zm-112.569 1.842.21.828zm.32 1.145.14.398zm.213.597.2.452zm.92 2.078-.106.097z" fill="#fc0"/><path d="m135.682 160.54v144.603c0 25.85 10.02 49.356 26.224 66.412a86.826 86.826 0 0 0 63.001 27.663 86.879 86.879 0 0 0 63.161-27.556c16.203-17.056 26.224-40.508 26.224-66.36v-144.762h-178.555z" fill="#c6363c"/><path d="m268.398 340.215c-8.972 3.734-4.3 22.084-1.442 21.346-.74-11.675-19.557-4.453-9.1 1.873 8.946-6.03 5.266 8.183 3.4 10.622 4.15 7.215 20.344.658 11.633-5.063-2.305-4.747 4.442-10.5 6.873-4.368 10.285-11.3-15.048-9.4-8.987-4.108 4.304-6.477 4.28-15.324-2.367-20.302zm-86.826 0c-8.7 2.27-4.113 21.893-2.475 18.447-2.125-9.818-17.9 1.572-7.44 5.015 6.322-6.268 6.585 8.53 2.614 9.3 2.736 8.838 21.43 2.154 11.888-4-2.45-7.657 5.617-7.475 7.665-5.4 6.685-14.097-18.532-3.535-10.552-.23 2.775-7.633 7.53-17.616-1.7-23.14zm.373-12.633.13.352zm97.325-6.396c.646.2-.435.493 0 0zm-108.57 0c.44.5-.645.213 0 0zm9.64-14.63-1.347 1.905zm.96-1.605-.244.426zm.72-1.352c-.585 1.076-.52.955 0 0zm1.06-2.338c-.874 1.928-1.472 3.246 0 0zm.645-1.7c-.5 1.328-.884 2.352 0 0zm41.447-66.788c9.648 3.48 31.022-7.1 31.888 8.02-.12 14.706.983 29.626 2.407 44.112-8.146-2.107-.306 14.135-9.045 13.87-6.332 3.9-12.68 11.812-17.28 1.45-5.742-8.6-2.143-21.9-7.792-28.814-6.695 6.175-2.774 20.997-8.937 29.6-3.67 4.354-8.774 7.02-11.994.455-9.297-1.85-9.955-10.188-11.82-17.254-4.286-1.897.702-15.717-.258-22.397.675-8.805.47-17.762.52-26.432 8.03-5.9 19.98-.233 29.652-2.527l1.33-.04z" fill="#e3dedb"/><path d="m256.094 166.2c-8.457 3.366-25.526 1.585-25.154 14.354-.712 5.717-6.725 21.75-6.19 21.548-3.548-9.27-2.818-23.424-9.643-29.284-7-2.794-21.842-12.086-24.08.044 2.71 7.16 10.048 12.204 13.186 19.497 5.366 8.85.05 18.512-5.956 25.345-7.462 10.655-15.6-.458-19.748-7.503-5.613-7.03-13.52-14.643-12.767-24.28 3.946-6.167 5.97-22.686-5.738-15.122-15.994 9.65-19.02 30.01-20.774 47.013-.323 21.944.313 44.006 2.942 65.796 2.465 16.232 5.933 33.094 1.45 49.306 4.954 1.522 12.82-11.512 12.897-.718 6.635-2.833 6.15-12.633 13.335-14.24 5.276-8.49 7.116-18.108 12.937-25.002.217-7.277 3.52-5.847 2.217.528-1.648 10.5-9.364 19.638-13.096 28.41 8.467 6.793-8.7 15.71-15.978 13.16-6.38-.49-9.505 3.858-1.62 3.922 4.756.088 7.828 1.51.98 1.995-8.98 3.194 2.514 14.527 4.714 4.388 10.247-5.793-9.103 11.478 2.674 13.652 6.565-6.593 3.844-22.636 16.878-22.545 6.88 1.355 10.438-8.297 1.664-5.404-11.577 6.038 1.04-9.352 6.024-2.83 4.905 2.92 8.4-5.5 11.456-2.234-2.354-6.648 7.68-16.92 9.166-5.493 2.444 12.463-5.448 23.923-8.64 35.528.112 10.147-8.322 20.054-6.175 29.186 11.126 4.49 9.652-11.368 13.28-17.67-5.897 7.516-8.188 25.607 6.59 22.485 4.28 2 8.44-1.91 11.476.886 7.53-3.95 23.57 4.23 24.73-7.74.168-3.125-5.26-14.974-4.818-12.653-1.25 7.813 12.5 23.69 13.45 9.438-6.268-9.445-5.64-20.702-10-30.54-2.28-10.143-12.772-26.086-1.513-33.775 8.14-.727.24 14.443 10.132 10.608 2.693 7.227 7.127-.102 8.93-.207 4.944 1.62 13.148 8.887 2.994 4.45-7.71.29-4.803 6.194 1.28 5.082 12.636 1.443 12.098 15.917 17.753 22.848 9.953.105-6.365-22.2 2.105-12.556 4.69 6.2 14.54 1.015 5.554-3.726-3.845-1.277-9.376-4.31-1.564-2.72 5.727 2.673 11.564-6.87 2.704-4.52-10.197 5.486-24-6.934-18.798-15.56-5.71-9.398-14-20.18-12.144-31.576 1.597-1.8 2.186 8.1 5.578 9.93 4.37 8.006 5.2 18.183 13.725 23.368 4.486 2.484 7.004 17.522 10.76 6.32 3.364-2.364 9.405 12.08 10.542 1.235-5.453-23.403 5.02-46.835 4.062-70.412 1.63-13.766.468-27.695 1.183-41.507-2.09-17.13-5.806-37.254-21.82-46.943-11.422-4.737-8.932 10.125-4.422 15.3.65 13.443-11.99 21.506-17.71 32.326-7.136 10.1-17.8.175-21.41-7.55-6.463-13.115 4.275-24.768 12.12-34.088 2.182-3.07 3.86-8.995-1.705-9.55z" fill="#fff"/><path d="m186.896 167.752c-1.76-.206-2.495 2.257-4.315 1.92-2.03.382-4.403 1.554-4.678 3.84-.307 2.96 1.7 5.447 3.4 7.655 1.2 1.503 2.545 2.915 4.047 4.132 1.506.13 1.413-1.74 1.9-2.704.736-1.24 2.426-2.07 3.84-1.52 1.324.737 1.84 2.783 3.63 2.765 1.242-.508 2.576.044 3.458.977.443.543 2.602 1.814.78 1.737-1.556-.008-3.043.624-4.562.935-2.338.527-4.662 1.475-7.094 1.307-2.88-.25-5.336-2.05-7.2-4.152-.632-.445.163 1.3.372 1.738 1.388 2.7 4.3 4.313 7.24 4.723 1.468.275 2.964.364 4.455.365-1.812-.445-1.14 1.844-.003 2.253 1.644.828 3.526.147 5.228-.1 2.072-.424 4.227-.903 6.333-.422 1.963-.56.685-2.992-.056-4.112-3.43-6.162-8.334-11.303-12.374-17.044-.04-2.294-2.18-4.128-4.384-4.28zm76.178 0c-2.056.165-4.13 1.74-4.305 3.892-.655 1.78-2.243 2.982-3.216 4.576-3.726 4.808-7.773 9.5-10.326 15.07-.464 1.812 1.556 2.197 2.825 1.687 3.224-.12 6.33 1.68 9.56.886 1.243-.07 1.54-2.596.874-2.394 3.467-.078 7.28-.7 9.8-3.308.834-.853 1.97-2.815 1.67-3.525-1.113 1.105-2.218 2.253-3.632 2.988-2.054 1.2-4.567 1.528-6.848.84-3.113-.674-6.164-1.817-9.347-2.036.934-.86 1.885-1.946 3.052-2.585 1.388-.405 3.136.555 4.08-1.097.806-1.423 2.552-2.522 4.096-1.438 1.356.786 1.874 2.333 2.28 3.737 1.057.96 2.127-.797 2.87-1.452 2.477-2.65 5.18-5.552 5.657-9.307.118-1.966-1.45-3.633-3.23-4.216-1.644-.4-3.462-.5-4.504-2a2.57 2.57 0 0 0 -1.342-.306z" fill="#d4aa00"/><path d="m260.724 224.926v57.874a38.376 38.376 0 0 1 -10.5 26.543 34.645 34.645 0 0 1 -50.475.053 38.856 38.856 0 0 1 -10.5-26.543v-57.937h71.53z" fill="#c6363c"/><path d="m260.724 260.424v14.924h-28.25v44.24a34.005 34.005 0 0 1 -7.462.8 31.447 31.447 0 0 1 -7.462-.8v-44.24h-28.25v-14.924h28.25v-35.498h14.924v35.498z" fill="#fff" stroke="#21231e" stroke-width=".533"/></svg>