<svg fill-rule="evenodd" viewBox="0 0 640 480" xmlns="http://www.w3.org/2000/svg"><path d="m0 0h640v480h-640z" fill="#199d00"/><g fill="#fff"><path d="m141.44 136.104c-1.355 10.128-3.212 35.72 13.42 29.95 1.104-4.263 3.858-27.175 5.848-13.078-5.46 14.415 11.9 18.247 13.668 28.935-.504 5.448-1.62 28.642 6.53 17.543 6.707-9.924-8.806-37.064 10.146-32.743 14.564 6.665 18.337-12.512 13.906-22.6 1.138-7.57-4.272-24.405-12.056-12.408-4.93 8.79 15.055 18.973 1.648 23.775-9.463-3.013-2.812-34.582-16.8-21.89-.824 4.342 7.4 25.548-.026 14.227-1.2-7.314 1.808-30.778-9.47-24.48-3.752 10.174 8.96 28.112.138 33.13-.69-8.31-1.02-33.853-12.684-17-.596 5.744-4.396 24.16-9.686 10.335-.707-4.672.322-10.952-4.593-13.695zm31.423 46.056c-8.282 1.327-23.522 16.698-27.733 9.186 4.924-7.85 20.012-20.478 27.733-9.186zm-5.347 9.38c-8.75 13.738 1.238 37.8 19.594 32.55 15.524-1.024 21.45-25.05 25.598-30.197 2.88 18.96-15.99 38.898-35.304 35.99-14.127 1.18-11.062-19.845-17.577-21.926-8.5 13.147 1.593 35.186 18.586 32.912 20.978.195 43.14-16.795 42.436-38.976-6.03-16.627 16.306-11.376 25.673-15.22 10.155-3.555 5.09-25.013-4.2-11.05-4.308-9.877-15.683 10.584-18.56-2.89-9.43-8.886-8.012-27.173-4.13-37.215 3.622-11.637-16.7-23.066-13.833-5.66 1.246 14.765 6.275 29.143 6.23 43.974-3.94 11.15-17.935-12.096-23.11 3.57-8.235 12.185 3.9 22.64 15.135 18.356-2.63 13.125-25.18 24.808-32.556 9.444-1.54-4.404 2.937-12.385-3.987-13.665zm67.255-41.46c8.6-6.994 23.194-19.478 15.85-31.227-11.167-4.176-9.54 9.4-7.597 14.732-.923 4.05-31.705 18.407-8.254 16.495zm-90.986 60.97c-7.12 7.32-7.958 33.053 6.408 25.682 4.846-9.52-12.03-9.673-5.428-19.875-.348-1.158 1.836-6.21-.98-5.806zm241.16-14.35c-10.888-22.592-25.136-43.344-39.927-63.522 9.862-11.486-23.93-25.78-14.442-6.26 7.704 14.054 19.373 25.467 27.017 39.626 9.757 15.267 18.744 31.028 26.882 47.216 2.763-5.284 1.856-11.528.47-17.06z"/><path d="m361.025 235.907c10.495 15.495 28.533-4.198 31.855-16.258 5.48-17.196 1.237-35.43.67-53.005-6.162-14.076 2.156-29.676-4.32-42.327-15.04-8.176-5.562 20.475-6.007 28.2 2.18 20.183 4.025 40.412 4.907 60.697-5.018 11.26-16.714 17.31-27.105 22.692zm109.277-.094c-9.92 10.966 15.673 7.55 18.677.82 12.122-12.22 8.19-31.027 8.485-46.628-.707-15.5-2.74-30.912-5.334-46.2 11.477-8.757-15.418-29.097-10.322-7.785 2.587 26.616 8.834 53.097 7.545 79.933-1.156 10.205-10.477 16.082-19.05 19.86zm4.315-25.983c1.6-18.492-4.408-36.257-6.06-54.473-.08-11.647 5.105-25.486-7.608-33.125-10.58 7.734.48 24.976.378 36.333 3.037 21.016 5.665 42.214 4.88 63.496 4.3-2.726 7.338-7.274 8.4-12.23zm-42.867-37.53c-13.07-.947-17.05-21.692-4.356-18.837 2.495-10.517 16.214 5.103 4.93 7.142-1.3 3.838.593 7.84-.573 11.695zm-67.348 45.024c.793-23.845-1.24-47.667-3.667-71.366 6-8.087-6.952-31.593-13.342-20.952.184 17.244 7.18 33.583 7.368 50.882 1.62 17.447 1.832 35.012.917 52.506 5.19-1.047 7.406-6.56 8.723-11.07z"/><path d="m487.092 202.608c-15.082-22.984-31.87-44.786-49.01-66.26 6.573-7.83-17.694-22.366-12.217-4.555 4.514 15.8 19.544 25.7 28.183 39.315 12.055 15.356 23.5 31.28 32.95 48.386 2.796-5.204 1.564-11.485.094-16.887z"/></g><path d="m195 182.63c-.47.844-1.5 1.876-1.126 2.908.657.938 1.313 1.22 2.44 1.22 1.032 0 2.533.28 2.814-.28.563-.657.938-1.876.563-3.095-1.126-2.814-4.127-1.688-4.7-.75z" fill="#1ba400"/><path d="m412.24 340.025c13.092 4.07 35.94-6.8 41.35 10.407 2.324 14.503-12.673 15.76-22.078 10.82-11.855 1.25-27.42 4.88-27.712-11.015-48.325-.787-96.943-2.436-145.38-.74-18.113-.598-36.638 4.04-54.44-.512-7.356-.946-23.396-14.71-7.366-10.686 47.128 2.5 94.24-3.345 141.387-1.003 23.073.418 46.145 1.208 69.174 2.728-11.237-10.902 12.006-11.37 5.065.001zm-155.333-213.125c-6.022 10.61.85 40.44 15.025 29.927 1.99-5.844 7.28-20.557 6.537-5.296.38 13.202 19.968 16.282 25.252 4.574 8.613 5.262 19.62 10.737 24.615-2.172 4.242 2.07 7.89 5.334 10.97-2.68 1.87-9.224-16.237.16-14.41-13.916 3.34-8.2 4.895-23.842-8.95-18.276-11.198 9.164 14.2 22.896-.2 31.675-16.33-4.032.373-29.036-13.595-34.234-8.997 7.1 8.834 39.312-13.4 33.784-4.8-7.312.724-35.316-14.087-20.4-2.943 5.14-7.45 27.6-12.985 12.66-1.148-5.194.46-12.284-4.762-15.655zm17.634 36.394c15.905-.473 8.25 30.214 17.547 29.46 10.487-8 29.673-8.1 28.576-25.1 13.517-16.32 32.633 15.052 12.447 20.705-6.685 2.374-20.066 7.72-4.803 6.796 10.272-1.363 33.747-2.998 19.122 12.862-7.273 9.678-38.016-.265-32.28 16.416 10.28 3.54 8.507 16.693-3.498 11.77-11.49-.07-20.88-15.96-28.325-15.36-7.9 11.385-28.474 29.557-39.78 13.175-10.04-9.81-24.387 9.712-32.652 2.436 8.413-10.483 24.307-11.585 31.01-24.01 3.963-4.56 6.376-15.293 5.767-3.7 11.234.68 21.51-18.2 11.8-27.493-12.342-11.064 9.422-20.633 11.63-5.303-4.115 8.73 5.155 23.96-5.883 33.88-5.093 5.424-25.332 19.24-6.414 18.59 13.022-3.798 23.494-18.494 22.466-32.383-.302-11.21-12.077-21.602-6.718-32.754zm-89.861-36.194c11.282 7.004 12.62-15.717 1.28-6.86-4.548-6.47-5.584 5.88-1.28 6.86zm115.844 48.963c9.35 8.777 14.897-14.658 6.364-6.37-3.463-3.367-15.96-1.77-6.364 6.37zm67.536-20.26c8.934 7.087 15.13-12.82 5.002-7.6-3.21-2.222-2.603 3.6-5.967-1.5-3.404 1.382-1.645 7.66.965 9.1zm34.987 50.933c-10.405 10.75-1.356 39.132 14.803 32.758 4.4-7.533 5.638-28.797 17.714-14.4 17.47 11.205 24.734-14.86 21.185-27.777 1.318-16.912-2.827-33.322-4.955-49.963-.892-6.607 6.92-9.208-.664-15.655-1.348-7.3-10.623-16.06-10.663-3.403 2.604 20.733 7.082 41.334 6.715 62.345 5.128 10.293-2.63 35.747-12.906 18.005-16.296-12.476-11.194 21.495-26.273 19.882-6.33-4.492-5.577-14.974-4.956-21.793zm-33.205-87.9c11.367 2.774.582 30.994.612 12.28-1.632-3.624-9.507-11.904-.612-12.28zm44.65 92.205c.338-23.1-4.457-45.812-7.773-68.56 10.51-4-6.066-21.1-7.827-21.077-7.08 16.033 2.016 33.115 3.566 49.393 3.1 17.38 5.377 35.026 4.718 52.717 5.05-1.912 5.794-8.03 7.316-12.474zm60.407-80c9.875 4.172.916 32.166.575 13.334-1.37-3.872-8.815-12.248-.575-13.334zm-239.847 63.7c9.792 1.852-.025 24.925.293 8.383-1.506-2.585-8.01-9.06-.293-8.383z" fill="#fff"/><path d="m309.716 204.672c3.94.188 5.9 3.377 2.25 4.7-3.752 1.22-7.223 2.25-7.316 7.504 1.407 7.504-1.876 4.878-3.752 3.94-2.25-1.688-8.63-5.628-9.568-14.07-.094-1.97 1.5-3.752 4.033-3.752 3.752 1.032 9.38 1.126 14.35 1.688z" fill="#1b9d00"/><path d="m152.6 116.687c4.502 1.313 4.784 8.067 4.502 10.037-.657 3.564-2.25 7.4-3.377 6.94-1.313-.47 0-5.347-.657-6.847-.657-2.064-4.502-6.003-4.127-7.13-.844-2.345 1.876-3.47 3.658-3.002zm89.954 31.517c-3.564 1.876-4.878 7.504-2.72 10.88 2.064 2.814 5.253 1.782 5.628 1.782 3.47.375 5.534-6.472 5.534-6.472s.094-1.876-3.94 1.782c-1.782.28-1.876-.375-2.345-1.313a8.442 8.442 0 0 1 .469-5.347c.657-1.688-.657-2.44-2.626-1.313zm26.264-34.143c-1.876 1.22-5.347 4.878-5.44 9.005-.094 2.345-.563 2.345.938 3.752 1.22 1.688 2.25 1.595 4.502.375a4.784 4.784 0 0 0 2.157-3.189c.563-2.626-2.814 1.313-3.2-1.688-.75-2.814 1.407-3.94 3.47-6.566 0-1.876 0-3.095-2.533-1.688zm21 3.752a55.811 55.811 0 0 0 -1.501 10.412c-.563 2.626 2.814 3.752 4.22.375 2.25-6.097 2.25-8.723 2.44-11.256-.657-4.033-3.377-3.94-5.16.47zm133.196 67.817c.375-.47 18.76-13.507 18.76-13.507 1.876-.657 1.407 6.754.563 6.66a72.976 72.976 0 0 1 -19.417 13.413c-.938.657-1.782-4.97 0-6.566zm16.603-.188c3.283 1.595 4.596 11.068 4.22 13.6 0 5.065-3.095 9.005-4.4 8.442-1.313-.657.188-6.285-.47-8.254-.75-2.814-3.47-7.973-3.002-9.474-.938-3.2 1.688-4.878 3.752-4.315zm-108.797 40.708a24.388 24.388 0 0 1 5.253-4.596c1.876-.938 3.564.75 3.47.657.28 1.876-1.126 3.47-.657 5.9.375.938.657 2.064 2.44 1.688 2.908-2.345 5.628-2.533 8.442-2.626 2.345.094 2.44 3.94.938 3.94-5.347 1.126-7.692 2.626-11.537 4.033-1.876 1.126-3.377-.28-3.377-.375s-1.032-1.032-.375-3.47c.188-1.876-.563-3.002-2.25-2.814-1.126.75-2.25 1.126-2.814-.28-.28-.938-.375-1.5.47-2.064zm128.13 5.065c.75.938 1.313 1.876-.094 3.564l-3.47 3.002c-.563.938-.938 2.626.938 3.095 3.377.938 11.256-4.22 11.256-4.315 1.313-.938.938-2.814.75-2.814-.75-.844-2.44-.28-3.564-.47-.563 0-2.345-.188-1.5-1.876a10.693 10.693 0 0 0 1.501-2.72c.47-1.126 0-1.876-1.876-2.533-1.97-.375-2.814-.188-4.97 0-1.126.188-1.5.75-1.782 2.157.094 2.157 1.407 2.064 2.814 2.814z" fill="#fff"/><path d="m331.478 177.94c-.47.938-2.157.938-3.752 0s-2.533-2.44-1.97-3.283 2.157-.844 3.752 0 2.44 2.44 1.97 3.283zm-83.482-50.277c-.938.28-2.25-.563-2.814-1.876s-.28-2.44.657-2.72 2.157.657 2.814 1.876.28 2.533-.75 2.814z" fill="#259f00"/><path d="m413.178 351.75c8.817.375 17.072 0 25.795.47 1.595 1.407.47 4.7-.563 4.502l-7.316-.28c-.094-2.814-7.223-2.345-7.035.094-3.846.47-7.316-.094-11.256-.28-1.126-1.407-.938-3.94.375-4.502z" fill="#209000"/></svg>