<svg xmlns="http://www.w3.org/2000/svg" viewBox="0 0 640 480"><style><![CDATA[.B{fill:#fff}.C{stroke-width:.45}.D{stroke-width:4.94}]]></style><path d="M640 480V0H0v480z" fill="#006"/><path d="M0 73.3h76L0 26.8V0h43.5l106.4 64.8V0h59.9v64.8L316 0h44v26.8l-76.4 46.5H360v73.4h-76.4l76.4 46.6V220h-44l-106.4-64.7V220H150v-64.7L43.4 220H0v-26.7l76-46.6H0z" class="B"/><path d="M331.7 0L211.5 73.4h28.8L360 0zM360 220l-119.8-73.3H269l90.9 55.9V220zM120.4 73.4L0 0v17.5l91.4 55.9zm-.3 73.3L0 220h28.7L149 146.7h-29zM0 88.6h162.6V0h35.2v88.6H360v43H197.8V220h-35.2v-88.5H0v-43z" fill="#ce1126"/><path d="M602.15 266.27c0 73.14-11.66 152.1-106.77 189.8-94.65-37.7-106.3-116.66-106.76-189.8z" fill="#8fc5ff" stroke="#fff" class="D"/><path d="M495.4 455.62a153.87 153.9 0 0 0 84.34-71.79h-8.97c-2.7-.45-91.07-8.97-101.83-13.46-8.97-3.14-43.96 3.14-60.1 8.97a152.52 152.56 0 0 0 86.58 76.28z" fill="#366cc9"/><path d="M429 410.75c2.2-.08 4.45.18 6.62-.17 1.1-3.7 5.92-.35 8.1-3.03 3.8 3.8 5.76-6.03 9.3-1.75 2.56-.42.86 4.75 3.8 1.36 4.02 2.68 1.7-6.6 1.86-8.9-3.36-3.8-.24-10.9-5.32-13.22-1.28-1.98-4.58-2.44-5.8-3.02-2.02-2.1-2.27-5 1.5-5.03 3.54-3.98 8.96 2.3 13.2-1.05 2.52-1.53 5.9-2.2 7.42-4.88.7-7.13-2.95-13.54-4.96-20.13-1.03-4.2-4.83-7.08-5.43-11.23-.76-3.2-4.28-4.77-4.75-8.16-1.8-6.34-3-12.88-3.94-19.4-.83-4.65 1.3-10.88-2.55-14.28-5.93-.67-7.88-5.5-9.05-10.78-1.4-3.4-6.34 2.54-7.32 4.48-.72 4.24-2.26 9.7-6.54 11.64-4 1.5-6.08 6.6-8.5.6-4.1-3.7-2.33-10.47-7.5-13.13-2.22-1.25-.88-4.15-1.24-6.25.07-4.8-7.38-3.05-8.2.87-3.85 3.67-8.1 8.23-9.7 13.34 2.58 39.9 12.35 81.1 38.96 112.13z" fill="#cf6200"/><path d="M602.15 266.27l-.9-78.07a285.31 285.37 0 0 0-105.86-19.3c-23.78 0-70.43 3.6-105.87 19.3.9 23.33-.9 50.25-.9 78.07z" fill="#ff0" stroke="#fff" class="D"/><g stroke="#000"><path d="M484.17 371.27l-.9-99.6c0-4.5-2.24-3.6-2.24 0v98.7zm32.3-105l3.6 105-.45.9h-2.24l-2.24-105.9zm30.5 88.84l-1.8-85.25c0-2.7-2.24-2.24-2.24.45l1.8 84.8z" fill="#ff0" class="C"/><path d="M559.54 334.47h-25.12c1.57 5.8 9.42 2.46 13.63 4.1 3.62-.1 8.42 1.52 10.9-2.03.35-.64.52-1.35.6-2.07zm1.8-23.77h-31.4c.67 5.77 8.78 4.68 12.75 6.2 4.8.84 9.74 2.1 14.3-.42 2.34-.92 4.86-2.96 4.34-5.78zm.45-26.48l-32.3-.45c1.62 4.22 7.34 6.02 11.4 5.83 4.3 1.56 8.43 1.18 12.7.2 4.3 1.53 8.4-.82 8.2-5.58zm-30.95-9.87l-26.92.45c.28 5.1 6.4 4.33 10 3.93 5.12-.63 10.35.1 15.43-.88 1.64-.1 1.82-2.28 1.5-3.5zm1.8 14.8H503c-.08 4.8 5.62 5.62 9.33 4.97 3.43-1.2 5.6 3.85 9.52 1.38 3.9-.72 10.32 1.58 11.1-4.36.06-.68-.07-1.37-.35-2zm-3.6 22l-27.8-.9c-.54 4.98 5.9 6.8 9.7 5.2 2.76-.8 6.44 1.73 9.85.01 3.57-.37 9.03 1.75 8.27-4.3zm2.7 19.74h-28.26c-.26 6.42 7.53 4.06 11.3 5.27 4.74.16 10.06.43 14.4-.42 1.56-1.07 2.75-2.9 2.55-4.86zm-30.05 8.08l-34.54-.45c-2.3 5.55 6.13 7 9.93 6.9 3.78-1.38 8.15-1.95 11.53-.13 3.9-1.76 8.66 1.34 12.1-1 1.38-1.34 1.96-3.6 1-5.32z" class="B C"/><path d="M602.15 266.27c0 73.14-11.66 152.1-106.77 189.8-94.65-37.7-106.3-116.66-106.76-189.8zm0 0l-.9-78.07a285.31 285.37 0 0 0-105.86-19.3c-23.78 0-70.43 3.6-105.87 19.3.9 23.33-.9 50.25-.9 78.07z" fill="none" stroke-width="8"/><path d="M499.87 319.22h-30.5c.63 5.58 7.62 3.16 11.22 4.8 3.06.65 6.56-.38 9.8-.22 3.12-.57 7.67.74 9.4-2.63a3.14 3.14 0 0 0 .07-1.94zm.9-20.2h-31.4c-5.4 4.3 4.22 8.67 7.53 5.46 5.3 1.08 10.93 1.46 16.13-.3 3.2.07 8.6-.7 7.74-5.17zm-2.24-15.25l-31.4-.45c-.94 6 6.84 4.95 10.63 5.72 5.62.2 11.25-.7 16.86-.2 2.6-.02 4.87-2.45 3.92-5.07z" class="B C"/><g class="C"><path d="M519.6 372.16c-13.46 0-27.36 0-36.8-.9-9.42-.9-12.1-2.7-18.84-6.73l-25.12-15.26c-2.24-.9-4.5.45-1.35 2.24l25.12 16.6c6.73 4.5 11.22 8.53 15.25 13.46 5.38 5.83 8.97 5.83 11.66 4.94 2.7-.9 6.28-2.24 10.32-1.35 3.6.9 8.97 1.35 11.66.9 2.24 2.24 8.07 1.8 11.22.9 3.14-.9 5.38-.9 7.63-.45H538c2.24 0 8.07-1.35 12.1-.9 4.5.9 8.52 0 11.22 0a22.43 22.44 0 0 1 8.97-.45c2.7-1.8 3.6-4.04 4.5-6.28 2.7-.45 3.6-.9 4.04-2.24l2.7-7.18h.9v-2.7l-1.8-2.7.9-4.5 2.24-.9-.9-4.5-39.48.9a8.97 8.97 0 0 0-2.69 4.94l-11.66 1.8c-1.35.45-2.7.45-4.04 2.24z"/><path d="M566.7 354.66l5.83-22c.9-2.24-1.35-2.7-2.24 0l-5.83 22z"/><path d="M589.6 330c-4.93 2.24-7.63 3.6-9.87 2.7s-4.93-1.35-6.73-.45a2.24 2.24 0 0 1 0 .45 2212.94 2213.44 0 0 1-4.93 17.05c3.6 1.35 9.87 1.35 11.22 0 1.8-1.8 5.83-1.35 8.07-1.35 1.35-1.8 1.8-4.04 1.35-4.94-.45-.9 0-3.14 0-4.5s1.8-6.28.9-8.97z" class="B"/></g></g><path d="M543.3 375.3c-18.5 3.2-59 1-67.8-1.3-3-.7-2.2-1.8.4-1.2 10.2 2.3 32 2.3 44 1.7 2.3-3 6-8.3 7.1-9.8s1.6-1.6 4-2l10-1.7v1.4c-.2.3-.5.7-.8.8 0 2.4.5 8.2 1 10.3l1.3-.3c.8-.2 1.6 1.9.8 2.1zm30.4.9h2.5c.7 0 1.8-.6 2.2-1.7l2.5-7.3-1.9-2.8 1-6.1 2.4-1c.1-.4-.1-1.9-.6-2.3l-36.2 1.2c-1.1 0-1.6 0-2 1.4a27 27 0 0 0 9.2 26.6c.6.5 1.4 0 .4-.8a29.8 29.8 0 0 1-5-6.5l6-.1c.4 2 1.9 6 2.2 6.8s1 .8.6-.3c-.8-2.4-1.2-5.2-1.5-6.6h6l.5 6c0 .8.7.8.7-.1v-6l5.5-.2-.5 6c-.1 1 .4 1.4.6 0l.8-6 3.8-.2c-.1 1.3-1.3 5-1.6 6s.2 1 .6.1a35 35 0 0 0 1.8-6z" fill="#cf6200"/><path d="M547.2 375.3c-.6-1.3-2.6-5.9-2.8-9.2l8-.1 1.5 9.1zm6.6-9.4c.2 2 1.2 8.5 1.4 9.2l6.4-.1-.4-9.3zm-9-8.1a38 38 0 0 0-.3 6.8l7.7-.2-.6-6.8zm8.3-.2c0 1.6.4 5.6.5 6.8l7.6-.2-.4-6.9zm9.2-.3l.3 6.9 6.5-.2.2-7zm8.3-.3l-.2 7 7.1-.3c.3-1.5 1-5.4 1-7zm7.2 8.3l-7.5.2-.7 9.2 7.2-.2a61.6 61.6 0 0 0 2.6-7c-.5-1-1-1.4-1.6-2.2zm-15.2.4l.2 9.2 5.5-.2.7-9.2zm-31-1.8l-3 .5a224.8 224.8 0 0 1-7.2 10.1l10.6-.3-.3-10.3zm1.4-.3l.4 10.5 6.4-.5-1-11z"/><g stroke="#000" class="C"><path d="m530.83 274.35-26.92.45z" class="B"/><path d="M582.42 338.96a13.46 13.46 0 0 0 0-6.28 4.93 4.94 0 0 1-2.69 0 13.46 13.46 0 0 0-1.35-.9c0 1.8-.9 6.73-1.8 8.53-1.35 0-4.5 0-5.83-.9l-1.35 4.5a15.7 15.7 0 0 0 6.73 0c0 2.7-.45 4.94-1.8 6.73 2.24 0 4.5 0 4.93-1.35 1.35-1.8 1.35-4.5 1.8-5.83l2.24-.45 2.24-.9 3.14-.45v-2.7l.9-1.8-7.18 2.24z" fill="#ef072d"/><path d="M471.16 187.3c-3.6 0-11.66 0-13.46.9-1.35.9-1.8 1.35.9 1.8 2.7.45 7.63 2.24 10.32 3.6 2.7 1.8 4.5 4.5 4.5 8.97a26.92 26.92 0 0 0 13.46 28.27c.45.45.9.9.45 2.7l-1.35 4.94c0 .9-.45 1.8.9 1.35a89.72 89.74 0 0 1-4.49 7.18c-7.18-.9-13.46 0-13.46 8.08 0 .9 0 1.8.9 0 1.35-1.8 2.7-3.6 5.83-4.5-1.8 3.14-2.7 5.83-2.24 7.63 0 1.35.9 2.24 1.8 0 .45-1.8 2.24-3.6 3.6-4.94.9-.45.9-.45.45.9s.45 4.04 1.35 4.94 1.35.45.9-.9c0-1.8 0-4.94 2.24-5.83 2.7-1.8 5.38-.9 6.28.9 1.35 2.24 2.24 0 .9-1.8-1.35-1.8-2.7-4.04-4.5-4.04l4.5-7.63c0-.9.9-1.35 1.8-.9 0 .45.9.45 1.35-.9l3.14-6.28 2.7-.9 4.5 6.73v2.7c0 1.8-1.8 5.83-2.24 7.18-5.38 0-8.07 0-9.87 3.14-.9 1.35.45 1.8 1.8 1.35a8.97 8.97 0 0 1 4.49-1.35c.9 0 1.35.9 0 1.35-3.14 1.35-5.38 3.6-5.38 6.73 0 .9.9 1.35 1.35 0 1.35-2.24 3.6-4.04 5.83-4.5 0 2.24.45 5.83 2.24 6.73 1.35.9 1.35 0 .9-1.35-.9-2.24 0-4.5 1.35-5.83 2.24-2.7 7.63.9 8.97 1.8.9.9 1.8 1.35.9-1.35-.45-3.14-4.93-4.5-8.97-5.38l5.38-18.85c2.24 1.35 4.5-2.24 8.07-.9 6.28 2.7 15.7 8.53 17.05 9.87 1.8 1.35 2.24.9 3.14 0 .9-.45 2.24 0 3.6 0 .9.45 1.8.9.45-1.8a32.3 32.31 0 0 0-10.77-11.67c3.6 0 8.07 0 8.07-.9s-5.38-2.7-7.63-2.7a14.8 14.81 0 0 0 7.18-3.59c.9-.9 0-1.35-3.6-1.35-9.42 0-14.36 0-19.3-2.7-8.07-4.5-13-9.87-17.05-11.67-1.8-1.35-3.14-4.04-4.5-6.28-2.24-6.73-2.24-10.32-8.07-12.56s-13.46.45-16.6 3.6z"/><path d="M473.1 190.96h-8c7.4.18 12.35 8.44 10.82 15.3.04 3.82 1.12 7.63 2.78 11.05 3 3.86 9.16 4.22 10.96 9.2 1.3 3.55-5.34.58-3.14 3.77 3.77 3.1 9.2 3 13.65 1.53 3.32-.9 5.25 6.74 7.72 2.33.8-4.22 4.76-5.6 8.62-4.7 4.8.3 9.43 1.84 13.38 4.62 2.1 1.08 5.16 5.16 6.78 1.4.72-3.68-2.33-6.9-5.7-7.9-2.16-1.7-7.8.72-3.6 2.6 1.12.36 5.03 1.75 3.4 2.78-4.53-1.66-7.9-5.66-12.75-6.6-3.82-1.08-7.8-.27-11.63.27-7 .54-15-.94-19.62-6.7-2.92-4.22-2.6-10.73 1.48-14.1 3.05-3.9-1.17-10.42-5.97-9.34-1.75-.45-4.5.18-5.12-2.1 2.6 1.17 6.5 1.35 8.22-1.35 1.3-3.2-2.38-5.93-5.34-5.84-2.83-.13-5.52 1.48-7.1 3.82zm19.75-1.34c-1.4-4.45-8.58.4-5.43 3.55 1.3 3.86 5.8 5.84 6.42 10-.85 2.02-7.14 5.07-2.6 6.38 1.66 1.08-3.32 1.9-3.2 3.86-1.8 3.2.27 6.74 3 8.58 5.2 4.04 12.12 3.2 18.23 3.1 1.84-.18 5.48.18 6.2-.3-3.05-2.02-6.65-4-10.46-3.37-.04 2.65-4.45-.76-1.35-.76 3.32-3.28 7.23 2.56 10.7.36 1.9-1.53 5.66.1 6.33-.04-1.62-3.05-5.25-4.98-8.44-5.97-3.55.36-3.46-4.5-6.82-3.64-.94-1.44-1.53-3.23-3.82-2.87-1.48-1.84-4-3.05-4.53-5.7-.9-2.92-1-6.02-2.5-8.7l-1.7-4.45z" class="B"/></g></svg>