<svg viewBox="0 0 640 480" xmlns="http://www.w3.org/2000/svg" xmlns:xlink="http://www.w3.org/1999/xlink"><defs><path id="a" d="m1194.1 230.3c1.75 0 3.5-1.8 3.5-3.6s-1.75-3.5-3.5-3.5"/><clipPath id="b"><path d="m-85.3 0h682.6v512h-682.6z"/></clipPath></defs><g clip-path="url(#b)" transform="matrix(.938 0 0 .938 80 0)"><g fill-rule="evenodd"><path d="m-128 0h768v512h-768z" fill="#3e5eb9"/><path d="m-128 91.4h768v329.2h-768z" fill="#ffd900"/><path d="m-128 128h768v256h-768z" fill="#b10c0c"/><rect fill="#ffd900" height="11" rx="5.8" stroke="#000" stroke-width="1.5" width="621.7" x="-51.4" y="250.5"/></g><g stroke="#000"><g transform="matrix(1.032 0 0 1.032 -757 -25.6)"><g fill-rule="evenodd"><path d="m1220.658 216.14-30.124 10.62 30.124 10.62 30.124-10.62z" fill="#fff" stroke-width="1.347"/><rect fill="#ffd900" height="7.1" rx="4.1" ry="3.8" stroke-width="1.3" width="442.9" x="761.8" y="223.2"/></g><g fill="none" stroke-width="1.35"><use xlink:href="#a"/><path d="m1190.6 230.3c1.75 0 3.5-1.8 3.5-3.6s-1.75-3.5-3.5-3.5m-3.6 7.2c1.75 0 3.5-1.8 3.5-3.6s-1.75-3.5-3.5-3.5"/></g></g><g transform="matrix(1.032 0 0 1.032 -786.3 -3.7)"><g fill-rule="evenodd"><path d="m1220.658 216.14-30.124 10.62 30.124 10.62 30.124-10.62z" fill="#fff" stroke-width="1.347"/><rect fill="#ffd900" height="7.1" rx="4.1" ry="3.8" stroke-width="1.3" width="442.9" x="761.8" y="223.2"/></g><g fill="none" stroke-width="1.35"><use xlink:href="#a"/><path d="m1190.6 230.3c1.75 0 3.5-1.8 3.5-3.6s-1.75-3.5-3.5-3.5m-3.6 7.2c1.75 0 3.5-1.8 3.5-3.6s-1.75-3.5-3.5-3.5"/></g></g></g><g fill-rule="evenodd"><path d="m526.372 251.692c-5.467 9.56 4.274-3.16 28.23 12.876 4.374 2.93 8.25 10.794 8.25 16.268-1.093-.77-1.988-2.313-3.18-3.47-1.79 1.773 1.7 9.715 2.187 13.493-3.777-2.082-3.38-3.084-4.672-5.705.298 3.084-.596 11.72.895 14.957-2.982-.77-2.783-3.16-4.274-3.7.994 3.778-.994 7.787-.398 12.028-1.79-1.696-3.578-3.084-4.374-3.778-.1 2.005-3.28 7.247-3.38 9.175-1.49-.925-1.89-2.313-2.087-3.238-1.79 2.313-8.25 10.794-8.648 13.26-4.97-4.395-17.693-15.035-19.383-20.74-1.49 3.238-3.578 4.318-7.753 6.708-1.7-9.02-7.952-19.12-4.572-26.83-2.288 1.426-4.478 2.945-6.56 4.55 2.902-14.68 13.706-27.712 29.72-35.85z" fill="#3d5da7" stroke="#000" stroke-width="1.245"/><path d="m505.9 299.2c2.3-4.6 4.4-6 5.9-9 2.6-5.2 3-9.4 5.3-8.8s2.3 2.8-.7 7.9c-3 5-4.4 6.2-10.5 9.9zm15.5 11c-.3-3.6.8-5 .6-7.3-.3-4-2-6.7.1-6.9s3.1 1.2 3.1 5.2-.6 5-3.8 9zm11.8 6.8c-.9-5-.2-7-.8-10.2-1-5.6-3-9.2-1-9.7 1.9-.5 3 1.3 3.8 6.9.7 5.6.3 7.2-2 13zm12.3-34.3c-2.9-2.1-4.6-2.3-6.4-3.7-3.3-2.5-5-5.1-6-3.8s-.3 2.7 3.1 5c3.5 2.3 4.6 2.5 9.3 2.5zm-2 16.3c-1.5-3.2-3.1-4-4.1-6-1.8-3.6-1.8-6.7-3.6-5.9-2 .8-2 2.4 0 5.9 2 3.4 3 4 7.7 6z" fill="#a70000"/><path d="m-24.645 260.935c-.34-2.835.34-3.15-1.478-5.25 2.5 1.05 2.615 3.885 5.685 1.9 1.137-.63 1.592-.63.227-3.675 3.184 0 13.644 3.675 15.236 3.78 4.434.2 12.393-4.62 17.85 1.26 5.344 5.355 3.525 10.92 3.525 18.375-2.047-1.05-1.137-1.47-3.41-4.2 1.82 6.5 0 18.27 0 25.2-.9-1.68-.796-1.05-1.592-2.73-2.274 6.3-5.003 7.665-5.003 15.015-.796-2.835 0-2.3-.9-3.78-2.274 4.725-17.055 8.82-11.37 13.65-5.003-2.94-7.277-2.625-9.665-5.355-1.023.63-1.82 1.9-2.73 3.57-9.096-4.2-5.685-13.125-12.848-19.1-1.137 2.52-.682 2.1-2.047 6.195-1.364-5.67-1.82-9.345-3.41-13.44-1.364 2.3-1.137 1.365-3.752 4.935-1.137-6.93-2.73-8.6-2.047-13.125-2.73 1.9-.9 1.05-3.638 3.465 2.5-17.85 13.53-30.87 21.376-26.67z" fill="#3d5da7" stroke="#000" stroke-width="1.532"/><path d="m-35.7 289.8c2.3-5.7 4.4-7.5 6-11.2 2.6-6.4 3-11.6 5.2-10.8 2.3.8 2.2 3.4-.8 9.8a25 25 0 0 1 -10.4 12.2zm8.8 14.3c1-5.1 2.4-7 3-10.3 1-5.8.5-10.1 2.6-9.9 2 .3 2.5 2.4 1.1 8.2s-2.3 7.1-6.7 12zm10.5 9.9c.3-5 1.5-6.9 1.6-10 .3-5.7-.7-9.7 1.2-9.7 2 0 2.7 2 2.1 7.6s-1.3 7-4.9 12zm22.7-32.4c-4.4-4.3-7-5.1-9.8-8-4.9-4.8-7.3-9.4-9-7.7-1.8 1.6-.7 4 4.5 8.7 5.2 4.6 7 5.2 14.3 7zm-2.7 16.6c-2.8-4.2-4.8-5.4-6.6-8.2-3.2-4.9-4.3-9.1-6-8-2 1-1.5 3.2 2 8 3.4 4.7 4.8 5.5 10.7 8.2z" fill="#a70000"/><path d="m438.806 255.956c-36.533 36.52-85.312 109.687-182.87 109.687-85.312 0-146.27-73.104-182.802-109.687 36.533-36.52 97.5-109.625 182.802-109.625 97.558 0 146.27 73.042 182.87 109.625z" fill="#fff" stroke="#000" stroke-width="1.374"/><path d="m243.2 184.4c9.8 11 1.6 15.4 12 16.1 10.8.8 4.6 11.6 13.8 12 6.4.2-.7 25.7 5.5 34.2 6.3 8.7 11.5 2.5 11.6 8.9.1 6.5-17 5.9-17.3 26-.5 11.7-14.5 12.5-15.2 20-.8 7 27.5 11 27.2 17.3-.4 6.3-30.7 5.3-32 12.4-.6 6.5 41.6 11.8 45 30.4-6.3 2-24.3 4-37.8 4-85.3 0-146.3-73.1-182.9-109.7 36.6-36.6 97.6-109.7 182.9-109.7 0 0-25.3 23.1-12.8 38.2z"/><path d="m141.4 217h8.9v29.2h-8.9zm0 48.8h8.9v29.2h-8.9zm17.7-48.8h8.9v29.2h-8.9zm0 48.8h8.9v29.2h-8.9zm17.9-48.8h8.8v29.2h-8.8zm0 48.8h8.8v29.2h-8.8zm17.7-48.8h8.9v29.2h-8.9zm0 48.8h8.9v29.2h-8.9zm17.7-48.8h8.9v29.2h-8.9zm0 48.8h8.9v29.2h-8.9zm17.8-48.8h8.8v29.2h-8.8zm0 48.8h8.8v29.2h-8.8z" fill="#fff"/><path d="m275.5 217h8.9v29.2h-8.9zm0 48.8h8.9v29.2h-8.9zm17.7-48.8h8.9v29.2h-8.9zm0 48.8h8.9v29.2h-8.9zm17.8-48.8h8.8v29.2h-8.8zm0 48.8h8.8v29.2h-8.8zm17.7-48.8h8.9v29.2h-9zm0 48.8h8.9v29.2h-9zm17.7-48.8h8.9v29.2h-8.9zm0 48.8h8.9v29.2h-8.9zm17.8-48.8h8.8v29.2h-8.8zm0 48.8h8.8v29.2h-8.8z"/><path d="m196.642 165.785c-5 9.76 8.908-3.227 30.724 13.143 5.48 5.928 8.915 13.075 9.908 20.62-4.636-.944-12.908-5.51-12.908-5.51s9.635 9.6 9.635 20.777c-3.363-2.125-5.1-1.8-6.18-4.407 0 3.542 3 5.903 3 11.5-2.046-1.67-4.268-3.172-6.636-4.486 3.18 5.588-5.91 16.448-1.364 20.07-7.908-1.18-16.09-6.296-19.27-11.805-1.727 1.102-1.818 2.912-2 4.88.273.157-12.1-9.208-10.908-12.828-1.727 2.36-1.91 3.62-2.272 6.296-4.812-4.102-8.345-9.192-10.272-14.796l-4.18 5.273c-1.454-9.208-1.454-8.893 1.545-16.763-2.092 1.456-4.095 3.006-6 4.643 2.643-14.988 12.526-28.294 27.18-36.595z" fill="#3d5da7" stroke="#000" stroke-width="1.19"/><path d="m184.4 213.6c.8-6.7 2.5-9.3 3-13.6 1-7.7-.1-13.2 2.6-13.1s3.5 3 2.2 10.6c-1.4 7.6-2.5 9.5-7.8 16.1zm14.1 12.4c-.5-5.7.5-8.1.2-11.8-.6-6.4-2.6-10.8-.3-11.2 2.4-.4 3.6 1.7 3.8 8.3.3 6.5-.3 8.2-3.7 14.7zm22.1 10c-2.4-4.8-4.5-6.3-6-9.5-2.8-5.6-3.3-10.1-5.4-9.3-2.2.8-2 3.2 1 8.7 3 5.4 4.5 6.5 10.4 10.2zm7.6-44c-6-3.3-9.2-3.3-13.2-5.4-6.9-3.6-11-7.7-12.4-5.5-1.4 2.3.5 4.5 7.7 7.8 7.1 3.3 9.3 3.5 18 3zm2.3 18.4c-4.5-3.7-7.1-4.3-10-6.7-5-4.1-7.6-8.2-9.3-6.6-1.6 1.7-.5 3.9 4.8 7.8 5.3 4 7.1 4.5 14.5 5.5z" fill="#a70000"/></g></g></svg>