<svg viewBox="0 0 640 480" xmlns="http://www.w3.org/2000/svg"><g fill-rule="evenodd"><path d="m0 0h640v480h-640z" fill="#28ae66" stroke-width=".884"/><path d="m206.975 128.975c26.17 12.569 57.312 0 68.568-17.447 11.631-16.321 13.038-43.617-6.941-68.662 30.954 25.701 37.895 54.873 22.418 78.886-20.636 27.483-66.223 26.639-84.045 7.223zm46.431-63.878 5.253.094-4.127 3.283 1.595 5.253-4.409-3.095-4.221 3.095 1.407-5.159-4.221-3.283 5.253-.094 1.782-5.159zm-25.983 32.642h5.253l-4.127 3.377 1.595 5.159-4.409-3.095-4.315 3.189 1.501-5.253-4.221-3.189 5.253-.188 1.688-5.159zm1.688-25.701h5.347l-4.221 3.377 1.595 5.159-4.315-3.095-4.315 3.189 1.501-5.253-4.221-3.283 5.253-.094 1.688-5.159zm0-25.795h5.347l-4.315 3.471 1.595 5.159-4.315-3.002-4.315 3.095 1.501-5.159-4.221-3.283 5.253-.094 1.688-5.159zm-28.797 32.642h5.253l-4.221 3.377 1.595 5.159-4.315-3.095-4.315 3.189 1.501-5.253-4.221-3.189 5.253-.188 1.688-5.159z" fill="#fff" stroke="#fff" stroke-linecap="round" stroke-linejoin="round" stroke-width="5"/><path d="m8.023 0h154.395v480h-154.395z" fill="#ca3745" stroke-width=".938"/></g></svg>