<svg viewBox="0 0 640 480" xmlns="http://www.w3.org/2000/svg"><g fill="#006" transform="scale(.67 1)"><path d="m0 0h960v480h-960z"/><path d="m0 0h350v175h-350z" fill-rule="evenodd"/></g><g fill="#fff"><path d="m0 0v19.6l310.9 155.4h39.1v-19.6l-310.9-155.4zm350 0v19.6l-310.9 155.4h-39.1v-19.6l310.9-155.4z"/><path d="m145.8 0v175h58.4v-175zm-145.8 58.3v58.4h350v-58.4z"/></g><path d="m0 70v35h350v-35zm157.5-70v175h35v-175zm-157.5 175 116.7-58.3h26l-116.5 58.3zm0-175 116.7 58.3h-26.1l-90.6-45.3zm207.3 58.3 116.6-58.3h26.1l-116.7 58.3zm142.7 116.7-116.7-58.3h26.1l90.6 45.3z" fill="#c00"/><g fill-rule="evenodd"><path d="m378.5 154.5 219.3-.9-.4 195.4s7.7 29.7-92 74.9c35.9-3.7 75-42 75-42s15.8-20.3 23.5-9a87 87 0 0 0 20.8 21.7c5.7 4.4 10.2 16.6 1.6 25.6-8.5 9-22 10.2-25.6-.8-5.7 2.8-40.7 45.2-112.3 47.2a159 159 0 0 1 -112.8-47.6s-9.7 15.4-23.6 3.2c-13.4-15.8-3.2-26-3.2-26s11.4-6.5 14.6-11c5.3-6.1 7-14.2 15.9-14.2 10.6.8 14.7 9.3 14.7 9.3s36.6 38.7 76 43.5c-89-42.7-92.3-69.1-92-75.6z" fill="#fff"/><path d="m383.8 159.7 209.1-1.2v188c.4 24.4-40.7 49.3-105 81-66.3-34.2-104.5-55-105-81.4z" fill="#006129" stroke="#000" stroke-width="1.7"/></g><g stroke="#000" stroke-width="1.7"><path d="m487.1 430c58.6-1.7 96.5-44 96-44.4-.4-.4 7.8-11.8 14.3-10.2s15.9 20.8 27.3 24.8c5.7 9-1.7 17.1-4.1 18.8-2.5 1.6-13.4 6-15-.4-1.7-6.6-5-5.3-5-5.3s-52 50.8-112.3 48.8c-62.2.4-113.5-48.8-113.5-48.8l-4.5 4.8s-4.9 5.3-7.3 5c-2.4-.5-13-7.4-13.8-14.3-.8-7 6.5-11.4 6.5-11.4s17.9-13.8 20-21.2c4-4 11.7 2.9 11.7 2.9s47.2 54.1 99.7 50.8z" fill="#f7c600" fill-rule="evenodd"/><g fill="none"><path d="m354.5 398.5s4.8-1.3 6.6.7 14 14 14 14"/><path d="m365.5 404.1-4.8 3.6s12.2 2.5 9.4 10.5m250.2-20.2s-2.4-1.3-6.2 1.5a158.5 158.5 0 0 0 -13.4 13.6"/><path d="m609.4 403.8 5.3 4s-11 .8-8.6 11.2"/></g></g></svg>