<svg xmlns="http://www.w3.org/2000/svg" xmlns:xlink="http://www.w3.org/1999/xlink" viewBox="0 0 640 480"><defs><path id="A" d="m66.3 170.5c.5-2.1 1.3-2.5 2.2-5.2.1-2.7-2.2-2.4-1.5-4.1 1.2-1.9.6-3.6-1.6-5 .4 2.4-3 4.7-3 6.7s1.8 1.6 1.6 4.6c0 1.8-.5 1.3-.6 3h3z"/><linearGradient id="B" gradientUnits="userSpaceOnUse"><stop offset="0" stop-color="red"/><stop offset="1" stop-color="#ff0"/></linearGradient><linearGradient id="C" x1="-28.41" x2="-35.22" xlink:href="#B" y1="188.87" y2="187.88"/><linearGradient id="D" x1="-28.41" x2="-35.22" xlink:href="#B" y1="189.87" y2="188.88"/><linearGradient id="E" x1="-31.71" x2="-38.52" xlink:href="#B" y1="190.67" y2="189.68"/><linearGradient id="F" x1="-28.41" x2="-35.22" xlink:href="#B" y1="191.67" y2="190.68"/><linearGradient id="G" x1="-28.51" x2="-35.32" xlink:href="#B" y1="192.47" y2="191.48"/><linearGradient id="H" x1="-28.51" x2="-35.32" xlink:href="#B" y1="193.47" y2="192.48"/><linearGradient id="I" x1="-31.71" x2="-38.52" xlink:href="#B" y1="193.37" y2="192.38"/><linearGradient id="J" x1="-31.71" x2="-38.52" xlink:href="#B" y1="192.47" y2="191.48"/><linearGradient id="K" x1="-31.71" x2="-38.52" xlink:href="#B" y1="191.67" y2="190.68"/><linearGradient id="L" x1="407.32" x2="398.27" xlink:href="#B" y1="392.95" y2="391.63"/><linearGradient id="M" x1="-31.71" x2="-38.52" xlink:href="#B" y1="189.77" y2="188.78"/><linearGradient id="N" x1="-29.01" x2="-35.82" xlink:href="#B" y1="190.67" y2="189.68"/></defs><g fill="#006"><path d="M0 0h643.2v480H0z"/><path d="M0 0h234.5v175H0z" fill-rule="evenodd"/></g><g fill="#fff"><path d="M0 0v19.6L310.9 175H350v-19.6L39.1 0zm350 0v19.6L39.1 175H0v-19.6L310.9 0z"/><path d="M145.8 0v175h58.4V0zM0 58.3v58.4h350V58.3z"/></g><path d="M0 70v35h350V70zM157.5 0v175h35V0zM0 175l116.7-58.3h26L26.2 175zM0 0l116.7 58.3H90.6L0 13zm207.3 58.3L323.9 0H350L233.3 58.3zM350 175l-116.7-58.3h26.1L350 162z" fill="#c00"/><g fill-rule="evenodd"><path d="M378.5 154.5l219.3-.9-.4 195.4s7.7 29.7-92 74.9c35.9-3.7 75-42 75-42s15.8-20.3 23.5-9a87 87 0 0 0 20.8 21.7c5.7 4.4 10.2 16.6 1.6 25.6-8.5 9-22 10.2-25.6-.8-5.7 2.8-40.7 45.2-112.3 47.2A159 159 0 0 1 375.6 419s-9.7 15.4-23.6 3.2c-13.4-15.8-3.2-26-3.2-26s11.4-6.5 14.6-11c5.3-6.1 7-14.2 15.9-14.2 10.6.8 14.7 9.3 14.7 9.3s36.6 38.7 76 43.5c-89-42.7-92.3-69.1-92-75.6z" fill="#fff"/><path d="m383.8 159.7 209.1-1.2v188c.4 24.4-40.7 49.3-105 81-66.3-34.2-104.5-55-105-81.4z" fill="#006129" stroke="#000" stroke-width="1.7"/></g><g stroke="#000"><path d="M551.48 347.78c-1.87-.04-2.96 2.47-1.66 3.8l-10.62 15.7 6.12.1H529.2c2.67 6.6 15.77 6.58 13.42 13.3h17.98c-4.73-6.02 6.4-4.8 7.8-11.44 2.4-4.26 10.2-3.63 2.6-.01-6.68 1.83-2.7 10.55-.38 2.63 8.95-1.85 7.34-12.9-1.7-6.94-3.58 3.07-8.32 2.58-12.58 2.36 2.4-.56 10.02 1.65 5.97-2.32-2.87-4.5-6.57-9.06-8.93-13.54 1.16-1.48-.04-3.78-1.92-3.67zm-130.18-.4c-1.98-.16-3.17 2.57-1.7 3.9L409 366.9l6.12.1H399c1.76 6.96 16.42 5.7 12.76 13.3h18.64c-4.74-6 6.4-4.8 7.75-11.44 2.38-4.27 10.17-3.62 2.57-.01-6.7 1.86-2.7 10.6-.3 2.63 8.94-1.95 7.33-12.83-1.76-6.9-2.46 3.16-10.48 2.48-11.94 2.33 2.85-.32 9.55 1.4 5.1-2.77-2.78-4.37-6.42-8.76-8.68-13.1 1.1-1.44-.01-3.64-1.8-3.64zm130.1-35.5c-1.92-.15-3.13 2.43-1.8 3.8L539 331.4l6.12.1H529c2.72 6.54 15.77 6.6 13.42 13.3h17.98c-4.73-6.02 6.38-4.87 7.8-11.46 2.42-4.2 10.2-3.65 2.6 0-6.7 1.8-2.67 10.54-.3 2.64 8.92-2 7.33-12.86-1.76-6.94-3.58 3.07-8.33 2.58-12.6 2.36 2.4-.56 10.02 1.65 5.97-2.32-2.87-4.5-6.57-9.06-8.93-13.54 1.13-1.43.03-3.67-1.8-3.67zm-130.92-1.8c-1.9-.04-2.98 2.54-1.6 3.87L408.2 329.6l6.22.1H398.3c1.84 6.9 16.42 5.66 12.76 13.3h18.64c-4.74-6 6.4-4.8 7.75-11.44 2.38-4.27 10.17-3.62 2.57-.01-6.7 1.83-2.7 10.57-.3 2.63 8.92-2 7.33-12.86-1.76-6.94-2.45 3.2-10.47 2.52-11.94 2.36 2.85-.32 9.55 1.4 5.1-2.78-2.78-4.38-6.38-8.78-8.66-13.14 1.1-1.47-.14-3.72-1.97-3.6zm26.5-31.6c-1.9-.04-2.97 2.52-1.63 3.85L434.7 298l6.22.1c-5.55 0-10.67-.02-16.12 0 .56 6.05 7.92 3.48 10.45 7.63 4.4 1.2 1.46 4.04 2.97 5.67h17.88c-4.75-6 6.42-4.82 7.8-11.44 2.4-4.26 10.2-3.63 2.6-.01-6.56 1.85-2.85 10.53-.38 2.63 8.9-1.86 7.35-12.85-1.7-6.9-2.46 3.16-10.47 2.48-11.93 2.33 2.83-.3 9.46 1.38 5-2.77-2.77-4.34-6.4-8.73-8.63-13.04 1.2-1.47.01-3.82-1.9-3.7zm104.7-2.3c-1.9-.04-2.97 2.5-1.63 3.84L539.4 295.6l6.12.2H529.4c2.7 6.57 15.74 6.55 13.42 13.2l17.98.1c-4.73-6.02 6.38-4.87 7.8-11.46 2.4-4.2 10.2-3.65 2.6 0-6.7 1.8-2.63 10.53-.38 2.62 8.94-1.86 7.33-12.84-1.7-6.9-3.53 3-8.5 2.74-12.63 2.26 2.4-.56 10.06 1.65 6-2.3-2.87-4.46-6.6-8.98-8.94-13.4 1.2-1.47.01-3.8-1.9-3.7zm-1.8-35.7c-1.9-.04-2.98 2.54-1.6 3.87L537.6 260c-2.98.5-8.08-1-9.75.73 1.54 5.28 8.04 3.1 10.64 7.15 5.2.7-.83 5.94 3.75 5.42H559c-4.73-6.03 6.4-4.74 7.84-11.37 2.7-4.4 9.97-3.52 2.57-.08-6.66 1.82-2.76 10.6-.3 2.73 8.9-2 7.32-12.95-1.8-7-5.08 5.7-6.97-1.03-9.67-4.5-1.75-3.03-4.75-6.07-5.75-9.08.96-1.5-.25-3.58-2.04-3.5zm-126.18-.6c-1.92-.15-3.13 2.43-1.8 3.8l-10.62 15.7 6.12.1h-16.1c2.67 6.6 15.77 6.58 13.42 13.3h17.98c-4.73-6.02 6.38-4.87 7.8-11.46 2.4-4.24 10.2-3.6 2.6.01-6.66 1.76-2.8 10.57-.4 2.63 8.9-1.9 7.4-12.87-1.67-6.94-3.58 3.08-8.32 2.58-12.6 2.36 2.4-.56 10.03 1.65 5.98-2.32-2.87-4.5-6.57-9.06-8.93-13.54 1.13-1.4.02-3.7-1.8-3.67zm127.78-35.7c-1.86-.04-2.96 2.46-1.67 3.8l-10.6 15.62 5.56.1H529.2c2.6 6.68 15.76 6.63 13.42 13.3h17.98c-4.75-6 6.38-4.8 7.8-11.37 2.37-4.16 10.2-3.66 2.6-.08-6.68 1.8-2.7 10.62-.38 2.7 8.93-1.9 7.36-12.93-1.7-6.92-2.44 3.2-10.5 2.56-11.95 2.34 2.84-.3 9.48 1.42 5.03-2.75-2.76-4.35-6.36-8.75-8.6-13.07 1.16-1.48-.04-3.78-1.92-3.67zm-127.6 0c-1.9-.04-2.98 2.52-1.63 3.85L411.6 223.7l5.56.1H401.6c2.6 6.68 15.78 6.6 13.42 13.3H433c-4.87-6.16 6.53-4.54 7.75-11.37 2.7-4.42 10-3.5 2.58-.08-6.6 1.76-2.7 10.6-.32 2.7 8.88-2.03 7.4-12.87-1.73-6.97-3.6 3.1-8.16 2.45-12.5 2.4 2.38-.55 10 1.7 5.94-2.28-2.88-4.52-6.6-9.1-8.96-13.6 1.2-1.47.02-3.83-1.88-3.72zm128.8-35.6c-1.9-.04-2.97 2.52-1.63 3.85L540.4 188.1l5.56.1H530.4c.56 6.03 7.88 3.62 10.48 7.7 4.45 1.12 1.38 4 2.94 5.6h17.98c-4.87-6.16 6.53-4.54 7.75-11.37 2.7-4.42 10-3.5 2.58-.08-6.6 1.76-2.7 10.6-.32 2.7 8.88-2.03 7.4-12.87-1.73-6.98-3.6 3.1-8.17 2.45-12.5 2.4 2.38-.55 10 1.7 5.94-2.28-2.88-4.52-6.6-9.1-8.96-13.6 1.22-1.47.02-3.83-1.88-3.72zm-128.1-.5c-1.86-.04-2.95 2.45-1.67 3.8l-10.7 15.63 6.22.2c-5.56 0-10.66-.02-16.12 0 .62 5.96 7.9 3.52 10.48 7.6 3.98 1.28 2.23 3.2 2.38 5.7h18.44c-4.7-6.03 6.4-4.83 7.87-11.46 2.43-4.18 10.23-3.66 2.55-.1-6.63 1.78-2.64 10.63-.3 2.7 8.9-2.03 7.37-12.9-1.76-6.98-3.58 3.12-8.14 2.44-12.46 2.4 2.38-.55 10 1.68 5.94-2.3-2.87-4.5-6.57-9.05-8.93-13.54 1.16-1.48-.04-3.78-1.92-3.67z" fill="#fc0"/><g fill-rule="evenodd"><g stroke-width=".6"><use fill="url(#C)" transform="matrix(1.32 0 0 1.32 316.6 141.4)" xlink:href="#A"/><use fill="url(#D)" transform="matrix(1.32 0 0 1.32 316 104)" xlink:href="#A"/><use fill="url(#E)" transform="matrix(1.32 0 0 1.32 447 70.1)" xlink:href="#A"/><use fill="url(#F)" transform="matrix(1.32 0 0 1.32 319 33.8)" xlink:href="#A"/><use fill="url(#G)" transform="matrix(1.32 0 0 1.32 319.3 -1.8)" xlink:href="#A"/><use fill="url(#H)" transform="matrix(1.32 0 0 1.32 320 -38)" xlink:href="#A"/><use fill="url(#I)" transform="matrix(1.32 0 0 1.32 448 -37.4)" xlink:href="#A"/><use fill="url(#J)" transform="matrix(1.32 0 0 1.32 446.9 -1.9)" xlink:href="#A"/><use fill="url(#K)" transform="matrix(1.32 0 0 1.32 445.3 34.4)" xlink:href="#A"/></g><path d="M535 367.52c.62-2.88 1.64-3.4 2.88-6.98.2-3.6-2.88-3.08-2.05-5.44 1.64-2.46.82-4.83-2.05-6.68.5 3.3-3.9 6.26-3.9 8.93s2.26 2.05 2.05 6.16c.1 2.26-.62 1.75-.82 4z" fill="url(#L)" stroke-width=".82"/><g stroke-width=".6"><use fill="url(#M)" transform="matrix(1.32 0 0 1.32 446.7 105.8)" xlink:href="#A"/><use fill="url(#N)" transform="matrix(1.32 0 0 1.32 342.4 72.5)" xlink:href="#A"/></g><path d="M479 211.6s-6.9 3.2-6.6 11.8c-1.8 8.3-2.7 16.6-2.7 16.6s-8.2 9.3-10.7 12.6-6.3 10.2-7.7 12-6.8 7.7-6.6 10c.1 2.2-1.3 12 4.1 13.1 1.4.6 5.9-11.3 5.9-11.3s.2-5.2-1.3-6.1 3.3-4.3 3.3-4.3l11.4-8.5c2.1-1.7 7.8-8 7.8-8l3.2-38zm4-31.7l.4 4c.1 1.4-2.2 4.4-2.4 4.2s-1.2.2-1 1 1.7 1.1 1.7 1.1-.7 3 0 3c.7.2-1.8 3.8 0 4.8s4.9 2.2 6.3 2c1.4-.4 0 5.3 0 5.3l-4 8.3 21.5-2.2-4.5-7s-2-1.4-1.5-5.5c.6-4-.3-22.2-.3-22.2l-15.2-2z" fill="#ffc6b5" stroke-width=".8"/></g><path d="M482.6 179.1c2.38.52 4.68-.6 6.84-1.45 2.3.01 3.43 2.28 4.93 3.63-.22 1.72-1.8 4.93.98 5.28 1.7.27 2.8 2 1.4 3.25.15 1.9 2.22 3.65.7 5.5-.26 2.13 2.05 3.15 2.93 4.78.5 2.18 3.53 1.94 4.27.03.55-2.02 3.24-2.2 3.78-4.23.32-2.04 2.4-2.64 3.28-4.17.44-2.33-2.57-3.4-2.2-5.73.2-1.78-.23-3.5-.63-5.2-.98-4.04-3.6-8.05-7.7-9.37-2.13-.47-4.6-.08-5.65-2.38-1.65-1.82-4.23-.93-5.36.96-1.14 1.68-2.74.44-4.08.2-1.33 1-1.36 3.74-3.62 3.3-2.15-.08-3.38 2.14-2.27 3.92.38.95 1.27 1.93 2.4 1.66z" fill="#9c5100" stroke-width=".8"/><g fill-rule="evenodd" stroke-width=".8"><path d="M487 205c4.3 10.3 14.5-4.92 20.8 1.8 5.7 3.4 10.62 12.92 1.68 15.4-6.6 6.73.7 16.03-1.53 23.92-1.23 13.26-.32 26.6-.93 39.9 2.7 7.72 3.95 16.22 6 24.3 1.7 8.66 4.66 17.22 5.05 25.96 3.53 7.3 6.92 14.84 6.7 23.07-2.93 5.48 4.64 13.48-.8 16.92-6.36 2.5-11.72.16-17.7 3.82-3.47 1.93-5.9-2.98-5.46 2.45-5.55 4.28-8.4-5.3-11.34-5.8 4.46 8.58-6.63 3.73-10.13 1.4-5-.67-13.28 7.25-15.6-1.2 0-6.33 1.6-12.55 3.16-18.8-1.28-8.2 2.58-18.44-2.75-24.98-.93-7.9 2.4-15.78 2.25-23.84 1.1-9.6 2.36-19.2 4.8-28.58-4.82-4.73 2.44-11.56 2.37-17.26 2.2-8.15 3.55-16.8 2.44-25.2-4.38-5.23-9.1-12.33-1.4-17.27 3.38-5.5 4.26-14.05 11.67-15.8z" fill="#fff"/><path d="m515.2 218.3c.1 0 4.5 13.7 5.1 17.2a112 112 0 0 1 1.7 19.3c-.7 2-7.8 11.2-8.6 13.6-.9 2.4-5.9 11.4-5.9 11.4s-1.2 8.9-1.8 9.3c-.5.4 1.5 2.6 1.3 3.3-.3.8-4 4.7-5.7 4.3s-4.3-2.4-4.4-4.2 0-7.7 1.3-9.3 7.8-16.9 8.2-17.9 6-13 6.1-15c.2-2.2-1.7-7-3.7-8.7-4.3-12.9-2.6-20.6 6.4-23.3z" fill="#ffc6b5"/></g><path d="M487.1 430c36.04-1.17 70.93-17.8 95.65-43.85 3.42-13.22 23.38-12.6 25.97.82 7.12 8.27 25.73 16.6 14.5 29.58-6.2 8.72-18.18 4.38-22.14-2-10.9 4.68-17.83 15.46-28.68 20.58-32.13 21.55-72.6 33-110.95 24.14-32.13-6.7-61.13-23.93-85.88-45.05-6.42 6.84-16.8 11.98-23.17 1.87-9.34-13 7.62-21.8 15.4-29.23 4.15-10.6 16.86-15.4 23.42-4 22.6 23.22 51.37 43.33 84.4 46.8 3.82.36 7.66.48 11.5.32z" fill="#f7c600"/></g></svg>