<svg viewBox="0 0 640 480" xmlns="http://www.w3.org/2000/svg"><path d="m0 0h640v480h-640z" fill="#244aa5"/><path d="m253 224.8c9.499.937 28.486-4.855 18.115-16.495 3.272-14.048 27.166-10.34 25.145-28.061 9.089-8.689-22.643-20.493-.635-23.326 8.577-2.57 19.758-14.402 26.884-4.502 6.702 7.407-9.586 7.878.816 14.343 10.688 4.708 23.014 9.576 34.319 6.777 7.918 5.746 4.072 24.828 16.05 20.834 1.835 10.038 6.082 23.747 17.784 21.442 9.849 2.893 15.185 8.379 7.487 17.608-2.206 16.132 20.99 5.608 28.724 15.85 5.506 5.714 8.221 5.316 14.416 1.804 11.373.162 10.521 12.944 5.277 17.883-1.551 11.577-14.199 17.887-17.544 29.217 8.563 12.538-21.029 9.477-12.185 20.462 13.788 5.518-2.369 20.095-6.994 6.444-6.938.128-6.005 10.926-14.48 8.241-13.281 3.643-5.255 33.332-22.207 23.213-3.515-9.762-10.88-24.518-22.96-13.335-10.931 9.735-26.201 11.319-37.843 19.535-11.076 9.914 5.489 34.19-14.502 37.317-13.473 5.81-17.356-12.236-8.973-18.778-3.572-11.831-9.561-22.804-10.501-35.389-3.133-13.04-14.484-22.691-26.757-26.731-17.636 1.006-16.898-15.929-22.503-27.881-5.481-10.23-21.365-14.391-14.709-28.745 3.639-11.989-23.46-8.893-11.806-22.492 10.078-10.917 26.477 7.109 34.527-9.009 3.751-4.279 9.194-7.42 15.055-6.225z" fill="#d0a650"/><path d="m351.9 73.4 16.1 49.6-42.2-30.7h52.2l-42.2 30.7 16-49.6zm62.8 11.1 16 49.6-42.1-30.7h52.1l-42.2 30.7zm59.9 21.8 16 49.6-42.1-30.7h52.1l-42.2 30.8 16.2-49.6zm-186.5-32.9-16.1 49.6 42.2-30.7h-52.2l42.2 30.7-16-49.6zm-62.8 11.1-16 49.6 42.1-30.7h-52.1l42.2 30.7zm-59.6 21.8 16.2 49.6-42.2-30.7h52.1l-42.2 30.7z" fill="#fff"/></svg>