<svg viewBox="0 0 640 480" xmlns="http://www.w3.org/2000/svg"><g stroke-width="1.16"><path d="m-2.3-.1h984.48v480.06h-984.48z" fill="#006400"/><path d="m-2.3 68.48h984.48v342.9h-984.48z" fill="#ffd200"/><path d="m-2.3 137.06h984.48v205.74h-984.48z" fill="#d40000"/><path d="m-2.3 205.64h984.48v68.58h-984.48z"/></g><path d="m-2.3-.1v480.06l328.16-240.03z" stroke="#000" stroke-width="23.15"/><g stroke-width="1.16"><path d="m-2.3-.1v480.06l328.16-240.03z" fill="#fff"/><path d="m122.52 119.23 65.05 195.11-170.17-120.59h210.37l-170.29 120.59z" fill="#d40000"/><path d="m94.74 289.88c11.22-2.51 22.81-2.81 34.25-2.67 7.36.33 14.65 1.8 21.81 3.19 7.03-1.71 1.36-11.09 3.83-16.2 1.79-12.09 6.59-23.58 12.54-34.16 1.99-5.87 12.17 3.57 10.69-3-11.44-9.39-23.02-18.72-35.08-27.35-8.48-6.12-16.9-12.39-25.44-18.39-3.38-6.09-1.23-13.75-3.79-20.28-1.26-8.15-10.85-9.71-17.38-7.21-3.03 1.72-12.22 1.52-9.75 6.51 1.77.88 10.39.2 7.27 2.4-4.83-.69-5.07 3.48-.36 3.34 5.96 1.61 4.58 8.47 4.5 13.09.03 6.89.28 13.78.08 20.67-3.29 6.87-2.27 14.74.02 21.72-1.88 6.41-9.88 10.6-10.74 18.19-3.92 5.95-.28 12.15 1.58 18.12 2.46 7.07 3.79 14.45 5.15 21.79z" fill="#fc0"/></g></svg>