<svg viewBox="0 0 640 480" xmlns="http://www.w3.org/2000/svg"><g stroke-width="1.157"><path d="m-2.3-.1h984.48v480.06h-984.48z" fill="#006400"/><path d="m-2.3 68.48h984.48v342.9h-984.48z" fill="#ffd200"/><path d="m-2.3 137.06h984.48v205.74h-984.48z" fill="#d40000"/><path d="m-2.3 205.64h984.48v68.58h-984.48z"/></g><path d="m-2.3-.1v480.06l328.16-240.03z" stroke="#000" stroke-width="23.148"/><g stroke-width="1.157"><path d="m-2.3-.1v480.06l328.16-240.03z" fill="#fff"/><path d="m122.518 119.229 65.046 195.11-170.174-120.586h210.374l-170.292 120.586z" fill="#d40000"/><path d="m94.742 289.879c11.22-2.511 22.807-2.805 34.252-2.668 7.363.33 14.645 1.798 21.814 3.19 7.026-1.707 1.356-11.091 3.831-16.196 1.791-12.086 6.591-23.578 12.538-34.162 1.992-5.872 12.166 3.566 10.688-3-11.443-9.389-23.019-18.719-35.08-27.353-8.483-6.118-16.901-12.39-25.442-18.386-3.384-6.09-1.232-13.752-3.785-20.282-1.256-8.153-10.849-9.711-17.383-7.209-3.033 1.717-12.218 1.521-9.752 6.51 1.77.882 10.391.203 7.274 2.404-4.828-.692-5.074 3.476-.364 3.337 5.956 1.612 4.581 8.466 4.499 13.089.033 6.89.284 13.78.078 20.67-3.294 6.869-2.274 14.743.022 21.724-1.875 6.41-9.883 10.599-10.737 18.194-3.919 5.947-.28 12.146 1.58 18.122 2.462 7.066 3.787 14.451 5.147 21.789z" fill="#fc0"/></g></svg>