<svg xmlns="http://www.w3.org/2000/svg" height="64" width="64" xmlns:v="https://vecta.io/nano"><radialGradient id="A" cx="31.93" cy="32" gradientTransform="matrix(.83 0 0 .81 5.44 5.97)" gradientUnits="userSpaceOnUse" r="17.66"><stop offset="0" stop-color="#ccc"/><stop offset="1" stop-color="gray"/></radialGradient><path d="M31.93 14.34c-9.7 0-17.66 7.95-17.66 17.66s7.95 17.66 17.66 17.66S49.6 41.7 49.6 32s-7.95-17.66-17.66-17.66zm0 25.02c-4.12 0-7.36-3.24-7.36-7.36s3.24-7.36 7.36-7.36S39.3 27.88 39.3 32s-3.24 7.36-7.36 7.36z" fill="url(#A)" stroke="gray"/><path d="M54.9 35.24c.15-1.03.3-2.06.3-3.24s-.15-2.2-.3-3.24l6.62-4.7c.6-.44.88-1.33.44-2.06l-6.47-10.9c-.44-.74-1.18-1.03-1.9-.6l-7.36 3.4a26.35 26.35 0 0 0-5.59-3.24l-.74-8.1c-.15-.74-.74-1.33-1.47-1.33H25.75c-.74 0-1.47.6-1.47 1.33l-.74 8.1c-2.06.88-3.97 1.9-5.6 3.24l-7.36-3.4c-.74-.3-1.62 0-1.9.6L2.34 22c-.44.74-.15 1.62.44 2.06l6.62 4.7c-.15 1.03-.3 2.06-.3 3.24s.15 2.2.3 3.24l-6.92 4.7c-.6.44-.88 1.33-.44 2.06l6.33 10.9c.44.74 1.18 1.03 1.9.6l7.36-3.4a26.35 26.35 0 0 0 5.59 3.24l.74 8.1c.15.74.74 1.33 1.47 1.33H38.1c.74 0 1.47-.6 1.47-1.33l.74-8.1c2.06-.88 3.97-1.9 5.6-3.24l7.36 3.4c.74.3 1.62 0 1.9-.6L61.5 42c.44-.74.15-1.62-.44-2.06zM31.93 46.72c-8.1 0-14.72-6.62-14.72-14.72s6.62-14.72 14.72-14.72S46.64 23.9 46.64 32s-6.62 14.72-14.7 14.72z" fill="#e6e6e6" stroke="#4d4d4d" stroke-width="2.48"/></svg>